<svg width="1280" height="660" viewBox="0 0 1280 660" fill="none" xmlns="http://www.w3.org/2000/svg">
<rect width="1280" height="660" fill="#141B25"/>
<path d="M1112.82 583.63C1110.49 586.635 1106.5 588.57 1100.81 589.367C1095.11 590.164 1087.83 589.802 1079.12 588.315C1061.72 585.343 1038.86 577.922 1012.13 566.681C958.672 544.207 889.881 506.548 818.443 459.025C747.005 411.502 686.491 363.144 646.401 323.388C626.351 303.504 611.446 285.809 602.832 271.472C598.523 264.301 595.818 258.02 594.806 252.759C593.793 247.499 594.492 243.375 596.816 240.37C599.141 237.365 603.129 235.43 608.826 234.633C614.524 233.836 621.807 234.198 630.512 235.685C647.917 238.657 670.769 246.078 697.505 257.319C750.961 279.793 819.751 317.452 891.189 364.975C962.627 412.498 1023.14 460.856 1063.23 500.612C1083.28 520.496 1098.19 538.191 1106.8 552.528C1111.11 559.699 1113.81 565.98 1114.83 571.241C1115.84 576.501 1115.14 580.625 1112.82 583.63Z" stroke="#1F2431" stroke-width="2"/>
<path d="M1112.82 583.63C1110.49 586.635 1106.5 588.57 1100.81 589.367C1095.11 590.164 1087.83 589.802 1079.12 588.315C1061.72 585.343 1038.86 577.922 1012.13 566.681C958.672 544.207 889.881 506.548 818.443 459.025C747.005 411.502 686.491 363.144 646.401 323.388C626.351 303.504 611.446 285.809 602.832 271.472C598.523 264.301 595.818 258.02 594.806 252.759C593.793 247.499 594.492 243.375 596.816 240.37C599.141 237.365 603.129 235.43 608.826 234.633C614.524 233.836 621.807 234.198 630.512 235.685C647.917 238.657 670.769 246.078 697.505 257.319C750.961 279.793 819.751 317.452 891.189 364.975C962.627 412.498 1023.14 460.856 1063.23 500.612C1083.28 520.496 1098.19 538.191 1106.8 552.528C1111.11 559.699 1113.81 565.98 1114.83 571.241C1115.84 576.501 1115.14 580.625 1112.82 583.63Z" stroke="url(#paint0_linear_1684_1674)" stroke-width="2"/>
<path d="M939.822 589.074C932.152 592.151 922.375 590.232 911.078 583.715C899.805 577.212 887.22 566.237 874.105 551.602C847.882 522.341 819.699 478.625 795.803 427.389C771.907 376.154 756.855 327.171 751.819 289.411C749.3 270.525 749.295 254.505 751.904 242.433C754.519 230.335 759.707 222.414 767.377 219.337C775.048 216.26 784.825 218.179 796.122 224.696C807.395 231.199 819.98 242.174 833.095 256.809C859.317 286.071 887.501 329.786 911.397 381.022C935.293 432.257 950.344 481.241 955.381 519C957.9 537.886 957.905 553.907 955.296 565.979C952.681 578.076 947.493 585.997 939.822 589.074Z" stroke="#1F2431" stroke-width="2"/>
<path d="M939.822 589.074C932.152 592.151 922.375 590.232 911.078 583.715C899.805 577.212 887.22 566.237 874.105 551.602C847.882 522.341 819.699 478.625 795.803 427.389C771.907 376.154 756.855 327.171 751.819 289.411C749.3 270.525 749.295 254.505 751.904 242.433C754.519 230.335 759.707 222.414 767.377 219.337C775.048 216.26 784.825 218.179 796.122 224.696C807.395 231.199 819.98 242.174 833.095 256.809C859.317 286.071 887.501 329.786 911.397 381.022C935.293 432.257 950.344 481.241 955.381 519C957.9 537.886 957.905 553.907 955.296 565.979C952.681 578.076 947.493 585.997 939.822 589.074Z" stroke="url(#paint1_linear_1684_1674)" stroke-width="2"/>
<path d="M813.955 604.229C806.242 601.499 800.773 593.83 797.67 581.878C794.574 569.951 793.897 553.971 795.586 535.022C798.961 497.138 811.767 447.618 833.228 395.463C854.69 343.309 880.713 298.467 905.411 268.128C917.765 252.954 929.749 241.455 940.625 234.473C951.526 227.476 961.114 225.136 968.827 227.866C976.54 230.596 982.009 238.264 985.112 250.217C988.208 262.144 988.884 278.124 987.196 297.072C983.821 334.957 971.015 384.477 949.554 436.632C928.092 488.786 902.069 533.628 877.371 563.967C865.017 579.141 853.033 590.64 842.156 597.622C831.256 604.619 821.668 606.958 813.955 604.229Z" stroke="#1F2431" stroke-width="2"/>
<path d="M813.955 604.229C806.242 601.499 800.773 593.83 797.67 581.878C794.574 569.951 793.897 553.971 795.586 535.022C798.961 497.138 811.767 447.618 833.228 395.463C854.69 343.309 880.713 298.467 905.411 268.128C917.765 252.954 929.749 241.455 940.625 234.473C951.526 227.476 961.114 225.136 968.827 227.866C976.54 230.596 982.009 238.264 985.112 250.217C988.208 262.144 988.884 278.124 987.196 297.072C983.821 334.957 971.015 384.477 949.554 436.632C928.092 488.786 902.069 533.628 877.371 563.967C865.017 579.141 853.033 590.64 842.156 597.622C831.256 604.619 821.668 606.958 813.955 604.229Z" stroke="url(#paint2_linear_1684_1674)" stroke-width="2"/>
<path d="M642.836 571.839C641.019 569.428 640.639 565.982 641.886 561.422C643.13 556.873 645.956 551.377 650.279 545.053C658.922 532.412 673.413 516.657 692.653 498.835C731.121 463.204 788.43 419.445 855.462 376.016C922.493 332.588 986.515 297.739 1035.82 276.5C1060.49 265.877 1081.42 258.679 1097.2 255.502C1105.09 253.913 1111.62 253.344 1116.66 253.825C1121.7 254.308 1125.06 255.825 1126.88 258.236C1128.69 260.648 1129.08 264.093 1127.83 268.654C1126.58 273.203 1123.76 278.698 1119.43 285.023C1110.79 297.664 1096.3 313.419 1077.06 331.24C1038.59 366.872 981.284 410.631 914.253 454.06C847.221 497.488 783.2 532.337 733.89 553.576C709.227 564.198 688.289 571.397 672.517 574.573C664.627 576.163 658.091 576.732 653.056 576.251C648.01 575.768 644.652 574.251 642.836 571.839Z" stroke="#1F2431" stroke-width="2"/>
<path d="M642.836 571.839C641.019 569.428 640.639 565.982 641.886 561.422C643.13 556.873 645.956 551.377 650.279 545.053C658.922 532.412 673.413 516.657 692.653 498.835C731.121 463.204 788.43 419.445 855.462 376.016C922.493 332.588 986.515 297.739 1035.82 276.5C1060.49 265.877 1081.42 258.679 1097.2 255.502C1105.09 253.913 1111.62 253.344 1116.66 253.825C1121.7 254.308 1125.06 255.825 1126.88 258.236C1128.69 260.648 1129.08 264.093 1127.83 268.654C1126.58 273.203 1123.76 278.698 1119.43 285.023C1110.79 297.664 1096.3 313.419 1077.06 331.24C1038.59 366.872 981.284 410.631 914.253 454.06C847.221 497.488 783.2 532.337 733.89 553.576C709.227 564.198 688.289 571.397 672.517 574.573C664.627 576.163 658.091 576.732 653.056 576.251C648.01 575.768 644.652 574.251 642.836 571.839Z" stroke="url(#paint3_linear_1684_1674)" stroke-width="2"/>
<path d="M567.857 399.781C568.029 396.745 570.144 393.687 574.47 390.67C578.777 387.666 585.102 384.83 593.286 382.209C609.642 376.97 633.182 372.661 662.218 369.486C720.276 363.137 800.124 361.34 887.995 365.609C975.865 369.877 1055.07 379.401 1112.1 391.339C1140.62 397.31 1163.54 403.877 1179.22 410.672C1187.06 414.072 1193.03 417.505 1196.98 420.909C1200.94 424.329 1202.7 427.575 1202.53 430.611C1202.36 433.647 1200.24 436.705 1195.92 439.722C1191.61 442.726 1185.29 445.561 1177.1 448.183C1160.75 453.422 1137.21 457.731 1108.17 460.906C1050.11 467.255 970.263 469.051 882.393 464.783C794.523 460.515 715.314 450.991 658.289 439.052C629.769 433.081 606.843 426.515 591.167 419.72C583.324 416.32 577.353 412.887 573.408 409.483C569.445 406.063 567.686 402.817 567.857 399.781Z" stroke="#1F2431" stroke-width="2"/>
<path d="M567.857 399.781C568.029 396.745 570.144 393.687 574.47 390.67C578.777 387.666 585.102 384.83 593.286 382.209C609.642 376.97 633.182 372.661 662.218 369.486C720.276 363.137 800.124 361.34 887.995 365.609C975.865 369.877 1055.07 379.401 1112.1 391.339C1140.62 397.31 1163.54 403.877 1179.22 410.672C1187.06 414.072 1193.03 417.505 1196.98 420.909C1200.94 424.329 1202.7 427.575 1202.53 430.611C1202.36 433.647 1200.24 436.705 1195.92 439.722C1191.61 442.726 1185.29 445.561 1177.1 448.183C1160.75 453.422 1137.21 457.731 1108.17 460.906C1050.11 467.255 970.263 469.051 882.393 464.783C794.523 460.515 715.314 450.991 658.289 439.052C629.769 433.081 606.843 426.515 591.167 419.72C583.324 416.32 577.353 412.887 573.408 409.483C569.445 406.063 567.686 402.817 567.857 399.781Z" stroke="url(#paint4_linear_1684_1674)" stroke-width="2"/>
<g filter="url(#filter0_f_1684_1674)">
<ellipse cx="1206" cy="428.679" rx="15" ry="14.3732" fill="#1F2431"/>
<ellipse cx="1206" cy="428.679" rx="15" ry="14.3732" fill="url(#paint5_radial_1684_1674)"/>
<path d="M1220 428.679C1220 436.025 1213.77 442.052 1206 442.052C1198.23 442.052 1192 436.025 1192 428.679C1192 421.333 1198.23 415.306 1206 415.306C1213.77 415.306 1220 421.333 1220 428.679Z" stroke="#1F2431" stroke-width="2"/>
<path d="M1220 428.679C1220 436.025 1213.77 442.052 1206 442.052C1198.23 442.052 1192 436.025 1192 428.679C1192 421.333 1198.23 415.306 1206 415.306C1213.77 415.306 1220 421.333 1220 428.679Z" stroke="url(#paint6_linear_1684_1674)" stroke-width="2"/>
</g>
<g filter="url(#filter1_f_1684_1674)">
<ellipse cx="933" cy="591.373" rx="15" ry="14.3732" fill="#1F2431"/>
<ellipse cx="933" cy="591.373" rx="15" ry="14.3732" fill="url(#paint7_radial_1684_1674)"/>
<path d="M947 591.373C947 598.719 940.773 604.746 933 604.746C925.227 604.746 919 598.719 919 591.373C919 584.027 925.227 578 933 578C940.773 578 947 584.027 947 591.373Z" stroke="#1F2431" stroke-width="2"/>
<path d="M947 591.373C947 598.719 940.773 604.746 933 604.746C925.227 604.746 919 598.719 919 591.373C919 584.027 925.227 578 933 578C940.773 578 947 584.027 947 591.373Z" stroke="url(#paint8_linear_1684_1674)" stroke-width="2"/>
</g>
<g filter="url(#filter2_f_1684_1674)">
<ellipse cx="597" cy="243.744" rx="15" ry="14.3732" fill="#1F2431"/>
<ellipse cx="597" cy="243.744" rx="15" ry="14.3732" fill="url(#paint9_radial_1684_1674)"/>
<path d="M611 243.744C611 251.09 604.773 257.117 597 257.117C589.227 257.117 583 251.09 583 243.744C583 236.398 589.227 230.37 597 230.37C604.773 230.37 611 236.398 611 243.744Z" stroke="#1F2431" stroke-width="2"/>
<path d="M611 243.744C611 251.09 604.773 257.117 597 257.117C589.227 257.117 583 251.09 583 243.744C583 236.398 589.227 230.37 597 230.37C604.773 230.37 611 236.398 611 243.744Z" stroke="url(#paint10_linear_1684_1674)" stroke-width="2"/>
</g>
<g filter="url(#filter3_f_1684_1674)">
<ellipse cx="641" cy="576.244" rx="15" ry="14.3732" fill="#1F2431"/>
<ellipse cx="641" cy="576.244" rx="15" ry="14.3732" fill="url(#paint11_radial_1684_1674)"/>
<path d="M655 576.244C655 583.59 648.773 589.618 641 589.618C633.227 589.618 627 583.59 627 576.244C627 568.898 633.227 562.871 641 562.871C648.773 562.871 655 568.898 655 576.244Z" stroke="#1F2431" stroke-width="2"/>
<path d="M655 576.244C655 583.59 648.773 589.618 641 589.618C633.227 589.618 627 583.59 627 576.244C627 568.898 633.227 562.871 641 562.871C648.773 562.871 655 568.898 655 576.244Z" stroke="url(#paint12_linear_1684_1674)" stroke-width="2"/>
</g>
<g filter="url(#filter4_f_1684_1674)">
<ellipse cx="1132" cy="254.373" rx="15" ry="14.3732" fill="#1F2431"/>
<ellipse cx="1132" cy="254.373" rx="15" ry="14.3732" fill="url(#paint13_radial_1684_1674)"/>
<path d="M1146 254.373C1146 261.719 1139.77 267.746 1132 267.746C1124.23 267.746 1118 261.719 1118 254.373C1118 247.027 1124.23 241 1132 241C1139.77 241 1146 247.027 1146 254.373Z" stroke="#1F2431" stroke-width="2"/>
<path d="M1146 254.373C1146 261.719 1139.77 267.746 1132 267.746C1124.23 267.746 1118 261.719 1118 254.373C1118 247.027 1124.23 241 1132 241C1139.77 241 1146 247.027 1146 254.373Z" stroke="url(#paint14_linear_1684_1674)" stroke-width="2"/>
</g>
<g filter="url(#filter5_f_1684_1674)">
<ellipse cx="966.5" cy="225.058" rx="11.5" ry="11.0195" fill="#1F2431"/>
<ellipse cx="966.5" cy="225.058" rx="11.5" ry="11.0195" fill="url(#paint15_radial_1684_1674)"/>
<path d="M977 225.058C977 230.552 972.34 235.078 966.5 235.078C960.66 235.078 956 230.552 956 225.058C956 219.564 960.66 215.039 966.5 215.039C972.34 215.039 977 219.564 977 225.058Z" stroke="#1F2431" stroke-width="2"/>
<path d="M977 225.058C977 230.552 972.34 235.078 966.5 235.078C960.66 235.078 956 230.552 956 225.058C956 219.564 960.66 215.039 966.5 215.039C972.34 215.039 977 219.564 977 225.058Z" stroke="url(#paint16_linear_1684_1674)" stroke-width="2"/>
</g>
<g filter="url(#filter6_f_1684_1674)">
<ellipse cx="809.48" cy="452.195" rx="7.16331" ry="6.86398" transform="rotate(-2.7096 809.48 452.195)" fill="#1F2431"/>
<ellipse cx="809.48" cy="452.195" rx="7.16331" ry="6.86398" transform="rotate(-2.7096 809.48 452.195)" fill="url(#paint17_radial_1684_1674)"/>
<path d="M815.636 451.904C815.787 455.099 813.198 457.89 809.757 458.053C806.316 458.216 803.475 455.682 803.323 452.487C803.172 449.292 805.762 446.501 809.203 446.338C812.643 446.175 815.485 448.709 815.636 451.904Z" stroke="#1F2431" stroke-width="2"/>
<path d="M815.636 451.904C815.787 455.099 813.198 457.89 809.757 458.053C806.316 458.216 803.475 455.682 803.323 452.487C803.172 449.292 805.762 446.501 809.203 446.338C812.643 446.175 815.485 448.709 815.636 451.904Z" stroke="url(#paint18_linear_1684_1674)" stroke-width="2"/>
</g>
<g filter="url(#filter7_f_1684_1674)">
<ellipse cx="960.48" cy="419.195" rx="7.16331" ry="6.86398" transform="rotate(-2.7096 960.48 419.195)" fill="#1F2431"/>
<ellipse cx="960.48" cy="419.195" rx="7.16331" ry="6.86398" transform="rotate(-2.7096 960.48 419.195)" fill="url(#paint19_radial_1684_1674)"/>
<path d="M966.636 418.904C966.787 422.099 964.198 424.89 960.757 425.053C957.316 425.216 954.475 422.682 954.323 419.487C954.172 416.292 956.762 413.501 960.203 413.338C963.643 413.175 966.485 415.709 966.636 418.904Z" stroke="#1F2431" stroke-width="2"/>
<path d="M966.636 418.904C966.787 422.099 964.198 424.89 960.757 425.053C957.316 425.216 954.475 422.682 954.323 419.487C954.172 416.292 956.762 413.501 960.203 413.338C963.643 413.175 966.485 415.709 966.636 418.904Z" stroke="url(#paint20_linear_1684_1674)" stroke-width="2"/>
</g>
<g filter="url(#filter8_f_1684_1674)">
<ellipse cx="1110.48" cy="586.195" rx="7.16331" ry="6.86398" transform="rotate(-2.7096 1110.48 586.195)" fill="#1F2431"/>
<ellipse cx="1110.48" cy="586.195" rx="7.16331" ry="6.86398" transform="rotate(-2.7096 1110.48 586.195)" fill="url(#paint21_radial_1684_1674)"/>
<path d="M1116.64 585.904C1116.79 589.099 1114.2 591.89 1110.76 592.053C1107.32 592.216 1104.47 589.682 1104.32 586.487C1104.17 583.292 1106.76 580.501 1110.2 580.338C1113.64 580.175 1116.48 582.709 1116.64 585.904Z" stroke="#1F2431" stroke-width="2"/>
<path d="M1116.64 585.904C1116.79 589.099 1114.2 591.89 1110.76 592.053C1107.32 592.216 1104.47 589.682 1104.32 586.487C1104.17 583.292 1106.76 580.501 1110.2 580.338C1113.64 580.175 1116.48 582.709 1116.64 585.904Z" stroke="url(#paint22_linear_1684_1674)" stroke-width="2"/>
</g>
<g filter="url(#filter9_f_1684_1674)">
<ellipse cx="558.5" cy="397.537" rx="11.5" ry="11.0195" fill="#1F2431"/>
<ellipse cx="558.5" cy="397.537" rx="11.5" ry="11.0195" fill="url(#paint23_radial_1684_1674)"/>
<path d="M569 397.537C569 403.031 564.34 407.556 558.5 407.556C552.66 407.556 548 403.031 548 397.537C548 392.043 552.66 387.517 558.5 387.517C564.34 387.517 569 392.043 569 397.537Z" stroke="#1F2431" stroke-width="2"/>
<path d="M569 397.537C569 403.031 564.34 407.556 558.5 407.556C552.66 407.556 548 403.031 548 397.537C548 392.043 552.66 387.517 558.5 387.517C564.34 387.517 569 392.043 569 397.537Z" stroke="url(#paint24_linear_1684_1674)" stroke-width="2"/>
</g>
<g filter="url(#filter10_f_1684_1674)">
<ellipse cx="767.48" cy="219.195" rx="7.16331" ry="6.86398" transform="rotate(-2.7096 767.48 219.195)" fill="#1F2431"/>
<ellipse cx="767.48" cy="219.195" rx="7.16331" ry="6.86398" transform="rotate(-2.7096 767.48 219.195)" fill="url(#paint25_radial_1684_1674)"/>
<path d="M773.636 218.904C773.787 222.099 771.198 224.89 767.757 225.053C764.316 225.216 761.475 222.682 761.323 219.487C761.172 216.292 763.762 213.501 767.203 213.338C770.643 213.175 773.485 215.709 773.636 218.904Z" stroke="#1F2431" stroke-width="2"/>
<path d="M773.636 218.904C773.787 222.099 771.198 224.89 767.757 225.053C764.316 225.216 761.475 222.682 761.323 219.487C761.172 216.292 763.762 213.501 767.203 213.338C770.643 213.175 773.485 215.709 773.636 218.904Z" stroke="url(#paint26_linear_1684_1674)" stroke-width="2"/>
</g>
<defs>
<filter id="filter0_f_1684_1674" x="1187" y="410.306" width="38" height="36.7465" filterUnits="userSpaceOnUse" color-interpolation-filters="sRGB">
<feFlood flood-opacity="0" result="BackgroundImageFix"/>
<feBlend mode="normal" in="SourceGraphic" in2="BackgroundImageFix" result="shape"/>
<feGaussianBlur stdDeviation="2" result="effect1_foregroundBlur_1684_1674"/>
</filter>
<filter id="filter1_f_1684_1674" x="914" y="573" width="38" height="36.7465" filterUnits="userSpaceOnUse" color-interpolation-filters="sRGB">
<feFlood flood-opacity="0" result="BackgroundImageFix"/>
<feBlend mode="normal" in="SourceGraphic" in2="BackgroundImageFix" result="shape"/>
<feGaussianBlur stdDeviation="2" result="effect1_foregroundBlur_1684_1674"/>
</filter>
<filter id="filter2_f_1684_1674" x="578" y="225.37" width="38" height="36.7463" filterUnits="userSpaceOnUse" color-interpolation-filters="sRGB">
<feFlood flood-opacity="0" result="BackgroundImageFix"/>
<feBlend mode="normal" in="SourceGraphic" in2="BackgroundImageFix" result="shape"/>
<feGaussianBlur stdDeviation="2" result="effect1_foregroundBlur_1684_1674"/>
</filter>
<filter id="filter3_f_1684_1674" x="622" y="557.871" width="38" height="36.7465" filterUnits="userSpaceOnUse" color-interpolation-filters="sRGB">
<feFlood flood-opacity="0" result="BackgroundImageFix"/>
<feBlend mode="normal" in="SourceGraphic" in2="BackgroundImageFix" result="shape"/>
<feGaussianBlur stdDeviation="2" result="effect1_foregroundBlur_1684_1674"/>
</filter>
<filter id="filter4_f_1684_1674" x="1113" y="236" width="38" height="36.7463" filterUnits="userSpaceOnUse" color-interpolation-filters="sRGB">
<feFlood flood-opacity="0" result="BackgroundImageFix"/>
<feBlend mode="normal" in="SourceGraphic" in2="BackgroundImageFix" result="shape"/>
<feGaussianBlur stdDeviation="2" result="effect1_foregroundBlur_1684_1674"/>
</filter>
<filter id="filter5_f_1684_1674" x="951" y="210.039" width="31" height="30.0388" filterUnits="userSpaceOnUse" color-interpolation-filters="sRGB">
<feFlood flood-opacity="0" result="BackgroundImageFix"/>
<feBlend mode="normal" in="SourceGraphic" in2="BackgroundImageFix" result="shape"/>
<feGaussianBlur stdDeviation="2" result="effect1_foregroundBlur_1684_1674"/>
</filter>
<filter id="filter6_f_1684_1674" x="798.316" y="441.331" width="22.3242" height="21.7296" filterUnits="userSpaceOnUse" color-interpolation-filters="sRGB">
<feFlood flood-opacity="0" result="BackgroundImageFix"/>
<feBlend mode="normal" in="SourceGraphic" in2="BackgroundImageFix" result="shape"/>
<feGaussianBlur stdDeviation="2" result="effect1_foregroundBlur_1684_1674"/>
</filter>
<filter id="filter7_f_1684_1674" x="949.316" y="408.331" width="22.3242" height="21.7296" filterUnits="userSpaceOnUse" color-interpolation-filters="sRGB">
<feFlood flood-opacity="0" result="BackgroundImageFix"/>
<feBlend mode="normal" in="SourceGraphic" in2="BackgroundImageFix" result="shape"/>
<feGaussianBlur stdDeviation="2" result="effect1_foregroundBlur_1684_1674"/>
</filter>
<filter id="filter8_f_1684_1674" x="1099.32" y="575.331" width="22.3242" height="21.7296" filterUnits="userSpaceOnUse" color-interpolation-filters="sRGB">
<feFlood flood-opacity="0" result="BackgroundImageFix"/>
<feBlend mode="normal" in="SourceGraphic" in2="BackgroundImageFix" result="shape"/>
<feGaussianBlur stdDeviation="2" result="effect1_foregroundBlur_1684_1674"/>
</filter>
<filter id="filter9_f_1684_1674" x="543" y="382.517" width="31" height="30.0389" filterUnits="userSpaceOnUse" color-interpolation-filters="sRGB">
<feFlood flood-opacity="0" result="BackgroundImageFix"/>
<feBlend mode="normal" in="SourceGraphic" in2="BackgroundImageFix" result="shape"/>
<feGaussianBlur stdDeviation="2" result="effect1_foregroundBlur_1684_1674"/>
</filter>
<filter id="filter10_f_1684_1674" x="756.316" y="208.331" width="22.3242" height="21.7297" filterUnits="userSpaceOnUse" color-interpolation-filters="sRGB">
<feFlood flood-opacity="0" result="BackgroundImageFix"/>
<feBlend mode="normal" in="SourceGraphic" in2="BackgroundImageFix" result="shape"/>
<feGaussianBlur stdDeviation="2" result="effect1_foregroundBlur_1684_1674"/>
</filter>
<linearGradient id="paint0_linear_1684_1674" x1="941.957" y1="542.389" x2="991.824" y2="375.689" gradientUnits="userSpaceOnUse">
<stop stop-color="#1E4E4E"/>
<stop offset="1" stop-color="#1F2431"/>
</linearGradient>
<linearGradient id="paint1_linear_1684_1674" x1="836.426" y1="516.852" x2="944.449" y2="384.511" gradientUnits="userSpaceOnUse">
<stop stop-color="#1E4E4E"/>
<stop offset="1" stop-color="#1F2431"/>
</linearGradient>
<linearGradient id="paint2_linear_1684_1674" x1="794.968" y1="485.817" x2="971.206" y2="472.128" gradientUnits="userSpaceOnUse">
<stop stop-color="#1E4E4E"/>
<stop offset="1" stop-color="#1F2431"/>
</linearGradient>
<linearGradient id="paint3_linear_1684_1674" x1="738.394" y1="450.674" x2="851.507" y2="550.075" gradientUnits="userSpaceOnUse">
<stop stop-color="#1E4E4E"/>
<stop offset="1" stop-color="#1F2431"/>
</linearGradient>
<linearGradient id="paint4_linear_1684_1674" x1="735.39" y1="357.195" x2="765.625" y2="505.254" gradientUnits="userSpaceOnUse">
<stop stop-color="#1E4E4E"/>
<stop offset="1" stop-color="#1F2431"/>
</linearGradient>
<radialGradient id="paint5_radial_1684_1674" cx="0" cy="0" r="1" gradientUnits="userSpaceOnUse" gradientTransform="translate(1208.3 428.431) rotate(-116.308) scale(13.0856 12.7315)">
<stop stop-color="#2C6A6A"/>
<stop offset="1" stop-color="#102D2D"/>
</radialGradient>
<linearGradient id="paint6_linear_1684_1674" x1="1213.19" y1="443.052" x2="1192.95" y2="429.927" gradientUnits="userSpaceOnUse">
<stop stop-color="#1E4E4E"/>
<stop offset="1" stop-color="#1F2431"/>
</linearGradient>
<radialGradient id="paint7_radial_1684_1674" cx="0" cy="0" r="1" gradientUnits="userSpaceOnUse" gradientTransform="translate(935.3 591.126) rotate(-116.308) scale(13.0856 12.7315)">
<stop stop-color="#2C6A6A"/>
<stop offset="1" stop-color="#102D2D"/>
</radialGradient>
<linearGradient id="paint8_linear_1684_1674" x1="940.193" y1="605.746" x2="919.954" y2="592.622" gradientUnits="userSpaceOnUse">
<stop stop-color="#1E4E4E"/>
<stop offset="1" stop-color="#1F2431"/>
</linearGradient>
<radialGradient id="paint9_radial_1684_1674" cx="0" cy="0" r="1" gradientUnits="userSpaceOnUse" gradientTransform="translate(599.3 243.496) rotate(-116.308) scale(13.0856 12.7315)">
<stop stop-color="#2C6A6A"/>
<stop offset="1" stop-color="#102D2D"/>
</radialGradient>
<linearGradient id="paint10_linear_1684_1674" x1="604.193" y1="258.117" x2="583.954" y2="244.992" gradientUnits="userSpaceOnUse">
<stop stop-color="#1E4E4E"/>
<stop offset="1" stop-color="#1F2431"/>
</linearGradient>
<radialGradient id="paint11_radial_1684_1674" cx="0" cy="0" r="1" gradientUnits="userSpaceOnUse" gradientTransform="translate(643.3 575.997) rotate(-116.308) scale(13.0856 12.7315)">
<stop stop-color="#2C6A6A"/>
<stop offset="1" stop-color="#102D2D"/>
</radialGradient>
<linearGradient id="paint12_linear_1684_1674" x1="648.193" y1="590.618" x2="627.954" y2="577.493" gradientUnits="userSpaceOnUse">
<stop stop-color="#1E4E4E"/>
<stop offset="1" stop-color="#1F2431"/>
</linearGradient>
<radialGradient id="paint13_radial_1684_1674" cx="0" cy="0" r="1" gradientUnits="userSpaceOnUse" gradientTransform="translate(1134.3 254.126) rotate(-116.308) scale(13.0856 12.7315)">
<stop stop-color="#2C6A6A"/>
<stop offset="1" stop-color="#102D2D"/>
</radialGradient>
<linearGradient id="paint14_linear_1684_1674" x1="1139.19" y1="268.746" x2="1118.95" y2="255.622" gradientUnits="userSpaceOnUse">
<stop stop-color="#1E4E4E"/>
<stop offset="1" stop-color="#1F2431"/>
</linearGradient>
<radialGradient id="paint15_radial_1684_1674" cx="0" cy="0" r="1" gradientUnits="userSpaceOnUse" gradientTransform="translate(968.263 224.869) rotate(-116.308) scale(10.0323 9.76079)">
<stop stop-color="#2C6A6A"/>
<stop offset="1" stop-color="#102D2D"/>
</radialGradient>
<linearGradient id="paint16_linear_1684_1674" x1="972.015" y1="236.078" x2="956.498" y2="226.016" gradientUnits="userSpaceOnUse">
<stop stop-color="#1E4E4E"/>
<stop offset="1" stop-color="#1F2431"/>
</linearGradient>
<radialGradient id="paint17_radial_1684_1674" cx="0" cy="0" r="1" gradientUnits="userSpaceOnUse" gradientTransform="translate(810.578 452.077) rotate(-116.308) scale(6.24909 6.07996)">
<stop stop-color="#2C6A6A"/>
<stop offset="1" stop-color="#102D2D"/>
</radialGradient>
<linearGradient id="paint18_linear_1684_1674" x1="813.236" y1="458.889" x2="803.285" y2="453.086" gradientUnits="userSpaceOnUse">
<stop stop-color="#1E4E4E"/>
<stop offset="1" stop-color="#1F2431"/>
</linearGradient>
<radialGradient id="paint19_radial_1684_1674" cx="0" cy="0" r="1" gradientUnits="userSpaceOnUse" gradientTransform="translate(961.578 419.077) rotate(-116.308) scale(6.24909 6.07996)">
<stop stop-color="#2C6A6A"/>
<stop offset="1" stop-color="#102D2D"/>
</radialGradient>
<linearGradient id="paint20_linear_1684_1674" x1="964.236" y1="425.889" x2="954.285" y2="420.086" gradientUnits="userSpaceOnUse">
<stop stop-color="#1E4E4E"/>
<stop offset="1" stop-color="#1F2431"/>
</linearGradient>
<radialGradient id="paint21_radial_1684_1674" cx="0" cy="0" r="1" gradientUnits="userSpaceOnUse" gradientTransform="translate(1111.58 586.077) rotate(-116.308) scale(6.24909 6.07996)">
<stop stop-color="#2C6A6A"/>
<stop offset="1" stop-color="#102D2D"/>
</radialGradient>
<linearGradient id="paint22_linear_1684_1674" x1="1114.24" y1="592.889" x2="1104.28" y2="587.086" gradientUnits="userSpaceOnUse">
<stop stop-color="#1E4E4E"/>
<stop offset="1" stop-color="#1F2431"/>
</linearGradient>
<radialGradient id="paint23_radial_1684_1674" cx="0" cy="0" r="1" gradientUnits="userSpaceOnUse" gradientTransform="translate(560.263 397.347) rotate(-116.308) scale(10.0323 9.76079)">
<stop stop-color="#2C6A6A"/>
<stop offset="1" stop-color="#102D2D"/>
</radialGradient>
<linearGradient id="paint24_linear_1684_1674" x1="564.015" y1="408.556" x2="548.498" y2="398.494" gradientUnits="userSpaceOnUse">
<stop stop-color="#1E4E4E"/>
<stop offset="1" stop-color="#1F2431"/>
</linearGradient>
<radialGradient id="paint25_radial_1684_1674" cx="0" cy="0" r="1" gradientUnits="userSpaceOnUse" gradientTransform="translate(768.578 219.077) rotate(-116.308) scale(6.24909 6.07996)">
<stop stop-color="#2C6A6A"/>
<stop offset="1" stop-color="#102D2D"/>
</radialGradient>
<linearGradient id="paint26_linear_1684_1674" x1="771.236" y1="225.889" x2="761.285" y2="220.086" gradientUnits="userSpaceOnUse">
<stop stop-color="#1E4E4E"/>
<stop offset="1" stop-color="#1F2431"/>
</linearGradient>
</defs>
</svg>
