<svg width="72" height="112" viewBox="0 0 72 112" fill="none" xmlns="http://www.w3.org/2000/svg">
<g clip-path="url(#clip0_522_11367)">
<path d="M4.55727 96.2482C-2.66366 84.4671 5.67135 43.5141 26.2263 28.928L24.2696 26.123L17.8943 2L26.2263 7.04901L27.892 2L34.5572 7.04901L41.2223 2L47.3321 7.04901L53.9972 4.244L46.9448 25.3917L46.7009 26.123L45.6279 28.928C66.764 41.318 73.4245 88.9551 66.764 97.9312C57.3298 110.645 17.7367 117.751 4.55727 96.2482Z" fill="#1F2431"/>
<path d="M4.55727 96.2482C-2.66366 84.4671 5.67135 43.5141 26.2263 28.928L24.2696 26.123L17.8943 2L26.2263 7.04901L27.892 2L34.5572 7.04901L41.2223 2L47.3321 7.04901L53.9972 4.244L46.9448 25.3917L46.7009 26.123L45.6279 28.928C66.764 41.318 73.4245 88.9551 66.764 97.9312C57.3298 110.645 17.7367 117.751 4.55727 96.2482Z" fill="url(#paint0_linear_522_11367)"/>
<path d="M26.2263 28.928C5.67135 43.5141 -2.66366 84.4671 4.55727 96.2482C17.7367 117.751 57.3298 110.645 66.764 97.9312C73.4245 88.9551 66.764 41.318 45.6279 28.928M26.2263 28.928C29.5508 31.733 38.9552 33.4161 45.6279 28.928M26.2263 28.928L24.2696 26.123M45.6279 28.928L46.7009 26.123M46.7009 26.123C43.7431 27.993 34.2577 30.611 24.2696 26.123M46.7009 26.123L46.9448 25.3917M24.2696 26.123L17.8943 2L26.2263 7.04901L27.892 2L34.5572 7.04901L41.2223 2L47.3321 7.04901L53.9972 4.244L46.9448 25.3917M46.9448 25.3917C50.0308 23.4009 56.9913 21.012 60.1449 27.3825C63.2986 33.753 68.029 34.0184 70 33.3548M46.7009 26.8848C50.1967 27.2166 58.1739 29.9705 62.1159 38.3318" stroke="#89E159" stroke-width="2"/>
<path d="M46.8242 26.6843C46.8242 27.6688 46.0914 28.9345 44.1939 29.981C42.3091 31.0204 39.345 31.7943 35.1047 31.7943C30.8607 31.7943 28.1914 31.0191 26.5994 29.9979C25.0243 28.9876 24.4961 27.7362 24.4961 26.6843C24.4961 26.4389 24.5118 26.2947 24.5305 26.2132C24.5331 26.2134 24.5358 26.2137 24.5385 26.2139C24.595 26.2192 24.6717 26.2328 24.776 26.2583C24.9711 26.3059 25.2128 26.3823 25.5327 26.4834C25.5623 26.4928 25.5925 26.5023 25.6235 26.5121C27.0777 26.9712 29.6306 27.7453 33.9938 27.7453C37.963 27.7453 41.1246 27.1038 43.3573 26.6508C43.5728 26.6071 43.7796 26.5651 43.9776 26.5257C45.1325 26.2956 45.909 26.1699 46.3945 26.2233C46.6239 26.2485 46.7086 26.3069 46.7412 26.3412C46.7689 26.3703 46.8242 26.4504 46.8242 26.6843Z" fill="#89E159" stroke="#89E159"/>
<path d="M30.9141 78.968C30.6261 78.968 30.3275 78.9467 30.0181 78.904C29.7195 78.872 29.4315 78.824 29.1541 78.76C28.8875 78.7067 28.6421 78.648 28.4181 78.584C28.1941 78.5094 28.0235 78.44 27.9061 78.376L28.2901 76.728C28.5141 76.8347 28.8395 76.9574 29.2661 77.096C29.6928 77.224 30.2208 77.288 30.8501 77.288C31.6928 77.288 32.3008 77.128 32.6741 76.808C33.0475 76.4774 33.2341 76.04 33.2341 75.496C33.2341 75.144 33.1595 74.8507 33.0101 74.616C32.8715 74.3814 32.6741 74.1947 32.4181 74.056C32.1728 73.9067 31.8848 73.8054 31.5541 73.752C31.2341 73.688 30.8928 73.656 30.5301 73.656H29.8741V72.088H30.6741C30.9195 72.088 31.1648 72.0667 31.4101 72.024C31.6661 71.9707 31.8955 71.8854 32.0981 71.768C32.3008 71.64 32.4661 71.4747 32.5941 71.272C32.7221 71.0694 32.7861 70.808 32.7861 70.488C32.7861 70.232 32.7381 70.0134 32.6421 69.832C32.5461 69.6507 32.4181 69.5014 32.2581 69.384C32.1088 69.2667 31.9328 69.1814 31.7301 69.128C31.5275 69.0747 31.3141 69.048 31.0901 69.048C30.6101 69.048 30.1835 69.1227 29.8101 69.272C29.4368 69.4107 29.1061 69.5707 28.8181 69.752L28.1141 68.312C28.2635 68.216 28.4448 68.1147 28.6581 68.008C28.8715 67.9014 29.1061 67.8 29.3621 67.704C29.6288 67.608 29.9115 67.5334 30.2101 67.48C30.5088 67.416 30.8235 67.384 31.1541 67.384C31.7728 67.384 32.3061 67.4587 32.7541 67.608C33.2021 67.7574 33.5701 67.9707 33.8581 68.248C34.1568 68.5147 34.3755 68.8347 34.5141 69.208C34.6635 69.5707 34.7381 69.9707 34.7381 70.408C34.7381 70.92 34.5941 71.3787 34.3061 71.784C34.0288 72.1894 33.6661 72.4987 33.2181 72.712C33.7941 72.9147 34.2688 73.2507 34.6421 73.72C35.0261 74.1894 35.2181 74.792 35.2181 75.528C35.2181 76.0187 35.1328 76.4774 34.9621 76.904C34.7915 77.32 34.5301 77.6827 34.1781 77.992C33.8261 78.2907 33.3781 78.5307 32.8341 78.712C32.3008 78.8827 31.6608 78.968 30.9141 78.968ZM44.6319 73.176C44.6319 75.0427 44.2906 76.4774 43.6079 77.48C42.9252 78.472 41.9812 78.968 40.7759 78.968C39.5706 78.968 38.6266 78.472 37.9439 77.48C37.2612 76.4774 36.9199 75.0427 36.9199 73.176C36.9199 72.248 37.0052 71.4267 37.1759 70.712C37.3572 69.9867 37.6132 69.3787 37.9439 68.888C38.2852 68.3974 38.6906 68.024 39.1599 67.768C39.6399 67.512 40.1786 67.384 40.7759 67.384C41.9812 67.384 42.9252 67.8854 43.6079 68.888C44.2906 69.88 44.6319 71.3094 44.6319 73.176ZM42.6319 73.176C42.6319 72.6 42.5999 72.0614 42.5359 71.56C42.4719 71.0587 42.3652 70.6267 42.2159 70.264C42.0772 69.8907 41.8906 69.5974 41.6559 69.384C41.4212 69.1707 41.1279 69.064 40.7759 69.064C40.4239 69.064 40.1252 69.1707 39.8799 69.384C39.6452 69.5974 39.4532 69.8907 39.3039 70.264C39.1652 70.6267 39.0639 71.0587 38.9999 71.56C38.9466 72.0614 38.9199 72.6 38.9199 73.176C38.9199 73.752 38.9466 74.2907 38.9999 74.792C39.0639 75.2934 39.1652 75.7307 39.3039 76.104C39.4532 76.4667 39.6452 76.7547 39.8799 76.968C40.1252 77.1814 40.4239 77.288 40.7759 77.288C41.1279 77.288 41.4212 77.1814 41.6559 76.968C41.8906 76.7547 42.0772 76.4667 42.2159 76.104C42.3652 75.7307 42.4719 75.2934 42.5359 74.792C42.5999 74.2907 42.6319 73.752 42.6319 73.176Z" fill="#DBE2F9"/>
<path d="M49.0002 24.3333C49.0002 26.9107 47.2094 29 45.0002 29C42.7911 29 41.0002 26.9107 41.0002 24.3333C41.0002 21.756 42.7911 21 45.0002 21C47.2094 21 49.0002 21.756 49.0002 24.3333Z" fill="#89E159"/>
</g>
<defs>
<linearGradient id="paint0_linear_522_11367" x1="52.305" y1="110" x2="-4.21093" y2="87.8887" gradientUnits="userSpaceOnUse">
<stop stop-color="#1E4E4E"/>
<stop offset="1" stop-color="#1F2431"/>
</linearGradient>
<clipPath id="clip0_522_11367">
<rect width="72" height="112" fill="white"/>
</clipPath>
</defs>
</svg>
