<svg width="72" height="112" viewBox="0 0 72 112" fill="none" xmlns="http://www.w3.org/2000/svg">
<g clip-path="url(#clip0_1610_4942)">
<path d="M4.55727 96.2482C-2.66366 84.4671 5.67135 43.5141 26.2263 28.928L24.2696 26.123L17.8943 2L26.2263 7.04901L27.892 2L34.5572 7.04901L41.2223 2L47.3321 7.04901L53.9972 4.244L46.9448 25.3917L46.7009 26.123L45.6279 28.928C66.764 41.318 73.4245 88.9551 66.764 97.9312C57.3298 110.645 17.7367 117.751 4.55727 96.2482Z" fill="#1F2431"/>
<path d="M4.55727 96.2482C-2.66366 84.4671 5.67135 43.5141 26.2263 28.928L24.2696 26.123L17.8943 2L26.2263 7.04901L27.892 2L34.5572 7.04901L41.2223 2L47.3321 7.04901L53.9972 4.244L46.9448 25.3917L46.7009 26.123L45.6279 28.928C66.764 41.318 73.4245 88.9551 66.764 97.9312C57.3298 110.645 17.7367 117.751 4.55727 96.2482Z" fill="url(#paint0_linear_1610_4942)"/>
<path d="M26.2263 28.928C5.67135 43.5141 -2.66366 84.4671 4.55727 96.2482C17.7367 117.751 57.3298 110.645 66.764 97.9312C73.4245 88.9551 66.764 41.318 45.6279 28.928M26.2263 28.928C29.5508 31.733 38.9552 33.4161 45.6279 28.928M26.2263 28.928L24.2696 26.123M45.6279 28.928L46.7009 26.123M46.7009 26.123C43.7431 27.993 34.2577 30.611 24.2696 26.123M46.7009 26.123L46.9448 25.3917M24.2696 26.123L17.8943 2L26.2263 7.04901L27.892 2L34.5572 7.04901L41.2223 2L47.3321 7.04901L53.9972 4.244L46.9448 25.3917M46.9448 25.3917C50.0308 23.4009 56.9913 21.012 60.1449 27.3825C63.2986 33.753 68.029 34.0184 70 33.3548M46.7009 26.8848C50.1967 27.2166 58.1739 29.9705 62.1159 38.3318" stroke="#89E159" stroke-width="2"/>
<path d="M46.8242 26.6843C46.8242 27.6688 46.0914 28.9345 44.1939 29.981C42.3091 31.0204 39.345 31.7943 35.1047 31.7943C30.8607 31.7943 28.1914 31.0191 26.5994 29.9979C25.0243 28.9876 24.4961 27.7362 24.4961 26.6843C24.4961 26.4389 24.5118 26.2947 24.5305 26.2132C24.5331 26.2134 24.5358 26.2137 24.5385 26.2139C24.595 26.2192 24.6717 26.2328 24.776 26.2583C24.9711 26.3059 25.2128 26.3823 25.5327 26.4834C25.5623 26.4928 25.5925 26.5023 25.6235 26.5121C27.0777 26.9712 29.6306 27.7453 33.9938 27.7453C37.963 27.7453 41.1246 27.1038 43.3573 26.6508C43.5728 26.6071 43.7796 26.5651 43.9776 26.5257C45.1325 26.2956 45.909 26.1699 46.3945 26.2233C46.6239 26.2485 46.7086 26.3069 46.7412 26.3412C46.7689 26.3703 46.8242 26.4504 46.8242 26.6843Z" fill="#89E159" stroke="#89E159"/>
<path d="M30.2873 70.52C30.2873 70.904 30.2073 71.2827 30.0473 71.656C29.8873 72.0187 29.6793 72.376 29.4233 72.728C29.1779 73.0694 28.8953 73.4054 28.5753 73.736C28.2553 74.056 27.9353 74.3707 27.6153 74.68C27.4446 74.84 27.2526 75.032 27.0393 75.256C26.8259 75.48 26.6233 75.704 26.4313 75.928C26.2393 76.152 26.0739 76.3707 25.9353 76.584C25.7966 76.7867 25.7219 76.9574 25.7113 77.096H30.6393V78.728H23.5833C23.5726 78.6427 23.5673 78.5414 23.5673 78.424C23.5673 78.296 23.5673 78.2 23.5673 78.136C23.5673 77.624 23.6473 77.1547 23.8073 76.728C23.9779 76.2907 24.1966 75.8854 24.4633 75.512C24.7299 75.1387 25.0286 74.7867 25.3593 74.456C25.6899 74.1254 26.0206 73.8 26.3513 73.48C26.6073 73.2347 26.8526 72.9947 27.0873 72.76C27.3219 72.5254 27.5246 72.296 27.6953 72.072C27.8766 71.8374 28.0206 71.6027 28.1273 71.368C28.2339 71.1227 28.2873 70.872 28.2873 70.616C28.2873 70.0614 28.1273 69.6667 27.8073 69.432C27.4873 69.1974 27.0979 69.08 26.6393 69.08C26.3406 69.08 26.0633 69.1227 25.8073 69.208C25.5513 69.2934 25.3219 69.3947 25.1193 69.512C24.9273 69.6294 24.7566 69.752 24.6073 69.88C24.4579 69.9974 24.3459 70.0934 24.2713 70.168L23.3113 68.808C23.7593 68.3814 24.2819 68.04 24.8793 67.784C25.4873 67.5174 26.1379 67.384 26.8313 67.384C28.0153 67.384 28.8846 67.6667 29.4393 68.232C30.0046 68.7867 30.2873 69.5494 30.2873 70.52ZM34.149 78.728C34.213 77.9174 34.357 77.064 34.581 76.168C34.805 75.272 35.077 74.4027 35.397 73.56C35.7277 72.7067 36.085 71.912 36.469 71.176C36.8637 70.4294 37.253 69.8054 37.637 69.304H32.533V67.64H39.941V69.112C39.589 69.5067 39.205 70.0454 38.789 70.728C38.373 71.4107 37.9783 72.184 37.605 73.048C37.2317 73.9014 36.9063 74.8187 36.629 75.8C36.3623 76.7814 36.197 77.7574 36.133 78.728H34.149ZM49.1788 73.176C49.1788 75.0427 48.8374 76.4774 48.1548 77.48C47.4721 78.472 46.5281 78.968 45.3228 78.968C44.1174 78.968 43.1734 78.472 42.4908 77.48C41.8081 76.4774 41.4668 75.0427 41.4668 73.176C41.4668 72.248 41.5521 71.4267 41.7228 70.712C41.9041 69.9867 42.1601 69.3787 42.4908 68.888C42.8321 68.3974 43.2374 68.024 43.7068 67.768C44.1868 67.512 44.7254 67.384 45.3228 67.384C46.5281 67.384 47.4721 67.8854 48.1548 68.888C48.8374 69.88 49.1788 71.3094 49.1788 73.176ZM47.1788 73.176C47.1788 72.6 47.1468 72.0614 47.0828 71.56C47.0188 71.0587 46.9121 70.6267 46.7628 70.264C46.6241 69.8907 46.4374 69.5974 46.2028 69.384C45.9681 69.1707 45.6748 69.064 45.3228 69.064C44.9708 69.064 44.6721 69.1707 44.4268 69.384C44.1921 69.5974 44.0001 69.8907 43.8508 70.264C43.7121 70.6267 43.6108 71.0587 43.5468 71.56C43.4934 72.0614 43.4668 72.6 43.4668 73.176C43.4668 73.752 43.4934 74.2907 43.5468 74.792C43.6108 75.2934 43.7121 75.7307 43.8508 76.104C44.0001 76.4667 44.1921 76.7547 44.4268 76.968C44.6721 77.1814 44.9708 77.288 45.3228 77.288C45.6748 77.288 45.9681 77.1814 46.2028 76.968C46.4374 76.7547 46.6241 76.4667 46.7628 76.104C46.9121 75.7307 47.0188 75.2934 47.0828 74.792C47.1468 74.2907 47.1788 73.752 47.1788 73.176Z" fill="#DBE2F9"/>
<path d="M49.0002 24.3333C49.0002 26.9107 47.2094 29 45.0002 29C42.7911 29 41.0002 26.9107 41.0002 24.3333C41.0002 21.756 42.7911 21 45.0002 21C47.2094 21 49.0002 21.756 49.0002 24.3333Z" fill="#89E159"/>
</g>
<defs>
<linearGradient id="paint0_linear_1610_4942" x1="52.305" y1="110" x2="-4.21093" y2="87.8887" gradientUnits="userSpaceOnUse">
<stop stop-color="#1E4E4E"/>
<stop offset="1" stop-color="#1F2431"/>
</linearGradient>
<clipPath id="clip0_1610_4942">
<rect width="72" height="112" fill="white"/>
</clipPath>
</defs>
</svg>
