<svg width="72" height="112" viewBox="0 0 72 112" fill="none" xmlns="http://www.w3.org/2000/svg">
<g clip-path="url(#clip0_1610_4936)">
<path d="M4.55727 96.2482C-2.66366 84.4671 5.67135 43.5141 26.2263 28.928L24.2696 26.123L17.8943 2L26.2263 7.04901L27.892 2L34.5572 7.04901L41.2223 2L47.3321 7.04901L53.9972 4.244L46.9448 25.3917L46.7009 26.123L45.6279 28.928C66.764 41.318 73.4245 88.9551 66.764 97.9312C57.3298 110.645 17.7367 117.751 4.55727 96.2482Z" fill="#1F2431"/>
<path d="M4.55727 96.2482C-2.66366 84.4671 5.67135 43.5141 26.2263 28.928L24.2696 26.123L17.8943 2L26.2263 7.04901L27.892 2L34.5572 7.04901L41.2223 2L47.3321 7.04901L53.9972 4.244L46.9448 25.3917L46.7009 26.123L45.6279 28.928C66.764 41.318 73.4245 88.9551 66.764 97.9312C57.3298 110.645 17.7367 117.751 4.55727 96.2482Z" fill="url(#paint0_linear_1610_4936)"/>
<path d="M26.2263 28.928C5.67135 43.5141 -2.66366 84.4671 4.55727 96.2482C17.7367 117.751 57.3298 110.645 66.764 97.9312C73.4245 88.9551 66.764 41.318 45.6279 28.928M26.2263 28.928C29.5508 31.733 38.9552 33.4161 45.6279 28.928M26.2263 28.928L24.2696 26.123M45.6279 28.928L46.7009 26.123M46.7009 26.123C43.7431 27.993 34.2577 30.611 24.2696 26.123M46.7009 26.123L46.9448 25.3917M24.2696 26.123L17.8943 2L26.2263 7.04901L27.892 2L34.5572 7.04901L41.2223 2L47.3321 7.04901L53.9972 4.244L46.9448 25.3917M46.9448 25.3917C50.0308 23.4009 56.9913 21.012 60.1449 27.3825C63.2986 33.753 68.029 34.0184 70 33.3548M46.7009 26.8848C50.1967 27.2166 58.1739 29.9705 62.1159 38.3318" stroke="#89E159" stroke-width="2"/>
<path d="M46.8242 26.6843C46.8242 27.6688 46.0914 28.9345 44.1939 29.981C42.3091 31.0204 39.345 31.7943 35.1047 31.7943C30.8607 31.7943 28.1914 31.0191 26.5994 29.9979C25.0243 28.9876 24.4961 27.7362 24.4961 26.6843C24.4961 26.4389 24.5118 26.2947 24.5305 26.2132C24.5331 26.2134 24.5358 26.2137 24.5385 26.2139C24.595 26.2192 24.6717 26.2328 24.776 26.2583C24.9711 26.3059 25.2128 26.3823 25.5327 26.4834C25.5623 26.4928 25.5925 26.5023 25.6235 26.5121C27.0777 26.9712 29.6306 27.7453 33.9938 27.7453C37.963 27.7453 41.1246 27.1038 43.3573 26.6508C43.5728 26.6071 43.7796 26.5651 43.9776 26.5257C45.1325 26.2956 45.909 26.1699 46.3945 26.2233C46.6239 26.2485 46.7086 26.3069 46.7412 26.3412C46.7689 26.3703 46.8242 26.4504 46.8242 26.6843Z" fill="#89E159" stroke="#89E159"/>
<path d="M22.6364 72.984C22.9457 72.984 23.2497 72.9574 23.5484 72.904C23.8471 72.84 24.1031 72.7494 24.3164 72.632C24.3271 72.5147 24.3324 72.4134 24.3324 72.328C24.3324 72.2427 24.3324 72.168 24.3324 72.104C24.3324 71.6774 24.3004 71.2774 24.2364 70.904C24.1831 70.52 24.0817 70.1894 23.9324 69.912C23.7937 69.624 23.5964 69.4 23.3404 69.24C23.0951 69.0694 22.7857 68.984 22.4124 68.984C22.1031 68.984 21.8364 69.048 21.6124 69.176C21.3991 69.304 21.2231 69.4694 21.0844 69.672C20.9457 69.8747 20.8444 70.0934 20.7804 70.328C20.7164 70.5627 20.6844 70.792 20.6844 71.016C20.6844 71.6667 20.8391 72.1574 21.1484 72.488C21.4684 72.8187 21.9644 72.984 22.6364 72.984ZM24.1564 74.152C23.9004 74.2694 23.6177 74.36 23.3084 74.424C22.9991 74.488 22.7004 74.52 22.4124 74.52C21.7511 74.52 21.1857 74.4347 20.7164 74.264C20.2577 74.0827 19.8791 73.8374 19.5804 73.528C19.2924 73.208 19.0791 72.84 18.9404 72.424C18.8017 72.008 18.7324 71.56 18.7324 71.08C18.7324 70.664 18.8017 70.2427 18.9404 69.816C19.0791 69.3787 19.2977 68.9787 19.5964 68.616C19.8951 68.2534 20.2737 67.96 20.7324 67.736C21.1911 67.5014 21.7351 67.384 22.3644 67.384C23.6657 67.384 24.6471 67.8054 25.3084 68.648C25.9804 69.48 26.3164 70.6587 26.3164 72.184C26.3164 74.3387 25.7617 75.9707 24.6524 77.08C23.5431 78.1894 21.8417 78.7494 19.5484 78.76L19.4684 77.144C20.1084 77.144 20.6844 77.0907 21.1964 76.984C21.7191 76.8774 22.1724 76.7067 22.5564 76.472C22.9511 76.2374 23.2817 75.9334 23.5484 75.56C23.8151 75.176 24.0177 74.7067 24.1564 74.152ZM35.5381 73.176C35.5381 75.0427 35.1968 76.4774 34.5141 77.48C33.8315 78.472 32.8875 78.968 31.6821 78.968C30.4768 78.968 29.5328 78.472 28.8501 77.48C28.1675 76.4774 27.8261 75.0427 27.8261 73.176C27.8261 72.248 27.9115 71.4267 28.0821 70.712C28.2635 69.9867 28.5195 69.3787 28.8501 68.888C29.1915 68.3974 29.5968 68.024 30.0661 67.768C30.5461 67.512 31.0848 67.384 31.6821 67.384C32.8875 67.384 33.8315 67.8854 34.5141 68.888C35.1968 69.88 35.5381 71.3094 35.5381 73.176ZM33.5381 73.176C33.5381 72.6 33.5061 72.0614 33.4421 71.56C33.3781 71.0587 33.2715 70.6267 33.1221 70.264C32.9835 69.8907 32.7968 69.5974 32.5621 69.384C32.3275 69.1707 32.0341 69.064 31.6821 69.064C31.3301 69.064 31.0315 69.1707 30.7861 69.384C30.5515 69.5974 30.3595 69.8907 30.2101 70.264C30.0715 70.6267 29.9701 71.0587 29.9061 71.56C29.8528 72.0614 29.8261 72.6 29.8261 73.176C29.8261 73.752 29.8528 74.2907 29.9061 74.792C29.9701 75.2934 30.0715 75.7307 30.2101 76.104C30.3595 76.4667 30.5515 76.7547 30.7861 76.968C31.0315 77.1814 31.3301 77.288 31.6821 77.288C32.0341 77.288 32.3275 77.1814 32.5621 76.968C32.7968 76.7547 32.9835 76.4667 33.1221 76.104C33.2715 75.7307 33.3781 75.2934 33.4421 74.792C33.5061 74.2907 33.5381 73.752 33.5381 73.176ZM44.6319 73.176C44.6319 75.0427 44.2906 76.4774 43.6079 77.48C42.9252 78.472 41.9812 78.968 40.7759 78.968C39.5706 78.968 38.6266 78.472 37.9439 77.48C37.2612 76.4774 36.9199 75.0427 36.9199 73.176C36.9199 72.248 37.0052 71.4267 37.1759 70.712C37.3572 69.9867 37.6132 69.3787 37.9439 68.888C38.2852 68.3974 38.6906 68.024 39.1599 67.768C39.6399 67.512 40.1786 67.384 40.7759 67.384C41.9812 67.384 42.9252 67.8854 43.6079 68.888C44.2906 69.88 44.6319 71.3094 44.6319 73.176ZM42.6319 73.176C42.6319 72.6 42.5999 72.0614 42.5359 71.56C42.4719 71.0587 42.3652 70.6267 42.2159 70.264C42.0772 69.8907 41.8906 69.5974 41.6559 69.384C41.4212 69.1707 41.1279 69.064 40.7759 69.064C40.4239 69.064 40.1252 69.1707 39.8799 69.384C39.6452 69.5974 39.4532 69.8907 39.3039 70.264C39.1652 70.6267 39.0639 71.0587 38.9999 71.56C38.9466 72.0614 38.9199 72.6 38.9199 73.176C38.9199 73.752 38.9466 74.2907 38.9999 74.792C39.0639 75.2934 39.1652 75.7307 39.3039 76.104C39.4532 76.4667 39.6452 76.7547 39.8799 76.968C40.1252 77.1814 40.4239 77.288 40.7759 77.288C41.1279 77.288 41.4212 77.1814 41.6559 76.968C41.8906 76.7547 42.0772 76.4667 42.2159 76.104C42.3652 75.7307 42.4719 75.2934 42.5359 74.792C42.5999 74.2907 42.6319 73.752 42.6319 73.176ZM53.7256 73.176C53.7256 75.0427 53.3843 76.4774 52.7016 77.48C52.019 78.472 51.075 78.968 49.8696 78.968C48.6643 78.968 47.7203 78.472 47.0376 77.48C46.355 76.4774 46.0136 75.0427 46.0136 73.176C46.0136 72.248 46.099 71.4267 46.2696 70.712C46.451 69.9867 46.707 69.3787 47.0376 68.888C47.379 68.3974 47.7843 68.024 48.2536 67.768C48.7336 67.512 49.2723 67.384 49.8696 67.384C51.075 67.384 52.019 67.8854 52.7016 68.888C53.3843 69.88 53.7256 71.3094 53.7256 73.176ZM51.7256 73.176C51.7256 72.6 51.6936 72.0614 51.6296 71.56C51.5656 71.0587 51.459 70.6267 51.3096 70.264C51.171 69.8907 50.9843 69.5974 50.7496 69.384C50.515 69.1707 50.2216 69.064 49.8696 69.064C49.5176 69.064 49.219 69.1707 48.9736 69.384C48.739 69.5974 48.547 69.8907 48.3976 70.264C48.259 70.6267 48.1576 71.0587 48.0936 71.56C48.0403 72.0614 48.0136 72.6 48.0136 73.176C48.0136 73.752 48.0403 74.2907 48.0936 74.792C48.1576 75.2934 48.259 75.7307 48.3976 76.104C48.547 76.4667 48.739 76.7547 48.9736 76.968C49.219 77.1814 49.5176 77.288 49.8696 77.288C50.2216 77.288 50.515 77.1814 50.7496 76.968C50.9843 76.7547 51.171 76.4667 51.3096 76.104C51.459 75.7307 51.5656 75.2934 51.6296 74.792C51.6936 74.2907 51.7256 73.752 51.7256 73.176Z" fill="#DBE2F9"/>
<path d="M49.0002 24.3333C49.0002 26.9107 47.2094 29 45.0002 29C42.7911 29 41.0002 26.9107 41.0002 24.3333C41.0002 21.756 42.7911 21 45.0002 21C47.2094 21 49.0002 21.756 49.0002 24.3333Z" fill="#89E159"/>
</g>
<defs>
<linearGradient id="paint0_linear_1610_4936" x1="52.305" y1="110" x2="-4.21093" y2="87.8887" gradientUnits="userSpaceOnUse">
<stop stop-color="#1E4E4E"/>
<stop offset="1" stop-color="#1F2431"/>
</linearGradient>
<clipPath id="clip0_1610_4936">
<rect width="72" height="112" fill="white"/>
</clipPath>
</defs>
</svg>
