<svg width="70" height="111" viewBox="0 0 70 111" fill="none" xmlns="http://www.w3.org/2000/svg">
<path d="M3.55727 96.2482C-3.66366 84.4671 4.67135 43.5141 25.2263 28.928L23.2696 26.123L16.8943 2L25.2263 7.04901L26.892 2L33.5572 7.04901L40.2223 2L46.3321 7.04901L52.9972 4.244L45.9448 25.3917L45.7009 26.123L44.6279 28.928C65.764 41.318 72.4245 88.9551 65.764 97.9312C56.3298 110.645 16.7367 117.751 3.55727 96.2482Z" fill="#1F2431"/>
<path d="M3.55727 96.2482C-3.66366 84.4671 4.67135 43.5141 25.2263 28.928L23.2696 26.123L16.8943 2L25.2263 7.04901L26.892 2L33.5572 7.04901L40.2223 2L46.3321 7.04901L52.9972 4.244L45.9448 25.3917L45.7009 26.123L44.6279 28.928C65.764 41.318 72.4245 88.9551 65.764 97.9312C56.3298 110.645 16.7367 117.751 3.55727 96.2482Z" fill="url(#paint0_linear_522_10722)"/>
<path d="M25.2263 28.928C4.67135 43.5141 -3.66366 84.4671 3.55727 96.2482C16.7367 117.751 56.3298 110.645 65.764 97.9312C72.4245 88.9551 65.764 41.318 44.6279 28.928M25.2263 28.928C28.5508 31.733 37.9552 33.4161 44.6279 28.928M25.2263 28.928L23.2696 26.123M44.6279 28.928L45.7009 26.123M45.7009 26.123C42.7431 27.993 33.2577 30.611 23.2696 26.123M45.7009 26.123L45.9448 25.3917M23.2696 26.123L16.8943 2L25.2263 7.04901L26.892 2L33.5572 7.04901L40.2223 2L46.3321 7.04901L52.9972 4.244L45.9448 25.3917M45.9448 25.3917C49.0308 23.4009 55.9913 21.012 59.1449 27.3825C62.2986 33.753 67.029 34.0184 69 33.3548M45.7009 26.8848C49.1967 27.2166 57.1739 29.9705 61.1159 38.3318" stroke="#89E159" stroke-width="2"/>
<path d="M45.8242 26.6843C45.8242 27.6688 45.0914 28.9345 43.1939 29.981C41.3091 31.0204 38.345 31.7943 34.1047 31.7943C29.8607 31.7943 27.1914 31.0191 25.5994 29.9979C24.0243 28.9876 23.4961 27.7362 23.4961 26.6843C23.4961 26.4389 23.5118 26.2947 23.5305 26.2132C23.5331 26.2134 23.5358 26.2137 23.5385 26.2139C23.595 26.2192 23.6717 26.2328 23.776 26.2583C23.9711 26.3059 24.2128 26.3823 24.5327 26.4834C24.5623 26.4928 24.5925 26.5023 24.6235 26.5121C26.0777 26.9712 28.6306 27.7453 32.9938 27.7453C36.963 27.7453 40.1246 27.1038 42.3573 26.6508C42.5728 26.6071 42.7796 26.5651 42.9776 26.5257C44.1325 26.2956 44.909 26.1699 45.3945 26.2233C45.6239 26.2485 45.7086 26.3069 45.7412 26.3412C45.7689 26.3703 45.8242 26.4504 45.8242 26.6843Z" fill="#89E159" stroke="#89E159"/>
<path d="M20.252 69.944C20.8706 69.6987 21.4893 69.384 22.108 69C22.7373 68.616 23.292 68.1627 23.772 67.64H25.132V78.728H23.196V70.232C22.908 70.456 22.5453 70.6747 22.108 70.888C21.6706 71.1014 21.2493 71.2774 20.844 71.416L20.252 69.944ZM36.3057 73.176C36.3057 75.0427 35.9644 76.4774 35.2817 77.48C34.599 78.472 33.655 78.968 32.4497 78.968C31.2444 78.968 30.3004 78.472 29.6177 77.48C28.935 76.4774 28.5937 75.0427 28.5937 73.176C28.5937 72.248 28.679 71.4267 28.8497 70.712C29.031 69.9867 29.287 69.3787 29.6177 68.888C29.959 68.3974 30.3644 68.024 30.8337 67.768C31.3137 67.512 31.8524 67.384 32.4497 67.384C33.655 67.384 34.599 67.8854 35.2817 68.888C35.9644 69.88 36.3057 71.3094 36.3057 73.176ZM34.3057 73.176C34.3057 72.6 34.2737 72.0614 34.2097 71.56C34.1457 71.0587 34.039 70.6267 33.8897 70.264C33.751 69.8907 33.5644 69.5974 33.3297 69.384C33.095 69.1707 32.8017 69.064 32.4497 69.064C32.0977 69.064 31.799 69.1707 31.5537 69.384C31.319 69.5974 31.127 69.8907 30.9777 70.264C30.839 70.6267 30.7377 71.0587 30.6737 71.56C30.6204 72.0614 30.5937 72.6 30.5937 73.176C30.5937 73.752 30.6204 74.2907 30.6737 74.792C30.7377 75.2934 30.839 75.7307 30.9777 76.104C31.127 76.4667 31.319 76.7547 31.5537 76.968C31.799 77.1814 32.0977 77.288 32.4497 77.288C32.8017 77.288 33.095 77.1814 33.3297 76.968C33.5644 76.7547 33.751 76.4667 33.8897 76.104C34.039 75.7307 34.1457 75.2934 34.2097 74.792C34.2737 74.2907 34.3057 73.752 34.3057 73.176ZM45.3995 73.176C45.3995 75.0427 45.0581 76.4774 44.3755 77.48C43.6928 78.472 42.7488 78.968 41.5435 78.968C40.3381 78.968 39.3941 78.472 38.7115 77.48C38.0288 76.4774 37.6875 75.0427 37.6875 73.176C37.6875 72.248 37.7728 71.4267 37.9435 70.712C38.1248 69.9867 38.3808 69.3787 38.7115 68.888C39.0528 68.3974 39.4581 68.024 39.9275 67.768C40.4075 67.512 40.9461 67.384 41.5435 67.384C42.7488 67.384 43.6928 67.8854 44.3755 68.888C45.0581 69.88 45.3995 71.3094 45.3995 73.176ZM43.3995 73.176C43.3995 72.6 43.3675 72.0614 43.3035 71.56C43.2395 71.0587 43.1328 70.6267 42.9835 70.264C42.8448 69.8907 42.6581 69.5974 42.4235 69.384C42.1888 69.1707 41.8955 69.064 41.5435 69.064C41.1915 69.064 40.8928 69.1707 40.6475 69.384C40.4128 69.5974 40.2208 69.8907 40.0715 70.264C39.9328 70.6267 39.8315 71.0587 39.7675 71.56C39.7141 72.0614 39.6875 72.6 39.6875 73.176C39.6875 73.752 39.7141 74.2907 39.7675 74.792C39.8315 75.2934 39.9328 75.7307 40.0715 76.104C40.2208 76.4667 40.4128 76.7547 40.6475 76.968C40.8928 77.1814 41.1915 77.288 41.5435 77.288C41.8955 77.288 42.1888 77.1814 42.4235 76.968C42.6581 76.7547 42.8448 76.4667 42.9835 76.104C43.1328 75.7307 43.2395 75.2934 43.3035 74.792C43.3675 74.2907 43.3995 73.752 43.3995 73.176ZM54.4932 73.176C54.4932 75.0427 54.1519 76.4774 53.4692 77.48C52.7865 78.472 51.8425 78.968 50.6372 78.968C49.4319 78.968 48.4879 78.472 47.8052 77.48C47.1225 76.4774 46.7812 75.0427 46.7812 73.176C46.7812 72.248 46.8665 71.4267 47.0372 70.712C47.2185 69.9867 47.4745 69.3787 47.8052 68.888C48.1465 68.3974 48.5519 68.024 49.0212 67.768C49.5012 67.512 50.0399 67.384 50.6372 67.384C51.8425 67.384 52.7865 67.8854 53.4692 68.888C54.1519 69.88 54.4932 71.3094 54.4932 73.176ZM52.4932 73.176C52.4932 72.6 52.4612 72.0614 52.3972 71.56C52.3332 71.0587 52.2265 70.6267 52.0772 70.264C51.9385 69.8907 51.7519 69.5974 51.5172 69.384C51.2825 69.1707 50.9892 69.064 50.6372 69.064C50.2852 69.064 49.9865 69.1707 49.7412 69.384C49.5065 69.5974 49.3145 69.8907 49.1652 70.264C49.0265 70.6267 48.9252 71.0587 48.8612 71.56C48.8079 72.0614 48.7812 72.6 48.7812 73.176C48.7812 73.752 48.8079 74.2907 48.8612 74.792C48.9252 75.2934 49.0265 75.7307 49.1652 76.104C49.3145 76.4667 49.5065 76.7547 49.7412 76.968C49.9865 77.1814 50.2852 77.288 50.6372 77.288C50.9892 77.288 51.2825 77.1814 51.5172 76.968C51.7519 76.7547 51.9385 76.4667 52.0772 76.104C52.2265 75.7307 52.3332 75.2934 52.3972 74.792C52.4612 74.2907 52.4932 73.752 52.4932 73.176Z" fill="#DBE2F9"/>
<defs>
<linearGradient id="paint0_linear_522_10722" x1="51.305" y1="110" x2="-5.21093" y2="87.8887" gradientUnits="userSpaceOnUse">
<stop stop-color="#1E4E4E"/>
<stop offset="1" stop-color="#1F2431"/>
</linearGradient>
</defs>
</svg>
