<svg width="221" height="160" viewBox="0 0 221 160" fill="none" xmlns="http://www.w3.org/2000/svg">
<g filter="url(#filter0_f_1241_7668)">
<ellipse cx="129.681" cy="107.937" rx="25.5" ry="39.8741" transform="rotate(60 129.681 107.937)" fill="#9C9B9B"/>
</g>
<g filter="url(#filter1_i_1241_7668)">
<path d="M13.5 32.5H128.606V124.817C128.606 130.339 124.129 134.817 118.606 134.817H23.5C17.9771 134.817 13.5 130.339 13.5 124.817V32.5Z" fill="#7B483B"/>
</g>
<path d="M54.5898 33.8947C54.5898 36.0138 46.2869 37.7316 36.0449 37.7316C25.8028 37.7316 14.5 36.0138 14.5 33.8947C14.5 31.7757 25.8028 30.0579 36.0449 30.0579C46.2869 30.0579 54.5898 31.7757 54.5898 33.8947Z" fill="#855043"/>
<path d="M127.5 34C127.5 36.119 117.909 37.7316 107.666 37.7316C97.4244 37.7316 89.1216 36.0138 89.1216 33.8947C89.1216 31.7757 97.4244 30.0579 107.666 30.0579C117.909 30.0579 127.5 31.881 127.5 34Z" fill="#855043"/>
<ellipse cx="89.7612" cy="31.3369" rx="18.5449" ry="3.83687" fill="#855043"/>
<ellipse cx="61.624" cy="33.8947" rx="18.5449" ry="3.83687" fill="#855043"/>
<path fill-rule="evenodd" clip-rule="evenodd" d="M131.222 11.4885C129.439 11.7105 127.397 11.944 125.125 12.1806C116.384 13.0909 104.298 14.0422 90.5932 14.5727C65.9545 15.5265 36.2638 15.112 11.3926 10.728C14.2675 9.88426 17.8741 9.0853 22.1415 8.3684C34.8052 6.24094 52.2616 5 70.9999 5C89.6428 5 107.221 6.70024 120.053 9.00514C124.449 9.79474 128.208 10.6413 131.222 11.4885ZM140.966 10.0082C133.979 5.26866 104.081 0 70.9999 0C33.1684 0 -0.000152104 5 0 12.5C0.180131 12.9803 0.802441 13.4606 1.82364 13.934C1.88691 13.9734 1.98202 14.0355 2.1125 14.1289C2.47257 14.3869 2.94069 14.7649 3.49627 15.2501C4.60168 16.2155 5.92669 17.4937 7.2116 18.8093C8.49533 20.1236 9.70381 21.4391 10.5784 22.4694C10.9844 22.9477 11.2938 23.3356 11.4997 23.6179C11.4995 32.1077 11.4995 124.145 11.4998 127.5C11.4999 130.154 13.1031 132.73 14.5232 134.42C15.2811 135.323 16.1189 136.132 16.9256 136.739C17.3275 137.042 17.7647 137.327 18.2163 137.547C18.6215 137.745 19.2582 138 19.9996 138H118C119.253 138 120.654 137.564 121.881 137.044C123.173 136.497 124.542 135.74 125.801 134.866C127.05 133.999 128.274 132.958 129.214 131.812C130.109 130.722 131 129.226 131 127.5C131 125.739 131 99.5643 131 73.8536L131 23.7777C131.289 23.4618 131.709 23.0391 132.24 22.5293C133.395 21.4192 134.941 20.0258 136.461 18.6915C137.978 17.3603 139.445 16.11 140.432 15.2914C140.679 15.0866 140.887 14.9162 141.053 14.7817C141.237 14.6882 141.511 14.5242 141.767 14.2679C141.822 14.213 141.921 14.1135 142.015 14.0012L142.018 13.9976C142.047 13.9629 142.194 13.7884 142.324 13.5451L142.328 13.5382C142.369 13.4625 142.631 12.9817 142.62 12.3189C142.612 11.8901 142.483 11.231 141.95 10.6576C141.634 10.3176 141.28 10.1209 140.966 10.0082ZM11.9885 16.5662C24.9565 18.8286 47.0451 20.5 71.5 20.5C74.9729 20.4537 78.4115 20.416 81.7923 20.3789L81.7927 20.3789C100.9 20.1692 118.162 19.9798 129.351 18.3769C129.152 18.5642 128.96 18.7469 128.776 18.9238C128.163 19.5121 127.608 20.0687 127.193 20.5321C126.991 20.7582 126.777 21.0113 126.599 21.2644C126.512 21.3889 126.396 21.566 126.292 21.7772C126.219 21.9271 126 22.3866 126 22.9994C126 23.4922 126 48.0175 126 73.1927V73.854C126 99.5649 126 125.74 126 127.5V127.499C126 127.499 125.997 127.595 125.901 127.803C125.801 128.02 125.625 128.303 125.348 128.641C124.788 129.324 123.95 130.064 122.949 130.759C121.957 131.448 120.889 132.035 119.931 132.44C118.908 132.873 118.246 133 118 133H20.3096C20.2201 132.948 20.0938 132.866 19.9336 132.745C19.4747 132.4 18.9063 131.865 18.3517 131.204C17.1468 129.77 16.4998 128.346 16.4998 127.5C16.4995 124 16.4995 24.0002 16.4998 23.0006C16.4999 22.5331 16.3747 22.1672 16.3144 22.0057C16.2408 21.8087 16.1555 21.6393 16.0868 21.5135C15.949 21.261 15.7823 21.0111 15.624 20.7888C15.3009 20.3353 14.8704 19.7994 14.3902 19.2337C13.7153 18.4386 12.884 17.5166 11.9885 16.5662ZM20.4251 133.061C20.4414 133.069 20.4492 133.071 20.449 133.071C20.4488 133.071 20.4459 133.069 20.4404 133.067C20.4366 133.065 20.4315 133.063 20.4251 133.061Z" fill="#888787"/>
<defs>
<filter id="filter0_f_1241_7668" x="38.8604" y="24.1851" width="181.641" height="167.504" filterUnits="userSpaceOnUse" color-interpolation-filters="sRGB">
<feFlood flood-opacity="0" result="BackgroundImageFix"/>
<feBlend mode="normal" in="SourceGraphic" in2="BackgroundImageFix" result="shape"/>
<feGaussianBlur stdDeviation="27" result="effect1_foregroundBlur_1241_7668"/>
</filter>
<filter id="filter1_i_1241_7668" x="13.5" y="24.5" width="120.106" height="110.317" filterUnits="userSpaceOnUse" color-interpolation-filters="sRGB">
<feFlood flood-opacity="0" result="BackgroundImageFix"/>
<feBlend mode="normal" in="SourceGraphic" in2="BackgroundImageFix" result="shape"/>
<feColorMatrix in="SourceAlpha" type="matrix" values="0 0 0 0 0 0 0 0 0 0 0 0 0 0 0 0 0 0 127 0" result="hardAlpha"/>
<feOffset dx="5" dy="-8"/>
<feGaussianBlur stdDeviation="14"/>
<feComposite in2="hardAlpha" operator="arithmetic" k2="-1" k3="1"/>
<feColorMatrix type="matrix" values="0 0 0 0 0 0 0 0 0 0 0 0 0 0 0 0 0 0 0.25 0"/>
<feBlend mode="normal" in2="shape" result="effect1_innerShadow_1241_7668"/>
</filter>
</defs>
</svg>
