<svg width="167" height="210" viewBox="0 0 167 210" fill="none" xmlns="http://www.w3.org/2000/svg">
<g filter="url(#filter0_f_1398_5192)">
<path d="M20.2803 169.49L41.3781 20.7988L146.069 40.5935L124.971 189.285L20.2803 169.49ZM130.358 42.0897C130.159 42.4925 130.109 43.0104 130.308 43.4132C130.458 43.7584 130.757 43.9886 131.106 44.1037C131.156 44.1037 131.256 44.1037 131.306 44.1037C131.555 44.1037 131.755 43.9886 131.954 43.8735C132.353 43.5858 132.503 43.0104 132.403 42.55C132.303 42.0321 131.954 41.6293 131.505 41.5718C131.455 41.5718 131.356 41.5718 131.306 41.5718C130.907 41.5142 130.558 41.7444 130.358 42.0897ZM108.263 37.4287C107.864 37.7739 107.664 38.3494 107.814 38.9248C107.963 39.3851 108.362 39.7304 108.762 39.788C108.811 39.788 108.811 39.788 108.861 39.788C109.26 39.788 109.659 39.5002 109.859 39.0974C110.058 38.6371 110.008 38.0617 109.709 37.6589C109.51 37.4287 109.26 37.2561 108.961 37.1985C108.911 37.1985 108.911 37.1985 108.861 37.1985C108.662 37.1985 108.412 37.2561 108.263 37.4287ZM88.0128 33.8035C87.7634 34.0912 87.6138 34.4364 87.6138 34.8393C87.5639 35.6449 88.1624 36.3929 88.8607 36.3929C89.2099 36.3929 89.559 36.2778 89.8084 35.9901C90.0578 35.7024 90.2074 35.3571 90.2074 34.9543C90.2573 34.1487 89.6587 33.4007 88.9605 33.4007C88.6113 33.3431 88.3121 33.5158 88.0128 33.8035ZM67.9125 29.3727C67.713 29.4878 67.5135 29.7755 67.5135 30.0632C67.4636 30.3509 67.5135 30.6386 67.6132 30.8688C67.7629 31.099 67.9624 31.2716 68.2118 31.3291C68.2616 31.3291 68.3614 31.3867 68.4113 31.3867C68.6108 31.3867 68.7604 31.3291 68.91 31.2141C69.1095 31.0414 69.2592 30.8112 69.309 30.5235C69.4587 29.9481 69.1095 29.3151 68.6108 29.2C68.5609 29.2 68.4612 29.1425 68.4113 29.1425C68.2118 29.2 68.0621 29.2576 67.9125 29.3727ZM46.2161 27.0709C46.2161 27.4737 46.3658 27.819 46.6152 28.1067C46.8645 28.3944 47.1638 28.452 47.5129 28.452C48.2112 28.452 48.7599 27.7039 48.71 26.9559C48.71 26.5531 48.5604 26.2078 48.311 25.9201C48.0616 25.6324 47.7623 25.5748 47.4132 25.5748C46.7149 25.5173 46.1663 26.3229 46.2161 27.0709Z" fill="#89E159"/>
</g>
<path d="M82.3536 23.8491L82.1887 23.6671L82.1804 23.6746L82.1728 23.6828L82.3536 23.8491ZM82.3536 23.8491C82.6866 23.5474 83.0195 23.3663 83.4079 23.4267C84.1848 23.4267 84.8506 24.2111 84.7952 25.0559C84.7952 25.4783 84.6287 25.8403 84.3512 26.1421C84.0738 26.4438 83.6854 26.5644 83.2969 26.5644C82.5201 26.5644 81.8542 25.78 81.9097 24.9352C81.9097 24.5128 82.0762 24.1508 82.3536 23.8491ZM59.6588 20.7717L59.4356 20.8743L59.4445 20.8936L59.4565 20.9111L59.6588 20.7717ZM59.6588 20.7717C59.8252 21.013 60.0472 21.194 60.3246 21.2544M59.6588 20.7717C59.5478 20.5303 59.4923 20.2286 59.5478 19.9269L60.3246 21.2544M60.3246 21.2544L60.2724 21.4944L60.2982 21.5H60.3246V21.2544ZM60.3246 21.2544C60.3524 21.2544 60.394 21.2695 60.4356 21.2846C60.4772 21.2997 60.5188 21.3147 60.5466 21.3147C60.7685 21.3147 60.935 21.2544 61.1015 21.1337M60.3246 21.2544L59.9917 19.2028C60.1582 19.0821 60.3246 19.0218 60.5466 18.9614M61.1015 21.1337L61.2459 21.3329L61.2567 21.3241L61.1015 21.1337ZM61.1015 21.1337C61.3234 20.9527 61.4899 20.7113 61.5454 20.4096C61.7118 19.8062 61.3234 19.1425 60.7685 19.0218M60.7685 19.0218L60.8207 18.7817L60.7949 18.7761H60.7685V19.0218ZM60.7685 19.0218C60.7408 19.0218 60.6992 19.0067 60.6576 18.9916C60.6159 18.9765 60.5743 18.9614 60.5466 18.9614M60.5466 18.9614V18.7158H60.5138L60.4821 18.7244L60.5466 18.9614ZM129.254 32.4099L129.25 32.4168L129.246 32.424C128.998 32.8963 128.922 33.5239 129.188 34.0345C129.391 34.4723 129.789 34.7498 130.223 34.8848L130.259 34.8959H130.296H130.296H130.297H130.297H130.297H130.298H130.298H130.298H130.299H130.299H130.299H130.3H130.3H130.3H130.301H130.301H130.301H130.302H130.302H130.302H130.303H130.303H130.303H130.304H130.304H130.304H130.305H130.305H130.305H130.306H130.306H130.307H130.307H130.307H130.308H130.308H130.308H130.309H130.309H130.309H130.31H130.31H130.311H130.311H130.311H130.312H130.312H130.312H130.313H130.313H130.314H130.314H130.314H130.315H130.315H130.316H130.316H130.316H130.317H130.317H130.317H130.318H130.318H130.319H130.319H130.319H130.32H130.32H130.321H130.321H130.321H130.322H130.322H130.323H130.323H130.323H130.324H130.324H130.325H130.325H130.326H130.326H130.326H130.327H130.327H130.328H130.328H130.328H130.329H130.329H130.33H130.33H130.331H130.331H130.331H130.332H130.332H130.333H130.333H130.333H130.334H130.334H130.335H130.335H130.336H130.336H130.336H130.337H130.337H130.338H130.338H130.339H130.339H130.34H130.34H130.34H130.341H130.341H130.342H130.342H130.343H130.343H130.343H130.344H130.344H130.345H130.345H130.346H130.346H130.347H130.347H130.347H130.348H130.348H130.349H130.349H130.35H130.35H130.351H130.351H130.352H130.352H130.352H130.353H130.353H130.354H130.354H130.355H130.355H130.356H130.356H130.357H130.357H130.358H130.358H130.358H130.359H130.359H130.36H130.36H130.361H130.361H130.362H130.362H130.363H130.363H130.364H130.364H130.364H130.365H130.365H130.366H130.366H130.367H130.367H130.368H130.368H130.369H130.369H130.37H130.37H130.371H130.371H130.372H130.372H130.373H130.373H130.373H130.374H130.374H130.375H130.375H130.376H130.376H130.377H130.377H130.378H130.378H130.379H130.379H130.38H130.38H130.381H130.381H130.382H130.382H130.383H130.383H130.384H130.384H130.384H130.385H130.385H130.386H130.386H130.387H130.387H130.388H130.388H130.389H130.389H130.39H130.39H130.391H130.391H130.392H130.392H130.393H130.393H130.394H130.394H130.395H130.395H130.396H130.396H130.397H130.397H130.398H130.398H130.399H130.399H130.4H130.4H130.4H130.401H130.401H130.402H130.402H130.403H130.403H130.404H130.404H130.405H130.405H130.406H130.406H130.407H130.407H130.408H130.408H130.409H130.409H130.41H130.41H130.411H130.411H130.412H130.412H130.413H130.413H130.414H130.414H130.415H130.415H130.416H130.416H130.417H130.417H130.418H130.418H130.419H130.419H130.42H130.42H130.42H130.421H130.421H130.422H130.422H130.423H130.423H130.424H130.424H130.425H130.425H130.426H130.426H130.427H130.427H130.428H130.428H130.429H130.429H130.43H130.43H130.431H130.431H130.432H130.432H130.433H130.433H130.434H130.434H130.434H130.435H130.435H130.436H130.436H130.437H130.437H130.438H130.438H130.439H130.439H130.44H130.44H130.441H130.441H130.442H130.442H130.443H130.443H130.444H130.444H130.444H130.445H130.445H130.446H130.446H130.447H130.447H130.448H130.448H130.449H130.449H130.45H130.45H130.451H130.451H130.452H130.452H130.452H130.453H130.453H130.454H130.454H130.455H130.455H130.456H130.456H130.457H130.457H130.458H130.458H130.458H130.459H130.459H130.46H130.46H130.461H130.461H130.462H130.462H130.463H130.463H130.463H130.464H130.464H130.465H130.465H130.466H130.466H130.467H130.467H130.468H130.468H130.468H130.469H130.469H130.47H130.47H130.471H130.471H130.472H130.472H130.472H130.473H130.473H130.474H130.474H130.475H130.475H130.475H130.476H130.476H130.477H130.477H130.478H130.478H130.478H130.479H130.479H130.48H130.48H130.481H130.481H130.481H130.482H130.482H130.483H130.483H130.484H130.484H130.484H130.485H130.485H130.486H130.486H130.487H130.487H130.487H130.488H130.488H130.489H130.489H130.489H130.49H130.49H130.491H130.491H130.491H130.492H130.492H130.493H130.493H130.493H130.494H130.494H130.495H130.495H130.495H130.496H130.496H130.497H130.497H130.497H130.498H130.498H130.499H130.499H130.499H130.5H130.5H130.5H130.501H130.501H130.502H130.502H130.502H130.503H130.503H130.503H130.504H130.504H130.505H130.505H130.505H130.506H130.506H130.506H130.507H130.507H130.507H130.508H130.508H130.509H130.509H130.509H130.51H130.51H130.51H130.511H130.511H130.511H130.512H130.512H130.512H130.513H130.513H130.513H130.514H130.514H130.514H130.515H130.515H130.515H130.516H130.516H130.516H130.517H130.517H130.517H130.518C130.858 34.8959 131.128 34.749 131.341 34.6332L131.357 34.6247L131.367 34.6188L131.377 34.612C131.92 34.243 132.106 33.5292 131.979 32.9687C131.851 32.349 131.396 31.8271 130.769 31.7513L130.755 31.7495H130.74H130.739H130.739H130.739H130.738H130.738H130.738H130.737H130.737H130.737H130.736H130.736H130.736H130.735H130.735H130.735H130.734H130.734H130.734H130.733H130.733H130.733H130.732H130.732H130.732H130.731H130.731H130.731H130.73H130.73H130.729H130.729H130.729H130.728H130.728H130.728H130.727H130.727H130.727H130.726H130.726H130.725H130.725H130.725H130.724H130.724H130.724H130.723H130.723H130.722H130.722H130.722H130.721H130.721H130.72H130.72H130.72H130.719H130.719H130.719H130.718H130.718H130.717H130.717H130.717H130.716H130.716H130.715H130.715H130.715H130.714H130.714H130.713H130.713H130.713H130.712H130.712H130.711H130.711H130.711H130.71H130.71H130.709H130.709H130.708H130.708H130.708H130.707H130.707H130.706H130.706H130.706H130.705H130.705H130.704H130.704H130.703H130.703H130.703H130.702H130.702H130.701H130.701H130.7H130.7H130.7H130.699H130.699H130.698H130.698H130.697H130.697H130.697H130.696H130.696H130.695H130.695H130.694H130.694H130.693H130.693H130.693H130.692H130.692H130.691H130.691H130.69H130.69H130.689H130.689H130.689H130.688H130.688H130.687H130.687H130.686H130.686H130.685H130.685H130.685H130.684H130.684H130.683H130.683H130.682H130.682H130.681H130.681H130.68H130.68H130.68H130.679H130.679H130.678H130.678H130.677H130.677H130.676H130.676H130.675H130.675H130.674H130.674H130.673H130.673H130.673H130.672H130.672H130.671H130.671H130.67H130.67H130.669H130.669H130.668H130.668H130.667H130.667H130.666H130.666H130.665H130.665H130.665H130.664H130.664H130.663H130.663H130.662H130.662H130.661H130.661H130.66H130.66H130.659H130.659H130.658H130.658H130.657H130.657H130.656H130.656H130.655H130.655H130.655H130.654H130.654H130.653H130.653H130.652H130.652H130.651H130.651H130.65H130.65H130.649H130.649H130.648H130.648H130.647H130.647H130.646H130.646H130.645H130.645H130.644H130.644H130.643H130.643H130.642H130.642H130.641H130.641H130.64H130.64H130.64H130.639H130.639H130.638H130.638H130.637H130.637H130.636H130.636H130.635H130.635H130.634H130.634H130.633H130.633H130.632H130.632H130.631H130.631H130.63H130.63H130.629H130.629H130.628H130.628H130.627H130.627H130.626H130.626H130.625H130.625H130.624H130.624H130.623H130.623H130.622H130.622H130.621H130.621H130.62H130.62H130.62H130.619H130.619H130.618H130.618H130.617H130.617H130.616H130.616H130.615H130.615H130.614H130.614H130.613H130.613H130.612H130.612H130.611H130.611H130.61H130.61H130.609H130.609H130.608H130.608H130.607H130.607H130.606H130.606H130.605H130.605H130.605H130.604H130.604H130.603H130.603H130.602H130.602H130.601H130.601H130.6H130.6H130.599H130.599H130.598H130.598H130.597H130.597H130.596H130.596H130.595H130.595H130.594H130.594H130.594H130.593H130.593H130.592H130.592H130.591H130.591H130.59H130.59H130.589H130.589H130.588H130.588H130.587H130.587H130.586H130.586H130.585H130.585H130.585H130.584H130.584H130.583H130.583H130.582H130.582H130.581H130.581H130.58H130.58H130.579H130.579H130.579H130.578H130.578H130.577H130.577H130.576H130.576H130.575H130.575H130.574H130.574H130.574H130.573H130.573H130.572H130.572H130.571H130.571H130.57H130.57H130.569H130.569H130.569H130.568H130.568H130.567H130.567H130.566H130.566H130.565H130.565H130.565H130.564H130.564H130.563H130.563H130.562H130.562H130.561H130.561H130.561H130.56H130.56H130.559H130.559H130.558H130.558H130.558H130.557H130.557H130.556H130.556H130.555H130.555H130.555H130.554H130.554H130.553H130.553H130.552H130.552H130.552H130.551H130.551H130.55H130.55H130.55H130.549H130.549H130.548H130.548H130.547H130.547H130.547H130.546H130.546H130.545H130.545H130.545H130.544H130.544H130.543H130.543H130.543H130.542H130.542H130.541H130.541H130.541H130.54H130.54H130.539H130.539H130.539H130.538H130.538H130.537H130.537H130.537H130.536H130.536H130.536H130.535H130.535H130.534H130.534H130.534H130.534C129.98 31.6819 129.513 31.9883 129.254 32.4099ZM104.146 29.2848L104.148 29.2922L104.15 29.2996C104.345 29.8644 104.862 30.2944 105.404 30.368L105.42 30.3702H105.437H105.437H105.438H105.438H105.438H105.439H105.439H105.439H105.439H105.44H105.44H105.44H105.441H105.441H105.441H105.442H105.442H105.442H105.443H105.443H105.443H105.443H105.444H105.444H105.444H105.445H105.445H105.445H105.446H105.446H105.446H105.446H105.447H105.447H105.447H105.448H105.448H105.448H105.448H105.449H105.449H105.449H105.45H105.45H105.45H105.45H105.451H105.451H105.451H105.451H105.452H105.452H105.452H105.452H105.453H105.453H105.453H105.454H105.454H105.454H105.454H105.455H105.455H105.455H105.455H105.456H105.456H105.456H105.456H105.457H105.457H105.457H105.457H105.458H105.458H105.458H105.458H105.459H105.459H105.459H105.459H105.46H105.46H105.46H105.46H105.46H105.461H105.461H105.461H105.461H105.462H105.462H105.462H105.462H105.463H105.463H105.463H105.463H105.463H105.464H105.464H105.464H105.464H105.465H105.465H105.465H105.465H105.465H105.466H105.466H105.466H105.466H105.467H105.467H105.467H105.467H105.467H105.468H105.468H105.468H105.468H105.468H105.469H105.469H105.469H105.469H105.469H105.47H105.47H105.47H105.47H105.47H105.471H105.471H105.471H105.471H105.471H105.472H105.472H105.472H105.472H105.472H105.473H105.473H105.473H105.473H105.473H105.474H105.474H105.474H105.474H105.474H105.475H105.475H105.475H105.475H105.475H105.476H105.476H105.476H105.476H105.476H105.476H105.477H105.477H105.477H105.477H105.477H105.478H105.478H105.478H105.478H105.478H105.478H105.479H105.479H105.479H105.479H105.479H105.48H105.48H105.48H105.48H105.48H105.48H105.481H105.481H105.481H105.481H105.481H105.481H105.482H105.482H105.482H105.482H105.482H105.482H105.483H105.483H105.483H105.483H105.483H105.484H105.484H105.484H105.484H105.484H105.484H105.485H105.485H105.485H105.485H105.485H105.485H105.486H105.486H105.486H105.486H105.486H105.486H105.487H105.487H105.487H105.487H105.487H105.487H105.488H105.488H105.488H105.488H105.488H105.488H105.489H105.489H105.489H105.489H105.489H105.489H105.489H105.49H105.49H105.49H105.49H105.49H105.49H105.491H105.491H105.491H105.491H105.491H105.491H105.492H105.492H105.492H105.492H105.492H105.492H105.493H105.493H105.493H105.493H105.493H105.493H105.494H105.494H105.494H105.494H105.494H105.494H105.495H105.495H105.495H105.495H105.495H105.495H105.496H105.496H105.496H105.496H105.496H105.496H105.496H105.497H105.497H105.497H105.497H105.497H105.497H105.498H105.498H105.498H105.498H105.498H105.498H105.499H105.499H105.499H105.499H105.499H105.499H105.5H105.5H105.5H105.5H105.5H105.5H105.501H105.501H105.501H105.501H105.501H105.502H105.502H105.502H105.502H105.502H105.502H105.503H105.503H105.503H105.503H105.503H105.503H105.504H105.504H105.504H105.504H105.504H105.504H105.505H105.505H105.505H105.505H105.505H105.505H105.506H105.506H105.506H105.506H105.506H105.507H105.507H105.507H105.507H105.507H105.507H105.508H105.508H105.508H105.508H105.508H105.509H105.509H105.509H105.509H105.509H105.51H105.51H105.51H105.51H105.51H105.51H105.511H105.511H105.511H105.511H105.511H105.512H105.512H105.512H105.512H105.512H105.513H105.513H105.513H105.513H105.513H105.514H105.514H105.514H105.514H105.514H105.515H105.515H105.515H105.515H105.515H105.516H105.516H105.516H105.516H105.516H105.517H105.517H105.517H105.517H105.517H105.518H105.518H105.518H105.518H105.519H105.519H105.519H105.519H105.519H105.52H105.52H105.52H105.52H105.52H105.521H105.521H105.521H105.521H105.522H105.522H105.522H105.522H105.522H105.523H105.523H105.523H105.523H105.524H105.524H105.524H105.524H105.525H105.525H105.525H105.525H105.526H105.526H105.526H105.526H105.527H105.527H105.527H105.527H105.527H105.528H105.528H105.528H105.528H105.529H105.529H105.529H105.529H105.53H105.53H105.53H105.531H105.531H105.531H105.531H105.532H105.532H105.532H105.532H105.533H105.533H105.533H105.533H105.534H105.534H105.534H105.534H105.535H105.535H105.535H105.536H105.536H105.536H105.536H105.537H105.537H105.537H105.538H105.538H105.538H105.538H105.539H105.539H105.539H105.54H105.54H105.54H105.54H105.541H105.541H105.541H105.542H105.542H105.542H105.543H105.543H105.543H105.543H105.544H105.544H105.544H105.545H105.545H105.545H105.546H105.546H105.546H105.547H105.547H105.547H105.548H105.548C106.098 30.3702 106.618 30.0039 106.875 29.5148L106.875 29.5149L106.881 29.5031C107.139 28.9413 107.077 28.2388 106.684 27.7399L106.678 27.7325L106.672 27.7257C106.423 27.4545 106.1 27.2395 105.703 27.1675L105.681 27.1636H105.659H105.659H105.658H105.658H105.658H105.657H105.657H105.657H105.656H105.656H105.656H105.655H105.655H105.655H105.654H105.654H105.654H105.654H105.653H105.653H105.653H105.652H105.652H105.652H105.651H105.651H105.651H105.651H105.65H105.65H105.65H105.649H105.649H105.649H105.649H105.648H105.648H105.648H105.647H105.647H105.647H105.647H105.646H105.646H105.646H105.645H105.645H105.645H105.645H105.644H105.644H105.644H105.644H105.643H105.643H105.643H105.643H105.642H105.642H105.642H105.641H105.641H105.641H105.641H105.64H105.64H105.64H105.64H105.639H105.639H105.639H105.639H105.638H105.638H105.638H105.638H105.637H105.637H105.637H105.637H105.637H105.636H105.636H105.636H105.636H105.635H105.635H105.635H105.635H105.634H105.634H105.634H105.634H105.633H105.633H105.633H105.633H105.633H105.632H105.632H105.632H105.632H105.631H105.631H105.631H105.631H105.631H105.63H105.63H105.63H105.63H105.629H105.629H105.629H105.629H105.629H105.628H105.628H105.628H105.628H105.628H105.627H105.627H105.627H105.627H105.627H105.626H105.626H105.626H105.626H105.626H105.625H105.625H105.625H105.625H105.625H105.624H105.624H105.624H105.624H105.624H105.623H105.623H105.623H105.623H105.623H105.622H105.622H105.622H105.622H105.622H105.621H105.621H105.621H105.621H105.621H105.62H105.62H105.62H105.62H105.62H105.62H105.619H105.619H105.619H105.619H105.619H105.618H105.618H105.618H105.618H105.618H105.618H105.617H105.617H105.617H105.617H105.617H105.616H105.616H105.616H105.616H105.616H105.616H105.615H105.615H105.615H105.615H105.615H105.615H105.614H105.614H105.614H105.614H105.614H105.614H105.613H105.613H105.613H105.613H105.613H105.612H105.612H105.612H105.612H105.612H105.612H105.611H105.611H105.611H105.611H105.611H105.611H105.61H105.61H105.61H105.61H105.61H105.61H105.609H105.609H105.609H105.609H105.609H105.609H105.608H105.608H105.608H105.608H105.608H105.608H105.607H105.607H105.607H105.607H105.607H105.607H105.606H105.606H105.606H105.606H105.606H105.606H105.606H105.605H105.605H105.605H105.605H105.605H105.605H105.604H105.604H105.604H105.604H105.604H105.604H105.603H105.603H105.603H105.603H105.603H105.603H105.602H105.602H105.602H105.602H105.602H105.602H105.601H105.601H105.601H105.601H105.601H105.601H105.6H105.6H105.6H105.6H105.6H105.6H105.599H105.599H105.599H105.599H105.599H105.599H105.598H105.598H105.598H105.598H105.598H105.598H105.598H105.597H105.597H105.597H105.597H105.597H105.597H105.596H105.596H105.596H105.596H105.596H105.596H105.595H105.595H105.595H105.595H105.595H105.594H105.594H105.594H105.594H105.594H105.594H105.593H105.593H105.593H105.593H105.593H105.593H105.592H105.592H105.592H105.592H105.592H105.592H105.591H105.591H105.591H105.591H105.591H105.591H105.59H105.59H105.59H105.59H105.59H105.589H105.589H105.589H105.589H105.589H105.589H105.588H105.588H105.588H105.588H105.588H105.587H105.587H105.587H105.587H105.587H105.587H105.586H105.586H105.586H105.586H105.586H105.585H105.585H105.585H105.585H105.585H105.584H105.584H105.584H105.584H105.584H105.583H105.583H105.583H105.583H105.583H105.582H105.582H105.582H105.582H105.582H105.581H105.581H105.581H105.581H105.581H105.58H105.58H105.58H105.58H105.58H105.579H105.579H105.579H105.579H105.579H105.578H105.578H105.578H105.578H105.578H105.577H105.577H105.577H105.577H105.576H105.576H105.576H105.576H105.576H105.575H105.575H105.575H105.575H105.574H105.574H105.574H105.574H105.574H105.573H105.573H105.573H105.573H105.572H105.572H105.572H105.572H105.571H105.571H105.571H105.571H105.571H105.57H105.57H105.57H105.57H105.569H105.569H105.569H105.569H105.568H105.568H105.568H105.568H105.567H105.567H105.567H105.567H105.566H105.566H105.566H105.566H105.565H105.565H105.565H105.565H105.564H105.564H105.564H105.563H105.563H105.563H105.563H105.562H105.562H105.562H105.562H105.561H105.561H105.561H105.561H105.56H105.56H105.56H105.559H105.559H105.559H105.559H105.558H105.558H105.558H105.557H105.557H105.557H105.557H105.556H105.556H105.556H105.555H105.555H105.555H105.554H105.554H105.554H105.554H105.553H105.553H105.553H105.552H105.552H105.552H105.551H105.551H105.551H105.55H105.55H105.55H105.55H105.549H105.549H105.549H105.548H105.548C105.303 27.1636 104.949 27.2263 104.714 27.4709C104.207 27.8926 103.954 28.589 104.146 29.2848ZM7.27851 165.934L30.6771 10.498L146.664 31.1693L123.265 186.606L7.27851 165.934Z" fill="#B9F498" stroke="#89E159" stroke-width="0.491306"/>
<mask id="mask0_1398_5192" style="mask-type:luminance" maskUnits="userSpaceOnUse" x="36" y="9" width="12" height="15">
<path d="M42.8453 9.00372C41.1252 8.94338 39.1831 9.60714 38.3507 11.6587C38.4062 11.6587 38.4062 11.6587 38.4617 11.6587C38.5172 11.6587 38.5727 11.6587 38.6282 11.6587C38.6282 11.6587 38.6282 11.6587 38.5727 11.6587H38.6282C38.8501 11.7191 39.0721 11.7191 39.2941 11.7794C39.4605 11.6588 39.627 11.5381 39.7934 11.4777C42.0685 10.995 43.0118 12.0208 43.4002 14.7965C43.7886 17.1498 42.1795 19.8652 40.2928 20.1669C38.3507 20.0462 37.3519 17.3309 37.4629 15.1586C37.4074 15.1586 37.4074 15.1586 37.3519 15.1586H37.2965C37.241 15.1586 37.241 15.1586 37.1855 15.1586C37.13 15.1586 37.019 15.1586 36.9635 15.1586C36.3531 18.3567 37.241 21.9168 39.9044 23.0633C40.4038 23.2443 40.8477 23.365 41.3471 23.365C44.399 23.365 47.118 19.4428 47.007 15.5809C47.0625 12.5639 45.4533 9.18475 42.8453 9.00372Z" fill="white"/>
</mask>
<g mask="url(#mask0_1398_5192)">
<path d="M38.5729 11.66C38.5729 11.66 38.5174 11.66 38.4619 11.66C38.5174 11.5996 38.5729 11.5996 38.6284 11.5996C38.6839 11.5996 38.7393 11.66 38.7948 11.7203C38.6839 11.7203 38.6284 11.66 38.5729 11.66Z" fill="white"/>
</g>
<mask id="mask1_1398_5192" style="mask-type:luminance" maskUnits="userSpaceOnUse" x="36" y="9" width="12" height="15">
<path d="M42.8453 9.00372C41.1252 8.94338 39.1831 9.60714 38.3507 11.6587C38.4062 11.6587 38.4062 11.6587 38.4617 11.6587C38.5172 11.6587 38.5727 11.6587 38.6282 11.6587C38.6282 11.6587 38.6282 11.6587 38.5727 11.6587H38.6282C38.8501 11.7191 39.0721 11.7191 39.2941 11.7794C39.4605 11.6588 39.627 11.5381 39.7934 11.4777C42.0685 10.995 43.0118 12.0208 43.4002 14.7965C43.7886 17.1498 42.1795 19.8652 40.2928 20.1669C38.3507 20.0462 37.3519 17.3309 37.4629 15.1586C37.4074 15.1586 37.4074 15.1586 37.3519 15.1586H37.2965C37.241 15.1586 37.241 15.1586 37.1855 15.1586C37.13 15.1586 37.019 15.1586 36.9635 15.1586C36.3531 18.3567 37.241 21.9168 39.9044 23.0633C40.4038 23.2443 40.8477 23.365 41.3471 23.365C44.399 23.365 47.118 19.4428 47.007 15.5809C47.0625 12.5639 45.4533 9.18475 42.8453 9.00372Z" fill="white"/>
</mask>
<g mask="url(#mask1_1398_5192)">
<path d="M39.9601 23.0641C37.2966 21.9176 36.4088 18.3575 37.0192 15.1594C37.0747 15.1594 37.1856 15.1594 37.2411 15.1594C37.2966 15.1594 37.2966 15.1594 37.3521 15.1594H37.4076C37.4631 15.1594 37.4631 15.1594 37.5186 15.1594C37.4076 17.392 38.4064 20.047 40.3485 20.1677C42.2351 19.9264 43.8443 17.211 43.4559 14.7973C43.0675 12.0216 42.0687 10.9958 39.8491 11.4786C39.6826 11.5389 39.5162 11.6596 39.3497 11.7803C39.1277 11.7199 38.8503 11.6596 38.6284 11.6596C38.5174 11.6596 38.4619 11.6596 38.3509 11.5992C39.1832 9.54763 41.1253 8.88387 42.8455 8.94422C45.4535 9.18558 47.0626 12.5044 47.0626 15.5818C47.1736 19.3833 44.4547 23.3658 41.4028 23.3658C40.9589 23.3658 40.4595 23.3055 39.9601 23.0641Z" fill="white"/>
</g>
<mask id="mask2_1398_5192" style="mask-type:luminance" maskUnits="userSpaceOnUse" x="36" y="9" width="12" height="15">
<path d="M42.8453 9.00372C41.1252 8.94338 39.1831 9.60714 38.3507 11.6587C38.4062 11.6587 38.4062 11.6587 38.4617 11.6587C38.5172 11.6587 38.5727 11.6587 38.6282 11.6587C38.6282 11.6587 38.6282 11.6587 38.5727 11.6587H38.6282C38.8501 11.7191 39.0721 11.7191 39.2941 11.7794C39.4605 11.6588 39.627 11.5381 39.7934 11.4777C42.0685 10.995 43.0118 12.0208 43.4002 14.7965C43.7886 17.1498 42.1795 19.8652 40.2928 20.1669C38.3507 20.0462 37.3519 17.3309 37.4629 15.1586C37.4074 15.1586 37.4074 15.1586 37.3519 15.1586H37.2965C37.241 15.1586 37.241 15.1586 37.1855 15.1586C37.13 15.1586 37.019 15.1586 36.9635 15.1586C36.3531 18.3567 37.241 21.9168 39.9044 23.0633C40.4038 23.2443 40.8477 23.365 41.3471 23.365C44.399 23.365 47.118 19.4428 47.007 15.5809C47.0625 12.5639 45.4533 9.18475 42.8453 9.00372Z" fill="white"/>
</mask>
<g mask="url(#mask2_1398_5192)">
<path d="M39.5713 20.8919C36.7969 20.1678 36.8524 16.125 37.7402 13.832C37.5737 15.4009 37.8512 17.0904 38.5725 18.4179C39.2384 19.3231 39.9598 19.2627 40.8476 18.7196C42.7342 17.6938 43.1781 14.7974 42.5122 12.8062C42.0683 11.539 40.0707 10.9959 39.2384 11.9614C39.7933 11.0563 41.347 10.9356 42.2903 11.4183C44.6208 12.8062 44.7318 16.487 43.622 18.8403C42.9007 20.4695 41.0695 21.073 39.5713 20.8919Z" fill="#B5B5B5"/>
</g>
<mask id="mask3_1398_5192" style="mask-type:luminance" maskUnits="userSpaceOnUse" x="60" y="12" width="11" height="16">
<path d="M66.2067 12.8069C64.4865 12.7465 62.5444 13.4103 61.7121 15.4619C61.7676 15.4619 61.7675 15.4619 61.823 15.4619C61.8785 15.4619 61.934 15.4619 61.9895 15.4619C61.9895 15.4619 61.9895 15.4619 61.934 15.4619H61.9895C62.2115 15.5223 62.4334 15.5223 62.6554 15.5826C62.8218 15.4619 62.9883 15.3412 63.1548 15.2809C65.4298 14.7982 66.3731 15.824 66.7615 18.5997C67.15 20.953 65.5408 23.6683 63.6542 23.9701C61.7121 23.8494 60.7133 21.134 60.8242 18.9617C60.7688 18.9617 60.7687 18.9617 60.7133 18.9617H60.6578C60.6023 18.9617 60.6023 18.9617 60.5468 18.9617C60.4913 18.9617 60.3803 18.9617 60.3248 18.9617C59.7145 22.1598 60.6023 25.72 63.2657 26.8665C63.7651 27.0475 64.2091 27.1682 64.7085 27.1682C67.7603 27.1682 70.4793 23.246 70.3683 19.3841C70.4238 16.4274 68.8146 13.0483 66.2067 12.8069Z" fill="white"/>
</mask>
<g mask="url(#mask3_1398_5192)">
<path d="M61.9342 15.5222C61.9342 15.5222 61.8787 15.5222 61.8232 15.5222C61.8787 15.4618 61.9342 15.4619 61.9897 15.4619C62.0452 15.4619 62.1007 15.5222 62.1562 15.5825C62.0452 15.5222 61.9897 15.5222 61.9342 15.5222Z" fill="white"/>
</g>
<mask id="mask4_1398_5192" style="mask-type:luminance" maskUnits="userSpaceOnUse" x="60" y="12" width="11" height="16">
<path d="M66.2067 12.8069C64.4865 12.7465 62.5444 13.4103 61.7121 15.4619C61.7676 15.4619 61.7675 15.4619 61.823 15.4619C61.8785 15.4619 61.934 15.4619 61.9895 15.4619C61.9895 15.4619 61.9895 15.4619 61.934 15.4619H61.9895C62.2115 15.5223 62.4334 15.5223 62.6554 15.5826C62.8218 15.4619 62.9883 15.3412 63.1548 15.2809C65.4298 14.7982 66.3731 15.824 66.7615 18.5997C67.15 20.953 65.5408 23.6683 63.6542 23.9701C61.7121 23.8494 60.7133 21.134 60.8242 18.9617C60.7688 18.9617 60.7687 18.9617 60.7133 18.9617H60.6578C60.6023 18.9617 60.6023 18.9617 60.5468 18.9617C60.4913 18.9617 60.3803 18.9617 60.3248 18.9617C59.7145 22.1598 60.6023 25.72 63.2657 26.8665C63.7651 27.0475 64.2091 27.1682 64.7085 27.1682C67.7603 27.1682 70.4793 23.246 70.3683 19.3841C70.4238 16.4274 68.8146 13.0483 66.2067 12.8069Z" fill="white"/>
</mask>
<g mask="url(#mask4_1398_5192)">
<path d="M63.3214 26.9264C60.6579 25.7799 59.7701 22.2198 60.3805 19.0217C60.436 19.0217 60.547 19.0217 60.6025 19.0217C60.658 19.0217 60.6579 19.0217 60.7134 19.0217H60.7689C60.8244 19.0217 60.8244 19.0217 60.8799 19.0217C60.7689 21.2543 61.7677 23.9093 63.7098 24.03C65.5964 23.7887 67.2056 21.0733 66.8172 18.6596C66.4288 15.8839 65.43 14.8581 63.2104 15.3409C63.044 15.4012 62.8775 15.5219 62.711 15.6426C62.4891 15.5822 62.2116 15.5219 61.9897 15.5219C61.8787 15.5219 61.8232 15.5219 61.7122 15.4616C62.5446 13.4099 64.4867 12.7462 66.2068 12.8065C68.8148 13.0479 70.424 16.3667 70.424 19.4441C70.5349 23.2456 67.816 27.2281 64.7641 27.2281C64.2647 27.2281 63.8208 27.1075 63.3214 26.9264Z" fill="white"/>
</g>
<mask id="mask5_1398_5192" style="mask-type:luminance" maskUnits="userSpaceOnUse" x="60" y="12" width="11" height="16">
<path d="M66.2067 12.8069C64.4865 12.7465 62.5444 13.4103 61.7121 15.4619C61.7676 15.4619 61.7675 15.4619 61.823 15.4619C61.8785 15.4619 61.934 15.4619 61.9895 15.4619C61.9895 15.4619 61.9895 15.4619 61.934 15.4619H61.9895C62.2115 15.5223 62.4334 15.5223 62.6554 15.5826C62.8218 15.4619 62.9883 15.3412 63.1548 15.2809C65.4298 14.7982 66.3731 15.824 66.7615 18.5997C67.15 20.953 65.5408 23.6683 63.6542 23.9701C61.7121 23.8494 60.7133 21.134 60.8242 18.9617C60.7688 18.9617 60.7687 18.9617 60.7133 18.9617H60.6578C60.6023 18.9617 60.6023 18.9617 60.5468 18.9617C60.4913 18.9617 60.3803 18.9617 60.3248 18.9617C59.7145 22.1598 60.6023 25.72 63.2657 26.8665C63.7651 27.0475 64.2091 27.1682 64.7085 27.1682C67.7603 27.1682 70.4793 23.246 70.3683 19.3841C70.4238 16.4274 68.8146 13.0483 66.2067 12.8069Z" fill="white"/>
</mask>
<g mask="url(#mask5_1398_5192)">
<path d="M62.8775 24.7535C60.1031 24.0294 60.1585 19.9865 61.0464 17.6936C60.8799 19.2624 61.1573 20.952 61.8787 22.2795C62.5446 23.1846 63.2659 23.1243 64.1537 22.5812C66.0403 21.5554 66.4843 18.659 65.8184 16.6678C65.3745 15.4006 63.3769 14.8575 62.5446 15.823C63.0994 14.9179 64.6531 14.7972 65.5964 15.2799C67.927 16.6678 68.0379 20.3486 66.9282 22.7019C66.2623 24.3311 64.4312 24.9345 62.8775 24.7535Z" fill="#B5B5B5"/>
</g>
<mask id="mask6_1398_5192" style="mask-type:luminance" maskUnits="userSpaceOnUse" x="83" y="17" width="11" height="15">
<path d="M89.068 17.2119C87.3478 17.1516 85.4057 17.8153 84.5734 19.8669C84.6289 19.8669 84.6289 19.8669 84.6844 19.8669C84.7399 19.8669 84.7953 19.8669 84.8508 19.8669C84.8508 19.8669 84.8508 19.8669 84.7954 19.8669H84.8508C85.0728 19.9273 85.2948 19.9273 85.5167 19.9876C85.6832 19.8669 85.8496 19.7463 86.0161 19.6859C88.2911 19.2032 89.2344 20.229 89.6229 23.0047C90.0113 25.358 88.4021 28.0734 86.5155 28.3751C84.5734 28.2544 83.5746 25.539 83.6856 23.3667C83.6301 23.3667 83.6301 23.3667 83.5746 23.3667H83.5191C83.4636 23.3667 83.4636 23.3667 83.4081 23.3667C83.3527 23.3667 83.2417 23.3667 83.1862 23.3667C82.5758 26.5648 83.4636 30.125 86.1271 31.2715C86.6265 31.4525 87.0704 31.5732 87.5698 31.5732C90.6217 31.5732 93.3406 27.651 93.2296 23.7891C93.2851 20.7721 91.6759 17.4533 89.068 17.2119Z" fill="white"/>
</mask>
<g mask="url(#mask6_1398_5192)">
<path d="M84.7951 19.9273C84.7951 19.9273 84.7396 19.9273 84.6841 19.9273C84.7396 19.867 84.7951 19.867 84.8505 19.867C84.906 19.867 84.9615 19.9274 85.017 19.9877C84.906 19.9274 84.8506 19.9273 84.7951 19.9273Z" fill="white"/>
</g>
<mask id="mask7_1398_5192" style="mask-type:luminance" maskUnits="userSpaceOnUse" x="83" y="17" width="11" height="15">
<path d="M89.068 17.2119C87.3478 17.1516 85.4057 17.8153 84.5734 19.8669C84.6289 19.8669 84.6289 19.8669 84.6844 19.8669C84.7399 19.8669 84.7953 19.8669 84.8508 19.8669C84.8508 19.8669 84.8508 19.8669 84.7954 19.8669H84.8508C85.0728 19.9273 85.2948 19.9273 85.5167 19.9876C85.6832 19.8669 85.8496 19.7463 86.0161 19.6859C88.2911 19.2032 89.2344 20.229 89.6229 23.0047C90.0113 25.358 88.4021 28.0734 86.5155 28.3751C84.5734 28.2544 83.5746 25.539 83.6856 23.3667C83.6301 23.3667 83.6301 23.3667 83.5746 23.3667H83.5191C83.4636 23.3667 83.4636 23.3667 83.4081 23.3667C83.3527 23.3667 83.2417 23.3667 83.1862 23.3667C82.5758 26.5648 83.4636 30.125 86.1271 31.2715C86.6265 31.4525 87.0704 31.5732 87.5698 31.5732C90.6217 31.5732 93.3406 27.651 93.2296 23.7891C93.2851 20.7721 91.6759 17.4533 89.068 17.2119Z" fill="white"/>
</mask>
<g mask="url(#mask7_1398_5192)">
<path d="M86.1827 31.3316C83.5193 30.1851 82.6315 26.6249 83.2418 23.4268C83.2973 23.4268 83.4083 23.4268 83.4638 23.4268C83.5193 23.4268 83.5193 23.4268 83.5748 23.4268H83.6303C83.6858 23.4268 83.6857 23.4268 83.7412 23.4268C83.6303 25.6595 84.6291 28.3145 86.5712 28.4352C88.4578 28.1938 90.0669 25.4784 89.6785 23.0648C89.2901 20.2891 88.2913 19.2633 86.0718 19.746C85.9053 19.8063 85.7388 19.927 85.5724 20.0477C85.3504 19.9874 85.073 19.927 84.851 19.927C84.74 19.927 84.6845 19.927 84.5736 19.8667C85.4059 17.8151 87.348 17.1513 89.0682 17.2117C91.6761 17.453 93.2853 20.7718 93.2853 23.8492C93.3963 27.6507 90.6773 31.6333 87.6254 31.6333C87.126 31.6333 86.6821 31.5126 86.1827 31.3316Z" fill="white"/>
</g>
<mask id="mask8_1398_5192" style="mask-type:luminance" maskUnits="userSpaceOnUse" x="83" y="17" width="11" height="15">
<path d="M89.068 17.2119C87.3478 17.1516 85.4057 17.8153 84.5734 19.8669C84.6289 19.8669 84.6289 19.8669 84.6844 19.8669C84.7399 19.8669 84.7953 19.8669 84.8508 19.8669C84.8508 19.8669 84.8508 19.8669 84.7954 19.8669H84.8508C85.0728 19.9273 85.2948 19.9273 85.5167 19.9876C85.6832 19.8669 85.8496 19.7463 86.0161 19.6859C88.2911 19.2032 89.2344 20.229 89.6229 23.0047C90.0113 25.358 88.4021 28.0734 86.5155 28.3751C84.5734 28.2544 83.5746 25.539 83.6856 23.3667C83.6301 23.3667 83.6301 23.3667 83.5746 23.3667H83.5191C83.4636 23.3667 83.4636 23.3667 83.4081 23.3667C83.3527 23.3667 83.2417 23.3667 83.1862 23.3667C82.5758 26.5648 83.4636 30.125 86.1271 31.2715C86.6265 31.4525 87.0704 31.5732 87.5698 31.5732C90.6217 31.5732 93.3406 27.651 93.2296 23.7891C93.2851 20.7721 91.6759 17.4533 89.068 17.2119Z" fill="white"/>
</mask>
<g mask="url(#mask8_1398_5192)">
<path d="M85.7383 29.0982C82.9639 28.3741 83.0194 24.3313 83.9072 22.0383C83.7407 23.6072 84.0182 25.2967 84.7395 26.6242C85.4054 27.5294 86.1268 27.469 87.0146 26.9259C88.9012 25.9001 89.3451 23.0037 88.6792 21.0125C88.2353 19.7453 86.2377 19.2022 85.4054 20.1677C85.9603 19.2626 87.514 19.1419 88.4573 19.6246C90.7878 21.0125 90.8988 24.6933 89.789 27.0466C89.1231 28.7362 87.292 29.3396 85.7383 29.0982Z" fill="#B5B5B5"/>
</g>
<mask id="mask9_1398_5192" style="mask-type:luminance" maskUnits="userSpaceOnUse" x="105" y="21" width="11" height="15">
<path d="M111.264 21.1928C109.544 21.1324 107.602 21.7962 106.769 23.8478C106.825 23.8478 106.825 23.8478 106.88 23.8478C106.936 23.8478 106.991 23.8478 107.047 23.8478C107.047 23.8478 107.047 23.8478 106.991 23.8478H107.047C107.269 23.9081 107.491 23.9081 107.713 23.9684C107.879 23.8478 108.045 23.7271 108.212 23.6667C110.487 23.184 111.43 24.2098 111.819 26.9855C112.207 29.3388 110.598 32.0542 108.711 32.3559C106.769 32.2352 105.77 29.5199 105.881 27.3476C105.826 27.3476 105.826 27.3476 105.77 27.3476H105.715C105.659 27.3476 105.659 27.3476 105.604 27.3476C105.548 27.3476 105.437 27.3476 105.382 27.3476C104.772 30.5457 105.659 34.1058 108.323 35.2523C108.822 35.4333 109.266 35.554 109.766 35.554C112.817 35.554 115.536 31.6318 115.425 27.77C115.481 24.8132 113.872 21.4341 111.264 21.1928Z" fill="white"/>
</mask>
<g mask="url(#mask9_1398_5192)">
<path d="M106.991 23.9086C106.991 23.9086 106.936 23.9086 106.88 23.9086C106.936 23.8482 106.991 23.8482 107.047 23.8482C107.102 23.8482 107.158 23.9085 107.213 23.9689C107.102 23.9085 107.047 23.9086 106.991 23.9086Z" fill="white"/>
</g>
<mask id="mask10_1398_5192" style="mask-type:luminance" maskUnits="userSpaceOnUse" x="105" y="21" width="11" height="15">
<path d="M111.264 21.1928C109.544 21.1324 107.602 21.7962 106.769 23.8478C106.825 23.8478 106.825 23.8478 106.88 23.8478C106.936 23.8478 106.991 23.8478 107.047 23.8478C107.047 23.8478 107.047 23.8478 106.991 23.8478H107.047C107.269 23.9081 107.491 23.9081 107.713 23.9684C107.879 23.8478 108.045 23.7271 108.212 23.6667C110.487 23.184 111.43 24.2098 111.819 26.9855C112.207 29.3388 110.598 32.0542 108.711 32.3559C106.769 32.2352 105.77 29.5199 105.881 27.3476C105.826 27.3476 105.826 27.3476 105.77 27.3476H105.715C105.659 27.3476 105.659 27.3476 105.604 27.3476C105.548 27.3476 105.437 27.3476 105.382 27.3476C104.772 30.5457 105.659 34.1058 108.323 35.2523C108.822 35.4333 109.266 35.554 109.766 35.554C112.817 35.554 115.536 31.6318 115.425 27.77C115.481 24.8132 113.872 21.4341 111.264 21.1928Z" fill="white"/>
</mask>
<g mask="url(#mask10_1398_5192)">
<path d="M108.379 35.3139C105.715 34.1674 104.827 30.6073 105.438 27.4092C105.493 27.4092 105.604 27.4092 105.66 27.4092C105.715 27.4092 105.715 27.4092 105.771 27.4092H105.826C105.882 27.4092 105.882 27.4092 105.937 27.4092C105.826 29.6418 106.825 32.2968 108.767 32.4175C110.654 32.1762 112.263 29.4608 111.874 27.0471C111.486 24.2714 110.487 23.2456 108.268 23.7284C108.101 23.7887 107.935 23.9094 107.768 24.0301C107.546 23.9697 107.269 23.9094 107.047 23.9094C106.936 23.9094 106.88 23.9094 106.769 23.8491C107.602 21.7974 109.544 21.1337 111.264 21.194C113.872 21.4354 115.481 24.7542 115.481 27.8316C115.592 31.6331 112.873 35.6156 109.821 35.6156C109.377 35.6156 108.878 35.495 108.379 35.3139Z" fill="white"/>
</g>
<mask id="mask11_1398_5192" style="mask-type:luminance" maskUnits="userSpaceOnUse" x="105" y="21" width="11" height="15">
<path d="M111.264 21.1928C109.544 21.1324 107.602 21.7962 106.769 23.8478C106.825 23.8478 106.825 23.8478 106.88 23.8478C106.936 23.8478 106.991 23.8478 107.047 23.8478C107.047 23.8478 107.047 23.8478 106.991 23.8478H107.047C107.269 23.9081 107.491 23.9081 107.713 23.9684C107.879 23.8478 108.045 23.7271 108.212 23.6667C110.487 23.184 111.43 24.2098 111.819 26.9855C112.207 29.3388 110.598 32.0542 108.711 32.3559C106.769 32.2352 105.77 29.5199 105.881 27.3476C105.826 27.3476 105.826 27.3476 105.77 27.3476H105.715C105.659 27.3476 105.659 27.3476 105.604 27.3476C105.548 27.3476 105.437 27.3476 105.382 27.3476C104.772 30.5457 105.659 34.1058 108.323 35.2523C108.822 35.4333 109.266 35.554 109.766 35.554C112.817 35.554 115.536 31.6318 115.425 27.77C115.481 24.8132 113.872 21.4341 111.264 21.1928Z" fill="white"/>
</mask>
<g mask="url(#mask11_1398_5192)">
<path d="M107.99 33.1426C105.215 32.4185 105.271 28.3756 106.159 26.0827C105.992 27.6515 106.27 29.3411 106.991 30.6686C107.657 31.5737 108.378 31.5134 109.266 30.9703C111.153 29.9445 111.597 27.0481 110.931 25.0569C110.487 23.7897 108.489 23.2466 107.657 24.2121C108.212 23.307 109.765 23.1863 110.709 23.669C113.039 25.0568 113.15 28.7377 112.04 31.091C111.375 32.7202 109.543 33.3236 107.99 33.1426Z" fill="#B5B5B5"/>
</g>
<mask id="mask12_1398_5192" style="mask-type:luminance" maskUnits="userSpaceOnUse" x="130" y="25" width="11" height="16">
<path d="M136.234 25.7805C134.513 25.7201 132.571 26.3839 131.739 28.4355C131.794 28.4355 131.794 28.4355 131.85 28.4355C131.905 28.4355 131.961 28.4355 132.016 28.4355C132.016 28.4355 132.016 28.4355 131.961 28.4355H132.016C132.238 28.4958 132.46 28.4958 132.682 28.5562C132.849 28.4355 133.015 28.3148 133.182 28.2545C135.457 27.7717 136.4 28.7975 136.788 31.5732C137.177 33.9266 135.568 36.6419 133.681 36.9436C131.739 36.8229 130.74 34.1076 130.851 31.9353C130.796 31.9353 130.796 31.9353 130.74 31.9353H130.685C130.629 31.9353 130.629 31.9353 130.574 31.9353C130.518 31.9353 130.407 31.9353 130.352 31.9353C129.741 35.1334 130.629 38.6935 133.293 39.84C133.792 40.0211 134.236 40.1417 134.735 40.1417C137.787 40.1417 140.506 36.2195 140.395 32.3577C140.451 29.3406 138.786 26.0218 136.234 25.7805Z" fill="white"/>
</mask>
<g mask="url(#mask12_1398_5192)">
<path d="M131.961 28.4961C131.961 28.4961 131.906 28.4961 131.85 28.4961C131.906 28.4357 131.961 28.4357 132.017 28.4357C132.072 28.4357 132.128 28.4961 132.183 28.5564C132.072 28.4961 132.017 28.4961 131.961 28.4961Z" fill="white"/>
</g>
<mask id="mask13_1398_5192" style="mask-type:luminance" maskUnits="userSpaceOnUse" x="130" y="25" width="11" height="16">
<path d="M136.234 25.7805C134.513 25.7201 132.571 26.3839 131.739 28.4355C131.794 28.4355 131.794 28.4355 131.85 28.4355C131.905 28.4355 131.961 28.4355 132.016 28.4355C132.016 28.4355 132.016 28.4355 131.961 28.4355H132.016C132.238 28.4958 132.46 28.4958 132.682 28.5562C132.849 28.4355 133.015 28.3148 133.182 28.2545C135.457 27.7717 136.4 28.7975 136.788 31.5732C137.177 33.9266 135.568 36.6419 133.681 36.9436C131.739 36.8229 130.74 34.1076 130.851 31.9353C130.796 31.9353 130.796 31.9353 130.74 31.9353H130.685C130.629 31.9353 130.629 31.9353 130.574 31.9353C130.518 31.9353 130.407 31.9353 130.352 31.9353C129.741 35.1334 130.629 38.6935 133.293 39.84C133.792 40.0211 134.236 40.1417 134.735 40.1417C137.787 40.1417 140.506 36.2195 140.395 32.3577C140.451 29.3406 138.786 26.0218 136.234 25.7805Z" fill="white"/>
</mask>
<g mask="url(#mask13_1398_5192)">
<path d="M133.348 39.9003C130.684 38.7538 129.797 35.1937 130.407 31.9956C130.462 31.9956 130.573 31.9956 130.629 31.9956C130.684 31.9956 130.684 31.9956 130.74 31.9956H130.795C130.851 31.9956 130.851 31.9956 130.906 31.9956C130.795 34.2282 131.794 36.8832 133.736 37.0039C135.623 36.7625 137.232 34.0472 136.844 31.6335C136.455 28.8578 135.456 27.832 133.237 28.3147C133.07 28.3751 132.904 28.4958 132.737 28.6165C132.515 28.5561 132.238 28.4958 132.016 28.4958C131.905 28.4958 131.85 28.4958 131.739 28.4354C132.571 26.3838 134.513 25.7201 136.233 25.7804C138.841 26.0218 140.45 29.3405 140.45 32.418C140.561 36.2195 137.842 40.202 134.79 40.202C134.291 40.202 133.792 40.0813 133.348 39.9003Z" fill="white"/>
</g>
<mask id="mask14_1398_5192" style="mask-type:luminance" maskUnits="userSpaceOnUse" x="130" y="25" width="11" height="16">
<path d="M136.234 25.7805C134.513 25.7201 132.571 26.3839 131.739 28.4355C131.794 28.4355 131.794 28.4355 131.85 28.4355C131.905 28.4355 131.961 28.4355 132.016 28.4355C132.016 28.4355 132.016 28.4355 131.961 28.4355H132.016C132.238 28.4958 132.46 28.4958 132.682 28.5562C132.849 28.4355 133.015 28.3148 133.182 28.2545C135.457 27.7717 136.4 28.7975 136.788 31.5732C137.177 33.9266 135.568 36.6419 133.681 36.9436C131.739 36.8229 130.74 34.1076 130.851 31.9353C130.796 31.9353 130.796 31.9353 130.74 31.9353H130.685C130.629 31.9353 130.629 31.9353 130.574 31.9353C130.518 31.9353 130.407 31.9353 130.352 31.9353C129.741 35.1334 130.629 38.6935 133.293 39.84C133.792 40.0211 134.236 40.1417 134.735 40.1417C137.787 40.1417 140.506 36.2195 140.395 32.3577C140.451 29.3406 138.786 26.0218 136.234 25.7805Z" fill="white"/>
</mask>
<g mask="url(#mask14_1398_5192)">
<path d="M132.904 37.6678C130.129 36.9437 130.185 32.9008 131.073 30.6078C130.906 32.1767 131.184 33.8662 131.905 35.1938C132.571 36.0989 133.292 36.0385 134.18 35.4955C136.067 34.4697 136.511 31.5733 135.845 29.582C135.401 28.3148 133.403 27.7718 132.571 28.7372C133.126 27.8321 134.679 27.7114 135.623 28.1941C137.953 29.582 138.064 33.2628 136.955 35.6162C136.289 37.2454 134.458 37.8488 132.904 37.6678Z" fill="#B5B5B5"/>
</g>
<path d="M81.8721 142.726C81.1104 141.59 80.2212 140.539 79.221 139.591C79.132 139.511 79.0198 139.458 78.8996 139.441C78.7795 139.425 78.6573 139.444 78.5495 139.497C77.3288 140.132 76.1862 140.898 75.1428 141.781C72.8182 143.731 71.426 145.936 71.1139 148.157C70.8818 149.808 71.3375 151.486 72.3806 152.823C73.4236 154.16 74.9687 155.046 76.6758 155.286C78.3829 155.526 80.1123 155.1 81.4835 154.103C82.8547 153.105 83.7553 151.617 83.9873 149.966C84.2995 147.745 83.569 145.242 81.8721 142.726ZM76.8348 154.154C75.4388 153.957 74.1756 153.231 73.3225 152.138C72.4694 151.044 72.096 149.672 72.2842 148.321C72.8531 144.273 77.3853 141.465 78.7236 140.715C79.8035 141.804 83.3862 145.752 82.817 149.802C82.6257 151.152 81.8884 152.368 80.7669 153.184C79.6454 154 78.2313 154.349 76.8348 154.154Z" fill="#2E55BC"/>
<path d="M113.026 56.6076L113.263 54.9242C113.284 54.7753 113.363 54.6409 113.483 54.5505C113.603 54.46 113.754 54.421 113.903 54.4419C114.051 54.4628 114.186 54.542 114.276 54.662C114.367 54.782 114.406 54.9331 114.385 55.0819L114.148 56.7654C114.127 56.9142 114.048 57.0486 113.928 57.1391C113.808 57.2295 113.657 57.2686 113.508 57.2476C113.359 57.2267 113.225 57.1475 113.135 57.0275C113.044 56.9075 113.005 56.7565 113.026 56.6076ZM117.209 63.4901C117.084 64.378 116.699 65.2089 116.102 65.8778C115.505 66.5467 114.723 67.0236 113.855 67.2481C112.987 67.4726 112.072 67.4346 111.225 67.139C110.379 66.8434 109.639 66.3035 109.099 65.5874C108.56 64.8713 108.244 64.0113 108.194 63.1162C108.143 62.221 108.359 61.3309 108.814 60.5583C109.269 59.7858 109.943 59.1655 110.75 58.776C111.558 58.3865 112.463 58.2452 113.351 58.3699C114.541 58.5385 115.615 59.1723 116.339 60.1322C117.062 61.0921 117.375 62.2997 117.209 63.4901ZM116.087 63.3323C116.18 62.6664 116.074 61.9877 115.782 61.382C115.49 60.7764 115.025 60.2709 114.445 59.9296C113.866 59.5883 113.198 59.4265 112.527 59.4646C111.856 59.5028 111.211 59.7391 110.673 60.1438C110.136 60.5485 109.731 61.1034 109.51 61.7382C109.288 62.3731 109.26 63.0594 109.428 63.7105C109.596 64.3615 109.954 64.948 110.456 65.3958C110.957 65.8435 111.581 66.1325 112.246 66.2261C113.139 66.3506 114.045 66.1159 114.765 65.5734C115.485 65.0308 115.96 64.2249 116.087 63.3323ZM108.409 58.0802C108.499 58.2003 108.634 58.2796 108.782 58.3005C108.931 58.3214 109.082 58.2823 109.203 58.1918C109.323 58.1013 109.402 57.9668 109.423 57.8179C109.444 57.669 109.405 57.5179 109.314 57.3978L108.35 56.1178C108.259 55.9977 108.125 55.9185 107.976 55.8975C107.827 55.8766 107.676 55.9157 107.556 56.0062C107.435 56.0967 107.356 56.2312 107.335 56.3801C107.314 56.529 107.353 56.6801 107.444 56.8002L108.409 58.0802ZM107.258 66.2646L105.978 67.2292C105.858 67.3197 105.779 67.4542 105.758 67.6031C105.737 67.752 105.776 67.9032 105.867 68.0233C105.957 68.1433 106.092 68.2226 106.241 68.2435C106.389 68.2644 106.541 68.2253 106.661 68.1348L107.941 67.1703C108 67.1255 108.05 67.0694 108.088 67.0052C108.126 66.9411 108.151 66.8701 108.161 66.7964C108.171 66.7226 108.167 66.6476 108.148 66.5755C108.13 66.5034 108.097 66.4357 108.052 66.3762C108.008 66.3168 107.951 66.2667 107.887 66.2289C107.823 66.1911 107.752 66.1664 107.678 66.156C107.605 66.1456 107.53 66.1499 107.458 66.1685C107.385 66.1872 107.318 66.2198 107.258 66.2646ZM117.761 59.562C117.835 59.5724 117.91 59.5682 117.982 59.5496C118.054 59.531 118.122 59.4984 118.181 59.4537L119.461 58.4891C119.581 58.3986 119.66 58.2641 119.681 58.1152C119.702 57.9663 119.663 57.8152 119.573 57.6951C119.482 57.575 119.348 57.4958 119.199 57.4748C119.05 57.4539 118.899 57.493 118.779 57.5835L117.499 58.5481C117.409 58.6155 117.341 58.708 117.304 58.8139C117.267 58.9197 117.263 59.0342 117.291 59.1427C117.319 59.2513 117.379 59.3491 117.462 59.4237C117.546 59.4984 117.65 59.5465 117.761 59.562ZM117.031 67.6381C116.94 67.518 116.806 67.4388 116.657 67.4178C116.508 67.3969 116.357 67.436 116.237 67.5265C116.117 67.617 116.037 67.7515 116.016 67.9004C115.996 68.0493 116.035 68.2004 116.125 68.3205L117.09 69.6005C117.135 69.66 117.191 69.7101 117.255 69.7479C117.319 69.7856 117.39 69.8104 117.464 69.8208C117.537 69.8312 117.612 69.8269 117.684 69.8082C117.757 69.7896 117.824 69.7569 117.884 69.7121C117.943 69.6673 117.993 69.6112 118.031 69.5471C118.069 69.4829 118.094 69.412 118.104 69.3382C118.114 69.2645 118.11 69.1895 118.091 69.1174C118.073 69.0453 118.04 68.9776 117.995 68.9181L117.031 67.6381ZM107.108 62.0705C107.129 61.9217 107.09 61.7706 107 61.6506C106.909 61.5306 106.775 61.4514 106.626 61.4305L104.942 61.1939C104.794 61.173 104.643 61.212 104.523 61.3025C104.402 61.3929 104.323 61.5274 104.302 61.6762C104.281 61.825 104.321 61.9761 104.411 62.0961C104.501 62.2161 104.636 62.2953 104.785 62.3162L106.468 62.5528C106.617 62.5737 106.768 62.5347 106.888 62.4442C107.008 62.3538 107.087 62.2193 107.108 62.0705ZM111.931 68.4707C111.782 68.4498 111.631 68.4888 111.511 68.5793C111.391 68.6697 111.312 68.8041 111.291 68.953L111.054 70.6364C111.033 70.7852 111.073 70.9363 111.163 71.0563C111.253 71.1763 111.388 71.2555 111.537 71.2764C111.686 71.2974 111.837 71.2583 111.957 71.1678C112.077 71.0774 112.156 70.943 112.177 70.7942L112.413 69.1107C112.434 68.9619 112.395 68.8108 112.305 68.6908C112.214 68.5708 112.08 68.4916 111.931 68.4707ZM120.655 63.4021L118.971 63.1655C118.822 63.1446 118.671 63.1837 118.551 63.2741C118.431 63.3646 118.352 63.499 118.331 63.6478C118.31 63.7966 118.349 63.9477 118.44 64.0677C118.53 64.1877 118.665 64.2669 118.813 64.2878L120.497 64.5244C120.646 64.5453 120.797 64.5063 120.917 64.4158C121.037 64.3254 121.116 64.191 121.137 64.0421C121.158 63.8933 121.119 63.7423 121.028 63.6222C120.938 63.5022 120.803 63.423 120.655 63.4021Z" fill="#F68561"/>
<path d="M106.026 98.6076L106.263 96.9242C106.284 96.7753 106.363 96.6409 106.483 96.5505C106.603 96.46 106.754 96.421 106.903 96.4419C107.051 96.4628 107.186 96.542 107.276 96.662C107.367 96.782 107.406 96.9331 107.385 97.0819L107.148 98.7654C107.127 98.9142 107.048 99.0486 106.928 99.1391C106.808 99.2295 106.657 99.2686 106.508 99.2476C106.359 99.2267 106.225 99.1475 106.135 99.0275C106.044 98.9075 106.005 98.7565 106.026 98.6076ZM110.209 105.49C110.084 106.378 109.699 107.209 109.102 107.878C108.505 108.547 107.723 109.024 106.855 109.248C105.987 109.473 105.072 109.435 104.225 109.139C103.379 108.843 102.639 108.303 102.099 107.587C101.56 106.871 101.244 106.011 101.194 105.116C101.143 104.221 101.359 103.331 101.814 102.558C102.269 101.786 102.943 101.166 103.75 100.776C104.558 100.386 105.463 100.245 106.351 100.37C107.541 100.539 108.615 101.172 109.339 102.132C110.062 103.092 110.375 104.3 110.209 105.49ZM109.087 105.332C109.18 104.666 109.074 103.988 108.782 103.382C108.49 102.776 108.025 102.271 107.445 101.93C106.866 101.588 106.198 101.427 105.527 101.465C104.856 101.503 104.211 101.739 103.673 102.144C103.136 102.548 102.731 103.103 102.51 103.738C102.288 104.373 102.26 105.059 102.428 105.71C102.596 106.361 102.954 106.948 103.456 107.396C103.957 107.844 104.581 108.132 105.246 108.226C106.139 108.351 107.045 108.116 107.765 107.573C108.485 107.031 108.96 106.225 109.087 105.332ZM101.409 100.08C101.499 100.2 101.634 100.28 101.782 100.3C101.931 100.321 102.082 100.282 102.203 100.192C102.323 100.101 102.402 99.9668 102.423 99.8179C102.444 99.669 102.405 99.5179 102.314 99.3978L101.35 98.1178C101.259 97.9977 101.125 97.9185 100.976 97.8975C100.827 97.8766 100.676 97.9157 100.556 98.0062C100.435 98.0967 100.356 98.2312 100.335 98.3801C100.314 98.529 100.353 98.6801 100.444 98.8002L101.409 100.08ZM100.258 108.265L98.9783 109.229C98.8582 109.32 98.779 109.454 98.758 109.603C98.7371 109.752 98.7762 109.903 98.8667 110.023C98.9572 110.143 99.0917 110.223 99.2406 110.243C99.3895 110.264 99.5406 110.225 99.6607 110.135L100.941 109.17C101 109.125 101.05 109.069 101.088 109.005C101.126 108.941 101.151 108.87 101.161 108.796C101.171 108.723 101.167 108.648 101.148 108.575C101.13 108.503 101.097 108.436 101.052 108.376C101.008 108.317 100.951 108.267 100.887 108.229C100.823 108.191 100.752 108.166 100.678 108.156C100.605 108.146 100.53 108.15 100.458 108.169C100.385 108.187 100.318 108.22 100.258 108.265ZM110.761 101.562C110.835 101.572 110.91 101.568 110.982 101.55C111.054 101.531 111.122 101.498 111.181 101.454L112.461 100.489C112.581 100.399 112.66 100.264 112.681 100.115C112.702 99.9663 112.663 99.8152 112.573 99.6951C112.482 99.575 112.348 99.4958 112.199 99.4748C112.05 99.4539 111.899 99.493 111.779 99.5835L110.499 100.548C110.409 100.615 110.341 100.708 110.304 100.814C110.267 100.92 110.263 101.034 110.291 101.143C110.319 101.251 110.379 101.349 110.462 101.424C110.546 101.498 110.65 101.546 110.761 101.562ZM110.031 109.638C109.94 109.518 109.806 109.439 109.657 109.418C109.508 109.397 109.357 109.436 109.237 109.526C109.117 109.617 109.037 109.751 109.016 109.9C108.996 110.049 109.035 110.2 109.125 110.321L110.09 111.601C110.135 111.66 110.191 111.71 110.255 111.748C110.319 111.786 110.39 111.81 110.464 111.821C110.537 111.831 110.612 111.827 110.684 111.808C110.757 111.79 110.824 111.757 110.884 111.712C110.943 111.667 110.993 111.611 111.031 111.547C111.069 111.483 111.094 111.412 111.104 111.338C111.114 111.265 111.11 111.189 111.091 111.117C111.073 111.045 111.04 110.978 110.995 110.918L110.031 109.638ZM100.108 104.071C100.129 103.922 100.09 103.771 99.9995 103.651C99.9091 103.531 99.7747 103.451 99.6259 103.43L97.9424 103.194C97.7936 103.173 97.6425 103.212 97.5225 103.302C97.4025 103.393 97.3233 103.527 97.3024 103.676C97.2815 103.825 97.3205 103.976 97.411 104.096C97.5014 104.216 97.6358 104.295 97.7847 104.316L99.4681 104.553C99.6169 104.574 99.768 104.535 99.888 104.444C100.008 104.354 100.087 104.219 100.108 104.071ZM104.931 110.471C104.782 110.45 104.631 110.489 104.511 110.579C104.391 110.67 104.312 110.804 104.291 110.953L104.054 112.636C104.033 112.785 104.073 112.936 104.163 113.056C104.253 113.176 104.388 113.256 104.537 113.276C104.686 113.297 104.837 113.258 104.957 113.168C105.077 113.077 105.156 112.943 105.177 112.794L105.413 111.111C105.434 110.962 105.395 110.811 105.305 110.691C105.214 110.571 105.08 110.492 104.931 110.471ZM113.655 105.402L111.971 105.166C111.822 105.145 111.671 105.184 111.551 105.274C111.431 105.365 111.352 105.499 111.331 105.648C111.31 105.797 111.349 105.948 111.44 106.068C111.53 106.188 111.665 106.267 111.813 106.288L113.497 106.524C113.646 106.545 113.797 106.506 113.917 106.416C114.037 106.325 114.116 106.191 114.137 106.042C114.158 105.893 114.119 105.742 114.028 105.622C113.938 105.502 113.803 105.423 113.655 105.402Z" fill="#F68561"/>
<path d="M99.026 144.608L99.2626 142.924C99.2835 142.775 99.3627 142.641 99.4827 142.55C99.6028 142.46 99.7538 142.421 99.9026 142.442C100.051 142.463 100.186 142.542 100.276 142.662C100.367 142.782 100.406 142.933 100.385 143.082L100.148 144.765C100.127 144.914 100.048 145.049 99.9282 145.139C99.8082 145.229 99.6571 145.269 99.5083 145.248C99.3595 145.227 99.2251 145.148 99.1346 145.028C99.0442 144.907 99.0051 144.756 99.026 144.608ZM103.209 151.49C103.084 152.378 102.699 153.209 102.102 153.878C101.505 154.547 100.723 155.024 99.8547 155.248C98.9867 155.473 98.0715 155.435 97.2251 155.139C96.3786 154.843 95.6388 154.303 95.0992 153.587C94.5596 152.871 94.2444 152.011 94.1936 151.116C94.1428 150.221 94.3585 149.331 94.8136 148.558C95.2687 147.786 95.9426 147.166 96.7502 146.776C97.5577 146.386 98.4627 146.245 99.3506 146.37C100.541 146.539 101.615 147.172 102.339 148.132C103.062 149.092 103.375 150.3 103.209 151.49ZM102.087 151.332C102.18 150.666 102.074 149.988 101.782 149.382C101.49 148.776 101.025 148.271 100.445 147.93C99.8659 147.588 99.1983 147.427 98.5269 147.465C97.8555 147.503 97.2105 147.739 96.6735 148.144C96.1364 148.548 95.7315 149.103 95.5098 149.738C95.2881 150.373 95.2596 151.059 95.428 151.71C95.5963 152.361 95.954 152.948 96.4557 153.396C96.9574 153.844 97.5806 154.132 98.2465 154.226C99.1393 154.351 100.045 154.116 100.765 153.573C101.485 153.031 101.96 152.225 102.087 151.332ZM94.4085 146.08C94.499 146.2 94.6335 146.28 94.7825 146.3C94.9314 146.321 95.0825 146.282 95.2026 146.192C95.3227 146.101 95.4019 145.967 95.4228 145.818C95.4438 145.669 95.4047 145.518 95.3142 145.398L94.3496 144.118C94.2591 143.998 94.1246 143.918 93.9757 143.898C93.8268 143.877 93.6757 143.916 93.5556 144.006C93.4355 144.097 93.3563 144.231 93.3353 144.38C93.3144 144.529 93.3535 144.68 93.444 144.8L94.4085 146.08ZM93.2583 154.265L91.9783 155.229C91.8582 155.32 91.779 155.454 91.758 155.603C91.7371 155.752 91.7762 155.903 91.8667 156.023C91.9572 156.143 92.0917 156.223 92.2406 156.243C92.3895 156.264 92.5406 156.225 92.6607 156.135L93.9407 155.17C94.0002 155.125 94.0503 155.069 94.0881 155.005C94.1258 154.941 94.1506 154.87 94.161 154.796C94.1714 154.723 94.1671 154.648 94.1484 154.575C94.1298 154.503 94.0971 154.436 94.0523 154.376C94.0075 154.317 93.9514 154.267 93.8873 154.229C93.8231 154.191 93.7522 154.166 93.6784 154.156C93.6047 154.146 93.5296 154.15 93.4576 154.169C93.3855 154.187 93.3178 154.22 93.2583 154.265ZM103.761 147.562C103.835 147.572 103.91 147.568 103.982 147.55C104.054 147.531 104.122 147.498 104.181 147.454L105.461 146.489C105.581 146.399 105.66 146.264 105.681 146.115C105.702 145.966 105.663 145.815 105.573 145.695C105.482 145.575 105.348 145.496 105.199 145.475C105.05 145.454 104.899 145.493 104.779 145.583L103.499 146.548C103.409 146.615 103.341 146.708 103.304 146.814C103.267 146.92 103.263 147.034 103.291 147.143C103.319 147.251 103.379 147.349 103.462 147.424C103.546 147.498 103.65 147.546 103.761 147.562ZM103.031 155.638C102.94 155.518 102.806 155.439 102.657 155.418C102.508 155.397 102.357 155.436 102.237 155.526C102.117 155.617 102.037 155.751 102.016 155.9C101.996 156.049 102.035 156.2 102.125 156.321L103.09 157.601C103.135 157.66 103.191 157.71 103.255 157.748C103.319 157.786 103.39 157.81 103.464 157.821C103.537 157.831 103.612 157.827 103.684 157.808C103.757 157.79 103.824 157.757 103.884 157.712C103.943 157.667 103.993 157.611 104.031 157.547C104.069 157.483 104.094 157.412 104.104 157.338C104.114 157.265 104.11 157.189 104.091 157.117C104.073 157.045 104.04 156.978 103.995 156.918L103.031 155.638ZM93.1081 150.071C93.1291 149.922 93.09 149.771 92.9995 149.651C92.9091 149.531 92.7747 149.451 92.6259 149.43L90.9424 149.194C90.7936 149.173 90.6425 149.212 90.5225 149.302C90.4025 149.393 90.3233 149.527 90.3024 149.676C90.2815 149.825 90.3205 149.976 90.411 150.096C90.5014 150.216 90.6358 150.295 90.7847 150.316L92.4681 150.553C92.6169 150.574 92.768 150.535 92.888 150.444C93.008 150.354 93.0872 150.219 93.1081 150.071ZM97.931 156.471C97.7822 156.45 97.6311 156.489 97.5111 156.579C97.3911 156.67 97.3119 156.804 97.291 156.953L97.0544 158.636C97.0335 158.785 97.0725 158.936 97.163 159.056C97.2534 159.176 97.3879 159.256 97.5367 159.276C97.6855 159.297 97.8366 159.258 97.9566 159.168C98.0766 159.077 98.1558 158.943 98.1767 158.794L98.4133 157.111C98.4342 156.962 98.3952 156.811 98.3047 156.691C98.2143 156.571 98.0798 156.492 97.931 156.471ZM106.655 151.402L104.971 151.166C104.822 151.145 104.671 151.184 104.551 151.274C104.431 151.365 104.352 151.499 104.331 151.648C104.31 151.797 104.349 151.948 104.44 152.068C104.53 152.188 104.665 152.267 104.813 152.288L106.497 152.524C106.646 152.545 106.797 152.506 106.917 152.416C107.037 152.325 107.116 152.191 107.137 152.042C107.158 151.893 107.119 151.742 107.028 151.622C106.938 151.502 106.803 151.423 106.655 151.402Z" fill="#F68561"/>
<line x1="35.3324" y1="67.9568" x2="123.91" y2="83.5755" stroke="#1E4E4E"/>
<line x1="28.1156" y1="113.343" x2="115.058" y2="128.673" stroke="#1E4E4E"/>
<line x1="21.0605" y1="155.656" x2="110.113" y2="171.358" stroke="#1E4E4E"/>
<path d="M95.8721 54.7263C95.1104 53.5902 94.2212 52.5387 93.221 51.591C93.132 51.5106 93.0198 51.4583 92.8996 51.4414C92.7795 51.4246 92.6573 51.4438 92.5495 51.4967C91.3288 52.1325 90.1862 52.8985 89.1428 53.7805C86.8182 55.731 85.426 57.9359 85.1139 60.1569C84.8818 61.8078 85.3375 63.4863 86.3806 64.8233C87.4236 66.1603 88.9687 67.0462 90.6758 67.2861C92.3829 67.5261 94.1123 67.1004 95.4835 66.1027C96.8547 65.105 97.7553 63.617 97.9873 61.9662C98.2995 59.7451 97.569 57.2419 95.8721 54.7263ZM90.8348 66.1544C89.4388 65.9567 88.1756 65.2315 87.3225 64.138C86.4694 63.0444 86.096 61.6719 86.2842 60.3214C86.8531 56.2733 91.3853 53.4645 92.7236 52.7149C93.8035 53.8044 97.3862 57.7522 96.817 61.8017C96.6257 63.1517 95.8884 64.3682 94.7669 65.1842C93.6454 66.0002 92.2313 66.3491 90.8348 66.1544Z" fill="#2E55BC"/>
<path d="M88.8721 96.7263C88.1104 95.5902 87.2212 94.5387 86.221 93.591C86.132 93.5106 86.0198 93.4583 85.8996 93.4414C85.7795 93.4246 85.6573 93.4438 85.5495 93.4967C84.3288 94.1325 83.1862 94.8985 82.1428 95.7805C79.8182 97.731 78.426 99.9359 78.1139 102.157C77.8818 103.808 78.3375 105.486 79.3806 106.823C80.4236 108.16 81.9687 109.046 83.6758 109.286C85.3829 109.526 87.1123 109.1 88.4835 108.103C89.8547 107.105 90.7553 105.617 90.9873 103.966C91.2995 101.745 90.569 99.2419 88.8721 96.7263ZM83.8348 108.154C82.4388 107.957 81.1756 107.231 80.3225 106.138C79.4694 105.044 79.096 103.672 79.2842 102.321C79.8531 98.2733 84.3853 95.4645 85.7236 94.7149C86.8035 95.8044 90.3862 99.7522 89.817 103.802C89.6257 105.152 88.8884 106.368 87.7669 107.184C86.6454 108 85.2313 108.349 83.8348 108.154Z" fill="#2E55BC"/>
<g clip-path="url(#clip0_1398_5192)">
<path d="M54.9867 82.6119C54.8633 82.4482 50.6127 81.9038 50.6127 81.9038L39.3731 91.3363C39.3731 91.3363 38.5872 94.4674 38.7119 95.8432C38.7823 96.618 38.9516 98.0177 39.8158 99.7725C40.4068 100.974 40.9243 101.531 40.9243 101.531L46.3748 104.855L55.5383 107.195L62.1365 104.328C62.1365 104.328 62.7978 102.694 62.8208 101.435C62.8441 100.174 62.733 99.204 62.8775 98.3912C63.022 97.5784 63.9683 94.3663 63.531 91.909C63.1442 89.7391 61.5478 86.5837 59.248 84.7508C56.9482 82.9179 54.9867 82.6119 54.9867 82.6119Z" fill="#F68561"/>
<path d="M54.9529 109.759C56.1159 110.107 57.8043 110.361 59.7877 109.254C61.5575 108.266 62.4685 107.137 62.7045 106.105C62.9839 104.887 62.9763 103.752 62.9715 103.047C62.9706 102.915 62.9699 102.798 62.9711 102.698C62.9813 102.069 62.8215 100.673 62.8215 100.673C62.8215 100.673 61.5198 102.732 60.1344 103.59C58.749 104.448 55.5635 105.396 52.5809 105.081L52.4757 105.07C49.5508 104.763 47.5754 104.555 45.58 103.753C43.5608 102.942 40.2664 100.606 40.2664 100.606C40.2664 100.606 41.2532 102.638 43.4961 104.354C45.1898 105.65 46.2592 106.07 46.9807 106.344C47.5321 106.554 48.0257 106.69 48.5066 106.822C49.0036 106.958 49.4872 107.091 50.0071 107.299C50.6147 107.54 51.4671 108.006 52.3205 108.472C53.3312 109.023 54.3436 109.576 54.9529 109.759Z" fill="#8990A5"/>
<path d="M40.3982 89.7537C40.3194 89.7931 37.6642 92.8962 37.5956 93.2047C37.5267 93.5156 37.4037 94.0134 37.7213 94.2322C37.9469 94.3876 38.1706 94.1969 38.3595 94.0745C38.5484 93.9521 38.9178 93.7843 39.3315 93.643C39.7452 93.5017 40.4271 93.4638 40.9389 93.253C41.6973 92.9405 42.4653 92.0386 42.4653 92.0386L43.8344 94.7455L43.0093 96.1796C43.0093 96.1796 43.3673 96.7575 43.4449 96.8341C43.5846 96.9724 44.6132 96.4075 45.2692 95.2425C45.9252 94.0774 46.2675 92.5224 46.2675 92.5224C46.2675 92.5224 47.1405 93.3343 48.0562 93.6625C48.9723 93.9881 50.9169 94.163 51.0612 94.0343C51.1882 93.9209 51.5115 92.088 51.5304 91.2525C51.5494 90.4171 51.2491 89.2666 51.2491 89.2666C51.2491 89.2666 52.2075 89.5603 53.4128 89.4091C54.6181 89.2579 55.582 88.7041 55.6691 88.4437C55.7562 88.1833 55.1386 87.4048 55.1386 87.4048L52.414 85.9893L52.1889 85.0766C52.1889 85.0766 53.715 84.8518 54.6073 84.0532C55.2516 83.4747 56.3588 82.7821 56.4134 82.3934C56.468 82.0047 55.8316 82.0062 55.8316 82.0062L50.215 83.3854L40.3982 89.7537Z" fill="#1E4E4E"/>
<path d="M43.9047 83.5765C45.6686 82.3602 47.4112 81.4034 50.0466 81.0997C52.6718 80.7971 54.3939 81.3698 54.7944 81.5019C55.1952 81.6314 56.4014 82.0307 56.2864 82.1483C56.2363 82.1993 55.2725 82.5006 54.2949 82.954C53.3173 83.4073 52.9146 83.5426 52.6715 83.6372C52.3084 83.778 51.7866 83.9698 51.764 84.2746C51.7359 84.6897 52.287 84.7924 52.8469 85.1917C53.4068 85.591 54.089 86.1792 54.5779 86.7427C55.0667 87.3063 55.3193 87.5387 55.3693 87.7401C55.4242 87.9599 53.4672 88.682 52.2378 88.484C51.0084 88.286 50.507 87.65 50.154 88.0422C49.8031 88.4372 50.5688 89.6531 50.6413 90.8978C50.7138 92.1425 50.544 93.3506 50.544 93.3506C50.544 93.3506 48.6727 93.229 47.8596 92.7992C46.6352 92.1525 46.6138 91.1371 45.8951 91.1674C44.9226 91.2074 45.5399 92.9579 44.6002 94.8126C43.7611 96.472 43.2372 96.5347 43.2372 96.5347C43.2372 96.5347 42.5364 95.5754 42.309 95.0738C42.0816 94.5723 41.7808 94.2877 41.8482 93.2873C41.9155 92.2869 42.2136 91.0463 41.7353 90.9286C41.2571 90.8109 40.9952 91.8117 40.3669 92.241C39.7385 92.6702 38.8567 92.8189 38.4242 93.0762C37.9938 93.3364 37.5141 93.8395 37.5141 93.8395C37.5141 93.8395 37.4717 92.1294 38.5378 89.987C39.6038 87.8445 41.2014 85.4409 43.9047 83.5765Z" fill="#89E159"/>
<path d="M41.6507 78.3798C41.7449 78.1582 42.8922 77.6656 43.3962 77.7617C43.9002 77.8578 43.7785 77.9871 43.8232 78.1903C43.8679 78.3935 43.2482 80.1796 43.6779 81.3256C44.0657 82.3571 44.4678 82.8907 45.5111 83.0121C46.5543 83.1335 43.7749 85.8986 43.7749 85.8986C43.7749 85.8986 41.9234 84.5048 41.415 82.338C40.9066 80.1712 41.5033 78.7277 41.6507 78.3798Z" fill="#89E159"/>
<path d="M59.5462 100.609C59.0851 100.567 58.5765 101.132 58.6977 102.012C58.7973 102.741 59.2633 103.071 59.6363 103.076C60.009 103.083 60.4225 102.565 60.3977 101.754C60.3758 101.137 60.1594 100.665 59.5462 100.609ZM59.9152 93.5645C59.2663 93.6374 59.2126 94.468 59.2883 94.9356C59.3615 95.4028 59.7006 95.756 60.1231 95.732C60.5455 95.7081 60.8821 95.0914 60.8431 94.5785C60.8094 94.0638 60.5154 93.4974 59.9152 93.5645ZM57.4261 87.2946C56.9149 87.6266 57.0207 88.2929 57.3566 88.7768C57.6929 89.2583 58.1954 89.4375 58.5682 89.2273C58.9411 89.0172 58.9588 88.1007 58.616 87.6663C58.2734 87.2293 57.818 87.0391 57.4261 87.2946ZM54.4846 92.1651C54.0776 92.4386 54.0478 93.1539 54.3849 93.7011C54.722 94.2484 55.2995 94.6123 55.6663 94.2473C56.0332 93.8823 55.9178 93.0507 55.6534 92.5793C55.3864 92.1075 54.8306 91.9309 54.4846 92.1651Z" fill="#DBE2F9"/>
<path d="M53.7296 98.2922C53.3369 98.6612 53.5141 99.3046 53.7696 99.7141C54.0645 100.185 54.8368 100.563 55.2561 100.256C55.7429 99.9006 55.6514 99.1505 55.1671 98.5725C54.8016 98.1374 54.1258 97.9162 53.7296 98.2922ZM53.3778 104.496C53.1615 104.993 53.3115 105.507 54.2498 105.8C55.0674 106.054 55.5514 105.718 55.5964 105.29C55.6272 104.999 55.3714 104.466 54.5983 104.218C53.9777 104.017 53.561 104.073 53.3778 104.496ZM47.2034 101.563C46.8108 102.003 47.1151 102.73 47.4706 103.093C47.8767 103.508 48.65 103.539 48.9082 103.138C49.1661 102.74 49.0049 102.127 48.579 101.726C48.1535 101.323 47.5359 101.191 47.2034 101.563ZM42.4269 97.8625C41.7575 98.2784 42.085 99.0919 42.4238 99.4298C42.8047 99.809 43.3074 100.112 43.8356 99.7671C44.3637 99.4222 44.0282 98.5041 43.7747 98.2059C43.5237 97.9081 42.9385 97.5456 42.4269 97.8625Z" fill="#DBE2F9"/>
<path d="M48.6554 96.3142C48.2714 96.7475 48.4694 97.5302 48.8289 97.8458C49.1885 98.1614 49.7721 98.4277 50.2046 98.0088C50.6375 97.5875 50.5102 96.9485 50.131 96.5393C49.7545 96.1279 49.0627 95.859 48.6554 96.3142Z" fill="#DBE2F9"/>
</g>
<path d="M67.4031 45.4654C65.3409 43.8308 62.0477 40.8728 56.5084 43.3218C55.9005 42.2118 53.9193 41.1159 51.802 42.0479C49.1553 43.2128 47.4998 44.782 46.5918 45.807C45.6837 46.8321 37.8358 58.2556 48.2488 62.9849C56.5792 66.7683 63.3964 66.1783 65.4723 64.9972C68.1549 64.0294 71.955 62.3226 72.6145 57.6305C73.2739 52.9385 71.8168 45.3173 67.4031 45.4654Z" fill="#F68561"/>
<path d="M67.4031 45.4654C65.3409 43.8308 62.0477 40.8728 56.5084 43.3218C55.9005 42.2118 53.9193 41.1159 51.802 42.0479C49.1553 43.2128 47.4998 44.782 46.5918 45.807C45.6837 46.8321 37.8358 58.2556 48.2488 62.9849C56.5792 66.7683 63.3964 66.1783 65.4723 64.9972C68.1549 64.0294 71.955 62.3226 72.6145 57.6305C73.2739 52.9385 71.8168 45.3173 67.4031 45.4654Z" stroke="#F68561" stroke-width="0.396895"/>
<path d="M58.6471 44.8342C58.1021 46.744 58.8032 46.8722 59.4725 46.9449C61.103 46.8405 61.1584 46.061 60.9643 45.2904L60.3586 42.4098L59.8316 39.9681C59.5966 40.711 59.2128 42.8517 58.6471 44.8342Z" fill="url(#paint0_linear_1398_5192)" stroke="url(#paint1_linear_1398_5192)" stroke-width="0.396895"/>
<path d="M57.9994 45.6966C58.6602 46.9091 58.951 47.304 59.5867 47.0976C61.0222 46.3337 60.7744 45.6032 60.2883 44.9689L58.5634 42.5722L57.0889 40.5463C57.1751 41.3305 57.0086 43.8786 57.9994 45.6966Z" fill="#1E4E4E" stroke="#1E4E4E" stroke-width="0.396895"/>
<path d="M59.3337 46.7276C58.1735 45.6586 59.93 42.8863 66.3052 41.6917C64.8771 43.9996 60.107 47.6028 59.3337 46.7276Z" fill="url(#paint2_linear_1398_5192)" stroke="url(#paint3_linear_1398_5192)" stroke-width="0.396895"/>
<path d="M57.6463 43.7721C59.506 43.7694 59.8835 45.7218 59.6601 46.5356C57.6324 46.9041 58.6049 46.2084 57.7187 45.5929C56.8304 44.976 56.2323 45.8535 56.0636 46.2841L55.1511 47.8343L55.022 46.8166L55.0645 46.2143C55.1917 45.5872 55.7866 43.7748 57.6463 43.7721Z" fill="#1F2431"/>
<path d="M57.6463 43.7721C59.506 43.7694 59.8835 45.7218 59.6601 46.5356C57.6324 46.9041 58.6049 46.2084 57.7187 45.5929C56.8304 44.976 56.2323 45.8535 56.0636 46.2841L55.1511 47.8343L55.022 46.8166L55.0645 46.2143C55.1917 45.5872 55.7866 43.7748 57.6463 43.7721Z" fill="url(#paint4_linear_1398_5192)"/>
<path d="M57.6463 43.7721C59.506 43.7694 59.8835 45.7218 59.6601 46.5356C57.6324 46.9041 58.6049 46.2084 57.7187 45.5929C56.8304 44.976 56.2323 45.8535 56.0636 46.2841L55.1511 47.8343L55.022 46.8166L55.0645 46.2143C55.1917 45.5872 55.7866 43.7748 57.6463 43.7721Z" stroke="#1F2431" stroke-width="0.396895"/>
<path d="M57.6463 43.7721C59.506 43.7694 59.8835 45.7218 59.6601 46.5356C57.6324 46.9041 58.6049 46.2084 57.7187 45.5929C56.8304 44.976 56.2323 45.8535 56.0636 46.2841L55.1511 47.8343L55.022 46.8166L55.0645 46.2143C55.1917 45.5872 55.7866 43.7748 57.6463 43.7721Z" stroke="url(#paint5_linear_1398_5192)" stroke-width="0.396895"/>
<path d="M61.6475 44.5031C59.9391 44.1357 59.055 45.984 59.0996 46.7856C60.0267 47.1761 61.3355 46.5815 61.0545 45.8416C60.7738 45.1022 62.8862 46.2842 62.9562 46.7182L63.2414 47.5708L63.5799 46.6028L63.6638 46.0052C63.6708 45.3964 63.3559 44.8704 61.6475 44.5031Z" fill="#1F2431"/>
<path d="M61.6475 44.5031C59.9391 44.1357 59.055 45.984 59.0996 46.7856C60.0267 47.1761 61.3355 46.5815 61.0545 45.8416C60.7738 45.1022 62.8862 46.2842 62.9562 46.7182L63.2414 47.5708L63.5799 46.6028L63.6638 46.0052C63.6708 45.3964 63.3559 44.8704 61.6475 44.5031Z" fill="url(#paint6_linear_1398_5192)"/>
<path d="M61.6475 44.5031C59.9391 44.1357 59.055 45.984 59.0996 46.7856C60.0267 47.1761 61.3355 46.5815 61.0545 45.8416C60.7738 45.1022 62.8862 46.2842 62.9562 46.7182L63.2414 47.5708L63.5799 46.6028L63.6638 46.0052C63.6708 45.3964 63.3559 44.8704 61.6475 44.5031Z" stroke="#1F2431" stroke-width="0.396895"/>
<path d="M61.6475 44.5031C59.9391 44.1357 59.055 45.984 59.0996 46.7856C60.0267 47.1761 61.3355 46.5815 61.0545 45.8416C60.7738 45.1022 62.8862 46.2842 62.9562 46.7182L63.2414 47.5708L63.5799 46.6028L63.6638 46.0052C63.6708 45.3964 63.3559 44.8704 61.6475 44.5031Z" stroke="url(#paint7_linear_1398_5192)" stroke-width="0.396895"/>
<path d="M48.356 50.726C47.4514 53.2101 46.5021 54.659 45.7298 54.3779C44.9574 54.0968 44.9145 52.2535 45.8191 49.7694C46.7237 47.2853 48.8848 45.1552 49.9334 46.1146C50.982 47.074 49.2606 48.2419 48.356 50.726Z" fill="#D9D9D9"/>
<path d="M67.4579 59.0223C69.6632 57.6454 71.0425 52.6313 71.5074 53.3753C72.1102 54.34 73.2066 57.1339 69.2457 61.5046C63.5734 67.4684 52.3696 63.8283 51.5278 62.4811C50.686 61.1339 60.3632 64.3552 67.4579 59.0223Z" fill="#8990A5"/>
<g clip-path="url(#clip1_1398_5192)">
<path d="M50.5071 128.901C50.5071 128.901 52.7557 128.548 54.2577 130.794C56.0035 133.407 54.4778 136.808 53.1676 139.305C51.8573 141.802 51.294 142.684 50.5101 144.849C49.9216 146.468 49.1104 149.383 45.9866 149.929C43.8025 150.308 41.8651 148.484 41.8651 148.484C41.8651 148.484 40.8425 149.347 38.8586 149.308C36.7114 149.264 34.5631 148.293 34.0421 146.342C33.769 145.321 33.8067 142.178 33.8029 140.176C33.7984 137.55 32.8815 134.57 32.8662 132.309C32.8547 130.378 33.9349 126.069 39.8211 126.778C41.879 127.027 44.0718 128.165 44.0718 128.165C44.0718 128.165 46.0123 127.471 47.4129 127.512C50.1085 127.588 50.5071 128.901 50.5071 128.901Z" fill="#F68561"/>
<path d="M36.8981 126.885C37.7023 126.659 38.6515 126.48 40.2873 126.606C42.6049 126.785 44.07 128.163 44.07 128.163C44.07 128.163 46.0105 127.469 47.411 127.509C50.1092 127.585 50.7602 128.881 50.7602 128.881C50.7602 128.881 50.3165 128.894 49.5822 129.054C48.986 129.182 49.1255 129.717 49.5868 129.829C50.4924 130.05 51.1576 130.759 51.2033 131.099C51.2033 131.099 49.8239 130.262 48.2261 130.529C46.1006 130.887 45.3388 132.32 45.3388 132.32C45.3388 132.32 44.3804 130.822 41.7442 129.82C39.2375 128.867 37.2188 129.722 37.2188 129.722C37.4617 129.09 37.8815 128.815 38.2595 128.55C38.9401 128.073 38.8113 127.552 38.2217 127.293C37.7318 127.078 36.8981 126.885 36.8981 126.885Z" fill="#1E4E4E"/>
<path d="M52.0819 121.185C52.9515 122.182 50.575 124.415 50.1581 124.382C49.3147 124.311 48.8359 123.209 47.0658 124.487C46.3464 125.007 45.9771 125.839 45.8758 126.703C45.8432 126.989 45.6243 128.044 46.091 128.352C46.2365 128.448 46.3325 128.52 46.8438 128.402C47.4152 128.27 47.8256 128.853 47.8256 128.853L46.7455 129.784L44.3355 130.208L42.088 129.423L40.9164 128.059C40.9164 128.059 41.6056 127.663 42.1182 127.932C42.3957 128.077 42.9842 127.986 43.0346 127.645C43.1458 126.926 43.2125 126.236 43.447 125.536C43.8365 124.382 44.5009 123.319 45.4371 122.532C46.7798 121.403 49.1286 119.473 50.8528 119.437C52.2677 119.411 52.2684 120.02 52.0819 121.185Z" fill="#3D8E53"/>
<path d="M46.3588 121.898C47.535 121.235 48.9072 120.956 50.2616 120.929C50.7173 120.92 51.0506 120.992 51.2888 121.129C50.7721 121.069 49.7389 121.181 47.9711 122.066C46.8579 122.622 44.5002 124.848 45.8045 127.675C45.8188 127.896 45.8705 128.103 45.9868 128.245C45.5995 128.002 44.8818 127.252 44.9366 125.533C44.9954 123.713 45.5875 122.59 46.3588 121.898Z" fill="#89E159"/>
<path opacity="0.6" d="M45.2188 138.348C45.1068 139.289 44.6614 141.362 43.6579 144.263C42.8033 146.733 43.0491 148.648 43.5943 149.566C42.5655 149.126 41.8675 148.487 41.8675 148.487C41.8675 148.487 41.7361 147.429 41.8652 146.384C42.019 145.128 42.8949 142.686 43.7868 140.777C44.4145 139.436 44.8404 137.34 45.0272 136.155C45.0275 136.152 45.4225 136.647 45.2188 138.348Z" fill="#8990A5"/>
<path opacity="0.75" d="M47.1048 135.311C47.363 135.377 47.624 135.245 47.8447 135.112C48.6507 134.622 49.1313 134.184 50.0125 133.806C50.6949 133.513 51.9714 133.43 51.6923 132.398C51.5575 131.902 50.7959 131.735 50.261 131.75C48.3983 131.802 47.4384 132.757 46.8668 134.04C46.7672 134.264 46.6451 134.486 46.6633 134.734C46.6794 134.978 46.8402 135.236 47.0924 135.309L47.1048 135.311ZM41.782 131.869C40.684 130.988 38.9143 130.754 37.3273 131.303C36.9345 131.44 36.5485 131.636 36.2858 131.96C36.0874 132.205 35.9889 132.6 36.2185 132.816C36.4105 132.995 36.7152 132.947 36.9739 132.902C38.5254 132.641 40.1813 133.055 41.4241 134.02C41.8931 134.384 42.8353 135.62 43.2636 134.907C43.6904 134.187 43.1478 132.965 41.782 131.869Z" fill="#DBE2F9"/>
</g>
<defs>
<filter id="filter0_f_1398_5192" x="0.280273" y="0.798767" width="165.789" height="208.486" filterUnits="userSpaceOnUse" color-interpolation-filters="sRGB">
<feFlood flood-opacity="0" result="BackgroundImageFix"/>
<feBlend mode="normal" in="SourceGraphic" in2="BackgroundImageFix" result="shape"/>
<feGaussianBlur stdDeviation="10" result="effect1_foregroundBlur_1398_5192"/>
</filter>
<linearGradient id="paint0_linear_1398_5192" x1="60.0787" y1="40.039" x2="62.6009" y2="40.8528" gradientUnits="userSpaceOnUse">
<stop stop-color="#89E159"/>
<stop offset="1" stop-color="#B9F598"/>
</linearGradient>
<linearGradient id="paint1_linear_1398_5192" x1="60.0787" y1="40.039" x2="62.6009" y2="40.8528" gradientUnits="userSpaceOnUse">
<stop stop-color="#89E159"/>
<stop offset="1" stop-color="#B9F598"/>
</linearGradient>
<linearGradient id="paint2_linear_1398_5192" x1="60.3221" y1="40.8508" x2="66.3817" y2="42.274" gradientUnits="userSpaceOnUse">
<stop stop-color="#89E159"/>
<stop offset="1" stop-color="#B9F598"/>
</linearGradient>
<linearGradient id="paint3_linear_1398_5192" x1="60.3221" y1="40.8508" x2="66.3817" y2="42.274" gradientUnits="userSpaceOnUse">
<stop stop-color="#89E159"/>
<stop offset="1" stop-color="#B9F598"/>
</linearGradient>
<linearGradient id="paint4_linear_1398_5192" x1="58.3725" y1="48.0596" x2="55.4893" y2="45.7858" gradientUnits="userSpaceOnUse">
<stop stop-color="#1E4E4E"/>
<stop offset="1" stop-color="#1F2431"/>
</linearGradient>
<linearGradient id="paint5_linear_1398_5192" x1="58.3725" y1="48.0596" x2="55.4893" y2="45.7858" gradientUnits="userSpaceOnUse">
<stop stop-color="#1E4E4E"/>
<stop offset="1" stop-color="#1F2431"/>
</linearGradient>
<linearGradient id="paint6_linear_1398_5192" x1="60.1914" y1="47.1422" x2="62.6412" y2="45.3414" gradientUnits="userSpaceOnUse">
<stop stop-color="#1E4E4E"/>
<stop offset="1" stop-color="#1F2431"/>
</linearGradient>
<linearGradient id="paint7_linear_1398_5192" x1="60.1914" y1="47.1422" x2="62.6412" y2="45.3414" gradientUnits="userSpaceOnUse">
<stop stop-color="#1E4E4E"/>
<stop offset="1" stop-color="#1F2431"/>
</linearGradient>
<clipPath id="clip0_1398_5192">
<rect width="32" height="32" fill="white" transform="translate(37.4536 76) rotate(8)"/>
</clipPath>
<clipPath id="clip1_1398_5192">
<rect width="32" height="32" rx="16" transform="matrix(-0.990268 -0.139173 -0.139173 0.990268 62.1421 121.453)" fill="white"/>
</clipPath>
</defs>
</svg>
