<svg width="513" height="228" viewBox="0 0 513 228" fill="none" xmlns="http://www.w3.org/2000/svg">
<g filter="url(#filter0_f_1108_4690)">
<path d="M493 116.278C423.603 86.2302 394.265 40.6209 323.739 73.3037L203 197.709C246.444 192.438 291.016 198.301 297.786 208H416.268L493 116.278Z" fill="#141B25"/>
</g>
<g filter="url(#filter1_f_1108_4690)">
<path d="M181.722 20L20 173.658C109.984 164.188 164.158 162.347 202.187 198L311.973 71.601C313.687 7.87149 232.07 27.7993 181.722 20Z" fill="#141B25"/>
</g>
<path d="M301.5 86.5001C303.1 29.3001 223 44.0002 176 37L54 150V154.5C138 146 177.99 156 213.49 188V183.5L301.5 86.5001Z" fill="#8990A5"/>
<path d="M403 200L470.5 111.5V106.5C413.5 92 431.058 65.4294 372 94.722L318.5 174L335.5 183C374 178 397 183.8 403 193V200Z" fill="#8990A5"/>
<path d="M451.5 127.261C390 98.7609 364 55.5 301.5 86.5L213.5 183.5V188C252 183 291 188.8 297 198V193L451.5 127.261Z" fill="#8990A5"/>
<path d="M152.151 150.585C127.643 145.242 97.3782 144.771 56.8016 148.717L195.336 17.0602C206.291 18.6501 218.984 19.0948 231.935 19.5485C232.831 19.5799 233.729 19.6114 234.627 19.6432C248.73 20.1436 263.033 20.7489 275.808 22.9111C288.595 25.0754 299.715 28.78 307.53 35.3827C315.221 41.8813 319.812 51.2729 319.51 65.1036L213.427 182.092C195.774 166.36 176.925 155.988 152.151 150.585Z" fill="#1F2431"/>
<path d="M152.151 150.585C127.643 145.242 97.3782 144.771 56.8016 148.717L195.336 17.0602C206.291 18.6501 218.984 19.0948 231.935 19.5485C232.831 19.5799 233.729 19.6114 234.627 19.6432C248.73 20.1436 263.033 20.7489 275.808 22.9111C288.595 25.0754 299.715 28.78 307.53 35.3827C315.221 41.8813 319.812 51.2729 319.51 65.1036L213.427 182.092C195.774 166.36 176.925 155.988 152.151 150.585Z" fill="url(#paint0_linear_1108_4690)"/>
<path d="M152.151 150.585C127.643 145.242 97.3782 144.771 56.8016 148.717L195.336 17.0602C206.291 18.6501 218.984 19.0948 231.935 19.5485C232.831 19.5799 233.729 19.6114 234.627 19.6432C248.73 20.1436 263.033 20.7489 275.808 22.9111C288.595 25.0754 299.715 28.78 307.53 35.3827C315.221 41.8813 319.812 51.2729 319.51 65.1036L213.427 182.092C195.774 166.36 176.925 155.988 152.151 150.585Z" stroke="#89E159" stroke-width="2"/>
<path d="M216.049 182.178L321.114 66.3121C336.555 58.6785 349.69 55.6439 361.645 55.7829C373.644 55.9224 384.53 59.2598 395.444 64.4704C405.231 69.1424 414.996 75.297 425.605 81.9827C426.849 82.767 428.105 83.5586 429.374 84.356C441.144 91.751 453.991 99.6157 468.938 106.636L402.012 192.261H298.016C297.139 191.113 295.847 190.075 294.256 189.134C292.448 188.065 290.194 187.087 287.577 186.204C282.344 184.438 275.57 183.026 267.811 182.063C253.004 180.226 234.502 180.014 216.049 182.178Z" fill="#1F2431"/>
<path d="M216.049 182.178L321.114 66.3121C336.555 58.6785 349.69 55.6439 361.645 55.7829C373.644 55.9224 384.53 59.2598 395.444 64.4704C405.231 69.1424 414.996 75.297 425.605 81.9827C426.849 82.767 428.105 83.5586 429.374 84.356C441.144 91.751 453.991 99.6157 468.938 106.636L402.012 192.261H298.016C297.139 191.113 295.847 190.075 294.256 189.134C292.448 188.065 290.194 187.087 287.577 186.204C282.344 184.438 275.57 183.026 267.811 182.063C253.004 180.226 234.502 180.014 216.049 182.178Z" fill="url(#paint1_linear_1108_4690)"/>
<path d="M216.049 182.178L321.114 66.3121C336.555 58.6785 349.69 55.6439 361.645 55.7829C373.644 55.9224 384.53 59.2598 395.444 64.4704C405.231 69.1424 414.996 75.297 425.605 81.9827C426.849 82.767 428.105 83.5586 429.374 84.356C441.144 91.751 453.991 99.6157 468.938 106.636L402.012 192.261H298.016C297.139 191.113 295.847 190.075 294.256 189.134C292.448 188.065 290.194 187.087 287.577 186.204C282.344 184.438 275.57 183.026 267.811 182.063C253.004 180.226 234.502 180.014 216.049 182.178Z" stroke="#89E159" stroke-width="2"/>
<g clip-path="url(#clip0_1108_4690)">
<path d="M246.22 48.8398C246.185 48.586 241.864 45.4189 241.864 45.4189L223.863 48.9366C223.863 48.9366 221.109 51.886 220.414 53.4663C220.022 54.3564 219.36 55.9899 219.244 58.4322C219.163 60.104 219.392 61.0268 219.392 61.0268L223.343 67.9596L231.951 76.0638L240.903 76.9196C240.903 76.9196 242.615 75.5325 243.401 74.1692C244.19 72.8034 244.655 71.6752 245.305 70.8736C245.955 70.072 248.933 67.131 249.942 64.1786C250.831 61.571 250.994 57.1538 249.588 53.7575C248.181 50.3612 246.22 48.8398 246.22 48.8398Z" fill="#F68561"/>
<path d="M229.76 78.5139C230.822 79.5978 232.515 80.8982 235.354 80.887C237.888 80.8767 239.568 80.1927 240.45 79.2064C241.492 78.0441 242.171 76.7971 242.592 76.0236C242.671 75.8785 242.741 75.7501 242.802 75.6421C243.195 74.9595 243.864 73.336 243.864 73.336C243.864 73.336 241.195 74.8005 239.16 74.9009C237.126 75.0013 233.068 74.1115 229.996 71.9617L229.888 71.886C226.874 69.7806 224.839 68.3586 223.141 66.2743C221.424 64.1651 219.233 59.6166 219.233 59.6166C219.233 59.6166 219.083 62.4363 220.498 65.6708C221.567 68.1128 222.482 69.2197 223.106 69.9549C223.582 70.5186 224.04 70.9656 224.486 71.4011C224.947 71.8513 225.396 72.2892 225.839 72.8311C226.357 73.4627 227.008 74.4874 227.66 75.5133C228.432 76.7283 229.204 77.9452 229.76 78.5139Z" fill="#8990A5"/>
<path d="M225.943 47.8258C225.833 47.8212 221.051 49.6092 220.789 49.9051C220.526 50.2035 220.09 50.6735 220.305 51.1051C220.458 51.4115 220.818 51.3382 221.099 51.3186C221.379 51.299 221.885 51.3391 222.423 51.4348C222.961 51.5305 223.73 51.9015 224.417 51.9806C225.436 52.0976 226.822 51.5757 226.822 51.5757L226.681 55.3649L224.911 56.4344C224.911 56.4344 224.953 57.2832 224.992 57.4139C225.061 57.6496 226.528 57.6541 227.95 56.7766C229.373 55.8992 230.688 54.4053 230.688 54.4053C230.688 54.4053 231.151 55.8215 231.955 56.7345C232.76 57.645 234.781 59.0127 235.017 58.9593C235.224 58.912 236.687 57.1028 237.213 56.2003C237.739 55.2979 238.107 53.8578 238.107 53.8578C238.107 53.8578 238.977 54.759 240.387 55.3227C241.797 55.8865 243.186 55.864 243.439 55.6319C243.692 55.3997 243.487 54.1744 243.487 54.1744L241.364 50.9778L241.67 49.8432C241.67 49.8432 243.475 50.5207 244.934 50.187C245.989 49.944 247.619 49.8562 247.914 49.4641C248.209 49.072 247.512 48.6886 247.512 48.6886L240.534 46.7992L225.943 47.8258Z" fill="#1E4E4E"/>
<path d="M233.515 43.1904C236.181 42.9272 238.666 42.9349 241.732 44.1971C244.787 45.4544 246.324 47.1227 246.682 47.5094C247.042 47.8937 248.12 49.0601 247.923 49.1192C247.837 49.1447 246.601 48.8912 245.257 48.7956C243.914 48.7001 243.391 48.6044 243.068 48.5608C242.586 48.4952 241.899 48.3892 241.69 48.709C241.408 49.1461 241.949 49.5918 242.319 50.3673C242.69 51.1428 243.081 52.199 243.274 53.1111C243.468 54.0232 243.604 54.4303 243.537 54.6808C243.464 54.9545 240.886 54.5604 239.661 53.6C238.436 52.6396 238.273 51.6406 237.649 51.856C237.026 52.0758 237.128 53.8691 236.455 55.2744C235.781 56.6798 234.864 57.8985 234.864 57.8985C234.864 57.8985 232.891 56.6334 232.262 55.6713C231.314 54.2231 231.904 53.0995 231.1 52.6978C230.012 52.1532 229.628 54.4415 227.478 55.9017C225.556 57.2091 224.945 56.9608 224.945 56.9608C224.945 56.9608 224.759 55.4874 224.814 54.8012C224.869 54.115 224.712 53.6217 225.391 52.5682C226.07 51.5148 227.146 50.3381 226.694 49.92C226.242 49.5019 225.351 50.4382 224.404 50.5275C223.457 50.6169 222.402 50.2461 221.773 50.2659C221.145 50.29 220.316 50.5502 220.316 50.5502C220.316 50.5502 221.304 48.654 223.766 46.9554C226.229 45.2569 229.43 43.5943 233.515 43.1904Z" fill="#89E159"/>
<path d="M234.194 36.1426C234.431 35.9573 235.984 36.1125 236.478 36.5225C236.971 36.9326 236.759 37.0004 236.685 37.2497C236.611 37.499 234.853 39.0779 234.63 40.5913C234.43 41.9542 234.547 42.7812 235.614 43.5451C236.682 44.3091 231.969 45.6521 231.969 45.6521C231.969 45.6521 230.787 43.0074 231.542 40.3296C232.297 37.6519 233.823 36.434 234.194 36.1426Z" fill="#89E159"/>
<path d="M240.319 71.2844C239.841 70.9594 238.943 71.2694 238.542 72.3058C238.211 73.1628 238.52 73.8064 238.926 74.0369C239.329 74.2699 240.095 73.9541 240.558 73.0516C240.907 72.3639 240.956 71.7165 240.319 71.2844ZM244.985 63.8019C244.231 63.489 243.67 64.3652 243.47 64.9224C243.267 65.4777 243.425 66.0692 243.901 66.2986C244.378 66.528 245.119 66.0571 245.387 65.4725C245.661 64.8891 245.682 64.0916 244.985 63.8019ZM246.056 55.4377C245.296 55.4917 245.008 56.2845 245.083 57.0171C245.16 57.7472 245.601 58.2471 246.136 58.2428C246.671 58.2386 247.245 57.2468 247.132 56.5642C247.022 55.879 246.639 55.3954 246.056 55.4377ZM239.892 58.9857C239.281 59.0386 238.816 59.803 238.853 60.6055C238.891 61.4081 239.302 62.1555 239.924 61.9782C240.547 61.8009 240.924 60.8215 240.919 60.1458C240.913 59.4683 240.412 58.9389 239.892 58.9857Z" fill="#DBE2F9"/>
<path d="M235.36 65.2311C234.707 65.3971 234.511 66.2081 234.543 66.8106C234.581 67.5038 235.197 68.3852 235.841 68.303C236.589 68.2084 236.942 67.3326 236.762 66.4074C236.626 65.7103 236.021 65.0595 235.36 65.2311ZM231.221 71.8043C230.684 72.2173 230.537 72.8696 231.386 73.7582C232.127 74.5305 232.86 74.4559 233.168 74.015C233.378 73.7153 233.42 72.9772 232.725 72.2388C232.167 71.6437 231.678 71.4518 231.221 71.8043ZM226.242 64.8607C225.547 65.1041 225.44 66.0833 225.609 66.6954C225.802 67.3957 226.629 67.8968 227.154 67.615C227.677 67.3357 227.872 66.5672 227.648 65.8713C227.427 65.1729 226.831 64.6546 226.242 64.8607ZM223.256 57.9229C222.273 57.9728 222.139 59.0608 222.305 59.6354C222.492 60.2806 222.859 60.9161 223.645 60.8584C224.431 60.8007 224.62 59.5935 224.523 59.114C224.429 58.6364 224.008 57.8858 223.256 57.9229Z" fill="#DBE2F9"/>
<path d="M231.006 59.9976C230.323 60.2392 230.066 61.2151 230.269 61.7779C230.471 62.3407 230.948 62.9851 231.675 62.7885C232.403 62.5895 232.651 61.8136 232.483 61.1365C232.321 60.4588 231.727 59.7461 231.006 59.9976Z" fill="#DBE2F9"/>
</g>
<line x1="320.074" y1="66.0672" x2="213.074" y2="184.067" stroke="#8990A5" stroke-width="0.2"/>
<path d="M180.162 69.2268L178.288 67.7834L174.683 72.4646L173.341 71.4312L176.945 66.75L175.082 65.3151L175.945 64.1947L181.025 68.1064L180.162 69.2268ZM179.451 71.5592C179.844 71.0489 180.262 70.6584 180.706 70.3877C181.158 70.1228 181.606 69.9614 182.051 69.9035C182.502 69.8383 182.938 69.8681 183.36 69.9929C183.788 70.1103 184.172 70.3 184.512 70.5619C185.311 71.1768 185.742 71.9029 185.804 72.74C185.873 73.5828 185.53 74.496 184.772 75.4796C184.715 75.5535 184.646 75.6357 184.565 75.7261C184.496 75.8149 184.43 75.8934 184.366 75.9617L180.539 73.015C180.217 73.5094 180.101 73.997 180.19 74.4779C180.292 74.9571 180.62 75.4103 181.175 75.8373C181.501 76.0878 181.819 76.286 182.131 76.4318C182.45 76.5834 182.713 76.6856 182.919 76.7386L182.251 77.9735C182.149 77.9535 182.014 77.9145 181.847 77.8564C181.693 77.7965 181.519 77.7159 181.326 77.6146C181.135 77.5263 180.935 77.4192 180.725 77.2933C180.516 77.1675 180.312 77.0277 180.112 76.8739C179.602 76.4811 179.215 76.0655 178.952 75.6272C178.694 75.1815 178.546 74.7316 178.507 74.2774C178.473 73.8159 178.537 73.3584 178.698 72.905C178.864 72.4441 179.115 71.9955 179.451 71.5592ZM183.806 73.958C183.948 73.7731 184.056 73.5794 184.13 73.3769C184.209 73.1669 184.242 72.9629 184.23 72.7649C184.23 72.5651 184.182 72.375 184.086 72.1946C184.002 72.0125 183.861 71.8445 183.661 71.6908C183.454 71.5314 183.241 71.4325 183.023 71.3943C182.811 71.3487 182.601 71.346 182.394 71.3864C182.193 71.4324 182.001 71.5139 181.816 71.6311C181.632 71.7482 181.463 71.8833 181.31 72.0363L183.806 73.958ZM188.181 76.7964C187.919 77.0899 187.647 77.3982 187.363 77.7213C187.084 78.037 186.81 78.3556 186.539 78.677C186.267 78.9984 186.005 79.3087 185.751 79.6079C185.497 79.9071 185.264 80.187 185.052 80.4475L183.754 79.4482C184.099 79.0307 184.477 78.5856 184.888 78.1129C185.305 77.6327 185.728 77.1518 186.158 76.67C186.601 76.1865 187.035 75.7141 187.461 75.2528C187.887 74.7914 188.288 74.3699 188.664 73.9883L189.829 74.8851C189.763 75.5525 189.638 76.3042 189.453 77.1401C189.275 77.9686 189.064 78.9077 188.821 79.9575C189.8 79.4509 190.686 78.9964 191.479 78.5938C192.278 78.1839 192.941 77.8814 193.468 77.6865L194.643 78.5918C194.371 79.0532 194.066 79.5487 193.729 80.0784C193.399 80.6137 193.053 81.1545 192.692 81.7006C192.336 82.2393 191.979 82.7715 191.621 83.2972C191.269 83.8154 190.936 84.2947 190.62 84.735L189.289 83.7101C189.741 83.0923 190.196 82.4475 190.655 81.7756C191.126 81.1021 191.585 80.4302 192.03 79.7601C191.748 79.8965 191.436 80.0503 191.092 80.2214C190.755 80.3983 190.416 80.5788 190.074 80.763C189.732 80.9472 189.399 81.1269 189.076 81.3021C188.758 81.4698 188.478 81.6193 188.236 81.7507L187.237 80.982C187.302 80.714 187.375 80.3985 187.454 80.0354C187.54 79.6781 187.629 79.3105 187.72 78.9327C187.81 78.5549 187.892 78.1816 187.964 77.8129C188.049 77.4425 188.121 77.1036 188.181 76.7964ZM201.477 83.8536L197.011 89.6552L195.668 88.6218L199.273 83.9406L197.132 82.2922L193.527 86.9734L192.185 85.9399L196.652 80.1383L201.477 83.8536ZM200.608 87.8486C201.001 87.3384 201.419 86.9479 201.863 86.6772C202.314 86.4122 202.763 86.2508 203.208 86.193C203.658 86.1277 204.095 86.1575 204.517 86.2823C204.945 86.3997 205.329 86.5894 205.669 86.8513C206.468 87.4663 206.898 88.1923 206.961 89.0294C207.03 89.8722 206.686 90.7854 205.929 91.769C205.872 91.843 205.803 91.9252 205.722 92.0156C205.653 92.1044 205.587 92.1829 205.523 92.2511L201.695 89.3045C201.374 89.7989 201.257 90.2865 201.347 90.7674C201.449 91.2466 201.777 91.6997 202.332 92.1268C202.657 92.3773 202.976 92.5755 203.288 92.7213C203.607 92.8728 203.87 92.9751 204.076 93.0281L203.408 94.2629C203.306 94.243 203.171 94.2039 203.004 94.1458C202.849 94.086 202.676 94.0054 202.483 93.904C202.292 93.8157 202.092 93.7087 201.882 93.5828C201.673 93.4569 201.468 93.3171 201.269 93.1634C200.758 92.7705 200.372 92.3549 200.108 91.9166C199.851 91.4709 199.702 91.021 199.663 90.5669C199.63 90.1054 199.694 89.6479 199.854 89.1944C200.021 88.7335 200.272 88.285 200.608 87.8486ZM204.963 90.2475C205.105 90.0626 205.213 89.8689 205.286 89.6663C205.366 89.4564 205.399 89.2524 205.387 89.0543C205.387 88.8546 205.339 88.6645 205.243 88.4841C205.159 88.3019 205.017 88.134 204.818 87.9803C204.611 87.8208 204.398 87.722 204.18 87.6838C203.968 87.6382 203.758 87.6355 203.55 87.6758C203.35 87.7218 203.157 87.8034 202.973 87.9205C202.789 88.0377 202.62 88.1728 202.467 88.3258L204.963 90.2475ZM211.116 95.9393C211.577 95.3403 211.799 94.7691 211.782 94.2256C211.772 93.6879 211.467 93.1884 210.868 92.7272C210.742 92.6304 210.604 92.5353 210.452 92.4419C210.313 92.3468 210.163 92.2665 210.001 92.201L207.447 95.5177C207.503 95.6902 207.599 95.8874 207.734 96.1094C207.882 96.3297 208.068 96.5253 208.289 96.6961C208.777 97.0719 209.261 97.1788 209.739 97.0168C210.224 96.8605 210.683 96.5014 211.116 95.9393ZM212.509 96.9762C212.167 97.4199 211.795 97.7811 211.392 98.0598C210.996 98.3442 210.588 98.5369 210.169 98.638C209.75 98.7391 209.32 98.7383 208.881 98.6357C208.449 98.5388 208.03 98.3337 207.623 98.0206C207.349 97.8099 207.124 97.583 206.946 97.3399C206.768 97.0969 206.636 96.8777 206.551 96.6825L204.817 98.9344L203.475 97.9009L209.376 90.2357C209.707 90.3724 210.097 90.5612 210.548 90.8022C210.999 91.0431 211.446 91.3343 211.89 91.676C212.348 92.029 212.704 92.4153 212.959 92.8348C213.213 93.2543 213.363 93.694 213.41 94.1538C213.469 94.6119 213.42 95.0808 213.263 95.5605C213.119 96.0384 212.867 96.5103 212.509 96.9762ZM214.43 101.565C214.844 101.884 215.175 102.104 215.424 102.225L216.568 100.738C216.512 100.659 216.421 100.554 216.298 100.424C216.175 100.294 216.028 100.163 215.858 100.032C215.71 99.918 215.55 99.8124 215.377 99.715C215.212 99.6233 215.044 99.5587 214.873 99.521C214.709 99.4891 214.547 99.5001 214.388 99.5541C214.234 99.6007 214.095 99.7053 213.97 99.868C213.725 100.186 213.654 100.485 213.757 100.764C213.865 101.036 214.09 101.303 214.43 101.565ZM218.171 96.4769C218.615 96.8185 218.945 97.1615 219.163 97.5059C219.381 97.8503 219.502 98.1906 219.525 98.527C219.557 98.869 219.498 99.2127 219.35 99.558C219.215 99.9017 219.016 100.244 218.755 100.584L216.047 104.1C215.806 103.985 215.452 103.795 214.985 103.53C214.519 103.277 214.024 102.949 213.499 102.545C213.151 102.277 212.859 101.999 212.622 101.71C212.385 101.422 212.219 101.124 212.126 100.816C212.04 100.515 212.03 100.2 212.093 99.8723C212.165 99.5503 212.334 99.2154 212.602 98.8679C212.858 98.5351 213.137 98.3025 213.439 98.17C213.749 98.0432 214.069 97.995 214.399 98.0253C214.735 98.0482 215.07 98.1411 215.404 98.304C215.751 98.4652 216.083 98.6683 216.401 98.9131C216.549 99.027 216.696 99.1576 216.841 99.3051C216.993 99.4452 217.144 99.6085 217.294 99.7953L217.465 99.5734C217.585 99.4181 217.68 99.256 217.751 99.087C217.823 98.918 217.85 98.7447 217.834 98.5672C217.83 98.3879 217.774 98.2089 217.664 98.0302C217.562 97.8572 217.396 97.6824 217.167 97.5059C216.856 97.2667 216.554 97.0697 216.261 96.9148C215.968 96.7599 215.718 96.6493 215.509 96.5832L216.18 95.368C216.396 95.4398 216.689 95.5714 217.06 95.7628C217.431 95.9541 217.801 96.1922 218.171 96.4769ZM225.563 104.183L223.689 102.739L220.084 107.421L218.742 106.387L222.346 101.706L220.483 100.271L221.345 99.1507L226.426 103.062L225.563 104.183ZM232.371 107.64C230.075 109.382 227.843 110.844 225.673 112.024C225.269 112.243 224.898 112.411 224.561 112.528C224.223 112.645 223.899 112.708 223.587 112.715C223.275 112.722 222.975 112.668 222.687 112.552C222.394 112.444 222.092 112.27 221.781 112.031C221.574 111.872 221.384 111.69 221.211 111.486C221.045 111.288 220.931 111.123 220.867 110.992L221.94 110.104C222.126 110.412 222.349 110.666 222.608 110.865C222.955 111.133 223.291 111.256 223.614 111.234C223.939 111.225 224.309 111.103 224.725 110.87C224.929 109.732 225.206 108.531 225.554 107.268C225.91 106.011 226.352 104.725 226.88 103.412L228.311 104.514C228.146 104.881 227.975 105.286 227.8 105.728C227.632 106.176 227.465 106.637 227.301 107.111C227.142 107.577 226.99 108.05 226.846 108.528C226.702 109.006 226.578 109.458 226.473 109.884C227.217 109.408 227.977 108.88 228.753 108.3C229.535 107.712 230.279 107.136 230.984 106.572L232.371 107.64ZM234.981 114.314C235.442 113.715 235.664 113.144 235.647 112.6C235.637 112.062 235.332 111.563 234.733 111.102C234.607 111.005 234.469 110.91 234.317 110.817C234.178 110.721 234.028 110.641 233.866 110.576L231.312 113.892C231.368 114.065 231.464 114.262 231.599 114.484C231.747 114.704 231.932 114.9 232.154 115.071C232.642 115.447 233.126 115.553 233.604 115.391C234.089 115.235 234.548 114.876 234.981 114.314ZM236.374 115.351C236.032 115.795 235.66 116.156 235.257 116.434C234.861 116.719 234.453 116.912 234.034 117.013C233.614 117.114 233.185 117.113 232.746 117.01C232.314 116.913 231.895 116.708 231.488 116.395C231.214 116.185 230.988 115.958 230.81 115.715C230.632 115.472 230.501 115.252 230.416 115.057L228.682 117.309L227.34 116.276L233.241 108.61C233.572 108.747 233.962 108.936 234.413 109.177C234.864 109.418 235.311 109.709 235.754 110.051C236.213 110.404 236.569 110.79 236.824 111.209C237.078 111.629 237.228 112.069 237.274 112.528C237.334 112.987 237.285 113.455 237.128 113.935C236.984 114.413 236.732 114.885 236.374 115.351ZM238.295 119.94C238.709 120.259 239.04 120.479 239.289 120.599L240.433 119.113C240.376 119.034 240.286 118.929 240.163 118.799C240.039 118.668 239.893 118.538 239.723 118.407C239.575 118.293 239.415 118.187 239.242 118.09C239.077 117.998 238.909 117.933 238.738 117.896C238.574 117.864 238.412 117.875 238.253 117.929C238.099 117.975 237.96 118.08 237.835 118.243C237.59 118.561 237.519 118.859 237.622 119.139C237.73 119.411 237.955 119.678 238.295 119.94ZM242.036 114.852C242.479 115.193 242.81 115.536 243.028 115.881C243.246 116.225 243.367 116.565 243.39 116.902C243.422 117.244 243.363 117.587 243.215 117.933C243.08 118.276 242.881 118.618 242.619 118.958L239.912 122.475C239.671 122.36 239.317 122.17 238.85 121.904C238.384 121.652 237.889 121.324 237.364 120.919C237.016 120.652 236.724 120.374 236.487 120.085C236.25 119.796 236.084 119.498 235.991 119.191C235.905 118.889 235.894 118.575 235.958 118.247C236.03 117.925 236.199 117.59 236.467 117.243C236.723 116.91 237.002 116.677 237.304 116.545C237.614 116.418 237.934 116.37 238.264 116.4C238.6 116.423 238.934 116.516 239.268 116.679C239.616 116.84 239.948 117.043 240.266 117.288C240.414 117.402 240.561 117.532 240.706 117.68C240.858 117.82 241.009 117.983 241.159 118.17L241.33 117.948C241.45 117.793 241.545 117.631 241.616 117.462C241.688 117.293 241.715 117.119 241.699 116.942C241.695 116.763 241.639 116.584 241.529 116.405C241.427 116.232 241.261 116.057 241.031 115.881C240.721 115.641 240.419 115.444 240.126 115.289C239.833 115.134 239.582 115.024 239.374 114.958L240.045 113.743C240.26 113.814 240.554 113.946 240.925 114.137C241.296 114.329 241.666 114.567 242.036 114.852ZM162.208 88.2774C161.994 88.1123 161.781 87.9369 161.571 87.7513C161.36 87.5657 161.16 87.3821 160.97 87.2004C160.787 87.0245 160.616 86.8571 160.456 86.6983C160.301 86.5321 160.176 86.3886 160.08 86.2679L164.393 80.666C164.534 80.7275 164.702 80.8155 164.897 80.93C165.097 81.0371 165.303 81.1601 165.514 81.299C165.738 81.4363 165.964 81.5866 166.191 81.75C166.425 81.906 166.648 82.0666 166.863 82.2317C167.647 82.8353 168.146 83.4493 168.36 84.0736C168.58 84.6906 168.494 85.2542 168.101 85.7645C167.896 86.0307 167.647 86.2161 167.355 86.3207C167.062 86.4253 166.769 86.4468 166.474 86.3852C166.661 86.6937 166.765 87.0329 166.786 87.4028C166.808 87.7727 166.662 88.161 166.349 88.5677C165.899 89.152 165.322 89.4266 164.619 89.3915C163.921 89.3491 163.118 88.9777 162.208 88.2774ZM165 84.72C165.333 84.9762 165.644 85.1388 165.932 85.2078C166.228 85.2825 166.487 85.1756 166.709 84.8872C166.817 84.7467 166.868 84.6036 166.863 84.4579C166.865 84.3179 166.826 84.1765 166.748 84.0336C166.669 83.8908 166.558 83.7521 166.414 83.6178C166.276 83.476 166.122 83.3397 165.952 83.2087C165.819 83.1062 165.66 82.9903 165.477 82.8611C165.302 82.7375 165.156 82.6433 165.041 82.5783L163.991 83.9428L165 84.72ZM162.086 86.4165C162.163 86.4996 162.296 86.6254 162.485 86.794C162.686 86.9608 162.875 87.1125 163.053 87.2492C163.452 87.5566 163.824 87.7546 164.168 87.8429C164.52 87.937 164.815 87.8287 165.054 87.5181C165.288 87.2149 165.325 86.9139 165.167 86.615C165.021 86.3145 164.756 86.0162 164.371 85.7201L163.273 84.8746L162.086 86.4165ZM173.787 92.3861C173.433 92.8446 173.045 93.2112 172.622 93.4859C172.198 93.7605 171.762 93.937 171.313 94.0154C170.864 94.0937 170.409 94.073 169.947 93.9533C169.493 93.8393 169.059 93.6228 168.645 93.304C168.231 92.9851 167.911 92.6208 167.684 92.2109C167.458 91.8011 167.325 91.3691 167.286 90.915C167.247 90.4609 167.303 89.9911 167.452 89.5058C167.61 89.0261 167.865 88.5571 168.218 88.0986C168.571 87.6401 168.956 87.2772 169.374 87.0099C169.805 86.7409 170.245 86.5673 170.694 86.4889C171.15 86.4163 171.603 86.4407 172.051 86.5621C172.505 86.6761 172.936 86.8897 173.342 87.2029C173.749 87.516 174.066 87.8775 174.292 88.2874C174.531 88.6955 174.671 89.1266 174.71 89.5807C174.749 90.0349 174.69 90.5018 174.532 90.9814C174.388 91.4594 174.14 91.9276 173.787 92.3861ZM172.411 91.327C172.855 90.7502 173.08 90.1986 173.084 89.6722C173.102 89.1441 172.889 88.7093 172.446 88.3676C172.002 88.026 171.523 87.9285 171.01 88.0751C170.51 88.2199 170.038 88.5808 169.593 89.1576C169.144 89.7419 168.91 90.298 168.892 90.8261C168.881 91.3599 169.098 91.7976 169.542 92.1392C169.985 92.4809 170.46 92.5755 170.966 92.4232C171.48 92.2767 171.961 91.9113 172.411 91.327ZM176.844 90.4115C176.969 90.4485 177.116 90.5026 177.285 90.5738C177.454 90.645 177.631 90.7285 177.816 90.8242C178.002 90.9199 178.189 91.0286 178.378 91.1505C178.58 91.2707 178.773 91.4019 178.958 91.5443C179.276 91.7891 179.556 92.0521 179.799 92.3334C180.042 92.6146 180.22 92.9043 180.332 93.2026C180.444 93.5008 180.483 93.8019 180.449 94.1057C180.423 94.4153 180.298 94.7143 180.076 95.0027C179.837 95.3133 179.55 95.5103 179.215 95.5938C178.88 95.6773 178.561 95.6855 178.26 95.6182C178.496 96.0001 178.608 96.3814 178.598 96.7621C178.588 97.1428 178.437 97.5218 178.147 97.8989C177.913 98.2021 177.648 98.4097 177.349 98.5217C177.058 98.6394 176.744 98.6802 176.407 98.6442C176.083 98.6065 175.746 98.5005 175.397 98.3262C175.043 98.1593 174.688 97.9392 174.333 97.6659C173.904 97.3356 173.533 96.9912 173.22 96.6325C172.902 96.2813 172.672 95.975 172.532 95.7138L173.602 94.806C173.697 94.9734 173.868 95.2173 174.116 95.5378C174.37 95.8509 174.708 96.1697 175.129 96.4943C175.943 97.1206 176.532 97.1971 176.896 96.7238C177.027 96.5537 177.095 96.3884 177.101 96.228C177.107 96.0675 177.074 95.9187 177.003 95.7815C176.938 95.6369 176.841 95.5032 176.711 95.3802C176.588 95.2498 176.46 95.1334 176.327 95.0309L175.217 94.1768L175.986 93.1784L177.084 94.024C177.358 94.2347 177.628 94.3659 177.894 94.4179C178.173 94.4681 178.41 94.3674 178.604 94.116C178.763 93.9089 178.792 93.6722 178.691 93.4058C178.603 93.1378 178.389 92.8728 178.048 92.6109C177.901 92.497 177.74 92.3913 177.568 92.294C177.401 92.1892 177.233 92.0946 177.062 92.0103C176.899 91.9317 176.744 91.8654 176.597 91.8112C176.456 91.7497 176.341 91.7081 176.251 91.6865L176.844 90.4115ZM178.451 98.8576L179.117 99.3701C179.579 99.2434 180.016 99.0436 180.426 98.7706C180.85 98.4959 181.248 98.178 181.62 97.8168C181.998 97.4482 182.36 97.0552 182.705 96.6376C183.05 96.2201 183.383 95.8108 183.703 95.4098L187.863 98.6126L184.242 103.316L185.129 103.999L183.019 106.739L181.821 105.817L183.086 104.175L178.793 100.87L177.528 102.511L176.342 101.598L178.451 98.8576ZM182.899 102.283L185.667 98.6885L184.091 97.4756C183.843 97.7675 183.586 98.0638 183.319 98.3647C183.057 98.6583 182.777 98.9375 182.479 99.2026C182.187 99.4603 181.875 99.6971 181.543 99.9132C181.225 100.128 180.882 100.305 180.514 100.446L182.899 102.283ZM194.777 103.936C192.481 105.679 190.249 107.14 188.08 108.321C187.675 108.54 187.305 108.708 186.967 108.825C186.63 108.942 186.305 109.004 185.993 109.011C185.681 109.018 185.381 108.964 185.094 108.849C184.8 108.74 184.498 108.567 184.187 108.327C183.98 108.168 183.79 107.986 183.617 107.783C183.452 107.584 183.337 107.42 183.273 107.288L184.346 106.4C184.533 106.709 184.755 106.962 185.014 107.162C185.362 107.429 185.697 107.552 186.02 107.53C186.345 107.521 186.715 107.4 187.131 107.166C187.336 106.028 187.612 104.827 187.961 103.564C188.316 102.307 188.758 101.022 189.286 99.7084L190.717 100.81C190.552 101.178 190.382 101.583 190.206 102.025C190.038 102.472 189.872 102.933 189.707 103.407C189.548 103.874 189.397 104.346 189.252 104.824C189.108 105.302 188.984 105.754 188.88 106.18C189.623 105.704 190.383 105.176 191.159 104.596C191.942 104.009 192.685 103.433 193.391 102.869L194.777 103.936ZM196.537 108.312L199.229 107.364L200.638 108.448L196.62 109.719C196.621 110.544 196.597 111.363 196.55 112.174C196.515 112.984 196.437 113.713 196.315 114.361L194.862 113.242C194.903 113.05 194.937 112.823 194.963 112.56C195.002 112.295 195.032 112.019 195.054 111.73C195.09 111.439 195.115 111.146 195.13 110.851C195.145 110.556 195.155 110.276 195.16 110.009C194.645 110.142 194.105 110.316 193.541 110.529C192.989 110.74 192.512 110.939 192.111 111.124L190.735 110.065C191.017 109.928 191.332 109.794 191.681 109.662C192.03 109.53 192.393 109.403 192.77 109.281C193.152 109.152 193.535 109.029 193.92 108.912C194.317 108.794 194.699 108.688 195.066 108.593L195.291 104.332L196.766 105.467L196.537 108.312ZM200.084 115.761C200.498 116.08 200.829 116.299 201.078 116.42L202.222 114.934C202.165 114.855 202.075 114.75 201.952 114.619C201.828 114.489 201.682 114.358 201.511 114.227C201.364 114.114 201.203 114.008 201.031 113.911C200.866 113.819 200.698 113.754 200.527 113.717C200.363 113.685 200.201 113.696 200.042 113.75C199.888 113.796 199.749 113.901 199.623 114.064C199.379 114.382 199.308 114.68 199.41 114.96C199.519 115.232 199.743 115.499 200.084 115.761ZM203.825 110.672C204.268 111.014 204.599 111.357 204.817 111.701C205.035 112.046 205.155 112.386 205.179 112.723C205.21 113.065 205.152 113.408 205.004 113.754C204.869 114.097 204.67 114.439 204.408 114.779L201.701 118.296C201.46 118.181 201.105 117.991 200.638 117.725C200.173 117.473 199.678 117.145 199.153 116.74C198.805 116.473 198.513 116.195 198.276 115.906C198.038 115.617 197.873 115.319 197.78 115.012C197.694 114.71 197.683 114.396 197.747 114.068C197.818 113.746 197.988 113.411 198.256 113.063C198.512 112.731 198.791 112.498 199.093 112.366C199.403 112.239 199.723 112.191 200.053 112.221C200.388 112.244 200.723 112.337 201.057 112.5C201.404 112.661 201.737 112.864 202.055 113.109C202.203 113.223 202.35 113.353 202.495 113.501C202.646 113.641 202.797 113.804 202.948 113.991L203.119 113.769C203.239 113.614 203.334 113.452 203.405 113.283C203.476 113.114 203.504 112.94 203.487 112.763C203.484 112.583 203.427 112.404 203.318 112.226C203.215 112.053 203.05 111.878 202.82 111.701C202.51 111.462 202.208 111.265 201.915 111.11C201.622 110.955 201.371 110.845 201.163 110.779L201.834 109.564C202.049 109.635 202.343 109.767 202.714 109.958C203.084 110.15 203.455 110.388 203.825 110.672Z" fill="#DBE2F9"/>
<path d="M151.767 106.335C151.562 106.602 151.305 106.822 150.995 106.995C150.69 107.161 150.355 107.298 149.99 107.405C149.637 107.511 149.262 107.593 148.864 107.651C148.471 107.702 148.081 107.75 147.694 107.793C147.49 107.813 147.255 107.844 146.987 107.885C146.72 107.927 146.46 107.974 146.207 108.027C145.954 108.079 145.723 108.143 145.513 108.217C145.309 108.283 145.166 108.362 145.084 108.452L148.501 111.083L147.63 112.214L142.738 108.448C142.776 108.383 142.827 108.31 142.889 108.228C142.957 108.139 143.009 108.073 143.043 108.029C143.316 107.674 143.622 107.391 143.961 107.18C144.313 106.968 144.681 106.804 145.065 106.688C145.449 106.571 145.844 106.486 146.25 106.434C146.655 106.381 147.058 106.332 147.458 106.287C147.767 106.253 148.065 106.218 148.353 106.18C148.641 106.143 148.904 106.092 149.142 106.028C149.393 105.962 149.618 105.876 149.817 105.77C150.022 105.657 150.193 105.512 150.33 105.334C150.626 104.95 150.725 104.591 150.629 104.257C150.532 103.924 150.325 103.635 150.007 103.39C149.8 103.23 149.585 103.112 149.362 103.034C149.139 102.957 148.926 102.905 148.722 102.878C148.527 102.857 148.343 102.851 148.171 102.86C148.005 102.861 147.876 102.868 147.784 102.88L147.845 101.425C148.383 101.368 148.928 101.41 149.478 101.552C150.042 101.691 150.565 101.946 151.045 102.316C151.866 102.948 152.318 103.609 152.401 104.297C152.497 104.983 152.286 105.663 151.767 106.335ZM158.072 111.19C157.867 111.456 157.61 111.676 157.299 111.849C156.995 112.015 156.66 112.152 156.294 112.259C155.942 112.365 155.567 112.447 155.168 112.506C154.776 112.557 154.386 112.604 153.999 112.648C153.795 112.667 153.56 112.698 153.292 112.74C153.025 112.781 152.765 112.828 152.512 112.881C152.259 112.934 152.028 112.997 151.818 113.071C151.614 113.137 151.471 113.216 151.389 113.306L154.806 115.937L153.935 117.068L149.043 113.302C149.081 113.237 149.131 113.164 149.194 113.083C149.262 112.994 149.313 112.927 149.348 112.883C149.621 112.528 149.927 112.245 150.266 112.035C150.617 111.823 150.985 111.658 151.37 111.542C151.754 111.425 152.149 111.341 152.554 111.288C152.96 111.235 153.363 111.186 153.763 111.141C154.072 111.107 154.37 111.072 154.658 111.035C154.946 110.997 155.209 110.946 155.447 110.882C155.698 110.816 155.923 110.73 156.122 110.625C156.327 110.512 156.498 110.366 156.634 110.189C156.93 109.804 157.03 109.445 156.934 109.112C156.837 108.778 156.63 108.489 156.312 108.244C156.105 108.085 155.89 107.966 155.666 107.889C155.443 107.811 155.23 107.759 155.027 107.732C154.831 107.711 154.648 107.705 154.476 107.714C154.31 107.716 154.181 107.722 154.089 107.734L154.15 106.279C154.688 106.222 155.232 106.265 155.783 106.406C156.347 106.546 156.869 106.801 157.35 107.171C158.171 107.803 158.623 108.463 158.706 109.151C158.801 109.837 158.59 110.517 158.072 111.19ZM160.416 116.034L163.4 118.331L162.452 119.563L159.468 117.265L160.416 116.034ZM173.054 122.725C172.849 122.991 172.591 123.211 172.281 123.385C171.977 123.551 171.642 123.687 171.276 123.795C170.924 123.9 170.549 123.982 170.15 124.041C169.758 124.092 169.368 124.139 168.981 124.183C168.777 124.203 168.542 124.233 168.274 124.275C168.007 124.316 167.747 124.363 167.494 124.416C167.241 124.469 167.01 124.532 166.8 124.606C166.595 124.673 166.453 124.751 166.371 124.842L169.788 127.472L168.917 128.604L164.025 124.837C164.063 124.772 164.113 124.699 164.176 124.618C164.244 124.529 164.295 124.462 164.33 124.418C164.603 124.063 164.909 123.78 165.248 123.57C165.599 123.358 165.967 123.194 166.351 123.077C166.736 122.961 167.131 122.876 167.536 122.823C167.942 122.771 168.345 122.722 168.745 122.676C169.054 122.643 169.352 122.607 169.64 122.57C169.928 122.532 170.191 122.482 170.429 122.417C170.68 122.352 170.905 122.266 171.104 122.16C171.309 122.047 171.48 121.901 171.616 121.724C171.912 121.339 172.012 120.98 171.915 120.647C171.819 120.313 171.612 120.024 171.294 119.779C171.087 119.62 170.871 119.501 170.648 119.424C170.425 119.346 170.212 119.294 170.009 119.267C169.813 119.246 169.63 119.24 169.458 119.249C169.292 119.251 169.163 119.258 169.071 119.27L169.131 117.814C169.67 117.758 170.214 117.8 170.765 117.941C171.329 118.081 171.851 118.336 172.332 118.706C173.153 119.338 173.605 119.998 173.687 120.686C173.783 121.372 173.572 122.052 173.054 122.725ZM178.026 126.006C177.684 126.083 177.322 126.17 176.942 126.266C176.569 126.368 176.192 126.484 175.809 126.613C175.427 126.743 175.046 126.885 174.667 127.041C174.293 127.19 173.935 127.349 173.591 127.52L175.643 129.101L178.026 126.006ZM180.608 125.361L176.952 130.108L177.818 130.775L176.972 131.873L176.107 131.207L174.689 133.048L173.38 132.04L174.798 130.199L171.426 127.602L172.16 126.648C172.558 126.437 173.042 126.214 173.611 125.981C174.187 125.753 174.797 125.534 175.442 125.323C176.087 125.113 176.744 124.924 177.415 124.757C178.085 124.59 178.724 124.464 179.332 124.378L180.608 125.361ZM183.022 130.541C183.175 130.341 183.307 130.148 183.415 129.961C183.53 129.766 183.606 129.583 183.644 129.412C183.681 129.241 183.68 129.081 183.641 128.933C183.602 128.785 183.512 128.657 183.372 128.549C183.083 128.327 182.778 128.31 182.457 128.498C182.135 128.686 181.821 128.98 181.513 129.379C181.2 129.786 180.993 130.169 180.894 130.528C180.794 130.887 180.888 131.178 181.177 131.4C181.317 131.508 181.464 131.562 181.617 131.562C181.77 131.562 181.925 131.522 182.081 131.442C182.237 131.362 182.394 131.241 182.553 131.081C182.712 130.921 182.868 130.741 183.022 130.541ZM180.515 128.611C181.073 127.886 181.654 127.444 182.259 127.286C182.872 127.133 183.455 127.27 184.01 127.697C184.564 128.124 184.842 128.65 184.844 129.276C184.853 129.907 184.578 130.585 184.02 131.31C183.456 132.042 182.868 132.484 182.256 132.637C181.651 132.795 181.071 132.661 180.517 132.234C179.962 131.807 179.68 131.278 179.671 130.647C179.67 130.022 179.951 129.343 180.515 128.611ZM184.185 140.625C183.609 140.181 183.159 139.693 182.837 139.163C182.516 138.632 182.327 138.075 182.271 137.49C182.22 136.897 182.301 136.288 182.512 135.661C182.723 135.035 183.077 134.4 183.572 133.756C184.068 133.113 184.602 132.618 185.176 132.27C185.757 131.928 186.349 131.718 186.951 131.64C187.559 131.555 188.16 131.6 188.755 131.775C189.35 131.951 189.911 132.24 190.436 132.645C190.754 132.89 191.022 133.138 191.241 133.389C191.466 133.632 191.651 133.858 191.798 134.065C191.945 134.272 192.056 134.457 192.13 134.621C192.204 134.784 192.256 134.9 192.285 134.97L190.995 135.796C190.903 135.549 190.728 135.249 190.469 134.897C190.223 134.542 189.908 134.217 189.523 133.921C189.191 133.665 188.835 133.485 188.455 133.381C188.081 133.27 187.699 133.247 187.308 133.311C186.924 133.381 186.539 133.544 186.154 133.8C185.768 134.057 185.398 134.414 185.045 134.873C184.732 135.28 184.489 135.687 184.316 136.096C184.15 136.51 184.066 136.917 184.065 137.316C184.069 137.708 184.165 138.088 184.353 138.457C184.546 138.818 184.85 139.157 185.264 139.476C185.76 139.858 186.2 140.12 186.584 140.263C186.975 140.399 187.289 140.488 187.527 140.53L187.025 141.963C186.89 141.954 186.723 141.919 186.522 141.858C186.329 141.804 186.106 141.726 185.853 141.626C185.606 141.518 185.342 141.38 185.06 141.21C184.773 141.048 184.481 140.853 184.185 140.625Z" fill="#89E159"/>
<path d="M341.249 103.296C341.038 103.127 340.83 102.947 340.623 102.757C340.417 102.567 340.221 102.379 340.035 102.193C339.856 102.013 339.688 101.842 339.531 101.68C339.38 101.511 339.258 101.364 339.165 101.242L343.597 95.7338C343.737 95.7984 343.903 95.8899 344.095 96.0086C344.293 96.1199 344.496 96.2473 344.704 96.3908C344.925 96.5328 345.148 96.6879 345.372 96.8562C345.602 97.0172 345.822 97.1826 346.033 97.3523C346.804 97.9725 347.289 98.5971 347.49 99.2259C347.697 99.8474 347.598 100.409 347.194 100.911C346.984 101.173 346.731 101.353 346.436 101.451C346.142 101.549 345.848 101.564 345.555 101.496C345.735 101.809 345.832 102.15 345.845 102.52C345.859 102.891 345.705 103.276 345.383 103.676C344.92 104.25 344.338 104.512 343.636 104.462C342.939 104.405 342.144 104.016 341.249 103.296ZM344.117 99.7999C344.444 100.063 344.751 100.232 345.038 100.308C345.332 100.389 345.594 100.287 345.822 100.004C345.933 99.8657 345.987 99.7237 345.985 99.5779C345.99 99.438 345.954 99.2958 345.879 99.1513C345.804 99.0067 345.695 98.8658 345.554 98.7283C345.419 98.5836 345.268 98.444 345.101 98.3094C344.97 98.2041 344.814 98.0848 344.634 97.9517C344.461 97.8244 344.318 97.727 344.204 97.6596L343.124 99.0012L344.117 99.7999ZM341.167 101.433C341.243 101.518 341.373 101.647 341.557 101.819C341.755 101.99 341.941 102.146 342.116 102.287C342.508 102.603 342.876 102.809 343.218 102.904C343.568 103.006 343.865 102.904 344.111 102.599C344.351 102.3 344.395 102 344.243 101.698C344.104 101.395 343.845 101.091 343.467 100.786L342.387 99.9173L341.167 101.433ZM351.227 103.545C350.962 103.859 350.682 104.185 350.386 104.522C350.097 104.852 349.788 105.161 349.461 105.448C349.141 105.742 348.8 105.995 348.438 106.206C348.076 106.418 347.69 106.563 347.28 106.64C346.883 106.716 346.461 106.712 346.014 106.628C345.58 106.542 345.124 106.342 344.645 106.029L345.346 104.778C345.775 105.004 346.156 105.119 346.489 105.123C346.827 105.119 347.153 105.034 347.467 104.868C347.706 104.749 347.944 104.587 348.181 104.382C348.425 104.183 348.663 103.961 348.895 103.717C349.141 103.472 349.379 103.214 349.608 102.943C349.838 102.673 350.058 102.407 350.269 102.145L350.839 101.436L354.875 104.683L350.284 110.388L348.965 109.326L352.677 104.712L351.227 103.545ZM354.72 112.43C355.127 112.758 355.454 112.984 355.7 113.111L356.876 111.649C356.821 111.569 356.733 111.462 356.612 111.329C356.492 111.196 356.348 111.062 356.18 110.928C356.035 110.811 355.877 110.702 355.707 110.6C355.544 110.505 355.377 110.437 355.207 110.396C355.044 110.36 354.882 110.368 354.721 110.418C354.567 110.462 354.425 110.563 354.296 110.723C354.045 111.036 353.967 111.333 354.064 111.615C354.167 111.889 354.385 112.161 354.72 112.43ZM358.569 107.423C359.006 107.774 359.329 108.124 359.539 108.473C359.75 108.822 359.863 109.165 359.88 109.502C359.903 109.844 359.838 110.187 359.682 110.529C359.54 110.87 359.334 111.207 359.065 111.542L356.282 114.999C356.044 114.879 355.694 114.681 355.232 114.406C354.773 114.143 354.284 113.805 353.768 113.389C353.426 113.114 353.14 112.83 352.909 112.536C352.678 112.243 352.52 111.941 352.433 111.632C352.354 111.328 352.35 111.013 352.42 110.687C352.499 110.367 352.675 110.036 352.95 109.694C353.214 109.367 353.498 109.14 353.803 109.014C354.115 108.894 354.436 108.853 354.765 108.89C355.1 108.92 355.433 109.02 355.763 109.19C356.107 109.359 356.435 109.569 356.748 109.821C356.893 109.938 357.037 110.072 357.179 110.222C357.328 110.365 357.475 110.532 357.622 110.722L357.797 110.504C357.92 110.351 358.019 110.191 358.094 110.024C358.169 109.856 358.2 109.684 358.187 109.506C358.188 109.326 358.135 109.146 358.029 108.965C357.931 108.79 357.769 108.612 357.543 108.43C357.238 108.185 356.94 107.981 356.651 107.82C356.361 107.659 356.113 107.543 355.906 107.472L356.603 106.272C356.817 106.348 357.107 106.486 357.474 106.685C357.841 106.885 358.206 107.131 358.569 107.423ZM357.062 115.843C357.847 115.552 358.662 115.321 359.507 115.15C360.357 114.972 361.179 114.836 361.972 114.744C361.914 113.967 361.874 113.191 361.85 112.417C361.832 111.636 361.831 110.929 361.849 110.296L363.365 111.516C363.345 112.003 363.335 112.552 363.334 113.163C363.341 113.779 363.35 114.535 363.361 115.43L365.274 113.052L366.55 114.079L364.637 116.457C365.522 116.295 366.266 116.145 366.868 116.006C367.471 115.868 368.004 115.741 368.47 115.624L369.964 116.827C369.372 116.997 368.695 117.153 367.934 117.295C367.18 117.443 366.41 117.566 365.624 117.665C365.717 118.531 365.762 119.375 365.758 120.199C365.762 121.028 365.706 121.864 365.592 122.706L364.119 121.521C364.149 121.186 364.174 120.828 364.192 120.448C364.218 120.074 364.23 119.694 364.228 119.309C364.24 118.923 364.235 118.542 364.214 118.166C364.193 117.789 364.164 117.431 364.128 117.09L361.96 119.784L360.683 118.757L362.851 116.063C362.504 116.107 362.142 116.163 361.764 116.23C361.387 116.297 361.007 116.375 360.625 116.463C360.255 116.549 359.89 116.639 359.528 116.731C359.174 116.829 358.843 116.928 358.535 117.027L357.062 115.843ZM371.315 127.313L369.996 126.25L371.918 123.862L369.769 122.133L367.847 124.521L366.527 123.459L371.118 117.755L372.437 118.817L370.647 121.042L372.795 122.771L374.586 120.546L375.906 121.608L371.315 127.313ZM380.451 129.956C380.088 130.407 379.692 130.765 379.263 131.031C378.834 131.296 378.394 131.463 377.943 131.532C377.492 131.601 377.038 131.57 376.579 131.441C376.127 131.317 375.698 131.091 375.291 130.764C374.884 130.436 374.571 130.065 374.354 129.65C374.136 129.236 374.013 128.801 373.984 128.346C373.954 127.891 374.02 127.423 374.18 126.941C374.348 126.464 374.613 126.001 374.976 125.55C375.339 125.099 375.732 124.745 376.155 124.487C376.592 124.227 377.035 124.063 377.486 123.994C377.944 123.931 378.396 123.965 378.841 124.096C379.293 124.22 379.718 124.443 380.118 124.765C380.518 125.087 380.827 125.455 381.044 125.869C381.275 126.283 381.405 126.717 381.434 127.171C381.464 127.626 381.394 128.092 381.227 128.568C381.072 129.043 380.814 129.506 380.451 129.956ZM379.099 128.868C379.555 128.301 379.791 127.754 379.807 127.228C379.837 126.7 379.633 126.261 379.197 125.91C378.76 125.559 378.284 125.451 377.768 125.587C377.264 125.721 376.785 126.071 376.328 126.639C375.866 127.213 375.62 127.764 375.591 128.292C375.569 128.825 375.776 129.267 376.212 129.618C376.649 129.969 377.121 130.074 377.631 129.933C378.147 129.797 378.636 129.442 379.099 128.868ZM381.486 130.807C381.825 130.385 382.206 130.045 382.63 129.787C383.059 129.521 383.502 129.351 383.958 129.275C384.422 129.205 384.89 129.234 385.362 129.362C385.834 129.49 386.288 129.73 386.724 130.081C387.262 130.514 387.692 131.022 388.014 131.604L386.862 132.456C386.762 132.267 386.631 132.072 386.47 131.871C386.316 131.675 386.13 131.489 385.912 131.314C385.395 130.898 384.871 130.746 384.339 130.857C383.812 130.96 383.312 131.306 382.838 131.895C382.382 132.462 382.146 133.016 382.131 133.555C382.122 134.087 382.42 134.596 383.023 135.081C383.249 135.263 383.488 135.419 383.741 135.551C383.995 135.683 384.228 135.781 384.44 135.844L383.748 137.084C383.544 137.04 383.269 136.927 382.925 136.745C382.587 136.569 382.262 136.355 381.949 136.104C381.462 135.712 381.095 135.297 380.848 134.859C380.615 134.419 380.484 133.972 380.454 133.517C380.438 133.061 380.518 132.604 380.695 132.147C380.877 131.683 381.14 131.236 381.486 130.807ZM392.795 137.015L390.952 135.532L387.248 140.134L385.928 139.072L389.632 134.47L387.8 132.995L388.686 131.894L393.682 135.914L392.795 137.015ZM394.293 139.874C394.426 139.933 394.606 140.036 394.835 140.184C395.063 140.332 395.283 140.49 395.493 140.66C395.821 140.923 396.097 141.206 396.322 141.506C396.554 141.813 396.711 142.131 396.794 142.461C396.882 142.784 396.888 143.118 396.812 143.465C396.743 143.804 396.574 144.141 396.305 144.476C396.029 144.817 395.737 145.061 395.428 145.208C395.118 145.354 394.793 145.416 394.452 145.393C394.111 145.37 393.759 145.272 393.395 145.099C393.038 144.932 392.674 144.699 392.304 144.401C391.875 144.055 391.492 143.712 391.156 143.37C390.821 143.028 390.499 142.661 390.191 142.269L394.667 136.707L395.987 137.769L394.293 139.874ZM393.105 143.338C393.475 143.637 393.818 143.799 394.133 143.824C394.461 143.849 394.751 143.704 395.002 143.392C395.131 143.232 395.203 143.068 395.218 142.9C395.24 142.739 395.22 142.578 395.156 142.419C395.105 142.259 395.016 142.103 394.886 141.951C394.757 141.799 394.609 141.655 394.441 141.521C394.289 141.398 394.123 141.276 393.944 141.156C393.771 141.029 393.618 140.936 393.486 140.877L392.178 142.502C392.261 142.593 392.387 142.719 392.557 142.88C392.74 143.039 392.923 143.192 393.105 143.338ZM335.864 115.057L331.274 120.761L329.954 119.699L333.658 115.096L331.553 113.402L327.849 118.005L326.529 116.943L331.12 111.239L335.864 115.057ZM340.411 123.406C340.048 123.856 339.652 124.215 339.222 124.48C338.793 124.746 338.353 124.913 337.903 124.981C337.452 125.05 336.997 125.02 336.538 124.89C336.087 124.766 335.658 124.541 335.25 124.213C334.843 123.885 334.531 123.514 334.314 123.099C334.096 122.685 333.973 122.25 333.943 121.795C333.914 121.34 333.98 120.872 334.14 120.39C334.307 119.914 334.573 119.45 334.935 118.999C335.298 118.549 335.691 118.194 336.115 117.936C336.551 117.676 336.995 117.512 337.446 117.443C337.903 117.381 338.355 117.415 338.801 117.546C339.252 117.669 339.678 117.892 340.078 118.214C340.478 118.536 340.787 118.904 341.004 119.319C341.235 119.732 341.365 120.166 341.394 120.621C341.423 121.076 341.354 121.541 341.186 122.017C341.032 122.492 340.773 122.955 340.411 123.406ZM339.058 122.317C339.515 121.75 339.751 121.203 339.767 120.677C339.796 120.15 339.593 119.71 339.156 119.359C338.72 119.008 338.244 118.9 337.727 119.036C337.224 119.17 336.744 119.521 336.288 120.088C335.826 120.662 335.58 121.213 335.551 121.741C335.529 122.274 335.736 122.717 336.172 123.068C336.608 123.419 337.081 123.524 337.59 123.382C338.107 123.247 338.596 122.892 339.058 122.317ZM343.588 124.184C343.307 124.533 343.206 124.859 343.286 125.162C343.378 125.464 343.599 125.756 343.948 126.037C344.115 126.171 344.285 126.296 344.456 126.41C344.641 126.523 344.807 126.614 344.954 126.685L347.06 124.067L348.38 125.129L343.79 130.833L342.47 129.771L344.111 127.732C343.963 127.648 343.769 127.54 343.528 127.406C343.294 127.266 343.093 127.128 342.926 126.994C342.584 126.718 342.298 126.434 342.067 126.14C341.844 125.853 341.691 125.551 341.611 125.234C341.536 124.91 341.546 124.577 341.642 124.235C341.744 123.885 341.949 123.518 342.26 123.133L343.69 121.355L345.01 122.417L343.588 124.184ZM347.648 134.118C347.437 133.948 347.228 133.768 347.022 133.578C346.816 133.388 346.619 133.2 346.433 133.015C346.255 132.835 346.087 132.664 345.93 132.502C345.779 132.332 345.657 132.186 345.564 132.063L349.996 126.555C350.136 126.62 350.302 126.711 350.494 126.83C350.692 126.941 350.895 127.069 351.103 127.212C351.324 127.354 351.547 127.509 351.771 127.678C352 127.839 352.221 128.004 352.432 128.174C353.202 128.794 353.688 129.419 353.889 130.047C354.096 130.669 353.997 131.231 353.593 131.732C353.383 131.994 353.13 132.174 352.835 132.272C352.54 132.371 352.247 132.386 351.954 132.318C352.134 132.63 352.23 132.972 352.244 133.342C352.257 133.712 352.103 134.097 351.781 134.497C351.319 135.072 350.737 135.334 350.034 135.284C349.338 135.226 348.542 134.838 347.648 134.118ZM350.516 130.621C350.843 130.885 351.15 131.054 351.437 131.129C351.731 131.21 351.992 131.109 352.221 130.825C352.332 130.687 352.386 130.545 352.384 130.399C352.388 130.259 352.353 130.117 352.278 129.973C352.202 129.828 352.094 129.687 351.953 129.55C351.818 129.405 351.667 129.265 351.5 129.131C351.369 129.026 351.213 128.906 351.033 128.773C350.86 128.646 350.716 128.548 350.603 128.481L349.523 129.823L350.516 130.621ZM347.566 132.255C347.641 132.34 347.772 132.468 347.956 132.641C348.154 132.812 348.34 132.968 348.515 133.108C348.907 133.424 349.275 133.63 349.617 133.726C349.966 133.827 350.264 133.725 350.51 133.42C350.75 133.122 350.794 132.822 350.642 132.52C350.502 132.216 350.244 131.912 349.866 131.608L348.786 130.739L347.566 132.255ZM358.624 142.772L357.305 141.71L361.895 136.005L363.215 137.067L358.624 142.772ZM355.893 134.643C356.026 134.702 356.202 134.802 356.423 134.944C356.652 135.092 356.864 135.245 357.061 135.403C357.373 135.655 357.638 135.928 357.856 136.223C358.081 136.524 358.231 136.836 358.306 137.16C358.394 137.483 358.397 137.814 358.314 138.155C358.245 138.495 358.075 138.831 357.806 139.166C357.531 139.508 357.239 139.752 356.93 139.898C356.62 140.044 356.298 140.109 355.965 140.092C355.631 140.075 355.286 139.983 354.929 139.816C354.58 139.654 354.227 139.43 353.871 139.144C353.456 138.81 353.081 138.472 352.745 138.13C352.417 137.794 352.099 137.43 351.791 137.039L356.267 131.476L357.587 132.538L355.893 134.643ZM354.672 138.081C355.014 138.356 355.338 138.504 355.646 138.523C355.966 138.542 356.252 138.395 356.504 138.082C356.633 137.922 356.708 137.761 356.731 137.6C356.753 137.438 356.732 137.277 356.669 137.118C356.618 136.958 356.532 136.805 356.41 136.658C356.295 136.518 356.161 136.387 356.009 136.264C355.87 136.153 355.712 136.037 355.533 135.917C355.367 135.795 355.218 135.705 355.086 135.647L353.778 137.272C353.861 137.362 353.987 137.488 354.157 137.649C354.333 137.803 354.505 137.947 354.672 138.081Z" fill="#DBE2F9"/>
<path d="M314.168 136.881C313.958 136.711 313.739 136.565 313.514 136.444C313.288 136.322 313.066 136.233 312.848 136.177C312.794 136.229 312.734 136.289 312.668 136.356C312.615 136.421 312.563 136.487 312.51 136.552C312.276 136.843 312.072 137.134 311.897 137.425C311.736 137.715 311.624 137.996 311.56 138.268C311.51 138.539 311.522 138.8 311.595 139.051C311.682 139.3 311.853 139.527 312.107 139.732C312.318 139.902 312.531 140.002 312.747 140.031C312.97 140.067 313.184 140.054 313.39 139.992C313.596 139.93 313.785 139.836 313.957 139.711C314.135 139.579 314.286 139.437 314.409 139.284C314.76 138.848 314.92 138.432 314.891 138.037C314.867 137.635 314.627 137.249 314.168 136.881ZM315.175 135.965C315.626 136.328 315.955 136.701 316.162 137.083C316.382 137.464 316.503 137.843 316.524 138.219C316.545 138.595 316.482 138.964 316.335 139.325C316.201 139.684 316.008 140.02 315.757 140.333C315.529 140.617 315.244 140.867 314.902 141.083C314.567 141.305 314.195 141.455 313.786 141.532C313.389 141.608 312.97 141.6 312.528 141.509C312.093 141.41 311.661 141.188 311.232 140.843C310.366 140.146 309.933 139.33 309.931 138.394C309.943 137.457 310.352 136.487 311.16 135.483C311.745 134.756 312.368 134.198 313.029 133.807C313.704 133.416 314.393 133.185 315.095 133.116C315.806 133.052 316.519 133.148 317.237 133.402C317.968 133.655 318.689 134.061 319.401 134.622L318.599 135.774C318.201 135.465 317.798 135.213 317.392 135.018C316.992 134.816 316.593 134.686 316.195 134.63C315.797 134.573 315.398 134.593 314.997 134.69C314.603 134.792 314.206 134.988 313.806 135.277C314.297 135.396 314.753 135.626 315.175 135.965ZM323.106 143.893C322.082 145.165 321.062 145.956 320.046 146.265C319.037 146.567 318.121 146.387 317.3 145.726C316.478 145.065 316.107 144.209 316.185 143.158C316.27 142.1 316.824 140.935 317.849 139.662C318.358 139.03 318.866 138.517 319.375 138.123C319.896 137.728 320.404 137.454 320.899 137.301C321.401 137.154 321.882 137.122 322.342 137.205C322.81 137.293 323.247 137.502 323.654 137.829C324.476 138.491 324.845 139.35 324.76 140.408C324.681 141.459 324.13 142.621 323.106 143.893ZM321.742 142.796C322.058 142.403 322.332 142.018 322.563 141.642C322.795 141.265 322.959 140.912 323.056 140.583C323.166 140.252 323.2 139.95 323.157 139.675C323.114 139.401 322.973 139.168 322.733 138.975C322.493 138.782 322.231 138.69 321.946 138.701C321.669 138.718 321.378 138.813 321.071 138.985C320.778 139.156 320.472 139.395 320.153 139.702C319.842 140.014 319.528 140.367 319.212 140.759C318.896 141.152 318.619 141.534 318.38 141.905C318.148 142.282 317.978 142.636 317.867 142.966C317.77 143.295 317.743 143.597 317.786 143.871C317.836 144.151 317.981 144.388 318.221 144.581C318.461 144.774 318.72 144.862 318.997 144.845C319.274 144.829 319.559 144.735 319.852 144.564C320.159 144.391 320.472 144.151 320.79 143.845C321.109 143.538 321.426 143.188 321.742 142.796ZM326.322 146.59L329.256 148.951L328.282 150.161L325.348 147.8L326.322 146.59ZM330.744 156.276C331.232 155.758 331.799 155.256 332.443 154.768C333.087 154.28 333.749 153.836 334.43 153.438C335.123 153.037 335.803 152.692 336.468 152.4C337.147 152.108 337.755 151.896 338.292 151.765L334.812 148.965L335.725 147.831L340.775 151.895L339.967 152.898C339.511 152.974 338.954 153.131 338.296 153.368C337.638 153.605 336.944 153.916 336.216 154.3C335.493 154.677 334.768 155.124 334.041 155.64C333.321 156.163 332.673 156.738 332.096 157.364L330.744 156.276ZM344.035 160.736C343.011 162.009 341.991 162.799 340.976 163.108C339.967 163.41 339.051 163.23 338.229 162.569C337.408 161.908 337.036 161.052 337.115 160.001C337.2 158.943 337.754 157.778 338.778 156.506C339.287 155.873 339.796 155.36 340.304 154.966C340.826 154.571 341.334 154.297 341.828 154.144C342.33 153.997 342.811 153.965 343.272 154.048C343.739 154.137 344.177 154.345 344.584 154.673C345.406 155.334 345.774 156.193 345.689 157.251C345.611 158.302 345.059 159.464 344.035 160.736ZM342.672 159.639C342.988 159.246 343.262 158.862 343.493 158.485C343.724 158.108 343.889 157.755 343.986 157.426C344.096 157.095 344.13 156.793 344.087 156.519C344.044 156.245 343.902 156.011 343.662 155.818C343.422 155.625 343.16 155.534 342.876 155.544C342.599 155.561 342.307 155.656 342.001 155.828C341.707 155.999 341.401 156.238 341.082 156.545C340.771 156.857 340.457 157.21 340.141 157.603C339.825 157.995 339.548 158.377 339.309 158.748C339.078 159.125 338.907 159.479 338.797 159.809C338.7 160.138 338.673 160.44 338.716 160.714C338.766 160.994 338.911 161.231 339.151 161.424C339.391 161.617 339.649 161.705 339.926 161.689C340.203 161.672 340.489 161.578 340.782 161.407C341.089 161.234 341.401 160.995 341.72 160.688C342.039 160.381 342.356 160.032 342.672 159.639ZM350.195 162.602C349.663 163.264 349.082 163.636 348.454 163.717C347.832 163.804 347.249 163.628 346.704 163.189C346.435 162.973 346.223 162.73 346.068 162.462C345.918 162.186 345.834 161.896 345.814 161.593C345.795 161.29 345.84 160.973 345.95 160.642C346.074 160.31 346.267 159.981 346.53 159.653C347.069 158.984 347.646 158.61 348.261 158.53C348.889 158.449 349.476 158.628 350.022 159.067C350.567 159.505 350.864 160.038 350.911 160.663C350.972 161.287 350.733 161.934 350.195 162.602ZM349.159 161.769C349.469 161.383 349.628 161.038 349.634 160.731C349.654 160.424 349.54 160.171 349.293 159.972C349.046 159.773 348.774 159.716 348.478 159.801C348.188 159.879 347.888 160.111 347.577 160.496C347.267 160.881 347.102 161.228 347.083 161.535C347.069 161.835 347.185 162.085 347.432 162.284C347.68 162.483 347.948 162.544 348.239 162.466C348.542 162.386 348.849 162.154 349.159 161.769ZM353.936 162.487L355.191 163.496L344.843 167.622L343.589 166.613L353.936 162.487ZM352.252 170.475C351.719 171.137 351.139 171.508 350.51 171.59C349.889 171.677 349.306 171.501 348.76 171.062C348.491 170.846 348.282 170.599 348.133 170.323C347.978 170.055 347.89 169.769 347.871 169.466C347.851 169.162 347.897 168.845 348.007 168.515C348.13 168.183 348.324 167.853 348.587 167.526C349.125 166.857 349.702 166.483 350.317 166.403C350.946 166.322 351.533 166.5 352.078 166.939C352.624 167.378 352.92 167.91 352.968 168.536C353.029 169.16 352.79 169.806 352.252 170.475ZM351.215 169.641C351.526 169.256 351.684 168.91 351.691 168.604C351.711 168.297 351.597 168.044 351.35 167.845C351.102 167.646 350.831 167.589 350.535 167.674C350.244 167.752 349.944 167.983 349.634 168.369C349.324 168.754 349.159 169.101 349.139 169.408C349.125 169.708 349.242 169.958 349.489 170.157C349.736 170.356 350.005 170.416 350.295 170.338C350.599 170.259 350.905 170.027 351.215 169.641Z" fill="#89E159"/>
<defs>
<filter id="filter0_f_1108_4690" x="183" y="42" width="330" height="186" filterUnits="userSpaceOnUse" color-interpolation-filters="sRGB">
<feFlood flood-opacity="0" result="BackgroundImageFix"/>
<feBlend mode="normal" in="SourceGraphic" in2="BackgroundImageFix" result="shape"/>
<feGaussianBlur stdDeviation="10" result="effect1_foregroundBlur_1108_4690"/>
</filter>
<filter id="filter1_f_1108_4690" x="0" y="0" width="332" height="218" filterUnits="userSpaceOnUse" color-interpolation-filters="sRGB">
<feFlood flood-opacity="0" result="BackgroundImageFix"/>
<feBlend mode="normal" in="SourceGraphic" in2="BackgroundImageFix" result="shape"/>
<feGaussianBlur stdDeviation="10" result="effect1_foregroundBlur_1108_4690"/>
</filter>
<linearGradient id="paint0_linear_1108_4690" x1="158.5" y1="66.5" x2="225" y2="141" gradientUnits="userSpaceOnUse">
<stop stop-color="#1E4E4E"/>
<stop offset="1" stop-color="#1F2431"/>
</linearGradient>
<linearGradient id="paint1_linear_1108_4690" x1="470.02" y1="123.753" x2="257.009" y2="80.9563" gradientUnits="userSpaceOnUse">
<stop stop-color="#1E4E4E"/>
<stop offset="0.995101" stop-color="#1F2431"/>
</linearGradient>
<clipPath id="clip0_1108_4690">
<rect width="40" height="40" fill="white" transform="translate(231.043 31) rotate(36.9471)"/>
</clipPath>
</defs>
</svg>
