<svg width="452" height="177" viewBox="0 0 452 177" fill="none" xmlns="http://www.w3.org/2000/svg">
<g clip-path="url(#clip0_1111_1347)">
<g filter="url(#filter0_f_1111_1347)">
<path d="M473 100.278C403.603 70.2302 374.265 24.6209 303.739 57.3037L183 181.709C226.444 176.438 271.016 182.301 277.786 192H396.268L473 100.278Z" fill="#141B25"/>
</g>
<g filter="url(#filter1_f_1111_1347)">
<path d="M161.722 4L0 157.658C89.9839 148.188 144.158 146.347 182.187 182L291.973 55.601C293.687 -8.12851 212.07 11.7993 161.722 4Z" fill="#141B25"/>
</g>
<path d="M281.5 70.5001C283.1 13.3001 203 28.0002 156 21L34 134V138.5C118 130 157.99 140 193.49 172V167.5L281.5 70.5001Z" fill="#8990A5"/>
<path d="M383 184L450.5 95.4999V90.5C393.5 75.9999 411.058 49.4292 352 78.7218L298.5 158L315.5 167C354 162 377 167.8 383 177V184Z" fill="#8990A5"/>
<path d="M431.5 111.261C370 82.7609 344 39.5 281.5 70.5L193.5 167.5V172C232 167 271 172.8 277 182V177L431.5 111.261Z" fill="#8990A5"/>
<path d="M132.151 134.585C107.643 129.242 77.3782 128.771 36.8016 132.717L175.336 1.06016C186.291 2.65014 198.984 3.09479 211.935 3.54853C212.831 3.57993 213.729 3.61136 214.627 3.64323C228.73 4.14356 243.033 4.74886 255.808 6.9111C268.595 9.07545 279.715 12.78 287.53 19.3827C295.221 25.8813 299.812 35.2729 299.51 49.1036L193.427 166.092C175.774 150.36 156.925 139.988 132.151 134.585Z" fill="#1F2431"/>
<path d="M132.151 134.585C107.643 129.242 77.3782 128.771 36.8016 132.717L175.336 1.06016C186.291 2.65014 198.984 3.09479 211.935 3.54853C212.831 3.57993 213.729 3.61136 214.627 3.64323C228.73 4.14356 243.033 4.74886 255.808 6.9111C268.595 9.07545 279.715 12.78 287.53 19.3827C295.221 25.8813 299.812 35.2729 299.51 49.1036L193.427 166.092C175.774 150.36 156.925 139.988 132.151 134.585Z" fill="url(#paint0_linear_1111_1347)"/>
<path d="M132.151 134.585C107.643 129.242 77.3782 128.771 36.8016 132.717L175.336 1.06016C186.291 2.65014 198.984 3.09479 211.935 3.54853C212.831 3.57993 213.729 3.61136 214.627 3.64323C228.73 4.14356 243.033 4.74886 255.808 6.9111C268.595 9.07545 279.715 12.78 287.53 19.3827C295.221 25.8813 299.812 35.2729 299.51 49.1036L193.427 166.092C175.774 150.36 156.925 139.988 132.151 134.585Z" stroke="#89E159" stroke-width="2"/>
<path d="M196.049 166.178L301.114 50.3121C316.555 42.6785 329.69 39.6439 341.645 39.7829C353.644 39.9224 364.53 43.2598 375.444 48.4704C385.231 53.1424 394.996 59.297 405.605 65.9827C406.849 66.767 408.105 67.5586 409.374 68.356C421.144 75.751 433.991 83.6157 448.938 90.6359L382.012 176.261H278.016C277.139 175.113 275.847 174.075 274.256 173.134C272.448 172.065 270.194 171.087 267.577 170.204C262.344 168.438 255.57 167.026 247.811 166.063C233.004 164.226 214.502 164.014 196.049 166.178Z" fill="#1F2431"/>
<path d="M196.049 166.178L301.114 50.3121C316.555 42.6785 329.69 39.6439 341.645 39.7829C353.644 39.9224 364.53 43.2598 375.444 48.4704C385.231 53.1424 394.996 59.297 405.605 65.9827C406.849 66.767 408.105 67.5586 409.374 68.356C421.144 75.751 433.991 83.6157 448.938 90.6359L382.012 176.261H278.016C277.139 175.113 275.847 174.075 274.256 173.134C272.448 172.065 270.194 171.087 267.577 170.204C262.344 168.438 255.57 167.026 247.811 166.063C233.004 164.226 214.502 164.014 196.049 166.178Z" fill="url(#paint1_linear_1111_1347)"/>
<path d="M196.049 166.178L301.114 50.3121C316.555 42.6785 329.69 39.6439 341.645 39.7829C353.644 39.9224 364.53 43.2598 375.444 48.4704C385.231 53.1424 394.996 59.297 405.605 65.9827C406.849 66.767 408.105 67.5586 409.374 68.356C421.144 75.751 433.991 83.6157 448.938 90.6359L382.012 176.261H278.016C277.139 175.113 275.847 174.075 274.256 173.134C272.448 172.065 270.194 171.087 267.577 170.204C262.344 168.438 255.57 167.026 247.811 166.063C233.004 164.226 214.502 164.014 196.049 166.178Z" stroke="#89E159" stroke-width="2"/>
<g clip-path="url(#clip1_1111_1347)">
<path d="M226.221 32.8398C226.185 32.586 221.865 29.4189 221.865 29.4189L203.864 32.9366C203.864 32.9366 201.11 35.886 200.414 37.4663C200.022 38.3564 199.361 39.9899 199.244 42.4322C199.164 44.104 199.393 45.0268 199.393 45.0268L203.344 51.9596L211.951 60.0638L220.903 60.9196C220.903 60.9196 222.615 59.5325 223.402 58.1692C224.191 56.8034 224.656 55.6752 225.306 54.8736C225.955 54.072 228.934 51.131 229.942 48.1786C230.832 45.571 230.995 41.1538 229.588 37.7575C228.181 34.3612 226.221 32.8398 226.221 32.8398Z" fill="#F68561"/>
<path d="M209.76 62.5139C210.822 63.5978 212.514 64.8982 215.354 64.887C217.887 64.8767 219.567 64.1927 220.45 63.2064C221.492 62.0441 222.171 60.7971 222.592 60.0236C222.671 59.8785 222.74 59.7501 222.802 59.6421C223.194 58.9595 223.864 57.336 223.864 57.336C223.864 57.336 221.194 58.8005 219.16 58.9009C217.125 59.0013 213.067 58.1115 209.996 55.9617L209.887 55.886C206.874 53.7806 204.838 52.3586 203.141 50.2743C201.423 48.1651 199.233 43.6166 199.233 43.6166C199.233 43.6166 199.083 46.4363 200.498 49.6708C201.566 52.1128 202.482 53.2197 203.106 53.9549C203.582 54.5186 204.04 54.9656 204.486 55.4011C204.947 55.8513 205.395 56.2892 205.838 56.8311C206.357 57.4627 207.008 58.4874 207.659 59.5133C208.431 60.7283 209.204 61.9452 209.76 62.5139Z" fill="#8990A5"/>
<path d="M205.943 31.8256C205.833 31.8211 201.051 33.6091 200.789 33.905C200.526 34.2033 200.09 34.6734 200.305 35.1049C200.458 35.4114 200.818 35.3381 201.099 35.3185C201.379 35.2989 201.885 35.3389 202.423 35.4347C202.961 35.5304 203.73 35.9014 204.417 35.9805C205.436 36.0975 206.822 35.5756 206.822 35.5756L206.681 39.3648L204.911 40.4343C204.911 40.4343 204.953 41.2831 204.992 41.4138C205.061 41.6495 206.528 41.6539 207.95 40.7765C209.373 39.899 210.688 38.4052 210.688 38.4052C210.688 38.4052 211.151 39.8214 211.955 40.7344C212.76 41.6448 214.781 43.0126 215.017 42.9591C215.224 42.9119 216.687 41.1026 217.213 40.2002C217.739 39.2978 218.107 37.8577 218.107 37.8577C218.107 37.8577 218.977 38.7588 220.387 39.3226C221.797 39.8864 223.186 39.8639 223.439 39.6317C223.692 39.3996 223.487 38.1743 223.487 38.1743L221.364 34.9777L221.67 33.8431C221.67 33.8431 223.475 34.5205 224.934 34.1869C225.989 33.9439 227.619 33.8561 227.914 33.464C228.209 33.0719 227.512 32.6885 227.512 32.6885L220.534 30.7991L205.943 31.8256Z" fill="#1E4E4E"/>
<path d="M213.515 27.1902C216.181 26.9269 218.666 26.9346 221.732 28.1969C224.787 29.4541 226.324 31.1225 226.682 31.5092C227.042 31.8934 228.12 33.0599 227.923 33.119C227.837 33.1445 226.601 32.891 225.257 32.7954C223.914 32.6998 223.391 32.6041 223.068 32.5606C222.586 32.4949 221.899 32.389 221.69 32.7087C221.408 33.1458 221.949 33.5916 222.319 34.3671C222.69 35.1426 223.081 36.1987 223.274 37.1109C223.468 38.023 223.604 38.43 223.537 38.6806C223.464 38.9542 220.886 38.5601 219.661 37.5997C218.436 36.6393 218.273 35.6404 217.649 35.8558C217.026 36.0756 217.128 37.8688 216.455 39.2742C215.781 40.6795 214.864 41.8983 214.864 41.8983C214.864 41.8983 212.891 40.6331 212.262 39.671C211.314 38.2229 211.904 37.0993 211.1 36.6976C210.012 36.153 209.628 38.4412 207.478 39.9014C205.556 41.2089 204.945 40.9605 204.945 40.9605C204.945 40.9605 204.759 39.4872 204.814 38.801C204.869 38.1148 204.712 37.6215 205.391 36.568C206.07 35.5145 207.146 34.3379 206.694 33.9198C206.242 33.5016 205.351 34.4379 204.404 34.5273C203.457 34.6166 202.402 34.2458 201.773 34.2656C201.145 34.2898 200.316 34.5499 200.316 34.5499C200.316 34.5499 201.304 32.6537 203.766 30.9552C206.229 29.2566 209.43 27.5941 213.515 27.1902Z" fill="#89E159"/>
<path d="M214.194 20.1423C214.431 19.957 215.984 20.1123 216.478 20.5223C216.971 20.9323 216.759 21.0002 216.685 21.2495C216.611 21.4987 214.853 23.0776 214.63 24.5911C214.43 25.9539 214.547 26.781 215.614 27.5449C216.682 28.3088 211.969 29.6519 211.969 29.6519C211.969 29.6519 210.787 27.0071 211.542 24.3294C212.297 21.6517 213.823 20.4337 214.194 20.1423Z" fill="#89E159"/>
<path d="M220.32 55.2844C219.841 54.9594 218.943 55.2694 218.543 56.3058C218.211 57.1628 218.521 57.8064 218.926 58.0369C219.33 58.2699 220.095 57.9541 220.559 57.0516C220.908 56.3639 220.957 55.7165 220.32 55.2844ZM224.986 47.8019C224.232 47.489 223.671 48.3652 223.47 48.9224C223.268 49.4777 223.425 50.0692 223.902 50.2986C224.378 50.528 225.119 50.0571 225.387 49.4725C225.662 48.8891 225.683 48.0916 224.986 47.8019ZM226.056 39.4377C225.296 39.4917 225.009 40.2845 225.084 41.0171C225.16 41.7472 225.601 42.2471 226.136 42.2428C226.671 42.2386 227.245 41.2468 227.133 40.5642C227.023 39.879 226.639 39.3954 226.056 39.4377ZM219.892 42.9857C219.281 43.0386 218.816 43.803 218.854 44.6055C218.891 45.4081 219.303 46.1555 219.925 45.9782C220.547 45.8009 220.924 44.8215 220.92 44.1458C220.913 43.4683 220.412 42.9389 219.892 42.9857Z" fill="#DBE2F9"/>
<path d="M215.359 49.2308C214.706 49.3968 214.511 50.2078 214.543 50.8104C214.58 51.5035 215.196 52.385 215.841 52.3027C216.588 52.2081 216.942 51.3324 216.762 50.4071C216.625 49.7101 216.02 49.0592 215.359 49.2308ZM211.221 55.804C210.684 56.2171 210.537 56.8694 211.386 57.758C212.127 58.5302 212.859 58.4556 213.167 58.0148C213.377 57.7151 213.42 56.977 212.724 56.2386C212.167 55.6434 211.678 55.4515 211.221 55.804ZM206.242 48.8604C205.546 49.1039 205.439 50.0831 205.608 50.6952C205.801 51.3955 206.629 51.8966 207.153 51.6148C207.676 51.3355 207.871 50.567 207.648 49.8711C207.426 49.1727 206.831 48.6544 206.242 48.8604ZM203.256 41.9227C202.272 41.9726 202.138 43.0605 202.304 43.6351C202.491 44.2804 202.858 44.9159 203.644 44.8582C204.431 44.8005 204.619 43.5932 204.522 43.1137C204.428 42.6361 204.007 41.8855 203.256 41.9227Z" fill="#DBE2F9"/>
<path d="M211.006 43.9975C210.323 44.2391 210.066 45.215 210.269 45.7778C210.471 46.3405 210.948 46.9849 211.675 46.7884C212.403 46.5894 212.651 45.8135 212.483 45.1364C212.321 44.4587 211.727 43.746 211.006 43.9975Z" fill="#DBE2F9"/>
</g>
<line x1="300.074" y1="50.0672" x2="193.074" y2="168.067" stroke="#8990A5" stroke-width="0.2"/>
<path d="M160.162 53.2268L158.288 51.7834L154.683 56.4646L153.341 55.4312L156.945 50.75L155.082 49.3151L155.945 48.1947L161.025 52.1064L160.162 53.2268ZM159.451 55.5592C159.844 55.0489 160.262 54.6584 160.706 54.3877C161.158 54.1228 161.606 53.9614 162.051 53.9035C162.502 53.8383 162.938 53.8681 163.36 53.9929C163.788 54.1103 164.172 54.3 164.512 54.5619C165.311 55.1768 165.742 55.9029 165.804 56.74C165.873 57.5828 165.53 58.496 164.772 59.4796C164.715 59.5535 164.646 59.6357 164.565 59.7261C164.496 59.8149 164.43 59.8934 164.366 59.9617L160.539 57.015C160.217 57.5094 160.101 57.997 160.19 58.4779C160.292 58.9571 160.62 59.4103 161.175 59.8373C161.501 60.0878 161.819 60.286 162.131 60.4318C162.45 60.5834 162.713 60.6856 162.919 60.7386L162.251 61.9735C162.149 61.9535 162.014 61.9145 161.847 61.8564C161.693 61.7965 161.519 61.7159 161.326 61.6146C161.135 61.5263 160.935 61.4192 160.725 61.2933C160.516 61.1675 160.312 61.0277 160.112 60.8739C159.602 60.4811 159.215 60.0655 158.952 59.6272C158.694 59.1815 158.546 58.7316 158.507 58.2774C158.473 57.8159 158.537 57.3584 158.698 56.905C158.864 56.4441 159.115 55.9955 159.451 55.5592ZM163.806 57.958C163.948 57.7731 164.056 57.5794 164.13 57.3769C164.209 57.1669 164.242 56.9629 164.23 56.7649C164.23 56.5651 164.182 56.375 164.086 56.1946C164.002 56.0125 163.861 55.8445 163.661 55.6908C163.454 55.5314 163.241 55.4325 163.023 55.3943C162.811 55.3487 162.601 55.346 162.394 55.3864C162.193 55.4324 162.001 55.5139 161.816 55.6311C161.632 55.7482 161.463 55.8833 161.31 56.0363L163.806 57.958ZM168.181 60.7964C167.919 61.0899 167.647 61.3982 167.363 61.7213C167.084 62.037 166.81 62.3556 166.539 62.677C166.267 62.9984 166.005 63.3087 165.751 63.6079C165.497 63.9071 165.264 64.187 165.052 64.4475L163.754 63.4482C164.099 63.0307 164.477 62.5856 164.888 62.1129C165.305 61.6327 165.728 61.1518 166.158 60.67C166.601 60.1865 167.035 59.7141 167.461 59.2528C167.887 58.7914 168.288 58.3699 168.664 57.9883L169.829 58.8851C169.763 59.5525 169.638 60.3042 169.453 61.1401C169.275 61.9686 169.064 62.9077 168.821 63.9575C169.8 63.4509 170.686 62.9964 171.479 62.5938C172.278 62.1839 172.941 61.8814 173.468 61.6865L174.643 62.5918C174.371 63.0532 174.066 63.5487 173.729 64.0784C173.399 64.6137 173.053 65.1545 172.692 65.7006C172.336 66.2393 171.979 66.7715 171.621 67.2972C171.269 67.8154 170.936 68.2947 170.62 68.735L169.289 67.7101C169.741 67.0923 170.196 66.4475 170.655 65.7756C171.126 65.1021 171.585 64.4302 172.03 63.7601C171.748 63.8965 171.436 64.0503 171.092 64.2214C170.755 64.3983 170.416 64.5788 170.074 64.763C169.732 64.9472 169.399 65.1269 169.076 65.3021C168.758 65.4698 168.478 65.6193 168.236 65.7507L167.237 64.982C167.302 64.714 167.375 64.3985 167.454 64.0354C167.54 63.6781 167.629 63.3105 167.72 62.9327C167.81 62.5549 167.892 62.1816 167.964 61.8129C168.049 61.4425 168.121 61.1036 168.181 60.7964ZM181.477 67.8536L177.011 73.6552L175.668 72.6218L179.273 67.9406L177.132 66.2922L173.527 70.9734L172.185 69.9399L176.652 64.1383L181.477 67.8536ZM180.608 71.8486C181.001 71.3384 181.419 70.9479 181.863 70.6772C182.314 70.4122 182.763 70.2508 183.208 70.193C183.658 70.1277 184.095 70.1575 184.517 70.2823C184.945 70.3997 185.329 70.5894 185.669 70.8513C186.468 71.4663 186.898 72.1923 186.961 73.0294C187.03 73.8722 186.686 74.7854 185.929 75.769C185.872 75.843 185.803 75.9252 185.722 76.0156C185.653 76.1044 185.587 76.1829 185.523 76.2511L181.695 73.3045C181.374 73.7989 181.257 74.2865 181.347 74.7674C181.449 75.2466 181.777 75.6997 182.332 76.1268C182.657 76.3773 182.976 76.5755 183.288 76.7213C183.607 76.8728 183.87 76.9751 184.076 77.0281L183.408 78.2629C183.306 78.243 183.171 78.2039 183.004 78.1458C182.849 78.086 182.676 78.0054 182.483 77.904C182.292 77.8157 182.092 77.7087 181.882 77.5828C181.673 77.4569 181.468 77.3171 181.269 77.1634C180.758 76.7705 180.372 76.3549 180.108 75.9166C179.851 75.4709 179.702 75.021 179.663 74.5669C179.63 74.1054 179.694 73.6479 179.854 73.1944C180.021 72.7335 180.272 72.285 180.608 71.8486ZM184.963 74.2475C185.105 74.0626 185.213 73.8689 185.286 73.6663C185.366 73.4564 185.399 73.2524 185.387 73.0543C185.387 72.8546 185.339 72.6645 185.243 72.4841C185.159 72.3019 185.017 72.134 184.818 71.9803C184.611 71.8208 184.398 71.722 184.18 71.6838C183.968 71.6382 183.758 71.6355 183.55 71.6758C183.35 71.7218 183.157 71.8034 182.973 71.9205C182.789 72.0377 182.62 72.1728 182.467 72.3258L184.963 74.2475ZM191.116 79.9393C191.577 79.3403 191.799 78.7691 191.782 78.2256C191.772 77.6879 191.467 77.1884 190.868 76.7272C190.742 76.6304 190.604 76.5353 190.452 76.4419C190.313 76.3468 190.163 76.2665 190.001 76.201L187.447 79.5177C187.503 79.6902 187.599 79.8874 187.734 80.1094C187.882 80.3297 188.068 80.5253 188.289 80.6961C188.777 81.0719 189.261 81.1788 189.739 81.0168C190.224 80.8605 190.683 80.5014 191.116 79.9393ZM192.509 80.9762C192.167 81.4199 191.795 81.7811 191.392 82.0598C190.996 82.3442 190.588 82.5369 190.169 82.638C189.75 82.7391 189.32 82.7383 188.881 82.6357C188.449 82.5388 188.03 82.3337 187.623 82.0206C187.349 81.8099 187.124 81.583 186.946 81.3399C186.768 81.0969 186.636 80.8777 186.551 80.6825L184.817 82.9344L183.475 81.9009L189.376 74.2357C189.707 74.3724 190.097 74.5612 190.548 74.8022C190.999 75.0431 191.446 75.3343 191.89 75.676C192.348 76.029 192.704 76.4153 192.959 76.8348C193.213 77.2543 193.363 77.694 193.41 78.1538C193.469 78.6119 193.42 79.0808 193.263 79.5605C193.119 80.0384 192.867 80.5103 192.509 80.9762ZM194.43 85.5652C194.844 85.8841 195.175 86.1039 195.424 86.2246L196.568 84.7382C196.512 84.659 196.421 84.5543 196.298 84.4239C196.175 84.2935 196.028 84.1629 195.858 84.0319C195.71 83.918 195.55 83.8124 195.377 83.715C195.212 83.6233 195.044 83.5587 194.873 83.521C194.709 83.4891 194.547 83.5001 194.388 83.5541C194.234 83.6007 194.095 83.7053 193.97 83.868C193.725 84.186 193.654 84.4848 193.757 84.7642C193.865 85.0363 194.09 85.3033 194.43 85.5652ZM198.171 80.4769C198.615 80.8185 198.945 81.1615 199.163 81.5059C199.381 81.8503 199.502 82.1906 199.525 82.527C199.557 82.869 199.498 83.2127 199.35 83.558C199.215 83.9017 199.016 84.2436 198.755 84.5838L196.047 88.1002C195.806 87.9852 195.452 87.795 194.985 87.5296C194.519 87.2773 194.024 86.949 193.499 86.5447C193.151 86.2771 192.859 85.999 192.622 85.7103C192.385 85.4217 192.219 85.1237 192.126 84.8164C192.04 84.5148 192.03 84.2001 192.093 83.8723C192.165 83.5503 192.334 83.2154 192.602 82.8679C192.858 82.5351 193.137 82.3025 193.439 82.17C193.749 82.0432 194.069 81.995 194.399 82.0253C194.735 82.0482 195.07 82.1411 195.404 82.304C195.751 82.4652 196.083 82.6683 196.401 82.9131C196.549 83.027 196.696 83.1576 196.841 83.3051C196.993 83.4452 197.144 83.6085 197.294 83.7953L197.465 83.5734C197.585 83.4181 197.68 83.256 197.751 83.087C197.823 82.918 197.85 82.7447 197.834 82.5672C197.83 82.3879 197.774 82.2089 197.664 82.0302C197.562 81.8572 197.396 81.6824 197.167 81.5059C196.856 81.2667 196.554 81.0697 196.261 80.9148C195.968 80.7599 195.718 80.6493 195.509 80.5832L196.18 79.368C196.396 79.4398 196.689 79.5714 197.06 79.7628C197.431 79.9541 197.801 80.1922 198.171 80.4769ZM205.563 88.1829L203.689 86.7394L200.084 91.4206L198.742 90.3872L202.346 85.706L200.483 84.2711L201.345 83.1507L206.426 87.0625L205.563 88.1829ZM212.371 91.6398C210.075 93.3824 207.843 94.8439 205.673 96.0243C205.269 96.2432 204.898 96.4112 204.561 96.5283C204.223 96.6453 203.899 96.7075 203.587 96.7148C203.275 96.722 202.975 96.6678 202.687 96.5522C202.394 96.4439 202.092 96.2702 201.781 96.0311C201.574 95.8716 201.384 95.69 201.211 95.4862C201.045 95.2881 200.931 95.1233 200.867 94.9918L201.94 94.1037C202.126 94.4122 202.349 94.6661 202.608 94.8654C202.955 95.133 203.291 95.2558 203.614 95.2338C203.939 95.2248 204.309 95.1035 204.725 94.8698C204.929 93.7318 205.206 92.5312 205.554 91.268C205.91 90.0105 206.352 88.7252 206.88 87.412L208.311 88.5138C208.146 88.8814 207.975 89.2862 207.8 89.7283C207.632 90.176 207.465 90.6369 207.301 91.1109C207.142 91.5774 206.99 92.0497 206.846 92.5276C206.702 93.0056 206.578 93.4576 206.473 93.8838C207.217 93.4078 207.977 92.8798 208.753 92.2997C209.535 91.7122 210.279 91.1364 210.984 90.5722L212.371 91.6398ZM214.981 98.314C215.442 97.715 215.664 97.1437 215.647 96.6003C215.637 96.0625 215.332 95.563 214.733 95.1018C214.607 95.005 214.469 94.9099 214.317 94.8165C214.178 94.7214 214.028 94.6411 213.866 94.5756L211.312 97.8924C211.368 98.0648 211.464 98.262 211.599 98.484C211.747 98.7043 211.932 98.8999 212.154 99.0707C212.642 99.4465 213.126 99.5534 213.604 99.3915C214.089 99.2352 214.548 98.876 214.981 98.314ZM216.374 99.3509C216.032 99.7946 215.66 100.156 215.257 100.434C214.861 100.719 214.453 100.912 214.034 101.013C213.614 101.114 213.185 101.113 212.746 101.01C212.314 100.913 211.895 100.708 211.488 100.395C211.214 100.185 210.988 99.9576 210.81 99.7146C210.632 99.4715 210.501 99.2524 210.416 99.0571L208.682 101.309L207.34 100.276L213.241 92.6103C213.572 92.7471 213.962 92.9359 214.413 93.1768C214.864 93.4177 215.311 93.709 215.754 94.0506C216.213 94.4036 216.569 94.7899 216.824 95.2094C217.078 95.6289 217.228 96.0686 217.274 96.5284C217.334 96.9866 217.285 97.4554 217.128 97.9351C216.984 98.413 216.732 98.885 216.374 99.3509ZM218.295 103.94C218.709 104.259 219.04 104.479 219.289 104.599L220.433 103.113C220.376 103.034 220.286 102.929 220.163 102.799C220.039 102.668 219.893 102.538 219.723 102.407C219.575 102.293 219.415 102.187 219.242 102.09C219.077 101.998 218.909 101.933 218.738 101.896C218.574 101.864 218.412 101.875 218.253 101.929C218.099 101.975 217.96 102.08 217.835 102.243C217.59 102.561 217.519 102.859 217.622 103.139C217.73 103.411 217.955 103.678 218.295 103.94ZM222.036 98.8515C222.479 99.1932 222.81 99.5362 223.028 99.8805C223.246 100.225 223.367 100.565 223.39 100.902C223.422 101.244 223.363 101.587 223.215 101.933C223.08 102.276 222.881 102.618 222.619 102.958L219.912 106.475C219.671 106.36 219.317 106.17 218.85 105.904C218.384 105.652 217.889 105.324 217.364 104.919C217.016 104.652 216.724 104.374 216.487 104.085C216.25 103.796 216.084 103.498 215.991 103.191C215.905 102.889 215.894 102.575 215.958 102.247C216.03 101.925 216.199 101.59 216.467 101.243C216.723 100.91 217.002 100.677 217.304 100.545C217.614 100.418 217.934 100.37 218.264 100.4C218.6 100.423 218.934 100.516 219.268 100.679C219.616 100.84 219.948 101.043 220.266 101.288C220.414 101.402 220.561 101.532 220.706 101.68C220.858 101.82 221.009 101.983 221.159 102.17L221.33 101.948C221.45 101.793 221.545 101.631 221.616 101.462C221.688 101.293 221.715 101.119 221.699 100.942C221.695 100.763 221.639 100.584 221.529 100.405C221.427 100.232 221.261 100.057 221.031 99.8805C220.721 99.6414 220.419 99.4443 220.126 99.2894C219.833 99.1345 219.582 99.024 219.374 98.9579L220.045 97.7427C220.26 97.8145 220.554 97.946 220.925 98.1374C221.296 98.3288 221.666 98.5668 222.036 98.8515ZM142.208 72.2774C141.994 72.1123 141.781 71.9369 141.571 71.7513C141.36 71.5657 141.16 71.3821 140.97 71.2004C140.787 71.0245 140.616 70.8571 140.456 70.6983C140.301 70.5321 140.176 70.3886 140.08 70.2679L144.393 64.666C144.534 64.7275 144.702 64.8155 144.897 64.93C145.097 65.0371 145.303 65.1601 145.514 65.299C145.738 65.4363 145.964 65.5866 146.191 65.75C146.425 65.906 146.648 66.0666 146.863 66.2317C147.647 66.8353 148.146 67.4493 148.36 68.0736C148.58 68.6906 148.494 69.2542 148.101 69.7645C147.896 70.0307 147.647 70.2161 147.355 70.3207C147.062 70.4253 146.769 70.4468 146.474 70.3852C146.661 70.6937 146.765 71.0329 146.786 71.4028C146.808 71.7727 146.662 72.161 146.349 72.5677C145.899 73.152 145.322 73.4266 144.619 73.3915C143.921 73.3491 143.118 72.9777 142.208 72.2774ZM145 68.72C145.333 68.9762 145.644 69.1388 145.932 69.2078C146.228 69.2825 146.487 69.1756 146.709 68.8872C146.817 68.7467 146.868 68.6036 146.863 68.4579C146.865 68.3179 146.826 68.1765 146.748 68.0336C146.669 67.8908 146.558 67.7521 146.414 67.6178C146.276 67.476 146.122 67.3397 145.952 67.2087C145.819 67.1062 145.66 66.9903 145.477 66.8611C145.302 66.7375 145.156 66.6433 145.041 66.5783L143.991 67.9428L145 68.72ZM142.086 70.4165C142.163 70.4996 142.296 70.6254 142.485 70.794C142.686 70.9608 142.875 71.1125 143.053 71.2492C143.452 71.5566 143.824 71.7546 144.168 71.8429C144.52 71.937 144.815 71.8287 145.054 71.5181C145.288 71.2149 145.325 70.9139 145.167 70.615C145.021 70.3145 144.756 70.0162 144.371 69.7201L143.273 68.8746L142.086 70.4165ZM153.787 76.3861C153.433 76.8446 153.045 77.2112 152.622 77.4859C152.198 77.7605 151.762 77.937 151.313 78.0154C150.864 78.0937 150.409 78.073 149.947 77.9533C149.493 77.8393 149.059 77.6228 148.645 77.304C148.231 76.9851 147.911 76.6208 147.684 76.2109C147.458 75.8011 147.325 75.3691 147.286 74.915C147.247 74.4609 147.303 73.9911 147.452 73.5058C147.61 73.0261 147.865 72.5571 148.218 72.0986C148.571 71.6401 148.956 71.2772 149.374 71.0099C149.805 70.7409 150.245 70.5673 150.694 70.4889C151.15 70.4163 151.603 70.4407 152.051 70.5621C152.505 70.6761 152.936 70.8897 153.342 71.2029C153.749 71.516 154.066 71.8775 154.292 72.2874C154.531 72.6955 154.671 73.1266 154.71 73.5807C154.749 74.0349 154.69 74.5018 154.532 74.9814C154.388 75.4594 154.14 75.9276 153.787 76.3861ZM152.411 75.327C152.855 74.7502 153.08 74.1986 153.084 73.6722C153.102 73.1441 152.889 72.7093 152.446 72.3676C152.002 72.026 151.523 71.9285 151.01 72.0751C150.51 72.2199 150.038 72.5808 149.593 73.1576C149.144 73.7419 148.91 74.298 148.892 74.8261C148.881 75.3599 149.098 75.7976 149.542 76.1392C149.985 76.4809 150.46 76.5755 150.966 76.4232C151.48 76.2767 151.961 75.9113 152.411 75.327ZM156.844 74.4115C156.969 74.4485 157.116 74.5026 157.285 74.5738C157.454 74.645 157.631 74.7285 157.816 74.8242C158.002 74.9199 158.189 75.0286 158.378 75.1505C158.58 75.2707 158.773 75.4019 158.958 75.5443C159.276 75.7891 159.556 76.0521 159.799 76.3334C160.042 76.6146 160.22 76.9043 160.332 77.2026C160.444 77.5008 160.483 77.8019 160.449 78.1057C160.423 78.4153 160.298 78.7143 160.076 79.0027C159.837 79.3133 159.55 79.5103 159.215 79.5938C158.88 79.6773 158.561 79.6855 158.26 79.6182C158.496 80.0001 158.608 80.3814 158.598 80.7621C158.588 81.1428 158.437 81.5218 158.147 81.8989C157.913 82.2021 157.648 82.4097 157.349 82.5217C157.058 82.6394 156.744 82.6802 156.407 82.6442C156.083 82.6065 155.746 82.5005 155.397 82.3262C155.043 82.1593 154.688 81.9392 154.333 81.6659C153.904 81.3356 153.533 80.9912 153.22 80.6325C152.902 80.2813 152.672 79.975 152.532 79.7138L153.602 78.806C153.697 78.9734 153.868 79.2173 154.116 79.5378C154.37 79.8509 154.708 80.1697 155.129 80.4943C155.943 81.1206 156.532 81.1971 156.896 80.7238C157.027 80.5537 157.095 80.3884 157.101 80.228C157.107 80.0675 157.074 79.9187 157.003 79.7815C156.938 79.6369 156.841 79.5032 156.711 79.3802C156.588 79.2498 156.46 79.1334 156.327 79.0309L155.217 78.1768L155.986 77.1784L157.084 78.024C157.358 78.2347 157.628 78.3659 157.894 78.4179C158.173 78.4681 158.41 78.3674 158.604 78.116C158.763 77.9089 158.792 77.6722 158.691 77.4058C158.603 77.1378 158.389 76.8728 158.048 76.6109C157.901 76.497 157.74 76.3913 157.568 76.294C157.401 76.1892 157.233 76.0946 157.062 76.0103C156.899 75.9317 156.744 75.8654 156.597 75.8112C156.456 75.7497 156.341 75.7081 156.251 75.6865L156.844 74.4115ZM158.451 82.8576L159.117 83.3701C159.579 83.2434 160.016 83.0436 160.426 82.7706C160.85 82.4959 161.248 82.178 161.62 81.8168C161.998 81.4482 162.36 81.0552 162.705 80.6376C163.05 80.2201 163.383 79.8108 163.703 79.4098L167.863 82.6126L164.242 87.316L165.129 87.9993L163.019 90.7392L161.821 89.8168L163.086 88.1751L158.793 84.8697L157.528 86.5115L156.342 85.5976L158.451 82.8576ZM162.899 86.2826L165.667 82.6885L164.091 81.4756C163.843 81.7675 163.586 82.0638 163.319 82.3647C163.057 82.6583 162.777 82.9375 162.479 83.2026C162.187 83.4603 161.875 83.6971 161.543 83.9132C161.225 84.1276 160.882 84.3053 160.514 84.4463L162.899 86.2826ZM174.777 87.9361C172.481 89.6787 170.249 91.1402 168.08 92.3206C167.675 92.5395 167.305 92.7075 166.967 92.8246C166.63 92.9417 166.305 93.0038 165.993 93.0111C165.681 93.0184 165.381 92.9642 165.094 92.8485C164.8 92.7403 164.498 92.5666 164.187 92.3274C163.98 92.168 163.79 91.9864 163.617 91.7826C163.452 91.5845 163.337 91.4197 163.273 91.2882L164.346 90.4001C164.533 90.7086 164.755 90.9625 165.014 91.1618C165.362 91.4294 165.697 91.5522 166.02 91.5301C166.345 91.5212 166.715 91.3998 167.131 91.1661C167.336 90.0281 167.612 88.8275 167.961 87.5643C168.316 86.3069 168.758 85.0215 169.286 83.7084L170.717 84.8102C170.552 85.1777 170.382 85.5825 170.206 86.0246C170.038 86.4724 169.872 86.9332 169.707 87.4072C169.548 87.8738 169.397 88.346 169.252 88.824C169.108 89.3019 168.984 89.754 168.88 90.1802C169.623 89.7042 170.383 89.1761 171.159 88.5961C171.942 88.0086 172.685 87.4327 173.391 86.8685L174.777 87.9361ZM176.537 92.3124L179.229 91.3636L180.638 92.4483L176.62 93.7192C176.621 94.5443 176.597 95.3626 176.55 96.1741C176.515 96.9839 176.437 97.7128 176.315 98.3609L174.862 97.242C174.903 97.0503 174.937 96.823 174.963 96.5601C175.002 96.2955 175.032 96.0186 175.054 95.7296C175.09 95.4388 175.115 95.146 175.13 94.8512C175.145 94.5565 175.155 94.2756 175.16 94.0088C174.645 94.1423 174.105 94.3156 173.541 94.5287C172.989 94.7402 172.512 94.9386 172.111 95.1239L170.735 94.0648C171.017 93.9284 171.332 93.7942 171.681 93.6623C172.03 93.5305 172.393 93.4035 172.77 93.2813C173.152 93.1517 173.535 93.0287 173.92 92.9122C174.317 92.794 174.699 92.6878 175.066 92.5935L175.291 88.3316L176.766 89.4675L176.537 92.3124ZM180.084 99.7607C180.498 100.08 180.829 100.299 181.078 100.42L182.222 98.9337C182.165 98.8546 182.075 98.7498 181.952 98.6195C181.828 98.4891 181.682 98.3584 181.511 98.2275C181.364 98.1136 181.203 98.008 181.031 97.9106C180.866 97.8189 180.698 97.7542 180.527 97.7166C180.363 97.6846 180.201 97.6957 180.042 97.7497C179.888 97.7963 179.749 97.9009 179.623 98.0636C179.379 98.3816 179.308 98.6803 179.41 98.9598C179.519 99.2318 179.743 99.4988 180.084 99.7607ZM183.825 94.6724C184.268 95.0141 184.599 95.3571 184.817 95.7015C185.035 96.0458 185.155 96.3862 185.179 96.7225C185.21 97.0645 185.152 97.4082 185.004 97.7536C184.869 98.0972 184.67 98.4392 184.408 98.7793L181.701 102.296C181.46 102.181 181.105 101.991 180.638 101.725C180.173 101.473 179.678 101.145 179.153 100.74C178.805 100.473 178.513 100.195 178.276 99.9059C178.038 99.6173 177.873 99.3193 177.78 99.012C177.694 98.7103 177.683 98.3956 177.747 98.0679C177.818 97.7458 177.988 97.411 178.256 97.0634C178.512 96.7306 178.791 96.498 179.093 96.3656C179.403 96.2388 179.723 96.1906 180.053 96.2209C180.388 96.2438 180.723 96.3367 181.057 96.4996C181.404 96.6608 181.737 96.8638 182.055 97.1087C182.203 97.2225 182.35 97.3532 182.495 97.5007C182.646 97.6407 182.797 97.8041 182.948 97.9908L183.119 97.769C183.239 97.6137 183.334 97.4515 183.405 97.2825C183.476 97.1136 183.504 96.9403 183.487 96.7627C183.484 96.5835 183.427 96.4045 183.318 96.2257C183.215 96.0527 183.05 95.8779 182.82 95.7014C182.51 95.4623 182.208 95.2652 181.915 95.1103C181.622 94.9554 181.371 94.8449 181.163 94.7788L181.834 93.5636C182.049 93.6354 182.343 93.767 182.714 93.9583C183.084 94.1497 183.455 94.3877 183.825 94.6724Z" fill="#DBE2F9"/>
<path d="M131.767 90.3356C131.562 90.6018 131.305 90.8217 130.995 90.9951C130.69 91.1611 130.355 91.2978 129.99 91.4052C129.637 91.5109 129.262 91.593 128.864 91.6514C128.471 91.7025 128.081 91.7498 127.694 91.7934C127.49 91.8133 127.255 91.8439 126.987 91.8853C126.72 91.9267 126.46 91.9739 126.207 92.0267C125.954 92.0795 125.723 92.1428 125.513 92.2167C125.309 92.2832 125.166 92.3617 125.084 92.4521L128.501 95.0827L127.63 96.2142L122.738 92.4476C122.776 92.3828 122.827 92.3097 122.889 92.2283C122.957 92.1396 123.009 92.073 123.043 92.0287C123.316 91.6737 123.622 91.391 123.961 91.1806C124.313 90.9685 124.681 90.8042 125.065 90.6877C125.449 90.5712 125.844 90.4866 126.25 90.4339C126.655 90.3811 127.058 90.3321 127.458 90.2867C127.767 90.2533 128.065 90.2179 128.353 90.1804C128.641 90.143 128.904 90.0922 129.142 90.028C129.393 89.9621 129.618 89.8763 129.817 89.7705C130.022 89.6574 130.193 89.512 130.33 89.3346C130.626 88.95 130.725 88.591 130.629 88.2575C130.532 87.9239 130.325 87.6348 130.007 87.3899C129.8 87.2305 129.585 87.112 129.362 87.0345C129.139 86.9571 128.926 86.9049 128.722 86.878C128.527 86.8569 128.343 86.8508 128.171 86.8599C128.005 86.8615 127.876 86.8683 127.784 86.8802L127.845 85.4248C128.383 85.3682 128.928 85.4105 129.478 85.5519C130.042 85.6916 130.565 85.9465 131.045 86.3166C131.866 86.9486 132.318 87.6086 132.401 88.2967C132.497 88.983 132.286 89.6626 131.767 90.3356ZM138.072 95.1899C137.867 95.4562 137.61 95.676 137.299 95.8494C136.995 96.0154 136.66 96.1521 136.294 96.2595C135.942 96.3652 135.567 96.4473 135.168 96.5057C134.776 96.5568 134.386 96.6041 133.999 96.6478C133.795 96.6676 133.56 96.6982 133.292 96.7396C133.025 96.781 132.765 96.8282 132.512 96.881C132.259 96.9338 132.028 96.9971 131.818 97.071C131.614 97.1375 131.471 97.216 131.389 97.3064L134.806 99.937L133.935 101.068L129.043 97.3019C129.081 97.2371 129.131 97.164 129.194 97.0826C129.262 96.9939 129.313 96.9273 129.348 96.883C129.621 96.528 129.927 96.2453 130.266 96.0349C130.617 95.8228 130.985 95.6585 131.37 95.542C131.754 95.4255 132.149 95.3409 132.554 95.2882C132.96 95.2354 133.363 95.1864 133.763 95.1411C134.072 95.1076 134.37 95.0722 134.658 95.0348C134.946 94.9973 135.209 94.9465 135.447 94.8823C135.698 94.8164 135.923 94.7306 136.122 94.6248C136.327 94.5117 136.498 94.3664 136.634 94.1889C136.93 93.8043 137.03 93.4453 136.934 93.1118C136.837 92.7783 136.63 92.4891 136.312 92.2442C136.105 92.0848 135.89 91.9663 135.666 91.8889C135.443 91.8114 135.23 91.7592 135.027 91.7324C134.831 91.7112 134.648 91.7052 134.476 91.7142C134.31 91.7158 134.181 91.7226 134.089 91.7345L134.15 90.2791C134.688 90.2225 135.232 90.2648 135.783 90.4062C136.347 90.5459 136.869 90.8008 137.35 91.1709C138.171 91.8029 138.623 92.4629 138.706 93.151C138.801 93.8373 138.59 94.517 138.072 95.1899ZM140.416 100.034L143.4 102.331L142.452 103.563L139.468 101.265L140.416 100.034ZM153.054 106.725C152.849 106.991 152.591 107.211 152.281 107.385C151.977 107.551 151.642 107.687 151.276 107.795C150.924 107.9 150.549 107.983 150.15 108.041C149.758 108.092 149.368 108.139 148.981 108.183C148.777 108.203 148.542 108.233 148.274 108.275C148.007 108.316 147.747 108.363 147.494 108.416C147.241 108.469 147.01 108.532 146.8 108.606C146.595 108.673 146.453 108.751 146.371 108.842L149.788 111.472L148.917 112.604L144.025 108.837C144.063 108.772 144.113 108.699 144.176 108.618C144.244 108.529 144.295 108.463 144.33 108.418C144.603 108.063 144.909 107.781 145.248 107.57C145.599 107.358 145.967 107.194 146.351 107.077C146.736 106.961 147.131 106.876 147.536 106.823C147.942 106.771 148.345 106.722 148.745 106.676C149.054 106.643 149.352 106.607 149.64 106.57C149.928 106.533 150.191 106.482 150.429 106.418C150.68 106.352 150.905 106.266 151.104 106.16C151.309 106.047 151.48 105.902 151.616 105.724C151.912 105.34 152.012 104.981 151.915 104.647C151.819 104.313 151.612 104.024 151.294 103.779C151.087 103.62 150.871 103.502 150.648 103.424C150.425 103.347 150.212 103.294 150.009 103.268C149.813 103.246 149.63 103.24 149.458 103.249C149.292 103.251 149.163 103.258 149.071 103.27L149.131 101.814C149.67 101.758 150.214 101.8 150.765 101.941C151.329 102.081 151.851 102.336 152.332 102.706C153.153 103.338 153.605 103.998 153.687 104.686C153.783 105.373 153.572 106.052 153.054 106.725ZM158.026 110.006C157.684 110.084 157.322 110.17 156.942 110.266C156.569 110.368 156.192 110.484 155.809 110.613C155.427 110.743 155.046 110.886 154.667 111.041C154.293 111.19 153.935 111.349 153.591 111.521L155.643 113.101L158.026 110.006ZM160.608 109.361L156.952 114.108L157.818 114.775L156.972 115.873L156.107 115.207L154.689 117.048L153.38 116.04L154.798 114.199L151.426 111.602L152.16 110.648C152.558 110.437 153.042 110.214 153.611 109.981C154.187 109.753 154.797 109.534 155.442 109.323C156.087 109.113 156.744 108.924 157.415 108.757C158.085 108.59 158.724 108.464 159.332 108.378L160.608 109.361ZM163.022 114.541C163.175 114.341 163.307 114.148 163.415 113.961C163.53 113.766 163.606 113.583 163.644 113.412C163.681 113.241 163.68 113.081 163.641 112.933C163.602 112.785 163.512 112.657 163.372 112.549C163.083 112.327 162.778 112.31 162.457 112.498C162.135 112.686 161.821 112.98 161.513 113.379C161.2 113.786 160.993 114.169 160.894 114.528C160.794 114.887 160.888 115.178 161.177 115.4C161.317 115.508 161.464 115.562 161.617 115.562C161.77 115.562 161.925 115.522 162.081 115.442C162.237 115.362 162.394 115.242 162.553 115.081C162.712 114.921 162.868 114.741 163.022 114.541ZM160.515 112.611C161.073 111.886 161.654 111.444 162.259 111.286C162.872 111.133 163.455 111.27 164.01 111.697C164.564 112.124 164.842 112.651 164.844 113.276C164.853 113.907 164.578 114.585 164.02 115.31C163.456 116.042 162.868 116.484 162.256 116.637C161.651 116.796 161.071 116.661 160.517 116.234C159.962 115.807 159.68 115.278 159.671 114.647C159.67 114.022 159.951 113.343 160.515 112.611ZM164.185 124.625C163.609 124.181 163.159 123.693 162.837 123.163C162.516 122.632 162.327 122.075 162.271 121.49C162.22 120.897 162.301 120.288 162.512 119.661C162.723 119.035 163.077 118.4 163.572 117.757C164.068 117.113 164.602 116.618 165.176 116.27C165.757 115.929 166.349 115.719 166.951 115.64C167.559 115.555 168.16 115.6 168.755 115.775C169.35 115.951 169.911 116.241 170.436 116.645C170.754 116.89 171.022 117.138 171.241 117.389C171.466 117.632 171.651 117.858 171.798 118.065C171.945 118.272 172.056 118.458 172.13 118.621C172.204 118.784 172.256 118.901 172.285 118.97L170.995 119.797C170.903 119.549 170.728 119.249 170.469 118.897C170.223 118.543 169.908 118.218 169.523 117.921C169.191 117.665 168.835 117.485 168.455 117.382C168.081 117.27 167.699 117.247 167.308 117.311C166.924 117.381 166.539 117.544 166.154 117.8C165.768 118.057 165.398 118.414 165.045 118.873C164.732 119.28 164.489 119.687 164.316 120.096C164.15 120.51 164.066 120.917 164.065 121.316C164.069 121.708 164.165 122.089 164.353 122.457C164.546 122.818 164.85 123.158 165.264 123.476C165.76 123.858 166.2 124.12 166.584 124.263C166.975 124.399 167.289 124.488 167.527 124.53L167.025 125.963C166.89 125.954 166.723 125.919 166.522 125.859C166.329 125.804 166.106 125.726 165.853 125.626C165.606 125.518 165.342 125.38 165.06 125.21C164.773 125.048 164.481 124.853 164.185 124.625Z" fill="#89E159"/>
<path d="M321.249 87.2965C321.038 87.1268 320.83 86.9469 320.623 86.7568C320.417 86.5667 320.221 86.3788 320.035 86.1932C319.856 86.0134 319.688 85.8424 319.531 85.6801C319.38 85.5106 319.258 85.3645 319.165 85.2418L323.597 79.7338C323.737 79.7984 323.903 79.8899 324.095 80.0086C324.293 80.1199 324.496 80.2473 324.704 80.3908C324.925 80.5328 325.148 80.6879 325.372 80.8562C325.602 81.0172 325.822 81.1826 326.033 81.3523C326.804 81.9725 327.289 82.5971 327.49 83.2259C327.697 83.8474 327.598 84.4091 327.194 84.9108C326.984 85.1725 326.731 85.3526 326.436 85.4508C326.142 85.5491 325.848 85.5643 325.555 85.4964C325.735 85.8088 325.832 86.1502 325.845 86.5205C325.859 86.8907 325.705 87.2758 325.383 87.6758C324.92 88.2502 324.338 88.5123 323.636 88.4622C322.939 88.4048 322.144 88.0162 321.249 87.2965ZM324.117 83.7999C324.444 84.0632 324.751 84.2325 325.038 84.3076C325.332 84.3887 325.594 84.2874 325.822 84.0038C325.933 83.8657 325.987 83.7237 325.985 83.5779C325.99 83.438 325.954 83.2958 325.879 83.1513C325.804 83.0067 325.695 82.8658 325.554 82.7283C325.419 82.5836 325.268 82.444 325.101 82.3094C324.97 82.2041 324.814 82.0848 324.634 81.9517C324.461 81.8244 324.318 81.727 324.204 81.6596L323.124 83.0012L324.117 83.7999ZM321.167 85.4334C321.243 85.5182 321.373 85.6468 321.557 85.8193C321.755 85.9905 321.941 86.1462 322.116 86.2867C322.508 86.6026 322.876 86.8085 323.218 86.9042C323.568 87.0058 323.865 86.9039 324.111 86.5985C324.351 86.3004 324.395 86.0003 324.243 85.6981C324.104 85.3945 323.845 85.0906 323.467 84.7863L322.387 83.9173L321.167 85.4334ZM331.227 87.5447C330.962 87.8588 330.682 88.1845 330.386 88.5218C330.097 88.8519 329.788 89.1607 329.461 89.4484C329.141 89.7419 328.8 89.9946 328.438 90.2063C328.076 90.4181 327.69 90.5627 327.28 90.6403C326.883 90.7164 326.461 90.7122 326.014 90.6278C325.58 90.542 325.124 90.3425 324.645 90.0292L325.346 88.7784C325.775 89.0041 326.156 89.1189 326.489 89.1228C326.827 89.1194 327.153 89.0343 327.467 88.8676C327.706 88.7488 327.944 88.5869 328.181 88.3821C328.425 88.1831 328.663 87.9615 328.895 87.7173C329.141 87.4717 329.379 87.2136 329.608 86.9432C329.838 86.6727 330.058 86.4066 330.269 86.1448L330.839 85.4359L334.875 88.6835L330.284 94.3878L328.965 93.3257L332.677 88.7121L331.227 87.5447ZM334.72 96.4299C335.127 96.7576 335.454 96.9844 335.7 97.1105L336.876 95.649C336.821 95.5687 336.733 95.462 336.612 95.329C336.492 95.196 336.348 95.0622 336.18 94.9276C336.035 94.8106 335.877 94.7016 335.707 94.6005C335.544 94.5053 335.377 94.437 335.207 94.3957C335.044 94.3603 334.882 94.3678 334.721 94.4184C334.567 94.4616 334.425 94.5633 334.296 94.7232C334.045 95.0359 333.967 95.333 334.064 95.6146C334.167 95.889 334.385 96.1607 334.72 96.4299ZM338.569 91.4231C339.006 91.7742 339.329 92.1243 339.539 92.4732C339.75 92.8222 339.863 93.1651 339.88 93.5019C339.903 93.8445 339.838 94.1868 339.682 94.5289C339.54 94.8696 339.334 95.2072 339.065 95.5416L336.282 98.9991C336.044 98.8789 335.694 98.6811 335.232 98.4057C334.773 98.1435 334.284 97.8046 333.768 97.3892C333.426 97.1141 333.14 96.8298 332.909 96.5362C332.678 96.2425 332.52 95.941 332.433 95.6318C332.354 95.3284 332.35 95.0135 332.42 94.6872C332.499 94.3667 332.675 94.0356 332.95 93.6939C333.214 93.3667 333.498 93.1401 333.803 93.0142C334.115 92.8941 334.436 92.8528 334.765 92.8902C335.1 92.9203 335.433 93.0204 335.763 93.1904C336.107 93.359 336.435 93.5691 336.748 93.8208C336.893 93.9378 337.037 94.0716 337.179 94.2221C337.328 94.3654 337.475 94.532 337.622 94.7219L337.797 94.5038C337.92 94.3511 338.019 94.191 338.094 94.0236C338.169 93.8562 338.2 93.6836 338.187 93.5057C338.188 93.3264 338.135 93.1463 338.029 92.9652C337.931 92.79 337.769 92.6117 337.543 92.4303C337.238 92.1845 336.94 91.9811 336.651 91.8199C336.361 91.6587 336.113 91.5428 335.906 91.4723L336.603 90.2717C336.817 90.3482 337.107 90.486 337.474 90.6853C337.841 90.8846 338.206 91.1306 338.569 91.4231ZM337.062 99.8425C337.847 99.5518 338.662 99.3209 339.507 99.1499C340.357 98.9716 341.179 98.8363 341.972 98.7438C341.914 97.9667 341.874 97.1912 341.85 96.4171C341.832 95.6358 341.831 94.9288 341.849 94.2962L343.365 95.5163C343.345 96.0031 343.335 96.5518 343.334 97.1626C343.341 97.7792 343.35 98.535 343.361 99.43L345.274 97.0523L346.55 98.0793L344.637 100.457C345.522 100.295 346.266 100.145 346.868 100.006C347.471 99.8683 348.004 99.7408 348.47 99.6241L349.964 100.827C349.372 100.997 348.695 101.153 347.934 101.295C347.18 101.443 346.41 101.566 345.624 101.665C345.717 102.531 345.762 103.375 345.758 104.199C345.762 105.028 345.706 105.864 345.592 106.706L344.119 105.521C344.149 105.186 344.174 104.828 344.192 104.448C344.218 104.074 344.23 103.694 344.228 103.309C344.24 102.923 344.235 102.542 344.214 102.166C344.193 101.789 344.164 101.431 344.128 101.09L341.96 103.784L340.683 102.757L342.851 100.063C342.504 100.107 342.142 100.163 341.764 100.23C341.387 100.297 341.007 100.375 340.625 100.463C340.255 100.549 339.89 100.639 339.528 100.731C339.174 100.829 338.843 100.928 338.535 101.027L337.062 99.8425ZM351.315 111.313L349.996 110.25L351.918 107.862L349.769 106.133L347.847 108.521L346.527 107.459L351.118 101.755L352.437 102.817L350.647 105.042L352.795 106.771L354.586 104.546L355.906 105.608L351.315 111.313ZM360.451 113.956C360.088 114.407 359.692 114.765 359.263 115.031C358.834 115.296 358.394 115.463 357.943 115.532C357.492 115.601 357.038 115.57 356.579 115.441C356.127 115.317 355.698 115.091 355.291 114.764C354.884 114.436 354.571 114.065 354.354 113.65C354.136 113.236 354.013 112.801 353.984 112.346C353.954 111.891 354.02 111.423 354.18 110.941C354.348 110.464 354.613 110.001 354.976 109.55C355.339 109.099 355.732 108.745 356.155 108.487C356.592 108.227 357.035 108.063 357.486 107.994C357.944 107.931 358.396 107.965 358.841 108.096C359.293 108.22 359.718 108.443 360.118 108.765C360.518 109.087 360.827 109.455 361.044 109.869C361.275 110.283 361.405 110.717 361.434 111.171C361.464 111.626 361.394 112.092 361.227 112.568C361.072 113.043 360.814 113.506 360.451 113.956ZM359.099 112.868C359.555 112.301 359.791 111.754 359.807 111.228C359.837 110.7 359.633 110.261 359.197 109.91C358.76 109.559 358.284 109.451 357.768 109.587C357.264 109.721 356.785 110.071 356.328 110.639C355.866 111.213 355.62 111.764 355.591 112.292C355.569 112.825 355.776 113.267 356.212 113.618C356.649 113.969 357.121 114.074 357.631 113.933C358.147 113.797 358.636 113.442 359.099 112.868ZM361.486 114.807C361.825 114.385 362.206 114.045 362.63 113.787C363.059 113.521 363.502 113.351 363.958 113.275C364.422 113.205 364.89 113.234 365.362 113.362C365.834 113.49 366.288 113.73 366.724 114.081C367.262 114.514 367.692 115.022 368.014 115.604L366.862 116.456C366.762 116.267 366.631 116.072 366.47 115.871C366.316 115.675 366.13 115.489 365.912 115.314C365.395 114.898 364.871 114.746 364.339 114.857C363.812 114.96 363.312 115.306 362.838 115.895C362.382 116.462 362.146 117.016 362.131 117.555C362.122 118.087 362.42 118.596 363.023 119.081C363.249 119.263 363.488 119.419 363.741 119.551C363.995 119.683 364.228 119.781 364.44 119.844L363.748 121.084C363.544 121.04 363.269 120.927 362.925 120.745C362.587 120.569 362.262 120.355 361.949 120.104C361.462 119.712 361.095 119.297 360.848 118.859C360.615 118.419 360.484 117.972 360.454 117.517C360.438 117.061 360.518 116.604 360.695 116.147C360.877 115.683 361.14 115.236 361.486 114.807ZM372.795 121.015L370.952 119.532L367.248 124.134L365.928 123.072L369.632 118.47L367.8 116.995L368.686 115.894L373.682 119.914L372.795 121.015ZM374.293 123.874C374.426 123.933 374.606 124.036 374.835 124.184C375.063 124.332 375.283 124.49 375.493 124.66C375.821 124.923 376.097 125.206 376.322 125.506C376.554 125.813 376.711 126.131 376.794 126.461C376.882 126.784 376.888 127.118 376.812 127.465C376.743 127.804 376.574 128.141 376.305 128.476C376.029 128.817 375.737 129.061 375.428 129.208C375.118 129.354 374.793 129.416 374.452 129.393C374.111 129.37 373.759 129.272 373.395 129.099C373.038 128.932 372.674 128.699 372.304 128.401C371.875 128.055 371.492 127.712 371.156 127.37C370.821 127.028 370.499 126.661 370.191 126.269L374.667 120.707L375.987 121.769L374.293 123.874ZM373.105 127.338C373.475 127.637 373.818 127.799 374.133 127.824C374.461 127.849 374.751 127.704 375.002 127.392C375.131 127.232 375.203 127.068 375.218 126.9C375.24 126.739 375.22 126.578 375.156 126.419C375.105 126.259 375.016 126.103 374.886 125.951C374.757 125.799 374.609 125.655 374.441 125.521C374.289 125.398 374.123 125.276 373.944 125.156C373.771 125.029 373.618 124.936 373.486 124.877L372.178 126.502C372.261 126.593 372.387 126.719 372.557 126.88C372.74 127.039 372.923 127.192 373.105 127.338ZM315.864 99.0568L311.274 104.761L309.954 103.699L313.658 99.0963L311.553 97.4023L307.849 102.005L306.529 100.943L311.12 95.2386L315.864 99.0568ZM320.411 107.406C320.048 107.856 319.652 108.215 319.222 108.48C318.793 108.746 318.353 108.913 317.903 108.981C317.452 109.05 316.997 109.02 316.538 108.89C316.087 108.766 315.658 108.541 315.25 108.213C314.843 107.885 314.531 107.514 314.314 107.099C314.096 106.685 313.973 106.25 313.943 105.795C313.914 105.34 313.98 104.872 314.14 104.39C314.307 103.914 314.573 103.45 314.935 102.999C315.298 102.549 315.691 102.194 316.115 101.936C316.551 101.676 316.995 101.512 317.446 101.443C317.903 101.381 318.355 101.415 318.801 101.546C319.252 101.669 319.678 101.892 320.078 102.214C320.478 102.536 320.787 102.904 321.004 103.319C321.235 103.732 321.365 104.166 321.394 104.621C321.423 105.076 321.354 105.541 321.186 106.017C321.032 106.492 320.773 106.955 320.411 107.406ZM319.058 106.317C319.515 105.75 319.751 105.203 319.767 104.677C319.796 104.15 319.593 103.71 319.156 103.359C318.72 103.008 318.244 102.9 317.727 103.036C317.224 103.17 316.744 103.521 316.288 104.088C315.826 104.662 315.58 105.213 315.551 105.741C315.529 106.274 315.736 106.717 316.172 107.068C316.608 107.419 317.081 107.524 317.59 107.382C318.107 107.247 318.596 106.892 319.058 106.317ZM323.588 108.184C323.307 108.533 323.206 108.859 323.286 109.162C323.378 109.464 323.599 109.756 323.948 110.037C324.115 110.171 324.285 110.296 324.456 110.41C324.641 110.523 324.807 110.614 324.954 110.685L327.06 108.067L328.38 109.129L323.79 114.833L322.47 113.771L324.111 111.732C323.963 111.648 323.769 111.54 323.528 111.406C323.294 111.266 323.093 111.128 322.926 110.994C322.584 110.718 322.298 110.434 322.067 110.14C321.844 109.853 321.691 109.551 321.611 109.234C321.536 108.91 321.546 108.577 321.642 108.235C321.744 107.885 321.949 107.518 322.26 107.133L323.69 105.355L325.01 106.417L323.588 108.184ZM327.648 118.118C327.437 117.948 327.228 117.768 327.022 117.578C326.816 117.388 326.619 117.2 326.433 117.015C326.255 116.835 326.087 116.664 325.93 116.502C325.779 116.332 325.657 116.186 325.564 116.063L329.996 110.555C330.136 110.62 330.302 110.711 330.494 110.83C330.692 110.941 330.895 111.069 331.103 111.212C331.324 111.354 331.547 111.509 331.771 111.678C332 111.839 332.221 112.004 332.432 112.174C333.202 112.794 333.688 113.419 333.889 114.047C334.096 114.669 333.997 115.231 333.593 115.732C333.383 115.994 333.13 116.174 332.835 116.272C332.54 116.371 332.247 116.386 331.954 116.318C332.134 116.63 332.23 116.972 332.244 117.342C332.257 117.712 332.103 118.097 331.781 118.497C331.319 119.072 330.737 119.334 330.034 119.284C329.338 119.226 328.542 118.838 327.648 118.118ZM330.516 114.621C330.843 114.885 331.15 115.054 331.437 115.129C331.731 115.21 331.992 115.109 332.221 114.825C332.332 114.687 332.386 114.545 332.384 114.399C332.388 114.259 332.353 114.117 332.278 113.973C332.202 113.828 332.094 113.687 331.953 113.55C331.818 113.405 331.667 113.265 331.5 113.131C331.369 113.026 331.213 112.906 331.033 112.773C330.86 112.646 330.716 112.548 330.603 112.481L329.523 113.823L330.516 114.621ZM327.566 116.255C327.641 116.34 327.772 116.468 327.956 116.641C328.154 116.812 328.34 116.968 328.515 117.108C328.907 117.424 329.275 117.63 329.617 117.726C329.966 117.827 330.264 117.725 330.51 117.42C330.75 117.122 330.794 116.822 330.642 116.52C330.502 116.216 330.244 115.912 329.866 115.608L328.786 114.739L327.566 116.255ZM338.624 126.772L337.305 125.71L341.895 120.005L343.215 121.067L338.624 126.772ZM335.893 118.643C336.026 118.702 336.202 118.802 336.423 118.944C336.652 119.092 336.864 119.245 337.061 119.403C337.373 119.655 337.638 119.928 337.856 120.223C338.081 120.524 338.231 120.836 338.306 121.16C338.394 121.483 338.397 121.814 338.314 122.155C338.245 122.495 338.075 122.831 337.806 123.166C337.531 123.508 337.239 123.752 336.93 123.898C336.62 124.044 336.298 124.109 335.965 124.092C335.631 124.075 335.286 123.983 334.929 123.816C334.58 123.654 334.227 123.43 333.871 123.144C333.456 122.81 333.081 122.472 332.745 122.13C332.417 121.794 332.099 121.43 331.791 121.039L336.267 115.476L337.587 116.538L335.893 118.643ZM334.672 122.081C335.014 122.356 335.338 122.504 335.646 122.523C335.966 122.542 336.252 122.395 336.504 122.082C336.633 121.922 336.708 121.761 336.731 121.6C336.753 121.438 336.732 121.277 336.669 121.118C336.618 120.958 336.532 120.805 336.41 120.658C336.295 120.518 336.161 120.387 336.009 120.264C335.87 120.153 335.712 120.037 335.533 119.917C335.367 119.795 335.218 119.705 335.086 119.647L333.778 121.272C333.861 121.362 333.987 121.488 334.157 121.649C334.333 121.803 334.505 121.947 334.672 122.081Z" fill="#DBE2F9"/>
<path d="M294.168 120.88C293.958 120.711 293.739 120.565 293.514 120.443C293.288 120.322 293.066 120.233 292.848 120.177C292.794 120.229 292.734 120.289 292.668 120.356C292.615 120.421 292.563 120.486 292.51 120.552C292.276 120.843 292.072 121.134 291.897 121.425C291.736 121.714 291.624 121.995 291.56 122.268C291.51 122.539 291.522 122.8 291.595 123.051C291.682 123.3 291.853 123.527 292.107 123.732C292.318 123.902 292.531 124.001 292.747 124.031C292.97 124.067 293.184 124.054 293.39 123.991C293.596 123.929 293.785 123.836 293.957 123.711C294.135 123.579 294.286 123.437 294.409 123.284C294.76 122.848 294.92 122.432 294.891 122.037C294.867 121.634 294.627 121.249 294.168 120.88ZM295.175 119.965C295.626 120.328 295.955 120.7 296.162 121.083C296.382 121.464 296.503 121.842 296.524 122.219C296.545 122.595 296.482 122.963 296.335 123.324C296.201 123.684 296.008 124.02 295.757 124.333C295.529 124.616 295.244 124.866 294.902 125.083C294.567 125.305 294.195 125.454 293.786 125.532C293.389 125.608 292.97 125.6 292.528 125.509C292.093 125.41 291.661 125.188 291.232 124.842C290.366 124.146 289.933 123.33 289.931 122.394C289.943 121.457 290.352 120.487 291.16 119.483C291.745 118.756 292.368 118.197 293.029 117.807C293.704 117.416 294.393 117.185 295.095 117.116C295.806 117.052 296.519 117.148 297.237 117.402C297.968 117.655 298.689 118.061 299.401 118.621L298.599 119.774C298.201 119.465 297.798 119.213 297.392 119.018C296.992 118.816 296.593 118.686 296.195 118.63C295.797 118.573 295.398 118.593 294.997 118.69C294.603 118.792 294.206 118.988 293.806 119.277C294.297 119.396 294.753 119.625 295.175 119.965ZM303.106 127.893C302.082 129.165 301.062 129.956 300.046 130.265C299.037 130.567 298.121 130.387 297.3 129.726C296.478 129.064 296.107 128.208 296.185 127.158C296.27 126.1 296.824 124.935 297.849 123.662C298.358 123.029 298.866 122.516 299.375 122.123C299.896 121.728 300.404 121.454 300.899 121.301C301.401 121.154 301.882 121.121 302.342 121.204C302.81 121.293 303.247 121.501 303.654 121.829C304.476 122.49 304.845 123.35 304.76 124.408C304.681 125.459 304.13 126.62 303.106 127.893ZM301.742 126.796C302.058 126.403 302.332 126.018 302.563 125.641C302.795 125.264 302.959 124.911 303.056 124.582C303.166 124.252 303.2 123.949 303.157 123.675C303.114 123.401 302.973 123.167 302.733 122.974C302.493 122.781 302.231 122.69 301.946 122.701C301.669 122.718 301.378 122.812 301.071 122.985C300.778 123.156 300.472 123.395 300.153 123.702C299.842 124.014 299.528 124.367 299.212 124.759C298.896 125.152 298.619 125.534 298.38 125.905C298.148 126.282 297.978 126.635 297.867 126.966C297.77 127.295 297.743 127.597 297.786 127.871C297.836 128.151 297.981 128.387 298.221 128.58C298.461 128.774 298.72 128.862 298.997 128.845C299.274 128.828 299.559 128.734 299.852 128.563C300.159 128.391 300.472 128.151 300.79 127.845C301.109 127.538 301.426 127.188 301.742 126.796ZM306.322 130.589L309.256 132.95L308.282 134.161L305.348 131.8L306.322 130.589ZM310.744 140.276C311.232 139.758 311.799 139.255 312.443 138.767C313.087 138.28 313.749 137.836 314.43 137.437C315.123 137.037 315.803 136.691 316.468 136.4C317.147 136.108 317.755 135.896 318.292 135.765L314.812 132.965L315.725 131.831L320.775 135.895L319.967 136.898C319.511 136.974 318.954 137.13 318.296 137.368C317.638 137.605 316.944 137.915 316.216 138.3C315.493 138.676 314.768 139.123 314.041 139.64C313.321 140.163 312.673 140.737 312.096 141.364L310.744 140.276ZM324.035 144.736C323.011 146.008 321.991 146.799 320.976 147.108C319.967 147.41 319.051 147.23 318.229 146.569C317.408 145.908 317.036 145.052 317.115 144.001C317.2 142.943 317.754 141.778 318.778 140.505C319.287 139.873 319.796 139.36 320.304 138.966C320.826 138.571 321.334 138.297 321.828 138.144C322.33 137.997 322.811 137.965 323.272 138.048C323.739 138.136 324.177 138.345 324.584 138.672C325.406 139.334 325.774 140.193 325.689 141.251C325.611 142.302 325.059 143.463 324.035 144.736ZM322.672 143.639C322.988 143.246 323.262 142.861 323.493 142.485C323.724 142.108 323.889 141.755 323.986 141.426C324.096 141.095 324.13 140.793 324.087 140.518C324.044 140.244 323.902 140.011 323.662 139.818C323.422 139.624 323.16 139.533 322.876 139.544C322.599 139.561 322.307 139.655 322.001 139.828C321.707 139.999 321.401 140.238 321.082 140.545C320.771 140.857 320.457 141.21 320.141 141.602C319.825 141.995 319.548 142.377 319.309 142.748C319.078 143.125 318.907 143.478 318.797 143.809C318.7 144.138 318.673 144.44 318.716 144.714C318.766 144.994 318.911 145.231 319.151 145.424C319.391 145.617 319.649 145.705 319.926 145.688C320.203 145.672 320.489 145.578 320.782 145.407C321.089 145.234 321.401 144.994 321.72 144.688C322.039 144.381 322.356 144.031 322.672 143.639ZM330.195 146.602C329.663 147.264 329.082 147.635 328.454 147.717C327.832 147.804 327.249 147.628 326.704 147.189C326.435 146.973 326.223 146.73 326.068 146.461C325.918 146.185 325.834 145.896 325.814 145.593C325.795 145.289 325.84 144.972 325.95 144.642C326.074 144.31 326.267 143.98 326.53 143.653C327.069 142.984 327.646 142.61 328.261 142.53C328.889 142.449 329.476 142.627 330.022 143.066C330.567 143.505 330.864 144.037 330.911 144.663C330.972 145.287 330.733 145.933 330.195 146.602ZM329.159 145.768C329.469 145.383 329.628 145.037 329.634 144.731C329.654 144.424 329.54 144.17 329.293 143.972C329.046 143.773 328.774 143.716 328.478 143.801C328.188 143.879 327.888 144.11 327.577 144.496C327.267 144.881 327.102 145.228 327.083 145.535C327.069 145.835 327.185 146.085 327.432 146.284C327.68 146.483 327.948 146.543 328.239 146.465C328.542 146.386 328.849 146.154 329.159 145.768ZM333.936 146.486L335.191 147.496L324.843 151.622L323.589 150.613L333.936 146.486ZM332.252 154.475C331.719 155.137 331.139 155.508 330.51 155.589C329.889 155.677 329.306 155.501 328.76 155.062C328.491 154.845 328.282 154.599 328.133 154.323C327.978 154.055 327.89 153.769 327.871 153.465C327.851 153.162 327.897 152.845 328.007 152.515C328.13 152.183 328.324 151.853 328.587 151.526C329.125 150.857 329.702 150.482 330.317 150.403C330.946 150.321 331.533 150.5 332.078 150.939C332.624 151.378 332.92 151.91 332.968 152.536C333.029 153.16 332.79 153.806 332.252 154.475ZM331.215 153.641C331.526 153.256 331.684 152.91 331.691 152.604C331.711 152.296 331.597 152.043 331.35 151.844C331.102 151.645 330.831 151.588 330.535 151.674C330.244 151.751 329.944 151.983 329.634 152.368C329.324 152.754 329.159 153.1 329.139 153.408C329.125 153.708 329.242 153.958 329.489 154.157C329.736 154.356 330.005 154.416 330.295 154.338C330.599 154.259 330.905 154.027 331.215 153.641Z" fill="#89E159"/>
</g>
<defs>
<filter id="filter0_f_1111_1347" x="163" y="26" width="330" height="186" filterUnits="userSpaceOnUse" color-interpolation-filters="sRGB">
<feFlood flood-opacity="0" result="BackgroundImageFix"/>
<feBlend mode="normal" in="SourceGraphic" in2="BackgroundImageFix" result="shape"/>
<feGaussianBlur stdDeviation="10" result="effect1_foregroundBlur_1111_1347"/>
</filter>
<filter id="filter1_f_1111_1347" x="-20" y="-16" width="332" height="218" filterUnits="userSpaceOnUse" color-interpolation-filters="sRGB">
<feFlood flood-opacity="0" result="BackgroundImageFix"/>
<feBlend mode="normal" in="SourceGraphic" in2="BackgroundImageFix" result="shape"/>
<feGaussianBlur stdDeviation="10" result="effect1_foregroundBlur_1111_1347"/>
</filter>
<linearGradient id="paint0_linear_1111_1347" x1="138.5" y1="50.5" x2="205" y2="125" gradientUnits="userSpaceOnUse">
<stop stop-color="#1E4E4E"/>
<stop offset="1" stop-color="#1F2431"/>
</linearGradient>
<linearGradient id="paint1_linear_1111_1347" x1="450.02" y1="107.753" x2="237.009" y2="64.9563" gradientUnits="userSpaceOnUse">
<stop stop-color="#1E4E4E"/>
<stop offset="0.995101" stop-color="#1F2431"/>
</linearGradient>
<clipPath id="clip0_1111_1347">
<rect width="452" height="177" fill="white"/>
</clipPath>
<clipPath id="clip1_1111_1347">
<rect width="40" height="40" fill="white" transform="translate(211.043 15) rotate(36.9471)"/>
</clipPath>
</defs>
</svg>
