<svg width="186" height="220" viewBox="0 0 186 220" fill="none" xmlns="http://www.w3.org/2000/svg">
<g filter="url(#filter0_f_1388_3840)">
<path d="M20.9487 163.826L65.1101 20.2851L165.4 56.2575L121.239 199.798L20.9487 163.826ZM149.649 55.2705C149.388 55.637 149.258 56.1407 149.392 56.5698C149.485 56.9343 149.745 57.2085 150.072 57.377C150.121 57.3848 150.219 57.4004 150.269 57.4083C150.515 57.4474 150.73 57.365 150.945 57.2826C151.384 57.0611 151.622 56.5162 151.596 56.0459C151.579 55.5188 151.297 55.0663 150.863 54.939C150.814 54.9312 150.715 54.9155 150.666 54.9077C150.281 54.7883 149.9 54.9608 149.649 55.2705ZM128.558 47.2012C128.11 47.4796 127.822 48.0166 127.88 48.6084C127.955 49.0865 128.295 49.4901 128.68 49.6095C128.73 49.6173 128.73 49.6173 128.779 49.6251C129.173 49.6877 129.612 49.4662 129.872 49.0997C130.142 48.6763 130.183 48.1002 129.95 47.6554C129.789 47.3968 129.57 47.1872 129.284 47.0834C129.234 47.0756 129.234 47.0756 129.185 47.0678C128.988 47.0365 128.733 47.0542 128.558 47.2012ZM109.127 40.4443C108.836 40.6894 108.634 41.0069 108.571 41.4047C108.395 42.1925 108.869 43.0252 109.559 43.1347C109.903 43.1895 110.266 43.1306 110.558 42.8855C110.849 42.6405 111.051 42.323 111.114 41.9252C111.29 41.1374 110.816 40.3047 110.127 40.1952C109.791 40.0836 109.468 40.2071 109.127 40.4443ZM89.971 32.9153C89.7559 32.9976 89.5137 33.2505 89.4686 33.5347C89.3742 33.811 89.3783 34.103 89.4407 34.3459C89.5524 34.5967 89.7224 34.7985 89.9597 34.8945C90.0089 34.9023 90.0984 34.9748 90.1477 34.9826C90.3447 35.0139 90.5015 34.9805 90.6673 34.8903C90.8914 34.7512 91.0753 34.5473 91.1697 34.271C91.4078 33.7261 91.1622 33.0462 90.6877 32.8543C90.6384 32.8465 90.549 32.774 90.4997 32.7662C90.2936 32.7917 90.1368 32.8251 89.971 32.9153ZM68.9043 27.2386C68.8411 27.6364 68.9347 28.0009 69.1359 28.3242C69.3371 28.6474 69.6236 28.7512 69.9684 28.806C70.658 28.9155 71.3172 28.2628 71.3853 27.5162C71.4485 27.1183 71.3549 26.7539 71.1537 26.4306C70.9526 26.1073 70.666 26.0036 70.3212 25.9488C69.6406 25.7824 68.9724 26.492 68.9043 27.2386Z" fill="#141B25"/>
</g>
<path d="M17 171.134L40.4717 15.2119L156.942 35.9694L133.471 191.892L17 171.134ZM139.464 37.5382C139.242 37.9606 139.186 38.5037 139.408 38.9261C139.574 39.2881 139.907 39.5295 140.296 39.6502C140.351 39.6502 140.462 39.6502 140.518 39.6502C140.795 39.6502 141.017 39.5295 141.239 39.4088C141.683 39.1071 141.85 38.5037 141.739 38.021C141.628 37.4779 141.239 37.0555 140.74 36.9952C140.684 36.9952 140.573 36.9952 140.518 36.9952C140.074 36.9348 139.685 37.1762 139.464 37.5382ZM114.882 32.6506C114.438 33.0126 114.216 33.6161 114.383 34.2195C114.549 34.7022 114.993 35.0643 115.437 35.1246C115.492 35.1246 115.492 35.1246 115.548 35.1246C115.992 35.1246 116.436 34.8229 116.658 34.4005C116.88 33.9178 116.824 33.3143 116.491 32.892C116.269 32.6506 115.992 32.4696 115.659 32.4092C115.603 32.4092 115.603 32.4092 115.548 32.4092C115.326 32.4092 115.049 32.4696 114.882 32.6506ZM92.3536 28.8491C92.0762 29.1508 91.9097 29.5128 91.9097 29.9352C91.8542 30.78 92.5201 31.5645 93.2969 31.5645C93.6854 31.5645 94.0738 31.4438 94.3512 31.1421C94.6287 30.8403 94.7951 30.4783 94.7951 30.0559C94.8506 29.2111 94.1848 28.4267 93.4079 28.4267C93.0195 28.3663 92.6866 28.5474 92.3536 28.8491ZM69.9917 24.2028C69.7697 24.3235 69.5478 24.6252 69.5478 24.9269C69.4923 25.2286 69.5478 25.5303 69.6588 25.7717C69.8252 26.013 70.0472 26.1941 70.3246 26.2544C70.3801 26.2544 70.4911 26.3147 70.5466 26.3147C70.7685 26.3147 70.935 26.2544 71.1015 26.1337C71.3234 25.9527 71.4899 25.7113 71.5454 25.4096C71.7118 24.8062 71.3234 24.1425 70.7685 24.0218C70.713 24.0218 70.6021 23.9614 70.5466 23.9614C70.3246 24.0218 70.1582 24.0821 69.9917 24.2028ZM45.8541 21.7891C45.8541 22.2115 46.0206 22.5736 46.298 22.8753C46.5755 23.177 46.9084 23.2373 47.2968 23.2373C48.0737 23.2373 48.684 22.4529 48.6286 21.6685C48.6286 21.2461 48.4621 20.884 48.1846 20.5823C47.9072 20.2806 47.5743 20.2202 47.1858 20.2202C46.409 20.1599 45.7986 21.0047 45.8541 21.7891Z" fill="#B9F498"/>
<mask id="mask0_1388_3840" style="mask-type:luminance" maskUnits="userSpaceOnUse" x="46" y="14" width="12" height="15">
<path d="M52.8453 14.0037C51.1252 13.9434 49.1831 14.6071 48.3507 16.6587C48.4062 16.6587 48.4062 16.6587 48.4617 16.6587C48.5172 16.6587 48.5727 16.6587 48.6282 16.6587C48.6282 16.6587 48.6282 16.6587 48.5727 16.6587H48.6282C48.8501 16.7191 49.0721 16.7191 49.2941 16.7794C49.4605 16.6588 49.627 16.5381 49.7934 16.4777C52.0685 15.995 53.0118 17.0208 53.4002 19.7965C53.7886 22.1498 52.1795 24.8652 50.2928 25.1669C48.3507 25.0462 47.3519 22.3309 47.4629 20.1586C47.4074 20.1586 47.4074 20.1586 47.3519 20.1586H47.2965C47.241 20.1586 47.241 20.1586 47.1855 20.1586C47.13 20.1586 47.019 20.1586 46.9635 20.1586C46.3531 23.3567 47.241 26.9168 49.9044 28.0633C50.4038 28.2443 50.8477 28.365 51.3471 28.365C54.399 28.365 57.118 24.4428 57.007 20.5809C57.0625 17.5639 55.4533 14.1847 52.8453 14.0037Z" fill="white"/>
</mask>
<g mask="url(#mask0_1388_3840)">
<path d="M48.5729 16.66C48.5729 16.66 48.5174 16.66 48.4619 16.66C48.5174 16.5996 48.5729 16.5996 48.6284 16.5996C48.6839 16.5996 48.7393 16.66 48.7948 16.7203C48.6839 16.7203 48.6284 16.66 48.5729 16.66Z" fill="white"/>
</g>
<mask id="mask1_1388_3840" style="mask-type:luminance" maskUnits="userSpaceOnUse" x="46" y="14" width="12" height="15">
<path d="M52.8453 14.0037C51.1252 13.9434 49.1831 14.6071 48.3507 16.6587C48.4062 16.6587 48.4062 16.6587 48.4617 16.6587C48.5172 16.6587 48.5727 16.6587 48.6282 16.6587C48.6282 16.6587 48.6282 16.6587 48.5727 16.6587H48.6282C48.8501 16.7191 49.0721 16.7191 49.2941 16.7794C49.4605 16.6588 49.627 16.5381 49.7934 16.4777C52.0685 15.995 53.0118 17.0208 53.4002 19.7965C53.7886 22.1498 52.1795 24.8652 50.2928 25.1669C48.3507 25.0462 47.3519 22.3309 47.4629 20.1586C47.4074 20.1586 47.4074 20.1586 47.3519 20.1586H47.2965C47.241 20.1586 47.241 20.1586 47.1855 20.1586C47.13 20.1586 47.019 20.1586 46.9635 20.1586C46.3531 23.3567 47.241 26.9168 49.9044 28.0633C50.4038 28.2443 50.8477 28.365 51.3471 28.365C54.399 28.365 57.118 24.4428 57.007 20.5809C57.0625 17.5639 55.4533 14.1847 52.8453 14.0037Z" fill="white"/>
</mask>
<g mask="url(#mask1_1388_3840)">
<path d="M49.9601 28.064C47.2966 26.9176 46.4088 23.3574 47.0192 20.1593C47.0747 20.1593 47.1856 20.1593 47.2411 20.1593C47.2966 20.1593 47.2966 20.1593 47.3521 20.1593H47.4076C47.4631 20.1593 47.4631 20.1593 47.5186 20.1593C47.4076 22.392 48.4064 25.047 50.3485 25.1677C52.2351 24.9263 53.8443 22.2109 53.4559 19.7973C53.0675 17.0216 52.0687 15.9958 49.8491 16.4785C49.6826 16.5388 49.5162 16.6595 49.3497 16.7802C49.1277 16.7199 48.8503 16.6595 48.6284 16.6595C48.5174 16.6595 48.4619 16.6595 48.3509 16.5992C49.1832 14.5476 51.1253 13.8838 52.8455 13.9442C55.4535 14.1855 57.0626 17.5043 57.0626 20.5817C57.1736 24.3832 54.4547 28.3658 51.4028 28.3658C50.9589 28.3658 50.4595 28.3054 49.9601 28.064Z" fill="white"/>
</g>
<mask id="mask2_1388_3840" style="mask-type:luminance" maskUnits="userSpaceOnUse" x="46" y="14" width="12" height="15">
<path d="M52.8453 14.0037C51.1252 13.9434 49.1831 14.6071 48.3507 16.6587C48.4062 16.6587 48.4062 16.6587 48.4617 16.6587C48.5172 16.6587 48.5727 16.6587 48.6282 16.6587C48.6282 16.6587 48.6282 16.6587 48.5727 16.6587H48.6282C48.8501 16.7191 49.0721 16.7191 49.2941 16.7794C49.4605 16.6588 49.627 16.5381 49.7934 16.4777C52.0685 15.995 53.0118 17.0208 53.4002 19.7965C53.7886 22.1498 52.1795 24.8652 50.2928 25.1669C48.3507 25.0462 47.3519 22.3309 47.4629 20.1586C47.4074 20.1586 47.4074 20.1586 47.3519 20.1586H47.2965C47.241 20.1586 47.241 20.1586 47.1855 20.1586C47.13 20.1586 47.019 20.1586 46.9635 20.1586C46.3531 23.3567 47.241 26.9168 49.9044 28.0633C50.4038 28.2443 50.8477 28.365 51.3471 28.365C54.399 28.365 57.118 24.4428 57.007 20.5809C57.0625 17.5639 55.4533 14.1847 52.8453 14.0037Z" fill="white"/>
</mask>
<g mask="url(#mask2_1388_3840)">
<path d="M49.5713 25.8922C46.7969 25.1682 46.8524 21.1253 47.7402 18.8323C47.5737 20.4012 47.8512 22.0907 48.5725 23.4182C49.2384 24.3234 49.9598 24.263 50.8476 23.72C52.7342 22.6942 53.1781 19.7977 52.5122 17.8065C52.0683 16.5393 50.0707 15.9962 49.2384 16.9617C49.7933 16.0566 51.347 15.9359 52.2903 16.4186C54.6208 17.8065 54.7318 21.4873 53.622 23.8406C52.9007 25.4698 51.0695 26.0733 49.5713 25.8922Z" fill="#B5B5B5"/>
</g>
<mask id="mask3_1388_3840" style="mask-type:luminance" maskUnits="userSpaceOnUse" x="70" y="17" width="11" height="16">
<path d="M76.2067 17.8065C74.4865 17.7461 72.5444 18.4099 71.7121 20.4615C71.7676 20.4615 71.7675 20.4615 71.823 20.4615C71.8785 20.4615 71.934 20.4615 71.9895 20.4615C71.9895 20.4615 71.9895 20.4615 71.934 20.4615H71.9895C72.2115 20.5218 72.4334 20.5218 72.6554 20.5822C72.8218 20.4615 72.9883 20.3408 73.1548 20.2805C75.4298 19.7977 76.3731 20.8235 76.7615 23.5992C77.15 25.9526 75.5408 28.6679 73.6542 28.9696C71.7121 28.8489 70.7133 26.1336 70.8242 23.9613C70.7688 23.9613 70.7687 23.9613 70.7133 23.9613H70.6578C70.6023 23.9613 70.6023 23.9613 70.5468 23.9613C70.4913 23.9613 70.3803 23.9613 70.3248 23.9613C69.7145 27.1594 70.6023 30.7195 73.2657 31.866C73.7651 32.0471 74.2091 32.1677 74.7085 32.1677C77.7603 32.1677 80.4793 28.2455 80.3683 24.3837C80.4238 21.427 78.8146 18.0478 76.2067 17.8065Z" fill="white"/>
</mask>
<g mask="url(#mask3_1388_3840)">
<path d="M71.9342 20.5213C71.9342 20.5213 71.8787 20.5213 71.8232 20.5213C71.8787 20.4609 71.9342 20.4609 71.9897 20.4609C72.0452 20.4609 72.1007 20.5213 72.1562 20.5816C72.0452 20.5213 71.9897 20.5213 71.9342 20.5213Z" fill="white"/>
</g>
<mask id="mask4_1388_3840" style="mask-type:luminance" maskUnits="userSpaceOnUse" x="70" y="17" width="11" height="16">
<path d="M76.2067 17.8065C74.4865 17.7461 72.5444 18.4099 71.7121 20.4615C71.7676 20.4615 71.7675 20.4615 71.823 20.4615C71.8785 20.4615 71.934 20.4615 71.9895 20.4615C71.9895 20.4615 71.9895 20.4615 71.934 20.4615H71.9895C72.2115 20.5218 72.4334 20.5218 72.6554 20.5822C72.8218 20.4615 72.9883 20.3408 73.1548 20.2805C75.4298 19.7977 76.3731 20.8235 76.7615 23.5992C77.15 25.9526 75.5408 28.6679 73.6542 28.9696C71.7121 28.8489 70.7133 26.1336 70.8242 23.9613C70.7688 23.9613 70.7687 23.9613 70.7133 23.9613H70.6578C70.6023 23.9613 70.6023 23.9613 70.5468 23.9613C70.4913 23.9613 70.3803 23.9613 70.3248 23.9613C69.7145 27.1594 70.6023 30.7195 73.2657 31.866C73.7651 32.0471 74.2091 32.1677 74.7085 32.1677C77.7603 32.1677 80.4793 28.2455 80.3683 24.3837C80.4238 21.427 78.8146 18.0478 76.2067 17.8065Z" fill="white"/>
</mask>
<g mask="url(#mask4_1388_3840)">
<path d="M73.3214 31.9264C70.6579 30.7799 69.7701 27.2197 70.3805 24.0216C70.436 24.0216 70.547 24.0216 70.6025 24.0216C70.658 24.0216 70.6579 24.0216 70.7134 24.0216H70.7689C70.8244 24.0216 70.8244 24.0216 70.8799 24.0216C70.7689 26.2543 71.7677 28.9093 73.7098 29.03C75.5964 28.7886 77.2056 26.0732 76.8172 23.6596C76.4288 20.8839 75.43 19.8581 73.2104 20.3408C73.044 20.4011 72.8775 20.5218 72.711 20.6425C72.4891 20.5822 72.2116 20.5218 71.9897 20.5218C71.8787 20.5218 71.8232 20.5218 71.7122 20.4615C72.5446 18.4099 74.4867 17.7461 76.2068 17.8065C78.8148 18.0478 80.424 21.3666 80.424 24.444C80.5349 28.2455 77.816 32.2281 74.7641 32.2281C74.2647 32.2281 73.8208 32.1074 73.3214 31.9264Z" fill="white"/>
</g>
<mask id="mask5_1388_3840" style="mask-type:luminance" maskUnits="userSpaceOnUse" x="70" y="17" width="11" height="16">
<path d="M76.2067 17.8065C74.4865 17.7461 72.5444 18.4099 71.7121 20.4615C71.7676 20.4615 71.7675 20.4615 71.823 20.4615C71.8785 20.4615 71.934 20.4615 71.9895 20.4615C71.9895 20.4615 71.9895 20.4615 71.934 20.4615H71.9895C72.2115 20.5218 72.4334 20.5218 72.6554 20.5822C72.8218 20.4615 72.9883 20.3408 73.1548 20.2805C75.4298 19.7977 76.3731 20.8235 76.7615 23.5992C77.15 25.9526 75.5408 28.6679 73.6542 28.9696C71.7121 28.8489 70.7133 26.1336 70.8242 23.9613C70.7688 23.9613 70.7687 23.9613 70.7133 23.9613H70.6578C70.6023 23.9613 70.6023 23.9613 70.5468 23.9613C70.4913 23.9613 70.3803 23.9613 70.3248 23.9613C69.7145 27.1594 70.6023 30.7195 73.2657 31.866C73.7651 32.0471 74.2091 32.1677 74.7085 32.1677C77.7603 32.1677 80.4793 28.2455 80.3683 24.3837C80.4238 21.427 78.8146 18.0478 76.2067 17.8065Z" fill="white"/>
</mask>
<g mask="url(#mask5_1388_3840)">
<path d="M72.8775 29.7536C70.1031 29.0295 70.1585 24.9866 71.0464 22.6936C70.8799 24.2625 71.1573 25.9521 71.8787 27.2796C72.5446 28.1847 73.2659 28.1244 74.1537 27.5813C76.0403 26.5555 76.4843 23.6591 75.8184 21.6678C75.3745 20.4007 73.3769 19.8576 72.5446 20.823C73.0994 19.9179 74.6531 19.7972 75.5964 20.28C77.927 21.6678 78.0379 25.3487 76.9282 27.702C76.2623 29.3312 74.4312 29.9346 72.8775 29.7536Z" fill="#B5B5B5"/>
</g>
<mask id="mask6_1388_3840" style="mask-type:luminance" maskUnits="userSpaceOnUse" x="93" y="22" width="11" height="15">
<path d="M99.068 22.2117C97.3478 22.1514 95.4057 22.8151 94.5734 24.8668C94.6289 24.8668 94.6289 24.8668 94.6844 24.8668C94.7399 24.8668 94.7953 24.8668 94.8508 24.8668C94.8508 24.8668 94.8508 24.8668 94.7954 24.8668H94.8508C95.0728 24.9271 95.2948 24.9271 95.5167 24.9874C95.6832 24.8668 95.8496 24.7461 96.0161 24.6857C98.2911 24.203 99.2344 25.2288 99.6229 28.0045C100.011 30.3578 98.4021 33.0732 96.5155 33.3749C94.5734 33.2542 93.5746 30.5388 93.6856 28.3665C93.6301 28.3665 93.6301 28.3665 93.5746 28.3665H93.5191C93.4636 28.3665 93.4636 28.3665 93.4081 28.3665C93.3527 28.3665 93.2417 28.3665 93.1862 28.3665C92.5758 31.5646 93.4636 35.1248 96.1271 36.2713C96.6265 36.4523 97.0704 36.573 97.5698 36.573C100.622 36.573 103.341 32.6508 103.23 28.7889C103.285 25.7719 101.676 22.4531 99.068 22.2117Z" fill="white"/>
</mask>
<g mask="url(#mask6_1388_3840)">
<path d="M94.7951 24.9275C94.7951 24.9275 94.7396 24.9275 94.6841 24.9275C94.7396 24.8672 94.7951 24.8672 94.8505 24.8672C94.906 24.8672 94.9615 24.9275 95.017 24.9879C94.906 24.9275 94.8506 24.9275 94.7951 24.9275Z" fill="white"/>
</g>
<mask id="mask7_1388_3840" style="mask-type:luminance" maskUnits="userSpaceOnUse" x="93" y="22" width="11" height="15">
<path d="M99.068 22.2117C97.3478 22.1514 95.4057 22.8151 94.5734 24.8668C94.6289 24.8668 94.6289 24.8668 94.6844 24.8668C94.7399 24.8668 94.7953 24.8668 94.8508 24.8668C94.8508 24.8668 94.8508 24.8668 94.7954 24.8668H94.8508C95.0728 24.9271 95.2948 24.9271 95.5167 24.9874C95.6832 24.8668 95.8496 24.7461 96.0161 24.6857C98.2911 24.203 99.2344 25.2288 99.6229 28.0045C100.011 30.3578 98.4021 33.0732 96.5155 33.3749C94.5734 33.2542 93.5746 30.5388 93.6856 28.3665C93.6301 28.3665 93.6301 28.3665 93.5746 28.3665H93.5191C93.4636 28.3665 93.4636 28.3665 93.4081 28.3665C93.3527 28.3665 93.2417 28.3665 93.1862 28.3665C92.5758 31.5646 93.4636 35.1248 96.1271 36.2713C96.6265 36.4523 97.0704 36.573 97.5698 36.573C100.622 36.573 103.341 32.6508 103.23 28.7889C103.285 25.7719 101.676 22.4531 99.068 22.2117Z" fill="white"/>
</mask>
<g mask="url(#mask7_1388_3840)">
<path d="M96.1827 36.3316C93.5193 35.1851 92.6315 31.625 93.2418 28.4269C93.2973 28.4269 93.4083 28.4269 93.4638 28.4269C93.5193 28.4269 93.5193 28.4269 93.5748 28.4269H93.6303C93.6858 28.4269 93.6857 28.4269 93.7412 28.4269C93.6303 30.6595 94.6291 33.3146 96.5712 33.4352C98.4578 33.1939 100.067 30.4785 99.6785 28.0648C99.2901 25.2891 98.2913 24.2633 96.0718 24.7461C95.9053 24.8064 95.7388 24.9271 95.5724 25.0478C95.3504 24.9874 95.073 24.9271 94.851 24.9271C94.74 24.9271 94.6845 24.9271 94.5736 24.8668C95.4059 22.8151 97.348 22.1514 99.0682 22.2117C101.676 22.4531 103.285 25.7719 103.285 28.8493C103.396 32.6508 100.677 36.6333 97.6254 36.6333C97.126 36.6333 96.6821 36.5127 96.1827 36.3316Z" fill="white"/>
</g>
<mask id="mask8_1388_3840" style="mask-type:luminance" maskUnits="userSpaceOnUse" x="93" y="22" width="11" height="15">
<path d="M99.068 22.2117C97.3478 22.1514 95.4057 22.8151 94.5734 24.8668C94.6289 24.8668 94.6289 24.8668 94.6844 24.8668C94.7399 24.8668 94.7953 24.8668 94.8508 24.8668C94.8508 24.8668 94.8508 24.8668 94.7954 24.8668H94.8508C95.0728 24.9271 95.2948 24.9271 95.5167 24.9874C95.6832 24.8668 95.8496 24.7461 96.0161 24.6857C98.2911 24.203 99.2344 25.2288 99.6229 28.0045C100.011 30.3578 98.4021 33.0732 96.5155 33.3749C94.5734 33.2542 93.5746 30.5388 93.6856 28.3665C93.6301 28.3665 93.6301 28.3665 93.5746 28.3665H93.5191C93.4636 28.3665 93.4636 28.3665 93.4081 28.3665C93.3527 28.3665 93.2417 28.3665 93.1862 28.3665C92.5758 31.5646 93.4636 35.1248 96.1271 36.2713C96.6265 36.4523 97.0704 36.573 97.5698 36.573C100.622 36.573 103.341 32.6508 103.23 28.7889C103.285 25.7719 101.676 22.4531 99.068 22.2117Z" fill="white"/>
</mask>
<g mask="url(#mask8_1388_3840)">
<path d="M95.7383 34.0983C92.9639 33.3742 93.0194 29.3313 93.9072 27.0383C93.7407 28.6072 94.0182 30.2968 94.7395 31.6243C95.4054 32.5294 96.1268 32.4691 97.0146 31.926C98.9012 30.9002 99.3451 28.0038 98.6792 26.0125C98.2353 24.7454 96.2377 24.2023 95.4054 25.1678C95.9603 24.2626 97.514 24.142 98.4573 24.6247C100.788 26.0125 100.899 29.6934 99.789 32.0467C99.1231 33.7362 97.292 34.3397 95.7383 34.0983Z" fill="#B5B5B5"/>
</g>
<mask id="mask9_1388_3840" style="mask-type:luminance" maskUnits="userSpaceOnUse" x="115" y="26" width="11" height="15">
<path d="M121.264 26.1932C119.544 26.1328 117.602 26.7966 116.769 28.8482C116.825 28.8482 116.825 28.8482 116.88 28.8482C116.936 28.8482 116.991 28.8482 117.047 28.8482C117.047 28.8482 117.047 28.8482 116.991 28.8482H117.047C117.269 28.9085 117.491 28.9085 117.713 28.9689C117.879 28.8482 118.045 28.7275 118.212 28.6672C120.487 28.1844 121.43 29.2102 121.819 31.9859C122.207 34.3393 120.598 37.0546 118.711 37.3563C116.769 37.2357 115.77 34.5203 115.881 32.348C115.826 32.348 115.826 32.348 115.77 32.348H115.715C115.659 32.348 115.659 32.348 115.604 32.348C115.548 32.348 115.437 32.348 115.382 32.348C114.772 35.5461 115.659 39.1062 118.323 40.2527C118.822 40.4338 119.266 40.5544 119.766 40.5544C122.817 40.5544 125.536 36.6322 125.425 32.7704C125.481 29.8137 123.872 26.4345 121.264 26.1932Z" fill="white"/>
</mask>
<g mask="url(#mask9_1388_3840)">
<path d="M116.991 28.909C116.991 28.909 116.936 28.909 116.88 28.909C116.936 28.8486 116.991 28.8486 117.047 28.8486C117.102 28.8486 117.158 28.909 117.213 28.9693C117.102 28.909 117.047 28.909 116.991 28.909Z" fill="white"/>
</g>
<mask id="mask10_1388_3840" style="mask-type:luminance" maskUnits="userSpaceOnUse" x="115" y="26" width="11" height="15">
<path d="M121.264 26.1932C119.544 26.1328 117.602 26.7966 116.769 28.8482C116.825 28.8482 116.825 28.8482 116.88 28.8482C116.936 28.8482 116.991 28.8482 117.047 28.8482C117.047 28.8482 117.047 28.8482 116.991 28.8482H117.047C117.269 28.9085 117.491 28.9085 117.713 28.9689C117.879 28.8482 118.045 28.7275 118.212 28.6672C120.487 28.1844 121.43 29.2102 121.819 31.9859C122.207 34.3393 120.598 37.0546 118.711 37.3563C116.769 37.2357 115.77 34.5203 115.881 32.348C115.826 32.348 115.826 32.348 115.77 32.348H115.715C115.659 32.348 115.659 32.348 115.604 32.348C115.548 32.348 115.437 32.348 115.382 32.348C114.772 35.5461 115.659 39.1062 118.323 40.2527C118.822 40.4338 119.266 40.5544 119.766 40.5544C122.817 40.5544 125.536 36.6322 125.425 32.7704C125.481 29.8137 123.872 26.4345 121.264 26.1932Z" fill="white"/>
</mask>
<g mask="url(#mask10_1388_3840)">
<path d="M118.379 40.314C115.715 39.1676 114.827 35.6074 115.438 32.4093C115.493 32.4093 115.604 32.4093 115.66 32.4093C115.715 32.4093 115.715 32.4093 115.771 32.4093H115.826C115.882 32.4093 115.882 32.4093 115.937 32.4093C115.826 34.6419 116.825 37.297 118.767 37.4176C120.654 37.1763 122.263 34.4609 121.874 32.0473C121.486 29.2716 120.487 28.2458 118.268 28.7285C118.101 28.7888 117.935 28.9095 117.768 29.0302C117.546 28.9698 117.269 28.9095 117.047 28.9095C116.936 28.9095 116.88 28.9095 116.769 28.8492C117.602 26.7976 119.544 26.1338 121.264 26.1942C123.872 26.4355 125.481 29.7543 125.481 32.8317C125.592 36.6332 122.873 40.6158 119.821 40.6158C119.377 40.6158 118.878 40.4951 118.379 40.314Z" fill="white"/>
</g>
<mask id="mask11_1388_3840" style="mask-type:luminance" maskUnits="userSpaceOnUse" x="115" y="26" width="11" height="15">
<path d="M121.264 26.1932C119.544 26.1328 117.602 26.7966 116.769 28.8482C116.825 28.8482 116.825 28.8482 116.88 28.8482C116.936 28.8482 116.991 28.8482 117.047 28.8482C117.047 28.8482 117.047 28.8482 116.991 28.8482H117.047C117.269 28.9085 117.491 28.9085 117.713 28.9689C117.879 28.8482 118.045 28.7275 118.212 28.6672C120.487 28.1844 121.43 29.2102 121.819 31.9859C122.207 34.3393 120.598 37.0546 118.711 37.3563C116.769 37.2357 115.77 34.5203 115.881 32.348C115.826 32.348 115.826 32.348 115.77 32.348H115.715C115.659 32.348 115.659 32.348 115.604 32.348C115.548 32.348 115.437 32.348 115.382 32.348C114.772 35.5461 115.659 39.1062 118.323 40.2527C118.822 40.4338 119.266 40.5544 119.766 40.5544C122.817 40.5544 125.536 36.6322 125.425 32.7704C125.481 29.8137 123.872 26.4345 121.264 26.1932Z" fill="white"/>
</mask>
<g mask="url(#mask11_1388_3840)">
<path d="M117.99 38.1432C115.215 37.4191 115.271 33.3762 116.159 31.0833C115.992 32.6521 116.27 34.3417 116.991 35.6692C117.657 36.5743 118.378 36.514 119.266 35.9709C121.153 34.9451 121.597 32.0487 120.931 30.0575C120.487 28.7903 118.489 28.2472 117.657 29.2127C118.212 28.3076 119.765 28.1869 120.709 28.6696C123.039 30.0575 123.15 33.7383 122.04 36.0916C121.375 37.7208 119.543 38.3242 117.99 38.1432Z" fill="#B5B5B5"/>
</g>
<mask id="mask12_1388_3840" style="mask-type:luminance" maskUnits="userSpaceOnUse" x="140" y="30" width="11" height="16">
<path d="M146.234 30.7801C144.513 30.7198 142.571 31.3835 141.739 33.4351C141.794 33.4351 141.794 33.4351 141.85 33.4351C141.905 33.4351 141.961 33.4351 142.016 33.4351C142.016 33.4351 142.016 33.4351 141.961 33.4351H142.016C142.238 33.4955 142.46 33.4955 142.682 33.5558C142.849 33.4351 143.015 33.3144 143.182 33.2541C145.457 32.7714 146.4 33.7972 146.788 36.5729C147.177 38.9262 145.568 41.6416 143.681 41.9433C141.739 41.8226 140.74 39.1072 140.851 36.9349C140.796 36.9349 140.796 36.9349 140.74 36.9349H140.685C140.629 36.9349 140.629 36.9349 140.574 36.9349C140.518 36.9349 140.407 36.9349 140.352 36.9349C139.741 40.133 140.629 43.6932 143.293 44.8397C143.792 45.0207 144.236 45.1414 144.735 45.1414C147.787 45.1414 150.506 41.2192 150.395 37.3573C150.451 34.3403 148.786 31.0215 146.234 30.7801Z" fill="white"/>
</mask>
<g mask="url(#mask12_1388_3840)">
<path d="M141.961 33.4959C141.961 33.4959 141.906 33.4959 141.85 33.4959C141.906 33.4355 141.961 33.4355 142.017 33.4355C142.072 33.4355 142.128 33.4959 142.183 33.5562C142.072 33.4959 142.017 33.4959 141.961 33.4959Z" fill="white"/>
</g>
<mask id="mask13_1388_3840" style="mask-type:luminance" maskUnits="userSpaceOnUse" x="140" y="30" width="11" height="16">
<path d="M146.234 30.7801C144.513 30.7198 142.571 31.3835 141.739 33.4351C141.794 33.4351 141.794 33.4351 141.85 33.4351C141.905 33.4351 141.961 33.4351 142.016 33.4351C142.016 33.4351 142.016 33.4351 141.961 33.4351H142.016C142.238 33.4955 142.46 33.4955 142.682 33.5558C142.849 33.4351 143.015 33.3144 143.182 33.2541C145.457 32.7714 146.4 33.7972 146.788 36.5729C147.177 38.9262 145.568 41.6416 143.681 41.9433C141.739 41.8226 140.74 39.1072 140.851 36.9349C140.796 36.9349 140.796 36.9349 140.74 36.9349H140.685C140.629 36.9349 140.629 36.9349 140.574 36.9349C140.518 36.9349 140.407 36.9349 140.352 36.9349C139.741 40.133 140.629 43.6932 143.293 44.8397C143.792 45.0207 144.236 45.1414 144.735 45.1414C147.787 45.1414 150.506 41.2192 150.395 37.3573C150.451 34.3403 148.786 31.0215 146.234 30.7801Z" fill="white"/>
</mask>
<g mask="url(#mask13_1388_3840)">
<path d="M143.348 44.9C140.684 43.7535 139.797 40.1934 140.407 36.9953C140.462 36.9953 140.573 36.9953 140.629 36.9953C140.684 36.9953 140.684 36.9953 140.74 36.9953H140.795C140.851 36.9953 140.851 36.9953 140.906 36.9953C140.795 39.2279 141.794 41.8829 143.736 42.0036C145.623 41.7622 147.232 39.0469 146.844 36.6332C146.455 33.8575 145.456 32.8317 143.237 33.3144C143.07 33.3748 142.904 33.4955 142.737 33.6161C142.515 33.5558 142.238 33.4955 142.016 33.4955C141.905 33.4955 141.85 33.4955 141.739 33.4351C142.571 31.3835 144.513 30.7198 146.233 30.7801C148.841 31.0215 150.45 34.3402 150.45 37.4177C150.561 41.2192 147.842 45.2017 144.79 45.2017C144.291 45.2017 143.792 45.081 143.348 44.9Z" fill="white"/>
</g>
<mask id="mask14_1388_3840" style="mask-type:luminance" maskUnits="userSpaceOnUse" x="140" y="30" width="11" height="16">
<path d="M146.234 30.7801C144.513 30.7198 142.571 31.3835 141.739 33.4351C141.794 33.4351 141.794 33.4351 141.85 33.4351C141.905 33.4351 141.961 33.4351 142.016 33.4351C142.016 33.4351 142.016 33.4351 141.961 33.4351H142.016C142.238 33.4955 142.46 33.4955 142.682 33.5558C142.849 33.4351 143.015 33.3144 143.182 33.2541C145.457 32.7714 146.4 33.7972 146.788 36.5729C147.177 38.9262 145.568 41.6416 143.681 41.9433C141.739 41.8226 140.74 39.1072 140.851 36.9349C140.796 36.9349 140.796 36.9349 140.74 36.9349H140.685C140.629 36.9349 140.629 36.9349 140.574 36.9349C140.518 36.9349 140.407 36.9349 140.352 36.9349C139.741 40.133 140.629 43.6932 143.293 44.8397C143.792 45.0207 144.236 45.1414 144.735 45.1414C147.787 45.1414 150.506 41.2192 150.395 37.3573C150.451 34.3403 148.786 31.0215 146.234 30.7801Z" fill="white"/>
</mask>
<g mask="url(#mask14_1388_3840)">
<path d="M142.904 42.6676C140.129 41.9435 140.185 37.9007 141.073 35.6077C140.906 37.1766 141.184 38.8661 141.905 40.1936C142.571 41.0988 143.292 41.0384 144.18 40.4953C146.067 39.4695 146.511 36.5732 145.845 34.5819C145.401 33.3147 143.403 32.7716 142.571 33.7371C143.126 32.832 144.679 32.7113 145.623 33.194C147.953 34.5819 148.064 38.2627 146.955 40.616C146.289 42.2452 144.458 42.8487 142.904 42.6676Z" fill="#B5B5B5"/>
</g>
<path d="M91.8721 147.726C91.1104 146.59 90.2212 145.539 89.221 144.591C89.132 144.51 89.0198 144.458 88.8996 144.441C88.7795 144.424 88.6573 144.444 88.5495 144.497C87.3288 145.132 86.1862 145.898 85.1428 146.78C82.8182 148.731 81.426 150.936 81.1139 153.157C80.8818 154.808 81.3375 156.486 82.3806 157.823C83.4236 159.16 84.9687 160.046 86.6758 160.286C88.3829 160.526 90.1123 160.1 91.4835 159.103C92.8547 158.105 93.7553 156.617 93.9873 154.966C94.2995 152.745 93.569 150.242 91.8721 147.726ZM86.8348 159.154C85.4388 158.957 84.1756 158.231 83.3225 157.138C82.4694 156.044 82.096 154.672 82.2842 153.321C82.8531 149.273 87.3853 146.464 88.7236 145.715C89.8035 146.804 93.3862 150.752 92.817 154.802C92.6257 156.152 91.8884 157.368 90.7669 158.184C89.6454 159 88.2313 159.349 86.8348 159.154Z" fill="#2E55BC"/>
<path d="M123.026 61.6075L123.263 59.924C123.284 59.7752 123.363 59.6408 123.483 59.5504C123.603 59.4599 123.754 59.4208 123.903 59.4418C124.051 59.4627 124.186 59.5419 124.276 59.6619C124.367 59.7819 124.406 59.933 124.385 60.0818L124.148 61.7652C124.127 61.9141 124.048 62.0485 123.928 62.1389C123.808 62.2294 123.657 62.2684 123.508 62.2475C123.359 62.2266 123.225 62.1474 123.135 62.0274C123.044 61.9074 123.005 61.7563 123.026 61.6075ZM127.209 68.49C127.084 69.3778 126.699 70.2088 126.102 70.8777C125.505 71.5466 124.723 72.0235 123.855 72.248C122.987 72.4725 122.072 72.4345 121.225 72.1389C120.379 71.8433 119.639 71.3033 119.099 70.5873C118.56 69.8712 118.244 69.0112 118.194 68.116C118.143 67.2209 118.359 66.3307 118.814 65.5582C119.269 64.7857 119.943 64.1654 120.75 63.7759C121.558 63.3863 122.463 63.245 123.351 63.3698C124.541 63.5384 125.615 64.1722 126.339 65.132C127.062 66.0919 127.375 67.2996 127.209 68.49ZM126.087 68.3322C126.18 67.6663 126.074 66.9876 125.782 66.3819C125.49 65.7762 125.025 65.2708 124.445 64.9295C123.866 64.5882 123.198 64.4264 122.527 64.4645C121.856 64.5026 121.211 64.739 120.673 65.1437C120.136 65.5484 119.731 66.1032 119.51 66.7381C119.288 67.3729 119.26 68.0593 119.428 68.7103C119.596 69.3614 119.954 69.9479 120.456 70.3956C120.957 70.8434 121.581 71.1324 122.246 71.226C123.139 71.3505 124.045 71.1157 124.765 70.5732C125.485 70.0307 125.96 69.2248 126.087 68.3322ZM118.409 63.0801C118.499 63.2002 118.634 63.2794 118.782 63.3004C118.931 63.3213 119.082 63.2822 119.203 63.1917C119.323 63.1012 119.402 62.9667 119.423 62.8178C119.444 62.6689 119.405 62.5178 119.314 62.3977L118.35 61.1177C118.259 60.9976 118.125 60.9183 117.976 60.8974C117.827 60.8765 117.676 60.9156 117.556 61.0061C117.435 61.0966 117.356 61.2311 117.335 61.38C117.314 61.5289 117.353 61.68 117.444 61.8001L118.409 63.0801ZM117.258 71.2645L115.978 72.2291C115.858 72.3196 115.779 72.4541 115.758 72.603C115.737 72.7519 115.776 72.903 115.867 73.0231C115.957 73.1432 116.092 73.2224 116.241 73.2434C116.389 73.2643 116.541 73.2252 116.661 73.1347L117.941 72.1701C118 72.1253 118.05 72.0693 118.088 72.0051C118.126 71.9409 118.151 71.87 118.161 71.7962C118.171 71.7225 118.167 71.6475 118.148 71.5754C118.13 71.5033 118.097 71.4356 118.052 71.3761C118.008 71.3167 117.951 71.2666 117.887 71.2288C117.823 71.191 117.752 71.1662 117.678 71.1559C117.605 71.1455 117.53 71.1498 117.458 71.1684C117.385 71.1871 117.318 71.2197 117.258 71.2645ZM127.761 64.5619C127.835 64.5723 127.91 64.5681 127.982 64.5495C128.054 64.5309 128.122 64.4983 128.181 64.4536L129.461 63.489C129.581 63.3985 129.66 63.264 129.681 63.1151C129.702 62.9662 129.663 62.815 129.573 62.6949C129.482 62.5749 129.348 62.4956 129.199 62.4747C129.05 62.4538 128.899 62.4929 128.779 62.5834L127.499 63.5479C127.409 63.6154 127.341 63.7079 127.304 63.8137C127.267 63.9196 127.263 64.0341 127.291 64.1426C127.319 64.2512 127.379 64.349 127.462 64.4236C127.546 64.4983 127.65 64.5464 127.761 64.5619ZM127.031 72.638C126.94 72.5179 126.806 72.4386 126.657 72.4177C126.508 72.3968 126.357 72.4359 126.237 72.5264C126.117 72.6169 126.037 72.7514 126.016 72.9003C125.996 73.0492 126.035 73.2003 126.125 73.3204L127.09 74.6004C127.135 74.6599 127.191 74.7099 127.255 74.7477C127.319 74.7855 127.39 74.8103 127.464 74.8207C127.537 74.831 127.612 74.8268 127.684 74.8081C127.757 74.7895 127.824 74.7568 127.884 74.712C127.943 74.6672 127.993 74.6111 128.031 74.547C128.069 74.4828 128.094 74.4118 128.104 74.3381C128.114 74.2644 128.11 74.1893 128.091 74.1172C128.073 74.0452 128.04 73.9775 127.995 73.918L127.031 72.638ZM117.108 67.0704C117.129 66.9216 117.09 66.7705 117 66.6505C116.909 66.5305 116.775 66.4513 116.626 66.4304L114.942 66.1938C114.794 66.1729 114.643 66.2119 114.523 66.3024C114.402 66.3928 114.323 66.5272 114.302 66.6761C114.281 66.8249 114.321 66.9759 114.411 67.096C114.501 67.216 114.636 67.2952 114.785 67.3161L116.468 67.5527C116.617 67.5736 116.768 67.5345 116.888 67.4441C117.008 67.3536 117.087 67.2192 117.108 67.0704ZM121.931 73.4706C121.782 73.4496 121.631 73.4887 121.511 73.5791C121.391 73.6696 121.312 73.804 121.291 73.9528L121.054 75.6363C121.033 75.7851 121.073 75.9362 121.163 76.0562C121.253 76.1762 121.388 76.2554 121.537 76.2763C121.686 76.2972 121.837 76.2582 121.957 76.1677C122.077 76.0773 122.156 75.9429 122.177 75.794L122.413 74.1106C122.434 73.9617 122.395 73.8107 122.305 73.6907C122.214 73.5707 122.08 73.4915 121.931 73.4706ZM130.655 68.402L128.971 68.1654C128.822 68.1445 128.671 68.1835 128.551 68.274C128.431 68.3644 128.352 68.4989 128.331 68.6477C128.31 68.7965 128.349 68.9476 128.44 69.0676C128.53 69.1876 128.665 69.2668 128.813 69.2877L130.497 69.5243C130.646 69.5452 130.797 69.5062 130.917 69.4157C131.037 69.3253 131.116 69.1908 131.137 69.042C131.158 68.8932 131.119 68.7421 131.028 68.6221C130.938 68.5021 130.803 68.4229 130.655 68.402Z" fill="#F68561"/>
<path d="M116.026 103.608L116.263 101.924C116.284 101.775 116.363 101.641 116.483 101.55C116.603 101.46 116.754 101.421 116.903 101.442C117.051 101.463 117.186 101.542 117.276 101.662C117.367 101.782 117.406 101.933 117.385 102.082L117.148 103.765C117.127 103.914 117.048 104.048 116.928 104.139C116.808 104.229 116.657 104.268 116.508 104.248C116.359 104.227 116.225 104.147 116.135 104.027C116.044 103.907 116.005 103.756 116.026 103.608ZM120.209 110.49C120.084 111.378 119.699 112.209 119.102 112.878C118.505 113.547 117.723 114.023 116.855 114.248C115.987 114.472 115.072 114.435 114.225 114.139C113.379 113.843 112.639 113.303 112.099 112.587C111.56 111.871 111.244 111.011 111.194 110.116C111.143 109.221 111.359 108.331 111.814 107.558C112.269 106.786 112.943 106.165 113.75 105.776C114.558 105.386 115.463 105.245 116.351 105.37C117.541 105.538 118.615 106.172 119.339 107.132C120.062 108.092 120.375 109.3 120.209 110.49ZM119.087 110.332C119.18 109.666 119.074 108.988 118.782 108.382C118.49 107.776 118.025 107.271 117.445 106.93C116.866 106.588 116.198 106.426 115.527 106.465C114.856 106.503 114.211 106.739 113.673 107.144C113.136 107.548 112.731 108.103 112.51 108.738C112.288 109.373 112.26 110.059 112.428 110.71C112.596 111.361 112.954 111.948 113.456 112.396C113.957 112.843 114.581 113.132 115.246 113.226C116.139 113.35 117.045 113.116 117.765 112.573C118.485 112.031 118.96 111.225 119.087 110.332ZM111.409 105.08C111.499 105.2 111.634 105.279 111.782 105.3C111.931 105.321 112.082 105.282 112.203 105.192C112.323 105.101 112.402 104.967 112.423 104.818C112.444 104.669 112.405 104.518 112.314 104.398L111.35 103.118C111.259 102.998 111.125 102.918 110.976 102.897C110.827 102.876 110.676 102.916 110.556 103.006C110.435 103.097 110.356 103.231 110.335 103.38C110.314 103.529 110.353 103.68 110.444 103.8L111.409 105.08ZM110.258 113.265L108.978 114.229C108.858 114.32 108.779 114.454 108.758 114.603C108.737 114.752 108.776 114.903 108.867 115.023C108.957 115.143 109.092 115.222 109.241 115.243C109.389 115.264 109.541 115.225 109.661 115.135L110.941 114.17C111 114.125 111.05 114.069 111.088 114.005C111.126 113.941 111.151 113.87 111.161 113.796C111.171 113.723 111.167 113.647 111.148 113.575C111.13 113.503 111.097 113.436 111.052 113.376C111.008 113.317 110.951 113.267 110.887 113.229C110.823 113.191 110.752 113.166 110.678 113.156C110.605 113.146 110.53 113.15 110.458 113.168C110.385 113.187 110.318 113.22 110.258 113.265ZM120.761 106.562C120.835 106.572 120.91 106.568 120.982 106.55C121.054 106.531 121.122 106.498 121.181 106.454L122.461 105.489C122.581 105.398 122.66 105.264 122.681 105.115C122.702 104.966 122.663 104.815 122.573 104.695C122.482 104.575 122.348 104.496 122.199 104.475C122.05 104.454 121.899 104.493 121.779 104.583L120.499 105.548C120.409 105.615 120.341 105.708 120.304 105.814C120.267 105.92 120.263 106.034 120.291 106.143C120.319 106.251 120.379 106.349 120.462 106.424C120.546 106.498 120.65 106.546 120.761 106.562ZM120.031 114.638C119.94 114.518 119.806 114.439 119.657 114.418C119.508 114.397 119.357 114.436 119.237 114.526C119.117 114.617 119.037 114.751 119.016 114.9C118.996 115.049 119.035 115.2 119.125 115.32L120.09 116.6C120.135 116.66 120.191 116.71 120.255 116.748C120.319 116.786 120.39 116.81 120.464 116.821C120.537 116.831 120.612 116.827 120.684 116.808C120.757 116.789 120.824 116.757 120.884 116.712C120.943 116.667 120.993 116.611 121.031 116.547C121.069 116.483 121.094 116.412 121.104 116.338C121.114 116.264 121.11 116.189 121.091 116.117C121.073 116.045 121.04 115.977 120.995 115.918L120.031 114.638ZM110.108 109.07C110.129 108.922 110.09 108.771 110 108.65C109.909 108.53 109.775 108.451 109.626 108.43L107.942 108.194C107.794 108.173 107.643 108.212 107.523 108.302C107.402 108.393 107.323 108.527 107.302 108.676C107.281 108.825 107.321 108.976 107.411 109.096C107.501 109.216 107.636 109.295 107.785 109.316L109.468 109.553C109.617 109.574 109.768 109.535 109.888 109.444C110.008 109.354 110.087 109.219 110.108 109.07ZM114.931 115.471C114.782 115.45 114.631 115.489 114.511 115.579C114.391 115.67 114.312 115.804 114.291 115.953L114.054 117.636C114.033 117.785 114.073 117.936 114.163 118.056C114.253 118.176 114.388 118.255 114.537 118.276C114.686 118.297 114.837 118.258 114.957 118.168C115.077 118.077 115.156 117.943 115.177 117.794L115.413 116.111C115.434 115.962 115.395 115.811 115.305 115.691C115.214 115.571 115.08 115.491 114.931 115.471ZM123.655 110.402L121.971 110.165C121.822 110.144 121.671 110.184 121.551 110.274C121.431 110.364 121.352 110.499 121.331 110.648C121.31 110.797 121.349 110.948 121.44 111.068C121.53 111.188 121.665 111.267 121.813 111.288L123.497 111.524C123.646 111.545 123.797 111.506 123.917 111.416C124.037 111.325 124.116 111.191 124.137 111.042C124.158 110.893 124.119 110.742 124.028 110.622C123.938 110.502 123.803 110.423 123.655 110.402Z" fill="#F68561"/>
<path d="M109.026 149.608L109.263 147.924C109.284 147.775 109.363 147.641 109.483 147.55C109.603 147.46 109.754 147.421 109.903 147.442C110.051 147.463 110.186 147.542 110.276 147.662C110.367 147.782 110.406 147.933 110.385 148.082L110.148 149.765C110.127 149.914 110.048 150.048 109.928 150.139C109.808 150.229 109.657 150.268 109.508 150.248C109.359 150.227 109.225 150.147 109.135 150.027C109.044 149.907 109.005 149.756 109.026 149.608ZM113.209 156.49C113.084 157.378 112.699 158.209 112.102 158.878C111.505 159.547 110.723 160.023 109.855 160.248C108.987 160.472 108.072 160.435 107.225 160.139C106.379 159.843 105.639 159.303 105.099 158.587C104.56 157.871 104.244 157.011 104.194 156.116C104.143 155.221 104.359 154.331 104.814 153.558C105.269 152.786 105.943 152.165 106.75 151.776C107.558 151.386 108.463 151.245 109.351 151.37C110.541 151.538 111.615 152.172 112.339 153.132C113.062 154.092 113.375 155.3 113.209 156.49ZM112.087 156.332C112.18 155.666 112.074 154.988 111.782 154.382C111.49 153.776 111.025 153.271 110.445 152.93C109.866 152.588 109.198 152.426 108.527 152.465C107.856 152.503 107.211 152.739 106.673 153.144C106.136 153.548 105.731 154.103 105.51 154.738C105.288 155.373 105.26 156.059 105.428 156.71C105.596 157.361 105.954 157.948 106.456 158.396C106.957 158.843 107.581 159.132 108.246 159.226C109.139 159.35 110.045 159.116 110.765 158.573C111.485 158.031 111.96 157.225 112.087 156.332ZM104.409 151.08C104.499 151.2 104.634 151.279 104.782 151.3C104.931 151.321 105.082 151.282 105.203 151.192C105.323 151.101 105.402 150.967 105.423 150.818C105.444 150.669 105.405 150.518 105.314 150.398L104.35 149.118C104.259 148.998 104.125 148.918 103.976 148.897C103.827 148.876 103.676 148.916 103.556 149.006C103.435 149.097 103.356 149.231 103.335 149.38C103.314 149.529 103.353 149.68 103.444 149.8L104.409 151.08ZM103.258 159.265L101.978 160.229C101.858 160.32 101.779 160.454 101.758 160.603C101.737 160.752 101.776 160.903 101.867 161.023C101.957 161.143 102.092 161.222 102.241 161.243C102.389 161.264 102.541 161.225 102.661 161.135L103.941 160.17C104 160.125 104.05 160.069 104.088 160.005C104.126 159.941 104.151 159.87 104.161 159.796C104.171 159.723 104.167 159.647 104.148 159.575C104.13 159.503 104.097 159.436 104.052 159.376C104.008 159.317 103.951 159.267 103.887 159.229C103.823 159.191 103.752 159.166 103.678 159.156C103.605 159.146 103.53 159.15 103.458 159.168C103.385 159.187 103.318 159.22 103.258 159.265ZM113.761 152.562C113.835 152.572 113.91 152.568 113.982 152.55C114.054 152.531 114.122 152.498 114.181 152.454L115.461 151.489C115.581 151.398 115.66 151.264 115.681 151.115C115.702 150.966 115.663 150.815 115.573 150.695C115.482 150.575 115.348 150.496 115.199 150.475C115.05 150.454 114.899 150.493 114.779 150.583L113.499 151.548C113.409 151.615 113.341 151.708 113.304 151.814C113.267 151.92 113.263 152.034 113.291 152.143C113.319 152.251 113.379 152.349 113.462 152.424C113.546 152.498 113.65 152.546 113.761 152.562ZM113.031 160.638C112.94 160.518 112.806 160.439 112.657 160.418C112.508 160.397 112.357 160.436 112.237 160.526C112.117 160.617 112.037 160.751 112.016 160.9C111.996 161.049 112.035 161.2 112.125 161.32L113.09 162.6C113.135 162.66 113.191 162.71 113.255 162.748C113.319 162.786 113.39 162.81 113.464 162.821C113.537 162.831 113.612 162.827 113.684 162.808C113.757 162.789 113.824 162.757 113.884 162.712C113.943 162.667 113.993 162.611 114.031 162.547C114.069 162.483 114.094 162.412 114.104 162.338C114.114 162.264 114.11 162.189 114.091 162.117C114.073 162.045 114.04 161.977 113.995 161.918L113.031 160.638ZM103.108 155.07C103.129 154.922 103.09 154.771 103 154.65C102.909 154.53 102.775 154.451 102.626 154.43L100.942 154.194C100.794 154.173 100.643 154.212 100.523 154.302C100.402 154.393 100.323 154.527 100.302 154.676C100.281 154.825 100.321 154.976 100.411 155.096C100.501 155.216 100.636 155.295 100.785 155.316L102.468 155.553C102.617 155.574 102.768 155.535 102.888 155.444C103.008 155.354 103.087 155.219 103.108 155.07ZM107.931 161.471C107.782 161.45 107.631 161.489 107.511 161.579C107.391 161.67 107.312 161.804 107.291 161.953L107.054 163.636C107.033 163.785 107.073 163.936 107.163 164.056C107.253 164.176 107.388 164.255 107.537 164.276C107.686 164.297 107.837 164.258 107.957 164.168C108.077 164.077 108.156 163.943 108.177 163.794L108.413 162.111C108.434 161.962 108.395 161.811 108.305 161.691C108.214 161.571 108.08 161.491 107.931 161.471ZM116.655 156.402L114.971 156.165C114.822 156.144 114.671 156.184 114.551 156.274C114.431 156.364 114.352 156.499 114.331 156.648C114.31 156.797 114.349 156.948 114.44 157.068C114.53 157.188 114.665 157.267 114.813 157.288L116.497 157.524C116.646 157.545 116.797 157.506 116.917 157.416C117.037 157.325 117.116 157.191 117.137 157.042C117.158 156.893 117.119 156.742 117.028 156.622C116.938 156.502 116.803 156.423 116.655 156.402Z" fill="#F68561"/>
<line x1="45.3324" y1="72.9568" x2="133.91" y2="88.5755" stroke="#1E4E4E"/>
<line x1="38.1156" y1="118.343" x2="125.058" y2="133.673" stroke="#1E4E4E"/>
<line x1="31.0605" y1="160.656" x2="120.113" y2="176.358" stroke="#1E4E4E"/>
<path d="M105.872 59.7261C105.11 58.5901 104.221 57.5385 103.221 56.5909C103.132 56.5104 103.02 56.4582 102.9 56.4413C102.78 56.4244 102.657 56.4437 102.55 56.4965C101.329 57.1324 100.186 57.8984 99.1428 58.7804C96.8182 60.7309 95.426 62.9357 95.1139 65.1568C94.8818 66.8077 95.3375 68.4862 96.3806 69.8232C97.4236 71.1602 98.9687 72.0461 100.676 72.286C102.383 72.5259 104.112 72.1002 105.483 71.1025C106.855 70.1049 107.755 68.6169 107.987 66.966C108.299 64.745 107.569 62.2418 105.872 59.7261ZM100.835 71.1543C99.4388 70.9565 98.1756 70.2314 97.3225 69.1378C96.4694 68.0443 96.096 66.6717 96.2842 65.3213C96.8531 61.2732 101.385 58.4644 102.724 57.7148C103.803 58.8043 107.386 62.752 106.817 66.8016C106.626 68.1516 105.888 69.3681 104.767 70.1841C103.645 71.0001 102.231 71.349 100.835 71.1543Z" fill="#2E55BC"/>
<path d="M98.8721 101.726C98.1104 100.59 97.2212 99.5385 96.221 98.5909C96.132 98.5104 96.0198 98.4582 95.8996 98.4413C95.7795 98.4244 95.6573 98.4437 95.5495 98.4965C94.3288 99.1324 93.1862 99.8984 92.1428 100.78C89.8182 102.731 88.426 104.936 88.1139 107.157C87.8818 108.808 88.3375 110.486 89.3806 111.823C90.4236 113.16 91.9687 114.046 93.6758 114.286C95.3829 114.526 97.1123 114.1 98.4835 113.103C99.8547 112.105 100.755 110.617 100.987 108.966C101.299 106.745 100.569 104.242 98.8721 101.726ZM93.8348 113.154C92.4388 112.957 91.1756 112.231 90.3225 111.138C89.4694 110.044 89.096 108.672 89.2842 107.321C89.8531 103.273 94.3853 100.464 95.7236 99.7148C96.8035 100.804 100.386 104.752 99.817 108.802C99.6257 110.152 98.8884 111.368 97.7669 112.184C96.6454 113 95.2313 113.349 93.8348 113.154Z" fill="#2E55BC"/>
<g clip-path="url(#clip0_1388_3840)">
<path d="M64.9867 87.6119C64.8633 87.4481 60.6127 86.9037 60.6127 86.9037L49.3731 96.3363C49.3731 96.3363 48.5872 99.4674 48.7119 100.843C48.7823 101.618 48.9516 103.018 49.8158 104.772C50.4068 105.974 50.9243 106.531 50.9243 106.531L56.3748 109.855L65.5383 112.195L72.1365 109.328C72.1365 109.328 72.7978 107.694 72.8208 106.435C72.8441 105.174 72.733 104.204 72.8775 103.391C73.022 102.578 73.9683 99.3662 73.531 96.909C73.1442 94.739 71.5478 91.5836 69.248 89.7507C66.9482 87.9178 64.9867 87.6119 64.9867 87.6119Z" fill="#F68561"/>
<path d="M64.9529 114.759C66.1159 115.106 67.8043 115.361 69.7877 114.254C71.5575 113.266 72.4685 112.137 72.7045 111.104C72.9839 109.887 72.9763 108.751 72.9715 108.047C72.9706 107.915 72.9699 107.798 72.9711 107.698C72.9813 107.069 72.8215 105.673 72.8215 105.673C72.8215 105.673 71.5198 107.732 70.1344 108.59C68.749 109.448 65.5635 110.396 62.5809 110.08L62.4757 110.069C59.5508 109.762 57.5754 109.555 55.58 108.753C53.5608 107.942 50.2664 105.606 50.2664 105.606C50.2664 105.606 51.2532 107.638 53.4961 109.354C55.1898 110.65 56.2592 111.07 56.9807 111.343C57.5321 111.554 58.0257 111.689 58.5066 111.822C59.0036 111.958 59.4872 112.091 60.0071 112.299C60.6147 112.54 61.4671 113.006 62.3205 113.471C63.3312 114.023 64.3436 114.576 64.9529 114.759Z" fill="#8990A5"/>
<path d="M50.3982 94.7535C50.3194 94.7929 47.6642 97.8961 47.5956 98.2045C47.5267 98.5154 47.4037 99.0132 47.7213 99.232C47.9469 99.3874 48.1706 99.1967 48.3595 99.0743C48.5484 98.9519 48.9178 98.7842 49.3315 98.6429C49.7452 98.5016 50.4271 98.4636 50.9389 98.2528C51.6973 97.9403 52.4653 97.0384 52.4653 97.0384L53.8344 99.7453L53.0093 101.179C53.0093 101.179 53.3673 101.757 53.4449 101.834C53.5846 101.972 54.6132 101.407 55.2692 100.242C55.9252 99.0773 56.2675 97.5223 56.2675 97.5223C56.2675 97.5223 57.1405 98.3342 58.0562 98.6623C58.9723 98.988 60.9169 99.1628 61.0612 99.0341C61.1882 98.9207 61.5115 97.0879 61.5304 96.2524C61.5494 95.4169 61.2491 94.2664 61.2491 94.2664C61.2491 94.2664 62.2075 94.5601 63.4128 94.4089C64.6181 94.2577 65.582 93.7039 65.6691 93.4435C65.7562 93.1831 65.1386 92.4046 65.1386 92.4046L62.414 90.9891L62.1889 90.0764C62.1889 90.0764 63.715 89.8516 64.6073 89.053C65.2516 88.4746 66.3588 87.7819 66.4134 87.3932C66.468 87.0045 65.8316 87.006 65.8316 87.006L60.215 88.3852L50.3982 94.7535Z" fill="#1E4E4E"/>
<path d="M53.9047 88.5766C55.6686 87.3603 57.4112 86.4035 60.0466 86.0998C62.6718 85.7972 64.3939 86.37 64.7944 86.502C65.1952 86.6315 66.4014 87.0308 66.2864 87.1484C66.2363 87.1995 65.2725 87.5008 64.2949 87.9541C63.3173 88.4075 62.9146 88.5427 62.6715 88.6373C62.3084 88.7782 61.7866 88.9699 61.764 89.2747C61.7359 89.6899 62.287 89.7926 62.8469 90.1919C63.4068 90.5912 64.089 91.1793 64.5779 91.7429C65.0667 92.3064 65.3193 92.5388 65.3693 92.7402C65.4242 92.96 63.4672 93.6822 62.2378 93.4841C61.0084 93.2861 60.507 92.6501 60.154 93.0423C59.8031 93.4373 60.5688 94.6532 60.6413 95.8979C60.7138 97.1426 60.544 98.3508 60.544 98.3508C60.544 98.3508 58.6727 98.2291 57.8596 97.7993C56.6352 97.1526 56.6138 96.1372 55.8951 96.1675C54.9226 96.2076 55.5399 97.958 54.6002 99.8128C53.7611 101.472 53.2372 101.535 53.2372 101.535C53.2372 101.535 52.5364 100.575 52.309 100.074C52.0816 99.5724 51.7808 99.2878 51.8482 98.2874C51.9155 97.2871 52.2136 96.0465 51.7353 95.9288C51.2571 95.8111 50.9952 96.8119 50.3669 97.2411C49.7385 97.6703 48.8567 97.819 48.4242 98.0763C47.9938 98.3365 47.5141 98.8396 47.5141 98.8396C47.5141 98.8396 47.4717 97.1296 48.5378 94.9871C49.6038 92.8446 51.2014 90.441 53.9047 88.5766Z" fill="#89E159"/>
<path d="M51.6507 83.3803C51.7449 83.1587 52.8922 82.6661 53.3962 82.7622C53.9002 82.8583 53.7785 82.9876 53.8232 83.1908C53.8679 83.394 53.2482 85.1801 53.6779 86.3261C54.0657 87.3576 54.4678 87.8912 55.5111 88.0126C56.5543 88.134 53.7749 90.8991 53.7749 90.8991C53.7749 90.8991 51.9234 89.5053 51.415 87.3385C50.9066 85.1717 51.5033 83.7281 51.6507 83.3803Z" fill="#89E159"/>
<path d="M69.5462 105.609C69.0851 105.567 68.5765 106.132 68.6977 107.012C68.7973 107.741 69.2633 108.071 69.6363 108.076C70.009 108.082 70.4225 107.565 70.3977 106.754C70.3758 106.137 70.1594 105.665 69.5462 105.609ZM69.9152 98.5643C69.2663 98.6372 69.2126 99.4678 69.2883 99.9354C69.3615 100.403 69.7006 100.756 70.1231 100.732C70.5455 100.708 70.8821 100.091 70.8431 99.5783C70.8094 99.0636 70.5154 98.4972 69.9152 98.5643ZM67.4261 92.2944C66.9149 92.6265 67.0207 93.2927 67.3566 93.7766C67.6929 94.2581 68.1954 94.4373 68.5682 94.2271C68.9411 94.017 68.9588 93.1005 68.616 92.6661C68.2734 92.2292 67.818 92.0389 67.4261 92.2944ZM64.4846 97.1649C64.0776 97.4384 64.0478 98.1537 64.3849 98.701C64.722 99.2482 65.2995 99.6121 65.6663 99.2471C66.0332 98.8821 65.9178 98.0505 65.6534 97.5791C65.3864 97.1073 64.8306 96.9308 64.4846 97.1649Z" fill="#DBE2F9"/>
<path d="M63.7296 103.292C63.3369 103.661 63.5141 104.304 63.7696 104.714C64.0645 105.184 64.8368 105.563 65.2561 105.256C65.7429 104.9 65.6514 104.15 65.1671 103.572C64.8016 103.137 64.1258 102.916 63.7296 103.292ZM63.3778 109.496C63.1615 109.993 63.3115 110.506 64.2498 110.8C65.0674 111.054 65.5514 110.718 65.5964 110.29C65.6272 109.999 65.3714 109.465 64.5983 109.218C63.9777 109.017 63.561 109.072 63.3778 109.496ZM57.2034 106.563C56.8108 107.003 57.1151 107.729 57.4706 108.092C57.8767 108.508 58.65 108.538 58.9082 108.138C59.1661 107.74 59.0049 107.127 58.579 106.726C58.1535 106.323 57.5359 106.191 57.2034 106.563ZM52.4269 102.862C51.7575 103.278 52.085 104.091 52.4238 104.429C52.8047 104.809 53.3074 105.112 53.8356 104.767C54.3637 104.422 54.0282 103.504 53.7747 103.206C53.5237 102.908 52.9385 102.545 52.4269 102.862Z" fill="#DBE2F9"/>
<path d="M58.6554 101.314C58.2714 101.748 58.4694 102.53 58.8289 102.846C59.1885 103.162 59.7721 103.428 60.2046 103.009C60.6375 102.588 60.5102 101.949 60.131 101.539C59.7545 101.128 59.0627 100.859 58.6554 101.314Z" fill="#DBE2F9"/>
</g>
<path d="M77.4031 50.4655C75.3409 48.8309 72.0477 45.8729 66.5084 48.3218C65.9005 47.2118 63.9193 46.116 61.802 47.0479C59.1553 48.2128 57.4998 49.7821 56.5918 50.8071C55.6837 51.8322 47.8358 63.2556 58.2488 67.9849C66.5792 71.7684 73.3964 71.1783 75.4723 69.9972C78.1549 69.0295 81.955 67.3226 82.6145 62.6306C83.2739 57.9386 81.8168 50.3173 77.4031 50.4655Z" fill="#F68561"/>
<path d="M77.4031 50.4655C75.3409 48.8309 72.0477 45.8729 66.5084 48.3218C65.9005 47.2118 63.9193 46.116 61.802 47.0479C59.1553 48.2128 57.4998 49.7821 56.5918 50.8071C55.6837 51.8322 47.8358 63.2556 58.2488 67.9849C66.5792 71.7684 73.3964 71.1783 75.4723 69.9972C78.1549 69.0295 81.955 67.3226 82.6145 62.6306C83.2739 57.9386 81.8168 50.3173 77.4031 50.4655Z" stroke="#F68561" stroke-width="0.396895"/>
<path d="M68.6471 49.8342C68.1021 51.7441 68.8032 51.8722 69.4725 51.945C71.103 51.8406 71.1584 51.061 70.9643 50.2905L70.3586 47.4098L69.8316 44.9682C69.5966 45.7111 69.2128 47.8517 68.6471 49.8342Z" fill="url(#paint0_linear_1388_3840)" stroke="url(#paint1_linear_1388_3840)" stroke-width="0.396895"/>
<path d="M67.9994 50.6963C68.6602 51.9088 68.951 52.3038 69.5867 52.0973C71.0222 51.3335 70.7744 50.6029 70.2883 49.9686L68.5634 47.5719L67.0889 45.5461C67.1751 46.3303 67.0086 48.8783 67.9994 50.6963Z" fill="#1E4E4E" stroke="#1E4E4E" stroke-width="0.396895"/>
<path d="M69.3337 51.7273C68.1735 50.6583 69.93 47.886 76.3052 46.6914C74.8771 48.9993 70.107 52.6025 69.3337 51.7273Z" fill="url(#paint2_linear_1388_3840)" stroke="url(#paint3_linear_1388_3840)" stroke-width="0.396895"/>
<path d="M67.6463 48.7718C69.506 48.7691 69.8835 50.7215 69.6601 51.5353C67.6324 51.9038 68.6049 51.2081 67.7187 50.5926C66.8304 49.9757 66.2323 50.8532 66.0636 51.2838L65.1511 52.834L65.022 51.8163L65.0645 51.214C65.1917 50.5869 65.7866 48.7745 67.6463 48.7718Z" fill="#1F2431"/>
<path d="M67.6463 48.7718C69.506 48.7691 69.8835 50.7215 69.6601 51.5353C67.6324 51.9038 68.6049 51.2081 67.7187 50.5926C66.8304 49.9757 66.2323 50.8532 66.0636 51.2838L65.1511 52.834L65.022 51.8163L65.0645 51.214C65.1917 50.5869 65.7866 48.7745 67.6463 48.7718Z" fill="url(#paint4_linear_1388_3840)"/>
<path d="M67.6463 48.7718C69.506 48.7691 69.8835 50.7215 69.6601 51.5353C67.6324 51.9038 68.6049 51.2081 67.7187 50.5926C66.8304 49.9757 66.2323 50.8532 66.0636 51.2838L65.1511 52.834L65.022 51.8163L65.0645 51.214C65.1917 50.5869 65.7866 48.7745 67.6463 48.7718Z" stroke="#1F2431" stroke-width="0.396895"/>
<path d="M67.6463 48.7718C69.506 48.7691 69.8835 50.7215 69.6601 51.5353C67.6324 51.9038 68.6049 51.2081 67.7187 50.5926C66.8304 49.9757 66.2323 50.8532 66.0636 51.2838L65.1511 52.834L65.022 51.8163L65.0645 51.214C65.1917 50.5869 65.7866 48.7745 67.6463 48.7718Z" stroke="url(#paint5_linear_1388_3840)" stroke-width="0.396895"/>
<path d="M71.6475 49.5025C69.9391 49.1352 69.055 50.9834 69.0996 51.7851C70.0267 52.1756 71.3355 51.581 71.0545 50.841C70.7738 50.1017 72.8862 51.2837 72.9562 51.7177L73.2414 52.5703L73.5799 51.6022L73.6638 51.0046C73.6708 50.3958 73.3559 49.8699 71.6475 49.5025Z" fill="#1F2431"/>
<path d="M71.6475 49.5025C69.9391 49.1352 69.055 50.9834 69.0996 51.7851C70.0267 52.1756 71.3355 51.581 71.0545 50.841C70.7738 50.1017 72.8862 51.2837 72.9562 51.7177L73.2414 52.5703L73.5799 51.6022L73.6638 51.0046C73.6708 50.3958 73.3559 49.8699 71.6475 49.5025Z" fill="url(#paint6_linear_1388_3840)"/>
<path d="M71.6475 49.5025C69.9391 49.1352 69.055 50.9834 69.0996 51.7851C70.0267 52.1756 71.3355 51.581 71.0545 50.841C70.7738 50.1017 72.8862 51.2837 72.9562 51.7177L73.2414 52.5703L73.5799 51.6022L73.6638 51.0046C73.6708 50.3958 73.3559 49.8699 71.6475 49.5025Z" stroke="#1F2431" stroke-width="0.396895"/>
<path d="M71.6475 49.5025C69.9391 49.1352 69.055 50.9834 69.0996 51.7851C70.0267 52.1756 71.3355 51.581 71.0545 50.841C70.7738 50.1017 72.8862 51.2837 72.9562 51.7177L73.2414 52.5703L73.5799 51.6022L73.6638 51.0046C73.6708 50.3958 73.3559 49.8699 71.6475 49.5025Z" stroke="url(#paint7_linear_1388_3840)" stroke-width="0.396895"/>
<path d="M58.356 55.7263C57.4514 58.2104 56.5021 59.6593 55.7298 59.3782C54.9574 59.0971 54.9145 57.2538 55.8191 54.7697C56.7237 52.2856 58.8848 50.1556 59.9334 51.1149C60.982 52.0743 59.2606 53.2422 58.356 55.7263Z" fill="#D9D9D9"/>
<path d="M77.4579 64.0226C79.6632 62.6457 81.0425 57.6315 81.5074 58.3756C82.1102 59.3402 83.2066 62.1341 79.2457 66.5048C73.5734 72.4687 62.3696 68.8286 61.5278 67.4814C60.686 66.1342 70.3632 69.3555 77.4579 64.0226Z" fill="#8990A5"/>
<g clip-path="url(#clip1_1388_3840)">
<path d="M60.5071 133.9C60.5071 133.9 62.7557 133.547 64.2577 135.793C66.0035 138.407 64.4778 141.807 63.1676 144.304C61.8573 146.801 61.294 147.684 60.5101 149.849C59.9216 151.467 59.1104 154.383 55.9866 154.928C53.8025 155.308 51.8651 153.483 51.8651 153.483C51.8651 153.483 50.8425 154.347 48.8586 154.308C46.7114 154.264 44.5631 153.293 44.0421 151.341C43.769 150.321 43.8067 147.178 43.8029 145.175C43.7984 142.549 42.8815 139.57 42.8662 137.308C42.8547 135.378 43.9349 131.069 49.8211 131.778C51.879 132.026 54.0718 133.165 54.0718 133.165C54.0718 133.165 56.0123 132.471 57.4129 132.511C60.1085 132.587 60.5071 133.9 60.5071 133.9Z" fill="#F68561"/>
<path d="M46.8981 131.884C47.7023 131.659 48.6515 131.479 50.2873 131.606C52.6049 131.785 54.07 133.162 54.07 133.162C54.07 133.162 56.0105 132.468 57.411 132.508C60.1092 132.585 60.7602 133.88 60.7602 133.88C60.7602 133.88 60.3165 133.894 59.5822 134.053C58.986 134.181 59.1255 134.716 59.5868 134.829C60.4924 135.05 61.1576 135.759 61.2033 136.099C61.2033 136.099 59.8239 135.261 58.2261 135.529C56.1006 135.886 55.3388 137.319 55.3388 137.319C55.3388 137.319 54.3804 135.821 51.7442 134.82C49.2375 133.867 47.2188 134.722 47.2188 134.722C47.4617 134.089 47.8815 133.815 48.2595 133.55C48.9401 133.073 48.8113 132.552 48.2217 132.292C47.7318 132.077 46.8981 131.884 46.8981 131.884Z" fill="#1E4E4E"/>
<path d="M62.0819 126.185C62.9515 127.182 60.575 129.415 60.1581 129.381C59.3147 129.311 58.8359 128.208 57.0658 129.487C56.3464 130.007 55.9771 130.839 55.8758 131.703C55.8432 131.989 55.6243 133.044 56.091 133.351C56.2365 133.448 56.3325 133.519 56.8438 133.402C57.4152 133.27 57.8256 133.853 57.8256 133.853L56.7455 134.784L54.3355 135.208L52.088 134.422L50.9164 133.058C50.9164 133.058 51.6056 132.663 52.1182 132.932C52.3957 133.077 52.9842 132.986 53.0346 132.644C53.1458 131.925 53.2125 131.235 53.447 130.536C53.8365 129.382 54.5009 128.319 55.4371 127.531C56.7798 126.402 59.1286 124.472 60.8528 124.437C62.2677 124.411 62.2684 125.02 62.0819 126.185Z" fill="#3D8E53"/>
<path d="M56.3588 126.898C57.535 126.235 58.9072 125.956 60.2616 125.929C60.7173 125.92 61.0506 125.992 61.2888 126.129C60.7721 126.069 59.7389 126.181 57.9711 127.066C56.8579 127.622 54.5002 129.848 55.8045 132.674C55.8188 132.896 55.8705 133.103 55.9868 133.245C55.5995 133.001 54.8818 132.252 54.9366 130.533C54.9954 128.713 55.5875 127.59 56.3588 126.898Z" fill="#89E159"/>
<path opacity="0.6" d="M55.2188 143.348C55.1068 144.289 54.6614 146.362 53.6579 149.263C52.8033 151.733 53.0491 153.648 53.5943 154.566C52.5655 154.126 51.8675 153.487 51.8675 153.487C51.8675 153.487 51.7361 152.429 51.8652 151.384C52.019 150.128 52.8949 147.686 53.7868 145.777C54.4145 144.436 54.8404 142.34 55.0272 141.155C55.0275 141.152 55.4225 141.647 55.2188 143.348Z" fill="#8990A5"/>
<path opacity="0.75" d="M57.1048 140.31C57.363 140.377 57.624 140.244 57.8447 140.111C58.6507 139.621 59.1313 139.184 60.0125 138.805C60.6949 138.512 61.9714 138.429 61.6923 137.398C61.5575 136.902 60.7959 136.734 60.261 136.75C58.3983 136.801 57.4384 137.757 56.8668 139.04C56.7672 139.263 56.6451 139.486 56.6633 139.733C56.6794 139.978 56.8402 140.235 57.0924 140.309L57.1048 140.31ZM51.782 136.869C50.684 135.987 48.9143 135.754 47.3273 136.303C46.9345 136.44 46.5485 136.635 46.2858 136.959C46.0874 137.204 45.9889 137.599 46.2185 137.816C46.4105 137.994 46.7152 137.946 46.9739 137.902C48.5254 137.64 50.1813 138.055 51.4241 139.02C51.8931 139.383 52.8353 140.619 53.2636 139.907C53.6904 139.187 53.1478 137.964 51.782 136.869Z" fill="#DBE2F9"/>
</g>
<defs>
<filter id="filter0_f_1388_3840" x="0.94873" y="0.285156" width="184.451" height="219.513" filterUnits="userSpaceOnUse" color-interpolation-filters="sRGB">
<feFlood flood-opacity="0" result="BackgroundImageFix"/>
<feBlend mode="normal" in="SourceGraphic" in2="BackgroundImageFix" result="shape"/>
<feGaussianBlur stdDeviation="10" result="effect1_foregroundBlur_1388_3840"/>
</filter>
<linearGradient id="paint0_linear_1388_3840" x1="70.0787" y1="45.0391" x2="72.6009" y2="45.8529" gradientUnits="userSpaceOnUse">
<stop stop-color="#89E159"/>
<stop offset="1" stop-color="#B9F598"/>
</linearGradient>
<linearGradient id="paint1_linear_1388_3840" x1="70.0787" y1="45.0391" x2="72.6009" y2="45.8529" gradientUnits="userSpaceOnUse">
<stop stop-color="#89E159"/>
<stop offset="1" stop-color="#B9F598"/>
</linearGradient>
<linearGradient id="paint2_linear_1388_3840" x1="70.3221" y1="45.8505" x2="76.3817" y2="47.2737" gradientUnits="userSpaceOnUse">
<stop stop-color="#89E159"/>
<stop offset="1" stop-color="#B9F598"/>
</linearGradient>
<linearGradient id="paint3_linear_1388_3840" x1="70.3221" y1="45.8505" x2="76.3817" y2="47.2737" gradientUnits="userSpaceOnUse">
<stop stop-color="#89E159"/>
<stop offset="1" stop-color="#B9F598"/>
</linearGradient>
<linearGradient id="paint4_linear_1388_3840" x1="68.3725" y1="53.0593" x2="65.4893" y2="50.7855" gradientUnits="userSpaceOnUse">
<stop stop-color="#1E4E4E"/>
<stop offset="1" stop-color="#1F2431"/>
</linearGradient>
<linearGradient id="paint5_linear_1388_3840" x1="68.3725" y1="53.0593" x2="65.4893" y2="50.7855" gradientUnits="userSpaceOnUse">
<stop stop-color="#1E4E4E"/>
<stop offset="1" stop-color="#1F2431"/>
</linearGradient>
<linearGradient id="paint6_linear_1388_3840" x1="70.1914" y1="52.1416" x2="72.6412" y2="50.3408" gradientUnits="userSpaceOnUse">
<stop stop-color="#1E4E4E"/>
<stop offset="1" stop-color="#1F2431"/>
</linearGradient>
<linearGradient id="paint7_linear_1388_3840" x1="70.1914" y1="52.1416" x2="72.6412" y2="50.3408" gradientUnits="userSpaceOnUse">
<stop stop-color="#1E4E4E"/>
<stop offset="1" stop-color="#1F2431"/>
</linearGradient>
<clipPath id="clip0_1388_3840">
<rect width="32" height="32" fill="white" transform="translate(47.4536 81) rotate(8)"/>
</clipPath>
<clipPath id="clip1_1388_3840">
<rect width="32" height="32" rx="16" transform="matrix(-0.990268 -0.139173 -0.139173 0.990268 72.1421 126.453)" fill="white"/>
</clipPath>
</defs>
</svg>
