<svg width="44" height="44" viewBox="0 0 44 44" fill="none" xmlns="http://www.w3.org/2000/svg">
<path d="M16.9653 13.0205C16.2017 13.4021 15.6175 13.9462 15.3001 14.4743C14.9826 15.0023 14.9365 15.4686 15.1109 15.8176C15.2852 16.1665 15.6858 16.4096 16.2987 16.4727C16.5333 16.497 16.7933 16.4909 17.0677 16.4534C16.4244 17.1577 15.996 18.1045 15.8078 19.206C15.7746 19.4022 15.7494 19.5997 15.7324 19.7981C16.6131 18.6949 17.7557 17.7921 19.0312 17.1547C20.3068 16.5173 21.7148 16.1457 23.1257 16.1037C22.957 15.9982 22.7839 15.8997 22.6071 15.8084C21.6133 15.2975 20.5989 15.0717 19.6495 15.1632C19.8441 14.9664 20.0048 14.7622 20.1262 14.5602C20.4436 14.0322 20.4898 13.5659 20.3154 13.2169C20.141 12.868 19.7404 12.625 19.1276 12.5617C18.5147 12.4986 17.7289 12.6389 16.9653 13.0205ZM13.681 15.2723C13.062 15.5815 12.8152 16.3215 13.1244 16.9404C13.4337 17.5593 14.1736 17.8062 14.7925 17.4969C14.9598 17.4133 15.0996 17.2981 15.2089 17.1626C14.7964 16.9646 14.4545 16.663 14.2476 16.2489C14.0746 15.9028 14.0209 15.5283 14.06 15.1526C13.9281 15.1722 13.8002 15.2126 13.681 15.2723ZM20.7388 11.7456C20.6155 11.8072 20.5071 11.8861 20.4149 11.9776C20.7387 12.1718 21.0057 12.4395 21.1787 12.7856C21.3855 13.1994 21.4214 13.6538 21.3322 14.1024C21.5124 14.0962 21.6892 14.0511 21.8503 13.9702C22.4692 13.661 22.7161 12.9211 22.4068 12.3022C22.0975 11.6832 21.3576 11.4364 20.7387 11.7457L20.7388 11.7456ZM9.41411 18.8571C10.0941 19.1694 10.4659 19.5899 10.7122 20.0509L9.63707 20.3438C10.1942 20.6234 10.7198 20.8504 11.2879 21.5777C11.5113 22.1557 11.834 22.6873 12.5894 23.0484C13.2764 23.5031 14.0003 23.6475 14.6719 23.4756C14.8353 23.4338 14.9935 23.3749 15.1476 23.3021C15.0636 23.0125 14.9919 22.7194 14.9326 22.4237C14.7697 22.5189 14.6099 22.5872 14.4546 22.6269C14.0592 22.7282 13.667 22.6824 13.1998 22.4003C11.7437 19.7354 12.4933 17.5988 9.41421 18.8572L9.41411 18.8571ZM26.1349 10.502C23.2799 12.2087 25.4386 12.8922 26.6955 15.6567C26.6407 16.1996 26.4416 16.5407 26.1234 16.7962C26.0063 16.8901 25.8675 16.9724 25.7075 17.0425C25.9076 17.2666 26.0981 17.4989 26.2786 17.739C26.4177 17.6634 26.5492 17.5776 26.6716 17.4794C27.2124 17.0456 27.5317 16.3796 27.5804 15.557C27.7291 14.816 27.5543 14.2739 27.2776 13.7887C26.9688 12.7934 27.1128 12.205 27.2309 11.5523L26.3135 12.2654C26.0902 11.7898 25.9755 11.2374 26.1349 10.502L26.1349 10.502ZM19.0461 18.1644C18.8054 18.2987 18.5711 18.4438 18.3434 18.5981L22.4815 28.1189L17.5196 19.2252C17.2976 19.4149 17.0851 19.6156 16.8831 19.8265L19.646 26.6708L16.1448 20.7137C16.0018 20.9126 15.8686 21.1183 15.7455 21.3302C15.8572 22.4581 16.1906 23.6456 16.7664 24.798C17.7215 26.7094 19.1539 28.1464 20.6628 28.9222C22.0193 29.6197 23.4141 29.7857 24.6297 29.3387L19.0461 18.1644L19.0461 18.1644ZM19.8297 17.7729L25.4134 28.9472C26.5008 28.2434 27.2054 27.0284 27.4621 25.5247C27.7478 23.8522 27.4586 21.844 26.5035 19.9325C25.9276 18.7801 25.1782 17.8003 24.343 17.0338C24.1602 17.0122 23.9766 16.9973 23.7927 16.9891L26.4209 23.2854L22.6391 17.021C22.3454 17.0498 22.0522 17.0942 21.7608 17.1534L25.8766 26.4225L20.7594 17.418C20.4436 17.52 20.1333 17.6384 19.8298 17.7729L19.8297 17.7729ZM15.5293 24.8933C15.0184 25.1572 14.6174 25.6133 14.3648 26.2272C13.8504 27.1132 14.0246 28.0089 14.2598 28.9025C14.2673 29.8436 13.9912 30.3512 13.7224 30.9209L14.6168 30.5439C14.6665 31.1359 14.5722 31.7236 14.1472 32.3035C17.4489 31.9057 15.3283 29.6692 15.2086 26.471C15.3997 26.0339 15.6648 25.7859 16.009 25.6345C16.0373 25.622 16.0664 25.6104 16.0963 25.5993C16.0301 25.4779 15.9656 25.3546 15.9031 25.2294C15.8339 25.0911 15.768 24.9521 15.7051 24.8127C15.6889 24.8195 15.6724 24.8255 15.6563 24.8326C15.6134 24.8515 15.571 24.8717 15.5293 24.8933ZM27.2904 19.0164C27.2482 19.0368 27.2067 19.0585 27.1657 19.0816C27.1608 19.0843 27.156 19.0874 27.1511 19.0902C27.2252 19.2251 27.2973 19.3619 27.3669 19.5012C27.4289 19.6254 27.4884 19.7501 27.5454 19.8751C27.562 19.8649 27.5785 19.8544 27.5952 19.8451C27.9229 19.6607 28.2806 19.5976 28.7449 19.7073C31.2305 21.7232 31.7459 24.7618 34.0462 22.3603C33.3282 22.352 32.8022 22.0752 32.359 21.6809L33.2279 21.1744C32.5785 21.0405 31.9792 20.9547 31.1717 20.2979C30.6227 19.616 30.0221 19.0005 29.0565 18.886C28.4139 18.7194 27.8083 18.7663 27.2904 19.0164ZM18.1553 28.2991C17.9385 28.5524 17.7669 28.825 17.6513 29.1221C17.3917 29.7891 17.4602 30.5521 17.8622 31.3127C18.0426 31.889 18.6465 32.1587 19.4614 32.4057C20.1391 33.0694 20.3034 33.6259 20.517 34.221L20.9835 33.075C21.4359 33.6125 21.5817 34.0891 21.7626 34.5935L22.274 33.337C22.7501 33.5579 23.2269 33.8336 23.6833 34.1931C23.1885 30.685 19.7552 32.089 18.3731 30.132C18.3455 29.8849 18.3821 29.6598 18.4678 29.4396C18.5407 29.2521 18.6587 29.063 18.8195 28.8747C18.5895 28.693 18.3678 28.5009 18.1552 28.299L18.1553 28.2991ZM28.471 23.1596C28.5043 23.4507 28.5243 23.7432 28.531 24.0362C28.7654 24.0243 28.9767 24.044 29.1619 24.0959C29.3895 24.1596 29.5915 24.2655 29.7725 24.4359C30.5077 26.7162 27.3235 28.6188 29.8318 31.1208C29.8186 30.5495 29.8821 30.0113 29.9882 29.5053L31.2699 29.8428C30.9753 29.3953 30.6817 28.9925 30.5235 28.308L31.7199 28.6231C31.3793 28.1058 31.0401 27.6485 30.91 26.7463C31.2197 25.9116 31.3869 25.2414 31.0233 24.7359C30.6564 23.958 30.0873 23.4452 29.3981 23.2523C29.1015 23.1692 28.7917 23.1421 28.4709 23.1596L28.471 23.1596Z" fill="#8990A5"/>
</svg>
