<svg width="44" height="44" viewBox="0 0 44 44" fill="none" xmlns="http://www.w3.org/2000/svg">
<path d="M21.5628 13.332C22.9026 15.54 23.1966 18.0215 22.7727 20.3389C23.805 20.5234 24.6526 21.2686 25.5003 22.2256C25.6848 22.4375 25.8762 22.6631 26.0676 22.8955C26.7923 22.123 27.2776 20.9678 27.4485 19.6689C27.6399 18.1787 27.4007 16.5654 26.7649 15.3555C26.7444 15.3281 26.7171 15.2939 26.6966 15.2666C26.5528 15.9311 26.2959 16.5146 25.9702 16.9165C25.6444 17.3184 25.2703 17.5134 24.9124 17.4678C24.5052 17.4149 24.1504 17.0546 23.926 16.4662C23.7017 15.8778 23.6262 15.1094 23.7161 14.3301C23.7473 14.0594 23.7979 13.7926 23.8665 13.5371C23.3196 13.4072 22.6839 13.3389 21.9456 13.332H21.5628ZM20.1614 13.4346C19.8059 13.4756 19.4778 13.5371 19.1839 13.6123C19.2343 13.6992 19.2822 13.7882 19.3274 13.8789C19.4783 14.1836 19.5964 14.5029 19.675 14.8187C19.7536 15.1345 19.7911 15.4405 19.7854 15.7192C19.7797 15.9979 19.7309 16.2439 19.6417 16.443C19.5526 16.6422 19.4249 16.7907 19.2659 16.8799C18.9457 17.0591 18.5184 16.9877 18.0776 16.6815C17.6368 16.3753 17.2185 15.8591 16.9143 15.2461C16.8626 15.1407 16.8146 15.0333 16.7708 14.9248C16.3401 15.3691 16.0257 15.8887 15.7659 16.4766C17.2493 17.4746 18.0423 18.7939 18.3977 20.1611C18.555 20.7422 18.637 21.3301 18.6848 21.9111C18.7669 21.8086 18.8557 21.7129 18.9446 21.6172C19.6487 20.8584 20.4348 20.4141 21.5286 20.3047C22.0071 17.9941 21.6858 15.5605 20.1614 13.4346ZM15.3216 17.6592C15.2122 17.9941 15.1096 18.3428 15.0003 18.6914C15.3769 18.957 15.6782 19.2929 15.8393 19.6266C16.0004 19.9603 16.0084 20.2652 15.8616 20.4756C15.744 20.6457 15.5324 20.7446 15.2573 20.7581C14.9822 20.7716 14.6577 20.699 14.3303 20.5508C14.2278 20.79 14.1116 21.0225 13.9817 21.2549C15.0208 21.7266 15.6565 22.5264 15.971 23.4287C16.1282 23.8799 16.2307 24.3516 16.2923 24.8232C16.7571 24.29 17.1467 23.8115 17.4954 23.3809C17.4954 22.3691 17.4475 21.3711 17.2083 20.4756C16.928 19.3955 16.4085 18.4521 15.3216 17.6592ZM37.6067 19.1699C36.6907 20.3389 36.3216 21.8496 36.1507 23.2373C36.1575 23.2441 36.1712 23.2441 36.1848 23.251C36.5813 23.415 36.971 23.5928 37.3333 23.7978C37.4973 22.3965 37.8186 20.8926 38.5774 19.9219L37.6067 19.1699ZM28.6721 19.7578C28.6721 19.7852 28.6653 19.8057 28.6653 19.833C28.4602 21.3779 27.8655 22.8682 26.8401 23.873C27.387 24.5771 27.9749 25.3564 28.6448 26.1699C28.7268 26.2725 28.9387 26.416 29.2395 26.5664C30.4837 25.4453 31.1194 24.2764 31.1673 23.0186C30.9759 22.9297 30.7981 22.8271 30.6341 22.7109C30.4169 22.9644 30.1752 23.152 29.94 23.2494C29.7049 23.3469 29.4871 23.3498 29.3147 23.2578C29.0855 23.1364 28.9524 22.8565 28.9447 22.4796C28.937 22.1027 29.0554 21.6597 29.2737 21.248C29.2849 21.2274 29.2963 21.2069 29.3079 21.1865L29.1848 20.9609C28.9934 20.5781 28.8225 20.1748 28.6721 19.7578ZM21.1184 21.5557C20.5784 21.6582 20.2434 21.9316 19.7581 22.458C19.6624 22.5605 19.5598 22.6768 19.4573 22.7998C19.4618 22.809 19.4663 22.8181 19.471 22.8271C19.6738 23.1343 19.9494 23.3534 20.2375 23.4366C20.5257 23.5199 20.803 23.4605 21.0091 23.2715C21.1963 23.0977 21.3104 22.8284 21.3305 22.5131C21.3506 22.1978 21.2753 21.8578 21.1184 21.5557ZM23.2307 21.877C22.9761 22.1117 22.7893 22.4156 22.7061 22.7309C22.6229 23.0461 22.649 23.3505 22.7796 23.5859C22.849 23.7121 22.9463 23.8151 23.066 23.8889C23.1857 23.9627 23.3254 24.0059 23.4771 24.0161C23.6289 24.0263 23.7897 24.0032 23.9503 23.9481C24.1109 23.8931 24.2683 23.8072 24.4134 23.6953C24.5408 23.5958 24.6565 23.4778 24.7551 23.3467C24.6663 23.2441 24.5774 23.1348 24.4885 23.0391C24.0305 22.5127 23.6135 22.1299 23.2307 21.877ZM13.2981 22.2734C13.2844 22.2871 13.2708 22.3076 13.2571 22.3213C13.4116 22.6985 13.4791 23.0784 13.4479 23.3945C13.4166 23.7106 13.2886 23.9429 13.0862 24.0508C12.9124 24.142 12.6929 24.1374 12.4564 24.0374C12.2199 23.9374 11.9773 23.7468 11.76 23.4902C11.678 23.5176 11.5891 23.5449 11.5003 23.5723C11.9241 24.3379 12.1018 25.1582 12.136 25.9033C12.1497 26.3135 12.1292 26.71 12.0813 27.0723C12.5188 27.0107 12.9426 26.9287 13.3255 26.833C14.2825 26.5938 15.0344 26.2109 15.1575 26.0811C15.1643 26.0742 15.1643 26.0674 15.1712 26.0674C15.1028 25.2334 15.0208 24.4473 14.8089 23.832C14.5491 23.0937 14.1868 22.5537 13.2981 22.2734ZM32.3704 23.3809C32.2268 24.7002 31.5774 25.9238 30.5247 27.0244C30.5589 27.0312 30.5862 27.0381 30.6204 27.0449C31.4339 27.2363 32.3909 27.3662 33.3548 27.4141C34.0589 26.252 34.4143 24.9736 34.2434 23.8594C34.1546 23.8389 34.0589 23.8115 33.97 23.7842C33.8816 24.0213 33.7658 24.214 33.6354 24.3407C33.505 24.4675 33.3652 24.5233 33.2317 24.502C33.0856 24.4813 32.9531 24.3696 32.8518 24.1816C32.7505 23.9936 32.6851 23.7382 32.6643 23.4492C32.5618 23.4219 32.4661 23.4014 32.3704 23.3809ZM10.1789 23.7432C9.86921 23.7568 9.55818 23.7568 9.25261 23.7568C9.26473 24.1291 9.19165 24.47 9.04446 24.7279C8.89727 24.9857 8.68402 25.1464 8.43708 25.1855C8.16872 25.2278 7.87731 25.124 7.61461 24.8924C7.35191 24.6609 7.13493 24.3167 7.00222 23.9209C6.78962 23.9824 6.61325 24.0645 6.48132 24.167C6.17234 24.4131 5.96042 24.7822 6.00622 25.7256C6.0322 26.2588 6.35075 26.5801 7.0904 26.8604C7.82937 27.1475 8.91902 27.2705 10.0538 27.25C10.306 27.2432 10.5603 27.2295 10.8139 27.2158C10.8837 26.8262 10.9267 26.3955 10.9083 25.9512C10.8768 25.1992 10.695 24.4404 10.1789 23.7432ZM35.5149 24.2764C35.5559 25.3428 35.2551 26.4228 34.7561 27.4209C35.7063 27.3867 36.5813 27.2637 37.1966 27.0654C37.5794 26.9355 37.8596 26.7783 37.9964 26.6484C38.1399 26.5186 38.1536 26.4639 38.1467 26.3408C38.1262 26.0059 37.928 25.6846 37.511 25.3359C37.1008 24.9941 36.4856 24.666 35.8089 24.3926C35.7132 24.3516 35.6106 24.3174 35.5149 24.2764ZM17.7688 24.8916C17.3587 25.3838 16.8938 25.9238 16.3333 26.5254C16.4133 26.636 16.5054 26.7373 16.6067 26.8262C16.7444 26.9491 16.8974 27.0469 17.0568 27.1141C17.2163 27.1813 17.3791 27.2166 17.5359 27.2179C17.6928 27.2191 17.8406 27.1864 17.9708 27.1215C18.1011 27.0567 18.2113 26.9609 18.2952 26.8398C18.4643 26.5958 18.516 26.2635 18.4391 25.9161C18.3622 25.5687 18.1629 25.2347 17.885 24.9873C17.8475 24.9536 17.8087 24.9216 17.7688 24.8916ZM26.3479 25.3633C26.1256 25.6388 25.979 25.9815 25.9383 26.3209C25.8976 26.6603 25.9659 26.9707 26.1292 27.1885C26.2979 27.4103 26.5528 27.5166 26.8392 27.4846C27.1255 27.4527 27.4204 27.285 27.6604 27.0176C27.6399 26.9971 27.6194 26.9697 27.5989 26.9492C27.1409 26.3887 26.7376 25.8691 26.3479 25.3633ZM14.6106 27.7217C14.2825 27.8379 13.9202 27.9336 13.5305 28.0293C13.3186 28.084 13.093 28.1318 12.8606 28.1728C12.9064 28.3383 12.9712 28.4981 13.052 28.6445C13.1389 28.8042 13.243 28.9454 13.3585 29.0601C13.4739 29.1747 13.5984 29.2605 13.7247 29.3126C13.8511 29.3647 13.9769 29.382 14.0949 29.3635C14.2129 29.3451 14.3208 29.2912 14.4124 29.2051C14.5615 29.065 14.6613 28.8453 14.697 28.5782C14.7327 28.3112 14.7024 28.011 14.6106 27.7217ZM7.50398 28.2822C7.50396 28.2868 7.50396 28.2913 7.50398 28.2959C7.50443 28.6751 7.60006 29.0385 7.76988 29.3063C7.93969 29.5742 8.16981 29.7246 8.40974 29.7246C8.62924 29.7242 8.84118 29.5978 9.00615 29.369C9.17112 29.1401 9.27789 28.8244 9.30661 28.4805C8.68044 28.4668 8.07068 28.4053 7.50398 28.2822ZM37.2512 28.3027C36.6839 28.4668 36.0413 28.5625 35.3577 28.6172C35.4164 28.7575 35.4903 28.8891 35.5764 29.0068C35.7847 29.2928 36.0532 29.4812 36.3233 29.5312C36.5935 29.5811 36.8435 29.4885 37.0188 29.2734C37.112 29.1586 37.1809 29.0128 37.2209 28.8455C37.261 28.6783 37.2713 28.4933 37.2512 28.3027ZM30.6477 28.3301C30.6519 28.502 30.6797 28.6734 30.7298 28.8359C30.8398 29.1892 31.0483 29.4788 31.3097 29.6415C31.571 29.8042 31.8639 29.8267 32.1243 29.7041C32.298 29.6207 32.449 29.4761 32.5619 29.2852C32.6748 29.0942 32.7455 28.8637 32.7669 28.6172C32.0354 28.5625 31.3108 28.4668 30.6477 28.3301Z" fill="#8990A5"/>
</svg>
