<svg width="1280" height="660" viewBox="0 0 1280 660" fill="none" xmlns="http://www.w3.org/2000/svg">
<g clip-path="url(#clip0_1662_3846)">
<rect width="1280" height="660" fill="#141B25"/>
<rect y="434" width="1280" height="226" fill="#1F2431"/>
<g filter="url(#filter0_f_1662_3846)">
<ellipse cx="683.5" cy="539.5" rx="254.5" ry="69.5" fill="#8990A5"/>
</g>
<g filter="url(#filter1_f_1662_3846)">
<path d="M314 409.5L1072 380V503L443.5 481.5L314 409.5Z" fill="#141B25"/>
</g>
<g filter="url(#filter2_f_1662_3846)">
<ellipse cx="685.5" cy="541.5" rx="181.5" ry="44.5" fill="#141B25"/>
</g>
<g filter="url(#filter3_d_1662_3846)">
<ellipse cx="684.5" cy="526" rx="157.5" ry="43" fill="#8990A5"/>
</g>
<ellipse cx="684.5" cy="522" rx="157.5" ry="43" fill="#BFC6DC"/>
<ellipse cx="684.5" cy="522" rx="157.5" ry="43" fill="url(#paint0_linear_1662_3846)" fill-opacity="0.8"/>
<path d="M630 512.654C654.718 485.779 658.769 443.886 656.413 417H715.191C712.521 443.106 718.986 484.273 738 512.654C722.028 526.946 649.014 525.942 630 512.654Z" fill="#8990A5"/>
<g filter="url(#filter4_f_1662_3846)">
<path d="M1306 584.278C1236.6 554.23 1207.26 508.621 1136.74 541.304L1016 665.709C1059.44 660.438 1104.02 666.301 1110.79 676H1229.27L1306 584.278Z" fill="#141B25"/>
</g>
<g filter="url(#filter5_f_1662_3846)">
<path d="M994.722 488L833 641.658C922.984 632.188 977.158 630.347 1015.19 666L1124.97 539.601C1126.69 475.871 1045.07 495.799 994.722 488Z" fill="#141B25"/>
</g>
<path d="M1114.5 554.5C1116.1 497.3 1036 512 989 505L867 618V622.5C951 614 990.99 624 1026.49 656V651.5L1114.5 554.5Z" fill="#8990A5"/>
<path d="M1216 668L1283.5 579.5V574.5C1226.5 560 1244.06 533.429 1185 562.721L1131.5 642L1148.5 651C1187 645.999 1210 651.8 1216 661V668Z" fill="#8990A5"/>
<path d="M1264.5 595.261C1203 566.761 1177 523.5 1114.5 554.5L1026.5 651.5V656C1065 651 1104 656.8 1110 666V661L1264.5 595.261Z" fill="#8990A5"/>
<line x1="1133.07" y1="534.067" x2="1026.07" y2="652.067" stroke="#8990A5" stroke-width="0.2"/>
<path d="M1008 484L867 618C951 609.5 991 619.5 1026.5 651.5L1133.5 533.5C1135.1 476.3 1055 491 1008 484Z" fill="#1F2431"/>
<path d="M1008 484L867 618C951 609.5 991 619.5 1026.5 651.5L1133.5 533.5C1135.1 476.3 1055 491 1008 484Z" fill="url(#paint1_linear_1662_3846)"/>
<path d="M1283.5 574.261C1222 545.761 1196 502.5 1133.5 533.5L1026.5 651.5C1065 646.5 1104.5 652.061 1110.5 661.261H1215.5L1283.5 574.261Z" fill="#1F2431"/>
<path d="M1283.5 574.261C1222 545.761 1196 502.5 1133.5 533.5L1026.5 651.5C1065 646.5 1104.5 652.061 1110.5 661.261H1215.5L1283.5 574.261Z" fill="url(#paint2_linear_1662_3846)"/>
<path d="M1009.5 508C1047.38 513.641 1087.53 505.644 1100.9 523" stroke="#8990A5" stroke-width="2"/>
<path d="M988.5 530C1026.38 535.641 1066.53 527.644 1079.9 545" stroke="#8990A5" stroke-width="2"/>
<path d="M979.5 539C1017.38 544.641 1057.53 536.644 1070.9 554" stroke="#8990A5" stroke-width="2"/>
<path d="M970.5 550C1008.38 555.641 1048.53 547.644 1061.9 565" stroke="#8990A5" stroke-width="2"/>
<path d="M961.5 560C999.376 565.641 1039.53 557.644 1052.9 575" stroke="#8990A5" stroke-width="2"/>
<path d="M956 571C973.466 573.601 991.416 573.303 1007 573.927" stroke="#8990A5" stroke-width="2"/>
<path d="M1140 545.892C1168.36 539.467 1206 556 1231.5 576.5" stroke="#8990A5" stroke-width="2"/>
<path d="M1132 555.892C1160.36 549.467 1198 566 1223.5 586.5" stroke="#8990A5" stroke-width="2"/>
<path d="M1121 566.892C1149.36 560.467 1187 577 1212.5 597.5" stroke="#8990A5" stroke-width="2"/>
<path d="M1111 577.892C1139.36 571.467 1177 588 1202.5 608.5" stroke="#8990A5" stroke-width="2"/>
<path d="M1102 588.892C1130.36 582.467 1168 599 1193.5 619.5" stroke="#8990A5" stroke-width="2"/>
<g filter="url(#filter6_f_1662_3846)">
<ellipse cx="1204.5" cy="475" rx="67.5" ry="32" fill="#141B25"/>
</g>
<path d="M1215.5 359.149C1210 365.5 1202.75 368.649 1187.68 368.649C1172 368.649 1163.31 366.85 1160 361C1163.31 354.851 1172.41 351 1186.5 351C1200.31 351 1208.5 351 1215.5 359.149Z" fill="#1F2431" stroke="#8990A5"/>
<path d="M1163.5 321.5C1171.17 346.5 1193.5 425.5 1189.5 452.5" stroke="#1E4E4E" stroke-width="2"/>
<path d="M1179 316C1186.67 341 1185.5 408 1191 448" stroke="#1E4E4E" stroke-width="2"/>
<path d="M1190 320C1190 353 1190.42 409.712 1195 448.5" stroke="#1E4E4E" stroke-width="2"/>
<path d="M1199.5 315C1195 351.5 1191 411 1195 449" stroke="#1E4E4E" stroke-width="2"/>
<path d="M1207.5 324C1196.5 357 1193 409.5 1196.5 450" stroke="#1E4E4E" stroke-width="2"/>
<path d="M1210.82 312.18C1211.71 314.467 1212.92 316.354 1214.14 317.56C1214.75 318.163 1215.34 318.579 1215.88 318.798C1216.41 319.017 1216.86 319.032 1217.23 318.889C1217.59 318.746 1217.91 318.431 1218.16 317.909C1218.41 317.384 1218.56 316.676 1218.6 315.82C1218.68 314.108 1218.29 311.899 1217.4 309.612C1216.51 307.324 1215.29 305.437 1214.08 304.232C1213.47 303.629 1212.87 303.213 1212.34 302.993C1211.8 302.775 1211.35 302.76 1210.99 302.903C1210.62 303.046 1210.3 303.36 1210.06 303.883C1209.81 304.408 1209.65 305.116 1209.61 305.972C1209.54 307.684 1209.92 309.893 1210.82 312.18Z" fill="#DBE2F9" stroke="#F68561" stroke-width="1.01248"/>
<path d="M1206.31 317.979C1208.38 319.304 1210.47 320.115 1212.16 320.372C1213 320.5 1213.73 320.486 1214.29 320.347C1214.85 320.208 1215.22 319.955 1215.43 319.623C1215.64 319.291 1215.71 318.847 1215.6 318.279C1215.48 317.708 1215.19 317.043 1214.72 316.326C1213.77 314.893 1212.15 313.332 1210.09 312.007C1208.02 310.682 1205.93 309.87 1204.24 309.614C1203.39 309.485 1202.67 309.499 1202.11 309.639C1201.55 309.777 1201.18 310.031 1200.97 310.363C1200.76 310.695 1200.69 311.139 1200.8 311.706C1200.91 312.278 1201.21 312.942 1201.68 313.659C1202.63 315.093 1204.24 316.654 1206.31 317.979Z" fill="#DBE2F9" stroke="#F68561" stroke-width="1.01248"/>
<path d="M1208.9 323.761C1211.24 323 1213.19 321.897 1214.46 320.75C1215.1 320.176 1215.55 319.607 1215.8 319.084C1216.05 318.563 1216.09 318.117 1215.97 317.743C1215.84 317.37 1215.55 317.033 1215.04 316.759C1214.53 316.484 1213.83 316.289 1212.98 316.201C1211.27 316.025 1209.04 316.285 1206.71 317.046C1204.37 317.808 1202.42 318.911 1201.14 320.058C1200.51 320.632 1200.06 321.2 1199.81 321.724C1199.56 322.244 1199.52 322.691 1199.64 323.064C1199.77 323.438 1200.06 323.775 1200.57 324.049C1201.08 324.324 1201.78 324.519 1202.63 324.607C1204.34 324.783 1206.57 324.522 1208.9 323.761Z" fill="#DBE2F9" stroke="#F68561" stroke-width="1.01248"/>
<path d="M1213.71 327.512C1214.74 325.282 1215.26 323.097 1215.28 321.379C1215.29 320.52 1215.18 319.802 1214.97 319.26C1214.76 318.722 1214.46 318.386 1214.1 318.219C1213.75 318.053 1213.3 318.038 1212.75 318.222C1212.2 318.407 1211.59 318.784 1210.94 319.348C1209.66 320.474 1208.34 322.283 1207.31 324.513C1206.28 326.743 1205.76 328.928 1205.74 330.645C1205.72 331.505 1205.84 332.222 1206.05 332.764C1206.26 333.303 1206.56 333.638 1206.92 333.805C1207.27 333.972 1207.72 333.986 1208.27 333.803C1208.81 333.618 1209.43 333.241 1210.07 332.677C1211.36 331.55 1212.68 329.742 1213.71 327.512Z" fill="#DBE2F9" stroke="#F68561" stroke-width="1.01248"/>
<path d="M1221.3 324.551C1220.46 322.243 1219.3 320.327 1218.11 319.092C1217.51 318.474 1216.93 318.044 1216.4 317.811C1215.87 317.58 1215.42 317.554 1215.05 317.688C1214.68 317.822 1214.35 318.129 1214.1 318.645C1213.84 319.164 1213.67 319.867 1213.61 320.722C1213.48 322.431 1213.82 324.649 1214.65 326.957C1215.49 329.265 1216.66 331.181 1217.85 332.416C1218.44 333.034 1219.03 333.464 1219.56 333.697C1220.09 333.928 1220.53 333.955 1220.9 333.821C1221.27 333.687 1221.6 333.38 1221.86 332.864C1222.12 332.345 1222.29 331.641 1222.35 330.786C1222.47 329.077 1222.14 326.859 1221.3 324.551Z" fill="#DBE2F9" stroke="#F68561" stroke-width="1.01248"/>
<path d="M1225.04 317.857C1223.07 316.389 1221.05 315.431 1219.38 315.055C1218.54 314.867 1217.82 314.83 1217.25 314.929C1216.69 315.027 1216.3 315.254 1216.07 315.57C1215.83 315.886 1215.73 316.324 1215.8 316.898C1215.87 317.476 1216.12 318.159 1216.54 318.908C1217.38 320.405 1218.88 322.076 1220.85 323.545C1222.82 325.013 1224.84 325.971 1226.51 326.347C1227.35 326.535 1228.07 326.572 1228.64 326.473C1229.21 326.374 1229.59 326.148 1229.83 325.832C1230.06 325.516 1230.16 325.078 1230.09 324.504C1230.02 323.926 1229.78 323.242 1229.35 322.493C1228.51 320.997 1227.01 319.325 1225.04 317.857Z" fill="#DBE2F9" stroke="#F68561" stroke-width="1.01248"/>
<path d="M1222.05 313.128C1219.7 313.865 1217.74 314.948 1216.46 316.082C1215.81 316.649 1215.36 317.213 1215.1 317.734C1214.85 318.252 1214.81 318.698 1214.92 319.073C1215.04 319.447 1215.34 319.787 1215.84 320.066C1216.35 320.347 1217.04 320.549 1217.9 320.646C1219.6 320.839 1221.83 320.602 1224.18 319.865C1226.52 319.127 1228.48 318.045 1229.77 316.911C1230.41 316.344 1230.87 315.78 1231.12 315.259C1231.37 314.741 1231.42 314.295 1231.3 313.92C1231.18 313.545 1230.89 313.205 1230.38 312.926C1229.88 312.646 1229.18 312.444 1228.33 312.347C1226.62 312.154 1224.39 312.391 1222.05 313.128Z" fill="#DBE2F9" stroke="#F68561" stroke-width="1.01248"/>
<path d="M1217.75 308.514C1216.07 310.308 1214.89 312.218 1214.33 313.84C1214.05 314.651 1213.93 315.367 1213.96 315.948C1213.99 316.525 1214.17 316.938 1214.46 317.208C1214.74 317.477 1215.16 317.631 1215.74 317.628C1216.32 317.624 1217.02 317.459 1217.81 317.126C1219.39 316.46 1221.21 315.158 1222.89 313.365C1224.57 311.571 1225.75 309.661 1226.31 308.039C1226.59 307.227 1226.71 306.511 1226.68 305.931C1226.65 305.353 1226.47 304.941 1226.18 304.671C1225.9 304.401 1225.48 304.247 1224.9 304.251C1224.32 304.255 1223.62 304.419 1222.83 304.752C1221.25 305.418 1219.43 306.72 1217.75 308.514Z" fill="#DBE2F9" stroke="#F68561" stroke-width="1.01248"/>
<ellipse cx="6.56514" cy="6.05805" rx="6.56514" ry="6.05805" transform="matrix(-0.931632 0.363403 0.363698 0.931517 1220.05 310.745)" fill="#F68561"/>
<path d="M1156.57 310.122C1157.65 312.908 1159.13 315.211 1160.62 316.687C1161.37 317.425 1162.1 317.939 1162.77 318.213C1163.44 318.485 1164.01 318.51 1164.49 318.324C1164.97 318.137 1165.37 317.731 1165.68 317.08C1165.98 316.425 1166.17 315.552 1166.22 314.504C1166.32 312.409 1165.85 309.713 1164.76 306.927C1163.67 304.141 1162.19 301.837 1160.7 300.361C1159.95 299.623 1159.22 299.109 1158.55 298.835C1157.89 298.563 1157.31 298.539 1156.84 298.725C1156.36 298.911 1155.95 299.318 1155.65 299.969C1155.34 300.623 1155.15 301.496 1155.1 302.545C1155.01 304.64 1155.48 307.336 1156.57 310.122Z" fill="#DBE2F9" stroke="#F68561" stroke-width="1.01248"/>
<path d="M1151.14 317.21C1153.66 318.824 1156.21 319.816 1158.28 320.13C1159.31 320.287 1160.2 320.271 1160.9 320.098C1161.6 319.925 1162.07 319.605 1162.35 319.173C1162.62 318.74 1162.71 318.171 1162.57 317.463C1162.43 316.752 1162.07 315.932 1161.49 315.054C1160.33 313.3 1158.36 311.396 1155.84 309.782C1153.32 308.168 1150.77 307.176 1148.7 306.862C1147.66 306.705 1146.77 306.721 1146.07 306.895C1145.38 307.067 1144.9 307.387 1144.63 307.82C1144.35 308.252 1144.27 308.822 1144.41 309.529C1144.55 310.24 1144.91 311.06 1145.49 311.938C1146.65 313.692 1148.62 315.597 1151.14 317.21Z" fill="#DBE2F9" stroke="#F68561" stroke-width="1.01248"/>
<path d="M1154.38 324.24C1157.22 323.313 1159.61 321.968 1161.16 320.564C1161.94 319.862 1162.5 319.161 1162.81 318.509C1163.12 317.86 1163.18 317.289 1163.02 316.802C1162.86 316.316 1162.47 315.888 1161.84 315.546C1161.2 315.203 1160.34 314.964 1159.3 314.857C1157.21 314.641 1154.49 314.96 1151.64 315.888C1148.8 316.815 1146.42 318.16 1144.86 319.564C1144.08 320.266 1143.52 320.967 1143.21 321.619C1142.9 322.268 1142.85 322.839 1143 323.326C1143.16 323.812 1143.55 324.24 1144.18 324.582C1144.82 324.925 1145.68 325.164 1146.72 325.271C1148.81 325.487 1151.53 325.168 1154.38 324.24Z" fill="#DBE2F9" stroke="#F68561" stroke-width="1.01248"/>
<path d="M1160.27 328.734C1161.53 326.018 1162.16 323.352 1162.19 321.25C1162.21 320.198 1162.07 319.311 1161.8 318.637C1161.54 317.966 1161.16 317.532 1160.7 317.315C1160.23 317.098 1159.66 317.085 1158.98 317.314C1158.3 317.544 1157.54 318.01 1156.75 318.7C1155.18 320.08 1153.56 322.288 1152.31 325.004C1151.06 327.72 1150.43 330.386 1150.4 332.489C1150.38 333.54 1150.52 334.427 1150.78 335.101C1151.05 335.772 1151.43 336.206 1151.89 336.423C1152.35 336.64 1152.93 336.653 1153.61 336.424C1154.29 336.194 1155.05 335.728 1155.84 335.038C1157.41 333.658 1159.02 331.451 1160.27 328.734Z" fill="#DBE2F9" stroke="#F68561" stroke-width="1.01248"/>
<path d="M1169.48 325.055C1168.46 322.243 1167.04 319.904 1165.59 318.393C1164.86 317.636 1164.14 317.104 1163.48 316.814C1162.82 316.526 1162.24 316.487 1161.76 316.662C1161.28 316.836 1160.86 317.233 1160.54 317.876C1160.22 318.522 1160.01 319.391 1159.94 320.438C1159.79 322.529 1160.2 325.236 1161.22 328.047C1162.24 330.859 1163.66 333.198 1165.11 334.709C1165.84 335.466 1166.56 335.998 1167.22 336.288C1167.88 336.576 1168.46 336.615 1168.94 336.44C1169.42 336.266 1169.83 335.869 1170.16 335.226C1170.48 334.58 1170.69 333.711 1170.76 332.664C1170.91 330.573 1170.5 327.866 1169.48 325.055Z" fill="#DBE2F9" stroke="#F68561" stroke-width="1.01248"/>
<path d="M1173.99 316.885C1171.59 315.097 1169.12 313.927 1167.07 313.467C1166.05 313.236 1165.16 313.189 1164.45 313.312C1163.75 313.435 1163.25 313.72 1162.94 314.132C1162.64 314.545 1162.51 315.106 1162.6 315.822C1162.69 316.541 1162.99 317.384 1163.51 318.301C1164.54 320.133 1166.37 322.172 1168.77 323.96C1171.17 325.749 1173.64 326.919 1175.68 327.379C1176.71 327.609 1177.6 327.657 1178.31 327.533C1179.01 327.41 1179.51 327.125 1179.81 326.713C1180.12 326.301 1180.24 325.74 1180.16 325.024C1180.07 324.305 1179.76 323.461 1179.25 322.545C1178.22 320.713 1176.39 318.674 1173.99 316.885Z" fill="#DBE2F9" stroke="#F68561" stroke-width="1.01248"/>
<path d="M1170.26 311.128C1167.4 312.026 1165 313.347 1163.43 314.735C1162.65 315.429 1162.08 316.124 1161.77 316.773C1161.45 317.418 1161.39 317.989 1161.54 318.477C1161.7 318.965 1162.07 319.397 1162.7 319.745C1163.34 320.094 1164.2 320.342 1165.24 320.461C1167.33 320.697 1170.05 320.406 1172.9 319.508C1175.76 318.61 1178.16 317.29 1179.73 315.902C1180.52 315.208 1181.08 314.513 1181.39 313.864C1181.71 313.219 1181.77 312.648 1181.62 312.16C1181.46 311.672 1181.09 311.24 1180.46 310.892C1179.82 310.543 1178.96 310.295 1177.92 310.176C1175.83 309.939 1173.11 310.23 1170.26 311.128Z" fill="#DBE2F9" stroke="#F68561" stroke-width="1.01248"/>
<path d="M1165 305.558C1162.96 307.743 1161.52 310.074 1160.83 312.059C1160.48 313.052 1160.33 313.936 1160.37 314.659C1160.41 315.379 1160.64 315.909 1161.01 316.26C1161.38 316.612 1161.92 316.804 1162.64 316.799C1163.36 316.795 1164.23 316.59 1165.19 316.182C1167.12 315.367 1169.35 313.778 1171.39 311.593C1173.44 309.408 1174.88 307.077 1175.57 305.092C1175.91 304.099 1176.06 303.215 1176.02 302.492C1175.98 301.772 1175.76 301.242 1175.38 300.891C1175.01 300.539 1174.47 300.347 1173.75 300.352C1173.03 300.356 1172.16 300.561 1171.2 300.969C1169.27 301.784 1167.04 303.374 1165 305.558Z" fill="#DBE2F9" stroke="#F68561" stroke-width="1.01248"/>
<ellipse cx="7.96606" cy="7.35075" rx="7.96606" ry="7.35075" transform="matrix(-0.931632 0.363403 0.363698 0.931517 1167.88 308.342)" fill="#F68561"/>
<path d="M1183.52 316.107C1184.61 318.893 1186.09 321.196 1187.58 322.672C1188.33 323.411 1189.06 323.925 1189.73 324.198C1190.39 324.471 1190.97 324.495 1191.44 324.309C1191.92 324.123 1192.33 323.716 1192.63 323.065C1192.94 322.411 1193.13 321.537 1193.18 320.489C1193.27 318.394 1192.8 315.698 1191.71 312.912C1190.63 310.126 1189.15 307.823 1187.66 306.347C1186.91 305.608 1186.18 305.094 1185.51 304.821C1184.84 304.548 1184.27 304.524 1183.79 304.71C1183.32 304.896 1182.91 305.303 1182.6 305.954C1182.3 306.608 1182.11 307.482 1182.06 308.53C1181.96 310.625 1182.44 313.321 1183.52 316.107Z" fill="#DBE2F9" stroke="#F68561" stroke-width="1.01248"/>
<path d="M1178.1 323.196C1180.62 324.81 1183.16 325.801 1185.23 326.115C1186.27 326.273 1187.16 326.257 1187.86 326.083C1188.56 325.91 1189.03 325.591 1189.31 325.158C1189.58 324.725 1189.67 324.156 1189.53 323.448C1189.39 322.737 1189.02 321.917 1188.44 321.04C1187.28 319.285 1185.31 317.381 1182.79 315.767C1180.27 314.153 1177.73 313.162 1175.66 312.847C1174.62 312.69 1173.73 312.706 1173.03 312.88C1172.33 313.053 1171.86 313.372 1171.58 313.805C1171.31 314.238 1171.22 314.807 1171.36 315.515C1171.5 316.226 1171.87 317.046 1172.45 317.923C1173.61 319.678 1175.58 321.582 1178.1 323.196Z" fill="#DBE2F9" stroke="#F68561" stroke-width="1.01248"/>
<path d="M1181.33 330.227C1184.18 329.299 1186.56 327.954 1188.12 326.55C1188.9 325.848 1189.46 325.147 1189.77 324.495C1190.08 323.846 1190.13 323.275 1189.97 322.789C1189.81 322.302 1189.43 321.874 1188.8 321.533C1188.16 321.19 1187.3 320.951 1186.25 320.843C1184.17 320.628 1181.45 320.947 1178.6 321.874C1175.76 322.801 1173.37 324.146 1171.81 325.55C1171.03 326.253 1170.48 326.954 1170.17 327.606C1169.86 328.254 1169.8 328.826 1169.96 329.312C1170.12 329.799 1170.5 330.227 1171.14 330.568C1171.77 330.911 1172.64 331.15 1173.68 331.258C1175.77 331.473 1178.49 331.154 1181.33 330.227Z" fill="#DBE2F9" stroke="#F68561" stroke-width="1.01248"/>
<path d="M1187.23 334.719C1188.48 332.002 1189.12 329.336 1189.15 327.234C1189.16 326.182 1189.03 325.296 1188.76 324.621C1188.5 323.95 1188.12 323.517 1187.65 323.299C1187.19 323.082 1186.62 323.069 1185.94 323.298C1185.25 323.528 1184.5 323.995 1183.71 324.685C1182.13 326.064 1180.52 328.272 1179.27 330.988C1178.02 333.704 1177.38 336.371 1177.35 338.473C1177.34 339.525 1177.47 340.411 1177.74 341.086C1178 341.757 1178.38 342.19 1178.85 342.407C1179.31 342.625 1179.88 342.638 1180.56 342.409C1181.24 342.179 1182 341.712 1182.79 341.022C1184.37 339.643 1185.98 337.435 1187.23 334.719Z" fill="#DBE2F9" stroke="#F68561" stroke-width="1.01248"/>
<path d="M1196.44 331.041C1195.42 328.229 1194 325.891 1192.55 324.379C1191.82 323.622 1191.1 323.091 1190.44 322.801C1189.78 322.512 1189.2 322.474 1188.72 322.648C1188.24 322.822 1187.83 323.219 1187.51 323.862C1187.18 324.509 1186.97 325.377 1186.9 326.424C1186.75 328.516 1187.16 331.222 1188.18 334.034C1189.2 336.845 1190.62 339.184 1192.07 340.696C1192.8 341.452 1193.52 341.984 1194.18 342.274C1194.84 342.563 1195.42 342.601 1195.9 342.427C1196.38 342.252 1196.8 341.856 1197.12 341.212C1197.44 340.566 1197.65 339.697 1197.72 338.651C1197.87 336.559 1197.46 333.852 1196.44 331.041Z" fill="#DBE2F9" stroke="#F68561" stroke-width="1.01248"/>
<path d="M1200.94 322.871C1198.55 321.082 1196.07 319.912 1194.03 319.452C1193.01 319.222 1192.12 319.174 1191.41 319.298C1190.7 319.421 1190.2 319.706 1189.9 320.118C1189.6 320.53 1189.47 321.091 1189.56 321.807C1189.65 322.526 1189.95 323.37 1190.47 324.286C1191.5 326.118 1193.33 328.157 1195.73 329.946C1198.13 331.734 1200.6 332.904 1202.64 333.364C1203.66 333.595 1204.55 333.642 1205.26 333.519C1205.97 333.396 1206.47 333.111 1206.77 332.699C1207.08 332.286 1207.2 331.725 1207.11 331.009C1207.02 330.29 1206.72 329.447 1206.2 328.53C1205.17 326.698 1203.34 324.659 1200.94 322.871Z" fill="#DBE2F9" stroke="#F68561" stroke-width="1.01248"/>
<path d="M1197.21 317.114C1194.36 318.012 1191.96 319.332 1190.39 320.72C1189.6 321.414 1189.04 322.109 1188.72 322.758C1188.41 323.404 1188.34 323.974 1188.5 324.462C1188.65 324.95 1189.03 325.382 1189.66 325.73C1190.29 326.08 1191.15 326.327 1192.2 326.446C1194.28 326.683 1197.01 326.392 1199.86 325.494C1202.72 324.596 1205.11 323.275 1206.69 321.888C1207.47 321.193 1208.03 320.498 1208.35 319.849C1208.67 319.204 1208.73 318.633 1208.58 318.145C1208.42 317.657 1208.04 317.225 1207.41 316.877C1206.78 316.528 1205.92 316.28 1204.88 316.162C1202.79 315.925 1200.07 316.216 1197.21 317.114Z" fill="#DBE2F9" stroke="#F68561" stroke-width="1.01248"/>
<path d="M1191.96 311.545C1189.91 313.73 1188.47 316.06 1187.78 318.045C1187.44 319.039 1187.29 319.922 1187.33 320.645C1187.37 321.365 1187.59 321.895 1187.97 322.247C1188.34 322.598 1188.88 322.79 1189.6 322.786C1190.32 322.781 1191.19 322.577 1192.15 322.169C1194.08 321.353 1196.31 319.764 1198.35 317.579C1200.39 315.394 1201.83 313.063 1202.52 311.078C1202.87 310.085 1203.02 309.202 1202.98 308.478C1202.94 307.759 1202.71 307.229 1202.34 306.877C1201.97 306.526 1201.43 306.334 1200.71 306.338C1199.99 306.343 1199.12 306.547 1198.16 306.955C1196.23 307.77 1194 309.36 1191.96 311.545Z" fill="#DBE2F9" stroke="#F68561" stroke-width="1.01248"/>
<ellipse cx="7.96606" cy="7.35075" rx="7.96606" ry="7.35075" transform="matrix(-0.931632 0.363403 0.363698 0.931517 1194.83 314.327)" fill="#F68561"/>
<path d="M1176.28 292.757C1177.05 294.745 1178.11 296.382 1179.16 297.426C1179.69 297.948 1180.2 298.305 1180.66 298.492C1181.11 298.678 1181.49 298.688 1181.79 298.571C1182.09 298.454 1182.35 298.194 1182.56 297.749C1182.77 297.301 1182.91 296.693 1182.94 295.952C1183.01 294.47 1182.67 292.553 1181.9 290.565C1181.12 288.577 1180.07 286.94 1179.01 285.896C1178.49 285.374 1177.98 285.018 1177.52 284.83C1177.06 284.644 1176.69 284.635 1176.39 284.752C1176.09 284.869 1175.82 285.129 1175.61 285.573C1175.4 286.022 1175.27 286.629 1175.24 287.371C1175.17 288.852 1175.5 290.769 1176.28 292.757Z" fill="#DBE2F9" stroke="#F68561" stroke-width="1.01248"/>
<path d="M1172.32 297.783C1174.12 298.935 1175.93 299.639 1177.4 299.861C1178.13 299.972 1178.75 299.959 1179.23 299.84C1179.71 299.722 1180.01 299.509 1180.18 299.237C1180.36 298.965 1180.42 298.596 1180.32 298.113C1180.23 297.626 1179.98 297.054 1179.57 296.433C1178.75 295.193 1177.35 293.837 1175.55 292.686C1173.75 291.534 1171.94 290.831 1170.47 290.608C1169.74 290.497 1169.12 290.51 1168.64 290.629C1168.17 290.747 1167.86 290.96 1167.69 291.232C1167.52 291.504 1167.45 291.873 1167.55 292.357C1167.65 292.844 1167.9 293.415 1168.31 294.036C1169.13 295.277 1170.53 296.632 1172.32 297.783Z" fill="#DBE2F9" stroke="#F68561" stroke-width="1.01248"/>
<path d="M1174.53 302.819C1176.56 302.157 1178.25 301.199 1179.36 300.206C1179.91 299.709 1180.29 299.22 1180.51 298.774C1180.72 298.33 1180.75 297.958 1180.65 297.653C1180.55 297.347 1180.3 297.065 1179.87 296.832C1179.43 296.597 1178.83 296.428 1178.1 296.352C1176.62 296.2 1174.68 296.425 1172.65 297.087C1170.62 297.749 1168.93 298.707 1167.83 299.699C1167.28 300.196 1166.89 300.685 1166.68 301.132C1166.47 301.575 1166.44 301.947 1166.54 302.253C1166.64 302.558 1166.88 302.841 1167.31 303.074C1167.75 303.309 1168.35 303.477 1169.09 303.553C1170.57 303.706 1172.5 303.48 1174.53 302.819Z" fill="#DBE2F9" stroke="#F68561" stroke-width="1.01248"/>
<path d="M1178.68 306.124C1179.58 304.185 1180.03 302.289 1180.05 300.803C1180.06 300.059 1179.96 299.442 1179.78 298.98C1179.6 298.521 1179.35 298.244 1179.06 298.107C1178.77 297.971 1178.39 297.956 1177.93 298.112C1177.46 298.27 1176.93 298.593 1176.37 299.081C1175.26 300.056 1174.11 301.625 1173.22 303.564C1172.33 305.502 1171.88 307.398 1171.86 308.885C1171.85 309.629 1171.94 310.245 1172.12 310.707C1172.3 311.166 1172.56 311.443 1172.85 311.58C1173.14 311.716 1173.51 311.731 1173.98 311.575C1174.44 311.417 1174.97 311.094 1175.53 310.606C1176.64 309.631 1177.79 308.062 1178.68 306.124Z" fill="#DBE2F9" stroke="#F68561" stroke-width="1.01248"/>
<path d="M1185.3 303.591C1184.57 301.585 1183.56 299.922 1182.53 298.854C1182.01 298.319 1181.51 297.95 1181.06 297.751C1180.61 297.554 1180.24 297.535 1179.93 297.645C1179.63 297.755 1179.36 298.008 1179.14 298.447C1178.92 298.89 1178.77 299.494 1178.71 300.235C1178.61 301.714 1178.9 303.638 1179.63 305.645C1180.35 307.651 1181.37 309.313 1182.4 310.382C1182.91 310.917 1183.41 311.286 1183.87 311.484C1184.32 311.681 1184.69 311.7 1184.99 311.59C1185.29 311.481 1185.57 311.228 1185.79 310.788C1186.01 310.345 1186.16 309.741 1186.21 309.001C1186.31 307.522 1186.03 305.597 1185.3 303.591Z" fill="#DBE2F9" stroke="#F68561" stroke-width="1.01248"/>
<path d="M1188.58 297.784C1186.87 296.508 1185.11 295.677 1183.67 295.352C1182.94 295.189 1182.32 295.158 1181.84 295.242C1181.35 295.326 1181.03 295.517 1180.84 295.776C1180.65 296.035 1180.56 296.398 1180.62 296.887C1180.69 297.38 1180.9 297.968 1181.26 298.616C1181.99 299.912 1183.29 301.363 1185 302.639C1186.71 303.915 1188.47 304.745 1189.92 305.071C1190.64 305.234 1191.26 305.265 1191.74 305.18C1192.23 305.096 1192.55 304.905 1192.74 304.647C1192.93 304.388 1193.02 304.024 1192.96 303.535C1192.9 303.042 1192.69 302.455 1192.32 301.806C1191.59 300.511 1190.29 299.06 1188.58 297.784Z" fill="#DBE2F9" stroke="#F68561" stroke-width="1.01248"/>
<path d="M1186.03 293.668C1183.99 294.309 1182.29 295.249 1181.18 296.231C1180.62 296.722 1180.23 297.207 1180.01 297.651C1179.8 298.092 1179.76 298.464 1179.86 298.771C1179.96 299.077 1180.2 299.362 1180.63 299.6C1181.06 299.839 1181.66 300.014 1182.4 300.097C1183.87 300.265 1185.81 300.06 1187.85 299.419C1189.88 298.778 1191.59 297.838 1192.7 296.856C1193.25 296.365 1193.64 295.88 1193.86 295.436C1194.08 294.995 1194.11 294.623 1194.01 294.316C1193.92 294.01 1193.68 293.725 1193.25 293.487C1192.81 293.248 1192.21 293.073 1191.48 292.99C1190 292.822 1188.06 293.027 1186.03 293.668Z" fill="#DBE2F9" stroke="#F68561" stroke-width="1.01248"/>
<path d="M1182.31 289.629C1180.86 291.188 1179.83 292.846 1179.34 294.25C1179.1 294.952 1179 295.568 1179.03 296.063C1179.05 296.555 1179.21 296.897 1179.44 297.118C1179.67 297.339 1180.02 297.469 1180.51 297.466C1181.01 297.463 1181.61 297.323 1182.29 297.034C1183.66 296.458 1185.24 295.329 1186.7 293.77C1188.16 292.211 1189.18 290.552 1189.67 289.149C1189.91 288.446 1190.01 287.831 1189.99 287.335C1189.96 286.844 1189.81 286.502 1189.57 286.281C1189.34 286.06 1188.99 285.929 1188.5 285.932C1188.01 285.935 1187.4 286.076 1186.72 286.364C1185.35 286.941 1183.77 288.07 1182.31 289.629Z" fill="#DBE2F9" stroke="#F68561" stroke-width="1.01248"/>
<ellipse cx="5.7246" cy="5.28242" rx="5.7246" ry="5.28242" transform="matrix(-0.931632 0.363403 0.363698 0.931517 1184.27 291.529)" fill="#F68561"/>
<path d="M1198.53 292.563C1199.29 294.511 1200.33 296.115 1201.36 297.137C1201.87 297.648 1202.37 297.997 1202.82 298.18C1203.27 298.362 1203.63 298.371 1203.92 298.257C1204.21 298.144 1204.47 297.891 1204.68 297.457C1204.88 297.019 1205.01 296.424 1205.05 295.698C1205.11 294.247 1204.79 292.369 1204.03 290.421C1203.27 288.473 1202.23 286.869 1201.2 285.847C1200.68 285.335 1200.18 284.987 1199.74 284.804C1199.29 284.622 1198.93 284.613 1198.64 284.727C1198.35 284.84 1198.09 285.093 1197.88 285.527C1197.68 285.965 1197.55 286.56 1197.51 287.286C1197.44 288.737 1197.77 290.615 1198.53 292.563Z" fill="#DBE2F9" stroke="#F68561" stroke-width="1.01248"/>
<path d="M1194.65 297.486C1196.41 298.614 1198.19 299.304 1199.62 299.521C1200.34 299.63 1200.95 299.617 1201.41 299.501C1201.88 299.386 1202.18 299.178 1202.34 298.914C1202.51 298.65 1202.57 298.291 1202.48 297.819C1202.38 297.343 1202.14 296.784 1201.74 296.176C1200.93 294.961 1199.56 293.633 1197.8 292.505C1196.04 291.376 1194.26 290.687 1192.83 290.469C1192.11 290.36 1191.5 290.373 1191.04 290.49C1190.57 290.605 1190.27 290.813 1190.11 291.076C1189.94 291.34 1189.88 291.699 1189.97 292.172C1190.07 292.647 1190.31 293.207 1190.71 293.815C1191.52 295.03 1192.89 296.357 1194.65 297.486Z" fill="#DBE2F9" stroke="#F68561" stroke-width="1.01248"/>
<path d="M1196.8 302.422C1198.79 301.774 1200.45 300.835 1201.53 299.863C1202.07 299.377 1202.45 298.898 1202.66 298.462C1202.86 298.029 1202.89 297.666 1202.8 297.37C1202.7 297.074 1202.46 296.798 1202.04 296.57C1201.61 296.341 1201.03 296.176 1200.3 296.102C1198.86 295.952 1196.96 296.173 1194.97 296.821C1192.98 297.47 1191.32 298.408 1190.24 299.381C1189.7 299.867 1189.33 300.346 1189.12 300.782C1188.91 301.215 1188.88 301.577 1188.98 301.874C1189.08 302.17 1189.32 302.445 1189.74 302.673C1190.16 302.903 1190.75 303.068 1191.47 303.142C1192.92 303.291 1194.82 303.071 1196.8 302.422Z" fill="#DBE2F9" stroke="#F68561" stroke-width="1.01248"/>
<path d="M1200.87 305.668C1201.74 303.768 1202.18 301.91 1202.21 300.455C1202.22 299.726 1202.12 299.123 1201.94 298.671C1201.77 298.223 1201.52 297.954 1201.24 297.821C1200.96 297.689 1200.6 297.674 1200.14 297.827C1199.68 297.981 1199.17 298.297 1198.62 298.775C1197.53 299.73 1196.41 301.267 1195.53 303.166C1194.66 305.066 1194.22 306.923 1194.19 308.379C1194.18 309.108 1194.28 309.711 1194.46 310.162C1194.63 310.61 1194.88 310.88 1195.16 311.013C1195.44 311.145 1195.81 311.16 1196.26 311.007C1196.72 310.853 1197.23 310.537 1197.78 310.059C1198.87 309.104 1199.99 307.567 1200.87 305.668Z" fill="#DBE2F9" stroke="#F68561" stroke-width="1.01248"/>
<path d="M1207.35 303.189C1206.64 301.223 1205.65 299.595 1204.64 298.548C1204.14 298.024 1203.65 297.664 1203.2 297.47C1202.76 297.277 1202.4 297.259 1202.11 297.366C1201.81 297.472 1201.55 297.718 1201.33 298.147C1201.12 298.58 1200.97 299.171 1200.92 299.896C1200.82 301.345 1201.1 303.23 1201.81 305.196C1202.52 307.162 1203.52 308.791 1204.52 309.838C1205.03 310.362 1205.52 310.722 1205.96 310.916C1206.4 311.109 1206.77 311.126 1207.06 311.02C1207.35 310.914 1207.62 310.668 1207.83 310.238C1208.05 309.806 1208.2 309.215 1208.25 308.49C1208.35 307.041 1208.07 305.156 1207.35 303.189Z" fill="#DBE2F9" stroke="#F68561" stroke-width="1.01248"/>
<path d="M1210.58 297.503C1208.9 296.252 1207.18 295.439 1205.77 295.12C1205.06 294.96 1204.45 294.93 1203.98 295.013C1203.5 295.095 1203.19 295.281 1203.01 295.532C1202.82 295.783 1202.74 296.137 1202.8 296.615C1202.85 297.096 1203.06 297.671 1203.42 298.306C1204.13 299.575 1205.41 300.996 1207.08 302.247C1208.76 303.498 1210.48 304.311 1211.9 304.63C1212.6 304.789 1213.21 304.82 1213.69 304.737C1214.16 304.655 1214.47 304.469 1214.65 304.218C1214.84 303.966 1214.93 303.613 1214.87 303.135C1214.81 302.654 1214.6 302.078 1214.25 301.444C1213.53 300.175 1212.26 298.753 1210.58 297.503Z" fill="#DBE2F9" stroke="#F68561" stroke-width="1.01248"/>
<path d="M1208.08 293.47C1206.09 294.098 1204.42 295.019 1203.33 295.98C1202.79 296.461 1202.4 296.936 1202.19 297.37C1201.98 297.801 1201.95 298.163 1202.04 298.46C1202.14 298.757 1202.37 299.035 1202.79 299.267C1203.21 299.501 1203.8 299.672 1204.52 299.754C1205.97 299.918 1207.86 299.717 1209.86 299.089C1211.86 298.461 1213.53 297.54 1214.61 296.579C1215.16 296.098 1215.54 295.623 1215.75 295.189C1215.96 294.758 1216 294.396 1215.9 294.099C1215.81 293.801 1215.57 293.524 1215.15 293.292C1214.73 293.058 1214.15 292.887 1213.42 292.805C1211.98 292.641 1210.08 292.842 1208.08 293.47Z" fill="#DBE2F9" stroke="#F68561" stroke-width="1.01248"/>
<path d="M1204.45 289.507C1203.02 291.035 1202.02 292.659 1201.54 294.034C1201.3 294.722 1201.2 295.324 1201.23 295.808C1201.26 296.288 1201.4 296.621 1201.63 296.835C1201.86 297.05 1202.2 297.177 1202.68 297.174C1203.16 297.171 1203.75 297.034 1204.42 296.751C1205.75 296.187 1207.31 295.081 1208.73 293.553C1210.16 292.025 1211.17 290.401 1211.64 289.026C1211.88 288.338 1211.98 287.736 1211.96 287.252C1211.93 286.772 1211.78 286.439 1211.55 286.225C1211.33 286.01 1210.99 285.883 1210.51 285.885C1210.03 285.889 1209.43 286.026 1208.76 286.308C1207.43 286.873 1205.88 287.979 1204.45 289.507Z" fill="#DBE2F9" stroke="#F68561" stroke-width="1.01248"/>
<ellipse cx="5.61275" cy="5.17921" rx="5.61275" ry="5.17921" transform="matrix(-0.931632 0.363403 0.363698 0.931517 1206.36 291.363)" fill="#F68561"/>
<path d="M1161.69 362.672C1170.24 374.897 1181.28 395.146 1176.5 419.499C1174.57 429.313 1125.32 460.85 1146.5 476.5C1159.22 485.895 1220.41 487.387 1233 476.5C1251.5 460.5 1207 432.5 1203.5 419.499C1196.28 392.692 1206.83 371.316 1216 359.149C1210.5 365.5 1203.25 368.649 1188.18 368.649C1174.11 368.649 1165.67 367.2 1161.69 362.672Z" fill="#D9D9D9" fill-opacity="0.2"/>
<path d="M1161 360.851C1164.31 366.701 1173 368.5 1188.68 368.5C1203.75 368.5 1211 365.35 1216.5 359" stroke="#8990A5"/>
<g filter="url(#filter7_f_1662_3846)">
<path d="M139.948 477.25C140.093 475.142 141.853 473.511 143.966 473.526L380.598 475.133C382.739 475.148 384.488 476.845 384.568 478.983L390.844 646.35C390.929 648.616 389.115 650.5 386.847 650.5H132.285C129.968 650.5 128.135 648.537 128.295 646.225L139.948 477.25Z" fill="#141B25"/>
<path d="M143.962 474.026L380.595 475.633C382.468 475.646 383.999 477.131 384.069 479.002L390.345 646.369C390.419 648.352 388.832 650 386.847 650H132.285C130.258 650 128.654 648.282 128.794 646.259L140.447 477.285C140.574 475.44 142.114 474.013 143.962 474.026Z" stroke="#8990A5"/>
</g>
<path d="M162.892 477.025L378.171 478.474C380.043 478.487 381.574 479.971 381.645 481.842L387.343 632.368C387.418 634.351 385.831 636 383.846 636H152.288C150.259 636 148.656 634.281 148.797 632.257L159.377 480.282C159.505 478.439 161.045 477.013 162.892 477.025Z" fill="#8990A5" stroke="#8990A5"/>
<path d="M162.87 473.5H378.147C380.029 473.5 381.574 474.988 381.645 476.869L387.345 628.869C387.419 630.852 385.832 632.5 383.847 632.5H152.288C150.259 632.5 148.656 630.781 148.797 628.757L159.379 476.757C159.507 474.923 161.032 473.5 162.87 473.5Z" fill="#D9D9D9" stroke="#8990A5"/>
<path d="M167.891 482H371.069C371.877 482 372.54 482.64 372.568 483.447L377.428 621.947C377.457 622.796 376.778 623.5 375.929 623.5H160.115C159.254 623.5 158.57 622.776 158.618 621.916L166.393 483.416C166.438 482.621 167.095 482 167.891 482Z" fill="#141B25" stroke="#8990A5"/>
<path d="M287.853 544.977L269.551 547.443M287.853 544.977V538.688L269.551 541.152V547.443M287.853 544.977V557.125M269.551 547.443V562.233" stroke="#F68561" stroke-linecap="round" stroke-linejoin="round"/>
<path d="M265.348 566.312C267.668 566.312 269.548 564.486 269.548 562.232C269.548 559.979 267.668 558.152 265.348 558.152C263.029 558.152 261.148 559.979 261.148 562.232C261.148 564.486 263.029 566.312 265.348 566.312Z" stroke="#F68561" stroke-linecap="round" stroke-linejoin="round"/>
<path d="M283.649 561.206C285.969 561.206 287.849 559.379 287.849 557.126C287.849 554.873 285.969 553.046 283.649 553.046C281.33 553.046 279.449 554.873 279.449 557.126C279.449 559.379 281.33 561.206 283.649 561.206Z" stroke="#F68561" stroke-linecap="round" stroke-linejoin="round"/>
<path d="M244.916 534.748L231.32 536.633M244.916 534.748V529.938L231.32 531.823V536.633M244.916 534.748V544.037M231.32 536.633V547.943" stroke="#F68561" stroke-linecap="round" stroke-linejoin="round"/>
<path d="M228.202 551.062C229.925 551.062 231.322 549.665 231.322 547.942C231.322 546.219 229.925 544.822 228.202 544.822C226.479 544.822 225.082 546.219 225.082 547.942C225.082 549.665 226.479 551.062 228.202 551.062Z" stroke="#F68561" stroke-linecap="round" stroke-linejoin="round"/>
<path d="M241.8 547.157C243.523 547.157 244.92 545.76 244.92 544.037C244.92 542.314 243.523 540.917 241.8 540.917C240.077 540.917 238.68 542.314 238.68 544.037C238.68 545.76 240.077 547.157 241.8 547.157Z" stroke="#F68561" stroke-linecap="round" stroke-linejoin="round"/>
<path d="M310.273 507.911L298.246 509.579M310.273 507.911V503.656L298.246 505.324V509.579M310.273 507.911V516.129M298.246 509.579V519.584" stroke="#F68561" stroke-linecap="round" stroke-linejoin="round"/>
<path d="M295.487 522.344C297.011 522.344 298.247 521.109 298.247 519.584C298.247 518.06 297.011 516.824 295.487 516.824C293.962 516.824 292.727 518.06 292.727 519.584C292.727 521.109 293.962 522.344 295.487 522.344Z" stroke="#F68561" stroke-linecap="round" stroke-linejoin="round"/>
<path d="M307.514 518.889C309.038 518.889 310.274 517.653 310.274 516.129C310.274 514.605 309.038 513.369 307.514 513.369C305.99 513.369 304.754 514.605 304.754 516.129C304.754 517.653 305.99 518.889 307.514 518.889Z" stroke="#F68561" stroke-linecap="round" stroke-linejoin="round"/>
<path d="M159 612.5C160.864 598.842 171.758 563.206 205.806 558.161C237.029 553.534 248.68 559.395 272.913 552.636C304.654 543.782 316.664 509.751 324 502C332.587 492.927 355.859 482.5 374.5 482.5" stroke="#8990A5"/>
<path d="M156.5 621C162.07 608.154 174.495 570.275 208.706 567.922C248.163 565.209 246.306 577.185 279.264 567.922C308.509 559.703 320.041 521.575 326.5 511.5C336.137 496.469 360.646 481.165 375.5 483" stroke="#8990A5"/>
<path d="M158 616C165.879 601.134 178.778 585.071 212.64 579.98C249.718 574.405 252.499 591.13 291.894 579.98C323.462 571.045 327.037 539.138 331.753 522.373C337.626 501.5 360.059 485.323 373.5 483" stroke="#1E4E4E"/>
<path d="M232.75 598.36V602.64L229.72 600.5L232.75 598.36ZM223.75 598.36V602.64L220.72 600.5L223.75 598.36ZM234.75 594.5L226.25 600.5L234.75 606.5V594.5ZM225.75 594.5L217.25 600.5L225.75 606.5V594.5Z" fill="#8990A5"/>
<path d="M267 604.5H269V596.5H267V604.5ZM270 590.5C264.48 590.5 260 594.98 260 600.5C260 606.02 264.48 610.5 270 610.5C275.52 610.5 280 606.02 280 600.5C280 594.98 275.52 590.5 270 590.5ZM270 608.5C265.59 608.5 262 604.91 262 600.5C262 596.09 265.59 592.5 270 592.5C274.41 592.5 278 596.09 278 600.5C278 604.91 274.41 608.5 270 608.5ZM271 604.5H273V596.5H271V604.5Z" fill="#8990A5"/>
<path d="M316.25 598.36L319.28 600.5L316.25 602.64V598.36ZM307.25 598.36L310.28 600.5L307.25 602.64V598.36ZM314.25 594.5V606.5L322.75 600.5L314.25 594.5ZM305.25 594.5V606.5L313.75 600.5L305.25 594.5Z" fill="#8990A5"/>
<g clip-path="url(#clip1_1662_3846)">
<path d="M318.971 549.938C318.549 550.594 318.325 550.313 318.451 549.938C318.787 548.945 318.799 545.41 316 544.969L315.998 556.5C315.998 558.157 314.263 560.5 311 560.5C309.343 560.5 308 559.629 308 558C308 555.881 309.927 554.6 312 554.6C313.328 554.6 314 555 314 555V540.5H316C316 543.176 321.986 545.244 318.971 549.938Z" fill="#F68561"/>
</g>
<g clip-path="url(#clip2_1662_3846)">
<path d="M210.971 569.938C210.549 570.594 210.325 570.313 210.451 569.938C210.787 568.945 210.799 565.41 208 564.969L207.998 576.5C207.998 578.157 206.263 580.5 203 580.5C201.343 580.5 200 579.629 200 578C200 575.881 201.927 574.6 204 574.6C205.328 574.6 206 575 206 575V560.5H208C208 563.176 213.986 565.244 210.971 569.938Z" fill="#F68561"/>
</g>
<g clip-path="url(#clip3_1662_3846)">
<g filter="url(#filter8_f_1662_3846)">
<ellipse cx="487" cy="610.5" rx="64" ry="39.5" fill="#141B25"/>
</g>
<path d="M507.773 521.026C518.182 521.026 527.628 523.091 534.674 526.586C541.721 530.079 546.711 535.233 546.711 541.547C546.711 542.209 546.656 542.86 546.55 543.497L546.558 545.011C546.701 566.383 542.368 587.45 542.698 608.103C542.794 614.108 539.013 619.423 532.901 622.951C526.79 626.479 518.258 628.494 507.861 628.494C497.457 628.494 489.47 626.425 483.909 622.814C478.348 619.203 475.296 613.865 475.296 608.143C475.296 607.325 475.282 606.507 475.264 605.686C464.399 605.399 455.846 599.64 450.224 592.134C444.491 584.481 441.451 575.04 441.281 566.45C441.111 557.859 443.855 549.199 451.376 545.671C455.137 543.907 459.263 543.977 464.073 545.381C465.661 545.845 467.308 546.477 469.004 547.283C468.986 546.527 468.972 545.772 468.972 545.027V543.294C468.887 542.724 468.843 542.138 468.843 541.546C468.843 535.233 473.834 530.079 480.88 526.586C487.926 523.091 497.364 521.026 507.773 521.026ZM507.773 525.844C498.009 525.844 489.188 527.843 483.015 530.904C476.842 533.964 473.662 537.858 473.662 541.546C473.662 545.235 476.842 549.136 483.015 552.197C489.188 555.258 498.009 557.249 507.773 557.249C517.536 557.249 526.358 555.258 532.531 552.197C538.704 549.137 541.893 545.235 541.893 541.546C541.893 537.858 538.704 533.964 532.531 530.904C526.358 527.843 517.536 525.844 507.773 525.844ZM525.731 535.907C531.71 537.636 535.504 540.208 535.504 543.078C535.504 548.284 523.026 552.504 507.636 552.504C492.246 552.504 479.776 548.283 479.776 543.077C479.776 540.431 483.004 538.038 488.195 536.326C486.838 537.384 486.076 538.567 486.076 539.823C486.076 544.253 495.555 547.847 507.249 547.847C518.944 547.847 528.422 544.253 528.422 539.822C528.422 538.4 527.446 537.065 525.731 535.907ZM457.846 553.511C456.727 553.505 455.829 553.715 455.131 554.043C452.34 555.351 450.386 559.923 450.514 566.45C450.643 572.976 453.019 580.761 457.435 586.656C461.636 592.263 467.259 596.028 474.741 596.428C473.619 583.578 471.072 570.52 469.77 558.312C464.428 554.743 460.516 553.525 457.846 553.511Z" fill="#141B25"/>
<path d="M507.773 521.026C518.182 521.026 527.628 523.091 534.674 526.586C541.721 530.079 546.711 535.233 546.711 541.547C546.711 542.209 546.656 542.86 546.55 543.497L546.558 545.011C546.701 566.383 542.368 587.45 542.698 608.103C542.794 614.108 539.013 619.423 532.901 622.951C526.79 626.479 518.258 628.494 507.861 628.494C497.457 628.494 489.47 626.425 483.909 622.814C478.348 619.203 475.296 613.865 475.296 608.143C475.296 607.325 475.282 606.507 475.264 605.686C464.399 605.399 455.846 599.64 450.224 592.134C444.491 584.481 441.451 575.04 441.281 566.45C441.111 557.859 443.855 549.199 451.376 545.671C455.137 543.907 459.263 543.977 464.073 545.381C465.661 545.845 467.308 546.477 469.004 547.283C468.986 546.527 468.972 545.772 468.972 545.027V543.294C468.887 542.724 468.843 542.138 468.843 541.546C468.843 535.233 473.834 530.079 480.88 526.586C487.926 523.091 497.364 521.026 507.773 521.026ZM507.773 525.844C498.009 525.844 489.188 527.843 483.015 530.904C476.842 533.964 473.662 537.858 473.662 541.546C473.662 545.235 476.842 549.136 483.015 552.197C489.188 555.258 498.009 557.249 507.773 557.249C517.536 557.249 526.358 555.258 532.531 552.197C538.704 549.137 541.893 545.235 541.893 541.546C541.893 537.858 538.704 533.964 532.531 530.904C526.358 527.843 517.536 525.844 507.773 525.844ZM525.731 535.907C531.71 537.636 535.504 540.208 535.504 543.078C535.504 548.284 523.026 552.504 507.636 552.504C492.246 552.504 479.776 548.283 479.776 543.077C479.776 540.431 483.004 538.038 488.195 536.326C486.838 537.384 486.076 538.567 486.076 539.823C486.076 544.253 495.555 547.847 507.249 547.847C518.944 547.847 528.422 544.253 528.422 539.822C528.422 538.4 527.446 537.065 525.731 535.907ZM457.846 553.511C456.727 553.505 455.829 553.715 455.131 554.043C452.34 555.351 450.386 559.923 450.514 566.45C450.643 572.976 453.019 580.761 457.435 586.656C461.636 592.263 467.259 596.028 474.741 596.428C473.619 583.578 471.072 570.52 469.77 558.312C464.428 554.743 460.516 553.525 457.846 553.511Z" fill="url(#paint3_linear_1662_3846)" fill-opacity="0.2"/>
<ellipse cx="34.418" cy="16.1133" rx="34.418" ry="16.1133" transform="matrix(-1 0 0 1 542.055 525.562)" fill="#8990A5"/>
<ellipse cx="27.5859" cy="9.41016" rx="27.5859" ry="9.41016" transform="matrix(-1 0 0 1 535.094 532.266)" fill="#141B25"/>
<ellipse cx="21.9141" cy="9.28125" rx="21.9141" ry="9.28125" transform="matrix(-1 0 0 1 529.68 528.141)" fill="#8990A5"/>
<path d="M507.023 587.853H506.804V578.936H507.023V587.853Z" fill="#DBE2F9"/>
<path d="M507.382 578.84L507.23 578.688L508.661 577.254L508.812 577.406L507.382 578.84Z" fill="#DBE2F9"/>
<path d="M507.382 579.858L507.23 579.706L508.661 578.272L508.812 578.423L507.382 579.858Z" fill="#DBE2F9"/>
<path d="M507.382 580.819L507.23 580.666L508.661 579.232L508.812 579.384L507.382 580.819Z" fill="#DBE2F9"/>
<path d="M506.429 578.84L504.999 577.406L505.151 577.254L506.58 578.688L506.429 578.84Z" fill="#DBE2F9"/>
<path d="M506.429 579.829L504.999 578.395L505.151 578.243L506.58 579.677L506.429 579.829Z" fill="#DBE2F9"/>
<path d="M506.429 580.819L504.999 579.384L505.151 579.232L506.58 580.666L506.429 580.819Z" fill="#DBE2F9"/>
<path d="M487.023 577.902C487.585 577.902 488.044 578.077 488.402 578.428C488.758 578.778 488.937 579.232 488.937 579.791C488.937 580.35 488.755 580.825 488.39 581.171C488.025 581.517 487.539 581.689 486.932 581.689H485.891V583H484.57V577.902H487.023ZM485.891 580.553H486.81C487.043 580.553 487.232 580.482 487.379 580.34C487.526 580.198 487.599 580.018 487.599 579.799C487.599 579.58 487.528 579.399 487.386 579.254C487.245 579.109 487.06 579.037 486.832 579.037H485.891V580.553Z" fill="#DBE2F9"/>
<path d="M491.577 585.369C490.813 585.369 490.18 585.119 489.678 584.618C489.177 584.117 488.926 583.489 488.926 582.732C488.926 581.976 489.175 581.345 489.674 580.843C490.173 580.34 490.807 580.088 491.577 580.088C492.118 580.088 492.603 580.221 493.031 580.484C493.459 580.748 493.766 581.104 493.954 581.551L492.807 582.138C492.701 581.89 492.537 581.69 492.314 581.54C492.091 581.39 491.838 581.315 491.554 581.315C491.17 581.315 490.85 581.449 490.594 581.719C490.338 581.989 490.21 582.326 490.21 582.732C490.21 583.138 490.339 583.47 490.597 583.742C490.855 584.014 491.177 584.15 491.562 584.15C491.845 584.15 492.101 584.074 492.329 583.922C492.557 583.77 492.721 583.564 492.822 583.304L493.999 583.846C493.812 584.308 493.5 584.677 493.065 584.955C492.63 585.232 492.134 585.369 491.577 585.369Z" fill="#DBE2F9"/>
<path d="M498.169 581.738H499.725L498.017 584.283L499.703 586.836H498.132L497.197 585.304L496.18 586.836H494.631L496.347 584.253L494.691 581.738H496.262L497.197 583.263L498.169 581.738Z" fill="#DBE2F9"/>
<path d="M502.321 584.192H503.673C504.194 584.192 504.611 584.339 504.922 584.634C505.233 584.929 505.389 585.317 505.389 585.799C505.389 586.281 505.229 586.674 504.91 586.976C504.591 587.279 504.174 587.43 503.657 587.43H500.999V582.333H504.932V583.468H502.32V584.192L502.321 584.192ZM503.414 586.386C503.602 586.386 503.756 586.33 503.877 586.218C503.999 586.107 504.059 585.964 504.059 585.792C504.059 585.619 504.001 585.478 503.885 585.369C503.768 585.26 503.621 585.205 503.444 585.205H502.32V586.386H503.414Z" fill="#DBE2F9"/>
<path d="M509 587.437V584.002H510.39C510.761 584.002 511.052 584.077 511.264 584.227C511.48 584.372 511.588 584.588 511.588 584.875C511.588 585.158 511.485 585.37 511.277 585.511C511.07 585.652 510.798 585.723 510.463 585.723L510.556 585.643C510.957 585.643 511.251 585.718 511.436 585.868C511.622 586.018 511.714 586.237 511.714 586.524C511.714 586.819 511.608 587.047 511.396 587.206C511.185 587.36 510.86 587.437 510.423 587.437H509ZM509.218 587.252H510.43C510.779 587.252 511.043 587.195 511.224 587.08C511.405 586.961 511.496 586.773 511.496 586.517C511.496 586.266 511.416 586.08 511.257 585.961C511.099 585.842 510.845 585.782 510.496 585.782H509.218V587.252ZM509.218 585.604H510.39C510.699 585.604 510.94 585.544 511.112 585.425C511.284 585.306 511.37 585.129 511.37 584.895C511.37 584.661 511.284 584.485 511.112 584.366C510.94 584.246 510.699 584.187 510.39 584.187H509.218V585.604Z" fill="#BFC6DC"/>
<path d="M513.051 587.128V583.692H513.269V586.936H515.699V583.692H515.917V587.128H513.051ZM516.288 588.002V587.081L516.361 587.128H515.699V586.936H516.5V588.002H516.288Z" fill="#BFC6DC"/>
<path d="M518 586.937V583.502H518.218V586.586L520.8 583.502H520.992V586.937H520.774V583.852L518.185 586.937H518Z" fill="#BFC6DC"/>
<path d="M524.125 585.328C524.121 585.328 524.114 585.328 524.105 585.328C524.101 585.328 524.094 585.328 524.085 585.328C524.081 585.328 524.076 585.328 524.072 585.328C523.419 585.324 522.909 585.169 522.543 584.865C522.181 584.556 522 584.128 522 583.581C522 583.033 522.183 582.607 522.549 582.303C522.92 581.994 523.437 581.839 524.099 581.839C524.103 581.839 524.107 581.839 524.112 581.839C524.116 581.839 524.121 581.839 524.125 581.839C524.129 581.839 524.132 581.839 524.132 581.839C524.798 581.844 525.314 581.998 525.681 582.303C526.047 582.607 526.23 583.033 526.23 583.581C526.23 584.132 526.045 584.562 525.674 584.871C525.308 585.176 524.791 585.328 524.125 585.328ZM524.125 585.13C524.527 585.13 524.869 585.068 525.151 584.944C525.434 584.821 525.648 584.644 525.793 584.415C525.943 584.181 526.018 583.903 526.018 583.581C526.018 583.254 525.943 582.978 525.793 582.753C525.648 582.524 525.434 582.349 525.151 582.23C524.869 582.106 524.527 582.045 524.125 582.045C524.121 582.045 524.114 582.045 524.105 582.045C524.096 582.045 524.09 582.045 524.085 582.045C523.688 582.045 523.35 582.106 523.072 582.23C522.794 582.349 522.583 582.524 522.437 582.753C522.291 582.983 522.218 583.258 522.218 583.581C522.218 583.903 522.291 584.179 522.437 584.408C522.587 584.638 522.801 584.814 523.079 584.938C523.357 585.061 523.695 585.125 524.092 585.13C524.096 585.13 524.101 585.13 524.105 585.13C524.114 585.13 524.121 585.13 524.125 585.13ZM524.006 586.586V580.39H524.224V586.586H524.006Z" fill="#BFC6DC"/>
<path d="M528.897 584.236C528.588 584.236 528.31 584.165 528.062 584.024C527.815 583.878 527.619 583.675 527.473 583.415C527.332 583.15 527.261 582.845 527.261 582.501C527.261 582.152 527.332 581.848 527.473 581.588C527.619 581.323 527.815 581.118 528.062 580.972C528.31 580.826 528.588 580.753 528.897 580.753C529.214 580.753 529.499 580.828 529.751 580.979C530.006 581.129 530.207 581.334 530.353 581.594C530.503 581.855 530.578 582.157 530.578 582.501C530.578 582.841 530.503 583.141 530.353 583.401C530.207 583.662 530.006 583.867 529.751 584.017C529.499 584.163 529.214 584.236 528.897 584.236ZM527.202 585.5V580.78H527.414V581.985L527.354 582.508L527.42 583.031V585.5H527.202ZM528.89 584.037C529.168 584.037 529.417 583.973 529.638 583.845C529.863 583.717 530.04 583.536 530.168 583.302C530.296 583.068 530.36 582.801 530.36 582.501C530.36 582.192 530.296 581.923 530.168 581.694C530.04 581.464 529.863 581.285 529.638 581.157C529.417 581.025 529.168 580.959 528.89 580.959C528.607 580.959 528.356 581.025 528.135 581.157C527.915 581.285 527.74 581.464 527.612 581.694C527.484 581.923 527.42 582.192 527.42 582.501C527.42 582.801 527.484 583.068 527.612 583.302C527.74 583.536 527.915 583.717 528.135 583.845C528.356 583.973 528.607 584.037 528.89 584.037Z" fill="#BFC6DC"/>
<path d="M532.996 582.289C532.657 582.289 532.356 582.216 532.096 582.07C531.836 581.92 531.63 581.713 531.48 581.448C531.33 581.183 531.255 580.883 531.255 580.547C531.255 580.208 531.324 579.908 531.46 579.647C531.602 579.387 531.794 579.182 532.036 579.032C532.284 578.881 532.562 578.806 532.871 578.806C533.175 578.806 533.449 578.879 533.691 579.025C533.939 579.171 534.131 579.374 534.267 579.634C534.409 579.89 534.479 580.186 534.479 580.521C534.479 580.53 534.479 580.541 534.479 580.554C534.479 580.563 534.479 580.572 534.479 580.581H531.401V580.402H534.36L534.274 580.508C534.274 580.221 534.212 579.965 534.089 579.74C533.969 579.51 533.804 579.332 533.592 579.204C533.38 579.071 533.14 579.005 532.871 579.005C532.601 579.005 532.361 579.071 532.149 579.204C531.937 579.332 531.769 579.51 531.646 579.74C531.527 579.965 531.467 580.223 531.467 580.514V580.554C531.467 580.854 531.533 581.121 531.666 581.355C531.798 581.585 531.979 581.766 532.209 581.898C532.438 582.026 532.701 582.09 532.996 582.09C533.221 582.09 533.433 582.048 533.632 581.964C533.835 581.88 534.003 581.752 534.135 581.58L534.274 581.726C534.12 581.911 533.93 582.052 533.705 582.15C533.484 582.242 533.248 582.289 532.996 582.289Z" fill="#BFC6DC"/>
</g>
<path d="M815.444 628.824C815.862 631.383 817.253 633.627 819.358 635.136C821.462 636.645 824.031 637.252 826.588 636.834C829.103 636.429 831.355 635.044 832.851 632.982C832.9 632.92 846.921 613.415 846.921 613.415C847.58 612.498 848.12 611.246 848.44 609.884C848.688 608.818 850.592 596.822 850.974 594.427C851.036 594.035 850.988 593.634 850.835 593.269C850.683 592.903 850.431 592.587 850.11 592.356C849.788 592.125 849.408 591.987 849.013 591.959C848.618 591.931 848.223 592.013 847.871 592.196C845.722 593.318 834.961 598.95 834.03 599.525C832.842 600.257 831.827 601.169 831.165 602.09L827.356 607.388L827.192 607.393C825.841 607.614 824.574 608.35 823.71 609.55L815.764 620.605C815.182 621.417 814.841 622.375 814.779 623.371C814.716 624.368 814.935 625.361 815.411 626.239C815.318 627.091 815.301 627.954 815.444 628.824ZM836.907 602.812C837.715 602.369 839.188 601.586 840.971 600.649L845.157 603.658C844.831 605.649 844.559 607.298 844.403 608.199L836.907 602.812ZM845.541 601.297L843.086 599.533L846.077 597.962L845.541 601.297ZM830.363 610.529L834.636 604.584L835.07 604.122L843.743 610.354L843.444 610.91L830.851 628.43L824.142 623.607L830.658 614.541C831.564 613.283 831.371 611.63 830.363 610.529ZM819.239 623.1L827.186 612.044C827.352 611.814 827.603 611.659 827.883 611.613C828.163 611.567 828.45 611.634 828.681 611.799C828.911 611.965 829.066 612.215 829.112 612.495C829.158 612.775 829.09 613.062 828.925 613.292L820.979 624.348C820.812 624.577 820.562 624.732 820.283 624.777C820.003 624.823 819.717 624.757 819.486 624.592C819.371 624.511 819.274 624.407 819.2 624.288C819.126 624.169 819.076 624.036 819.053 623.897C819.03 623.758 819.035 623.617 819.067 623.48C819.099 623.343 819.157 623.214 819.239 623.1ZM819.623 626.861C820.205 626.957 820.802 626.89 821.347 626.666C821.893 626.443 822.366 626.073 822.713 625.597L822.894 625.346L829.603 630.169L829.465 630.36C827.726 632.769 824.205 633.348 821.856 631.655C821.276 631.241 820.784 630.716 820.408 630.11C820.033 629.504 819.781 628.83 819.667 628.126C819.597 627.707 819.595 627.284 819.623 626.861Z" fill="#8990A5"/>
<path d="M816.502 588.968L807.854 604.264L775.679 622.219L766.197 606.567L798.372 588.613L816.502 588.968ZM805.196 601.785L810.455 592.342L799.302 592.056L771.014 607.841L776.908 617.571L805.196 601.785Z" fill="#8990A5"/>
<path d="M801.03 590.384C800.964 594.807 803.527 599.037 807.565 601.17L805.87 604.097C800.716 601.313 797.513 596.025 797.542 590.349L801.03 590.384Z" fill="#8990A5"/>
<path d="M773.341 615.053L771.529 612.063L799.628 596.369L801.441 599.353L773.341 615.053ZM813.475 590.655L808.179 590.498C808.212 592.46 809.237 594.152 810.998 595.151L813.475 590.655ZM764.898 607.291L774.38 622.942L767.902 626.557L767.085 626.164C761.112 623.696 757.524 617.774 758.244 611.57L758.292 610.695L764.898 607.291ZM769.563 621.668L763.669 611.939L761.725 613.024C761.576 617.069 763.882 620.876 767.619 622.753L769.563 621.668Z" fill="#8990A5"/>
</g>
<defs>
<filter id="filter0_f_1662_3846" x="229" y="270" width="909" height="539" filterUnits="userSpaceOnUse" color-interpolation-filters="sRGB">
<feFlood flood-opacity="0" result="BackgroundImageFix"/>
<feBlend mode="normal" in="SourceGraphic" in2="BackgroundImageFix" result="shape"/>
<feGaussianBlur stdDeviation="100" result="effect1_foregroundBlur_1662_3846"/>
</filter>
<filter id="filter1_f_1662_3846" x="274" y="340" width="838" height="203" filterUnits="userSpaceOnUse" color-interpolation-filters="sRGB">
<feFlood flood-opacity="0" result="BackgroundImageFix"/>
<feBlend mode="normal" in="SourceGraphic" in2="BackgroundImageFix" result="shape"/>
<feGaussianBlur stdDeviation="20" result="effect1_foregroundBlur_1662_3846"/>
</filter>
<filter id="filter2_f_1662_3846" x="484" y="477" width="403" height="129" filterUnits="userSpaceOnUse" color-interpolation-filters="sRGB">
<feFlood flood-opacity="0" result="BackgroundImageFix"/>
<feBlend mode="normal" in="SourceGraphic" in2="BackgroundImageFix" result="shape"/>
<feGaussianBlur stdDeviation="10" result="effect1_foregroundBlur_1662_3846"/>
</filter>
<filter id="filter3_d_1662_3846" x="407" y="367" width="555" height="326" filterUnits="userSpaceOnUse" color-interpolation-filters="sRGB">
<feFlood flood-opacity="0" result="BackgroundImageFix"/>
<feColorMatrix in="SourceAlpha" type="matrix" values="0 0 0 0 0 0 0 0 0 0 0 0 0 0 0 0 0 0 127 0" result="hardAlpha"/>
<feMorphology radius="20" operator="dilate" in="SourceAlpha" result="effect1_dropShadow_1662_3846"/>
<feOffset dy="4"/>
<feGaussianBlur stdDeviation="50"/>
<feComposite in2="hardAlpha" operator="out"/>
<feColorMatrix type="matrix" values="0 0 0 0 0.121569 0 0 0 0 0.141176 0 0 0 0 0.192157 0 0 0 1 0"/>
<feBlend mode="normal" in2="BackgroundImageFix" result="effect1_dropShadow_1662_3846"/>
<feBlend mode="normal" in="SourceGraphic" in2="effect1_dropShadow_1662_3846" result="shape"/>
</filter>
<filter id="filter4_f_1662_3846" x="996" y="510" width="330" height="186" filterUnits="userSpaceOnUse" color-interpolation-filters="sRGB">
<feFlood flood-opacity="0" result="BackgroundImageFix"/>
<feBlend mode="normal" in="SourceGraphic" in2="BackgroundImageFix" result="shape"/>
<feGaussianBlur stdDeviation="10" result="effect1_foregroundBlur_1662_3846"/>
</filter>
<filter id="filter5_f_1662_3846" x="813" y="468" width="332" height="218" filterUnits="userSpaceOnUse" color-interpolation-filters="sRGB">
<feFlood flood-opacity="0" result="BackgroundImageFix"/>
<feBlend mode="normal" in="SourceGraphic" in2="BackgroundImageFix" result="shape"/>
<feGaussianBlur stdDeviation="10" result="effect1_foregroundBlur_1662_3846"/>
</filter>
<filter id="filter6_f_1662_3846" x="1121" y="427" width="167" height="96" filterUnits="userSpaceOnUse" color-interpolation-filters="sRGB">
<feFlood flood-opacity="0" result="BackgroundImageFix"/>
<feBlend mode="normal" in="SourceGraphic" in2="BackgroundImageFix" result="shape"/>
<feGaussianBlur stdDeviation="8" result="effect1_foregroundBlur_1662_3846"/>
</filter>
<filter id="filter7_f_1662_3846" x="108.285" y="453.525" width="302.562" height="216.975" filterUnits="userSpaceOnUse" color-interpolation-filters="sRGB">
<feFlood flood-opacity="0" result="BackgroundImageFix"/>
<feBlend mode="normal" in="SourceGraphic" in2="BackgroundImageFix" result="shape"/>
<feGaussianBlur stdDeviation="10" result="effect1_foregroundBlur_1662_3846"/>
</filter>
<filter id="filter8_f_1662_3846" x="407" y="555" width="160" height="111" filterUnits="userSpaceOnUse" color-interpolation-filters="sRGB">
<feFlood flood-opacity="0" result="BackgroundImageFix"/>
<feBlend mode="normal" in="SourceGraphic" in2="BackgroundImageFix" result="shape"/>
<feGaussianBlur stdDeviation="8" result="effect1_foregroundBlur_1662_3846"/>
</filter>
<linearGradient id="paint0_linear_1662_3846" x1="685" y1="479" x2="684.5" y2="565" gradientUnits="userSpaceOnUse">
<stop stop-color="#1F2431"/>
<stop offset="1" stop-opacity="0"/>
</linearGradient>
<linearGradient id="paint1_linear_1662_3846" x1="971.5" y1="534.5" x2="1038" y2="609" gradientUnits="userSpaceOnUse">
<stop stop-color="#1E4E4E"/>
<stop offset="1" stop-color="#1F2431"/>
</linearGradient>
<linearGradient id="paint2_linear_1662_3846" x1="1283.02" y1="591.753" x2="1070.01" y2="548.956" gradientUnits="userSpaceOnUse">
<stop stop-color="#1E4E4E"/>
<stop offset="0.995101" stop-color="#1F2431"/>
</linearGradient>
<linearGradient id="paint3_linear_1662_3846" x1="486.999" y1="618.5" x2="516.999" y2="542" gradientUnits="userSpaceOnUse">
<stop stop-color="#D9D9D9" stop-opacity="0.7"/>
<stop offset="1" stop-opacity="0"/>
</linearGradient>
<clipPath id="clip0_1662_3846">
<rect width="1280" height="660" fill="white"/>
</clipPath>
<clipPath id="clip1_1662_3846">
<rect width="20" height="20" fill="white" transform="translate(304 540.5)"/>
</clipPath>
<clipPath id="clip2_1662_3846">
<rect width="20" height="20" fill="white" transform="translate(196 560.5)"/>
</clipPath>
<clipPath id="clip3_1662_3846">
<rect width="151" height="154" fill="white" transform="matrix(-1 0 0 1 565 507)"/>
</clipPath>
</defs>
</svg>
