<svg width="162" height="156" viewBox="0 0 162 156" fill="none" xmlns="http://www.w3.org/2000/svg">
<rect x="51.2028" y="55.9938" width="59.5949" height="59.5514" rx="12.6315" fill="#1F2431"/>
<rect x="51.2028" y="55.9938" width="59.5949" height="59.5514" rx="12.6315" fill="url(#paint0_linear_776_41441)"/>
<rect x="68.693" y="79.3128" width="1.94332" height="20.7287" rx="0.971657" transform="rotate(-90 68.693 79.3128)" fill="#1F2431"/>
<rect x="68.693" y="79.3128" width="1.94332" height="20.7287" rx="0.971657" transform="rotate(-90 68.693 79.3128)" fill="url(#paint1_linear_776_41441)"/>
<rect x="68.693" y="79.3128" width="1.94332" height="20.7287" rx="0.971657" transform="rotate(-90 68.693 79.3128)" stroke="#89E159" stroke-width="0.647772"/>
<rect x="68.693" y="85.1429" width="1.94332" height="20.7287" rx="0.971657" transform="rotate(-90 68.693 85.1429)" fill="#1F2431"/>
<rect x="68.693" y="85.1429" width="1.94332" height="20.7287" rx="0.971657" transform="rotate(-90 68.693 85.1429)" fill="url(#paint2_linear_776_41441)"/>
<rect x="68.693" y="85.1429" width="1.94332" height="20.7287" rx="0.971657" transform="rotate(-90 68.693 85.1429)" stroke="#89E159" stroke-width="0.647772"/>
<rect x="68.693" y="90.973" width="1.94332" height="20.7287" rx="0.971657" transform="rotate(-90 68.693 90.973)" fill="#1F2431"/>
<rect x="68.693" y="90.973" width="1.94332" height="20.7287" rx="0.971657" transform="rotate(-90 68.693 90.973)" fill="url(#paint3_linear_776_41441)"/>
<rect x="68.693" y="90.973" width="1.94332" height="20.7287" rx="0.971657" transform="rotate(-90 68.693 90.973)" stroke="#89E159" stroke-width="0.647772"/>
<path d="M71.9319 71.8632C71.9319 72.7576 71.2068 73.4827 70.3125 73.4827C69.4181 73.4827 68.693 72.7576 68.693 71.8632C68.693 70.9689 69.4181 70.2438 70.3125 70.2438C71.2068 70.2438 71.9319 70.9689 71.9319 71.8632Z" fill="#1F2431"/>
<path d="M71.9319 71.8632C71.9319 72.7576 71.2068 73.4827 70.3125 73.4827C69.4181 73.4827 68.693 72.7576 68.693 71.8632C68.693 70.9689 69.4181 70.2438 70.3125 70.2438C71.2068 70.2438 71.9319 70.9689 71.9319 71.8632Z" fill="url(#paint4_linear_776_41441)"/>
<path d="M71.9319 71.8632C71.9319 72.7576 71.2068 73.4827 70.3125 73.4827C69.4181 73.4827 68.693 72.7576 68.693 71.8632C68.693 70.9689 69.4181 70.2438 70.3125 70.2438C71.2068 70.2438 71.9319 70.9689 71.9319 71.8632Z" stroke="#89E159" stroke-width="0.647772"/>
<path d="M75.8196 71.8632C75.8196 72.7576 75.0945 73.4827 74.2001 73.4827C73.3058 73.4827 72.5807 72.7576 72.5807 71.8632C72.5807 70.9689 73.3058 70.2438 74.2001 70.2438C75.0945 70.2438 75.8196 70.9689 75.8196 71.8632Z" fill="#1F2431"/>
<path d="M75.8196 71.8632C75.8196 72.7576 75.0945 73.4827 74.2001 73.4827C73.3058 73.4827 72.5807 72.7576 72.5807 71.8632C72.5807 70.9689 73.3058 70.2438 74.2001 70.2438C75.0945 70.2438 75.8196 70.9689 75.8196 71.8632Z" fill="url(#paint5_linear_776_41441)"/>
<path d="M75.8196 71.8632C75.8196 72.7576 75.0945 73.4827 74.2001 73.4827C73.3058 73.4827 72.5807 72.7576 72.5807 71.8632C72.5807 70.9689 73.3058 70.2438 74.2001 70.2438C75.0945 70.2438 75.8196 70.9689 75.8196 71.8632Z" stroke="#89E159" stroke-width="0.647772"/>
<path d="M79.0569 71.8632C79.0569 72.7576 78.3318 73.4827 77.4375 73.4827C76.5431 73.4827 75.818 72.7576 75.818 71.8632C75.818 70.9689 76.5431 70.2438 77.4375 70.2438C78.3318 70.2438 79.0569 70.9689 79.0569 71.8632Z" fill="#1F2431"/>
<path d="M79.0569 71.8632C79.0569 72.7576 78.3318 73.4827 77.4375 73.4827C76.5431 73.4827 75.818 72.7576 75.818 71.8632C75.818 70.9689 76.5431 70.2438 77.4375 70.2438C78.3318 70.2438 79.0569 70.9689 79.0569 71.8632Z" fill="url(#paint6_linear_776_41441)"/>
<path d="M79.0569 71.8632C79.0569 72.7576 78.3318 73.4827 77.4375 73.4827C76.5431 73.4827 75.818 72.7576 75.818 71.8632C75.818 70.9689 76.5431 70.2438 77.4375 70.2438C78.3318 70.2438 79.0569 70.9689 79.0569 71.8632Z" stroke="#89E159" stroke-width="0.647772"/>
<rect x="51.2028" y="55.9938" width="59.5949" height="59.5514" rx="12.6315" stroke="#89E159" stroke-width="0.647772"/>
<rect x="60.2712" y="0.325839" width="41.4573" height="41.4269" rx="4.85829" fill="#1F2431"/>
<rect x="60.2712" y="0.325839" width="41.4573" height="41.4269" rx="4.85829" fill="url(#paint7_linear_776_41441)"/>
<rect x="60.2712" y="0.325839" width="41.4573" height="41.4269" rx="4.85829" stroke="#89E159" stroke-width="0.647772"/>
<mask id="path-9-inside-1_776_41441" fill="white">
<path d="M74.8457 42.0762H87.8011V55.6695H74.8457V42.0762Z"/>
</mask>
<path d="M74.8457 42.0762H87.8011V55.6695H74.8457V42.0762Z" fill="#1F2431"/>
<path d="M74.8457 42.0762H87.8011V55.6695H74.8457V42.0762Z" fill="url(#paint8_linear_776_41441)"/>
<path d="M87.1533 42.0762V55.6695H88.4489V42.0762H87.1533ZM75.4935 55.6695V42.0762H74.1979V55.6695H75.4935Z" fill="#89E159" mask="url(#path-9-inside-1_776_41441)"/>
<mask id="path-11-inside-2_776_41441" fill="white">
<path d="M63.835 115.869H76.7904V135.288H63.835V115.869Z"/>
</mask>
<path d="M63.835 115.869H76.7904V135.288H63.835V115.869Z" fill="#1F2431"/>
<path d="M63.835 115.869H76.7904V135.288H63.835V115.869Z" fill="url(#paint9_linear_776_41441)"/>
<path d="M76.1426 115.869V135.288H77.4381V115.869H76.1426ZM64.4827 135.288V115.869H63.1872V135.288H64.4827Z" fill="#89E159" mask="url(#path-11-inside-2_776_41441)"/>
<mask id="path-13-inside-3_776_41441" fill="white">
<path d="M85.2109 115.869H98.1663V135.288H85.2109V115.869Z"/>
</mask>
<path d="M85.2109 115.869H98.1663V135.288H85.2109V115.869Z" fill="#1F2431"/>
<path d="M85.2109 115.869H98.1663V135.288H85.2109V115.869Z" fill="url(#paint10_linear_776_41441)"/>
<path d="M97.5186 115.869V135.288H98.8141V115.869H97.5186ZM85.8587 135.288V115.869H84.5632V135.288H85.8587Z" fill="#89E159" mask="url(#path-13-inside-3_776_41441)"/>
<path d="M91.3641 19.0965C91.3641 24.8161 86.724 29.4531 80.9997 29.4531C75.2755 29.4531 70.6354 24.8161 70.6354 19.0965C70.6354 13.3769 75.2755 8.7399 80.9997 8.7399C86.724 8.7399 91.3641 13.3769 91.3641 19.0965Z" fill="#8990A5" stroke="#89E159" stroke-width="0.647772"/>
<path d="M88.1246 19.0963C88.1246 23.0284 84.9347 26.2164 80.9992 26.2164C77.0637 26.2164 73.8737 23.0284 73.8737 19.0963C73.8737 15.1642 77.0637 11.9762 80.9992 11.9762C84.9347 11.9762 88.1246 15.1642 88.1246 19.0963Z" fill="#89E159" stroke="#89E159" stroke-width="0.647772"/>
<path d="M70.3125 32.3672C78.0857 37.4834 83.7961 37.6074 91.6889 32.3672" stroke="#89E159" stroke-width="1.29554"/>
<rect x="59.6237" y="135.613" width="43.4006" height="14.8875" rx="4.85829" fill="#1F2431"/>
<rect x="59.6237" y="135.613" width="43.4006" height="14.8875" rx="4.85829" fill="url(#paint11_linear_776_41441)"/>
<rect x="59.6237" y="135.613" width="43.4006" height="14.8875" rx="4.85829" stroke="#89E159" stroke-width="0.647772"/>
<path d="M75.8178 150.823C75.8178 153.504 73.6429 155.677 70.9595 155.677C68.2761 155.677 66.1012 153.504 66.1012 150.823C66.1012 148.142 68.2761 145.968 70.9595 145.968C73.6429 145.968 75.8178 148.142 75.8178 150.823Z" fill="#1F2431"/>
<path d="M75.8178 150.823C75.8178 153.504 73.6429 155.677 70.9595 155.677C68.2761 155.677 66.1012 153.504 66.1012 150.823C66.1012 148.142 68.2761 145.968 70.9595 145.968C73.6429 145.968 75.8178 148.142 75.8178 150.823Z" fill="url(#paint12_linear_776_41441)"/>
<path d="M75.8178 150.823C75.8178 153.504 73.6429 155.677 70.9595 155.677C68.2761 155.677 66.1012 153.504 66.1012 150.823C66.1012 148.142 68.2761 145.968 70.9595 145.968C73.6429 145.968 75.8178 148.142 75.8178 150.823Z" stroke="#89E159" stroke-width="0.647772"/>
<path d="M73.8739 150.5C73.8739 152.287 72.424 153.736 70.635 153.736C68.846 153.736 67.3962 152.287 67.3962 150.5C67.3962 148.712 68.846 147.263 70.635 147.263C72.424 147.263 73.8739 148.712 73.8739 150.5Z" fill="#1F2431"/>
<path d="M73.8739 150.5C73.8739 152.287 72.424 153.736 70.635 153.736C68.846 153.736 67.3962 152.287 67.3962 150.5C67.3962 148.712 68.846 147.263 70.635 147.263C72.424 147.263 73.8739 148.712 73.8739 150.5Z" fill="url(#paint13_linear_776_41441)"/>
<path d="M73.8739 150.5C73.8739 152.287 72.424 153.736 70.635 153.736C68.846 153.736 67.3962 152.287 67.3962 150.5C67.3962 148.712 68.846 147.263 70.635 147.263C72.424 147.263 73.8739 148.712 73.8739 150.5Z" stroke="#89E159" stroke-width="0.647772"/>
<path d="M86.183 150.823C86.183 153.504 84.0081 155.677 81.3247 155.677C78.6414 155.677 76.4665 153.504 76.4665 150.823C76.4665 148.142 78.6414 145.968 81.3247 145.968C84.0081 145.968 86.183 148.142 86.183 150.823Z" fill="#1F2431"/>
<path d="M86.183 150.823C86.183 153.504 84.0081 155.677 81.3247 155.677C78.6414 155.677 76.4665 153.504 76.4665 150.823C76.4665 148.142 78.6414 145.968 81.3247 145.968C84.0081 145.968 86.183 148.142 86.183 150.823Z" fill="url(#paint14_linear_776_41441)"/>
<path d="M86.183 150.823C86.183 153.504 84.0081 155.677 81.3247 155.677C78.6414 155.677 76.4665 153.504 76.4665 150.823C76.4665 148.142 78.6414 145.968 81.3247 145.968C84.0081 145.968 86.183 148.142 86.183 150.823Z" stroke="#89E159" stroke-width="0.647772"/>
<path d="M84.2391 150.5C84.2391 152.287 82.7892 153.736 81.0002 153.736C79.2112 153.736 77.7614 152.287 77.7614 150.5C77.7614 148.712 79.2112 147.263 81.0002 147.263C82.7892 147.263 84.2391 148.712 84.2391 150.5Z" fill="#1F2431"/>
<path d="M84.2391 150.5C84.2391 152.287 82.7892 153.736 81.0002 153.736C79.2112 153.736 77.7614 152.287 77.7614 150.5C77.7614 148.712 79.2112 147.263 81.0002 147.263C82.7892 147.263 84.2391 148.712 84.2391 150.5Z" fill="url(#paint15_linear_776_41441)"/>
<path d="M84.2391 150.5C84.2391 152.287 82.7892 153.736 81.0002 153.736C79.2112 153.736 77.7614 152.287 77.7614 150.5C77.7614 148.712 79.2112 147.263 81.0002 147.263C82.7892 147.263 84.2391 148.712 84.2391 150.5Z" stroke="#89E159" stroke-width="0.647772"/>
<path d="M95.8988 150.823C95.8988 153.504 93.7239 155.677 91.0406 155.677C88.3572 155.677 86.1823 153.504 86.1823 150.823C86.1823 148.142 88.3572 145.968 91.0406 145.968C93.7239 145.968 95.8988 148.142 95.8988 150.823Z" fill="#1F2431"/>
<path d="M95.8988 150.823C95.8988 153.504 93.7239 155.677 91.0406 155.677C88.3572 155.677 86.1823 153.504 86.1823 150.823C86.1823 148.142 88.3572 145.968 91.0406 145.968C93.7239 145.968 95.8988 148.142 95.8988 150.823Z" fill="url(#paint16_linear_776_41441)"/>
<path d="M95.8988 150.823C95.8988 153.504 93.7239 155.677 91.0406 155.677C88.3572 155.677 86.1823 153.504 86.1823 150.823C86.1823 148.142 88.3572 145.968 91.0406 145.968C93.7239 145.968 95.8988 148.142 95.8988 150.823Z" stroke="#89E159" stroke-width="0.647772"/>
<path d="M93.9549 150.5C93.9549 152.287 92.505 153.736 90.7161 153.736C88.9271 153.736 87.4772 152.287 87.4772 150.5C87.4772 148.712 88.9271 147.263 90.7161 147.263C92.505 147.263 93.9549 148.712 93.9549 150.5Z" fill="#1F2431"/>
<path d="M93.9549 150.5C93.9549 152.287 92.505 153.736 90.7161 153.736C88.9271 153.736 87.4772 152.287 87.4772 150.5C87.4772 148.712 88.9271 147.263 90.7161 147.263C92.505 147.263 93.9549 148.712 93.9549 150.5Z" fill="url(#paint17_linear_776_41441)"/>
<path d="M93.9549 150.5C93.9549 152.287 92.505 153.736 90.7161 153.736C88.9271 153.736 87.4772 152.287 87.4772 150.5C87.4772 148.712 88.9271 147.263 90.7161 147.263C92.505 147.263 93.9549 148.712 93.9549 150.5Z" stroke="#89E159" stroke-width="0.647772"/>
<rect x="112.093" y="76.7074" width="10.3564" height="38.8662" rx="2.2672" transform="rotate(-90 112.093 76.7074)" fill="#1F2431"/>
<rect x="112.093" y="76.7074" width="10.3564" height="38.8662" rx="2.2672" transform="rotate(-90 112.093 76.7074)" fill="url(#paint18_linear_776_41441)"/>
<rect x="112.093" y="76.7074" width="10.3564" height="38.8662" rx="2.2672" transform="rotate(-90 112.093 76.7074)" stroke="#89E159" stroke-width="0.647772"/>
<rect x="140.597" y="43.6969" width="9.71656" height="27.8335" rx="2.2672" fill="#1F2431"/>
<rect x="140.597" y="43.6969" width="9.71656" height="27.8335" rx="2.2672" fill="url(#paint19_linear_776_41441)"/>
<rect x="140.597" y="43.6969" width="9.71656" height="27.8335" rx="2.2672" stroke="#89E159" stroke-width="0.647772"/>
<path d="M121.164 72.4986C121.164 77.6819 116.959 81.8843 111.771 81.8843C106.584 81.8843 102.379 77.6819 102.379 72.4986C102.379 67.3153 106.584 63.1129 111.771 63.1129C116.959 63.1129 121.164 67.3153 121.164 72.4986Z" fill="#1F2431"/>
<path d="M121.164 72.4986C121.164 77.6819 116.959 81.8843 111.771 81.8843C106.584 81.8843 102.379 77.6819 102.379 72.4986C102.379 67.3153 106.584 63.1129 111.771 63.1129C116.959 63.1129 121.164 67.3153 121.164 72.4986Z" fill="url(#paint20_linear_776_41441)"/>
<path d="M121.164 72.4986C121.164 77.6819 116.959 81.8843 111.771 81.8843C106.584 81.8843 102.379 77.6819 102.379 72.4986C102.379 67.3153 106.584 63.1129 111.771 63.1129C116.959 63.1129 121.164 67.3153 121.164 72.4986Z" stroke="#89E159" stroke-width="0.647772"/>
<path d="M118.572 72.8221C118.572 76.3967 115.672 79.2949 112.095 79.2949C108.517 79.2949 105.617 76.3967 105.617 72.8221C105.617 69.2475 108.517 66.3493 112.095 66.3493C115.672 66.3493 118.572 69.2475 118.572 72.8221Z" fill="#1F2431"/>
<path d="M118.572 72.8221C118.572 76.3967 115.672 79.2949 112.095 79.2949C108.517 79.2949 105.617 76.3967 105.617 72.8221C105.617 69.2475 108.517 66.3493 112.095 66.3493C115.672 66.3493 118.572 69.2475 118.572 72.8221Z" fill="url(#paint21_linear_776_41441)"/>
<path d="M118.572 72.8221C118.572 76.3967 115.672 79.2949 112.095 79.2949C108.517 79.2949 105.617 76.3967 105.617 72.8221C105.617 69.2475 108.517 66.3493 112.095 66.3493C115.672 66.3493 118.572 69.2475 118.572 72.8221Z" stroke="#89E159" stroke-width="0.647772"/>
<path d="M151.607 71.2063C151.607 74.974 148.693 78.0027 145.13 78.0027C141.566 78.0027 138.652 74.974 138.652 71.2063C138.652 67.4386 141.566 64.4098 145.13 64.4098C148.693 64.4098 151.607 67.4386 151.607 71.2063Z" fill="#1F2431"/>
<path d="M151.607 71.2063C151.607 74.974 148.693 78.0027 145.13 78.0027C141.566 78.0027 138.652 74.974 138.652 71.2063C138.652 67.4386 141.566 64.4098 145.13 64.4098C148.693 64.4098 151.607 67.4386 151.607 71.2063Z" fill="url(#paint22_linear_776_41441)"/>
<path d="M151.607 71.2063C151.607 74.974 148.693 78.0027 145.13 78.0027C141.566 78.0027 138.652 74.974 138.652 71.2063C138.652 67.4386 141.566 64.4098 145.13 64.4098C148.693 64.4098 151.607 67.4386 151.607 71.2063Z" stroke="#89E159" stroke-width="0.647772"/>
<path d="M149.664 70.8821C149.664 73.3842 147.634 75.413 145.13 75.413C142.625 75.413 140.595 73.3842 140.595 70.8821C140.595 68.38 142.625 66.3512 145.13 66.3512C147.634 66.3512 149.664 68.38 149.664 70.8821Z" fill="#1F2431"/>
<path d="M149.664 70.8821C149.664 73.3842 147.634 75.413 145.13 75.413C142.625 75.413 140.595 73.3842 140.595 70.8821C140.595 68.38 142.625 66.3512 145.13 66.3512C147.634 66.3512 149.664 68.38 149.664 70.8821Z" fill="url(#paint23_linear_776_41441)"/>
<path d="M149.664 70.8821C149.664 73.3842 147.634 75.413 145.13 75.413C142.625 75.413 140.595 73.3842 140.595 70.8821C140.595 68.38 142.625 66.3512 145.13 66.3512C147.634 66.3512 149.664 68.38 149.664 70.8821Z" stroke="#89E159" stroke-width="0.647772"/>
<path d="M130.484 38.636C127.784 30.1325 135.196 23.3563 139.925 21.3633C138.909 27.0637 139.25 29.3353 139.925 32.657C140.762 36.7771 152.746 36.643 153.421 32.657C154.096 28.671 154.455 27.0637 153.421 21.3633C157.02 24.2421 161.945 29.987 160.844 38.636C159.49 49.2654 133.858 49.2654 130.484 38.636Z" fill="#1F2431"/>
<path d="M130.484 38.636C127.784 30.1325 135.196 23.3563 139.925 21.3633C138.909 27.0637 139.25 29.3353 139.925 32.657C140.762 36.7771 152.746 36.643 153.421 32.657C154.096 28.671 154.455 27.0637 153.421 21.3633C157.02 24.2421 161.945 29.987 160.844 38.636C159.49 49.2654 133.858 49.2654 130.484 38.636Z" fill="url(#paint24_linear_776_41441)"/>
<path d="M130.484 38.636C127.784 30.1325 135.196 23.3563 139.925 21.3633C138.909 27.0637 139.25 29.3353 139.925 32.657C140.762 36.7771 152.746 36.643 153.421 32.657C154.096 28.671 154.455 27.0637 153.421 21.3633C157.02 24.2421 161.945 29.987 160.844 38.636C159.49 49.2654 133.858 49.2654 130.484 38.636Z" stroke="#89E159" stroke-width="0.647772"/>
<rect x="-0.323886" y="-0.323886" width="10.3564" height="38.8662" rx="2.2672" transform="matrix(0 -1 -1 0 49.5827 76.3835)" fill="#1F2431"/>
<rect x="-0.323886" y="-0.323886" width="10.3564" height="38.8662" rx="2.2672" transform="matrix(0 -1 -1 0 49.5827 76.3835)" fill="url(#paint25_linear_776_41441)"/>
<rect x="-0.323886" y="-0.323886" width="10.3564" height="38.8662" rx="2.2672" transform="matrix(0 -1 -1 0 49.5827 76.3835)" stroke="#89E159" stroke-width="0.647772"/>
<rect x="-0.323886" y="0.323886" width="9.71656" height="27.8335" rx="2.2672" transform="matrix(-1 0 0 1 21.0798 43.373)" fill="#1F2431"/>
<rect x="-0.323886" y="0.323886" width="9.71656" height="27.8335" rx="2.2672" transform="matrix(-1 0 0 1 21.0798 43.373)" fill="url(#paint26_linear_776_41441)"/>
<rect x="-0.323886" y="0.323886" width="9.71656" height="27.8335" rx="2.2672" transform="matrix(-1 0 0 1 21.0798 43.373)" stroke="#89E159" stroke-width="0.647772"/>
<path d="M40.8371 72.4986C40.8371 77.6819 45.0421 81.8843 50.2297 81.8843C55.4174 81.8843 59.6224 77.6819 59.6224 72.4986C59.6224 67.3153 55.4174 63.1129 50.2297 63.1129C45.0421 63.1129 40.8371 67.3153 40.8371 72.4986Z" fill="#1F2431"/>
<path d="M40.8371 72.4986C40.8371 77.6819 45.0421 81.8843 50.2297 81.8843C55.4174 81.8843 59.6224 77.6819 59.6224 72.4986C59.6224 67.3153 55.4174 63.1129 50.2297 63.1129C45.0421 63.1129 40.8371 67.3153 40.8371 72.4986Z" fill="url(#paint27_linear_776_41441)"/>
<path d="M40.8371 72.4986C40.8371 77.6819 45.0421 81.8843 50.2297 81.8843C55.4174 81.8843 59.6224 77.6819 59.6224 72.4986C59.6224 67.3153 55.4174 63.1129 50.2297 63.1129C45.0421 63.1129 40.8371 67.3153 40.8371 72.4986Z" stroke="#89E159" stroke-width="0.647772"/>
<path d="M43.4287 72.8221C43.4287 76.3967 46.3287 79.2949 49.9064 79.2949C53.4842 79.2949 56.3841 76.3967 56.3841 72.8221C56.3841 69.2475 53.4842 66.3493 49.9064 66.3493C46.3287 66.3493 43.4287 69.2475 43.4287 72.8221Z" fill="#1F2431"/>
<path d="M43.4287 72.8221C43.4287 76.3967 46.3287 79.2949 49.9064 79.2949C53.4842 79.2949 56.3841 76.3967 56.3841 72.8221C56.3841 69.2475 53.4842 66.3493 49.9064 66.3493C46.3287 66.3493 43.4287 69.2475 43.4287 72.8221Z" fill="url(#paint28_linear_776_41441)"/>
<path d="M43.4287 72.8221C43.4287 76.3967 46.3287 79.2949 49.9064 79.2949C53.4842 79.2949 56.3841 76.3967 56.3841 72.8221C56.3841 69.2475 53.4842 66.3493 49.9064 66.3493C46.3287 66.3493 43.4287 69.2475 43.4287 72.8221Z" stroke="#89E159" stroke-width="0.647772"/>
<path d="M10.3945 71.2063C10.3945 74.974 13.3085 78.0027 16.8722 78.0027C20.436 78.0027 23.3499 74.974 23.3499 71.2063C23.3499 67.4386 20.436 64.4098 16.8722 64.4098C13.3085 64.4098 10.3945 67.4386 10.3945 71.2063Z" fill="#1F2431"/>
<path d="M10.3945 71.2063C10.3945 74.974 13.3085 78.0027 16.8722 78.0027C20.436 78.0027 23.3499 74.974 23.3499 71.2063C23.3499 67.4386 20.436 64.4098 16.8722 64.4098C13.3085 64.4098 10.3945 67.4386 10.3945 71.2063Z" fill="url(#paint29_linear_776_41441)"/>
<path d="M10.3945 71.2063C10.3945 74.974 13.3085 78.0027 16.8722 78.0027C20.436 78.0027 23.3499 74.974 23.3499 71.2063C23.3499 67.4386 20.436 64.4098 16.8722 64.4098C13.3085 64.4098 10.3945 67.4386 10.3945 71.2063Z" stroke="#89E159" stroke-width="0.647772"/>
<path d="M12.3378 70.8821C12.3378 73.3842 14.3677 75.413 16.8722 75.413C19.3767 75.413 21.4066 73.3842 21.4066 70.8821C21.4066 68.38 19.3767 66.3512 16.8722 66.3512C14.3677 66.3512 12.3378 68.38 12.3378 70.8821Z" fill="#1F2431"/>
<path d="M12.3378 70.8821C12.3378 73.3842 14.3677 75.413 16.8722 75.413C19.3767 75.413 21.4066 73.3842 21.4066 70.8821C21.4066 68.38 19.3767 66.3512 16.8722 66.3512C14.3677 66.3512 12.3378 68.38 12.3378 70.8821Z" fill="url(#paint30_linear_776_41441)"/>
<path d="M12.3378 70.8821C12.3378 73.3842 14.3677 75.413 16.8722 75.413C19.3767 75.413 21.4066 73.3842 21.4066 70.8821C21.4066 68.38 19.3767 66.3512 16.8722 66.3512C14.3677 66.3512 12.3378 68.38 12.3378 70.8821Z" stroke="#89E159" stroke-width="0.647772"/>
<path d="M31.5172 38.636C34.2164 30.1325 26.8052 23.3563 22.0761 21.3633C23.0922 27.0637 22.7509 29.3353 22.0761 32.657C21.2391 36.7771 9.2548 36.643 8.58 32.657C7.90519 28.671 7.54568 27.0637 8.58 21.3633C4.98103 24.2421 0.0554581 29.987 1.15689 38.636C2.51051 49.2654 28.1432 49.2654 31.5172 38.636Z" fill="#1F2431"/>
<path d="M31.5172 38.636C34.2164 30.1325 26.8052 23.3563 22.0761 21.3633C23.0922 27.0637 22.7509 29.3353 22.0761 32.657C21.2391 36.7771 9.2548 36.643 8.58 32.657C7.90519 28.671 7.54568 27.0637 8.58 21.3633C4.98103 24.2421 0.0554581 29.987 1.15689 38.636C2.51051 49.2654 28.1432 49.2654 31.5172 38.636Z" fill="url(#paint31_linear_776_41441)"/>
<path d="M31.5172 38.636C34.2164 30.1325 26.8052 23.3563 22.0761 21.3633C23.0922 27.0637 22.7509 29.3353 22.0761 32.657C21.2391 36.7771 9.2548 36.643 8.58 32.657C7.90519 28.671 7.54568 27.0637 8.58 21.3633C4.98103 24.2421 0.0554581 29.987 1.15689 38.636C2.51051 49.2654 28.1432 49.2654 31.5172 38.636Z" stroke="#89E159" stroke-width="0.647772"/>
<defs>
<linearGradient id="paint0_linear_776_41441" x1="95.4452" y1="115.869" x2="53.8113" y2="89.9798" gradientUnits="userSpaceOnUse">
<stop stop-color="#1E4E4E"/>
<stop offset="1" stop-color="#1F2431"/>
</linearGradient>
<linearGradient id="paint1_linear_776_41441" x1="70.286" y1="101.013" x2="67.8169" y2="100.827" gradientUnits="userSpaceOnUse">
<stop stop-color="#1E4E4E"/>
<stop offset="1" stop-color="#1F2431"/>
</linearGradient>
<linearGradient id="paint2_linear_776_41441" x1="70.286" y1="106.843" x2="67.8169" y2="106.657" gradientUnits="userSpaceOnUse">
<stop stop-color="#1E4E4E"/>
<stop offset="1" stop-color="#1F2431"/>
</linearGradient>
<linearGradient id="paint3_linear_776_41441" x1="70.286" y1="112.673" x2="67.8169" y2="112.487" gradientUnits="userSpaceOnUse">
<stop stop-color="#1E4E4E"/>
<stop offset="1" stop-color="#1F2431"/>
</linearGradient>
<linearGradient id="paint4_linear_776_41441" x1="71.2444" y1="73.8066" x2="68.5572" y2="72.1368" gradientUnits="userSpaceOnUse">
<stop stop-color="#1E4E4E"/>
<stop offset="1" stop-color="#1F2431"/>
</linearGradient>
<linearGradient id="paint5_linear_776_41441" x1="75.1321" y1="73.8066" x2="72.4449" y2="72.1368" gradientUnits="userSpaceOnUse">
<stop stop-color="#1E4E4E"/>
<stop offset="1" stop-color="#1F2431"/>
</linearGradient>
<linearGradient id="paint6_linear_776_41441" x1="78.3694" y1="73.8066" x2="75.6822" y2="72.1368" gradientUnits="userSpaceOnUse">
<stop stop-color="#1E4E4E"/>
<stop offset="1" stop-color="#1F2431"/>
</linearGradient>
<linearGradient id="paint7_linear_776_41441" x1="91.0958" y1="42.0766" x2="61.9968" y2="23.982" gradientUnits="userSpaceOnUse">
<stop stop-color="#1E4E4E"/>
<stop offset="1" stop-color="#1F2431"/>
</linearGradient>
<linearGradient id="paint8_linear_776_41441" x1="84.4299" y1="55.6695" x2="75.238" y2="50.2259" gradientUnits="userSpaceOnUse">
<stop stop-color="#1E4E4E"/>
<stop offset="1" stop-color="#1F2431"/>
</linearGradient>
<linearGradient id="paint9_linear_776_41441" x1="73.4191" y1="135.288" x2="62.8243" y2="130.896" gradientUnits="userSpaceOnUse">
<stop stop-color="#1E4E4E"/>
<stop offset="1" stop-color="#1F2431"/>
</linearGradient>
<linearGradient id="paint10_linear_776_41441" x1="94.7951" y1="135.288" x2="84.2002" y2="130.896" gradientUnits="userSpaceOnUse">
<stop stop-color="#1E4E4E"/>
<stop offset="1" stop-color="#1F2431"/>
</linearGradient>
<linearGradient id="paint11_linear_776_41441" x1="91.8859" y1="150.824" x2="81.6004" y2="132.703" gradientUnits="userSpaceOnUse">
<stop stop-color="#1E4E4E"/>
<stop offset="1" stop-color="#1F2431"/>
</linearGradient>
<linearGradient id="paint12_linear_776_41441" x1="73.4447" y1="156.001" x2="66.2818" y2="151.547" gradientUnits="userSpaceOnUse">
<stop stop-color="#1E4E4E"/>
<stop offset="1" stop-color="#1F2431"/>
</linearGradient>
<linearGradient id="paint13_linear_776_41441" x1="72.3435" y1="154.06" x2="67.4191" y2="150.998" gradientUnits="userSpaceOnUse">
<stop stop-color="#1E4E4E"/>
<stop offset="1" stop-color="#1F2431"/>
</linearGradient>
<linearGradient id="paint14_linear_776_41441" x1="83.8099" y1="156.001" x2="76.6471" y2="151.547" gradientUnits="userSpaceOnUse">
<stop stop-color="#1E4E4E"/>
<stop offset="1" stop-color="#1F2431"/>
</linearGradient>
<linearGradient id="paint15_linear_776_41441" x1="82.7088" y1="154.06" x2="77.7843" y2="150.998" gradientUnits="userSpaceOnUse">
<stop stop-color="#1E4E4E"/>
<stop offset="1" stop-color="#1F2431"/>
</linearGradient>
<linearGradient id="paint16_linear_776_41441" x1="93.5257" y1="156.001" x2="86.3629" y2="151.547" gradientUnits="userSpaceOnUse">
<stop stop-color="#1E4E4E"/>
<stop offset="1" stop-color="#1F2431"/>
</linearGradient>
<linearGradient id="paint17_linear_776_41441" x1="92.4246" y1="154.06" x2="87.5002" y2="150.998" gradientUnits="userSpaceOnUse">
<stop stop-color="#1E4E4E"/>
<stop offset="1" stop-color="#1F2431"/>
</linearGradient>
<linearGradient id="paint18_linear_776_41441" x1="119.91" y1="116.545" x2="109.671" y2="114.773" gradientUnits="userSpaceOnUse">
<stop stop-color="#1E4E4E"/>
<stop offset="1" stop-color="#1F2431"/>
</linearGradient>
<linearGradient id="paint19_linear_776_41441" x1="147.941" y1="71.8544" x2="138.491" y2="69.7177" gradientUnits="userSpaceOnUse">
<stop stop-color="#1E4E4E"/>
<stop offset="1" stop-color="#1F2431"/>
</linearGradient>
<linearGradient id="paint20_linear_776_41441" x1="116.431" y1="82.2081" x2="103.001" y2="73.8568" gradientUnits="userSpaceOnUse">
<stop stop-color="#1E4E4E"/>
<stop offset="1" stop-color="#1F2431"/>
</linearGradient>
<linearGradient id="paint21_linear_776_41441" x1="115.356" y1="79.6187" x2="105.955" y2="73.7728" gradientUnits="userSpaceOnUse">
<stop stop-color="#1E4E4E"/>
<stop offset="1" stop-color="#1F2431"/>
</linearGradient>
<linearGradient id="paint22_linear_776_41441" x1="148.391" y1="78.3266" x2="138.751" y2="72.6046" gradientUnits="userSpaceOnUse">
<stop stop-color="#1E4E4E"/>
<stop offset="1" stop-color="#1F2431"/>
</linearGradient>
<linearGradient id="paint23_linear_776_41441" x1="147.46" y1="75.7369" x2="140.744" y2="71.5612" gradientUnits="userSpaceOnUse">
<stop stop-color="#1E4E4E"/>
<stop offset="1" stop-color="#1F2431"/>
</linearGradient>
<linearGradient id="paint24_linear_776_41441" x1="152.91" y1="46.6081" x2="134.119" y2="32.2267" gradientUnits="userSpaceOnUse">
<stop stop-color="#1E4E4E"/>
<stop offset="1" stop-color="#1F2431"/>
</linearGradient>
<linearGradient id="paint25_linear_776_41441" x1="8.14064" y1="39.514" x2="-2.0984" y2="37.7422" gradientUnits="userSpaceOnUse">
<stop stop-color="#1E4E4E"/>
<stop offset="1" stop-color="#1F2431"/>
</linearGradient>
<linearGradient id="paint26_linear_776_41441" x1="7.66732" y1="28.4813" x2="-1.78203" y2="26.3446" gradientUnits="userSpaceOnUse">
<stop stop-color="#1E4E4E"/>
<stop offset="1" stop-color="#1F2431"/>
</linearGradient>
<linearGradient id="paint27_linear_776_41441" x1="45.5701" y1="82.2081" x2="59.0004" y2="73.8568" gradientUnits="userSpaceOnUse">
<stop stop-color="#1E4E4E"/>
<stop offset="1" stop-color="#1F2431"/>
</linearGradient>
<linearGradient id="paint28_linear_776_41441" x1="46.6446" y1="79.6187" x2="56.0459" y2="73.7728" gradientUnits="userSpaceOnUse">
<stop stop-color="#1E4E4E"/>
<stop offset="1" stop-color="#1F2431"/>
</linearGradient>
<linearGradient id="paint29_linear_776_41441" x1="13.6105" y1="78.3266" x2="23.2505" y2="72.6046" gradientUnits="userSpaceOnUse">
<stop stop-color="#1E4E4E"/>
<stop offset="1" stop-color="#1F2431"/>
</linearGradient>
<linearGradient id="paint30_linear_776_41441" x1="14.5424" y1="75.7369" x2="21.2575" y2="71.5612" gradientUnits="userSpaceOnUse">
<stop stop-color="#1E4E4E"/>
<stop offset="1" stop-color="#1F2431"/>
</linearGradient>
<linearGradient id="paint31_linear_776_41441" x1="9.09081" y1="46.6081" x2="27.8818" y2="32.2267" gradientUnits="userSpaceOnUse">
<stop stop-color="#1E4E4E"/>
<stop offset="1" stop-color="#1F2431"/>
</linearGradient>
</defs>
</svg>
