<svg width="110" height="120" viewBox="0 0 110 120" fill="none" xmlns="http://www.w3.org/2000/svg">
<g filter="url(#filter0_f_762_3924)">
<ellipse cx="56.5" cy="90.5" rx="37.5" ry="13.5" fill="#141B25"/>
</g>
<rect x="31.222" y="33.7264" width="35.7333" height="35.7334" rx="9.34523" fill="#1F2431"/>
<rect x="31.222" y="33.7264" width="35.7333" height="35.7334" rx="9.34523" fill="url(#paint0_linear_762_3924)"/>
<rect x="44.1625" y="50.9791" width="1.43773" height="15.3357" rx="0.718864" transform="rotate(-90 44.1625 50.9791)" fill="#1F2431"/>
<rect x="44.1625" y="50.9791" width="1.43773" height="15.3357" rx="0.718864" transform="rotate(-90 44.1625 50.9791)" fill="url(#paint1_linear_762_3924)"/>
<rect x="44.1625" y="50.9791" width="1.43773" height="15.3357" rx="0.718864" transform="rotate(-90 44.1625 50.9791)" stroke="#89E159" stroke-width="0.479242"/>
<rect x="44.1625" y="55.2924" width="1.43773" height="15.3357" rx="0.718864" transform="rotate(-90 44.1625 55.2924)" fill="#1F2431"/>
<rect x="44.1625" y="55.2924" width="1.43773" height="15.3357" rx="0.718864" transform="rotate(-90 44.1625 55.2924)" fill="url(#paint2_linear_762_3924)"/>
<rect x="44.1625" y="55.2924" width="1.43773" height="15.3357" rx="0.718864" transform="rotate(-90 44.1625 55.2924)" stroke="#89E159" stroke-width="0.479242"/>
<rect x="44.1615" y="59.6056" width="1.43773" height="15.3357" rx="0.718864" transform="rotate(-90 44.1615 59.6056)" fill="#1F2431"/>
<rect x="44.1615" y="59.6056" width="1.43773" height="15.3357" rx="0.718864" transform="rotate(-90 44.1615 59.6056)" fill="url(#paint3_linear_762_3924)"/>
<rect x="44.1615" y="59.6056" width="1.43773" height="15.3357" rx="0.718864" transform="rotate(-90 44.1615 59.6056)" stroke="#89E159" stroke-width="0.479242"/>
<path d="M46.5587 45.4678C46.5587 46.1295 46.0223 46.6659 45.3606 46.6659C44.6989 46.6659 44.1625 46.1295 44.1625 45.4678C44.1625 44.8061 44.6989 44.2697 45.3606 44.2697C46.0223 44.2697 46.5587 44.8061 46.5587 45.4678Z" fill="#1F2431"/>
<path d="M46.5587 45.4678C46.5587 46.1295 46.0223 46.6659 45.3606 46.6659C44.6989 46.6659 44.1625 46.1295 44.1625 45.4678C44.1625 44.8061 44.6989 44.2697 45.3606 44.2697C46.0223 44.2697 46.5587 44.8061 46.5587 45.4678Z" fill="url(#paint4_linear_762_3924)"/>
<path d="M46.5587 45.4678C46.5587 46.1295 46.0223 46.6659 45.3606 46.6659C44.6989 46.6659 44.1625 46.1295 44.1625 45.4678C44.1625 44.8061 44.6989 44.2697 45.3606 44.2697C46.0223 44.2697 46.5587 44.8061 46.5587 45.4678Z" stroke="#89E159" stroke-width="0.479242"/>
<path d="M49.4347 45.4678C49.4347 46.1295 48.8982 46.6659 48.2366 46.6659C47.5749 46.6659 47.0384 46.1295 47.0384 45.4678C47.0384 44.8061 47.5749 44.2697 48.2366 44.2697C48.8982 44.2697 49.4347 44.8061 49.4347 45.4678Z" fill="#1F2431"/>
<path d="M49.4347 45.4678C49.4347 46.1295 48.8982 46.6659 48.2366 46.6659C47.5749 46.6659 47.0384 46.1295 47.0384 45.4678C47.0384 44.8061 47.5749 44.2697 48.2366 44.2697C48.8982 44.2697 49.4347 44.8061 49.4347 45.4678Z" fill="url(#paint5_linear_762_3924)"/>
<path d="M49.4347 45.4678C49.4347 46.1295 48.8982 46.6659 48.2366 46.6659C47.5749 46.6659 47.0384 46.1295 47.0384 45.4678C47.0384 44.8061 47.5749 44.2697 48.2366 44.2697C48.8982 44.2697 49.4347 44.8061 49.4347 45.4678Z" stroke="#89E159" stroke-width="0.479242"/>
<path d="M51.8302 45.4678C51.8302 46.1295 51.2938 46.6659 50.6321 46.6659C49.9704 46.6659 49.434 46.1295 49.434 45.4678C49.434 44.8061 49.9704 44.2697 50.6321 44.2697C51.2938 44.2697 51.8302 44.8061 51.8302 45.4678Z" fill="#1F2431"/>
<path d="M51.8302 45.4678C51.8302 46.1295 51.2938 46.6659 50.6321 46.6659C49.9704 46.6659 49.434 46.1295 49.434 45.4678C49.434 44.8061 49.9704 44.2697 50.6321 44.2697C51.2938 44.2697 51.8302 44.8061 51.8302 45.4678Z" fill="url(#paint6_linear_762_3924)"/>
<path d="M51.8302 45.4678C51.8302 46.1295 51.2938 46.6659 50.6321 46.6659C49.9704 46.6659 49.434 46.1295 49.434 45.4678C49.434 44.8061 49.9704 44.2697 50.6321 44.2697C51.2938 44.2697 51.8302 44.8061 51.8302 45.4678Z" stroke="#89E159" stroke-width="0.479242"/>
<rect x="31.222" y="33.7264" width="35.7333" height="35.7334" rx="9.34523" stroke="#89E159" stroke-width="0.479242"/>
<rect x="36.6732" y="0.239621" width="24.8306" height="24.8306" rx="3.59432" fill="#1F2431"/>
<rect x="36.6732" y="0.239621" width="24.8306" height="24.8306" rx="3.59432" fill="url(#paint7_linear_762_3924)"/>
<rect x="36.6732" y="0.239621" width="24.8306" height="24.8306" rx="3.59432" stroke="#89E159" stroke-width="0.479242"/>
<mask id="path-10-inside-1_762_3924" fill="white">
<path d="M45.3896 25.3105H53.1773V33.4876H45.3896V25.3105Z"/>
</mask>
<path d="M45.3896 25.3105H53.1773V33.4876H45.3896V25.3105Z" fill="#1F2431"/>
<path d="M45.3896 25.3105H53.1773V33.4876H45.3896V25.3105Z" fill="url(#paint8_linear_762_3924)"/>
<path d="M52.698 25.3105V33.4876H53.6565V25.3105H52.698ZM45.8689 33.4876V25.3105H44.9104V33.4876H45.8689Z" fill="#89E159" mask="url(#path-10-inside-1_762_3924)"/>
<mask id="path-12-inside-2_762_3924" fill="white">
<path d="M38.7705 69.6997H46.5581V81.3812H38.7705V69.6997Z"/>
</mask>
<path d="M38.7705 69.6997H46.5581V81.3812H38.7705V69.6997Z" fill="#1F2431"/>
<path d="M38.7705 69.6997H46.5581V81.3812H38.7705V69.6997Z" fill="url(#paint9_linear_762_3924)"/>
<path d="M46.0789 69.6997V81.3812H47.0374V69.6997H46.0789ZM39.2498 81.3812V69.6997H38.2913V81.3812H39.2498Z" fill="#89E159" mask="url(#path-12-inside-2_762_3924)"/>
<mask id="path-14-inside-3_762_3924" fill="white">
<path d="M51.6201 69.6997H59.4078V81.3812H51.6201V69.6997Z"/>
</mask>
<path d="M51.6201 69.6997H59.4078V81.3812H51.6201V69.6997Z" fill="#1F2431"/>
<path d="M51.6201 69.6997H59.4078V81.3812H51.6201V69.6997Z" fill="url(#paint10_linear_762_3924)"/>
<path d="M58.9285 69.6997V81.3812H59.887V69.6997H58.9285ZM52.0994 81.3812V69.6997H51.1409V81.3812H52.0994Z" fill="#89E159" mask="url(#path-14-inside-3_762_3924)"/>
<path d="M55.274 11.4868C55.274 14.9028 52.5048 17.672 49.0889 17.672C45.6729 17.672 42.9037 14.9028 42.9037 11.4868C42.9037 8.07084 45.6729 5.30163 49.0889 5.30163C52.5048 5.30163 55.274 8.07084 55.274 11.4868Z" fill="#8990A5" stroke="#89E159" stroke-width="0.479242"/>
<path d="M53.3265 11.4872C53.3265 13.8279 51.429 15.7255 49.0882 15.7255C46.7475 15.7255 44.85 13.8279 44.85 11.4872C44.85 9.14644 46.7475 7.2489 49.0882 7.2489C51.429 7.2489 53.3265 9.14644 53.3265 11.4872Z" fill="#89E159" stroke="#89E159" stroke-width="0.479242"/>
<path d="M42.6641 19.4692C47.3366 22.5469 50.7692 22.6215 55.5137 19.4692" stroke="#89E159" stroke-width="0.958485"/>
<rect x="36.2845" y="81.6205" width="25.9987" height="8.86595" rx="3.59432" fill="#1F2431"/>
<rect x="36.2845" y="81.6205" width="25.9987" height="8.86595" rx="3.59432" fill="url(#paint11_linear_762_3924)"/>
<rect x="36.2845" y="81.6205" width="25.9987" height="8.86595" rx="3.59432" stroke="#89E159" stroke-width="0.479242"/>
<path d="M45.929 90.7254C45.929 92.3135 44.6416 93.6009 43.0535 93.6009C41.4655 93.6009 40.1781 92.3135 40.1781 90.7254C40.1781 89.1374 41.4655 87.85 43.0535 87.85C44.6416 87.85 45.929 89.1374 45.929 90.7254Z" fill="#1F2431"/>
<path d="M45.929 90.7254C45.929 92.3135 44.6416 93.6009 43.0535 93.6009C41.4655 93.6009 40.1781 92.3135 40.1781 90.7254C40.1781 89.1374 41.4655 87.85 43.0535 87.85C44.6416 87.85 45.929 89.1374 45.929 90.7254Z" fill="url(#paint12_linear_762_3924)"/>
<path d="M45.929 90.7254C45.929 92.3135 44.6416 93.6009 43.0535 93.6009C41.4655 93.6009 40.1781 92.3135 40.1781 90.7254C40.1781 89.1374 41.4655 87.85 43.0535 87.85C44.6416 87.85 45.929 89.1374 45.929 90.7254Z" stroke="#89E159" stroke-width="0.479242"/>
<path d="M44.7604 90.5308C44.7604 91.5812 43.9088 92.4328 42.8584 92.4328C41.808 92.4328 40.9564 91.5812 40.9564 90.5308C40.9564 89.4803 41.808 88.6288 42.8584 88.6288C43.9088 88.6288 44.7604 89.4803 44.7604 90.5308Z" fill="#1F2431"/>
<path d="M44.7604 90.5308C44.7604 91.5812 43.9088 92.4328 42.8584 92.4328C41.808 92.4328 40.9564 91.5812 40.9564 90.5308C40.9564 89.4803 41.808 88.6288 42.8584 88.6288C43.9088 88.6288 44.7604 89.4803 44.7604 90.5308Z" fill="url(#paint13_linear_762_3924)"/>
<path d="M44.7604 90.5308C44.7604 91.5812 43.9088 92.4328 42.8584 92.4328C41.808 92.4328 40.9564 91.5812 40.9564 90.5308C40.9564 89.4803 41.808 88.6288 42.8584 88.6288C43.9088 88.6288 44.7604 89.4803 44.7604 90.5308Z" stroke="#89E159" stroke-width="0.479242"/>
<path d="M52.1594 90.7254C52.1594 92.3135 50.8721 93.6009 49.284 93.6009C47.6959 93.6009 46.4086 92.3135 46.4086 90.7254C46.4086 89.1374 47.6959 87.85 49.284 87.85C50.8721 87.85 52.1594 89.1374 52.1594 90.7254Z" fill="#1F2431"/>
<path d="M52.1594 90.7254C52.1594 92.3135 50.8721 93.6009 49.284 93.6009C47.6959 93.6009 46.4086 92.3135 46.4086 90.7254C46.4086 89.1374 47.6959 87.85 49.284 87.85C50.8721 87.85 52.1594 89.1374 52.1594 90.7254Z" fill="url(#paint14_linear_762_3924)"/>
<path d="M52.1594 90.7254C52.1594 92.3135 50.8721 93.6009 49.284 93.6009C47.6959 93.6009 46.4086 92.3135 46.4086 90.7254C46.4086 89.1374 47.6959 87.85 49.284 87.85C50.8721 87.85 52.1594 89.1374 52.1594 90.7254Z" stroke="#89E159" stroke-width="0.479242"/>
<path d="M50.9908 90.5308C50.9908 91.5812 50.1393 92.4328 49.0889 92.4328C48.0384 92.4328 47.1869 91.5812 47.1869 90.5308C47.1869 89.4803 48.0384 88.6288 49.0889 88.6288C50.1393 88.6288 50.9908 89.4803 50.9908 90.5308Z" fill="#1F2431"/>
<path d="M50.9908 90.5308C50.9908 91.5812 50.1393 92.4328 49.0889 92.4328C48.0384 92.4328 47.1869 91.5812 47.1869 90.5308C47.1869 89.4803 48.0384 88.6288 49.0889 88.6288C50.1393 88.6288 50.9908 89.4803 50.9908 90.5308Z" fill="url(#paint15_linear_762_3924)"/>
<path d="M50.9908 90.5308C50.9908 91.5812 50.1393 92.4328 49.0889 92.4328C48.0384 92.4328 47.1869 91.5812 47.1869 90.5308C47.1869 89.4803 48.0384 88.6288 49.0889 88.6288C50.1393 88.6288 50.9908 89.4803 50.9908 90.5308Z" stroke="#89E159" stroke-width="0.479242"/>
<path d="M58.0003 90.7254C58.0003 92.3135 56.7129 93.6009 55.1248 93.6009C53.5368 93.6009 52.2494 92.3135 52.2494 90.7254C52.2494 89.1374 53.5368 87.85 55.1248 87.85C56.7129 87.85 58.0003 89.1374 58.0003 90.7254Z" fill="#1F2431"/>
<path d="M58.0003 90.7254C58.0003 92.3135 56.7129 93.6009 55.1248 93.6009C53.5368 93.6009 52.2494 92.3135 52.2494 90.7254C52.2494 89.1374 53.5368 87.85 55.1248 87.85C56.7129 87.85 58.0003 89.1374 58.0003 90.7254Z" fill="url(#paint16_linear_762_3924)"/>
<path d="M58.0003 90.7254C58.0003 92.3135 56.7129 93.6009 55.1248 93.6009C53.5368 93.6009 52.2494 92.3135 52.2494 90.7254C52.2494 89.1374 53.5368 87.85 55.1248 87.85C56.7129 87.85 58.0003 89.1374 58.0003 90.7254Z" stroke="#89E159" stroke-width="0.479242"/>
<path d="M56.8317 90.5308C56.8317 91.5812 55.9801 92.4328 54.9297 92.4328C53.8793 92.4328 53.0277 91.5812 53.0277 90.5308C53.0277 89.4803 53.8793 88.6288 54.9297 88.6288C55.9801 88.6288 56.8317 89.4803 56.8317 90.5308Z" fill="#1F2431"/>
<path d="M56.8317 90.5308C56.8317 91.5812 55.9801 92.4328 54.9297 92.4328C53.8793 92.4328 53.0277 91.5812 53.0277 90.5308C53.0277 89.4803 53.8793 88.6288 54.9297 88.6288C55.9801 88.6288 56.8317 89.4803 56.8317 90.5308Z" fill="url(#paint17_linear_762_3924)"/>
<path d="M56.8317 90.5308C56.8317 91.5812 55.9801 92.4328 54.9297 92.4328C53.8793 92.4328 53.0277 91.5812 53.0277 90.5308C53.0277 89.4803 53.8793 88.6288 54.9297 88.6288C55.9801 88.6288 56.8317 89.4803 56.8317 90.5308Z" stroke="#89E159" stroke-width="0.479242"/>
<rect x="67.8246" y="46.0968" width="6.14027" height="23.273" rx="1.67735" transform="rotate(-90 67.8246 46.0968)" fill="#1F2431"/>
<rect x="67.8246" y="46.0968" width="6.14027" height="23.273" rx="1.67735" transform="rotate(-90 67.8246 46.0968)" fill="url(#paint18_linear_762_3924)"/>
<rect x="67.8246" y="46.0968" width="6.14027" height="23.273" rx="1.67735" transform="rotate(-90 67.8246 46.0968)" stroke="#89E159" stroke-width="0.479242"/>
<rect x="84.9584" y="26.328" width="5.75086" height="16.6536" rx="1.67735" fill="#1F2431"/>
<rect x="84.9584" y="26.328" width="5.75086" height="16.6536" rx="1.67735" fill="url(#paint19_linear_762_3924)"/>
<rect x="84.9584" y="26.328" width="5.75086" height="16.6536" rx="1.67735" stroke="#89E159" stroke-width="0.479242"/>
<path d="M73.1869 43.6105C73.1869 46.7039 70.6792 49.2116 67.5858 49.2116C64.4924 49.2116 61.9847 46.7039 61.9847 43.6105C61.9847 40.5171 64.4924 38.0094 67.5858 38.0094C70.6792 38.0094 73.1869 40.5171 73.1869 43.6105Z" fill="#1F2431"/>
<path d="M73.1869 43.6105C73.1869 46.7039 70.6792 49.2116 67.5858 49.2116C64.4924 49.2116 61.9847 46.7039 61.9847 43.6105C61.9847 40.5171 64.4924 38.0094 67.5858 38.0094C70.6792 38.0094 73.1869 40.5171 73.1869 43.6105Z" fill="url(#paint20_linear_762_3924)"/>
<path d="M73.1869 43.6105C73.1869 46.7039 70.6792 49.2116 67.5858 49.2116C64.4924 49.2116 61.9847 46.7039 61.9847 43.6105C61.9847 40.5171 64.4924 38.0094 67.5858 38.0094C70.6792 38.0094 73.1869 40.5171 73.1869 43.6105Z" stroke="#89E159" stroke-width="0.479242"/>
<path d="M71.6288 43.8056C71.6288 45.9312 69.9056 47.6545 67.7799 47.6545C65.6542 47.6545 63.931 45.9312 63.931 43.8056C63.931 41.6799 65.6542 39.9567 67.7799 39.9567C69.9056 39.9567 71.6288 41.6799 71.6288 43.8056Z" fill="#1F2431"/>
<path d="M71.6288 43.8056C71.6288 45.9312 69.9056 47.6545 67.7799 47.6545C65.6542 47.6545 63.931 45.9312 63.931 43.8056C63.931 41.6799 65.6542 39.9567 67.7799 39.9567C69.9056 39.9567 71.6288 41.6799 71.6288 43.8056Z" fill="url(#paint21_linear_762_3924)"/>
<path d="M71.6288 43.8056C71.6288 45.9312 69.9056 47.6545 67.7799 47.6545C65.6542 47.6545 63.931 45.9312 63.931 43.8056C63.931 41.6799 65.6542 39.9567 67.7799 39.9567C69.9056 39.9567 71.6288 41.6799 71.6288 43.8056Z" stroke="#89E159" stroke-width="0.479242"/>
<path d="M91.4862 42.833C91.4862 45.0769 89.7526 46.8766 87.6373 46.8766C85.522 46.8766 83.7884 45.0769 83.7884 42.833C83.7884 40.5892 85.522 38.7894 87.6373 38.7894C89.7526 38.7894 91.4862 40.5892 91.4862 42.833Z" fill="#1F2431"/>
<path d="M91.4862 42.833C91.4862 45.0769 89.7526 46.8766 87.6373 46.8766C85.522 46.8766 83.7884 45.0769 83.7884 42.833C83.7884 40.5892 85.522 38.7894 87.6373 38.7894C89.7526 38.7894 91.4862 40.5892 91.4862 42.833Z" fill="url(#paint22_linear_762_3924)"/>
<path d="M91.4862 42.833C91.4862 45.0769 89.7526 46.8766 87.6373 46.8766C85.522 46.8766 83.7884 45.0769 83.7884 42.833C83.7884 40.5892 85.522 38.7894 87.6373 38.7894C89.7526 38.7894 91.4862 40.5892 91.4862 42.833Z" stroke="#89E159" stroke-width="0.479242"/>
<path d="M90.3179 42.6384C90.3179 44.1189 89.1177 45.3191 87.6372 45.3191C86.1566 45.3191 84.9564 44.1189 84.9564 42.6384C84.9564 41.1579 86.1566 39.9576 87.6372 39.9576C89.1177 39.9576 90.3179 41.1579 90.3179 42.6384Z" fill="#1F2431"/>
<path d="M90.3179 42.6384C90.3179 44.1189 89.1177 45.3191 87.6372 45.3191C86.1566 45.3191 84.9564 44.1189 84.9564 42.6384C84.9564 41.1579 86.1566 39.9576 87.6372 39.9576C89.1177 39.9576 90.3179 41.1579 90.3179 42.6384Z" fill="url(#paint23_linear_762_3924)"/>
<path d="M90.3179 42.6384C90.3179 44.1189 89.1177 45.3191 87.6372 45.3191C86.1566 45.3191 84.9564 44.1189 84.9564 42.6384C84.9564 41.1579 86.1566 39.9576 87.6372 39.9576C89.1177 39.9576 90.3179 41.1579 90.3179 42.6384Z" stroke="#89E159" stroke-width="0.479242"/>
<path d="M78.8343 23.24C77.2117 18.1247 81.6667 14.0485 84.5094 12.8496C83.8986 16.2787 84.1038 17.6452 84.5094 19.6433C85.0125 22.1217 92.2164 22.0411 92.6221 19.6433C93.0277 17.2455 93.2438 16.2787 92.6221 12.8496C94.7854 14.5813 97.7463 18.0372 97.0842 23.24C96.2705 29.6341 80.8624 29.6341 78.8343 23.24Z" fill="#1F2431"/>
<path d="M78.8343 23.24C77.2117 18.1247 81.6667 14.0485 84.5094 12.8496C83.8986 16.2787 84.1038 17.6452 84.5094 19.6433C85.0125 22.1217 92.2164 22.0411 92.6221 19.6433C93.0277 17.2455 93.2438 16.2787 92.6221 12.8496C94.7854 14.5813 97.7463 18.0372 97.0842 23.24C96.2705 29.6341 80.8624 29.6341 78.8343 23.24Z" fill="url(#paint24_linear_762_3924)"/>
<path d="M78.8343 23.24C77.2117 18.1247 81.6667 14.0485 84.5094 12.8496C83.8986 16.2787 84.1038 17.6452 84.5094 19.6433C85.0125 22.1217 92.2164 22.0411 92.6221 19.6433C93.0277 17.2455 93.2438 16.2787 92.6221 12.8496C94.7854 14.5813 97.7463 18.0372 97.0842 23.24C96.2705 29.6341 80.8624 29.6341 78.8343 23.24Z" stroke="#89E159" stroke-width="0.479242"/>
<rect x="-0.239621" y="-0.239621" width="6.14027" height="23.273" rx="1.67735" transform="matrix(0 -1 -1 0 30.1145 45.8572)" fill="#1F2431"/>
<rect x="-0.239621" y="-0.239621" width="6.14027" height="23.273" rx="1.67735" transform="matrix(0 -1 -1 0 30.1145 45.8572)" fill="url(#paint25_linear_762_3924)"/>
<rect x="-0.239621" y="-0.239621" width="6.14027" height="23.273" rx="1.67735" transform="matrix(0 -1 -1 0 30.1145 45.8572)" stroke="#89E159" stroke-width="0.479242"/>
<rect x="-0.239621" y="0.239621" width="5.75086" height="16.6536" rx="1.67735" transform="matrix(-1 0 0 1 12.9807 26.0884)" fill="#1F2431"/>
<rect x="-0.239621" y="0.239621" width="5.75086" height="16.6536" rx="1.67735" transform="matrix(-1 0 0 1 12.9807 26.0884)" fill="url(#paint26_linear_762_3924)"/>
<rect x="-0.239621" y="0.239621" width="5.75086" height="16.6536" rx="1.67735" transform="matrix(-1 0 0 1 12.9807 26.0884)" stroke="#89E159" stroke-width="0.479242"/>
<path d="M24.9918 43.6105C24.9918 46.7039 27.4995 49.2116 30.5929 49.2116C33.6863 49.2116 36.194 46.7039 36.194 43.6105C36.194 40.5171 33.6863 38.0094 30.5929 38.0094C27.4995 38.0094 24.9918 40.5171 24.9918 43.6105Z" fill="#1F2431"/>
<path d="M24.9918 43.6105C24.9918 46.7039 27.4995 49.2116 30.5929 49.2116C33.6863 49.2116 36.194 46.7039 36.194 43.6105C36.194 40.5171 33.6863 38.0094 30.5929 38.0094C27.4995 38.0094 24.9918 40.5171 24.9918 43.6105Z" fill="url(#paint27_linear_762_3924)"/>
<path d="M24.9918 43.6105C24.9918 46.7039 27.4995 49.2116 30.5929 49.2116C33.6863 49.2116 36.194 46.7039 36.194 43.6105C36.194 40.5171 33.6863 38.0094 30.5929 38.0094C27.4995 38.0094 24.9918 40.5171 24.9918 43.6105Z" stroke="#89E159" stroke-width="0.479242"/>
<path d="M26.5499 43.8056C26.5499 45.9312 28.2731 47.6545 30.3988 47.6545C32.5245 47.6545 34.2477 45.9312 34.2477 43.8056C34.2477 41.6799 32.5245 39.9567 30.3988 39.9567C28.2731 39.9567 26.5499 41.6799 26.5499 43.8056Z" fill="#1F2431"/>
<path d="M26.5499 43.8056C26.5499 45.9312 28.2731 47.6545 30.3988 47.6545C32.5245 47.6545 34.2477 45.9312 34.2477 43.8056C34.2477 41.6799 32.5245 39.9567 30.3988 39.9567C28.2731 39.9567 26.5499 41.6799 26.5499 43.8056Z" fill="url(#paint28_linear_762_3924)"/>
<path d="M26.5499 43.8056C26.5499 45.9312 28.2731 47.6545 30.3988 47.6545C32.5245 47.6545 34.2477 45.9312 34.2477 43.8056C34.2477 41.6799 32.5245 39.9567 30.3988 39.9567C28.2731 39.9567 26.5499 41.6799 26.5499 43.8056Z" stroke="#89E159" stroke-width="0.479242"/>
<path d="M6.69249 42.833C6.69249 45.0769 8.42608 46.8766 10.5414 46.8766C12.6567 46.8766 14.3903 45.0769 14.3903 42.833C14.3903 40.5892 12.6567 38.7894 10.5414 38.7894C8.42608 38.7894 6.69249 40.5892 6.69249 42.833Z" fill="#1F2431"/>
<path d="M6.69249 42.833C6.69249 45.0769 8.42608 46.8766 10.5414 46.8766C12.6567 46.8766 14.3903 45.0769 14.3903 42.833C14.3903 40.5892 12.6567 38.7894 10.5414 38.7894C8.42608 38.7894 6.69249 40.5892 6.69249 42.833Z" fill="url(#paint29_linear_762_3924)"/>
<path d="M6.69249 42.833C6.69249 45.0769 8.42608 46.8766 10.5414 46.8766C12.6567 46.8766 14.3903 45.0769 14.3903 42.833C14.3903 40.5892 12.6567 38.7894 10.5414 38.7894C8.42608 38.7894 6.69249 40.5892 6.69249 42.833Z" stroke="#89E159" stroke-width="0.479242"/>
<path d="M7.86081 42.6384C7.86081 44.1189 9.06102 45.3191 10.5416 45.3191C12.0221 45.3191 13.2223 44.1189 13.2223 42.6384C13.2223 41.1579 12.0221 39.9576 10.5416 39.9576C9.06102 39.9576 7.86081 41.1579 7.86081 42.6384Z" fill="#1F2431"/>
<path d="M7.86081 42.6384C7.86081 44.1189 9.06102 45.3191 10.5416 45.3191C12.0221 45.3191 13.2223 44.1189 13.2223 42.6384C13.2223 41.1579 12.0221 39.9576 10.5416 39.9576C9.06102 39.9576 7.86081 41.1579 7.86081 42.6384Z" fill="url(#paint30_linear_762_3924)"/>
<path d="M7.86081 42.6384C7.86081 44.1189 9.06102 45.3191 10.5416 45.3191C12.0221 45.3191 13.2223 44.1189 13.2223 42.6384C13.2223 41.1579 12.0221 39.9576 10.5416 39.9576C9.06102 39.9576 7.86081 41.1579 7.86081 42.6384Z" stroke="#89E159" stroke-width="0.479242"/>
<path d="M19.3445 23.24C20.967 18.1247 16.512 14.0485 13.6693 12.8496C14.2801 16.2787 14.0749 17.6452 13.6693 19.6433C13.1662 22.1217 5.96229 22.0411 5.55665 19.6433C5.15102 17.2455 4.93491 16.2787 5.55665 12.8496C3.39328 14.5813 0.432461 18.0372 1.09454 23.24C1.90822 29.6341 17.3163 29.6341 19.3445 23.24Z" fill="#1F2431"/>
<path d="M19.3445 23.24C20.967 18.1247 16.512 14.0485 13.6693 12.8496C14.2801 16.2787 14.0749 17.6452 13.6693 19.6433C13.1662 22.1217 5.96229 22.0411 5.55665 19.6433C5.15102 17.2455 4.93491 16.2787 5.55665 12.8496C3.39328 14.5813 0.432461 18.0372 1.09454 23.24C1.90822 29.6341 17.3163 29.6341 19.3445 23.24Z" fill="url(#paint31_linear_762_3924)"/>
<path d="M19.3445 23.24C20.967 18.1247 16.512 14.0485 13.6693 12.8496C14.2801 16.2787 14.0749 17.6452 13.6693 19.6433C13.1662 22.1217 5.96229 22.0411 5.55665 19.6433C5.15102 17.2455 4.93491 16.2787 5.55665 12.8496C3.39328 14.5813 0.432461 18.0372 1.09454 23.24C1.90822 29.6341 17.3163 29.6341 19.3445 23.24Z" stroke="#89E159" stroke-width="0.479242"/>
<defs>
<filter id="filter0_f_762_3924" x="3.63415" y="61.6341" width="105.732" height="57.7317" filterUnits="userSpaceOnUse" color-interpolation-filters="sRGB">
<feFlood flood-opacity="0" result="BackgroundImageFix"/>
<feBlend mode="normal" in="SourceGraphic" in2="BackgroundImageFix" result="shape"/>
<feGaussianBlur stdDeviation="7.68293" result="effect1_foregroundBlur_762_3924"/>
</filter>
<linearGradient id="paint0_linear_762_3924" x1="57.7717" y1="69.6994" x2="32.735" y2="54.1421" gradientUnits="userSpaceOnUse">
<stop stop-color="#1E4E4E"/>
<stop offset="1" stop-color="#1F2431"/>
</linearGradient>
<linearGradient id="paint1_linear_762_3924" x1="45.341" y1="67.0337" x2="43.5143" y2="66.8961" gradientUnits="userSpaceOnUse">
<stop stop-color="#1E4E4E"/>
<stop offset="1" stop-color="#1F2431"/>
</linearGradient>
<linearGradient id="paint2_linear_762_3924" x1="45.341" y1="71.347" x2="43.5143" y2="71.2094" gradientUnits="userSpaceOnUse">
<stop stop-color="#1E4E4E"/>
<stop offset="1" stop-color="#1F2431"/>
</linearGradient>
<linearGradient id="paint3_linear_762_3924" x1="45.34" y1="75.6602" x2="43.5133" y2="75.5226" gradientUnits="userSpaceOnUse">
<stop stop-color="#1E4E4E"/>
<stop offset="1" stop-color="#1F2431"/>
</linearGradient>
<linearGradient id="paint4_linear_762_3924" x1="46.0501" y1="46.9055" x2="44.062" y2="45.6702" gradientUnits="userSpaceOnUse">
<stop stop-color="#1E4E4E"/>
<stop offset="1" stop-color="#1F2431"/>
</linearGradient>
<linearGradient id="paint5_linear_762_3924" x1="48.926" y1="46.9055" x2="46.938" y2="45.6702" gradientUnits="userSpaceOnUse">
<stop stop-color="#1E4E4E"/>
<stop offset="1" stop-color="#1F2431"/>
</linearGradient>
<linearGradient id="paint6_linear_762_3924" x1="51.3215" y1="46.9055" x2="49.3335" y2="45.6702" gradientUnits="userSpaceOnUse">
<stop stop-color="#1E4E4E"/>
<stop offset="1" stop-color="#1F2431"/>
</linearGradient>
<linearGradient id="paint7_linear_762_3924" x1="55.1573" y1="25.3099" x2="37.6585" y2="14.4365" gradientUnits="userSpaceOnUse">
<stop stop-color="#1E4E4E"/>
<stop offset="1" stop-color="#1F2431"/>
</linearGradient>
<linearGradient id="paint8_linear_762_3924" x1="51.1508" y1="33.4876" x2="45.6234" y2="30.2165" gradientUnits="userSpaceOnUse">
<stop stop-color="#1E4E4E"/>
<stop offset="1" stop-color="#1F2431"/>
</linearGradient>
<linearGradient id="paint9_linear_762_3924" x1="44.5316" y1="81.3812" x2="38.1616" y2="78.7424" gradientUnits="userSpaceOnUse">
<stop stop-color="#1E4E4E"/>
<stop offset="1" stop-color="#1F2431"/>
</linearGradient>
<linearGradient id="paint10_linear_762_3924" x1="57.3813" y1="81.3812" x2="51.0112" y2="78.7424" gradientUnits="userSpaceOnUse">
<stop stop-color="#1E4E4E"/>
<stop offset="1" stop-color="#1F2431"/>
</linearGradient>
<linearGradient id="paint11_linear_762_3924" x1="55.6328" y1="90.726" x2="49.4433" y2="79.8289" gradientUnits="userSpaceOnUse">
<stop stop-color="#1E4E4E"/>
<stop offset="1" stop-color="#1F2431"/>
</linearGradient>
<linearGradient id="paint12_linear_762_3924" x1="44.5474" y1="93.8405" x2="40.24" y2="91.164" gradientUnits="userSpaceOnUse">
<stop stop-color="#1E4E4E"/>
<stop offset="1" stop-color="#1F2431"/>
</linearGradient>
<linearGradient id="paint13_linear_762_3924" x1="43.8854" y1="92.6724" x2="40.9241" y2="90.8323" gradientUnits="userSpaceOnUse">
<stop stop-color="#1E4E4E"/>
<stop offset="1" stop-color="#1F2431"/>
</linearGradient>
<linearGradient id="paint14_linear_762_3924" x1="50.7779" y1="93.8405" x2="46.4705" y2="91.164" gradientUnits="userSpaceOnUse">
<stop stop-color="#1E4E4E"/>
<stop offset="1" stop-color="#1F2431"/>
</linearGradient>
<linearGradient id="paint15_linear_762_3924" x1="50.1159" y1="92.6724" x2="47.1546" y2="90.8323" gradientUnits="userSpaceOnUse">
<stop stop-color="#1E4E4E"/>
<stop offset="1" stop-color="#1F2431"/>
</linearGradient>
<linearGradient id="paint16_linear_762_3924" x1="56.6187" y1="93.8405" x2="52.3113" y2="91.164" gradientUnits="userSpaceOnUse">
<stop stop-color="#1E4E4E"/>
<stop offset="1" stop-color="#1F2431"/>
</linearGradient>
<linearGradient id="paint17_linear_762_3924" x1="55.9567" y1="92.6724" x2="52.9954" y2="90.8323" gradientUnits="userSpaceOnUse">
<stop stop-color="#1E4E4E"/>
<stop offset="1" stop-color="#1F2431"/>
</linearGradient>
<linearGradient id="paint18_linear_762_3924" x1="72.4819" y1="70.0887" x2="66.3229" y2="69.0221" gradientUnits="userSpaceOnUse">
<stop stop-color="#1E4E4E"/>
<stop offset="1" stop-color="#1F2431"/>
</linearGradient>
<linearGradient id="paint19_linear_762_3924" x1="89.3277" y1="43.2212" x2="83.6472" y2="41.9377" gradientUnits="userSpaceOnUse">
<stop stop-color="#1E4E4E"/>
<stop offset="1" stop-color="#1F2431"/>
</linearGradient>
<linearGradient id="paint20_linear_762_3924" x1="70.3868" y1="49.4513" x2="62.3105" y2="44.4328" gradientUnits="userSpaceOnUse">
<stop stop-color="#1E4E4E"/>
<stop offset="1" stop-color="#1F2431"/>
</linearGradient>
<linearGradient id="paint21_linear_762_3924" x1="69.7406" y1="47.8941" x2="64.0871" y2="44.3811" gradientUnits="userSpaceOnUse">
<stop stop-color="#1E4E4E"/>
<stop offset="1" stop-color="#1F2431"/>
</linearGradient>
<linearGradient id="paint22_linear_762_3924" x1="89.598" y1="47.1162" x2="83.8011" y2="43.6779" gradientUnits="userSpaceOnUse">
<stop stop-color="#1E4E4E"/>
<stop offset="1" stop-color="#1F2431"/>
</linearGradient>
<linearGradient id="paint23_linear_762_3924" x1="89.0376" y1="45.5588" x2="84.9995" y2="43.0495" gradientUnits="userSpaceOnUse">
<stop stop-color="#1E4E4E"/>
<stop offset="1" stop-color="#1F2431"/>
</linearGradient>
<linearGradient id="paint24_linear_762_3924" x1="92.315" y1="28.0355" x2="81.0135" y2="19.3924" gradientUnits="userSpaceOnUse">
<stop stop-color="#1E4E4E"/>
<stop offset="1" stop-color="#1F2431"/>
</linearGradient>
<linearGradient id="paint25_linear_762_3924" x1="4.89698" y1="23.7523" x2="-1.26203" y2="22.6857" gradientUnits="userSpaceOnUse">
<stop stop-color="#1E4E4E"/>
<stop offset="1" stop-color="#1F2431"/>
</linearGradient>
<linearGradient id="paint26_linear_762_3924" x1="4.60891" y1="17.1328" x2="-1.0716" y2="15.8493" gradientUnits="userSpaceOnUse">
<stop stop-color="#1E4E4E"/>
<stop offset="1" stop-color="#1F2431"/>
</linearGradient>
<linearGradient id="paint27_linear_762_3924" x1="27.7919" y1="49.4513" x2="35.8683" y2="44.4328" gradientUnits="userSpaceOnUse">
<stop stop-color="#1E4E4E"/>
<stop offset="1" stop-color="#1F2431"/>
</linearGradient>
<linearGradient id="paint28_linear_762_3924" x1="28.4381" y1="47.8941" x2="34.0916" y2="44.3811" gradientUnits="userSpaceOnUse">
<stop stop-color="#1E4E4E"/>
<stop offset="1" stop-color="#1F2431"/>
</linearGradient>
<linearGradient id="paint29_linear_762_3924" x1="8.58069" y1="47.1162" x2="14.3776" y2="43.6779" gradientUnits="userSpaceOnUse">
<stop stop-color="#1E4E4E"/>
<stop offset="1" stop-color="#1F2431"/>
</linearGradient>
<linearGradient id="paint30_linear_762_3924" x1="9.14106" y1="45.5588" x2="13.1792" y2="43.0495" gradientUnits="userSpaceOnUse">
<stop stop-color="#1E4E4E"/>
<stop offset="1" stop-color="#1F2431"/>
</linearGradient>
<linearGradient id="paint31_linear_762_3924" x1="5.86371" y1="28.0355" x2="17.1652" y2="19.3924" gradientUnits="userSpaceOnUse">
<stop stop-color="#1E4E4E"/>
<stop offset="1" stop-color="#1F2431"/>
</linearGradient>
</defs>
</svg>
