<svg width="132" height="145" viewBox="0 0 132 145" fill="none" xmlns="http://www.w3.org/2000/svg">
<rect x="41.8503" y="45.5869" width="48.2991" height="48.2993" rx="12.6315" fill="#1F2431"/>
<rect x="41.8503" y="45.5869" width="48.2991" height="48.2993" rx="12.6315" fill="url(#paint0_linear_964_5633)"/>
<rect x="59.341" y="68.9062" width="1.94332" height="20.7287" rx="0.971657" transform="rotate(-90 59.341 68.9062)" fill="#1F2431"/>
<rect x="59.341" y="68.9062" width="1.94332" height="20.7287" rx="0.971657" transform="rotate(-90 59.341 68.9062)" fill="url(#paint1_linear_964_5633)"/>
<rect x="59.341" y="68.9062" width="1.94332" height="20.7287" rx="0.971657" transform="rotate(-90 59.341 68.9062)" stroke="#89E159" stroke-width="0.647772"/>
<rect x="59.341" y="74.7362" width="1.94332" height="20.7287" rx="0.971657" transform="rotate(-90 59.341 74.7362)" fill="#1F2431"/>
<rect x="59.341" y="74.7362" width="1.94332" height="20.7287" rx="0.971657" transform="rotate(-90 59.341 74.7362)" fill="url(#paint2_linear_964_5633)"/>
<rect x="59.341" y="74.7362" width="1.94332" height="20.7287" rx="0.971657" transform="rotate(-90 59.341 74.7362)" stroke="#89E159" stroke-width="0.647772"/>
<rect x="59.3405" y="80.5665" width="1.94332" height="20.7287" rx="0.971657" transform="rotate(-90 59.3405 80.5665)" fill="#1F2431"/>
<rect x="59.3405" y="80.5665" width="1.94332" height="20.7287" rx="0.971657" transform="rotate(-90 59.3405 80.5665)" fill="url(#paint3_linear_964_5633)"/>
<rect x="59.3405" y="80.5665" width="1.94332" height="20.7287" rx="0.971657" transform="rotate(-90 59.3405 80.5665)" stroke="#89E159" stroke-width="0.647772"/>
<path d="M62.5798 61.4569C62.5798 62.3513 61.8548 63.0763 60.9604 63.0763C60.066 63.0763 59.341 62.3513 59.341 61.4569C59.341 60.5625 60.066 59.8374 60.9604 59.8374C61.8548 59.8374 62.5798 60.5625 62.5798 61.4569Z" fill="#1F2431"/>
<path d="M62.5798 61.4569C62.5798 62.3513 61.8548 63.0763 60.9604 63.0763C60.066 63.0763 59.341 62.3513 59.341 61.4569C59.341 60.5625 60.066 59.8374 60.9604 59.8374C61.8548 59.8374 62.5798 60.5625 62.5798 61.4569Z" fill="url(#paint4_linear_964_5633)"/>
<path d="M62.5798 61.4569C62.5798 62.3513 61.8548 63.0763 60.9604 63.0763C60.066 63.0763 59.341 62.3513 59.341 61.4569C59.341 60.5625 60.066 59.8374 60.9604 59.8374C61.8548 59.8374 62.5798 60.5625 62.5798 61.4569Z" stroke="#89E159" stroke-width="0.647772"/>
<path d="M66.467 61.4567C66.467 62.3511 65.742 63.0762 64.8476 63.0762C63.9532 63.0762 63.2282 62.3511 63.2282 61.4567C63.2282 60.5624 63.9532 59.8373 64.8476 59.8373C65.742 59.8373 66.467 60.5624 66.467 61.4567Z" fill="#1F2431"/>
<path d="M66.467 61.4567C66.467 62.3511 65.742 63.0762 64.8476 63.0762C63.9532 63.0762 63.2282 62.3511 63.2282 61.4567C63.2282 60.5624 63.9532 59.8373 64.8476 59.8373C65.742 59.8373 66.467 60.5624 66.467 61.4567Z" fill="url(#paint5_linear_964_5633)"/>
<path d="M66.467 61.4567C66.467 62.3511 65.742 63.0762 64.8476 63.0762C63.9532 63.0762 63.2282 62.3511 63.2282 61.4567C63.2282 60.5624 63.9532 59.8373 64.8476 59.8373C65.742 59.8373 66.467 60.5624 66.467 61.4567Z" stroke="#89E159" stroke-width="0.647772"/>
<path d="M69.7048 61.4567C69.7048 62.3511 68.9798 63.0762 68.0854 63.0762C67.191 63.0762 66.466 62.3511 66.466 61.4567C66.466 60.5624 67.191 59.8373 68.0854 59.8373C68.9798 59.8373 69.7048 60.5624 69.7048 61.4567Z" fill="#1F2431"/>
<path d="M69.7048 61.4567C69.7048 62.3511 68.9798 63.0762 68.0854 63.0762C67.191 63.0762 66.466 62.3511 66.466 61.4567C66.466 60.5624 67.191 59.8373 68.0854 59.8373C68.9798 59.8373 69.7048 60.5624 69.7048 61.4567Z" fill="url(#paint6_linear_964_5633)"/>
<path d="M69.7048 61.4567C69.7048 62.3511 68.9798 63.0762 68.0854 63.0762C67.191 63.0762 66.466 62.3511 66.466 61.4567C66.466 60.5624 67.191 59.8373 68.0854 59.8373C68.9798 59.8373 69.7048 60.5624 69.7048 61.4567Z" stroke="#89E159" stroke-width="0.647772"/>
<rect x="41.8503" y="45.5869" width="48.2991" height="48.2993" rx="12.6315" stroke="#89E159" stroke-width="0.647772"/>
<rect x="49.2184" y="0.323886" width="33.5624" height="33.5625" rx="4.85829" fill="#1F2431"/>
<rect x="49.2184" y="0.323886" width="33.5624" height="33.5625" rx="4.85829" fill="url(#paint7_linear_964_5633)"/>
<rect x="49.2184" y="0.323886" width="33.5624" height="33.5625" rx="4.85829" stroke="#89E159" stroke-width="0.647772"/>
<mask id="path-9-inside-1_964_5633" fill="white">
<path d="M60.999 34.2106H71.5252V45.2631H60.999V34.2106Z"/>
</mask>
<path d="M60.999 34.2106H71.5252V45.2631H60.999V34.2106Z" fill="#1F2431"/>
<path d="M60.999 34.2106H71.5252V45.2631H60.999V34.2106Z" fill="url(#paint8_linear_964_5633)"/>
<path d="M70.8775 34.2106V45.2631H72.173V34.2106H70.8775ZM61.6468 45.2631V34.2106H60.3513V45.2631H61.6468Z" fill="#89E159" mask="url(#path-9-inside-1_964_5633)"/>
<mask id="path-11-inside-2_964_5633" fill="white">
<path d="M52.0527 94.21H62.5789V109.999H52.0527V94.21Z"/>
</mask>
<path d="M52.0527 94.21H62.5789V109.999H52.0527V94.21Z" fill="#1F2431"/>
<path d="M52.0527 94.21H62.5789V109.999H52.0527V94.21Z" fill="url(#paint9_linear_964_5633)"/>
<path d="M61.9312 94.21V109.999H63.2267V94.21H61.9312ZM52.7005 109.999V94.21H51.405V109.999H52.7005Z" fill="#89E159" mask="url(#path-11-inside-2_964_5633)"/>
<mask id="path-13-inside-3_964_5633" fill="white">
<path d="M69.4209 94.21H79.9471V109.999H69.4209V94.21Z"/>
</mask>
<path d="M69.4209 94.21H79.9471V109.999H69.4209V94.21Z" fill="#1F2431"/>
<path d="M69.4209 94.21H79.9471V109.999H69.4209V94.21Z" fill="url(#paint10_linear_964_5633)"/>
<path d="M79.2993 94.21V109.999H80.5949V94.21H79.2993ZM70.0687 109.999V94.21H68.7731V109.999H70.0687Z" fill="#89E159" mask="url(#path-13-inside-3_964_5633)"/>
<path d="M74.3598 15.5257C74.3598 20.143 70.6168 23.886 65.9996 23.886C61.3823 23.886 57.6393 20.143 57.6393 15.5257C57.6393 10.9085 61.3823 7.16544 65.9996 7.16544C70.6168 7.16544 74.3598 10.9085 74.3598 15.5257Z" fill="#8990A5" stroke="#89E159" stroke-width="0.647772"/>
<path d="M71.7275 15.5256C71.7275 18.6895 69.1627 21.2543 65.9989 21.2543C62.835 21.2543 60.2702 18.6895 60.2702 15.5256C60.2702 12.3617 62.835 9.79691 65.9989 9.79691C69.1627 9.79691 71.7275 12.3617 71.7275 15.5256Z" fill="#89E159" stroke="#89E159" stroke-width="0.647772"/>
<path d="M57.3159 26.3158C63.6316 30.4757 68.2713 30.5766 74.6842 26.3158" stroke="#89E159" stroke-width="1.29554"/>
<rect x="48.692" y="110.323" width="35.1414" height="11.9837" rx="4.85829" fill="#1F2431"/>
<rect x="48.692" y="110.323" width="35.1414" height="11.9837" rx="4.85829" fill="url(#paint11_linear_964_5633)"/>
<rect x="48.692" y="110.323" width="35.1414" height="11.9837" rx="4.85829" stroke="#89E159" stroke-width="0.647772"/>
<path d="M61.7279 122.631C61.7279 124.777 59.9879 126.517 57.8413 126.517C55.6948 126.517 53.9547 124.777 53.9547 122.631C53.9547 120.484 55.6948 118.744 57.8413 118.744C59.9879 118.744 61.7279 120.484 61.7279 122.631Z" fill="#1F2431"/>
<path d="M61.7279 122.631C61.7279 124.777 59.9879 126.517 57.8413 126.517C55.6948 126.517 53.9547 124.777 53.9547 122.631C53.9547 120.484 55.6948 118.744 57.8413 118.744C59.9879 118.744 61.7279 120.484 61.7279 122.631Z" fill="url(#paint12_linear_964_5633)"/>
<path d="M61.7279 122.631C61.7279 124.777 59.9879 126.517 57.8413 126.517C55.6948 126.517 53.9547 124.777 53.9547 122.631C53.9547 120.484 55.6948 118.744 57.8413 118.744C59.9879 118.744 61.7279 120.484 61.7279 122.631Z" stroke="#89E159" stroke-width="0.647772"/>
<path d="M60.1486 122.367C60.1486 123.787 58.9976 124.938 57.5778 124.938C56.158 124.938 55.007 123.787 55.007 122.367C55.007 120.947 56.158 119.796 57.5778 119.796C58.9976 119.796 60.1486 120.947 60.1486 122.367Z" fill="#1F2431"/>
<path d="M60.1486 122.367C60.1486 123.787 58.9976 124.938 57.5778 124.938C56.158 124.938 55.007 123.787 55.007 122.367C55.007 120.947 56.158 119.796 57.5778 119.796C58.9976 119.796 60.1486 120.947 60.1486 122.367Z" fill="url(#paint13_linear_964_5633)"/>
<path d="M60.1486 122.367C60.1486 123.787 58.9976 124.938 57.5778 124.938C56.158 124.938 55.007 123.787 55.007 122.367C55.007 120.947 56.158 119.796 57.5778 119.796C58.9976 119.796 60.1486 120.947 60.1486 122.367Z" stroke="#89E159" stroke-width="0.647772"/>
<path d="M70.1498 122.631C70.1498 124.777 68.4097 126.517 66.2632 126.517C64.1167 126.517 62.3766 124.777 62.3766 122.631C62.3766 120.484 64.1167 118.744 66.2632 118.744C68.4097 118.744 70.1498 120.484 70.1498 122.631Z" fill="#1F2431"/>
<path d="M70.1498 122.631C70.1498 124.777 68.4097 126.517 66.2632 126.517C64.1167 126.517 62.3766 124.777 62.3766 122.631C62.3766 120.484 64.1167 118.744 66.2632 118.744C68.4097 118.744 70.1498 120.484 70.1498 122.631Z" fill="url(#paint14_linear_964_5633)"/>
<path d="M70.1498 122.631C70.1498 124.777 68.4097 126.517 66.2632 126.517C64.1167 126.517 62.3766 124.777 62.3766 122.631C62.3766 120.484 64.1167 118.744 66.2632 118.744C68.4097 118.744 70.1498 120.484 70.1498 122.631Z" stroke="#89E159" stroke-width="0.647772"/>
<path d="M68.5705 122.367C68.5705 123.787 67.4195 124.938 65.9997 124.938C64.5799 124.938 63.4289 123.787 63.4289 122.367C63.4289 120.947 64.5799 119.796 65.9997 119.796C67.4195 119.796 68.5705 120.947 68.5705 122.367Z" fill="#1F2431"/>
<path d="M68.5705 122.367C68.5705 123.787 67.4195 124.938 65.9997 124.938C64.5799 124.938 63.4289 123.787 63.4289 122.367C63.4289 120.947 64.5799 119.796 65.9997 119.796C67.4195 119.796 68.5705 120.947 68.5705 122.367Z" fill="url(#paint15_linear_964_5633)"/>
<path d="M68.5705 122.367C68.5705 123.787 67.4195 124.938 65.9997 124.938C64.5799 124.938 63.4289 123.787 63.4289 122.367C63.4289 120.947 64.5799 119.796 65.9997 119.796C67.4195 119.796 68.5705 120.947 68.5705 122.367Z" stroke="#89E159" stroke-width="0.647772"/>
<path d="M78.0444 122.631C78.0444 124.777 76.3043 126.517 74.1578 126.517C72.0112 126.517 70.2712 124.777 70.2712 122.631C70.2712 120.484 72.0112 118.744 74.1578 118.744C76.3043 118.744 78.0444 120.484 78.0444 122.631Z" fill="#1F2431"/>
<path d="M78.0444 122.631C78.0444 124.777 76.3043 126.517 74.1578 126.517C72.0112 126.517 70.2712 124.777 70.2712 122.631C70.2712 120.484 72.0112 118.744 74.1578 118.744C76.3043 118.744 78.0444 120.484 78.0444 122.631Z" fill="url(#paint16_linear_964_5633)"/>
<path d="M78.0444 122.631C78.0444 124.777 76.3043 126.517 74.1578 126.517C72.0112 126.517 70.2712 124.777 70.2712 122.631C70.2712 120.484 72.0112 118.744 74.1578 118.744C76.3043 118.744 78.0444 120.484 78.0444 122.631Z" stroke="#89E159" stroke-width="0.647772"/>
<path d="M76.465 122.367C76.465 123.787 75.314 124.938 73.8942 124.938C72.4744 124.938 71.3234 123.787 71.3234 122.367C71.3234 120.947 72.4744 119.796 73.8942 119.796C75.314 119.796 76.465 120.947 76.465 122.367Z" fill="#1F2431"/>
<path d="M76.465 122.367C76.465 123.787 75.314 124.938 73.8942 124.938C72.4744 124.938 71.3234 123.787 71.3234 122.367C71.3234 120.947 72.4744 119.796 73.8942 119.796C75.314 119.796 76.465 120.947 76.465 122.367Z" fill="url(#paint17_linear_964_5633)"/>
<path d="M76.465 122.367C76.465 123.787 75.314 124.938 73.8942 124.938C72.4744 124.938 71.3234 123.787 71.3234 122.367C71.3234 120.947 72.4744 119.796 73.8942 119.796C75.314 119.796 76.465 120.947 76.465 122.367Z" stroke="#89E159" stroke-width="0.647772"/>
<rect x="91.3239" y="62.3071" width="8.29954" height="31.4572" rx="2.2672" transform="rotate(-90 91.3239 62.3071)" fill="#1F2431"/>
<rect x="91.3239" y="62.3071" width="8.29954" height="31.4572" rx="2.2672" transform="rotate(-90 91.3239 62.3071)" fill="url(#paint18_linear_964_5633)"/>
<rect x="91.3239" y="62.3071" width="8.29954" height="31.4572" rx="2.2672" transform="rotate(-90 91.3239 62.3071)" stroke="#89E159" stroke-width="0.647772"/>
<rect x="114.483" y="35.5867" width="7.7732" height="22.51" rx="2.2672" fill="#1F2431"/>
<rect x="114.483" y="35.5867" width="7.7732" height="22.51" rx="2.2672" fill="url(#paint19_linear_964_5633)"/>
<rect x="114.483" y="35.5867" width="7.7732" height="22.51" rx="2.2672" stroke="#89E159" stroke-width="0.647772"/>
<path d="M98.5719 58.9463C98.5719 63.1276 95.1823 66.5171 91.0011 66.5171C86.8199 66.5171 83.4303 63.1276 83.4303 58.9463C83.4303 54.7651 86.8199 51.3755 91.0011 51.3755C95.1823 51.3755 98.5719 54.7651 98.5719 58.9463Z" fill="#1F2431"/>
<path d="M98.5719 58.9463C98.5719 63.1276 95.1823 66.5171 91.0011 66.5171C86.8199 66.5171 83.4303 63.1276 83.4303 58.9463C83.4303 54.7651 86.8199 51.3755 91.0011 51.3755C95.1823 51.3755 98.5719 54.7651 98.5719 58.9463Z" fill="url(#paint20_linear_964_5633)"/>
<path d="M98.5719 58.9463C98.5719 63.1276 95.1823 66.5171 91.0011 66.5171C86.8199 66.5171 83.4303 63.1276 83.4303 58.9463C83.4303 54.7651 86.8199 51.3755 91.0011 51.3755C95.1823 51.3755 98.5719 54.7651 98.5719 58.9463Z" stroke="#89E159" stroke-width="0.647772"/>
<path d="M96.4659 59.2095C96.4659 62.0827 94.1368 64.4119 91.2636 64.4119C88.3904 64.4119 86.0612 62.0827 86.0612 59.2095C86.0612 56.3363 88.3904 54.0071 91.2636 54.0071C94.1368 54.0071 96.4659 56.3363 96.4659 59.2095Z" fill="#1F2431"/>
<path d="M96.4659 59.2095C96.4659 62.0827 94.1368 64.4119 91.2636 64.4119C88.3904 64.4119 86.0612 62.0827 86.0612 59.2095C86.0612 56.3363 88.3904 54.0071 91.2636 54.0071C94.1368 54.0071 96.4659 56.3363 96.4659 59.2095Z" fill="url(#paint21_linear_964_5633)"/>
<path d="M96.4659 59.2095C96.4659 62.0827 94.1368 64.4119 91.2636 64.4119C88.3904 64.4119 86.0612 62.0827 86.0612 59.2095C86.0612 56.3363 88.3904 54.0071 91.2636 54.0071C94.1368 54.0071 96.4659 56.3363 96.4659 59.2095Z" stroke="#89E159" stroke-width="0.647772"/>
<path d="M123.307 57.8947C123.307 60.9276 120.964 63.3602 118.104 63.3602C115.245 63.3602 112.902 60.9276 112.902 57.8947C112.902 54.8618 115.245 52.4291 118.104 52.4291C120.964 52.4291 123.307 54.8618 123.307 57.8947Z" fill="#1F2431"/>
<path d="M123.307 57.8947C123.307 60.9276 120.964 63.3602 118.104 63.3602C115.245 63.3602 112.902 60.9276 112.902 57.8947C112.902 54.8618 115.245 52.4291 118.104 52.4291C120.964 52.4291 123.307 54.8618 123.307 57.8947Z" fill="url(#paint22_linear_964_5633)"/>
<path d="M123.307 57.8947C123.307 60.9276 120.964 63.3602 118.104 63.3602C115.245 63.3602 112.902 60.9276 112.902 57.8947C112.902 54.8618 115.245 52.4291 118.104 52.4291C120.964 52.4291 123.307 54.8618 123.307 57.8947Z" stroke="#89E159" stroke-width="0.647772"/>
<path d="M121.728 57.6317C121.728 59.6328 120.105 61.2551 118.104 61.2551C116.103 61.2551 114.481 59.6328 114.481 57.6317C114.481 55.6305 116.103 54.0082 118.104 54.0082C120.105 54.0082 121.728 55.6305 121.728 57.6317Z" fill="#1F2431"/>
<path d="M121.728 57.6317C121.728 59.6328 120.105 61.2551 118.104 61.2551C116.103 61.2551 114.481 59.6328 114.481 57.6317C114.481 55.6305 116.103 54.0082 118.104 54.0082C120.105 54.0082 121.728 55.6305 121.728 57.6317Z" fill="url(#paint23_linear_964_5633)"/>
<path d="M121.728 57.6317C121.728 59.6328 120.105 61.2551 118.104 61.2551C116.103 61.2551 114.481 59.6328 114.481 57.6317C114.481 55.6305 116.103 54.0082 118.104 54.0082C120.105 54.0082 121.728 55.6305 121.728 57.6317Z" stroke="#89E159" stroke-width="0.647772"/>
<path d="M106.205 31.4121C104.012 24.4981 110.033 18.9884 113.876 17.3679C113.05 22.0029 113.328 23.8499 113.876 26.5507C114.556 29.9006 124.293 29.7917 124.841 26.5507C125.39 23.3097 125.682 22.0029 124.841 17.3679C127.765 19.7086 131.767 24.3797 130.873 31.4121C129.773 40.0547 108.946 40.0547 106.205 31.4121Z" fill="#1F2431"/>
<path d="M106.205 31.4121C104.012 24.4981 110.033 18.9884 113.876 17.3679C113.05 22.0029 113.328 23.8499 113.876 26.5507C114.556 29.9006 124.293 29.7917 124.841 26.5507C125.39 23.3097 125.682 22.0029 124.841 17.3679C127.765 19.7086 131.767 24.3797 130.873 31.4121C129.773 40.0547 108.946 40.0547 106.205 31.4121Z" fill="url(#paint24_linear_964_5633)"/>
<path d="M106.205 31.4121C104.012 24.4981 110.033 18.9884 113.876 17.3679C113.05 22.0029 113.328 23.8499 113.876 26.5507C114.556 29.9006 124.293 29.7917 124.841 26.5507C125.39 23.3097 125.682 22.0029 124.841 17.3679C127.765 19.7086 131.767 24.3797 130.873 31.4121C129.773 40.0547 108.946 40.0547 106.205 31.4121Z" stroke="#89E159" stroke-width="0.647772"/>
<rect x="-0.323886" y="-0.323886" width="8.29954" height="31.4572" rx="2.2672" transform="matrix(0 -1 -1 0 40.3522 61.9832)" fill="#1F2431"/>
<rect x="-0.323886" y="-0.323886" width="8.29954" height="31.4572" rx="2.2672" transform="matrix(0 -1 -1 0 40.3522 61.9832)" fill="url(#paint25_linear_964_5633)"/>
<rect x="-0.323886" y="-0.323886" width="8.29954" height="31.4572" rx="2.2672" transform="matrix(0 -1 -1 0 40.3522 61.9832)" stroke="#89E159" stroke-width="0.647772"/>
<rect x="-0.323886" y="0.323886" width="7.7732" height="22.51" rx="2.2672" transform="matrix(-1 0 0 1 17.1935 35.2628)" fill="#1F2431"/>
<rect x="-0.323886" y="0.323886" width="7.7732" height="22.51" rx="2.2672" transform="matrix(-1 0 0 1 17.1935 35.2628)" fill="url(#paint26_linear_964_5633)"/>
<rect x="-0.323886" y="0.323886" width="7.7732" height="22.51" rx="2.2672" transform="matrix(-1 0 0 1 17.1935 35.2628)" stroke="#89E159" stroke-width="0.647772"/>
<path d="M33.4281 58.9463C33.4281 63.1276 36.8177 66.5171 40.9989 66.5171C45.1801 66.5171 48.5697 63.1276 48.5697 58.9463C48.5697 54.7651 45.1801 51.3755 40.9989 51.3755C36.8177 51.3755 33.4281 54.7651 33.4281 58.9463Z" fill="#1F2431"/>
<path d="M33.4281 58.9463C33.4281 63.1276 36.8177 66.5171 40.9989 66.5171C45.1801 66.5171 48.5697 63.1276 48.5697 58.9463C48.5697 54.7651 45.1801 51.3755 40.9989 51.3755C36.8177 51.3755 33.4281 54.7651 33.4281 58.9463Z" fill="url(#paint27_linear_964_5633)"/>
<path d="M33.4281 58.9463C33.4281 63.1276 36.8177 66.5171 40.9989 66.5171C45.1801 66.5171 48.5697 63.1276 48.5697 58.9463C48.5697 54.7651 45.1801 51.3755 40.9989 51.3755C36.8177 51.3755 33.4281 54.7651 33.4281 58.9463Z" stroke="#89E159" stroke-width="0.647772"/>
<path d="M35.5341 59.2095C35.5341 62.0827 37.8632 64.4119 40.7364 64.4119C43.6096 64.4119 45.9388 62.0827 45.9388 59.2095C45.9388 56.3363 43.6096 54.0071 40.7364 54.0071C37.8632 54.0071 35.5341 56.3363 35.5341 59.2095Z" fill="#1F2431"/>
<path d="M35.5341 59.2095C35.5341 62.0827 37.8632 64.4119 40.7364 64.4119C43.6096 64.4119 45.9388 62.0827 45.9388 59.2095C45.9388 56.3363 43.6096 54.0071 40.7364 54.0071C37.8632 54.0071 35.5341 56.3363 35.5341 59.2095Z" fill="url(#paint28_linear_964_5633)"/>
<path d="M35.5341 59.2095C35.5341 62.0827 37.8632 64.4119 40.7364 64.4119C43.6096 64.4119 45.9388 62.0827 45.9388 59.2095C45.9388 56.3363 43.6096 54.0071 40.7364 54.0071C37.8632 54.0071 35.5341 56.3363 35.5341 59.2095Z" stroke="#89E159" stroke-width="0.647772"/>
<path d="M8.69324 57.8947C8.69324 60.9276 11.0365 63.3602 13.8956 63.3602C16.7548 63.3602 19.098 60.9276 19.098 57.8947C19.098 54.8618 16.7548 52.4291 13.8956 52.4291C11.0365 52.4291 8.69324 54.8618 8.69324 57.8947Z" fill="#1F2431"/>
<path d="M8.69324 57.8947C8.69324 60.9276 11.0365 63.3602 13.8956 63.3602C16.7548 63.3602 19.098 60.9276 19.098 57.8947C19.098 54.8618 16.7548 52.4291 13.8956 52.4291C11.0365 52.4291 8.69324 54.8618 8.69324 57.8947Z" fill="url(#paint29_linear_964_5633)"/>
<path d="M8.69324 57.8947C8.69324 60.9276 11.0365 63.3602 13.8956 63.3602C16.7548 63.3602 19.098 60.9276 19.098 57.8947C19.098 54.8618 16.7548 52.4291 13.8956 52.4291C11.0365 52.4291 8.69324 54.8618 8.69324 57.8947Z" stroke="#89E159" stroke-width="0.647772"/>
<path d="M10.2725 57.6317C10.2725 59.6328 11.8948 61.2551 13.8959 61.2551C15.8971 61.2551 17.5194 59.6328 17.5194 57.6317C17.5194 55.6305 15.8971 54.0082 13.8959 54.0082C11.8948 54.0082 10.2725 55.6305 10.2725 57.6317Z" fill="#1F2431"/>
<path d="M10.2725 57.6317C10.2725 59.6328 11.8948 61.2551 13.8959 61.2551C15.8971 61.2551 17.5194 59.6328 17.5194 57.6317C17.5194 55.6305 15.8971 54.0082 13.8959 54.0082C11.8948 54.0082 10.2725 55.6305 10.2725 57.6317Z" fill="url(#paint30_linear_964_5633)"/>
<path d="M10.2725 57.6317C10.2725 59.6328 11.8948 61.2551 13.8959 61.2551C15.8971 61.2551 17.5194 59.6328 17.5194 57.6317C17.5194 55.6305 15.8971 54.0082 13.8959 54.0082C11.8948 54.0082 10.2725 55.6305 10.2725 57.6317Z" stroke="#89E159" stroke-width="0.647772"/>
<path d="M25.7951 31.4121C27.9882 24.4981 21.9666 18.9884 18.1242 17.3679C18.9497 22.0029 18.6725 23.8499 18.1242 26.5507C17.4442 29.9006 7.70695 29.7917 7.15867 26.5507C6.61039 23.3097 6.31829 22.0029 7.15867 17.3679C4.23453 19.7086 0.232519 24.3797 1.12743 31.4121C2.22724 40.0547 23.0537 40.0547 25.7951 31.4121Z" fill="#1F2431"/>
<path d="M25.7951 31.4121C27.9882 24.4981 21.9666 18.9884 18.1242 17.3679C18.9497 22.0029 18.6725 23.8499 18.1242 26.5507C17.4442 29.9006 7.70695 29.7917 7.15867 26.5507C6.61039 23.3097 6.31829 22.0029 7.15867 17.3679C4.23453 19.7086 0.232519 24.3797 1.12743 31.4121C2.22724 40.0547 23.0537 40.0547 25.7951 31.4121Z" fill="url(#paint31_linear_964_5633)"/>
<path d="M25.7951 31.4121C27.9882 24.4981 21.9666 18.9884 18.1242 17.3679C18.9497 22.0029 18.6725 23.8499 18.1242 26.5507C17.4442 29.9006 7.70695 29.7917 7.15867 26.5507C6.61039 23.3097 6.31829 22.0029 7.15867 17.3679C4.23453 19.7086 0.232519 24.3797 1.12743 31.4121C2.22724 40.0547 23.0537 40.0547 25.7951 31.4121Z" stroke="#89E159" stroke-width="0.647772"/>
<g style="mix-blend-mode:multiply" filter="url(#filter0_f_964_5633)">
<ellipse cx="66" cy="121.5" rx="40" ry="17.5" fill="black" fill-opacity="0.1"/>
</g>
<defs>
<filter id="filter0_f_964_5633" x="20.4312" y="98.4312" width="91.1377" height="46.1377" filterUnits="userSpaceOnUse" color-interpolation-filters="sRGB">
<feFlood flood-opacity="0" result="BackgroundImageFix"/>
<feBlend mode="normal" in="SourceGraphic" in2="BackgroundImageFix" result="shape"/>
<feGaussianBlur stdDeviation="2.78441" result="effect1_foregroundBlur_964_5633"/>
</filter>
<linearGradient id="paint0_linear_964_5633" x1="77.7363" y1="94.2101" x2="43.8952" y2="73.1819" gradientUnits="userSpaceOnUse">
<stop stop-color="#1E4E4E"/>
<stop offset="1" stop-color="#1F2431"/>
</linearGradient>
<linearGradient id="paint1_linear_964_5633" x1="60.9339" y1="90.6065" x2="58.4648" y2="90.4206" gradientUnits="userSpaceOnUse">
<stop stop-color="#1E4E4E"/>
<stop offset="1" stop-color="#1F2431"/>
</linearGradient>
<linearGradient id="paint2_linear_964_5633" x1="60.9339" y1="96.4365" x2="58.4648" y2="96.2505" gradientUnits="userSpaceOnUse">
<stop stop-color="#1E4E4E"/>
<stop offset="1" stop-color="#1F2431"/>
</linearGradient>
<linearGradient id="paint3_linear_964_5633" x1="60.9334" y1="102.267" x2="58.4643" y2="102.081" gradientUnits="userSpaceOnUse">
<stop stop-color="#1E4E4E"/>
<stop offset="1" stop-color="#1F2431"/>
</linearGradient>
<linearGradient id="paint4_linear_964_5633" x1="61.8923" y1="63.4002" x2="59.2052" y2="61.7304" gradientUnits="userSpaceOnUse">
<stop stop-color="#1E4E4E"/>
<stop offset="1" stop-color="#1F2431"/>
</linearGradient>
<linearGradient id="paint5_linear_964_5633" x1="65.7795" y1="63.4001" x2="63.0924" y2="61.7303" gradientUnits="userSpaceOnUse">
<stop stop-color="#1E4E4E"/>
<stop offset="1" stop-color="#1F2431"/>
</linearGradient>
<linearGradient id="paint6_linear_964_5633" x1="69.0173" y1="63.4001" x2="66.3302" y2="61.7303" gradientUnits="userSpaceOnUse">
<stop stop-color="#1E4E4E"/>
<stop offset="1" stop-color="#1F2431"/>
</linearGradient>
<linearGradient id="paint7_linear_964_5633" x1="74.2025" y1="34.2103" x2="50.5502" y2="19.5132" gradientUnits="userSpaceOnUse">
<stop stop-color="#1E4E4E"/>
<stop offset="1" stop-color="#1F2431"/>
</linearGradient>
<linearGradient id="paint8_linear_964_5633" x1="68.7861" y1="45.2631" x2="61.315" y2="40.8418" gradientUnits="userSpaceOnUse">
<stop stop-color="#1E4E4E"/>
<stop offset="1" stop-color="#1F2431"/>
</linearGradient>
<linearGradient id="paint9_linear_964_5633" x1="59.8398" y1="109.999" x2="51.2297" y2="106.433" gradientUnits="userSpaceOnUse">
<stop stop-color="#1E4E4E"/>
<stop offset="1" stop-color="#1F2431"/>
</linearGradient>
<linearGradient id="paint10_linear_964_5633" x1="77.208" y1="109.999" x2="68.5979" y2="106.433" gradientUnits="userSpaceOnUse">
<stop stop-color="#1E4E4E"/>
<stop offset="1" stop-color="#1F2431"/>
</linearGradient>
<linearGradient id="paint11_linear_964_5633" x1="74.8442" y1="122.631" x2="66.4781" y2="107.902" gradientUnits="userSpaceOnUse">
<stop stop-color="#1E4E4E"/>
<stop offset="1" stop-color="#1F2431"/>
</linearGradient>
<linearGradient id="paint12_linear_964_5633" x1="59.8605" y1="126.841" x2="54.0384" y2="123.224" gradientUnits="userSpaceOnUse">
<stop stop-color="#1E4E4E"/>
<stop offset="1" stop-color="#1F2431"/>
</linearGradient>
<linearGradient id="paint13_linear_964_5633" x1="58.966" y1="125.262" x2="54.9633" y2="122.775" gradientUnits="userSpaceOnUse">
<stop stop-color="#1E4E4E"/>
<stop offset="1" stop-color="#1F2431"/>
</linearGradient>
<linearGradient id="paint14_linear_964_5633" x1="68.2824" y1="126.841" x2="62.4603" y2="123.224" gradientUnits="userSpaceOnUse">
<stop stop-color="#1E4E4E"/>
<stop offset="1" stop-color="#1F2431"/>
</linearGradient>
<linearGradient id="paint15_linear_964_5633" x1="67.3879" y1="125.262" x2="63.3852" y2="122.775" gradientUnits="userSpaceOnUse">
<stop stop-color="#1E4E4E"/>
<stop offset="1" stop-color="#1F2431"/>
</linearGradient>
<linearGradient id="paint16_linear_964_5633" x1="76.1769" y1="126.841" x2="70.3548" y2="123.224" gradientUnits="userSpaceOnUse">
<stop stop-color="#1E4E4E"/>
<stop offset="1" stop-color="#1F2431"/>
</linearGradient>
<linearGradient id="paint17_linear_964_5633" x1="75.2824" y1="125.262" x2="71.2797" y2="122.775" gradientUnits="userSpaceOnUse">
<stop stop-color="#1E4E4E"/>
<stop offset="1" stop-color="#1F2431"/>
</linearGradient>
<linearGradient id="paint18_linear_964_5633" x1="97.619" y1="94.7359" x2="89.2942" y2="93.2943" gradientUnits="userSpaceOnUse">
<stop stop-color="#1E4E4E"/>
<stop offset="1" stop-color="#1F2431"/>
</linearGradient>
<linearGradient id="paint19_linear_964_5633" x1="120.388" y1="58.4206" x2="112.71" y2="56.6856" gradientUnits="userSpaceOnUse">
<stop stop-color="#1E4E4E"/>
<stop offset="1" stop-color="#1F2431"/>
</linearGradient>
<linearGradient id="paint20_linear_964_5633" x1="94.7871" y1="66.841" x2="83.8706" y2="60.0577" gradientUnits="userSpaceOnUse">
<stop stop-color="#1E4E4E"/>
<stop offset="1" stop-color="#1F2431"/>
</linearGradient>
<linearGradient id="paint21_linear_964_5633" x1="93.9137" y1="64.7358" x2="86.2722" y2="59.9875" gradientUnits="userSpaceOnUse">
<stop stop-color="#1E4E4E"/>
<stop offset="1" stop-color="#1F2431"/>
</linearGradient>
<linearGradient id="paint22_linear_964_5633" x1="120.755" y1="63.6841" x2="112.919" y2="59.0366" gradientUnits="userSpaceOnUse">
<stop stop-color="#1E4E4E"/>
<stop offset="1" stop-color="#1F2431"/>
</linearGradient>
<linearGradient id="paint23_linear_964_5633" x1="119.997" y1="61.579" x2="114.539" y2="58.1874" gradientUnits="userSpaceOnUse">
<stop stop-color="#1E4E4E"/>
<stop offset="1" stop-color="#1F2431"/>
</linearGradient>
<linearGradient id="paint24_linear_964_5633" x1="124.426" y1="37.8941" x2="109.15" y2="26.2115" gradientUnits="userSpaceOnUse">
<stop stop-color="#1E4E4E"/>
<stop offset="1" stop-color="#1F2431"/>
</linearGradient>
<linearGradient id="paint25_linear_964_5633" x1="6.61904" y1="32.1049" x2="-1.70583" y2="30.6633" gradientUnits="userSpaceOnUse">
<stop stop-color="#1E4E4E"/>
<stop offset="1" stop-color="#1F2431"/>
</linearGradient>
<linearGradient id="paint26_linear_964_5633" x1="6.22966" y1="23.1577" x2="-1.44843" y2="21.4228" gradientUnits="userSpaceOnUse">
<stop stop-color="#1E4E4E"/>
<stop offset="1" stop-color="#1F2431"/>
</linearGradient>
<linearGradient id="paint27_linear_964_5633" x1="37.2129" y1="66.841" x2="48.1294" y2="60.0577" gradientUnits="userSpaceOnUse">
<stop stop-color="#1E4E4E"/>
<stop offset="1" stop-color="#1F2431"/>
</linearGradient>
<linearGradient id="paint28_linear_964_5633" x1="38.0863" y1="64.7358" x2="45.7278" y2="59.9875" gradientUnits="userSpaceOnUse">
<stop stop-color="#1E4E4E"/>
<stop offset="1" stop-color="#1F2431"/>
</linearGradient>
<linearGradient id="paint29_linear_964_5633" x1="11.2454" y1="63.6841" x2="19.0809" y2="59.0366" gradientUnits="userSpaceOnUse">
<stop stop-color="#1E4E4E"/>
<stop offset="1" stop-color="#1F2431"/>
</linearGradient>
<linearGradient id="paint30_linear_964_5633" x1="12.003" y1="61.579" x2="17.4612" y2="58.1874" gradientUnits="userSpaceOnUse">
<stop stop-color="#1E4E4E"/>
<stop offset="1" stop-color="#1F2431"/>
</linearGradient>
<linearGradient id="paint31_linear_964_5633" x1="7.5737" y1="37.8941" x2="22.8495" y2="26.2115" gradientUnits="userSpaceOnUse">
<stop stop-color="#1E4E4E"/>
<stop offset="1" stop-color="#1F2431"/>
</linearGradient>
</defs>
</svg>
