<svg width="405" height="123" viewBox="0 0 405 123" fill="none" xmlns="http://www.w3.org/2000/svg">
<rect x="1" y="1" width="321" height="82" rx="11" stroke="#89E159" stroke-width="2"/>
<path d="M38.712 34.368V51H36.384V36.36H28.392V51H26.064V34.368H38.712ZM42.0053 44.784C42.0053 43.68 42.1653 42.72 42.4853 41.904C42.8053 41.072 43.2293 40.384 43.7573 39.84C44.2853 39.296 44.8933 38.888 45.5813 38.616C46.2693 38.344 46.9733 38.208 47.6933 38.208C49.3733 38.208 50.6613 38.736 51.5573 39.792C52.4533 40.832 52.9012 42.424 52.9012 44.568C52.9012 44.664 52.9012 44.792 52.9012 44.952C52.9012 45.096 52.8932 45.232 52.8773 45.36H44.3333C44.4293 46.656 44.8053 47.64 45.4613 48.312C46.1173 48.984 47.1413 49.32 48.5333 49.32C49.3173 49.32 49.9733 49.256 50.5013 49.128C51.0453 48.984 51.4533 48.848 51.7253 48.72L52.0373 50.592C51.7653 50.736 51.2853 50.888 50.5973 51.048C49.9253 51.208 49.1573 51.288 48.2933 51.288C47.2053 51.288 46.2613 51.128 45.4613 50.808C44.6773 50.472 44.0293 50.016 43.5173 49.44C43.0053 48.864 42.6213 48.184 42.3652 47.4C42.1253 46.6 42.0053 45.728 42.0053 44.784ZM50.5733 43.56C50.5893 42.552 50.3333 41.728 49.8053 41.088C49.2933 40.432 48.5813 40.104 47.6693 40.104C47.1573 40.104 46.7013 40.208 46.3013 40.416C45.9173 40.608 45.5893 40.864 45.3173 41.184C45.0453 41.504 44.8293 41.872 44.6693 42.288C44.5253 42.704 44.4293 43.128 44.3813 43.56H50.5733ZM64.7715 44.784C64.7715 43.328 64.4115 42.208 63.6915 41.424C62.9715 40.64 62.0115 40.248 60.8115 40.248C60.1395 40.248 59.6115 40.272 59.2275 40.32C58.8595 40.368 58.5635 40.424 58.3395 40.488V48.36C58.6115 48.584 59.0035 48.8 59.5155 49.008C60.0275 49.216 60.5875 49.32 61.1955 49.32C61.8355 49.32 62.3795 49.208 62.8275 48.984C63.2915 48.744 63.6675 48.424 63.9555 48.024C64.2435 47.608 64.4515 47.128 64.5795 46.584C64.7075 46.024 64.7715 45.424 64.7715 44.784ZM67.0995 44.784C67.0995 45.728 66.9715 46.6 66.7155 47.4C66.4755 48.2 66.1155 48.888 65.6355 49.464C65.1555 50.04 64.5635 50.488 63.8595 50.808C63.1715 51.128 62.3795 51.288 61.4835 51.288C60.7635 51.288 60.1235 51.192 59.5635 51C59.0195 50.808 58.6115 50.624 58.3395 50.448V55.44H56.1075V38.904C56.6355 38.776 57.2915 38.64 58.0755 38.496C58.8755 38.336 59.7955 38.256 60.8355 38.256C61.7955 38.256 62.6595 38.408 63.4275 38.712C64.1955 39.016 64.8515 39.448 65.3955 40.008C65.9395 40.568 66.3555 41.256 66.6435 42.072C66.9475 42.872 67.0995 43.776 67.0995 44.784ZM69.5443 44.784C69.5443 43.68 69.7043 42.72 70.0243 41.904C70.3443 41.072 70.7683 40.384 71.2963 39.84C71.8243 39.296 72.4323 38.888 73.1203 38.616C73.8083 38.344 74.5123 38.208 75.2323 38.208C76.9123 38.208 78.2003 38.736 79.0963 39.792C79.9923 40.832 80.4403 42.424 80.4403 44.568C80.4403 44.664 80.4403 44.792 80.4403 44.952C80.4403 45.096 80.4323 45.232 80.4163 45.36H71.8723C71.9683 46.656 72.3443 47.64 73.0003 48.312C73.6563 48.984 74.6803 49.32 76.0723 49.32C76.8563 49.32 77.5123 49.256 78.0403 49.128C78.5843 48.984 78.9923 48.848 79.2643 48.72L79.5763 50.592C79.3043 50.736 78.8243 50.888 78.1363 51.048C77.4643 51.208 76.6963 51.288 75.8323 51.288C74.7443 51.288 73.8003 51.128 73.0003 50.808C72.2163 50.472 71.5683 50.016 71.0563 49.44C70.5443 48.864 70.1603 48.184 69.9043 47.4C69.6643 46.6 69.5443 45.728 69.5443 44.784ZM78.1123 43.56C78.1283 42.552 77.8723 41.728 77.3443 41.088C76.8323 40.432 76.1203 40.104 75.2083 40.104C74.6963 40.104 74.2403 40.208 73.8403 40.416C73.4563 40.608 73.1283 40.864 72.8563 41.184C72.5843 41.504 72.3683 41.872 72.2083 42.288C72.0643 42.704 71.9683 43.128 71.9203 43.56H78.1123ZM93.6066 49.152H95.2866V54.48H93.1746V51H83.6466V38.52H85.8786V49.152H91.3746V38.52H93.6066V49.152ZM105.64 41.808C105.48 43.392 105.36 44.976 105.28 46.56C105.2 48.128 105.136 49.608 105.088 51H102.952C102.984 50.024 103.032 49.008 103.096 47.952C103.16 46.88 103.232 45.808 103.312 44.736C103.392 43.648 103.48 42.584 103.576 41.544C103.672 40.488 103.776 39.48 103.888 38.52H105.928C106.44 39.352 107.04 40.496 107.728 41.952C108.416 43.392 109.208 45.056 110.104 46.944C111 45.056 111.792 43.392 112.48 41.952C113.168 40.496 113.768 39.352 114.28 38.52H116.344C116.456 39.48 116.56 40.488 116.656 41.544C116.752 42.584 116.84 43.648 116.92 44.736C117 45.808 117.072 46.88 117.136 47.952C117.2 49.008 117.248 50.024 117.28 51H115.072C115.024 49.608 114.96 48.128 114.88 46.56C114.8 44.976 114.68 43.392 114.52 41.808C114.264 42.304 113.968 42.904 113.632 43.608C113.296 44.296 112.96 45 112.624 45.72C112.304 46.44 112 47.128 111.712 47.784C111.424 48.44 111.2 48.96 111.04 49.344H109.168C108.992 48.944 108.752 48.416 108.448 47.76C108.16 47.104 107.848 46.416 107.512 45.696C107.192 44.96 106.864 44.248 106.528 43.56C106.192 42.856 105.896 42.272 105.64 41.808ZM131.834 44.76C131.834 45.752 131.69 46.648 131.402 47.448C131.114 48.248 130.706 48.936 130.178 49.512C129.666 50.088 129.05 50.536 128.33 50.856C127.61 51.16 126.826 51.312 125.978 51.312C125.13 51.312 124.346 51.16 123.626 50.856C122.906 50.536 122.282 50.088 121.754 49.512C121.242 48.936 120.842 48.248 120.554 47.448C120.266 46.648 120.122 45.752 120.122 44.76C120.122 43.784 120.266 42.896 120.554 42.096C120.842 41.28 121.242 40.584 121.754 40.008C122.282 39.432 122.906 38.992 123.626 38.688C124.346 38.368 125.13 38.208 125.978 38.208C126.826 38.208 127.61 38.368 128.33 38.688C129.05 38.992 129.666 39.432 130.178 40.008C130.706 40.584 131.114 41.28 131.402 42.096C131.69 42.896 131.834 43.784 131.834 44.76ZM129.506 44.76C129.506 43.352 129.186 42.24 128.546 41.424C127.922 40.592 127.066 40.176 125.978 40.176C124.89 40.176 124.026 40.592 123.386 41.424C122.762 42.24 122.45 43.352 122.45 44.76C122.45 46.168 122.762 47.288 123.386 48.12C124.026 48.936 124.89 49.344 125.978 49.344C127.066 49.344 127.922 48.936 128.546 48.12C129.186 47.288 129.506 46.168 129.506 44.76ZM133.439 49.176H134.783C135.311 48.408 135.727 47.616 136.031 46.8C136.351 45.984 136.591 45.144 136.751 44.28C136.911 43.4 137.015 42.488 137.063 41.544C137.111 40.584 137.143 39.576 137.159 38.52H145.343V49.176H147.023V54.48H144.911V51H135.551V54.48H133.439V49.176ZM143.111 49.176V40.392H139.199C139.183 41.144 139.143 41.904 139.079 42.672C139.015 43.424 138.911 44.176 138.767 44.928C138.623 45.664 138.415 46.392 138.143 47.112C137.887 47.816 137.559 48.504 137.159 49.176H143.111ZM159.924 38.52V51H157.764V41.496C157.284 42.104 156.756 42.816 156.18 43.632C155.604 44.448 155.028 45.296 154.452 46.176C153.876 47.04 153.324 47.896 152.796 48.744C152.268 49.592 151.812 50.344 151.428 51H149.436V38.52H151.596V47.496C152.012 46.808 152.484 46.056 153.012 45.24C153.54 44.408 154.084 43.592 154.644 42.792C155.22 41.976 155.788 41.2 156.348 40.464C156.924 39.712 157.46 39.064 157.956 38.52H159.924ZM165.316 44.76C165.316 45.464 165.428 46.088 165.652 46.632C165.892 47.176 166.22 47.64 166.636 48.024C167.052 48.392 167.54 48.68 168.1 48.888C168.676 49.08 169.292 49.184 169.948 49.2V40.32C169.292 40.336 168.676 40.448 168.1 40.656C167.54 40.864 167.052 41.16 166.636 41.544C166.22 41.912 165.892 42.368 165.652 42.912C165.428 43.456 165.316 44.072 165.316 44.76ZM172.108 49.2C172.764 49.184 173.372 49.08 173.932 48.888C174.508 48.68 175.004 48.392 175.42 48.024C175.836 47.64 176.156 47.176 176.38 46.632C176.62 46.088 176.74 45.464 176.74 44.76C176.74 44.072 176.62 43.456 176.38 42.912C176.156 42.368 175.836 41.912 175.42 41.544C175.004 41.16 174.508 40.864 173.932 40.656C173.372 40.448 172.764 40.336 172.108 40.32V49.2ZM172.108 55.44H169.948V51.072C169.004 51.056 168.116 50.904 167.284 50.616C166.452 50.328 165.716 49.92 165.076 49.392C164.452 48.848 163.956 48.192 163.588 47.424C163.22 46.64 163.036 45.752 163.036 44.76C163.036 43.768 163.22 42.888 163.588 42.12C163.956 41.336 164.452 40.68 165.076 40.152C165.716 39.608 166.452 39.192 167.284 38.904C168.116 38.616 169.004 38.464 169.948 38.448V32.76L172.108 32.376V38.448C173.036 38.464 173.916 38.616 174.748 38.904C175.596 39.192 176.332 39.608 176.956 40.152C177.596 40.68 178.1 41.336 178.468 42.12C178.836 42.888 179.02 43.768 179.02 44.76C179.02 45.752 178.836 46.64 178.468 47.424C178.1 48.192 177.596 48.848 176.956 49.392C176.332 49.92 175.596 50.328 174.748 50.616C173.916 50.904 173.036 51.056 172.108 51.072V55.44ZM192.619 38.52V51H190.459V41.496C189.979 42.104 189.451 42.816 188.875 43.632C188.299 44.448 187.723 45.296 187.147 46.176C186.571 47.04 186.019 47.896 185.491 48.744C184.963 49.592 184.507 50.344 184.123 51H182.131V38.52H184.291V47.496C184.707 46.808 185.179 46.056 185.707 45.24C186.235 44.408 186.779 43.592 187.339 42.792C187.915 41.976 188.483 41.2 189.043 40.464C189.619 39.712 190.155 39.064 190.651 38.52H192.619ZM206.411 49.152H208.091V54.48H205.979V51H196.451V38.52H198.683V49.152H204.179V38.52H206.411V49.152ZM221.002 38.52V51H218.842V41.496C218.362 42.104 217.834 42.816 217.258 43.632C216.682 44.448 216.106 45.296 215.53 46.176C214.954 47.04 214.402 47.896 213.874 48.744C213.346 49.592 212.89 50.344 212.506 51H210.514V38.52H212.674V47.496C213.09 46.808 213.562 46.056 214.09 45.24C214.618 44.408 215.162 43.592 215.722 42.792C216.298 41.976 216.866 41.2 217.426 40.464C218.002 39.712 218.538 39.064 219.034 38.52H221.002ZM233.498 44.784C233.498 43.328 233.138 42.208 232.418 41.424C231.698 40.64 230.738 40.248 229.538 40.248C228.866 40.248 228.338 40.272 227.954 40.32C227.586 40.368 227.29 40.424 227.066 40.488V48.36C227.338 48.584 227.73 48.8 228.242 49.008C228.754 49.216 229.314 49.32 229.922 49.32C230.562 49.32 231.106 49.208 231.554 48.984C232.018 48.744 232.394 48.424 232.682 48.024C232.97 47.608 233.178 47.128 233.306 46.584C233.434 46.024 233.498 45.424 233.498 44.784ZM235.826 44.784C235.826 45.728 235.698 46.6 235.442 47.4C235.202 48.2 234.842 48.888 234.362 49.464C233.882 50.04 233.29 50.488 232.586 50.808C231.898 51.128 231.106 51.288 230.21 51.288C229.49 51.288 228.85 51.192 228.29 51C227.746 50.808 227.338 50.624 227.066 50.448V55.44H224.834V38.904C225.362 38.776 226.018 38.64 226.802 38.496C227.602 38.336 228.522 38.256 229.562 38.256C230.522 38.256 231.386 38.408 232.154 38.712C232.922 39.016 233.578 39.448 234.122 40.008C234.666 40.568 235.082 41.256 235.37 42.072C235.674 42.872 235.826 43.776 235.826 44.784ZM249.983 44.76C249.983 45.752 249.839 46.648 249.551 47.448C249.263 48.248 248.855 48.936 248.327 49.512C247.815 50.088 247.199 50.536 246.479 50.856C245.759 51.16 244.975 51.312 244.127 51.312C243.279 51.312 242.495 51.16 241.775 50.856C241.055 50.536 240.431 50.088 239.903 49.512C239.391 48.936 238.991 48.248 238.703 47.448C238.415 46.648 238.271 45.752 238.271 44.76C238.271 43.784 238.415 42.896 238.703 42.096C238.991 41.28 239.391 40.584 239.903 40.008C240.431 39.432 241.055 38.992 241.775 38.688C242.495 38.368 243.279 38.208 244.127 38.208C244.975 38.208 245.759 38.368 246.479 38.688C247.199 38.992 247.815 39.432 248.327 40.008C248.855 40.584 249.263 41.28 249.551 42.096C249.839 42.896 249.983 43.784 249.983 44.76ZM247.655 44.76C247.655 43.352 247.335 42.24 246.695 41.424C246.071 40.592 245.215 40.176 244.127 40.176C243.039 40.176 242.175 40.592 241.535 41.424C240.911 42.24 240.599 43.352 240.599 44.76C240.599 46.168 240.911 47.288 241.535 48.12C242.175 48.936 243.039 49.344 244.127 49.344C245.215 49.344 246.071 48.936 246.695 48.12C247.335 47.288 247.655 46.168 247.655 44.76ZM255.307 49.32C255.403 49.336 255.539 49.352 255.715 49.368C255.891 49.384 256.091 49.4 256.315 49.416C256.539 49.416 256.771 49.424 257.011 49.44C257.267 49.44 257.507 49.44 257.731 49.44C258.195 49.44 258.635 49.408 259.051 49.344C259.483 49.28 259.851 49.168 260.155 49.008C260.475 48.848 260.723 48.64 260.899 48.384C261.091 48.112 261.187 47.768 261.187 47.352C261.187 46.952 261.099 46.624 260.923 46.368C260.763 46.096 260.539 45.88 260.251 45.72C259.963 45.56 259.619 45.448 259.219 45.384C258.835 45.32 258.419 45.288 257.971 45.288H255.307V49.32ZM257.683 43.632C258.115 43.632 258.507 43.608 258.859 43.56C259.227 43.496 259.539 43.392 259.795 43.248C260.067 43.104 260.275 42.912 260.419 42.672C260.579 42.432 260.659 42.128 260.659 41.76C260.659 41.376 260.563 41.072 260.371 40.848C260.179 40.624 259.923 40.456 259.603 40.344C259.299 40.216 258.947 40.136 258.547 40.104C258.163 40.056 257.771 40.032 257.371 40.032C257.003 40.032 256.627 40.04 256.243 40.056C255.875 40.072 255.563 40.088 255.307 40.104V43.632H257.683ZM257.635 51.216C256.691 51.216 255.819 51.168 255.019 51.072C254.219 50.992 253.587 50.896 253.123 50.784V38.64C253.587 38.528 254.219 38.432 255.019 38.352C255.819 38.256 256.691 38.208 257.635 38.208C258.291 38.208 258.931 38.264 259.555 38.376C260.179 38.488 260.731 38.68 261.211 38.952C261.691 39.208 262.075 39.568 262.363 40.032C262.667 40.48 262.819 41.04 262.819 41.712C262.819 42.32 262.667 42.84 262.363 43.272C262.059 43.704 261.651 44.04 261.139 44.28C261.827 44.52 262.371 44.88 262.771 45.36C263.187 45.824 263.395 46.48 263.395 47.328C263.395 48.08 263.243 48.704 262.939 49.2C262.651 49.696 262.243 50.096 261.715 50.4C261.203 50.704 260.595 50.912 259.891 51.024C259.187 51.152 258.435 51.216 257.635 51.216ZM270.496 49.392C271.024 49.392 271.488 49.384 271.888 49.368C272.304 49.336 272.648 49.288 272.92 49.224V45.504C272.76 45.424 272.496 45.36 272.128 45.312C271.776 45.248 271.344 45.216 270.832 45.216C270.496 45.216 270.136 45.24 269.752 45.288C269.384 45.336 269.04 45.44 268.72 45.6C268.416 45.744 268.16 45.952 267.952 46.224C267.744 46.48 267.64 46.824 267.64 47.256C267.64 48.056 267.896 48.616 268.408 48.936C268.92 49.24 269.616 49.392 270.496 49.392ZM270.304 38.208C271.2 38.208 271.952 38.328 272.56 38.568C273.184 38.792 273.68 39.12 274.048 39.552C274.432 39.968 274.704 40.472 274.864 41.064C275.024 41.64 275.104 42.28 275.104 42.984V50.784C274.912 50.816 274.64 50.864 274.288 50.928C273.952 50.976 273.568 51.024 273.136 51.072C272.704 51.12 272.232 51.16 271.72 51.192C271.224 51.24 270.728 51.264 270.232 51.264C269.528 51.264 268.88 51.192 268.288 51.048C267.696 50.904 267.184 50.68 266.752 50.376C266.32 50.056 265.984 49.64 265.744 49.128C265.504 48.616 265.384 48 265.384 47.28C265.384 46.592 265.52 46 265.792 45.504C266.08 45.008 266.464 44.608 266.944 44.304C267.424 44 267.984 43.776 268.624 43.632C269.264 43.488 269.936 43.416 270.64 43.416C270.864 43.416 271.096 43.432 271.336 43.464C271.576 43.48 271.8 43.512 272.008 43.56C272.232 43.592 272.424 43.624 272.584 43.656C272.744 43.688 272.856 43.712 272.92 43.728V43.104C272.92 42.736 272.88 42.376 272.8 42.024C272.72 41.656 272.576 41.336 272.368 41.064C272.16 40.776 271.872 40.552 271.504 40.392C271.152 40.216 270.688 40.128 270.112 40.128C269.376 40.128 268.728 40.184 268.168 40.296C267.624 40.392 267.216 40.496 266.944 40.608L266.68 38.76C266.968 38.632 267.448 38.512 268.12 38.4C268.792 38.272 269.52 38.208 270.304 38.208ZM289.035 51H286.803V45.48H281.043V51H278.811V38.52H281.043V43.608H286.803V38.52H289.035V51ZM295.465 38.88C295.465 40.224 295.417 41.448 295.321 42.552C295.225 43.64 295.105 44.728 294.961 45.816H293.569C293.425 44.728 293.305 43.64 293.209 42.552C293.113 41.448 293.065 40.224 293.065 38.88V34.368H295.465V38.88ZM295.873 49.704C295.873 50.136 295.729 50.512 295.441 50.832C295.153 51.152 294.761 51.312 294.265 51.312C293.769 51.312 293.377 51.152 293.089 50.832C292.801 50.512 292.657 50.136 292.657 49.704C292.657 49.272 292.801 48.896 293.089 48.576C293.377 48.256 293.769 48.096 294.265 48.096C294.761 48.096 295.153 48.256 295.441 48.576C295.729 48.896 295.873 49.272 295.873 49.704Z" fill="#DBE2F9"/>
<circle cx="353.5" cy="93.5" r="16.5" stroke="#89E159" stroke-width="2"/>
<circle cx="395" cy="113" r="9" stroke="#89E159" stroke-width="2"/>
</svg>
