<svg width="397" height="139" viewBox="0 0 397 139" fill="none" xmlns="http://www.w3.org/2000/svg">
<circle cx="345.5" cy="109.5" r="16.5" stroke="#89E159" stroke-width="2"/>
<circle cx="387" cy="129" r="9" stroke="#89E159" stroke-width="2"/>
<path d="M38.376 34.368C37.88 34.912 37.32 35.52 36.696 36.192C36.072 36.848 35.416 37.528 34.728 38.232C34.056 38.92 33.384 39.6 32.712 40.272C32.04 40.944 31.408 41.568 30.816 42.144C31.504 42.624 32.232 43.216 33 43.92C33.768 44.624 34.52 45.376 35.256 46.176C35.992 46.976 36.68 47.792 37.32 48.624C37.976 49.456 38.52 50.248 38.952 51H36.216C35.736 50.248 35.184 49.496 34.56 48.744C33.936 47.976 33.272 47.248 32.568 46.56C31.88 45.856 31.176 45.208 30.456 44.616C29.752 44.024 29.064 43.52 28.392 43.104V51H26.064V34.368H28.392V41.712C28.952 41.184 29.568 40.592 30.24 39.936C30.912 39.264 31.576 38.592 32.232 37.92C32.888 37.248 33.504 36.608 34.08 36C34.672 35.376 35.168 34.832 35.568 34.368H38.376ZM51.9924 51.288C50.9844 51.288 50.0964 51.128 49.3284 50.808C48.5764 50.488 47.9364 50.04 47.4084 49.464C46.8964 48.888 46.5124 48.208 46.2564 47.424C46.0004 46.624 45.8724 45.744 45.8724 44.784C45.8724 43.824 46.0084 42.944 46.2804 42.144C46.5684 41.344 46.9684 40.656 47.4804 40.08C47.9924 39.488 48.6164 39.032 49.3524 38.712C50.1044 38.376 50.9364 38.208 51.8484 38.208C52.4084 38.208 52.9684 38.256 53.5284 38.352C54.0884 38.448 54.6244 38.6 55.1364 38.808L54.6324 40.704C54.2964 40.544 53.9044 40.416 53.4564 40.32C53.0244 40.224 52.5604 40.176 52.0644 40.176C50.8164 40.176 49.8564 40.568 49.1844 41.352C48.5284 42.136 48.2004 43.28 48.2004 44.784C48.2004 45.456 48.2724 46.072 48.4164 46.632C48.5764 47.192 48.8164 47.672 49.1364 48.072C49.4724 48.472 49.8964 48.784 50.4084 49.008C50.9204 49.216 51.5444 49.32 52.2804 49.32C52.8724 49.32 53.4084 49.264 53.8884 49.152C54.3684 49.04 54.7444 48.92 55.0164 48.792L55.3284 50.664C55.2004 50.744 55.0164 50.824 54.7764 50.904C54.5364 50.968 54.2644 51.024 53.9604 51.072C53.6564 51.136 53.3284 51.184 52.9764 51.216C52.6404 51.264 52.3124 51.288 51.9924 51.288ZM68.436 44.76C68.436 45.752 68.292 46.648 68.004 47.448C67.716 48.248 67.308 48.936 66.78 49.512C66.268 50.088 65.652 50.536 64.932 50.856C64.212 51.16 63.428 51.312 62.58 51.312C61.732 51.312 60.948 51.16 60.228 50.856C59.508 50.536 58.884 50.088 58.356 49.512C57.844 48.936 57.444 48.248 57.156 47.448C56.868 46.648 56.724 45.752 56.724 44.76C56.724 43.784 56.868 42.896 57.156 42.096C57.444 41.28 57.844 40.584 58.356 40.008C58.884 39.432 59.508 38.992 60.228 38.688C60.948 38.368 61.732 38.208 62.58 38.208C63.428 38.208 64.212 38.368 64.932 38.688C65.652 38.992 66.268 39.432 66.78 40.008C67.308 40.584 67.716 41.28 68.004 42.096C68.292 42.896 68.436 43.784 68.436 44.76ZM66.108 44.76C66.108 43.352 65.788 42.24 65.148 41.424C64.524 40.592 63.668 40.176 62.58 40.176C61.492 40.176 60.628 40.592 59.988 41.424C59.364 42.24 59.052 43.352 59.052 44.76C59.052 46.168 59.364 47.288 59.988 48.12C60.628 48.936 61.492 49.344 62.58 49.344C63.668 49.344 64.524 48.936 65.148 48.12C65.788 47.288 66.108 46.168 66.108 44.76ZM86.3978 38.52C86.0778 38.92 85.7178 39.36 85.3178 39.84C84.9178 40.304 84.5018 40.792 84.0698 41.304C83.6378 41.8 83.1978 42.296 82.7498 42.792C82.3178 43.288 81.9018 43.76 81.5018 44.208C81.9818 44.672 82.4778 45.176 82.9898 45.72C83.5018 46.264 83.9978 46.832 84.4778 47.424C84.9738 48 85.4458 48.6 85.8938 49.224C86.3418 49.832 86.7338 50.424 87.0698 51H84.5738C84.2378 50.472 83.8458 49.92 83.3978 49.344C82.9658 48.752 82.5098 48.184 82.0298 47.64C81.5658 47.096 81.0938 46.592 80.6138 46.128C80.1498 45.648 79.7178 45.256 79.3178 44.952V51H77.1818V44.952C76.7818 45.256 76.3418 45.648 75.8618 46.128C75.3978 46.592 74.9258 47.096 74.4458 47.64C73.9818 48.184 73.5258 48.752 73.0778 49.344C72.6458 49.92 72.2618 50.472 71.9258 51H69.4538C69.7898 50.424 70.1738 49.832 70.6058 49.224C71.0538 48.616 71.5178 48.024 71.9978 47.448C72.4938 46.856 72.9978 46.288 73.5098 45.744C74.0218 45.2 74.5178 44.696 74.9978 44.232C74.5978 43.784 74.1738 43.312 73.7258 42.816C73.2938 42.32 72.8618 41.824 72.4298 41.328C71.9978 40.816 71.5818 40.328 71.1818 39.864C70.7818 39.384 70.4138 38.936 70.0778 38.52H72.5498C73.1258 39.24 73.7898 40.04 74.5418 40.92C75.2938 41.8 76.1738 42.816 77.1818 43.968V38.52H79.3178V43.968C80.3258 42.816 81.2058 41.8 81.9578 40.92C82.7098 40.04 83.3738 39.24 83.9498 38.52H86.3978ZM93.5424 49.392C94.0704 49.392 94.5344 49.384 94.9344 49.368C95.3504 49.336 95.6944 49.288 95.9664 49.224V45.504C95.8064 45.424 95.5424 45.36 95.1744 45.312C94.8224 45.248 94.3904 45.216 93.8784 45.216C93.5424 45.216 93.1824 45.24 92.7984 45.288C92.4304 45.336 92.0864 45.44 91.7664 45.6C91.4624 45.744 91.2064 45.952 90.9984 46.224C90.7904 46.48 90.6864 46.824 90.6864 47.256C90.6864 48.056 90.9424 48.616 91.4544 48.936C91.9664 49.24 92.6624 49.392 93.5424 49.392ZM93.3504 38.208C94.2464 38.208 94.9984 38.328 95.6064 38.568C96.2304 38.792 96.7264 39.12 97.0944 39.552C97.4784 39.968 97.7504 40.472 97.9104 41.064C98.0704 41.64 98.1504 42.28 98.1504 42.984V50.784C97.9584 50.816 97.6864 50.864 97.3344 50.928C96.9984 50.976 96.6144 51.024 96.1824 51.072C95.7504 51.12 95.2784 51.16 94.7664 51.192C94.2704 51.24 93.7744 51.264 93.2784 51.264C92.5744 51.264 91.9264 51.192 91.3344 51.048C90.7424 50.904 90.2304 50.68 89.7984 50.376C89.3664 50.056 89.0304 49.64 88.7904 49.128C88.5504 48.616 88.4304 48 88.4304 47.28C88.4304 46.592 88.5664 46 88.8384 45.504C89.1264 45.008 89.5104 44.608 89.9904 44.304C90.4704 44 91.0304 43.776 91.6704 43.632C92.3104 43.488 92.9824 43.416 93.6864 43.416C93.9104 43.416 94.1424 43.432 94.3824 43.464C94.6224 43.48 94.8464 43.512 95.0544 43.56C95.2784 43.592 95.4704 43.624 95.6304 43.656C95.7904 43.688 95.9024 43.712 95.9664 43.728V43.104C95.9664 42.736 95.9264 42.376 95.8464 42.024C95.7664 41.656 95.6224 41.336 95.4144 41.064C95.2064 40.776 94.9184 40.552 94.5504 40.392C94.1984 40.216 93.7344 40.128 93.1584 40.128C92.4224 40.128 91.7744 40.184 91.2144 40.296C90.6704 40.392 90.2624 40.496 89.9904 40.608L89.7264 38.76C90.0144 38.632 90.4944 38.512 91.1664 38.4C91.8384 38.272 92.5664 38.208 93.3504 38.208ZM106.202 40.392C106.202 40.92 106.186 41.488 106.154 42.096C106.138 42.688 106.098 43.288 106.034 43.896C105.97 44.488 105.882 45.08 105.77 45.672C105.658 46.248 105.514 46.792 105.338 47.304C105.162 47.816 104.938 48.296 104.666 48.744C104.41 49.192 104.09 49.592 103.706 49.944C103.322 50.28 102.874 50.568 102.362 50.808C101.85 51.032 101.25 51.176 100.562 51.24L100.25 49.368C101.034 49.208 101.65 48.912 102.098 48.48C102.562 48.048 102.93 47.52 103.202 46.896C103.442 46.352 103.618 45.736 103.73 45.048C103.842 44.36 103.922 43.648 103.97 42.912C104.018 42.16 104.042 41.408 104.042 40.656C104.058 39.904 104.066 39.192 104.066 38.52H112.37V51H110.138V40.392H106.202ZM115.505 44.784C115.505 43.68 115.665 42.72 115.985 41.904C116.305 41.072 116.729 40.384 117.257 39.84C117.785 39.296 118.393 38.888 119.081 38.616C119.769 38.344 120.473 38.208 121.193 38.208C122.873 38.208 124.161 38.736 125.057 39.792C125.953 40.832 126.401 42.424 126.401 44.568C126.401 44.664 126.401 44.792 126.401 44.952C126.401 45.096 126.393 45.232 126.377 45.36H117.833C117.929 46.656 118.305 47.64 118.961 48.312C119.617 48.984 120.641 49.32 122.033 49.32C122.817 49.32 123.473 49.256 124.001 49.128C124.545 48.984 124.953 48.848 125.225 48.72L125.537 50.592C125.265 50.736 124.785 50.888 124.097 51.048C123.425 51.208 122.657 51.288 121.793 51.288C120.705 51.288 119.761 51.128 118.961 50.808C118.177 50.472 117.529 50.016 117.017 49.44C116.505 48.864 116.121 48.184 115.865 47.4C115.625 46.6 115.505 45.728 115.505 44.784ZM124.073 43.56C124.089 42.552 123.833 41.728 123.305 41.088C122.793 40.432 122.081 40.104 121.169 40.104C120.657 40.104 120.201 40.208 119.801 40.416C119.417 40.608 119.089 40.864 118.817 41.184C118.545 41.504 118.329 41.872 118.169 42.288C118.025 42.704 117.929 43.128 117.881 43.56H124.073ZM139.832 51H137.6V45.48H131.84V51H129.608V38.52H131.84V43.608H137.6V38.52H139.832V51ZM154.158 38.52V51H151.998V41.496C151.518 42.104 150.99 42.816 150.414 43.632C149.838 44.448 149.262 45.296 148.686 46.176C148.11 47.04 147.558 47.896 147.03 48.744C146.502 49.592 146.046 50.344 145.662 51H143.67V38.52H145.83V47.496C146.246 46.808 146.718 46.056 147.246 45.24C147.774 44.408 148.318 43.592 148.878 42.792C149.454 41.976 150.022 41.2 150.582 40.464C151.158 39.712 151.694 39.064 152.19 38.52H154.158ZM160.222 43.68H162.958C163.054 42.848 163.262 42.096 163.582 41.424C163.918 40.752 164.334 40.176 164.83 39.696C165.326 39.216 165.894 38.848 166.534 38.592C167.174 38.336 167.862 38.208 168.598 38.208C169.414 38.208 170.166 38.368 170.854 38.688C171.558 38.992 172.166 39.432 172.678 40.008C173.19 40.584 173.59 41.28 173.878 42.096C174.166 42.896 174.31 43.784 174.31 44.76C174.31 45.752 174.166 46.648 173.878 47.448C173.59 48.248 173.19 48.936 172.678 49.512C172.166 50.088 171.558 50.536 170.854 50.856C170.166 51.16 169.414 51.312 168.598 51.312C167.83 51.312 167.11 51.176 166.438 50.904C165.782 50.616 165.206 50.224 164.71 49.728C164.214 49.216 163.806 48.6 163.486 47.88C163.182 47.16 162.998 46.36 162.934 45.48H160.222V51H157.99V38.52H160.222V43.68ZM172.006 44.76C172.006 43.352 171.694 42.24 171.07 41.424C170.462 40.592 169.638 40.176 168.598 40.176C167.558 40.176 166.726 40.592 166.102 41.424C165.494 42.24 165.19 43.352 165.19 44.76C165.19 46.168 165.494 47.288 166.102 48.12C166.726 48.936 167.558 49.344 168.598 49.344C169.638 49.344 170.462 48.936 171.07 48.12C171.694 47.288 172.006 46.168 172.006 44.76ZM179.327 48.264C179.343 48.392 179.351 48.52 179.351 48.648C179.351 48.76 179.351 48.88 179.351 49.008C179.351 50.016 179.199 51.008 178.895 51.984C178.607 52.976 178.207 53.92 177.695 54.816L175.967 54.264C176.367 53.448 176.631 52.616 176.759 51.768C176.887 50.936 176.951 50.152 176.951 49.416C176.951 49.208 176.943 49.008 176.927 48.816C176.927 48.624 176.919 48.44 176.903 48.264H179.327ZM197.244 44.712C197.244 45.672 197.116 46.552 196.86 47.352C196.62 48.152 196.244 48.848 195.732 49.44C195.22 50.016 194.58 50.472 193.812 50.808C193.044 51.128 192.148 51.288 191.124 51.288C190.228 51.288 189.436 51.216 188.748 51.072C188.06 50.928 187.588 50.784 187.332 50.64L187.644 48.744C187.788 48.824 187.98 48.896 188.22 48.96C188.46 49.024 188.724 49.088 189.012 49.152C189.316 49.2 189.628 49.24 189.948 49.272C190.268 49.304 190.588 49.32 190.908 49.32C192.204 49.32 193.172 48.984 193.812 48.312C194.468 47.624 194.844 46.68 194.94 45.48H189.852V43.68H194.892C194.748 42.608 194.364 41.76 193.74 41.136C193.132 40.496 192.228 40.176 191.028 40.176C190.372 40.176 189.796 40.232 189.3 40.344C188.804 40.44 188.42 40.552 188.148 40.68L187.668 38.88C187.828 38.8 188.036 38.72 188.292 38.64C188.564 38.56 188.852 38.488 189.156 38.424C189.476 38.36 189.804 38.312 190.14 38.28C190.476 38.232 190.804 38.208 191.124 38.208C192.132 38.208 193.012 38.376 193.764 38.712C194.532 39.048 195.172 39.512 195.684 40.104C196.196 40.696 196.58 41.384 196.836 42.168C197.108 42.952 197.244 43.8 197.244 44.712ZM209.197 38.52V40.392H205.141V51H202.909V40.392H198.853V38.52H209.197ZM222.514 44.76C222.514 45.752 222.37 46.648 222.082 47.448C221.794 48.248 221.386 48.936 220.858 49.512C220.346 50.088 219.73 50.536 219.01 50.856C218.29 51.16 217.506 51.312 216.658 51.312C215.81 51.312 215.026 51.16 214.306 50.856C213.586 50.536 212.962 50.088 212.434 49.512C211.922 48.936 211.522 48.248 211.234 47.448C210.946 46.648 210.802 45.752 210.802 44.76C210.802 43.784 210.946 42.896 211.234 42.096C211.522 41.28 211.922 40.584 212.434 40.008C212.962 39.432 213.586 38.992 214.306 38.688C215.026 38.368 215.81 38.208 216.658 38.208C217.506 38.208 218.29 38.368 219.01 38.688C219.73 38.992 220.346 39.432 220.858 40.008C221.386 40.584 221.794 41.28 222.082 42.096C222.37 42.896 222.514 43.784 222.514 44.76ZM220.186 44.76C220.186 43.352 219.866 42.24 219.226 41.424C218.602 40.592 217.746 40.176 216.658 40.176C215.57 40.176 214.706 40.592 214.066 41.424C213.442 42.24 213.13 43.352 213.13 44.76C213.13 46.168 213.442 47.288 214.066 48.12C214.706 48.936 215.57 49.344 216.658 49.344C217.746 49.344 218.602 48.936 219.226 48.12C219.866 47.288 220.186 46.168 220.186 44.76ZM36.144 87H33.912V81.48H28.152V87H25.92V74.52H28.152V79.608H33.912V74.52H36.144V87ZM39.2865 80.784C39.2865 79.68 39.4465 78.72 39.7665 77.904C40.0865 77.072 40.5105 76.384 41.0385 75.84C41.5665 75.296 42.1745 74.888 42.8625 74.616C43.5505 74.344 44.2545 74.208 44.9745 74.208C46.6545 74.208 47.9425 74.736 48.8385 75.792C49.7345 76.832 50.1825 78.424 50.1825 80.568C50.1825 80.664 50.1825 80.792 50.1825 80.952C50.1825 81.096 50.1745 81.232 50.1585 81.36H41.6145C41.7105 82.656 42.0865 83.64 42.7425 84.312C43.3985 84.984 44.4225 85.32 45.8145 85.32C46.5985 85.32 47.2545 85.256 47.7825 85.128C48.3265 84.984 48.7345 84.848 49.0065 84.72L49.3185 86.592C49.0465 86.736 48.5665 86.888 47.8785 87.048C47.2065 87.208 46.4385 87.288 45.5745 87.288C44.4865 87.288 43.5425 87.128 42.7425 86.808C41.9585 86.472 41.3105 86.016 40.7985 85.44C40.2865 84.864 39.9025 84.184 39.6465 83.4C39.4065 82.6 39.2865 81.728 39.2865 80.784ZM47.8545 79.56C47.8705 78.552 47.6145 77.728 47.0865 77.088C46.5745 76.432 45.8625 76.104 44.9505 76.104C44.4385 76.104 43.9825 76.208 43.5825 76.416C43.1985 76.608 42.8705 76.864 42.5985 77.184C42.3265 77.504 42.1105 77.872 41.9505 78.288C41.8065 78.704 41.7105 79.128 41.6625 79.56H47.8545ZM55.5728 85.32C55.6688 85.336 55.8048 85.352 55.9808 85.368C56.1568 85.384 56.3568 85.4 56.5808 85.416C56.8048 85.416 57.0368 85.424 57.2768 85.44C57.5328 85.44 57.7728 85.44 57.9968 85.44C58.4608 85.44 58.9008 85.408 59.3168 85.344C59.7488 85.28 60.1168 85.168 60.4208 85.008C60.7408 84.848 60.9888 84.64 61.1648 84.384C61.3568 84.112 61.4528 83.768 61.4528 83.352C61.4528 82.952 61.3648 82.624 61.1888 82.368C61.0288 82.096 60.8048 81.88 60.5168 81.72C60.2288 81.56 59.8848 81.448 59.4848 81.384C59.1008 81.32 58.6848 81.288 58.2368 81.288H55.5728V85.32ZM57.9488 79.632C58.3808 79.632 58.7728 79.608 59.1248 79.56C59.4928 79.496 59.8048 79.392 60.0608 79.248C60.3328 79.104 60.5408 78.912 60.6848 78.672C60.8448 78.432 60.9248 78.128 60.9248 77.76C60.9248 77.376 60.8288 77.072 60.6368 76.848C60.4448 76.624 60.1888 76.456 59.8688 76.344C59.5648 76.216 59.2128 76.136 58.8128 76.104C58.4288 76.056 58.0368 76.032 57.6367 76.032C57.2688 76.032 56.8928 76.04 56.5088 76.056C56.1408 76.072 55.8288 76.088 55.5728 76.104V79.632H57.9488ZM57.9008 87.216C56.9568 87.216 56.0848 87.168 55.2848 87.072C54.4848 86.992 53.8528 86.896 53.3888 86.784V74.64C53.8528 74.528 54.4848 74.432 55.2848 74.352C56.0848 74.256 56.9568 74.208 57.9008 74.208C58.5568 74.208 59.1968 74.264 59.8208 74.376C60.4448 74.488 60.9968 74.68 61.4768 74.952C61.9568 75.208 62.3408 75.568 62.6288 76.032C62.9328 76.48 63.0848 77.04 63.0848 77.712C63.0848 78.32 62.9328 78.84 62.6288 79.272C62.3248 79.704 61.9168 80.04 61.4048 80.28C62.0928 80.52 62.6368 80.88 63.0368 81.36C63.4528 81.824 63.6608 82.48 63.6608 83.328C63.6608 84.08 63.5088 84.704 63.2048 85.2C62.9168 85.696 62.5088 86.096 61.9808 86.4C61.4688 86.704 60.8608 86.912 60.1568 87.024C59.4528 87.152 58.7008 87.216 57.9008 87.216ZM65.8412 80.784C65.8412 79.68 66.0012 78.72 66.3212 77.904C66.6412 77.072 67.0652 76.384 67.5932 75.84C68.1212 75.296 68.7292 74.888 69.4172 74.616C70.1052 74.344 70.8092 74.208 71.5292 74.208C73.2092 74.208 74.4972 74.736 75.3932 75.792C76.2892 76.832 76.7372 78.424 76.7372 80.568C76.7372 80.664 76.7372 80.792 76.7372 80.952C76.7372 81.096 76.7292 81.232 76.7132 81.36H68.1692C68.2652 82.656 68.6412 83.64 69.2972 84.312C69.9532 84.984 70.9772 85.32 72.3692 85.32C73.1532 85.32 73.8092 85.256 74.3372 85.128C74.8812 84.984 75.2892 84.848 75.5612 84.72L75.8732 86.592C75.6012 86.736 75.1212 86.888 74.4332 87.048C73.7612 87.208 72.9932 87.288 72.1292 87.288C71.0412 87.288 70.0972 87.128 69.2972 86.808C68.5132 86.472 67.8652 86.016 67.3532 85.44C66.8412 84.864 66.4572 84.184 66.2012 83.4C65.9612 82.6 65.8412 81.728 65.8412 80.784ZM74.4092 79.56C74.4252 78.552 74.1692 77.728 73.6412 77.088C73.1292 76.432 72.4172 76.104 71.5052 76.104C70.9932 76.104 70.5372 76.208 70.1372 76.416C69.7532 76.608 69.4252 76.864 69.1532 77.184C68.8812 77.504 68.6652 77.872 68.5052 78.288C68.3612 78.704 68.2652 79.128 68.2172 79.56H74.4092ZM88.6074 80.784C88.6074 79.328 88.2474 78.208 87.5274 77.424C86.8074 76.64 85.8474 76.248 84.6474 76.248C83.9754 76.248 83.4474 76.272 83.0634 76.32C82.6954 76.368 82.3994 76.424 82.1754 76.488V84.36C82.4474 84.584 82.8394 84.8 83.3514 85.008C83.8634 85.216 84.4234 85.32 85.0314 85.32C85.6714 85.32 86.2154 85.208 86.6634 84.984C87.1274 84.744 87.5034 84.424 87.7914 84.024C88.0794 83.608 88.2874 83.128 88.4154 82.584C88.5434 82.024 88.6074 81.424 88.6074 80.784ZM90.9354 80.784C90.9354 81.728 90.8074 82.6 90.5514 83.4C90.3114 84.2 89.9514 84.888 89.4714 85.464C88.9914 86.04 88.3994 86.488 87.6954 86.808C87.0074 87.128 86.2154 87.288 85.3194 87.288C84.5994 87.288 83.9594 87.192 83.3994 87C82.8554 86.808 82.4474 86.624 82.1754 86.448V91.44H79.9434V74.904C80.4714 74.776 81.1274 74.64 81.9114 74.496C82.7114 74.336 83.6314 74.256 84.6714 74.256C85.6314 74.256 86.4954 74.408 87.2634 74.712C88.0314 75.016 88.6874 75.448 89.2314 76.008C89.7754 76.568 90.1914 77.256 90.4794 78.072C90.7834 78.872 90.9354 79.776 90.9354 80.784ZM104.3 87H102.068V81.48H96.3083V87H94.0763V74.52H96.3083V79.608H102.068V74.52H104.3V87ZM112.363 85.392C112.891 85.392 113.355 85.384 113.755 85.368C114.171 85.336 114.515 85.288 114.787 85.224V81.504C114.627 81.424 114.363 81.36 113.995 81.312C113.643 81.248 113.211 81.216 112.699 81.216C112.363 81.216 112.003 81.24 111.619 81.288C111.251 81.336 110.907 81.44 110.587 81.6C110.283 81.744 110.027 81.952 109.819 82.224C109.611 82.48 109.507 82.824 109.507 83.256C109.507 84.056 109.763 84.616 110.275 84.936C110.787 85.24 111.483 85.392 112.363 85.392ZM112.171 74.208C113.067 74.208 113.819 74.328 114.427 74.568C115.051 74.792 115.547 75.12 115.915 75.552C116.299 75.968 116.571 76.472 116.731 77.064C116.891 77.64 116.971 78.28 116.971 78.984V86.784C116.779 86.816 116.507 86.864 116.155 86.928C115.819 86.976 115.435 87.024 115.003 87.072C114.571 87.12 114.099 87.16 113.587 87.192C113.091 87.24 112.595 87.264 112.099 87.264C111.395 87.264 110.747 87.192 110.155 87.048C109.563 86.904 109.051 86.68 108.619 86.376C108.187 86.056 107.851 85.64 107.611 85.128C107.371 84.616 107.251 84 107.251 83.28C107.251 82.592 107.387 82 107.659 81.504C107.947 81.008 108.331 80.608 108.811 80.304C109.291 80 109.851 79.776 110.491 79.632C111.131 79.488 111.803 79.416 112.507 79.416C112.731 79.416 112.963 79.432 113.203 79.464C113.443 79.48 113.667 79.512 113.875 79.56C114.099 79.592 114.291 79.624 114.451 79.656C114.611 79.688 114.723 79.712 114.787 79.728V79.104C114.787 78.736 114.747 78.376 114.667 78.024C114.587 77.656 114.443 77.336 114.235 77.064C114.027 76.776 113.739 76.552 113.371 76.392C113.019 76.216 112.555 76.128 111.979 76.128C111.243 76.128 110.595 76.184 110.035 76.296C109.491 76.392 109.083 76.496 108.811 76.608L108.547 74.76C108.835 74.632 109.315 74.512 109.987 74.4C110.659 74.272 111.387 74.208 112.171 74.208ZM125.838 82.152C125.598 82.152 125.366 82.152 125.142 82.152C124.918 82.136 124.702 82.12 124.494 82.104C123.982 82.872 123.486 83.696 123.006 84.576C122.542 85.44 122.126 86.248 121.758 87H119.502C119.694 86.536 119.918 86.064 120.174 85.584C120.43 85.088 120.686 84.608 120.942 84.144C121.214 83.68 121.486 83.24 121.758 82.824C122.03 82.408 122.286 82.032 122.526 81.696C122.078 81.536 121.71 81.344 121.422 81.12C121.134 80.88 120.902 80.616 120.726 80.328C120.55 80.04 120.422 79.736 120.342 79.416C120.278 79.08 120.246 78.744 120.246 78.408C120.246 77.704 120.374 77.088 120.63 76.56C120.902 76.032 121.27 75.6 121.734 75.264C122.198 74.912 122.742 74.648 123.366 74.472C124.006 74.296 124.702 74.208 125.454 74.208C126.51 74.208 127.406 74.256 128.142 74.352C128.878 74.448 129.494 74.56 129.99 74.688V87H127.782V82.152H125.838ZM127.782 76.176C127.606 76.144 127.31 76.112 126.894 76.08C126.494 76.048 126.03 76.032 125.502 76.032C124.59 76.032 123.854 76.224 123.294 76.608C122.734 76.976 122.454 77.568 122.454 78.384C122.454 79.184 122.742 79.736 123.318 80.04C123.894 80.344 124.638 80.496 125.55 80.496H127.782V76.176ZM143.941 80.208C144.437 80.56 144.973 81.008 145.549 81.552C146.125 82.08 146.685 82.656 147.229 83.28C147.789 83.904 148.309 84.544 148.789 85.2C149.269 85.84 149.677 86.44 150.013 87H147.373C147.021 86.456 146.605 85.904 146.125 85.344C145.661 84.768 145.173 84.216 144.661 83.688C144.149 83.16 143.629 82.672 143.101 82.224C142.573 81.776 142.077 81.4 141.613 81.096V87H139.381V74.52H141.613V79.872C141.997 79.504 142.437 79.08 142.933 78.6C143.429 78.104 143.925 77.608 144.421 77.112C144.933 76.6 145.405 76.12 145.837 75.672C146.269 75.208 146.621 74.824 146.893 74.52H149.485C149.133 74.904 148.717 75.344 148.237 75.84C147.773 76.32 147.285 76.816 146.773 77.328C146.277 77.84 145.781 78.352 145.285 78.864C144.789 79.36 144.341 79.808 143.941 80.208ZM162.584 80.76C162.584 81.752 162.44 82.648 162.152 83.448C161.864 84.248 161.456 84.936 160.928 85.512C160.416 86.088 159.8 86.536 159.08 86.856C158.36 87.16 157.576 87.312 156.728 87.312C155.88 87.312 155.096 87.16 154.376 86.856C153.656 86.536 153.032 86.088 152.504 85.512C151.992 84.936 151.592 84.248 151.304 83.448C151.016 82.648 150.872 81.752 150.872 80.76C150.872 79.784 151.016 78.896 151.304 78.096C151.592 77.28 151.992 76.584 152.504 76.008C153.032 75.432 153.656 74.992 154.376 74.688C155.096 74.368 155.88 74.208 156.728 74.208C157.576 74.208 158.36 74.368 159.08 74.688C159.8 74.992 160.416 75.432 160.928 76.008C161.456 76.584 161.864 77.28 162.152 78.096C162.44 78.896 162.584 79.784 162.584 80.76ZM160.256 80.76C160.256 79.352 159.936 78.24 159.296 77.424C158.672 76.592 157.816 76.176 156.728 76.176C155.64 76.176 154.776 76.592 154.136 77.424C153.512 78.24 153.2 79.352 153.2 80.76C153.2 82.168 153.512 83.288 154.136 84.12C154.776 84.936 155.64 85.344 156.728 85.344C157.816 85.344 158.672 84.936 159.296 84.12C159.936 83.288 160.256 82.168 160.256 80.76ZM170.069 76.392C170.069 76.92 170.053 77.488 170.021 78.096C170.005 78.688 169.965 79.288 169.901 79.896C169.837 80.488 169.749 81.08 169.637 81.672C169.525 82.248 169.381 82.792 169.205 83.304C169.029 83.816 168.805 84.296 168.533 84.744C168.277 85.192 167.957 85.592 167.573 85.944C167.189 86.28 166.741 86.568 166.229 86.808C165.717 87.032 165.117 87.176 164.429 87.24L164.117 85.368C164.901 85.208 165.517 84.912 165.965 84.48C166.429 84.048 166.797 83.52 167.069 82.896C167.309 82.352 167.485 81.736 167.597 81.048C167.709 80.36 167.789 79.648 167.837 78.912C167.885 78.16 167.909 77.408 167.909 76.656C167.925 75.904 167.933 75.192 167.933 74.52H176.237V87H174.005V76.392H170.069ZM182.084 75.96C182.58 75.56 183.156 75.256 183.812 75.048C184.484 74.824 185.124 74.712 185.732 74.712C187.524 74.712 188.876 75.264 189.788 76.368C190.716 77.456 191.18 78.976 191.18 80.928C191.18 81.76 191.068 82.56 190.844 83.328C190.62 84.096 190.268 84.776 189.788 85.368C189.324 85.96 188.732 86.432 188.012 86.784C187.292 87.136 186.436 87.312 185.444 87.312C184.308 87.312 183.364 87.104 182.612 86.688C181.86 86.272 181.26 85.704 180.812 84.984C180.38 84.264 180.076 83.424 179.9 82.464C179.724 81.504 179.636 80.488 179.636 79.416C179.636 78.024 179.732 76.728 179.924 75.528C180.132 74.328 180.5 73.272 181.028 72.36C181.556 71.448 182.284 70.696 183.212 70.104C184.156 69.496 185.364 69.088 186.836 68.88C187.268 68.816 187.644 68.768 187.964 68.736C188.3 68.688 188.588 68.648 188.828 68.616C189.084 68.584 189.316 68.552 189.524 68.52C189.732 68.472 189.948 68.424 190.172 68.376L190.412 70.392C190.3 70.424 190.18 70.448 190.052 70.464C189.94 70.48 189.772 70.504 189.548 70.536C189.34 70.568 189.052 70.608 188.684 70.656C188.332 70.704 187.868 70.76 187.292 70.824C185.708 71 184.492 71.48 183.644 72.264C182.796 73.048 182.276 74.28 182.084 75.96ZM181.94 79.776C181.94 80.528 181.988 81.24 182.084 81.912C182.196 82.584 182.38 83.176 182.636 83.688C182.908 84.2 183.268 84.608 183.716 84.912C184.164 85.2 184.74 85.344 185.444 85.344C186.052 85.344 186.572 85.232 187.004 85.008C187.436 84.768 187.788 84.448 188.06 84.048C188.332 83.648 188.532 83.184 188.66 82.656C188.788 82.112 188.852 81.536 188.852 80.928C188.852 80.384 188.796 79.856 188.684 79.344C188.588 78.832 188.404 78.376 188.132 77.976C187.86 77.576 187.492 77.256 187.028 77.016C186.58 76.776 186.012 76.656 185.324 76.656C184.652 76.656 184.004 76.8 183.38 77.088C182.772 77.376 182.3 77.728 181.964 78.144C181.948 78.32 181.94 78.568 181.94 78.888C181.94 79.208 181.94 79.504 181.94 79.776ZM198.566 85.392C199.094 85.392 199.558 85.384 199.958 85.368C200.374 85.336 200.718 85.288 200.99 85.224V81.504C200.83 81.424 200.566 81.36 200.198 81.312C199.846 81.248 199.414 81.216 198.902 81.216C198.566 81.216 198.206 81.24 197.822 81.288C197.454 81.336 197.11 81.44 196.79 81.6C196.486 81.744 196.23 81.952 196.022 82.224C195.814 82.48 195.71 82.824 195.71 83.256C195.71 84.056 195.966 84.616 196.478 84.936C196.99 85.24 197.686 85.392 198.566 85.392ZM198.374 74.208C199.27 74.208 200.022 74.328 200.63 74.568C201.254 74.792 201.75 75.12 202.118 75.552C202.502 75.968 202.774 76.472 202.934 77.064C203.094 77.64 203.174 78.28 203.174 78.984V86.784C202.982 86.816 202.71 86.864 202.358 86.928C202.022 86.976 201.638 87.024 201.206 87.072C200.774 87.12 200.302 87.16 199.79 87.192C199.294 87.24 198.798 87.264 198.302 87.264C197.598 87.264 196.95 87.192 196.358 87.048C195.766 86.904 195.254 86.68 194.822 86.376C194.39 86.056 194.054 85.64 193.814 85.128C193.574 84.616 193.454 84 193.454 83.28C193.454 82.592 193.59 82 193.862 81.504C194.15 81.008 194.534 80.608 195.014 80.304C195.494 80 196.054 79.776 196.694 79.632C197.334 79.488 198.006 79.416 198.71 79.416C198.934 79.416 199.166 79.432 199.406 79.464C199.646 79.48 199.87 79.512 200.078 79.56C200.302 79.592 200.494 79.624 200.654 79.656C200.814 79.688 200.926 79.712 200.99 79.728V79.104C200.99 78.736 200.95 78.376 200.87 78.024C200.79 77.656 200.646 77.336 200.438 77.064C200.23 76.776 199.942 76.552 199.574 76.392C199.222 76.216 198.758 76.128 198.182 76.128C197.446 76.128 196.798 76.184 196.238 76.296C195.694 76.392 195.286 76.496 195.014 76.608L194.75 74.76C195.038 74.632 195.518 74.512 196.19 74.4C196.862 74.272 197.59 74.208 198.374 74.208ZM209.521 85.704C209.521 86.136 209.377 86.512 209.089 86.832C208.801 87.152 208.409 87.312 207.913 87.312C207.417 87.312 207.025 87.152 206.737 86.832C206.449 86.512 206.305 86.136 206.305 85.704C206.305 85.272 206.449 84.896 206.737 84.576C207.025 84.256 207.417 84.096 207.913 84.096C208.409 84.096 208.801 84.256 209.089 84.576C209.377 84.896 209.521 85.272 209.521 85.704Z" fill="#DBE2F9"/>
<rect x="1" y="1" width="313" height="118" rx="11" stroke="#89E159" stroke-width="2"/>
</svg>
