<svg width="438" height="123" viewBox="0 0 438 123" fill="none" xmlns="http://www.w3.org/2000/svg">
<rect x="1" y="1" width="354" height="82" rx="11" stroke="#89E159" stroke-width="2"/>
<path d="M38.712 34.368V51H36.384V36.36H28.392V51H26.064V34.368H38.712ZM53.7173 44.76C53.7173 45.752 53.5733 46.648 53.2853 47.448C52.9973 48.248 52.5893 48.936 52.0613 49.512C51.5493 50.088 50.9333 50.536 50.2133 50.856C49.4933 51.16 48.7093 51.312 47.8613 51.312C47.0133 51.312 46.2293 51.16 45.5093 50.856C44.7893 50.536 44.1653 50.088 43.6373 49.512C43.1253 48.936 42.7253 48.248 42.4373 47.448C42.1493 46.648 42.0053 45.752 42.0053 44.76C42.0053 43.784 42.1493 42.896 42.4373 42.096C42.7253 41.28 43.1253 40.584 43.6373 40.008C44.1653 39.432 44.7893 38.992 45.5093 38.688C46.2293 38.368 47.0133 38.208 47.8613 38.208C48.7093 38.208 49.4933 38.368 50.2133 38.688C50.9333 38.992 51.5493 39.432 52.0613 40.008C52.5893 40.584 52.9973 41.28 53.2853 42.096C53.5733 42.896 53.7173 43.784 53.7173 44.76ZM51.3893 44.76C51.3893 43.352 51.0693 42.24 50.4293 41.424C49.8053 40.592 48.9493 40.176 47.8613 40.176C46.7733 40.176 45.9093 40.592 45.2693 41.424C44.6453 42.24 44.3333 43.352 44.3333 44.76C44.3333 46.168 44.6453 47.288 45.2693 48.12C45.9093 48.936 46.7733 49.344 47.8613 49.344C48.9493 49.344 49.8053 48.936 50.4293 48.12C51.0693 47.288 51.3893 46.168 51.3893 44.76ZM59.2335 41.808C59.0735 43.392 58.9535 44.976 58.8735 46.56C58.7935 48.128 58.7295 49.608 58.6815 51H56.5455C56.5775 50.024 56.6255 49.008 56.6895 47.952C56.7535 46.88 56.8255 45.808 56.9055 44.736C56.9855 43.648 57.0735 42.584 57.1695 41.544C57.2655 40.488 57.3695 39.48 57.4815 38.52H59.5215C60.0335 39.352 60.6335 40.496 61.3215 41.952C62.0095 43.392 62.8015 45.056 63.6975 46.944C64.5935 45.056 65.3855 43.392 66.0735 41.952C66.7615 40.496 67.3615 39.352 67.8735 38.52H69.9375C70.0495 39.48 70.1535 40.488 70.2495 41.544C70.3455 42.584 70.4335 43.648 70.5135 44.736C70.5935 45.808 70.6655 46.88 70.7295 47.952C70.7935 49.008 70.8415 50.024 70.8735 51H68.6655C68.6175 49.608 68.5535 48.128 68.4735 46.56C68.3935 44.976 68.2735 43.392 68.1135 41.808C67.8575 42.304 67.5615 42.904 67.2255 43.608C66.8895 44.296 66.5535 45 66.2175 45.72C65.8975 46.44 65.5935 47.128 65.3055 47.784C65.0175 48.44 64.7935 48.96 64.6335 49.344H62.7615C62.5855 48.944 62.3455 48.416 62.0415 47.76C61.7535 47.104 61.4415 46.416 61.1055 45.696C60.7855 44.96 60.4575 44.248 60.1215 43.56C59.7855 42.856 59.4895 42.272 59.2335 41.808ZM84.9002 38.52V51H82.7402V41.496C82.2602 42.104 81.7322 42.816 81.1562 43.632C80.5802 44.448 80.0042 45.296 79.4282 46.176C78.8522 47.04 78.3002 47.896 77.7722 48.744C77.2442 49.592 76.7882 50.344 76.4042 51H74.4122V38.52H76.5722V47.496C76.9882 46.808 77.4602 46.056 77.9882 45.24C78.5162 44.408 79.0602 43.592 79.6202 42.792C80.1962 41.976 80.7642 41.2 81.3242 40.464C81.9002 39.712 82.4362 39.064 82.9322 38.52H84.9002ZM87.1965 49.176H88.5405C89.0685 48.408 89.4845 47.616 89.7885 46.8C90.1085 45.984 90.3485 45.144 90.5085 44.28C90.6685 43.4 90.7725 42.488 90.8205 41.544C90.8685 40.584 90.9005 39.576 90.9165 38.52H99.1005V49.176H100.781V54.48H98.6685V51H89.3085V54.48H87.1965V49.176ZM96.8685 49.176V40.392H92.9565C92.9405 41.144 92.9005 41.904 92.8365 42.672C92.7725 43.424 92.6685 44.176 92.5245 44.928C92.3805 45.664 92.1725 46.392 91.9005 47.112C91.6445 47.816 91.3165 48.504 90.9165 49.176H96.8685ZM114.209 44.76C114.209 45.752 114.065 46.648 113.777 47.448C113.489 48.248 113.081 48.936 112.553 49.512C112.041 50.088 111.425 50.536 110.705 50.856C109.985 51.16 109.201 51.312 108.353 51.312C107.505 51.312 106.721 51.16 106.001 50.856C105.281 50.536 104.657 50.088 104.129 49.512C103.617 48.936 103.217 48.248 102.929 47.448C102.641 46.648 102.497 45.752 102.497 44.76C102.497 43.784 102.641 42.896 102.929 42.096C103.217 41.28 103.617 40.584 104.129 40.008C104.657 39.432 105.281 38.992 106.001 38.688C106.721 38.368 107.505 38.208 108.353 38.208C109.201 38.208 109.985 38.368 110.705 38.688C111.425 38.992 112.041 39.432 112.553 40.008C113.081 40.584 113.489 41.28 113.777 42.096C114.065 42.896 114.209 43.784 114.209 44.76ZM111.881 44.76C111.881 43.352 111.561 42.24 110.921 41.424C110.297 40.592 109.441 40.176 108.353 40.176C107.265 40.176 106.401 40.592 105.761 41.424C105.137 42.24 104.825 43.352 104.825 44.76C104.825 46.168 105.137 47.288 105.761 48.12C106.401 48.936 107.265 49.344 108.353 49.344C109.441 49.344 110.297 48.936 110.921 48.12C111.561 47.288 111.881 46.168 111.881 44.76ZM126.014 44.784C126.014 43.328 125.654 42.208 124.934 41.424C124.214 40.64 123.254 40.248 122.054 40.248C121.382 40.248 120.854 40.272 120.47 40.32C120.102 40.368 119.806 40.424 119.582 40.488V48.36C119.854 48.584 120.246 48.8 120.758 49.008C121.27 49.216 121.83 49.32 122.438 49.32C123.078 49.32 123.622 49.208 124.07 48.984C124.534 48.744 124.91 48.424 125.198 48.024C125.486 47.608 125.694 47.128 125.822 46.584C125.95 46.024 126.014 45.424 126.014 44.784ZM128.342 44.784C128.342 45.728 128.214 46.6 127.958 47.4C127.718 48.2 127.358 48.888 126.878 49.464C126.398 50.04 125.806 50.488 125.102 50.808C124.414 51.128 123.622 51.288 122.726 51.288C122.006 51.288 121.366 51.192 120.806 51C120.262 50.808 119.854 50.624 119.582 50.448V55.44H117.35V38.904C117.878 38.776 118.534 38.64 119.318 38.496C120.118 38.336 121.038 38.256 122.078 38.256C123.038 38.256 123.902 38.408 124.67 38.712C125.438 39.016 126.094 39.448 126.638 40.008C127.182 40.568 127.598 41.256 127.886 42.072C128.19 42.872 128.342 43.776 128.342 44.784ZM139.413 41.808C139.253 43.392 139.133 44.976 139.053 46.56C138.973 48.128 138.909 49.608 138.861 51H136.725C136.757 50.024 136.805 49.008 136.869 47.952C136.933 46.88 137.005 45.808 137.085 44.736C137.165 43.648 137.253 42.584 137.349 41.544C137.445 40.488 137.549 39.48 137.661 38.52H139.701C140.213 39.352 140.813 40.496 141.501 41.952C142.189 43.392 142.981 45.056 143.877 46.944C144.773 45.056 145.565 43.392 146.253 41.952C146.941 40.496 147.541 39.352 148.053 38.52H150.117C150.229 39.48 150.333 40.488 150.429 41.544C150.525 42.584 150.613 43.648 150.693 44.736C150.773 45.808 150.845 46.88 150.909 47.952C150.973 49.008 151.021 50.024 151.053 51H148.845C148.797 49.608 148.733 48.128 148.653 46.56C148.573 44.976 148.453 43.392 148.293 41.808C148.037 42.304 147.741 42.904 147.405 43.608C147.069 44.296 146.733 45 146.397 45.72C146.077 46.44 145.773 47.128 145.485 47.784C145.197 48.44 144.973 48.96 144.813 49.344H142.941C142.765 48.944 142.525 48.416 142.221 47.76C141.933 47.104 141.621 46.416 141.285 45.696C140.965 44.96 140.637 44.248 140.301 43.56C139.965 42.856 139.669 42.272 139.413 41.808ZM165.608 44.76C165.608 45.752 165.464 46.648 165.176 47.448C164.888 48.248 164.48 48.936 163.952 49.512C163.44 50.088 162.824 50.536 162.104 50.856C161.384 51.16 160.6 51.312 159.752 51.312C158.904 51.312 158.12 51.16 157.4 50.856C156.68 50.536 156.056 50.088 155.528 49.512C155.016 48.936 154.616 48.248 154.328 47.448C154.04 46.648 153.896 45.752 153.896 44.76C153.896 43.784 154.04 42.896 154.328 42.096C154.616 41.28 155.016 40.584 155.528 40.008C156.056 39.432 156.68 38.992 157.4 38.688C158.12 38.368 158.904 38.208 159.752 38.208C160.6 38.208 161.384 38.368 162.104 38.688C162.824 38.992 163.44 39.432 163.952 40.008C164.48 40.584 164.888 41.28 165.176 42.096C165.464 42.896 165.608 43.784 165.608 44.76ZM163.28 44.76C163.28 43.352 162.96 42.24 162.32 41.424C161.696 40.592 160.84 40.176 159.752 40.176C158.664 40.176 157.8 40.592 157.16 41.424C156.536 42.24 156.224 43.352 156.224 44.76C156.224 46.168 156.536 47.288 157.16 48.12C157.8 48.936 158.664 49.344 159.752 49.344C160.84 49.344 161.696 48.936 162.32 48.12C162.96 47.288 163.28 46.168 163.28 44.76ZM167.212 49.176H168.556C169.084 48.408 169.5 47.616 169.804 46.8C170.124 45.984 170.364 45.144 170.524 44.28C170.684 43.4 170.788 42.488 170.836 41.544C170.884 40.584 170.916 39.576 170.932 38.52H179.116V49.176H180.796V54.48H178.684V51H169.324V54.48H167.212V49.176ZM176.884 49.176V40.392H172.972C172.956 41.144 172.916 41.904 172.852 42.672C172.788 43.424 172.684 44.176 172.54 44.928C172.396 45.664 172.188 46.392 171.916 47.112C171.66 47.816 171.332 48.504 170.932 49.176H176.884ZM193.697 38.52V51H191.537V41.496C191.057 42.104 190.529 42.816 189.953 43.632C189.377 44.448 188.801 45.296 188.225 46.176C187.649 47.04 187.097 47.896 186.569 48.744C186.041 49.592 185.585 50.344 185.201 51H183.209V38.52H185.369V47.496C185.785 46.808 186.257 46.056 186.785 45.24C187.313 44.408 187.857 43.592 188.417 42.792C188.993 41.976 189.561 41.2 190.121 40.464C190.697 39.712 191.233 39.064 191.729 38.52H193.697ZM199.089 44.76C199.089 45.464 199.201 46.088 199.425 46.632C199.665 47.176 199.993 47.64 200.409 48.024C200.825 48.392 201.313 48.68 201.873 48.888C202.449 49.08 203.065 49.184 203.721 49.2V40.32C203.065 40.336 202.449 40.448 201.873 40.656C201.313 40.864 200.825 41.16 200.409 41.544C199.993 41.912 199.665 42.368 199.425 42.912C199.201 43.456 199.089 44.072 199.089 44.76ZM205.881 49.2C206.537 49.184 207.145 49.08 207.705 48.888C208.281 48.68 208.777 48.392 209.193 48.024C209.609 47.64 209.929 47.176 210.153 46.632C210.393 46.088 210.513 45.464 210.513 44.76C210.513 44.072 210.393 43.456 210.153 42.912C209.929 42.368 209.609 41.912 209.193 41.544C208.777 41.16 208.281 40.864 207.705 40.656C207.145 40.448 206.537 40.336 205.881 40.32V49.2ZM205.881 55.44H203.721V51.072C202.777 51.056 201.889 50.904 201.057 50.616C200.225 50.328 199.489 49.92 198.849 49.392C198.225 48.848 197.729 48.192 197.361 47.424C196.993 46.64 196.809 45.752 196.809 44.76C196.809 43.768 196.993 42.888 197.361 42.12C197.729 41.336 198.225 40.68 198.849 40.152C199.489 39.608 200.225 39.192 201.057 38.904C201.889 38.616 202.777 38.464 203.721 38.448V32.76L205.881 32.376V38.448C206.809 38.464 207.689 38.616 208.521 38.904C209.369 39.192 210.105 39.608 210.729 40.152C211.369 40.68 211.873 41.336 212.241 42.12C212.609 42.888 212.793 43.768 212.793 44.76C212.793 45.752 212.609 46.64 212.241 47.424C211.873 48.192 211.369 48.848 210.729 49.392C210.105 49.92 209.369 50.328 208.521 50.616C207.689 50.904 206.809 51.056 205.881 51.072V55.44ZM226.392 38.52V51H224.232V41.496C223.752 42.104 223.224 42.816 222.648 43.632C222.072 44.448 221.496 45.296 220.92 46.176C220.344 47.04 219.792 47.896 219.264 48.744C218.736 49.592 218.28 50.344 217.896 51H215.904V38.52H218.064V47.496C218.48 46.808 218.952 46.056 219.48 45.24C220.008 44.408 220.552 43.592 221.112 42.792C221.688 41.976 222.256 41.2 222.816 40.464C223.392 39.712 223.928 39.064 224.424 38.52H226.392ZM240.185 49.152H241.865V54.48H239.753V51H230.225V38.52H232.457V49.152H237.953V38.52H240.185V49.152ZM254.775 38.52V51H252.615V41.496C252.135 42.104 251.607 42.816 251.031 43.632C250.455 44.448 249.879 45.296 249.303 46.176C248.727 47.04 248.175 47.896 247.647 48.744C247.119 49.592 246.663 50.344 246.279 51H244.287V38.52H246.447V47.496C246.863 46.808 247.335 46.056 247.863 45.24C248.391 44.408 248.935 43.592 249.495 42.792C250.071 41.976 250.639 41.2 251.199 40.464C251.775 39.712 252.311 39.064 252.807 38.52H254.775ZM267.272 44.784C267.272 43.328 266.912 42.208 266.192 41.424C265.472 40.64 264.512 40.248 263.312 40.248C262.64 40.248 262.112 40.272 261.728 40.32C261.36 40.368 261.064 40.424 260.84 40.488V48.36C261.112 48.584 261.504 48.8 262.016 49.008C262.528 49.216 263.088 49.32 263.696 49.32C264.336 49.32 264.88 49.208 265.328 48.984C265.792 48.744 266.168 48.424 266.456 48.024C266.744 47.608 266.952 47.128 267.08 46.584C267.208 46.024 267.272 45.424 267.272 44.784ZM269.6 44.784C269.6 45.728 269.472 46.6 269.216 47.4C268.976 48.2 268.616 48.888 268.136 49.464C267.656 50.04 267.064 50.488 266.36 50.808C265.672 51.128 264.88 51.288 263.984 51.288C263.264 51.288 262.624 51.192 262.064 51C261.52 50.808 261.112 50.624 260.84 50.448V55.44H258.608V38.904C259.136 38.776 259.792 38.64 260.576 38.496C261.376 38.336 262.296 38.256 263.336 38.256C264.296 38.256 265.16 38.408 265.928 38.712C266.696 39.016 267.352 39.448 267.896 40.008C268.44 40.568 268.856 41.256 269.144 42.072C269.448 42.872 269.6 43.776 269.6 44.784ZM283.756 44.76C283.756 45.752 283.612 46.648 283.324 47.448C283.036 48.248 282.628 48.936 282.1 49.512C281.588 50.088 280.972 50.536 280.252 50.856C279.532 51.16 278.748 51.312 277.9 51.312C277.052 51.312 276.268 51.16 275.548 50.856C274.828 50.536 274.204 50.088 273.676 49.512C273.164 48.936 272.764 48.248 272.476 47.448C272.188 46.648 272.044 45.752 272.044 44.76C272.044 43.784 272.188 42.896 272.476 42.096C272.764 41.28 273.164 40.584 273.676 40.008C274.204 39.432 274.828 38.992 275.548 38.688C276.268 38.368 277.052 38.208 277.9 38.208C278.748 38.208 279.532 38.368 280.252 38.688C280.972 38.992 281.588 39.432 282.1 40.008C282.628 40.584 283.036 41.28 283.324 42.096C283.612 42.896 283.756 43.784 283.756 44.76ZM281.428 44.76C281.428 43.352 281.108 42.24 280.468 41.424C279.844 40.592 278.988 40.176 277.9 40.176C276.812 40.176 275.948 40.592 275.308 41.424C274.684 42.24 274.372 43.352 274.372 44.76C274.372 46.168 274.684 47.288 275.308 48.12C275.948 48.936 276.812 49.344 277.9 49.344C278.988 49.344 279.844 48.936 280.468 48.12C281.108 47.288 281.428 46.168 281.428 44.76ZM289.081 49.32C289.177 49.336 289.313 49.352 289.489 49.368C289.665 49.384 289.865 49.4 290.089 49.416C290.313 49.416 290.545 49.424 290.785 49.44C291.041 49.44 291.281 49.44 291.505 49.44C291.969 49.44 292.409 49.408 292.825 49.344C293.257 49.28 293.625 49.168 293.929 49.008C294.249 48.848 294.497 48.64 294.673 48.384C294.865 48.112 294.961 47.768 294.961 47.352C294.961 46.952 294.873 46.624 294.697 46.368C294.537 46.096 294.313 45.88 294.025 45.72C293.737 45.56 293.393 45.448 292.993 45.384C292.609 45.32 292.193 45.288 291.745 45.288H289.081V49.32ZM291.457 43.632C291.889 43.632 292.281 43.608 292.633 43.56C293.001 43.496 293.313 43.392 293.569 43.248C293.841 43.104 294.049 42.912 294.193 42.672C294.353 42.432 294.433 42.128 294.433 41.76C294.433 41.376 294.337 41.072 294.145 40.848C293.953 40.624 293.697 40.456 293.377 40.344C293.073 40.216 292.721 40.136 292.321 40.104C291.937 40.056 291.545 40.032 291.145 40.032C290.777 40.032 290.401 40.04 290.017 40.056C289.649 40.072 289.337 40.088 289.081 40.104V43.632H291.457ZM291.409 51.216C290.465 51.216 289.593 51.168 288.793 51.072C287.993 50.992 287.361 50.896 286.897 50.784V38.64C287.361 38.528 287.993 38.432 288.793 38.352C289.593 38.256 290.465 38.208 291.409 38.208C292.065 38.208 292.705 38.264 293.329 38.376C293.953 38.488 294.505 38.68 294.985 38.952C295.465 39.208 295.849 39.568 296.137 40.032C296.441 40.48 296.593 41.04 296.593 41.712C296.593 42.32 296.441 42.84 296.137 43.272C295.833 43.704 295.425 44.04 294.913 44.28C295.601 44.52 296.145 44.88 296.545 45.36C296.961 45.824 297.169 46.48 297.169 47.328C297.169 48.08 297.017 48.704 296.713 49.2C296.425 49.696 296.017 50.096 295.489 50.4C294.977 50.704 294.369 50.912 293.665 51.024C292.961 51.152 292.209 51.216 291.409 51.216ZM304.269 49.392C304.797 49.392 305.261 49.384 305.661 49.368C306.077 49.336 306.421 49.288 306.693 49.224V45.504C306.533 45.424 306.269 45.36 305.901 45.312C305.549 45.248 305.117 45.216 304.605 45.216C304.269 45.216 303.909 45.24 303.525 45.288C303.157 45.336 302.813 45.44 302.493 45.6C302.189 45.744 301.933 45.952 301.725 46.224C301.517 46.48 301.413 46.824 301.413 47.256C301.413 48.056 301.669 48.616 302.181 48.936C302.693 49.24 303.389 49.392 304.269 49.392ZM304.077 38.208C304.973 38.208 305.725 38.328 306.333 38.568C306.957 38.792 307.453 39.12 307.821 39.552C308.205 39.968 308.477 40.472 308.637 41.064C308.797 41.64 308.877 42.28 308.877 42.984V50.784C308.685 50.816 308.413 50.864 308.061 50.928C307.725 50.976 307.341 51.024 306.909 51.072C306.477 51.12 306.005 51.16 305.493 51.192C304.997 51.24 304.501 51.264 304.005 51.264C303.301 51.264 302.653 51.192 302.061 51.048C301.469 50.904 300.957 50.68 300.525 50.376C300.093 50.056 299.757 49.64 299.517 49.128C299.277 48.616 299.157 48 299.157 47.28C299.157 46.592 299.293 46 299.565 45.504C299.853 45.008 300.237 44.608 300.717 44.304C301.197 44 301.757 43.776 302.397 43.632C303.037 43.488 303.709 43.416 304.413 43.416C304.637 43.416 304.869 43.432 305.109 43.464C305.349 43.48 305.573 43.512 305.781 43.56C306.005 43.592 306.197 43.624 306.357 43.656C306.517 43.688 306.629 43.712 306.693 43.728V43.104C306.693 42.736 306.653 42.376 306.573 42.024C306.493 41.656 306.349 41.336 306.141 41.064C305.933 40.776 305.645 40.552 305.277 40.392C304.925 40.216 304.461 40.128 303.885 40.128C303.149 40.128 302.501 40.184 301.941 40.296C301.397 40.392 300.989 40.496 300.717 40.608L300.453 38.76C300.741 38.632 301.221 38.512 301.893 38.4C302.565 38.272 303.293 38.208 304.077 38.208ZM322.808 51H320.576V45.48H314.816V51H312.584V38.52H314.816V43.608H320.576V38.52H322.808V51ZM329.239 38.88C329.239 40.224 329.191 41.448 329.095 42.552C328.999 43.64 328.879 44.728 328.735 45.816H327.343C327.199 44.728 327.079 43.64 326.983 42.552C326.887 41.448 326.839 40.224 326.839 38.88V34.368H329.239V38.88ZM329.647 49.704C329.647 50.136 329.503 50.512 329.215 50.832C328.927 51.152 328.535 51.312 328.039 51.312C327.543 51.312 327.151 51.152 326.863 50.832C326.575 50.512 326.431 50.136 326.431 49.704C326.431 49.272 326.575 48.896 326.863 48.576C327.151 48.256 327.543 48.096 328.039 48.096C328.535 48.096 328.927 48.256 329.215 48.576C329.503 48.896 329.647 49.272 329.647 49.704Z" fill="#DBE2F9"/>
<circle cx="386.5" cy="93.5" r="16.5" stroke="#89E159" stroke-width="2"/>
<circle cx="428" cy="113" r="9" stroke="#89E159" stroke-width="2"/>
</svg>
