<svg width="397" height="139" viewBox="0 0 397 139" fill="none" xmlns="http://www.w3.org/2000/svg">
<circle cx="345.5" cy="109.5" r="16.5" stroke="#89E159" stroke-width="2"/>
<circle cx="387" cy="129" r="9" stroke="#89E159" stroke-width="2"/>
<path d="M38.376 34.368C37.88 34.912 37.32 35.52 36.696 36.192C36.072 36.848 35.416 37.528 34.728 38.232C34.056 38.92 33.384 39.6 32.712 40.272C32.04 40.944 31.408 41.568 30.816 42.144C31.504 42.624 32.232 43.216 33 43.92C33.768 44.624 34.52 45.376 35.256 46.176C35.992 46.976 36.68 47.792 37.32 48.624C37.976 49.456 38.52 50.248 38.952 51H36.216C35.736 50.248 35.184 49.496 34.56 48.744C33.936 47.976 33.272 47.248 32.568 46.56C31.88 45.856 31.176 45.208 30.456 44.616C29.752 44.024 29.064 43.52 28.392 43.104V51H26.064V34.368H28.392V41.712C28.952 41.184 29.568 40.592 30.24 39.936C30.912 39.264 31.576 38.592 32.232 37.92C32.888 37.248 33.504 36.608 34.08 36C34.672 35.376 35.168 34.832 35.568 34.368H38.376ZM51.9924 51.288C50.9844 51.288 50.0964 51.128 49.3284 50.808C48.5764 50.488 47.9364 50.04 47.4084 49.464C46.8964 48.888 46.5124 48.208 46.2564 47.424C46.0004 46.624 45.8724 45.744 45.8724 44.784C45.8724 43.824 46.0084 42.944 46.2804 42.144C46.5684 41.344 46.9684 40.656 47.4804 40.08C47.9924 39.488 48.6164 39.032 49.3524 38.712C50.1044 38.376 50.9364 38.208 51.8484 38.208C52.4084 38.208 52.9684 38.256 53.5284 38.352C54.0884 38.448 54.6244 38.6 55.1364 38.808L54.6324 40.704C54.2964 40.544 53.9044 40.416 53.4564 40.32C53.0244 40.224 52.5604 40.176 52.0644 40.176C50.8164 40.176 49.8564 40.568 49.1844 41.352C48.5284 42.136 48.2004 43.28 48.2004 44.784C48.2004 45.456 48.2724 46.072 48.4164 46.632C48.5764 47.192 48.8164 47.672 49.1364 48.072C49.4724 48.472 49.8964 48.784 50.4084 49.008C50.9204 49.216 51.5444 49.32 52.2804 49.32C52.8724 49.32 53.4084 49.264 53.8884 49.152C54.3684 49.04 54.7444 48.92 55.0164 48.792L55.3284 50.664C55.2004 50.744 55.0164 50.824 54.7764 50.904C54.5364 50.968 54.2644 51.024 53.9604 51.072C53.6564 51.136 53.3284 51.184 52.9764 51.216C52.6404 51.264 52.3124 51.288 51.9924 51.288ZM68.436 44.76C68.436 45.752 68.292 46.648 68.004 47.448C67.716 48.248 67.308 48.936 66.78 49.512C66.268 50.088 65.652 50.536 64.932 50.856C64.212 51.16 63.428 51.312 62.58 51.312C61.732 51.312 60.948 51.16 60.228 50.856C59.508 50.536 58.884 50.088 58.356 49.512C57.844 48.936 57.444 48.248 57.156 47.448C56.868 46.648 56.724 45.752 56.724 44.76C56.724 43.784 56.868 42.896 57.156 42.096C57.444 41.28 57.844 40.584 58.356 40.008C58.884 39.432 59.508 38.992 60.228 38.688C60.948 38.368 61.732 38.208 62.58 38.208C63.428 38.208 64.212 38.368 64.932 38.688C65.652 38.992 66.268 39.432 66.78 40.008C67.308 40.584 67.716 41.28 68.004 42.096C68.292 42.896 68.436 43.784 68.436 44.76ZM66.108 44.76C66.108 43.352 65.788 42.24 65.148 41.424C64.524 40.592 63.668 40.176 62.58 40.176C61.492 40.176 60.628 40.592 59.988 41.424C59.364 42.24 59.052 43.352 59.052 44.76C59.052 46.168 59.364 47.288 59.988 48.12C60.628 48.936 61.492 49.344 62.58 49.344C63.668 49.344 64.524 48.936 65.148 48.12C65.788 47.288 66.108 46.168 66.108 44.76ZM86.3978 38.52C86.0778 38.92 85.7178 39.36 85.3178 39.84C84.9178 40.304 84.5018 40.792 84.0698 41.304C83.6378 41.8 83.1978 42.296 82.7498 42.792C82.3178 43.288 81.9018 43.76 81.5018 44.208C81.9818 44.672 82.4778 45.176 82.9898 45.72C83.5018 46.264 83.9978 46.832 84.4778 47.424C84.9738 48 85.4458 48.6 85.8938 49.224C86.3418 49.832 86.7338 50.424 87.0698 51H84.5738C84.2378 50.472 83.8458 49.92 83.3978 49.344C82.9658 48.752 82.5098 48.184 82.0298 47.64C81.5658 47.096 81.0938 46.592 80.6138 46.128C80.1498 45.648 79.7178 45.256 79.3178 44.952V51H77.1818V44.952C76.7818 45.256 76.3418 45.648 75.8618 46.128C75.3978 46.592 74.9258 47.096 74.4458 47.64C73.9818 48.184 73.5258 48.752 73.0778 49.344C72.6458 49.92 72.2618 50.472 71.9258 51H69.4538C69.7898 50.424 70.1738 49.832 70.6058 49.224C71.0538 48.616 71.5178 48.024 71.9978 47.448C72.4938 46.856 72.9978 46.288 73.5098 45.744C74.0218 45.2 74.5178 44.696 74.9978 44.232C74.5978 43.784 74.1738 43.312 73.7258 42.816C73.2938 42.32 72.8618 41.824 72.4298 41.328C71.9978 40.816 71.5818 40.328 71.1818 39.864C70.7818 39.384 70.4138 38.936 70.0778 38.52H72.5498C73.1258 39.24 73.7898 40.04 74.5418 40.92C75.2938 41.8 76.1738 42.816 77.1818 43.968V38.52H79.3178V43.968C80.3258 42.816 81.2058 41.8 81.9578 40.92C82.7098 40.04 83.3738 39.24 83.9498 38.52H86.3978ZM93.5424 49.392C94.0704 49.392 94.5344 49.384 94.9344 49.368C95.3504 49.336 95.6944 49.288 95.9664 49.224V45.504C95.8064 45.424 95.5424 45.36 95.1744 45.312C94.8224 45.248 94.3904 45.216 93.8784 45.216C93.5424 45.216 93.1824 45.24 92.7984 45.288C92.4304 45.336 92.0864 45.44 91.7664 45.6C91.4624 45.744 91.2064 45.952 90.9984 46.224C90.7904 46.48 90.6864 46.824 90.6864 47.256C90.6864 48.056 90.9424 48.616 91.4544 48.936C91.9664 49.24 92.6624 49.392 93.5424 49.392ZM93.3504 38.208C94.2464 38.208 94.9984 38.328 95.6064 38.568C96.2304 38.792 96.7264 39.12 97.0944 39.552C97.4784 39.968 97.7504 40.472 97.9104 41.064C98.0704 41.64 98.1504 42.28 98.1504 42.984V50.784C97.9584 50.816 97.6864 50.864 97.3344 50.928C96.9984 50.976 96.6144 51.024 96.1824 51.072C95.7504 51.12 95.2784 51.16 94.7664 51.192C94.2704 51.24 93.7744 51.264 93.2784 51.264C92.5744 51.264 91.9264 51.192 91.3344 51.048C90.7424 50.904 90.2304 50.68 89.7984 50.376C89.3664 50.056 89.0304 49.64 88.7904 49.128C88.5504 48.616 88.4304 48 88.4304 47.28C88.4304 46.592 88.5664 46 88.8384 45.504C89.1264 45.008 89.5104 44.608 89.9904 44.304C90.4704 44 91.0304 43.776 91.6704 43.632C92.3104 43.488 92.9824 43.416 93.6864 43.416C93.9104 43.416 94.1424 43.432 94.3824 43.464C94.6224 43.48 94.8464 43.512 95.0544 43.56C95.2784 43.592 95.4704 43.624 95.6304 43.656C95.7904 43.688 95.9024 43.712 95.9664 43.728V43.104C95.9664 42.736 95.9264 42.376 95.8464 42.024C95.7664 41.656 95.6224 41.336 95.4144 41.064C95.2064 40.776 94.9184 40.552 94.5504 40.392C94.1984 40.216 93.7344 40.128 93.1584 40.128C92.4224 40.128 91.7744 40.184 91.2144 40.296C90.6704 40.392 90.2624 40.496 89.9904 40.608L89.7264 38.76C90.0144 38.632 90.4944 38.512 91.1664 38.4C91.8384 38.272 92.5664 38.208 93.3504 38.208ZM106.202 40.392C106.202 40.92 106.186 41.488 106.154 42.096C106.138 42.688 106.098 43.288 106.034 43.896C105.97 44.488 105.882 45.08 105.77 45.672C105.658 46.248 105.514 46.792 105.338 47.304C105.162 47.816 104.938 48.296 104.666 48.744C104.41 49.192 104.09 49.592 103.706 49.944C103.322 50.28 102.874 50.568 102.362 50.808C101.85 51.032 101.25 51.176 100.562 51.24L100.25 49.368C101.034 49.208 101.65 48.912 102.098 48.48C102.562 48.048 102.93 47.52 103.202 46.896C103.442 46.352 103.618 45.736 103.73 45.048C103.842 44.36 103.922 43.648 103.97 42.912C104.018 42.16 104.042 41.408 104.042 40.656C104.058 39.904 104.066 39.192 104.066 38.52H112.37V51H110.138V40.392H106.202ZM115.505 44.784C115.505 43.68 115.665 42.72 115.985 41.904C116.305 41.072 116.729 40.384 117.257 39.84C117.785 39.296 118.393 38.888 119.081 38.616C119.769 38.344 120.473 38.208 121.193 38.208C122.873 38.208 124.161 38.736 125.057 39.792C125.953 40.832 126.401 42.424 126.401 44.568C126.401 44.664 126.401 44.792 126.401 44.952C126.401 45.096 126.393 45.232 126.377 45.36H117.833C117.929 46.656 118.305 47.64 118.961 48.312C119.617 48.984 120.641 49.32 122.033 49.32C122.817 49.32 123.473 49.256 124.001 49.128C124.545 48.984 124.953 48.848 125.225 48.72L125.537 50.592C125.265 50.736 124.785 50.888 124.097 51.048C123.425 51.208 122.657 51.288 121.793 51.288C120.705 51.288 119.761 51.128 118.961 50.808C118.177 50.472 117.529 50.016 117.017 49.44C116.505 48.864 116.121 48.184 115.865 47.4C115.625 46.6 115.505 45.728 115.505 44.784ZM124.073 43.56C124.089 42.552 123.833 41.728 123.305 41.088C122.793 40.432 122.081 40.104 121.169 40.104C120.657 40.104 120.201 40.208 119.801 40.416C119.417 40.608 119.089 40.864 118.817 41.184C118.545 41.504 118.329 41.872 118.169 42.288C118.025 42.704 117.929 43.128 117.881 43.56H124.073ZM139.832 51H137.6V45.48H131.84V51H129.608V38.52H131.84V43.608H137.6V38.52H139.832V51ZM154.158 38.52V51H151.998V41.496C151.518 42.104 150.99 42.816 150.414 43.632C149.838 44.448 149.262 45.296 148.686 46.176C148.11 47.04 147.558 47.896 147.03 48.744C146.502 49.592 146.046 50.344 145.662 51H143.67V38.52H145.83V47.496C146.246 46.808 146.718 46.056 147.246 45.24C147.774 44.408 148.318 43.592 148.878 42.792C149.454 41.976 150.022 41.2 150.582 40.464C151.158 39.712 151.694 39.064 152.19 38.52H154.158ZM160.222 43.68H162.958C163.054 42.848 163.262 42.096 163.582 41.424C163.918 40.752 164.334 40.176 164.83 39.696C165.326 39.216 165.894 38.848 166.534 38.592C167.174 38.336 167.862 38.208 168.598 38.208C169.414 38.208 170.166 38.368 170.854 38.688C171.558 38.992 172.166 39.432 172.678 40.008C173.19 40.584 173.59 41.28 173.878 42.096C174.166 42.896 174.31 43.784 174.31 44.76C174.31 45.752 174.166 46.648 173.878 47.448C173.59 48.248 173.19 48.936 172.678 49.512C172.166 50.088 171.558 50.536 170.854 50.856C170.166 51.16 169.414 51.312 168.598 51.312C167.83 51.312 167.11 51.176 166.438 50.904C165.782 50.616 165.206 50.224 164.71 49.728C164.214 49.216 163.806 48.6 163.486 47.88C163.182 47.16 162.998 46.36 162.934 45.48H160.222V51H157.99V38.52H160.222V43.68ZM172.006 44.76C172.006 43.352 171.694 42.24 171.07 41.424C170.462 40.592 169.638 40.176 168.598 40.176C167.558 40.176 166.726 40.592 166.102 41.424C165.494 42.24 165.19 43.352 165.19 44.76C165.19 46.168 165.494 47.288 166.102 48.12C166.726 48.936 167.558 49.344 168.598 49.344C169.638 49.344 170.462 48.936 171.07 48.12C171.694 47.288 172.006 46.168 172.006 44.76ZM179.327 48.264C179.343 48.392 179.351 48.52 179.351 48.648C179.351 48.76 179.351 48.88 179.351 49.008C179.351 50.016 179.199 51.008 178.895 51.984C178.607 52.976 178.207 53.92 177.695 54.816L175.967 54.264C176.367 53.448 176.631 52.616 176.759 51.768C176.887 50.936 176.951 50.152 176.951 49.416C176.951 49.208 176.943 49.008 176.927 48.816C176.927 48.624 176.919 48.44 176.903 48.264H179.327ZM197.244 44.712C197.244 45.672 197.116 46.552 196.86 47.352C196.62 48.152 196.244 48.848 195.732 49.44C195.22 50.016 194.58 50.472 193.812 50.808C193.044 51.128 192.148 51.288 191.124 51.288C190.228 51.288 189.436 51.216 188.748 51.072C188.06 50.928 187.588 50.784 187.332 50.64L187.644 48.744C187.788 48.824 187.98 48.896 188.22 48.96C188.46 49.024 188.724 49.088 189.012 49.152C189.316 49.2 189.628 49.24 189.948 49.272C190.268 49.304 190.588 49.32 190.908 49.32C192.204 49.32 193.172 48.984 193.812 48.312C194.468 47.624 194.844 46.68 194.94 45.48H189.852V43.68H194.892C194.748 42.608 194.364 41.76 193.74 41.136C193.132 40.496 192.228 40.176 191.028 40.176C190.372 40.176 189.796 40.232 189.3 40.344C188.804 40.44 188.42 40.552 188.148 40.68L187.668 38.88C187.828 38.8 188.036 38.72 188.292 38.64C188.564 38.56 188.852 38.488 189.156 38.424C189.476 38.36 189.804 38.312 190.14 38.28C190.476 38.232 190.804 38.208 191.124 38.208C192.132 38.208 193.012 38.376 193.764 38.712C194.532 39.048 195.172 39.512 195.684 40.104C196.196 40.696 196.58 41.384 196.836 42.168C197.108 42.952 197.244 43.8 197.244 44.712ZM209.197 38.52V40.392H205.141V51H202.909V40.392H198.853V38.52H209.197ZM222.514 44.76C222.514 45.752 222.37 46.648 222.082 47.448C221.794 48.248 221.386 48.936 220.858 49.512C220.346 50.088 219.73 50.536 219.01 50.856C218.29 51.16 217.506 51.312 216.658 51.312C215.81 51.312 215.026 51.16 214.306 50.856C213.586 50.536 212.962 50.088 212.434 49.512C211.922 48.936 211.522 48.248 211.234 47.448C210.946 46.648 210.802 45.752 210.802 44.76C210.802 43.784 210.946 42.896 211.234 42.096C211.522 41.28 211.922 40.584 212.434 40.008C212.962 39.432 213.586 38.992 214.306 38.688C215.026 38.368 215.81 38.208 216.658 38.208C217.506 38.208 218.29 38.368 219.01 38.688C219.73 38.992 220.346 39.432 220.858 40.008C221.386 40.584 221.794 41.28 222.082 42.096C222.37 42.896 222.514 43.784 222.514 44.76ZM220.186 44.76C220.186 43.352 219.866 42.24 219.226 41.424C218.602 40.592 217.746 40.176 216.658 40.176C215.57 40.176 214.706 40.592 214.066 41.424C213.442 42.24 213.13 43.352 213.13 44.76C213.13 46.168 213.442 47.288 214.066 48.12C214.706 48.936 215.57 49.344 216.658 49.344C217.746 49.344 218.602 48.936 219.226 48.12C219.866 47.288 220.186 46.168 220.186 44.76ZM31.344 87.288C30.336 87.288 29.448 87.128 28.68 86.808C27.928 86.488 27.288 86.04 26.76 85.464C26.248 84.888 25.864 84.208 25.608 83.424C25.352 82.624 25.224 81.744 25.224 80.784C25.224 79.824 25.36 78.944 25.632 78.144C25.92 77.344 26.32 76.656 26.832 76.08C27.344 75.488 27.968 75.032 28.704 74.712C29.456 74.376 30.288 74.208 31.2 74.208C31.76 74.208 32.32 74.256 32.88 74.352C33.44 74.448 33.976 74.6 34.488 74.808L33.984 76.704C33.648 76.544 33.256 76.416 32.808 76.32C32.376 76.224 31.912 76.176 31.416 76.176C30.168 76.176 29.208 76.568 28.536 77.352C27.88 78.136 27.552 79.28 27.552 80.784C27.552 81.456 27.624 82.072 27.768 82.632C27.928 83.192 28.168 83.672 28.488 84.072C28.824 84.472 29.248 84.784 29.76 85.008C30.272 85.216 30.896 85.32 31.632 85.32C32.224 85.32 32.76 85.264 33.24 85.152C33.72 85.04 34.096 84.92 34.368 84.792L34.68 86.664C34.552 86.744 34.368 86.824 34.128 86.904C33.888 86.968 33.616 87.024 33.312 87.072C33.008 87.136 32.68 87.184 32.328 87.216C31.992 87.264 31.664 87.288 31.344 87.288ZM47.3003 87H45.0683V81.48H39.3083V87H37.0763V74.52H39.3083V79.608H45.0683V74.52H47.3003V87ZM62.1548 80.76C62.1548 81.752 62.0108 82.648 61.7228 83.448C61.4348 84.248 61.0268 84.936 60.4988 85.512C59.9868 86.088 59.3708 86.536 58.6508 86.856C57.9308 87.16 57.1468 87.312 56.2988 87.312C55.4508 87.312 54.6668 87.16 53.9468 86.856C53.2268 86.536 52.6028 86.088 52.0748 85.512C51.5628 84.936 51.1628 84.248 50.8748 83.448C50.5868 82.648 50.4428 81.752 50.4428 80.76C50.4428 79.784 50.5868 78.896 50.8748 78.096C51.1628 77.28 51.5628 76.584 52.0748 76.008C52.6028 75.432 53.2268 74.992 53.9468 74.688C54.6668 74.368 55.4508 74.208 56.2988 74.208C57.1468 74.208 57.9308 74.368 58.6508 74.688C59.3708 74.992 59.9868 75.432 60.4988 76.008C61.0268 76.584 61.4348 77.28 61.7228 78.096C62.0108 78.896 62.1548 79.784 62.1548 80.76ZM59.8268 80.76C59.8268 79.352 59.5068 78.24 58.8668 77.424C58.2428 76.592 57.3868 76.176 56.2988 76.176C55.2108 76.176 54.3468 76.592 53.7068 77.424C53.0828 78.24 52.7708 79.352 52.7708 80.76C52.7708 82.168 53.0828 83.288 53.7068 84.12C54.3468 84.936 55.2108 85.344 56.2988 85.344C57.3868 85.344 58.2428 84.936 58.8668 84.12C59.5068 83.288 59.8268 82.168 59.8268 80.76ZM67.479 85.32C67.575 85.336 67.711 85.352 67.887 85.368C68.063 85.384 68.263 85.4 68.487 85.416C68.711 85.416 68.943 85.424 69.183 85.44C69.439 85.44 69.679 85.44 69.903 85.44C70.367 85.44 70.807 85.408 71.223 85.344C71.655 85.28 72.023 85.168 72.327 85.008C72.647 84.848 72.895 84.64 73.071 84.384C73.263 84.112 73.359 83.768 73.359 83.352C73.359 82.952 73.271 82.624 73.095 82.368C72.935 82.096 72.711 81.88 72.423 81.72C72.135 81.56 71.791 81.448 71.391 81.384C71.007 81.32 70.591 81.288 70.143 81.288H67.479V85.32ZM69.855 79.632C70.287 79.632 70.679 79.608 71.031 79.56C71.399 79.496 71.711 79.392 71.967 79.248C72.239 79.104 72.447 78.912 72.591 78.672C72.751 78.432 72.831 78.128 72.831 77.76C72.831 77.376 72.735 77.072 72.543 76.848C72.351 76.624 72.095 76.456 71.775 76.344C71.471 76.216 71.119 76.136 70.719 76.104C70.335 76.056 69.943 76.032 69.543 76.032C69.175 76.032 68.799 76.04 68.415 76.056C68.047 76.072 67.735 76.088 67.479 76.104V79.632H69.855ZM69.807 87.216C68.863 87.216 67.991 87.168 67.191 87.072C66.391 86.992 65.759 86.896 65.295 86.784V74.64C65.759 74.528 66.391 74.432 67.191 74.352C67.991 74.256 68.863 74.208 69.807 74.208C70.463 74.208 71.103 74.264 71.727 74.376C72.351 74.488 72.903 74.68 73.383 74.952C73.863 75.208 74.247 75.568 74.535 76.032C74.839 76.48 74.991 77.04 74.991 77.712C74.991 78.32 74.839 78.84 74.535 79.272C74.231 79.704 73.823 80.04 73.311 80.28C73.999 80.52 74.543 80.88 74.943 81.36C75.359 81.824 75.567 82.48 75.567 83.328C75.567 84.08 75.415 84.704 75.111 85.2C74.823 85.696 74.415 86.096 73.887 86.4C73.375 86.704 72.767 86.912 72.063 87.024C71.359 87.152 70.607 87.216 69.807 87.216ZM82.6674 85.392C83.1954 85.392 83.6594 85.384 84.0594 85.368C84.4754 85.336 84.8194 85.288 85.0914 85.224V81.504C84.9314 81.424 84.6674 81.36 84.2994 81.312C83.9474 81.248 83.5154 81.216 83.0034 81.216C82.6674 81.216 82.3074 81.24 81.9234 81.288C81.5554 81.336 81.2114 81.44 80.8914 81.6C80.5874 81.744 80.3314 81.952 80.1234 82.224C79.9154 82.48 79.8114 82.824 79.8114 83.256C79.8114 84.056 80.0674 84.616 80.5794 84.936C81.0914 85.24 81.7874 85.392 82.6674 85.392ZM82.4754 74.208C83.3714 74.208 84.1234 74.328 84.7314 74.568C85.3554 74.792 85.8514 75.12 86.2194 75.552C86.6034 75.968 86.8754 76.472 87.0354 77.064C87.1954 77.64 87.2754 78.28 87.2754 78.984V86.784C87.0834 86.816 86.8114 86.864 86.4594 86.928C86.1234 86.976 85.7394 87.024 85.3074 87.072C84.8754 87.12 84.4034 87.16 83.8914 87.192C83.3954 87.24 82.8994 87.264 82.4034 87.264C81.6994 87.264 81.0514 87.192 80.4594 87.048C79.8674 86.904 79.3554 86.68 78.9234 86.376C78.4914 86.056 78.1554 85.64 77.9154 85.128C77.6754 84.616 77.5554 84 77.5554 83.28C77.5554 82.592 77.6914 82 77.9634 81.504C78.2514 81.008 78.6354 80.608 79.1154 80.304C79.5954 80 80.1554 79.776 80.7954 79.632C81.4354 79.488 82.1074 79.416 82.8114 79.416C83.0354 79.416 83.2674 79.432 83.5074 79.464C83.7474 79.48 83.9714 79.512 84.1794 79.56C84.4034 79.592 84.5954 79.624 84.7554 79.656C84.9154 79.688 85.0274 79.712 85.0914 79.728V79.104C85.0914 78.736 85.0514 78.376 84.9714 78.024C84.8914 77.656 84.7474 77.336 84.5394 77.064C84.3314 76.776 84.0434 76.552 83.6754 76.392C83.3234 76.216 82.8594 76.128 82.2834 76.128C81.5474 76.128 80.8994 76.184 80.3394 76.296C79.7954 76.392 79.3874 76.496 79.1154 76.608L78.8514 74.76C79.1394 74.632 79.6194 74.512 80.2914 74.4C80.9634 74.272 81.6914 74.208 82.4754 74.208ZM106.761 87H104.529V81.48H98.7692V87H96.5372V74.52H98.7692V79.608H104.529V74.52H106.761V87ZM109.904 80.784C109.904 79.68 110.064 78.72 110.384 77.904C110.704 77.072 111.128 76.384 111.656 75.84C112.184 75.296 112.792 74.888 113.48 74.616C114.168 74.344 114.872 74.208 115.592 74.208C117.272 74.208 118.56 74.736 119.456 75.792C120.352 76.832 120.8 78.424 120.8 80.568C120.8 80.664 120.8 80.792 120.8 80.952C120.8 81.096 120.792 81.232 120.776 81.36H112.232C112.328 82.656 112.704 83.64 113.36 84.312C114.016 84.984 115.04 85.32 116.432 85.32C117.216 85.32 117.872 85.256 118.4 85.128C118.944 84.984 119.352 84.848 119.624 84.72L119.936 86.592C119.664 86.736 119.184 86.888 118.496 87.048C117.824 87.208 117.056 87.288 116.192 87.288C115.104 87.288 114.16 87.128 113.36 86.808C112.576 86.472 111.928 86.016 111.416 85.44C110.904 84.864 110.52 84.184 110.264 83.4C110.024 82.6 109.904 81.728 109.904 80.784ZM118.472 79.56C118.488 78.552 118.232 77.728 117.704 77.088C117.192 76.432 116.48 76.104 115.568 76.104C115.056 76.104 114.6 76.208 114.2 76.416C113.816 76.608 113.488 76.864 113.216 77.184C112.944 77.504 112.728 77.872 112.568 78.288C112.424 78.704 112.328 79.128 112.28 79.56H118.472ZM126.19 85.32C126.286 85.336 126.422 85.352 126.598 85.368C126.774 85.384 126.974 85.4 127.198 85.416C127.422 85.416 127.654 85.424 127.894 85.44C128.15 85.44 128.39 85.44 128.614 85.44C129.078 85.44 129.518 85.408 129.934 85.344C130.366 85.28 130.734 85.168 131.038 85.008C131.358 84.848 131.606 84.64 131.782 84.384C131.974 84.112 132.07 83.768 132.07 83.352C132.07 82.952 131.982 82.624 131.806 82.368C131.646 82.096 131.422 81.88 131.134 81.72C130.846 81.56 130.502 81.448 130.102 81.384C129.718 81.32 129.302 81.288 128.854 81.288H126.19V85.32ZM128.566 79.632C128.998 79.632 129.39 79.608 129.742 79.56C130.11 79.496 130.422 79.392 130.678 79.248C130.95 79.104 131.158 78.912 131.302 78.672C131.462 78.432 131.542 78.128 131.542 77.76C131.542 77.376 131.446 77.072 131.254 76.848C131.062 76.624 130.806 76.456 130.486 76.344C130.182 76.216 129.83 76.136 129.43 76.104C129.046 76.056 128.654 76.032 128.254 76.032C127.886 76.032 127.51 76.04 127.126 76.056C126.758 76.072 126.446 76.088 126.19 76.104V79.632H128.566ZM128.518 87.216C127.574 87.216 126.702 87.168 125.902 87.072C125.102 86.992 124.47 86.896 124.006 86.784V74.64C124.47 74.528 125.102 74.432 125.902 74.352C126.702 74.256 127.574 74.208 128.518 74.208C129.174 74.208 129.814 74.264 130.438 74.376C131.062 74.488 131.614 74.68 132.094 74.952C132.574 75.208 132.958 75.568 133.246 76.032C133.55 76.48 133.702 77.04 133.702 77.712C133.702 78.32 133.55 78.84 133.246 79.272C132.942 79.704 132.534 80.04 132.022 80.28C132.71 80.52 133.254 80.88 133.654 81.36C134.07 81.824 134.278 82.48 134.278 83.328C134.278 84.08 134.126 84.704 133.822 85.2C133.534 85.696 133.126 86.096 132.598 86.4C132.086 86.704 131.478 86.912 130.774 87.024C130.07 87.152 129.318 87.216 128.518 87.216ZM136.458 80.784C136.458 79.68 136.618 78.72 136.938 77.904C137.258 77.072 137.682 76.384 138.21 75.84C138.738 75.296 139.346 74.888 140.034 74.616C140.722 74.344 141.426 74.208 142.146 74.208C143.826 74.208 145.114 74.736 146.01 75.792C146.906 76.832 147.354 78.424 147.354 80.568C147.354 80.664 147.354 80.792 147.354 80.952C147.354 81.096 147.346 81.232 147.33 81.36H138.786C138.882 82.656 139.258 83.64 139.914 84.312C140.57 84.984 141.594 85.32 142.986 85.32C143.77 85.32 144.426 85.256 144.954 85.128C145.498 84.984 145.906 84.848 146.178 84.72L146.49 86.592C146.218 86.736 145.738 86.888 145.05 87.048C144.378 87.208 143.61 87.288 142.746 87.288C141.658 87.288 140.714 87.128 139.914 86.808C139.13 86.472 138.482 86.016 137.97 85.44C137.458 84.864 137.074 84.184 136.818 83.4C136.578 82.6 136.458 81.728 136.458 80.784ZM145.026 79.56C145.042 78.552 144.786 77.728 144.258 77.088C143.746 76.432 143.034 76.104 142.122 76.104C141.61 76.104 141.154 76.208 140.754 76.416C140.37 76.608 140.042 76.864 139.77 77.184C139.498 77.504 139.282 77.872 139.122 78.288C138.978 78.704 138.882 79.128 138.834 79.56H145.026ZM159.225 80.784C159.225 79.328 158.865 78.208 158.145 77.424C157.425 76.64 156.465 76.248 155.265 76.248C154.593 76.248 154.065 76.272 153.681 76.32C153.313 76.368 153.017 76.424 152.793 76.488V84.36C153.065 84.584 153.457 84.8 153.969 85.008C154.481 85.216 155.041 85.32 155.649 85.32C156.289 85.32 156.833 85.208 157.281 84.984C157.745 84.744 158.121 84.424 158.409 84.024C158.697 83.608 158.905 83.128 159.033 82.584C159.161 82.024 159.225 81.424 159.225 80.784ZM161.553 80.784C161.553 81.728 161.425 82.6 161.169 83.4C160.929 84.2 160.569 84.888 160.089 85.464C159.609 86.04 159.017 86.488 158.313 86.808C157.625 87.128 156.833 87.288 155.937 87.288C155.217 87.288 154.577 87.192 154.017 87C153.473 86.808 153.065 86.624 152.793 86.448V91.44H150.561V74.904C151.089 74.776 151.745 74.64 152.529 74.496C153.329 74.336 154.249 74.256 155.289 74.256C156.249 74.256 157.113 74.408 157.881 74.712C158.649 75.016 159.305 75.448 159.849 76.008C160.393 76.568 160.809 77.256 161.097 78.072C161.401 78.872 161.553 79.776 161.553 80.784ZM174.917 87H172.685V81.48H166.925V87H164.693V74.52H166.925V79.608H172.685V74.52H174.917V87ZM182.98 85.392C183.508 85.392 183.972 85.384 184.372 85.368C184.788 85.336 185.132 85.288 185.404 85.224V81.504C185.244 81.424 184.98 81.36 184.612 81.312C184.26 81.248 183.828 81.216 183.316 81.216C182.98 81.216 182.62 81.24 182.236 81.288C181.868 81.336 181.524 81.44 181.204 81.6C180.9 81.744 180.644 81.952 180.436 82.224C180.228 82.48 180.124 82.824 180.124 83.256C180.124 84.056 180.38 84.616 180.892 84.936C181.404 85.24 182.1 85.392 182.98 85.392ZM182.788 74.208C183.684 74.208 184.436 74.328 185.044 74.568C185.668 74.792 186.164 75.12 186.532 75.552C186.916 75.968 187.188 76.472 187.348 77.064C187.508 77.64 187.588 78.28 187.588 78.984V86.784C187.396 86.816 187.124 86.864 186.772 86.928C186.436 86.976 186.052 87.024 185.62 87.072C185.188 87.12 184.716 87.16 184.204 87.192C183.708 87.24 183.212 87.264 182.716 87.264C182.012 87.264 181.364 87.192 180.772 87.048C180.18 86.904 179.668 86.68 179.236 86.376C178.804 86.056 178.468 85.64 178.228 85.128C177.988 84.616 177.868 84 177.868 83.28C177.868 82.592 178.004 82 178.276 81.504C178.564 81.008 178.948 80.608 179.428 80.304C179.908 80 180.468 79.776 181.108 79.632C181.748 79.488 182.42 79.416 183.124 79.416C183.348 79.416 183.58 79.432 183.82 79.464C184.06 79.48 184.284 79.512 184.492 79.56C184.716 79.592 184.908 79.624 185.068 79.656C185.228 79.688 185.34 79.712 185.404 79.728V79.104C185.404 78.736 185.364 78.376 185.284 78.024C185.204 77.656 185.06 77.336 184.852 77.064C184.644 76.776 184.356 76.552 183.988 76.392C183.636 76.216 183.172 76.128 182.596 76.128C181.86 76.128 181.212 76.184 180.652 76.296C180.108 76.392 179.7 76.496 179.428 76.608L179.164 74.76C179.452 74.632 179.932 74.512 180.604 74.4C181.276 74.272 182.004 74.208 182.788 74.208ZM196.455 82.152C196.215 82.152 195.983 82.152 195.759 82.152C195.535 82.136 195.319 82.12 195.111 82.104C194.599 82.872 194.103 83.696 193.623 84.576C193.159 85.44 192.743 86.248 192.375 87H190.119C190.311 86.536 190.535 86.064 190.791 85.584C191.047 85.088 191.303 84.608 191.559 84.144C191.831 83.68 192.103 83.24 192.375 82.824C192.647 82.408 192.903 82.032 193.143 81.696C192.695 81.536 192.327 81.344 192.039 81.12C191.751 80.88 191.519 80.616 191.343 80.328C191.167 80.04 191.039 79.736 190.959 79.416C190.895 79.08 190.863 78.744 190.863 78.408C190.863 77.704 190.991 77.088 191.247 76.56C191.519 76.032 191.887 75.6 192.351 75.264C192.815 74.912 193.359 74.648 193.983 74.472C194.623 74.296 195.319 74.208 196.071 74.208C197.127 74.208 198.023 74.256 198.759 74.352C199.495 74.448 200.111 74.56 200.607 74.688V87H198.399V82.152H196.455ZM198.399 76.176C198.223 76.144 197.927 76.112 197.511 76.08C197.111 76.048 196.647 76.032 196.119 76.032C195.207 76.032 194.471 76.224 193.911 76.608C193.351 76.976 193.071 77.568 193.071 78.384C193.071 79.184 193.359 79.736 193.935 80.04C194.511 80.344 195.255 80.496 196.167 80.496H198.399V76.176ZM214.558 80.208C215.054 80.56 215.59 81.008 216.166 81.552C216.742 82.08 217.302 82.656 217.846 83.28C218.406 83.904 218.926 84.544 219.406 85.2C219.886 85.84 220.294 86.44 220.63 87H217.99C217.638 86.456 217.222 85.904 216.742 85.344C216.278 84.768 215.79 84.216 215.278 83.688C214.766 83.16 214.246 82.672 213.718 82.224C213.19 81.776 212.694 81.4 212.23 81.096V87H209.998V74.52H212.23V79.872C212.614 79.504 213.054 79.08 213.55 78.6C214.046 78.104 214.542 77.608 215.038 77.112C215.55 76.6 216.022 76.12 216.454 75.672C216.886 75.208 217.238 74.824 217.51 74.52H220.102C219.75 74.904 219.334 75.344 218.854 75.84C218.39 76.32 217.902 76.816 217.39 77.328C216.894 77.84 216.398 78.352 215.902 78.864C215.406 79.36 214.958 79.808 214.558 80.208ZM233.202 80.76C233.202 81.752 233.058 82.648 232.77 83.448C232.482 84.248 232.074 84.936 231.546 85.512C231.034 86.088 230.418 86.536 229.698 86.856C228.978 87.16 228.194 87.312 227.346 87.312C226.498 87.312 225.714 87.16 224.994 86.856C224.274 86.536 223.65 86.088 223.122 85.512C222.61 84.936 222.21 84.248 221.922 83.448C221.634 82.648 221.49 81.752 221.49 80.76C221.49 79.784 221.634 78.896 221.922 78.096C222.21 77.28 222.61 76.584 223.122 76.008C223.65 75.432 224.274 74.992 224.994 74.688C225.714 74.368 226.498 74.208 227.346 74.208C228.194 74.208 228.978 74.368 229.698 74.688C230.418 74.992 231.034 75.432 231.546 76.008C232.074 76.584 232.482 77.28 232.77 78.096C233.058 78.896 233.202 79.784 233.202 80.76ZM230.874 80.76C230.874 79.352 230.554 78.24 229.914 77.424C229.29 76.592 228.434 76.176 227.346 76.176C226.258 76.176 225.394 76.592 224.754 77.424C224.13 78.24 223.818 79.352 223.818 80.76C223.818 82.168 224.13 83.288 224.754 84.12C225.394 84.936 226.258 85.344 227.346 85.344C228.434 85.344 229.29 84.936 229.914 84.12C230.554 83.288 230.874 82.168 230.874 80.76ZM240.686 76.392C240.686 76.92 240.67 77.488 240.638 78.096C240.622 78.688 240.582 79.288 240.518 79.896C240.454 80.488 240.366 81.08 240.254 81.672C240.142 82.248 239.998 82.792 239.822 83.304C239.646 83.816 239.422 84.296 239.15 84.744C238.894 85.192 238.574 85.592 238.19 85.944C237.806 86.28 237.358 86.568 236.846 86.808C236.334 87.032 235.734 87.176 235.046 87.24L234.734 85.368C235.518 85.208 236.134 84.912 236.582 84.48C237.046 84.048 237.414 83.52 237.686 82.896C237.926 82.352 238.102 81.736 238.214 81.048C238.326 80.36 238.406 79.648 238.454 78.912C238.502 78.16 238.526 77.408 238.526 76.656C238.542 75.904 238.55 75.192 238.55 74.52H246.854V87H244.622V76.392H240.686ZM252.702 75.96C253.198 75.56 253.774 75.256 254.43 75.048C255.102 74.824 255.742 74.712 256.35 74.712C258.142 74.712 259.494 75.264 260.406 76.368C261.334 77.456 261.798 78.976 261.798 80.928C261.798 81.76 261.686 82.56 261.462 83.328C261.238 84.096 260.886 84.776 260.406 85.368C259.942 85.96 259.35 86.432 258.63 86.784C257.91 87.136 257.054 87.312 256.062 87.312C254.926 87.312 253.982 87.104 253.23 86.688C252.478 86.272 251.878 85.704 251.43 84.984C250.998 84.264 250.694 83.424 250.518 82.464C250.342 81.504 250.254 80.488 250.254 79.416C250.254 78.024 250.35 76.728 250.542 75.528C250.75 74.328 251.118 73.272 251.646 72.36C252.174 71.448 252.902 70.696 253.83 70.104C254.774 69.496 255.982 69.088 257.454 68.88C257.886 68.816 258.262 68.768 258.582 68.736C258.918 68.688 259.206 68.648 259.446 68.616C259.702 68.584 259.934 68.552 260.142 68.52C260.35 68.472 260.566 68.424 260.79 68.376L261.03 70.392C260.918 70.424 260.798 70.448 260.67 70.464C260.558 70.48 260.39 70.504 260.166 70.536C259.958 70.568 259.67 70.608 259.302 70.656C258.95 70.704 258.486 70.76 257.91 70.824C256.326 71 255.11 71.48 254.262 72.264C253.414 73.048 252.894 74.28 252.702 75.96ZM252.558 79.776C252.558 80.528 252.606 81.24 252.702 81.912C252.814 82.584 252.998 83.176 253.254 83.688C253.526 84.2 253.886 84.608 254.334 84.912C254.782 85.2 255.358 85.344 256.062 85.344C256.67 85.344 257.19 85.232 257.622 85.008C258.054 84.768 258.406 84.448 258.678 84.048C258.95 83.648 259.15 83.184 259.278 82.656C259.406 82.112 259.47 81.536 259.47 80.928C259.47 80.384 259.414 79.856 259.302 79.344C259.206 78.832 259.022 78.376 258.75 77.976C258.478 77.576 258.11 77.256 257.646 77.016C257.198 76.776 256.63 76.656 255.942 76.656C255.27 76.656 254.622 76.8 253.998 77.088C253.39 77.376 252.918 77.728 252.582 78.144C252.566 78.32 252.558 78.568 252.558 78.888C252.558 79.208 252.558 79.504 252.558 79.776ZM269.183 85.392C269.711 85.392 270.175 85.384 270.575 85.368C270.991 85.336 271.335 85.288 271.607 85.224V81.504C271.447 81.424 271.183 81.36 270.815 81.312C270.463 81.248 270.031 81.216 269.519 81.216C269.183 81.216 268.823 81.24 268.439 81.288C268.071 81.336 267.727 81.44 267.407 81.6C267.103 81.744 266.847 81.952 266.639 82.224C266.431 82.48 266.327 82.824 266.327 83.256C266.327 84.056 266.583 84.616 267.095 84.936C267.607 85.24 268.303 85.392 269.183 85.392ZM268.991 74.208C269.887 74.208 270.639 74.328 271.247 74.568C271.871 74.792 272.367 75.12 272.735 75.552C273.119 75.968 273.391 76.472 273.551 77.064C273.711 77.64 273.791 78.28 273.791 78.984V86.784C273.599 86.816 273.327 86.864 272.975 86.928C272.639 86.976 272.255 87.024 271.823 87.072C271.391 87.12 270.919 87.16 270.407 87.192C269.911 87.24 269.415 87.264 268.919 87.264C268.215 87.264 267.567 87.192 266.975 87.048C266.383 86.904 265.871 86.68 265.439 86.376C265.007 86.056 264.671 85.64 264.431 85.128C264.191 84.616 264.071 84 264.071 83.28C264.071 82.592 264.207 82 264.479 81.504C264.767 81.008 265.151 80.608 265.631 80.304C266.111 80 266.671 79.776 267.311 79.632C267.951 79.488 268.623 79.416 269.327 79.416C269.551 79.416 269.783 79.432 270.023 79.464C270.263 79.48 270.487 79.512 270.695 79.56C270.919 79.592 271.111 79.624 271.271 79.656C271.431 79.688 271.543 79.712 271.607 79.728V79.104C271.607 78.736 271.567 78.376 271.487 78.024C271.407 77.656 271.263 77.336 271.055 77.064C270.847 76.776 270.559 76.552 270.191 76.392C269.839 76.216 269.375 76.128 268.799 76.128C268.063 76.128 267.415 76.184 266.855 76.296C266.311 76.392 265.903 76.496 265.631 76.608L265.367 74.76C265.655 74.632 266.135 74.512 266.807 74.4C267.479 74.272 268.207 74.208 268.991 74.208Z" fill="#DBE2F9"/>
<rect x="1" y="1" width="313" height="118" rx="11" stroke="#89E159" stroke-width="2"/>
</svg>
