<svg width="441" height="139" viewBox="0 0 441 139" fill="none" xmlns="http://www.w3.org/2000/svg">
<circle cx="389.5" cy="109.5" r="16.5" stroke="#89E159" stroke-width="2"/>
<circle cx="431" cy="129" r="9" stroke="#89E159" stroke-width="2"/>
<path d="M37.488 42.672C37.488 44.032 37.296 45.256 36.912 46.344C36.544 47.416 36.016 48.328 35.328 49.08C34.64 49.816 33.816 50.384 32.856 50.784C31.912 51.168 30.856 51.36 29.688 51.36C29.016 51.36 28.392 51.32 27.816 51.24C27.24 51.16 26.728 51.064 26.28 50.952C25.848 50.84 25.488 50.728 25.2 50.616C24.912 50.488 24.712 50.384 24.6 50.304L25.2 48.384C25.552 48.56 26.072 48.76 26.76 48.984C27.464 49.208 28.344 49.32 29.4 49.32C30.264 49.32 31.024 49.184 31.68 48.912C32.352 48.624 32.92 48.224 33.384 47.712C33.864 47.2 34.232 46.592 34.488 45.888C34.76 45.168 34.928 44.368 34.992 43.488H27.648V41.52H34.944C34.864 40.688 34.688 39.936 34.416 39.264C34.16 38.592 33.8 38.016 33.336 37.536C32.872 37.056 32.312 36.688 31.656 36.432C31 36.16 30.248 36.024 29.4 36.024C28.344 36.024 27.472 36.136 26.784 36.36C26.112 36.568 25.6 36.76 25.248 36.936L24.648 35.088C24.76 35.008 24.952 34.904 25.224 34.776C25.512 34.648 25.872 34.528 26.304 34.416C26.736 34.288 27.232 34.184 27.792 34.104C28.368 34.024 28.992 33.984 29.664 33.984C30.832 33.984 31.896 34.184 32.856 34.584C33.816 34.968 34.64 35.536 35.328 36.288C36.016 37.024 36.544 37.928 36.912 39C37.296 40.072 37.488 41.296 37.488 42.672ZM49.6108 38.52V40.392H45.5548V51H43.3228V40.392H39.2668V38.52H49.6108ZM62.9282 44.76C62.9282 45.752 62.7842 46.648 62.4962 47.448C62.2082 48.248 61.8002 48.936 61.2722 49.512C60.7602 50.088 60.1442 50.536 59.4242 50.856C58.7042 51.16 57.9202 51.312 57.0722 51.312C56.2242 51.312 55.4402 51.16 54.7202 50.856C54.0002 50.536 53.3762 50.088 52.8482 49.512C52.3362 48.936 51.9362 48.248 51.6482 47.448C51.3602 46.648 51.2162 45.752 51.2162 44.76C51.2162 43.784 51.3602 42.896 51.6482 42.096C51.9362 41.28 52.3362 40.584 52.8482 40.008C53.3762 39.432 54.0002 38.992 54.7202 38.688C55.4402 38.368 56.2242 38.208 57.0722 38.208C57.9202 38.208 58.7042 38.368 59.4242 38.688C60.1442 38.992 60.7602 39.432 61.2722 40.008C61.8002 40.584 62.2082 41.28 62.4962 42.096C62.7842 42.896 62.9282 43.784 62.9282 44.76ZM60.6002 44.76C60.6002 43.352 60.2802 42.24 59.6402 41.424C59.0162 40.592 58.1602 40.176 57.0722 40.176C55.9842 40.176 55.1202 40.592 54.4802 41.424C53.8562 42.24 53.5442 43.352 53.5442 44.76C53.5442 46.168 53.8562 47.288 54.4802 48.12C55.1202 48.936 55.9842 49.344 57.0722 49.344C58.1602 49.344 59.0162 48.936 59.6402 48.12C60.2802 47.288 60.6002 46.168 60.6002 44.76ZM81.8471 51H79.6151V45.48H73.8551V51H71.6231V38.52H73.8551V43.608H79.6151V38.52H81.8471V51ZM84.9896 44.784C84.9896 43.68 85.1496 42.72 85.4696 41.904C85.7896 41.072 86.2136 40.384 86.7416 39.84C87.2696 39.296 87.8776 38.888 88.5656 38.616C89.2536 38.344 89.9576 38.208 90.6776 38.208C92.3576 38.208 93.6456 38.736 94.5416 39.792C95.4376 40.832 95.8856 42.424 95.8856 44.568C95.8856 44.664 95.8856 44.792 95.8856 44.952C95.8856 45.096 95.8776 45.232 95.8616 45.36H87.3176C87.4136 46.656 87.7896 47.64 88.4456 48.312C89.1016 48.984 90.1256 49.32 91.5176 49.32C92.3016 49.32 92.9576 49.256 93.4856 49.128C94.0296 48.984 94.4376 48.848 94.7096 48.72L95.0216 50.592C94.7496 50.736 94.2696 50.888 93.5816 51.048C92.9096 51.208 92.1416 51.288 91.2776 51.288C90.1896 51.288 89.2456 51.128 88.4456 50.808C87.6616 50.472 87.0136 50.016 86.5016 49.44C85.9896 48.864 85.6056 48.184 85.3496 47.4C85.1096 46.6 84.9896 45.728 84.9896 44.784ZM93.5576 43.56C93.5736 42.552 93.3176 41.728 92.7896 41.088C92.2776 40.432 91.5656 40.104 90.6536 40.104C90.1416 40.104 89.6856 40.208 89.2856 40.416C88.9016 40.608 88.5736 40.864 88.3016 41.184C88.0296 41.504 87.8136 41.872 87.6536 42.288C87.5096 42.704 87.4136 43.128 87.3656 43.56H93.5576ZM113.455 38.52V40.392H109.399V51H107.167V40.392H103.111V38.52H113.455ZM119.98 49.392C120.508 49.392 120.972 49.384 121.372 49.368C121.788 49.336 122.132 49.288 122.404 49.224V45.504C122.244 45.424 121.98 45.36 121.612 45.312C121.26 45.248 120.828 45.216 120.316 45.216C119.98 45.216 119.62 45.24 119.236 45.288C118.868 45.336 118.524 45.44 118.204 45.6C117.9 45.744 117.644 45.952 117.436 46.224C117.228 46.48 117.124 46.824 117.124 47.256C117.124 48.056 117.38 48.616 117.892 48.936C118.404 49.24 119.1 49.392 119.98 49.392ZM119.788 38.208C120.684 38.208 121.436 38.328 122.044 38.568C122.668 38.792 123.164 39.12 123.532 39.552C123.916 39.968 124.188 40.472 124.348 41.064C124.508 41.64 124.588 42.28 124.588 42.984V50.784C124.396 50.816 124.124 50.864 123.772 50.928C123.436 50.976 123.052 51.024 122.62 51.072C122.188 51.12 121.716 51.16 121.204 51.192C120.708 51.24 120.212 51.264 119.716 51.264C119.012 51.264 118.364 51.192 117.772 51.048C117.18 50.904 116.668 50.68 116.236 50.376C115.804 50.056 115.468 49.64 115.228 49.128C114.988 48.616 114.868 48 114.868 47.28C114.868 46.592 115.004 46 115.276 45.504C115.564 45.008 115.948 44.608 116.428 44.304C116.908 44 117.468 43.776 118.108 43.632C118.748 43.488 119.42 43.416 120.124 43.416C120.348 43.416 120.58 43.432 120.82 43.464C121.06 43.48 121.284 43.512 121.492 43.56C121.716 43.592 121.908 43.624 122.068 43.656C122.228 43.688 122.34 43.712 122.404 43.728V43.104C122.404 42.736 122.364 42.376 122.284 42.024C122.204 41.656 122.06 41.336 121.852 41.064C121.644 40.776 121.356 40.552 120.988 40.392C120.636 40.216 120.172 40.128 119.596 40.128C118.86 40.128 118.212 40.184 117.652 40.296C117.108 40.392 116.7 40.496 116.428 40.608L116.164 38.76C116.452 38.632 116.932 38.512 117.604 38.4C118.276 38.272 119.004 38.208 119.788 38.208ZM138.41 44.208C138.906 44.56 139.442 45.008 140.018 45.552C140.594 46.08 141.154 46.656 141.698 47.28C142.258 47.904 142.778 48.544 143.258 49.2C143.738 49.84 144.146 50.44 144.482 51H141.842C141.49 50.456 141.074 49.904 140.594 49.344C140.13 48.768 139.642 48.216 139.13 47.688C138.618 47.16 138.098 46.672 137.57 46.224C137.042 45.776 136.546 45.4 136.082 45.096V51H133.85V38.52H136.082V43.872C136.466 43.504 136.906 43.08 137.402 42.6C137.898 42.104 138.394 41.608 138.89 41.112C139.402 40.6 139.874 40.12 140.306 39.672C140.738 39.208 141.09 38.824 141.362 38.52H143.954C143.602 38.904 143.186 39.344 142.706 39.84C142.242 40.32 141.754 40.816 141.242 41.328C140.746 41.84 140.25 42.352 139.754 42.864C139.258 43.36 138.81 43.808 138.41 44.208ZM157.053 44.76C157.053 45.752 156.909 46.648 156.621 47.448C156.333 48.248 155.925 48.936 155.397 49.512C154.885 50.088 154.269 50.536 153.549 50.856C152.829 51.16 152.045 51.312 151.197 51.312C150.349 51.312 149.565 51.16 148.845 50.856C148.125 50.536 147.501 50.088 146.973 49.512C146.461 48.936 146.061 48.248 145.773 47.448C145.485 46.648 145.341 45.752 145.341 44.76C145.341 43.784 145.485 42.896 145.773 42.096C146.061 41.28 146.461 40.584 146.973 40.008C147.501 39.432 148.125 38.992 148.845 38.688C149.565 38.368 150.349 38.208 151.197 38.208C152.045 38.208 152.829 38.368 153.549 38.688C154.269 38.992 154.885 39.432 155.397 40.008C155.925 40.584 156.333 41.28 156.621 42.096C156.909 42.896 157.053 43.784 157.053 44.76ZM154.725 44.76C154.725 43.352 154.405 42.24 153.765 41.424C153.141 40.592 152.285 40.176 151.197 40.176C150.109 40.176 149.245 40.592 148.605 41.424C147.981 42.24 147.669 43.352 147.669 44.76C147.669 46.168 147.981 47.288 148.605 48.12C149.245 48.936 150.109 49.344 151.197 49.344C152.285 49.344 153.141 48.936 153.765 48.12C154.405 47.288 154.725 46.168 154.725 44.76ZM164.537 40.392C164.537 40.92 164.521 41.488 164.489 42.096C164.473 42.688 164.433 43.288 164.369 43.896C164.305 44.488 164.217 45.08 164.105 45.672C163.993 46.248 163.849 46.792 163.673 47.304C163.497 47.816 163.273 48.296 163.001 48.744C162.745 49.192 162.425 49.592 162.041 49.944C161.657 50.28 161.209 50.568 160.697 50.808C160.185 51.032 159.585 51.176 158.897 51.24L158.585 49.368C159.369 49.208 159.985 48.912 160.433 48.48C160.897 48.048 161.265 47.52 161.537 46.896C161.777 46.352 161.953 45.736 162.065 45.048C162.177 44.36 162.257 43.648 162.305 42.912C162.353 42.16 162.377 41.408 162.377 40.656C162.393 39.904 162.401 39.192 162.401 38.52H170.705V51H168.473V40.392H164.537ZM176.553 39.96C177.049 39.56 177.625 39.256 178.281 39.048C178.953 38.824 179.593 38.712 180.201 38.712C181.993 38.712 183.345 39.264 184.257 40.368C185.185 41.456 185.649 42.976 185.649 44.928C185.649 45.76 185.537 46.56 185.313 47.328C185.089 48.096 184.737 48.776 184.257 49.368C183.793 49.96 183.201 50.432 182.481 50.784C181.761 51.136 180.905 51.312 179.913 51.312C178.777 51.312 177.833 51.104 177.081 50.688C176.329 50.272 175.729 49.704 175.281 48.984C174.849 48.264 174.545 47.424 174.369 46.464C174.193 45.504 174.105 44.488 174.105 43.416C174.105 42.024 174.201 40.728 174.393 39.528C174.601 38.328 174.969 37.272 175.497 36.36C176.025 35.448 176.753 34.696 177.681 34.104C178.625 33.496 179.833 33.088 181.305 32.88C181.737 32.816 182.113 32.768 182.433 32.736C182.769 32.688 183.057 32.648 183.297 32.616C183.553 32.584 183.785 32.552 183.993 32.52C184.201 32.472 184.417 32.424 184.641 32.376L184.881 34.392C184.769 34.424 184.649 34.448 184.521 34.464C184.409 34.48 184.241 34.504 184.017 34.536C183.809 34.568 183.521 34.608 183.153 34.656C182.801 34.704 182.337 34.76 181.761 34.824C180.177 35 178.961 35.48 178.113 36.264C177.265 37.048 176.745 38.28 176.553 39.96ZM176.409 43.776C176.409 44.528 176.457 45.24 176.553 45.912C176.665 46.584 176.849 47.176 177.105 47.688C177.377 48.2 177.737 48.608 178.185 48.912C178.633 49.2 179.209 49.344 179.913 49.344C180.521 49.344 181.041 49.232 181.473 49.008C181.905 48.768 182.257 48.448 182.529 48.048C182.801 47.648 183.001 47.184 183.129 46.656C183.257 46.112 183.321 45.536 183.321 44.928C183.321 44.384 183.265 43.856 183.153 43.344C183.057 42.832 182.873 42.376 182.601 41.976C182.329 41.576 181.961 41.256 181.497 41.016C181.049 40.776 180.481 40.656 179.793 40.656C179.121 40.656 178.473 40.8 177.849 41.088C177.241 41.376 176.769 41.728 176.433 42.144C176.417 42.32 176.409 42.568 176.409 42.888C176.409 43.208 176.409 43.504 176.409 43.776ZM193.035 49.392C193.563 49.392 194.027 49.384 194.427 49.368C194.843 49.336 195.187 49.288 195.459 49.224V45.504C195.299 45.424 195.035 45.36 194.667 45.312C194.315 45.248 193.883 45.216 193.371 45.216C193.035 45.216 192.675 45.24 192.291 45.288C191.923 45.336 191.579 45.44 191.259 45.6C190.955 45.744 190.699 45.952 190.491 46.224C190.283 46.48 190.179 46.824 190.179 47.256C190.179 48.056 190.435 48.616 190.947 48.936C191.459 49.24 192.155 49.392 193.035 49.392ZM192.843 38.208C193.739 38.208 194.491 38.328 195.099 38.568C195.723 38.792 196.219 39.12 196.587 39.552C196.971 39.968 197.243 40.472 197.403 41.064C197.563 41.64 197.643 42.28 197.643 42.984V50.784C197.451 50.816 197.179 50.864 196.827 50.928C196.491 50.976 196.107 51.024 195.675 51.072C195.243 51.12 194.771 51.16 194.259 51.192C193.763 51.24 193.267 51.264 192.771 51.264C192.067 51.264 191.419 51.192 190.827 51.048C190.235 50.904 189.723 50.68 189.291 50.376C188.859 50.056 188.523 49.64 188.283 49.128C188.043 48.616 187.923 48 187.923 47.28C187.923 46.592 188.059 46 188.331 45.504C188.619 45.008 189.003 44.608 189.483 44.304C189.963 44 190.523 43.776 191.163 43.632C191.803 43.488 192.475 43.416 193.179 43.416C193.403 43.416 193.635 43.432 193.875 43.464C194.115 43.48 194.339 43.512 194.547 43.56C194.771 43.592 194.963 43.624 195.123 43.656C195.283 43.688 195.395 43.712 195.459 43.728V43.104C195.459 42.736 195.419 42.376 195.339 42.024C195.259 41.656 195.115 41.336 194.907 41.064C194.699 40.776 194.411 40.552 194.043 40.392C193.691 40.216 193.227 40.128 192.651 40.128C191.915 40.128 191.267 40.184 190.707 40.296C190.163 40.392 189.755 40.496 189.483 40.608L189.219 38.76C189.507 38.632 189.987 38.512 190.659 38.4C191.331 38.272 192.059 38.208 192.843 38.208ZM26.592 87V91.44H24.384V85.008H26.136C26.952 84.08 27.576 83.056 28.008 81.936C28.456 80.8 28.776 79.608 28.968 78.36C29.176 77.096 29.296 75.792 29.328 74.448C29.376 73.104 29.408 71.744 29.424 70.368H38.832V85.008H40.92V91.44H38.712V87H26.592ZM31.704 72.36C31.656 73.416 31.6 74.496 31.536 75.6C31.488 76.688 31.368 77.776 31.176 78.864C31 79.936 30.736 80.992 30.384 82.032C30.032 83.072 29.536 84.064 28.896 85.008H36.504V72.36H31.704ZM47.4878 85.392C48.0158 85.392 48.4798 85.384 48.8798 85.368C49.2958 85.336 49.6398 85.288 49.9118 85.224V81.504C49.7518 81.424 49.4878 81.36 49.1198 81.312C48.7678 81.248 48.3358 81.216 47.8238 81.216C47.4878 81.216 47.1278 81.24 46.7438 81.288C46.3758 81.336 46.0318 81.44 45.7118 81.6C45.4078 81.744 45.1518 81.952 44.9438 82.224C44.7358 82.48 44.6318 82.824 44.6318 83.256C44.6318 84.056 44.8878 84.616 45.3998 84.936C45.9118 85.24 46.6078 85.392 47.4878 85.392ZM47.2958 74.208C48.1918 74.208 48.9438 74.328 49.5518 74.568C50.1758 74.792 50.6718 75.12 51.0398 75.552C51.4238 75.968 51.6958 76.472 51.8558 77.064C52.0158 77.64 52.0958 78.28 52.0958 78.984V86.784C51.9038 86.816 51.6318 86.864 51.2798 86.928C50.9438 86.976 50.5598 87.024 50.1278 87.072C49.6958 87.12 49.2238 87.16 48.7118 87.192C48.2158 87.24 47.7198 87.264 47.2238 87.264C46.5198 87.264 45.8718 87.192 45.2798 87.048C44.6878 86.904 44.1758 86.68 43.7438 86.376C43.3118 86.056 42.9758 85.64 42.7358 85.128C42.4958 84.616 42.3758 84 42.3758 83.28C42.3758 82.592 42.5118 82 42.7838 81.504C43.0718 81.008 43.4558 80.608 43.9358 80.304C44.4158 80 44.9758 79.776 45.6158 79.632C46.2558 79.488 46.9278 79.416 47.6318 79.416C47.8558 79.416 48.0878 79.432 48.3278 79.464C48.5678 79.48 48.7918 79.512 48.9998 79.56C49.2238 79.592 49.4158 79.624 49.5758 79.656C49.7358 79.688 49.8478 79.712 49.9118 79.728V79.104C49.9118 78.736 49.8718 78.376 49.7918 78.024C49.7118 77.656 49.5678 77.336 49.3598 77.064C49.1518 76.776 48.8638 76.552 48.4958 76.392C48.1438 76.216 47.6798 76.128 47.1038 76.128C46.3678 76.128 45.7198 76.184 45.1598 76.296C44.6158 76.392 44.2078 76.496 43.9358 76.608L43.6718 74.76C43.9598 74.632 44.4398 74.512 45.1118 74.4C45.7838 74.272 46.5118 74.208 47.2958 74.208ZM57.9868 85.32C58.0828 85.336 58.2188 85.352 58.3948 85.368C58.5708 85.384 58.7708 85.4 58.9948 85.416C59.2188 85.416 59.4508 85.424 59.6908 85.44C59.9468 85.44 60.1868 85.44 60.4108 85.44C60.8748 85.44 61.3148 85.408 61.7308 85.344C62.1628 85.28 62.5308 85.168 62.8348 85.008C63.1548 84.848 63.4028 84.64 63.5788 84.384C63.7708 84.112 63.8668 83.768 63.8668 83.352C63.8668 82.952 63.7788 82.624 63.6028 82.368C63.4428 82.096 63.2188 81.88 62.9308 81.72C62.6428 81.56 62.2988 81.448 61.8988 81.384C61.5148 81.32 61.0988 81.288 60.6508 81.288H57.9868V85.32ZM60.3628 79.632C60.7948 79.632 61.1868 79.608 61.5388 79.56C61.9068 79.496 62.2188 79.392 62.4748 79.248C62.7468 79.104 62.9548 78.912 63.0988 78.672C63.2588 78.432 63.3388 78.128 63.3388 77.76C63.3388 77.376 63.2428 77.072 63.0508 76.848C62.8588 76.624 62.6028 76.456 62.2828 76.344C61.9788 76.216 61.6268 76.136 61.2268 76.104C60.8428 76.056 60.4508 76.032 60.0508 76.032C59.6828 76.032 59.3068 76.04 58.9228 76.056C58.5548 76.072 58.2428 76.088 57.9868 76.104V79.632H60.3628ZM60.3148 87.216C59.3708 87.216 58.4988 87.168 57.6988 87.072C56.8988 86.992 56.2668 86.896 55.8028 86.784V74.64C56.2668 74.528 56.8988 74.432 57.6988 74.352C58.4988 74.256 59.3708 74.208 60.3148 74.208C60.9708 74.208 61.6108 74.264 62.2348 74.376C62.8588 74.488 63.4108 74.68 63.8908 74.952C64.3708 75.208 64.7548 75.568 65.0428 76.032C65.3468 76.48 65.4988 77.04 65.4988 77.712C65.4988 78.32 65.3468 78.84 65.0428 79.272C64.7388 79.704 64.3308 80.04 63.8188 80.28C64.5068 80.52 65.0508 80.88 65.4508 81.36C65.8668 81.824 66.0748 82.48 66.0748 83.328C66.0748 84.08 65.9228 84.704 65.6188 85.2C65.3308 85.696 64.9228 86.096 64.3948 86.4C63.8828 86.704 63.2748 86.912 62.5708 87.024C61.8668 87.152 61.1148 87.216 60.3148 87.216ZM73.1753 85.392C73.7033 85.392 74.1673 85.384 74.5673 85.368C74.9833 85.336 75.3273 85.288 75.5993 85.224V81.504C75.4393 81.424 75.1753 81.36 74.8073 81.312C74.4553 81.248 74.0233 81.216 73.5113 81.216C73.1753 81.216 72.8153 81.24 72.4313 81.288C72.0633 81.336 71.7193 81.44 71.3993 81.6C71.0953 81.744 70.8393 81.952 70.6313 82.224C70.4233 82.48 70.3193 82.824 70.3193 83.256C70.3193 84.056 70.5753 84.616 71.0873 84.936C71.5993 85.24 72.2953 85.392 73.1753 85.392ZM72.9833 74.208C73.8793 74.208 74.6313 74.328 75.2393 74.568C75.8633 74.792 76.3593 75.12 76.7273 75.552C77.1113 75.968 77.3833 76.472 77.5433 77.064C77.7033 77.64 77.7833 78.28 77.7833 78.984V86.784C77.5913 86.816 77.3193 86.864 76.9673 86.928C76.6313 86.976 76.2473 87.024 75.8153 87.072C75.3833 87.12 74.9113 87.16 74.3993 87.192C73.9033 87.24 73.4073 87.264 72.9113 87.264C72.2073 87.264 71.5593 87.192 70.9673 87.048C70.3753 86.904 69.8633 86.68 69.4313 86.376C68.9993 86.056 68.6633 85.64 68.4233 85.128C68.1833 84.616 68.0633 84 68.0633 83.28C68.0633 82.592 68.1993 82 68.4713 81.504C68.7593 81.008 69.1433 80.608 69.6233 80.304C70.1033 80 70.6633 79.776 71.3033 79.632C71.9433 79.488 72.6153 79.416 73.3193 79.416C73.5433 79.416 73.7753 79.432 74.0153 79.464C74.2553 79.48 74.4793 79.512 74.6873 79.56C74.9113 79.592 75.1033 79.624 75.2633 79.656C75.4233 79.688 75.5353 79.712 75.5993 79.728V79.104C75.5993 78.736 75.5593 78.376 75.4793 78.024C75.3993 77.656 75.2553 77.336 75.0473 77.064C74.8393 76.776 74.5513 76.552 74.1833 76.392C73.8313 76.216 73.3673 76.128 72.7913 76.128C72.0553 76.128 71.4073 76.184 70.8473 76.296C70.3033 76.392 69.8953 76.496 69.6233 76.608L69.3593 74.76C69.6473 74.632 70.1273 74.512 70.7993 74.4C71.4713 74.272 72.1993 74.208 72.9833 74.208ZM91.9783 74.52V87H89.8183V77.496C89.3383 78.104 88.8103 78.816 88.2343 79.632C87.6583 80.448 87.0823 81.296 86.5063 82.176C85.9303 83.04 85.3783 83.896 84.8503 84.744C84.3223 85.592 83.8663 86.344 83.4823 87H81.4903V74.52H83.6503V83.496C84.0663 82.808 84.5383 82.056 85.0663 81.24C85.5943 80.408 86.1383 79.592 86.6983 78.792C87.2743 77.976 87.8423 77.2 88.4023 76.464C88.9783 75.712 89.5143 75.064 90.0103 74.52H91.9783ZM86.7463 72.504C85.7383 72.504 84.9143 72.248 84.2743 71.736C83.6503 71.224 83.2743 70.512 83.1463 69.6L84.8503 69.144C84.9783 69.656 85.1943 70.072 85.4983 70.392C85.8023 70.712 86.2183 70.872 86.7463 70.872C87.2743 70.872 87.6903 70.712 87.9943 70.392C88.2983 70.072 88.5143 69.656 88.6423 69.144L90.3223 69.6C90.1943 70.512 89.8183 71.224 89.1943 71.736C88.5703 72.248 87.7543 72.504 86.7463 72.504ZM111.397 87H109.165V76.392H103.597V87H101.365V74.52H111.397V87ZM126.256 80.76C126.256 81.752 126.112 82.648 125.824 83.448C125.536 84.248 125.128 84.936 124.6 85.512C124.088 86.088 123.472 86.536 122.752 86.856C122.032 87.16 121.248 87.312 120.4 87.312C119.552 87.312 118.768 87.16 118.048 86.856C117.328 86.536 116.704 86.088 116.176 85.512C115.664 84.936 115.264 84.248 114.976 83.448C114.688 82.648 114.544 81.752 114.544 80.76C114.544 79.784 114.688 78.896 114.976 78.096C115.264 77.28 115.664 76.584 116.176 76.008C116.704 75.432 117.328 74.992 118.048 74.688C118.768 74.368 119.552 74.208 120.4 74.208C121.248 74.208 122.032 74.368 122.752 74.688C123.472 74.992 124.088 75.432 124.6 76.008C125.128 76.584 125.536 77.28 125.824 78.096C126.112 78.896 126.256 79.784 126.256 80.76ZM123.928 80.76C123.928 79.352 123.608 78.24 122.968 77.424C122.344 76.592 121.488 76.176 120.4 76.176C119.312 76.176 118.448 76.592 117.808 77.424C117.184 78.24 116.872 79.352 116.872 80.76C116.872 82.168 117.184 83.288 117.808 84.12C118.448 84.936 119.312 85.344 120.4 85.344C121.488 85.344 122.344 84.936 122.968 84.12C123.608 83.288 123.928 82.168 123.928 80.76ZM139.429 87H137.197V76.392H131.629V87H129.397V74.52H139.429V87ZM151.936 80.784C151.936 79.328 151.576 78.208 150.856 77.424C150.136 76.64 149.176 76.248 147.976 76.248C147.304 76.248 146.776 76.272 146.392 76.32C146.024 76.368 145.728 76.424 145.504 76.488V84.36C145.776 84.584 146.168 84.8 146.68 85.008C147.192 85.216 147.752 85.32 148.36 85.32C149 85.32 149.544 85.208 149.992 84.984C150.456 84.744 150.832 84.424 151.12 84.024C151.408 83.608 151.616 83.128 151.744 82.584C151.872 82.024 151.936 81.424 151.936 80.784ZM154.264 80.784C154.264 81.728 154.136 82.6 153.88 83.4C153.64 84.2 153.28 84.888 152.8 85.464C152.32 86.04 151.728 86.488 151.024 86.808C150.336 87.128 149.544 87.288 148.648 87.288C147.928 87.288 147.288 87.192 146.728 87C146.184 86.808 145.776 86.624 145.504 86.448V91.44H143.272V74.904C143.8 74.776 144.456 74.64 145.24 74.496C146.04 74.336 146.96 74.256 148 74.256C148.96 74.256 149.824 74.408 150.592 74.712C151.36 75.016 152.016 75.448 152.56 76.008C153.104 76.568 153.52 77.256 153.808 78.072C154.112 78.872 154.264 79.776 154.264 80.784ZM168.42 80.76C168.42 81.752 168.276 82.648 167.988 83.448C167.7 84.248 167.292 84.936 166.764 85.512C166.252 86.088 165.636 86.536 164.916 86.856C164.196 87.16 163.412 87.312 162.564 87.312C161.716 87.312 160.932 87.16 160.212 86.856C159.492 86.536 158.868 86.088 158.34 85.512C157.828 84.936 157.428 84.248 157.14 83.448C156.852 82.648 156.708 81.752 156.708 80.76C156.708 79.784 156.852 78.896 157.14 78.096C157.428 77.28 157.828 76.584 158.34 76.008C158.868 75.432 159.492 74.992 160.212 74.688C160.932 74.368 161.716 74.208 162.564 74.208C163.412 74.208 164.196 74.368 164.916 74.688C165.636 74.992 166.252 75.432 166.764 76.008C167.292 76.584 167.7 77.28 167.988 78.096C168.276 78.896 168.42 79.784 168.42 80.76ZM166.092 80.76C166.092 79.352 165.772 78.24 165.132 77.424C164.508 76.592 163.652 76.176 162.564 76.176C161.476 76.176 160.612 76.592 159.972 77.424C159.348 78.24 159.036 79.352 159.036 80.76C159.036 82.168 159.348 83.288 159.972 84.12C160.612 84.936 161.476 85.344 162.564 85.344C163.652 85.344 164.508 84.936 165.132 84.12C165.772 83.288 166.092 82.168 166.092 80.76ZM173.577 75.96C174.073 75.56 174.649 75.256 175.305 75.048C175.977 74.824 176.617 74.712 177.225 74.712C179.017 74.712 180.369 75.264 181.281 76.368C182.209 77.456 182.673 78.976 182.673 80.928C182.673 81.76 182.561 82.56 182.337 83.328C182.113 84.096 181.761 84.776 181.281 85.368C180.817 85.96 180.225 86.432 179.505 86.784C178.785 87.136 177.929 87.312 176.937 87.312C175.801 87.312 174.857 87.104 174.105 86.688C173.353 86.272 172.753 85.704 172.305 84.984C171.873 84.264 171.569 83.424 171.393 82.464C171.217 81.504 171.129 80.488 171.129 79.416C171.129 78.024 171.225 76.728 171.417 75.528C171.625 74.328 171.993 73.272 172.521 72.36C173.049 71.448 173.777 70.696 174.705 70.104C175.649 69.496 176.857 69.088 178.329 68.88C178.761 68.816 179.137 68.768 179.457 68.736C179.793 68.688 180.081 68.648 180.321 68.616C180.577 68.584 180.809 68.552 181.017 68.52C181.225 68.472 181.441 68.424 181.665 68.376L181.905 70.392C181.793 70.424 181.673 70.448 181.545 70.464C181.433 70.48 181.265 70.504 181.041 70.536C180.833 70.568 180.545 70.608 180.177 70.656C179.825 70.704 179.361 70.76 178.785 70.824C177.201 71 175.985 71.48 175.137 72.264C174.289 73.048 173.769 74.28 173.577 75.96ZM173.433 79.776C173.433 80.528 173.481 81.24 173.577 81.912C173.689 82.584 173.873 83.176 174.129 83.688C174.401 84.2 174.761 84.608 175.209 84.912C175.657 85.2 176.233 85.344 176.937 85.344C177.545 85.344 178.065 85.232 178.497 85.008C178.929 84.768 179.281 84.448 179.553 84.048C179.825 83.648 180.025 83.184 180.153 82.656C180.281 82.112 180.345 81.536 180.345 80.928C180.345 80.384 180.289 79.856 180.177 79.344C180.081 78.832 179.897 78.376 179.625 77.976C179.353 77.576 178.985 77.256 178.521 77.016C178.073 76.776 177.505 76.656 176.817 76.656C176.145 76.656 175.497 76.8 174.873 77.088C174.265 77.376 173.793 77.728 173.457 78.144C173.441 78.32 173.433 78.568 173.433 78.888C173.433 79.208 173.433 79.504 173.433 79.776ZM184.37 89.328C184.546 89.408 184.77 89.48 185.042 89.544C185.33 89.624 185.61 89.664 185.882 89.664C186.762 89.664 187.45 89.464 187.946 89.064C188.442 88.68 188.89 88.048 189.29 87.168C188.282 85.248 187.338 83.216 186.458 81.072C185.594 78.912 184.874 76.728 184.298 74.52H186.698C186.874 75.24 187.082 76.016 187.322 76.848C187.578 77.68 187.858 78.536 188.162 79.416C188.466 80.296 188.794 81.176 189.146 82.056C189.498 82.936 189.866 83.784 190.25 84.6C190.858 82.92 191.386 81.256 191.834 79.608C192.282 77.96 192.706 76.264 193.106 74.52H195.41C194.834 76.872 194.194 79.136 193.49 81.312C192.786 83.472 192.026 85.496 191.21 87.384C190.89 88.104 190.554 88.72 190.202 89.232C189.866 89.76 189.49 90.192 189.074 90.528C188.658 90.864 188.186 91.112 187.658 91.272C187.146 91.432 186.562 91.512 185.906 91.512C185.73 91.512 185.546 91.496 185.354 91.464C185.162 91.448 184.97 91.416 184.778 91.368C184.602 91.336 184.434 91.296 184.274 91.248C184.13 91.2 184.026 91.16 183.962 91.128L184.37 89.328ZM196.787 80.784C196.787 79.68 196.947 78.72 197.267 77.904C197.587 77.072 198.011 76.384 198.539 75.84C199.067 75.296 199.675 74.888 200.363 74.616C201.051 74.344 201.755 74.208 202.475 74.208C204.155 74.208 205.443 74.736 206.339 75.792C207.235 76.832 207.682 78.424 207.682 80.568C207.682 80.664 207.682 80.792 207.682 80.952C207.682 81.096 207.674 81.232 207.659 81.36H199.115C199.211 82.656 199.587 83.64 200.243 84.312C200.899 84.984 201.923 85.32 203.315 85.32C204.099 85.32 204.755 85.256 205.283 85.128C205.827 84.984 206.235 84.848 206.507 84.72L206.819 86.592C206.547 86.736 206.067 86.888 205.379 87.048C204.707 87.208 203.939 87.288 203.075 87.288C201.987 87.288 201.043 87.128 200.243 86.808C199.459 86.472 198.811 86.016 198.299 85.44C197.787 84.864 197.403 84.184 197.146 83.4C196.907 82.6 196.787 81.728 196.787 80.784ZM205.355 79.56C205.371 78.552 205.115 77.728 204.587 77.088C204.075 76.432 203.363 76.104 202.451 76.104C201.939 76.104 201.483 76.208 201.083 76.416C200.699 76.608 200.371 76.864 200.099 77.184C199.827 77.504 199.611 77.872 199.451 78.288C199.307 78.704 199.211 79.128 199.163 79.56H205.355ZM213.265 77.808C213.105 79.392 212.985 80.976 212.905 82.56C212.825 84.128 212.761 85.608 212.713 87H210.577C210.609 86.024 210.657 85.008 210.721 83.952C210.785 82.88 210.857 81.808 210.937 80.736C211.017 79.648 211.105 78.584 211.201 77.544C211.297 76.488 211.401 75.48 211.513 74.52H213.553C214.065 75.352 214.665 76.496 215.353 77.952C216.041 79.392 216.833 81.056 217.729 82.944C218.625 81.056 219.417 79.392 220.105 77.952C220.793 76.496 221.393 75.352 221.905 74.52H223.969C224.081 75.48 224.185 76.488 224.281 77.544C224.377 78.584 224.465 79.648 224.545 80.736C224.625 81.808 224.697 82.88 224.761 83.952C224.825 85.008 224.873 86.024 224.905 87H222.697C222.649 85.608 222.585 84.128 222.505 82.56C222.425 80.976 222.305 79.392 222.145 77.808C221.889 78.304 221.593 78.904 221.257 79.608C220.921 80.296 220.585 81 220.249 81.72C219.929 82.44 219.625 83.128 219.337 83.784C219.049 84.44 218.825 84.96 218.665 85.344H216.793C216.617 84.944 216.377 84.416 216.073 83.76C215.785 83.104 215.473 82.416 215.137 81.696C214.817 80.96 214.489 80.248 214.153 79.56C213.817 78.856 213.521 78.272 213.265 77.808ZM233.302 80.784C233.302 79.68 233.462 78.72 233.782 77.904C234.102 77.072 234.526 76.384 235.054 75.84C235.582 75.296 236.19 74.888 236.878 74.616C237.566 74.344 238.27 74.208 238.99 74.208C240.67 74.208 241.958 74.736 242.854 75.792C243.75 76.832 244.198 78.424 244.198 80.568C244.198 80.664 244.198 80.792 244.198 80.952C244.198 81.096 244.19 81.232 244.174 81.36H235.63C235.726 82.656 236.102 83.64 236.758 84.312C237.414 84.984 238.438 85.32 239.83 85.32C240.614 85.32 241.27 85.256 241.798 85.128C242.342 84.984 242.75 84.848 243.022 84.72L243.334 86.592C243.062 86.736 242.582 86.888 241.894 87.048C241.222 87.208 240.454 87.288 239.59 87.288C238.502 87.288 237.558 87.128 236.758 86.808C235.974 86.472 235.326 86.016 234.814 85.44C234.302 84.864 233.918 84.184 233.662 83.4C233.422 82.6 233.302 81.728 233.302 80.784ZM241.87 79.56C241.886 78.552 241.63 77.728 241.102 77.088C240.59 76.432 239.878 76.104 238.966 76.104C238.454 76.104 237.998 76.208 237.598 76.416C237.214 76.608 236.886 76.864 236.614 77.184C236.342 77.504 236.126 77.872 235.966 78.288C235.822 78.704 235.726 79.128 235.678 79.56H241.87ZM247.404 87V74.52H249.636V85.152H254.244V74.52H256.476V85.152H261.084V74.52H263.316V85.152H264.996V90.48H262.884V87H247.404ZM266.724 80.784C266.724 79.68 266.884 78.72 267.204 77.904C267.524 77.072 267.948 76.384 268.476 75.84C269.004 75.296 269.612 74.888 270.3 74.616C270.988 74.344 271.692 74.208 272.412 74.208C274.092 74.208 275.38 74.736 276.276 75.792C277.172 76.832 277.62 78.424 277.62 80.568C277.62 80.664 277.62 80.792 277.62 80.952C277.62 81.096 277.612 81.232 277.596 81.36H269.052C269.148 82.656 269.524 83.64 270.18 84.312C270.836 84.984 271.86 85.32 273.252 85.32C274.036 85.32 274.692 85.256 275.22 85.128C275.764 84.984 276.172 84.848 276.444 84.72L276.756 86.592C276.484 86.736 276.004 86.888 275.316 87.048C274.644 87.208 273.876 87.288 273.012 87.288C271.924 87.288 270.98 87.128 270.18 86.808C269.396 86.472 268.748 86.016 268.236 85.44C267.724 84.864 267.34 84.184 267.084 83.4C266.844 82.6 266.724 81.728 266.724 80.784ZM275.292 79.56C275.308 78.552 275.052 77.728 274.524 77.088C274.012 76.432 273.3 76.104 272.388 76.104C271.876 76.104 271.42 76.208 271.02 76.416C270.636 76.608 270.308 76.864 270.036 77.184C269.764 77.504 269.548 77.872 269.388 78.288C269.244 78.704 269.148 79.128 269.1 79.56H275.292ZM270.084 72.216C269.716 72.216 269.388 72.088 269.1 71.832C268.828 71.56 268.692 71.216 268.692 70.8C268.692 70.384 268.828 70.048 269.1 69.792C269.388 69.52 269.716 69.384 270.084 69.384C270.452 69.384 270.772 69.52 271.044 69.792C271.332 70.048 271.476 70.384 271.476 70.8C271.476 71.216 271.332 71.56 271.044 71.832C270.772 72.088 270.452 72.216 270.084 72.216ZM274.644 72.216C274.276 72.216 273.948 72.088 273.66 71.832C273.388 71.56 273.252 71.216 273.252 70.8C273.252 70.384 273.388 70.048 273.66 69.792C273.948 69.52 274.276 69.384 274.644 69.384C275.012 69.384 275.332 69.52 275.604 69.792C275.892 70.048 276.036 70.384 276.036 70.8C276.036 71.216 275.892 71.56 275.604 71.832C275.332 72.088 275.012 72.216 274.644 72.216ZM295.045 80.784C295.045 79.328 294.685 78.208 293.965 77.424C293.245 76.64 292.285 76.248 291.085 76.248C290.413 76.248 289.885 76.272 289.501 76.32C289.133 76.368 288.837 76.424 288.613 76.488V84.36C288.885 84.584 289.277 84.8 289.789 85.008C290.301 85.216 290.861 85.32 291.469 85.32C292.109 85.32 292.653 85.208 293.101 84.984C293.565 84.744 293.941 84.424 294.229 84.024C294.517 83.608 294.725 83.128 294.853 82.584C294.981 82.024 295.045 81.424 295.045 80.784ZM297.373 80.784C297.373 81.728 297.245 82.6 296.989 83.4C296.749 84.2 296.389 84.888 295.909 85.464C295.429 86.04 294.837 86.488 294.133 86.808C293.445 87.128 292.653 87.288 291.757 87.288C291.037 87.288 290.397 87.192 289.837 87C289.293 86.808 288.885 86.624 288.613 86.448V91.44H286.381V74.904C286.909 74.776 287.565 74.64 288.349 74.496C289.149 74.336 290.069 74.256 291.109 74.256C292.069 74.256 292.933 74.408 293.701 74.712C294.469 75.016 295.125 75.448 295.669 76.008C296.213 76.568 296.629 77.256 296.917 78.072C297.221 78.872 297.373 79.776 297.373 80.784ZM304.738 85.392C305.266 85.392 305.73 85.384 306.13 85.368C306.546 85.336 306.89 85.288 307.162 85.224V81.504C307.002 81.424 306.738 81.36 306.37 81.312C306.018 81.248 305.586 81.216 305.074 81.216C304.738 81.216 304.378 81.24 303.994 81.288C303.626 81.336 303.282 81.44 302.962 81.6C302.658 81.744 302.402 81.952 302.194 82.224C301.986 82.48 301.882 82.824 301.882 83.256C301.882 84.056 302.138 84.616 302.65 84.936C303.162 85.24 303.858 85.392 304.738 85.392ZM304.546 74.208C305.442 74.208 306.194 74.328 306.802 74.568C307.426 74.792 307.922 75.12 308.29 75.552C308.674 75.968 308.946 76.472 309.106 77.064C309.266 77.64 309.346 78.28 309.346 78.984V86.784C309.154 86.816 308.882 86.864 308.53 86.928C308.194 86.976 307.81 87.024 307.378 87.072C306.946 87.12 306.474 87.16 305.962 87.192C305.466 87.24 304.97 87.264 304.474 87.264C303.77 87.264 303.122 87.192 302.53 87.048C301.938 86.904 301.426 86.68 300.994 86.376C300.562 86.056 300.226 85.64 299.986 85.128C299.746 84.616 299.626 84 299.626 83.28C299.626 82.592 299.762 82 300.034 81.504C300.322 81.008 300.706 80.608 301.186 80.304C301.666 80 302.226 79.776 302.866 79.632C303.506 79.488 304.178 79.416 304.882 79.416C305.106 79.416 305.338 79.432 305.578 79.464C305.818 79.48 306.042 79.512 306.25 79.56C306.474 79.592 306.666 79.624 306.826 79.656C306.986 79.688 307.098 79.712 307.162 79.728V79.104C307.162 78.736 307.122 78.376 307.042 78.024C306.962 77.656 306.818 77.336 306.61 77.064C306.402 76.776 306.114 76.552 305.746 76.392C305.394 76.216 304.93 76.128 304.354 76.128C303.618 76.128 302.97 76.184 302.41 76.296C301.866 76.392 301.458 76.496 301.186 76.608L300.922 74.76C301.21 74.632 301.69 74.512 302.362 74.4C303.034 74.272 303.762 74.208 304.546 74.208ZM316.221 74.208C316.941 74.208 317.613 74.28 318.237 74.424C318.861 74.568 319.397 74.784 319.845 75.072C320.293 75.36 320.645 75.72 320.901 76.152C321.157 76.584 321.285 77.088 321.285 77.664C321.285 78.032 321.221 78.368 321.093 78.672C320.965 78.976 320.805 79.248 320.613 79.488C320.421 79.728 320.205 79.936 319.965 80.112C319.741 80.272 319.525 80.384 319.317 80.448C320.053 80.672 320.629 81.072 321.045 81.648C321.477 82.208 321.693 82.92 321.693 83.784C321.693 84.968 321.213 85.848 320.253 86.424C319.293 87 317.989 87.288 316.341 87.288C315.333 87.288 314.461 87.208 313.725 87.048C313.005 86.888 312.493 86.736 312.189 86.592L312.573 84.696C312.829 84.792 313.285 84.928 313.941 85.104C314.613 85.264 315.413 85.344 316.341 85.344C317.349 85.344 318.117 85.192 318.645 84.888C319.173 84.568 319.437 84.096 319.437 83.472C319.437 83.024 319.333 82.664 319.125 82.392C318.933 82.104 318.685 81.888 318.381 81.744C318.077 81.6 317.749 81.504 317.397 81.456C317.045 81.408 316.717 81.384 316.413 81.384H314.325V79.608H316.341C316.629 79.608 316.925 79.592 317.229 79.56C317.549 79.512 317.837 79.424 318.093 79.296C318.365 79.168 318.589 78.992 318.765 78.768C318.941 78.528 319.029 78.216 319.029 77.832C319.029 77.528 318.949 77.272 318.789 77.064C318.645 76.84 318.445 76.656 318.189 76.512C317.933 76.368 317.629 76.264 317.277 76.2C316.941 76.12 316.589 76.08 316.221 76.08C315.933 76.08 315.621 76.104 315.285 76.152C314.949 76.2 314.621 76.264 314.301 76.344C313.981 76.408 313.693 76.48 313.437 76.56C313.181 76.64 312.997 76.712 312.885 76.776L312.477 74.856C312.605 74.808 312.805 74.744 313.077 74.664C313.349 74.584 313.653 74.512 313.989 74.448C314.341 74.384 314.709 74.328 315.093 74.28C315.477 74.232 315.853 74.208 316.221 74.208ZM327.387 74.88C327.387 76.224 327.339 77.448 327.243 78.552C327.147 79.64 327.027 80.728 326.883 81.816H325.491C325.347 80.728 325.227 79.64 325.131 78.552C325.035 77.448 324.987 76.224 324.987 74.88V70.368H327.387V74.88ZM327.795 85.704C327.795 86.136 327.651 86.512 327.363 86.832C327.075 87.152 326.683 87.312 326.187 87.312C325.691 87.312 325.299 87.152 325.011 86.832C324.723 86.512 324.579 86.136 324.579 85.704C324.579 85.272 324.723 84.896 325.011 84.576C325.299 84.256 325.691 84.096 326.187 84.096C326.683 84.096 327.075 84.256 327.363 84.576C327.651 84.896 327.795 85.272 327.795 85.704Z" fill="#DBE2F9"/>
<rect x="1" y="1" width="357" height="118" rx="11" stroke="#89E159" stroke-width="2"/>
</svg>
