<svg width="456" height="123" viewBox="0 0 456 123" fill="none" xmlns="http://www.w3.org/2000/svg">
<rect x="1" y="1" width="372" height="82" rx="11" stroke="#89E159" stroke-width="2"/>
<path d="M38.376 34.368C37.88 34.912 37.32 35.52 36.696 36.192C36.072 36.848 35.416 37.528 34.728 38.232C34.056 38.92 33.384 39.6 32.712 40.272C32.04 40.944 31.408 41.568 30.816 42.144C31.504 42.624 32.232 43.216 33 43.92C33.768 44.624 34.52 45.376 35.256 46.176C35.992 46.976 36.68 47.792 37.32 48.624C37.976 49.456 38.52 50.248 38.952 51H36.216C35.736 50.248 35.184 49.496 34.56 48.744C33.936 47.976 33.272 47.248 32.568 46.56C31.88 45.856 31.176 45.208 30.456 44.616C29.752 44.024 29.064 43.52 28.392 43.104V51H26.064V34.368H28.392V41.712C28.952 41.184 29.568 40.592 30.24 39.936C30.912 39.264 31.576 38.592 32.232 37.92C32.888 37.248 33.504 36.608 34.08 36C34.672 35.376 35.168 34.832 35.568 34.368H38.376ZM45.9671 40.392C45.9671 40.92 45.9511 41.488 45.9191 42.096C45.9031 42.688 45.8631 43.288 45.7991 43.896C45.7351 44.488 45.6471 45.08 45.5351 45.672C45.4231 46.248 45.2791 46.792 45.1031 47.304C44.9271 47.816 44.7031 48.296 44.4311 48.744C44.1751 49.192 43.8551 49.592 43.4711 49.944C43.0871 50.28 42.6391 50.568 42.1271 50.808C41.6151 51.032 41.0151 51.176 40.3271 51.24L40.0151 49.368C40.7991 49.208 41.4151 48.912 41.8631 48.48C42.3271 48.048 42.6951 47.52 42.9671 46.896C43.2071 46.352 43.3831 45.736 43.4951 45.048C43.6071 44.36 43.6871 43.648 43.7351 42.912C43.7831 42.16 43.8071 41.408 43.8071 40.656C43.8231 39.904 43.8311 39.192 43.8311 38.52H52.1351V51H49.9031V40.392H45.9671ZM54.5029 53.328C54.6789 53.408 54.9029 53.48 55.1749 53.544C55.4629 53.624 55.7429 53.664 56.0149 53.664C56.8949 53.664 57.5829 53.464 58.0789 53.064C58.5749 52.68 59.0229 52.048 59.4229 51.168C58.4149 49.248 57.4709 47.216 56.5909 45.072C55.7269 42.912 55.0069 40.728 54.4309 38.52H56.8309C57.0069 39.24 57.2149 40.016 57.4549 40.848C57.7109 41.68 57.9909 42.536 58.2949 43.416C58.5989 44.296 58.9269 45.176 59.2789 46.056C59.6309 46.936 59.9989 47.784 60.3829 48.6C60.9909 46.92 61.5189 45.256 61.9669 43.608C62.4149 41.96 62.8389 40.264 63.2389 38.52H65.5429C64.9669 40.872 64.3269 43.136 63.6229 45.312C62.9189 47.472 62.1589 49.496 61.3429 51.384C61.0229 52.104 60.6869 52.72 60.3349 53.232C59.9989 53.76 59.6229 54.192 59.2069 54.528C58.7909 54.864 58.3189 55.112 57.7909 55.272C57.2789 55.432 56.6949 55.512 56.0389 55.512C55.8629 55.512 55.6789 55.496 55.4869 55.464C55.2949 55.448 55.1029 55.416 54.9109 55.368C54.7349 55.336 54.5669 55.296 54.4069 55.248C54.2629 55.2 54.1589 55.16 54.0949 55.128L54.5029 53.328ZM69.9126 39.96C70.4086 39.56 70.9846 39.256 71.6406 39.048C72.3126 38.824 72.9526 38.712 73.5606 38.712C75.3526 38.712 76.7046 39.264 77.6166 40.368C78.5446 41.456 79.0086 42.976 79.0086 44.928C79.0086 45.76 78.8966 46.56 78.6726 47.328C78.4486 48.096 78.0966 48.776 77.6166 49.368C77.1526 49.96 76.5606 50.432 75.8406 50.784C75.1206 51.136 74.2646 51.312 73.2726 51.312C72.1366 51.312 71.1926 51.104 70.4406 50.688C69.6886 50.272 69.0886 49.704 68.6406 48.984C68.2086 48.264 67.9046 47.424 67.7286 46.464C67.5526 45.504 67.4646 44.488 67.4646 43.416C67.4646 42.024 67.5606 40.728 67.7526 39.528C67.9606 38.328 68.3286 37.272 68.8566 36.36C69.3846 35.448 70.1126 34.696 71.0406 34.104C71.9846 33.496 73.1926 33.088 74.6646 32.88C75.0966 32.816 75.4726 32.768 75.7926 32.736C76.1286 32.688 76.4166 32.648 76.6566 32.616C76.9126 32.584 77.1446 32.552 77.3526 32.52C77.5606 32.472 77.7766 32.424 78.0006 32.376L78.2406 34.392C78.1286 34.424 78.0086 34.448 77.8806 34.464C77.7686 34.48 77.6006 34.504 77.3766 34.536C77.1686 34.568 76.8806 34.608 76.5126 34.656C76.1606 34.704 75.6966 34.76 75.1206 34.824C73.5366 35 72.3206 35.48 71.4726 36.264C70.6246 37.048 70.1046 38.28 69.9126 39.96ZM69.7686 43.776C69.7686 44.528 69.8166 45.24 69.9126 45.912C70.0246 46.584 70.2086 47.176 70.4646 47.688C70.7366 48.2 71.0966 48.608 71.5446 48.912C71.9926 49.2 72.5686 49.344 73.2726 49.344C73.8806 49.344 74.4006 49.232 74.8326 49.008C75.2646 48.768 75.6166 48.448 75.8886 48.048C76.1606 47.648 76.3606 47.184 76.4886 46.656C76.6166 46.112 76.6806 45.536 76.6806 44.928C76.6806 44.384 76.6246 43.856 76.5126 43.344C76.4166 42.832 76.2326 42.376 75.9606 41.976C75.6886 41.576 75.3206 41.256 74.8566 41.016C74.4086 40.776 73.8406 40.656 73.1526 40.656C72.4806 40.656 71.8326 40.8 71.2086 41.088C70.6006 41.376 70.1286 41.728 69.7926 42.144C69.7766 42.32 69.7686 42.568 69.7686 42.888C69.7686 43.208 69.7686 43.504 69.7686 43.776ZM92.394 51H90.162V45.48H84.402V51H82.17V38.52H84.402V43.608H90.162V38.52H92.394V51ZM106.721 38.52V51H104.561V41.496C104.081 42.104 103.553 42.816 102.977 43.632C102.401 44.448 101.825 45.296 101.249 46.176C100.673 47.04 100.121 47.896 99.5925 48.744C99.0645 49.592 98.6085 50.344 98.2245 51H96.2325V38.52H98.3925V47.496C98.8085 46.808 99.2805 46.056 99.8085 45.24C100.337 44.408 100.881 43.592 101.441 42.792C102.017 41.976 102.585 41.2 103.145 40.464C103.721 39.712 104.257 39.064 104.753 38.52H106.721ZM115.113 44.208C115.609 44.56 116.145 45.008 116.721 45.552C117.297 46.08 117.857 46.656 118.401 47.28C118.961 47.904 119.481 48.544 119.961 49.2C120.441 49.84 120.849 50.44 121.185 51H118.545C118.193 50.456 117.777 49.904 117.297 49.344C116.833 48.768 116.345 48.216 115.833 47.688C115.321 47.16 114.801 46.672 114.273 46.224C113.745 45.776 113.249 45.4 112.785 45.096V51H110.553V38.52H112.785V43.872C113.169 43.504 113.609 43.08 114.105 42.6C114.601 42.104 115.097 41.608 115.593 41.112C116.105 40.6 116.577 40.12 117.009 39.672C117.441 39.208 117.793 38.824 118.065 38.52H120.657C120.305 38.904 119.889 39.344 119.409 39.84C118.945 40.32 118.457 40.816 117.945 41.328C117.449 41.84 116.953 42.352 116.457 42.864C115.961 43.36 115.513 43.808 115.113 44.208ZM127.667 49.392C128.195 49.392 128.659 49.384 129.059 49.368C129.475 49.336 129.819 49.288 130.091 49.224V45.504C129.931 45.424 129.667 45.36 129.299 45.312C128.947 45.248 128.515 45.216 128.003 45.216C127.667 45.216 127.307 45.24 126.923 45.288C126.555 45.336 126.211 45.44 125.891 45.6C125.587 45.744 125.331 45.952 125.123 46.224C124.915 46.48 124.811 46.824 124.811 47.256C124.811 48.056 125.067 48.616 125.579 48.936C126.091 49.24 126.787 49.392 127.667 49.392ZM127.475 38.208C128.371 38.208 129.123 38.328 129.731 38.568C130.355 38.792 130.851 39.12 131.219 39.552C131.603 39.968 131.875 40.472 132.035 41.064C132.195 41.64 132.275 42.28 132.275 42.984V50.784C132.083 50.816 131.811 50.864 131.459 50.928C131.123 50.976 130.739 51.024 130.307 51.072C129.875 51.12 129.403 51.16 128.891 51.192C128.395 51.24 127.899 51.264 127.403 51.264C126.699 51.264 126.051 51.192 125.459 51.048C124.867 50.904 124.355 50.68 123.923 50.376C123.491 50.056 123.155 49.64 122.915 49.128C122.675 48.616 122.555 48 122.555 47.28C122.555 46.592 122.691 46 122.963 45.504C123.251 45.008 123.635 44.608 124.115 44.304C124.595 44 125.155 43.776 125.795 43.632C126.435 43.488 127.107 43.416 127.811 43.416C128.035 43.416 128.267 43.432 128.507 43.464C128.747 43.48 128.971 43.512 129.179 43.56C129.403 43.592 129.595 43.624 129.755 43.656C129.915 43.688 130.027 43.712 130.091 43.728V43.104C130.091 42.736 130.051 42.376 129.971 42.024C129.891 41.656 129.747 41.336 129.539 41.064C129.331 40.776 129.043 40.552 128.675 40.392C128.323 40.216 127.859 40.128 127.283 40.128C126.547 40.128 125.899 40.184 125.339 40.296C124.795 40.392 124.387 40.496 124.115 40.608L123.851 38.76C124.139 38.632 124.619 38.512 125.291 38.4C125.963 38.272 126.691 38.208 127.475 38.208ZM143.913 41.808C143.753 43.392 143.633 44.976 143.553 46.56C143.473 48.128 143.409 49.608 143.361 51H141.225C141.257 50.024 141.305 49.008 141.369 47.952C141.433 46.88 141.505 45.808 141.585 44.736C141.665 43.648 141.753 42.584 141.849 41.544C141.945 40.488 142.049 39.48 142.161 38.52H144.201C144.713 39.352 145.313 40.496 146.001 41.952C146.689 43.392 147.481 45.056 148.377 46.944C149.273 45.056 150.065 43.392 150.753 41.952C151.441 40.496 152.041 39.352 152.553 38.52H154.617C154.729 39.48 154.833 40.488 154.929 41.544C155.025 42.584 155.113 43.648 155.193 44.736C155.273 45.808 155.345 46.88 155.409 47.952C155.473 49.008 155.521 50.024 155.553 51H153.345C153.297 49.608 153.233 48.128 153.153 46.56C153.073 44.976 152.953 43.392 152.793 41.808C152.537 42.304 152.241 42.904 151.905 43.608C151.569 44.296 151.233 45 150.897 45.72C150.577 46.44 150.273 47.128 149.985 47.784C149.697 48.44 149.473 48.96 149.313 49.344H147.441C147.265 48.944 147.025 48.416 146.721 47.76C146.433 47.104 146.121 46.416 145.785 45.696C145.465 44.96 145.137 44.248 144.801 43.56C144.465 42.856 144.169 42.272 143.913 41.808ZM170.108 44.76C170.108 45.752 169.964 46.648 169.676 47.448C169.388 48.248 168.98 48.936 168.452 49.512C167.94 50.088 167.324 50.536 166.604 50.856C165.884 51.16 165.1 51.312 164.252 51.312C163.404 51.312 162.62 51.16 161.9 50.856C161.18 50.536 160.556 50.088 160.028 49.512C159.516 48.936 159.116 48.248 158.828 47.448C158.54 46.648 158.396 45.752 158.396 44.76C158.396 43.784 158.54 42.896 158.828 42.096C159.116 41.28 159.516 40.584 160.028 40.008C160.556 39.432 161.18 38.992 161.9 38.688C162.62 38.368 163.404 38.208 164.252 38.208C165.1 38.208 165.884 38.368 166.604 38.688C167.324 38.992 167.94 39.432 168.452 40.008C168.98 40.584 169.388 41.28 169.676 42.096C169.964 42.896 170.108 43.784 170.108 44.76ZM167.78 44.76C167.78 43.352 167.46 42.24 166.82 41.424C166.196 40.592 165.34 40.176 164.252 40.176C163.164 40.176 162.3 40.592 161.66 41.424C161.036 42.24 160.724 43.352 160.724 44.76C160.724 46.168 161.036 47.288 161.66 48.12C162.3 48.936 163.164 49.344 164.252 49.344C165.34 49.344 166.196 48.936 166.82 48.12C167.46 47.288 167.78 46.168 167.78 44.76ZM171.712 49.176H173.056C173.584 48.408 174 47.616 174.304 46.8C174.624 45.984 174.864 45.144 175.024 44.28C175.184 43.4 175.288 42.488 175.336 41.544C175.384 40.584 175.416 39.576 175.432 38.52H183.616V49.176H185.296V54.48H183.184V51H173.824V54.48H171.712V49.176ZM181.384 49.176V40.392H177.472C177.456 41.144 177.416 41.904 177.352 42.672C177.288 43.424 177.184 44.176 177.04 44.928C176.896 45.664 176.688 46.392 176.416 47.112C176.16 47.816 175.832 48.504 175.432 49.176H181.384ZM198.197 38.52V51H196.037V41.496C195.557 42.104 195.029 42.816 194.453 43.632C193.877 44.448 193.301 45.296 192.725 46.176C192.149 47.04 191.597 47.896 191.069 48.744C190.541 49.592 190.085 50.344 189.701 51H187.709V38.52H189.869V47.496C190.285 46.808 190.757 46.056 191.285 45.24C191.813 44.408 192.357 43.592 192.917 42.792C193.493 41.976 194.061 41.2 194.621 40.464C195.197 39.712 195.733 39.064 196.229 38.52H198.197ZM203.589 44.76C203.589 45.464 203.701 46.088 203.925 46.632C204.165 47.176 204.493 47.64 204.909 48.024C205.325 48.392 205.813 48.68 206.373 48.888C206.949 49.08 207.565 49.184 208.221 49.2V40.32C207.565 40.336 206.949 40.448 206.373 40.656C205.813 40.864 205.325 41.16 204.909 41.544C204.493 41.912 204.165 42.368 203.925 42.912C203.701 43.456 203.589 44.072 203.589 44.76ZM210.381 49.2C211.037 49.184 211.645 49.08 212.205 48.888C212.781 48.68 213.277 48.392 213.693 48.024C214.109 47.64 214.429 47.176 214.653 46.632C214.893 46.088 215.013 45.464 215.013 44.76C215.013 44.072 214.893 43.456 214.653 42.912C214.429 42.368 214.109 41.912 213.693 41.544C213.277 41.16 212.781 40.864 212.205 40.656C211.645 40.448 211.037 40.336 210.381 40.32V49.2ZM210.381 55.44H208.221V51.072C207.277 51.056 206.389 50.904 205.557 50.616C204.725 50.328 203.989 49.92 203.349 49.392C202.725 48.848 202.229 48.192 201.861 47.424C201.493 46.64 201.309 45.752 201.309 44.76C201.309 43.768 201.493 42.888 201.861 42.12C202.229 41.336 202.725 40.68 203.349 40.152C203.989 39.608 204.725 39.192 205.557 38.904C206.389 38.616 207.277 38.464 208.221 38.448V32.76L210.381 32.376V38.448C211.309 38.464 212.189 38.616 213.021 38.904C213.869 39.192 214.605 39.608 215.229 40.152C215.869 40.68 216.373 41.336 216.741 42.12C217.109 42.888 217.293 43.768 217.293 44.76C217.293 45.752 217.109 46.64 216.741 47.424C216.373 48.192 215.869 48.848 215.229 49.392C214.605 49.92 213.869 50.328 213.021 50.616C212.189 50.904 211.309 51.056 210.381 51.072V55.44ZM230.892 38.52V51H228.732V41.496C228.252 42.104 227.724 42.816 227.148 43.632C226.572 44.448 225.996 45.296 225.42 46.176C224.844 47.04 224.292 47.896 223.764 48.744C223.236 49.592 222.78 50.344 222.396 51H220.404V38.52H222.564V47.496C222.98 46.808 223.452 46.056 223.98 45.24C224.508 44.408 225.052 43.592 225.612 42.792C226.188 41.976 226.756 41.2 227.316 40.464C227.892 39.712 228.428 39.064 228.924 38.52H230.892ZM244.685 49.152H246.365V54.48H244.253V51H234.725V38.52H236.957V49.152H242.453V38.52H244.685V49.152ZM259.275 38.52V51H257.115V41.496C256.635 42.104 256.107 42.816 255.531 43.632C254.955 44.448 254.379 45.296 253.803 46.176C253.227 47.04 252.675 47.896 252.147 48.744C251.619 49.592 251.163 50.344 250.779 51H248.787V38.52H250.947V47.496C251.363 46.808 251.835 46.056 252.363 45.24C252.891 44.408 253.435 43.592 253.995 42.792C254.571 41.976 255.139 41.2 255.699 40.464C256.275 39.712 256.811 39.064 257.307 38.52H259.275ZM271.772 44.784C271.772 43.328 271.412 42.208 270.692 41.424C269.972 40.64 269.012 40.248 267.812 40.248C267.14 40.248 266.612 40.272 266.228 40.32C265.86 40.368 265.564 40.424 265.34 40.488V48.36C265.612 48.584 266.004 48.8 266.516 49.008C267.028 49.216 267.588 49.32 268.196 49.32C268.836 49.32 269.38 49.208 269.828 48.984C270.292 48.744 270.668 48.424 270.956 48.024C271.244 47.608 271.452 47.128 271.58 46.584C271.708 46.024 271.772 45.424 271.772 44.784ZM274.1 44.784C274.1 45.728 273.972 46.6 273.716 47.4C273.476 48.2 273.116 48.888 272.636 49.464C272.156 50.04 271.564 50.488 270.86 50.808C270.172 51.128 269.38 51.288 268.484 51.288C267.764 51.288 267.124 51.192 266.564 51C266.02 50.808 265.612 50.624 265.34 50.448V55.44H263.108V38.904C263.636 38.776 264.292 38.64 265.076 38.496C265.876 38.336 266.796 38.256 267.836 38.256C268.796 38.256 269.66 38.408 270.428 38.712C271.196 39.016 271.852 39.448 272.396 40.008C272.94 40.568 273.356 41.256 273.644 42.072C273.948 42.872 274.1 43.776 274.1 44.784ZM288.256 44.76C288.256 45.752 288.112 46.648 287.824 47.448C287.536 48.248 287.128 48.936 286.6 49.512C286.088 50.088 285.472 50.536 284.752 50.856C284.032 51.16 283.248 51.312 282.4 51.312C281.552 51.312 280.768 51.16 280.048 50.856C279.328 50.536 278.704 50.088 278.176 49.512C277.664 48.936 277.264 48.248 276.976 47.448C276.688 46.648 276.544 45.752 276.544 44.76C276.544 43.784 276.688 42.896 276.976 42.096C277.264 41.28 277.664 40.584 278.176 40.008C278.704 39.432 279.328 38.992 280.048 38.688C280.768 38.368 281.552 38.208 282.4 38.208C283.248 38.208 284.032 38.368 284.752 38.688C285.472 38.992 286.088 39.432 286.6 40.008C287.128 40.584 287.536 41.28 287.824 42.096C288.112 42.896 288.256 43.784 288.256 44.76ZM285.928 44.76C285.928 43.352 285.608 42.24 284.968 41.424C284.344 40.592 283.488 40.176 282.4 40.176C281.312 40.176 280.448 40.592 279.808 41.424C279.184 42.24 278.872 43.352 278.872 44.76C278.872 46.168 279.184 47.288 279.808 48.12C280.448 48.936 281.312 49.344 282.4 49.344C283.488 49.344 284.344 48.936 284.968 48.12C285.608 47.288 285.928 46.168 285.928 44.76ZM293.581 49.32C293.677 49.336 293.813 49.352 293.989 49.368C294.165 49.384 294.365 49.4 294.589 49.416C294.813 49.416 295.045 49.424 295.285 49.44C295.541 49.44 295.781 49.44 296.005 49.44C296.469 49.44 296.909 49.408 297.325 49.344C297.757 49.28 298.125 49.168 298.429 49.008C298.749 48.848 298.997 48.64 299.173 48.384C299.365 48.112 299.461 47.768 299.461 47.352C299.461 46.952 299.373 46.624 299.197 46.368C299.037 46.096 298.813 45.88 298.525 45.72C298.237 45.56 297.893 45.448 297.493 45.384C297.109 45.32 296.693 45.288 296.245 45.288H293.581V49.32ZM295.957 43.632C296.389 43.632 296.781 43.608 297.133 43.56C297.501 43.496 297.813 43.392 298.069 43.248C298.341 43.104 298.549 42.912 298.693 42.672C298.853 42.432 298.933 42.128 298.933 41.76C298.933 41.376 298.837 41.072 298.645 40.848C298.453 40.624 298.197 40.456 297.877 40.344C297.573 40.216 297.221 40.136 296.821 40.104C296.437 40.056 296.045 40.032 295.645 40.032C295.277 40.032 294.901 40.04 294.517 40.056C294.149 40.072 293.837 40.088 293.581 40.104V43.632H295.957ZM295.909 51.216C294.965 51.216 294.093 51.168 293.293 51.072C292.493 50.992 291.861 50.896 291.397 50.784V38.64C291.861 38.528 292.493 38.432 293.293 38.352C294.093 38.256 294.965 38.208 295.909 38.208C296.565 38.208 297.205 38.264 297.829 38.376C298.453 38.488 299.005 38.68 299.485 38.952C299.965 39.208 300.349 39.568 300.637 40.032C300.941 40.48 301.093 41.04 301.093 41.712C301.093 42.32 300.941 42.84 300.637 43.272C300.333 43.704 299.925 44.04 299.413 44.28C300.101 44.52 300.645 44.88 301.045 45.36C301.461 45.824 301.669 46.48 301.669 47.328C301.669 48.08 301.517 48.704 301.213 49.2C300.925 49.696 300.517 50.096 299.989 50.4C299.477 50.704 298.869 50.912 298.165 51.024C297.461 51.152 296.709 51.216 295.909 51.216ZM308.769 49.392C309.297 49.392 309.761 49.384 310.161 49.368C310.577 49.336 310.921 49.288 311.193 49.224V45.504C311.033 45.424 310.769 45.36 310.401 45.312C310.049 45.248 309.617 45.216 309.105 45.216C308.769 45.216 308.409 45.24 308.025 45.288C307.657 45.336 307.313 45.44 306.993 45.6C306.689 45.744 306.433 45.952 306.225 46.224C306.017 46.48 305.913 46.824 305.913 47.256C305.913 48.056 306.169 48.616 306.681 48.936C307.193 49.24 307.889 49.392 308.769 49.392ZM308.577 38.208C309.473 38.208 310.225 38.328 310.833 38.568C311.457 38.792 311.953 39.12 312.321 39.552C312.705 39.968 312.977 40.472 313.137 41.064C313.297 41.64 313.377 42.28 313.377 42.984V50.784C313.185 50.816 312.913 50.864 312.561 50.928C312.225 50.976 311.841 51.024 311.409 51.072C310.977 51.12 310.505 51.16 309.993 51.192C309.497 51.24 309.001 51.264 308.505 51.264C307.801 51.264 307.153 51.192 306.561 51.048C305.969 50.904 305.457 50.68 305.025 50.376C304.593 50.056 304.257 49.64 304.017 49.128C303.777 48.616 303.657 48 303.657 47.28C303.657 46.592 303.793 46 304.065 45.504C304.353 45.008 304.737 44.608 305.217 44.304C305.697 44 306.257 43.776 306.897 43.632C307.537 43.488 308.209 43.416 308.913 43.416C309.137 43.416 309.369 43.432 309.609 43.464C309.849 43.48 310.073 43.512 310.281 43.56C310.505 43.592 310.697 43.624 310.857 43.656C311.017 43.688 311.129 43.712 311.193 43.728V43.104C311.193 42.736 311.153 42.376 311.073 42.024C310.993 41.656 310.849 41.336 310.641 41.064C310.433 40.776 310.145 40.552 309.777 40.392C309.425 40.216 308.961 40.128 308.385 40.128C307.649 40.128 307.001 40.184 306.441 40.296C305.897 40.392 305.489 40.496 305.217 40.608L304.953 38.76C305.241 38.632 305.721 38.512 306.393 38.4C307.065 38.272 307.793 38.208 308.577 38.208ZM327.308 51H325.076V45.48H319.316V51H317.084V38.52H319.316V43.608H325.076V38.52H327.308V51ZM335.371 49.392C335.899 49.392 336.363 49.384 336.763 49.368C337.179 49.336 337.523 49.288 337.795 49.224V45.504C337.635 45.424 337.371 45.36 337.003 45.312C336.651 45.248 336.219 45.216 335.707 45.216C335.371 45.216 335.011 45.24 334.627 45.288C334.259 45.336 333.915 45.44 333.595 45.6C333.291 45.744 333.035 45.952 332.827 46.224C332.619 46.48 332.515 46.824 332.515 47.256C332.515 48.056 332.771 48.616 333.283 48.936C333.795 49.24 334.491 49.392 335.371 49.392ZM335.179 38.208C336.075 38.208 336.827 38.328 337.435 38.568C338.059 38.792 338.555 39.12 338.923 39.552C339.307 39.968 339.579 40.472 339.739 41.064C339.899 41.64 339.979 42.28 339.979 42.984V50.784C339.787 50.816 339.515 50.864 339.163 50.928C338.827 50.976 338.443 51.024 338.011 51.072C337.579 51.12 337.107 51.16 336.595 51.192C336.099 51.24 335.603 51.264 335.107 51.264C334.403 51.264 333.755 51.192 333.163 51.048C332.571 50.904 332.059 50.68 331.627 50.376C331.195 50.056 330.859 49.64 330.619 49.128C330.379 48.616 330.259 48 330.259 47.28C330.259 46.592 330.395 46 330.667 45.504C330.955 45.008 331.339 44.608 331.819 44.304C332.299 44 332.859 43.776 333.499 43.632C334.139 43.488 334.811 43.416 335.515 43.416C335.739 43.416 335.971 43.432 336.211 43.464C336.451 43.48 336.675 43.512 336.883 43.56C337.107 43.592 337.299 43.624 337.459 43.656C337.619 43.688 337.731 43.712 337.795 43.728V43.104C337.795 42.736 337.755 42.376 337.675 42.024C337.595 41.656 337.451 41.336 337.243 41.064C337.035 40.776 336.747 40.552 336.379 40.392C336.027 40.216 335.563 40.128 334.987 40.128C334.251 40.128 333.603 40.184 333.043 40.296C332.499 40.392 332.091 40.496 331.819 40.608L331.555 38.76C331.843 38.632 332.323 38.512 332.995 38.4C333.667 38.272 334.395 38.208 335.179 38.208ZM346.278 38.88C346.278 40.224 346.23 41.448 346.134 42.552C346.038 43.64 345.918 44.728 345.774 45.816H344.382C344.238 44.728 344.118 43.64 344.022 42.552C343.926 41.448 343.878 40.224 343.878 38.88V34.368H346.278V38.88ZM346.686 49.704C346.686 50.136 346.542 50.512 346.254 50.832C345.966 51.152 345.574 51.312 345.078 51.312C344.582 51.312 344.19 51.152 343.902 50.832C343.614 50.512 343.47 50.136 343.47 49.704C343.47 49.272 343.614 48.896 343.902 48.576C344.19 48.256 344.582 48.096 345.078 48.096C345.574 48.096 345.966 48.256 346.254 48.576C346.542 48.896 346.686 49.272 346.686 49.704Z" fill="#DBE2F9"/>
<circle cx="404.5" cy="93.5" r="16.5" stroke="#89E159" stroke-width="2"/>
<circle cx="446" cy="113" r="9" stroke="#89E159" stroke-width="2"/>
</svg>
