<svg width="170" height="102" viewBox="0 0 170 102" fill="none" xmlns="http://www.w3.org/2000/svg">
<g opacity="0.5">
<g style="mix-blend-mode:multiply" filter="url(#filter0_f_732_3298)">
<ellipse cx="83.5904" cy="56.2644" rx="44.3658" ry="30.1775" fill="black" fill-opacity="0.2"/>
</g>
<g filter="url(#filter1_f_732_3298)">
<ellipse cx="85" cy="51.0059" rx="64.5" ry="30.6616" fill="#141B25"/>
</g>
<path d="M62.1305 36.487L42.9462 31.2682L59.6103 41.5739L62.1305 36.487Z" fill="#1F2431"/>
<path d="M62.1305 36.487L42.9462 31.2682L59.6103 41.5739L62.1305 36.487Z" fill="url(#paint0_linear_732_3298)"/>
<path d="M62.1305 36.487L42.9462 31.2682L59.6103 41.5739L62.1305 36.487Z" stroke="#89E159" stroke-width="0.528017"/>
<path d="M59.6861 41.9271L41.2447 30.5292L41.4234 31.7962L59.9253 43.623L59.6861 41.9271Z" fill="#1F2431"/>
<path d="M52.5979 47.9011L26.8087 49.0144L51.1913 54.6095L52.5979 47.9011Z" fill="#1F2431"/>
<path d="M52.5979 47.9011L26.8087 49.0144L51.1913 54.6095L52.5979 47.9011Z" fill="url(#paint1_linear_732_3298)"/>
<path d="M52.5979 47.9011L26.8087 49.0144L51.1913 54.6095L52.5979 47.9011Z" stroke="#89E159" stroke-width="0.528017"/>
<path d="M51.3905 54.9297L24.8362 48.835L25.4855 50.1891L51.0791 56.3949L51.3905 54.9297Z" fill="#1F2431"/>
<path d="M107.263 36.446L126.379 30.9823L109.848 41.5002L107.263 36.446Z" fill="#1F2431"/>
<path d="M107.263 36.446L126.379 30.9823L109.848 41.5002L107.263 36.446Z" fill="url(#paint2_linear_732_3298)"/>
<path d="M107.263 36.446L126.379 30.9823L109.848 41.5002L107.263 36.446Z" stroke="#89E159" stroke-width="0.528017"/>
<path d="M109.777 41.855L128.071 30.2223L127.908 31.4915L109.559 43.5538L109.777 41.855Z" fill="#1F2431"/>
<path d="M116.684 48.0987L142.336 50.9806L117.626 54.8879L116.684 48.0987Z" fill="#1F2431"/>
<path d="M116.684 48.0987L142.336 50.9806L117.626 54.8879L116.684 48.0987Z" fill="url(#paint3_linear_732_3298)"/>
<path d="M116.684 48.0987L142.336 50.9806L117.626 54.8879L116.684 48.0987Z" stroke="#89E159" stroke-width="0.528017"/>
<path d="M117.406 55.1949L144.316 50.9384L143.575 52.2447L117.616 56.6781L117.406 55.1949Z" fill="#1F2431"/>
<path d="M56.1829 44.6208V41.7979L58.5361 44.1692L56.1829 47.7507V44.6208Z" fill="#1F2431"/>
<path d="M112.171 45.2009L112.213 41.7871L110.041 44.2244L112.171 48.0275V45.2009Z" fill="#1F2431"/>
<path d="M119.637 53.9121V65.8791C119.637 69.0557 117.062 71.6308 113.885 71.6308H54.67C51.4935 71.6308 48.9183 69.0557 48.9183 65.8792L48.9183 53.5034L74.73 57.7325L74.8764 57.7564L74.973 57.6438L77.4316 54.7776H91.4101L93.5631 57.3646L93.6568 57.4772L93.8019 57.4573L119.637 53.9121Z" fill="#1F2431"/>
<path d="M119.637 53.9121V65.8791C119.637 69.0557 117.062 71.6308 113.885 71.6308H54.67C51.4935 71.6308 48.9183 69.0557 48.9183 65.8792L48.9183 53.5034L74.73 57.7325L74.8764 57.7564L74.973 57.6438L77.4316 54.7776H91.4101L93.5631 57.3646L93.6568 57.4772L93.8019 57.4573L119.637 53.9121Z" fill="url(#paint4_linear_732_3298)"/>
<path d="M119.637 53.9121V65.8791C119.637 69.0557 117.062 71.6308 113.885 71.6308H54.67C51.4935 71.6308 48.9183 69.0557 48.9183 65.8792L48.9183 53.5034L74.73 57.7325L74.8764 57.7564L74.973 57.6438L77.4316 54.7776H91.4101L93.5631 57.3646L93.6568 57.4772L93.8019 57.4573L119.637 53.9121Z" stroke="#89E159" stroke-width="0.528017"/>
<path d="M49.9174 50.2821L52.3537 47.2103L55.5681 46.611C56.0529 46.5206 56.4894 46.26 56.799 45.8762L57.3347 45.2121C57.9926 44.3965 57.9368 43.2177 57.2046 42.468L56.5345 41.7817L60.9424 36.7506C61.8061 35.7649 63.053 35.1996 64.3636 35.1996H79.0738L80.1417 36.4686C80.4205 36.7999 80.8313 36.9911 81.2643 36.9911H86.3202C86.7597 36.9911 87.1761 36.7941 87.4547 36.4542L88.4835 35.1996H104.484C105.877 35.1996 107.194 35.838 108.056 36.9321L111.881 41.7844L111.192 42.5877C110.57 43.3133 110.526 44.3707 111.086 45.1456L111.589 45.8423C111.898 46.2708 112.36 46.5645 112.879 46.6634L115.967 47.2513L118.414 50.1343C121.586 53.8708 118.93 59.6079 114.029 59.6079H54.4238C49.6123 59.6079 46.9275 54.052 49.9174 50.2821Z" fill="#1F2431"/>
<path d="M49.9174 50.2821L52.3537 47.2103L55.5681 46.611C56.0529 46.5206 56.4894 46.26 56.799 45.8762L57.3347 45.2121C57.9926 44.3965 57.9368 43.2177 57.2046 42.468L56.5345 41.7817L60.9424 36.7506C61.8061 35.7649 63.053 35.1996 64.3636 35.1996H79.0738L80.1417 36.4686C80.4205 36.7999 80.8313 36.9911 81.2643 36.9911H86.3202C86.7597 36.9911 87.1761 36.7941 87.4547 36.4542L88.4835 35.1996H104.484C105.877 35.1996 107.194 35.838 108.056 36.9321L111.881 41.7844L111.192 42.5877C110.57 43.3133 110.526 44.3707 111.086 45.1456L111.589 45.8423C111.898 46.2708 112.36 46.5645 112.879 46.6634L115.967 47.2513L118.414 50.1343C121.586 53.8708 118.93 59.6079 114.029 59.6079H54.4238C49.6123 59.6079 46.9275 54.052 49.9174 50.2821Z" fill="url(#paint5_linear_732_3298)"/>
<path d="M49.9174 50.2821L52.3537 47.2103L55.5681 46.611C56.0529 46.5206 56.4894 46.26 56.799 45.8762L57.3347 45.2121C57.9926 44.3965 57.9368 43.2177 57.2046 42.468L56.5345 41.7817L60.9424 36.7506C61.8061 35.7649 63.053 35.1996 64.3636 35.1996H79.0738L80.1417 36.4686C80.4205 36.7999 80.8313 36.9911 81.2643 36.9911H86.3202C86.7597 36.9911 87.1761 36.7941 87.4547 36.4542L88.4835 35.1996H104.484C105.877 35.1996 107.194 35.838 108.056 36.9321L111.881 41.7844L111.192 42.5877C110.57 43.3133 110.526 44.3707 111.086 45.1456L111.589 45.8423C111.898 46.2708 112.36 46.5645 112.879 46.6634L115.967 47.2513L118.414 50.1343C121.586 53.8708 118.93 59.6079 114.029 59.6079H54.4238C49.6123 59.6079 46.9275 54.052 49.9174 50.2821Z" stroke="#89E159" stroke-width="0.528017"/>
<path d="M49.9131 50.2831L52.3449 47.2156L55.5578 46.6206C56.1039 46.5194 56.5863 46.203 56.8967 45.7425L57.4226 44.9622C57.958 44.1677 57.8778 43.1095 57.2289 42.4048L56.6089 41.7315L60.9422 36.7596C61.806 35.7684 63.0565 35.1996 64.3712 35.1996H79.0738L80.1417 36.4686C80.4205 36.7999 80.8313 36.9911 81.2643 36.9911H86.3202C86.7597 36.9911 87.1761 36.7941 87.4547 36.4542L88.4835 35.1996H104.482C105.876 35.1996 107.194 35.8393 108.056 36.9352L111.871 41.7832L111.226 42.6095C110.697 43.2866 110.642 44.2203 111.087 44.9552L111.313 44.8184L111.087 44.9552L111.577 45.7631C111.892 46.2829 112.419 46.6379 113.019 46.7337L115.862 47.1877L118.366 50.1241C121.55 53.858 118.897 59.6079 113.99 59.6079H54.4203C49.6093 59.6079 46.9244 54.0532 49.9131 50.2831Z" stroke="#89E159" stroke-width="0.528017"/>
<path d="M76.5391 56.1907C76.8767 55.707 77.4293 55.4188 78.0191 55.4188H91.0786C91.6868 55.4188 92.2541 55.7252 92.5877 56.2338L94.7511 59.5324V69.9178H74.207V59.5324L76.5391 56.1907Z" fill="#1F2431"/>
<path fill-rule="evenodd" clip-rule="evenodd" d="M77.1787 66.4938L74.2674 69.9962L74.0361 69.8039L76.9272 66.3259V55.7675H77.228V66.193H91.9664V55.9147H92.2672V66.2599L94.8727 69.8111L94.6301 69.989L92.0658 66.4938H77.1787Z" fill="#141B25"/>
<path d="M76.7556 56.3418C77.0438 55.9289 77.5155 55.6828 78.0191 55.6828H91.0786C91.5978 55.6828 92.0821 55.9444 92.3669 56.3786L94.4871 59.6112V69.6538H74.471V59.6154L76.7556 56.3418Z" stroke="#89E159" stroke-width="0.528017"/>
<circle cx="84.2771" cy="61.2078" r="4.45293" fill="#212121"/>
<circle cx="84.2773" cy="61.2079" r="2.79971" fill="#F68561"/>
<g filter="url(#filter2_d_732_3298)">
<circle cx="84.2773" cy="61.2079" r="2.79971" fill="#F68561"/>
</g>
<path d="M86.7011 51.7977H86.7803L86.8464 51.7541L88.8357 50.4437H108.961V54.6249H59.9242V50.4437H79.4487L81.3408 51.7509L81.4085 51.7977H81.4908H86.7011Z" fill="url(#paint6_linear_732_3298)" stroke="#89E159" stroke-width="0.528017"/>
<path d="M80.6941 37.2052L80.7733 37.3024H80.8988H83.8391H86.8254H86.9624L87.0413 37.1903L88.4416 35.1996H97.5906L100.388 38.9072L108.695 49.9154H88.7566H79.3398H60.1794L68.2092 38.9037L70.9103 35.1996H79.0595L80.6941 37.2052Z" fill="url(#paint7_linear_732_3298)" stroke="#89E159" stroke-width="0.528017"/>
<path d="M79.7063 34.1426H88.7885L91.375 43.4011L86.6429 48.0157H81.6168L76.9141 43.4011L79.7063 34.1426Z" fill="#89E159"/>
<path d="M83.3484 38.2695H84.9413L86.7843 47.982H81.3701L83.3484 38.2695Z" fill="#1F2431"/>
<path d="M83.3484 38.2695H84.9413L86.7843 47.982H81.3701L83.3484 38.2695Z" fill="url(#paint8_linear_732_3298)"/>
<path d="M93.8999 38.7494V36.6584L92.8906 38.7852L93.8999 39.122V38.7494Z" fill="#141B25"/>
<path d="M73.9452 38.7494V36.6584L75.0869 38.7494L73.9452 39.25L73.9452 38.7494Z" fill="#141B25"/>
<path d="M79.7388 41.5447H79.5644L79.496 41.7051L76.8344 47.9423H67.388L72.0071 40.3614L73.965 39.5207C74.767 39.1763 75.0928 38.2121 74.6641 37.4519L74.2425 36.7044L75.2342 35.2113H79.1018L80.3583 36.5101C80.6347 36.7958 81.0152 36.9571 81.4128 36.9571H86.3429C86.7846 36.9571 87.2029 36.758 87.4815 36.4152L88.4599 35.2113H92.5221L93.61 36.7359L93.2933 37.659C93.0533 38.3588 93.3719 39.1279 94.0365 39.453L96.0422 40.4341L100.953 47.9423H91.5135L89.0242 41.7108L88.9579 41.5447H88.779H79.7388Z" fill="#1F2431"/>
<path d="M79.7388 41.5447H79.5644L79.496 41.7051L76.8344 47.9423H67.388L72.0071 40.3614L73.965 39.5207C74.767 39.1763 75.0928 38.2121 74.6641 37.4519L74.2425 36.7044L75.2342 35.2113H79.1018L80.3583 36.5101C80.6347 36.7958 81.0152 36.9571 81.4128 36.9571H86.3429C86.7846 36.9571 87.2029 36.758 87.4815 36.4152L88.4599 35.2113H92.5221L93.61 36.7359L93.2933 37.659C93.0533 38.3588 93.3719 39.1279 94.0365 39.453L96.0422 40.4341L100.953 47.9423H91.5135L89.0242 41.7108L88.9579 41.5447H88.779H79.7388Z" fill="url(#paint9_linear_732_3298)"/>
<path d="M79.7388 41.5447H79.5644L79.496 41.7051L76.8344 47.9423H67.388L72.0071 40.3614L73.965 39.5207C74.767 39.1763 75.0928 38.2121 74.6641 37.4519L74.2425 36.7044L75.2342 35.2113H79.1018L80.3583 36.5101C80.6347 36.7958 81.0152 36.9571 81.4128 36.9571H86.3429C86.7846 36.9571 87.2029 36.758 87.4815 36.4152L88.4599 35.2113H92.5221L93.61 36.7359L93.2933 37.659C93.0533 38.3588 93.3719 39.1279 94.0365 39.453L96.0422 40.4341L100.953 47.9423H91.5135L89.0242 41.7108L88.9579 41.5447H88.779H79.7388Z" stroke="#89E159" stroke-width="0.528017"/>
<path d="M67.0006 54.6511L62.438 51.5367L67.0006 48.4224L76.7362 48.4224L81.2987 51.5367L76.7362 54.6511L67.0006 54.6511Z" fill="#1F2431"/>
<path d="M67.0006 54.6511L62.438 51.5367L67.0006 48.4224L76.7362 48.4224L81.2987 51.5367L76.7362 54.6511L67.0006 54.6511Z" fill="#1E4E4E" fill-opacity="0.6"/>
<path d="M67.0006 54.6511L62.438 51.5367L67.0006 48.4224L76.7362 48.4224L81.2987 51.5367L76.7362 54.6511L67.0006 54.6511Z" stroke="#89E159" stroke-width="0.528017"/>
<path d="M91.3638 54.6606L86.8013 51.5463L91.3638 48.4319L101.099 48.4319L105.662 51.5463L101.099 54.6606L91.3638 54.6606Z" fill="#1F2431"/>
<path d="M91.3638 54.6606L86.8013 51.5463L91.3638 48.4319L101.099 48.4319L105.662 51.5463L101.099 54.6606L91.3638 54.6606Z" fill="#1E4E4E" fill-opacity="0.6"/>
<path d="M91.3638 54.6606L86.8013 51.5463L91.3638 48.4319L101.099 48.4319L105.662 51.5463L101.099 54.6606L91.3638 54.6606Z" stroke="#89E159" stroke-width="0.528017"/>
<circle cx="72.0321" cy="51.6356" r="2.44911" fill="#141B25"/>
<circle cx="96.5233" cy="51.6357" r="2.44911" fill="#141B25"/>
<g filter="url(#filter3_d_732_3298)">
<circle cx="72.0321" cy="51.6357" r="2.00382" fill="#89E159"/>
</g>
<g filter="url(#filter4_d_732_3298)">
<circle cx="96.5233" cy="51.6357" r="2.00382" fill="#89E159"/>
</g>
<g style="mix-blend-mode:multiply" filter="url(#filter5_f_732_3298)">
<ellipse cx="83.5899" cy="39.2207" rx="4.21099" ry="1.9551" fill="black" fill-opacity="0.6"/>
</g>
<path d="M84.3858 18.8192L81.7061 40.2569L80.3662 38.6491L84.3858 18.8192Z" fill="#1F2431"/>
<path d="M84.3858 18.8192L81.7061 40.2569L80.3662 38.6491L84.3858 18.8192Z" fill="url(#paint10_linear_732_3298)"/>
<path d="M84.3856 18.5518L87.1704 40.2575H81.6007L84.3856 18.5518Z" fill="#1F2431"/>
<path d="M84.3856 18.5518L87.1704 40.2575H81.6007L84.3856 18.5518Z" fill="url(#paint11_linear_732_3298)"/>
<g opacity="0.8" filter="url(#filter6_d_732_3298)">
<circle cx="84.2947" cy="19.531" r="1.51635" fill="#F68561"/>
</g>
<path d="M86.5037 52.748C86.5037 53.4858 85.5069 54.0839 84.2772 54.0839C83.0476 54.0839 82.0508 53.4858 82.0508 52.748" stroke="#1F2431" stroke-width="0.528017" stroke-linecap="round"/>
<rect x="139.831" y="47.9854" width="2.34148" height="2.98757" fill="#1E4E4E"/>
<ellipse cx="141.002" cy="47.9857" rx="1.17074" ry="0.506227" fill="#1E4E4E"/>
<ellipse cx="141.002" cy="50.9529" rx="1.17074" ry="0.254608" fill="#1E4E4E"/>
<rect x="124.39" y="29.2098" width="1.76395" height="2.25068" transform="rotate(-13.5907 124.39 29.2098)" fill="#1E4E4E"/>
<ellipse cx="125.247" cy="29.0023" rx="0.881974" ry="0.381364" transform="rotate(-13.5907 125.247 29.0023)" fill="#1E4E4E"/>
<ellipse cx="125.771" cy="31.1745" rx="0.881974" ry="0.191808" transform="rotate(-13.5907 125.771 31.1745)" fill="#1E4E4E"/>
<rect width="1.76395" height="2.25068" transform="matrix(-0.95961 -0.281334 -0.281334 0.95961 45.2715 29.7371)" fill="#1E4E4E"/>
<ellipse cx="0.881974" cy="0.381364" rx="0.881974" ry="0.381364" transform="matrix(-0.95961 -0.281334 -0.281334 0.95961 45.3789 29.3711)" fill="#1E4E4E"/>
<ellipse cx="0.881974" cy="0.191808" rx="0.881974" ry="0.191808" transform="matrix(-0.95961 -0.281334 -0.281334 0.95961 44.6973 31.6974)" fill="#1E4E4E"/>
<rect x="27.6953" y="46.1101" width="2.34148" height="2.98757" transform="rotate(6.62361 27.6953 46.1101)" fill="#1E4E4E"/>
<ellipse cx="28.858" cy="46.2453" rx="1.17074" ry="0.506227" transform="rotate(6.62361 28.858 46.2453)" fill="#1E4E4E"/>
<ellipse cx="28.5159" cy="49.1917" rx="1.17074" ry="0.254608" transform="rotate(6.62361 28.5159 49.1917)" fill="#1E4E4E"/>
<path d="M141.009 47.7327L154.611 50.2023L154.688 50.8335L153.84 56.1508L140.979 48.1277L141.009 47.7327Z" fill="#224141"/>
<path d="M141.002 47.7302L154.631 50.241L153.79 55.4295L141.002 47.7302Z" fill="url(#paint12_linear_732_3298)"/>
<path d="M141.007 47.7325L129.435 39.9507L126.858 43.009L126.806 43.698L140.977 48.1271L141.007 47.7325Z" fill="#224141"/>
<path d="M141.012 47.7363L129.458 39.8951L126.85 43.0197L141.012 47.7363Z" fill="url(#paint13_linear_732_3298)"/>
<path d="M125.207 28.8161L135.604 28.2166L135.772 28.6651L136.092 32.7089L125.255 29.1106L125.207 28.8161Z" fill="#224141"/>
<path d="M125.201 28.816L135.625 28.2419L135.928 32.19L125.201 28.816Z" fill="url(#paint14_linear_732_3298)"/>
<path d="M125.207 28.8156L115.357 25.1659L114.011 27.8617L114.095 28.3754L125.256 29.1099L125.207 28.8156Z" fill="#224141"/>
<path d="M125.212 28.8168L115.364 25.1204L114.007 27.8701L125.212 28.8168Z" fill="url(#paint15_linear_732_3298)"/>
<path d="M44.4742 29.3045L34.1177 28.207L33.9278 28.6469L33.4144 32.6707L44.4121 29.5963L44.4742 29.3045Z" fill="#224141"/>
<path d="M44.4793 29.3048L34.0948 28.2314L33.6029 32.1605L44.4793 29.3048Z" fill="url(#paint16_linear_732_3298)"/>
<path d="M44.475 29.3056L54.4895 26.1326L55.7048 28.8898L55.5962 29.3989L44.4129 29.5972L44.475 29.3056Z" fill="#224141"/>
<path d="M44.47 29.3063L54.4842 26.0865L55.7076 28.8981L44.47 29.3063Z" fill="url(#paint17_linear_732_3298)"/>
<path d="M28.6934 46.1778L15.0915 48.6474L15.0139 49.2786L15.8625 54.5958L28.7232 46.5727L28.6934 46.1778Z" fill="#224141"/>
<path d="M28.6996 46.1765L15.071 48.6873L15.9118 53.8758L28.6996 46.1765Z" fill="url(#paint18_linear_732_3298)"/>
<path d="M28.6949 46.1785L40.2665 38.3967L42.8441 41.4551L42.8959 42.1441L28.7247 46.5731L28.6949 46.1785Z" fill="#224141"/>
<path d="M28.6895 46.1823L40.2432 38.3411L42.8515 41.4657L28.6895 46.1823Z" fill="url(#paint19_linear_732_3298)"/>
</g>
<defs>
<filter id="filter0_f_732_3298" x="33.8105" y="20.6728" width="99.5597" height="71.1833" filterUnits="userSpaceOnUse" color-interpolation-filters="sRGB">
<feFlood flood-opacity="0" result="BackgroundImageFix"/>
<feBlend mode="normal" in="SourceGraphic" in2="BackgroundImageFix" result="shape"/>
<feGaussianBlur stdDeviation="2.70707" result="effect1_foregroundBlur_732_3298"/>
</filter>
<filter id="filter1_f_732_3298" x="0.5" y="0.344238" width="169" height="101.323" filterUnits="userSpaceOnUse" color-interpolation-filters="sRGB">
<feFlood flood-opacity="0" result="BackgroundImageFix"/>
<feBlend mode="normal" in="SourceGraphic" in2="BackgroundImageFix" result="shape"/>
<feGaussianBlur stdDeviation="10" result="effect1_foregroundBlur_732_3298"/>
</filter>
<filter id="filter2_d_732_3298" x="77.8681" y="54.7988" width="12.8185" height="12.8183" filterUnits="userSpaceOnUse" color-interpolation-filters="sRGB">
<feFlood flood-opacity="0" result="BackgroundImageFix"/>
<feColorMatrix in="SourceAlpha" type="matrix" values="0 0 0 0 0 0 0 0 0 0 0 0 0 0 0 0 0 0 127 0" result="hardAlpha"/>
<feMorphology radius="1.20314" operator="dilate" in="SourceAlpha" result="effect1_dropShadow_732_3298"/>
<feOffset/>
<feGaussianBlur stdDeviation="1.20314"/>
<feComposite in2="hardAlpha" operator="out"/>
<feColorMatrix type="matrix" values="0 0 0 0 0.964706 0 0 0 0 0.521569 0 0 0 0 0.380392 0 0 0 0.8 0"/>
<feBlend mode="normal" in2="BackgroundImageFix" result="effect1_dropShadow_732_3298"/>
<feBlend mode="normal" in="SourceGraphic" in2="effect1_dropShadow_732_3298" result="shape"/>
</filter>
<filter id="filter3_d_732_3298" x="67.1767" y="46.7803" width="9.71096" height="9.71078" filterUnits="userSpaceOnUse" color-interpolation-filters="sRGB">
<feFlood flood-opacity="0" result="BackgroundImageFix"/>
<feColorMatrix in="SourceAlpha" type="matrix" values="0 0 0 0 0 0 0 0 0 0 0 0 0 0 0 0 0 0 127 0" result="hardAlpha"/>
<feMorphology radius="0.445293" operator="dilate" in="SourceAlpha" result="effect1_dropShadow_732_3298"/>
<feOffset/>
<feGaussianBlur stdDeviation="1.20314"/>
<feComposite in2="hardAlpha" operator="out"/>
<feColorMatrix type="matrix" values="0 0 0 0 0.537255 0 0 0 0 0.882353 0 0 0 0 0.34902 0 0 0 1 0"/>
<feBlend mode="normal" in2="BackgroundImageFix" result="effect1_dropShadow_732_3298"/>
<feBlend mode="normal" in="SourceGraphic" in2="effect1_dropShadow_732_3298" result="shape"/>
</filter>
<filter id="filter4_d_732_3298" x="91.668" y="46.7803" width="9.71096" height="9.71078" filterUnits="userSpaceOnUse" color-interpolation-filters="sRGB">
<feFlood flood-opacity="0" result="BackgroundImageFix"/>
<feColorMatrix in="SourceAlpha" type="matrix" values="0 0 0 0 0 0 0 0 0 0 0 0 0 0 0 0 0 0 127 0" result="hardAlpha"/>
<feMorphology radius="0.445293" operator="dilate" in="SourceAlpha" result="effect1_dropShadow_732_3298"/>
<feOffset/>
<feGaussianBlur stdDeviation="1.20314"/>
<feComposite in2="hardAlpha" operator="out"/>
<feColorMatrix type="matrix" values="0 0 0 0 0.537255 0 0 0 0 0.882353 0 0 0 0 0.34902 0 0 0 1 0"/>
<feBlend mode="normal" in2="BackgroundImageFix" result="effect1_dropShadow_732_3298"/>
<feBlend mode="normal" in="SourceGraphic" in2="effect1_dropShadow_732_3298" result="shape"/>
</filter>
<filter id="filter5_f_732_3298" x="73.9648" y="31.8515" width="19.2501" height="14.7385" filterUnits="userSpaceOnUse" color-interpolation-filters="sRGB">
<feFlood flood-opacity="0" result="BackgroundImageFix"/>
<feBlend mode="normal" in="SourceGraphic" in2="BackgroundImageFix" result="shape"/>
<feGaussianBlur stdDeviation="2.70707" result="effect1_foregroundBlur_732_3298"/>
</filter>
<filter id="filter6_d_732_3298" x="79.1689" y="14.4052" width="10.2511" height="10.2516" filterUnits="userSpaceOnUse" color-interpolation-filters="sRGB">
<feFlood flood-opacity="0" result="BackgroundImageFix"/>
<feColorMatrix in="SourceAlpha" type="matrix" values="0 0 0 0 0 0 0 0 0 0 0 0 0 0 0 0 0 0 127 0" result="hardAlpha"/>
<feMorphology radius="1.20314" operator="dilate" in="SourceAlpha" result="effect1_dropShadow_732_3298"/>
<feOffset/>
<feGaussianBlur stdDeviation="1.20314"/>
<feComposite in2="hardAlpha" operator="out"/>
<feColorMatrix type="matrix" values="0 0 0 0 0.964706 0 0 0 0 0.521569 0 0 0 0 0.380392 0 0 0 0.5 0"/>
<feBlend mode="normal" in2="BackgroundImageFix" result="effect1_dropShadow_732_3298"/>
<feBlend mode="normal" in="SourceGraphic" in2="effect1_dropShadow_732_3298" result="shape"/>
</filter>
<linearGradient id="paint0_linear_732_3298" x1="60.4405" y1="40.4882" x2="61.3669" y2="34.8035" gradientUnits="userSpaceOnUse">
<stop stop-color="#1E4E4E"/>
<stop offset="1" stop-color="#1F2431"/>
</linearGradient>
<linearGradient id="paint1_linear_732_3298" x1="51.7967" y1="53.0317" x2="50.869" y2="46.3664" gradientUnits="userSpaceOnUse">
<stop stop-color="#1E4E4E"/>
<stop offset="1" stop-color="#1F2431"/>
</linearGradient>
<linearGradient id="paint2_linear_732_3298" x1="109.004" y1="40.4252" x2="108.005" y2="34.7529" gradientUnits="userSpaceOnUse">
<stop stop-color="#1E4E4E"/>
<stop offset="1" stop-color="#1F2431"/>
</linearGradient>
<linearGradient id="paint3_linear_732_3298" x1="117.131" y1="53.2722" x2="118.514" y2="46.6864" gradientUnits="userSpaceOnUse">
<stop stop-color="#1E4E4E"/>
<stop offset="1" stop-color="#1F2431"/>
</linearGradient>
<linearGradient id="paint4_linear_732_3298" x1="83.6036" y1="58.1271" x2="84.1815" y2="71.8993" gradientUnits="userSpaceOnUse">
<stop stop-color="#1E4E4E"/>
<stop offset="1" stop-color="#1F2431"/>
</linearGradient>
<linearGradient id="paint5_linear_732_3298" x1="85.3732" y1="60.0126" x2="85.4654" y2="34.9352" gradientUnits="userSpaceOnUse">
<stop stop-color="#1E4E4E"/>
<stop offset="1" stop-color="#1F2431"/>
</linearGradient>
<linearGradient id="paint6_linear_732_3298" x1="83.7841" y1="54.8889" x2="83.8245" y2="50.1793" gradientUnits="userSpaceOnUse">
<stop stop-color="#89E159"/>
<stop offset="1" stop-color="#B9F598"/>
</linearGradient>
<linearGradient id="paint7_linear_732_3298" x1="83.3545" y1="34.9355" x2="83.1387" y2="49.2782" gradientUnits="userSpaceOnUse">
<stop stop-color="#89E159"/>
<stop offset="1" stop-color="#B9F598"/>
</linearGradient>
<linearGradient id="paint8_linear_732_3298" x1="84.1575" y1="48.2793" x2="84.155" y2="38.2695" gradientUnits="userSpaceOnUse">
<stop stop-color="#1E4E4E"/>
<stop offset="1" stop-color="#1F2431"/>
</linearGradient>
<linearGradient id="paint9_linear_732_3298" x1="84.1793" y1="48.2063" x2="82.3049" y2="35.0573" gradientUnits="userSpaceOnUse">
<stop stop-color="#1E4E4E"/>
<stop offset="1" stop-color="#1F2431"/>
</linearGradient>
<linearGradient id="paint10_linear_732_3298" x1="82.0284" y1="37.081" x2="82.5166" y2="19.0214" gradientUnits="userSpaceOnUse">
<stop stop-color="#1F2431"/>
<stop offset="1" stop-color="#1E4E4E"/>
</linearGradient>
<linearGradient id="paint11_linear_732_3298" x1="83.8294" y1="43.2052" x2="84.3856" y2="18.8197" gradientUnits="userSpaceOnUse">
<stop stop-color="#1F2431"/>
<stop offset="1" stop-color="#1E4E4E"/>
</linearGradient>
<linearGradient id="paint12_linear_732_3298" x1="140.606" y1="50.1766" x2="142.739" y2="45.0557" gradientUnits="userSpaceOnUse">
<stop stop-color="#89E159"/>
<stop offset="1" stop-color="#B9F598"/>
</linearGradient>
<linearGradient id="paint13_linear_732_3298" x1="139.41" y1="49.6273" x2="141.916" y2="44.6779" gradientUnits="userSpaceOnUse">
<stop stop-color="#89E159"/>
<stop offset="1" stop-color="#B9F598"/>
</linearGradient>
<linearGradient id="paint14_linear_732_3298" x1="125.344" y1="30.6776" x2="126" y2="26.5501" gradientUnits="userSpaceOnUse">
<stop stop-color="#89E159"/>
<stop offset="1" stop-color="#B9F598"/>
</linearGradient>
<linearGradient id="paint15_linear_732_3298" x1="124.374" y1="30.485" x2="125.333" y2="26.4172" gradientUnits="userSpaceOnUse">
<stop stop-color="#89E159"/>
<stop offset="1" stop-color="#B9F598"/>
</linearGradient>
<linearGradient id="paint16_linear_732_3298" x1="44.2474" y1="31.1574" x2="43.7903" y2="27.0032" gradientUnits="userSpaceOnUse">
<stop stop-color="#89E159"/>
<stop offset="1" stop-color="#B9F598"/>
</linearGradient>
<linearGradient id="paint17_linear_732_3298" x1="45.2271" y1="31.0128" x2="44.4646" y2="26.9037" gradientUnits="userSpaceOnUse">
<stop stop-color="#89E159"/>
<stop offset="1" stop-color="#B9F598"/>
</linearGradient>
<linearGradient id="paint18_linear_732_3298" x1="29.0961" y1="48.6229" x2="26.9625" y2="43.502" gradientUnits="userSpaceOnUse">
<stop stop-color="#89E159"/>
<stop offset="1" stop-color="#B9F598"/>
</linearGradient>
<linearGradient id="paint19_linear_732_3298" x1="30.2912" y1="48.0733" x2="27.7854" y2="43.1239" gradientUnits="userSpaceOnUse">
<stop stop-color="#89E159"/>
<stop offset="1" stop-color="#B9F598"/>
</linearGradient>
</defs>
</svg>
