<svg width="128" height="63" viewBox="0 0 128 63" fill="none" xmlns="http://www.w3.org/2000/svg">
<path d="M47.284 20.3495L32.5448 16.3399L45.3477 24.2576L47.284 20.3495Z" fill="#1F2431"/>
<path d="M47.284 20.3495L32.5448 16.3399L45.3477 24.2576L47.284 20.3495Z" fill="url(#paint0_linear_1227_4859)"/>
<path d="M47.284 20.3495L32.5448 16.3399L45.3477 24.2576L47.284 20.3495Z" stroke="#89E159" stroke-width="0.405672"/>
<path d="M45.4054 24.5292L31.2371 15.7723L31.3744 16.7457L45.5892 25.8321L45.4054 24.5292Z" fill="#1F2431"/>
<path d="M39.9593 29.119L20.1456 29.9743L38.8786 34.273L39.9593 29.119Z" fill="#1F2431"/>
<path d="M39.9593 29.119L20.1456 29.9743L38.8786 34.273L39.9593 29.119Z" fill="url(#paint1_linear_1227_4859)"/>
<path d="M39.9593 29.119L20.1456 29.9743L38.8786 34.273L39.9593 29.119Z" stroke="#89E159" stroke-width="0.405672"/>
<path d="M39.0319 34.5192L18.6304 29.8367L19.1292 30.877L38.7926 35.6449L39.0319 34.5192Z" fill="#1F2431"/>
<path d="M81.957 20.3187L96.6437 16.121L83.9431 24.2018L81.957 20.3187Z" fill="#1F2431"/>
<path d="M81.957 20.3187L96.6437 16.121L83.9431 24.2018L81.957 20.3187Z" fill="url(#paint2_linear_1227_4859)"/>
<path d="M81.957 20.3187L96.6437 16.121L83.9431 24.2018L81.957 20.3187Z" stroke="#89E159" stroke-width="0.405672"/>
<path d="M83.8887 24.4743L97.9439 15.537L97.8191 16.5121L83.7216 25.7795L83.8887 24.4743Z" fill="#1F2431"/>
<path d="M89.1955 29.2712L108.904 31.4853L89.9197 34.4873L89.1955 29.2712Z" fill="#1F2431"/>
<path d="M89.1955 29.2712L108.904 31.4853L89.9197 34.4873L89.1955 29.2712Z" fill="url(#paint3_linear_1227_4859)"/>
<path d="M89.1955 29.2712L108.904 31.4853L89.9197 34.4873L89.1955 29.2712Z" stroke="#89E159" stroke-width="0.405672"/>
<path d="M89.7504 34.7233L110.425 31.453L109.856 32.4566L89.9118 35.8628L89.7504 34.7233Z" fill="#1F2431"/>
<path d="M42.7135 26.5985V24.4297L44.5215 26.2516L42.7135 29.0033V26.5985Z" fill="#1F2431"/>
<path d="M85.729 27.0442L85.7615 24.4214L84.0928 26.2939L85.729 29.2158V27.0442Z" fill="#1F2431"/>
<path d="M71.6163 36.4607L91.4653 33.7369V42.9311C91.4653 45.3716 89.4868 47.3501 87.0463 47.3501H41.5515C39.111 47.3501 37.1325 45.3716 37.1325 42.9311L37.1325 33.4229L56.9634 36.672L57.076 36.6905L57.1502 36.6039L59.0391 34.4019H69.7786L71.4328 36.3895L71.5048 36.476L71.6163 36.4607Z" fill="#1F2431"/>
<path d="M71.6163 36.4607L91.4653 33.7369V42.9311C91.4653 45.3716 89.4868 47.3501 87.0463 47.3501H41.5515C39.111 47.3501 37.1325 45.3716 37.1325 42.9311L37.1325 33.4229L56.9634 36.672L57.076 36.6905L57.1502 36.6039L59.0391 34.4019H69.7786L71.4328 36.3895L71.5048 36.476L71.6163 36.4607Z" fill="url(#paint4_linear_1227_4859)"/>
<path d="M71.6163 36.4607L91.4653 33.7369V42.9311C91.4653 45.3716 89.4868 47.3501 87.0463 47.3501H41.5515C39.111 47.3501 37.1325 45.3716 37.1325 42.9311L37.1325 33.4229L56.9634 36.672L57.076 36.6905L57.1502 36.6039L59.0391 34.4019H69.7786L71.4328 36.3895L71.5048 36.476L71.6163 36.4607Z" stroke="#89E159" stroke-width="0.405672"/>
<path d="M37.9002 30.9481L39.772 28.5881L42.2416 28.1276C42.6141 28.0582 42.9495 27.858 43.1873 27.5631L43.5989 27.0529C44.1044 26.4262 44.0615 25.5206 43.499 24.9446L42.9841 24.4173L46.3707 20.552C47.0343 19.7946 47.9923 19.3603 48.9992 19.3603H60.3009L61.1214 20.3353C61.3356 20.5898 61.6512 20.7368 61.9838 20.7368H65.8683C66.2059 20.7368 66.5258 20.5854 66.7399 20.3243L67.5303 19.3603H79.8235C80.8938 19.3603 81.9052 19.8508 82.5678 20.6914L85.5067 24.4194L84.9774 25.0366C84.4993 25.5941 84.4654 26.4065 84.8954 27.0018L85.2819 27.5371C85.5197 27.8662 85.8743 28.0919 86.2732 28.1679L88.6459 28.6196L90.5259 30.8346C92.9624 33.7053 90.9222 38.1131 87.1569 38.1131H41.3625C37.6658 38.1131 35.6031 33.8445 37.9002 30.9481Z" fill="#1F2431"/>
<path d="M37.9002 30.9481L39.772 28.5881L42.2416 28.1276C42.6141 28.0582 42.9495 27.858 43.1873 27.5631L43.5989 27.0529C44.1044 26.4262 44.0615 25.5206 43.499 24.9446L42.9841 24.4173L46.3707 20.552C47.0343 19.7946 47.9923 19.3603 48.9992 19.3603H60.3009L61.1214 20.3353C61.3356 20.5898 61.6512 20.7368 61.9838 20.7368H65.8683C66.2059 20.7368 66.5258 20.5854 66.7399 20.3243L67.5303 19.3603H79.8235C80.8938 19.3603 81.9052 19.8508 82.5678 20.6914L85.5067 24.4194L84.9774 25.0366C84.4993 25.5941 84.4654 26.4065 84.8954 27.0018L85.2819 27.5371C85.5197 27.8662 85.8743 28.0919 86.2732 28.1679L88.6459 28.6196L90.5259 30.8346C92.9624 33.7053 90.9222 38.1131 87.1569 38.1131H41.3625C37.6658 38.1131 35.6031 33.8445 37.9002 30.9481Z" fill="url(#paint5_linear_1227_4859)"/>
<path d="M37.9002 30.9481L39.772 28.5881L42.2416 28.1276C42.6141 28.0582 42.9495 27.858 43.1873 27.5631L43.5989 27.0529C44.1044 26.4262 44.0615 25.5206 43.499 24.9446L42.9841 24.4173L46.3707 20.552C47.0343 19.7946 47.9923 19.3603 48.9992 19.3603H60.3009L61.1214 20.3353C61.3356 20.5898 61.6512 20.7368 61.9838 20.7368H65.8683C66.2059 20.7368 66.5258 20.5854 66.7399 20.3243L67.5303 19.3603H79.8235C80.8938 19.3603 81.9052 19.8508 82.5678 20.6914L85.5067 24.4194L84.9774 25.0366C84.4993 25.5941 84.4654 26.4065 84.8954 27.0018L85.2819 27.5371C85.5197 27.8662 85.8743 28.0919 86.2732 28.1679L88.6459 28.6196L90.5259 30.8346C92.9624 33.7053 90.9222 38.1131 87.1569 38.1131H41.3625C37.6658 38.1131 35.6031 33.8445 37.9002 30.9481Z" stroke="#89E159" stroke-width="0.405672"/>
<path d="M37.8969 30.9489L39.7653 28.5921L42.2338 28.135C42.6533 28.0573 43.0239 27.8142 43.2624 27.4604L43.6664 26.8609C44.0778 26.2505 44.0162 25.4375 43.5176 24.896L43.0413 24.3787L46.3705 20.5588C47.0342 19.7974 47.9949 19.3603 49.005 19.3603H60.3009L61.1214 20.3353C61.3356 20.5898 61.6512 20.7368 61.9838 20.7368H65.8683C66.2059 20.7368 66.5258 20.5854 66.7399 20.3243L67.5303 19.3603H79.8215C80.8929 19.3603 81.9051 19.8518 82.5677 20.6938L85.4989 24.4185L85.0031 25.0533C84.5966 25.5736 84.5542 26.2909 84.8963 26.8555L85.2725 27.4762C85.5145 27.8756 85.92 28.1483 86.3811 28.2219L88.565 28.5707L90.4888 30.8268C92.9351 33.6954 90.8965 38.1131 87.1264 38.1131H41.3598C37.6635 38.1131 35.6007 33.8454 37.8969 30.9489Z" stroke="#89E159" stroke-width="0.405672"/>
<path d="M58.3523 35.4883C58.6116 35.1167 59.0362 34.8953 59.4893 34.8953H69.5228C69.9901 34.8953 70.426 35.1306 70.6823 35.5214L72.3444 38.0557V46.0347H56.5605V38.0557L58.3523 35.4883Z" fill="#1F2431"/>
<path fill-rule="evenodd" clip-rule="evenodd" d="M58.8441 43.404L56.6074 46.0948L56.4297 45.9471L58.6508 43.275V35.1631H58.8819V43.1729H70.2054V35.2762H70.4365V43.2245L72.4379 45.9525L72.2515 46.0892L70.2815 43.404H58.8441Z" fill="#141B25"/>
<path d="M59.4893 35.0981H69.5228C69.9218 35.0981 70.2939 35.299 70.5127 35.6326L72.1416 38.1163V45.8319H56.7634V38.1194L58.5186 35.6044C58.74 35.2871 59.1025 35.0981 59.4893 35.0981Z" stroke="#89E159" stroke-width="0.405672"/>
<circle cx="64.2991" cy="39.3418" r="3.42115" fill="#212121"/>
<circle cx="64.2994" cy="39.3419" r="2.151" fill="#F68561"/>
<g filter="url(#filter0_d_1227_4859)">
<circle cx="64.2994" cy="39.3419" r="2.151" fill="#F68561"/>
</g>
<path d="M67.8011 31.0722H83.2633V34.2846H45.5886V31.0722H60.5891L62.0428 32.0765L62.0948 32.1125H62.1581H66.1611H66.2219L66.2727 32.079L67.8011 31.0722Z" fill="url(#paint6_linear_1227_4859)" stroke="#89E159" stroke-width="0.405672"/>
<path d="M61.546 20.9012L61.6069 20.9759H61.7032H63.9622H66.2566H66.3619L66.4225 20.8898L67.4983 19.3603H74.5274L76.6769 22.2089L83.059 30.6664H67.7403H60.5055H45.7847L51.9539 22.2062L54.0291 19.3603H60.2901L61.546 20.9012Z" fill="url(#paint7_linear_1227_4859)" stroke="#89E159" stroke-width="0.405672"/>
<path d="M60.7859 18.5486H67.7637L69.7509 25.6618L66.1152 29.2072H62.2537L58.6406 25.6618L60.7859 18.5486Z" fill="#89E159"/>
<path d="M63.5853 21.7192H64.8091L66.2251 29.1812H62.0654L63.5853 21.7192Z" fill="#1F2431"/>
<path d="M63.5853 21.7192H64.8091L66.2251 29.1812H62.0654L63.5853 21.7192Z" fill="url(#paint8_linear_1227_4859)"/>
<path d="M71.6905 22.0874V20.481L70.915 22.1149L71.6905 22.3737V22.0874Z" fill="#141B25"/>
<path d="M56.3592 22.0874V20.481L57.2363 22.0874L56.3592 22.472L56.3592 22.0874Z" fill="#141B25"/>
<path d="M60.8111 24.2353H60.6771L60.6245 24.3585L58.5797 29.1505H51.322L54.8709 23.3261L56.3751 22.6802C56.9913 22.4157 57.2416 21.6749 56.9122 21.0908L56.5883 20.5165L57.3502 19.3693H60.3217L61.287 20.3672C61.4994 20.5867 61.7918 20.7106 62.0972 20.7106H65.885C66.2244 20.7106 66.5457 20.5577 66.7597 20.2943L66.6023 20.1664L66.7597 20.2943L67.5114 19.3693H70.6324L71.4682 20.5407L71.2249 21.2499C71.0405 21.7876 71.2853 22.3785 71.7959 22.6282L73.3369 23.382L77.1095 29.1505H69.8575L67.945 24.3629L67.894 24.2353H67.7566H60.8111Z" fill="#1F2431"/>
<path d="M60.8111 24.2353H60.6771L60.6245 24.3585L58.5797 29.1505H51.322L54.8709 23.3261L56.3751 22.6802C56.9913 22.4157 57.2416 21.6749 56.9122 21.0908L56.5883 20.5165L57.3502 19.3693H60.3217L61.287 20.3672C61.4994 20.5867 61.7918 20.7106 62.0972 20.7106H65.885C66.2244 20.7106 66.5457 20.5577 66.7597 20.2943L66.6023 20.1664L66.7597 20.2943L67.5114 19.3693H70.6324L71.4682 20.5407L71.2249 21.2499C71.0405 21.7876 71.2853 22.3785 71.7959 22.6282L73.3369 23.382L77.1095 29.1505H69.8575L67.945 24.3629L67.894 24.2353H67.7566H60.8111Z" fill="url(#paint9_linear_1227_4859)"/>
<path d="M60.8111 24.2353H60.6771L60.6245 24.3585L58.5797 29.1505H51.322L54.8709 23.3261L56.3751 22.6802C56.9913 22.4157 57.2416 21.6749 56.9122 21.0908L56.5883 20.5165L57.3502 19.3693H60.3217L61.287 20.3672C61.4994 20.5867 61.7918 20.7106 62.0972 20.7106H65.885C66.2244 20.7106 66.5457 20.5577 66.7597 20.2943L66.6023 20.1664L66.7597 20.2943L67.5114 19.3693H70.6324L71.4682 20.5407L71.2249 21.2499C71.0405 21.7876 71.2853 22.3785 71.7959 22.6282L73.3369 23.382L77.1095 29.1505H69.8575L67.945 24.3629L67.894 24.2353H67.7566H60.8111Z" stroke="#89E159" stroke-width="0.405672"/>
<path d="M51.0243 34.3048L47.519 31.9121L51.0243 29.5193L58.5041 29.5193L62.0095 31.9121L58.5041 34.3048L51.0243 34.3048Z" fill="#1F2431"/>
<path d="M51.0243 34.3048L47.519 31.9121L51.0243 29.5193L58.5041 29.5193L62.0095 31.9121L58.5041 34.3048L51.0243 34.3048Z" fill="#1E4E4E" fill-opacity="0.6"/>
<path d="M51.0243 34.3048L47.519 31.9121L51.0243 29.5193L58.5041 29.5193L62.0095 31.9121L58.5041 34.3048L51.0243 34.3048Z" stroke="#89E159" stroke-width="0.405672"/>
<path d="M69.7431 34.3124L66.2377 31.9196L69.7431 29.5269L77.2229 29.5269L80.7282 31.9196L77.2229 34.3124L69.7431 34.3124Z" fill="#1F2431"/>
<path d="M69.7431 34.3124L66.2377 31.9196L69.7431 29.5269L77.2229 29.5269L80.7282 31.9196L77.2229 34.3124L69.7431 34.3124Z" fill="#1E4E4E" fill-opacity="0.6"/>
<path d="M69.7431 34.3124L66.2377 31.9196L69.7431 29.5269L77.2229 29.5269L80.7282 31.9196L77.2229 34.3124L69.7431 34.3124Z" stroke="#89E159" stroke-width="0.405672"/>
<circle cx="54.8894" cy="31.9886" r="1.88163" fill="#141B25"/>
<circle cx="73.7058" cy="31.9886" r="1.88163" fill="#141B25"/>
<g filter="url(#filter1_d_1227_4859)">
<circle cx="54.8891" cy="31.9885" r="1.53952" fill="#89E159"/>
</g>
<g filter="url(#filter2_d_1227_4859)">
<circle cx="73.7055" cy="31.9885" r="1.53952" fill="#89E159"/>
</g>
<g style="mix-blend-mode:multiply" filter="url(#filter3_f_1227_4859)">
<ellipse cx="63.7704" cy="22.4506" rx="3.23528" ry="1.50209" fill="black" fill-opacity="0.6"/>
</g>
<path d="M64.3822 6.77637L62.3234 23.2469L61.2939 22.0116L64.3822 6.77637Z" fill="#1F2431"/>
<path d="M64.3822 6.77637L62.3234 23.2469L61.2939 22.0116L64.3822 6.77637Z" fill="url(#paint10_linear_1227_4859)"/>
<path d="M64.3817 6.5708L66.5213 23.2472H62.2421L64.3817 6.5708Z" fill="#1F2431"/>
<path d="M64.3817 6.5708L66.5213 23.2472H62.2421L64.3817 6.5708Z" fill="url(#paint11_linear_1227_4859)"/>
<g opacity="0.8" filter="url(#filter4_d_1227_4859)">
<circle cx="64.3115" cy="7.32345" r="1.165" fill="#F68561"/>
</g>
<path d="M66.009 32.843C66.009 33.4099 65.2432 33.8694 64.2985 33.8694C63.3537 33.8694 62.5879 33.4099 62.5879 32.843" stroke="#1F2431" stroke-width="0.405672" stroke-linecap="round"/>
<rect x="106.979" y="29.1841" width="1.79894" height="2.29533" fill="#1E4E4E"/>
<ellipse cx="107.879" cy="29.1843" rx="0.899472" ry="0.38893" fill="#1E4E4E"/>
<ellipse cx="107.879" cy="31.4639" rx="0.899472" ry="0.195614" fill="#1E4E4E"/>
<rect x="95.1172" y="14.759" width="1.35523" height="1.72918" transform="rotate(-13.5907 95.1172 14.759)" fill="#1E4E4E"/>
<ellipse cx="95.7753" cy="14.5994" rx="0.677614" ry="0.292999" transform="rotate(-13.5907 95.7753 14.5994)" fill="#1E4E4E"/>
<ellipse cx="96.1786" cy="16.2684" rx="0.677614" ry="0.147365" transform="rotate(-13.5907 96.1786 16.2684)" fill="#1E4E4E"/>
<rect width="1.35523" height="1.72918" transform="matrix(-0.95961 -0.281334 -0.281334 0.95961 34.3311 15.1638)" fill="#1E4E4E"/>
<ellipse cx="0.677614" cy="0.292999" rx="0.677614" ry="0.292999" transform="matrix(-0.95961 -0.281334 -0.281334 0.95961 34.4131 14.8826)" fill="#1E4E4E"/>
<ellipse cx="0.677614" cy="0.147365" rx="0.677614" ry="0.147365" transform="matrix(-0.95961 -0.281334 -0.281334 0.95961 33.8896 16.6697)" fill="#1E4E4E"/>
<rect x="20.8271" y="27.7439" width="1.79894" height="2.29533" transform="rotate(6.62361 20.8271 27.7439)" fill="#1E4E4E"/>
<ellipse cx="21.7207" cy="27.8475" rx="0.899472" ry="0.38893" transform="rotate(6.62361 21.7207 27.8475)" fill="#1E4E4E"/>
<ellipse cx="21.4578" cy="30.111" rx="0.899472" ry="0.195614" transform="rotate(6.62361 21.4578 30.111)" fill="#1E4E4E"/>
<path d="M107.884 28.9898L118.335 30.8872L118.394 31.3721L117.742 35.4573L107.861 29.2932L107.884 28.9898Z" fill="#224141"/>
<path d="M107.879 28.9878L118.35 30.9168L117.704 34.9031L107.879 28.9878Z" fill="url(#paint12_linear_1227_4859)"/>
<path d="M107.883 28.9897L98.9928 23.011L97.0124 25.3607L96.9726 25.8901L107.86 29.2929L107.883 28.9897Z" fill="#224141"/>
<path d="M107.887 28.9925L99.0105 22.9682L97.0066 25.3688L107.887 28.9925Z" fill="url(#paint13_linear_1227_4859)"/>
<path d="M124.55 29.5412C124.55 30.1624 124.121 30.7943 123.247 31.4021C122.378 32.006 121.109 32.5576 119.524 33.024C116.355 33.956 111.966 34.5351 107.11 34.5351C102.254 34.5351 97.8649 33.956 94.6961 33.024C93.1105 32.5576 91.8413 32.006 90.9728 31.4021C90.0987 30.7943 89.6696 30.1624 89.6696 29.5412C89.6696 28.92 90.0987 28.2881 90.9728 27.6803C91.8413 27.0764 93.1105 26.5248 94.6961 26.0584C97.8649 25.1264 102.254 24.5473 107.11 24.5473C111.966 24.5473 116.355 25.1264 119.524 26.0584C121.109 26.5248 122.378 27.0764 123.247 27.6803C124.121 28.2881 124.55 28.92 124.55 29.5412Z" stroke="#10B4E8" stroke-width="0.384146"/>
<path d="M127.662 30.0595C127.662 31.0589 127.123 32.034 126.096 32.9437C125.071 33.8532 123.575 34.6811 121.711 35.3802C117.984 36.7779 112.821 37.6464 107.11 37.6464C101.399 37.6464 96.2367 36.7779 92.5094 35.3802C90.645 34.6811 89.1497 33.8532 88.1238 32.9437C87.0977 32.034 86.5583 31.0589 86.5583 30.0595C86.5583 29.0601 87.0977 28.085 88.1238 27.1753C89.1497 26.2658 90.645 25.4379 92.5094 24.7388C96.2367 23.341 101.399 22.4726 107.11 22.4726C112.821 22.4726 117.984 23.341 121.711 24.7388C123.575 25.4379 125.071 26.2658 126.096 27.1753C127.123 28.085 127.662 29.0601 127.662 30.0595Z" stroke="#10B4E8" stroke-width="0.384146"/>
<path d="M38.5013 29.5412C38.5013 30.1624 38.0722 30.7943 37.1981 31.4021C36.3296 32.006 35.0604 32.5576 33.4748 33.024C30.306 33.956 25.917 34.5351 21.061 34.5351C16.205 34.5351 11.8161 33.956 8.64729 33.024C7.06165 32.5576 5.79245 32.006 4.924 31.4021C4.0499 30.7943 3.62078 30.1624 3.62078 29.5412C3.62078 28.92 4.0499 28.2881 4.924 27.6803C5.79245 27.0764 7.06165 26.5248 8.64729 26.0584C11.8161 25.1264 16.205 24.5473 21.061 24.5473C25.917 24.5473 30.306 25.1264 33.4748 26.0584C35.0604 26.5248 36.3296 27.0764 37.1981 27.6803C38.0722 28.2881 38.5013 28.92 38.5013 29.5412Z" stroke="#10B4E8" stroke-width="0.384146"/>
<path d="M41.6131 30.0595C41.6131 31.0589 41.0737 32.034 40.0476 32.9437C39.0217 33.8532 37.5264 34.6811 35.662 35.3802C31.9347 36.7779 26.7726 37.6464 21.0613 37.6464C15.3499 37.6464 10.1879 36.7779 6.46057 35.3802C4.59622 34.6811 3.10082 33.8532 2.07496 32.9437C1.04888 32.034 0.509456 31.0589 0.509456 30.0595C0.509456 29.0601 1.04888 28.085 2.07496 27.1753C3.10082 26.2658 4.59622 25.4379 6.46057 24.7388C10.1879 23.341 15.3499 22.4726 21.0613 22.4726C26.7726 22.4726 31.9347 23.341 35.662 24.7388C37.5264 25.4379 39.0217 26.2658 40.0476 27.1753C41.0737 28.085 41.6131 29.0601 41.6131 30.0595Z" stroke="#10B4E8" stroke-width="0.384146"/>
<path d="M95.7439 14.4563L103.732 13.9956L103.861 14.3402L104.107 17.447L95.7808 14.6825L95.7439 14.4563Z" fill="#224141"/>
<path d="M95.7407 14.4562L103.749 14.0151L103.982 17.0485L95.7407 14.4562Z" fill="url(#paint14_linear_1227_4859)"/>
<path d="M95.7436 14.4554L88.1752 11.6513L87.1411 13.7225L87.2056 14.1172L95.7805 14.6815L95.7436 14.4554Z" fill="#224141"/>
<path d="M95.7474 14.4562L88.181 11.6163L87.1386 13.7289L95.7474 14.4562Z" fill="url(#paint15_linear_1227_4859)"/>
<path d="M33.7181 14.8334L25.7613 13.9902L25.6154 14.3282L25.221 17.4196L33.6704 15.0576L33.7181 14.8334Z" fill="#224141"/>
<path d="M33.7211 14.8336L25.7427 14.0089L25.3649 17.0276L33.7211 14.8336Z" fill="url(#paint16_linear_1227_4859)"/>
<path d="M33.7181 14.8325L41.4122 12.3946L42.3459 14.513L42.2625 14.9041L33.6704 15.0565L33.7181 14.8325Z" fill="#224141"/>
<path d="M33.7141 14.833L41.408 12.3592L42.3479 14.5194L33.7141 14.833Z" fill="url(#paint17_linear_1227_4859)"/>
<path d="M21.5933 27.7952L11.143 29.6926L11.0834 30.1776L11.7354 34.2627L21.6162 28.0987L21.5933 27.7952Z" fill="#224141"/>
<path d="M21.5987 27.794L11.128 29.723L11.7739 33.7093L21.5987 27.794Z" fill="url(#paint18_linear_1227_4859)"/>
<path d="M21.5944 27.7956L30.4848 21.8169L32.4651 24.1666L32.505 24.696L21.6173 28.0988L21.5944 27.7956Z" fill="#224141"/>
<path d="M21.5904 27.7984L30.467 21.7741L32.471 24.1747L21.5904 27.7984Z" fill="url(#paint19_linear_1227_4859)"/>
<path d="M46.9904 14.5973C46.9904 15.0328 46.6892 15.4879 46.0464 15.9349C45.4093 16.3779 44.4748 16.7847 43.3028 17.1294C40.9613 17.8181 37.7152 18.2467 34.1215 18.2467C30.5279 18.2467 27.2817 17.8181 24.9402 17.1294C23.7682 16.7847 22.8337 16.3779 22.1966 15.9349C21.5538 15.4879 21.2526 15.0328 21.2526 14.5973C21.2526 14.1618 21.5538 13.7067 22.1966 13.2597C22.8337 12.8167 23.7682 12.41 24.9402 12.0653C27.2817 11.3766 30.5279 10.9479 34.1215 10.9479C37.7152 10.9479 40.9613 11.3766 43.3028 12.0653C44.4748 12.41 45.4093 12.8167 46.0464 13.2597C46.6892 13.7067 46.9904 14.1618 46.9904 14.5973Z" stroke="#10B4E8" stroke-width="0.384146"/>
<path d="M49.2955 14.9817C49.2955 15.7026 48.9066 16.4124 48.1526 17.0809C47.3989 17.7491 46.2973 18.3597 44.9196 18.8763C42.1655 19.9091 38.3479 20.5518 34.1217 20.5518C29.8955 20.5518 26.0779 19.9091 23.3239 18.8763C21.9461 18.3597 20.8445 17.7491 20.0908 17.0809C19.3369 16.4124 18.9479 15.7026 18.9479 14.9817C18.9479 14.2607 19.3369 13.5509 20.0908 12.8825C20.8445 12.2142 21.9461 11.6037 23.3239 11.087C26.0779 10.0543 29.8955 9.41156 34.1217 9.41156C38.3479 9.41156 42.1655 10.0543 44.9196 11.087C46.2973 11.6037 47.3989 12.2142 48.1526 12.8825C48.9066 13.5509 49.2955 14.2607 49.2955 14.9817Z" stroke="#10B4E8" stroke-width="0.384146"/>
<path d="M109.223 13.8293C109.223 14.2648 108.922 14.7199 108.279 15.1668C107.642 15.6099 106.707 16.0166 105.535 16.3613C103.194 17.05 99.9476 17.4786 96.3539 17.4786C92.7603 17.4786 89.5141 17.05 87.1726 16.3613C86.0006 16.0166 85.0662 15.6099 84.429 15.1668C83.7862 14.7199 83.485 14.2648 83.485 13.8293C83.485 13.3937 83.7862 12.9387 84.429 12.4917C85.0662 12.0486 86.0006 11.6419 87.1726 11.2972C89.5141 10.6085 92.7603 10.1799 96.3539 10.1799C99.9476 10.1799 103.194 10.6085 105.535 11.2972C106.707 11.6419 107.642 12.0486 108.279 12.4917C108.922 12.9387 109.223 13.3937 109.223 13.8293Z" stroke="#10B4E8" stroke-width="0.384146"/>
<path d="M111.528 14.2134C111.528 14.9343 111.139 15.6441 110.385 16.3126C109.631 16.9808 108.53 17.5914 107.152 18.108C104.398 19.1408 100.58 19.7835 96.3541 19.7835C92.1279 19.7835 88.3103 19.1408 85.5563 18.108C84.1785 17.5914 83.0769 16.9808 82.3232 16.3126C81.5693 15.6441 81.1804 14.9343 81.1804 14.2134C81.1804 13.4924 81.5693 12.7826 82.3232 12.1142C83.0769 11.4459 84.1785 10.8354 85.5563 10.3187C88.3103 9.28595 92.1279 8.64325 96.3541 8.64325C100.58 8.64325 104.398 9.28595 107.152 10.3187C108.53 10.8354 109.631 11.4459 110.385 12.1142C111.139 12.7826 111.528 13.4924 111.528 14.2134Z" stroke="#10B4E8" stroke-width="0.384146"/>
<defs>
<filter id="filter0_d_1227_4859" x="59.3753" y="34.4178" width="9.84795" height="9.84819" filterUnits="userSpaceOnUse" color-interpolation-filters="sRGB">
<feFlood flood-opacity="0" result="BackgroundImageFix"/>
<feColorMatrix in="SourceAlpha" type="matrix" values="0 0 0 0 0 0 0 0 0 0 0 0 0 0 0 0 0 0 127 0" result="hardAlpha"/>
<feMorphology radius="0.924365" operator="dilate" in="SourceAlpha" result="effect1_dropShadow_1227_4859"/>
<feOffset/>
<feGaussianBlur stdDeviation="0.924365"/>
<feComposite in2="hardAlpha" operator="out"/>
<feColorMatrix type="matrix" values="0 0 0 0 0.964706 0 0 0 0 0.521569 0 0 0 0 0.380392 0 0 0 0.8 0"/>
<feBlend mode="normal" in2="BackgroundImageFix" result="effect1_dropShadow_1227_4859"/>
<feBlend mode="normal" in="SourceGraphic" in2="effect1_dropShadow_1227_4859" result="shape"/>
</filter>
<filter id="filter1_d_1227_4859" x="51.1588" y="28.2581" width="7.46079" height="7.46079" filterUnits="userSpaceOnUse" color-interpolation-filters="sRGB">
<feFlood flood-opacity="0" result="BackgroundImageFix"/>
<feColorMatrix in="SourceAlpha" type="matrix" values="0 0 0 0 0 0 0 0 0 0 0 0 0 0 0 0 0 0 127 0" result="hardAlpha"/>
<feMorphology radius="0.342115" operator="dilate" in="SourceAlpha" result="effect1_dropShadow_1227_4859"/>
<feOffset/>
<feGaussianBlur stdDeviation="0.924365"/>
<feComposite in2="hardAlpha" operator="out"/>
<feColorMatrix type="matrix" values="0 0 0 0 0.537255 0 0 0 0 0.882353 0 0 0 0 0.34902 0 0 0 1 0"/>
<feBlend mode="normal" in2="BackgroundImageFix" result="effect1_dropShadow_1227_4859"/>
<feBlend mode="normal" in="SourceGraphic" in2="effect1_dropShadow_1227_4859" result="shape"/>
</filter>
<filter id="filter2_d_1227_4859" x="69.9752" y="28.2581" width="7.46079" height="7.46079" filterUnits="userSpaceOnUse" color-interpolation-filters="sRGB">
<feFlood flood-opacity="0" result="BackgroundImageFix"/>
<feColorMatrix in="SourceAlpha" type="matrix" values="0 0 0 0 0 0 0 0 0 0 0 0 0 0 0 0 0 0 127 0" result="hardAlpha"/>
<feMorphology radius="0.342115" operator="dilate" in="SourceAlpha" result="effect1_dropShadow_1227_4859"/>
<feOffset/>
<feGaussianBlur stdDeviation="0.924365"/>
<feComposite in2="hardAlpha" operator="out"/>
<feColorMatrix type="matrix" values="0 0 0 0 0.537255 0 0 0 0 0.882353 0 0 0 0 0.34902 0 0 0 1 0"/>
<feBlend mode="normal" in2="BackgroundImageFix" result="effect1_dropShadow_1227_4859"/>
<feBlend mode="normal" in="SourceGraphic" in2="effect1_dropShadow_1227_4859" result="shape"/>
</filter>
<filter id="filter3_f_1227_4859" x="56.3755" y="16.7888" width="14.79" height="11.3234" filterUnits="userSpaceOnUse" color-interpolation-filters="sRGB">
<feFlood flood-opacity="0" result="BackgroundImageFix"/>
<feBlend mode="normal" in="SourceGraphic" in2="BackgroundImageFix" result="shape"/>
<feGaussianBlur stdDeviation="2.07982" result="effect1_foregroundBlur_1227_4859"/>
</filter>
<filter id="filter4_d_1227_4859" x="60.3734" y="3.38535" width="7.87627" height="7.87627" filterUnits="userSpaceOnUse" color-interpolation-filters="sRGB">
<feFlood flood-opacity="0" result="BackgroundImageFix"/>
<feColorMatrix in="SourceAlpha" type="matrix" values="0 0 0 0 0 0 0 0 0 0 0 0 0 0 0 0 0 0 127 0" result="hardAlpha"/>
<feMorphology radius="0.924365" operator="dilate" in="SourceAlpha" result="effect1_dropShadow_1227_4859"/>
<feOffset/>
<feGaussianBlur stdDeviation="0.924365"/>
<feComposite in2="hardAlpha" operator="out"/>
<feColorMatrix type="matrix" values="0 0 0 0 0.964706 0 0 0 0 0.521569 0 0 0 0 0.380392 0 0 0 0.5 0"/>
<feBlend mode="normal" in2="BackgroundImageFix" result="effect1_dropShadow_1227_4859"/>
<feBlend mode="normal" in="SourceGraphic" in2="effect1_dropShadow_1227_4859" result="shape"/>
</filter>
<linearGradient id="paint0_linear_1227_4859" x1="45.9855" y1="23.4236" x2="46.6973" y2="19.0561" gradientUnits="userSpaceOnUse">
<stop stop-color="#1E4E4E"/>
<stop offset="1" stop-color="#1F2431"/>
</linearGradient>
<linearGradient id="paint1_linear_1227_4859" x1="39.3437" y1="33.0607" x2="38.631" y2="27.9399" gradientUnits="userSpaceOnUse">
<stop stop-color="#1E4E4E"/>
<stop offset="1" stop-color="#1F2431"/>
</linearGradient>
<linearGradient id="paint2_linear_1227_4859" x1="83.2947" y1="23.3759" x2="82.5271" y2="19.0179" gradientUnits="userSpaceOnUse">
<stop stop-color="#1E4E4E"/>
<stop offset="1" stop-color="#1F2431"/>
</linearGradient>
<linearGradient id="paint3_linear_1227_4859" x1="89.5389" y1="33.2459" x2="90.6017" y2="28.1861" gradientUnits="userSpaceOnUse">
<stop stop-color="#1E4E4E"/>
<stop offset="1" stop-color="#1F2431"/>
</linearGradient>
<linearGradient id="paint4_linear_1227_4859" x1="63.781" y1="36.9753" x2="64.225" y2="47.5563" gradientUnits="userSpaceOnUse">
<stop stop-color="#1E4E4E"/>
<stop offset="1" stop-color="#1F2431"/>
</linearGradient>
<linearGradient id="paint5_linear_1227_4859" x1="65.1407" y1="38.424" x2="65.2115" y2="19.1572" gradientUnits="userSpaceOnUse">
<stop stop-color="#1E4E4E"/>
<stop offset="1" stop-color="#1F2431"/>
</linearGradient>
<linearGradient id="paint6_linear_1227_4859" x1="63.92" y1="34.4875" x2="63.951" y2="30.8691" gradientUnits="userSpaceOnUse">
<stop stop-color="#89E159"/>
<stop offset="1" stop-color="#B9F598"/>
</linearGradient>
<linearGradient id="paint7_linear_1227_4859" x1="63.59" y1="19.1575" x2="63.4241" y2="30.1768" gradientUnits="userSpaceOnUse">
<stop stop-color="#89E159"/>
<stop offset="1" stop-color="#B9F598"/>
</linearGradient>
<linearGradient id="paint8_linear_1227_4859" x1="64.207" y1="29.4097" x2="64.205" y2="21.7192" gradientUnits="userSpaceOnUse">
<stop stop-color="#1E4E4E"/>
<stop offset="1" stop-color="#1F2431"/>
</linearGradient>
<linearGradient id="paint9_linear_1227_4859" x1="64.2227" y1="29.3533" x2="62.7826" y2="19.251" gradientUnits="userSpaceOnUse">
<stop stop-color="#1E4E4E"/>
<stop offset="1" stop-color="#1F2431"/>
</linearGradient>
<linearGradient id="paint10_linear_1227_4859" x1="62.571" y1="20.8068" x2="62.946" y2="6.93179" gradientUnits="userSpaceOnUse">
<stop stop-color="#1F2431"/>
<stop offset="1" stop-color="#1E4E4E"/>
</linearGradient>
<linearGradient id="paint11_linear_1227_4859" x1="63.9544" y1="25.5119" x2="64.3817" y2="6.77668" gradientUnits="userSpaceOnUse">
<stop stop-color="#1F2431"/>
<stop offset="1" stop-color="#1E4E4E"/>
</linearGradient>
<linearGradient id="paint12_linear_1227_4859" x1="107.574" y1="30.8674" x2="109.213" y2="26.933" gradientUnits="userSpaceOnUse">
<stop stop-color="#89E159"/>
<stop offset="1" stop-color="#B9F598"/>
</linearGradient>
<linearGradient id="paint13_linear_1227_4859" x1="106.657" y1="30.4454" x2="108.582" y2="26.6428" gradientUnits="userSpaceOnUse">
<stop stop-color="#89E159"/>
<stop offset="1" stop-color="#B9F598"/>
</linearGradient>
<linearGradient id="paint14_linear_1227_4859" x1="95.8504" y1="15.8864" x2="96.3542" y2="12.7153" gradientUnits="userSpaceOnUse">
<stop stop-color="#89E159"/>
<stop offset="1" stop-color="#B9F598"/>
</linearGradient>
<linearGradient id="paint15_linear_1227_4859" x1="95.1035" y1="15.7379" x2="95.84" y2="12.6126" gradientUnits="userSpaceOnUse">
<stop stop-color="#89E159"/>
<stop offset="1" stop-color="#B9F598"/>
</linearGradient>
<linearGradient id="paint16_linear_1227_4859" x1="33.5429" y1="16.2569" x2="33.1917" y2="13.0653" gradientUnits="userSpaceOnUse">
<stop stop-color="#89E159"/>
<stop offset="1" stop-color="#B9F598"/>
</linearGradient>
<linearGradient id="paint17_linear_1227_4859" x1="34.2958" y1="16.1441" x2="33.71" y2="12.9871" gradientUnits="userSpaceOnUse">
<stop stop-color="#89E159"/>
<stop offset="1" stop-color="#B9F598"/>
</linearGradient>
<linearGradient id="paint18_linear_1227_4859" x1="21.9033" y1="29.6735" x2="20.2641" y2="25.7392" gradientUnits="userSpaceOnUse">
<stop stop-color="#89E159"/>
<stop offset="1" stop-color="#B9F598"/>
</linearGradient>
<linearGradient id="paint19_linear_1227_4859" x1="22.821" y1="29.2513" x2="20.8958" y2="25.4487" gradientUnits="userSpaceOnUse">
<stop stop-color="#89E159"/>
<stop offset="1" stop-color="#B9F598"/>
</linearGradient>
</defs>
</svg>
