<svg width="149" height="76" viewBox="0 0 149 76" fill="none" xmlns="http://www.w3.org/2000/svg">
<g style="mix-blend-mode:multiply" filter="url(#filter0_f_964_5635)">
<ellipse cx="73.1876" cy="55.0674" rx="34.8341" ry="14.6421" fill="black" fill-opacity="0.1"/>
</g>
<path d="M55.5717 18.4745L43.0821 12.278L53.3797 22.174L55.5717 18.4745Z" fill="#1F2431"/>
<path d="M55.5717 18.4745L43.0821 12.278L53.3797 22.174L55.5717 18.4745Z" fill="url(#paint0_linear_964_5635)"/>
<path d="M55.5717 18.4745L43.0821 12.278L53.3797 22.174L55.5717 18.4745Z" stroke="#89E159"/>
<path d="M42.0943 12.7007L40.9417 11.5636L35.5993 21.0299L42.0943 12.7007Z" fill="#1F2431"/>
<path d="M42.0943 12.7007L40.9417 11.5636L35.5993 21.0299L42.0943 12.7007Z" fill="url(#paint1_linear_964_5635)"/>
<path d="M42.0943 12.7007L40.9417 11.5636L35.5993 21.0299L42.0943 12.7007Z" stroke="#89E159"/>
<path d="M53.4702 22.9454L40.3827 10.3752V11.5355L53.4702 24.4984V22.9454Z" fill="#1F2431"/>
<path d="M42.6435 12.8053L31.8725 26.6265L35.5068 22.6001L43.6174 13.8516L42.6435 12.8053Z" fill="#1F2431"/>
<rect x="-0.295204" y="0.295204" width="1.06273" height="0.590408" transform="matrix(-1 0 0 1 32.331 25.8804)" fill="#1F2431" stroke="#89E159" stroke-width="0.590408"/>
<circle cx="2.83396" cy="2.83396" r="2.83396" transform="matrix(-1 0 0 1 34.5747 26.5881)" fill="#1F2431"/>
<circle cx="2.83396" cy="2.83396" r="2.83396" transform="matrix(-1 0 0 1 34.5747 26.5881)" fill="url(#paint2_linear_964_5635)" fill-opacity="0.6"/>
<circle cx="2.19172" cy="2.19172" r="2.19172" transform="matrix(-1 0 0 1 33.8682 27.2969)" fill="#183F3F"/>
<g style="mix-blend-mode:multiply" filter="url(#filter1_f_964_5635)">
<ellipse cx="10.7242" cy="66.286" rx="4.01477" ry="2.95204" fill="black" fill-opacity="0.1"/>
</g>
<circle cx="4.73318" cy="4.73318" r="4.73318" transform="matrix(-1 0 0 1 15.4663 57.8877)" fill="#1F2431"/>
<circle cx="4.73318" cy="4.73318" r="4.73318" transform="matrix(-1 0 0 1 15.4663 57.8877)" fill="url(#paint3_linear_964_5635)" fill-opacity="0.6"/>
<circle cx="3.66053" cy="3.66053" r="3.66053" transform="matrix(-1 0 0 1 14.2856 59.068)" fill="#1E4E4E"/>
<path d="M47.9866 35.0842L30.7479 28.5951L45.4093 39.7808L47.9866 35.0842Z" fill="#1F2431"/>
<path d="M47.9866 35.0842L30.7479 28.5951L45.4093 39.7808L47.9866 35.0842Z" fill="url(#paint4_linear_964_5635)"/>
<path d="M47.9866 35.0842L30.7479 28.5951L45.4093 39.7808L47.9866 35.0842Z" stroke="#89E159"/>
<path d="M28.428 28.2576L14.3075 51.3514L31.9555 30.5891L28.428 28.2576Z" fill="#1F2431"/>
<path d="M28.428 28.2576L14.3075 51.3514L31.9555 30.5891L28.428 28.2576Z" fill="url(#paint5_linear_964_5635)"/>
<path d="M28.428 28.2576L14.3075 51.3514L31.9555 30.5891L28.428 28.2576Z" stroke="#89E159"/>
<path d="M45.5656 40.5354L27.7175 26.9171L27.8222 28.2735L44.9333 41.6808L45.5656 40.5354Z" fill="#1F2431"/>
<path d="M32.465 30.7479L10.5418 56.5559L17.9389 49.0374L34.4473 32.7016L32.465 30.7479Z" fill="#1F2431"/>
<rect x="-0.485072" y="0.485072" width="1.8219" height="0.970144" transform="matrix(-1 0 0 1 11.0723 56.4261)" fill="#1F2431" stroke="#89E159" stroke-width="0.970144"/>
<path d="M93.6363 18.6117L106.126 12.4152L95.8283 22.3112L93.6363 18.6117Z" fill="#1F2431"/>
<path d="M93.6363 18.6117L106.126 12.4152L95.8283 22.3112L93.6363 18.6117Z" fill="url(#paint6_linear_964_5635)"/>
<path d="M93.6363 18.6117L106.126 12.4152L95.8283 22.3112L93.6363 18.6117Z" stroke="#89E159"/>
<path d="M107.113 12.8378L108.266 11.7007L113.608 21.167L107.113 12.8378Z" fill="#1F2431"/>
<path d="M107.113 12.8378L108.266 11.7007L113.608 21.167L107.113 12.8378Z" fill="url(#paint7_linear_964_5635)"/>
<path d="M107.113 12.8378L108.266 11.7007L113.608 21.167L107.113 12.8378Z" stroke="#89E159"/>
<path d="M95.7388 23.0817L108.826 10.5116V11.6719L95.7388 24.6348V23.0817Z" fill="#1F2431"/>
<path d="M106.564 12.9415L117.335 26.7628L113.701 22.7363L105.59 13.9879L106.564 12.9415Z" fill="#1F2431"/>
<rect x="116.582" y="26.3125" width="1.06273" height="0.590408" fill="#1F2431" stroke="#89E159" stroke-width="0.590408"/>
<circle cx="117.467" cy="29.5594" r="2.83396" fill="#1F2431"/>
<circle cx="117.467" cy="29.5594" r="2.83396" fill="url(#paint8_linear_964_5635)" fill-opacity="0.6"/>
<circle cx="117.532" cy="29.6249" r="2.19172" fill="#183F3F"/>
<g style="mix-blend-mode:multiply" filter="url(#filter2_f_964_5635)">
<ellipse cx="138.719" cy="66.2861" rx="4.01477" ry="2.95204" fill="black" fill-opacity="0.1"/>
</g>
<circle cx="138.665" cy="62.621" r="4.73318" fill="#1F2431"/>
<circle cx="138.665" cy="62.621" r="4.73318" fill="url(#paint9_linear_964_5635)" fill-opacity="0.6"/>
<circle cx="138.773" cy="62.7286" r="3.66053" fill="#1E4E4E"/>
<path d="M101.412 35.0842L118.651 28.5951L103.989 39.7808L101.412 35.0842Z" fill="#1F2431"/>
<path d="M101.412 35.0842L118.651 28.5951L103.989 39.7808L101.412 35.0842Z" fill="url(#paint10_linear_964_5635)"/>
<path d="M101.412 35.0842L118.651 28.5951L103.989 39.7808L101.412 35.0842Z" stroke="#89E159"/>
<path d="M120.97 28.2574L135.091 51.3513L117.443 30.5889L120.97 28.2574Z" fill="#1F2431"/>
<path d="M120.97 28.2574L135.091 51.3513L117.443 30.5889L120.97 28.2574Z" fill="url(#paint11_linear_964_5635)"/>
<path d="M120.97 28.2574L135.091 51.3513L117.443 30.5889L120.97 28.2574Z" stroke="#89E159"/>
<path d="M103.832 40.5355L121.68 26.9172L121.576 28.2736L104.465 41.6809L103.832 40.5355Z" fill="#1F2431"/>
<path d="M116.933 30.7479L138.857 56.5559L131.46 49.0374L114.951 32.7016L116.933 30.7479Z" fill="#1F2431"/>
<rect x="137.841" y="56.9112" width="1.8219" height="0.970144" fill="#1F2431" stroke="#89E159" stroke-width="0.970144"/>
<path d="M51.4082 28.123V25.6249L52.9619 27.8793L51.4082 30.5806V28.123Z" fill="#1F2431"/>
<path d="M98.8718 29.1211L98.8875 26.3392L97.4463 28.7338L98.8718 31.3404V29.1211Z" fill="#1F2431"/>
<path d="M82.6577 43.1227L103.946 39.9435V49.2152C103.946 52.6914 101.128 55.5094 97.6515 55.5094H51.6424C48.1662 55.5094 45.3482 52.6914 45.3482 49.2152L45.3481 39.5809L66.6082 43.3718L66.9032 43.4244L67.0887 43.1891L69.0612 40.6865H80.4695L82.1867 42.9319L82.3659 43.1663L82.6577 43.1227Z" fill="#1F2431"/>
<path d="M82.6577 43.1227L103.946 39.9435V49.2152C103.946 52.6914 101.128 55.5094 97.6515 55.5094H51.6424C48.1662 55.5094 45.3482 52.6914 45.3482 49.2152L45.3481 39.5809L66.6082 43.3718L66.9032 43.4244L67.0887 43.1891L69.0612 40.6865H80.4695L82.1867 42.9319L82.3659 43.1663L82.6577 43.1227Z" fill="url(#paint12_linear_964_5635)"/>
<path d="M82.6577 43.1227L103.946 39.9435V49.2152C103.946 52.6914 101.128 55.5094 97.6515 55.5094H51.6424C48.1662 55.5094 45.3482 52.6914 45.3482 49.2152L45.3481 39.5809L66.6082 43.3718L66.9032 43.4244L67.0887 43.1891L69.0612 40.6865H80.4695L82.1867 42.9319L82.3659 43.1663L82.6577 43.1227Z" stroke="#89E159"/>
<path d="M46.5548 34.4263L47.9521 31.8284L50.0206 31.278C50.6804 31.1024 51.2416 30.6685 51.5776 30.0741L52.0658 29.2102C52.5422 28.3674 52.4977 27.3269 51.951 26.5279L51.3183 25.6033L55.377 19.1443C56.2801 17.7071 57.8584 16.8348 59.5559 16.8348H69.5896L70.2308 17.9223C70.565 18.4891 71.174 18.837 71.832 18.837H75.1126C75.7782 18.837 76.3929 18.4812 76.7244 17.9041L77.3388 16.8348H88.5887C90.2421 16.8348 91.7856 17.6627 92.7002 19.0401L97.5936 26.4096L96.9617 27.4613C96.5121 28.2094 96.4785 29.136 96.8725 29.9147L97.3295 30.8177C97.654 31.459 98.2352 31.9327 98.9288 32.1212L100.882 32.6519L101.85 34.5509C103.983 38.7385 100.941 43.7021 96.2411 43.7021H52.098C47.3366 43.7021 44.2993 38.6197 46.5548 34.4263Z" fill="#1F2431"/>
<path d="M46.5548 34.4263L47.9521 31.8284L50.0206 31.278C50.6804 31.1024 51.2416 30.6685 51.5776 30.0741L52.0658 29.2102C52.5422 28.3674 52.4977 27.3269 51.951 26.5279L51.3183 25.6033L55.377 19.1443C56.2801 17.7071 57.8584 16.8348 59.5559 16.8348H69.5896L70.2308 17.9223C70.565 18.4891 71.174 18.837 71.832 18.837H75.1126C75.7782 18.837 76.3929 18.4812 76.7244 17.9041L77.3388 16.8348H88.5887C90.2421 16.8348 91.7856 17.6627 92.7002 19.0401L97.5936 26.4096L96.9617 27.4613C96.5121 28.2094 96.4785 29.136 96.8725 29.9147L97.3295 30.8177C97.654 31.459 98.2352 31.9327 98.9288 32.1212L100.882 32.6519L101.85 34.5509C103.983 38.7385 100.941 43.7021 96.2411 43.7021H52.098C47.3366 43.7021 44.2993 38.6197 46.5548 34.4263Z" fill="url(#paint13_linear_964_5635)"/>
<path d="M46.5548 34.4263L47.9521 31.8284L50.0206 31.278C50.6804 31.1024 51.2416 30.6685 51.5776 30.0741L52.0658 29.2102C52.5422 28.3674 52.4977 27.3269 51.951 26.5279L51.3183 25.6033L55.377 19.1443C56.2801 17.7071 57.8584 16.8348 59.5559 16.8348H69.5896L70.2308 17.9223C70.565 18.4891 71.174 18.837 71.832 18.837H75.1126C75.7782 18.837 76.3929 18.4812 76.7244 17.9041L77.3388 16.8348H88.5887C90.2421 16.8348 91.7856 17.6627 92.7002 19.0401L97.5936 26.4096L96.9617 27.4613C96.5121 28.2094 96.4785 29.136 96.8725 29.9147L97.3295 30.8177C97.654 31.459 98.2352 31.9327 98.9288 32.1212L100.882 32.6519L101.85 34.5509C103.983 38.7385 100.941 43.7021 96.2411 43.7021H52.098C47.3366 43.7021 44.2993 38.6197 46.5548 34.4263Z" stroke="#89E159"/>
<path d="M46.5548 34.4263L47.9521 31.8284L50.0206 31.278C50.6804 31.1024 51.2416 30.6685 51.5776 30.0741L52.0658 29.2102C52.5422 28.3674 52.4977 27.3269 51.951 26.5279L51.3183 25.6033L55.377 19.1443C56.2801 17.7071 57.8584 16.8348 59.5559 16.8348H69.5896L70.2308 17.9223C70.565 18.4891 71.174 18.837 71.832 18.837H75.1126C75.7782 18.837 76.3929 18.4812 76.7244 17.9041L77.3388 16.8348H88.5887C90.2421 16.8348 91.7856 17.6627 92.7002 19.0401L97.5936 26.4096L96.9617 27.4613C96.5121 28.2094 96.4785 29.136 96.8725 29.9147L97.3295 30.8177C97.654 31.459 98.2352 31.9327 98.9288 32.1212L100.882 32.6519L101.85 34.5509C103.983 38.7385 100.941 43.7021 96.2411 43.7021H52.098C47.3366 43.7021 44.2993 38.6197 46.5548 34.4263Z" stroke="#89E159"/>
<path d="M68.2382 41.1372C68.5957 40.4833 69.2815 40.0765 70.0267 40.0765H79.3315C80.0956 40.0765 80.7955 40.5038 81.1446 41.1835L82.6943 44.2002V54.6112H66.564V44.2002L68.2382 41.1372Z" fill="#1F2431"/>
<path fill-rule="evenodd" clip-rule="evenodd" d="M68.9344 51.1986L66.6631 54.6873L66.3784 54.5019L68.6479 51.0159V40.4268H68.9876V50.8589H80.4561V40.5743H80.7958V50.9492L82.842 54.5101L82.5474 54.6793L80.5473 51.1986H68.9344Z" fill="#141B25"/>
<path d="M70.0267 40.5765H79.3315C79.9082 40.5765 80.4364 40.899 80.6998 41.4119L82.1943 44.3211V54.1112H67.064V44.328L68.6769 41.377C68.9467 40.8835 69.4643 40.5765 70.0267 40.5765Z" stroke="#89E159"/>
<circle cx="74.6295" cy="45.5669" r="5.13932" fill="#212121"/>
<circle cx="74.6292" cy="45.5684" r="3.23127" fill="#F68561"/>
<g filter="url(#filter3_d_964_5635)">
<circle cx="74.6292" cy="45.5684" r="3.23127" fill="#F68561"/>
</g>
<path d="M78.2389 33.8306H93.6125V38.0812H55.6963V33.8306H70.5937L71.9866 35.1971L72.1325 35.3402H72.3368H76.4276H76.625L76.7692 35.2053L78.2389 33.8306Z" fill="url(#paint14_linear_964_5635)" stroke="#89E159"/>
<path d="M93.2806 32.8311H78.0415H70.6479H56.0151L62.1859 20.8142L64.2293 16.8348H70.2367L71.4382 18.9283L71.5824 19.1794H71.8719H74.1805H76.5252H76.8355L76.9732 18.9013L77.9969 16.8348H84.7803L86.8982 20.8204L93.2806 32.8311Z" fill="url(#paint15_linear_964_5635)" stroke="#89E159"/>
<path d="M70.935 23.9554H78.066L80.0968 31.2248L76.3813 34.848H72.4351L68.7427 31.2248L70.935 23.9554Z" fill="#89E159"/>
<path d="M73.794 27.1948H75.0447L76.4917 34.8206H72.2407L73.794 27.1948Z" fill="#1F2431"/>
<path d="M73.794 27.1948H75.0447L76.4917 34.8206H72.2407L73.794 27.1948Z" fill="url(#paint16_linear_964_5635)"/>
<path d="M82.0795 20.5873V18.256L81.2871 20.6272L82.0795 21.0028V20.5873Z" fill="#141B25"/>
<path d="M66.4127 20.5873V18.256L67.3091 20.5873L66.4127 21.1454L66.4127 20.5873Z" fill="#141B25"/>
<path d="M70.9613 23.4981H70.5895L70.4825 23.8543L68.4461 30.6312H61.6536L65.1448 22.4948L66.5952 21.6104C67.3684 21.139 67.6893 20.1789 67.3551 19.3372L66.9474 18.3106L67.6315 16.8479H70.2847L71.0575 17.9822C71.4037 18.4903 71.9788 18.7944 72.5937 18.7944H75.8082C76.4748 18.7944 77.0904 18.4374 77.4215 17.8588L78 16.8479H80.7966L81.554 18.3552L81.2617 19.5651C81.0816 20.3109 81.3781 21.0907 82.0082 21.5283L83.5072 22.5695L87.22 30.6312H80.4447L78.5407 23.8627L78.4381 23.4981H78.0593H70.9613Z" fill="#1F2431"/>
<path d="M70.9613 23.4981H70.5895L70.4825 23.8543L68.4461 30.6312H61.6536L65.1448 22.4948L66.5952 21.6104C67.3684 21.139 67.6893 20.1789 67.3551 19.3372L66.9474 18.3106L67.6315 16.8479H70.2847L71.0575 17.9822C71.4037 18.4903 71.9788 18.7944 72.5937 18.7944H75.8082C76.4748 18.7944 77.0904 18.4374 77.4215 17.8588L78 16.8479H80.7966L81.554 18.3552L81.2617 19.5651C81.0816 20.3109 81.3781 21.0907 82.0082 21.5283L83.5072 22.5695L87.22 30.6312H80.4447L78.5407 23.8627L78.4381 23.4981H78.0593H70.9613Z" fill="url(#paint17_linear_964_5635)"/>
<path d="M70.9613 23.4981H70.5895L70.4825 23.8543L68.4461 30.6312H61.6536L65.1448 22.4948L66.5952 21.6104C67.3684 21.139 67.6893 20.1789 67.3551 19.3372L66.9474 18.3106L67.6315 16.8479H70.2847L71.0575 17.9822C71.4037 18.4903 71.9788 18.7944 72.5937 18.7944H75.8082C76.4748 18.7944 77.0904 18.4374 77.4215 17.8588L78 16.8479H80.7966L81.554 18.3552L81.2617 19.5651C81.0816 20.3109 81.3781 21.0907 82.0082 21.5283L83.5072 22.5695L87.22 30.6312H80.4447L78.5407 23.8627L78.4381 23.4981H78.0593H70.9613Z" stroke="#89E159"/>
<path d="M61.0978 38.1103L57.7277 34.8435L61.0978 31.5768L68.4647 31.5768L71.8348 34.8435L68.4647 38.1103L61.0978 38.1103Z" fill="#1F2431"/>
<path d="M61.0978 38.1103L57.7277 34.8435L61.0978 31.5768L68.4647 31.5768L71.8348 34.8435L68.4647 38.1103L61.0978 38.1103Z" fill="#1E4E4E" fill-opacity="0.6"/>
<path d="M61.0978 38.1103L57.7277 34.8435L61.0978 31.5768L68.4647 31.5768L71.8348 34.8435L68.4647 38.1103L61.0978 38.1103Z" stroke="#89E159"/>
<path d="M80.2272 38.122L76.8571 34.8553L80.2272 31.5885L87.5941 31.5885L90.9642 34.8553L87.5941 38.122L80.2272 38.122Z" fill="#1F2431"/>
<path d="M80.2272 38.122L76.8571 34.8553L80.2272 31.5885L87.5941 31.5885L90.9642 34.8553L87.5941 38.122L80.2272 38.122Z" fill="#1E4E4E" fill-opacity="0.6"/>
<path d="M80.2272 38.122L76.8571 34.8553L80.2272 31.5885L87.5941 31.5885L90.9642 34.8553L87.5941 38.122L80.2272 38.122Z" stroke="#89E159"/>
<g filter="url(#filter4_d_964_5635)">
<circle cx="64.6841" cy="34.8755" r="2.71588" fill="#141B25"/>
</g>
<circle cx="84.0494" cy="35.1109" r="2.71588" fill="#141B25"/>
<g filter="url(#filter5_d_964_5635)">
<circle cx="64.684" cy="34.8765" r="2.24355" fill="#89E159"/>
</g>
<g filter="url(#filter6_d_964_5635)">
<circle cx="84.0492" cy="35.1118" r="2.24355" fill="#89E159"/>
</g>
<g style="mix-blend-mode:multiply" filter="url(#filter7_f_964_5635)">
<ellipse cx="74.0133" cy="21.6493" rx="3.30628" ry="1.53506" fill="black" fill-opacity="0.6"/>
</g>
<path d="M74.6379 5.63098L72.5339 22.463L71.4819 21.2006L74.6379 5.63098Z" fill="#1F2431"/>
<path d="M74.6379 5.63098L72.5339 22.463L71.4819 21.2006L74.6379 5.63098Z" fill="url(#paint18_linear_964_5635)"/>
<path d="M74.6381 5.42065L76.8246 22.463H72.4515L74.6381 5.42065Z" fill="#1F2431"/>
<path d="M74.6381 5.42065L76.8246 22.463H72.4515L74.6381 5.42065Z" fill="url(#paint19_linear_964_5635)"/>
<g opacity="0.8" filter="url(#filter8_d_964_5635)">
<circle cx="74.5656" cy="6.19057" r="1.19057" fill="#F68561"/>
</g>
<path d="M76.194 36.7803C76.194 37.5648 75.4122 38.2008 74.4478 38.2008C73.4834 38.2008 72.7017 37.5648 72.7017 36.7803" stroke="#1F2431" stroke-linecap="round"/>
<defs>
<filter id="filter0_f_964_5635" x="32.2387" y="34.3105" width="81.8976" height="41.5138" filterUnits="userSpaceOnUse" color-interpolation-filters="sRGB">
<feFlood flood-opacity="0" result="BackgroundImageFix"/>
<feBlend mode="normal" in="SourceGraphic" in2="BackgroundImageFix" result="shape"/>
<feGaussianBlur stdDeviation="3.0574" result="effect1_foregroundBlur_964_5635"/>
</filter>
<filter id="filter1_f_964_5635" x="0.594666" y="57.2192" width="20.2594" height="18.1337" filterUnits="userSpaceOnUse" color-interpolation-filters="sRGB">
<feFlood flood-opacity="0" result="BackgroundImageFix"/>
<feBlend mode="normal" in="SourceGraphic" in2="BackgroundImageFix" result="shape"/>
<feGaussianBlur stdDeviation="3.0574" result="effect1_foregroundBlur_964_5635"/>
</filter>
<filter id="filter2_f_964_5635" x="128.59" y="57.2193" width="20.2594" height="18.1337" filterUnits="userSpaceOnUse" color-interpolation-filters="sRGB">
<feFlood flood-opacity="0" result="BackgroundImageFix"/>
<feBlend mode="normal" in="SourceGraphic" in2="BackgroundImageFix" result="shape"/>
<feGaussianBlur stdDeviation="3.0574" result="effect1_foregroundBlur_964_5635"/>
</filter>
<filter id="filter3_d_964_5635" x="67.3214" y="38.2606" width="14.6155" height="14.6156" filterUnits="userSpaceOnUse" color-interpolation-filters="sRGB">
<feFlood flood-opacity="0" result="BackgroundImageFix"/>
<feColorMatrix in="SourceAlpha" type="matrix" values="0 0 0 0 0 0 0 0 0 0 0 0 0 0 0 0 0 0 127 0" result="hardAlpha"/>
<feMorphology radius="1.35885" operator="dilate" in="SourceAlpha" result="effect1_dropShadow_964_5635"/>
<feOffset/>
<feGaussianBlur stdDeviation="1.35885"/>
<feComposite in2="hardAlpha" operator="out"/>
<feColorMatrix type="matrix" values="0 0 0 0 0.964706 0 0 0 0 0.521569 0 0 0 0 0.380392 0 0 0 0.8 0"/>
<feBlend mode="normal" in2="BackgroundImageFix" result="effect1_dropShadow_964_5635"/>
<feBlend mode="normal" in="SourceGraphic" in2="effect1_dropShadow_964_5635" result="shape"/>
</filter>
<filter id="filter4_d_964_5635" x="60.6094" y="32.1597" width="8.14933" height="8.14945" filterUnits="userSpaceOnUse" color-interpolation-filters="sRGB">
<feFlood flood-opacity="0" result="BackgroundImageFix"/>
<feColorMatrix in="SourceAlpha" type="matrix" values="0 0 0 0 0 0 0 0 0 0 0 0 0 0 0 0 0 0 127 0" result="hardAlpha"/>
<feOffset dy="1.35885"/>
<feGaussianBlur stdDeviation="0.679423"/>
<feComposite in2="hardAlpha" operator="out"/>
<feColorMatrix type="matrix" values="0 0 0 0 0 0 0 0 0 0 0 0 0 0 0 0 0 0 0.25 0"/>
<feBlend mode="normal" in2="BackgroundImageFix" result="effect1_dropShadow_964_5635"/>
<feBlend mode="normal" in="SourceGraphic" in2="effect1_dropShadow_964_5635" result="shape"/>
</filter>
<filter id="filter5_d_964_5635" x="58.3639" y="28.5564" width="12.6404" height="12.6401" filterUnits="userSpaceOnUse" color-interpolation-filters="sRGB">
<feFlood flood-opacity="0" result="BackgroundImageFix"/>
<feColorMatrix in="SourceAlpha" type="matrix" values="0 0 0 0 0 0 0 0 0 0 0 0 0 0 0 0 0 0 127 0" result="hardAlpha"/>
<feMorphology radius="1.35885" operator="dilate" in="SourceAlpha" result="effect1_dropShadow_964_5635"/>
<feOffset/>
<feGaussianBlur stdDeviation="1.35885"/>
<feComposite in2="hardAlpha" operator="out"/>
<feColorMatrix type="matrix" values="0 0 0 0 0.537255 0 0 0 0 0.882353 0 0 0 0 0.34902 0 0 0 1 0"/>
<feBlend mode="normal" in2="BackgroundImageFix" result="effect1_dropShadow_964_5635"/>
<feBlend mode="normal" in="SourceGraphic" in2="effect1_dropShadow_964_5635" result="shape"/>
</filter>
<filter id="filter6_d_964_5635" x="77.7291" y="28.7917" width="12.6404" height="12.6401" filterUnits="userSpaceOnUse" color-interpolation-filters="sRGB">
<feFlood flood-opacity="0" result="BackgroundImageFix"/>
<feColorMatrix in="SourceAlpha" type="matrix" values="0 0 0 0 0 0 0 0 0 0 0 0 0 0 0 0 0 0 127 0" result="hardAlpha"/>
<feMorphology radius="1.35885" operator="dilate" in="SourceAlpha" result="effect1_dropShadow_964_5635"/>
<feOffset/>
<feGaussianBlur stdDeviation="1.35885"/>
<feComposite in2="hardAlpha" operator="out"/>
<feColorMatrix type="matrix" values="0 0 0 0 0.537255 0 0 0 0 0.882353 0 0 0 0 0.34902 0 0 0 1 0"/>
<feBlend mode="normal" in2="BackgroundImageFix" result="effect1_dropShadow_964_5635"/>
<feBlend mode="normal" in="SourceGraphic" in2="effect1_dropShadow_964_5635" result="shape"/>
</filter>
<filter id="filter7_f_964_5635" x="64.5922" y="13.9995" width="18.8424" height="15.2997" filterUnits="userSpaceOnUse" color-interpolation-filters="sRGB">
<feFlood flood-opacity="0" result="BackgroundImageFix"/>
<feBlend mode="normal" in="SourceGraphic" in2="BackgroundImageFix" result="shape"/>
<feGaussianBlur stdDeviation="3.0574" result="effect1_foregroundBlur_964_5635"/>
</filter>
<filter id="filter8_d_964_5635" x="69.2985" y="0.923462" width="10.5344" height="10.5342" filterUnits="userSpaceOnUse" color-interpolation-filters="sRGB">
<feFlood flood-opacity="0" result="BackgroundImageFix"/>
<feColorMatrix in="SourceAlpha" type="matrix" values="0 0 0 0 0 0 0 0 0 0 0 0 0 0 0 0 0 0 127 0" result="hardAlpha"/>
<feMorphology radius="1.35885" operator="dilate" in="SourceAlpha" result="effect1_dropShadow_964_5635"/>
<feOffset/>
<feGaussianBlur stdDeviation="1.35885"/>
<feComposite in2="hardAlpha" operator="out"/>
<feColorMatrix type="matrix" values="0 0 0 0 0.964706 0 0 0 0 0.521569 0 0 0 0 0.380392 0 0 0 0.5 0"/>
<feBlend mode="normal" in2="BackgroundImageFix" result="effect1_dropShadow_964_5635"/>
<feBlend mode="normal" in="SourceGraphic" in2="effect1_dropShadow_964_5635" result="shape"/>
</filter>
<linearGradient id="paint0_linear_964_5635" x1="54.2138" y1="21.7472" x2="55.9548" y2="16.9029" gradientUnits="userSpaceOnUse">
<stop stop-color="#1E4E4E"/>
<stop offset="1" stop-color="#1F2431"/>
</linearGradient>
<linearGradient id="paint1_linear_964_5635" x1="42.3638" y1="11.9972" x2="32.5258" y2="23.0034" gradientUnits="userSpaceOnUse">
<stop stop-color="#1E4E4E"/>
<stop offset="1" stop-color="#1F2431"/>
</linearGradient>
<linearGradient id="paint2_linear_964_5635" x1="4.03598" y1="7.87604" x2="1.62152" y2="3.92503" gradientUnits="userSpaceOnUse">
<stop stop-color="#1E4E4E"/>
<stop offset="1" stop-color="#1F2431"/>
</linearGradient>
<linearGradient id="paint3_linear_964_5635" x1="6.74075" y1="13.1543" x2="2.7082" y2="6.55546" gradientUnits="userSpaceOnUse">
<stop stop-color="#1E4E4E"/>
<stop offset="1" stop-color="#1F2431"/>
</linearGradient>
<linearGradient id="paint4_linear_964_5635" x1="46.3866" y1="39.0521" x2="47.9001" y2="33.1898" gradientUnits="userSpaceOnUse">
<stop stop-color="#1E4E4E"/>
<stop offset="1" stop-color="#1F2431"/>
</linearGradient>
<linearGradient id="paint5_linear_964_5635" x1="31.8964" y1="29.2382" x2="10.232" y2="57.0728" gradientUnits="userSpaceOnUse">
<stop stop-color="#1E4E4E"/>
<stop offset="1" stop-color="#1F2431"/>
</linearGradient>
<linearGradient id="paint6_linear_964_5635" x1="94.9942" y1="21.8844" x2="93.2532" y2="17.0401" gradientUnits="userSpaceOnUse">
<stop stop-color="#1E4E4E"/>
<stop offset="1" stop-color="#1F2431"/>
</linearGradient>
<linearGradient id="paint7_linear_964_5635" x1="106.844" y1="12.1343" x2="116.682" y2="23.1405" gradientUnits="userSpaceOnUse">
<stop stop-color="#1E4E4E"/>
<stop offset="1" stop-color="#1F2431"/>
</linearGradient>
<linearGradient id="paint8_linear_964_5635" x1="118.669" y1="34.6015" x2="116.255" y2="30.6505" gradientUnits="userSpaceOnUse">
<stop stop-color="#1E4E4E"/>
<stop offset="1" stop-color="#1F2431"/>
</linearGradient>
<linearGradient id="paint9_linear_964_5635" x1="140.672" y1="71.0421" x2="136.64" y2="64.4433" gradientUnits="userSpaceOnUse">
<stop stop-color="#1E4E4E"/>
<stop offset="1" stop-color="#1F2431"/>
</linearGradient>
<linearGradient id="paint10_linear_964_5635" x1="103.012" y1="39.0521" x2="101.498" y2="33.1898" gradientUnits="userSpaceOnUse">
<stop stop-color="#1E4E4E"/>
<stop offset="1" stop-color="#1F2431"/>
</linearGradient>
<linearGradient id="paint11_linear_964_5635" x1="117.502" y1="29.238" x2="139.166" y2="57.0726" gradientUnits="userSpaceOnUse">
<stop stop-color="#1E4E4E"/>
<stop offset="1" stop-color="#1F2431"/>
</linearGradient>
<linearGradient id="paint12_linear_964_5635" x1="74.083" y1="43.476" x2="74.6554" y2="56.0094" gradientUnits="userSpaceOnUse">
<stop stop-color="#1E4E4E"/>
<stop offset="1" stop-color="#1F2431"/>
</linearGradient>
<linearGradient id="paint13_linear_964_5635" x1="74.7117" y1="44.3593" x2="74.8588" y2="16.3348" gradientUnits="userSpaceOnUse">
<stop stop-color="#1E4E4E"/>
<stop offset="1" stop-color="#1F2431"/>
</linearGradient>
<linearGradient id="paint14_linear_964_5635" x1="74.1373" y1="38.5812" x2="74.2013" y2="33.3306" gradientUnits="userSpaceOnUse">
<stop stop-color="#89E159"/>
<stop offset="1" stop-color="#B9F598"/>
</linearGradient>
<linearGradient id="paint15_linear_964_5635" x1="73.8" y1="16.3348" x2="73.4584" y2="32.3226" gradientUnits="userSpaceOnUse">
<stop stop-color="#89E159"/>
<stop offset="1" stop-color="#B9F598"/>
</linearGradient>
<linearGradient id="paint16_linear_964_5635" x1="74.4293" y1="35.0541" x2="74.4273" y2="27.1948" gradientUnits="userSpaceOnUse">
<stop stop-color="#1E4E4E"/>
<stop offset="1" stop-color="#1F2431"/>
</linearGradient>
<linearGradient id="paint17_linear_964_5635" x1="74.4479" y1="31.1312" x2="71.539" y2="16.7615" gradientUnits="userSpaceOnUse">
<stop stop-color="#1E4E4E"/>
<stop offset="1" stop-color="#1F2431"/>
</linearGradient>
<linearGradient id="paint18_linear_964_5635" x1="72.787" y1="19.9693" x2="73.1703" y2="5.78982" gradientUnits="userSpaceOnUse">
<stop stop-color="#1F2431"/>
<stop offset="1" stop-color="#1E4E4E"/>
</linearGradient>
<linearGradient id="paint19_linear_964_5635" x1="74.2014" y1="24.7774" x2="74.6381" y2="5.63105" gradientUnits="userSpaceOnUse">
<stop stop-color="#1F2431"/>
<stop offset="1" stop-color="#1E4E4E"/>
</linearGradient>
</defs>
</svg>
