<svg width="131" height="79" viewBox="0 0 131 79" fill="none" xmlns="http://www.w3.org/2000/svg">
<g style="mix-blend-mode:multiply" filter="url(#filter0_f_762_3923)">
<ellipse cx="64.7705" cy="43.5445" rx="34.0859" ry="23.1852" fill="black" fill-opacity="0.2"/>
</g>
<g filter="url(#filter1_f_762_3923)">
<ellipse cx="65.8537" cy="39.5044" rx="49.5549" ry="23.5571" fill="#141B25"/>
</g>
<path d="M48.284 28.3497L33.5448 24.3402L46.3477 32.2579L48.284 28.3497Z" fill="#1F2431"/>
<path d="M48.284 28.3497L33.5448 24.3402L46.3477 32.2579L48.284 28.3497Z" fill="url(#paint0_linear_762_3923)"/>
<path d="M48.284 28.3497L33.5448 24.3402L46.3477 32.2579L48.284 28.3497Z" stroke="#89E159" stroke-width="0.405672"/>
<path d="M46.4054 32.5294L32.2371 23.7725L32.3744 24.746L46.5892 33.8324L46.4054 32.5294Z" fill="#1F2431"/>
<path d="M40.9593 37.119L21.1456 37.9743L39.8786 42.273L40.9593 37.119Z" fill="#1F2431"/>
<path d="M40.9593 37.119L21.1456 37.9743L39.8786 42.273L40.9593 37.119Z" fill="url(#paint1_linear_762_3923)"/>
<path d="M40.9593 37.119L21.1456 37.9743L39.8786 42.273L40.9593 37.119Z" stroke="#89E159" stroke-width="0.405672"/>
<path d="M40.0319 42.519L19.6304 37.8364L20.1292 38.8768L39.7926 43.6447L40.0319 42.519Z" fill="#1F2431"/>
<path d="M82.957 28.3182L97.6437 24.1205L84.9431 32.2013L82.957 28.3182Z" fill="#1F2431"/>
<path d="M82.957 28.3182L97.6437 24.1205L84.9431 32.2013L82.957 28.3182Z" fill="url(#paint2_linear_762_3923)"/>
<path d="M82.957 28.3182L97.6437 24.1205L84.9431 32.2013L82.957 28.3182Z" stroke="#89E159" stroke-width="0.405672"/>
<path d="M84.8887 32.4743L98.9439 23.537L98.8191 24.5121L84.7216 33.7795L84.8887 32.4743Z" fill="#1F2431"/>
<path d="M90.1955 37.2714L109.904 39.4856L90.9197 42.4875L90.1955 37.2714Z" fill="#1F2431"/>
<path d="M90.1955 37.2714L109.904 39.4856L90.9197 42.4875L90.1955 37.2714Z" fill="url(#paint3_linear_762_3923)"/>
<path d="M90.1955 37.2714L109.904 39.4856L90.9197 42.4875L90.1955 37.2714Z" stroke="#89E159" stroke-width="0.405672"/>
<path d="M90.7504 42.7235L111.425 39.4533L110.856 40.4569L90.9118 43.863L90.7504 42.7235Z" fill="#1F2431"/>
<path d="M43.7135 34.5985V32.4297L45.5215 34.2516L43.7135 37.0033V34.5985Z" fill="#1F2431"/>
<path d="M86.729 35.0442L86.7615 32.4214L85.0928 34.2939L86.729 37.2158V35.0442Z" fill="#1F2431"/>
<path d="M92.4653 41.7364V50.9306C92.4653 53.3711 90.4868 55.3496 88.0463 55.3496H42.5515C40.111 55.3496 38.1325 53.3711 38.1325 50.9306L38.1325 41.4224L57.9634 44.6716L58.076 44.69L58.1502 44.6034L60.0391 42.4014H70.7786L72.4328 44.389L72.5048 44.4755L72.6163 44.4602L92.4653 41.7364Z" fill="#1F2431"/>
<path d="M92.4653 41.7364V50.9306C92.4653 53.3711 90.4868 55.3496 88.0463 55.3496H42.5515C40.111 55.3496 38.1325 53.3711 38.1325 50.9306L38.1325 41.4224L57.9634 44.6716L58.076 44.69L58.1502 44.6034L60.0391 42.4014H70.7786L72.4328 44.389L72.5048 44.4755L72.6163 44.4602L92.4653 41.7364Z" fill="url(#paint4_linear_762_3923)"/>
<path d="M92.4653 41.7364V50.9306C92.4653 53.3711 90.4868 55.3496 88.0463 55.3496H42.5515C40.111 55.3496 38.1325 53.3711 38.1325 50.9306L38.1325 41.4224L57.9634 44.6716L58.076 44.69L58.1502 44.6034L60.0391 42.4014H70.7786L72.4328 44.389L72.5048 44.4755L72.6163 44.4602L92.4653 41.7364Z" stroke="#89E159" stroke-width="0.405672"/>
<path d="M38.9002 38.9479L40.772 36.5878L43.2416 36.1274C43.6141 36.0579 43.9495 35.8577 44.1873 35.5628L44.5989 35.0526C45.1044 34.426 45.0615 33.5203 44.499 32.9443L43.9841 32.4171L47.3707 28.5518C48.0343 27.7944 48.9923 27.3601 49.9992 27.3601H61.3009L62.1214 28.3351C62.3356 28.5896 62.6512 28.7365 62.9838 28.7365H66.8683C67.2059 28.7365 67.5258 28.5851 67.7399 28.324L68.5303 27.3601H80.8235C81.8938 27.3601 82.9052 27.8506 83.5678 28.6912L86.5067 32.4191L85.9774 33.0364C85.4993 33.5938 85.4654 34.4062 85.8954 35.0016L86.2819 35.5368C86.5197 35.866 86.8743 36.0917 87.2732 36.1676L89.6459 36.6193L91.5259 38.8343C93.9624 41.705 91.9222 46.1128 88.1569 46.1128H42.3625C38.6658 46.1128 36.6031 41.8442 38.9002 38.9479Z" fill="#1F2431"/>
<path d="M38.9002 38.9479L40.772 36.5878L43.2416 36.1274C43.6141 36.0579 43.9495 35.8577 44.1873 35.5628L44.5989 35.0526C45.1044 34.426 45.0615 33.5203 44.499 32.9443L43.9841 32.4171L47.3707 28.5518C48.0343 27.7944 48.9923 27.3601 49.9992 27.3601H61.3009L62.1214 28.3351C62.3356 28.5896 62.6512 28.7365 62.9838 28.7365H66.8683C67.2059 28.7365 67.5258 28.5851 67.7399 28.324L68.5303 27.3601H80.8235C81.8938 27.3601 82.9052 27.8506 83.5678 28.6912L86.5067 32.4191L85.9774 33.0364C85.4993 33.5938 85.4654 34.4062 85.8954 35.0016L86.2819 35.5368C86.5197 35.866 86.8743 36.0917 87.2732 36.1676L89.6459 36.6193L91.5259 38.8343C93.9624 41.705 91.9222 46.1128 88.1569 46.1128H42.3625C38.6658 46.1128 36.6031 41.8442 38.9002 38.9479Z" fill="url(#paint5_linear_762_3923)"/>
<path d="M38.9002 38.9479L40.772 36.5878L43.2416 36.1274C43.6141 36.0579 43.9495 35.8577 44.1873 35.5628L44.5989 35.0526C45.1044 34.426 45.0615 33.5203 44.499 32.9443L43.9841 32.4171L47.3707 28.5518C48.0343 27.7944 48.9923 27.3601 49.9992 27.3601H61.3009L62.1214 28.3351C62.3356 28.5896 62.6512 28.7365 62.9838 28.7365H66.8683C67.2059 28.7365 67.5258 28.5851 67.7399 28.324L68.5303 27.3601H80.8235C81.8938 27.3601 82.9052 27.8506 83.5678 28.6912L86.5067 32.4191L85.9774 33.0364C85.4993 33.5938 85.4654 34.4062 85.8954 35.0016L86.2819 35.5368C86.5197 35.866 86.8743 36.0917 87.2732 36.1676L89.6459 36.6193L91.5259 38.8343C93.9624 41.705 91.9222 46.1128 88.1569 46.1128H42.3625C38.6658 46.1128 36.6031 41.8442 38.9002 38.9479Z" stroke="#89E159" stroke-width="0.405672"/>
<path d="M38.8969 38.9487L40.7653 36.5919L43.2338 36.1347C43.6533 36.0571 44.0239 35.814 44.2624 35.4602L44.6664 34.8606C45.0778 34.2502 45.0162 33.4373 44.5176 32.8958L44.0413 32.3785L47.3705 28.5586C48.0342 27.7971 48.9949 27.3601 50.005 27.3601H61.3009L62.1214 28.3351C62.3356 28.5896 62.6512 28.7365 62.9838 28.7365H66.8683C67.2059 28.7365 67.5258 28.5851 67.7399 28.324L68.5303 27.3601H80.8215C81.8929 27.3601 82.9051 27.8516 83.5677 28.6935L86.4989 32.4183L86.0031 33.053C85.5966 33.5733 85.5542 34.2907 85.8963 34.8553L86.2725 35.476C86.5145 35.8753 86.92 36.148 87.3811 36.2217L89.565 36.5705L91.4888 38.8265C93.9351 41.6952 91.8965 46.1128 88.1264 46.1128H42.3598C38.6635 46.1128 36.6007 41.8451 38.8969 38.9487Z" stroke="#89E159" stroke-width="0.405672"/>
<path d="M59.3523 43.488C59.6116 43.1164 60.0362 42.895 60.4893 42.895H70.5228C70.9901 42.895 71.426 43.1304 71.6823 43.5211L73.3444 46.0554V54.0344H57.5605V46.0554L59.3523 43.488Z" fill="#1F2431"/>
<path fill-rule="evenodd" clip-rule="evenodd" d="M59.8441 51.404L57.6074 54.0948L57.4297 53.9471L59.6508 51.275V43.1631H59.8819V51.1729H71.2054V43.2762H71.4365V51.2245L73.4379 53.9525L73.2515 54.0892L71.2815 51.404H59.8441Z" fill="#141B25"/>
<path d="M59.5186 43.6041C59.74 43.2869 60.1025 43.0979 60.4893 43.0979H70.5228C70.9218 43.0979 71.2939 43.2988 71.5127 43.6324L73.1416 46.116V53.8316H57.7634V46.1192L59.5186 43.6041Z" stroke="#89E159" stroke-width="0.405672"/>
<circle cx="65.2991" cy="47.3416" r="3.42115" fill="#212121"/>
<circle cx="65.2994" cy="47.3414" r="2.151" fill="#F68561"/>
<g filter="url(#filter2_d_762_3923)">
<circle cx="65.2994" cy="47.3414" r="2.151" fill="#F68561"/>
</g>
<path d="M67.1611 40.1122H67.2219L67.2727 40.0788L68.8011 39.072H84.2633V42.2844H46.5886V39.072H61.5891L63.0428 40.0763L63.0948 40.1122H63.1581H67.1611Z" fill="url(#paint6_linear_762_3923)" stroke="#89E159" stroke-width="0.405672"/>
<path d="M62.546 28.901L62.6069 28.9757H62.7032H64.9622H67.2566H67.3619L67.4225 28.8895L68.4983 27.3601H75.5274L77.6769 30.2086L84.059 38.6661H68.7403H61.5055H46.7847L52.9539 30.206L55.0291 27.3601H61.2901L62.546 28.901Z" fill="url(#paint7_linear_762_3923)" stroke="#89E159" stroke-width="0.405672"/>
<path d="M61.7859 26.5483H68.7637L70.7509 33.6616L67.1152 37.2069H63.2537L59.6406 33.6616L61.7859 26.5483Z" fill="#89E159"/>
<path d="M64.5853 29.7192H65.8091L67.2251 37.1812H63.0654L64.5853 29.7192Z" fill="#1F2431"/>
<path d="M64.5853 29.7192H65.8091L67.2251 37.1812H63.0654L64.5853 29.7192Z" fill="url(#paint8_linear_762_3923)"/>
<path d="M72.6905 30.0879V28.4814L71.915 30.1154L72.6905 30.3742V30.0879Z" fill="#141B25"/>
<path d="M57.3592 30.0879V28.4814L58.2363 30.0879L57.3592 30.4725L57.3592 30.0879Z" fill="#141B25"/>
<path d="M61.8111 32.2358H61.6771L61.6245 32.359L59.5797 37.151H52.322L55.8709 31.3266L57.3751 30.6807C57.9913 30.4161 58.2416 29.6754 57.9122 29.0913L57.5883 28.517L58.3502 27.3698H61.3217L62.287 28.3677C62.4994 28.5872 62.7918 28.7111 63.0972 28.7111H66.885C67.2244 28.7111 67.5457 28.5582 67.7597 28.2948L67.6023 28.1669L67.7597 28.2948L68.5114 27.3698H71.6324L72.4682 28.5412L72.2249 29.2504C72.0405 29.7881 72.2853 30.3789 72.7959 30.6287L74.3369 31.3825L78.1095 37.151H70.8575L68.945 32.3634L68.894 32.2358H68.7566H61.8111Z" fill="#1F2431"/>
<path d="M61.8111 32.2358H61.6771L61.6245 32.359L59.5797 37.151H52.322L55.8709 31.3266L57.3751 30.6807C57.9913 30.4161 58.2416 29.6754 57.9122 29.0913L57.5883 28.517L58.3502 27.3698H61.3217L62.287 28.3677C62.4994 28.5872 62.7918 28.7111 63.0972 28.7111H66.885C67.2244 28.7111 67.5457 28.5582 67.7597 28.2948L67.6023 28.1669L67.7597 28.2948L68.5114 27.3698H71.6324L72.4682 28.5412L72.2249 29.2504C72.0405 29.7881 72.2853 30.3789 72.7959 30.6287L74.3369 31.3825L78.1095 37.151H70.8575L68.945 32.3634L68.894 32.2358H68.7566H61.8111Z" fill="url(#paint9_linear_762_3923)"/>
<path d="M61.8111 32.2358H61.6771L61.6245 32.359L59.5797 37.151H52.322L55.8709 31.3266L57.3751 30.6807C57.9913 30.4161 58.2416 29.6754 57.9122 29.0913L57.5883 28.517L58.3502 27.3698H61.3217L62.287 28.3677C62.4994 28.5872 62.7918 28.7111 63.0972 28.7111H66.885C67.2244 28.7111 67.5457 28.5582 67.7597 28.2948L67.6023 28.1669L67.7597 28.2948L68.5114 27.3698H71.6324L72.4682 28.5412L72.2249 29.2504C72.0405 29.7881 72.2853 30.3789 72.7959 30.6287L74.3369 31.3825L78.1095 37.151H70.8575L68.945 32.3634L68.894 32.2358H68.7566H61.8111Z" stroke="#89E159" stroke-width="0.405672"/>
<path d="M52.0243 42.3048L48.519 39.9121L52.0243 37.5193L59.5041 37.5193L63.0095 39.9121L59.5041 42.3048L52.0243 42.3048Z" fill="#1F2431"/>
<path d="M52.0243 42.3048L48.519 39.9121L52.0243 37.5193L59.5041 37.5193L63.0095 39.9121L59.5041 42.3048L52.0243 42.3048Z" fill="#1E4E4E" fill-opacity="0.6"/>
<path d="M52.0243 42.3048L48.519 39.9121L52.0243 37.5193L59.5041 37.5193L63.0095 39.9121L59.5041 42.3048L52.0243 42.3048Z" stroke="#89E159" stroke-width="0.405672"/>
<path d="M70.7431 42.3126L67.2377 39.9199L70.7431 37.5271L78.2229 37.5271L81.7282 39.9199L78.2229 42.3126L70.7431 42.3126Z" fill="#1F2431"/>
<path d="M70.7431 42.3126L67.2377 39.9199L70.7431 37.5271L78.2229 37.5271L81.7282 39.9199L78.2229 42.3126L70.7431 42.3126Z" fill="#1E4E4E" fill-opacity="0.6"/>
<path d="M70.7431 42.3126L67.2377 39.9199L70.7431 37.5271L78.2229 37.5271L81.7282 39.9199L78.2229 42.3126L70.7431 42.3126Z" stroke="#89E159" stroke-width="0.405672"/>
<circle cx="55.8894" cy="39.9886" r="1.88163" fill="#141B25"/>
<circle cx="74.7058" cy="39.9886" r="1.88163" fill="#141B25"/>
<g filter="url(#filter3_d_762_3923)">
<circle cx="55.8891" cy="39.9887" r="1.53952" fill="#89E159"/>
</g>
<g filter="url(#filter4_d_762_3923)">
<circle cx="74.7055" cy="39.9887" r="1.53952" fill="#89E159"/>
</g>
<g style="mix-blend-mode:multiply" filter="url(#filter5_f_762_3923)">
<ellipse cx="64.7704" cy="30.4503" rx="3.23528" ry="1.50209" fill="black" fill-opacity="0.6"/>
</g>
<path d="M65.3822 14.7759L63.3234 31.2464L62.2939 30.0111L65.3822 14.7759Z" fill="#1F2431"/>
<path d="M65.3822 14.7759L63.3234 31.2464L62.2939 30.0111L65.3822 14.7759Z" fill="url(#paint10_linear_762_3923)"/>
<path d="M65.3817 14.5703L67.5213 31.2467H63.2421L65.3817 14.5703Z" fill="#1F2431"/>
<path d="M65.3817 14.5703L67.5213 31.2467H63.2421L65.3817 14.5703Z" fill="url(#paint11_linear_762_3923)"/>
<g opacity="0.8" filter="url(#filter6_d_762_3923)">
<circle cx="65.3115" cy="15.3232" r="1.165" fill="#F68561"/>
</g>
<path d="M67.009 40.8428C67.009 41.4096 66.2432 41.8691 65.2985 41.8691C64.3537 41.8691 63.5879 41.4096 63.5879 40.8428" stroke="#1F2431" stroke-width="0.405672" stroke-linecap="round"/>
<rect x="107.979" y="37.1841" width="1.79894" height="2.29533" fill="#1E4E4E"/>
<ellipse cx="108.879" cy="37.1843" rx="0.899472" ry="0.38893" fill="#1E4E4E"/>
<ellipse cx="108.879" cy="39.4642" rx="0.899472" ry="0.195614" fill="#1E4E4E"/>
<rect x="96.1172" y="22.7588" width="1.35523" height="1.72918" transform="rotate(-13.5907 96.1172 22.7588)" fill="#1E4E4E"/>
<ellipse cx="96.7753" cy="22.5992" rx="0.677614" ry="0.292999" transform="rotate(-13.5907 96.7753 22.5992)" fill="#1E4E4E"/>
<ellipse cx="97.1786" cy="24.2682" rx="0.677614" ry="0.147365" transform="rotate(-13.5907 97.1786 24.2682)" fill="#1E4E4E"/>
<rect width="1.35523" height="1.72918" transform="matrix(-0.95961 -0.281334 -0.281334 0.95961 35.3311 23.1641)" fill="#1E4E4E"/>
<ellipse cx="0.677614" cy="0.292999" rx="0.677614" ry="0.292999" transform="matrix(-0.95961 -0.281334 -0.281334 0.95961 35.4131 22.8828)" fill="#1E4E4E"/>
<ellipse cx="0.677614" cy="0.147365" rx="0.677614" ry="0.147365" transform="matrix(-0.95961 -0.281334 -0.281334 0.95961 34.8896 24.6699)" fill="#1E4E4E"/>
<rect x="21.8271" y="35.7437" width="1.79894" height="2.29533" transform="rotate(6.62361 21.8271 35.7437)" fill="#1E4E4E"/>
<ellipse cx="22.7207" cy="35.8475" rx="0.899472" ry="0.38893" transform="rotate(6.62361 22.7207 35.8475)" fill="#1E4E4E"/>
<ellipse cx="22.4578" cy="38.111" rx="0.899472" ry="0.195614" transform="rotate(6.62361 22.4578 38.111)" fill="#1E4E4E"/>
<path d="M108.884 36.9896L119.335 38.8869L119.394 39.3719L118.742 43.4571L108.861 37.293L108.884 36.9896Z" fill="#224141"/>
<path d="M108.879 36.9876L119.35 38.9166L118.704 42.9029L108.879 36.9876Z" fill="url(#paint12_linear_762_3923)"/>
<path d="M108.883 36.9897L99.9928 31.011L98.0124 33.3607L97.9726 33.8901L108.86 37.2929L108.883 36.9897Z" fill="#224141"/>
<path d="M108.887 36.9925L100.01 30.9682L98.0066 33.3688L108.887 36.9925Z" fill="url(#paint13_linear_762_3923)"/>
<path d="M125.55 37.541C125.55 38.1621 125.121 38.794 124.247 39.4019C123.378 40.0058 122.109 40.5574 120.524 41.0237C117.355 41.9557 112.966 42.5349 108.11 42.5349C103.254 42.5349 98.8649 41.9557 95.6961 41.0237C94.1105 40.5574 92.8413 40.0058 91.9728 39.4019C91.0987 38.794 90.6696 38.1621 90.6696 37.541C90.6696 36.9198 91.0987 36.2879 91.9728 35.68C92.8413 35.0761 94.1105 34.5246 95.6961 34.0582C98.8649 33.1262 103.254 32.5471 108.11 32.5471C112.966 32.5471 117.355 33.1262 120.524 34.0582C122.109 34.5246 123.378 35.0761 124.247 35.68C125.121 36.2879 125.55 36.9198 125.55 37.541Z" stroke="#10B4E8" stroke-width="0.384146"/>
<path d="M128.662 38.0592C128.662 39.0586 128.123 40.0337 127.096 40.9434C126.071 41.853 124.575 42.6808 122.711 43.38C118.984 44.7777 113.821 45.6461 108.11 45.6461C102.399 45.6461 97.2367 44.7777 93.5094 43.38C91.645 42.6808 90.1497 41.853 89.1238 40.9434C88.0977 40.0337 87.5583 39.0586 87.5583 38.0592C87.5583 37.0598 88.0977 36.0848 89.1238 35.175C90.1497 34.2655 91.645 33.4377 93.5094 32.7385C97.2367 31.3408 102.399 30.4723 108.11 30.4723C113.821 30.4723 118.984 31.3408 122.711 32.7385C124.575 33.4377 126.071 34.2655 127.096 35.175C128.123 36.0848 128.662 37.0598 128.662 38.0592Z" stroke="#10B4E8" stroke-width="0.384146"/>
<path d="M39.5013 37.541C39.5013 38.1621 39.0722 38.794 38.1981 39.4019C37.3296 40.0058 36.0604 40.5574 34.4748 41.0237C31.306 41.9557 26.917 42.5349 22.061 42.5349C17.205 42.5349 12.8161 41.9557 9.64729 41.0237C8.06165 40.5574 6.79245 40.0058 5.924 39.4019C5.0499 38.794 4.62078 38.1621 4.62078 37.541C4.62078 36.9198 5.0499 36.2879 5.924 35.68C6.79245 35.0761 8.06165 34.5246 9.64729 34.0582C12.8161 33.1262 17.205 32.5471 22.061 32.5471C26.917 32.5471 31.306 33.1262 34.4748 34.0582C36.0604 34.5246 37.3296 35.0761 38.1981 35.68C39.0722 36.2879 39.5013 36.9198 39.5013 37.541Z" stroke="#10B4E8" stroke-width="0.384146"/>
<path d="M42.6131 38.0592C42.6131 39.0586 42.0737 40.0337 41.0476 40.9434C40.0217 41.853 38.5264 42.6808 36.662 43.38C32.9347 44.7777 27.7726 45.6461 22.0613 45.6461C16.3499 45.6461 11.1879 44.7777 7.46057 43.38C5.59622 42.6808 4.10082 41.853 3.07496 40.9434C2.04888 40.0337 1.50946 39.0586 1.50946 38.0592C1.50946 37.0598 2.04888 36.0848 3.07496 35.175C4.10082 34.2655 5.59622 33.4377 7.46057 32.7385C11.1879 31.3408 16.3499 30.4723 22.0613 30.4723C27.7726 30.4723 32.9347 31.3408 36.662 32.7385C38.5264 33.4377 40.0217 34.2655 41.0476 35.175C42.0737 36.0848 42.6131 37.0598 42.6131 38.0592Z" stroke="#10B4E8" stroke-width="0.384146"/>
<path d="M96.7439 22.456L104.732 21.9954L104.861 22.34L105.107 25.4468L96.7808 22.6822L96.7439 22.456Z" fill="#224141"/>
<path d="M96.7407 22.4557L104.749 22.0147L104.982 25.048L96.7407 22.4557Z" fill="url(#paint14_linear_762_3923)"/>
<path d="M96.7436 22.4549L89.1752 19.6509L88.1411 21.722L88.2056 22.1167L96.7805 22.681L96.7436 22.4549Z" fill="#224141"/>
<path d="M96.7474 22.4562L89.181 19.6163L88.1386 21.7289L96.7474 22.4562Z" fill="url(#paint15_linear_762_3923)"/>
<path d="M34.7172 22.8334L26.7603 21.9902L26.6144 22.3282L26.22 25.4196L34.6694 23.0576L34.7172 22.8334Z" fill="#224141"/>
<path d="M34.7201 22.8338L26.7418 22.0091L26.3639 25.0278L34.7201 22.8338Z" fill="url(#paint16_linear_762_3923)"/>
<path d="M34.7181 22.8323L42.4122 20.3944L43.3459 22.5128L43.2625 22.9039L34.6704 23.0563L34.7181 22.8323Z" fill="#224141"/>
<path d="M34.7141 22.8327L42.408 20.359L43.3479 22.5191L34.7141 22.8327Z" fill="url(#paint17_linear_762_3923)"/>
<path d="M22.5933 35.7952L12.143 37.6926L12.0834 38.1776L12.7354 42.2627L22.6162 36.0987L22.5933 35.7952Z" fill="#224141"/>
<path d="M22.5987 35.7942L12.128 37.7232L12.7739 41.7095L22.5987 35.7942Z" fill="url(#paint18_linear_762_3923)"/>
<path d="M22.5944 35.7959L31.4848 29.8172L33.4651 32.1669L33.505 32.6962L22.6173 36.099L22.5944 35.7959Z" fill="#224141"/>
<path d="M22.5904 35.7987L31.467 29.7743L33.471 32.1749L22.5904 35.7987Z" fill="url(#paint19_linear_762_3923)"/>
<path d="M47.9904 22.5973C47.9904 23.0328 47.6892 23.4879 47.0464 23.9349C46.4093 24.3779 45.4748 24.7847 44.3028 25.1294C41.9613 25.8181 38.7152 26.2467 35.1215 26.2467C31.5279 26.2467 28.2817 25.8181 25.9402 25.1294C24.7682 24.7847 23.8337 24.3779 23.1966 23.9349C22.5538 23.4879 22.2526 23.0328 22.2526 22.5973C22.2526 22.1618 22.5538 21.7067 23.1966 21.2597C23.8337 20.8167 24.7682 20.41 25.9402 20.0653C28.2817 19.3766 31.5279 18.9479 35.1215 18.9479C38.7152 18.9479 41.9613 19.3766 44.3028 20.0653C45.4748 20.41 46.4093 20.8167 47.0464 21.2597C47.6892 21.7067 47.9904 22.1618 47.9904 22.5973Z" stroke="#10B4E8" stroke-width="0.384146"/>
<path d="M50.2955 22.9819C50.2955 23.7029 49.9066 24.4127 49.1526 25.0811C48.3989 25.7493 47.2973 26.3599 45.9196 26.8766C43.1655 27.9093 39.3479 28.552 35.1217 28.552C30.8955 28.552 27.0779 27.9093 24.3239 26.8766C22.9461 26.3599 21.8445 25.7493 21.0908 25.0811C20.3369 24.4127 19.9479 23.7029 19.9479 22.9819C19.9479 22.261 20.3369 21.5512 21.0908 20.8827C21.8445 20.2145 22.9461 19.6039 24.3239 19.0873C27.0779 18.0545 30.8955 17.4118 35.1217 17.4118C39.3479 17.4118 43.1655 18.0545 45.9196 19.0873C47.2973 19.6039 48.3989 20.2145 49.1526 20.8827C49.9066 21.5512 50.2955 22.261 50.2955 22.9819Z" stroke="#10B4E8" stroke-width="0.384146"/>
<path d="M110.223 21.8293C110.223 22.2648 109.922 22.7199 109.279 23.1668C108.642 23.6099 107.707 24.0166 106.535 24.3613C104.194 25.05 100.948 25.4786 97.3539 25.4786C93.7603 25.4786 90.5141 25.05 88.1726 24.3613C87.0006 24.0166 86.0662 23.6099 85.429 23.1668C84.7862 22.7199 84.485 22.2648 84.485 21.8293C84.485 21.3937 84.7862 20.9387 85.429 20.4917C86.0662 20.0486 87.0006 19.6419 88.1726 19.2972C90.5141 18.6085 93.7603 18.1799 97.3539 18.1799C100.948 18.1799 104.194 18.6085 106.535 19.2972C107.707 19.6419 108.642 20.0486 109.279 20.4917C109.922 20.9387 110.223 21.3937 110.223 21.8293Z" stroke="#10B4E8" stroke-width="0.384146"/>
<path d="M112.528 22.2134C112.528 22.9343 112.139 23.6441 111.385 24.3126C110.631 24.9808 109.53 25.5914 108.152 26.108C105.398 27.1408 101.58 27.7835 97.3541 27.7835C93.1279 27.7835 89.3103 27.1408 86.5563 26.108C85.1785 25.5914 84.0769 24.9808 83.3232 24.3126C82.5693 23.6441 82.1804 22.9343 82.1804 22.2134C82.1804 21.4924 82.5693 20.7826 83.3232 20.1142C84.0769 19.4459 85.1785 18.8354 86.5563 18.3187C89.3103 17.286 93.1279 16.6432 97.3541 16.6432C101.58 16.6432 105.398 17.286 108.152 18.3187C109.53 18.8354 110.631 19.4459 111.385 20.1142C112.139 20.7826 112.528 21.4924 112.528 22.2134Z" stroke="#10B4E8" stroke-width="0.384146"/>
<defs>
<filter id="filter0_f_762_3923" x="26.5249" y="16.1997" width="76.4912" height="54.6894" filterUnits="userSpaceOnUse" color-interpolation-filters="sRGB">
<feFlood flood-opacity="0" result="BackgroundImageFix"/>
<feBlend mode="normal" in="SourceGraphic" in2="BackgroundImageFix" result="shape"/>
<feGaussianBlur stdDeviation="2.07982" result="effect1_foregroundBlur_762_3923"/>
</filter>
<filter id="filter1_f_762_3923" x="0.932975" y="0.581412" width="129.841" height="77.846" filterUnits="userSpaceOnUse" color-interpolation-filters="sRGB">
<feFlood flood-opacity="0" result="BackgroundImageFix"/>
<feBlend mode="normal" in="SourceGraphic" in2="BackgroundImageFix" result="shape"/>
<feGaussianBlur stdDeviation="7.68293" result="effect1_foregroundBlur_762_3923"/>
</filter>
<filter id="filter2_d_762_3923" x="60.3753" y="42.4173" width="9.84795" height="9.84795" filterUnits="userSpaceOnUse" color-interpolation-filters="sRGB">
<feFlood flood-opacity="0" result="BackgroundImageFix"/>
<feColorMatrix in="SourceAlpha" type="matrix" values="0 0 0 0 0 0 0 0 0 0 0 0 0 0 0 0 0 0 127 0" result="hardAlpha"/>
<feMorphology radius="0.924365" operator="dilate" in="SourceAlpha" result="effect1_dropShadow_762_3923"/>
<feOffset/>
<feGaussianBlur stdDeviation="0.924365"/>
<feComposite in2="hardAlpha" operator="out"/>
<feColorMatrix type="matrix" values="0 0 0 0 0.964706 0 0 0 0 0.521569 0 0 0 0 0.380392 0 0 0 0.8 0"/>
<feBlend mode="normal" in2="BackgroundImageFix" result="effect1_dropShadow_762_3923"/>
<feBlend mode="normal" in="SourceGraphic" in2="effect1_dropShadow_762_3923" result="shape"/>
</filter>
<filter id="filter3_d_762_3923" x="52.1588" y="36.2584" width="7.46079" height="7.46079" filterUnits="userSpaceOnUse" color-interpolation-filters="sRGB">
<feFlood flood-opacity="0" result="BackgroundImageFix"/>
<feColorMatrix in="SourceAlpha" type="matrix" values="0 0 0 0 0 0 0 0 0 0 0 0 0 0 0 0 0 0 127 0" result="hardAlpha"/>
<feMorphology radius="0.342115" operator="dilate" in="SourceAlpha" result="effect1_dropShadow_762_3923"/>
<feOffset/>
<feGaussianBlur stdDeviation="0.924365"/>
<feComposite in2="hardAlpha" operator="out"/>
<feColorMatrix type="matrix" values="0 0 0 0 0.537255 0 0 0 0 0.882353 0 0 0 0 0.34902 0 0 0 1 0"/>
<feBlend mode="normal" in2="BackgroundImageFix" result="effect1_dropShadow_762_3923"/>
<feBlend mode="normal" in="SourceGraphic" in2="effect1_dropShadow_762_3923" result="shape"/>
</filter>
<filter id="filter4_d_762_3923" x="70.9752" y="36.2584" width="7.46079" height="7.46079" filterUnits="userSpaceOnUse" color-interpolation-filters="sRGB">
<feFlood flood-opacity="0" result="BackgroundImageFix"/>
<feColorMatrix in="SourceAlpha" type="matrix" values="0 0 0 0 0 0 0 0 0 0 0 0 0 0 0 0 0 0 127 0" result="hardAlpha"/>
<feMorphology radius="0.342115" operator="dilate" in="SourceAlpha" result="effect1_dropShadow_762_3923"/>
<feOffset/>
<feGaussianBlur stdDeviation="0.924365"/>
<feComposite in2="hardAlpha" operator="out"/>
<feColorMatrix type="matrix" values="0 0 0 0 0.537255 0 0 0 0 0.882353 0 0 0 0 0.34902 0 0 0 1 0"/>
<feBlend mode="normal" in2="BackgroundImageFix" result="effect1_dropShadow_762_3923"/>
<feBlend mode="normal" in="SourceGraphic" in2="effect1_dropShadow_762_3923" result="shape"/>
</filter>
<filter id="filter5_f_762_3923" x="57.3755" y="24.7886" width="14.79" height="11.3237" filterUnits="userSpaceOnUse" color-interpolation-filters="sRGB">
<feFlood flood-opacity="0" result="BackgroundImageFix"/>
<feBlend mode="normal" in="SourceGraphic" in2="BackgroundImageFix" result="shape"/>
<feGaussianBlur stdDeviation="2.07982" result="effect1_foregroundBlur_762_3923"/>
</filter>
<filter id="filter6_d_762_3923" x="61.3734" y="11.3851" width="7.87627" height="7.87627" filterUnits="userSpaceOnUse" color-interpolation-filters="sRGB">
<feFlood flood-opacity="0" result="BackgroundImageFix"/>
<feColorMatrix in="SourceAlpha" type="matrix" values="0 0 0 0 0 0 0 0 0 0 0 0 0 0 0 0 0 0 127 0" result="hardAlpha"/>
<feMorphology radius="0.924365" operator="dilate" in="SourceAlpha" result="effect1_dropShadow_762_3923"/>
<feOffset/>
<feGaussianBlur stdDeviation="0.924365"/>
<feComposite in2="hardAlpha" operator="out"/>
<feColorMatrix type="matrix" values="0 0 0 0 0.964706 0 0 0 0 0.521569 0 0 0 0 0.380392 0 0 0 0.5 0"/>
<feBlend mode="normal" in2="BackgroundImageFix" result="effect1_dropShadow_762_3923"/>
<feBlend mode="normal" in="SourceGraphic" in2="effect1_dropShadow_762_3923" result="shape"/>
</filter>
<linearGradient id="paint0_linear_762_3923" x1="46.9855" y1="31.4238" x2="47.6973" y2="27.0563" gradientUnits="userSpaceOnUse">
<stop stop-color="#1E4E4E"/>
<stop offset="1" stop-color="#1F2431"/>
</linearGradient>
<linearGradient id="paint1_linear_762_3923" x1="40.3437" y1="41.0607" x2="39.631" y2="35.9399" gradientUnits="userSpaceOnUse">
<stop stop-color="#1E4E4E"/>
<stop offset="1" stop-color="#1F2431"/>
</linearGradient>
<linearGradient id="paint2_linear_762_3923" x1="84.2947" y1="31.3755" x2="83.5271" y2="27.0174" gradientUnits="userSpaceOnUse">
<stop stop-color="#1E4E4E"/>
<stop offset="1" stop-color="#1F2431"/>
</linearGradient>
<linearGradient id="paint3_linear_762_3923" x1="90.5389" y1="41.2462" x2="91.6017" y2="36.1864" gradientUnits="userSpaceOnUse">
<stop stop-color="#1E4E4E"/>
<stop offset="1" stop-color="#1F2431"/>
</linearGradient>
<linearGradient id="paint4_linear_762_3923" x1="64.781" y1="44.9748" x2="65.225" y2="55.5558" gradientUnits="userSpaceOnUse">
<stop stop-color="#1E4E4E"/>
<stop offset="1" stop-color="#1F2431"/>
</linearGradient>
<linearGradient id="paint5_linear_762_3923" x1="66.1407" y1="46.4238" x2="66.2115" y2="27.157" gradientUnits="userSpaceOnUse">
<stop stop-color="#1E4E4E"/>
<stop offset="1" stop-color="#1F2431"/>
</linearGradient>
<linearGradient id="paint6_linear_762_3923" x1="64.92" y1="42.4872" x2="64.951" y2="38.8689" gradientUnits="userSpaceOnUse">
<stop stop-color="#89E159"/>
<stop offset="1" stop-color="#B9F598"/>
</linearGradient>
<linearGradient id="paint7_linear_762_3923" x1="64.59" y1="27.1572" x2="64.4241" y2="38.1766" gradientUnits="userSpaceOnUse">
<stop stop-color="#89E159"/>
<stop offset="1" stop-color="#B9F598"/>
</linearGradient>
<linearGradient id="paint8_linear_762_3923" x1="65.207" y1="37.4097" x2="65.205" y2="29.7192" gradientUnits="userSpaceOnUse">
<stop stop-color="#1E4E4E"/>
<stop offset="1" stop-color="#1F2431"/>
</linearGradient>
<linearGradient id="paint9_linear_762_3923" x1="65.2227" y1="37.3538" x2="63.7826" y2="27.2515" gradientUnits="userSpaceOnUse">
<stop stop-color="#1E4E4E"/>
<stop offset="1" stop-color="#1F2431"/>
</linearGradient>
<linearGradient id="paint10_linear_762_3923" x1="63.571" y1="28.8063" x2="63.946" y2="14.9313" gradientUnits="userSpaceOnUse">
<stop stop-color="#1F2431"/>
<stop offset="1" stop-color="#1E4E4E"/>
</linearGradient>
<linearGradient id="paint11_linear_762_3923" x1="64.9544" y1="33.5114" x2="65.3817" y2="14.7762" gradientUnits="userSpaceOnUse">
<stop stop-color="#1F2431"/>
<stop offset="1" stop-color="#1E4E4E"/>
</linearGradient>
<linearGradient id="paint12_linear_762_3923" x1="108.574" y1="38.8671" x2="110.213" y2="34.9328" gradientUnits="userSpaceOnUse">
<stop stop-color="#89E159"/>
<stop offset="1" stop-color="#B9F598"/>
</linearGradient>
<linearGradient id="paint13_linear_762_3923" x1="107.657" y1="38.4454" x2="109.582" y2="34.6428" gradientUnits="userSpaceOnUse">
<stop stop-color="#89E159"/>
<stop offset="1" stop-color="#B9F598"/>
</linearGradient>
<linearGradient id="paint14_linear_762_3923" x1="96.8504" y1="23.886" x2="97.3542" y2="20.7148" gradientUnits="userSpaceOnUse">
<stop stop-color="#89E159"/>
<stop offset="1" stop-color="#B9F598"/>
</linearGradient>
<linearGradient id="paint15_linear_762_3923" x1="96.1035" y1="23.7379" x2="96.84" y2="20.6126" gradientUnits="userSpaceOnUse">
<stop stop-color="#89E159"/>
<stop offset="1" stop-color="#B9F598"/>
</linearGradient>
<linearGradient id="paint16_linear_762_3923" x1="34.542" y1="24.2571" x2="34.1908" y2="21.0655" gradientUnits="userSpaceOnUse">
<stop stop-color="#89E159"/>
<stop offset="1" stop-color="#B9F598"/>
</linearGradient>
<linearGradient id="paint17_linear_762_3923" x1="35.2958" y1="24.1438" x2="34.71" y2="20.9868" gradientUnits="userSpaceOnUse">
<stop stop-color="#89E159"/>
<stop offset="1" stop-color="#B9F598"/>
</linearGradient>
<linearGradient id="paint18_linear_762_3923" x1="22.9033" y1="37.6738" x2="21.2641" y2="33.7394" gradientUnits="userSpaceOnUse">
<stop stop-color="#89E159"/>
<stop offset="1" stop-color="#B9F598"/>
</linearGradient>
<linearGradient id="paint19_linear_762_3923" x1="23.821" y1="37.2515" x2="21.8958" y2="33.4489" gradientUnits="userSpaceOnUse">
<stop stop-color="#89E159"/>
<stop offset="1" stop-color="#B9F598"/>
</linearGradient>
</defs>
</svg>
