<svg width="170" height="102" viewBox="0 0 170 102" fill="none" xmlns="http://www.w3.org/2000/svg">
<g style="mix-blend-mode:multiply" filter="url(#filter0_f_537_5546)">
<ellipse cx="83.5904" cy="56.2644" rx="44.3658" ry="30.1775" fill="black" fill-opacity="0.2"/>
</g>
<g filter="url(#filter1_f_537_5546)">
<ellipse cx="85" cy="51.0059" rx="64.5" ry="30.6616" fill="#141B25"/>
</g>
<path d="M62.131 36.487L42.9467 31.2682L59.6108 41.5739L62.131 36.487Z" fill="#1F2431"/>
<path d="M62.131 36.487L42.9467 31.2682L59.6108 41.5739L62.131 36.487Z" fill="url(#paint0_linear_537_5546)"/>
<path d="M62.131 36.487L42.9467 31.2682L59.6108 41.5739L62.131 36.487Z" stroke="#89E159" stroke-width="0.528017"/>
<path d="M59.6861 41.9271L41.2447 30.5292L41.4234 31.7962L59.9253 43.623L59.6861 41.9271Z" fill="#1F2431"/>
<path d="M52.5979 47.9011L26.8087 49.0144L51.1913 54.6095L52.5979 47.9011Z" fill="#1F2431"/>
<path d="M52.5979 47.9011L26.8087 49.0144L51.1913 54.6095L52.5979 47.9011Z" fill="url(#paint1_linear_537_5546)"/>
<path d="M52.5979 47.9011L26.8087 49.0144L51.1913 54.6095L52.5979 47.9011Z" stroke="#89E159" stroke-width="0.528017"/>
<path d="M51.39 54.9297L24.8357 48.835L25.4851 50.1891L51.0786 56.3949L51.39 54.9297Z" fill="#1F2431"/>
<path d="M107.263 36.446L126.379 30.9823L109.848 41.5002L107.263 36.446Z" fill="#1F2431"/>
<path d="M107.263 36.446L126.379 30.9823L109.848 41.5002L107.263 36.446Z" fill="url(#paint2_linear_537_5546)"/>
<path d="M107.263 36.446L126.379 30.9823L109.848 41.5002L107.263 36.446Z" stroke="#89E159" stroke-width="0.528017"/>
<path d="M109.777 41.855L128.071 30.2223L127.908 31.4915L109.559 43.5538L109.777 41.855Z" fill="#1F2431"/>
<path d="M116.684 48.0987L142.336 50.9806L117.626 54.8879L116.684 48.0987Z" fill="#1F2431"/>
<path d="M116.684 48.0987L142.336 50.9806L117.626 54.8879L116.684 48.0987Z" fill="url(#paint3_linear_537_5546)"/>
<path d="M116.684 48.0987L142.336 50.9806L117.626 54.8879L116.684 48.0987Z" stroke="#89E159" stroke-width="0.528017"/>
<path d="M117.406 55.1949L144.316 50.9384L143.575 52.2447L117.616 56.6781L117.406 55.1949Z" fill="#1F2431"/>
<path d="M56.1829 44.6208V41.7979L58.5361 44.1692L56.1829 47.7507V44.6208Z" fill="#1F2431"/>
<path d="M112.171 45.2009L112.213 41.7871L110.041 44.2244L112.171 48.0275V45.2009Z" fill="#1F2431"/>
<path d="M119.637 53.9121V65.8791C119.637 69.0557 117.062 71.6308 113.885 71.6308H54.67C51.4935 71.6308 48.9183 69.0557 48.9183 65.8792L48.9183 53.5034L74.73 57.7325L74.8764 57.7564L74.973 57.6438L77.4316 54.7776H91.4101L93.5631 57.3646L93.6568 57.4772L93.8019 57.4573L119.637 53.9121Z" fill="#1F2431"/>
<path d="M119.637 53.9121V65.8791C119.637 69.0557 117.062 71.6308 113.885 71.6308H54.67C51.4935 71.6308 48.9183 69.0557 48.9183 65.8792L48.9183 53.5034L74.73 57.7325L74.8764 57.7564L74.973 57.6438L77.4316 54.7776H91.4101L93.5631 57.3646L93.6568 57.4772L93.8019 57.4573L119.637 53.9121Z" fill="url(#paint4_linear_537_5546)"/>
<path d="M119.637 53.9121V65.8791C119.637 69.0557 117.062 71.6308 113.885 71.6308H54.67C51.4935 71.6308 48.9183 69.0557 48.9183 65.8792L48.9183 53.5034L74.73 57.7325L74.8764 57.7564L74.973 57.6438L77.4316 54.7776H91.4101L93.5631 57.3646L93.6568 57.4772L93.8019 57.4573L119.637 53.9121Z" stroke="#89E159" stroke-width="0.528017"/>
<path d="M49.9174 50.2821L52.3537 47.2103L55.5681 46.611C56.0529 46.5206 56.4894 46.26 56.799 45.8762L57.3347 45.2121C57.9926 44.3965 57.9368 43.2177 57.2046 42.468L56.5345 41.7817L60.9424 36.7506C61.8061 35.7649 63.053 35.1996 64.3636 35.1996H79.0738L80.1417 36.4686C80.4205 36.7999 80.8313 36.9911 81.2643 36.9911H86.3202C86.7597 36.9911 87.1761 36.7941 87.4547 36.4542L88.4835 35.1996H104.484C105.877 35.1996 107.194 35.838 108.056 36.9321L111.881 41.7844L111.192 42.5877C110.57 43.3133 110.526 44.3707 111.086 45.1456L111.589 45.8423C111.898 46.2708 112.36 46.5645 112.879 46.6634L115.967 47.2513L118.414 50.1343C121.586 53.8708 118.93 59.6079 114.029 59.6079H54.4238C49.6123 59.6079 46.9275 54.052 49.9174 50.2821Z" fill="#1F2431"/>
<path d="M49.9174 50.2821L52.3537 47.2103L55.5681 46.611C56.0529 46.5206 56.4894 46.26 56.799 45.8762L57.3347 45.2121C57.9926 44.3965 57.9368 43.2177 57.2046 42.468L56.5345 41.7817L60.9424 36.7506C61.8061 35.7649 63.053 35.1996 64.3636 35.1996H79.0738L80.1417 36.4686C80.4205 36.7999 80.8313 36.9911 81.2643 36.9911H86.3202C86.7597 36.9911 87.1761 36.7941 87.4547 36.4542L88.4835 35.1996H104.484C105.877 35.1996 107.194 35.838 108.056 36.9321L111.881 41.7844L111.192 42.5877C110.57 43.3133 110.526 44.3707 111.086 45.1456L111.589 45.8423C111.898 46.2708 112.36 46.5645 112.879 46.6634L115.967 47.2513L118.414 50.1343C121.586 53.8708 118.93 59.6079 114.029 59.6079H54.4238C49.6123 59.6079 46.9275 54.052 49.9174 50.2821Z" fill="url(#paint5_linear_537_5546)"/>
<path d="M49.9174 50.2821L52.3537 47.2103L55.5681 46.611C56.0529 46.5206 56.4894 46.26 56.799 45.8762L57.3347 45.2121C57.9926 44.3965 57.9368 43.2177 57.2046 42.468L56.5345 41.7817L60.9424 36.7506C61.8061 35.7649 63.053 35.1996 64.3636 35.1996H79.0738L80.1417 36.4686C80.4205 36.7999 80.8313 36.9911 81.2643 36.9911H86.3202C86.7597 36.9911 87.1761 36.7941 87.4547 36.4542L88.4835 35.1996H104.484C105.877 35.1996 107.194 35.838 108.056 36.9321L111.881 41.7844L111.192 42.5877C110.57 43.3133 110.526 44.3707 111.086 45.1456L111.589 45.8423C111.898 46.2708 112.36 46.5645 112.879 46.6634L115.967 47.2513L118.414 50.1343C121.586 53.8708 118.93 59.6079 114.029 59.6079H54.4238C49.6123 59.6079 46.9275 54.052 49.9174 50.2821Z" stroke="#89E159" stroke-width="0.528017"/>
<path d="M49.9131 50.2831L52.3449 47.2156L55.5578 46.6206C56.1039 46.5194 56.5863 46.203 56.8967 45.7425L57.4226 44.9622C57.958 44.1677 57.8778 43.1095 57.2289 42.4048L56.6089 41.7315L60.9422 36.7596C61.806 35.7684 63.0565 35.1996 64.3712 35.1996H79.0738L80.1417 36.4686C80.4205 36.7999 80.8313 36.9911 81.2643 36.9911H86.3202C86.7597 36.9911 87.1761 36.7941 87.4547 36.4542L88.4835 35.1996H104.482C105.876 35.1996 107.194 35.8393 108.056 36.9352L111.871 41.7832L111.226 42.6095C110.697 43.2866 110.642 44.2203 111.087 44.9552L111.313 44.8184L111.087 44.9552L111.577 45.7631C111.892 46.2829 112.419 46.6379 113.019 46.7337L115.862 47.1877L118.366 50.1241C121.55 53.858 118.897 59.6079 113.99 59.6079H54.4203C49.6093 59.6079 46.9244 54.0532 49.9131 50.2831Z" stroke="#89E159" stroke-width="0.528017"/>
<path d="M76.5391 56.1907C76.8767 55.707 77.4293 55.4188 78.0191 55.4188H91.0786C91.6868 55.4188 92.2541 55.7252 92.5877 56.2338L94.7511 59.5324V69.9178H74.207V59.5324L76.5391 56.1907Z" fill="#1F2431"/>
<path fill-rule="evenodd" clip-rule="evenodd" d="M77.1787 66.4938L74.2674 69.9962L74.0361 69.8039L76.9272 66.3259V55.7675H77.228V66.193H91.9664V55.9147H92.2672V66.2599L94.8727 69.8111L94.6301 69.989L92.0658 66.4938H77.1787Z" fill="#141B25"/>
<path d="M76.7556 56.3418C77.0438 55.9289 77.5155 55.6828 78.0191 55.6828H91.0786C91.5978 55.6828 92.0821 55.9444 92.3669 56.3786L94.4871 59.6112V69.6538H74.471V59.6154L76.7556 56.3418Z" stroke="#89E159" stroke-width="0.528017"/>
<circle cx="84.2771" cy="61.2078" r="4.45293" fill="#212121"/>
<circle cx="84.2773" cy="61.2079" r="2.79971" fill="#F68561"/>
<g filter="url(#filter2_d_537_5546)">
<circle cx="84.2773" cy="61.2079" r="2.79971" fill="#F68561"/>
</g>
<path d="M86.7011 51.7977H86.7803L86.8464 51.7541L88.8357 50.4437H108.961V54.6249H59.9242V50.4437H79.4487L81.3408 51.7509L81.4085 51.7977H81.4908H86.7011Z" fill="url(#paint6_linear_537_5546)" stroke="#89E159" stroke-width="0.528017"/>
<path d="M80.6941 37.2052L80.7733 37.3024H80.8988H83.8391H86.8254H86.9624L87.0413 37.1903L88.4416 35.1996H97.5906L100.388 38.9072L108.695 49.9154H88.7566H79.3398H60.1794L68.2092 38.9037L70.9103 35.1996H79.0595L80.6941 37.2052Z" fill="url(#paint7_linear_537_5546)" stroke="#89E159" stroke-width="0.528017"/>
<path d="M79.7063 34.1426H88.7885L91.375 43.4011L86.6429 48.0157H81.6168L76.9141 43.4011L79.7063 34.1426Z" fill="#89E159"/>
<path d="M83.3484 38.2695H84.9413L86.7843 47.982H81.3701L83.3484 38.2695Z" fill="#1F2431"/>
<path d="M83.3484 38.2695H84.9413L86.7843 47.982H81.3701L83.3484 38.2695Z" fill="url(#paint8_linear_537_5546)"/>
<path d="M93.8999 38.7494V36.6584L92.8906 38.7852L93.8999 39.122V38.7494Z" fill="#141B25"/>
<path d="M73.9452 38.7494V36.6584L75.0869 38.7494L73.9452 39.25L73.9452 38.7494Z" fill="#141B25"/>
<path d="M79.7388 41.5447H79.5644L79.496 41.7051L76.8344 47.9423H67.388L72.0071 40.3614L73.965 39.5207C74.767 39.1763 75.0928 38.2121 74.6641 37.4519L74.2425 36.7044L75.2342 35.2113H79.1018L80.3583 36.5101C80.6347 36.7958 81.0152 36.9571 81.4128 36.9571H86.3429C86.7846 36.9571 87.2029 36.758 87.4815 36.4152L88.4599 35.2113H92.5221L93.61 36.7359L93.2933 37.659C93.0533 38.3588 93.3719 39.1279 94.0365 39.453L96.0422 40.4341L100.953 47.9423H91.5135L89.0242 41.7108L88.9579 41.5447H88.779H79.7388Z" fill="#1F2431"/>
<path d="M79.7388 41.5447H79.5644L79.496 41.7051L76.8344 47.9423H67.388L72.0071 40.3614L73.965 39.5207C74.767 39.1763 75.0928 38.2121 74.6641 37.4519L74.2425 36.7044L75.2342 35.2113H79.1018L80.3583 36.5101C80.6347 36.7958 81.0152 36.9571 81.4128 36.9571H86.3429C86.7846 36.9571 87.2029 36.758 87.4815 36.4152L88.4599 35.2113H92.5221L93.61 36.7359L93.2933 37.659C93.0533 38.3588 93.3719 39.1279 94.0365 39.453L96.0422 40.4341L100.953 47.9423H91.5135L89.0242 41.7108L88.9579 41.5447H88.779H79.7388Z" fill="url(#paint9_linear_537_5546)"/>
<path d="M79.7388 41.5447H79.5644L79.496 41.7051L76.8344 47.9423H67.388L72.0071 40.3614L73.965 39.5207C74.767 39.1763 75.0928 38.2121 74.6641 37.4519L74.2425 36.7044L75.2342 35.2113H79.1018L80.3583 36.5101C80.6347 36.7958 81.0152 36.9571 81.4128 36.9571H86.3429C86.7846 36.9571 87.2029 36.758 87.4815 36.4152L88.4599 35.2113H92.5221L93.61 36.7359L93.2933 37.659C93.0533 38.3588 93.3719 39.1279 94.0365 39.453L96.0422 40.4341L100.953 47.9423H91.5135L89.0242 41.7108L88.9579 41.5447H88.779H79.7388Z" stroke="#89E159" stroke-width="0.528017"/>
<path d="M67.0006 54.6511L62.438 51.5367L67.0006 48.4224L76.7362 48.4224L81.2987 51.5367L76.7362 54.6511L67.0006 54.6511Z" fill="#1F2431"/>
<path d="M67.0006 54.6511L62.438 51.5367L67.0006 48.4224L76.7362 48.4224L81.2987 51.5367L76.7362 54.6511L67.0006 54.6511Z" fill="#1E4E4E" fill-opacity="0.6"/>
<path d="M67.0006 54.6511L62.438 51.5367L67.0006 48.4224L76.7362 48.4224L81.2987 51.5367L76.7362 54.6511L67.0006 54.6511Z" stroke="#89E159" stroke-width="0.528017"/>
<path d="M91.3638 54.6606L86.8013 51.5463L91.3638 48.4319L101.099 48.4319L105.662 51.5463L101.099 54.6606L91.3638 54.6606Z" fill="#1F2431"/>
<path d="M91.3638 54.6606L86.8013 51.5463L91.3638 48.4319L101.099 48.4319L105.662 51.5463L101.099 54.6606L91.3638 54.6606Z" fill="#1E4E4E" fill-opacity="0.6"/>
<path d="M91.3638 54.6606L86.8013 51.5463L91.3638 48.4319L101.099 48.4319L105.662 51.5463L101.099 54.6606L91.3638 54.6606Z" stroke="#89E159" stroke-width="0.528017"/>
<circle cx="72.0321" cy="51.6356" r="2.44911" fill="#141B25"/>
<circle cx="96.5233" cy="51.6357" r="2.44911" fill="#141B25"/>
<g filter="url(#filter3_d_537_5546)">
<circle cx="72.0321" cy="51.6357" r="2.00382" fill="#89E159"/>
</g>
<g filter="url(#filter4_d_537_5546)">
<circle cx="96.5233" cy="51.6357" r="2.00382" fill="#89E159"/>
</g>
<g style="mix-blend-mode:multiply" filter="url(#filter5_f_537_5546)">
<ellipse cx="83.5899" cy="39.2207" rx="4.21099" ry="1.9551" fill="black" fill-opacity="0.6"/>
</g>
<path d="M84.3858 18.8192L81.7061 40.2569L80.3662 38.6491L84.3858 18.8192Z" fill="#1F2431"/>
<path d="M84.3858 18.8192L81.7061 40.2569L80.3662 38.6491L84.3858 18.8192Z" fill="url(#paint10_linear_537_5546)"/>
<path d="M84.3856 18.5518L87.1704 40.2575H81.6007L84.3856 18.5518Z" fill="#1F2431"/>
<path d="M84.3856 18.5518L87.1704 40.2575H81.6007L84.3856 18.5518Z" fill="url(#paint11_linear_537_5546)"/>
<g opacity="0.8" filter="url(#filter6_d_537_5546)">
<circle cx="84.2947" cy="19.531" r="1.51635" fill="#F68561"/>
</g>
<path d="M86.5037 52.748C86.5037 53.4858 85.5069 54.0839 84.2772 54.0839C83.0476 54.0839 82.0508 53.4858 82.0508 52.748" stroke="#1F2431" stroke-width="0.528017" stroke-linecap="round"/>
<rect x="139.831" y="47.9854" width="2.34148" height="2.98757" fill="#1E4E4E"/>
<ellipse cx="141.002" cy="47.9857" rx="1.17074" ry="0.506227" fill="#1E4E4E"/>
<ellipse cx="141.002" cy="50.9529" rx="1.17074" ry="0.254608" fill="#1E4E4E"/>
<rect x="124.39" y="29.2098" width="1.76395" height="2.25068" transform="rotate(-13.5907 124.39 29.2098)" fill="#1E4E4E"/>
<ellipse cx="125.247" cy="29.0023" rx="0.881974" ry="0.381364" transform="rotate(-13.5907 125.247 29.0023)" fill="#1E4E4E"/>
<ellipse cx="125.771" cy="31.1745" rx="0.881974" ry="0.191808" transform="rotate(-13.5907 125.771 31.1745)" fill="#1E4E4E"/>
<rect width="1.76395" height="2.25068" transform="matrix(-0.95961 -0.281334 -0.281334 0.95961 45.2715 29.7371)" fill="#1E4E4E"/>
<ellipse cx="0.881974" cy="0.381364" rx="0.881974" ry="0.381364" transform="matrix(-0.95961 -0.281334 -0.281334 0.95961 45.3789 29.3711)" fill="#1E4E4E"/>
<ellipse cx="0.881974" cy="0.191808" rx="0.881974" ry="0.191808" transform="matrix(-0.95961 -0.281334 -0.281334 0.95961 44.6973 31.6974)" fill="#1E4E4E"/>
<rect x="27.6953" y="46.1101" width="2.34148" height="2.98757" transform="rotate(6.62361 27.6953 46.1101)" fill="#1E4E4E"/>
<ellipse cx="28.8584" cy="46.2453" rx="1.17074" ry="0.506227" transform="rotate(6.62361 28.8584 46.2453)" fill="#1E4E4E"/>
<ellipse cx="28.5164" cy="49.1917" rx="1.17074" ry="0.254608" transform="rotate(6.62361 28.5164 49.1917)" fill="#1E4E4E"/>
<path d="M141.007 47.7327L154.609 50.2023L154.686 50.8335L153.838 56.1508L140.977 48.1277L141.007 47.7327Z" fill="#224141"/>
<path d="M141 47.7302L154.629 50.241L153.788 55.4295L141 47.7302Z" fill="url(#paint12_linear_537_5546)"/>
<path d="M141.006 47.7325L129.434 39.9507L126.857 43.009L126.805 43.698L140.976 48.1271L141.006 47.7325Z" fill="#224141"/>
<path d="M141.011 47.7363L129.457 39.8951L126.849 43.0197L141.011 47.7363Z" fill="url(#paint13_linear_537_5546)"/>
<path d="M162.7 48.4506C162.7 49.2591 162.141 50.0816 161.004 50.8727C159.873 51.6587 158.221 52.3767 156.157 52.9837C152.033 54.1968 146.32 54.9506 140 54.9506C133.679 54.9506 127.967 54.1968 123.842 52.9837C121.778 52.3767 120.126 51.6587 118.996 50.8727C117.858 50.0816 117.3 49.2591 117.3 48.4506C117.3 47.6421 117.858 46.8196 118.996 46.0284C120.126 45.2424 121.778 44.5244 123.842 43.9174C127.967 42.7044 133.679 41.9506 140 41.9506C146.32 41.9506 152.033 42.7044 156.157 43.9174C158.221 44.5244 159.873 45.2424 161.004 46.0284C162.141 46.8196 162.7 47.6421 162.7 48.4506Z" stroke="#10B4E8" stroke-width="0.5"/>
<path d="M166.75 49.1251C166.75 50.4259 166.048 51.6951 164.712 52.8792C163.377 54.063 161.431 55.1405 159.004 56.0505C154.153 57.8698 147.434 59.0001 140 59.0001C132.566 59.0001 125.847 57.8698 120.996 56.0505C118.569 55.1405 116.623 54.063 115.288 52.8792C113.952 51.6951 113.25 50.4259 113.25 49.1251C113.25 47.8243 113.952 46.5552 115.288 45.3711C116.623 44.1873 118.569 43.1097 120.996 42.1997C125.847 40.3805 132.566 39.2501 140 39.2501C147.434 39.2501 154.153 40.3805 159.004 42.1997C161.431 43.1097 163.377 44.1873 164.712 45.3711C166.048 46.5552 166.75 47.8243 166.75 49.1251Z" stroke="#10B4E8" stroke-width="0.5"/>
<path d="M50.6998 48.4501C50.6998 49.2586 50.1413 50.0811 49.0036 50.8722C47.8732 51.6582 46.2212 52.3762 44.1574 52.9832C40.0329 54.1963 34.3203 54.9501 27.9998 54.9501C21.6793 54.9501 15.9667 54.1963 11.8422 52.9832C9.7784 52.3762 8.12642 51.6582 6.99606 50.8722C5.85833 50.0811 5.2998 49.2586 5.2998 48.4501C5.2998 47.6416 5.85833 46.8191 6.99606 46.0279C8.12642 45.2419 9.7784 44.524 11.8422 43.9169C15.9667 42.7039 21.6793 41.9501 27.9998 41.9501C34.3203 41.9501 40.0329 42.7039 44.1574 43.9169C46.2212 44.524 47.8732 45.2419 49.0036 46.0279C50.1413 46.8191 50.6998 47.6416 50.6998 48.4501Z" stroke="#10B4E8" stroke-width="0.5"/>
<path d="M54.75 49.1246C54.75 50.4254 54.0479 51.6946 52.7124 52.8787C51.3771 54.0625 49.4307 55.14 47.0041 56.05C42.1527 57.8693 35.4338 58.9996 28 58.9996C20.5662 58.9996 13.8473 57.8693 8.9959 56.05C6.56928 55.14 4.62289 54.0625 3.28765 52.8787C1.95211 51.6946 1.25 50.4254 1.25 49.1246C1.25 47.8238 1.95211 46.5547 3.28765 45.3706C4.62289 44.1868 6.56928 43.1092 8.9959 42.1993C13.8473 40.38 20.5662 39.2496 28 39.2496C35.4338 39.2496 42.1527 40.38 47.0041 42.1993C49.4307 43.1092 51.3771 44.1868 52.7124 45.3706C54.0479 46.5547 54.75 47.8238 54.75 49.1246Z" stroke="#10B4E8" stroke-width="0.5"/>
<path d="M125.207 28.8161L135.604 28.2166L135.772 28.6651L136.092 32.7089L125.255 29.1106L125.207 28.8161Z" fill="#224141"/>
<path d="M125.201 28.816L135.625 28.2419L135.928 32.19L125.201 28.816Z" fill="url(#paint14_linear_537_5546)"/>
<path d="M125.207 28.8156L115.357 25.1659L114.011 27.8617L114.095 28.3754L125.256 29.1099L125.207 28.8156Z" fill="#224141"/>
<path d="M125.212 28.8168L115.364 25.1204L114.007 27.8701L125.212 28.8168Z" fill="url(#paint15_linear_537_5546)"/>
<path d="M44.4742 29.3045L34.1177 28.207L33.9278 28.6469L33.4144 32.6707L44.4121 29.5963L44.4742 29.3045Z" fill="#224141"/>
<path d="M44.4793 29.3048L34.0948 28.2314L33.6029 32.1605L44.4793 29.3048Z" fill="url(#paint16_linear_537_5546)"/>
<path d="M44.4745 29.3056L54.4891 26.1326L55.7043 28.8898L55.5957 29.3989L44.4124 29.5972L44.4745 29.3056Z" fill="#224141"/>
<path d="M44.4695 29.3063L54.4837 26.0865L55.7071 28.8981L44.4695 29.3063Z" fill="url(#paint17_linear_537_5546)"/>
<path d="M28.6934 46.1778L15.0915 48.6474L15.0139 49.2786L15.8625 54.5958L28.7232 46.5727L28.6934 46.1778Z" fill="#224141"/>
<path d="M28.7001 46.1765L15.0715 48.6873L15.9123 53.8758L28.7001 46.1765Z" fill="url(#paint18_linear_537_5546)"/>
<path d="M28.6954 46.1785L40.267 38.3967L42.8446 41.4551L42.8964 42.1441L28.7252 46.5731L28.6954 46.1785Z" fill="#224141"/>
<path d="M28.69 46.1823L40.2437 38.3411L42.852 41.4657L28.69 46.1823Z" fill="url(#paint19_linear_537_5546)"/>
<path d="M61.75 29C61.75 29.5669 61.358 30.1592 60.5213 30.741C59.692 31.3176 58.4758 31.847 56.9503 32.2957C53.9026 33.1921 49.6775 33.75 45 33.75C40.3225 33.75 36.0974 33.1921 33.0497 32.2957C31.5242 31.847 30.308 31.3176 29.4787 30.741C28.642 30.1592 28.25 29.5669 28.25 29C28.25 28.4331 28.642 27.8408 29.4787 27.259C30.308 26.6824 31.5242 26.153 33.0497 25.7043C36.0974 24.8079 40.3225 24.25 45 24.25C49.6775 24.25 53.9026 24.8079 56.9503 25.7043C58.4758 26.153 59.692 26.6824 60.5213 27.259C61.358 27.8408 61.75 28.4331 61.75 29Z" stroke="#10B4E8" stroke-width="0.5"/>
<path d="M64.75 29.5C64.75 30.4384 64.2438 31.3622 63.2624 32.2323C62.2814 33.102 60.8476 33.8968 59.0544 34.5692C55.4697 35.9135 50.5008 36.75 45 36.75C39.4992 36.75 34.5303 35.9135 30.9456 34.5692C29.1524 33.8968 27.7186 33.102 26.7376 32.2323C25.7562 31.3622 25.25 30.4384 25.25 29.5C25.25 28.5616 25.7562 27.6378 26.7376 26.7677C27.7186 25.898 29.1524 25.1032 30.9456 24.4308C34.5303 23.0865 39.4992 22.25 45 22.25C50.5008 22.25 55.4697 23.0865 59.0544 24.4308C60.8476 25.1032 62.2814 25.898 63.2624 26.7677C64.2438 27.6378 64.75 28.5616 64.75 29.5Z" stroke="#10B4E8" stroke-width="0.5"/>
<path d="M142.75 28C142.75 28.5669 142.358 29.1592 141.521 29.741C140.692 30.3176 139.476 30.847 137.95 31.2957C134.903 32.1921 130.677 32.75 126 32.75C121.323 32.75 117.097 32.1921 114.05 31.2957C112.524 30.847 111.308 30.3176 110.479 29.741C109.642 29.1592 109.25 28.5669 109.25 28C109.25 27.4331 109.642 26.8408 110.479 26.259C111.308 25.6824 112.524 25.153 114.05 24.7043C117.097 23.8079 121.323 23.25 126 23.25C130.677 23.25 134.903 23.8079 137.95 24.7043C139.476 25.153 140.692 25.6824 141.521 26.259C142.358 26.8408 142.75 27.4331 142.75 28Z" stroke="#10B4E8" stroke-width="0.5"/>
<path d="M145.75 28.5C145.75 29.4384 145.244 30.3622 144.262 31.2323C143.281 32.102 141.848 32.8968 140.054 33.5692C136.47 34.9135 131.501 35.75 126 35.75C120.499 35.75 115.53 34.9135 111.946 33.5692C110.152 32.8968 108.719 32.102 107.738 31.2323C106.756 30.3622 106.25 29.4384 106.25 28.5C106.25 27.5616 106.756 26.6378 107.738 25.7677C108.719 24.898 110.152 24.1032 111.946 23.4308C115.53 22.0865 120.499 21.25 126 21.25C131.501 21.25 136.47 22.0865 140.054 23.4308C141.848 24.1032 143.281 24.898 144.262 25.7677C145.244 26.6378 145.75 27.5616 145.75 28.5Z" stroke="#10B4E8" stroke-width="0.5"/>
<defs>
<filter id="filter0_f_537_5546" x="33.8105" y="20.6728" width="99.5597" height="71.1833" filterUnits="userSpaceOnUse" color-interpolation-filters="sRGB">
<feFlood flood-opacity="0" result="BackgroundImageFix"/>
<feBlend mode="normal" in="SourceGraphic" in2="BackgroundImageFix" result="shape"/>
<feGaussianBlur stdDeviation="2.70707" result="effect1_foregroundBlur_537_5546"/>
</filter>
<filter id="filter1_f_537_5546" x="0.5" y="0.344238" width="169" height="101.323" filterUnits="userSpaceOnUse" color-interpolation-filters="sRGB">
<feFlood flood-opacity="0" result="BackgroundImageFix"/>
<feBlend mode="normal" in="SourceGraphic" in2="BackgroundImageFix" result="shape"/>
<feGaussianBlur stdDeviation="10" result="effect1_foregroundBlur_537_5546"/>
</filter>
<filter id="filter2_d_537_5546" x="77.8681" y="54.7988" width="12.8185" height="12.8183" filterUnits="userSpaceOnUse" color-interpolation-filters="sRGB">
<feFlood flood-opacity="0" result="BackgroundImageFix"/>
<feColorMatrix in="SourceAlpha" type="matrix" values="0 0 0 0 0 0 0 0 0 0 0 0 0 0 0 0 0 0 127 0" result="hardAlpha"/>
<feMorphology radius="1.20314" operator="dilate" in="SourceAlpha" result="effect1_dropShadow_537_5546"/>
<feOffset/>
<feGaussianBlur stdDeviation="1.20314"/>
<feComposite in2="hardAlpha" operator="out"/>
<feColorMatrix type="matrix" values="0 0 0 0 0.964706 0 0 0 0 0.521569 0 0 0 0 0.380392 0 0 0 0.8 0"/>
<feBlend mode="normal" in2="BackgroundImageFix" result="effect1_dropShadow_537_5546"/>
<feBlend mode="normal" in="SourceGraphic" in2="effect1_dropShadow_537_5546" result="shape"/>
</filter>
<filter id="filter3_d_537_5546" x="67.1767" y="46.7803" width="9.71096" height="9.71078" filterUnits="userSpaceOnUse" color-interpolation-filters="sRGB">
<feFlood flood-opacity="0" result="BackgroundImageFix"/>
<feColorMatrix in="SourceAlpha" type="matrix" values="0 0 0 0 0 0 0 0 0 0 0 0 0 0 0 0 0 0 127 0" result="hardAlpha"/>
<feMorphology radius="0.445293" operator="dilate" in="SourceAlpha" result="effect1_dropShadow_537_5546"/>
<feOffset/>
<feGaussianBlur stdDeviation="1.20314"/>
<feComposite in2="hardAlpha" operator="out"/>
<feColorMatrix type="matrix" values="0 0 0 0 0.537255 0 0 0 0 0.882353 0 0 0 0 0.34902 0 0 0 1 0"/>
<feBlend mode="normal" in2="BackgroundImageFix" result="effect1_dropShadow_537_5546"/>
<feBlend mode="normal" in="SourceGraphic" in2="effect1_dropShadow_537_5546" result="shape"/>
</filter>
<filter id="filter4_d_537_5546" x="91.668" y="46.7803" width="9.71096" height="9.71078" filterUnits="userSpaceOnUse" color-interpolation-filters="sRGB">
<feFlood flood-opacity="0" result="BackgroundImageFix"/>
<feColorMatrix in="SourceAlpha" type="matrix" values="0 0 0 0 0 0 0 0 0 0 0 0 0 0 0 0 0 0 127 0" result="hardAlpha"/>
<feMorphology radius="0.445293" operator="dilate" in="SourceAlpha" result="effect1_dropShadow_537_5546"/>
<feOffset/>
<feGaussianBlur stdDeviation="1.20314"/>
<feComposite in2="hardAlpha" operator="out"/>
<feColorMatrix type="matrix" values="0 0 0 0 0.537255 0 0 0 0 0.882353 0 0 0 0 0.34902 0 0 0 1 0"/>
<feBlend mode="normal" in2="BackgroundImageFix" result="effect1_dropShadow_537_5546"/>
<feBlend mode="normal" in="SourceGraphic" in2="effect1_dropShadow_537_5546" result="shape"/>
</filter>
<filter id="filter5_f_537_5546" x="73.9648" y="31.8515" width="19.2501" height="14.7385" filterUnits="userSpaceOnUse" color-interpolation-filters="sRGB">
<feFlood flood-opacity="0" result="BackgroundImageFix"/>
<feBlend mode="normal" in="SourceGraphic" in2="BackgroundImageFix" result="shape"/>
<feGaussianBlur stdDeviation="2.70707" result="effect1_foregroundBlur_537_5546"/>
</filter>
<filter id="filter6_d_537_5546" x="79.1689" y="14.4052" width="10.2511" height="10.2516" filterUnits="userSpaceOnUse" color-interpolation-filters="sRGB">
<feFlood flood-opacity="0" result="BackgroundImageFix"/>
<feColorMatrix in="SourceAlpha" type="matrix" values="0 0 0 0 0 0 0 0 0 0 0 0 0 0 0 0 0 0 127 0" result="hardAlpha"/>
<feMorphology radius="1.20314" operator="dilate" in="SourceAlpha" result="effect1_dropShadow_537_5546"/>
<feOffset/>
<feGaussianBlur stdDeviation="1.20314"/>
<feComposite in2="hardAlpha" operator="out"/>
<feColorMatrix type="matrix" values="0 0 0 0 0.964706 0 0 0 0 0.521569 0 0 0 0 0.380392 0 0 0 0.5 0"/>
<feBlend mode="normal" in2="BackgroundImageFix" result="effect1_dropShadow_537_5546"/>
<feBlend mode="normal" in="SourceGraphic" in2="effect1_dropShadow_537_5546" result="shape"/>
</filter>
<linearGradient id="paint0_linear_537_5546" x1="60.441" y1="40.4882" x2="61.3674" y2="34.8035" gradientUnits="userSpaceOnUse">
<stop stop-color="#1E4E4E"/>
<stop offset="1" stop-color="#1F2431"/>
</linearGradient>
<linearGradient id="paint1_linear_537_5546" x1="51.7967" y1="53.0317" x2="50.869" y2="46.3664" gradientUnits="userSpaceOnUse">
<stop stop-color="#1E4E4E"/>
<stop offset="1" stop-color="#1F2431"/>
</linearGradient>
<linearGradient id="paint2_linear_537_5546" x1="109.004" y1="40.4252" x2="108.005" y2="34.7529" gradientUnits="userSpaceOnUse">
<stop stop-color="#1E4E4E"/>
<stop offset="1" stop-color="#1F2431"/>
</linearGradient>
<linearGradient id="paint3_linear_537_5546" x1="117.131" y1="53.2722" x2="118.514" y2="46.6864" gradientUnits="userSpaceOnUse">
<stop stop-color="#1E4E4E"/>
<stop offset="1" stop-color="#1F2431"/>
</linearGradient>
<linearGradient id="paint4_linear_537_5546" x1="83.6036" y1="58.1271" x2="84.1815" y2="71.8993" gradientUnits="userSpaceOnUse">
<stop stop-color="#1E4E4E"/>
<stop offset="1" stop-color="#1F2431"/>
</linearGradient>
<linearGradient id="paint5_linear_537_5546" x1="85.3732" y1="60.0126" x2="85.4654" y2="34.9352" gradientUnits="userSpaceOnUse">
<stop stop-color="#1E4E4E"/>
<stop offset="1" stop-color="#1F2431"/>
</linearGradient>
<linearGradient id="paint6_linear_537_5546" x1="83.7841" y1="54.8889" x2="83.8245" y2="50.1793" gradientUnits="userSpaceOnUse">
<stop stop-color="#89E159"/>
<stop offset="1" stop-color="#B9F598"/>
</linearGradient>
<linearGradient id="paint7_linear_537_5546" x1="83.3545" y1="34.9355" x2="83.1387" y2="49.2782" gradientUnits="userSpaceOnUse">
<stop stop-color="#89E159"/>
<stop offset="1" stop-color="#B9F598"/>
</linearGradient>
<linearGradient id="paint8_linear_537_5546" x1="84.1575" y1="48.2793" x2="84.155" y2="38.2695" gradientUnits="userSpaceOnUse">
<stop stop-color="#1E4E4E"/>
<stop offset="1" stop-color="#1F2431"/>
</linearGradient>
<linearGradient id="paint9_linear_537_5546" x1="84.1793" y1="48.2063" x2="82.3049" y2="35.0573" gradientUnits="userSpaceOnUse">
<stop stop-color="#1E4E4E"/>
<stop offset="1" stop-color="#1F2431"/>
</linearGradient>
<linearGradient id="paint10_linear_537_5546" x1="82.0284" y1="37.081" x2="82.5166" y2="19.0214" gradientUnits="userSpaceOnUse">
<stop stop-color="#1F2431"/>
<stop offset="1" stop-color="#1E4E4E"/>
</linearGradient>
<linearGradient id="paint11_linear_537_5546" x1="83.8294" y1="43.2052" x2="84.3856" y2="18.8197" gradientUnits="userSpaceOnUse">
<stop stop-color="#1F2431"/>
<stop offset="1" stop-color="#1E4E4E"/>
</linearGradient>
<linearGradient id="paint12_linear_537_5546" x1="140.604" y1="50.1766" x2="142.737" y2="45.0557" gradientUnits="userSpaceOnUse">
<stop stop-color="#89E159"/>
<stop offset="1" stop-color="#B9F598"/>
</linearGradient>
<linearGradient id="paint13_linear_537_5546" x1="139.409" y1="49.6273" x2="141.915" y2="44.6779" gradientUnits="userSpaceOnUse">
<stop stop-color="#89E159"/>
<stop offset="1" stop-color="#B9F598"/>
</linearGradient>
<linearGradient id="paint14_linear_537_5546" x1="125.344" y1="30.6776" x2="126" y2="26.5501" gradientUnits="userSpaceOnUse">
<stop stop-color="#89E159"/>
<stop offset="1" stop-color="#B9F598"/>
</linearGradient>
<linearGradient id="paint15_linear_537_5546" x1="124.374" y1="30.485" x2="125.333" y2="26.4172" gradientUnits="userSpaceOnUse">
<stop stop-color="#89E159"/>
<stop offset="1" stop-color="#B9F598"/>
</linearGradient>
<linearGradient id="paint16_linear_537_5546" x1="44.2474" y1="31.1574" x2="43.7903" y2="27.0032" gradientUnits="userSpaceOnUse">
<stop stop-color="#89E159"/>
<stop offset="1" stop-color="#B9F598"/>
</linearGradient>
<linearGradient id="paint17_linear_537_5546" x1="45.2266" y1="31.0128" x2="44.4641" y2="26.9037" gradientUnits="userSpaceOnUse">
<stop stop-color="#89E159"/>
<stop offset="1" stop-color="#B9F598"/>
</linearGradient>
<linearGradient id="paint18_linear_537_5546" x1="29.0966" y1="48.6229" x2="26.9629" y2="43.502" gradientUnits="userSpaceOnUse">
<stop stop-color="#89E159"/>
<stop offset="1" stop-color="#B9F598"/>
</linearGradient>
<linearGradient id="paint19_linear_537_5546" x1="30.2917" y1="48.0733" x2="27.7859" y2="43.1239" gradientUnits="userSpaceOnUse">
<stop stop-color="#89E159"/>
<stop offset="1" stop-color="#B9F598"/>
</linearGradient>
</defs>
</svg>
