<svg width="92" height="126" viewBox="0 0 92 126" fill="none" xmlns="http://www.w3.org/2000/svg">
<path d="M61.1929 116.892C61.1929 118.216 59.9659 119.741 57.2094 120.994C54.5433 122.205 50.7899 122.98 46.5906 122.98C42.3912 122.98 38.6378 122.205 35.9717 120.994C33.2152 119.741 31.9883 118.216 31.9883 116.892C31.9883 115.568 33.2152 114.042 35.9717 112.79C38.6378 111.579 42.3912 110.803 46.5906 110.803C50.7899 110.803 54.5433 111.579 57.2094 112.79C59.9659 114.042 61.1929 115.568 61.1929 116.892Z" fill="#D9D9D9" stroke="#89E159" stroke-width="2"/>
<path d="M75.3772 48.8438C75.3772 49.7969 74.8274 50.847 73.5106 51.9361C72.2002 53.0199 70.2438 54.0407 67.7383 54.9172C62.7364 56.6671 55.7612 57.7679 48.0094 57.7679C40.2576 57.7679 33.2824 56.6671 28.2806 54.9172C25.775 54.0407 23.8186 53.0199 22.5082 51.9361C21.1914 50.847 20.6416 49.7969 20.6416 48.8438C20.6416 47.8907 21.1914 46.8406 22.5082 45.7514C23.8186 44.6676 25.775 43.6468 28.2806 42.7703C33.2824 41.0204 40.2576 39.9197 48.0094 39.9197C55.7612 39.9197 62.7364 41.0204 67.7383 42.7703C70.2438 43.6468 72.2002 44.6676 73.5106 45.7514C74.8274 46.8406 75.3772 47.8907 75.3772 48.8438Z" fill="#141B25" stroke="#1E4E4E" stroke-width="2"/>
<path d="M19.9852 50.0013C24.1014 63.2504 35.5674 90.4373 46.5877 97.0464C56.5164 89.0127 75.2392 65.8735 76.3739 48.8608C73.5371 54.5317 65.0271 58.7844 48.0065 58.7844C34.5805 58.7844 22.9196 52.6096 19.9852 50.0013Z" fill="#1F2431"/>
<path d="M19.9852 50.0013C24.1014 63.2504 35.5674 90.4373 46.5877 97.0464C56.5164 89.0127 75.2392 65.8735 76.3739 48.8608C73.5371 54.5317 65.0271 58.7844 48.0065 58.7844C34.5805 58.7844 22.9196 52.6096 19.9852 50.0013Z" fill="url(#paint0_linear_522_10732)"/>
<path d="M46.5877 97.0464C41.8597 101.772 30.9858 110.957 30.9858 115.494C30.9858 120.03 40.4417 123.055 45.1697 124C50.3704 123.527 61.0556 121.164 62.1904 115.494C63.3251 109.823 52.7341 101.3 46.5877 97.0464Z" fill="#1F2431"/>
<path d="M46.5877 97.0464C41.8597 101.772 30.9858 110.957 30.9858 115.494C30.9858 120.03 40.4417 123.055 45.1697 124C50.3704 123.527 61.0556 121.164 62.1904 115.494C63.3251 109.823 52.7341 101.3 46.5877 97.0464Z" fill="url(#paint1_linear_522_10732)"/>
<path d="M19.6387 48.8604C23.8935 43.1718 30.9858 38.9204 48.0065 38.9214C66.492 38.9225 73.5371 43.1728 76.3739 48.8608M19.6387 48.8604C19.0395 48.8604 19.1996 49.303 19.9852 50.0013M19.6387 48.8604C19.7476 49.2278 19.8632 49.6085 19.9852 50.0013M46.5877 97.0464C41.8597 101.772 30.9858 110.957 30.9858 115.494C30.9858 120.03 40.4417 123.055 45.1697 124C50.3704 123.527 61.0556 121.164 62.1904 115.494C63.3251 109.823 52.7341 101.3 46.5877 97.0464ZM46.5877 97.0464C56.5164 89.0127 75.2392 65.8735 76.3739 48.8608M46.5877 97.0464C35.5674 90.4373 24.1014 63.2504 19.9852 50.0013M76.3739 48.8608C73.5371 54.5317 65.0271 58.7844 48.0065 58.7844C34.5805 58.7844 22.9196 52.6096 19.9852 50.0013" stroke="#89E159" stroke-width="2"/>
<path d="M69.8191 29.1798C70.7122 31.4671 71.925 33.354 73.143 34.5596C73.7526 35.1628 74.346 35.5783 74.8832 35.7982C75.4171 36.0166 75.8659 36.0317 76.2322 35.8888C76.5985 35.7459 76.9185 35.431 77.1632 34.9088C77.4095 34.3834 77.5645 33.6759 77.6041 32.8194C77.6831 31.1079 77.2967 28.8986 76.4036 26.6114C75.5106 24.3241 74.2978 22.4372 73.0797 21.2316C72.4702 20.6283 71.8768 20.2128 71.3395 19.993C70.8057 19.7746 70.3568 19.7595 69.9906 19.9024C69.6243 20.0453 69.3043 20.3602 69.0596 20.8824C68.8133 21.4078 68.6583 22.1153 68.6187 22.9717C68.5397 24.6833 68.9261 26.8925 69.8191 29.1798Z" fill="#DBE2F9" stroke="#F68561" stroke-width="1.01248"/>
<path d="M65.312 34.978C67.3802 36.3029 69.469 37.1145 71.1598 37.3712C72.0059 37.4996 72.7282 37.4855 73.2898 37.346C73.8479 37.2074 74.2174 36.9543 74.4274 36.6222C74.6374 36.2902 74.7087 35.846 74.5972 35.2784C74.4849 34.7073 74.1918 34.0426 73.718 33.3254C72.7711 31.8922 71.1562 30.3311 69.0881 29.0062C67.02 27.6812 64.9312 26.8696 63.2404 26.613C62.3943 26.4845 61.672 26.4987 61.1104 26.6382C60.5523 26.7767 60.1827 27.0298 59.9728 27.3619C59.7628 27.694 59.6915 28.1381 59.803 28.7058C59.9153 29.2769 60.2083 29.9416 60.6822 30.6587C61.629 32.0919 63.2439 33.653 65.312 34.978Z" fill="#DBE2F9" stroke="#F68561" stroke-width="1.01248"/>
<path d="M67.9049 40.7608C70.2403 39.9995 72.1936 38.8964 73.4665 37.7495C74.1035 37.1755 74.552 36.607 74.8017 36.0834C75.05 35.5631 75.0901 35.1163 74.968 34.7429C74.8458 34.3696 74.5492 34.0325 74.0413 33.7588C73.5301 33.4833 72.832 33.2885 71.9784 33.2005C70.2727 33.0245 68.0437 33.2849 65.7083 34.0462C63.3729 34.8076 61.4196 35.9107 60.1466 37.0576C59.5097 37.6315 59.0612 38.2001 58.8114 38.7236C58.5632 39.2439 58.5231 39.6908 58.6452 40.0641C58.7673 40.4375 59.0639 40.7746 59.5719 41.0483C60.0831 41.3238 60.7812 41.5186 61.6348 41.6066C63.3404 41.7825 65.5695 41.5222 67.9049 40.7608Z" fill="#DBE2F9" stroke="#F68561" stroke-width="1.01248"/>
<path d="M72.7129 44.5118C73.7408 42.2818 74.2596 40.0968 74.2847 38.3794C74.2973 37.52 74.1859 36.8021 73.9726 36.2604C73.7606 35.7221 73.4611 35.3861 73.1052 35.2193C72.7492 35.0525 72.3014 35.0383 71.7566 35.222C71.2084 35.4069 70.5923 35.7838 69.9489 36.3476C68.6631 37.4743 67.3411 39.2829 66.3132 41.5129C65.2853 43.7428 64.7665 45.9278 64.7414 47.6452C64.7288 48.5046 64.8402 49.2225 65.0535 49.7642C65.2655 50.3026 65.565 50.6385 65.921 50.8053C66.277 50.9721 66.7247 50.9864 67.2695 50.8026C67.8177 50.6177 68.4338 50.2408 69.0772 49.677C70.3631 48.5503 71.685 46.7417 72.7129 44.5118Z" fill="#DBE2F9" stroke="#F68561" stroke-width="1.01248"/>
<path d="M80.3003 41.551C79.463 39.2427 78.2963 37.3269 77.1077 36.0919C76.513 35.4739 75.9298 35.0441 75.398 34.8112C74.8695 34.5797 74.4211 34.5537 74.0514 34.6875C73.6818 34.8214 73.3542 35.1283 73.0968 35.6443C72.8378 36.1634 72.6657 36.8668 72.6053 37.722C72.4847 39.4309 72.8174 41.6487 73.6547 43.9569C74.492 46.2652 75.6587 48.181 76.8472 49.416C77.442 50.034 78.0252 50.4639 78.557 50.6968C79.0855 50.9282 79.5339 50.9543 79.9035 50.8204C80.2732 50.6866 80.6008 50.3796 80.8582 49.8637C81.1171 49.3445 81.2893 48.6411 81.3497 47.786C81.4703 46.077 81.1376 43.8592 80.3003 41.551Z" fill="#DBE2F9" stroke="#F68561" stroke-width="1.01248"/>
<path d="M84.0434 34.8571C82.0745 33.3888 80.0484 32.4311 78.3799 32.055C77.545 31.8668 76.8233 31.8297 76.2532 31.9289C75.6865 32.0275 75.2998 32.2536 75.0667 32.5699C74.8335 32.8862 74.7308 33.3241 74.8016 33.8981C74.873 34.4757 75.118 35.1594 75.5396 35.9083C76.3822 37.4048 77.8821 39.0764 79.851 40.5447C81.8198 42.0129 83.8459 42.9707 85.5144 43.3467C86.3494 43.5349 87.071 43.572 87.6412 43.4728C88.2078 43.3743 88.5945 43.1481 88.8277 42.8318C89.0608 42.5155 89.1636 42.0776 89.0927 41.5036C89.0214 40.9261 88.7764 40.2424 88.3547 39.4935C87.5121 37.9969 86.0122 36.3253 84.0434 34.8571Z" fill="#DBE2F9" stroke="#F68561" stroke-width="1.01248"/>
<path d="M81.0481 30.1276C78.7049 30.8649 76.7404 31.9478 75.4558 33.0815C74.813 33.6489 74.3587 34.2128 74.1036 34.7337C73.8501 35.2514 73.8054 35.6977 73.9238 36.0723C74.0421 36.4469 74.3352 36.787 74.8404 37.066C75.3488 37.3467 76.0449 37.5486 76.8976 37.6454C78.6014 37.8389 80.8331 37.6015 83.1762 36.8642C85.5194 36.127 87.4839 35.0441 88.7685 33.9104C89.4113 33.343 89.8655 32.7791 90.1206 32.2582C90.3742 31.7405 90.4189 31.2941 90.3005 30.9196C90.1822 30.545 89.889 30.2049 89.3839 29.9259C88.8755 29.6452 88.1794 29.4433 87.3267 29.3465C85.6229 29.153 83.3912 29.3904 81.0481 30.1276Z" fill="#DBE2F9" stroke="#F68561" stroke-width="1.01248"/>
<path d="M76.7525 25.5138C75.075 27.3075 73.8955 29.218 73.3319 30.8397C73.0499 31.6512 72.9302 32.3672 72.9626 32.948C72.9948 33.5253 73.1738 33.9378 73.4596 34.2076C73.7454 34.4774 74.1663 34.6312 74.7417 34.6276C75.3207 34.624 76.0245 34.4594 76.8131 34.1261C78.389 33.4601 80.2134 32.1584 81.8909 30.3647C83.5683 28.571 84.7479 26.6605 85.3114 25.0389C85.5934 24.2274 85.7132 23.5114 85.6807 22.9305C85.6485 22.3533 85.4695 21.9408 85.1837 21.671C84.8979 21.4012 84.477 21.2474 83.9016 21.251C83.3226 21.2546 82.6188 21.4192 81.8302 21.7524C80.2544 22.4184 78.4299 23.7201 76.7525 25.5138Z" fill="#DBE2F9" stroke="#F68561" stroke-width="1.01248"/>
<ellipse cx="6.56514" cy="6.05805" rx="6.56514" ry="6.05805" transform="matrix(-0.931632 0.363403 0.363698 0.931517 79.0566 27.7446)" fill="#F68561"/>
<path d="M15.5655 27.1217C16.6533 29.9077 18.1323 32.2111 19.6233 33.6869C20.3693 34.4253 21.101 34.9393 21.77 35.213C22.4356 35.4854 23.0098 35.5098 23.487 35.3236C23.9642 35.1375 24.3701 34.7308 24.6752 34.0798C24.9818 33.4255 25.1717 32.552 25.2202 31.5037C25.317 29.4086 24.8441 26.7127 23.7563 23.9267C22.6685 21.1406 21.1895 18.8372 19.6985 17.3615C18.9525 16.6231 18.2209 16.1091 17.5519 15.8353C16.8862 15.563 16.312 15.5386 15.8349 15.7247C15.3577 15.9109 14.9518 16.3175 14.6467 16.9686C14.34 17.6229 14.1501 18.4964 14.1017 19.5446C14.0049 21.6398 14.4777 24.3356 15.5655 27.1217Z" fill="#DBE2F9" stroke="#F68561" stroke-width="1.01248"/>
<path d="M10.1392 34.2104C12.6583 35.8243 15.207 36.816 17.2767 37.1301C18.3123 37.2873 19.2038 37.2713 19.9031 37.0976C20.599 36.9248 21.0748 36.6052 21.3484 36.1725C21.622 35.7399 21.7082 35.1706 21.5691 34.4629C21.4293 33.7517 21.0663 32.9319 20.4863 32.0542C19.3273 30.2998 17.3556 28.3956 14.8365 26.7817C12.3174 25.1679 9.76876 24.1762 7.69905 23.862C6.6635 23.7048 5.77198 23.7209 5.07264 23.8945C4.37679 24.0673 3.90096 24.387 3.62738 24.8196C3.35379 25.2523 3.26759 25.8215 3.40669 26.5292C3.54649 27.2405 3.9095 28.0602 4.48942 28.938C5.6485 30.6923 7.62012 32.5966 10.1392 34.2104Z" fill="#DBE2F9" stroke="#F68561" stroke-width="1.01248"/>
<path d="M13.3768 41.2407C16.2215 40.3133 18.6059 38.9682 20.1641 37.5642C20.9437 36.8618 21.4983 36.161 21.8093 35.509C22.1188 34.8603 22.1753 34.2889 22.0162 33.8025C21.8571 33.316 21.4736 32.888 20.8403 32.5467C20.2037 32.2037 19.3417 31.9647 18.297 31.8569C16.2091 31.6415 13.489 31.9605 10.6443 32.8879C7.79965 33.8152 5.41525 35.1603 3.85707 36.5643C3.07747 37.2667 2.52285 37.9676 2.21181 38.6195C1.90232 39.2682 1.84581 39.8396 2.00495 40.3261C2.16408 40.8125 2.54752 41.2405 3.18089 41.5818C3.81742 41.9249 4.67948 42.1639 5.72414 42.2716C7.81204 42.487 10.5321 42.168 13.3768 41.2407Z" fill="#DBE2F9" stroke="#F68561" stroke-width="1.01248"/>
<path d="M19.2734 45.7341C20.5254 43.0178 21.1598 40.3516 21.1905 38.2493C21.2059 37.1975 21.0698 36.3112 20.8042 35.6367C20.54 34.9654 20.1605 34.5321 19.6967 34.3148C19.233 34.0975 18.6598 34.0844 17.9805 34.3135C17.2979 34.5437 16.5383 35.0102 15.7507 35.7002C14.1767 37.0794 12.5645 39.2873 11.3124 42.0035C10.0604 44.7198 9.42603 47.386 9.39528 49.4883C9.3799 50.5401 9.51598 51.4264 9.78158 52.1009C10.0459 52.7722 10.4253 53.2055 10.8891 53.4228C11.3529 53.6401 11.926 53.6532 12.6053 53.4241C13.2879 53.1939 14.0475 52.7274 14.8351 52.0374C16.4091 50.6582 18.0213 48.4503 19.2734 45.7341Z" fill="#DBE2F9" stroke="#F68561" stroke-width="1.01248"/>
<path d="M28.4849 42.0543C27.4651 39.2427 26.0423 36.904 24.5874 35.3923C23.8595 34.6359 23.1405 34.1042 22.4783 33.8141C21.8194 33.5256 21.2458 33.4871 20.7642 33.6615C20.2826 33.8358 19.8669 34.2324 19.546 34.8757C19.2236 35.5222 19.0125 36.3907 18.9386 37.4373C18.7909 39.5293 19.1982 42.2356 20.2181 45.0472C21.238 47.8588 22.6607 50.1975 24.1156 51.7092C24.8435 52.4656 25.5625 52.9973 26.2247 53.2874C26.8837 53.576 27.4572 53.6144 27.9388 53.44C28.4204 53.2657 28.8361 52.8691 29.157 52.2258C29.4795 51.5793 29.6905 50.7108 29.7644 49.6642C29.9121 47.5723 29.5048 44.8659 28.4849 42.0543Z" fill="#DBE2F9" stroke="#F68561" stroke-width="1.01248"/>
<path d="M32.9879 33.8848C30.5897 32.0964 28.1177 30.9264 26.0753 30.4661C25.0534 30.2358 24.1628 30.1885 23.4528 30.312C22.7463 30.4349 22.2488 30.7199 21.945 31.1319C21.6413 31.544 21.5147 32.1056 21.6031 32.8213C21.6919 33.5405 21.9957 34.3839 22.5117 35.3005C23.5432 37.1324 25.3745 39.1715 27.7727 40.9599C30.171 42.7483 32.643 43.9183 34.6854 44.3786C35.7073 44.6089 36.5978 44.6562 37.3079 44.5327C38.0144 44.4098 38.5119 44.1248 38.8156 43.7127C39.1194 43.3007 39.2459 42.7391 39.1575 42.0234C39.0687 41.3041 38.7649 40.4608 38.2489 39.5442C37.2175 37.7123 35.3861 35.6732 32.9879 33.8848Z" fill="#DBE2F9" stroke="#F68561" stroke-width="1.01248"/>
<path d="M29.2567 28.1283C26.4026 29.0263 24.0045 30.3468 22.432 31.7346C21.6453 32.4289 21.0835 33.124 20.7659 33.7727C20.4498 34.4182 20.3874 34.9889 20.5416 35.477C20.6958 35.965 21.0749 36.3969 21.7047 36.7447C22.3378 37.0943 23.1974 37.3421 24.2409 37.4606C26.3266 37.6974 29.0499 37.4065 31.904 36.5084C34.7581 35.6104 37.1562 34.29 38.7286 32.9022C39.5154 32.2078 40.0771 31.5128 40.3948 30.8641C40.7109 30.2186 40.7732 29.6479 40.6191 29.1598C40.4649 28.6718 40.0858 28.2399 39.4559 27.8921C38.8229 27.5425 37.9633 27.2947 36.9197 27.1762C34.834 26.9394 32.1108 27.2303 29.2567 28.1283Z" fill="#DBE2F9" stroke="#F68561" stroke-width="1.01248"/>
<path d="M24.0004 22.5586C21.9572 24.7435 20.5166 27.0743 19.8267 29.0594C19.4816 30.0526 19.3324 30.9361 19.3728 31.6594C19.413 32.3791 19.6374 32.9091 20.0097 33.2606C20.382 33.6121 20.9224 33.8041 21.6399 33.7996C22.3609 33.7951 23.2292 33.5906 24.1944 33.1827C26.1233 32.3674 28.3491 30.7778 30.3924 28.593C32.4356 26.4081 33.8762 24.0773 34.566 22.0922C34.9112 21.099 35.0604 20.2155 35.02 19.4922C34.9798 18.7725 34.7554 18.2425 34.3831 17.891C34.0108 17.5396 33.4703 17.3475 32.7529 17.352C32.0319 17.3565 31.1636 17.5611 30.1984 17.969C28.2694 18.7842 26.0437 20.3738 24.0004 22.5586Z" fill="#DBE2F9" stroke="#F68561" stroke-width="1.01248"/>
<ellipse cx="7.96606" cy="7.35075" rx="7.96606" ry="7.35075" transform="matrix(-0.931632 0.363403 0.363698 0.931517 26.875 25.3416)" fill="#F68561"/>
<path d="M42.5225 33.107C43.6103 35.8931 45.0894 38.1965 46.5804 39.6722C47.3264 40.4106 48.058 40.9246 48.727 41.1984C49.3926 41.4707 49.9669 41.4951 50.444 41.309C50.9212 41.1228 51.3271 40.7162 51.6322 40.0651C51.9389 39.4108 52.1288 38.5373 52.1772 37.4891C52.274 35.3939 51.8011 32.6981 50.7134 29.912C49.6256 27.126 48.1466 24.8226 46.6556 23.3468C45.9096 22.6084 45.1779 22.0944 44.5089 21.8207C43.8433 21.5483 43.2691 21.5239 42.7919 21.7101C42.3147 21.8962 41.9088 22.3029 41.6037 22.9539C41.297 23.6083 41.1071 24.4817 41.0587 25.53C40.9619 27.6251 41.4348 30.321 42.5225 33.107Z" fill="#DBE2F9" stroke="#F68561" stroke-width="1.01248"/>
<path d="M37.0963 40.1958C39.6154 41.8096 42.164 42.8013 44.2337 43.1155C45.2693 43.2727 46.1608 43.2566 46.8602 43.083C47.556 42.9102 48.0318 42.5906 48.3054 42.1579C48.579 41.7252 48.6652 41.156 48.5261 40.4483C48.3863 39.737 48.0233 38.9173 47.4434 38.0395C46.2843 36.2852 44.3127 34.3809 41.7936 32.7671C39.2744 31.1532 36.7258 30.1615 34.6561 29.8474C33.6205 29.6902 32.729 29.7062 32.0297 29.8799C31.3338 30.0527 30.858 30.3723 30.5844 30.805C30.3108 31.2376 30.2246 31.8069 30.3637 32.5146C30.5035 33.2258 30.8665 34.0456 31.4465 34.9233C32.6055 36.6777 34.5771 38.5819 37.0963 40.1958Z" fill="#DBE2F9" stroke="#F68561" stroke-width="1.01248"/>
<path d="M40.3338 47.227C43.1785 46.2996 45.5629 44.9545 47.1211 43.5506C47.9007 42.8481 48.4553 42.1473 48.7664 41.4953C49.0758 40.8466 49.1324 40.2752 48.9732 39.7888C48.8141 39.3023 48.4306 38.8744 47.7973 38.533C47.1607 38.19 46.2987 37.951 45.254 37.8432C43.1661 37.6279 40.446 37.9468 37.6014 38.8742C34.7567 39.8016 32.3723 41.1466 30.8141 42.5506C30.0345 43.2531 29.4799 43.9539 29.1688 44.6058C28.8593 45.2545 28.8028 45.8259 28.962 46.3124C29.1211 46.7989 29.5046 47.2268 30.1379 47.5682C30.7745 47.9112 31.6365 48.1502 32.6812 48.258C34.7691 48.4733 37.4892 48.1543 40.3338 47.227Z" fill="#DBE2F9" stroke="#F68561" stroke-width="1.01248"/>
<path d="M46.2304 51.7184C47.4825 49.0022 48.1168 46.336 48.1476 44.2337C48.1629 43.1818 48.0269 42.2956 47.7613 41.621C47.497 40.9498 47.1175 40.5165 46.6538 40.2992C46.19 40.0818 45.6168 40.0688 44.9376 40.2978C44.2549 40.5281 43.4953 40.9946 42.7078 41.6846C41.1338 43.0637 39.5215 45.2716 38.2695 47.9879C37.0174 50.7042 36.3831 53.3703 36.3523 55.4727C36.3369 56.5245 36.473 57.4107 36.7386 58.0853C37.0029 58.7565 37.3823 59.1899 37.8461 59.4072C38.3099 59.6245 38.883 59.6376 39.5623 59.4085C40.245 59.1783 41.0046 58.7118 41.7921 58.0217C43.3661 56.6426 44.9784 54.4347 46.2304 51.7184Z" fill="#DBE2F9" stroke="#F68561" stroke-width="1.01248"/>
<path d="M55.442 48.0406C54.4221 45.229 52.9993 42.8903 51.5444 41.3786C50.8165 40.6222 50.0975 40.0905 49.4353 39.8005C48.7764 39.5119 48.2029 39.4734 47.7213 39.6478C47.2397 39.8222 46.8239 40.2187 46.5031 40.862C46.1806 41.5086 45.9695 42.377 45.8956 43.4237C45.7479 45.5156 46.1552 48.2219 47.1751 51.0335C48.195 53.8451 49.6178 56.1838 51.0726 57.6956C51.8006 58.4519 52.5196 58.9837 53.1818 59.2737C53.8407 59.5623 54.4142 59.6007 54.8958 59.4264C55.3774 59.252 55.7931 58.8554 56.114 58.2121C56.4365 57.5656 56.6476 56.6971 56.7215 55.6505C56.8691 53.5586 56.4619 50.8522 55.442 48.0406Z" fill="#DBE2F9" stroke="#F68561" stroke-width="1.01248"/>
<path d="M59.9449 39.8701C57.5467 38.0817 55.0747 36.9117 53.0323 36.4514C52.0104 36.2211 51.1198 36.1738 50.4098 36.2973C49.7033 36.4202 49.2058 36.7052 48.9021 37.1173C48.5983 37.5294 48.4718 38.091 48.5601 38.8066C48.649 39.5259 48.9527 40.3692 49.4688 41.2858C50.5002 43.1177 52.3315 45.1569 54.7298 46.9453C57.128 48.7337 59.6 49.9037 61.6424 50.364C62.6643 50.5943 63.5549 50.6416 64.2649 50.5181C64.9714 50.3952 65.4689 50.1102 65.7727 49.6981C66.0764 49.286 66.2029 48.7244 66.1146 48.0088C66.0257 47.2895 65.722 46.4461 65.2059 45.5296C64.1745 43.6977 62.3432 41.6585 59.9449 39.8701Z" fill="#DBE2F9" stroke="#F68561" stroke-width="1.01248"/>
<path d="M56.2147 34.1137C53.3606 35.0117 50.9625 36.3321 49.39 37.7199C48.6033 38.4143 48.0415 39.1094 47.7239 39.758C47.4078 40.4035 47.3454 40.9743 47.4996 41.4623C47.6538 41.9504 48.0329 42.3822 48.6627 42.7301C49.2958 43.0796 50.1554 43.3275 51.1989 43.4459C53.2846 43.6828 56.0079 43.3918 58.862 42.4938C61.7161 41.5958 64.1142 40.2754 65.6866 38.8876C66.4734 38.1932 67.0351 37.4981 67.3528 36.8494C67.6689 36.204 67.7312 35.6332 67.5771 35.1452C67.4229 34.6571 67.0438 34.2252 66.4139 33.8774C65.7809 33.5279 64.9213 33.28 63.8777 33.1615C61.7921 32.9247 59.0688 33.2157 56.2147 34.1137Z" fill="#DBE2F9" stroke="#F68561" stroke-width="1.01248"/>
<path d="M50.9584 28.5447C48.9152 30.7296 47.4746 33.0604 46.7848 35.0455C46.4396 36.0387 46.2904 36.9222 46.3308 37.6455C46.371 38.3652 46.5954 38.8952 46.9677 39.2467C47.34 39.5981 47.8805 39.7902 48.5979 39.7857C49.3189 39.7812 50.1872 39.5766 51.1524 39.1687C53.0813 38.3535 55.3071 36.7639 57.3504 34.5791C59.3936 32.3942 60.8342 30.0634 61.524 28.0783C61.8692 27.0851 62.0184 26.2016 61.978 25.4783C61.9378 24.7586 61.7134 24.2286 61.3411 23.8771C60.9688 23.5256 60.4283 23.3336 59.7109 23.3381C58.9899 23.3426 58.1216 23.5471 57.1564 23.955C55.2274 24.7703 53.0017 26.3599 50.9584 28.5447Z" fill="#DBE2F9" stroke="#F68561" stroke-width="1.01248"/>
<ellipse cx="7.96606" cy="7.35075" rx="7.96606" ry="7.35075" transform="matrix(-0.931632 0.363403 0.363698 0.931517 53.832 31.3269)" fill="#F68561"/>
<path d="M35.2778 9.75744C36.054 11.7454 37.107 13.3824 38.1613 14.4259C38.6889 14.9482 39.1995 15.3046 39.6576 15.492C40.1125 15.6781 40.4861 15.6876 40.7858 15.5706C41.0856 15.4537 41.354 15.1938 41.5625 14.749C41.7725 14.3009 41.9066 13.6931 41.9408 12.9516C42.0093 11.4702 41.6747 9.55297 40.8985 7.56497C40.1223 5.57697 39.0692 3.93998 38.0149 2.89649C37.4873 2.37426 36.9767 2.01786 36.5186 1.83039C36.0638 1.64429 35.6902 1.63486 35.3904 1.75178C35.0907 1.8687 34.8222 2.12858 34.6137 2.57341C34.4037 3.02152 34.2697 3.62936 34.2354 4.37077C34.167 5.85219 34.5016 7.76944 35.2778 9.75744Z" fill="#DBE2F9" stroke="#F68561" stroke-width="1.01248"/>
<path d="M31.3224 14.7832C33.1199 15.9348 34.9328 16.6384 36.3963 16.8605C37.1287 16.9717 37.7495 16.9586 38.2284 16.8397C38.7039 16.7217 39.0096 16.5085 39.1815 16.2368C39.3533 15.965 39.4157 15.5959 39.3206 15.1124C39.2249 14.6253 38.9738 14.0537 38.5637 13.4329C37.7441 12.1924 36.3432 10.8371 34.5457 9.68553C32.7482 8.53395 30.9353 7.83035 29.4718 7.6082C28.7394 7.49702 28.1186 7.51008 27.6397 7.62901C27.1642 7.74708 26.8585 7.96023 26.6866 8.23197C26.5148 8.50372 26.4524 8.8728 26.5475 9.35635C26.6432 9.84343 26.8943 10.4151 27.3044 11.0359C28.124 12.2763 29.5248 13.6316 31.3224 14.7832Z" fill="#DBE2F9" stroke="#F68561" stroke-width="1.01248"/>
<path d="M33.5295 19.8184C35.5594 19.1566 37.2541 18.1987 38.3558 17.206C38.9072 16.7092 39.292 16.22 39.505 15.7735C39.7165 15.3303 39.7468 14.9581 39.6469 14.6526C39.5469 14.3471 39.3024 14.0646 38.8697 13.8314C38.4338 13.5965 37.8339 13.4282 37.0951 13.352C35.6187 13.1997 33.6843 13.4249 31.6545 14.0866C29.6246 14.7484 27.9299 15.7063 26.8282 16.699C26.2768 17.1958 25.892 17.685 25.679 18.1315C25.4676 18.5748 25.4372 18.9469 25.5372 19.2524C25.6371 19.5579 25.8816 19.8404 26.3143 20.0736C26.7503 20.3085 27.3501 20.4768 28.0889 20.553C29.5653 20.7053 31.4997 20.4801 33.5295 19.8184Z" fill="#DBE2F9" stroke="#F68561" stroke-width="1.01248"/>
<path d="M37.6827 23.1238C38.5761 21.1856 39.0255 19.2894 39.0473 17.8029C39.0582 17.0589 38.9616 16.4421 38.7797 15.9801C38.5991 15.5215 38.3476 15.244 38.0563 15.1075C37.7649 14.9709 37.3924 14.956 36.9283 15.1125C36.4608 15.2702 35.9309 15.5934 35.3739 16.0815C34.2609 17.0567 33.1131 18.6256 32.2197 20.5639C31.3263 22.5021 30.8769 24.3983 30.8551 25.8848C30.8442 26.6288 30.9408 27.2456 31.1227 27.7076C31.3033 28.1662 31.5548 28.4437 31.8461 28.5802C32.1375 28.7167 32.51 28.7316 32.9741 28.5751C33.4416 28.4175 33.9716 28.0942 34.5285 27.6062C35.6415 26.631 36.7893 25.062 37.6827 23.1238Z" fill="#DBE2F9" stroke="#F68561" stroke-width="1.01248"/>
<path d="M44.2966 20.5904C43.5688 18.5841 42.5557 16.922 41.527 15.8531C41.0121 15.3181 40.5104 14.9494 40.0568 14.7507C39.6066 14.5535 39.2333 14.535 38.9308 14.6445C38.6283 14.754 38.3535 15.0072 38.1343 15.4468C37.9135 15.8895 37.7646 16.4938 37.7124 17.2341C37.608 18.7132 37.8959 20.6379 38.6237 22.6441C39.3514 24.6504 40.3645 26.3125 41.3932 27.3814C41.9081 27.9164 42.4099 28.2851 42.8634 28.4838C43.3136 28.681 43.6869 28.6995 43.9894 28.59C44.292 28.4805 44.5667 28.2273 44.7859 27.7877C45.0068 27.345 45.1556 26.7407 45.2079 26.0004C45.3123 24.5212 45.0243 22.5966 44.2966 20.5904Z" fill="#DBE2F9" stroke="#F68561" stroke-width="1.01248"/>
<path d="M47.5823 14.7835C45.871 13.5074 44.1125 12.6769 42.6684 12.3514C41.9456 12.1885 41.3253 12.1575 40.8391 12.2421C40.3563 12.326 40.0361 12.5169 39.8453 12.7757C39.6545 13.0346 39.566 13.3982 39.6264 13.8872C39.6872 14.3798 39.897 14.9677 40.262 15.616C40.9913 16.9113 42.2923 18.3624 44.0036 19.6385C45.7148 20.9147 47.4733 21.7451 48.9175 22.0706C49.6403 22.2335 50.2605 22.2645 50.7468 22.18C51.2295 22.096 51.5498 21.9051 51.7406 21.6463C51.9313 21.3875 52.0198 21.0238 51.9595 20.5348C51.8986 20.0422 51.6889 19.4543 51.3239 18.806C50.5946 17.5107 49.2936 16.0596 47.5823 14.7835Z" fill="#DBE2F9" stroke="#F68561" stroke-width="1.01248"/>
<path d="M45.0284 10.6678C42.9918 11.3085 41.2874 12.2489 40.1755 13.2302C39.6191 13.7214 39.2293 14.2065 39.0118 14.6508C38.7958 15.0918 38.7617 15.4636 38.8585 15.7701C38.9553 16.0766 39.1969 16.3616 39.6273 16.5992C40.0608 16.8386 40.6589 17.013 41.397 17.0968C42.8718 17.2643 44.8084 17.059 46.845 16.4183C48.8816 15.7775 50.586 14.8371 51.6979 13.8558C52.2543 13.3647 52.6441 12.8795 52.8616 12.4352C53.0776 11.9942 53.1117 11.6224 53.0149 11.3159C52.9181 11.0094 52.6765 10.7244 52.2461 10.4868C51.8126 10.2474 51.2145 10.073 50.4764 9.98919C49.0016 9.82174 47.065 10.027 45.0284 10.6678Z" fill="#DBE2F9" stroke="#F68561" stroke-width="1.01248"/>
<path d="M41.3131 6.6289C39.8551 8.1879 38.8322 9.8462 38.3444 11.2498C38.1003 11.9523 37.9982 12.5678 38.0259 13.0632C38.0533 13.5549 38.2051 13.897 38.439 14.1177C38.6728 14.3385 39.0221 14.4694 39.5122 14.4664C40.006 14.4633 40.6111 14.3227 41.2937 14.0342C42.6577 13.4577 44.2414 12.3287 45.6993 10.7697C47.1573 9.21073 48.1803 7.55243 48.668 6.14882C48.9122 5.44635 49.0142 4.83081 48.9865 4.33547C48.9591 3.84374 48.8073 3.50168 48.5734 3.28091C48.3396 3.06013 47.9904 2.92921 47.5002 2.93227C47.0064 2.93535 46.4013 3.07597 45.7187 3.36447C44.3547 3.94093 42.771 5.06989 41.3131 6.6289Z" fill="#DBE2F9" stroke="#F68561" stroke-width="1.01248"/>
<ellipse cx="5.7246" cy="5.28242" rx="5.7246" ry="5.28242" transform="matrix(-0.931632 0.363403 0.363698 0.931517 43.2734 8.52979)" fill="#F68561"/>
<path d="M57.5314 9.5632C58.292 11.5114 59.3238 13.1151 60.3563 14.137C60.873 14.6485 61.3726 14.997 61.8202 15.1802C62.2645 15.362 62.6281 15.3707 62.919 15.2572C63.2099 15.1437 63.4714 14.8912 63.6751 14.4566C63.8803 14.0188 64.0116 13.4242 64.0451 12.6981C64.1122 11.2473 63.7844 9.36893 63.0238 7.42075C62.2632 5.47258 61.2313 3.86884 60.1988 2.84692C59.6821 2.33548 59.1826 1.98695 58.735 1.80378C58.2907 1.62198 57.9271 1.6133 57.6362 1.72676C57.3453 1.84023 57.0837 2.09278 56.8801 2.52733C56.6749 2.96514 56.5436 3.55973 56.51 4.28583C56.443 5.73663 56.7707 7.61503 57.5314 9.5632Z" fill="#DBE2F9" stroke="#F68561" stroke-width="1.01248"/>
<path d="M53.6503 14.4862C55.4118 15.6147 57.188 16.3039 58.6212 16.5215C59.3385 16.6304 59.9458 16.6174 60.4137 16.5012C60.8782 16.3859 61.1755 16.1781 61.3422 15.9144C61.509 15.6506 61.5702 15.2915 61.4773 14.8192C61.3838 14.3433 61.1383 13.784 60.7366 13.176C59.934 11.9612 58.5616 10.6333 56.8001 9.50483C55.0386 8.37631 53.2624 7.68709 51.8292 7.46953C51.1119 7.36065 50.5046 7.37356 50.0367 7.48976C49.5722 7.60509 49.2749 7.81293 49.1082 8.07664C48.9414 8.34036 48.8802 8.69945 48.9731 9.17181C49.0666 9.64772 49.3121 10.207 49.7138 10.815C50.5164 12.0298 51.8888 13.3577 53.6503 14.4862Z" fill="#DBE2F9" stroke="#F68561" stroke-width="1.01248"/>
<path d="M55.8034 19.4219C57.7926 18.7734 59.4528 17.8348 60.5318 16.8626C61.0718 16.376 61.4481 15.8974 61.6562 15.4612C61.8628 15.0282 61.8918 14.666 61.7948 14.3695C61.6979 14.0731 61.4603 13.7978 61.0376 13.57C60.6116 13.3404 60.0249 13.1757 59.3013 13.1011C57.8555 12.952 55.9603 13.1724 53.9711 13.8209C51.9819 14.4694 50.3216 15.408 49.2427 16.3802C48.7026 16.8668 48.3264 17.3454 48.1183 17.7816C47.9117 18.2146 47.8827 18.5768 47.9796 18.8732C48.0766 19.1697 48.3142 19.445 48.7369 19.6728C49.1628 19.9023 49.7496 20.067 50.4732 20.1417C51.919 20.2908 53.8142 20.0703 55.8034 19.4219Z" fill="#DBE2F9" stroke="#F68561" stroke-width="1.01248"/>
<path d="M59.8692 22.6674C60.7447 20.768 61.1849 18.9102 61.2062 17.4544C61.2169 16.7259 61.1222 16.1225 60.9445 15.6711C60.7681 15.2231 60.523 14.9534 60.2403 14.8209C59.9576 14.6884 59.5951 14.6734 59.1417 14.8263C58.6849 14.9803 58.1664 15.2964 57.6209 15.7744C56.531 16.7294 55.4064 18.2665 54.5309 20.1659C53.6554 22.0653 53.2151 23.9231 53.1939 25.3789C53.1832 26.1074 53.2778 26.7108 53.4556 27.1622C53.632 27.6102 53.8771 27.8799 54.1598 28.0124C54.4425 28.1449 54.805 28.1599 55.2584 28.007C55.7152 27.853 56.2337 27.5369 56.7791 27.0589C57.8691 26.1039 58.9937 24.5668 59.8692 22.6674Z" fill="#DBE2F9" stroke="#F68561" stroke-width="1.01248"/>
<path d="M66.3547 20.1892C65.6415 18.2232 64.6488 16.5948 63.6414 15.548C63.1372 15.0241 62.6462 14.6635 62.2031 14.4694C61.7633 14.2768 61.4 14.2592 61.1064 14.3655C60.8128 14.4718 60.5451 14.7178 60.331 15.1472C60.1152 15.5798 59.9695 16.1709 59.9183 16.8959C59.816 18.3445 60.0981 20.2301 60.8112 22.1962C61.5244 24.1622 62.5171 25.7906 63.5245 26.8374C64.0287 27.3613 64.5197 27.7219 64.9628 27.916C65.4026 28.1086 65.7659 28.1262 66.0595 28.0199C66.3531 27.9136 66.6208 27.6676 66.8349 27.2382C67.0507 26.8056 67.1964 26.2145 67.2476 25.4895C67.3499 24.0409 67.0678 22.1553 66.3547 20.1892Z" fill="#DBE2F9" stroke="#F68561" stroke-width="1.01248"/>
<path d="M69.5789 14.5025C67.9019 13.2519 66.179 12.4384 64.7647 12.1196C64.0568 11.9601 63.4501 11.9299 62.975 12.0125C62.5034 12.0945 62.192 12.2807 62.0069 12.5319C61.8217 12.7831 61.7351 13.1369 61.7941 13.6145C61.8535 14.0958 62.0586 14.671 62.4161 15.3059C63.1303 16.5744 64.4048 17.9962 66.0818 19.2467C67.7588 20.4973 69.4817 21.3108 70.896 21.6296C71.6039 21.7891 72.2106 21.8193 72.6857 21.7367C73.1573 21.6546 73.4687 21.4685 73.6538 21.2173C73.839 20.9661 73.9256 20.6123 73.8666 20.1347C73.8072 19.6534 73.6021 19.0782 73.2446 18.4433C72.5304 17.1748 71.2559 15.753 69.5789 14.5025Z" fill="#DBE2F9" stroke="#F68561" stroke-width="1.01248"/>
<path d="M67.0848 10.47C65.089 11.098 63.4192 12.0194 62.3303 12.9804C61.7853 13.4614 61.4042 13.9361 61.1916 14.3702C60.9806 14.801 60.9479 15.1628 61.0419 15.4603C61.1359 15.7577 61.3706 16.0354 61.791 16.2675C62.2146 16.5014 62.7996 16.6722 63.5225 16.7542C64.9667 16.9182 66.8642 16.7173 68.8599 16.0893C70.8557 15.4614 72.5255 14.5399 73.6144 13.5789C74.1594 13.0979 74.5405 12.6232 74.7531 12.1892C74.9641 11.7584 74.9968 11.3965 74.9028 11.0991C74.8088 10.8016 74.5741 10.524 74.1537 10.2918C73.7301 10.0579 73.1451 9.88718 72.4222 9.80511C70.9779 9.64112 69.0805 9.84208 67.0848 10.47Z" fill="#DBE2F9" stroke="#F68561" stroke-width="1.01248"/>
<path d="M63.4467 6.50653C62.0179 8.03431 61.0158 9.65905 60.5381 11.0336C60.299 11.7216 60.1993 12.3238 60.2263 12.8077C60.2532 13.2881 60.4013 13.6208 60.6283 13.835C60.8552 14.0493 61.1949 14.1772 61.6737 14.1742C62.1562 14.1712 62.7482 14.0337 63.4167 13.7512C64.7524 13.1866 66.3041 12.0807 67.7328 10.5529C69.1616 9.02511 70.1637 7.40037 70.6414 6.02577C70.8805 5.33781 70.9802 4.73564 70.9532 4.25168C70.9263 3.77132 70.7782 3.43864 70.5512 3.22439C70.3243 3.01014 69.9846 2.88227 69.5057 2.88525C69.0233 2.88826 68.4313 3.02569 67.7628 3.30823C66.4271 3.87278 64.8754 4.97876 63.4467 6.50653Z" fill="#DBE2F9" stroke="#F68561" stroke-width="1.01248"/>
<ellipse cx="5.61275" cy="5.17921" rx="5.61275" ry="5.17921" transform="matrix(-0.931632 0.363403 0.363698 0.931517 65.3613 8.36279)" fill="#F68561"/>
<path d="M43.4307 95.0516C41.9321 96.5485 43.0069 98.3707 43.4307 98.7938C44.1804 99.5423 48.6713 100.291 50.1696 98.7938C50.6471 98.3169 50.9019 97.7367 51.0014 97.1762C51.2142 95.9777 50.7172 94.8691 50.1696 95.0516C47.9244 95.8001 45.678 95.8001 43.4307 95.0516Z" fill="#F68561"/>
<path d="M50.1696 98.7938C48.6713 100.291 44.1804 99.5423 43.4307 98.7938C43.0069 98.3707 41.9321 96.5485 43.4307 95.0516C45.678 95.8001 47.9244 95.8001 50.1696 95.0516C50.7172 94.8691 51.2142 95.9777 51.0014 97.1762M50.1696 98.7938C51.9168 98.0454 55.561 96.9976 56.16 98.7938C56.9088 101.039 60.4135 103.666 64.1574 102.917M50.1696 98.7938C50.6471 98.3169 50.9019 97.7367 51.0014 97.1762M50.9184 97.297C50.9445 97.2578 50.9722 97.2175 51.0014 97.1762M61.4015 98.7938C56.16 97.297 58.4064 97.2969 56.9088 95.0516C55.2908 92.6258 52.0897 95.6347 51.0014 97.1762" stroke="#F68561" stroke-width="1.23715"/>
<defs>
<linearGradient id="paint0_linear_522_10732" x1="61.5157" y1="124" x2="14.9027" y2="104.561" gradientUnits="userSpaceOnUse">
<stop stop-color="#1E4E4E"/>
<stop offset="1" stop-color="#1F2431"/>
</linearGradient>
<linearGradient id="paint1_linear_522_10732" x1="61.5157" y1="124" x2="14.9027" y2="104.561" gradientUnits="userSpaceOnUse">
<stop stop-color="#1E4E4E"/>
<stop offset="1" stop-color="#1F2431"/>
</linearGradient>
</defs>
</svg>
