<svg width="635" height="272" viewBox="0 0 635 272" fill="none" xmlns="http://www.w3.org/2000/svg">
<path d="M8.15725 164.184C7.46866 161.076 12.8194 162.246 12.7195 165.878C13.4387 166.563 10.6032 170.656 8.82889 171.368C7.40944 171.937 7.18065 169.88 7.24368 168.781C7.18242 169.219 6.87931 170.223 6.15693 170.727C5.43455 171.232 4.14687 169.853 4.75023 168.807C4.14687 169.853 4.832 169.168 4.02637 170.104C2.99166 171.306 2.70458 169.841 3.00738 168.969C2.21648 168.906 1.19325 168.864 0.907722 167.797C0.622198 166.73 1.88413 165.884 2.86577 165.77C2.77654 165.436 2.42971 165.071 2.71949 164.552C3.00928 164.032 5.0618 164.631 5.93142 165.211C5.83169 165.061 5.68683 164.564 5.90523 163.778C6.12364 162.992 7.30687 163.898 8.15725 164.184Z" fill="#3D8E53"/>
<path d="M12.7195 165.878C12.8194 162.246 7.46866 161.076 8.15725 164.184C7.30687 163.898 6.12364 162.992 5.90523 163.778C5.68683 164.564 5.83169 165.061 5.93142 165.211C5.0618 164.631 3.00928 164.032 2.71949 164.552C2.42971 165.071 2.77654 165.436 2.86577 165.77C1.88413 165.884 0.622198 166.73 0.907722 167.797C1.19325 168.864 2.21648 168.906 3.00738 168.969C2.70458 169.841 2.99166 171.306 4.02637 170.104C4.832 169.168 4.14687 169.853 4.75023 168.807C4.14687 169.853 5.43455 171.232 6.15693 170.727C6.87931 170.223 7.18242 169.219 7.24368 168.781C7.18065 169.88 7.40944 171.937 8.82889 171.368C10.6032 170.656 13.4387 166.563 12.7195 165.878ZM12.7195 165.878C13.5893 165.132 15.5228 163.923 16.298 165.05" stroke="#3D8E53" stroke-width="0.5"/>
<path d="M11.0828 165.623C10.8163 165.672 10.499 165.732 10.1514 165.803M5.66156 167.599C6.43178 166.849 7.82398 166.364 9.09917 166.042M9.09917 166.042C8.57499 166.445 7.63728 167.327 8.0799 167.63M9.09917 166.042C9.46541 165.95 9.82201 165.871 10.1514 165.803M10.1514 165.803C9.62677 165.577 8.74654 164.997 9.42297 164.485" stroke="#89E159" stroke-width="0.2"/>
<path d="M22.6482 165.742C23.3327 163.687 18.5039 162.885 17.5905 165.374C16.8088 165.596 18.028 169.313 19.298 170.388C20.314 171.249 21.0669 169.935 21.3163 169.17C21.2466 169.487 21.2218 170.267 21.6799 170.85C22.1381 171.433 23.5332 170.716 23.368 170.023C23.5015 170.603 23.9673 171.555 24.7627 170.716C25.4332 170.938 26.2895 171.253 26.8179 170.627C27.3463 170.001 26.5363 169.006 25.757 168.6C25.9221 168.405 26.3087 168.274 26.2117 167.826C26.1148 167.378 24.2557 167.095 23.3786 167.196C23.5022 167.128 23.9862 166.971 24.0178 166.427C24.0529 165.823 23.3327 165.057 22.6482 165.742Z" fill="#3D8E53"/>
<path d="M17.5905 165.374C18.5039 162.885 23.3327 163.687 22.6482 165.742C23.3327 165.057 24.0529 165.823 24.0178 166.427C23.9862 166.971 23.5022 167.128 23.3786 167.196C24.2557 167.095 26.1148 167.378 26.2117 167.826C26.3087 168.274 25.9221 168.405 25.757 168.6C26.5363 169.006 27.3463 170.001 26.8179 170.627C26.2895 171.253 25.4332 170.938 24.7627 170.716C23.9673 171.555 23.5015 170.603 23.368 170.023C23.5332 170.716 22.1381 171.433 21.6799 170.85C21.2218 170.267 21.2466 169.487 21.3163 169.17C21.0669 169.935 20.314 171.249 19.298 170.388C18.028 169.313 16.8088 165.596 17.5905 165.374ZM17.5905 165.374C17.0767 164.578 16.1394 164.669 15.1901 165.172" stroke="#3D8E53" stroke-width="0.5"/>
<path d="M19.7643 166.45C19.9244 166.538 20.115 166.643 20.3225 166.761M22.837 168.743C22.4901 168.172 21.6967 167.595 20.9465 167.131M20.9465 167.131C21.2032 167.463 21.3408 167.954 21.3586 168.475M20.9465 167.131C20.7311 166.997 20.5192 166.873 20.3225 166.761M20.3225 166.761C20.6995 166.766 21.3703 166.668 21.0376 166.244" stroke="#89E159" stroke-width="0.2"/>
<path d="M15.7929 165.057C14.8794 168.254 13.4634 176.019 15.1077 181.5" stroke="#3D8E53"/>
<path d="M64.1573 196.184C63.4687 193.076 68.8194 194.246 68.7195 197.878C69.4387 198.563 66.6032 202.656 64.8289 203.368C63.4094 203.937 63.1806 201.88 63.2437 200.781C63.1824 201.219 62.8793 202.223 62.1569 202.727C61.4345 203.232 60.1469 201.853 60.7502 200.807C60.1469 201.853 60.832 201.168 60.0264 202.104C58.9917 203.306 58.7046 201.841 59.0074 200.969C58.2165 200.906 57.1932 200.864 56.9077 199.797C56.6222 198.73 57.8841 197.884 58.8658 197.77C58.7765 197.436 58.4297 197.071 58.7195 196.552C59.0093 196.032 61.0618 196.631 61.9314 197.211C61.8317 197.061 61.6868 196.564 61.9052 195.778C62.1236 194.992 63.3069 195.898 64.1573 196.184Z" fill="#F68561"/>
<path d="M68.7195 197.878C68.8194 194.246 63.4687 193.076 64.1573 196.184C63.3069 195.898 62.1236 194.992 61.9052 195.778C61.6868 196.564 61.8317 197.061 61.9314 197.211C61.0618 196.631 59.0093 196.032 58.7195 196.552C58.4297 197.071 58.7765 197.436 58.8658 197.77C57.8841 197.884 56.6222 198.73 56.9077 199.797C57.1932 200.864 58.2165 200.906 59.0074 200.969C58.7046 201.841 58.9917 203.306 60.0264 202.104C60.832 201.168 60.1469 201.853 60.7502 200.807C60.1469 201.853 61.4345 203.232 62.1569 202.727C62.8793 202.223 63.1824 201.219 63.2437 200.781C63.1806 201.88 63.4094 203.937 64.8289 203.368C66.6032 202.656 69.4387 198.563 68.7195 197.878ZM68.7195 197.878C69.5893 197.132 71.5228 195.923 72.298 197.05" stroke="#F68561" stroke-width="0.5"/>
<path d="M67.0828 197.623C66.8163 197.672 66.499 197.732 66.1514 197.803M61.6616 199.599C62.4318 198.849 63.824 198.364 65.0992 198.042M65.0992 198.042C64.575 198.445 63.6373 199.327 64.0799 199.63M65.0992 198.042C65.4654 197.95 65.822 197.871 66.1514 197.803M66.1514 197.803C65.6268 197.577 64.7465 196.997 65.423 196.485" stroke="#89E159" stroke-width="0.2"/>
<path d="M78.6482 197.742C79.3327 195.687 74.5039 194.885 73.5905 197.374C72.8088 197.596 74.028 201.313 75.298 202.388C76.314 203.249 77.0669 201.935 77.3163 201.17C77.2466 201.487 77.2218 202.267 77.6799 202.85C78.1381 203.433 79.5332 202.716 79.368 202.023C79.5015 202.603 79.9673 203.555 80.7627 202.716C81.4332 202.938 82.2895 203.253 82.8179 202.627C83.3463 202.001 82.5363 201.006 81.757 200.6C81.9221 200.405 82.3087 200.274 82.2117 199.826C82.1148 199.378 80.2557 199.095 79.3786 199.196C79.5022 199.128 79.9862 198.971 80.0178 198.427C80.0529 197.823 79.3327 197.057 78.6482 197.742Z" fill="#F68561"/>
<path d="M73.5905 197.374C74.5039 194.885 79.3327 195.687 78.6482 197.742C79.3327 197.057 80.0529 197.823 80.0178 198.427C79.9862 198.971 79.5022 199.128 79.3786 199.196C80.2557 199.095 82.1148 199.378 82.2117 199.826C82.3087 200.274 81.9221 200.405 81.757 200.6C82.5363 201.006 83.3463 202.001 82.8179 202.627C82.2895 203.253 81.4332 202.938 80.7627 202.716C79.9673 203.555 79.5015 202.603 79.368 202.023C79.5332 202.716 78.1381 203.433 77.6799 202.85C77.2218 202.267 77.2466 201.487 77.3163 201.17C77.0669 201.935 76.314 203.249 75.298 202.388C74.028 201.313 72.8088 197.596 73.5905 197.374ZM73.5905 197.374C73.0767 196.578 72.1394 196.669 71.1901 197.172" stroke="#F68561" stroke-width="0.5"/>
<path d="M75.7643 198.45C75.9244 198.538 76.115 198.643 76.3225 198.761M78.837 200.743C78.4901 200.172 77.6967 199.595 76.9465 199.131M76.9465 199.131C77.2032 199.463 77.3408 199.954 77.3586 200.475M76.9465 199.131C76.7311 198.997 76.5192 198.873 76.3225 198.761M76.3225 198.761C76.6995 198.766 77.3703 198.668 77.0376 198.244" stroke="#89E159" stroke-width="0.2"/>
<path d="M71.7929 197.057C70.8794 200.254 69.4634 208.019 71.1077 213.5" stroke="#F68561"/>
<path d="M120.157 229.184C119.469 226.076 124.819 227.246 124.72 230.878C125.439 231.563 122.603 235.656 120.829 236.368C119.409 236.937 119.181 234.88 119.244 233.781C119.182 234.219 118.879 235.223 118.157 235.727C117.435 236.232 116.147 234.853 116.75 233.807C116.147 234.853 116.832 234.168 116.026 235.104C114.992 236.306 114.705 234.841 115.007 233.969C114.216 233.906 113.193 233.864 112.908 232.797C112.622 231.73 113.884 230.884 114.866 230.77C114.777 230.436 114.43 230.071 114.719 229.552C115.009 229.032 117.062 229.631 117.931 230.211C117.832 230.061 117.687 229.564 117.905 228.778C118.124 227.992 119.307 228.898 120.157 229.184Z" fill="#3D8E53"/>
<path d="M124.72 230.878C124.819 227.246 119.469 226.076 120.157 229.184C119.307 228.898 118.124 227.992 117.905 228.778C117.687 229.564 117.832 230.061 117.931 230.211C117.062 229.631 115.009 229.032 114.719 229.552C114.43 230.071 114.777 230.436 114.866 230.77C113.884 230.884 112.622 231.73 112.908 232.797C113.193 233.864 114.216 233.906 115.007 233.969C114.705 234.841 114.992 236.306 116.026 235.104C116.832 234.168 116.147 234.853 116.75 233.807C116.147 234.853 117.435 236.232 118.157 235.727C118.879 235.223 119.182 234.219 119.244 233.781C119.181 234.88 119.409 236.937 120.829 236.368C122.603 235.656 125.439 231.563 124.72 230.878ZM124.72 230.878C125.589 230.132 127.523 228.923 128.298 230.05" stroke="#3D8E53" stroke-width="0.5"/>
<path d="M123.083 230.623C122.816 230.672 122.499 230.732 122.151 230.803M117.662 232.599C118.432 231.849 119.824 231.364 121.099 231.042M121.099 231.042C120.575 231.445 119.637 232.327 120.08 232.63M121.099 231.042C121.465 230.95 121.822 230.871 122.151 230.803M122.151 230.803C121.627 230.577 120.747 229.997 121.423 229.485" stroke="#89E159" stroke-width="0.2"/>
<path d="M134.648 230.742C135.333 228.687 130.504 227.885 129.59 230.374C128.809 230.596 130.028 234.313 131.298 235.388C132.314 236.249 133.067 234.935 133.316 234.17C133.247 234.487 133.222 235.267 133.68 235.85C134.138 236.433 135.533 235.716 135.368 235.023C135.501 235.603 135.967 236.555 136.763 235.716C137.433 235.938 138.29 236.253 138.818 235.627C139.346 235.001 138.536 234.006 137.757 233.6C137.922 233.405 138.309 233.274 138.212 232.826C138.115 232.378 136.256 232.095 135.379 232.196C135.502 232.128 135.986 231.971 136.018 231.427C136.053 230.823 135.333 230.057 134.648 230.742Z" fill="#3D8E53"/>
<path d="M129.59 230.374C130.504 227.885 135.333 228.687 134.648 230.742C135.333 230.057 136.053 230.823 136.018 231.427C135.986 231.971 135.502 232.128 135.379 232.196C136.256 232.095 138.115 232.378 138.212 232.826C138.309 233.274 137.922 233.405 137.757 233.6C138.536 234.006 139.346 235.001 138.818 235.627C138.29 236.253 137.433 235.938 136.763 235.716C135.967 236.555 135.501 235.603 135.368 235.023C135.533 235.716 134.138 236.433 133.68 235.85C133.222 235.267 133.247 234.487 133.316 234.17C133.067 234.935 132.314 236.249 131.298 235.388C130.028 234.313 128.809 230.596 129.59 230.374ZM129.59 230.374C129.077 229.578 128.139 229.669 127.19 230.172" stroke="#3D8E53" stroke-width="0.5"/>
<path d="M131.764 231.45C131.924 231.538 132.115 231.643 132.323 231.761M134.837 233.743C134.49 233.172 133.697 232.595 132.947 232.131M132.947 232.131C133.203 232.463 133.341 232.954 133.359 233.475M132.947 232.131C132.731 231.997 132.519 231.873 132.323 231.761M132.323 231.761C132.7 231.766 133.37 231.668 133.038 231.244" stroke="#89E159" stroke-width="0.2"/>
<path d="M127.793 230.057C126.879 233.254 125.463 241.019 127.108 246.5" stroke="#3D8E53"/>
<path d="M58.1573 126.184C57.4687 123.076 62.8194 124.246 62.7195 127.878C63.4387 128.563 60.6032 132.656 58.8289 133.368C57.4094 133.937 57.1806 131.88 57.2437 130.781C57.1824 131.219 56.8793 132.223 56.1569 132.727C55.4345 133.232 54.1469 131.853 54.7502 130.807C54.1469 131.853 54.832 131.168 54.0264 132.104C52.9917 133.306 52.7046 131.841 53.0074 130.969C52.2165 130.906 51.1932 130.864 50.9077 129.797C50.6222 128.73 51.8841 127.884 52.8658 127.77C52.7765 127.436 52.4297 127.071 52.7195 126.552C53.0093 126.032 55.0618 126.631 55.9314 127.211C55.8317 127.061 55.6868 126.564 55.9052 125.778C56.1236 124.992 57.3069 125.898 58.1573 126.184Z" fill="#3D8E53"/>
<path d="M62.7195 127.878C62.8194 124.246 57.4687 123.076 58.1573 126.184C57.3069 125.898 56.1236 124.992 55.9052 125.778C55.6868 126.564 55.8317 127.061 55.9314 127.211C55.0618 126.631 53.0093 126.032 52.7195 126.552C52.4297 127.071 52.7765 127.436 52.8658 127.77C51.8841 127.884 50.6222 128.73 50.9077 129.797C51.1932 130.864 52.2165 130.906 53.0074 130.969C52.7046 131.841 52.9917 133.306 54.0264 132.104C54.832 131.168 54.1469 131.853 54.7502 130.807C54.1469 131.853 55.4345 133.232 56.1569 132.727C56.8793 132.223 57.1824 131.219 57.2437 130.781C57.1806 131.88 57.4094 133.937 58.8289 133.368C60.6032 132.656 63.4387 128.563 62.7195 127.878ZM62.7195 127.878C63.5893 127.132 65.5228 125.923 66.298 127.05" stroke="#3D8E53" stroke-width="0.5"/>
<path d="M61.0828 127.623C60.8163 127.672 60.499 127.732 60.1514 127.803M55.6616 129.599C56.4318 128.849 57.824 128.364 59.0992 128.042M59.0992 128.042C58.575 128.445 57.6373 129.327 58.0799 129.63M59.0992 128.042C59.4654 127.95 59.822 127.871 60.1514 127.803M60.1514 127.803C59.6268 127.577 58.7465 126.997 59.423 126.485" stroke="#89E159" stroke-width="0.2"/>
<path d="M72.6482 127.742C73.3327 125.687 68.5039 124.885 67.5905 127.374C66.8088 127.596 68.028 131.313 69.298 132.388C70.314 133.249 71.0669 131.935 71.3163 131.17C71.2466 131.487 71.2218 132.267 71.6799 132.85C72.1381 133.433 73.5332 132.716 73.368 132.023C73.5015 132.603 73.9673 133.555 74.7627 132.716C75.4332 132.938 76.2895 133.253 76.8179 132.627C77.3463 132.001 76.5363 131.006 75.757 130.6C75.9221 130.405 76.3087 130.274 76.2117 129.826C76.1148 129.378 74.2557 129.095 73.3786 129.196C73.5022 129.128 73.9862 128.971 74.0178 128.427C74.0529 127.823 73.3327 127.057 72.6482 127.742Z" fill="#3D8E53"/>
<path d="M67.5905 127.374C68.5039 124.885 73.3327 125.687 72.6482 127.742C73.3327 127.057 74.0529 127.823 74.0178 128.427C73.9862 128.971 73.5022 129.128 73.3786 129.196C74.2557 129.095 76.1148 129.378 76.2117 129.826C76.3087 130.274 75.9221 130.405 75.757 130.6C76.5363 131.006 77.3463 132.001 76.8179 132.627C76.2895 133.253 75.4332 132.938 74.7627 132.716C73.9673 133.555 73.5015 132.603 73.368 132.023C73.5332 132.716 72.1381 133.433 71.6799 132.85C71.2218 132.267 71.2466 131.487 71.3163 131.17C71.0669 131.935 70.314 133.249 69.298 132.388C68.028 131.313 66.8088 127.596 67.5905 127.374ZM67.5905 127.374C67.0767 126.578 66.1394 126.669 65.1901 127.172" stroke="#3D8E53" stroke-width="0.5"/>
<path d="M69.7643 128.45C69.9244 128.538 70.115 128.643 70.3225 128.761M72.837 130.743C72.4901 130.172 71.6967 129.595 70.9465 129.131M70.9465 129.131C71.2032 129.463 71.3408 129.954 71.3586 130.475M70.9465 129.131C70.7311 128.997 70.5192 128.873 70.3225 128.761M70.3225 128.761C70.6995 128.766 71.3703 128.668 71.0376 128.244" stroke="#89E159" stroke-width="0.2"/>
<path d="M65.7929 127.057C64.8794 130.254 63.4634 138.019 65.1077 143.5" stroke="#3D8E53"/>
<path d="M114.157 159.184C113.469 156.076 118.819 157.246 118.72 160.878C119.439 161.563 116.603 165.656 114.829 166.368C113.409 166.937 113.181 164.88 113.244 163.781C113.182 164.219 112.879 165.223 112.157 165.727C111.435 166.232 110.147 164.853 110.75 163.807C110.147 164.853 110.832 164.168 110.026 165.104C108.992 166.306 108.705 164.841 109.007 163.969C108.216 163.906 107.193 163.864 106.908 162.797C106.622 161.73 107.884 160.884 108.866 160.77C108.777 160.436 108.43 160.071 108.719 159.552C109.009 159.032 111.062 159.631 111.931 160.211C111.832 160.061 111.687 159.564 111.905 158.778C112.124 157.992 113.307 158.898 114.157 159.184Z" fill="#F68561"/>
<path d="M118.72 160.878C118.819 157.246 113.469 156.076 114.157 159.184C113.307 158.898 112.124 157.992 111.905 158.778C111.687 159.564 111.832 160.061 111.931 160.211C111.062 159.631 109.009 159.032 108.719 159.552C108.43 160.071 108.777 160.436 108.866 160.77C107.884 160.884 106.622 161.73 106.908 162.797C107.193 163.864 108.216 163.906 109.007 163.969C108.705 164.841 108.992 166.306 110.026 165.104C110.832 164.168 110.147 164.853 110.75 163.807C110.147 164.853 111.435 166.232 112.157 165.727C112.879 165.223 113.182 164.219 113.244 163.781C113.181 164.88 113.409 166.937 114.829 166.368C116.603 165.656 119.439 161.563 118.72 160.878ZM118.72 160.878C119.589 160.132 121.523 158.923 122.298 160.05" stroke="#F68561" stroke-width="0.5"/>
<path d="M117.083 160.623C116.816 160.672 116.499 160.732 116.151 160.803M111.662 162.599C112.432 161.849 113.824 161.364 115.099 161.042M115.099 161.042C114.575 161.445 113.637 162.327 114.08 162.63M115.099 161.042C115.465 160.95 115.822 160.871 116.151 160.803M116.151 160.803C115.627 160.577 114.747 159.997 115.423 159.485" stroke="#89E159" stroke-width="0.2"/>
<path d="M128.648 160.742C129.333 158.687 124.504 157.885 123.59 160.374C122.809 160.596 124.028 164.313 125.298 165.388C126.314 166.249 127.067 164.935 127.316 164.17C127.247 164.487 127.222 165.267 127.68 165.85C128.138 166.433 129.533 165.716 129.368 165.023C129.501 165.603 129.967 166.555 130.763 165.716C131.433 165.938 132.29 166.253 132.818 165.627C133.346 165.001 132.536 164.006 131.757 163.6C131.922 163.405 132.309 163.274 132.212 162.826C132.115 162.378 130.256 162.095 129.379 162.196C129.502 162.128 129.986 161.971 130.018 161.427C130.053 160.823 129.333 160.057 128.648 160.742Z" fill="#F68561"/>
<path d="M123.59 160.374C124.504 157.885 129.333 158.687 128.648 160.742C129.333 160.057 130.053 160.823 130.018 161.427C129.986 161.971 129.502 162.128 129.379 162.196C130.256 162.095 132.115 162.378 132.212 162.826C132.309 163.274 131.922 163.405 131.757 163.6C132.536 164.006 133.346 165.001 132.818 165.627C132.29 166.253 131.433 165.938 130.763 165.716C129.967 166.555 129.501 165.603 129.368 165.023C129.533 165.716 128.138 166.433 127.68 165.85C127.222 165.267 127.247 164.487 127.316 164.17C127.067 164.935 126.314 166.249 125.298 165.388C124.028 164.313 122.809 160.596 123.59 160.374ZM123.59 160.374C123.077 159.578 122.139 159.669 121.19 160.172" stroke="#F68561" stroke-width="0.5"/>
<path d="M125.764 161.45C125.924 161.538 126.115 161.643 126.323 161.761M128.837 163.743C128.49 163.172 127.697 162.595 126.947 162.131M126.947 162.131C127.203 162.463 127.341 162.954 127.359 163.475M126.947 162.131C126.731 161.997 126.519 161.873 126.323 161.761M126.323 161.761C126.7 161.766 127.37 161.668 127.038 161.244" stroke="#89E159" stroke-width="0.2"/>
<path d="M121.793 160.057C120.879 163.254 119.463 171.019 121.108 176.5" stroke="#F68561"/>
<path d="M179.157 197.184C178.469 194.076 183.819 195.246 183.72 198.878C184.439 199.563 181.603 203.656 179.829 204.368C178.409 204.937 178.181 202.88 178.244 201.781C178.182 202.219 177.879 203.223 177.157 203.727C176.435 204.232 175.147 202.853 175.75 201.807C175.147 202.853 175.832 202.168 175.026 203.104C173.992 204.306 173.705 202.841 174.007 201.969C173.216 201.906 172.193 201.864 171.908 200.797C171.622 199.73 172.884 198.884 173.866 198.77C173.777 198.436 173.43 198.071 173.719 197.552C174.009 197.032 176.062 197.631 176.931 198.211C176.832 198.061 176.687 197.564 176.905 196.778C177.124 195.992 178.307 196.898 179.157 197.184Z" fill="#3D8E53"/>
<path d="M183.72 198.878C183.819 195.246 178.469 194.076 179.157 197.184C178.307 196.898 177.124 195.992 176.905 196.778C176.687 197.564 176.832 198.061 176.931 198.211C176.062 197.631 174.009 197.032 173.719 197.552C173.43 198.071 173.777 198.436 173.866 198.77C172.884 198.884 171.622 199.73 171.908 200.797C172.193 201.864 173.216 201.906 174.007 201.969C173.705 202.841 173.992 204.306 175.026 203.104C175.832 202.168 175.147 202.853 175.75 201.807C175.147 202.853 176.435 204.232 177.157 203.727C177.879 203.223 178.182 202.219 178.244 201.781C178.181 202.88 178.409 204.937 179.829 204.368C181.603 203.656 184.439 199.563 183.72 198.878ZM183.72 198.878C184.589 198.132 186.523 196.923 187.298 198.05" stroke="#3D8E53" stroke-width="0.5"/>
<path d="M182.083 198.623C181.816 198.672 181.499 198.732 181.151 198.803M176.662 200.599C177.432 199.849 178.824 199.364 180.099 199.042M180.099 199.042C179.575 199.445 178.637 200.327 179.08 200.63M180.099 199.042C180.465 198.95 180.822 198.871 181.151 198.803M181.151 198.803C180.627 198.577 179.747 197.997 180.423 197.485" stroke="#89E159" stroke-width="0.2"/>
<path d="M193.648 198.742C194.333 196.687 189.504 195.885 188.59 198.374C187.809 198.596 189.028 202.313 190.298 203.388C191.314 204.249 192.067 202.935 192.316 202.17C192.247 202.487 192.222 203.267 192.68 203.85C193.138 204.433 194.533 203.716 194.368 203.023C194.501 203.603 194.967 204.555 195.763 203.716C196.433 203.938 197.29 204.253 197.818 203.627C198.346 203.001 197.536 202.006 196.757 201.6C196.922 201.405 197.309 201.274 197.212 200.826C197.115 200.378 195.256 200.095 194.379 200.196C194.502 200.128 194.986 199.971 195.018 199.427C195.053 198.823 194.333 198.057 193.648 198.742Z" fill="#3D8E53"/>
<path d="M188.59 198.374C189.504 195.885 194.333 196.687 193.648 198.742C194.333 198.057 195.053 198.823 195.018 199.427C194.986 199.971 194.502 200.128 194.379 200.196C195.256 200.095 197.115 200.378 197.212 200.826C197.309 201.274 196.922 201.405 196.757 201.6C197.536 202.006 198.346 203.001 197.818 203.627C197.29 204.253 196.433 203.938 195.763 203.716C194.967 204.555 194.501 203.603 194.368 203.023C194.533 203.716 193.138 204.433 192.68 203.85C192.222 203.267 192.247 202.487 192.316 202.17C192.067 202.935 191.314 204.249 190.298 203.388C189.028 202.313 187.809 198.596 188.59 198.374ZM188.59 198.374C188.077 197.578 187.139 197.669 186.19 198.172" stroke="#3D8E53" stroke-width="0.5"/>
<path d="M190.764 199.45C190.924 199.538 191.115 199.643 191.323 199.761M193.837 201.743C193.49 201.172 192.697 200.595 191.947 200.131M191.947 200.131C192.203 200.463 192.341 200.954 192.359 201.475M191.947 200.131C191.731 199.997 191.519 199.873 191.323 199.761M191.323 199.761C191.7 199.766 192.37 199.668 192.038 199.244" stroke="#89E159" stroke-width="0.2"/>
<path d="M186.793 198.057C185.879 201.254 184.463 209.019 186.108 214.5" stroke="#3D8E53"/>
<path d="M33.1573 145.184C32.4687 142.076 37.8194 143.246 37.7195 146.878C38.4387 147.563 35.6032 151.656 33.8289 152.368C32.4094 152.937 32.1806 150.88 32.2437 149.781C32.1824 150.219 31.8793 151.223 31.1569 151.727C30.4345 152.232 29.1469 150.853 29.7502 149.807C29.1469 150.853 29.832 150.168 29.0264 151.104C27.9917 152.306 27.7046 150.841 28.0074 149.969C27.2165 149.906 26.1932 149.864 25.9077 148.797C25.6222 147.73 26.8841 146.884 27.8658 146.77C27.7765 146.436 27.4297 146.071 27.7195 145.552C28.0093 145.032 30.0618 145.631 30.9314 146.211C30.8317 146.061 30.6868 145.564 30.9052 144.778C31.1236 143.992 32.3069 144.898 33.1573 145.184Z" fill="#F68561"/>
<path d="M37.7195 146.878C37.8194 143.246 32.4687 142.076 33.1573 145.184C32.3069 144.898 31.1236 143.992 30.9052 144.778C30.6868 145.564 30.8317 146.061 30.9314 146.211C30.0618 145.631 28.0093 145.032 27.7195 145.552C27.4297 146.071 27.7765 146.436 27.8658 146.77C26.8841 146.884 25.6222 147.73 25.9077 148.797C26.1932 149.864 27.2165 149.906 28.0074 149.969C27.7046 150.841 27.9917 152.306 29.0264 151.104C29.832 150.168 29.1469 150.853 29.7502 149.807C29.1469 150.853 30.4345 152.232 31.1569 151.727C31.8793 151.223 32.1824 150.219 32.2437 149.781C32.1806 150.88 32.4094 152.937 33.8289 152.368C35.6032 151.656 38.4387 147.563 37.7195 146.878ZM37.7195 146.878C38.5893 146.132 40.5228 144.923 41.298 146.05" stroke="#F68561" stroke-width="0.5"/>
<path d="M36.0828 146.623C35.8163 146.672 35.499 146.732 35.1514 146.803M30.6616 148.599C31.4318 147.849 32.824 147.364 34.0992 147.042M34.0992 147.042C33.575 147.445 32.6373 148.327 33.0799 148.63M34.0992 147.042C34.4654 146.95 34.822 146.871 35.1514 146.803M35.1514 146.803C34.6268 146.577 33.7465 145.997 34.423 145.485" stroke="#89E159" stroke-width="0.2"/>
<path d="M47.6482 146.742C48.3327 144.687 43.5039 143.885 42.5905 146.374C41.8088 146.596 43.028 150.313 44.298 151.388C45.314 152.249 46.0669 150.935 46.3163 150.17C46.2466 150.487 46.2218 151.267 46.6799 151.85C47.1381 152.433 48.5332 151.716 48.368 151.023C48.5015 151.603 48.9673 152.555 49.7627 151.716C50.4332 151.938 51.2895 152.253 51.8179 151.627C52.3463 151.001 51.5363 150.006 50.757 149.6C50.9221 149.405 51.3087 149.274 51.2117 148.826C51.1148 148.378 49.2557 148.095 48.3786 148.196C48.5022 148.128 48.9862 147.971 49.0178 147.427C49.0529 146.823 48.3327 146.057 47.6482 146.742Z" fill="#F68561"/>
<path d="M42.5905 146.374C43.5039 143.885 48.3327 144.687 47.6482 146.742C48.3327 146.057 49.0529 146.823 49.0178 147.427C48.9862 147.971 48.5022 148.128 48.3786 148.196C49.2557 148.095 51.1148 148.378 51.2117 148.826C51.3087 149.274 50.9221 149.405 50.757 149.6C51.5363 150.006 52.3463 151.001 51.8179 151.627C51.2895 152.253 50.4332 151.938 49.7627 151.716C48.9673 152.555 48.5015 151.603 48.368 151.023C48.5332 151.716 47.1381 152.433 46.6799 151.85C46.2218 151.267 46.2466 150.487 46.3163 150.17C46.0669 150.935 45.314 152.249 44.298 151.388C43.028 150.313 41.8088 146.596 42.5905 146.374ZM42.5905 146.374C42.0767 145.578 41.1394 145.669 40.1901 146.172" stroke="#F68561" stroke-width="0.5"/>
<path d="M44.7643 147.45C44.9244 147.538 45.115 147.643 45.3225 147.761M47.837 149.743C47.4901 149.172 46.6967 148.595 45.9465 148.131M45.9465 148.131C46.2032 148.463 46.3408 148.954 46.3586 149.475M45.9465 148.131C45.7311 147.997 45.5192 147.873 45.3225 147.761M45.3225 147.761C45.6995 147.766 46.3703 147.668 46.0376 147.244" stroke="#89E159" stroke-width="0.2"/>
<path d="M40.7929 146.057C39.8794 149.254 38.4634 157.019 40.1077 162.5" stroke="#F68561"/>
<path d="M89.1573 177.184C88.4687 174.076 93.8194 175.246 93.7195 178.878C94.4387 179.563 91.6032 183.656 89.8289 184.368C88.4094 184.937 88.1806 182.88 88.2437 181.781C88.1824 182.219 87.8793 183.223 87.1569 183.727C86.4345 184.232 85.1469 182.853 85.7502 181.807C85.1469 182.853 85.832 182.168 85.0264 183.104C83.9917 184.306 83.7046 182.841 84.0074 181.969C83.2165 181.906 82.1932 181.864 81.9077 180.797C81.6222 179.73 82.8841 178.884 83.8658 178.77C83.7765 178.436 83.4297 178.071 83.7195 177.552C84.0093 177.032 86.0618 177.631 86.9314 178.211C86.8317 178.061 86.6868 177.564 86.9052 176.778C87.1236 175.992 88.3069 176.898 89.1573 177.184Z" fill="#3D8E53"/>
<path d="M93.7195 178.878C93.8194 175.246 88.4687 174.076 89.1573 177.184C88.3069 176.898 87.1236 175.992 86.9052 176.778C86.6868 177.564 86.8317 178.061 86.9314 178.211C86.0618 177.631 84.0093 177.032 83.7195 177.552C83.4297 178.071 83.7765 178.436 83.8658 178.77C82.8841 178.884 81.6222 179.73 81.9077 180.797C82.1932 181.864 83.2165 181.906 84.0074 181.969C83.7046 182.841 83.9917 184.306 85.0264 183.104C85.832 182.168 85.1469 182.853 85.7502 181.807C85.1469 182.853 86.4345 184.232 87.1569 183.727C87.8793 183.223 88.1824 182.219 88.2437 181.781C88.1806 182.88 88.4094 184.937 89.8289 184.368C91.6032 183.656 94.4387 179.563 93.7195 178.878ZM93.7195 178.878C94.5893 178.132 96.5228 176.923 97.298 178.05" stroke="#3D8E53" stroke-width="0.5"/>
<path d="M92.0828 178.623C91.8163 178.672 91.499 178.732 91.1514 178.803M86.6616 180.599C87.4318 179.849 88.824 179.364 90.0992 179.042M90.0992 179.042C89.575 179.445 88.6373 180.327 89.0799 180.63M90.0992 179.042C90.4654 178.95 90.822 178.871 91.1514 178.803M91.1514 178.803C90.6268 178.577 89.7465 177.997 90.423 177.485" stroke="#89E159" stroke-width="0.2"/>
<path d="M103.648 178.742C104.333 176.687 99.5039 175.885 98.5905 178.374C97.8088 178.596 99.028 182.313 100.298 183.388C101.314 184.249 102.067 182.935 102.316 182.17C102.247 182.487 102.222 183.267 102.68 183.85C103.138 184.433 104.533 183.716 104.368 183.023C104.501 183.603 104.967 184.555 105.763 183.716C106.433 183.938 107.29 184.253 107.818 183.627C108.346 183.001 107.536 182.006 106.757 181.6C106.922 181.405 107.309 181.274 107.212 180.826C107.115 180.378 105.256 180.095 104.379 180.196C104.502 180.128 104.986 179.971 105.018 179.427C105.053 178.823 104.333 178.057 103.648 178.742Z" fill="#3D8E53"/>
<path d="M98.5905 178.374C99.5039 175.885 104.333 176.687 103.648 178.742C104.333 178.057 105.053 178.823 105.018 179.427C104.986 179.971 104.502 180.128 104.379 180.196C105.256 180.095 107.115 180.378 107.212 180.826C107.309 181.274 106.922 181.405 106.757 181.6C107.536 182.006 108.346 183.001 107.818 183.627C107.29 184.253 106.433 183.938 105.763 183.716C104.967 184.555 104.501 183.603 104.368 183.023C104.533 183.716 103.138 184.433 102.68 183.85C102.222 183.267 102.247 182.487 102.316 182.17C102.067 182.935 101.314 184.249 100.298 183.388C99.028 182.313 97.8088 178.596 98.5905 178.374ZM98.5905 178.374C98.0767 177.578 97.1394 177.669 96.1901 178.172" stroke="#3D8E53" stroke-width="0.5"/>
<path d="M100.764 179.45C100.924 179.538 101.115 179.643 101.323 179.761M103.837 181.743C103.49 181.172 102.697 180.595 101.947 180.131M101.947 180.131C102.203 180.463 102.341 180.954 102.359 181.475M101.947 180.131C101.731 179.997 101.519 179.873 101.323 179.761M101.323 179.761C101.7 179.766 102.37 179.668 102.038 179.244" stroke="#89E159" stroke-width="0.2"/>
<path d="M96.7929 178.057C95.8794 181.254 94.4634 189.019 96.1077 194.5" stroke="#3D8E53"/>
<path d="M153.157 216.184C152.469 213.076 157.819 214.246 157.72 217.878C158.439 218.563 155.603 222.656 153.829 223.368C152.409 223.937 152.181 221.88 152.244 220.781C152.182 221.219 151.879 222.223 151.157 222.727C150.435 223.232 149.147 221.853 149.75 220.807C149.147 221.853 149.832 221.168 149.026 222.104C147.992 223.306 147.705 221.841 148.007 220.969C147.216 220.906 146.193 220.864 145.908 219.797C145.622 218.73 146.884 217.884 147.866 217.77C147.777 217.436 147.43 217.071 147.719 216.552C148.009 216.032 150.062 216.631 150.931 217.211C150.832 217.061 150.687 216.564 150.905 215.778C151.124 214.992 152.307 215.898 153.157 216.184Z" fill="#F68561"/>
<path d="M157.72 217.878C157.819 214.246 152.469 213.076 153.157 216.184C152.307 215.898 151.124 214.992 150.905 215.778C150.687 216.564 150.832 217.061 150.931 217.211C150.062 216.631 148.009 216.032 147.719 216.552C147.43 217.071 147.777 217.436 147.866 217.77C146.884 217.884 145.622 218.73 145.908 219.797C146.193 220.864 147.216 220.906 148.007 220.969C147.705 221.841 147.992 223.306 149.026 222.104C149.832 221.168 149.147 221.853 149.75 220.807C149.147 221.853 150.435 223.232 151.157 222.727C151.879 222.223 152.182 221.219 152.244 220.781C152.181 221.88 152.409 223.937 153.829 223.368C155.603 222.656 158.439 218.563 157.72 217.878ZM157.72 217.878C158.589 217.132 160.523 215.923 161.298 217.05" stroke="#F68561" stroke-width="0.5"/>
<path d="M156.083 217.623C155.816 217.672 155.499 217.732 155.151 217.803M150.662 219.599C151.432 218.849 152.824 218.364 154.099 218.042M154.099 218.042C153.575 218.445 152.637 219.327 153.08 219.63M154.099 218.042C154.465 217.95 154.822 217.871 155.151 217.803M155.151 217.803C154.627 217.577 153.747 216.997 154.423 216.485" stroke="#89E159" stroke-width="0.2"/>
<path d="M167.648 217.742C168.333 215.687 163.504 214.885 162.59 217.374C161.809 217.596 163.028 221.313 164.298 222.388C165.314 223.249 166.067 221.935 166.316 221.17C166.247 221.487 166.222 222.267 166.68 222.85C167.138 223.433 168.533 222.716 168.368 222.023C168.501 222.603 168.967 223.555 169.763 222.716C170.433 222.938 171.29 223.253 171.818 222.627C172.346 222.001 171.536 221.006 170.757 220.6C170.922 220.405 171.309 220.274 171.212 219.826C171.115 219.378 169.256 219.095 168.379 219.196C168.502 219.128 168.986 218.971 169.018 218.427C169.053 217.823 168.333 217.057 167.648 217.742Z" fill="#F68561"/>
<path d="M162.59 217.374C163.504 214.885 168.333 215.687 167.648 217.742C168.333 217.057 169.053 217.823 169.018 218.427C168.986 218.971 168.502 219.128 168.379 219.196C169.256 219.095 171.115 219.378 171.212 219.826C171.309 220.274 170.922 220.405 170.757 220.6C171.536 221.006 172.346 222.001 171.818 222.627C171.29 223.253 170.433 222.938 169.763 222.716C168.967 223.555 168.501 222.603 168.368 222.023C168.533 222.716 167.138 223.433 166.68 222.85C166.222 222.267 166.247 221.487 166.316 221.17C166.067 221.935 165.314 223.249 164.298 222.388C163.028 221.313 161.809 217.596 162.59 217.374ZM162.59 217.374C162.077 216.578 161.139 216.669 160.19 217.172" stroke="#F68561" stroke-width="0.5"/>
<path d="M164.764 218.45C164.924 218.538 165.115 218.643 165.323 218.761M167.837 220.743C167.49 220.172 166.697 219.595 165.947 219.131M165.947 219.131C166.203 219.463 166.341 219.954 166.359 220.475M165.947 219.131C165.731 218.997 165.519 218.873 165.323 218.761M165.323 218.761C165.7 218.766 166.37 218.668 166.038 218.244" stroke="#89E159" stroke-width="0.2"/>
<path d="M160.793 217.057C159.879 220.254 158.463 228.019 160.108 233.5" stroke="#F68561"/>
<path d="M619.224 179.68C618.689 181.607 621.448 186.004 622.439 186.798C623.358 187.226 627.079 188.777 629.184 188.669C631.816 188.534 631.957 186.152 631.698 185.215C632.314 184.867 633.528 183.855 633.464 182.592C633.399 181.329 631.893 180.772 630.84 180.826C631.617 180.523 632.877 178.047 630.464 176.571C627.359 174.672 626.958 176.117 625.593 177.295C624.549 175.449 622.895 175.166 622.488 175.397C621.257 176.093 621.953 177.324 621.552 178.769C620.455 178.984 619.562 178.461 619.224 179.68Z" fill="#3D8E53"/>
<path d="M619.5 193.5L622.439 186.798M622.439 186.798C621.448 186.004 618.689 181.607 619.224 179.68C619.562 178.461 620.455 178.984 621.552 178.769C621.953 177.324 621.257 176.093 622.488 175.397C622.895 175.166 624.549 175.449 625.593 177.295C626.958 176.117 627.359 174.672 630.464 176.571C632.877 178.047 631.617 180.523 630.84 180.826C631.893 180.772 633.399 181.329 633.464 182.592C633.528 183.855 632.314 184.867 631.698 185.215C631.957 186.152 631.816 188.534 629.184 188.669C627.079 188.777 623.358 187.226 622.439 186.798Z" stroke="#3D8E53"/>
<path d="M623.822 190.443C623.218 190.899 623.036 192.856 623.152 193.322C623.329 193.662 624.091 194.984 624.749 195.436C625.571 196 626.161 195.317 626.299 194.976C626.564 195.013 627.162 194.988 627.433 194.593C627.704 194.198 627.379 193.685 627.051 193.459C627.354 193.546 628.302 193.092 627.916 192.093C627.419 190.808 626.966 191.151 626.285 191.191C626.396 190.396 625.964 189.93 625.788 189.906C625.258 189.832 625.184 190.362 624.731 190.704C624.352 190.517 624.204 190.154 623.822 190.443Z" fill="#3D8E53"/>
<path d="M623.152 193.322C623.036 192.856 623.218 190.899 623.822 190.443C624.204 190.154 624.352 190.517 624.731 190.704C625.184 190.362 625.258 189.832 625.788 189.906C625.964 189.93 626.396 190.396 626.285 191.191C626.966 191.151 627.419 190.808 627.916 192.093C628.302 193.092 627.354 193.546 627.051 193.459C627.379 193.685 627.704 194.198 627.433 194.593C627.162 194.988 626.564 195.013 626.299 194.976C626.161 195.317 625.571 196 624.749 195.436C624.091 194.984 623.329 193.662 623.152 193.322ZM623.152 193.322C622.641 193.213 620.472 192.954 618.999 193.322" stroke="#3D8E53"/>
<path d="M623.187 185.968L623.88 177.858M623.187 185.968L628.965 178.231M623.187 185.968L630.606 182.837M623.187 185.968L629.236 186.608M623.187 185.968L621.714 181.927" stroke="#89E159" stroke-width="0.5"/>
<path d="M617.845 181.785C618.625 182.981 617.79 186.509 617.315 187.245C616.807 187.719 614.706 189.514 613.299 189.863C611.539 190.299 610.916 188.715 610.878 188.03C610.396 187.918 609.373 187.476 609.134 186.608C608.896 185.741 609.762 185.063 610.466 184.888C609.888 184.838 608.509 183.416 609.767 181.934C611.385 180.026 611.97 180.924 613.129 181.448C613.405 179.989 614.428 179.466 614.748 179.54C615.711 179.765 615.527 180.737 616.113 181.635C616.881 181.56 617.352 181.028 617.845 181.785Z" fill="#3D8E53"/>
<path d="M619.555 193.414L617.315 187.245M617.315 187.245C617.79 186.509 618.625 182.981 617.845 181.785C617.352 181.028 616.881 181.56 616.113 181.635C615.527 180.737 615.711 179.765 614.748 179.54C614.428 179.466 613.405 179.989 613.129 181.448C611.97 180.924 611.385 180.026 609.767 181.934C608.509 183.416 609.888 184.838 610.466 184.888C609.762 185.063 608.896 185.741 609.134 186.608C609.373 187.476 610.396 187.918 610.878 188.03C610.916 188.715 611.539 190.299 613.299 189.863C614.706 189.514 616.807 187.719 617.315 187.245Z" stroke="#3D8E53"/>
<path d="M616.638 186.833L614.379 181.485M616.638 186.833L611.119 182.756M616.638 186.833L611.065 186.201M616.638 186.833L612.805 188.478M616.638 186.833L616.707 183.804" stroke="#89E159" stroke-width="0.5"/>
<path d="M561.224 213.68C560.689 215.607 563.448 220.004 564.439 220.798C565.358 221.226 569.079 222.777 571.184 222.669C573.816 222.534 573.957 220.152 573.698 219.215C574.314 218.867 575.528 217.855 575.464 216.592C575.399 215.329 573.893 214.772 572.84 214.826C573.617 214.523 574.877 212.047 572.464 210.571C569.359 208.672 568.958 210.117 567.593 211.295C566.549 209.449 564.895 209.166 564.488 209.397C563.257 210.093 563.953 211.324 563.552 212.769C562.455 212.984 561.562 212.461 561.224 213.68Z" fill="#F68561"/>
<path d="M561.5 227.5L564.439 220.798M564.439 220.798C563.448 220.004 560.689 215.607 561.224 213.68C561.562 212.461 562.455 212.984 563.552 212.769C563.953 211.324 563.257 210.093 564.488 209.397C564.895 209.166 566.549 209.449 567.593 211.295C568.958 210.117 569.359 208.672 572.464 210.571C574.877 212.047 573.617 214.523 572.84 214.826C573.893 214.772 575.399 215.329 575.464 216.592C575.528 217.855 574.314 218.867 573.698 219.215C573.957 220.152 573.816 222.534 571.184 222.669C569.079 222.777 565.358 221.226 564.439 220.798Z" stroke="#F68561"/>
<path d="M565.822 224.443C565.218 224.899 565.036 226.856 565.152 227.322C565.329 227.662 566.091 228.984 566.749 229.436C567.571 230 568.161 229.317 568.299 228.976C568.564 229.013 569.162 228.988 569.433 228.593C569.704 228.198 569.379 227.685 569.051 227.459C569.354 227.546 570.302 227.092 569.916 226.093C569.419 224.808 568.966 225.151 568.285 225.191C568.396 224.396 567.964 223.93 567.788 223.906C567.258 223.832 567.184 224.362 566.731 224.704C566.352 224.517 566.204 224.154 565.822 224.443Z" fill="#F68561"/>
<path d="M565.152 227.322C565.036 226.856 565.218 224.899 565.822 224.443C566.204 224.154 566.352 224.517 566.731 224.704C567.184 224.362 567.258 223.832 567.788 223.906C567.964 223.93 568.396 224.396 568.285 225.191C568.966 225.151 569.419 224.808 569.916 226.093C570.302 227.092 569.354 227.546 569.051 227.459C569.379 227.685 569.704 228.198 569.433 228.593C569.162 228.988 568.564 229.013 568.299 228.976C568.161 229.317 567.571 230 566.749 229.436C566.091 228.984 565.329 227.662 565.152 227.322ZM565.152 227.322C564.641 227.213 562.472 226.954 560.999 227.322" stroke="#F68561"/>
<path d="M565.187 219.968L565.88 211.858M565.187 219.968L570.965 212.231M565.187 219.968L572.606 216.837M565.187 219.968L571.236 220.608M565.187 219.968L563.714 215.927" stroke="#89E159" stroke-width="0.5"/>
<path d="M559.845 215.785C560.625 216.981 559.79 220.509 559.315 221.245C558.807 221.719 556.706 223.514 555.299 223.863C553.539 224.299 552.916 222.715 552.878 222.03C552.396 221.918 551.373 221.476 551.134 220.608C550.896 219.741 551.762 219.063 552.466 218.888C551.888 218.838 550.509 217.416 551.767 215.934C553.385 214.026 553.97 214.924 555.129 215.448C555.405 213.989 556.428 213.466 556.748 213.54C557.711 213.765 557.527 214.737 558.113 215.635C558.881 215.56 559.352 215.028 559.845 215.785Z" fill="#F68561"/>
<path d="M561.555 227.414L559.315 221.245M559.315 221.245C559.79 220.509 560.625 216.981 559.845 215.785C559.352 215.028 558.881 215.56 558.113 215.635C557.527 214.737 557.711 213.765 556.748 213.54C556.428 213.466 555.405 213.989 555.129 215.448C553.97 214.924 553.385 214.026 551.767 215.934C550.509 217.416 551.888 218.838 552.466 218.888C551.762 219.063 550.896 219.741 551.134 220.608C551.373 221.476 552.396 221.918 552.878 222.03C552.916 222.715 553.539 224.299 555.299 223.863C556.706 223.514 558.807 221.719 559.315 221.245Z" stroke="#F68561"/>
<path d="M558.638 220.833L556.379 215.485M558.638 220.833L553.119 216.756M558.638 220.833L553.065 220.201M558.638 220.833L554.805 222.478M558.638 220.833L558.707 217.804" stroke="#89E159" stroke-width="0.5"/>
<path d="M495.224 252.68C494.689 254.607 497.448 259.004 498.439 259.798C499.358 260.226 503.079 261.777 505.184 261.669C507.816 261.534 507.957 259.152 507.698 258.215C508.314 257.867 509.528 256.855 509.464 255.592C509.399 254.329 507.893 253.772 506.84 253.826C507.617 253.523 508.877 251.047 506.464 249.571C503.359 247.672 502.958 249.117 501.593 250.295C500.549 248.449 498.895 248.166 498.488 248.397C497.257 249.093 497.953 250.324 497.552 251.769C496.455 251.984 495.562 251.461 495.224 252.68Z" fill="#F68561"/>
<path d="M495.5 266.5L498.439 259.798M498.439 259.798C497.448 259.004 494.689 254.607 495.224 252.68C495.562 251.461 496.455 251.984 497.552 251.769C497.953 250.324 497.257 249.093 498.488 248.397C498.895 248.166 500.549 248.449 501.593 250.295C502.958 249.117 503.359 247.672 506.464 249.571C508.877 251.047 507.617 253.523 506.84 253.826C507.893 253.772 509.399 254.329 509.464 255.592C509.528 256.855 508.314 257.867 507.698 258.215C507.957 259.152 507.816 261.534 505.184 261.669C503.079 261.777 499.358 260.226 498.439 259.798Z" stroke="#F68561"/>
<path d="M499.822 263.443C499.218 263.899 499.036 265.856 499.152 266.322C499.329 266.662 500.091 267.984 500.749 268.436C501.571 269 502.161 268.317 502.299 267.976C502.564 268.013 503.162 267.988 503.433 267.593C503.704 267.198 503.379 266.685 503.051 266.459C503.354 266.546 504.302 266.092 503.916 265.093C503.419 263.808 502.966 264.151 502.285 264.191C502.396 263.396 501.964 262.93 501.788 262.906C501.258 262.832 501.184 263.362 500.731 263.704C500.352 263.517 500.204 263.154 499.822 263.443Z" fill="#F68561"/>
<path d="M499.152 266.322C499.036 265.856 499.218 263.899 499.822 263.443C500.204 263.154 500.352 263.517 500.731 263.704C501.184 263.362 501.258 262.832 501.788 262.906C501.964 262.93 502.396 263.396 502.285 264.191C502.966 264.151 503.419 263.808 503.916 265.093C504.302 266.092 503.354 266.546 503.051 266.459C503.379 266.685 503.704 267.198 503.433 267.593C503.162 267.988 502.564 268.013 502.299 267.976C502.161 268.317 501.571 269 500.749 268.436C500.091 267.984 499.329 266.662 499.152 266.322ZM499.152 266.322C498.641 266.213 496.472 265.954 494.999 266.322" stroke="#F68561"/>
<path d="M499.187 258.968L499.88 250.858M499.187 258.968L504.965 251.231M499.187 258.968L506.606 255.837M499.187 258.968L505.236 259.608M499.187 258.968L497.714 254.927" stroke="#89E159" stroke-width="0.5"/>
<path d="M493.845 254.785C494.625 255.981 493.79 259.509 493.315 260.245C492.807 260.719 490.706 262.514 489.299 262.863C487.539 263.299 486.916 261.715 486.878 261.03C486.396 260.918 485.373 260.476 485.134 259.608C484.896 258.741 485.762 258.063 486.466 257.888C485.888 257.838 484.509 256.416 485.767 254.934C487.385 253.026 487.97 253.924 489.129 254.448C489.405 252.989 490.428 252.466 490.748 252.54C491.711 252.765 491.527 253.737 492.113 254.635C492.881 254.56 493.352 254.028 493.845 254.785Z" fill="#F68561"/>
<path d="M495.555 266.414L493.315 260.245M493.315 260.245C493.79 259.509 494.625 255.981 493.845 254.785C493.352 254.028 492.881 254.56 492.113 254.635C491.527 253.737 491.711 252.765 490.748 252.54C490.428 252.466 489.405 252.989 489.129 254.448C487.97 253.924 487.385 253.026 485.767 254.934C484.509 256.416 485.888 257.838 486.466 257.888C485.762 258.063 484.896 258.741 485.134 259.608C485.373 260.476 486.396 260.918 486.878 261.03C486.916 261.715 487.539 263.299 489.299 262.863C490.706 262.514 492.807 260.719 493.315 260.245Z" stroke="#F68561"/>
<path d="M492.638 259.833L490.379 254.485M492.638 259.833L487.119 255.756M492.638 259.833L487.065 259.201M492.638 259.833L488.805 261.478M492.638 259.833L492.707 256.804" stroke="#89E159" stroke-width="0.5"/>
<path d="M567.224 140.68C566.689 142.607 569.448 147.004 570.439 147.798C571.358 148.226 575.079 149.777 577.184 149.669C579.816 149.534 579.957 147.152 579.698 146.215C580.314 145.867 581.528 144.855 581.464 143.592C581.399 142.329 579.893 141.772 578.84 141.826C579.617 141.523 580.877 139.047 578.464 137.571C575.359 135.672 574.958 137.117 573.593 138.295C572.549 136.449 570.895 136.166 570.488 136.397C569.257 137.093 569.953 138.324 569.552 139.769C568.455 139.984 567.562 139.461 567.224 140.68Z" fill="#F68561"/>
<path d="M567.5 154.5L570.439 147.798M570.439 147.798C569.448 147.004 566.689 142.607 567.224 140.68C567.562 139.461 568.455 139.984 569.552 139.769C569.953 138.324 569.257 137.093 570.488 136.397C570.895 136.166 572.549 136.449 573.593 138.295C574.958 137.117 575.359 135.672 578.464 137.571C580.877 139.047 579.617 141.523 578.84 141.826C579.893 141.772 581.399 142.329 581.464 143.592C581.528 144.855 580.314 145.867 579.698 146.215C579.957 147.152 579.816 149.534 577.184 149.669C575.079 149.777 571.358 148.226 570.439 147.798Z" stroke="#F68561"/>
<path d="M571.822 151.443C571.218 151.899 571.036 153.856 571.152 154.322C571.329 154.662 572.091 155.984 572.749 156.436C573.571 157 574.161 156.317 574.299 155.976C574.564 156.013 575.162 155.988 575.433 155.593C575.704 155.198 575.379 154.685 575.051 154.459C575.354 154.546 576.302 154.092 575.916 153.093C575.419 151.808 574.966 152.151 574.285 152.191C574.396 151.396 573.964 150.93 573.788 150.906C573.258 150.832 573.184 151.362 572.731 151.704C572.352 151.517 572.204 151.154 571.822 151.443Z" fill="#F68561"/>
<path d="M571.152 154.322C571.036 153.856 571.218 151.899 571.822 151.443C572.204 151.154 572.352 151.517 572.731 151.704C573.184 151.362 573.258 150.832 573.788 150.906C573.964 150.93 574.396 151.396 574.285 152.191C574.966 152.151 575.419 151.808 575.916 153.093C576.302 154.092 575.354 154.546 575.051 154.459C575.379 154.685 575.704 155.198 575.433 155.593C575.162 155.988 574.564 156.013 574.299 155.976C574.161 156.317 573.571 157 572.749 156.436C572.091 155.984 571.329 154.662 571.152 154.322ZM571.152 154.322C570.641 154.213 568.472 153.954 566.999 154.322" stroke="#F68561"/>
<path d="M571.187 146.968L571.88 138.858M571.187 146.968L576.965 139.231M571.187 146.968L578.606 143.837M571.187 146.968L577.236 147.608M571.187 146.968L569.714 142.927" stroke="#89E159" stroke-width="0.5"/>
<path d="M565.845 142.785C566.625 143.981 565.79 147.509 565.315 148.245C564.807 148.719 562.706 150.514 561.299 150.863C559.539 151.299 558.916 149.715 558.878 149.03C558.396 148.918 557.373 148.476 557.134 147.608C556.896 146.741 557.762 146.063 558.466 145.888C557.888 145.838 556.509 144.416 557.767 142.934C559.385 141.026 559.97 141.924 561.129 142.448C561.405 140.989 562.428 140.466 562.748 140.54C563.711 140.765 563.527 141.737 564.113 142.635C564.881 142.56 565.352 142.028 565.845 142.785Z" fill="#F68561"/>
<path d="M567.555 154.414L565.315 148.245M565.315 148.245C565.79 147.509 566.625 143.981 565.845 142.785C565.352 142.028 564.881 142.56 564.113 142.635C563.527 141.737 563.711 140.765 562.748 140.54C562.428 140.466 561.405 140.989 561.129 142.448C559.97 141.924 559.385 141.026 557.767 142.934C556.509 144.416 557.888 145.838 558.466 145.888C557.762 146.063 556.896 146.741 557.134 147.608C557.373 148.476 558.396 148.918 558.878 149.03C558.916 149.715 559.539 151.299 561.299 150.863C562.706 150.514 564.807 148.719 565.315 148.245Z" stroke="#F68561"/>
<path d="M564.638 147.833L562.379 142.485M564.638 147.833L559.119 143.756M564.638 147.833L559.065 147.201M564.638 147.833L560.805 149.478M564.638 147.833L564.707 144.804" stroke="#89E159" stroke-width="0.5"/>
<path d="M509.224 174.68C508.689 176.607 511.448 181.004 512.439 181.798C513.358 182.226 517.079 183.777 519.184 183.669C521.816 183.534 521.957 181.152 521.698 180.215C522.314 179.867 523.528 178.855 523.464 177.592C523.399 176.329 521.893 175.772 520.84 175.826C521.617 175.523 522.877 173.047 520.464 171.571C517.359 169.672 516.958 171.117 515.593 172.295C514.549 170.449 512.895 170.166 512.488 170.397C511.257 171.093 511.953 172.324 511.552 173.769C510.455 173.984 509.562 173.461 509.224 174.68Z" fill="#3D8E53"/>
<path d="M509.5 188.5L512.439 181.798M512.439 181.798C511.448 181.004 508.689 176.607 509.224 174.68C509.562 173.461 510.455 173.984 511.552 173.769C511.953 172.324 511.257 171.093 512.488 170.397C512.895 170.166 514.549 170.449 515.593 172.295C516.958 171.117 517.359 169.672 520.464 171.571C522.877 173.047 521.617 175.523 520.84 175.826C521.893 175.772 523.399 176.329 523.464 177.592C523.528 178.855 522.314 179.867 521.698 180.215C521.957 181.152 521.816 183.534 519.184 183.669C517.079 183.777 513.358 182.226 512.439 181.798Z" stroke="#3D8E53"/>
<path d="M513.822 185.443C513.218 185.899 513.036 187.856 513.152 188.322C513.329 188.662 514.091 189.984 514.749 190.436C515.571 191 516.161 190.317 516.299 189.976C516.564 190.013 517.162 189.988 517.433 189.593C517.704 189.198 517.379 188.685 517.051 188.459C517.354 188.546 518.302 188.092 517.916 187.093C517.419 185.808 516.966 186.151 516.285 186.191C516.396 185.396 515.964 184.93 515.788 184.906C515.258 184.832 515.184 185.362 514.731 185.704C514.352 185.517 514.204 185.154 513.822 185.443Z" fill="#3D8E53"/>
<path d="M513.152 188.322C513.036 187.856 513.218 185.899 513.822 185.443C514.204 185.154 514.352 185.517 514.731 185.704C515.184 185.362 515.258 184.832 515.788 184.906C515.964 184.93 516.396 185.396 516.285 186.191C516.966 186.151 517.419 185.808 517.916 187.093C518.302 188.092 517.354 188.546 517.051 188.459C517.379 188.685 517.704 189.198 517.433 189.593C517.162 189.988 516.564 190.013 516.299 189.976C516.161 190.317 515.571 191 514.749 190.436C514.091 189.984 513.329 188.662 513.152 188.322ZM513.152 188.322C512.641 188.213 510.472 187.954 508.999 188.322" stroke="#3D8E53"/>
<path d="M513.187 180.968L513.88 172.858M513.187 180.968L518.965 173.231M513.187 180.968L520.606 177.837M513.187 180.968L519.236 181.608M513.187 180.968L511.714 176.927" stroke="#89E159" stroke-width="0.5"/>
<path d="M507.845 176.785C508.625 177.981 507.79 181.509 507.315 182.245C506.807 182.719 504.706 184.514 503.299 184.863C501.539 185.299 500.916 183.715 500.878 183.03C500.396 182.918 499.373 182.476 499.134 181.608C498.896 180.741 499.762 180.063 500.466 179.888C499.888 179.838 498.509 178.416 499.767 176.934C501.385 175.026 501.97 175.924 503.129 176.448C503.405 174.989 504.428 174.466 504.748 174.54C505.711 174.765 505.527 175.737 506.113 176.635C506.881 176.56 507.352 176.028 507.845 176.785Z" fill="#3D8E53"/>
<path d="M509.555 188.414L507.315 182.245M507.315 182.245C507.79 181.509 508.625 177.981 507.845 176.785C507.352 176.028 506.881 176.56 506.113 176.635C505.527 175.737 505.711 174.765 504.748 174.54C504.428 174.466 503.405 174.989 503.129 176.448C501.97 175.924 501.385 175.026 499.767 176.934C498.509 178.416 499.888 179.838 500.466 179.888C499.762 180.063 498.896 180.741 499.134 181.608C499.373 182.476 500.396 182.918 500.878 183.03C500.916 183.715 501.539 185.299 503.299 184.863C504.706 184.514 506.807 182.719 507.315 182.245Z" stroke="#3D8E53"/>
<path d="M506.638 181.833L504.379 176.485M506.638 181.833L501.119 177.756M506.638 181.833L501.065 181.201M506.638 181.833L502.805 183.478M506.638 181.833L506.707 178.804" stroke="#89E159" stroke-width="0.5"/>
<path d="M442.224 213.68C441.689 215.607 444.448 220.004 445.439 220.798C446.358 221.226 450.079 222.777 452.184 222.669C454.816 222.534 454.957 220.152 454.698 219.215C455.314 218.867 456.528 217.855 456.464 216.592C456.399 215.329 454.893 214.772 453.84 214.826C454.617 214.523 455.877 212.047 453.464 210.571C450.359 208.672 449.958 210.117 448.593 211.295C447.549 209.449 445.895 209.166 445.488 209.397C444.257 210.093 444.953 211.324 444.552 212.769C443.455 212.984 442.562 212.461 442.224 213.68Z" fill="#3D8E53"/>
<path d="M442.5 227.5L445.439 220.798M445.439 220.798C444.448 220.004 441.689 215.607 442.224 213.68C442.562 212.461 443.455 212.984 444.552 212.769C444.953 211.324 444.257 210.093 445.488 209.397C445.895 209.166 447.549 209.449 448.593 211.295C449.958 210.117 450.359 208.672 453.464 210.571C455.877 212.047 454.617 214.523 453.84 214.826C454.893 214.772 456.399 215.329 456.464 216.592C456.528 217.855 455.314 218.867 454.698 219.215C454.957 220.152 454.816 222.534 452.184 222.669C450.079 222.777 446.358 221.226 445.439 220.798Z" stroke="#3D8E53"/>
<path d="M446.822 224.443C446.218 224.899 446.036 226.856 446.152 227.322C446.329 227.662 447.091 228.984 447.749 229.436C448.571 230 449.161 229.317 449.299 228.976C449.564 229.013 450.162 228.988 450.433 228.593C450.704 228.198 450.379 227.685 450.051 227.459C450.354 227.546 451.302 227.092 450.916 226.093C450.419 224.808 449.966 225.151 449.285 225.191C449.396 224.396 448.964 223.93 448.788 223.906C448.258 223.832 448.184 224.362 447.731 224.704C447.352 224.517 447.204 224.154 446.822 224.443Z" fill="#3D8E53"/>
<path d="M446.152 227.322C446.036 226.856 446.218 224.899 446.822 224.443C447.204 224.154 447.352 224.517 447.731 224.704C448.184 224.362 448.258 223.832 448.788 223.906C448.964 223.93 449.396 224.396 449.285 225.191C449.966 225.151 450.419 224.808 450.916 226.093C451.302 227.092 450.354 227.546 450.051 227.459C450.379 227.685 450.704 228.198 450.433 228.593C450.162 228.988 449.564 229.013 449.299 228.976C449.161 229.317 448.571 230 447.749 229.436C447.091 228.984 446.329 227.662 446.152 227.322ZM446.152 227.322C445.641 227.213 443.472 226.954 441.999 227.322" stroke="#3D8E53"/>
<path d="M446.187 219.968L446.88 211.858M446.187 219.968L451.965 212.231M446.187 219.968L453.606 216.837M446.187 219.968L452.236 220.608M446.187 219.968L444.714 215.927" stroke="#89E159" stroke-width="0.5"/>
<path d="M440.845 215.785C441.625 216.981 440.79 220.509 440.315 221.245C439.807 221.719 437.706 223.514 436.299 223.863C434.539 224.299 433.916 222.715 433.878 222.03C433.396 221.918 432.373 221.476 432.134 220.608C431.896 219.741 432.762 219.063 433.466 218.888C432.888 218.838 431.509 217.416 432.767 215.934C434.385 214.026 434.97 214.924 436.129 215.448C436.405 213.989 437.428 213.466 437.748 213.54C438.711 213.765 438.527 214.737 439.113 215.635C439.881 215.56 440.352 215.028 440.845 215.785Z" fill="#3D8E53"/>
<path d="M442.555 227.414L440.315 221.245M440.315 221.245C440.79 220.509 441.625 216.981 440.845 215.785C440.352 215.028 439.881 215.56 439.113 215.635C438.527 214.737 438.711 213.765 437.748 213.54C437.428 213.466 436.405 213.989 436.129 215.448C434.97 214.924 434.385 214.026 432.767 215.934C431.509 217.416 432.888 218.838 433.466 218.888C432.762 219.063 431.896 219.741 432.134 220.608C432.373 221.476 433.396 221.918 433.878 222.03C433.916 222.715 434.539 224.299 436.299 223.863C437.706 223.514 439.807 221.719 440.315 221.245Z" stroke="#3D8E53"/>
<path d="M439.638 220.833L437.379 215.485M439.638 220.833L434.119 216.756M439.638 220.833L434.065 220.201M439.638 220.833L435.805 222.478M439.638 220.833L439.707 217.804" stroke="#89E159" stroke-width="0.5"/>
<path d="M593.224 159.68C592.689 161.607 595.448 166.004 596.439 166.798C597.358 167.226 601.079 168.777 603.184 168.669C605.816 168.534 605.957 166.152 605.698 165.215C606.314 164.867 607.528 163.855 607.464 162.592C607.399 161.329 605.893 160.772 604.84 160.826C605.617 160.523 606.877 158.047 604.464 156.571C601.359 154.672 600.958 156.117 599.593 157.295C598.549 155.449 596.895 155.166 596.488 155.397C595.257 156.093 595.953 157.324 595.552 158.769C594.455 158.984 593.562 158.461 593.224 159.68Z" fill="#F68561"/>
<path d="M593.5 173.5L596.439 166.798M596.439 166.798C595.448 166.004 592.689 161.607 593.224 159.68C593.562 158.461 594.455 158.984 595.552 158.769C595.953 157.324 595.257 156.093 596.488 155.397C596.895 155.166 598.549 155.449 599.593 157.295C600.958 156.117 601.359 154.672 604.464 156.571C606.877 158.047 605.617 160.523 604.84 160.826C605.893 160.772 607.399 161.329 607.464 162.592C607.528 163.855 606.314 164.867 605.698 165.215C605.957 166.152 605.816 168.534 603.184 168.669C601.079 168.777 597.358 167.226 596.439 166.798Z" stroke="#F68561"/>
<path d="M597.822 170.443C597.218 170.899 597.036 172.856 597.152 173.322C597.329 173.662 598.091 174.984 598.749 175.436C599.571 176 600.161 175.317 600.299 174.976C600.564 175.013 601.162 174.988 601.433 174.593C601.704 174.198 601.379 173.685 601.051 173.459C601.354 173.546 602.302 173.092 601.916 172.093C601.419 170.808 600.966 171.151 600.285 171.191C600.396 170.396 599.964 169.93 599.788 169.906C599.258 169.832 599.184 170.362 598.731 170.704C598.352 170.517 598.204 170.154 597.822 170.443Z" fill="#F68561"/>
<path d="M597.152 173.322C597.036 172.856 597.218 170.899 597.822 170.443C598.204 170.154 598.352 170.517 598.731 170.704C599.184 170.362 599.258 169.832 599.788 169.906C599.964 169.93 600.396 170.396 600.285 171.191C600.966 171.151 601.419 170.808 601.916 172.093C602.302 173.092 601.354 173.546 601.051 173.459C601.379 173.685 601.704 174.198 601.433 174.593C601.162 174.988 600.564 175.013 600.299 174.976C600.161 175.317 599.571 176 598.749 175.436C598.091 174.984 597.329 173.662 597.152 173.322ZM597.152 173.322C596.641 173.213 594.472 172.954 592.999 173.322" stroke="#F68561"/>
<path d="M597.187 165.968L597.88 157.858M597.187 165.968L602.965 158.231M597.187 165.968L604.606 162.837M597.187 165.968L603.236 166.608M597.187 165.968L595.714 161.927" stroke="#89E159" stroke-width="0.5"/>
<path d="M591.845 161.785C592.625 162.981 591.79 166.509 591.315 167.245C590.807 167.719 588.706 169.514 587.299 169.863C585.539 170.299 584.916 168.715 584.878 168.03C584.396 167.918 583.373 167.476 583.134 166.608C582.896 165.741 583.762 165.063 584.466 164.888C583.888 164.838 582.509 163.416 583.767 161.934C585.385 160.026 585.97 160.924 587.129 161.448C587.405 159.989 588.428 159.466 588.748 159.54C589.711 159.765 589.527 160.737 590.113 161.635C590.881 161.56 591.352 161.028 591.845 161.785Z" fill="#F68561"/>
<path d="M593.555 173.414L591.315 167.245M591.315 167.245C591.79 166.509 592.625 162.981 591.845 161.785C591.352 161.028 590.881 161.56 590.113 161.635C589.527 160.737 589.711 159.765 588.748 159.54C588.428 159.466 587.405 159.989 587.129 161.448C585.97 160.924 585.385 160.026 583.767 161.934C582.509 163.416 583.888 164.838 584.466 164.888C583.762 165.063 582.896 165.741 583.134 166.608C583.373 167.476 584.396 167.918 584.878 168.03C584.916 168.715 585.539 170.299 587.299 169.863C588.706 169.514 590.807 167.719 591.315 167.245Z" stroke="#F68561"/>
<path d="M590.638 166.833L588.379 161.485M590.638 166.833L585.119 162.756M590.638 166.833L585.065 166.201M590.638 166.833L586.805 168.478M590.638 166.833L590.707 163.804" stroke="#89E159" stroke-width="0.5"/>
<path d="M535.224 193.68C534.689 195.607 537.448 200.004 538.439 200.798C539.358 201.226 543.079 202.777 545.184 202.669C547.816 202.534 547.957 200.152 547.698 199.215C548.314 198.867 549.528 197.855 549.464 196.592C549.399 195.329 547.893 194.772 546.84 194.826C547.617 194.523 548.877 192.047 546.464 190.571C543.359 188.672 542.958 190.117 541.593 191.295C540.549 189.449 538.895 189.166 538.488 189.397C537.257 190.093 537.953 191.324 537.552 192.769C536.455 192.984 535.562 192.461 535.224 193.68Z" fill="#F68561"/>
<path d="M535.5 207.5L538.439 200.798M538.439 200.798C537.448 200.004 534.689 195.607 535.224 193.68C535.562 192.461 536.455 192.984 537.552 192.769C537.953 191.324 537.257 190.093 538.488 189.397C538.895 189.166 540.549 189.449 541.593 191.295C542.958 190.117 543.359 188.672 546.464 190.571C548.877 192.047 547.617 194.523 546.84 194.826C547.893 194.772 549.399 195.329 549.464 196.592C549.528 197.855 548.314 198.867 547.698 199.215C547.957 200.152 547.816 202.534 545.184 202.669C543.079 202.777 539.358 201.226 538.439 200.798Z" stroke="#F68561"/>
<path d="M539.822 204.443C539.218 204.899 539.036 206.856 539.152 207.322C539.329 207.662 540.091 208.984 540.749 209.436C541.571 210 542.161 209.317 542.299 208.976C542.564 209.013 543.162 208.988 543.433 208.593C543.704 208.198 543.379 207.685 543.051 207.459C543.354 207.546 544.302 207.092 543.916 206.093C543.419 204.808 542.966 205.151 542.285 205.191C542.396 204.396 541.964 203.93 541.788 203.906C541.258 203.832 541.184 204.362 540.731 204.704C540.352 204.517 540.204 204.154 539.822 204.443Z" fill="#F68561"/>
<path d="M539.152 207.322C539.036 206.856 539.218 204.899 539.822 204.443C540.204 204.154 540.352 204.517 540.731 204.704C541.184 204.362 541.258 203.832 541.788 203.906C541.964 203.93 542.396 204.396 542.285 205.191C542.966 205.151 543.419 204.808 543.916 206.093C544.302 207.092 543.354 207.546 543.051 207.459C543.379 207.685 543.704 208.198 543.433 208.593C543.162 208.988 542.564 209.013 542.299 208.976C542.161 209.317 541.571 210 540.749 209.436C540.091 208.984 539.329 207.662 539.152 207.322ZM539.152 207.322C538.641 207.213 536.472 206.954 534.999 207.322" stroke="#F68561"/>
<path d="M539.187 199.968L539.88 191.858M539.187 199.968L544.965 192.231M539.187 199.968L546.606 196.837M539.187 199.968L545.236 200.608M539.187 199.968L537.714 195.927" stroke="#89E159" stroke-width="0.5"/>
<path d="M533.845 195.785C534.625 196.981 533.79 200.509 533.315 201.245C532.807 201.719 530.706 203.514 529.299 203.863C527.539 204.299 526.916 202.715 526.878 202.03C526.396 201.918 525.373 201.476 525.134 200.608C524.896 199.741 525.762 199.063 526.466 198.888C525.888 198.838 524.509 197.416 525.767 195.934C527.385 194.026 527.97 194.924 529.129 195.448C529.405 193.989 530.428 193.466 530.748 193.54C531.711 193.765 531.527 194.737 532.113 195.635C532.881 195.56 533.352 195.028 533.845 195.785Z" fill="#F68561"/>
<path d="M535.555 207.414L533.315 201.245M533.315 201.245C533.79 200.509 534.625 196.981 533.845 195.785C533.352 195.028 532.881 195.56 532.113 195.635C531.527 194.737 531.711 193.765 530.748 193.54C530.428 193.466 529.405 193.989 529.129 195.448C527.97 194.924 527.385 194.026 525.767 195.934C524.509 197.416 525.888 198.838 526.466 198.888C525.762 199.063 524.896 199.741 525.134 200.608C525.373 201.476 526.396 201.918 526.878 202.03C526.916 202.715 527.539 204.299 529.299 203.863C530.706 203.514 532.807 201.719 533.315 201.245Z" stroke="#F68561"/>
<path d="M532.638 200.833L530.379 195.485M532.638 200.833L527.119 196.756M532.638 200.833L527.065 200.201M532.638 200.833L528.805 202.478M532.638 200.833L532.707 197.804" stroke="#89E159" stroke-width="0.5"/>
<path d="M469.224 232.68C468.689 234.607 471.448 239.004 472.439 239.798C473.358 240.226 477.079 241.777 479.184 241.669C481.816 241.534 481.957 239.152 481.698 238.215C482.314 237.867 483.528 236.855 483.464 235.592C483.399 234.329 481.893 233.772 480.84 233.826C481.617 233.523 482.877 231.047 480.464 229.571C477.359 227.672 476.958 229.117 475.593 230.295C474.549 228.449 472.895 228.166 472.488 228.397C471.257 229.093 471.953 230.324 471.552 231.769C470.455 231.984 469.562 231.461 469.224 232.68Z" fill="#F68561"/>
<path d="M469.5 246.5L472.439 239.798M472.439 239.798C471.448 239.004 468.689 234.607 469.224 232.68C469.562 231.461 470.455 231.984 471.552 231.769C471.953 230.324 471.257 229.093 472.488 228.397C472.895 228.166 474.549 228.449 475.593 230.295C476.958 229.117 477.359 227.672 480.464 229.571C482.877 231.047 481.617 233.523 480.84 233.826C481.893 233.772 483.399 234.329 483.464 235.592C483.528 236.855 482.314 237.867 481.698 238.215C481.957 239.152 481.816 241.534 479.184 241.669C477.079 241.777 473.358 240.226 472.439 239.798Z" stroke="#F68561"/>
<path d="M473.822 243.443C473.218 243.899 473.036 245.856 473.152 246.322C473.329 246.662 474.091 247.984 474.749 248.436C475.571 249 476.161 248.317 476.299 247.976C476.564 248.013 477.162 247.988 477.433 247.593C477.704 247.198 477.379 246.685 477.051 246.459C477.354 246.546 478.302 246.092 477.916 245.093C477.419 243.808 476.966 244.151 476.285 244.191C476.396 243.396 475.964 242.93 475.788 242.906C475.258 242.832 475.184 243.362 474.731 243.704C474.352 243.517 474.204 243.154 473.822 243.443Z" fill="#F68561"/>
<path d="M473.152 246.322C473.036 245.856 473.218 243.899 473.822 243.443C474.204 243.154 474.352 243.517 474.731 243.704C475.184 243.362 475.258 242.832 475.788 242.906C475.964 242.93 476.396 243.396 476.285 244.191C476.966 244.151 477.419 243.808 477.916 245.093C478.302 246.092 477.354 246.546 477.051 246.459C477.379 246.685 477.704 247.198 477.433 247.593C477.162 247.988 476.564 248.013 476.299 247.976C476.161 248.317 475.571 249 474.749 248.436C474.091 247.984 473.329 246.662 473.152 246.322ZM473.152 246.322C472.641 246.213 470.472 245.954 468.999 246.322" stroke="#F68561"/>
<path d="M473.187 238.968L473.88 230.858M473.187 238.968L478.965 231.231M473.187 238.968L480.606 235.837M473.187 238.968L479.236 239.608M473.187 238.968L471.714 234.927" stroke="#89E159" stroke-width="0.5"/>
<path d="M467.845 234.785C468.625 235.981 467.79 239.509 467.315 240.245C466.807 240.719 464.706 242.514 463.299 242.863C461.539 243.299 460.916 241.715 460.878 241.03C460.396 240.918 459.373 240.476 459.134 239.608C458.896 238.741 459.762 238.063 460.466 237.888C459.888 237.838 458.509 236.416 459.767 234.934C461.385 233.026 461.97 233.924 463.129 234.448C463.405 232.989 464.428 232.466 464.748 232.54C465.711 232.765 465.527 233.737 466.113 234.635C466.881 234.56 467.352 234.028 467.845 234.785Z" fill="#F68561"/>
<path d="M469.555 246.414L467.315 240.245M467.315 240.245C467.79 239.509 468.625 235.981 467.845 234.785C467.352 234.028 466.881 234.56 466.113 234.635C465.527 233.737 465.711 232.765 464.748 232.54C464.428 232.466 463.405 232.989 463.129 234.448C461.97 233.924 461.385 233.026 459.767 234.934C458.509 236.416 459.888 237.838 460.466 237.888C459.762 238.063 458.896 238.741 459.134 239.608C459.373 240.476 460.396 240.918 460.878 241.03C460.916 241.715 461.539 243.299 463.299 242.863C464.706 242.514 466.807 240.719 467.315 240.245Z" stroke="#F68561"/>
<path d="M466.638 239.833L464.379 234.485M466.638 239.833L461.119 235.756M466.638 239.833L461.065 239.201M466.638 239.833L462.805 241.478M466.638 239.833L466.707 236.804" stroke="#89E159" stroke-width="0.5"/>
<path d="M423.281 47.7805C420.737 50.3243 416.412 48.798 407 44.4734C414.886 43.2015 423.281 39.6401 423.281 47.7805C423.281 42.4384 423.382 39.8945 436 38.877C431.421 42.6927 427.351 51.0538 423.281 47.7805Z" fill="#3D8E53"/>
<path d="M423.281 47.7805C420.737 50.3243 416.412 48.798 407 44.4734C414.886 43.2015 423.281 39.6401 423.281 47.7805ZM423.281 47.7805C423.281 42.4384 423.382 39.8945 436 38.877C431.421 42.6927 427.351 51.0538 423.281 47.7805ZM423.281 47.7805C424.861 45.7454 429.132 42.184 431.167 41.4208M423.281 47.7805C422.178 46.7629 416.463 44.7787 412.596 44.9822M423.281 47.7805C422.772 49.8156 422.06 57.7015 423.281 60.7541" stroke="#3D8E53"/>
<path d="M424.297 46.5085C425.622 44.8804 429.204 42.0313 430.911 41.4207" stroke="#89E159" stroke-width="0.5"/>
<path d="M421.756 47.0171C420.811 46.2809 415.912 44.8453 412.598 44.9925" stroke="#89E159" stroke-width="0.5"/>
<path d="M366.281 80.7805C363.737 83.3243 359.412 81.798 350 77.4734C357.886 76.2015 366.281 72.6401 366.281 80.7805C366.281 75.4384 366.382 72.8945 379 71.877C374.421 75.6927 370.351 84.0538 366.281 80.7805Z" fill="#F68561"/>
<path d="M366.281 80.7805C363.737 83.3243 359.412 81.798 350 77.4734C357.886 76.2015 366.281 72.6401 366.281 80.7805ZM366.281 80.7805C366.281 75.4384 366.382 72.8945 379 71.877C374.421 75.6927 370.351 84.0538 366.281 80.7805ZM366.281 80.7805C367.861 78.7454 372.132 75.184 374.167 74.4208M366.281 80.7805C365.178 79.7629 359.463 77.7787 355.596 77.9822M366.281 80.7805C365.772 82.8156 365.06 90.7015 366.281 93.7541" stroke="#F68561"/>
<path d="M367.297 79.5085C368.622 77.8804 372.204 75.0313 373.911 74.4207" stroke="#89E159" stroke-width="0.5"/>
<path d="M364.756 80.0171C363.811 79.2809 358.912 77.8453 355.598 77.9925" stroke="#89E159" stroke-width="0.5"/>
<path d="M301.281 118.78C298.737 121.324 294.412 119.798 285 115.473C292.886 114.202 301.281 110.64 301.281 118.78C301.281 113.438 301.382 110.894 314 109.877C309.421 113.693 305.351 122.054 301.281 118.78Z" fill="#3D8E53"/>
<path d="M301.281 118.78C298.737 121.324 294.412 119.798 285 115.473C292.886 114.202 301.281 110.64 301.281 118.78ZM301.281 118.78C301.281 113.438 301.382 110.894 314 109.877C309.421 113.693 305.351 122.054 301.281 118.78ZM301.281 118.78C302.861 116.745 307.132 113.184 309.167 112.421M301.281 118.78C300.178 117.763 294.463 115.779 290.596 115.982M301.281 118.78C300.772 120.816 300.06 128.702 301.281 131.754" stroke="#3D8E53"/>
<path d="M302.297 117.508C303.622 115.88 307.204 113.031 308.911 112.421" stroke="#89E159" stroke-width="0.5"/>
<path d="M299.756 118.017C298.811 117.281 293.912 115.845 290.598 115.993" stroke="#89E159" stroke-width="0.5"/>
<path d="M372.281 9.78046C369.737 12.3243 365.412 10.798 356 6.47344C363.886 5.20151 372.281 1.64011 372.281 9.78046C372.281 4.43836 372.382 1.8945 385 0.876953C380.421 4.69274 376.351 13.0538 372.281 9.78046Z" fill="#3D8E53"/>
<path d="M372.281 9.78046C369.737 12.3243 365.412 10.798 356 6.47344C363.886 5.20151 372.281 1.64011 372.281 9.78046ZM372.281 9.78046C372.281 4.43836 372.382 1.8945 385 0.876953C380.421 4.69274 376.351 13.0538 372.281 9.78046ZM372.281 9.78046C373.861 7.74537 378.132 4.18397 380.167 3.42081M372.281 9.78046C371.178 8.76292 365.463 6.77871 361.596 6.98222M372.281 9.78046C371.772 11.8156 371.06 19.7015 372.281 22.7541" stroke="#3D8E53"/>
<path d="M373.297 8.50845C374.622 6.88038 378.204 4.03126 379.911 3.42073" stroke="#89E159" stroke-width="0.5"/>
<path d="M370.756 9.0171C369.811 8.28089 364.912 6.84528 361.598 6.99252" stroke="#89E159" stroke-width="0.5"/>
<path d="M315.281 42.7805C312.737 45.3243 308.412 43.798 299 39.4734C306.886 38.2015 315.281 34.6401 315.281 42.7805C315.281 37.4384 315.382 34.8945 328 33.877C323.421 37.6927 319.351 46.0538 315.281 42.7805Z" fill="#F68561"/>
<path d="M315.281 42.7805C312.737 45.3243 308.412 43.798 299 39.4734C306.886 38.2015 315.281 34.6401 315.281 42.7805ZM315.281 42.7805C315.281 37.4384 315.382 34.8945 328 33.877C323.421 37.6927 319.351 46.0538 315.281 42.7805ZM315.281 42.7805C316.861 40.7454 321.132 37.184 323.167 36.4208M315.281 42.7805C314.178 41.7629 308.463 39.7787 304.596 39.9822M315.281 42.7805C314.772 44.8156 314.06 52.7015 315.281 55.7541" stroke="#F68561"/>
<path d="M316.297 41.5085C317.622 39.8804 321.204 37.0313 322.911 36.4207" stroke="#89E159" stroke-width="0.5"/>
<path d="M313.756 42.0171C312.811 41.2809 307.912 39.8453 304.598 39.9925" stroke="#89E159" stroke-width="0.5"/>
<path d="M250.281 80.7805C247.737 83.3243 243.412 81.798 234 77.4734C241.886 76.2015 250.281 72.6401 250.281 80.7805C250.281 75.4384 250.382 72.8945 263 71.877C258.421 75.6927 254.351 84.0538 250.281 80.7805Z" fill="#F68561"/>
<path d="M250.281 80.7805C247.737 83.3243 243.412 81.798 234 77.4734C241.886 76.2015 250.281 72.6401 250.281 80.7805ZM250.281 80.7805C250.281 75.4384 250.382 72.8945 263 71.877C258.421 75.6927 254.351 84.0538 250.281 80.7805ZM250.281 80.7805C251.861 78.7454 256.132 75.184 258.167 74.4208M250.281 80.7805C249.178 79.7629 243.463 77.7787 239.596 77.9822M250.281 80.7805C249.772 82.8156 249.06 90.7015 250.281 93.7541" stroke="#F68561"/>
<path d="M251.297 79.5085C252.622 77.8804 256.204 75.0313 257.911 74.4207" stroke="#89E159" stroke-width="0.5"/>
<path d="M248.756 80.0171C247.811 79.2809 242.912 77.8453 239.598 77.9925" stroke="#89E159" stroke-width="0.5"/>
<path d="M398.281 27.7805C395.737 30.3243 391.412 28.798 382 24.4734C389.886 23.2015 398.281 19.6401 398.281 27.7805C398.281 22.4384 398.382 19.8945 411 18.877C406.421 22.6927 402.351 31.0538 398.281 27.7805Z" fill="#F68561"/>
<path d="M398.281 27.7805C395.737 30.3243 391.412 28.798 382 24.4734C389.886 23.2015 398.281 19.6401 398.281 27.7805ZM398.281 27.7805C398.281 22.4384 398.382 19.8945 411 18.877C406.421 22.6927 402.351 31.0538 398.281 27.7805ZM398.281 27.7805C399.861 25.7454 404.132 22.184 406.167 21.4208M398.281 27.7805C397.178 26.7629 391.463 24.7787 387.596 24.9822M398.281 27.7805C397.772 29.8156 397.06 37.7015 398.281 40.7541" stroke="#F68561"/>
<path d="M399.297 26.5085C400.622 24.8804 404.204 22.0313 405.911 21.4207" stroke="#89E159" stroke-width="0.5"/>
<path d="M396.756 27.0171C395.811 26.2809 390.912 24.8453 387.598 24.9925" stroke="#89E159" stroke-width="0.5"/>
<path d="M341.281 60.7805C338.737 63.3243 334.412 61.798 325 57.4734C332.886 56.2015 341.281 52.6401 341.281 60.7805C341.281 55.4384 341.382 52.8945 354 51.877C349.421 55.6927 345.351 64.0538 341.281 60.7805Z" fill="#3D8E53"/>
<path d="M341.281 60.7805C338.737 63.3243 334.412 61.798 325 57.4734C332.886 56.2015 341.281 52.6401 341.281 60.7805ZM341.281 60.7805C341.281 55.4384 341.382 52.8945 354 51.877C349.421 55.6927 345.351 64.0538 341.281 60.7805ZM341.281 60.7805C342.861 58.7454 347.132 55.184 349.167 54.4208M341.281 60.7805C340.178 59.7629 334.463 57.7787 330.596 57.9822M341.281 60.7805C340.772 62.8156 340.06 70.7015 341.281 73.7541" stroke="#3D8E53"/>
<path d="M342.297 59.5085C343.622 57.8804 347.204 55.0313 348.911 54.4207" stroke="#89E159" stroke-width="0.5"/>
<path d="M339.756 60.0171C338.811 59.2809 333.912 57.8453 330.598 57.9925" stroke="#89E159" stroke-width="0.5"/>
<path d="M276.281 99.7805C273.737 102.324 269.412 100.798 260 96.4734C267.886 95.2015 276.281 91.6401 276.281 99.7805C276.281 94.4384 276.382 91.8945 289 90.877C284.421 94.6927 280.351 103.054 276.281 99.7805Z" fill="#F68561"/>
<path d="M276.281 99.7805C273.737 102.324 269.412 100.798 260 96.4734C267.886 95.2015 276.281 91.6401 276.281 99.7805ZM276.281 99.7805C276.281 94.4384 276.382 91.8945 289 90.877C284.421 94.6927 280.351 103.054 276.281 99.7805ZM276.281 99.7805C277.861 97.7454 282.132 94.184 284.167 93.4208M276.281 99.7805C275.178 98.7629 269.463 96.7787 265.596 96.9822M276.281 99.7805C275.772 101.816 275.06 109.702 276.281 112.754" stroke="#F68561"/>
<path d="M277.297 98.5085C278.622 96.8804 282.204 94.0313 283.911 93.4207" stroke="#89E159" stroke-width="0.5"/>
<path d="M274.756 99.0171C273.811 98.2809 268.912 96.8453 265.598 96.9925" stroke="#89E159" stroke-width="0.5"/>
</svg>
