<svg width="626" height="263" viewBox="0 0 626 263" fill="none" xmlns="http://www.w3.org/2000/svg">
<path d="M3 167.38C3.85944 168.583 5.79067 172.035 6.64 176.22" stroke="#89E159" stroke-width="2"/>
<path d="M16 166.86C15.1406 168.133 13.2093 171.788 12.36 176.22" stroke="#89E159" stroke-width="2"/>
<path d="M9.5 175.7V164" stroke="#89E159" stroke-width="2"/>
<path d="M59 199.38C59.8594 200.583 61.7907 204.035 62.64 208.22" stroke="#89E159" stroke-width="2"/>
<path d="M72 198.86C71.1406 200.133 69.2093 203.788 68.36 208.22" stroke="#89E159" stroke-width="2"/>
<path d="M65.5 207.7V196" stroke="#89E159" stroke-width="2"/>
<path d="M123 238.38C123.859 239.583 125.791 243.035 126.64 247.22" stroke="#89E159" stroke-width="2"/>
<path d="M136 237.86C135.141 239.133 133.209 242.788 132.36 247.22" stroke="#89E159" stroke-width="2"/>
<path d="M129.5 246.7V235" stroke="#89E159" stroke-width="2"/>
<path d="M53 129.38C53.8594 130.583 55.7907 134.035 56.64 138.22" stroke="#89E159" stroke-width="2"/>
<path d="M66 128.86C65.1406 130.133 63.2093 133.788 62.36 138.22" stroke="#89E159" stroke-width="2"/>
<path d="M59.5 137.7V126" stroke="#89E159" stroke-width="2"/>
<path d="M109 162.38C109.859 163.583 111.791 167.035 112.64 171.22" stroke="#89E159" stroke-width="2"/>
<path d="M122 161.86C121.141 163.133 119.209 166.788 118.36 171.22" stroke="#89E159" stroke-width="2"/>
<path d="M115.5 170.7V159" stroke="#89E159" stroke-width="2"/>
<path d="M174 200.38C174.859 201.583 176.791 205.035 177.64 209.22" stroke="#89E159" stroke-width="2"/>
<path d="M187 199.86C186.141 201.133 184.209 204.788 183.36 209.22" stroke="#89E159" stroke-width="2"/>
<path d="M180.5 208.7V197" stroke="#89E159" stroke-width="2"/>
<path d="M28 148.38C28.8594 149.583 30.7907 153.035 31.64 157.22" stroke="#89E159" stroke-width="2"/>
<path d="M41 147.86C40.1406 149.133 38.2093 152.788 37.36 157.22" stroke="#89E159" stroke-width="2"/>
<path d="M34.5 156.7V145" stroke="#89E159" stroke-width="2"/>
<path d="M84 180.38C84.8594 181.583 86.7907 185.035 87.64 189.22" stroke="#89E159" stroke-width="2"/>
<path d="M97 179.86C96.1406 181.133 94.2093 184.788 93.36 189.22" stroke="#89E159" stroke-width="2"/>
<path d="M90.5 188.7V177" stroke="#89E159" stroke-width="2"/>
<path d="M134 188.38C134.859 189.583 136.791 193.035 137.64 197.22" stroke="#89E159" stroke-width="2"/>
<path d="M147 187.86C146.141 189.133 144.209 192.788 143.36 197.22" stroke="#89E159" stroke-width="2"/>
<path d="M140.5 196.7V185" stroke="#89E159" stroke-width="2"/>
<path d="M103 209.38C103.859 210.583 105.791 214.035 106.64 218.22" stroke="#89E159" stroke-width="2"/>
<path d="M116 208.86C115.141 210.133 113.209 213.788 112.36 218.22" stroke="#89E159" stroke-width="2"/>
<path d="M109.5 217.7V206" stroke="#89E159" stroke-width="2"/>
<path d="M68 152.38C68.8594 153.583 70.7907 157.035 71.64 161.22" stroke="#89E159" stroke-width="2"/>
<path d="M81 151.86C80.1406 153.133 78.2093 156.788 77.36 161.22" stroke="#89E159" stroke-width="2"/>
<path d="M74.5 160.7V149" stroke="#89E159" stroke-width="2"/>
<path d="M38 177.38C38.8594 178.583 40.7907 182.035 41.64 186.22" stroke="#89E159" stroke-width="2"/>
<path d="M51 176.86C50.1406 178.133 48.2093 181.788 47.36 186.22" stroke="#89E159" stroke-width="2"/>
<path d="M44.5 185.7V174" stroke="#89E159" stroke-width="2"/>
<path d="M148 219.38C148.859 220.583 150.791 224.035 151.64 228.22" stroke="#89E159" stroke-width="2"/>
<path d="M161 218.86C160.141 220.133 158.209 223.788 157.36 228.22" stroke="#89E159" stroke-width="2"/>
<path d="M154.5 227.7V216" stroke="#89E159" stroke-width="2"/>
<path d="M610.086 177.876C610.945 179.079 612.877 182.531 613.726 186.716" stroke="#89E159" stroke-width="2"/>
<path d="M623.086 177.356C622.226 178.63 620.295 182.284 619.446 186.716" stroke="#89E159" stroke-width="2"/>
<path d="M616.586 186.196V174.496" stroke="#89E159" stroke-width="2"/>
<path d="M552.086 211.876C552.945 213.079 554.877 216.531 555.726 220.716" stroke="#89E159" stroke-width="2"/>
<path d="M565.086 211.356C564.226 212.63 562.295 216.284 561.446 220.716" stroke="#89E159" stroke-width="2"/>
<path d="M558.586 220.196V208.496" stroke="#89E159" stroke-width="2"/>
<path d="M486.086 251.876C486.945 253.079 488.877 256.531 489.726 260.716" stroke="#89E159" stroke-width="2"/>
<path d="M499.086 251.356C498.226 252.63 496.295 256.284 495.446 260.716" stroke="#89E159" stroke-width="2"/>
<path d="M492.586 260.196V248.496" stroke="#89E159" stroke-width="2"/>
<path d="M558.086 139.876C558.945 141.079 560.877 144.531 561.726 148.716" stroke="#89E159" stroke-width="2"/>
<path d="M571.086 139.356C570.226 140.63 568.295 144.284 567.446 148.716" stroke="#89E159" stroke-width="2"/>
<path d="M564.586 148.196V136.496" stroke="#89E159" stroke-width="2"/>
<path d="M500.086 172.876C500.945 174.079 502.877 177.531 503.726 181.716" stroke="#89E159" stroke-width="2"/>
<path d="M513.086 172.356C512.226 173.63 510.295 177.284 509.446 181.716" stroke="#89E159" stroke-width="2"/>
<path d="M506.586 181.196V169.496" stroke="#89E159" stroke-width="2"/>
<path d="M433.086 212.876C433.945 214.079 435.877 217.531 436.726 221.716" stroke="#89E159" stroke-width="2"/>
<path d="M446.086 212.356C445.226 213.63 443.295 217.284 442.446 221.716" stroke="#89E159" stroke-width="2"/>
<path d="M439.586 221.196V209.496" stroke="#89E159" stroke-width="2"/>
<path d="M584.086 158.876C584.945 160.079 586.877 163.531 587.726 167.716" stroke="#89E159" stroke-width="2"/>
<path d="M597.086 158.356C596.226 159.63 594.295 163.284 593.446 167.716" stroke="#89E159" stroke-width="2"/>
<path d="M590.586 167.196V155.496" stroke="#89E159" stroke-width="2"/>
<path d="M526.086 191.876C526.945 193.079 528.877 196.531 529.726 200.716" stroke="#89E159" stroke-width="2"/>
<path d="M539.086 191.356C538.226 192.63 536.295 196.284 535.446 200.716" stroke="#89E159" stroke-width="2"/>
<path d="M532.586 200.196V188.496" stroke="#89E159" stroke-width="2"/>
<path d="M460.086 231.876C460.945 233.079 462.877 236.531 463.726 240.716" stroke="#89E159" stroke-width="2"/>
<path d="M473.086 231.356C472.226 232.63 470.295 236.284 469.446 240.716" stroke="#89E159" stroke-width="2"/>
<path d="M466.586 240.196V228.496" stroke="#89E159" stroke-width="2"/>
<path d="M473.086 193.876C473.945 195.079 475.877 198.531 476.726 202.716" stroke="#89E159" stroke-width="2"/>
<path d="M486.086 193.356C485.226 194.63 483.295 198.284 482.446 202.716" stroke="#89E159" stroke-width="2"/>
<path d="M479.586 202.196V190.496" stroke="#89E159" stroke-width="2"/>
<path d="M504.086 227.876C504.945 229.079 506.877 232.531 507.726 236.716" stroke="#89E159" stroke-width="2"/>
<path d="M517.086 227.356C516.226 228.63 514.295 232.284 513.446 236.716" stroke="#89E159" stroke-width="2"/>
<path d="M510.586 236.196V224.496" stroke="#89E159" stroke-width="2"/>
<path d="M569.086 184.876C569.945 186.079 571.877 189.531 572.726 193.716" stroke="#89E159" stroke-width="2"/>
<path d="M582.086 184.356C581.226 185.63 579.295 189.284 578.446 193.716" stroke="#89E159" stroke-width="2"/>
<path d="M575.586 193.196V181.496" stroke="#89E159" stroke-width="2"/>
<path d="M539.086 163.876C539.945 165.079 541.877 168.531 542.726 172.716" stroke="#89E159" stroke-width="2"/>
<path d="M552.086 163.356C551.226 164.63 549.295 168.284 548.446 172.716" stroke="#89E159" stroke-width="2"/>
<path d="M545.586 172.196V160.496" stroke="#89E159" stroke-width="2"/>
<path d="M353 46.38C353.859 47.5827 355.791 51.0345 356.64 55.22" stroke="#89E159" stroke-width="2"/>
<path d="M366 45.86C365.141 47.1335 363.209 50.7883 362.36 55.22" stroke="#89E159" stroke-width="2"/>
<path d="M359.5 54.7V43" stroke="#89E159" stroke-width="2"/>
<path d="M326 26.38C326.859 27.5827 328.791 31.0345 329.64 35.22" stroke="#89E159" stroke-width="2"/>
<path d="M339 25.86C338.141 27.1335 336.209 30.7883 335.36 35.22" stroke="#89E159" stroke-width="2"/>
<path d="M332.5 34.7V23" stroke="#89E159" stroke-width="2"/>
<path d="M262 62.38C262.859 63.5827 264.791 67.0345 265.64 71.22" stroke="#89E159" stroke-width="2"/>
<path d="M275 61.86C274.141 63.1335 272.209 66.7883 271.36 71.22" stroke="#89E159" stroke-width="2"/>
<path d="M268.5 70.7V59" stroke="#89E159" stroke-width="2"/>
<path d="M291 87.38C291.859 88.5827 293.791 92.0345 294.64 96.22" stroke="#89E159" stroke-width="2"/>
<path d="M304 86.86C303.141 88.1335 301.209 91.7883 300.36 96.22" stroke="#89E159" stroke-width="2"/>
<path d="M297.5 95.7V84" stroke="#89E159" stroke-width="2"/>
<path d="M410.082 43.8761C410.941 45.0788 412.873 48.5306 413.722 52.7161" stroke="#89E159" stroke-width="2"/>
<path d="M423.082 43.3561C422.223 44.6295 420.291 48.2844 419.442 52.7161" stroke="#89E159" stroke-width="2"/>
<path d="M416.582 52.1961V40.4961" stroke="#89E159" stroke-width="2"/>
<path d="M353.082 76.8761C353.941 78.0788 355.873 81.5306 356.722 85.7161" stroke="#89E159" stroke-width="2"/>
<path d="M366.082 76.3561C365.223 77.6295 363.291 81.2844 362.442 85.7161" stroke="#89E159" stroke-width="2"/>
<path d="M359.582 85.1961V73.4961" stroke="#89E159" stroke-width="2"/>
<path d="M288.082 114.876C288.941 116.079 290.873 119.531 291.722 123.716" stroke="#89E159" stroke-width="2"/>
<path d="M301.082 114.356C300.223 115.63 298.291 119.284 297.442 123.716" stroke="#89E159" stroke-width="2"/>
<path d="M294.582 123.196V111.496" stroke="#89E159" stroke-width="2"/>
<path d="M359.082 5.8761C359.941 7.07882 361.873 10.5306 362.722 14.7161" stroke="#89E159" stroke-width="2"/>
<path d="M372.082 5.35608C371.223 6.62955 369.291 10.2844 368.442 14.7161" stroke="#89E159" stroke-width="2"/>
<path d="M365.582 14.1961V2.49609" stroke="#89E159" stroke-width="2"/>
<path d="M302.082 38.8761C302.941 40.0788 304.873 43.5306 305.722 47.7161" stroke="#89E159" stroke-width="2"/>
<path d="M315.082 38.3561C314.223 39.6295 312.291 43.2844 311.442 47.7161" stroke="#89E159" stroke-width="2"/>
<path d="M308.582 47.1961V35.4961" stroke="#89E159" stroke-width="2"/>
<path d="M237.082 76.8761C237.941 78.0788 239.873 81.5306 240.722 85.7161" stroke="#89E159" stroke-width="2"/>
<path d="M250.082 76.3561C249.223 77.6295 247.291 81.2844 246.442 85.7161" stroke="#89E159" stroke-width="2"/>
<path d="M243.582 85.1961V73.4961" stroke="#89E159" stroke-width="2"/>
<path d="M385.082 23.8761C385.941 25.0788 387.873 28.5306 388.722 32.7161" stroke="#89E159" stroke-width="2"/>
<path d="M398.082 23.3561C397.223 24.6295 395.291 28.2844 394.442 32.7161" stroke="#89E159" stroke-width="2"/>
<path d="M391.582 32.1961V20.4961" stroke="#89E159" stroke-width="2"/>
<path d="M328.082 56.8761C328.941 58.0788 330.873 61.5306 331.722 65.7161" stroke="#89E159" stroke-width="2"/>
<path d="M341.082 56.3561C340.223 57.6295 338.291 61.2844 337.442 65.7161" stroke="#89E159" stroke-width="2"/>
<path d="M334.582 65.1961V53.4961" stroke="#89E159" stroke-width="2"/>
<path d="M263.082 95.8761C263.941 97.0788 265.873 100.531 266.722 104.716" stroke="#89E159" stroke-width="2"/>
<path d="M276.082 95.3561C275.223 96.6295 273.291 100.284 272.442 104.716" stroke="#89E159" stroke-width="2"/>
<path d="M269.582 104.196V92.4961" stroke="#89E159" stroke-width="2"/>
</svg>
