<svg width="132" height="88" viewBox="0 0 132 88" fill="none" xmlns="http://www.w3.org/2000/svg">
<rect x="1.5" y="1.5" width="129" height="38" rx="7" fill="#89E159"/>
<path d="M46.6916 15.798V17.324H43.7096V25.5H41.9316V17.324H38.9496V15.798H46.6916ZM46.7814 21.874C46.7814 21.23 46.8747 20.6653 47.0614 20.18C47.2574 19.6947 47.514 19.2933 47.8314 18.976C48.1487 18.6493 48.5127 18.4067 48.9234 18.248C49.334 18.08 49.754 17.996 50.1834 17.996C51.1914 17.996 51.9754 18.3087 52.5354 18.934C53.1047 19.5593 53.3894 20.4927 53.3894 21.734C53.3894 21.8273 53.3847 21.9347 53.3754 22.056C53.3754 22.168 53.3707 22.2707 53.3614 22.364H48.5314C48.578 22.952 48.7834 23.4093 49.1474 23.736C49.5207 24.0533 50.0574 24.212 50.7574 24.212C51.168 24.212 51.5414 24.1747 51.8774 24.1C52.2227 24.0253 52.4934 23.946 52.6894 23.862L52.9134 25.248C52.82 25.2947 52.6894 25.346 52.5214 25.402C52.3627 25.4487 52.176 25.4907 51.9614 25.528C51.756 25.5747 51.532 25.612 51.2894 25.64C51.0467 25.668 50.7994 25.682 50.5474 25.682C49.9034 25.682 49.3434 25.5887 48.8674 25.402C48.3914 25.206 47.9994 24.94 47.6914 24.604C47.3834 24.2587 47.1547 23.8573 47.0054 23.4C46.856 22.9333 46.7814 22.4247 46.7814 21.874ZM51.6954 21.118C51.6954 20.8847 51.6627 20.6653 51.5974 20.46C51.532 20.2453 51.434 20.0633 51.3034 19.914C51.182 19.7553 51.028 19.634 50.8414 19.55C50.664 19.4567 50.4494 19.41 50.1974 19.41C49.936 19.41 49.7074 19.4613 49.5114 19.564C49.3154 19.6573 49.1474 19.7833 49.0074 19.942C48.8767 20.1007 48.774 20.2827 48.6994 20.488C48.6247 20.6933 48.5734 20.9033 48.5454 21.118H51.6954ZM61.2754 18.178V25.5H59.5814V19.592H56.8794V25.5H55.1854V18.178H61.2754ZM66.2996 19.578C66.2902 19.9887 66.2762 20.418 66.2576 20.866C66.2389 21.3047 66.1922 21.7387 66.1176 22.168C66.0522 22.5973 65.9449 23.008 65.7956 23.4C65.6462 23.792 65.4362 24.1467 65.1656 24.464C64.9042 24.772 64.5729 25.0333 64.1716 25.248C63.7796 25.4533 63.2989 25.584 62.7296 25.64L62.4916 24.226C62.9676 24.1327 63.3362 23.9833 63.5976 23.778C63.8589 23.5633 64.0596 23.2927 64.1996 22.966C64.3116 22.7233 64.3956 22.448 64.4516 22.14C64.5169 21.832 64.5636 21.51 64.5916 21.174C64.6289 20.8287 64.6522 20.4787 64.6616 20.124C64.6709 19.7693 64.6756 19.424 64.6756 19.088V18.178H69.8556V25.5H68.1616V19.578H66.2996ZM78.4275 18.178V25.5H76.7475C76.7475 24.968 76.7475 24.4407 76.7475 23.918C76.7568 23.3953 76.7615 22.91 76.7615 22.462C76.7708 22.014 76.7755 21.6267 76.7755 21.3C76.7848 20.964 76.7895 20.7167 76.7895 20.558C76.5095 20.922 76.2202 21.3233 75.9215 21.762C75.6228 22.2007 75.3242 22.6393 75.0255 23.078C74.7362 23.5167 74.4608 23.946 74.1995 24.366C73.9382 24.786 73.7095 25.164 73.5135 25.5H72.0155V18.178H73.6815C73.6815 18.7193 73.6768 19.2373 73.6675 19.732C73.6675 20.2173 73.6675 20.6607 73.6675 21.062C73.6675 21.4633 73.6628 21.8133 73.6535 22.112C73.6535 22.4107 73.6535 22.6393 73.6535 22.798C73.9148 22.3967 74.1855 21.986 74.4655 21.566C74.7455 21.1367 75.0255 20.7213 75.3055 20.32C75.5948 19.9093 75.8795 19.522 76.1595 19.158C76.4395 18.794 76.7102 18.4673 76.9715 18.178H78.4275ZM87.7698 24.114V27.572H86.2718V25.5H80.5878V18.178H82.2818V24.114H84.9698V18.178H86.6638V24.114H87.7698ZM91.6813 24.31C92.204 24.31 92.6007 24.282 92.8713 24.226V22.35C92.778 22.322 92.6427 22.294 92.4653 22.266C92.288 22.238 92.092 22.224 91.8773 22.224C91.6907 22.224 91.4993 22.238 91.3033 22.266C91.1167 22.294 90.944 22.3453 90.7853 22.42C90.636 22.4947 90.5147 22.602 90.4213 22.742C90.328 22.8727 90.2813 23.0407 90.2813 23.246C90.2813 23.6473 90.4073 23.9273 90.6593 24.086C90.9113 24.2353 91.252 24.31 91.6813 24.31ZM91.5413 17.996C92.1013 17.996 92.5727 18.066 92.9553 18.206C93.338 18.346 93.6413 18.542 93.8653 18.794C94.0987 19.046 94.262 19.354 94.3553 19.718C94.458 20.0727 94.5093 20.4647 94.5093 20.894V25.332C94.248 25.388 93.8513 25.4533 93.3193 25.528C92.7967 25.612 92.204 25.654 91.5413 25.654C91.1027 25.654 90.7013 25.612 90.3373 25.528C89.9733 25.444 89.6607 25.3087 89.3993 25.122C89.1473 24.9353 88.9467 24.6927 88.7973 24.394C88.6573 24.0953 88.5873 23.7267 88.5873 23.288C88.5873 22.868 88.6667 22.5133 88.8253 22.224C88.9933 21.9347 89.2173 21.7013 89.4973 21.524C89.7773 21.3373 90.0993 21.2067 90.4633 21.132C90.8367 21.048 91.224 21.006 91.6253 21.006C91.812 21.006 92.008 21.02 92.2133 21.048C92.4187 21.0667 92.638 21.104 92.8713 21.16V20.88C92.8713 20.684 92.848 20.4973 92.8013 20.32C92.7547 20.1427 92.6707 19.9887 92.5493 19.858C92.4373 19.718 92.2833 19.6107 92.0873 19.536C91.9007 19.4613 91.6627 19.424 91.3733 19.424C90.9813 19.424 90.622 19.452 90.2953 19.508C89.9687 19.564 89.7027 19.6293 89.4973 19.704L89.2873 18.332C89.502 18.2573 89.8147 18.1827 90.2253 18.108C90.636 18.0333 91.0747 17.996 91.5413 17.996Z" fill="#141B25"/>
<rect x="1.5" y="1.5" width="129" height="38" rx="7" stroke="#89E159" stroke-width="2"/>
<path d="M61 81.1145V39H71V81.1145C67.9091 83.0106 63.0455 81.9045 61 81.1145Z" fill="#89E159"/>
<path d="M53.6828 83.5532C51.8907 83.5531 48.081 83.5528 49.2021 87.8633L80.5651 87.8655C83.3987 87.8657 81.3121 83.5552 79.4453 83.5551C77.6533 80.1067 73.0984 78.5259 71.6048 79.2442C67.1249 72.7784 64.3238 78.1661 62.6442 77.0884C59.9562 75.3638 53.6831 79.2429 53.6828 83.5532L53.6828 83.5532Z" fill="#1E4E4E"/>
</svg>
