<svg width="273" height="248" viewBox="0 0 273 248" fill="none" xmlns="http://www.w3.org/2000/svg">
<g filter="url(#filter0_f_1717_1503)">
<ellipse cx="136.5" cy="124" rx="61.5" ry="49" fill="#1E4E4E"/>
</g>
<path d="M138.923 179L79 146.302V130.553V128.355V113.523C86.5225 93.2638 96.0543 81.8016 106.59 76.1707M138.923 179V155.976V153.178V134.07C138.923 84.5825 188.154 72.0311 196 105.129V139.026L157.977 165.655L142.118 176.762M138.923 179L142.118 176.762M182.55 88.1988C155.304 67.6341 118.057 77.4282 118.057 126.915L103.141 121.585C118.057 76.5882 138.75 69.8327 163.668 79.1449C143.578 67.0482 110.942 74.1895 100.296 120.825L80.8968 114.174C88.0254 94.9755 96.921 84.1034 106.59 78.3744M182.55 88.1988C155.046 72.1911 123.231 79.8108 120.505 127.754L136.853 133.36C137.284 113.995 147.027 77.8521 182.55 88.1988ZM142.118 176.762L142.089 174.044M142.089 174.044L141.682 134.63C143.147 87.3014 182.55 76.3486 194.017 105.129V138.355L187.809 142.622C186.843 111.088 177.118 106.06 171.514 108.407C158.855 114.995 155.149 149.269 155.74 164.663L142.089 174.044ZM106.59 63.3971L114.954 59L121.851 61.7982M106.59 63.3971L113.402 66.595M106.59 63.3971V76.1707M121.851 61.7982L113.402 66.595M121.851 61.7982V71.7991M113.402 66.595V73.352V75.1886V87.0615M113.402 87.0615L106.59 83.7037V78.3744M113.402 87.0615L121.851 80.5058V73.2005M106.59 78.3744V76.1707M121.851 71.7991C128.319 71.3131 134.964 72.2976 141.595 74.1895C135.08 72.9685 128.41 72.3566 121.851 73.2005M121.851 71.7991V73.2005M120.505 145.548L136.853 152.321V135.27L120.505 129.833V145.548ZM118.057 144.534L103.141 138.355V123.757L118.057 129.14V144.534ZM100.296 137.177L80.8968 129.14V115.603L100.296 122.718V137.177ZM80.8968 131.358V144.534L100.296 155.042V139.588L80.8968 131.358ZM136.853 174.844V155.098L120.505 148.162V166.049L136.853 174.844ZM118.057 147.124V164.663L103.141 156.583V140.795L118.057 147.124ZM157.977 163.125C157.386 147.731 161.167 121.585 172.29 110.726C175.968 108.606 183.774 112.326 185.567 144.163L157.977 163.125ZM109.349 63.0773L113.402 65.076L119.092 62.1179L114.954 60.1992L109.349 63.0773Z" stroke="#BFC6DC" stroke-width="0.5"/>
<defs>
<filter id="filter0_f_1717_1503" x="0" y="0" width="273" height="248" filterUnits="userSpaceOnUse" color-interpolation-filters="sRGB">
<feFlood flood-opacity="0" result="BackgroundImageFix"/>
<feBlend mode="normal" in="SourceGraphic" in2="BackgroundImageFix" result="shape"/>
<feGaussianBlur stdDeviation="37.5" result="effect1_foregroundBlur_1717_1503"/>
</filter>
</defs>
</svg>
