<svg width="66" height="44" viewBox="0 0 66 44" fill="none" xmlns="http://www.w3.org/2000/svg">
<rect x="0.5" y="0.5" width="65" height="19" rx="3.5" fill="#141B25"/>
<path d="M23.0958 8.149V8.912H21.6048V13H20.7158V8.912H19.2248V8.149H23.0958ZM23.1407 11.187C23.1407 10.865 23.1874 10.5827 23.2807 10.34C23.3787 10.0973 23.507 9.89667 23.6657 9.738C23.8244 9.57467 24.0064 9.45333 24.2117 9.374C24.417 9.29 24.627 9.248 24.8417 9.248C25.3457 9.248 25.7377 9.40433 26.0177 9.717C26.3024 10.0297 26.4447 10.4963 26.4447 11.117C26.4447 11.1637 26.4424 11.2173 26.4377 11.278C26.4377 11.334 26.4354 11.3853 26.4307 11.432H24.0157C24.039 11.726 24.1417 11.9547 24.3237 12.118C24.5104 12.2767 24.7787 12.356 25.1287 12.356C25.334 12.356 25.5207 12.3373 25.6887 12.3C25.8614 12.2627 25.9967 12.223 26.0947 12.181L26.2067 12.874C26.16 12.8973 26.0947 12.923 26.0107 12.951C25.9314 12.9743 25.838 12.9953 25.7307 13.014C25.628 13.0373 25.516 13.056 25.3947 13.07C25.2734 13.084 25.1497 13.091 25.0237 13.091C24.7017 13.091 24.4217 13.0443 24.1837 12.951C23.9457 12.853 23.7497 12.72 23.5957 12.552C23.4417 12.3793 23.3274 12.1787 23.2527 11.95C23.178 11.7167 23.1407 11.4623 23.1407 11.187ZM25.5977 10.809C25.5977 10.6923 25.5814 10.5827 25.5487 10.48C25.516 10.3727 25.467 10.2817 25.4017 10.207C25.341 10.1277 25.264 10.067 25.1707 10.025C25.082 9.97833 24.9747 9.955 24.8487 9.955C24.718 9.955 24.6037 9.98067 24.5057 10.032C24.4077 10.0787 24.3237 10.1417 24.2537 10.221C24.1884 10.3003 24.137 10.3913 24.0997 10.494C24.0624 10.5967 24.0367 10.7017 24.0227 10.809H25.5977ZM30.3877 9.339V13H29.5407V10.046H28.1897V13H27.3427V9.339H30.3877ZM32.8998 10.039C32.8951 10.2443 32.8881 10.459 32.8788 10.683C32.8694 10.9023 32.8461 11.1193 32.8088 11.334C32.7761 11.5487 32.7224 11.754 32.6478 11.95C32.5731 12.146 32.4681 12.3233 32.3328 12.482C32.2021 12.636 32.0364 12.7667 31.8358 12.874C31.6398 12.9767 31.3994 13.042 31.1148 13.07L30.9958 12.363C31.2338 12.3163 31.4181 12.2417 31.5488 12.139C31.6794 12.0317 31.7798 11.8963 31.8498 11.733C31.9058 11.6117 31.9478 11.474 31.9758 11.32C32.0084 11.166 32.0318 11.005 32.0458 10.837C32.0644 10.6643 32.0761 10.4893 32.0808 10.312C32.0854 10.1347 32.0878 9.962 32.0878 9.794V9.339H34.6778V13H33.8308V10.039H32.8998ZM38.9638 9.339V13H38.1238C38.1238 12.734 38.1238 12.4703 38.1238 12.209C38.1284 11.9477 38.1308 11.705 38.1308 11.481C38.1354 11.257 38.1378 11.0633 38.1378 10.9C38.1424 10.732 38.1448 10.6083 38.1448 10.529C38.0048 10.711 37.8601 10.9117 37.7108 11.131C37.5614 11.3503 37.4121 11.5697 37.2628 11.789C37.1181 12.0083 36.9804 12.223 36.8498 12.433C36.7191 12.643 36.6048 12.832 36.5068 13H35.7578V9.339H36.5908C36.5908 9.60967 36.5884 9.86867 36.5838 10.116C36.5838 10.3587 36.5838 10.5803 36.5838 10.781C36.5838 10.9817 36.5814 11.1567 36.5768 11.306C36.5768 11.4553 36.5768 11.5697 36.5768 11.649C36.7074 11.4483 36.8428 11.243 36.9828 11.033C37.1228 10.8183 37.2628 10.6107 37.4028 10.41C37.5474 10.2047 37.6898 10.011 37.8298 9.829C37.9698 9.647 38.1051 9.48367 38.2358 9.339H38.9638ZM43.6349 12.307V14.036H42.8859V13H40.0439V9.339H40.8909V12.307H42.2349V9.339H43.0819V12.307H43.6349ZM45.5907 12.405C45.852 12.405 46.0503 12.391 46.1857 12.363V11.425C46.139 11.411 46.0713 11.397 45.9827 11.383C45.894 11.369 45.796 11.362 45.6887 11.362C45.5953 11.362 45.4997 11.369 45.4017 11.383C45.3083 11.397 45.222 11.4227 45.1427 11.46C45.068 11.4973 45.0073 11.551 44.9607 11.621C44.914 11.6863 44.8907 11.7703 44.8907 11.873C44.8907 12.0737 44.9537 12.2137 45.0797 12.293C45.2057 12.3677 45.376 12.405 45.5907 12.405ZM45.5207 9.248C45.8007 9.248 46.0363 9.283 46.2277 9.353C46.419 9.423 46.5707 9.521 46.6827 9.647C46.7993 9.773 46.881 9.927 46.9277 10.109C46.979 10.2863 47.0047 10.4823 47.0047 10.697V12.916C46.874 12.944 46.6757 12.9767 46.4097 13.014C46.1483 13.056 45.852 13.077 45.5207 13.077C45.3013 13.077 45.1007 13.056 44.9187 13.014C44.7367 12.972 44.5803 12.9043 44.4497 12.811C44.3237 12.7177 44.2233 12.5963 44.1487 12.447C44.0787 12.2977 44.0437 12.1133 44.0437 11.894C44.0437 11.684 44.0833 11.5067 44.1627 11.362C44.2467 11.2173 44.3587 11.1007 44.4987 11.012C44.6387 10.9187 44.7997 10.8533 44.9817 10.816C45.1683 10.774 45.362 10.753 45.5627 10.753C45.656 10.753 45.754 10.76 45.8567 10.774C45.9593 10.7833 46.069 10.802 46.1857 10.83V10.69C46.1857 10.592 46.174 10.4987 46.1507 10.41C46.1273 10.3213 46.0853 10.2443 46.0247 10.179C45.9687 10.109 45.8917 10.0553 45.7937 10.018C45.7003 9.98067 45.5813 9.962 45.4367 9.962C45.2407 9.962 45.061 9.976 44.8977 10.004C44.7343 10.032 44.6013 10.0647 44.4987 10.102L44.3937 9.416C44.501 9.37867 44.6573 9.34133 44.8627 9.304C45.068 9.26667 45.2873 9.248 45.5207 9.248Z" fill="#89E159"/>
<rect x="0.5" y="0.5" width="65" height="19" rx="3.5" stroke="#89E159"/>
<path d="M30 40.4664V19H35V40.4664C33.4545 41.4328 31.0227 40.8691 30 40.4664Z" fill="#89E159"/>
<path d="M26.4158 41.8202C25.4912 41.8201 23.5259 41.82 24.1043 44L40.2838 44.0012C41.7456 44.0013 40.6692 41.8212 39.7061 41.8211C38.7817 40.077 36.4318 39.2775 35.6614 39.6408C33.3502 36.3706 31.9052 39.0956 31.0387 38.5505C29.6521 37.6782 26.4159 39.6402 26.4158 41.8202L26.4158 41.8202Z" fill="#1E4E4E"/>
</svg>
