<svg width="30" height="87" viewBox="0 0 30 87" fill="none" xmlns="http://www.w3.org/2000/svg">
<g filter="url(#filter0_i_731_6972)">
<path d="M5.12524 11.9062C5.12524 11.9062 10.7252 13.9896 14.7252 13.9896C18.7252 13.9896 25.1252 11.9062 25.1252 11.9062V76.9063C25.1252 82.4291 20.6481 86.9063 15.1252 86.9063C9.6024 86.9063 5.12524 82.4291 5.12524 76.9063V11.9062Z" fill="#949AAC"/>
</g>
<path d="M5.62524 12.6122C5.71135 12.6415 5.80478 12.6729 5.90501 12.7062C6.49892 12.9037 7.33263 13.1669 8.29306 13.4301C10.203 13.9537 12.6559 14.4896 14.7252 14.4896C16.7904 14.4896 19.4409 13.9552 21.5456 13.4332C22.6043 13.1706 23.5365 12.9082 24.2041 12.7114C24.3593 12.6656 24.5002 12.6234 24.6252 12.5855V76.9063C24.6252 82.153 20.3719 86.4063 15.1252 86.4063C9.87854 86.4063 5.62524 82.153 5.62524 76.9063V12.6122Z" stroke="#A5A5A5"/>
<path d="M29.5249 1.90148C29.525 1.90149 29.5241 1.90296 29.5216 1.90586C29.5235 1.90291 29.5247 1.90146 29.5249 1.90148ZM28.6709 1.69838C29.0133 1.80633 29.2506 1.90984 29.3972 2C29.2506 2.09017 29.0133 2.19367 28.6709 2.30162C27.9526 2.52806 26.8874 2.73902 25.5405 2.9186C22.854 3.2768 19.1272 3.5 15 3.5C10.8728 3.5 7.14595 3.2768 4.45948 2.9186C3.1126 2.73902 2.04741 2.52806 1.3291 2.30162C0.986645 2.19367 0.749344 2.09017 0.602755 2C0.749344 1.90983 0.986645 1.80633 1.3291 1.69838C2.04741 1.47194 3.1126 1.26098 4.45948 1.0814C7.14595 0.723204 10.8728 0.5 15 0.5C19.1272 0.5 22.854 0.723204 25.5405 1.0814C26.8874 1.26098 27.9526 1.47194 28.6709 1.69838ZM0.475112 1.90148C0.47527 1.90146 0.476511 1.90291 0.478363 1.90586C0.47588 1.90296 0.474954 1.90149 0.475112 1.90148ZM0.475112 2.09852C0.474954 2.09851 0.47588 2.09704 0.478363 2.09414C0.476511 2.09709 0.47527 2.09854 0.475112 2.09852ZM29.5216 2.09414C29.5241 2.09704 29.525 2.09851 29.5249 2.09852C29.5247 2.09854 29.5235 2.09709 29.5216 2.09414Z" stroke="#A5A5A5"/>
<path d="M0.5 2C0.5 3 5 6 5.5 6.5" stroke="#A5A5A5"/>
<path d="M29.5 2C29.5 3 25 6 24.5 6.5" stroke="#A5A5A5"/>
<line x1="5.6001" y1="13" x2="5.6001" y2="6" stroke="#A5A5A5"/>
<path d="M24.6304 13V6" stroke="#A5A5A5"/>
<defs>
<filter id="filter0_i_731_6972" x="5.12524" y="11.9062" width="20" height="77" filterUnits="userSpaceOnUse" color-interpolation-filters="sRGB">
<feFlood flood-opacity="0" result="BackgroundImageFix"/>
<feBlend mode="normal" in="SourceGraphic" in2="BackgroundImageFix" result="shape"/>
<feColorMatrix in="SourceAlpha" type="matrix" values="0 0 0 0 0 0 0 0 0 0 0 0 0 0 0 0 0 0 127 0" result="hardAlpha"/>
<feOffset dy="2"/>
<feGaussianBlur stdDeviation="3"/>
<feComposite in2="hardAlpha" operator="arithmetic" k2="-1" k3="1"/>
<feColorMatrix type="matrix" values="0 0 0 0 0 0 0 0 0 0 0 0 0 0 0 0 0 0 0.25 0"/>
<feBlend mode="normal" in2="shape" result="effect1_innerShadow_731_6972"/>
</filter>
</defs>
</svg>
