<svg width="66" height="60" viewBox="0 0 66 60" fill="none" xmlns="http://www.w3.org/2000/svg">
<path d="M33.3289 10.5817L31.6673 12.1342C31.88 12.3619 32.1373 12.5434 32.4231 12.6676C32.709 12.7917 33.0173 12.8557 33.3289 12.8557C33.6405 12.8557 33.9488 12.7917 34.2347 12.6676C34.5205 12.5434 34.7778 12.3619 34.9906 12.1342L33.3289 10.5817ZM25.5483 50.6736C21.1516 47.1077 16.0211 42.429 12.0064 37.3076C7.94629 32.1316 5.28098 26.8162 5.28098 21.9343H0.732666C0.732666 28.3535 4.15906 34.6756 8.42538 40.1154C12.7372 45.6128 18.1588 50.5341 22.6828 54.2061L25.5483 50.6736ZM5.28098 21.9343C5.28098 13.1257 9.12582 7.68292 13.8803 5.81811C18.6257 3.95937 25.2632 5.28747 31.6673 12.1342L34.9906 9.02922C27.7496 1.28496 19.2261 -1.159 12.2217 1.58211C5.2264 4.32323 0.732666 11.8492 0.732666 21.9343H5.28098ZM43.972 54.2031C48.4991 50.5311 53.9206 45.6098 58.2324 40.1124C62.4988 34.6726 65.9252 28.3505 65.9252 21.9282H61.3768C61.3768 26.8162 58.7085 32.1286 54.6514 37.3046C50.6368 42.426 45.5063 47.1047 41.1096 50.6705L43.972 54.2031ZM65.9252 21.9282C65.9252 11.8461 61.4314 4.3202 54.4331 1.58211C47.4287 -1.16203 38.9082 1.27889 31.6673 9.02619L34.9906 12.1342C41.3946 5.28747 48.0321 3.95633 52.7775 5.81508C57.532 7.67685 61.3768 13.1227 61.3768 21.9282H65.9252ZM22.6828 54.2061C26.5337 57.3353 29.2112 59.6307 33.3289 59.6307V55.0824C31.1366 55.0824 29.7721 54.1 25.5483 50.6736L22.6828 54.2061ZM41.1096 50.6705C36.8857 54.0969 35.5212 55.0824 33.3289 55.0824V59.6307C37.4467 59.6307 40.1241 57.3353 43.975 54.2061L41.1096 50.6705Z" fill="#89E159"/>
</svg>
