<svg width="132" height="88" viewBox="0 0 132 88" fill="none" xmlns="http://www.w3.org/2000/svg">
<rect x="1.5" y="1.5" width="129" height="38" rx="7" fill="#89E159"/>
<path d="M45.682 24.002H46.886C47.306 23.4233 47.628 22.8167 47.852 22.182C48.0853 21.538 48.2533 20.8753 48.356 20.194C48.468 19.5033 48.5333 18.794 48.552 18.066C48.5707 17.3287 48.58 16.5727 48.58 15.798H54.53V24.002H55.972V28.09H54.278V25.5H47.376V28.09H45.682V24.002ZM50.274 17.31C50.246 17.87 50.2133 18.444 50.176 19.032C50.1387 19.62 50.0687 20.2033 49.966 20.782C49.8727 21.3513 49.7373 21.9113 49.56 22.462C49.3827 23.0033 49.14 23.5167 48.832 24.002H52.794V17.31H50.274ZM63.9051 21.832C63.9051 22.4107 63.8211 22.938 63.6531 23.414C63.4851 23.89 63.2471 24.296 62.9391 24.632C62.6311 24.968 62.2577 25.2293 61.8191 25.416C61.3897 25.6027 60.9137 25.696 60.3911 25.696C59.8684 25.696 59.3924 25.6027 58.9631 25.416C58.5337 25.2293 58.1651 24.968 57.8571 24.632C57.5491 24.296 57.3064 23.89 57.1291 23.414C56.9611 22.938 56.8771 22.4107 56.8771 21.832C56.8771 21.2533 56.9611 20.7307 57.1291 20.264C57.3064 19.788 57.5491 19.382 57.8571 19.046C58.1744 18.71 58.5477 18.4533 58.9771 18.276C59.4064 18.0893 59.8777 17.996 60.3911 17.996C60.9044 17.996 61.3757 18.0893 61.8051 18.276C62.2437 18.4533 62.6171 18.71 62.9251 19.046C63.2331 19.382 63.4711 19.788 63.6391 20.264C63.8164 20.7307 63.9051 21.2533 63.9051 21.832ZM62.1691 21.832C62.1691 21.104 62.0104 20.53 61.6931 20.11C61.3851 19.6807 60.9511 19.466 60.3911 19.466C59.8311 19.466 59.3924 19.6807 59.0751 20.11C58.7671 20.53 58.6131 21.104 58.6131 21.832C58.6131 22.5693 58.7671 23.1527 59.0751 23.582C59.3924 24.0113 59.8311 24.226 60.3911 24.226C60.9511 24.226 61.3851 24.0113 61.6931 23.582C62.0104 23.1527 62.1691 22.5693 62.1691 21.832ZM67.3583 20.698C67.3303 21.09 67.3023 21.5007 67.2743 21.93C67.2463 22.35 67.2229 22.77 67.2043 23.19C67.1856 23.61 67.1669 24.016 67.1483 24.408C67.1296 24.8 67.1156 25.164 67.1063 25.5H65.4683C65.4869 24.9587 65.5149 24.3753 65.5523 23.75C65.5896 23.1153 65.6316 22.476 65.6783 21.832C65.7343 21.1787 65.7903 20.5393 65.8463 19.914C65.9023 19.2887 65.9629 18.71 66.0283 18.178H67.4983C67.8529 18.7473 68.2123 19.4193 68.5763 20.194C68.9403 20.9593 69.3463 21.832 69.7943 22.812C70.2609 21.8133 70.6856 20.9127 71.0683 20.11C71.4509 19.298 71.7916 18.654 72.0903 18.178H73.5743C73.6396 18.71 73.7003 19.2887 73.7563 19.914C73.8216 20.5393 73.8776 21.1787 73.9243 21.832C73.9709 22.476 74.0129 23.1153 74.0503 23.75C74.0876 24.3753 74.1156 24.9587 74.1343 25.5H72.4543C72.4356 24.7347 72.4029 23.946 72.3563 23.134C72.3189 22.3127 72.2723 21.5007 72.2163 20.698C72.0763 20.978 71.9223 21.2907 71.7543 21.636C71.5956 21.9813 71.4369 22.3313 71.2783 22.686C71.1196 23.0407 70.9656 23.386 70.8163 23.722C70.6669 24.0487 70.5363 24.338 70.4243 24.59H69.1643C69.0523 24.338 68.9169 24.044 68.7583 23.708C68.6089 23.372 68.4549 23.0267 68.2963 22.672C68.1376 22.3173 67.9743 21.972 67.8063 21.636C67.6476 21.2907 67.4983 20.978 67.3583 20.698ZM79.0268 20.782H81.5188V18.038H83.0308V20.782H85.5228V22.21H83.0308V24.954H81.5188V22.21H79.0268V20.782Z" fill="#141B25"/>
<rect x="1.5" y="1.5" width="129" height="38" rx="7" stroke="#89E159" stroke-width="2"/>
<path d="M61 81.1145V39H71V81.1145C67.9091 83.0106 63.0455 81.9045 61 81.1145Z" fill="#89E159"/>
<path d="M53.6828 83.5532C51.8907 83.5531 48.081 83.5528 49.2021 87.8633L80.5651 87.8655C83.3987 87.8657 81.3121 83.5552 79.4453 83.5551C77.6533 80.1067 73.0984 78.5259 71.6048 79.2442C67.1249 72.7784 64.3238 78.1661 62.6442 77.0884C59.9562 75.3638 53.6831 79.2429 53.6828 83.5532L53.6828 83.5532Z" fill="#1E4E4E"/>
</svg>
