<svg width="132" height="88" viewBox="0 0 132 88" fill="none" xmlns="http://www.w3.org/2000/svg">
<rect x="1.5" y="1.5" width="129" height="38" rx="7" fill="#141B25"/>
<path d="M51.182 24.002H52.386C52.806 23.4233 53.128 22.8167 53.352 22.182C53.5853 21.538 53.7533 20.8753 53.856 20.194C53.968 19.5033 54.0333 18.794 54.052 18.066C54.0707 17.3287 54.08 16.5727 54.08 15.798H60.03V24.002H61.472V28.09H59.778V25.5H52.876V28.09H51.182V24.002ZM55.774 17.31C55.746 17.87 55.7133 18.444 55.676 19.032C55.6387 19.62 55.5687 20.2033 55.466 20.782C55.3727 21.3513 55.2373 21.9113 55.06 22.462C54.8827 23.0033 54.64 23.5167 54.332 24.002H58.294V17.31H55.774ZM69.4051 21.832C69.4051 22.4107 69.3211 22.938 69.1531 23.414C68.9851 23.89 68.7471 24.296 68.4391 24.632C68.1311 24.968 67.7577 25.2293 67.3191 25.416C66.8897 25.6027 66.4137 25.696 65.8911 25.696C65.3684 25.696 64.8924 25.6027 64.4631 25.416C64.0337 25.2293 63.6651 24.968 63.3571 24.632C63.0491 24.296 62.8064 23.89 62.6291 23.414C62.4611 22.938 62.3771 22.4107 62.3771 21.832C62.3771 21.2533 62.4611 20.7307 62.6291 20.264C62.8064 19.788 63.0491 19.382 63.3571 19.046C63.6744 18.71 64.0477 18.4533 64.4771 18.276C64.9064 18.0893 65.3777 17.996 65.8911 17.996C66.4044 17.996 66.8757 18.0893 67.3051 18.276C67.7437 18.4533 68.1171 18.71 68.4251 19.046C68.7331 19.382 68.9711 19.788 69.1391 20.264C69.3164 20.7307 69.4051 21.2533 69.4051 21.832ZM67.6691 21.832C67.6691 21.104 67.5104 20.53 67.1931 20.11C66.8851 19.6807 66.4511 19.466 65.8911 19.466C65.3311 19.466 64.8924 19.6807 64.5751 20.11C64.2671 20.53 64.1131 21.104 64.1131 21.832C64.1131 22.5693 64.2671 23.1527 64.5751 23.582C64.8924 24.0113 65.3311 24.226 65.8911 24.226C66.4511 24.226 66.8851 24.0113 67.1931 23.582C67.5104 23.1527 67.6691 22.5693 67.6691 21.832ZM72.8583 20.698C72.8303 21.09 72.8023 21.5007 72.7743 21.93C72.7463 22.35 72.7229 22.77 72.7043 23.19C72.6856 23.61 72.6669 24.016 72.6483 24.408C72.6296 24.8 72.6156 25.164 72.6063 25.5H70.9683C70.9869 24.9587 71.0149 24.3753 71.0523 23.75C71.0896 23.1153 71.1316 22.476 71.1783 21.832C71.2343 21.1787 71.2903 20.5393 71.3463 19.914C71.4023 19.2887 71.4629 18.71 71.5283 18.178H72.9983C73.3529 18.7473 73.7123 19.4193 74.0763 20.194C74.4403 20.9593 74.8463 21.832 75.2943 22.812C75.7609 21.8133 76.1856 20.9127 76.5683 20.11C76.9509 19.298 77.2916 18.654 77.5903 18.178H79.0743C79.1396 18.71 79.2003 19.2887 79.2563 19.914C79.3216 20.5393 79.3776 21.1787 79.4243 21.832C79.4709 22.476 79.5129 23.1153 79.5503 23.75C79.5876 24.3753 79.6156 24.9587 79.6343 25.5H77.9543C77.9356 24.7347 77.9029 23.946 77.8563 23.134C77.8189 22.3127 77.7723 21.5007 77.7163 20.698C77.5763 20.978 77.4223 21.2907 77.2543 21.636C77.0956 21.9813 76.9369 22.3313 76.7783 22.686C76.6196 23.0407 76.4656 23.386 76.3163 23.722C76.1669 24.0487 76.0363 24.338 75.9243 24.59H74.6643C74.5523 24.338 74.4169 24.044 74.2583 23.708C74.1089 23.372 73.9549 23.0267 73.7963 22.672C73.6376 22.3173 73.4743 21.972 73.3063 21.636C73.1476 21.2907 72.9983 20.978 72.8583 20.698Z" fill="#89E159"/>
<rect x="1.5" y="1.5" width="129" height="38" rx="7" stroke="#89E159" stroke-width="2"/>
<path d="M61 81.1145V39H71V81.1145C67.9091 83.0106 63.0455 81.9045 61 81.1145Z" fill="#89E159"/>
<path d="M53.6828 83.5532C51.8907 83.5531 48.081 83.5528 49.2021 87.8633L80.5651 87.8655C83.3987 87.8657 81.3121 83.5552 79.4453 83.5551C77.6533 80.1067 73.0984 78.5259 71.6048 79.2442C67.1249 72.7784 64.3238 78.1661 62.6442 77.0884C59.9562 75.3638 53.6831 79.2429 53.6828 83.5532L53.6828 83.5532Z" fill="#1E4E4E"/>
</svg>
