<svg width="177" height="174" viewBox="0 0 177 174" fill="none" xmlns="http://www.w3.org/2000/svg">
<g filter="url(#filter0_f_1717_1506)">
<ellipse cx="88.5" cy="87" rx="38.5" ry="37" fill="#703B1B"/>
</g>
<path d="M45 82.5277L90.885 105.291M45 82.5277V84.358L51.555 87.6263M45 82.5277C47.0801 80.7659 49.3028 78.1074 51.555 74.9087M90.885 105.291V107.236M90.885 105.291C92.4022 103.31 94.2018 100.766 96.1282 97.8709M115.265 60.2214C118.063 65.2165 126.328 77.3572 137 85.9594L134.93 87.2177C134.551 86.8299 134.141 86.4087 133.705 85.9594M115.265 60.2214L78.695 40.8905M115.265 60.2214C114.806 62.3428 113.973 64.8303 112.871 67.5412M73.75 44.0922L77.545 41.5756M73.75 44.0922L69.384 41.5756M73.75 44.0922V56.6753M77.545 41.5756V44.5486M77.545 41.5756L75.6475 40.5461M73.75 39.5166L69.384 41.5756M73.75 39.5166L75.6475 40.5461M73.75 39.5166L74.21 38.5198M69.384 41.5756C70.1188 39.9009 70.7741 38.3599 71.335 37L74.21 38.5198M69.384 41.5756V54.273M69.384 41.5756C68.5907 43.3839 67.7048 45.348 66.7453 47.4084M69.384 54.273L71.567 55.4742L73.75 56.6753M69.384 54.273C68.8093 54.4173 67.5904 54.3674 67.3124 53.0135M69.384 54.273C68.2168 56.6492 67.0299 58.9386 65.815 61.1619M73.75 56.6753L77.0393 51.3212M115.265 65.5978C116.092 66.7687 117.533 68.5031 119.301 70.5166M115.265 65.5978V92.6323M115.265 65.5978C114.228 67.8447 112.981 70.6048 111.601 73.6052M132.158 84.358C132.701 84.922 133.219 85.4582 133.705 85.9594M132.158 84.358L127.57 86.6052M132.158 84.358C130.752 82.8974 129.18 81.2505 127.57 79.5419M133.705 85.9594L90.885 107.236M90.885 107.236L51.555 87.6263M90.885 107.236V111.183M51.555 87.6263V92.6323M51.555 107.236L90.885 127.369M51.555 107.236V109.41L90.885 130M51.555 107.236V105.063M90.885 127.369L115.265 115.244M90.885 127.369V130M90.885 127.369V124.052M115.265 115.244V118.218M115.265 115.244V112.069M125.04 110.21L130.79 107.122M125.04 110.21V113.07M125.04 110.21V107.236M130.79 107.122V110.21L125.04 113.07M130.79 107.122V104.148M130.79 87.408V91.3137M125.04 113.07L123.315 113.978M125.04 113.07L127.57 113.978M115.265 118.218L116.645 117.491M115.265 118.218L118.83 119.018M115.265 118.218L114.422 118.625M90.885 130L114.422 118.625M116.645 117.491L116.53 101.974L123.315 98.6568V113.978M116.645 117.491L123.315 113.978M127.57 113.978L118.83 119.018M127.57 113.978V115.815M118.83 119.018V121.192M118.83 121.192L127.57 115.815M118.83 121.192H122.165M127.57 115.815L130.1 116.502M130.1 116.502L122.165 121.192M130.1 116.502V118.218M122.165 121.192V123.022M122.165 123.022L130.1 118.218M122.165 123.022L126.305 124.052M130.1 118.218L133.705 119.018M126.305 124.052L133.705 119.018M126.305 124.052V125.768M133.705 119.018V121.192L126.305 125.768M126.305 125.768L114.422 118.625M104.11 109.753V107.465L109.055 105.063V107.465M104.11 109.753L109.055 107.465M104.11 109.753V110.725M109.055 107.465V108.494M109.055 108.494V112.155L104.11 114.67V110.725M109.055 108.494L104.11 110.725M61.79 100.487V99L57.42 97.0553V98.428M61.79 100.487L57.42 98.428M61.79 100.487V101.288M57.42 98.428V99.286M71.565 105.063V103.461L69.265 102.375L66.965 101.288V102.889M71.565 105.063L69.265 103.976L66.965 102.889M71.565 105.063V105.635M66.965 102.889V103.461M86.745 112.269V110.668L84.445 109.581L82.145 108.494V110.096M86.745 112.269L84.445 111.183L82.145 110.096M86.745 112.269V113.124M82.145 110.096V110.954M127.57 86.6052V79.5419M127.57 86.6052L123.315 88.6894M127.57 79.5419C126.153 78.0384 124.706 76.4872 123.315 74.9734M123.315 74.9734V88.6894M123.315 74.9734C121.886 73.4175 120.516 71.901 119.301 70.5166M123.315 88.6894L119.301 90.6555M119.301 70.5166V90.6555M119.301 90.6555L115.265 92.6323M115.265 92.6323L111.815 94.3222M111.815 94.3222L111.601 73.6052M111.815 94.3222L108.02 96.181M111.601 73.6052C110.345 76.3347 108.978 79.2629 107.556 82.1845M108.02 96.181L107.556 82.1845M108.02 96.181L104.57 97.8709M107.556 82.1845C106.54 84.272 105.496 86.356 104.444 88.3616M104.57 97.8709L104.444 88.3616M104.57 97.8709L101.58 99.3354M104.444 88.3616C103.491 90.1801 102.531 91.934 101.58 93.5677M101.58 99.3354V93.5677M101.58 99.3354L99.625 100.293M101.58 93.5677C100.922 94.6978 100.269 95.7703 99.625 96.7667M99.625 100.293L95.025 102.546C96.4454 101.297 98.0055 99.2725 99.625 96.7667M99.625 100.293V96.7667M84.1764 101.745C85.6941 99.7635 87.4943 97.2189 89.4214 94.3222M108.557 56.6753C108.071 58.9154 107.17 61.5639 105.975 64.4527M78.2032 99C79.7176 97.0224 81.5133 94.4845 83.4356 91.5956M102.583 53.9299C102.092 56.1996 101.173 58.8884 99.9547 61.8217M72.945 96.3913C74.3885 94.5062 76.0877 92.112 77.9085 89.39M97.325 51.3212C96.8411 53.5556 95.9427 56.1962 94.753 59.0763M68.7742 94.3222C70.2248 92.4278 71.939 89.9953 73.7788 87.2177M93.3 48.6107C92.7649 51.0818 91.7165 54.0774 90.324 57.3604M62.71 91.3137C64.2425 89.3125 66.0775 86.7067 68.0489 83.7258M87.435 45.5105C86.8998 47.9822 85.8423 50.9827 84.4357 54.273M57.42 88.6893C59.0205 86.5993 60.9614 83.8474 63.0489 80.6962M82.3716 42.8339C81.8267 45.3501 80.7306 48.4165 79.27 51.7802M52.82 86.4073C54.8469 83.7604 56.7724 81.1365 58.6147 78.4891M50.1791 84.9541C52.2725 82.2203 54.2578 79.511 56.155 76.775M47.4151 83.7258C49.372 81.1704 51.4628 78.342 53.5743 75.3505M78.695 40.8905C78.5417 41.7893 78.0969 43.7791 77.545 44.5486M78.695 40.8905L76.0959 39.5166M77.545 44.5486V50.4981L77.0393 51.3212M75.6475 40.5461L76.0959 39.5166M76.0959 39.5166L74.21 38.5198M112.871 67.5412C111.083 67.9221 107.2 67.8377 105.975 64.4527M112.871 67.5412C112.018 69.6408 111.005 71.8745 109.879 74.1759M105.975 64.4527C104.078 65.2911 100.218 65.9388 99.9547 61.8217M105.975 64.4527C105.105 66.5583 104.079 68.7915 102.946 71.0874M99.9547 61.8217C98.4751 62.0232 95.3635 61.7564 94.753 59.0763M99.9547 61.8217C99.109 63.8586 98.1192 66.0134 97.0288 68.2276M94.753 59.0763C93.703 59.3432 91.3472 59.3737 90.324 57.3604M94.753 59.0763C93.9634 60.9879 93.0453 63.0051 92.035 65.079M90.324 57.3604C89.0493 57.4375 86.087 56.9279 84.4357 54.273M90.324 57.3604C89.4759 59.3602 88.5001 61.4665 87.435 63.626M84.4357 54.273C83.2888 54.4986 80.6501 54.3157 79.27 51.7802M84.4357 54.273C83.5626 56.3153 82.555 58.4693 81.4543 60.6778M79.27 51.7802C78.8409 52.0545 77.794 52.3467 77.0393 51.3212M79.27 51.7802C78.401 53.7815 77.4029 55.8882 76.3152 58.0468M109.879 74.1759C108.406 74.5572 104.958 74.4733 102.946 71.0874M109.879 74.1759C108.684 76.6186 107.364 79.1376 105.975 81.6536M102.946 71.0874C101.641 71.5831 98.6319 71.7051 97.0288 68.2276M102.946 71.0874C101.915 73.1746 100.796 75.3137 99.625 77.4555M97.0288 68.2276C95.4025 68.2639 92.127 67.6849 92.035 65.079M97.0288 68.2276C95.8807 70.5589 94.6209 72.956 93.3 75.3505M92.035 65.079C90.9616 65.7296 88.5389 66.3498 87.435 63.626M92.035 65.079C90.8408 67.5305 89.5176 70.0613 88.125 72.5908M87.435 63.626C86.3612 63.9774 83.6618 63.8797 81.4543 60.6778M87.435 63.626C86.3206 65.8852 85.1085 68.2025 83.8425 70.5166M81.4543 60.6778C80.1044 61.0587 77.1867 61.0657 76.3152 58.0468M81.4543 60.6778C80.3323 62.9291 79.1135 65.237 77.8417 67.5412M76.3152 58.0468C75.2685 58.2156 72.945 57.9878 72.025 55.7262C70.8565 58.105 69.6682 60.3968 68.452 62.6224M76.3152 58.0468C75.1529 60.3532 73.8883 62.719 72.5694 65.079M67.3124 53.0135C68.062 51.5209 68.7565 50.0494 69.384 48.6107C68.4312 48.8426 66.5695 48.9267 66.7453 47.4084M67.3124 53.0135C66.4685 53.3733 64.7576 53.6303 64.6654 51.7802M67.3124 53.0135C66.2183 55.1922 65.007 57.4158 63.7159 59.6482M64.6654 51.7802C65.3894 50.2903 66.0848 48.8265 66.7453 47.4084M64.6654 51.7802C63.5735 54.0268 62.4163 56.3327 61.215 58.6313M104.444 84.3811C104.961 83.4748 105.473 82.5644 105.975 81.6536M104.444 84.3811L105.975 81.6536M104.444 84.3811C103.478 86.0733 102.491 87.7511 101.5 89.39M105.975 81.6536C103.859 81.9957 99.625 81.635 99.625 77.4555M99.625 77.4555C98.3216 78.1749 95.232 78.761 93.3 75.3505M99.625 77.4555C97.9709 80.4797 96.2122 83.5095 94.4504 86.4073M93.3 75.3505C91.805 76.1138 88.677 76.6304 88.125 72.5908M93.3 75.3505C91.8135 78.0451 90.2496 80.7364 88.6803 83.3272M88.125 72.5908C86.8416 73.2344 84.1884 73.7205 83.8425 70.5166M88.125 72.5908C86.618 75.3281 85.0297 78.0639 83.4356 80.6962M83.8425 70.5166C82.3511 71.0119 79.063 71.1102 77.8417 67.5412M83.8425 70.5166C82.3684 73.2108 80.8212 75.9005 79.27 78.4891M77.8417 67.5412C76.2657 68.3397 73.0048 68.9652 72.5694 65.079M77.8417 67.5412C76.3855 70.1796 74.8599 72.8129 73.3307 75.3505M72.5694 65.079C71.0895 65.4422 68.1942 65.4593 68.452 62.6224M72.5694 65.079C71.1513 67.6164 69.6704 70.1473 68.1864 72.5908M68.452 62.6224C67.573 63.0215 65.815 63.288 65.815 61.1619M68.452 62.6224C66.9229 65.4203 65.3497 68.1137 63.7159 70.7438M65.815 61.1619C64.9906 61.42 63.4166 61.4785 63.7159 59.6482M65.815 61.1619C64.3285 63.8824 62.8001 66.504 61.215 69.0648M63.7159 59.6482C62.844 59.7329 61.123 59.648 61.215 58.6313M63.7159 59.6482C62.1703 62.3208 60.5103 65.0059 58.8 67.6416M61.215 58.6313C59.7978 61.3431 58.3192 64.0445 56.814 66.6261M101.5 89.39C99.8023 89.8033 96.0148 89.7855 94.4504 86.4073M101.5 89.39C99.6825 92.3986 97.8545 95.276 96.1282 97.8709M94.4504 86.4073C92.7121 86.4864 89.1245 85.9811 88.6803 83.3272M94.4504 86.4073C92.7461 89.2106 91.0391 91.8905 89.4214 94.3222M88.6803 83.3272C87.2867 83.5304 84.2868 83.2888 83.4356 80.6962M88.6803 83.3272C86.9042 86.2592 85.1212 89.0624 83.4356 91.5956M83.4356 80.6962C82.2387 80.8263 79.73 80.567 79.27 78.4891M83.4356 80.6962C81.5604 83.7927 79.6771 86.746 77.9085 89.39M79.27 78.4891C77.9555 78.7114 74.9273 78.3949 73.3307 75.3505M79.27 78.4891C77.4054 81.6009 75.5349 84.5665 73.7788 87.2177M73.3307 75.3505C71.7164 75.6562 68.4274 75.5323 68.1864 72.5908M73.3307 75.3505C71.5398 78.3223 69.744 81.1627 68.0489 83.7258M68.1864 72.5908C66.6962 72.8139 63.7159 72.7569 63.7159 70.7438M68.1864 72.5908C66.4461 75.4561 64.7016 78.2013 63.0489 80.6962M63.7159 70.7438C62.6907 71.0352 60.7551 71.1072 61.215 69.0648M63.7159 70.7438C62.0815 73.375 60.3866 75.943 58.6147 78.4891M61.215 69.0648C60.0267 69.4446 57.88 69.6917 58.8 67.6416M61.215 69.0648C59.5931 71.685 57.9118 74.2415 56.155 76.775M58.8 67.6416C58.1276 67.8188 56.7891 67.8637 56.814 66.6261M58.8 67.6416C57.087 70.2817 55.3236 72.8721 53.5743 75.3505M56.814 66.6261C55.0786 69.6023 53.3079 72.4192 51.555 74.9087M96.1282 97.8709C94.3247 98.5656 90.4585 98.8285 89.4214 94.3222M89.4214 94.3222C87.8563 95.0768 84.4681 95.588 83.4356 91.5956M83.4356 91.5956C81.883 92.5377 78.6039 93.4156 77.9085 89.39M77.9085 89.39C76.5415 89.6114 73.8018 89.487 73.7788 87.2177M73.7788 87.2177C71.823 87.4484 67.9389 87.0729 68.0489 83.7258M68.0489 83.7258C66.2652 83.7962 62.768 83.2888 63.0489 80.6962M63.0489 80.6962C61.2407 81.0067 57.8224 81.0001 58.6147 78.4891M58.6147 78.4891C57.5751 78.9744 55.6278 79.3109 56.155 76.775M56.155 76.775C55.1245 76.882 53.1657 76.7468 53.5743 75.3505M53.5743 75.3505C52.9012 75.9759 51.555 76.763 51.555 74.9087M130.79 91.3137L90.885 111.183M130.79 91.3137V95.9114M90.885 111.183V115.815M90.885 111.183L88.125 110.096M90.885 115.815L102.73 109.753M90.885 115.815V119.934M90.885 115.815L88.125 114.67M102.73 109.753V106.207L110.32 102.546V106.207M102.73 109.753V113.978M110.32 106.207L115.265 103.461M110.32 106.207V110.21M115.265 103.461V100.601L125.04 95.9114V99.3354M115.265 103.461V107.765M125.04 99.3354L130.79 95.9114M125.04 99.3354V103.286M130.79 95.9114V100.029M130.79 104.148L125.04 107.236M130.79 104.148V100.029M125.04 107.236V103.286M115.265 112.069L90.885 124.052M115.265 112.069V107.765M90.885 124.052V119.934M90.885 124.052L51.555 105.063M90.885 119.934L102.73 113.978M90.885 119.934L88.125 118.625M102.73 113.978V116.502L110.32 112.956V110.21M110.32 110.21L115.265 107.765M125.04 103.286L130.79 100.029M51.555 105.063V100.601M88.125 118.625V119.362L80.995 116.044V115.244M88.125 118.625V114.67M80.995 115.244L72.945 111.183M80.995 115.244V110.725M72.945 111.183V112.155L65.815 108.838V107.765M72.945 111.183V106.636M65.815 107.765L63.4 106.893M65.815 107.765V103.383M63.4 106.893V108.037L56.155 104.605V103.461M63.4 106.893V102.489M56.155 103.461L51.555 100.601M56.155 103.461V99.1144M51.555 100.601V96.3913M88.125 114.67V110.096M80.995 110.725L72.945 106.636M80.995 110.725V106.893M72.945 106.636V102.889M65.815 103.383L63.4 102.489M65.815 103.383V100.029M63.4 102.489V99.1144M56.155 99.1144L51.555 96.3913M56.155 99.1144V95.3383M51.555 96.3913V92.6323M88.125 110.096V109.295L80.995 106.207V106.893M80.995 106.893L72.945 102.889M72.945 102.889V102.089L65.815 99V100.029M65.815 100.029L63.4 99.1144M63.4 99.1144V98.0848L56.155 94.7675V95.3383M56.155 95.3383L51.555 92.6323M117.91 108.036C118.255 108.417 118.738 108.906 117.91 110.096M71.565 105.635V106.207V109.753L66.965 107.765V104.605V103.461M71.565 105.635L66.965 103.461M61.79 101.288V102.089V105.291L57.42 103.461V100.144V99.286M61.79 101.288L57.42 99.286M86.745 113.124V113.978V116.959L82.145 115.244V111.812V110.954M86.745 113.124L82.145 110.954M71.335 41.5756L73.75 40.3173L76.05 41.5756L73.75 42.8339L71.335 41.5756Z" stroke="#BFC6DC" stroke-width="0.5"/>
<defs>
<filter id="filter0_f_1717_1506" x="0" y="0" width="177" height="174" filterUnits="userSpaceOnUse" color-interpolation-filters="sRGB">
<feFlood flood-opacity="0" result="BackgroundImageFix"/>
<feBlend mode="normal" in="SourceGraphic" in2="BackgroundImageFix" result="shape"/>
<feGaussianBlur stdDeviation="25" result="effect1_foregroundBlur_1717_1506"/>
</filter>
</defs>
</svg>
