<svg width="66" height="44" viewBox="0 0 66 44" fill="none" xmlns="http://www.w3.org/2000/svg">
<rect x="0.5" y="0.5" width="65" height="19" rx="3.5" fill="#141B25"/>
<path d="M22.591 12.251H23.193C23.403 11.9617 23.564 11.6583 23.676 11.341C23.7927 11.019 23.8767 10.6877 23.928 10.347C23.984 10.0017 24.0167 9.647 24.026 9.283C24.0353 8.91433 24.04 8.53633 24.04 8.149H27.015V12.251H27.736V14.295H26.889V13H23.438V14.295H22.591V12.251ZM24.887 8.905C24.873 9.185 24.8567 9.472 24.838 9.766C24.8193 10.06 24.7843 10.3517 24.733 10.641C24.6863 10.9257 24.6187 11.2057 24.53 11.481C24.4413 11.7517 24.32 12.0083 24.166 12.251H26.147V8.905H24.887ZM31.7025 11.166C31.7025 11.4553 31.6605 11.719 31.5765 11.957C31.4925 12.195 31.3735 12.398 31.2195 12.566C31.0655 12.734 30.8789 12.8647 30.6595 12.958C30.4449 13.0513 30.2069 13.098 29.9455 13.098C29.6842 13.098 29.4462 13.0513 29.2315 12.958C29.0169 12.8647 28.8325 12.734 28.6785 12.566C28.5245 12.398 28.4032 12.195 28.3145 11.957C28.2305 11.719 28.1885 11.4553 28.1885 11.166C28.1885 10.8767 28.2305 10.6153 28.3145 10.382C28.4032 10.144 28.5245 9.941 28.6785 9.773C28.8372 9.605 29.0239 9.47667 29.2385 9.388C29.4532 9.29467 29.6889 9.248 29.9455 9.248C30.2022 9.248 30.4379 9.29467 30.6525 9.388C30.8719 9.47667 31.0585 9.605 31.2125 9.773C31.3665 9.941 31.4855 10.144 31.5695 10.382C31.6582 10.6153 31.7025 10.8767 31.7025 11.166ZM30.8345 11.166C30.8345 10.802 30.7552 10.515 30.5965 10.305C30.4425 10.0903 30.2255 9.983 29.9455 9.983C29.6655 9.983 29.4462 10.0903 29.2875 10.305C29.1335 10.515 29.0565 10.802 29.0565 11.166C29.0565 11.5347 29.1335 11.8263 29.2875 12.041C29.4462 12.2557 29.6655 12.363 29.9455 12.363C30.2255 12.363 30.4425 12.2557 30.5965 12.041C30.7552 11.8263 30.8345 11.5347 30.8345 11.166ZM33.4291 10.599C33.4151 10.795 33.4011 11.0003 33.3871 11.215C33.3731 11.425 33.3615 11.635 33.3521 11.845C33.3428 12.055 33.3335 12.258 33.3241 12.454C33.3148 12.65 33.3078 12.832 33.3031 13H32.4841C32.4935 12.7293 32.5075 12.4377 32.5261 12.125C32.5448 11.8077 32.5658 11.488 32.5891 11.166C32.6171 10.8393 32.6451 10.5197 32.6731 10.207C32.7011 9.89433 32.7315 9.605 32.7641 9.339H33.4991C33.6765 9.62367 33.8561 9.95967 34.0381 10.347C34.2201 10.7297 34.4231 11.166 34.6471 11.656C34.8805 11.1567 35.0928 10.7063 35.2841 10.305C35.4755 9.899 35.6458 9.577 35.7951 9.339H36.5371C36.5698 9.605 36.6001 9.89433 36.6281 10.207C36.6608 10.5197 36.6888 10.8393 36.7121 11.166C36.7355 11.488 36.7565 11.8077 36.7751 12.125C36.7938 12.4377 36.8078 12.7293 36.8171 13H35.9771C35.9678 12.6173 35.9515 12.223 35.9281 11.817C35.9095 11.4063 35.8861 11.0003 35.8581 10.599C35.7881 10.739 35.7111 10.8953 35.6271 11.068C35.5478 11.2407 35.4685 11.4157 35.3891 11.593C35.3098 11.7703 35.2328 11.943 35.1581 12.111C35.0835 12.2743 35.0181 12.419 34.9621 12.545H34.3321C34.2761 12.419 34.2085 12.272 34.1291 12.104C34.0545 11.936 33.9775 11.7633 33.8981 11.586C33.8188 11.4087 33.7371 11.236 33.6531 11.068C33.5738 10.8953 33.4991 10.739 33.4291 10.599ZM39.2634 10.641H40.5094V9.269H41.2654V10.641H42.5114V11.355H41.2654V12.727H40.5094V11.355H39.2634V10.641Z" fill="#89E159"/>
<rect x="0.5" y="0.5" width="65" height="19" rx="3.5" stroke="#89E159"/>
<path d="M30 40.4664V19H35V40.4664C33.4545 41.4328 31.0227 40.8691 30 40.4664Z" fill="#89E159"/>
<path d="M26.4158 41.8202C25.4912 41.8201 23.5259 41.82 24.1043 44L40.2838 44.0012C41.7456 44.0013 40.6692 41.8212 39.7061 41.8211C38.7817 40.077 36.4318 39.2775 35.6614 39.6408C33.3502 36.3706 31.9052 39.0956 31.0387 38.5505C29.6521 37.6782 26.4159 39.6402 26.4158 41.8202L26.4158 41.8202Z" fill="#1E4E4E"/>
</svg>
