<svg width="28" height="28" viewBox="0 0 28 28" fill="none" xmlns="http://www.w3.org/2000/svg">
<rect x="0.636364" y="0.636364" width="26.7273" height="26.7273" rx="5.36364" fill="#141B25"/>
<path d="M17.18 13.001V7.63647H10.8164V13.001C10.8164 13.2237 10.931 13.4337 11.1282 13.5483L13.7882 15.1456L13.1582 16.6347L10.9882 16.8192L12.6364 18.2447L12.1337 20.3637L13.9982 19.2374L15.8628 20.3637L15.3664 18.2447L17.0146 16.8192L14.8446 16.6347L14.2146 15.1456L16.8746 13.5483C17.0655 13.4337 17.18 13.2301 17.18 13.001ZM13.3619 13.4083L12.0891 12.6447V8.9092H13.3619V13.4083ZM15.9073 12.6447L14.6346 13.4083V8.9092H15.9073V12.6447Z" fill="#89E159"/>
<rect x="0.636364" y="0.636364" width="26.7273" height="26.7273" rx="5.36364" stroke="#89E159" stroke-width="1.27273"/>
</svg>
