<svg width="86" height="129" viewBox="0 0 86 129" fill="none" xmlns="http://www.w3.org/2000/svg">
<path d="M75.0001 45.5C76.0001 52.5 60.8971 60.5 43.5001 60.5C26.1031 60.5 11 53 12.0001 45.5C12.0001 38.5964 26.1031 33 43.5001 33C60.8971 33 75.0001 38.5964 75.0001 45.5Z" fill="#D2E68A"/>
<rect x="25" y="20" width="38" height="23" fill="#D2E68A" stroke="#D2E68A" stroke-width="2"/>
<path d="M63.9273 21.5V21.58L63.9401 21.6589C64.3566 24.2465 62.533 26.7977 58.7244 28.8026C54.9792 30.7742 49.653 32 44 32C38.313 32 32.9867 31.0125 29.2531 29.1661C25.5156 27.3178 23.626 24.7713 24.063 21.6382L24.0726 21.5694V21.5C24.0726 18.5397 26.087 15.6866 29.7149 13.5197C33.3222 11.365 38.3704 10 44 10C49.6296 10 54.6778 11.365 58.2851 13.5197C61.913 15.6866 63.9273 18.5397 63.9273 21.5Z" fill="#BFC6DC" stroke="#BFC6DC" stroke-width="2"/>
<path d="M64 19.5C64 21.8167 62.096 24.1832 58.402 26.0302C54.7679 27.8473 49.6774 29 44 29C38.3226 29 33.2321 27.8473 29.598 26.0302C25.904 24.1832 24 21.8167 24 19.5C24 17.1833 25.904 14.8168 29.598 12.9698C33.2321 11.1527 38.3226 10 44 10C49.6774 10 54.7679 11.1527 58.402 12.9698C62.096 14.8168 64 17.1833 64 19.5Z" fill="#DBE2F9" stroke="#DBE2F9" stroke-width="2"/>
<ellipse cx="43.5" cy="103.5" rx="31.5" ry="12.5" fill="#D2E68A"/>
<rect x="13" y="40" width="61" height="69" rx="7" fill="#D2E68A" stroke="#D2E68A" stroke-width="2"/>
<rect x="23" y="61" width="42" height="42" rx="3" fill="#141B25"/>
<path d="M39.9919 83.592C40.3302 84.0657 40.5513 84.596 40.6356 85.0436C40.6778 85.2676 40.6834 85.4583 40.6607 85.6047C40.6382 85.7502 40.5915 85.8336 40.5418 85.8796C40.3952 86.0153 40.0966 86.1051 39.7237 86.025C39.3616 85.9473 38.9615 85.7134 38.6398 85.2629C38.3119 84.8037 38.1431 84.2712 38.1069 83.8142C38.0689 83.3355 38.1787 83.0254 38.302 82.9112C38.588 82.6463 39.3093 82.6362 39.9919 83.592Z" fill="#141B25" stroke="#D2E68A" stroke-width="0.561111"/>
<path d="M41.8657 84.4315C42.0782 84.3169 42.2988 84.1894 42.5127 84.0658C42.5556 84.041 42.5983 84.0164 42.6406 83.9921C42.8964 83.8447 43.1385 83.7076 43.3551 83.6006C43.5759 83.4915 43.7488 83.4248 43.8702 83.4038C43.9224 83.3948 43.95 83.3962 43.9629 83.3986C44.0755 83.6029 44.0521 83.8608 43.8137 84.195C43.5661 84.5423 43.1178 84.9134 42.5166 85.2377C41.9204 85.5593 41.4088 85.6974 41.0375 85.7057C40.6483 85.7144 40.4941 85.5855 40.4546 85.4906C40.4246 85.4185 40.433 85.3895 40.4386 85.374C40.4493 85.3443 40.4847 85.2845 40.5962 85.1905C40.8246 84.9977 41.2303 84.7742 41.8657 84.4315ZM43.9724 83.4019C43.9722 83.4022 43.9703 83.4016 43.9675 83.3996C43.9713 83.4007 43.9727 83.4017 43.9724 83.4019Z" fill="#141B25" stroke="#D2E68A" stroke-width="0.561111"/>
<path d="M45.7658 85.6129C45.5904 85.337 45.3884 85.0555 45.1934 84.7881C45.1569 84.738 45.1207 84.6885 45.0849 84.6396C44.9277 84.4247 44.7793 84.2218 44.6518 84.0341C44.4925 83.7999 44.382 83.6125 44.3298 83.4757C44.3201 83.4504 44.3135 83.4294 44.3091 83.4125C44.3711 83.3705 44.4275 83.3598 44.4867 83.3672C44.5713 83.3777 44.6848 83.4286 44.8338 83.5505C45.1351 83.7969 45.4946 84.2588 45.9421 84.9064C46.3858 85.5487 46.6973 86.071 46.8559 86.4607C46.9358 86.6571 46.9667 86.7959 46.9689 86.8854C46.9706 86.9588 46.9543 86.9718 46.9497 86.9755C46.9494 86.9757 46.9492 86.9759 46.949 86.9761C46.8919 87.0266 46.8707 87.025 46.8669 87.0248C46.8668 87.0248 46.8667 87.0248 46.8667 87.0248C46.856 87.0242 46.8106 87.0164 46.7143 86.928C46.5153 86.7452 46.2332 86.3479 45.7658 85.6129Z" fill="#141B25" stroke="#D2E68A" stroke-width="0.561111"/>
<path d="M47.3861 87.3923C47.3416 87.3278 47.2895 87.2649 47.2471 87.2137C47.2428 87.2085 47.2386 87.2033 47.2344 87.1983C47.2047 87.1623 47.1805 87.1325 47.161 87.1064C47.2253 87.0756 47.2931 87.0722 47.3627 87.0902C47.4669 87.1173 47.5689 87.1928 47.6367 87.291C47.668 87.3362 47.6737 87.3621 47.6748 87.3694C47.6755 87.3741 47.6758 87.378 47.6721 87.3881C47.6671 87.4017 47.6548 87.4254 47.627 87.4596C47.5994 87.4934 47.5627 87.5301 47.5164 87.571C47.5135 87.5675 47.5104 87.5638 47.5071 87.5597C47.4751 87.5202 47.4379 87.4673 47.3861 87.3923Z" fill="#141B25" stroke="#D2E68A" stroke-width="0.561111"/>
<path d="M47.9242 87.5827C47.8797 87.5183 47.8276 87.4554 47.7852 87.4041C47.7809 87.3989 47.7766 87.3938 47.7725 87.3888C47.7428 87.3528 47.7186 87.3229 47.6991 87.2968C47.7634 87.266 47.8312 87.2626 47.9008 87.2807C48.0049 87.3077 48.107 87.3832 48.1748 87.4814C48.2061 87.5267 48.2118 87.5525 48.2129 87.5598C48.2136 87.5645 48.2139 87.5684 48.2102 87.5785C48.2052 87.5921 48.1929 87.6158 48.1651 87.65C48.1375 87.6838 48.1008 87.7205 48.0545 87.7614C48.0516 87.758 48.0485 87.7542 48.0452 87.7501C48.0132 87.7107 47.976 87.6577 47.9242 87.5827Z" fill="#141B25" stroke="#D2E68A" stroke-width="0.561111"/>
<path d="M48.8836 88.3527C48.8117 88.2486 48.7306 88.1422 48.6553 88.0436C48.6481 88.0341 48.6409 88.0247 48.6338 88.0154C48.5502 87.9057 48.476 87.8072 48.4181 87.7185C48.4017 87.6933 48.3879 87.6709 48.3763 87.6511C48.4282 87.657 48.5012 87.6806 48.6013 87.7409C48.7957 87.8578 49.0089 88.0699 49.1767 88.3128C49.3209 88.5215 49.3318 88.6844 49.3122 88.7945C49.3006 88.8595 49.276 88.9181 49.2463 88.967C49.2293 88.937 49.2113 88.9039 49.1906 88.8658C49.1717 88.8308 49.1504 88.7917 49.1257 88.747C49.0617 88.6317 48.9832 88.4967 48.8836 88.3527ZM48.3249 87.5404C48.3249 87.5404 48.325 87.5406 48.3251 87.5412L48.3249 87.5404Z" fill="#141B25" stroke="#D2E68A" stroke-width="0.561111"/>
<path d="M40.129 83.8387C39.9492 84.4553 39.5984 84.9841 39.2128 85.3218C38.8127 85.6722 38.4432 85.7638 38.2087 85.6751C37.9678 85.5841 37.7511 85.3069 37.644 84.8271C37.5388 84.3559 37.5571 83.747 37.74 83.1197C37.916 82.516 38.2839 82.0459 38.6891 81.7609C39.1051 81.4684 39.5103 81.4016 39.7681 81.499C40.0168 81.593 40.1991 81.8242 40.277 82.2301C40.3561 82.6424 40.3156 83.1989 40.129 83.8387Z" fill="#141B25" stroke="#D2E68A" stroke-width="0.561111"/>
<path d="M41.5441 84.1609C41.3643 84.7775 41.0135 85.3064 40.6278 85.6441C40.2277 85.9944 39.8583 86.0861 39.6237 85.9974C39.3829 85.9064 39.1661 85.6292 39.059 85.1494C38.9539 84.6782 38.9721 84.0693 39.155 83.442C39.3311 82.8382 39.699 82.3682 40.1042 82.0832C40.5201 81.7906 40.9253 81.7238 41.1831 81.8213C41.4318 81.9153 41.6142 82.1465 41.692 82.5523C41.7711 82.9647 41.7306 83.5211 41.5441 84.1609Z" fill="#141B25" stroke="#D2E68A" stroke-width="0.561111"/>
<path d="M43.0543 84.3753C42.8745 84.9919 42.5237 85.5208 42.138 85.8585C41.7379 86.2088 41.3685 86.3005 41.134 86.2118C40.8931 86.1207 40.6764 85.8435 40.5693 85.3637C40.4641 84.8926 40.4824 84.2836 40.6653 83.6563C40.8413 83.0526 41.2092 82.5826 41.6144 82.2975C42.0303 82.005 42.4356 81.9382 42.6934 82.0356C42.942 82.1296 43.1244 82.3608 43.2023 82.7667C43.2814 83.179 43.2409 83.7355 43.0543 84.3753Z" fill="#141B25" stroke="#D2E68A" stroke-width="0.561111"/>
<path d="M44.3751 84.4827C44.1953 85.0993 43.8445 85.6282 43.4588 85.9659C43.0587 86.3162 42.6893 86.4079 42.4548 86.3192C42.2139 86.2281 41.9972 85.951 41.8901 85.4711C41.7849 85 41.8032 84.391 41.9861 83.7637C42.1621 83.16 42.53 82.69 42.9352 82.405C43.3512 82.1124 43.7564 82.0456 44.0142 82.1431C44.2628 82.2371 44.4452 82.4683 44.5231 82.8741C44.6022 83.2865 44.5617 83.8429 44.3751 84.4827Z" fill="#141B25" stroke="#D2E68A" stroke-width="0.561111"/>
<path d="M46.0734 84.3753C45.8936 84.9919 45.5428 85.5208 45.1571 85.8585C44.757 86.2088 44.3876 86.3005 44.153 86.2118C43.9122 86.1207 43.6954 85.8435 43.5883 85.3637C43.4832 84.8926 43.5014 84.2836 43.6843 83.6563C43.8604 83.0526 44.2282 82.5826 44.6335 82.2975C45.0494 82.005 45.4546 81.9382 45.7124 82.0356C45.9611 82.1296 46.1435 82.3608 46.2213 82.7667C46.3004 83.179 46.2599 83.7355 46.0734 84.3753Z" fill="#141B25" stroke="#D2E68A" stroke-width="0.561111"/>
<path d="M47.4889 84.2684C47.3091 84.885 46.9583 85.4138 46.5726 85.7515C46.1725 86.1019 45.8031 86.1935 45.5685 86.1048C45.3277 86.0138 45.1109 85.7366 45.0039 85.2568C44.8987 84.7856 44.917 84.1767 45.0999 83.5494C45.2759 82.9457 45.6438 82.4756 46.049 82.1906C46.4649 81.898 46.8702 81.8312 47.1279 81.9287C47.3766 82.0227 47.559 82.2539 47.6368 82.6597C47.716 83.0721 47.6754 83.6286 47.4889 84.2684Z" fill="#141B25" stroke="#D2E68A" stroke-width="0.561111"/>
<path d="M48.6212 84.2684C48.4414 84.885 48.0906 85.4138 47.7049 85.7515C47.3048 86.1019 46.9354 86.1935 46.7008 86.1048C46.46 86.0138 46.2433 85.7366 46.1362 85.2568C46.031 84.7856 46.0493 84.1767 46.2322 83.5494C46.4082 82.9457 46.7761 82.4756 47.1813 82.1906C47.5972 81.898 48.0025 81.8312 48.2603 81.9287C48.5089 82.0227 48.6913 82.2539 48.7692 82.6597C48.8483 83.0721 48.8078 83.6286 48.6212 84.2684Z" fill="#141B25" stroke="#D2E68A" stroke-width="0.561111"/>
<path d="M49.8613 84.3832C49.7061 84.9156 49.4032 85.372 49.071 85.6629C48.7245 85.9663 48.4143 86.0366 48.2271 85.9658C48.0336 85.8927 47.8498 85.6659 47.7577 85.253C47.6674 84.8488 47.6826 84.3234 47.841 83.7803C47.9924 83.2609 48.3091 82.8564 48.6574 82.6115C49.0163 82.359 49.3589 82.3067 49.5693 82.3862C49.7706 82.4623 49.9235 82.65 49.9898 82.9957C50.0574 83.348 50.0233 83.8277 49.8613 84.3832Z" fill="#141B25" stroke="#D2E68A" stroke-width="0.561111"/>
<path d="M50.4975 83.9963L50.5212 84.0443L50.5592 84.0814C50.7349 84.2529 50.8985 84.5777 50.9832 84.9897C51.0666 85.3953 51.0654 85.8481 50.9485 86.2489C50.9266 86.3241 50.9053 86.3566 50.8955 86.3683C50.8838 86.3663 50.8589 86.3595 50.8175 86.3376C50.7664 86.3106 50.7052 86.2688 50.6333 86.2119C50.5323 86.132 50.4323 86.041 50.3252 85.9434C50.2735 85.8964 50.2202 85.8478 50.1643 85.7983C50.0121 85.6633 49.8228 85.504 49.6382 85.4342C49.5647 85.4064 49.4981 85.3861 49.4421 85.3696C49.429 85.3657 49.4168 85.3622 49.4055 85.3589C49.3655 85.3473 49.336 85.3387 49.3083 85.3291C49.2805 85.3194 49.266 85.3124 49.2594 85.3086C49.2536 85.2948 49.2371 85.2442 49.2346 85.1123C49.2316 84.9607 49.2471 84.7405 49.2859 84.4148C49.457 83.8461 49.7272 83.6305 49.9231 83.5925C50.1001 83.5582 50.3268 83.6508 50.4975 83.9963ZM49.2544 85.3053C49.2545 85.3052 49.2554 85.3058 49.2565 85.3069C49.2549 85.3058 49.2543 85.3053 49.2544 85.3053Z" fill="#141B25" stroke="#D2E68A" stroke-width="0.561111"/>
<path d="M50.116 77.8948L50.1468 77.8747L50.1717 77.846C50.3478 77.6434 50.5217 77.4412 50.6928 77.2423C51.3405 76.4893 51.9475 75.7835 52.4747 75.2801C52.8092 74.9606 53.0894 74.7448 53.3097 74.6466C53.5269 74.5498 53.614 74.5931 53.6648 74.6503C53.6929 74.682 53.7024 74.7101 53.7025 74.7513C53.7026 74.8044 53.6857 74.8892 53.6297 75.0131C53.5166 75.2635 53.288 75.5801 52.9656 75.9591C52.6475 76.3329 52.2577 76.7455 51.8378 77.1899L51.8358 77.192C51.4172 77.635 50.9708 78.1075 50.5494 78.5925C50.1297 79.0757 49.6444 79.7689 49.1367 80.4939L49.103 80.5421C48.5782 81.2915 48.0255 82.0785 47.4737 82.7448C46.9173 83.4166 46.3852 83.9364 45.9071 84.1788C45.6717 84.2982 45.464 84.3427 45.281 84.3186C45.1025 84.2952 44.9252 84.204 44.7494 84.006C44.6229 83.8634 44.5684 83.7109 44.5625 83.5428C44.5561 83.3654 44.6035 83.1497 44.717 82.8946C44.9456 82.3806 45.4059 81.7871 46.0091 81.1691C47.2091 79.9394 48.8914 78.6949 50.116 77.8948Z" fill="#141B25" stroke="#D2E68A" stroke-width="0.561111"/>
<path d="M54.836 81.2606C54.6878 80.3662 54.4996 79.3878 54.3212 78.4599C54.199 77.8244 54.0814 77.2126 53.9843 76.6677C53.8634 75.9894 53.7739 75.4137 53.7409 75.0047C53.7261 74.8214 53.7239 74.6851 53.7314 74.5932C53.7506 74.5945 53.7644 74.598 53.7742 74.6016C53.7955 74.6094 53.8264 74.628 53.8658 74.6888C53.9571 74.8297 54.0347 75.0981 54.129 75.5733C54.1668 75.7636 54.2061 75.98 54.2503 76.2228C54.4189 77.1497 54.6577 78.463 55.1492 80.1933C55.4868 82.0562 55.718 83.5491 55.8114 84.5859C55.8585 85.108 55.869 85.4995 55.845 85.7597C55.8401 85.8125 55.8341 85.8566 55.8276 85.893C55.7648 85.7869 55.6892 85.596 55.6006 85.2721C55.4047 84.5563 55.1763 83.3145 54.836 81.2606Z" fill="#141B25" stroke="#D2E68A" stroke-width="0.561111"/>
<path d="M56.2338 86.3343C56.1923 86.2677 56.1431 86.2021 56.103 86.1485C56.0988 86.1431 56.0948 86.1377 56.0909 86.1325C56.0625 86.0945 56.0394 86.0629 56.0208 86.0354C56.0846 86.0098 56.1511 86.0103 56.219 86.032C56.3222 86.0649 56.4216 86.1465 56.4857 86.2494C56.5154 86.2969 56.5202 86.3237 56.5211 86.3318C56.5217 86.3371 56.5216 86.341 56.5177 86.3504C56.5123 86.3633 56.4994 86.3858 56.4703 86.4181C56.4419 86.4497 56.4044 86.4837 56.3572 86.5214C56.3543 86.5175 56.3511 86.5133 56.3477 86.5086C56.3173 86.4672 56.2823 86.4121 56.2338 86.3343Z" fill="#141B25" stroke="#D2E68A" stroke-width="0.561111"/>
<path d="M56.894 86.764C56.8524 86.6974 56.8033 86.6318 56.7631 86.5782C56.759 86.5727 56.755 86.5674 56.7511 86.5622C56.7226 86.5241 56.6995 86.4926 56.6809 86.4651C56.7447 86.4395 56.8112 86.44 56.8791 86.4616C56.9823 86.4946 57.0817 86.5762 57.1459 86.6791C57.1755 86.7266 57.1804 86.7534 57.1813 86.7614C57.1818 86.7668 57.1818 86.7707 57.1779 86.7801C57.1725 86.793 57.1595 86.8155 57.1305 86.8478C57.1021 86.8794 57.0646 86.9134 57.0174 86.9511C57.0144 86.9472 57.0112 86.943 57.0078 86.9383C56.9774 86.8969 56.9425 86.8418 56.894 86.764Z" fill="#141B25" stroke="#D2E68A" stroke-width="0.561111"/>
<path d="M57.5546 87.0863C57.5131 87.0196 57.4639 86.9541 57.4238 86.9005C57.4196 86.895 57.4156 86.8897 57.4117 86.8844C57.3833 86.8464 57.3602 86.8149 57.3416 86.7874C57.4054 86.7617 57.4719 86.7622 57.5398 86.7839C57.643 86.8169 57.7424 86.8984 57.8065 87.0013C57.8362 87.0488 57.841 87.0757 57.8419 87.0837C57.8425 87.0891 57.8424 87.093 57.8385 87.1024C57.8331 87.1152 57.8202 87.1378 57.7912 87.17C57.7627 87.2017 57.7252 87.2356 57.678 87.2733C57.6751 87.2695 57.6719 87.2652 57.6685 87.2606C57.6381 87.2192 57.6031 87.1641 57.5546 87.0863Z" fill="#141B25" stroke="#D2E68A" stroke-width="0.561111"/>
<path d="M58.121 87.4086C58.0795 87.3419 58.0303 87.2763 57.9902 87.2228C57.9861 87.2173 57.982 87.2119 57.9781 87.2067C57.9497 87.1687 57.9266 87.1371 57.908 87.1096C57.9718 87.084 58.0383 87.0845 58.1062 87.1062C58.2094 87.1391 58.3088 87.2207 58.373 87.3236C58.4026 87.3711 58.4074 87.3979 58.4083 87.406C58.4089 87.4113 58.4088 87.4152 58.4049 87.4246C58.3995 87.4375 58.3866 87.4601 58.3576 87.4923C58.3291 87.5239 58.2916 87.5579 58.2444 87.5956C58.2415 87.5917 58.2383 87.5875 58.2349 87.5828C58.2045 87.5415 58.1695 87.4863 58.121 87.4086Z" fill="#141B25" stroke="#D2E68A" stroke-width="0.561111"/>
<path d="M58.9078 88.0868C58.8406 87.9789 58.7642 87.8682 58.6932 87.7655C58.6864 87.7557 58.6797 87.7459 58.673 87.7361C58.5942 87.6219 58.5243 87.5193 58.4701 87.4272C58.4552 87.4019 58.4427 87.3793 58.4322 87.3592C58.4831 87.369 58.5536 87.3969 58.6483 87.4608C58.8379 87.5888 59.042 87.8131 59.1995 88.0655C59.3354 88.2834 59.3391 88.4478 59.3148 88.5566C59.3007 88.6194 59.2746 88.6752 59.2439 88.7214C59.228 88.6901 59.2113 88.6556 59.192 88.6158C59.1746 88.5798 59.1551 88.5396 59.1323 88.4937C59.0734 88.3751 59.0009 88.236 58.9078 88.0868ZM58.3841 87.2423C58.3841 87.2423 58.3842 87.2426 58.3842 87.2432L58.3841 87.2423Z" fill="#141B25" stroke="#D2E68A" stroke-width="0.561111"/>
<path d="M54.3142 67.8239C54.5768 68.1151 54.8057 68.9621 54.115 70.3991C53.4274 71.8294 51.8395 73.8114 48.5438 76.317C47.2453 77.3043 46.054 78.2337 44.9812 79.0707C43.7473 80.0333 42.6702 80.8736 41.767 81.539C40.9232 82.1606 40.241 82.6221 39.7328 82.8842C39.4778 83.0157 39.2763 83.0918 39.1259 83.1165C38.9745 83.1415 38.9065 83.1104 38.8728 83.0731C38.8395 83.0361 38.812 82.9528 38.8497 82.7763C38.8862 82.6052 38.9773 82.3808 39.1256 82.106C39.4213 81.5581 39.9274 80.8404 40.608 80.0011C41.9677 78.3242 44.0085 76.1803 46.4078 73.9684C48.8121 71.752 50.6738 70.0452 52.0142 68.9805C52.6855 68.4472 53.2175 68.0821 53.6164 67.8934C53.8162 67.7989 53.9722 67.7539 54.0892 67.7483C54.2014 67.7429 54.2686 67.7734 54.3142 67.8239Z" fill="#141B25" stroke="#D2E68A" stroke-width="0.280556"/>
<path d="M39.8043 81.5078L40.3164 81.143M43.4258 78.9284L43.06 79.1889M43.4258 78.9284L43.5322 78.5274M43.4258 78.9284L43.8141 78.6721M40.3188 80.6502C40.1394 80.802 39.958 80.9584 39.7757 81.1187L40.3188 80.6502ZM40.3188 80.6502L40.3669 80.3549M40.3188 80.6502C40.4933 80.5024 40.6659 80.3589 40.8354 80.2201M40.3188 80.6502L40.8354 80.2201M40.8354 80.2201L40.912 79.8889M40.8354 80.2201C41.0633 80.0336 41.2857 79.8556 41.4998 79.6875M41.4998 79.6875L41.575 79.4255M41.4998 79.6875C41.763 79.4809 42.0136 79.2891 42.2468 79.1144M41.4998 79.6875L42.2468 79.1144M42.2468 79.1144L42.2905 78.8138M42.2468 79.1144C42.5139 78.9142 42.7579 78.7365 42.9713 78.5846M42.9713 78.5846C43.2531 78.3841 43.4814 78.2287 43.6386 78.1264L43.7433 78.0567M42.9713 78.5846L43.006 78.2021M43.06 79.1889L43.0971 78.951M43.06 79.1889L42.6942 79.4495M42.6942 79.4495L42.7564 79.2423M42.6942 79.4495L42.2552 79.7621M42.2552 79.7621L42.3319 79.5019M42.2552 79.7621L41.7065 80.1529M41.7065 80.1529L41.796 79.9084M41.7065 80.1529L41.3407 80.4135M41.3407 80.4135L41.4396 80.1096M41.3407 80.4135L40.8286 80.7782M40.8286 80.7782L40.8945 80.5757M40.8286 80.7782L40.3164 81.143M40.3164 81.143L40.436 80.8644M45.8982 77.2967L45.7098 77.4211M45.7098 77.4211L45.8223 77.0894M45.7098 77.4211L45.4463 77.595M45.4463 77.595L45.558 77.2622M45.4463 77.595L44.9436 77.9267M44.9436 77.9267L45.0692 77.5884M44.9436 77.9267L44.5793 78.1672M44.5793 78.1672L44.7024 77.8646M44.5793 78.1672L44.2024 78.4159M44.2024 78.4159L44.3545 78.0647M44.2024 78.4159L43.8141 78.6721M43.8141 78.6721L43.9386 78.3344M46.2262 76.4034L46.5271 76.203L46.9587 75.8278M46.2262 76.4034L46.3524 76.1093M46.2262 76.4034L45.5114 76.8794M45.5114 76.8794L45.6763 76.5629M45.5114 76.8794L44.9471 77.2551M44.9471 77.2551L45.0702 76.9524M44.9471 77.2551L44.2928 77.6907M44.2928 77.6907L44.4696 77.3568M44.2928 77.6907L43.7433 78.0567M43.7433 78.0567L43.7797 77.7727M39.7898 80.9329L41.977 78.9154M54.1656 67.6729L53.3262 68.4471M53.3262 68.4471L53.2504 68.24M53.3262 68.4471L52.389 69.3116M52.389 69.3116L52.2581 68.9543M52.389 69.3116L51.1576 70.4475M51.1576 70.4475L51.1466 70.0341M51.1576 70.4475L49.8634 71.6412M49.8634 71.6412L49.8907 71.2047M49.8634 71.6412L48.9889 72.4478M48.9889 72.4478L48.9906 71.9413M48.9889 72.4478L47.4149 73.8996M47.4149 73.8996L47.4833 73.3196M47.4149 73.8996L46.1207 75.0933M46.1207 75.0933L46.1792 74.4864M46.1207 75.0933L44.9317 76.1901M44.9317 76.1901L44.9648 75.6423M44.9317 76.1901L43.7772 77.2549M43.7772 77.2549L43.8552 76.7012M43.7772 77.2549L42.7763 78.1782M42.7763 78.1782L42.8247 77.7072M42.7763 78.1782L41.977 78.9154M41.977 78.9154L42.0331 78.5311M54.5856 68.8196L54.2529 69.1332M54.2529 69.1332L54.1289 68.7946M54.2529 69.1332L53.3476 69.9867M53.3476 69.9867L53.2154 69.6259M53.3476 69.9867L52.5111 70.7752M52.5111 70.7752L52.389 70.4419M52.5111 70.7752L51.5942 71.6396M51.5942 71.6396L51.4603 71.2742M51.5942 71.6396L50.655 72.5249M50.655 72.5249L50.5179 72.1506M50.655 72.5249L50.0462 73.0987M50.0462 73.0987L49.9063 72.7165M50.0462 73.0987L49.7419 73.3857L49.4375 73.6726L48.2533 74.7022M47.6161 76.2376L50.0462 74.4231M47.6161 76.2376L47.2 76.5629L47.1529 76.4832M47.6161 76.2376L47.1529 76.4832M47.6161 76.2376L47.7829 76.1093M48.8904 75.2575L49.2955 74.9459L50.0462 74.4231M48.8904 75.2575L48.8637 74.9168M48.8904 75.2575L48.2533 75.7475M48.2533 75.7475L48.2412 75.3891M48.2533 75.7475L47.7829 76.1093M48.8637 73.6726L48.8904 74.0471L48.2533 74.7022M48.2533 74.7022L48.1907 74.4231M48.2533 74.7022L47.3902 75.4526M47.3902 75.4526L47.2944 75.0933M47.3902 75.4526L46.9587 75.8278M46.9587 75.8278L46.9587 75.5512M50.0462 74.4231L49.9063 74.1545M47.1057 76.4034L47.1529 76.4832M47.719 75.8278L47.7829 76.1093" stroke="#D2E68A" stroke-width="0.280556"/>
<path d="M58.8139 73.2921C58.9854 73.8438 58.8804 75.0238 57.6613 76.3638C56.4423 77.7036 54.1136 79.1952 49.8684 80.3385C48.1939 80.7895 46.6495 81.2319 45.259 81.6302C43.6601 82.0882 42.2646 82.4879 41.1084 82.7755C40.0284 83.0442 39.1716 83.211 38.5642 83.2362C38.2599 83.2488 38.0292 83.2252 37.8676 83.1682C37.7089 83.1122 37.6294 83.0293 37.5977 82.9273C37.5664 82.8264 37.5834 82.688 37.6845 82.499C37.7852 82.3105 37.9601 82.0903 38.2103 81.8426C38.7097 81.348 39.4838 80.7683 40.4791 80.1411C42.4679 78.8877 45.3157 77.4595 48.5505 76.1555C51.7932 74.8483 54.2993 73.8482 56.0425 73.3277C56.9157 73.067 57.5848 72.9307 58.0545 72.9317C58.5287 72.9326 58.745 73.0705 58.8139 73.2921Z" fill="#141B25" stroke="#D2E68A" stroke-width="0.280556"/>
<path d="M39.1244 81.5578L39.7754 81.41M43.728 80.5124L43.263 80.618M43.728 80.5124L43.9833 80.0861M43.728 80.5124L44.2141 80.425M39.9598 80.812C39.7229 80.8931 39.4822 80.9785 39.2393 81.0682L39.9598 80.812ZM39.9598 80.812L40.1173 80.4807M39.9598 80.812C40.1903 80.733 40.4173 80.6582 40.6395 80.5873M39.9598 80.812L40.6395 80.5873M40.6395 80.5873L40.839 80.2288M40.6395 80.5873C40.9381 80.4921 41.228 80.4041 41.5059 80.3233M41.5059 80.3233L41.6785 80.048M41.5059 80.3233C41.8475 80.2239 42.1711 80.1354 42.4706 80.0576M41.5059 80.3233L42.4706 80.0576M42.4706 80.0576L42.6257 79.7173M42.4706 80.0576C42.8138 79.9684 43.1255 79.8932 43.3967 79.8318M43.3967 79.8318C43.7549 79.7507 44.0424 79.6935 44.2386 79.6599L44.3699 79.6355M43.3967 79.8318L43.5729 79.3866M43.263 80.618L43.3882 80.3501M43.263 80.618L42.798 80.7236M42.798 80.7236L42.9372 80.5076M42.798 80.7236L42.24 80.8503M42.24 80.8503L42.4134 80.5781M42.24 80.8503L41.5425 81.0087M41.5425 81.0087L41.723 80.7629M41.5425 81.0087L41.0775 81.1143M41.0775 81.1143L41.2894 80.8019M41.0775 81.1143L40.4264 81.2621M40.4264 81.2621L40.5677 81.0539M40.4264 81.2621L39.7754 81.41M39.7754 81.41L39.9988 81.1402M46.8231 79.9559L46.5872 79.9983M46.5872 79.9983L46.8231 79.6599M46.5872 79.9983L46.2573 80.0576M46.2573 80.0576L46.4929 79.7173M46.2573 80.0576L45.6281 80.1707M45.6281 80.1707L45.8796 79.8318M45.6281 80.1707L45.1719 80.2528M45.1719 80.2528L45.4078 79.9559M45.1719 80.2528L44.7002 80.3376M44.7002 80.3376L44.9832 79.9983M44.7002 80.3376L44.2141 80.425M44.2141 80.425L44.4643 80.0861M47.861 78.9889L47.4836 79.0588M47.4836 79.0588L47.7195 78.774M47.4836 79.0588L46.5872 79.2248M46.5872 79.2248L46.8703 78.9352M46.5872 79.2248L45.8796 79.3559M45.8796 79.3559L46.1155 79.0588M45.8796 79.3559L45.0591 79.5079M45.0591 79.5079L45.3606 79.2038M45.0591 79.5079L44.3699 79.6355M44.3699 79.6355L44.5115 79.3112M39.3221 80.8503L42.2722 79.6599M58.7116 73.0261L57.5794 73.483M57.5794 73.483L57.5794 73.1873M57.5794 73.483L56.3153 73.9931M56.3153 73.9931L56.3153 73.483M56.3153 73.9931L54.6544 74.6633M54.6544 74.6633L54.796 74.1542M54.6544 74.6633L52.9089 75.3676M52.9089 75.3676L53.0976 74.8526M52.9089 75.3676L51.7295 75.8436M51.7295 75.8436L51.9182 75.2286M51.7295 75.8436L49.6066 76.7002M49.6066 76.7002L49.8896 76.0344M49.6066 76.7002L47.861 77.4046M47.861 77.4046L48.1441 76.7002M47.861 77.4046L46.2573 78.0518M46.2573 78.0518L46.4929 77.4046M46.2573 78.0518L44.7002 78.6801M44.7002 78.6801L44.9832 78.0518M44.7002 78.6801L43.3502 79.2248M43.3502 79.2248L43.5729 78.6801M43.3502 79.2248L42.2722 79.6599M42.2722 79.6599L42.4706 79.2248M51.7295 77.5922L52.1423 77.4191L52.5551 77.2459M58.7116 74.6633L58.2603 74.8526M58.2603 74.8526L58.2603 74.3691M58.2603 74.8526L57.0325 75.3676M57.0325 75.3676L57.0325 74.8526M57.0325 75.3676L55.898 75.8436M55.898 75.8436L55.898 75.3676M55.898 75.8436L54.6544 76.3652M54.6544 76.3652L54.6544 75.8436M54.6544 76.3652L53.3807 76.8996M53.3807 76.8996L53.3807 76.3652M53.3807 76.8996L52.5551 77.2459M52.5551 77.2459L52.5551 76.7002M48.9461 79.6599L49.7694 79.4318M51.1162 79.0588L50.5928 79.2038M50.5928 79.2038L50.6916 78.774M50.5928 79.2038L49.7694 79.4318M49.7694 79.4318L49.8896 78.9889" stroke="#D2E68A" stroke-width="0.280556"/>
<path d="M48.6469 82.1492C48.638 82.4243 48.4424 82.9723 47.7588 83.3666C47.075 83.7609 45.8782 84.013 43.8635 83.6233C43.0443 83.4648 42.294 83.3349 41.6214 83.2184C40.8534 83.0853 40.1867 82.9698 39.6342 82.8495C39.1189 82.7372 38.7388 82.6275 38.4936 82.509C38.2326 82.3828 38.2356 82.304 38.2358 82.298L38.2358 82.2979C38.236 82.2916 38.2385 82.2633 38.2881 82.2113C38.3393 82.1576 38.4272 82.0941 38.5629 82.0269C38.834 81.8928 39.2426 81.77 39.7697 81.6713C40.8194 81.4748 42.2777 81.3849 43.8927 81.4533C45.5293 81.5225 46.7725 81.581 47.6046 81.7136C48.0237 81.7803 48.3075 81.8616 48.4787 81.9548C48.6393 82.0422 48.6483 82.1063 48.6469 82.1492Z" fill="#141B25" stroke="#D2E68A" stroke-width="0.561111"/>
<path d="M38.52 82.3196L39.1805 82.3956M38.7559 81.8899C39.0113 81.8852 39.2633 81.8839 39.5107 81.8854M39.5107 81.8854L39.7466 81.6213M39.5107 81.8854C39.7514 81.8869 39.9877 81.8911 40.2184 81.8975M39.5107 81.8854L40.2184 81.8975M40.2184 81.8975L40.5014 81.6213M40.2184 81.8975C40.5284 81.9061 40.8282 81.9188 41.1147 81.9343M41.1147 81.9343L41.3506 81.7287M41.1147 81.9343C41.4669 81.9533 41.799 81.9767 42.1054 82.0023M41.1147 81.9343L42.1054 82.0023M42.1054 82.0023L42.3413 81.7287M42.1054 82.0023C42.4565 82.0316 42.7739 82.0637 43.049 82.0955M43.049 82.0955C43.4123 82.1375 43.7019 82.1789 43.8981 82.2122L43.1905 82.8568L42.7187 82.8025M43.049 82.0955L43.332 81.7287M42.7187 82.8025L42.9074 82.5882M42.7187 82.8025L42.247 82.7483M42.247 82.7483L42.4357 82.5882M42.247 82.7483L41.6808 82.6832M41.6808 82.6832L41.9167 82.4808M41.6808 82.6832L40.9732 82.6018M40.9732 82.6018L41.2091 82.4271M40.9732 82.6018L40.5014 82.5475M40.5014 82.5475L40.7845 82.3196M40.5014 82.5475L39.841 82.4716M39.841 82.4716L40.0297 82.3196M39.841 82.4716L39.1805 82.3956M39.1805 82.3956L39.4635 82.2122" stroke="#D2E68A" stroke-width="0.280556"/>
<path d="M43.4098 82.7303L43.7911 82.7304M43.7911 82.2575C44.0457 82.2799 43.9155 82.2297 44.1617 82.2575M44.1617 82.2575L44.4181 82.0195M44.1617 82.2575C44.4012 82.2845 44.6361 82.3138 44.8652 82.3447M44.1617 82.2575L44.8652 82.3447M44.8652 82.3447L45.1697 82.0997M44.8652 82.3447C45.1732 82.3862 45.4707 82.4306 45.7547 82.4764M45.7547 82.4764L46.0064 82.2968M45.7547 82.4764C46.1037 82.5328 46.4325 82.5914 46.7355 82.6494M45.7547 82.4764L46.7355 82.6494M46.7355 82.6494L46.9927 82.402M46.7355 82.6494C47.0827 82.7158 47.396 82.7815 47.6673 82.8424M47.6673 82.8424C48.0256 82.9228 48.3105 82.9947 48.5032 83.0487L47.7458 83.6154L47.2806 83.5113M47.6673 82.8424L47.9791 82.5072M47.2806 83.5113L47.486 83.3179M47.2806 83.5113L46.8153 83.4071M46.8153 83.4071L47.0163 83.2678M46.8153 83.4071L46.257 83.2822M46.257 83.2822L46.5084 83.1057M46.257 83.2822L45.5591 83.126M45.5591 83.126L45.8082 82.9771M45.5591 83.126L45.0938 83.0219M45.0938 83.0219L45.3943 82.8251M45.0938 83.0219L44.4425 82.8761M44.4425 82.8761L44.6428 82.7449M44.4425 82.8761L43.7911 82.7304M43.7911 82.7304L44.0879 82.5778" stroke="#D2E68A" stroke-width="0.280556"/>
<path d="M47.4754 79.8294L47.5062 79.8093L47.5311 79.7806C47.7071 79.5779 47.8811 79.3757 48.0522 79.1768C48.6998 78.4239 49.3069 77.7181 49.834 77.2147C50.1686 76.8952 50.4488 76.6794 50.6691 76.5812C50.8863 76.4844 50.9734 76.5277 51.0242 76.5849C51.0523 76.6165 51.0617 76.6446 51.0618 76.6859C51.0619 76.739 51.0451 76.8237 50.9891 76.9477C50.876 77.198 50.6474 77.5146 50.3249 77.8937C50.0069 78.2675 49.6171 78.68 49.1971 79.1245L49.1951 79.1266C48.7766 79.5696 48.3302 80.0421 47.9088 80.5271C47.4891 81.0103 47.0037 81.7034 46.4961 82.4285L46.4623 82.4766C45.9376 83.2261 45.3849 84.013 44.833 84.6794C44.2767 85.3512 43.7446 85.871 43.2665 86.1134C43.0311 86.2327 42.8234 86.2772 42.6404 86.2532C42.4618 86.2298 42.2846 86.1385 42.1088 85.9405C41.9823 85.798 41.9278 85.6455 41.9218 85.4773C41.9155 85.3 41.9629 85.0842 42.0763 84.8292C42.3049 84.3151 42.7653 83.7217 43.3684 83.1036C44.5684 81.874 46.2507 80.6295 47.4754 79.8294Z" fill="#141B25" stroke="#D2E68A" stroke-width="0.561111"/>
<path d="M52.1953 83.1952C52.0472 82.3008 51.859 81.3224 51.6806 80.3944C51.5584 79.7589 51.4408 79.1471 51.3437 78.6023C51.2228 77.924 51.1333 77.3483 51.1003 76.9392C51.0855 76.756 51.0833 76.6197 51.0908 76.5278C51.11 76.5291 51.1237 76.5325 51.1336 76.5362C51.1549 76.544 51.1858 76.5626 51.2252 76.6234C51.3165 76.7643 51.394 77.0327 51.4884 77.5079C51.5262 77.6982 51.5655 77.9145 51.6097 78.1574C51.7782 79.0843 52.0171 80.3976 52.5085 82.1279C52.8461 83.9908 53.0774 85.4836 53.1708 86.5204C53.2178 87.0426 53.2284 87.4341 53.2044 87.6943C53.1995 87.7471 53.1935 87.7912 53.1869 87.8276C53.1241 87.7214 53.0485 87.5305 52.9599 87.2066C52.7641 86.4909 52.5356 85.2491 52.1953 83.1952Z" fill="#141B25" stroke="#D2E68A" stroke-width="0.561111"/>
<path d="M53.5927 88.2684C53.5511 88.2018 53.502 88.1362 53.4618 88.0826C53.4577 88.0771 53.4537 88.0718 53.4498 88.0666C53.4214 88.0285 53.3982 87.997 53.3797 87.9695C53.4435 87.9439 53.5099 87.9443 53.5779 87.966C53.6811 87.999 53.7805 88.0806 53.8446 88.1835C53.8743 88.231 53.8791 88.2578 53.88 88.2658C53.8806 88.2712 53.8805 88.2751 53.8766 88.2845C53.8712 88.2974 53.8582 88.3199 53.8292 88.3522C53.8008 88.3838 53.7633 88.4178 53.7161 88.4555C53.7131 88.4516 53.71 88.4474 53.7065 88.4427C53.6762 88.4013 53.6412 88.3462 53.5927 88.2684Z" fill="#141B25" stroke="#D2E68A" stroke-width="0.561111"/>
<path d="M54.2534 88.6986C54.2118 88.6319 54.1626 88.5664 54.1225 88.5128C54.1184 88.5073 54.1144 88.502 54.1105 88.4967C54.082 88.4587 54.0589 88.4272 54.0403 88.3997C54.1041 88.374 54.1706 88.3745 54.2385 88.3962C54.3417 88.4292 54.4411 88.5107 54.5053 88.6136C54.5349 88.6611 54.5398 88.688 54.5406 88.696C54.5412 88.7014 54.5412 88.7053 54.5372 88.7147C54.5319 88.7275 54.5189 88.7501 54.4899 88.7823C54.4614 88.814 54.4239 88.848 54.3768 88.8856C54.3738 88.8818 54.3706 88.8775 54.3672 88.8729C54.3368 88.8315 54.3019 88.7764 54.2534 88.6986Z" fill="#141B25" stroke="#D2E68A" stroke-width="0.561111"/>
<path d="M54.9135 89.0209C54.8719 88.9542 54.8228 88.8886 54.7826 88.8351C54.7785 88.8296 54.7745 88.8242 54.7706 88.819C54.7422 88.781 54.719 88.7494 54.7005 88.7219C54.7643 88.6963 54.8307 88.6968 54.8987 88.7185C55.0019 88.7514 55.1013 88.833 55.1654 88.9359C55.1951 88.9834 55.1999 89.0102 55.2008 89.0183C55.2014 89.0236 55.2013 89.0275 55.1974 89.0369C55.192 89.0498 55.179 89.0724 55.15 89.1046C55.1216 89.1362 55.0841 89.1702 55.0369 89.2079C55.0339 89.204 55.0308 89.1998 55.0273 89.1951C54.997 89.1538 54.962 89.0986 54.9135 89.0209Z" fill="#141B25" stroke="#D2E68A" stroke-width="0.561111"/>
<path d="M55.4799 89.3426C55.4383 89.276 55.3892 89.2104 55.349 89.1568C55.3449 89.1514 55.3409 89.146 55.337 89.1408C55.3086 89.1028 55.2854 89.0712 55.2669 89.0437C55.3307 89.0181 55.3971 89.0186 55.4651 89.0403C55.5683 89.0732 55.6677 89.1548 55.7318 89.2577C55.7615 89.3052 55.7663 89.332 55.7672 89.3401C55.7678 89.3454 55.7677 89.3493 55.7638 89.3587C55.7584 89.3716 55.7454 89.3941 55.7164 89.4264C55.688 89.458 55.6505 89.492 55.6033 89.5297C55.6004 89.5258 55.5972 89.5216 55.5937 89.5169C55.5634 89.4755 55.5284 89.4204 55.4799 89.3426Z" fill="#141B25" stroke="#D2E68A" stroke-width="0.561111"/>
<path d="M56.2662 90.0213C56.199 89.9135 56.1226 89.8028 56.0516 89.7001C56.0448 89.6902 56.0381 89.6804 56.0314 89.6707C55.9526 89.5565 55.8827 89.4538 55.8285 89.3617C55.8136 89.3365 55.8011 89.3139 55.7906 89.2938C55.8415 89.3035 55.912 89.3314 56.0067 89.3954C56.1963 89.5234 56.4004 89.7476 56.5579 90.0001C56.6938 90.218 56.6975 90.3824 56.6732 90.4912C56.6591 90.554 56.633 90.6098 56.6023 90.6559C56.5864 90.6247 56.5697 90.5901 56.5504 90.5504C56.533 90.5144 56.5135 90.4742 56.4907 90.4283C56.4318 90.3096 56.3593 90.1706 56.2662 90.0213ZM55.7425 89.1769C55.7425 89.1769 55.7426 89.1772 55.7426 89.1778L55.7425 89.1769Z" fill="#141B25" stroke="#D2E68A" stroke-width="0.561111"/>
<path d="M43.0972 85.0058L43.7103 84.3302M47.4846 80.1711L47.2408 80.4397M47.2408 80.4397L47.2013 80.2248L47.0126 80.386L47.0458 80.6546M47.2408 80.4397L47.0458 80.6546M47.0458 80.6546L46.8711 80.8471M46.8711 80.8471L46.7767 80.5471L46.4937 80.7083L46.6071 81.138M46.8711 80.8471L46.6071 81.138M46.6071 81.138L46.4121 81.3529M46.4121 81.3529L46.2578 80.8471L46.0219 81.0306L46.1635 81.5678L46.0219 81.7829M46.4121 81.3529L46.0219 81.7829M46.0219 81.7829L45.786 81.2455L45.4558 81.5141L45.7296 82.105M46.0219 81.7829L45.7296 82.105M45.7296 82.105L45.4086 82.4587M45.4086 82.4587L45.1727 81.7829M45.4086 82.4587L45.109 82.7888M44.8425 82.1587L45.109 82.7888M45.109 82.7888L44.8425 83.0825M44.8425 83.0825L44.5595 82.4273L44.3236 82.6422L44.6084 83.3405M44.8425 83.0825L44.6084 83.3405M44.6084 83.3405L44.3707 83.6024M44.3707 83.6024L44.0877 82.9108L43.899 83.1256L44.2184 83.7703M44.3707 83.6024L44.2184 83.7703M44.2184 83.7703L43.9854 84.027M43.9854 84.027L43.6631 83.3942L43.38 83.7166L43.7103 84.3302M43.9854 84.027L43.7103 84.3302" stroke="#D2E68A" stroke-width="0.280556"/>
<path d="M43.4274 84.6303L43.0972 84.0394L42.814 84.3617L43.0972 85.0063L43.4274 84.6303ZM43.4274 84.6303L44.0406 84.8989M43.7103 84.3617L44.4651 84.5766L44.7954 84.2543L43.9934 84.0394L44.2293 83.7708L45.0784 83.8782L45.4087 83.5022L44.6067 83.341L44.8897 83.0724L45.5974 83.2336" stroke="#D2E68A" stroke-width="0.280556"/>
<path d="M45.1259 82.7501L45.8335 82.897M45.8335 82.897C44.9284 84.1601 44.0414 85.2218 43.8049 84.9526C43.6162 84.7377 43.1602 85.0063 43.1916 85.1137C43.0973 84.9347 42.8142 84.8989 42.3896 84.8989C43.3804 83.6633 45.6731 80.9881 46.7299 80.6013L47.4375 80.0641L47.5791 80.279C47.5342 80.351 47.4869 80.4263 47.4375 80.5046M45.8335 82.897C45.9122 82.7873 45.9909 82.676 46.0694 82.564M46.0694 82.564L45.4089 82.4278L45.7392 82.1055L46.2759 82.2666M46.0694 82.564C46.1385 82.4653 46.2075 82.366 46.2759 82.2666M46.2759 82.2666C46.3654 82.1366 46.454 82.0064 46.5412 81.8772M46.5412 81.8772L46.0222 81.7832L46.1638 81.622H46.7122M46.5412 81.8772C46.5989 81.7916 46.656 81.7064 46.7122 81.622M46.7122 81.622C46.7725 81.5315 46.8319 81.4418 46.89 81.3534M46.89 81.3534H46.3996L46.5884 81.1385L47.0657 81.0848M46.89 81.3534C46.9499 81.2624 47.0085 81.1727 47.0657 81.0848M47.0657 81.0848C47.112 81.0134 47.1574 80.9433 47.2016 80.8745M47.2016 80.8745L46.89 80.8162L47.0657 80.6551L47.3079 80.7088M47.2016 80.8745C47.2378 80.8183 47.2733 80.763 47.3079 80.7088M47.3079 80.7088C47.3525 80.6388 47.3958 80.5707 47.4375 80.5046M47.4375 80.5046L47.2488 80.4402" stroke="#D2E68A" stroke-width="0.280556"/>
<path d="M39.2364 84.832C39.5333 85.3413 39.7085 85.8942 39.7545 86.3496C39.7775 86.5775 39.7669 86.7681 39.7319 86.9113C39.6972 87.0537 39.6438 87.1305 39.5918 87.1697C39.4361 87.2874 39.1323 87.3445 38.7674 87.2236C38.4134 87.1063 38.0342 86.829 37.7516 86.3441C37.4636 85.8501 37.3407 85.3006 37.3435 84.8413C37.3463 84.3594 37.4823 84.0644 37.6128 83.9658C37.7693 83.8476 38.0154 83.8043 38.3136 83.9266C38.6099 84.0481 38.9445 84.331 39.2364 84.832Z" fill="#141B25" stroke="#D2E68A" stroke-width="0.561111"/>
<path d="M41.0315 85.8714C41.2528 85.7806 41.4832 85.6781 41.7066 85.5786C41.7515 85.5586 41.796 85.5388 41.8401 85.5192C42.1073 85.4007 42.3598 85.2909 42.5843 85.2084C42.8133 85.1241 42.9906 85.0769 43.1127 85.0694C43.1654 85.0662 43.1926 85.0706 43.205 85.0744C43.3013 85.2924 43.2551 85.5477 42.9898 85.8536C42.7143 86.1714 42.2371 86.4912 41.6116 86.7476C40.9913 87.0019 40.471 87.083 40.1012 87.0504C39.7143 87.0163 39.5706 86.8715 39.5387 86.7708C39.5147 86.6949 39.5256 86.6661 39.5326 86.6512C39.5456 86.623 39.5856 86.5678 39.7042 86.4867C39.9475 86.3203 40.3698 86.1426 41.0315 85.8714ZM43.214 85.0788C43.2137 85.079 43.2118 85.0782 43.2091 85.0758C43.213 85.0773 43.2143 85.0785 43.214 85.0788Z" fill="#141B25" stroke="#D2E68A" stroke-width="0.561111"/>
<path d="M44.8145 87.4764C44.6633 87.1826 44.4863 86.8803 44.3149 86.5928C44.2828 86.5389 44.251 86.4856 44.2195 86.433C44.0813 86.2018 43.9508 85.9834 43.8397 85.7826C43.7011 85.5319 43.6068 85.3327 43.5662 85.1902C43.5587 85.164 43.5538 85.1423 43.5509 85.1249C43.6143 85.0915 43.67 85.0873 43.7275 85.1009C43.811 85.1208 43.9201 85.1842 44.0584 85.3222C44.3379 85.6012 44.6568 86.101 45.0471 86.7948C45.4343 87.4829 45.7002 88.0375 45.8251 88.4434C45.8881 88.648 45.9072 88.79 45.9018 88.8799C45.8972 88.9539 45.8798 88.9638 45.8763 88.9658C45.8761 88.9659 45.876 88.966 45.8759 88.966C45.8157 89.0093 45.7956 89.0053 45.7923 89.0047C45.7922 89.0047 45.7921 89.0047 45.7921 89.0046C45.7814 89.0029 45.7363 88.9898 45.6476 88.8908C45.4645 88.6864 45.2172 88.2592 44.8145 87.4764Z" fill="#141B25" stroke="#D2E68A" stroke-width="0.561111"/>
<path d="M46.2765 89.4263C46.2378 89.3575 46.1914 89.2893 46.1536 89.2336C46.1497 89.2279 46.1459 89.2224 46.1422 89.2169C46.1154 89.1774 46.0936 89.1446 46.0762 89.1162C46.1411 89.094 46.2075 89.0981 46.2744 89.1235C46.3761 89.162 46.472 89.2488 46.5317 89.3551C46.5593 89.4041 46.5631 89.4312 46.5636 89.4393C46.564 89.4446 46.5637 89.4485 46.5594 89.4577C46.5535 89.4703 46.5396 89.4921 46.5093 89.5228C46.4795 89.5528 46.4406 89.5847 46.3919 89.6198C46.3891 89.6158 46.3861 89.6114 46.3829 89.6066C46.3543 89.5636 46.3217 89.5066 46.2765 89.4263Z" fill="#141B25" stroke="#D2E68A" stroke-width="0.561111"/>
<path d="M46.796 89.6749C46.7573 89.606 46.711 89.5378 46.6731 89.4822C46.6692 89.4765 46.6654 89.4709 46.6617 89.4655C46.6349 89.4259 46.6132 89.3932 46.5958 89.3647C46.6606 89.3425 46.727 89.3466 46.7939 89.372C46.8956 89.4105 46.9915 89.4974 47.0513 89.6036C47.0789 89.6527 47.0826 89.6797 47.0831 89.6878C47.0835 89.6932 47.0833 89.6971 47.079 89.7062C47.073 89.7188 47.0591 89.7407 47.0288 89.7713C46.9991 89.8013 46.9602 89.8333 46.9115 89.8684C46.9087 89.8643 46.9057 89.8599 46.9024 89.8551C46.8738 89.8121 46.8412 89.7552 46.796 89.6749Z" fill="#141B25" stroke="#D2E68A" stroke-width="0.561111"/>
<path d="M47.6857 90.547C47.623 90.4356 47.5513 90.3209 47.4848 90.2144C47.4784 90.2042 47.472 90.194 47.4657 90.184C47.3918 90.0656 47.3263 89.9593 47.276 89.8644C47.2623 89.8383 47.2507 89.8151 47.241 89.7944C47.2914 89.8069 47.3607 89.8386 47.4527 89.9076C47.6367 90.0458 47.8312 90.2808 47.9779 90.5415C48.1045 90.7665 48.1014 90.9309 48.0725 91.0383C48.0558 91.1003 48.0274 91.1546 47.9948 91.1991C47.9802 91.167 47.965 91.1316 47.9474 91.0908C47.9315 91.054 47.9137 91.0127 47.8928 90.9657C47.839 90.8439 47.7724 90.7011 47.6857 90.547ZM47.1979 89.6751C47.1979 89.6751 47.1979 89.6754 47.198 89.676L47.1979 89.6751Z" fill="#141B25" stroke="#D2E68A" stroke-width="0.561111"/>
<path d="M35.9795 85.4886C35.7616 85.5109 35.5319 85.5267 35.3095 85.5421C35.2649 85.5451 35.2206 85.5482 35.1768 85.5513C34.911 85.5699 34.6614 85.5896 34.4448 85.6207C34.2236 85.6524 34.0609 85.693 33.9586 85.7426C33.9183 85.7622 33.8984 85.7771 33.8893 85.7857C33.8845 86.0328 34.0144 86.2406 34.3379 86.3903C34.6764 86.547 35.1848 86.6119 35.7974 86.5492C36.4044 86.4871 36.8663 86.3154 37.1623 86.113C37.4706 85.9021 37.5415 85.7049 37.5329 85.5959C37.5264 85.5138 37.5065 85.4931 37.4971 85.4843C37.4788 85.4673 37.4296 85.437 37.3041 85.4197C37.0447 85.384 36.6312 85.4219 35.9795 85.4886ZM33.8827 85.7942C33.8831 85.7943 33.8846 85.7926 33.8861 85.789C33.8831 85.7924 33.8823 85.7942 33.8827 85.7942Z" fill="#141B25" stroke="#D2E68A" stroke-width="0.561111"/>
<path d="M32.9818 86.7964L32.9691 86.8471L32.9423 86.8906C32.7942 87.1312 32.6376 87.3451 32.4957 87.5314C32.4469 87.5955 32.401 87.6548 32.3579 87.7105C32.2717 87.8219 32.1969 87.9187 32.1325 88.0098C32.0571 88.1164 32.0184 88.1855 32.0006 88.2273C32.1421 88.3341 32.2152 88.3352 32.2874 88.2989C32.4023 88.2412 32.5869 88.0526 32.8642 87.5406C32.9752 87.3357 33.1084 87.1317 33.2337 86.9442C33.2578 86.9081 33.2816 86.8728 33.3048 86.8381C33.4057 86.6879 33.4977 86.5507 33.5747 86.4226C33.6727 86.2594 33.7227 86.1481 33.7376 86.0791C33.738 86.0773 33.7384 86.0755 33.7387 86.0739C33.5019 85.8922 33.4013 85.9282 33.3486 85.9677C33.3046 86.0007 33.245 86.0707 33.1779 86.2116C33.1113 86.3512 33.0455 86.543 32.9818 86.7964Z" fill="#141B25" stroke="#D2E68A" stroke-width="0.561111"/>
<path d="M31.495 88.87C31.5392 88.8039 31.591 88.7391 31.6325 88.6874C31.6367 88.682 31.6409 88.6768 31.6449 88.6718C31.6703 88.6399 31.6913 88.6133 31.7084 88.5901C31.5488 88.5194 31.3561 88.6003 31.2386 88.7757C31.2103 88.818 31.2067 88.8394 31.2063 88.8425C31.2063 88.8425 31.2063 88.8426 31.2062 88.8427C31.206 88.844 31.2054 88.8474 31.2096 88.858C31.2153 88.8727 31.2288 88.897 31.2579 88.9306C31.2867 88.9638 31.3246 88.9992 31.3717 89.0378C31.3729 89.0388 31.374 89.0398 31.3752 89.0407C31.3761 89.0395 31.3771 89.0383 31.378 89.0371C31.4085 88.9982 31.4442 88.9458 31.495 88.87Z" fill="#141B25" stroke="#D2E68A" stroke-width="0.561111"/>
<path d="M30.9329 89.2263C30.9816 89.164 31.0377 89.1038 31.0824 89.0558C31.087 89.0508 31.0915 89.046 31.0959 89.0413C31.123 89.0121 31.1454 88.9876 31.1639 88.9662C31.008 88.8798 30.8098 88.9452 30.682 89.1086C30.6513 89.1479 30.6466 89.1684 30.646 89.171C30.646 89.171 30.646 89.1711 30.646 89.1711C30.6457 89.1721 30.6448 89.1754 30.6483 89.1867C30.6532 89.2022 30.6652 89.2279 30.6921 89.2641C30.7188 89.2999 30.7543 89.3385 30.7987 89.3812C30.8002 89.3826 30.8016 89.3839 30.8029 89.3852C30.8037 89.3843 30.8045 89.3835 30.8054 89.3826C30.8383 89.3465 30.8772 89.2975 30.9329 89.2263Z" fill="#141B25" stroke="#D2E68A" stroke-width="0.561111"/>
<path d="M29.7946 89.781C29.8961 89.715 30.0068 89.6508 30.1086 89.5918C30.1184 89.586 30.1282 89.5804 30.1378 89.5748C30.2513 89.5089 30.3509 89.4502 30.4321 89.394C30.4561 89.3774 30.4762 89.3626 30.493 89.3494C30.4421 89.3273 30.3613 89.3146 30.2344 89.3306C30.0208 89.3577 29.7588 89.4621 29.5279 89.6123C29.3366 89.7367 29.2762 89.8716 29.2588 89.9786C29.2473 90.0493 29.2528 90.1207 29.268 90.1841C29.2893 90.1668 29.3122 90.1478 29.3381 90.1263C29.3671 90.1022 29.4 90.0749 29.4384 90.0436C29.5358 89.9643 29.6538 89.8726 29.7946 89.781Z" fill="#141B25" stroke="#D2E68A" stroke-width="0.561111"/>
<path d="M35.8443 83.4824C35.6264 83.5047 35.3966 83.5205 35.1742 83.5358C35.1297 83.5389 35.0854 83.542 35.0416 83.545C34.7758 83.5637 34.5261 83.5834 34.3096 83.6145C34.0884 83.6462 33.9256 83.6868 33.8233 83.7364C33.783 83.7559 33.7631 83.7708 33.7541 83.7795C33.7493 84.0266 33.8791 84.2343 34.2026 84.3841C34.5411 84.5408 35.0496 84.6056 35.6621 84.543C36.2691 84.4808 36.731 84.3092 37.027 84.1068C37.3353 83.8959 37.4063 83.6987 37.3977 83.5897C37.3912 83.5076 37.3713 83.4869 37.3618 83.4781C37.3436 83.4611 37.2943 83.4307 37.1689 83.4135C36.9094 83.3778 36.4959 83.4157 35.8443 83.4824ZM33.7474 83.788C33.7478 83.7881 33.7493 83.7864 33.7509 83.7828C33.7478 83.7861 33.7471 83.7879 33.7474 83.788Z" fill="#141B25" stroke="#D2E68A" stroke-width="0.561111"/>
<path d="M32.8471 84.7902L32.8343 84.8409L32.8075 84.8844C32.6594 85.125 32.5029 85.3389 32.361 85.5252C32.3121 85.5893 32.2662 85.6486 32.2231 85.7043C32.137 85.8157 32.0621 85.9125 31.9977 86.0035C31.9223 86.1102 31.8837 86.1793 31.8658 86.2211C32.0073 86.3279 32.0804 86.329 32.1526 86.2927C32.2676 86.235 32.4521 86.0464 32.7294 85.5344C32.8404 85.3295 32.9736 85.1255 33.099 84.938C33.1231 84.9019 33.1468 84.8665 33.17 84.8319C33.2709 84.6816 33.363 84.5445 33.4399 84.4164C33.538 84.2532 33.5879 84.1419 33.6029 84.0729C33.6033 84.0711 33.6036 84.0693 33.6039 84.0677C33.3671 83.8859 33.2665 83.922 33.2138 83.9615C33.1698 83.9945 33.1102 84.0645 33.0431 84.2054C32.9766 84.3449 32.9108 84.5368 32.8471 84.7902Z" fill="#141B25" stroke="#D2E68A" stroke-width="0.561111"/>
<path d="M31.3592 86.8633C31.4035 86.7972 31.4553 86.7324 31.4967 86.6806C31.501 86.6753 31.5052 86.6701 31.5092 86.665C31.5346 86.6332 31.5555 86.6065 31.5727 86.5834C31.413 86.5127 31.2204 86.5936 31.1029 86.769C31.0745 86.8113 31.071 86.8327 31.0705 86.8358C31.0705 86.8358 31.0705 86.8359 31.0705 86.836C31.0703 86.8373 31.0697 86.8406 31.0738 86.8513C31.0795 86.866 31.0931 86.8903 31.1222 86.9239C31.151 86.9571 31.1889 86.9924 31.2359 87.0311C31.2371 87.0321 31.2383 87.0331 31.2394 87.034C31.2404 87.0328 31.2413 87.0316 31.2423 87.0304C31.2728 86.9915 31.3085 86.9391 31.3592 86.8633Z" fill="#141B25" stroke="#D2E68A" stroke-width="0.561111"/>
<path d="M30.7967 87.2191C30.8453 87.1568 30.9014 87.0966 30.9462 87.0486C30.9508 87.0436 30.9553 87.0388 30.9596 87.0341C30.9868 87.0049 31.0092 86.9804 31.0277 86.959C30.8718 86.8726 30.6736 86.938 30.5458 87.1014C30.5151 87.1407 30.5103 87.1612 30.5098 87.1638C30.5098 87.1638 30.5098 87.1639 30.5097 87.1639C30.5095 87.1649 30.5086 87.1682 30.5121 87.1795C30.5169 87.195 30.529 87.2207 30.5559 87.2569C30.5826 87.2927 30.6181 87.3313 30.6625 87.374C30.6639 87.3754 30.6653 87.3767 30.6667 87.378C30.6675 87.3771 30.6683 87.3763 30.6691 87.3754C30.702 87.3393 30.741 87.2903 30.7967 87.2191Z" fill="#141B25" stroke="#D2E68A" stroke-width="0.561111"/>
<path d="M29.6589 87.7748C29.7603 87.7088 29.8711 87.6446 29.9728 87.5855C29.9827 87.5798 29.9924 87.5742 30.0021 87.5686C30.1155 87.5027 30.2151 87.4439 30.2964 87.3878C30.3203 87.3712 30.3405 87.3563 30.3573 87.3432C30.3064 87.3211 30.2255 87.3083 30.0987 87.3244C29.8851 87.3515 29.6231 87.4559 29.3921 87.6061C29.2008 87.7305 29.1404 87.8653 29.123 87.9724C29.1115 88.0431 29.117 88.1145 29.1323 88.1778C29.1535 88.1606 29.1764 88.1416 29.2024 88.1201C29.2314 88.0959 29.2642 88.0687 29.3027 88.0374C29.4001 87.9581 29.518 87.8664 29.6589 87.7748Z" fill="#141B25" stroke="#D2E68A" stroke-width="0.561111"/>
<path d="M33.26 81.2922C32.1058 80.9069 29.9037 79.6185 30.329 77.5472" stroke="#D2E68A" stroke-width="1.12222"/>
<path d="M37.8076 84.1875C37.7127 84.5054 37.6301 84.7396 37.5501 84.9103C37.4621 85.0979 37.3889 85.1831 37.3308 85.2231C37.2819 85.2567 37.222 85.2735 37.1132 85.2599C36.994 85.2449 36.8394 85.1964 36.6171 85.1123C36.2269 84.9648 35.8285 84.6611 35.5772 84.2406C35.3312 83.8291 35.216 83.29 35.4068 82.6357C35.6044 81.9579 35.9754 81.4152 36.5562 81.0858C37.1301 80.7604 37.9382 80.6266 39.0475 80.8196C39.0424 80.8404 39.033 80.8704 39.0157 80.9114C38.9445 81.0803 38.806 81.2903 38.6313 81.5552C38.5916 81.6153 38.5501 81.6783 38.507 81.7442C38.2857 82.0833 38.0392 82.4825 37.8872 82.9041C37.7452 83.2978 37.6751 83.7397 37.8076 84.1875Z" fill="#141B25" stroke="#D2E68A" stroke-width="0.561111"/>
<path d="M35.8983 82.9186C35.7278 83.5033 35.3951 84.0048 35.0297 84.3247C34.6498 84.6573 34.3028 84.7409 34.0862 84.659C33.8633 84.5747 33.659 84.3166 33.5576 83.8621C33.4581 83.4163 33.4752 82.839 33.6488 82.2436C33.8155 81.6717 34.164 81.2265 34.5477 80.9567C34.942 80.6793 35.3236 80.618 35.5634 80.7086C35.7942 80.7959 35.9654 81.0106 36.0388 81.3937C36.1136 81.7833 36.0755 82.3107 35.8983 82.9186Z" fill="#141B25" stroke="#D2E68A" stroke-width="0.561111"/>
<path d="M34.6328 83.0448C34.451 83.6684 33.9379 84.0908 33.3313 84.318C32.7561 84.5335 32.1547 84.5512 31.7801 84.4376C31.6708 84.2951 31.6088 84.135 31.6044 83.8754C31.599 83.5552 31.6821 83.0938 31.8945 82.3653C32.0971 81.6707 32.4605 81.0307 32.8686 80.6103C33.2908 80.1755 33.6871 80.043 33.9779 80.1529C34.2997 80.2746 34.5681 80.6151 34.7056 81.1494C34.8418 81.679 34.834 82.3551 34.6328 83.0448Z" fill="#141B25" stroke="#D2E68A" stroke-width="0.561111"/>
<path d="M33.8022 82.0919C33.7672 82.275 33.7004 82.4121 33.6321 82.4899C33.5646 82.5669 33.5254 82.5593 33.5157 82.5569C33.5157 82.5569 33.5157 82.5569 33.5156 82.5569C33.5136 82.5569 33.4865 82.5565 33.4625 82.4642C33.4361 82.3626 33.4338 82.2045 33.471 82.0098C33.5082 81.8151 33.568 81.6724 33.6291 81.5925C33.6846 81.5199 33.7094 81.5323 33.7112 81.5333C33.7113 81.5333 33.7113 81.5333 33.7113 81.5333C33.721 81.5357 33.7595 81.5474 33.7928 81.6493C33.8264 81.7525 33.8372 81.9087 33.8022 82.0919Z" fill="#F68561" stroke="#D2E68A" stroke-width="0.561111"/>
<path d="M33.3779 82.3734L33.5666 81.4601C33.7082 81.7287 33.6138 82.4271 33.5666 82.5345C33.5289 82.6205 33.4251 82.4092 33.3779 82.3734Z" fill="#141B25" stroke="#D2E68A" stroke-width="0.561111"/>
<path d="M32.5283 81.8361C31.3489 81.5675 29.0561 80.5039 29.3203 78.3981" stroke="#D2E68A" stroke-width="1.12222"/>
<path d="M32.9061 81.9973C32.7488 82.2062 32.4438 82.6992 32.4815 83C32.5287 83.376 32.4815 83.9401 32.2456 84.2534" stroke="#D2E68A" stroke-width="1.12222"/>
<line x1="26.3643" y1="96.2281" x2="60.3643" y2="68.2281" stroke="#F68561" stroke-width="2"/>
<rect x="23" y="61" width="42" height="42" rx="3" stroke="#F68561" stroke-width="2"/>
</svg>
