<svg width="86" height="129" viewBox="0 0 86 129" fill="none" xmlns="http://www.w3.org/2000/svg">
<path d="M75.0001 45.5C76.0001 52.5 60.8971 60.5 43.5001 60.5C26.1031 60.5 11 53 12.0001 45.5C12.0001 38.5964 26.1031 33 43.5001 33C60.8971 33 75.0001 38.5964 75.0001 45.5Z" fill="#8990A5"/>
<rect x="25" y="20" width="38" height="23" fill="#8990A5" stroke="#8990A5" stroke-width="2"/>
<path d="M63.9273 21.5V21.58L63.9401 21.6589C64.3566 24.2465 62.533 26.7977 58.7244 28.8026C54.9792 30.7742 49.653 32 44 32C38.313 32 32.9867 31.0125 29.2531 29.1661C25.5156 27.3178 23.626 24.7713 24.063 21.6382L24.0726 21.5694V21.5C24.0726 18.5397 26.087 15.6866 29.7149 13.5197C33.3222 11.365 38.3704 10 44 10C49.6296 10 54.6778 11.365 58.2851 13.5197C61.913 15.6866 63.9273 18.5397 63.9273 21.5Z" fill="#BFC6DC" stroke="#BFC6DC" stroke-width="2"/>
<path d="M64 19.5C64 21.8167 62.096 24.1832 58.402 26.0302C54.7679 27.8473 49.6774 29 44 29C38.3226 29 33.2321 27.8473 29.598 26.0302C25.904 24.1832 24 21.8167 24 19.5C24 17.1833 25.904 14.8168 29.598 12.9698C33.2321 11.1527 38.3226 10 44 10C49.6774 10 54.7679 11.1527 58.402 12.9698C62.096 14.8168 64 17.1833 64 19.5Z" fill="#DBE2F9" stroke="#DBE2F9" stroke-width="2"/>
<ellipse cx="43.5" cy="103.5" rx="31.5" ry="12.5" fill="#8990A5"/>
<rect x="13" y="40" width="61" height="69" rx="7" fill="#8990A5" stroke="#8990A5" stroke-width="2"/>
<rect x="23" y="61" width="42" height="42" rx="3" fill="#141B25"/>
<path d="M38.9653 72.0205C38.2017 72.4021 37.6175 72.9462 37.3001 73.4743C36.9826 74.0023 36.9365 74.4686 37.1109 74.8176C37.2852 75.1665 37.6858 75.4096 38.2987 75.4727C38.5333 75.497 38.7933 75.4909 39.0677 75.4534C38.4244 76.1577 37.996 77.1045 37.8078 78.206C37.7746 78.4022 37.7494 78.5997 37.7324 78.7981C38.6131 77.6949 39.7557 76.7921 41.0312 76.1547C42.3068 75.5173 43.7148 75.1457 45.1257 75.1037C44.957 74.9982 44.7839 74.8997 44.6071 74.8084C43.6133 74.2975 42.5989 74.0717 41.6495 74.1632C41.8441 73.9664 42.0048 73.7622 42.1262 73.5602C42.4436 73.0322 42.4898 72.5659 42.3154 72.2169C42.141 71.868 41.7404 71.625 41.1276 71.5617C40.5147 71.4986 39.7289 71.6389 38.9653 72.0205ZM35.681 74.2723C35.062 74.5815 34.8152 75.3215 35.1244 75.9404C35.4337 76.5593 36.1736 76.8062 36.7925 76.4969C36.9598 76.4133 37.0996 76.2981 37.2089 76.1626C36.7964 75.9646 36.4545 75.663 36.2476 75.2489C36.0746 74.9028 36.0209 74.5283 36.06 74.1526C35.9281 74.1722 35.8002 74.2126 35.681 74.2723ZM42.7388 70.7456C42.6155 70.8072 42.5071 70.8861 42.4149 70.9776C42.7387 71.1718 43.0057 71.4395 43.1787 71.7856C43.3855 72.1994 43.4214 72.6538 43.3322 73.1024C43.5124 73.0962 43.6892 73.0511 43.8503 72.9702C44.4692 72.661 44.7161 71.9211 44.4068 71.3022C44.0975 70.6832 43.3576 70.4364 42.7387 70.7457L42.7388 70.7456ZM31.4141 77.8571C32.0941 78.1694 32.4659 78.5899 32.7122 79.0509L31.6371 79.3438C32.1942 79.6234 32.7198 79.8504 33.2879 80.5777C33.5113 81.1557 33.834 81.6873 34.5894 82.0484C35.2764 82.5031 36.0003 82.6475 36.6719 82.4756C36.8353 82.4338 36.9935 82.3749 37.1476 82.3021C37.0636 82.0125 36.9919 81.7194 36.9326 81.4237C36.7697 81.5189 36.6099 81.5872 36.4546 81.6269C36.0592 81.7282 35.667 81.6824 35.1998 81.4003C33.7437 78.7354 34.4933 76.5988 31.4142 77.8572L31.4141 77.8571ZM48.1349 69.502C45.2799 71.2087 47.4386 71.8922 48.6955 74.6567C48.6407 75.1996 48.4416 75.5407 48.1234 75.7962C48.0063 75.8901 47.8675 75.9724 47.7075 76.0425C47.9076 76.2666 48.0981 76.4989 48.2786 76.739C48.4177 76.6634 48.5492 76.5776 48.6716 76.4794C49.2124 76.0456 49.5317 75.3796 49.5804 74.557C49.7291 73.816 49.5543 73.2739 49.2776 72.7887C48.9688 71.7934 49.1128 71.205 49.2309 70.5523L48.3135 71.2654C48.0902 70.7898 47.9755 70.2374 48.1349 69.502L48.1349 69.502ZM41.0461 77.1644C40.8054 77.2987 40.5711 77.4438 40.3434 77.5981L44.4815 87.1189L39.5196 78.2252C39.2976 78.4149 39.0851 78.6156 38.8831 78.8265L41.646 85.6708L38.1448 79.7137C38.0018 79.9126 37.8686 80.1183 37.7455 80.3302C37.8572 81.4581 38.1906 82.6456 38.7664 83.798C39.7215 85.7094 41.1539 87.1464 42.6628 87.9222C44.0193 88.6197 45.4141 88.7857 46.6297 88.3387L41.0461 77.1644L41.0461 77.1644ZM41.8297 76.7729L47.4134 87.9472C48.5008 87.2434 49.2054 86.0284 49.4621 84.5247C49.7478 82.8522 49.4586 80.844 48.5035 78.9325C47.9276 77.7801 47.1782 76.8003 46.343 76.0338C46.1602 76.0122 45.9766 75.9973 45.7927 75.9891L48.4209 82.2854L44.6391 76.021C44.3454 76.0498 44.0522 76.0942 43.7608 76.1534L47.8766 85.4225L42.7594 76.418C42.4436 76.52 42.1333 76.6384 41.8298 76.7729L41.8297 76.7729ZM37.5293 83.8933C37.0184 84.1572 36.6174 84.6133 36.3648 85.2272C35.8504 86.1132 36.0246 87.0089 36.2598 87.9025C36.2673 88.8436 35.9912 89.3512 35.7224 89.9209L36.6168 89.5439C36.6665 90.1359 36.5722 90.7236 36.1472 91.3035C39.4489 90.9057 37.3283 88.6692 37.2086 85.471C37.3997 85.0339 37.6648 84.7859 38.009 84.6345C38.0373 84.622 38.0664 84.6104 38.0963 84.5993C38.0301 84.4779 37.9656 84.3546 37.9031 84.2294C37.8339 84.0911 37.768 83.9521 37.7051 83.8127C37.6889 83.8195 37.6724 83.8255 37.6563 83.8326C37.6134 83.8515 37.571 83.8717 37.5293 83.8933ZM49.2904 78.0164C49.2482 78.0368 49.2067 78.0585 49.1657 78.0816C49.1608 78.0843 49.156 78.0874 49.1511 78.0902C49.2252 78.2251 49.2973 78.3619 49.3669 78.5012C49.4289 78.6254 49.4884 78.7501 49.5454 78.8751C49.562 78.8649 49.5785 78.8544 49.5952 78.8451C49.9229 78.6607 50.2806 78.5976 50.7449 78.7073C53.2305 80.7232 53.7459 83.7618 56.0462 81.3603C55.3282 81.352 54.8022 81.0752 54.359 80.6809L55.2279 80.1744C54.5785 80.0405 53.9792 79.9547 53.1717 79.2979C52.6227 78.616 52.0221 78.0005 51.0565 77.886C50.4139 77.7194 49.8083 77.7663 49.2904 78.0164ZM40.1553 87.2991C39.9385 87.5524 39.7669 87.825 39.6513 88.1221C39.3917 88.7891 39.4602 89.5521 39.8622 90.3127C40.0426 90.889 40.6465 91.1587 41.4614 91.4057C42.1391 92.0694 42.3034 92.6259 42.517 93.221L42.9835 92.075C43.4359 92.6125 43.5817 93.0891 43.7626 93.5935L44.274 92.337C44.7501 92.5579 45.2269 92.8336 45.6833 93.1931C45.1885 89.685 41.7552 91.089 40.3731 89.132C40.3455 88.8849 40.3821 88.6598 40.4678 88.4396C40.5407 88.2521 40.6587 88.063 40.8195 87.8747C40.5895 87.693 40.3678 87.5009 40.1552 87.299L40.1553 87.2991ZM50.471 82.1596C50.5043 82.4507 50.5243 82.7432 50.531 83.0362C50.7654 83.0243 50.9767 83.044 51.1619 83.0959C51.3895 83.1596 51.5915 83.2655 51.7725 83.4359C52.5077 85.7162 49.3235 87.6188 51.8318 90.1208C51.8186 89.5495 51.8821 89.0113 51.9882 88.5053L53.2699 88.8428C52.9753 88.3953 52.6817 87.9925 52.5235 87.308L53.7199 87.6231C53.3793 87.1058 53.0401 86.6485 52.91 85.7463C53.2197 84.9116 53.3869 84.2414 53.0233 83.7359C52.6564 82.958 52.0873 82.4452 51.3981 82.2523C51.1015 82.1692 50.7917 82.1421 50.4709 82.1596L50.471 82.1596Z" fill="#8990A5"/>
<line x1="26.3643" y1="96.2281" x2="60.3643" y2="68.2281" stroke="#F68561" stroke-width="2"/>
<rect x="23" y="61" width="42" height="42" rx="3" stroke="#F68561" stroke-width="2"/>
</svg>
