<svg width="86" height="129" viewBox="0 0 86 129" fill="none" xmlns="http://www.w3.org/2000/svg">
<path d="M75.0001 45.5C76.0001 52.5 60.8971 60.5 43.5001 60.5C26.1031 60.5 11 53 12.0001 45.5C12.0001 38.5964 26.1031 33 43.5001 33C60.8971 33 75.0001 38.5964 75.0001 45.5Z" fill="#89E159"/>
<rect x="25" y="20" width="38" height="23" fill="#89E159" stroke="#89E159" stroke-width="2"/>
<path d="M63.9273 21.5V21.58L63.9401 21.6589C64.3566 24.2465 62.533 26.7977 58.7244 28.8026C54.9792 30.7742 49.653 32 44 32C38.313 32 32.9867 31.0125 29.2531 29.1661C25.5156 27.3178 23.626 24.7713 24.063 21.6382L24.0726 21.5694V21.5C24.0726 18.5397 26.087 15.6866 29.7149 13.5197C33.3222 11.365 38.3704 10 44 10C49.6296 10 54.6778 11.365 58.2851 13.5197C61.913 15.6866 63.9273 18.5397 63.9273 21.5Z" fill="#BFC6DC" stroke="#BFC6DC" stroke-width="2"/>
<path d="M64 19.5C64 21.8167 62.096 24.1832 58.402 26.0302C54.7679 27.8473 49.6774 29 44 29C38.3226 29 33.2321 27.8473 29.598 26.0302C25.904 24.1832 24 21.8167 24 19.5C24 17.1833 25.904 14.8168 29.598 12.9698C33.2321 11.1527 38.3226 10 44 10C49.6774 10 54.7679 11.1527 58.402 12.9698C62.096 14.8168 64 17.1833 64 19.5Z" fill="#DBE2F9" stroke="#DBE2F9" stroke-width="2"/>
<ellipse cx="43.5" cy="103.5" rx="31.5" ry="12.5" fill="#89E159"/>
<rect x="13" y="40" width="61" height="69" rx="7" fill="#89E159" stroke="#89E159" stroke-width="2"/>
<rect x="23" y="61" width="42" height="42" rx="3" fill="#141B25"/>
<path d="M43.5628 74C44.9026 76.208 45.1966 78.6895 44.7727 81.0068C45.805 81.1914 46.6526 81.9365 47.5003 82.8936C47.6848 83.1055 47.8762 83.3311 48.0676 83.5635C48.7923 82.791 49.2776 81.6357 49.4485 80.3369C49.6399 78.8467 49.4007 77.2334 48.7649 76.0234C48.7444 75.9961 48.7171 75.9619 48.6966 75.9346C48.5528 76.599 48.2959 77.1826 47.9702 77.5845C47.6444 77.9864 47.2703 78.1813 46.9124 78.1357C46.5052 78.0828 46.1504 77.7226 45.926 77.1341C45.7017 76.5457 45.6262 75.7774 45.7161 74.998C45.7473 74.7274 45.7979 74.4605 45.8665 74.2051C45.3196 74.0752 44.6839 74.0068 43.9456 74H43.5628ZM42.1614 74.1025C41.8059 74.1436 41.4778 74.2051 41.1839 74.2803C41.2343 74.3672 41.2822 74.4562 41.3274 74.5469C41.4783 74.8515 41.5964 75.1709 41.675 75.4867C41.7536 75.8024 41.7911 76.1084 41.7854 76.3871C41.7797 76.6659 41.7309 76.9118 41.6417 77.111C41.5526 77.3102 41.4249 77.4586 41.2659 77.5479C40.9457 77.727 40.5184 77.6557 40.0776 77.3495C39.6368 77.0432 39.2185 76.5271 38.9143 75.9141C38.8626 75.8087 38.8146 75.7013 38.7708 75.5928C38.3401 76.0371 38.0257 76.5566 37.7659 77.1445C39.2493 78.1426 40.0423 79.4619 40.3977 80.8291C40.555 81.4102 40.637 81.998 40.6848 82.5791C40.7669 82.4766 40.8557 82.3809 40.9446 82.2852C41.6487 81.5264 42.4348 81.082 43.5286 80.9727C44.0071 78.6621 43.6858 76.2285 42.1614 74.1025ZM37.3216 78.3271C37.2122 78.6621 37.1096 79.0107 37.0003 79.3594C37.3769 79.625 37.6782 79.9608 37.8393 80.2946C38.0004 80.6283 38.0084 80.9332 37.8616 81.1436C37.744 81.3137 37.5324 81.4126 37.2573 81.4261C36.9822 81.4396 36.6577 81.367 36.3303 81.2187C36.2278 81.458 36.1116 81.6904 35.9817 81.9229C37.0208 82.3945 37.6565 83.1943 37.971 84.0967C38.1282 84.5479 38.2307 85.0195 38.2923 85.4912C38.7571 84.958 39.1467 84.4795 39.4954 84.0488C39.4954 83.0371 39.4475 82.0391 39.2083 81.1436C38.928 80.0635 38.4085 79.1201 37.3216 78.3271ZM59.6067 79.8379C58.6907 81.0068 58.3216 82.5176 58.1507 83.9053C58.1575 83.9121 58.1712 83.9121 58.1848 83.9189C58.5813 84.083 58.971 84.2607 59.3333 84.4658C59.4973 83.0645 59.8186 81.5605 60.5774 80.5898L59.6067 79.8379ZM50.6721 80.4258C50.6721 80.4531 50.6653 80.4736 50.6653 80.501C50.4602 82.0459 49.8655 83.5361 48.8401 84.541C49.387 85.2451 49.9749 86.0244 50.6448 86.8379C50.7268 86.9404 50.9387 87.084 51.2395 87.2344C52.4837 86.1133 53.1194 84.9443 53.1673 83.6865C52.9759 83.5977 52.7981 83.4951 52.6341 83.3789C52.4169 83.6324 52.1752 83.8199 51.94 83.9174C51.7049 84.0149 51.4871 84.0178 51.3147 83.9258C51.0855 83.8044 50.9524 83.5245 50.9447 83.1476C50.937 82.7707 51.0554 82.3277 51.2737 81.916C51.2849 81.8954 51.2963 81.8749 51.3079 81.8545L51.1848 81.6289C50.9934 81.2461 50.8225 80.8428 50.6721 80.4258ZM43.1184 82.2236C42.5784 82.3262 42.2434 82.5996 41.7581 83.126C41.6624 83.2285 41.5598 83.3447 41.4573 83.4678C41.4618 83.4769 41.4663 83.486 41.471 83.4951C41.6738 83.8023 41.9494 84.0214 42.2375 84.1046C42.5257 84.1879 42.803 84.1285 43.0091 83.9395C43.1963 83.7657 43.3104 83.4963 43.3305 83.1811C43.3506 82.8658 43.2753 82.5258 43.1184 82.2236ZM45.2307 82.5449C44.9761 82.7796 44.7893 83.0836 44.7061 83.3988C44.6229 83.714 44.649 84.0184 44.7796 84.2539C44.849 84.3801 44.9463 84.4831 45.066 84.5569C45.1857 84.6307 45.3254 84.6739 45.4771 84.6841C45.6289 84.6942 45.7897 84.6711 45.9503 84.6161C46.1109 84.561 46.2683 84.4751 46.4134 84.3633C46.5408 84.2638 46.6565 84.1458 46.7551 84.0146C46.6663 83.9121 46.5774 83.8027 46.4885 83.707C46.0305 83.1807 45.6135 82.7979 45.2307 82.5449ZM35.2981 82.9414C35.2844 82.9551 35.2708 82.9756 35.2571 82.9893C35.4116 83.3665 35.4791 83.7463 35.4479 84.0625C35.4166 84.3786 35.2886 84.6109 35.0862 84.7187C34.9124 84.81 34.6929 84.8053 34.4564 84.7054C34.2199 84.6054 33.9773 84.4147 33.76 84.1582C33.678 84.1855 33.5891 84.2129 33.5003 84.2402C33.9241 85.0059 34.1018 85.8262 34.136 86.5713C34.1497 86.9814 34.1292 87.3779 34.0813 87.7402C34.5188 87.6787 34.9426 87.5967 35.3255 87.501C36.2825 87.2617 37.0344 86.8789 37.1575 86.749C37.1643 86.7422 37.1643 86.7354 37.1712 86.7354C37.1028 85.9014 37.0208 85.1152 36.8089 84.5C36.5491 83.7617 36.1868 83.2217 35.2981 82.9414ZM54.3704 84.0488C54.2268 85.3682 53.5774 86.5918 52.5247 87.6924C52.5589 87.6992 52.5862 87.7061 52.6204 87.7129C53.4339 87.9043 54.3909 88.0342 55.3548 88.082C56.0589 86.9199 56.4143 85.6416 56.2434 84.5273C56.1546 84.5068 56.0589 84.4795 55.97 84.4521C55.8816 84.6892 55.7658 84.8819 55.6354 85.0087C55.505 85.1355 55.3652 85.1913 55.2317 85.1699C55.0856 85.1493 54.9531 85.0376 54.8518 84.8496C54.7505 84.6616 54.6851 84.4062 54.6643 84.1172C54.5618 84.0898 54.4661 84.0693 54.3704 84.0488ZM32.1789 84.4111C31.8692 84.4248 31.5582 84.4248 31.2526 84.4248C31.2647 84.7971 31.1916 85.138 31.0445 85.3959C30.8973 85.6537 30.684 85.8144 30.4371 85.8535C30.1687 85.8958 29.8773 85.7919 29.6146 85.5604C29.3519 85.3288 29.1349 84.9846 29.0022 84.5889C28.7896 84.6504 28.6133 84.7324 28.4813 84.835C28.1723 85.0811 27.9604 85.4502 28.0062 86.3936C28.0322 86.9268 28.3508 87.248 29.0904 87.5283C29.8294 87.8154 30.919 87.9385 32.0538 87.918C32.306 87.9111 32.5603 87.8975 32.8139 87.8838C32.8837 87.4941 32.9267 87.0635 32.9083 86.6191C32.8768 85.8672 32.695 85.1084 32.1789 84.4111ZM57.5149 84.9443C57.5559 86.0107 57.2551 87.0908 56.7561 88.0889C57.7063 88.0547 58.5813 87.9316 59.1966 87.7334C59.5794 87.6035 59.8596 87.4463 59.9964 87.3164C60.1399 87.1865 60.1536 87.1318 60.1467 87.0088C60.1262 86.6738 59.928 86.3525 59.511 86.0039C59.1008 85.6621 58.4856 85.334 57.8089 85.0605C57.7132 85.0195 57.6106 84.9853 57.5149 84.9443ZM39.7688 85.5596C39.3587 86.0518 38.8938 86.5918 38.3333 87.1934C38.4133 87.3039 38.5054 87.4053 38.6067 87.4941C38.7444 87.617 38.8974 87.7149 39.0568 87.7821C39.2163 87.8493 39.3791 87.8846 39.5359 87.8858C39.6928 87.8871 39.8406 87.8544 39.9708 87.7895C40.1011 87.7246 40.2113 87.6289 40.2952 87.5078C40.4643 87.2638 40.516 86.9315 40.4391 86.5841C40.3622 86.2367 40.1629 85.9026 39.885 85.6553C39.8475 85.6215 39.8087 85.5896 39.7688 85.5596ZM48.3479 86.0312C48.1256 86.3068 47.979 86.6494 47.9383 86.9888C47.8976 87.3282 47.9659 87.6387 48.1292 87.8564C48.2979 88.0782 48.5528 88.1846 48.8392 88.1526C49.1255 88.1207 49.4204 87.9529 49.6604 87.6855C49.6399 87.665 49.6194 87.6377 49.5989 87.6172C49.1409 87.0566 48.7376 86.5371 48.3479 86.0312ZM36.6106 88.3896C36.2825 88.5059 35.9202 88.6016 35.5305 88.6973C35.3186 88.752 35.093 88.7998 34.8606 88.8408C34.9064 89.0062 34.9712 89.1661 35.052 89.3125C35.1389 89.4722 35.243 89.6134 35.3585 89.7281C35.4739 89.8427 35.5984 89.9285 35.7247 89.9806C35.8511 90.0326 35.9769 90.05 36.0949 90.0315C36.2129 90.0131 36.3208 89.9592 36.4124 89.873C36.5615 89.7329 36.6613 89.5132 36.697 89.2462C36.7327 88.9792 36.7024 88.6789 36.6106 88.3896ZM29.504 88.9502C29.504 88.9548 29.504 88.9593 29.504 88.9639C29.5044 89.343 29.6001 89.7064 29.7699 89.9743C29.9397 90.2421 30.1698 90.3926 30.4097 90.3926C30.6292 90.3922 30.8412 90.2658 31.0062 90.0369C31.1711 89.8081 31.2779 89.4924 31.3066 89.1484C30.6804 89.1348 30.0707 89.0732 29.504 88.9502ZM59.2512 88.9707C58.6839 89.1348 58.0413 89.2305 57.3577 89.2852C57.4164 89.4255 57.4903 89.5571 57.5764 89.6748C57.7847 89.9607 58.0532 90.1492 58.3233 90.1991C58.5935 90.2491 58.8435 90.1564 59.0188 89.9414C59.112 89.8266 59.1809 89.6808 59.2209 89.5135C59.261 89.3462 59.2713 89.1613 59.2512 88.9707ZM52.6477 88.998C52.6519 89.17 52.6797 89.3414 52.7298 89.5039C52.8398 89.8571 53.0483 90.1468 53.3097 90.3095C53.571 90.4722 53.8639 90.4947 54.1243 90.3721C54.298 90.2887 54.449 90.1441 54.5619 89.9532C54.6748 89.7622 54.7455 89.5317 54.7669 89.2852C54.0354 89.2305 53.3108 89.1348 52.6477 88.998Z" fill="#89E159"/>
<line x1="26.3643" y1="96.2281" x2="60.3643" y2="68.2281" stroke="#F68561" stroke-width="2"/>
<rect x="23" y="61" width="42" height="42" rx="3" stroke="#F68561" stroke-width="2"/>
</svg>
