<svg width="129" height="137" viewBox="0 0 129 137" fill="none" xmlns="http://www.w3.org/2000/svg">
<path d="M62.5994 25.4204C60.3706 33.4589 71.878 51.8008 76.01 55.1113C79.8438 56.8962 95.3644 63.3665 104.147 62.9167C115.124 62.3544 115.716 52.4177 114.635 48.5106C117.202 47.0582 122.269 42.8362 121.999 37.5668C121.73 32.2973 115.448 29.9767 111.057 30.2019C114.294 28.9354 119.552 18.6073 109.487 12.4516C96.5335 4.52933 94.8612 10.559 89.1692 15.4731C84.8122 7.77133 77.9149 6.59078 76.2139 7.55296C71.0794 10.4573 73.9844 15.5918 72.3113 21.6209C67.735 22.516 64.0091 20.3359 62.5994 25.4204Z" fill="#3D8E53"/>
<path d="M76.01 55.1113L63.8359 84C73.018 86.7122 67.2874 107.096 83.7549 110.957C90.3369 112.5 92.5609 112.381 98.8369 110.5C103.337 108 105.513 101.5 93.8369 101.5C91.9558 101.97 88.0795 105.114 90.3369 108.5M76.01 55.1113C71.878 51.8008 60.3706 33.4589 62.5994 25.4204C64.0091 20.3359 67.735 22.516 72.3113 21.6209C73.9845 15.5918 71.0794 10.4573 76.2139 7.55296C77.9149 6.59078 84.8122 7.77133 89.1692 15.4731C94.8612 10.559 96.5335 4.52933 109.487 12.4516C119.552 18.6073 114.294 28.9354 111.057 30.2019C115.448 29.9767 121.73 32.2973 121.999 37.5668C122.269 42.8362 117.202 47.0583 114.635 48.5106C115.716 52.4177 115.124 62.3544 104.147 62.9167C95.3644 63.3665 79.8438 56.8962 76.01 55.1113Z" stroke="#3D8E53"/>
<path d="M91.0646 66.6392C87.6328 69.2333 86.4032 80.0933 86.9988 82.6653C87.9587 84.5302 92.0844 91.7739 95.7206 94.2067C100.265 97.2474 103.647 93.3966 104.454 91.4914C105.935 91.6672 109.288 91.4649 110.849 89.249C112.41 87.0331 110.646 84.2222 108.828 83.0059C110.516 83.4565 115.878 80.8366 113.823 75.3448C111.179 68.2771 108.604 70.2228 104.784 70.5194C105.489 66.1008 101.317 66.7558 100.336 66.6392C97.3739 66.2874 98.7057 66.0461 96.1312 67.9913C94.0273 66.9914 93.2353 64.9984 91.0646 66.6392Z" fill="#3D8E53"/>
<path d="M86.9988 82.6653C86.4032 80.0933 87.6328 69.2333 91.0646 66.6392C93.2353 64.9984 94.0273 66.9914 96.1312 67.9913C98.7057 66.0461 97.3739 66.2874 100.336 66.6392C101.317 66.7558 105.489 66.1008 104.784 70.5194C108.604 70.2228 111.179 68.2771 113.823 75.3448C115.878 80.8366 110.516 83.4565 108.828 83.0059C110.646 84.2222 112.41 87.0331 110.849 89.249C109.288 91.4649 105.935 91.6672 104.454 91.4914C103.647 93.3966 100.265 97.2474 95.7206 94.2067C92.0844 91.7739 87.9587 84.5302 86.9988 82.6653ZM86.9988 82.6653C84.15 82.1163 72.1314 81.7992 63.8369 84" stroke="#3D8E53"/>
<path d="M78.745 51.4732L81.6351 17.6443M78.745 51.4732L102.848 19.1994M78.745 51.4732L109.693 38.4134M78.745 51.4732L103.977 54.1433M78.745 51.4732L72.5983 34.6174" stroke="#89E159" stroke-width="0.5"/>
<path d="M55.656 33.733C59.4178 38.9125 55.3894 54.181 53.1003 57.3641C50.6455 59.4141 40.5131 67.1833 33.7222 68.6935C25.2341 70.5811 22.2283 63.7287 22.0447 60.7612C19.7198 60.2755 14.7825 58.3652 13.6322 54.6099C12.4818 50.8547 16.6593 47.9195 20.0549 47.1646C17.2686 46.9486 10.6153 40.7916 16.6821 34.3776C24.4898 26.123 27.3119 30.0081 32.9023 32.2743C34.2328 25.9618 39.1716 23.699 40.712 24.0208C45.3615 24.9921 44.4743 29.2005 47.2969 33.085C51.0054 32.7618 53.2766 30.4568 55.656 33.733Z" fill="#3D8E53"/>
<path d="M64.3398 131.5C64.3398 131.5 65.3398 89.5 64.3398 86C63.3398 82.5 53.1003 57.3641 53.1003 57.3641M53.1003 57.3641C55.3894 54.181 59.4178 38.9125 55.656 33.733C53.2766 30.4568 51.0054 32.7618 47.2969 33.085C44.4743 29.2005 45.3615 24.9921 40.712 24.0208C39.1716 23.699 34.2328 25.9618 32.9023 32.2743C27.3119 30.0081 24.4898 26.123 16.6821 34.3776C10.6153 40.7916 17.2686 46.9486 20.0549 47.1646C16.6593 47.9195 12.4818 50.8547 13.6322 54.6099C14.7825 58.3652 19.7198 60.2755 22.0447 60.7612C22.2283 63.7287 25.2341 70.5811 33.7222 68.6935C40.5131 67.1833 50.6455 59.4141 53.1003 57.3641Z" stroke="#3D8E53"/>
<path d="M49.8338 55.5809L38.9353 32.4341M49.8338 55.5809L23.2121 37.9363M49.8338 55.5809L22.9516 52.8477M49.8338 55.5809L31.3423 62.7015M49.8338 55.5809L50.1699 42.4703" stroke="#89E159" stroke-width="0.5"/>
<path d="M52.9233 83.4439C50.8843 89.0393 42.7103 92.3991 39.6428 91.2813C36.5754 90.1635 32.4795 82.3324 34.5186 76.737C37.067 69.7425 41.1874 71.2441 46.2698 73.0961C51.3521 74.9482 55.411 76.6175 52.9233 83.4439Z" fill="#F68561"/>
<path d="M43.7949 67.3684C46.3162 68.6238 46.9007 71.3066 46.8936 73.0437C47.8471 71.7868 52.8243 73.2016 54.1002 74.9214C53.6546 75.768 49.8848 75.5374 46.82 74.0114C44.2422 74.01 43.7551 69.4855 43.7949 67.3684Z" fill="#3D8E53"/>
<path d="M38.6909 79.8395C38.4557 80.6277 37.9161 81.1587 37.4855 81.0255C37.055 80.8924 36.8966 80.1455 37.1318 79.3573C37.367 78.5691 37.9066 78.0381 38.3372 78.1713C38.7677 78.3044 38.9261 79.0513 38.6909 79.8395Z" fill="#141B25"/>
<path d="M41.9558 76.3807C41.7115 77.166 41.1655 77.6913 40.7362 77.5539C40.3069 77.4166 40.157 76.6686 40.4013 75.8833C40.6457 75.098 41.1917 74.5728 41.621 74.7101C42.0503 74.8475 42.2002 75.5954 41.9558 76.3807Z" fill="#141B25"/>
<path d="M40.4576 85.2018C40.3685 86.0232 39.9362 86.6356 39.4921 86.5697C39.0481 86.5037 38.7603 85.7843 38.8494 84.9629C38.9385 84.1415 39.3707 83.5291 39.8148 83.595C40.2589 83.661 40.5467 84.3803 40.4576 85.2018Z" fill="#141B25"/>
<path d="M45.4278 85.8261C44.916 86.4783 44.2046 86.7976 43.839 86.5394C43.4733 86.2811 43.5918 85.543 44.1036 84.8908C44.6154 84.2387 45.3267 83.9193 45.6924 84.1776C46.058 84.4359 45.9396 85.1739 45.4278 85.8261Z" fill="#141B25"/>
<path d="M50.5919 81.3555C50.1056 82.025 49.408 82.3677 49.0337 82.1208C48.6595 81.8739 48.7503 81.131 49.2366 80.4614C49.723 79.7918 50.4206 79.4492 50.7948 79.696C51.1691 79.9429 51.0782 80.6859 50.5919 81.3555Z" fill="#141B25"/>
<path d="M46.4972 78.2834C46.0109 78.953 45.3133 79.2957 44.939 79.0488C44.5648 78.8019 44.6556 78.059 45.1419 77.3894C45.6282 76.7198 46.3259 76.3771 46.7001 76.624C47.0744 76.8709 46.9835 77.6139 46.4972 78.2834Z" fill="#141B25"/>
<path d="M43.5357 81.726C43.2859 82.5095 42.736 83.0313 42.3075 82.8914C41.8791 82.7515 41.7343 82.003 41.9841 81.2195C42.234 80.4359 42.7839 79.9142 43.2123 80.054C43.6408 80.1939 43.7856 80.9425 43.5357 81.726Z" fill="#141B25"/>
<path d="M46.12 72.9656C57.4592 71.1507 60.5124 77.8994 63.3369 84" stroke="#3D8E53" stroke-width="0.5"/>
<path d="M68.5459 100.436C68.3198 106.526 60.609 112.339 56.8667 112.2C53.1243 112.061 45.8657 105.693 46.0918 99.6021C46.374 91.9888 51.401 92.1754 57.6015 92.4056C63.8021 92.6358 68.8218 93.0051 68.5459 100.436Z" fill="#F68561"/>
<path d="M53.3925 88.9388C56.4255 89.3587 58.0046 91.3865 58.6771 92.9793C58.2728 91.3936 58.0195 88.9924 60.143 88.3893C60.3929 89.1185 61.134 91.281 60.5813 92.7813C62.1397 91.8142 64.4473 91.142 66.0673 92.178C65.8837 93.1421 62.9264 94.7115 59.0413 94.1736C56.231 94.9718 54.1045 91.0163 53.3925 88.9388Z" fill="#3D8E53"/>
<path d="M51.7476 101.334C51.7725 102.176 51.3737 102.861 50.8569 102.865C50.3401 102.868 49.901 102.189 49.8761 101.347C49.8512 100.505 50.25 99.82 50.7668 99.8164C51.2836 99.8127 51.7227 100.492 51.7476 101.334Z" fill="#141B25"/>
<path d="M54.0698 96.9462C54.0837 97.788 53.6759 98.4697 53.159 98.4689C52.6421 98.4681 52.2118 97.785 52.198 96.9432C52.1841 96.1014 52.5919 95.4196 53.1088 95.4204C53.6257 95.4213 54.056 96.1044 54.0698 96.9462Z" fill="#141B25"/>
<path d="M55.5855 106.018C55.7815 106.847 55.5288 107.578 55.0213 107.652C54.5137 107.725 53.9434 107.113 53.7474 106.284C53.5514 105.455 53.804 104.723 54.3116 104.65C54.8192 104.576 55.3895 105.189 55.5855 106.018Z" fill="#141B25"/>
<path d="M61.2215 105.089C60.8963 105.884 60.2349 106.416 59.7442 106.278C59.2535 106.139 59.1193 105.383 59.4445 104.588C59.7696 103.793 60.431 103.261 60.9217 103.399C61.4124 103.538 61.5467 104.294 61.2215 105.089Z" fill="#141B25"/>
<path d="M65.2554 99.1231C64.9642 99.9271 64.326 100.478 63.83 100.353C63.334 100.228 63.1679 99.4753 63.4591 98.6713C63.7503 97.8673 64.3884 97.3167 64.8845 97.4414C65.3805 97.5662 65.5465 98.3191 65.2554 99.1231Z" fill="#141B25"/>
<path d="M59.7007 97.3982C59.4095 98.2022 58.7714 98.7529 58.2753 98.6281C57.7793 98.5034 57.6133 97.7505 57.9044 96.9465C58.1956 96.1425 58.8337 95.5918 59.3298 95.7166C59.8258 95.8413 59.9919 96.5942 59.7007 97.3982Z" fill="#141B25"/>
<path d="M57.6966 101.672C57.7038 102.514 57.2906 103.193 56.7737 103.19C56.2567 103.186 55.8318 102.501 55.8246 101.659C55.8174 100.817 56.2306 100.138 56.7475 100.141C57.2644 100.145 57.6894 100.83 57.6966 101.672Z" fill="#141B25"/>
<path d="M59.4606 92.8681C58.3304 86.3356 61.0753 86.2856 64.3366 82.9999" stroke="#3D8E53" stroke-width="0.5"/>
</svg>
