<svg width="129" height="137" viewBox="0 0 129 137" fill="none" xmlns="http://www.w3.org/2000/svg">
<path d="M62.6003 25.4204C60.3716 33.4589 71.879 51.8008 76.011 55.1113C79.8448 56.8962 95.3653 63.3665 104.148 62.9167C115.125 62.3544 115.717 52.4177 114.636 48.5106C117.203 47.0582 122.27 42.8362 122 37.5668C121.73 32.2973 115.449 29.9767 111.058 30.2019C114.295 28.9354 119.553 18.6073 109.488 12.4516C96.5345 4.52933 94.8622 10.559 89.1702 15.4731C84.8132 7.77133 77.9158 6.59078 76.2148 7.55296C71.0804 10.4573 73.9854 15.5918 72.3123 21.6209C67.736 22.516 64.0101 20.3359 62.6003 25.4204Z" fill="#3D8E53"/>
<path d="M76.011 55.1113L63.8369 84C73.0189 86.7122 67.2883 107.096 83.7559 110.957C90.3379 112.5 92.5619 112.381 98.8379 110.5C103.338 108 105.514 101.5 93.8379 101.5C91.9567 101.97 88.0805 105.114 90.3379 108.5M76.011 55.1113C71.879 51.8008 60.3716 33.4589 62.6003 25.4204C64.0101 20.3359 67.736 22.516 72.3123 21.6209C73.9854 15.5918 71.0804 10.4573 76.2148 7.55296C77.9158 6.59078 84.8132 7.77133 89.1702 15.4731C94.8622 10.559 96.5345 4.52933 109.488 12.4516C119.553 18.6073 114.295 28.9354 111.058 30.2019C115.449 29.9767 121.73 32.2973 122 37.5668C122.27 42.8362 117.203 47.0583 114.636 48.5106C115.717 52.4177 115.125 62.3544 104.148 62.9167C95.3653 63.3665 79.8448 56.8962 76.011 55.1113Z" stroke="#3D8E53"/>
<path d="M91.0656 66.6392C87.6338 69.2333 86.4042 80.0933 86.9997 82.6653C87.9597 84.5302 92.0853 91.7739 95.7215 94.2067C100.266 97.2474 103.648 93.3966 104.455 91.4914C105.936 91.6672 109.289 91.4649 110.85 89.249C112.411 87.0331 110.647 84.2222 108.829 83.0059C110.517 83.4565 115.879 80.8366 113.824 75.3448C111.18 68.2771 108.605 70.2228 104.785 70.5194C105.49 66.1008 101.318 66.7558 100.337 66.6392C97.3748 66.2874 98.7067 66.0461 96.1321 67.9913C94.0282 66.9914 93.2363 64.9984 91.0656 66.6392Z" fill="#3D8E53"/>
<path d="M86.9997 82.6653C86.4042 80.0933 87.6338 69.2333 91.0656 66.6392C93.2363 64.9984 94.0282 66.9914 96.1321 67.9913C98.7067 66.0461 97.3748 66.2874 100.337 66.6392C101.318 66.7558 105.49 66.1008 104.785 70.5194C108.605 70.2228 111.18 68.2771 113.824 75.3448C115.879 80.8366 110.517 83.4565 108.829 83.0059C110.647 84.2222 112.411 87.0331 110.85 89.249C109.289 91.4649 105.936 91.6672 104.455 91.4914C103.648 93.3966 100.266 97.2474 95.7215 94.2067C92.0853 91.7739 87.9597 84.5302 86.9997 82.6653ZM86.9997 82.6653C84.151 82.1163 72.1323 81.7992 63.8379 84" stroke="#3D8E53"/>
<path d="M78.746 51.4732L81.6361 17.6443M78.746 51.4732L102.849 19.1994M78.746 51.4732L109.694 38.4134M78.746 51.4732L103.978 54.1433M78.746 51.4732L72.5993 34.6174" stroke="#89E159" stroke-width="0.5"/>
<path d="M55.655 33.733C59.4168 38.9125 55.3884 54.181 53.0993 57.3641C50.6445 59.4141 40.5122 67.1833 33.7212 68.6935C25.2332 70.5811 22.2273 63.7287 22.0437 60.7612C19.7188 60.2755 14.7815 58.3652 13.6312 54.6099C12.4809 50.8547 16.6583 47.9195 20.0539 47.1646C17.2677 46.9486 10.6144 40.7916 16.6811 34.3776C24.4888 26.123 27.3109 30.0081 32.9013 32.2743C34.2318 25.9618 39.1706 23.699 40.711 24.0208C45.3606 24.9921 44.4733 29.2005 47.2959 33.085C51.0044 32.7618 53.2756 30.4568 55.655 33.733Z" fill="#3D8E53"/>
<path d="M64.3389 131.5C64.3389 131.5 65.3389 89.5 64.3389 86C63.3389 82.5 53.0993 57.3641 53.0993 57.3641M53.0993 57.3641C55.3884 54.181 59.4168 38.9125 55.655 33.733C53.2756 30.4568 51.0044 32.7618 47.2959 33.085C44.4733 29.2005 45.3606 24.9921 40.711 24.0208C39.1706 23.699 34.2318 25.9618 32.9013 32.2743C27.3109 30.0081 24.4888 26.123 16.6811 34.3776C10.6144 40.7916 17.2677 46.9486 20.0539 47.1646C16.6583 47.9195 12.4809 50.8547 13.6312 54.6099C14.7815 58.3652 19.7188 60.2755 22.0437 60.7612C22.2273 63.7287 25.2332 70.5811 33.7212 68.6935C40.5122 67.1833 50.6445 59.4141 53.0993 57.3641Z" stroke="#3D8E53"/>
<path d="M49.8328 55.5809L38.9343 32.4341M49.8328 55.5809L23.2111 37.9363M49.8328 55.5809L22.9506 52.8477M49.8328 55.5809L31.3413 62.7015M49.8328 55.5809L50.1689 42.4703" stroke="#89E159" stroke-width="0.5"/>
<path d="M52.9243 83.4439C50.8853 89.0393 42.7113 92.3991 39.6438 91.2813C36.5764 90.1635 32.4805 82.3324 34.5195 76.737C37.068 69.7425 41.1884 71.2441 46.2708 73.0961C51.3531 74.9482 55.4119 76.6175 52.9243 83.4439Z" fill="#1E4E4E"/>
<path d="M43.7959 67.3684C46.3172 68.6238 46.9017 71.3066 46.8946 73.0437C47.8481 71.7868 52.8252 73.2016 54.1012 74.9214C53.6556 75.768 49.8858 75.5374 46.821 74.0114C44.2431 74.01 43.756 69.4855 43.7959 67.3684Z" fill="#3D8E53"/>
<path d="M38.6919 79.8395C38.4567 80.6277 37.917 81.1587 37.4865 81.0255C37.056 80.8924 36.8976 80.1455 37.1328 79.3573C37.3679 78.5691 37.9076 78.0381 38.3382 78.1713C38.7687 78.3044 38.9271 79.0513 38.6919 79.8395Z" fill="#8990A5"/>
<path d="M41.9568 76.3807C41.7125 77.166 41.1664 77.6913 40.7372 77.5539C40.3079 77.4166 40.158 76.6686 40.4023 75.8833C40.6467 75.098 41.1927 74.5728 41.622 74.7101C42.0512 74.8475 42.2012 75.5954 41.9568 76.3807Z" fill="#8990A5"/>
<path d="M40.4585 85.2018C40.3694 86.0232 39.9372 86.6356 39.4931 86.5697C39.049 86.5037 38.7613 85.7843 38.8504 84.9629C38.9395 84.1415 39.3717 83.5291 39.8158 83.595C40.2599 83.661 40.5476 84.3803 40.4585 85.2018Z" fill="#8990A5"/>
<path d="M45.4287 85.8261C44.9169 86.4783 44.2056 86.7976 43.84 86.5394C43.4743 86.2811 43.5928 85.543 44.1046 84.8908C44.6164 84.2387 45.3277 83.9193 45.6933 84.1776C46.059 84.4359 45.9405 85.1739 45.4287 85.8261Z" fill="#8990A5"/>
<path d="M50.5929 81.3555C50.1066 82.025 49.409 82.3677 49.0347 82.1208C48.6605 81.8739 48.7513 81.131 49.2376 80.4614C49.7239 79.7918 50.4216 79.4492 50.7958 79.696C51.1701 79.9429 51.0792 80.6859 50.5929 81.3555Z" fill="#8990A5"/>
<path d="M46.4982 78.2834C46.0119 78.953 45.3142 79.2957 44.94 79.0488C44.5657 78.8019 44.6566 78.059 45.1429 77.3894C45.6292 76.7198 46.3268 76.3771 46.7011 76.624C47.0753 76.8709 46.9845 77.6139 46.4982 78.2834Z" fill="#8990A5"/>
<path d="M43.5367 81.726C43.2869 82.5095 42.737 83.0313 42.3085 82.8914C41.88 82.7515 41.7353 82.003 41.9851 81.2195C42.235 80.4359 42.7848 79.9142 43.2133 80.054C43.6418 80.1939 43.7866 80.9425 43.5367 81.726Z" fill="#8990A5"/>
<path d="M46.1209 72.9656C57.4602 71.1507 60.5134 77.8994 63.3379 84" stroke="#3D8E53" stroke-width="0.5"/>
<path d="M68.5469 100.436C68.3208 106.526 60.61 112.339 56.8677 112.2C53.1253 112.061 45.8667 105.693 46.0928 99.6021C46.375 91.9888 51.402 92.1754 57.6025 92.4056C63.803 92.6358 68.8228 93.0051 68.5469 100.436Z" fill="#1E4E4E"/>
<path d="M53.3935 88.9388C56.4264 89.3587 58.0056 91.3865 58.6781 92.9793C58.2738 91.3936 58.0205 88.9924 60.144 88.3893C60.3939 89.1185 61.135 91.281 60.5823 92.7813C62.1407 91.8142 64.4483 91.142 66.0683 92.178C65.8846 93.1421 62.9274 94.7115 59.0423 94.1736C56.2319 94.9718 54.1055 91.0163 53.3935 88.9388Z" fill="#3D8E53"/>
<path d="M51.7486 101.334C51.7734 102.176 51.3747 102.861 50.8579 102.865C50.3411 102.868 49.902 102.189 49.8771 101.347C49.8522 100.505 50.251 99.82 50.7678 99.8164C51.2846 99.8127 51.7237 100.492 51.7486 101.334Z" fill="#8990A5"/>
<path d="M54.0708 96.9462C54.0847 97.788 53.6769 98.4697 53.16 98.4689C52.6431 98.4681 52.2128 97.785 52.1989 96.9432C52.1851 96.1014 52.5929 95.4196 53.1098 95.4204C53.6267 95.4213 54.0569 96.1044 54.0708 96.9462Z" fill="#8990A5"/>
<path d="M55.5865 106.018C55.7824 106.847 55.5298 107.578 55.0222 107.652C54.5147 107.725 53.9443 107.113 53.7484 106.284C53.5524 105.455 53.805 104.723 54.3126 104.65C54.8202 104.576 55.3905 105.189 55.5865 106.018Z" fill="#8990A5"/>
<path d="M61.2225 105.089C60.8973 105.884 60.2359 106.416 59.7452 106.278C59.2545 106.139 59.1203 105.383 59.4454 104.588C59.7706 103.793 60.432 103.261 60.9227 103.399C61.4134 103.538 61.5476 104.294 61.2225 105.089Z" fill="#8990A5"/>
<path d="M65.2563 99.1231C64.9652 99.9271 64.327 100.478 63.831 100.353C63.335 100.228 63.1689 99.4753 63.4601 98.6713C63.7513 97.8673 64.3894 97.3167 64.8854 97.4414C65.3815 97.5662 65.5475 98.3191 65.2563 99.1231Z" fill="#8990A5"/>
<path d="M59.7017 97.3982C59.4105 98.2022 58.7723 98.7529 58.2763 98.6281C57.7803 98.5034 57.6142 97.7505 57.9054 96.9465C58.1966 96.1425 58.8347 95.5918 59.3307 95.7166C59.8268 95.8413 59.9928 96.5942 59.7017 97.3982Z" fill="#8990A5"/>
<path d="M57.6976 101.672C57.7048 102.514 57.2916 103.193 56.7746 103.19C56.2577 103.186 55.8328 102.501 55.8256 101.659C55.8184 100.817 56.2316 100.138 56.7485 100.141C57.2654 100.145 57.6903 100.83 57.6976 101.672Z" fill="#8990A5"/>
<path d="M59.4615 92.8681C58.3314 86.3356 61.0763 86.2856 64.3376 82.9999" stroke="#3D8E53" stroke-width="0.5"/>
</svg>
