<svg width="120" height="91" viewBox="0 0 120 91" fill="none" xmlns="http://www.w3.org/2000/svg">
<path d="M33.1709 20.3818C30.3708 7.88659 52.1292 12.5893 51.7231 27.193C54.6474 29.9476 43.1172 46.4022 35.9021 49.2637C30.13 51.5529 29.1996 43.2833 29.4559 38.8624C29.2068 40.6259 27.9742 44.6602 25.0367 46.6894C22.0992 48.7185 16.863 43.1731 19.3165 38.9694C16.863 43.1731 19.649 40.4186 16.3729 44.1828C12.1654 49.0172 10.998 43.124 12.2293 39.6209C9.01313 39.3666 4.85223 39.1989 3.69117 34.9081C2.53011 30.6174 7.66169 27.2147 11.6534 26.7564C11.2906 25.4155 9.88023 23.9466 11.0586 21.8595C12.237 19.7724 20.5835 22.1799 24.1197 24.5118C23.7142 23.9078 23.1251 21.9098 24.0132 18.75C24.9013 15.5902 29.7129 19.2337 33.1709 20.3818Z" fill="#3D8E53"/>
<path d="M51.7231 27.193C52.1292 12.5893 30.3708 7.88659 33.1709 20.3818C29.7129 19.2337 24.9013 15.5902 24.0132 18.75C23.1251 21.9098 23.7142 23.9078 24.1197 24.5118C20.5835 22.1799 12.237 19.7724 11.0586 21.8595C9.88023 23.9466 11.2906 25.4155 11.6534 26.7564C7.66169 27.2147 2.53011 30.6174 3.69117 34.9081C4.85223 39.1989 9.01313 39.3666 12.2293 39.6209C10.998 43.124 12.1654 49.0172 16.3729 44.1828C19.649 40.4186 16.863 43.1731 19.3165 38.9694C16.863 43.1731 22.0992 48.7185 25.0367 46.6894C27.9742 44.6602 29.2068 40.6259 29.4559 38.8624C29.1996 43.2833 30.13 51.5529 35.9021 49.2637C43.1172 46.4022 54.6474 29.9476 51.7231 27.193ZM51.7231 27.193C55.2601 24.1947 60.8476 19.3144 64 23.8467" stroke="#3D8E53" stroke-width="0.5"/>
<path d="M45.0629 26.165C43.9791 26.3649 42.6889 26.603 41.2757 26.8905M23.0179 34.1115C26.15 31.0939 31.8113 29.144 36.9967 27.8514M36.9967 27.8514C34.8652 29.4717 31.0521 33.0174 32.8519 34.2372M36.9967 27.8514C38.486 27.4801 39.9361 27.1631 41.2757 26.8905M41.2757 26.8905C39.1422 25.9819 35.5628 23.6499 38.3134 21.5905" stroke="#89E159" stroke-width="0.2"/>
<path d="M92.0886 26.6465C94.8719 18.3831 75.2362 15.1578 71.5217 25.1656C68.343 26.0597 73.3009 41.002 78.4652 45.3256C82.5966 48.7844 85.6582 43.5014 86.6726 40.4276C86.3892 41.7024 86.2882 44.838 88.1511 47.1825C90.0085 49.5199 95.6532 46.6613 95.0215 43.8822C95.572 46.2179 97.4643 50.0028 100.687 46.644C103.413 47.537 106.896 48.8012 109.044 46.2847C111.193 43.7682 107.899 39.7686 104.73 38.1371C105.402 37.3507 106.974 36.8245 106.579 35.0233C106.185 33.2221 98.6255 32.0864 95.0587 32.4921C95.5611 32.218 97.5293 31.5877 97.6579 29.401C97.8008 26.9707 94.8719 23.8921 92.0886 26.6465Z" fill="#3D8E53"/>
<path d="M71.5217 25.1656C75.2362 15.1578 94.8719 18.3831 92.0886 26.6465C94.8719 23.8921 97.8008 26.9707 97.6579 29.401C97.5293 31.5877 95.5611 32.218 95.0587 32.4921C98.6255 32.0864 106.185 33.2221 106.579 35.0233C106.974 36.8245 105.402 37.3507 104.73 38.1371C107.899 39.7686 111.193 43.7682 109.044 46.2847C106.896 48.8012 103.413 47.537 100.687 46.644C97.4527 50.0149 95.5584 46.1905 95.0156 43.857C95.6873 46.644 90.0141 49.527 88.1512 47.1825C86.2882 44.838 86.3892 41.7024 86.6726 40.4276C85.6582 43.5014 82.5966 48.7844 78.4652 45.3256C73.3009 41.002 68.343 26.0597 71.5217 25.1656ZM71.5217 25.1656C69.4325 21.9674 67.86 22.3314 64 24.3519" stroke="#3D8E53" stroke-width="0.5"/>
<path d="M80.3593 29.4919C81.0104 29.8458 81.7855 30.267 82.6293 30.7423M92.8545 38.7104C91.4436 36.4167 88.2172 34.0967 85.1669 32.2287M85.1669 32.2287C86.2106 33.5639 86.7699 35.5393 86.8426 37.6328M85.1669 32.2287C84.2908 31.6922 83.4292 31.1929 82.6293 30.7423M82.6293 30.7423C84.1623 30.7604 86.89 30.3699 85.537 28.6633" stroke="#89E159" stroke-width="0.2"/>
<path d="M64.2257 23.8918C60.511 36.7461 54.7533 67.9637 61.4397 89.9997" stroke="#3D8E53"/>
</svg>
