<svg width="140" height="110" viewBox="0 0 140 110" fill="none" xmlns="http://www.w3.org/2000/svg">
<path d="M38.6994 24.763C35.4326 9.64179 60.8175 15.3328 60.3436 33.0056C63.7553 36.339 50.3034 56.2516 41.8858 59.7145C35.1516 62.4849 34.0662 52.4774 34.3653 47.1273C34.0746 49.2615 32.6366 54.1436 29.2095 56.5992C25.7824 59.0548 19.6735 52.344 22.5359 47.2568C19.6735 52.344 22.9238 49.0106 19.1018 53.5658C14.1929 59.4163 12.831 52.2845 14.2675 48.0452C10.5153 47.7376 5.66094 47.5345 4.30637 42.3421C2.9518 37.1496 8.93865 33.0318 13.5957 32.4772C13.1724 30.8545 11.5269 29.0769 12.9017 26.5511C14.2765 24.0254 24.014 26.9389 28.1397 29.7609C27.6665 29.0299 26.9793 26.612 28.0154 22.7882C29.0516 18.9644 34.665 23.3736 38.6994 24.763Z" fill="#F68561"/>
<path d="M60.3436 33.0056C60.8175 15.3328 35.4326 9.64179 38.6994 24.763C34.665 23.3736 29.0516 18.9644 28.0154 22.7882C26.9793 26.612 27.6665 29.0299 28.1397 29.7609C24.014 26.9389 14.2765 24.0254 12.9017 26.5511C11.5269 29.0769 13.1724 30.8545 13.5957 32.4772C8.93865 33.0318 2.9518 37.1496 4.30637 42.3421C5.66094 47.5345 10.5153 47.7376 14.2675 48.0452C12.831 52.2845 14.1929 59.4163 19.1018 53.5658C22.9238 49.0106 19.6735 52.344 22.5359 47.2568C19.6735 52.344 25.7824 59.0548 29.2095 56.5992C32.6366 54.1436 34.0746 49.2615 34.3653 47.1273C34.0662 52.4774 35.1516 62.4849 41.8858 59.7145C50.3034 56.2516 63.7553 36.339 60.3436 33.0056ZM60.3436 33.0056C64.4701 29.3772 71.3222 23.5267 75 29.0115" stroke="#F68561" stroke-width="0.5"/>
<path d="M52.5731 31.7621C51.3087 32.0041 49.8034 32.2921 48.1547 32.6401M26.854 41.3787C30.5081 37.7269 37.1129 35.3673 43.1626 33.8029M43.1626 33.8029C40.6758 35.7638 36.2272 40.0546 38.327 41.5308M43.1626 33.8029C44.9001 33.3536 46.5919 32.9699 48.1547 32.6401M48.1547 32.6401C45.6656 31.5406 41.4897 28.7184 44.6988 26.2263" stroke="#89E159" stroke-width="0.2"/>
<path d="M107.437 32.3438C110.684 22.3437 87.7755 18.4406 83.4418 30.5517C79.7334 31.6337 85.5175 49.7162 91.5426 54.9483C96.3626 59.134 99.9345 52.7409 101.118 49.0211C100.787 50.5637 100.669 54.3584 102.843 57.1955C105.01 60.0242 111.595 56.5648 110.858 53.2016C111.501 56.0282 113.708 60.6085 117.468 56.5438C120.649 57.6245 124.712 59.1544 127.218 56.109C129.725 53.0637 125.882 48.2236 122.185 46.2492C122.969 45.2975 124.803 44.6608 124.343 42.481C123.883 40.3013 115.063 38.9269 110.902 39.4179C111.488 39.0862 113.784 38.3234 113.934 35.6772C114.101 32.7361 110.684 29.0105 107.437 32.3438Z" fill="#F68561"/>
<path d="M83.4418 30.5517C87.7755 18.4406 110.684 22.3437 107.437 32.3438C110.684 29.0105 114.101 32.7361 113.934 35.6772C113.784 38.3234 111.488 39.0862 110.902 39.4179C115.063 38.9269 123.883 40.3013 124.343 42.481C124.803 44.6608 122.969 45.2975 122.185 46.2492C125.882 48.2236 129.725 53.0637 127.218 56.109C124.712 59.1544 120.649 57.6245 117.468 56.5438C113.695 60.6231 111.485 55.9951 110.851 53.1712C111.635 56.5438 105.016 60.0327 102.843 57.1955C100.669 54.3584 100.787 50.5637 101.118 49.0211C99.9345 52.7409 96.3626 59.134 91.5426 54.9483C85.5175 49.7162 79.7334 31.6337 83.4418 30.5517ZM83.4418 30.5517C81.0044 26.6814 79.5032 27.0661 74.9999 29.5112" stroke="#F68561" stroke-width="0.5"/>
<path d="M93.7524 35.7873C94.512 36.2155 95.4164 36.7252 96.4008 37.3005M108.33 46.9431C106.684 44.1673 102.92 41.3597 99.3613 39.0992M99.3613 39.0992C100.579 40.715 101.232 43.1055 101.316 45.639M99.3613 39.0992C98.3392 38.4499 97.334 37.8458 96.4008 37.3005M96.4008 37.3005C98.1893 37.3223 101.372 36.8498 99.7931 34.7845" stroke="#89E159" stroke-width="0.2"/>
<path d="M74.9301 29.0107C70.5963 44.5664 63.8789 82.3446 71.6797 109.012" stroke="#F68561"/>
</svg>
