<svg width="270" height="254" viewBox="0 0 270 254" fill="none" xmlns="http://www.w3.org/2000/svg">
<path d="M141.997 254C141.997 235.804 141.629 241.279 141.997 211.656M59.6034 88.8313C61.1141 75.6895 64.1357 66.4159 68.6684 63.0532C96.4665 42.4307 121.544 71.6459 130.608 88.8313C130.286 92.5387 132.995 98.2921 135.904 105.511M142.197 128.257C135.313 97.9294 132.423 42.4307 175.933 63.0532C219.443 83.6756 206.652 99.9512 200.105 105.511M142.197 128.257C143.065 136.745 142.66 148.286 142.382 161.616M142.197 128.257C141.329 119.763 138.534 112.038 135.904 105.511M142.382 161.616C142.281 166.455 142.197 171.53 142.197 176.78C142.197 187.163 142.152 199.167 141.997 211.656M142.382 161.616C136.947 143.42 118.222 110.06 86.7976 122.191C55.3736 134.322 51.5464 163.638 53.5607 176.78M141.997 211.656C148.273 192.954 168.079 161.616 192.551 161.616C206.148 161.616 206.148 161.616 224.277 193.46M135.904 105.511C127.597 72.6568 115.967 9.67743 135.904 20.5952" stroke="#3D8E53" stroke-width="1.26892"/>
<path d="M42.5893 94.6071C33.0673 90.6172 46.1841 78.6489 55.6191 85.7053C58.7804 85.084 64.313 100.238 62.8763 106.263C61.7269 111.083 55.8499 107.842 53.0551 105.619C54.1024 106.602 56.1929 109.28 56.1774 112.135C56.165 114.397 52.9347 113.875 50.3172 112.991C50.545 113.639 50.6486 114.748 50.5367 116.605C50.2278 121.735 47.3643 119.61 45.6231 117.179C43.9748 119.153 41.9485 121.782 38.5868 120.542C35.2252 119.302 35.346 114.381 36.882 111.571C35.8314 111.183 34.2142 111.417 33.3816 109.68C32.5491 107.943 37.9783 103.632 41.1429 102.416C40.5582 102.399 38.9706 101.853 37.2976 99.8059C35.6247 97.7585 40.2406 96.3228 42.5893 94.6071Z" fill="#141B25"/>
<path d="M55.6191 85.7053C46.1841 78.6489 33.0673 90.6172 42.5893 94.6071C40.2406 96.3228 35.6247 97.7585 37.2976 99.8059C38.9706 101.853 40.5582 102.399 41.1429 102.416C37.9783 103.632 32.5491 107.943 33.3816 109.68C34.2142 111.417 35.8314 111.183 36.882 111.571C35.346 114.381 35.2252 119.302 38.5868 120.542C41.9485 121.782 43.9748 119.153 45.6231 117.179C47.3643 119.61 50.2278 121.735 50.5367 116.605C50.8457 111.475 49.5111 112.059 48.4571 112.265C51.024 113.411 56.1618 114.989 56.1774 112.135C56.1929 109.28 54.1024 106.602 53.0551 105.619C55.8499 107.842 61.7269 111.083 62.8763 106.263C64.313 100.238 58.7804 85.084 55.6191 85.7053ZM55.6191 85.7053C55.2721 82.0097 55.6876 74.6328 60.1253 74.6899" stroke="#3D8E53" stroke-width="0.634462"/>
<path d="M51.8799 89.5591C51.5126 90.3572 51.0754 91.3073 50.6142 92.3604M46.9654 107.597C46.4193 104.156 47.7412 99.5659 49.2771 95.5911M49.2771 95.5911C49.3632 97.7315 49.9437 101.861 51.5761 101.258M49.2771 95.5911C49.7182 94.4495 50.1769 93.3587 50.6142 92.3604M50.6142 92.3604C49.0332 93.3258 45.8486 94.5699 45.7583 91.8226" stroke="#3D8E53" stroke-width="0.126892"/>
<path d="M164.72 73.1232C170.373 70.8476 162.106 63.1115 156.589 67.2978C154.658 66.842 151.726 76.154 152.761 79.9356C153.59 82.9608 157.058 81.0719 158.688 79.7492C158.081 80.3378 156.889 81.9592 156.977 83.7365C157.047 85.1453 158.988 84.8908 160.548 84.3974C160.428 84.7961 160.395 85.4838 160.514 86.6425C160.842 89.8424 162.517 88.5818 163.504 87.1071C164.556 88.3718 165.854 90.0525 167.855 89.3539C169.856 88.6553 169.647 85.5895 168.64 83.8068C169.266 83.5885 170.251 83.7697 170.707 82.7065C171.163 81.6432 167.759 78.8417 165.81 78.0157C166.163 78.0178 167.109 77.7126 168.065 76.4747C169.022 75.2369 166.188 74.2424 164.72 73.1232Z" fill="#3D8E53"/>
<path d="M156.589 67.2978C162.106 63.1115 170.373 70.8476 164.72 73.1232C166.188 74.2424 169.022 75.2369 168.065 76.4747C167.109 77.7126 166.163 78.0178 165.81 78.0157C167.759 78.8417 171.163 81.6432 170.707 82.7065C170.251 83.7697 169.266 83.5885 168.64 83.8068C169.647 85.5895 169.856 88.6553 167.855 89.3539C165.854 90.0525 164.556 88.3718 163.504 87.1071C162.517 88.5818 160.842 89.8424 160.514 86.6425C160.186 83.4426 161.01 83.8349 161.654 83.9866C160.131 84.6438 157.065 85.5139 156.977 83.7365C156.889 81.9592 158.081 80.3378 158.688 79.7492C157.058 81.0719 153.59 82.9608 152.761 79.9356C151.726 76.154 154.658 66.842 156.589 67.2978ZM156.589 67.2978C156.697 65.005 156.243 60.4041 153.559 60.3428" stroke="#3D8E53" stroke-width="0.634462"/>
<path d="M158.951 69.7786C159.195 70.2833 159.486 70.8843 159.794 71.5499M162.421 81.1136C162.657 78.9836 161.731 76.0977 160.692 73.59M160.692 73.59C160.699 74.9204 160.461 77.4783 159.456 77.067M160.692 73.59C160.394 72.8698 160.086 72.1808 159.794 71.5499M159.794 71.5499C160.777 72.1853 162.739 73.0292 162.718 71.3211" stroke="#141B25" stroke-width="0.50757"/>
<path d="M204.732 116.994C211.71 119.419 210.34 105.772 201.961 105.2C200.563 103.247 190.451 109.412 188.376 113.689C186.717 117.11 191.391 118.147 193.935 118.239C192.911 118.293 190.529 118.824 189.19 120.516C188.128 121.857 190.103 123.171 191.921 123.963C191.493 124.231 190.915 124.833 190.098 125.986C187.842 129.168 190.378 129.351 192.456 128.791C192.407 130.783 192.25 133.352 194.634 134.307C197.018 135.263 199.276 132.298 199.78 129.869C200.525 130.168 201.28 131.118 202.546 130.51C203.811 129.903 202.94 124.634 201.821 122.328C202.142 122.612 203.249 123.086 205.11 122.718C206.972 122.35 205.179 119.185 204.732 116.994Z" fill="#141B25"/>
<path d="M201.961 105.2C210.34 105.772 211.71 119.419 204.732 116.994C205.179 119.185 206.972 122.35 205.11 122.718C203.249 123.086 202.142 122.612 201.821 122.328C202.94 124.634 203.811 129.903 202.546 130.51C201.28 131.118 200.525 130.168 199.78 129.869C199.276 132.298 197.018 135.263 194.634 134.307C192.25 133.352 192.407 130.783 192.456 128.791C190.378 129.351 187.842 129.168 190.098 125.986C192.354 122.803 192.792 123.818 193.259 124.469C191.345 123.856 187.851 122.208 189.19 120.516C190.529 118.824 192.911 118.293 193.935 118.239C191.391 118.147 186.717 117.11 188.376 113.689C190.451 109.412 200.563 103.247 201.961 105.2ZM201.961 105.2C203.891 103.194 207.15 98.632 204.749 96.4381" stroke="#3D8E53" stroke-width="0.634462"/>
<path d="M202.154 109.357C201.973 110.012 201.759 110.792 201.509 111.645M196.27 122.468C198.187 120.711 199.646 117.339 200.7 114.223M200.7 114.223C199.643 115.443 197.384 117.588 196.795 116.413M200.7 114.223C201.002 113.328 201.272 112.454 201.509 111.645M201.509 111.645C201.899 113.008 203.016 115.341 204.361 113.765" stroke="#3D8E53" stroke-width="0.126892"/>
<path d="M236.322 200.719C242.562 195.542 229.72 189.438 224.292 196.919C221.747 197.163 221.243 209.899 223.796 214.14C225.838 217.533 229.5 213.748 231.075 211.431C230.521 212.412 229.59 214.915 230.296 217.075C230.855 218.787 233.174 217.661 234.941 216.398C234.926 216.941 235.117 217.805 235.654 219.187C237.135 223.005 238.787 220.747 239.514 218.511C241.242 219.634 243.416 221.168 245.66 219.468C247.903 217.768 246.615 214.066 244.769 212.284C245.47 211.752 246.752 211.564 246.96 210.059C247.168 208.554 242.008 206.516 239.316 206.31C239.755 206.165 240.824 205.392 241.593 203.462C242.362 201.532 238.518 201.488 236.322 200.719Z" fill="#141B25"/>
<path d="M224.292 196.919C229.72 189.438 242.562 195.542 236.322 200.719C238.518 201.488 242.362 201.532 241.593 203.462C240.824 205.392 239.755 206.165 239.316 206.31C242.008 206.516 247.168 208.554 246.96 210.059C246.752 211.564 245.47 211.752 244.769 212.284C246.615 214.066 247.903 217.768 245.66 219.468C243.416 221.168 241.242 219.634 239.514 218.511C238.787 220.747 237.135 223.005 235.654 219.187C234.172 215.369 235.325 215.51 236.173 215.428C234.508 216.877 231.002 219.235 230.296 217.075C229.59 214.915 230.521 212.412 231.075 211.431C229.5 213.748 225.838 217.533 223.796 214.14C221.243 209.899 221.747 197.163 224.292 196.919ZM224.292 196.919C223.656 194.04 221.547 188.543 218.201 189.59" stroke="#3D8E53" stroke-width="0.634462"/>
<path d="M228.072 198.999C228.544 199.52 229.106 200.141 229.712 200.835M236.18 211.557C235.757 208.826 233.639 205.646 231.51 202.981M231.51 202.981C231.965 204.623 232.53 207.884 231.147 207.796M231.51 202.981C230.898 202.216 230.286 201.493 229.712 200.835M229.712 200.835C231.144 201.209 233.858 201.432 233.258 199.33" stroke="#3D8E53" stroke-width="0.50757"/>
<path d="M37.9905 185.738C28.1972 181.384 41.3805 169.054 51.1388 176.625C54.356 176.028 60.2719 192.028 58.9108 198.326C57.822 203.364 51.7639 199.859 48.871 197.478C49.9576 198.527 52.1394 201.374 52.1737 204.37C52.2009 206.744 48.8932 206.139 46.2048 205.165C46.4488 205.85 46.5742 207.015 46.4926 208.962C46.2673 214.34 43.306 212.059 41.4853 209.478C39.8369 211.521 37.814 214.245 34.3595 212.884C30.9051 211.523 30.9419 206.361 32.4609 203.439C31.3814 203.014 29.7341 203.232 28.8534 201.394C27.9727 199.556 33.4408 195.128 36.6509 193.908C36.0535 193.879 34.4227 193.278 32.6785 191.101C30.9342 188.923 35.6224 187.497 37.9905 185.738Z" fill="#3D8E53" stroke="#3D8E53" stroke-width="0.634462"/>
<path d="M47.7146 182.109C47.3474 182.907 46.9101 183.857 46.4489 184.91M42.8001 200.147C42.254 196.705 43.5759 192.115 45.1118 188.141M45.1118 188.141C45.198 190.281 45.7784 194.411 47.4108 193.807M45.1118 188.141C45.5529 186.999 46.0117 185.908 46.4489 184.91M46.4489 184.91C44.8679 185.875 41.6833 187.119 41.593 184.372" stroke="#141B25" stroke-width="0.50757"/>
<path d="M117.936 194.523C118.576 184.23 134.208 192.664 130.639 203.883C132.267 206.66 119.758 216.864 113.588 217.491C108.652 217.992 109.784 211.383 110.966 208.016C110.382 209.327 108.537 212.18 105.832 213.104C103.689 213.837 103.12 210.619 103.095 207.859C102.557 208.287 101.543 208.749 99.7496 209.255C94.7973 210.651 95.8652 207.251 97.5905 204.81C95.1816 203.905 92.0291 202.858 92.096 199.28C92.1629 195.701 96.8558 194.197 100.018 194.721C100.039 193.602 99.2855 192.154 100.654 190.798C102.023 189.441 107.885 193.143 110.076 195.728C109.9 195.171 109.894 193.494 111.279 191.243C112.665 188.991 115.541 192.872 117.936 194.523Z" fill="#141B25"/>
<path d="M130.639 203.883C134.208 192.664 118.576 184.23 117.936 194.523C115.541 192.872 112.665 188.991 111.279 191.243C109.894 193.494 109.9 195.171 110.076 195.728C107.885 193.143 102.023 189.441 100.654 190.798C99.2855 192.154 100.039 193.602 100.018 194.721C96.8558 194.197 92.1629 195.701 92.096 199.28C92.0291 202.858 95.1816 203.905 97.5905 204.81C95.8652 207.251 94.7973 210.651 99.7496 209.255C104.702 207.859 103.711 206.792 103.169 205.866C102.93 208.664 103.128 214.029 105.832 213.104C108.537 212.18 110.382 209.327 110.966 208.016C109.784 211.383 108.652 217.992 113.588 217.491C119.758 216.864 132.267 206.66 130.639 203.883ZM130.639 203.883C134.02 202.34 141.132 200.305 142.538 204.509" stroke="#3D8E53" stroke-width="0.634462"/>
<path d="M125.77 201.624C124.895 201.54 123.852 201.44 122.705 201.352M107.097 202.923C110.172 201.276 114.947 201.013 119.21 201.154M119.21 201.154C117.215 201.939 113.501 203.845 114.608 205.186M119.21 201.154C120.435 201.194 121.617 201.268 122.705 201.352M122.705 201.352C121.272 200.178 119.048 197.584 121.616 196.595" stroke="#3D8E53" stroke-width="0.126892"/>
<path d="M104.883 17.1469C102.649 7.07823 120.006 10.8677 119.682 22.6353C122.015 24.8549 112.817 38.114 107.062 40.4198C102.457 42.2645 101.715 35.6008 101.92 32.0384C101.721 33.4595 100.738 36.7103 98.3943 38.3454C96.537 39.6414 95.0994 36.7056 94.3118 34.0603C93.913 34.6204 93.0665 35.3447 91.4831 36.3256C87.1101 39.0346 87.1954 35.4724 88.1776 32.6496C85.6121 32.4448 82.2929 32.3096 81.3667 28.8521C80.4405 25.3947 84.534 22.6528 87.7183 22.2835C87.4288 21.203 86.3038 20.0193 87.2438 18.3375C88.1838 16.6558 94.8419 18.5957 97.6628 20.4748C97.3393 19.988 96.8693 18.3781 97.5778 15.8319C98.2863 13.2858 102.125 16.2217 104.883 17.1469Z" fill="#141B25"/>
<path d="M119.682 22.6353C120.006 10.8677 102.649 7.07823 104.883 17.1469C102.125 16.2217 98.2863 13.2858 97.5778 15.8319C96.8693 18.3781 97.3393 19.988 97.6628 20.4748C94.8419 18.5957 88.1838 16.6558 87.2438 18.3375C86.3038 20.0193 87.4288 21.203 87.7183 22.2835C84.534 22.6528 80.4405 25.3947 81.3667 28.8521C82.2929 32.3096 85.6121 32.4448 88.1776 32.6496C87.1954 35.4724 87.1101 39.0346 91.4831 36.3256C95.856 33.6166 94.6085 32.8649 93.8312 32.1246C94.3758 34.8795 96.051 39.9805 98.3943 38.3454C100.738 36.7103 101.721 33.4595 101.92 32.0384C101.715 35.6008 102.457 42.2645 107.062 40.4198C112.817 38.114 122.015 24.8549 119.682 22.6353ZM119.682 22.6353C122.504 20.2193 128.776 16.3002 131.29 19.9523" stroke="#3D8E53" stroke-width="0.634462"/>
<path d="M114.365 21.8055C113.501 21.9666 112.471 22.1584 111.344 22.3901M96.7797 28.2087C99.2782 25.7772 103.794 24.206 107.931 23.1643M107.931 23.1643C106.23 24.47 103.189 27.3271 104.624 28.31M107.931 23.1643C109.119 22.8652 110.276 22.6097 111.344 22.3901M111.344 22.3901C109.642 21.6579 106.787 19.7788 108.981 18.1194" stroke="#3D8E53" stroke-width="0.50757"/>
<path d="M149.211 22.2395C153.82 16.1792 138.447 12.9362 135.484 21.0006C132.948 21.721 136.903 33.7615 141.023 37.2454C144.318 40.0325 146.761 35.7755 147.57 33.2986C147.344 34.3258 147.263 36.8526 148.749 38.7417C149.927 40.2391 151.92 38.735 153.297 37.21C153.472 37.722 153.973 38.4948 155.011 39.6876C157.878 42.9816 158.786 40.5448 158.749 38.3078C160.924 39.0273 163.702 40.046 165.416 38.0182C167.13 35.9905 164.503 32.7676 161.975 31.453C162.51 30.8193 163.764 30.3953 163.45 28.9439C163.135 27.4925 157.105 26.5773 154.26 26.9042C154.66 26.6833 155.49 25.752 155.604 23.7937C155.718 21.8353 151.743 22.5366 149.211 22.2395Z" fill="#3D8E53"/>
<path d="M135.484 21.0006C138.447 12.9362 153.82 16.1792 149.211 22.2395C151.743 22.5366 155.718 21.8353 155.604 23.7937C155.49 25.752 154.66 26.6833 154.26 26.9042C157.105 26.5773 163.135 27.4925 163.45 28.9439C163.764 30.3953 162.51 30.8193 161.975 31.453C164.503 32.7676 167.13 35.9905 165.416 38.0182C163.702 40.046 160.924 39.0273 158.749 38.3078C158.786 40.5448 157.878 42.9816 155.011 39.6876C152.144 36.3935 153.38 36.3025 154.225 36.062C153.019 37.7424 150.235 40.6309 148.749 38.7417C147.263 36.8526 147.344 34.3258 147.57 33.2986C146.761 35.7755 144.318 40.0325 141.023 37.2454C136.903 33.7615 132.948 21.721 135.484 21.0006ZM135.484 21.0006C133.817 18.4235 130.777 18.7176 127.697 20.3457" stroke="#3D8E53" stroke-width="0.634462"/>
<path d="M143.178 22.2219C143.848 22.6199 144.645 23.0938 145.512 23.6275M155.941 32.4325C154.546 29.9529 151.248 27.3803 148.118 25.2926M148.118 25.2926C149.164 26.744 150.891 29.693 149.436 29.8773M148.118 25.2926C147.219 24.693 146.334 24.1334 145.512 23.6275M145.512 23.6275C147.118 23.7017 149.992 23.3862 148.636 21.5304" stroke="#141B25" stroke-width="0.253785"/>
<path d="M43.3654 57.1005C41.1317 47.0318 58.4887 50.8213 58.1647 62.5889C60.4975 64.8086 51.2997 78.0676 45.5441 80.3734C40.9396 82.2181 40.1975 75.5545 40.402 71.9921C40.2032 73.4131 39.22 76.664 36.8767 78.299C35.0194 79.595 33.5818 76.6592 32.7942 74.0139C32.3955 74.574 31.549 75.2983 29.9655 76.2792C25.5926 78.9882 25.6778 75.426 26.6601 72.6032C24.0945 72.3984 20.7753 72.2632 19.8491 68.8057C18.9229 65.3483 23.0164 62.6064 26.2007 62.2371C25.9113 61.1566 24.7862 59.9729 25.7262 58.2911C26.6662 56.6094 33.3243 58.5493 36.1452 60.4284C35.8217 59.9417 35.3518 58.3317 36.0602 55.7855C36.7687 53.2394 40.6069 56.1753 43.3654 57.1005Z" fill="#3D8E53"/>
<path d="M58.1647 62.5889C58.4887 50.8213 41.1317 47.0318 43.3654 57.1005C40.6069 56.1753 36.7687 53.2394 36.0602 55.7855C35.3518 58.3317 35.8217 59.9417 36.1452 60.4284C33.3243 58.5493 26.6662 56.6094 25.7262 58.2911C24.7862 59.9729 25.9113 61.1566 26.2007 62.2371C23.0164 62.6064 18.9229 65.3483 19.8491 68.8057C20.7753 72.2632 24.0945 72.3984 26.6601 72.6032C25.6778 75.426 25.5926 78.9882 29.9655 76.2792C34.3384 73.5702 33.091 72.8185 32.3136 72.0783C32.8583 74.8331 34.5334 79.9341 36.8767 78.299C39.22 76.664 40.2032 73.4131 40.402 71.9921C40.1975 75.5545 40.9396 82.2181 45.5441 80.3734C51.2997 78.0676 60.4975 64.8086 58.1647 62.5889ZM58.1647 62.5889C60.9862 60.1729 67.258 56.2539 69.7726 59.9059" stroke="#3D8E53" stroke-width="0.634462"/>
<path d="M52.8477 61.7618C51.9832 61.9229 50.9539 62.1147 49.8266 62.3464M35.2621 68.165C37.7606 65.7335 42.2767 64.1623 46.4132 63.1206M46.4132 63.1206C44.7128 64.4263 41.6711 67.2834 43.1068 68.2663M46.4132 63.1206C47.6012 62.8215 48.758 62.566 49.8266 62.3464M49.8266 62.3464C48.1247 61.6142 45.2693 59.7351 47.4636 58.0757" stroke="#141B25" stroke-width="0.50757"/>
<path d="M29.4072 137.836C26.9137 126.597 46.2889 130.827 45.9273 143.963C48.5313 146.44 38.264 161.241 31.8392 163.815C26.6993 165.874 25.8709 158.436 26.0991 154.459C25.8773 156.045 24.7797 159.674 22.1639 161.5C20.0906 162.946 18.4859 159.669 17.6067 156.716C17.1616 157.341 16.2167 158.15 14.4491 159.245C9.5677 162.269 9.66288 158.292 10.7593 155.141C7.89544 154.913 4.19029 154.762 3.1564 150.902C2.12251 147.043 6.69202 143.982 10.2466 143.57C9.92346 142.364 8.66755 141.042 9.71687 139.165C10.7662 137.288 18.1984 139.453 21.3474 141.551C20.9862 141.008 20.4617 139.21 21.2525 136.368C22.0434 133.526 26.3279 136.803 29.4072 137.836Z" fill="#141B25"/>
<path d="M45.9273 143.963C46.2889 130.827 26.9137 126.597 29.4072 137.836C26.3279 136.803 22.0434 133.526 21.2525 136.368C20.4617 139.21 20.9862 141.008 21.3474 141.551C18.1984 139.453 10.7662 137.288 9.71687 139.165C8.66755 141.042 9.92346 142.364 10.2466 143.57C6.69202 143.982 2.12251 147.043 3.1564 150.902C4.19029 154.762 7.89544 154.913 10.7593 155.141C9.66288 158.292 9.5677 162.269 14.4491 159.245C19.3305 156.221 17.938 155.382 17.0702 154.555C17.6782 157.631 19.5482 163.325 22.1639 161.5C24.7797 159.674 25.8773 156.045 26.0991 154.459C25.8709 158.436 26.6993 165.874 31.8392 163.815C38.264 161.241 48.5313 146.44 45.9273 143.963ZM45.9273 143.963C49.0769 141.266 56.0778 136.891 58.8849 140.968" stroke="#3D8E53" stroke-width="0.634462"/>
<path d="M40.0009 143.037C39.0359 143.216 37.8869 143.43 36.6285 143.689M20.3706 150.184C23.1596 147.47 28.2007 145.716 32.8182 144.553M32.8182 144.553C30.9202 146.011 27.5247 149.2 29.1274 150.297M32.8182 144.553C34.1444 144.219 35.4356 143.934 36.6285 143.689M36.6285 143.689C34.7287 142.872 31.5414 140.774 33.9907 138.922" stroke="#3D8E53" stroke-width="0.126892"/>
<path d="M94.6781 79.812C92.1287 68.3556 111.939 72.6674 111.569 86.057C114.231 88.5825 103.734 103.669 97.1647 106.293C91.9095 108.392 91.0624 100.81 91.2958 96.7561C91.069 98.373 89.9468 102.072 87.2723 103.932C85.1525 105.407 83.5118 102.067 82.6129 99.0567C82.1578 99.6939 81.1916 100.518 79.3844 101.634C74.3935 104.717 74.4908 100.663 75.6118 97.4515C72.6837 97.2184 68.8954 97.0646 67.8383 93.1306C66.7812 89.1966 71.4533 86.0768 75.0875 85.6566C74.7572 84.4272 73.4731 83.0804 74.546 81.1668C75.6189 79.2532 83.2179 81.4606 86.4374 83.5986C86.0682 83.0448 85.5319 81.2129 86.3405 78.3158C87.1491 75.4188 91.5297 78.7593 94.6781 79.812Z" fill="#3D8E53"/>
<path d="M111.569 86.057C111.939 72.6674 92.1287 68.3556 94.6781 79.812C91.5297 78.7593 87.1491 75.4188 86.3405 78.3158C85.5319 81.2129 86.0682 83.0448 86.4374 83.5986C83.2179 81.4606 75.6189 79.2532 74.546 81.1668C73.4731 83.0804 74.7572 84.4272 75.0875 85.6566C71.4533 86.0768 66.7812 89.1966 67.8383 93.1306C68.8954 97.0646 72.6837 97.2184 75.6118 97.4515C74.4908 100.663 74.3935 104.717 79.3844 101.634C84.3753 98.5518 82.9516 97.6965 82.0644 96.8542C82.686 99.9888 84.5979 105.793 87.2723 103.932C89.9468 102.072 91.069 98.373 91.2958 96.7561C91.0624 100.81 91.9095 108.392 97.1647 106.293C103.734 103.669 114.231 88.5825 111.569 86.057ZM111.569 86.057C114.789 83.3079 121.947 78.8487 124.817 83.0042" stroke="#3D8E53" stroke-width="0.634462"/>
<path d="M105.505 85.1113C104.519 85.2947 103.344 85.5129 102.057 85.7765M85.4345 92.3972C88.286 89.6305 93.4403 87.8427 98.1614 86.6575M98.1614 86.6575C96.2208 88.1432 92.7491 91.394 94.3878 92.5125M98.1614 86.6575C99.5174 86.3171 100.838 86.0264 102.057 85.7765M102.057 85.7765C100.115 84.9435 96.8559 82.8053 99.3602 80.9172" stroke="#141B25" stroke-width="0.50757"/>
<path d="M196.018 197.234C207.811 196.106 196.325 176.6 183.794 181.459C180.409 179.487 170.058 195.621 170.031 203.442C170.01 209.699 177.501 208.064 181.249 206.465C179.804 207.244 176.723 209.665 175.963 213.114C175.36 215.847 179.134 216.467 182.318 216.413C181.885 217.107 181.467 218.403 181.086 220.686C180.035 226.992 183.834 225.537 186.454 223.279C187.77 226.298 189.331 230.252 193.449 230.056C197.567 229.861 198.772 223.88 197.811 219.898C199.098 219.837 200.852 220.745 202.262 218.972C203.672 217.199 198.742 209.901 195.515 207.211C196.177 207.416 198.111 207.372 200.55 205.55C202.989 203.728 198.191 200.212 196.018 197.234Z" fill="#3D8E53"/>
<path d="M183.794 181.459C196.325 176.6 207.811 196.106 196.018 197.234C198.191 200.212 202.989 203.728 200.55 205.55C198.111 207.372 196.177 207.416 195.515 207.211C198.742 209.901 203.672 217.199 202.262 218.972C200.852 220.745 199.098 219.837 197.811 219.898C198.772 223.88 197.567 229.861 193.449 230.056C189.331 230.252 187.77 226.298 186.454 223.279C183.834 225.537 180.035 226.992 181.086 220.686C182.137 214.381 183.479 215.601 184.607 216.258C181.409 216.647 175.202 216.562 175.963 213.114C176.723 209.665 179.804 207.244 181.249 206.465C177.501 208.064 170.01 209.699 170.031 203.442C170.058 195.621 180.409 179.487 183.794 181.459ZM183.794 181.459C185.191 177.137 186.735 168.081 181.729 166.433" stroke="#3D8E53" stroke-width="0.634462"/>
<path d="M186.951 187.564C187.146 188.669 187.379 189.983 187.611 191.432M187.56 211.216C189.112 207.278 188.877 201.232 188.233 195.845M188.233 195.845C187.553 198.392 185.775 203.148 184.104 201.788M188.233 195.845C188.049 194.298 187.83 192.805 187.611 191.432M187.611 191.432C189.125 193.207 192.367 195.94 193.217 192.662" stroke="#141B25" stroke-width="0.50757"/>
<path d="M231.996 153.196C230.655 143.48 214.874 153.652 219.335 163.85C217.816 166.718 231.552 174.725 238.039 174.478C243.228 174.281 241.615 168.14 240.159 165.095C240.856 166.264 242.969 168.728 245.855 169.239C248.143 169.643 248.527 166.5 248.373 163.868C248.963 164.202 250.053 164.504 251.959 164.74C257.225 165.392 255.887 162.3 253.925 160.211C256.383 159.019 259.608 157.591 259.305 154.191C259.001 150.792 253.999 150.001 250.73 150.933C250.635 149.871 251.328 148.388 249.809 147.283C248.29 146.178 242.407 150.507 240.287 153.269C240.435 152.714 240.332 151.116 238.737 149.161C237.142 147.206 234.391 151.296 231.996 153.196Z" fill="#141B25"/>
<path d="M219.335 163.85C214.874 153.652 230.655 143.48 231.996 153.196C234.391 151.296 237.142 147.206 238.737 149.161C240.332 151.116 240.435 152.714 240.287 153.269C242.407 150.507 248.29 146.178 249.809 147.283C251.328 148.388 250.635 149.871 250.73 150.933C253.999 150.001 259.001 150.792 259.305 154.191C259.608 157.591 256.383 159.019 253.925 160.211C255.887 162.3 257.225 165.392 251.959 164.74C246.694 164.088 247.659 162.936 248.165 161.98C248.598 164.612 248.741 169.749 245.855 169.239C242.969 168.728 240.856 166.264 240.159 165.095C241.615 168.14 243.228 174.281 238.039 174.478C231.552 174.725 217.816 166.718 219.335 163.85ZM219.335 163.85C215.702 162.843 208.139 161.878 206.944 166.075" stroke="#3D8E53" stroke-width="0.634462"/>
<path d="M224.292 161.032C225.201 160.833 226.283 160.595 227.476 160.354M243.886 159.714C240.566 158.566 235.56 158.969 231.115 159.686M231.115 159.686C233.251 160.161 237.256 161.469 236.186 162.898M231.115 159.686C229.838 159.893 228.607 160.125 227.476 160.354M227.476 160.354C228.897 159.04 231.051 156.264 228.303 155.674" stroke="#3D8E53" stroke-width="0.50757"/>
<path d="M230.693 82.5974C232.356 73.4861 215.198 77.9687 216.192 88.4303C213.983 90.5563 223.944 101.78 229.837 103.467C234.55 104.817 234.914 98.8336 234.507 95.6733C234.786 96.9265 235.956 99.7595 238.394 101.067C240.327 102.102 241.599 99.3956 242.237 96.9891C242.668 97.4625 243.556 98.0537 245.197 98.8265C249.728 100.961 249.44 97.793 248.297 95.3412C250.853 94.9951 254.168 94.663 254.898 91.5241C255.628 88.3852 251.375 86.2039 248.166 86.078C248.395 85.0971 249.453 83.971 248.417 82.5329C247.38 81.0948 240.826 83.2475 238.109 85.1012C238.406 84.647 238.784 83.1829 237.93 80.9601C237.076 78.7373 233.401 81.5973 230.693 82.5974Z" fill="#3D8E53"/>
<path d="M216.192 88.4303C215.198 77.9687 232.356 73.4861 230.693 82.5974C233.401 81.5973 237.076 78.7373 237.93 80.9601C238.784 83.1829 238.406 84.647 238.109 85.1012C240.826 83.2475 247.38 81.0948 248.417 82.5329C249.453 83.971 248.395 85.0971 248.166 86.078C251.375 86.2039 255.628 88.3852 254.898 91.5241C254.168 94.663 250.853 94.9951 248.297 95.3412C249.44 97.793 249.728 100.961 245.197 98.8265C240.666 96.6923 241.872 95.9432 242.608 95.2342C242.219 97.7229 240.833 102.374 238.394 101.067C235.956 99.7595 234.786 96.9265 234.507 95.6733C234.914 98.8336 234.55 104.817 229.837 103.467C223.944 101.78 213.983 90.5563 216.192 88.4303ZM216.192 88.4303C213.23 86.4581 206.729 83.3672 204.42 86.7808" stroke="#3D8E53" stroke-width="0.634462"/>
<path d="M221.458 87.3577C222.332 87.446 223.373 87.5512 224.515 87.6857M239.424 91.9398C236.785 89.9332 232.175 88.8217 227.976 88.1577M227.976 88.1577C229.752 89.2123 232.959 91.5633 231.578 92.5304M227.976 88.1577C226.769 87.967 225.597 87.8132 224.515 87.6857M224.515 87.6857C226.177 86.925 228.928 85.069 226.637 83.7308" stroke="#141B25" stroke-width="0.253785"/>
<path d="M192.447 51.2317C191.315 44.2884 180.179 51.8583 183.556 59.0925C182.518 61.1754 192.507 66.6757 197.154 66.3849C200.871 66.1523 199.607 61.778 198.51 59.62C199.029 60.4457 200.588 62.1759 202.666 62.4913C204.314 62.7413 204.534 60.4808 204.377 58.5964C204.806 58.8257 205.593 59.0229 206.964 59.1588C210.751 59.5342 209.737 57.3405 208.294 55.8766C210.035 54.9791 212.322 53.8987 212.045 51.4667C211.768 49.0347 208.168 48.555 205.84 49.2805C205.753 48.5205 206.224 47.4454 205.115 46.6797C204.007 45.9141 199.865 49.1209 198.393 51.1381C198.489 50.7378 198.387 49.5937 197.21 48.2201C196.032 46.8464 194.131 49.8274 192.447 51.2317Z" fill="#141B25"/>
<path d="M183.556 59.0925C180.179 51.8583 191.315 44.2884 192.447 51.2317C194.131 49.8274 196.032 46.8464 197.21 48.2201C198.387 49.5937 198.489 50.7378 198.393 51.1381C199.865 49.1209 204.007 45.9141 205.115 46.6797C206.224 47.4454 205.753 48.5205 205.84 49.2805C208.168 48.555 211.768 49.0347 212.045 51.4667C212.322 53.8987 210.035 54.9791 208.294 55.8766C209.737 57.3405 210.751 59.5342 206.964 59.1588C203.177 58.7834 203.849 57.9408 204.195 57.2463C204.552 59.126 204.745 62.8068 202.666 62.4913C200.588 62.1759 199.029 60.4457 198.51 59.62C199.607 61.778 200.871 66.1523 197.154 66.3849C192.507 66.6757 182.518 61.1754 183.556 59.0925ZM183.556 59.0925C180.934 58.434 175.494 57.8746 174.711 60.9046" stroke="#3D8E53" stroke-width="0.634462"/>
<path d="M187.054 56.9829C187.702 56.8238 188.474 56.6344 189.325 56.4404M201.08 55.6946C198.679 54.9295 195.097 55.306 191.922 55.8984M191.922 55.8984C193.462 56.2016 196.357 57.0687 195.615 58.112M191.922 55.8984C191.01 56.0686 190.132 56.2566 189.325 56.4404M189.325 56.4404C190.321 55.4735 191.817 53.4459 189.836 53.0706" stroke="#3D8E53" stroke-width="0.126892"/>
<path d="M72.691 169.071C74.8076 158.982 81.6088 139.793 89.773 131.226C92.009 128.88 94.1457 126.738 96.0747 124.948M102.695 119.882C101.106 120.595 98.7971 122.422 96.0747 124.948M96.0747 124.948L94.0752 147.567" stroke="#3D8E53" stroke-width="0.634462"/>
<path d="M101.186 147.056C98.803 146.082 95.0226 144.222 90.4662 148.003C89.5944 147.129 87.3607 146.683 85.6179 148.124C83.4395 149.926 82.2044 151.782 81.6256 152.985C81.0468 154.188 76.8813 167.111 87.9628 168.729C96.8279 170.024 102.945 167.494 104.582 165.83C106.848 164.203 110.049 161.683 109.406 157.118C108.762 152.553 105.303 145.729 101.186 147.056Z" fill="#F68561" stroke="#F68561" stroke-width="0.634462"/>
<path d="M92.6851 149.028C92.6853 151 93.4377 150.78 94.121 150.666C95.7062 150.12 95.4869 149.437 95.0768 148.755L93.7097 146.093L92.5479 143.977C92.5252 144.75 92.6849 146.98 92.6851 149.028Z" stroke="#1F2431" stroke-width="0.634462"/>
<path d="M92.6851 149.028C92.6853 151 93.4377 150.78 94.121 150.666C95.7062 150.12 95.4869 149.437 95.0768 148.755L93.7097 146.093L92.5479 143.977C92.5252 144.75 92.6849 146.98 92.6851 149.028Z" stroke="url(#paint0_linear_731_29654)" stroke-width="0.634462"/>
<path d="M92.4358 149.688C93.4211 150.635 93.8437 150.975 94.4195 150.59C95.639 149.441 95.1578 148.909 94.5028 148.455L92.1598 146.592L90.229 145.141C90.5271 145.856 90.9584 148.268 92.4358 149.688Z" stroke="#1E4E4E" stroke-width="0.634462"/>
<path d="M93.9954 150.485C92.5858 149.787 93.471 146.768 99.2749 143.883C98.5352 146.469 94.9797 151.105 93.9954 150.485Z" stroke="#1E4E4E" stroke-width="0.634462"/>
<path d="M91.7494 148.252C93.538 147.871 94.2763 149.84 94.227 150.657C92.4304 150.748 93.5975 149.693 92.2736 149.636C91.2145 149.591 90.8003 150.464 90.7256 150.907L90.1432 152.608L89.8363 151.599L89.7579 151.043C89.7527 150.423 89.9609 148.633 91.7494 148.252Z" stroke="#1F2431" stroke-width="0.634462"/>
<path d="M91.7494 148.252C93.538 147.871 94.2763 149.84 94.227 150.657C92.4304 150.748 93.5975 149.693 92.2736 149.636C91.2145 149.591 90.8003 150.464 90.7256 150.907L90.1432 152.608L89.8363 151.599L89.7579 151.043C89.7527 150.423 89.9609 148.633 91.7494 148.252Z" stroke="url(#paint1_linear_731_29654)" stroke-width="0.634462"/>
<path d="M95.4532 147.731C93.7383 147.843 93.6008 149.935 93.8643 150.708C95.5086 150.315 94.1733 149.612 95.3518 149.203C96.2946 148.876 97.2082 149.114 97.3942 149.52L97.9146 150.274L97.9067 149.241L97.8115 148.565C97.6499 147.967 97.1681 147.619 95.4532 147.731Z" stroke="#1F2431" stroke-width="0.634462"/>
<path d="M95.4532 147.731C93.7383 147.843 93.6008 149.935 93.8643 150.708C95.5086 150.315 94.1733 149.612 95.3518 149.203C96.2946 148.876 97.2082 149.114 97.3942 149.52L97.9146 150.274L97.9067 149.241L97.8115 148.565C97.6499 147.967 97.1681 147.619 95.4532 147.731Z" stroke="url(#paint2_linear_731_29654)" stroke-width="0.634462"/>
<path d="M83.8742 156.617C83.6686 159.154 84.3488 161.28 83.502 161.212C82.6552 161.143 80.602 158.906 80.8075 156.369C81.0131 153.831 82.713 151.898 84.2463 152.022C85.7796 152.146 84.0797 154.079 83.8742 156.617Z" fill="#D9D9D9"/>
<path d="M105.257 160.802C106.958 158.907 106.814 153.72 107.447 154.286C108.267 155.021 110.923 156.901 107.576 162.506C103.445 169.422 92.0298 170.056 90.8842 169.031C89.7387 168.005 100.024 167.745 105.257 160.802Z" fill="#8990A5"/>
<path d="M67.1691 162.896C69.6953 163.392 73.8777 163.916 75.6007 169.577C76.8104 169.326 78.9216 170.182 79.5832 172.343C80.4103 175.045 80.4195 177.273 80.2404 178.596C80.0612 179.919 76.4223 193 66.2751 188.262C58.1574 184.471 54.4416 178.996 53.9908 176.708C52.9949 174.104 51.7088 170.24 54.761 166.782C57.8131 163.323 64.4615 159.525 67.1691 162.896Z" fill="#F68561" stroke="#F68561" stroke-width="0.634462"/>
<path d="M73.8398 169.029C73.3487 170.939 72.6747 170.539 72.0411 170.259C70.6411 169.336 71.0235 168.729 71.5906 168.17L73.5775 165.931L75.2295 164.17C75.059 164.925 74.3495 167.045 73.8398 169.029Z" stroke="#1F2431" stroke-width="0.634462"/>
<path d="M73.8398 169.029C73.3487 170.939 72.6747 170.539 72.0411 170.259C70.6411 169.336 71.0235 168.729 71.5906 168.17L73.5775 165.931L75.2295 164.17C75.059 164.925 74.3495 167.045 73.8398 169.029Z" stroke="url(#paint3_linear_731_29654)" stroke-width="0.634462"/>
<path d="M73.0133 169.883C71.6688 170.132 71.1285 170.184 70.8595 169.546C70.4742 167.916 71.169 167.736 71.9659 167.717L74.9493 167.449L77.361 167.298C76.7185 167.731 75.0293 169.509 73.0133 169.883Z" stroke="#1E4E4E" stroke-width="0.634462"/>
<path d="M71.0023 169.7C72.5479 169.995 73.6693 167.054 70.7888 161.253C69.8141 163.759 69.843 169.6 71.0023 169.7Z" stroke="#1E4E4E" stroke-width="0.634462"/>
<path d="M74.3803 169.065C73.0964 167.764 71.395 169.003 70.9863 169.712C72.4369 170.775 72.0432 169.252 73.1802 169.933C74.0898 170.477 73.9546 171.434 73.7733 171.844L73.3225 173.585L74.1349 172.911L74.5066 172.49C74.8525 171.975 75.6642 170.366 74.3803 169.065Z" stroke="#1F2431" stroke-width="0.634462"/>
<path d="M74.3803 169.065C73.0964 167.764 71.395 169.003 70.9863 169.712C72.4369 170.775 72.0432 169.252 73.1802 169.933C74.0898 170.477 73.9546 171.434 73.7733 171.844L73.3225 173.585L74.1349 172.911L74.5066 172.49C74.8525 171.975 75.6642 170.366 74.3803 169.065Z" stroke="url(#paint4_linear_731_29654)" stroke-width="0.634462"/>
<path d="M71.5616 166.584C72.9324 167.62 71.8947 169.443 71.249 169.943C70.0922 168.711 71.5947 168.858 70.8355 167.869C70.2282 167.078 69.3338 166.775 68.955 167.012L68.1051 167.355L68.6805 166.497L69.1324 165.985C69.5968 165.574 70.1908 165.549 71.5616 166.584Z" stroke="#1F2431" stroke-width="0.634462"/>
<path d="M71.5616 166.584C72.9324 167.62 71.8947 169.443 71.249 169.943C70.0922 168.711 71.5947 168.858 70.8355 167.869C70.2282 167.078 69.3338 166.775 68.955 167.012L68.1051 167.355L68.6805 166.497L69.1324 165.985C69.5968 165.574 70.1908 165.549 71.5616 166.584Z" stroke="url(#paint5_linear_731_29654)" stroke-width="0.634462"/>
<path d="M76.3618 180.403C75.1356 182.635 73.3966 184.036 74.1417 184.445C74.8867 184.853 77.8336 184.113 79.0597 181.881C80.2858 179.649 79.9308 177.1 78.5819 176.361C77.2329 175.622 77.5879 178.171 76.3618 180.403Z" fill="#D9D9D9"/>
<path d="M56.1942 172.14C55.8176 169.622 58.7949 165.369 57.9545 165.495C56.8649 165.657 53.6111 165.768 53.3196 172.288C52.96 180.334 62.145 187.137 63.6667 186.91C65.1885 186.683 56.7412 180.813 56.1942 172.14Z" fill="#8990A5"/>
<path d="M62.411 128.8C64.9372 129.297 69.1197 129.821 70.8426 135.482C72.0523 135.231 74.1635 136.086 74.8252 138.248C75.6522 140.95 75.6615 143.178 75.4823 144.501C75.3032 145.824 71.6643 158.904 61.5171 154.166C53.3993 150.376 49.6835 144.901 49.2328 142.613C48.2368 140.009 46.9508 136.145 50.0029 132.686C53.0551 129.228 59.7034 125.43 62.411 128.8Z" fill="#F68561" stroke="#F68561" stroke-width="0.634462"/>
<path d="M69.0817 134.934C68.5907 136.845 67.9167 136.444 67.283 136.164C65.8831 135.242 66.2654 134.635 66.8326 134.076L68.8194 131.837L70.4715 130.076C70.3009 130.831 69.5915 132.951 69.0817 134.934Z" stroke="#1F2431" stroke-width="0.634462"/>
<path d="M69.0817 134.934C68.5907 136.845 67.9167 136.444 67.283 136.164C65.8831 135.242 66.2654 134.635 66.8326 134.076L68.8194 131.837L70.4715 130.076C70.3009 130.831 69.5915 132.951 69.0817 134.934Z" stroke="url(#paint6_linear_731_29654)" stroke-width="0.634462"/>
<path d="M68.2555 135.787C66.911 136.036 66.3707 136.088 66.1017 135.451C65.7164 133.82 66.4112 133.641 67.2081 133.622L70.1915 133.353L72.6032 133.203C71.9607 133.636 70.2715 135.413 68.2555 135.787Z" stroke="#1E4E4E" stroke-width="0.634462"/>
<path d="M66.2443 135.604C67.7899 135.899 68.9112 132.959 66.0308 127.157C65.0561 129.664 65.0849 135.504 66.2443 135.604Z" stroke="#1E4E4E" stroke-width="0.634462"/>
<path d="M69.6222 134.969C68.3384 133.668 66.637 134.907 66.2283 135.616C67.6788 136.679 67.2851 135.157 68.4221 135.837C69.3318 136.381 69.1965 137.338 69.0152 137.749L68.5645 139.49L69.3769 138.815L69.7485 138.394C70.0945 137.879 70.9061 136.27 69.6222 134.969Z" stroke="#1F2431" stroke-width="0.634462"/>
<path d="M69.6222 134.969C68.3384 133.668 66.637 134.907 66.2283 135.616C67.6788 136.679 67.2851 135.157 68.4221 135.837C69.3318 136.381 69.1965 137.338 69.0152 137.749L68.5645 139.49L69.3769 138.815L69.7485 138.394C70.0945 137.879 70.9061 136.27 69.6222 134.969Z" stroke="url(#paint7_linear_731_29654)" stroke-width="0.634462"/>
<path d="M66.8035 132.489C68.1743 133.524 67.1366 135.347 66.4909 135.848C65.3342 134.616 66.8367 134.763 66.0775 133.774C65.4701 132.983 64.5758 132.68 64.1969 132.916L63.347 133.26L63.9225 132.402L64.3743 131.89C64.8388 131.479 65.4327 131.453 66.8035 132.489Z" stroke="#1F2431" stroke-width="0.634462"/>
<path d="M66.8035 132.489C68.1743 133.524 67.1366 135.347 66.4909 135.848C65.3342 134.616 66.8367 134.763 66.0775 133.774C65.4701 132.983 64.5758 132.68 64.1969 132.916L63.347 133.26L63.9225 132.402L64.3743 131.89C64.8388 131.479 65.4327 131.453 66.8035 132.489Z" stroke="url(#paint8_linear_731_29654)" stroke-width="0.634462"/>
<path d="M71.6037 146.308C70.3776 148.54 68.6386 149.941 69.3836 150.349C70.1286 150.757 73.0755 150.018 74.3016 147.786C75.5278 145.554 75.1728 143.005 73.8238 142.266C72.4748 141.527 72.8298 144.076 71.6037 146.308Z" fill="#D9D9D9"/>
<path d="M51.4362 138.044C51.0595 135.526 54.0369 131.274 53.1964 131.4C52.1068 131.562 48.853 131.673 48.5616 138.193C48.202 146.239 57.3869 153.041 58.9087 152.814C60.4304 152.587 51.9832 146.718 51.4362 138.044Z" fill="#8990A5"/>
<path d="M179.238 132.448C174.996 124.728 167.791 110.552 154.247 104.833M139.007 97.7021C140.737 98.0363 143.417 99.1508 146.657 100.762C148.952 101.903 151.529 103.294 154.247 104.833M154.247 104.833L155.871 110.248L157.976 120.157M154.247 104.833C160.961 103.522 174.874 101.687 176.813 104.833" stroke="#3D8E53" stroke-width="0.634462"/>
<path d="M150.48 120.302C153.041 120.036 157.192 119.309 160.502 124.215C161.585 123.621 163.854 123.819 165.121 125.691C166.706 128.031 167.37 130.158 167.587 131.475C167.804 132.792 168.171 146.362 157.08 144.81C148.208 143.568 143.048 139.425 141.945 137.37C140.228 135.173 137.863 131.857 139.764 127.656C141.664 123.455 146.902 117.875 150.48 120.302Z" fill="#F68561" stroke="#F68561" stroke-width="0.634462"/>
<path d="M158.053 124.575C157.498 126.468 156.838 126.046 156.214 125.745C154.846 124.776 155.249 124.183 155.834 123.643L157.894 121.471L159.604 119.766C159.408 120.515 158.628 122.61 158.053 124.575Z" stroke="#1F2431" stroke-width="0.634462"/>
<path d="M158.053 124.575C157.498 126.468 156.838 126.046 156.214 125.745C154.846 124.776 155.249 124.183 155.834 123.643L157.894 121.471L159.604 119.766C159.408 120.515 158.628 122.61 158.053 124.575Z" stroke="url(#paint9_linear_731_29654)" stroke-width="0.634462"/>
<path d="M158.103 125.278C156.891 125.91 156.39 126.119 155.946 125.588C155.098 124.143 155.71 123.767 156.466 123.516L159.238 122.383L161.499 121.532C161.012 122.134 159.92 124.329 158.103 125.278Z" stroke="#1E4E4E" stroke-width="0.634462"/>
<path d="M156.385 125.607C157.934 125.332 157.933 122.186 153.173 117.791C153.157 120.48 155.266 125.926 156.385 125.607Z" stroke="#1E4E4E" stroke-width="0.634462"/>
<path d="M159.175 124.097C157.565 123.23 156.303 124.914 156.121 125.711C157.82 126.302 156.996 124.962 158.283 125.279C159.312 125.532 159.464 126.487 159.411 126.932L159.492 128.729L160.071 127.846L160.302 127.334C160.481 126.74 160.784 124.965 159.175 124.097Z" stroke="#1F2431" stroke-width="0.634462"/>
<path d="M159.175 124.097C157.565 123.23 156.303 124.914 156.121 125.711C157.82 126.302 156.996 124.962 158.283 125.279C159.312 125.532 159.464 126.487 159.411 126.932L159.492 128.729L160.071 127.846L160.302 127.334C160.481 126.74 160.784 124.965 159.175 124.097Z" stroke="url(#paint10_linear_731_29654)" stroke-width="0.634462"/>
<path d="M155.747 122.541C157.361 123.129 156.905 125.176 156.435 125.844C154.968 125.005 156.447 124.705 155.431 123.982C154.618 123.404 153.674 123.377 153.381 123.714L152.67 124.292L152.968 123.303L153.249 122.681C153.572 122.152 154.132 121.953 155.747 122.541Z" stroke="#1F2431" stroke-width="0.634462"/>
<path d="M155.747 122.541C157.361 123.129 156.905 125.176 156.435 125.844C154.968 125.005 156.447 124.705 155.431 123.982C154.618 123.404 153.674 123.377 153.381 123.714L152.67 124.292L152.968 123.303L153.249 122.681C153.572 122.152 154.132 121.953 155.747 122.541Z" stroke="url(#paint11_linear_731_29654)" stroke-width="0.634462"/>
<path d="M164.407 134.336C163.891 136.83 162.641 138.679 163.473 138.851C164.305 139.022 166.904 137.451 167.42 134.958C167.936 132.465 166.848 130.133 165.341 129.822C163.835 129.511 164.923 131.843 164.407 134.336Z" fill="#D9D9D9"/>
<path d="M142.696 132.353C141.596 130.056 143.192 125.118 142.426 125.485C141.432 125.96 138.355 127.02 139.992 133.337C142.013 141.134 152.791 144.942 154.178 144.278C155.566 143.615 145.768 140.483 142.696 132.353Z" fill="#8990A5"/>
<path d="M187.408 131.999C184.834 131.98 180.631 131.655 177.806 136.855C176.672 136.367 174.432 136.782 173.35 138.766C171.997 141.247 171.54 143.429 171.45 144.76C171.36 146.092 172.299 159.634 183.191 157.026C191.905 154.94 196.644 150.321 197.545 148.17C199.044 145.819 201.079 142.291 198.784 138.292C196.488 134.293 190.738 129.24 187.408 131.999Z" fill="#F68561" stroke="#F68561" stroke-width="0.634462"/>
<path d="M179.651 136.671C179.748 138.641 180.489 138.384 181.166 138.237C182.722 137.613 182.47 136.943 182.026 136.281L180.53 133.69L179.265 131.634C179.28 132.407 179.55 134.626 179.651 136.671Z" stroke="#1F2431" stroke-width="0.634462"/>
<path d="M179.651 136.671C179.748 138.641 180.489 138.384 181.166 138.237C182.722 137.613 182.47 136.943 182.026 136.281L180.53 133.69L179.265 131.634C179.28 132.407 179.55 134.626 179.651 136.671Z" stroke="url(#paint12_linear_731_29654)" stroke-width="0.634462"/>
<path d="M180.288 137.674C181.555 138.188 182.074 138.347 182.466 137.776C183.171 136.257 182.526 135.941 181.749 135.763L178.88 134.902L176.548 134.272C177.09 134.825 178.388 136.904 180.288 137.674Z" stroke="#1E4E4E" stroke-width="0.634462"/>
<path d="M182.288 137.892C180.714 137.871 180.206 134.766 184.193 129.66C184.645 132.311 183.444 138.026 182.288 137.892Z" stroke="#1E4E4E" stroke-width="0.634462"/>
<path d="M179.106 136.595C180.625 135.578 182.043 137.132 182.301 137.909C180.666 138.66 181.358 137.247 180.107 137.686C179.107 138.037 179.047 139.001 179.143 139.44L179.235 141.235L178.574 140.412L178.295 139.925C178.059 139.351 177.587 137.613 179.106 136.595Z" stroke="#1F2431" stroke-width="0.634462"/>
<path d="M179.106 136.595C180.625 135.578 182.043 137.132 182.301 137.909C180.666 138.66 181.358 137.247 180.107 137.686C179.107 138.037 179.047 139.001 179.143 139.44L179.235 141.235L178.574 140.412L178.295 139.925C178.059 139.351 177.587 137.613 179.106 136.595Z" stroke="url(#paint13_linear_731_29654)" stroke-width="0.634462"/>
<path d="M182.376 134.73C180.825 135.47 181.475 137.464 182.007 138.083C183.388 137.108 181.887 136.951 182.829 136.134C183.583 135.481 184.52 135.363 184.843 135.671L185.607 136.178L185.216 135.222L184.876 134.63C184.503 134.135 183.926 133.99 182.376 134.73Z" stroke="#1F2431" stroke-width="0.634462"/>
<path d="M182.376 134.73C180.825 135.47 181.475 137.464 182.007 138.083C183.388 137.108 181.887 136.951 182.829 136.134C183.583 135.481 184.52 135.363 184.843 135.671L185.607 136.178L185.216 135.222L184.876 134.63C184.503 134.135 183.926 133.99 182.376 134.73Z" stroke="url(#paint14_linear_731_29654)" stroke-width="0.634462"/>
<path d="M174.878 147.301C175.631 149.733 177.053 151.454 176.241 151.705C175.43 151.956 172.691 150.641 171.938 148.209C171.185 145.776 172.045 143.351 173.515 142.897C174.984 142.444 174.125 144.869 174.878 147.301Z" fill="#D9D9D9"/>
<path d="M196.315 143.241C197.189 140.85 195.126 136.088 195.925 136.38C196.959 136.757 200.125 137.518 199.101 143.962C197.838 151.916 187.474 156.739 186.029 156.212C184.583 155.685 194.037 151.628 196.315 143.241Z" fill="#8990A5"/>
<path d="M181.424 98.4697C179.517 100.197 176.205 102.801 177.655 108.538C176.489 108.946 175.122 110.766 175.672 112.959C176.36 115.699 177.503 117.612 178.34 118.653C179.177 119.693 189.053 129.02 195.296 119.733C200.291 112.304 200.645 105.7 199.849 103.508C199.357 100.764 198.462 96.792 194.061 95.4032C189.659 94.0144 182.002 94.1879 181.424 98.4697Z" fill="#F68561" stroke="#F68561" stroke-width="0.634462"/>
<path d="M178.886 107.155C180.294 108.538 180.665 107.847 181.063 107.281C181.785 105.769 181.144 105.447 180.369 105.26L177.511 104.367L175.186 103.71C175.722 104.269 177.425 105.719 178.886 107.155Z" stroke="#1F2431" stroke-width="0.634462"/>
<path d="M178.886 107.155C180.294 108.538 180.665 107.847 181.063 107.281C181.785 105.769 181.144 105.447 180.369 105.26L177.511 104.367L175.186 103.71C175.722 104.269 177.425 105.719 178.886 107.155Z" stroke="url(#paint15_linear_731_29654)" stroke-width="0.634462"/>
<path d="M180.036 107.46C181.316 106.981 181.806 106.747 181.707 106.062C181.195 104.467 180.507 104.672 179.814 105.066L177.12 106.374L174.977 107.488C175.75 107.527 178.116 108.179 180.036 107.46Z" stroke="#1E4E4E" stroke-width="0.634462"/>
<path d="M181.654 106.268C180.482 107.317 178.003 105.376 177.472 98.9234C179.603 100.568 182.595 105.584 181.654 106.268Z" stroke="#1E4E4E" stroke-width="0.634462"/>
<path d="M178.435 107.468C178.862 105.692 180.96 105.876 181.676 106.273C180.983 107.931 180.534 106.424 179.911 107.592C179.413 108.527 180.024 109.277 180.391 109.535L181.677 110.794L180.632 110.635L180.096 110.466C179.534 110.203 178.008 109.244 178.435 107.468Z" stroke="#1F2431" stroke-width="0.634462"/>
<path d="M178.435 107.468C178.862 105.692 180.96 105.876 181.676 106.273C180.983 107.931 180.534 106.424 179.911 107.592C179.413 108.527 180.024 109.277 180.391 109.535L181.677 110.794L180.632 110.635L180.096 110.466C179.534 110.203 178.008 109.244 178.435 107.468Z" stroke="url(#paint16_linear_731_29654)" stroke-width="0.634462"/>
<path d="M179.575 103.883C178.936 105.477 180.766 106.503 181.578 106.599C181.932 104.948 180.721 105.848 180.861 104.61C180.972 103.619 181.582 102.899 182.028 102.906L182.934 102.762L181.998 102.324L181.346 102.118C180.736 102.006 180.214 102.29 179.575 103.883Z" stroke="#1F2431" stroke-width="0.634462"/>
<path d="M179.575 103.883C178.936 105.477 180.766 106.503 181.578 106.599C181.932 104.948 180.721 105.848 180.861 104.61C180.972 103.619 181.582 102.899 182.028 102.906L182.934 102.762L181.998 102.324L181.346 102.118C180.736 102.006 180.214 102.29 179.575 103.883Z" stroke="url(#paint17_linear_731_29654)" stroke-width="0.634462"/>
<path d="M182.585 118.203C184.789 119.483 187.002 119.787 186.575 120.521C186.148 121.254 183.242 122.139 181.038 120.86C178.834 119.58 177.822 117.214 178.595 115.886C179.369 114.558 180.382 116.924 182.585 118.203Z" fill="#D9D9D9"/>
<path d="M195.601 100.715C194.623 98.3647 189.875 96.2574 190.66 95.9317C191.677 95.5094 194.522 93.9273 198.14 99.3609C202.605 106.066 198.253 116.626 196.832 117.216C195.411 117.805 199.614 108.426 195.601 100.715Z" fill="#8990A5"/>
<defs>
<linearGradient id="paint0_linear_731_29654" x1="94.6384" y1="150.736" x2="92.0999" y2="150.077" gradientUnits="userSpaceOnUse">
<stop stop-color="#1E4E4E"/>
<stop offset="1" stop-color="#1F2431"/>
</linearGradient>
<linearGradient id="paint1_linear_731_29654" x1="93.2856" y1="152.166" x2="90.0891" y2="150.582" gradientUnits="userSpaceOnUse">
<stop stop-color="#1E4E4E"/>
<stop offset="1" stop-color="#1F2431"/>
</linearGradient>
<linearGradient id="paint2_linear_731_29654" x1="94.9463" y1="150.692" x2="96.845" y2="148.382" gradientUnits="userSpaceOnUse">
<stop stop-color="#1E4E4E"/>
<stop offset="1" stop-color="#1F2431"/>
</linearGradient>
<linearGradient id="paint3_linear_731_29654" x1="71.5223" y1="170.198" x2="74.1457" y2="170.191" gradientUnits="userSpaceOnUse">
<stop stop-color="#1E4E4E"/>
<stop offset="1" stop-color="#1F2431"/>
</linearGradient>
<linearGradient id="paint4_linear_731_29654" x1="70.9414" y1="171.489" x2="74.4831" y2="171.927" gradientUnits="userSpaceOnUse">
<stop stop-color="#1E4E4E"/>
<stop offset="1" stop-color="#1F2431"/>
</linearGradient>
<linearGradient id="paint5_linear_731_29654" x1="70.3542" y1="169.335" x2="70.0382" y2="166.363" gradientUnits="userSpaceOnUse">
<stop stop-color="#1E4E4E"/>
<stop offset="1" stop-color="#1F2431"/>
</linearGradient>
<linearGradient id="paint6_linear_731_29654" x1="66.7643" y1="136.104" x2="69.3877" y2="136.097" gradientUnits="userSpaceOnUse">
<stop stop-color="#1E4E4E"/>
<stop offset="1" stop-color="#1F2431"/>
</linearGradient>
<linearGradient id="paint7_linear_731_29654" x1="66.1833" y1="137.394" x2="69.7251" y2="137.832" gradientUnits="userSpaceOnUse">
<stop stop-color="#1E4E4E"/>
<stop offset="1" stop-color="#1F2431"/>
</linearGradient>
<linearGradient id="paint8_linear_731_29654" x1="65.5962" y1="135.24" x2="65.2802" y2="132.268" gradientUnits="userSpaceOnUse">
<stop stop-color="#1E4E4E"/>
<stop offset="1" stop-color="#1F2431"/>
</linearGradient>
<linearGradient id="paint9_linear_731_29654" x1="155.698" y1="125.667" x2="158.32" y2="125.748" gradientUnits="userSpaceOnUse">
<stop stop-color="#1E4E4E"/>
<stop offset="1" stop-color="#1F2431"/>
</linearGradient>
<linearGradient id="paint10_linear_731_29654" x1="156.601" y1="127.424" x2="160.114" y2="126.801" gradientUnits="userSpaceOnUse">
<stop stop-color="#1E4E4E"/>
<stop offset="1" stop-color="#1F2431"/>
</linearGradient>
<linearGradient id="paint11_linear_731_29654" x1="155.401" y1="125.525" x2="154.227" y2="122.776" gradientUnits="userSpaceOnUse">
<stop stop-color="#1E4E4E"/>
<stop offset="1" stop-color="#1F2431"/>
</linearGradient>
<linearGradient id="paint12_linear_731_29654" x1="181.686" y1="138.281" x2="179.118" y2="137.748" gradientUnits="userSpaceOnUse">
<stop stop-color="#1E4E4E"/>
<stop offset="1" stop-color="#1F2431"/>
</linearGradient>
<linearGradient id="paint13_linear_731_29654" x1="181.988" y1="139.659" x2="178.431" y2="139.377" gradientUnits="userSpaceOnUse">
<stop stop-color="#1E4E4E"/>
<stop offset="1" stop-color="#1F2431"/>
</linearGradient>
<linearGradient id="paint14_linear_731_29654" x1="183.006" y1="137.667" x2="183.911" y2="134.819" gradientUnits="userSpaceOnUse">
<stop stop-color="#1E4E4E"/>
<stop offset="1" stop-color="#1F2431"/>
</linearGradient>
<linearGradient id="paint15_linear_731_29654" x1="181.476" y1="106.962" x2="179.227" y2="108.31" gradientUnits="userSpaceOnUse">
<stop stop-color="#1E4E4E"/>
<stop offset="1" stop-color="#1F2431"/>
</linearGradient>
<linearGradient id="paint16_linear_731_29654" x1="182.633" y1="107.772" x2="179.828" y2="109.975" gradientUnits="userSpaceOnUse">
<stop stop-color="#1E4E4E"/>
<stop offset="1" stop-color="#1F2431"/>
</linearGradient>
<linearGradient id="paint17_linear_731_29654" x1="182.03" y1="105.617" x2="180.769" y2="102.907" gradientUnits="userSpaceOnUse">
<stop stop-color="#1E4E4E"/>
<stop offset="1" stop-color="#1F2431"/>
</linearGradient>
</defs>
</svg>
