<svg width="143" height="112" viewBox="0 0 143 112" fill="none" xmlns="http://www.w3.org/2000/svg">
<path d="M80.1795 45.7674C67.9572 58.5581 47.1793 50.8837 1.95703 29.1395C39.8459 22.7442 80.1795 4.83721 80.1795 45.7674C80.1795 18.907 80.6681 6.11628 141.29 1C119.29 20.186 99.735 62.2259 80.1795 45.7674Z" fill="#F68561"/>
<path d="M80.1795 45.7674C67.9572 58.5581 47.1793 50.8837 1.95703 29.1395C39.8459 22.7442 80.1795 4.83721 80.1795 45.7674ZM80.1795 45.7674C80.1795 18.907 80.6681 6.11628 141.29 1C119.29 20.186 99.735 62.2259 80.1795 45.7674ZM80.1795 45.7674C87.7714 35.5349 108.29 17.6279 118.068 13.7907M80.1795 45.7674C74.8831 40.6512 47.4237 30.6744 28.8459 31.6977M80.1795 45.7674C77.7351 56 74.313 95.6512 80.1795 111" stroke="#F68561"/>
<path d="M85.0679 39.3729C91.4353 31.1869 108.645 16.8613 116.846 13.7915" stroke="#89E159" stroke-width="0.5"/>
<path d="M72.8447 41.9288C68.305 38.2271 44.7685 31.0088 28.8447 31.7492" stroke="#89E159" stroke-width="0.5"/>
</svg>
