<svg width="271" height="235" viewBox="0 0 271 235" fill="none" xmlns="http://www.w3.org/2000/svg">
<path d="M121.238 50.9525C110.792 61.399 92.1071 64.6201 53.4551 46.8611C77.3628 24.8363 121.238 17.5237 121.238 50.9525C121.238 29.0149 132.049 15.422 174.714 24.8358C155.91 40.5055 137.953 64.3945 121.238 50.9525Z" fill="#3D8E53"/>
<path d="M121.238 50.9525C110.792 61.399 92.1071 64.6201 53.4551 46.8611C77.3628 24.8363 121.238 17.5237 121.238 50.9525ZM121.238 50.9525C121.238 29.0149 132.049 15.422 174.714 24.8358C155.91 40.5055 137.953 64.3945 121.238 50.9525ZM121.238 50.9525C127.727 42.5953 145.265 27.9702 153.622 24.8363M121.238 50.9525C116.711 46.7739 94.0346 43.7798 78.1559 44.6155M121.238 50.9525C120.75 52.9036 120.49 64.1765 120.378 80.5999C120.011 134.525 121.238 217.282 121.238 234.596" stroke="#3D8E53" stroke-width="2"/>
<path d="M125.418 45.728C130.86 39.0423 147.495 33.649 154.505 31.1418" stroke="#89E159" stroke-width="0.5"/>
<path d="M114.97 47.8177C109.594 40.1228 91.6294 40.124 78.1562 44.6142" stroke="#89E159" stroke-width="0.5"/>
<path d="M191.034 111.643C177.675 103.755 179.204 91.7706 174.714 51.3507C201.659 60.3331 225.03 102.888 191.034 111.643C213.344 105.898 219.769 96.3125 237.588 147.911C216.729 132.892 181.742 132.161 191.034 111.643Z" fill="#3D8E53"/>
<path d="M191.034 111.643C177.675 103.755 179.204 91.7706 174.714 51.3507C201.659 60.3331 225.03 102.888 191.034 111.643ZM191.034 111.643C213.344 105.898 219.769 96.3125 237.588 147.911C216.729 132.892 181.742 132.161 191.034 111.643ZM191.034 111.643C201.233 116.053 220.698 130.058 226.074 137.736M191.034 111.643C194.098 105.945 196.238 79.9434 191.23 64.0144M191.034 111.643C188.922 111.658 145.261 106.322 117.692 139.483" stroke="#3D8E53"/>
<path d="M201.736 116.295C208.713 119.774 222.364 130.722 226.361 136.683" stroke="#89E159" stroke-width="0.5"/>
<path d="M196.517 106.398C198.402 101.589 190.613 82.8383 185.941 69.3157" stroke="#89E159" stroke-width="0.5"/>
<path d="M137.503 136.028C137.503 136.028 133.032 134.668 129.336 138.805C125.039 143.62 127.17 150.971 129.12 156.422C131.071 161.874 131.964 163.83 132.939 168.455C133.673 171.914 134.49 178.074 140.685 180.076C145.018 181.472 149.478 178.316 149.478 178.316C149.478 178.316 151.311 180.364 155.356 180.851C159.735 181.375 164.38 180.015 165.997 176.196C166.844 174.199 167.665 167.798 168.245 163.727C169.005 158.389 171.721 152.593 172.398 147.999C172.973 144.077 172.008 135.007 159.837 134.766C155.582 134.683 150.798 136.372 150.798 136.372C150.798 136.372 147.05 134.406 144.191 134.088C138.688 133.472 137.503 136.028 137.503 136.028Z" fill="#F68561"/>
<path d="M165.751 135.818C164.18 135.13 162.301 134.493 158.939 134.283C154.176 133.985 150.803 136.367 150.803 136.367C150.803 136.367 147.056 134.401 144.197 134.083C138.689 133.467 136.995 135.915 136.995 135.915C136.995 135.915 137.893 136.069 139.341 136.603C140.516 137.034 140.08 138.082 139.11 138.179C137.205 138.369 135.65 139.622 135.46 140.299C135.46 140.299 138.504 138.99 141.676 139.991C145.896 141.326 147.035 144.457 147.035 144.457C147.035 144.457 149.412 141.685 155.058 140.402C160.428 139.18 164.288 141.495 164.288 141.495C163.975 140.14 163.2 139.462 162.507 138.816C161.259 137.65 161.67 136.629 162.943 136.27C164.001 135.972 165.751 135.818 165.751 135.818Z" fill="#1E4E4E"/>
<path d="M136.733 123.293C136.78 125.746 138.648 126.886 139.505 126.937C141.24 127.035 142.529 124.93 145.763 128.036C147.077 129.299 147.59 131.095 147.549 132.882C147.534 133.472 147.677 135.679 146.641 136.172C146.317 136.326 146.102 136.444 145.095 136.059C143.971 135.628 142.97 136.696 142.97 136.696L144.9 138.898L149.679 140.448L154.474 139.493L157.246 137.055C157.246 137.055 155.957 136.054 154.838 136.454C154.233 136.67 153.062 136.316 153.057 135.607C153.036 134.114 153.098 132.692 152.821 131.203C152.359 128.744 151.312 126.393 149.633 124.525C147.226 121.845 143.781 120.454 140.286 119.889C137.416 119.433 136.687 120.87 136.733 123.293Z" fill="#3D8E53"/>
<path d="M147.939 122.975C145.737 121.291 143.027 120.331 140.28 119.889C139.356 119.741 138.658 119.792 138.135 120.002C139.202 120.028 141.271 120.552 144.613 122.856C146.717 124.304 150.875 129.504 147.416 134.878C147.323 135.325 147.159 135.73 146.882 135.987C147.739 135.602 149.412 134.283 149.792 130.772C150.193 127.055 149.31 124.602 147.939 122.975Z" fill="#89E159"/>
<path opacity="0.6" d="M145.557 156.746C145.516 158.691 145.829 163.034 147.041 169.22C148.072 174.486 147.025 178.31 145.655 180.02C147.872 179.419 149.474 178.321 149.474 178.321C149.474 178.321 150.044 176.206 150.08 174.045C150.126 171.447 149.043 166.232 147.775 162.095C146.882 159.189 146.615 154.806 146.574 152.342C146.574 152.336 145.629 153.23 145.557 156.746Z" fill="#8990A5"/>
<path opacity="0.75" d="M142.59 150.032C142.046 150.093 141.554 149.749 141.143 149.416C139.644 148.189 138.792 147.162 137.108 146.141C135.804 145.35 133.233 144.816 134.095 142.799C134.511 141.829 136.107 141.706 137.19 141.89C140.963 142.527 142.642 144.744 143.437 147.516C143.576 147.999 143.761 148.486 143.653 148.984C143.55 149.477 143.15 149.955 142.616 150.032L142.59 150.032ZM154.397 144.554C156.881 143.076 160.546 143.107 163.616 144.678C164.376 145.068 165.105 145.576 165.546 146.31C165.88 146.864 165.967 147.696 165.438 148.071C164.997 148.379 164.391 148.194 163.878 148.03C160.798 147.054 157.312 147.424 154.51 149.031C153.452 149.636 151.183 151.879 150.516 150.309C149.854 148.723 151.307 146.392 154.397 144.554Z" fill="#DBE2F9"/>
<g clip-path="url(#clip0_731_26602)">
<path d="M110.88 119.603C110.88 119.603 115.351 118.242 119.047 122.38C123.343 127.195 121.213 134.546 119.263 139.997C117.312 145.448 116.419 147.404 115.443 152.029C114.709 155.489 113.893 161.649 107.698 163.651C103.365 165.047 98.9044 161.89 98.9044 161.89C98.9044 161.89 97.0718 163.938 93.0268 164.426C88.6482 164.949 84.0027 163.589 82.3857 159.77C81.5388 157.773 80.7175 151.372 80.1374 147.301C79.3777 141.963 76.6622 136.168 75.9847 131.573C75.4097 127.652 76.3748 118.581 88.5456 118.34C92.801 118.258 97.5851 119.947 97.5851 119.947C97.5851 119.947 101.332 117.981 104.192 117.662C109.694 117.046 110.88 119.603 110.88 119.603Z" fill="#F68561"/>
<path d="M82.6319 119.392C84.2026 118.704 86.0814 118.068 89.4436 117.857C94.2072 117.56 97.5797 119.942 97.5797 119.942C97.5797 119.942 101.327 117.976 104.186 117.657C109.694 117.041 111.388 119.49 111.388 119.49C111.388 119.49 110.49 119.644 109.042 120.178C107.867 120.609 108.303 121.656 109.273 121.754C111.178 121.943 112.733 123.196 112.923 123.874C112.923 123.874 109.879 122.565 106.707 123.566C102.487 124.9 101.348 128.031 101.348 128.031C101.348 128.031 98.9708 125.26 93.3243 123.976C87.955 122.755 84.0948 125.07 84.0948 125.07C84.408 123.714 85.1831 123.037 85.8761 122.39C87.1234 121.225 86.7128 120.203 85.4397 119.844C84.3823 119.546 82.6319 119.392 82.6319 119.392Z" fill="#1E4E4E"/>
<path d="M111.876 103.463C113.929 105.241 109.735 110.461 108.878 110.512C107.143 110.609 105.854 108.505 102.62 111.61C101.306 112.873 100.793 114.67 100.834 116.456C100.849 117.047 100.706 119.254 101.743 119.747C102.066 119.901 102.282 120.019 103.288 119.634C104.412 119.202 105.413 120.27 105.413 120.27L103.483 122.472L98.7038 124.023L93.9094 123.068L91.1375 120.629C91.1375 120.629 92.4259 119.629 93.5449 120.029C94.1507 120.244 95.321 119.89 95.3262 119.182C95.3467 117.688 95.2851 116.266 95.5623 114.778C96.0243 112.319 97.0714 109.968 98.75 108.099C101.157 105.42 105.382 100.824 108.877 100.26C111.747 99.8028 111.922 101.04 111.876 103.463Z" fill="#3D8E53"/>
<path d="M100.444 106.549C102.646 104.865 105.356 103.905 108.102 103.464C109.026 103.315 109.724 103.366 110.248 103.577C109.18 103.603 107.112 104.126 103.77 106.431C101.665 107.878 97.5075 113.078 100.967 118.453C101.06 118.899 101.224 119.305 101.501 119.562C100.644 119.177 98.9704 117.857 98.5906 114.346C98.1902 110.63 99.0731 108.176 100.444 106.549Z" fill="#89E159"/>
<path opacity="0.6" d="M102.826 140.32C102.867 142.266 102.554 146.608 101.342 152.794C100.31 158.061 101.358 161.885 102.728 163.594C100.511 162.994 98.909 161.895 98.909 161.895C98.909 161.895 98.3392 159.78 98.3033 157.619C98.2571 155.022 99.3402 149.806 100.608 145.669C101.501 142.764 101.768 138.38 101.809 135.916C101.809 135.911 102.754 136.804 102.826 140.32Z" fill="#8990A5"/>
<path opacity="0.75" d="M105.792 133.606C106.336 133.668 106.829 133.324 107.24 132.99C108.739 131.763 109.591 130.737 111.275 129.715C112.578 128.925 115.15 128.391 114.288 126.373C113.872 125.403 112.276 125.28 111.192 125.465C107.42 126.101 105.741 128.319 104.945 131.091C104.807 131.573 104.622 132.061 104.73 132.559C104.832 133.052 105.233 133.529 105.767 133.606L105.792 133.606ZM93.986 128.129C91.5015 126.651 87.8364 126.681 84.7668 128.252C84.0071 128.642 83.2781 129.15 82.8367 129.884C82.503 130.439 82.4158 131.27 82.9445 131.645C83.3859 131.953 83.9917 131.768 84.505 131.604C87.5849 130.629 91.0703 130.998 93.8731 132.605C94.9305 133.211 97.1994 135.454 97.8667 133.883C98.5289 132.297 97.0762 129.967 93.986 128.129Z" fill="#DBE2F9"/>
</g>
<path d="M68.7581 92.9222C52.3319 76.4932 15.3729 80.6001 1 154.519C58.4917 156.573 91.3441 121.668 68.7581 92.9222Z" fill="#3D8E53"/>
<path d="M120.09 107.294C100.242 91.5518 91.3441 86.7621 68.7581 92.9222M68.7581 92.9222C52.3319 76.4932 15.3729 80.6001 1 154.519C58.4917 156.573 91.3441 121.668 68.7581 92.9222Z" stroke="#3D8E53"/>
<path d="M54.856 100.97C50.3599 102.965 35.6721 117.923 29.7851 130.209" stroke="#89E159" stroke-width="0.5"/>
<defs>
<clipPath id="clip0_731_26602">
<rect width="65.7048" height="65.7048" fill="white" transform="matrix(-1 -4.7057e-09 -4.7057e-09 1 132.408 101.134)"/>
</clipPath>
</defs>
</svg>
