<svg width="124" height="92" viewBox="0 0 124 92" fill="none" xmlns="http://www.w3.org/2000/svg">
<path d="M69.3686 37.6279C58.8422 48.093 40.9474 41.814 2 24.0233C34.6316 18.7907 69.3686 4.13953 69.3686 37.6279C69.3686 15.6512 69.7895 5.18605 122 1C103.053 16.6977 86.2107 51.0939 69.3686 37.6279Z" fill="#3D8E53"/>
<path d="M69.3686 37.6279C58.8422 48.093 40.9474 41.814 2 24.0233C34.6316 18.7907 69.3686 4.13953 69.3686 37.6279ZM69.3686 37.6279C69.3686 15.6512 69.7895 5.18605 122 1C103.053 16.6977 86.2107 51.0939 69.3686 37.6279ZM69.3686 37.6279C75.9071 29.2558 93.579 14.6047 102 11.4651M69.3686 37.6279C64.8071 33.4419 41.1579 25.2791 25.1579 26.1163M69.3686 37.6279C67.2634 46 64.3161 78.4419 69.3686 91" stroke="#3D8E53"/>
<path d="M73.5786 32.3958C79.0626 25.6981 93.8842 13.9772 100.947 11.4656" stroke="#89E159" stroke-width="0.5"/>
<path d="M63.052 34.4873C59.1422 31.4587 38.8715 25.5528 25.1572 26.1585" stroke="#89E159" stroke-width="0.5"/>
</svg>
