<svg width="125" height="120" viewBox="0 0 125 120" fill="none" xmlns="http://www.w3.org/2000/svg">
<path d="M54.6055 27.3028C52.2188 35.9365 64.5417 55.6366 68.9666 59.1923C73.072 61.1093 89.6924 68.0588 99.0972 67.5756C110.852 66.9718 111.486 56.2992 110.329 52.1028C113.078 50.5429 118.504 46.0083 118.215 40.3486C117.926 34.689 111.199 32.1964 106.497 32.4383C109.963 31.078 115.594 19.9852 104.816 13.3736C90.9445 4.86473 89.1536 11.3409 83.0582 16.6189C78.3925 8.34679 71.0064 7.07883 69.1848 8.11225C63.6866 11.2316 66.7974 16.7464 65.0057 23.222C60.1051 24.1833 56.1152 21.8418 54.6055 27.3028Z" fill="#3D8E53"/>
<path d="M56.0004 108.691L68.9666 59.1923M68.9666 59.1923C64.5417 55.6366 52.2188 35.9365 54.6055 27.3028C56.1152 21.8418 60.1051 24.1833 65.0057 23.2219C66.7974 16.7464 63.6866 11.2316 69.1848 8.11225C71.0064 7.07883 78.3925 8.34679 83.0582 16.6189C89.1536 11.3409 90.9445 4.86473 104.816 13.3736C115.594 19.9852 109.963 31.078 106.497 32.4383C111.199 32.1964 117.926 34.689 118.215 40.3486C118.504 46.0083 113.078 50.5429 110.329 52.1028C111.486 56.2992 110.852 66.9718 99.0972 67.5756C89.6924 68.0588 73.072 61.1093 68.9666 59.1923Z" stroke="#3D8E53"/>
<path d="M82.5459 62.9954C79.8488 65.0402 79.0361 73.8048 79.551 75.8943C80.3455 77.4175 83.7484 83.3404 86.6863 85.3645C90.3585 87.8944 92.9962 84.8323 93.6105 83.3039C94.7946 83.4691 97.4655 83.3575 98.6764 81.5895C99.8872 79.8215 98.4366 77.5206 96.9676 76.5086C98.3216 76.8993 102.558 74.8635 100.834 70.3898C98.6148 64.6323 96.5915 66.1661 93.5489 66.3467C94.0431 62.7838 92.1135 60.6989 91.329 60.5894C88.9609 60.2589 88.6315 62.6342 86.6081 64.1676C84.9145 63.3262 84.252 61.702 82.5459 62.9954Z" fill="#3D8E53"/>
<path d="M79.551 75.8943C79.0361 73.8048 79.8488 65.0402 82.5459 62.9954C84.252 61.702 84.9145 63.3262 86.6081 64.1676C88.6315 62.6342 88.9609 60.2589 91.329 60.5894C92.1135 60.6989 94.0431 62.7838 93.5489 66.3467C96.5915 66.1661 98.6148 64.6323 100.834 70.3898C102.558 74.8635 98.3216 76.8993 96.9676 76.5086C98.4366 77.5206 99.8872 79.8215 98.6764 81.5895C97.4655 83.3575 94.7946 83.4691 93.6105 83.3039C92.9962 84.8323 90.3585 87.8944 86.6863 85.3645C83.7484 83.3404 80.3455 77.4175 79.551 75.8943ZM79.551 75.8943C77.2702 75.4061 62.5816 105.531 55.9998 107.182" stroke="#3D8E53"/>
<path d="M72.3114 55.473L75.4064 19.139M72.3114 55.473L98.1224 20.8092M72.3114 55.473L105.453 41.4461M72.3114 55.473L99.3319 58.3407M72.3114 55.473L65.7292 37.369" stroke="#89E159" stroke-width="0.5"/>
<path d="M48.4407 36.7318C51.9238 42.0938 48.1938 57.8999 46.0743 61.1951C43.8013 63.3173 34.4195 71.3601 28.1316 72.9235C20.2723 74.8776 17.4891 67.7838 17.3191 64.7118C15.1664 64.209 10.5948 62.2314 9.52971 58.344C8.4646 54.4565 12.3326 51.418 15.4767 50.6365C12.8968 50.4128 6.73636 44.0391 12.3537 37.3992C19.5831 28.8539 22.1962 32.8758 27.3724 35.2218C28.6043 28.6871 33.1773 26.3446 34.6036 26.6777C38.9088 27.6831 38.0872 32.0397 40.7008 36.0611C44.1346 35.7265 46.2375 33.3403 48.4407 36.7318Z" fill="#3D8E53"/>
<path d="M55.9996 107.182L46.0743 61.1951M46.0743 61.1951C48.1938 57.8999 51.9238 42.0938 48.4407 36.7318C46.2375 33.3403 44.1346 35.7265 40.7008 36.0611C38.0872 32.0397 38.9088 27.6831 34.6036 26.6777C33.1773 26.3446 28.6043 28.6871 27.3724 35.2218C22.1962 32.8758 19.5831 28.8539 12.3537 37.3992C6.73636 44.0391 12.8968 50.4128 15.4767 50.6365C12.3326 51.418 8.4646 54.4565 9.52971 58.344C10.5948 62.2314 15.1664 64.209 17.3191 64.7118C17.4891 67.7838 20.2723 74.8776 28.1316 72.9235C34.4195 71.3601 43.8013 63.3173 46.0743 61.1951Z" stroke="#3D8E53"/>
<path d="M43.0512 59.3491L32.96 35.3873M43.0512 59.3491L18.4015 41.0832M43.0512 59.3491L18.1603 56.5197M43.0512 59.3491L25.9294 66.7205M43.0512 59.3491L43.3624 45.7768" stroke="#89E159" stroke-width="0.5"/>
</svg>
