<svg width="226" height="197" viewBox="0 0 226 197" fill="none" xmlns="http://www.w3.org/2000/svg">
<g filter="url(#filter0_f_1717_1500)">
<ellipse cx="113" cy="98.5" rx="63" ry="48.5" fill="#303600"/>
</g>
<path d="M49 80.38C52.0476 79.3813 59.7429 76.4996 66.1429 72.9616M49 80.38V82.8052L54.2857 85.5108M49 80.38L122.857 118.328M49 80.38H56.5714M66.1429 72.9616H86.7143M66.1429 72.9616L79 66.6227M66.1429 72.9616L61.3571 76.6708M66.1429 72.9616L66.1099 85.5108M66.1429 72.9616L71.4286 75.2394M86.7143 72.9616L100.571 87.7984M86.7143 72.9616L93.3229 69.8549M100.571 87.7984L108.456 84.0892M100.571 87.7984L94.7782 85.3018M100.571 87.7984V93.5048M100.571 87.7984L105.176 95.2167M115.714 112.193L122.857 118.328M115.714 112.193L122.857 108.879M115.714 112.193L110.445 103.705M115.714 112.193L110.445 109.359M122.857 118.328L130.143 114.7M122.857 118.328V120.61M175 92.3635L168.286 87.7984M175 92.3635L169.466 95.119M175 92.3635V94.0754L161.286 101.055M168.286 87.7984L163.367 90.0809M168.286 87.7984L152.429 63.4033M122.857 108.879L130.143 114.7M122.857 108.879L130.143 105.498M122.857 108.879L108.456 84.0892M130.143 114.7L137.571 111.001M137.571 111.001L130.143 105.498M137.571 111.001L145.571 107.017M130.143 105.498L138.714 101.521M130.143 105.498L116.341 80.38M138.714 101.521L145.571 107.017M138.714 101.521L146.571 97.8746M138.714 101.521L123.857 76.8441M145.571 107.017L152.429 103.603M152.429 103.603L146.571 97.8746M152.429 103.603L159.143 100.26M146.571 97.8746L152.429 95.1566M146.571 97.8746L131.143 72.9616M152.429 95.1566L159.143 100.26M152.429 95.1566L158.448 92.3635M152.429 95.1566L137.571 69.8549M159.143 100.26L163.932 97.8746M163.932 97.8746L158.448 92.3635M163.932 97.8746L166.699 96.4968M158.448 92.3635L163.367 90.0809M158.448 92.3635L143.571 67.5699M163.367 90.0809L169.466 95.119M163.367 90.0809L148.143 65.4194M169.466 95.119L166.699 96.4968M152.429 63.4033L140.429 47.7106M152.429 63.4033L148.143 65.4194M140.429 47.7106L122.857 45L119.143 46.8312M140.429 47.7106L135.286 50.1282M148.143 65.4194L143.571 67.5699M148.143 65.4194L135.286 50.1282M143.571 67.5699L137.571 69.8549M143.571 67.5699L130.143 52.5459M137.571 69.8549L131.143 72.9616M137.571 69.8549L123.857 55.5008M131.143 72.9616L123.857 76.8441M131.143 72.9616L116.341 59.0342M123.857 76.8441L116.341 80.38M123.857 76.8441L108.456 62.7408M116.341 80.38L108.456 84.0892M116.341 80.38L100.571 66.4474M108.456 84.0892L93.3229 69.8549M93.3229 69.8549L100.571 66.4474M93.3229 69.8549L79 66.6227M100.571 66.4474L108.456 62.7408M100.571 66.4474L86.7143 62.7408M108.456 62.7408L116.341 59.0342M108.456 62.7408L95 59.0342M116.341 59.0342L123.857 55.5008M116.341 59.0342L102.286 55.5008M123.857 55.5008L130.143 52.5459M123.857 55.5008L108.456 52.5459M130.143 52.5459L135.286 50.1282M130.143 52.5459L115.714 48.5216M135.286 50.1282L119.143 46.8312M119.143 46.8312L115.714 48.5216M115.714 48.5216L108.456 52.5459M108.456 52.5459L102.286 55.5008M102.286 55.5008L95 59.0342M95 59.0342L86.7143 62.7408M86.7143 62.7408L79 66.6227M122.857 120.61L121.214 119.77M122.857 120.61L127.998 117.995M56.5714 80.38L61.3571 76.6708M56.5714 80.38L61.3571 82.9543M100.571 104.048V93.5048M100.571 104.048L99.4286 103.433M100.571 104.048L105.176 106.525M100.571 93.5048L95 90.8731M93.3229 100.149V90.0809L95 90.8731M93.3229 100.149L94.2319 100.638M93.3229 100.149L88.9849 97.8154M94.2319 100.638L99.4286 103.433M94.2319 100.638V95.2167M99.4286 103.433V97.642M99.4286 96.5007V94.0754L94.2319 91.7929V94.0754M99.4286 96.5007L94.2319 94.0754M99.4286 96.5007V97.642M94.2319 94.0754V95.2167M99.4286 97.642L94.2319 95.2167M74.9472 90.2644V80.38L71.4286 78.7693M74.9472 90.2644L73.5714 89.5244M74.9472 90.2644L76.7363 91.2268M68.7143 86.9117V77.5267L71.4286 78.7693M68.7143 86.9117L69.8571 87.5265M68.7143 86.9117L66.1099 85.5108M69.8571 87.5265L73.5714 89.5244M69.8571 87.5265V83.0905M73.5714 89.5244V85.2305M73.5714 84.0892V81.3786L69.8571 79.8093V82.0919M73.5714 84.0892L69.8571 82.0919M73.5714 84.0892V85.2305M69.8571 82.0919V83.0905M73.5714 85.2305L69.8571 83.0905M166.699 96.4968V123.606L161.051 126.65M119.571 149V118.929M119.571 149L121.214 148.115M119.571 149L117.747 148.115M119.571 118.929L121.214 119.77M119.571 118.929L117.747 117.995M121.214 119.77V148.115M121.214 148.115L127.998 144.46M54.2857 85.5108V117.329L56.3443 118.328M54.2857 85.5108L56.5714 86.6808M56.5714 86.6808L56.3443 118.328M56.5714 86.6808L60.5 88.6917M56.3443 118.328L59.8571 120.032M117.747 148.115V117.995M117.747 148.115L111.31 144.992M117.747 117.995L111.31 114.7M107.429 143.109V115.903L104.084 114.243M107.429 143.109L105.429 142.139M107.429 143.109L111.31 144.992M62.2857 121.21V93.5048L64.4286 94.568M62.2857 121.21L64.4286 122.25L74.9472 127.352M62.2857 121.21L59.8571 120.032M74.9472 127.352L76.8571 128.279M74.9472 127.352V125.318M76.8571 128.279L93.3229 136.267M76.8571 128.279V126.65M93.3229 136.267L96.1429 137.635L105.429 142.139M93.3229 136.267V134.591M105.429 142.139V139.299M105.429 139.299V120.61L97.2857 135.539L105.429 139.299ZM74.9472 125.318V103.776L65.4579 120.61L74.9472 125.318ZM111.31 114.7V144.992M111.31 114.7L104.084 111.001M104.084 111.001V114.243M104.084 111.001L97.2857 107.521M104.084 114.243L97.2857 110.87M97.2857 107.521V110.87M97.2857 107.521L91.5714 104.596M97.2857 110.87L91.5714 108.035M91.5714 104.596V108.035M91.5714 104.596L85.5628 101.521M91.5714 108.035L85.5628 105.054M85.5628 101.521V105.054M85.5628 101.521L80.2857 98.8194M85.5628 105.054L80.1128 102.35M80.2857 98.8194L80.1128 102.35M80.2857 98.8194L74.9472 96.0868M80.1128 102.35L74.9472 99.7868M74.9472 96.0868V99.7868M74.9472 96.0868L64.4286 90.7026M74.9472 99.7868L68.6164 96.6458M68.7143 93.5048L68.6164 96.6458M68.6164 96.6458L64.4286 94.568M64.4286 90.7026V94.568M64.4286 90.7026L60.5 88.6917M60.5 88.6917L59.8571 120.032M61.3571 76.6708V82.9543M61.3571 82.9543L66.1099 85.5108M71.4286 75.2394V78.7693M71.4286 75.2394L76.7363 77.5267M76.7363 77.5267V91.2268M76.7363 77.5267L82.5714 80.0414M76.7363 91.2268L82.9477 94.568M82.5714 80.0414L82.9477 94.568M82.5714 80.0414L88.9849 82.8052M82.9477 94.568L88.9849 97.8154M88.9849 82.8052V97.8154M88.9849 82.8052L94.7782 85.3018M94.7782 85.3018L95 90.8731M105.176 95.2167V106.525M105.176 95.2167L110.445 103.705M105.176 106.525L110.445 109.359M110.445 103.705V109.359M127.998 117.995V144.46M127.998 117.995L135.286 114.286M127.998 144.46L135.286 140.533M135.286 114.286V140.533M135.286 114.286L141.997 110.87M135.286 140.533L142.617 136.583M141.997 110.87L142.617 136.583M141.997 110.87L148.578 107.521M142.617 136.583L148.578 133.37M148.578 107.521V133.37M148.578 107.521L155.403 104.048M148.578 133.37L155.403 129.693M155.403 104.048V129.693M155.403 104.048L161.286 101.055M155.403 129.693L161.051 126.65M161.286 101.055L161.051 126.65M76.8571 126.65V104.048L93.3229 112.193V134.591M76.8571 126.65L93.3229 134.591M64.4286 118.328V97.642L72.4286 102.35L64.4286 118.328ZM95 113.335V134.591L103.857 118.328L95 113.335ZM74.9472 75.2394H85.5628L93.3229 82.8052L74.9472 75.2394Z" stroke="#BFC6DC" stroke-width="0.5"/>
<defs>
<filter id="filter0_f_1717_1500" x="0" y="0" width="226" height="197" filterUnits="userSpaceOnUse" color-interpolation-filters="sRGB">
<feFlood flood-opacity="0" result="BackgroundImageFix"/>
<feBlend mode="normal" in="SourceGraphic" in2="BackgroundImageFix" result="shape"/>
<feGaussianBlur stdDeviation="25" result="effect1_foregroundBlur_1717_1500"/>
</filter>
</defs>
</svg>
