<svg width="66" height="44" viewBox="0 0 66 44" fill="none" xmlns="http://www.w3.org/2000/svg">
<path d="M13.5628 8.905C13.5488 9.22233 13.5325 9.54667 13.5138 9.878C13.4951 10.2047 13.4601 10.522 13.4088 10.83C13.3621 11.1333 13.2921 11.4203 13.1988 11.691C13.1055 11.9617 12.9771 12.1997 12.8138 12.405C12.6505 12.6057 12.4451 12.7667 12.1978 12.888C11.9551 13.0093 11.6565 13.0747 11.3018 13.084L11.2038 12.314C11.3718 12.2953 11.5188 12.2627 11.6448 12.216C11.7708 12.1693 11.8805 12.1087 11.9738 12.034C12.0671 11.9547 12.1488 11.859 12.2188 11.747C12.2888 11.6303 12.3495 11.495 12.4008 11.341C12.5268 10.977 12.6108 10.522 12.6528 9.976C12.6948 9.43 12.7158 8.821 12.7158 8.149H15.7468V13H14.8578V8.905H13.5628ZM18.1561 12.405C18.4174 12.405 18.6158 12.391 18.7511 12.363V11.425C18.7044 11.411 18.6368 11.397 18.5481 11.383C18.4594 11.369 18.3614 11.362 18.2541 11.362C18.1608 11.362 18.0651 11.369 17.9671 11.383C17.8738 11.397 17.7874 11.4227 17.7081 11.46C17.6334 11.4973 17.5728 11.551 17.5261 11.621C17.4794 11.6863 17.4561 11.7703 17.4561 11.873C17.4561 12.0737 17.5191 12.2137 17.6451 12.293C17.7711 12.3677 17.9414 12.405 18.1561 12.405ZM18.0861 9.248C18.3661 9.248 18.6018 9.283 18.7931 9.353C18.9844 9.423 19.1361 9.521 19.2481 9.647C19.3648 9.773 19.4464 9.927 19.4931 10.109C19.5444 10.2863 19.5701 10.4823 19.5701 10.697V12.916C19.4394 12.944 19.2411 12.9767 18.9751 13.014C18.7138 13.056 18.4174 13.077 18.0861 13.077C17.8668 13.077 17.6661 13.056 17.4841 13.014C17.3021 12.972 17.1458 12.9043 17.0151 12.811C16.8891 12.7177 16.7888 12.5963 16.7141 12.447C16.6441 12.2977 16.6091 12.1133 16.6091 11.894C16.6091 11.684 16.6488 11.5067 16.7281 11.362C16.8121 11.2173 16.9241 11.1007 17.0641 11.012C17.2041 10.9187 17.3651 10.8533 17.5471 10.816C17.7338 10.774 17.9274 10.753 18.1281 10.753C18.2214 10.753 18.3194 10.76 18.4221 10.774C18.5248 10.7833 18.6344 10.802 18.7511 10.83V10.69C18.7511 10.592 18.7394 10.4987 18.7161 10.41C18.6928 10.3213 18.6508 10.2443 18.5901 10.179C18.5341 10.109 18.4571 10.0553 18.3591 10.018C18.2658 9.98067 18.1468 9.962 18.0021 9.962C17.8061 9.962 17.6264 9.976 17.4631 10.004C17.2998 10.032 17.1668 10.0647 17.0641 10.102L16.9591 9.416C17.0664 9.37867 17.2228 9.34133 17.4281 9.304C17.6334 9.26667 17.8528 9.248 18.0861 9.248ZM23.7504 8.31C23.7037 8.31933 23.6524 8.32867 23.5964 8.338C23.545 8.34733 23.482 8.35667 23.4074 8.366C23.3327 8.37533 23.244 8.387 23.1414 8.401C23.0434 8.41033 22.929 8.422 22.7984 8.436C22.5977 8.45933 22.418 8.499 22.2594 8.555C22.1007 8.60633 21.963 8.68333 21.8464 8.786C21.7297 8.884 21.634 9.01 21.5594 9.164C21.4847 9.318 21.431 9.50467 21.3984 9.724C21.543 9.63067 21.6994 9.55833 21.8674 9.507C22.04 9.45567 22.208 9.43 22.3714 9.43C22.8567 9.43 23.2417 9.584 23.5264 9.892C23.811 10.2 23.9534 10.6457 23.9534 11.229C23.9534 11.509 23.9137 11.7633 23.8344 11.992C23.755 12.2207 23.6407 12.4167 23.4914 12.58C23.342 12.7433 23.1624 12.8717 22.9524 12.965C22.7424 13.0537 22.5044 13.098 22.2384 13.098C21.907 13.098 21.6294 13.0443 21.4054 12.937C21.1814 12.825 21.0017 12.6687 20.8664 12.468C20.731 12.2627 20.633 12.0177 20.5724 11.733C20.5117 11.4483 20.4814 11.131 20.4814 10.781C20.4814 10.3237 20.5187 9.92 20.5934 9.57C20.6727 9.21533 20.7987 8.912 20.9714 8.66C21.1487 8.408 21.3774 8.205 21.6574 8.051C21.942 7.89233 22.2874 7.78267 22.6934 7.722C22.9034 7.68933 23.0784 7.66367 23.2184 7.645C23.363 7.62633 23.5077 7.60067 23.6524 7.568L23.7504 8.31ZM21.3704 10.466C21.361 10.5267 21.3564 10.6013 21.3564 10.69C21.3564 10.774 21.3564 10.8533 21.3564 10.928C21.3564 11.138 21.3704 11.3317 21.3984 11.509C21.4264 11.6863 21.4754 11.838 21.5454 11.964C21.6154 12.09 21.7064 12.188 21.8184 12.258C21.9304 12.328 22.0704 12.363 22.2384 12.363C22.383 12.363 22.509 12.335 22.6164 12.279C22.7237 12.223 22.8124 12.1437 22.8824 12.041C22.9524 11.9383 23.0037 11.8193 23.0364 11.684C23.0737 11.544 23.0924 11.3923 23.0924 11.229C23.0924 11.089 23.076 10.956 23.0434 10.83C23.0154 10.6993 22.9664 10.585 22.8964 10.487C22.831 10.3843 22.7424 10.3027 22.6304 10.242C22.5184 10.1813 22.3807 10.151 22.2174 10.151C22.0587 10.151 21.9 10.179 21.7414 10.235C21.5874 10.291 21.4637 10.368 21.3704 10.466ZM28.143 11.166C28.143 11.4553 28.101 11.719 28.017 11.957C27.933 12.195 27.814 12.398 27.66 12.566C27.506 12.734 27.3193 12.8647 27.1 12.958C26.8853 13.0513 26.6473 13.098 26.386 13.098C26.1246 13.098 25.8866 13.0513 25.672 12.958C25.4573 12.8647 25.273 12.734 25.119 12.566C24.965 12.398 24.8436 12.195 24.755 11.957C24.671 11.719 24.629 11.4553 24.629 11.166C24.629 10.8767 24.671 10.6153 24.755 10.382C24.8436 10.144 24.965 9.941 25.119 9.773C25.2776 9.605 25.4643 9.47667 25.679 9.388C25.8936 9.29467 26.1293 9.248 26.386 9.248C26.6426 9.248 26.8783 9.29467 27.093 9.388C27.3123 9.47667 27.499 9.605 27.653 9.773C27.807 9.941 27.926 10.144 28.01 10.382C28.0986 10.6153 28.143 10.8767 28.143 11.166ZM27.275 11.166C27.275 10.802 27.1956 10.515 27.037 10.305C26.883 10.0903 26.666 9.983 26.386 9.983C26.106 9.983 25.8866 10.0903 25.728 10.305C25.574 10.515 25.497 10.802 25.497 11.166C25.497 11.5347 25.574 11.8263 25.728 12.041C25.8866 12.2557 26.106 12.363 26.386 12.363C26.666 12.363 26.883 12.2557 27.037 12.041C27.1956 11.8263 27.275 11.5347 27.275 11.166ZM31.4446 11.187C31.4446 10.809 31.3582 10.515 31.1856 10.305C31.0176 10.095 30.7446 9.99 30.3666 9.99C30.2872 9.99 30.2032 9.99467 30.1146 10.004C30.0306 10.0087 29.9466 10.0227 29.8626 10.046V12.139C29.9372 12.1903 30.0352 12.2393 30.1566 12.286C30.2826 12.328 30.4156 12.349 30.5556 12.349C30.8636 12.349 31.0876 12.244 31.2276 12.034C31.3722 11.824 31.4446 11.5417 31.4446 11.187ZM32.3126 11.173C32.3126 11.453 32.2752 11.7097 32.2006 11.943C32.1306 12.1763 32.0279 12.377 31.8926 12.545C31.7572 12.713 31.5869 12.8437 31.3816 12.937C31.1809 13.0303 30.9522 13.077 30.6956 13.077C30.5229 13.077 30.3642 13.056 30.2196 13.014C30.0749 12.972 29.9559 12.9253 29.8626 12.874V14.295H29.0156V9.458C29.1882 9.41133 29.4006 9.367 29.6526 9.325C29.9046 9.283 30.1706 9.262 30.4506 9.262C30.7399 9.262 30.9989 9.30633 31.2276 9.395C31.4562 9.48367 31.6499 9.612 31.8086 9.78C31.9719 9.94333 32.0956 10.144 32.1796 10.382C32.2682 10.6153 32.3126 10.879 32.3126 11.173ZM34.4735 12.405C34.7348 12.405 34.9332 12.391 35.0685 12.363V11.425C35.0218 11.411 34.9542 11.397 34.8655 11.383C34.7768 11.369 34.6788 11.362 34.5715 11.362C34.4782 11.362 34.3825 11.369 34.2845 11.383C34.1912 11.397 34.1048 11.4227 34.0255 11.46C33.9508 11.4973 33.8902 11.551 33.8435 11.621C33.7968 11.6863 33.7735 11.7703 33.7735 11.873C33.7735 12.0737 33.8365 12.2137 33.9625 12.293C34.0885 12.3677 34.2588 12.405 34.4735 12.405ZM34.4035 9.248C34.6835 9.248 34.9192 9.283 35.1105 9.353C35.3018 9.423 35.4535 9.521 35.5655 9.647C35.6822 9.773 35.7638 9.927 35.8105 10.109C35.8618 10.2863 35.8875 10.4823 35.8875 10.697V12.916C35.7568 12.944 35.5585 12.9767 35.2925 13.014C35.0312 13.056 34.7348 13.077 34.4035 13.077C34.1842 13.077 33.9835 13.056 33.8015 13.014C33.6195 12.972 33.4632 12.9043 33.3325 12.811C33.2065 12.7177 33.1062 12.5963 33.0315 12.447C32.9615 12.2977 32.9265 12.1133 32.9265 11.894C32.9265 11.684 32.9662 11.5067 33.0455 11.362C33.1295 11.2173 33.2415 11.1007 33.3815 11.012C33.5215 10.9187 33.6825 10.8533 33.8645 10.816C34.0512 10.774 34.2448 10.753 34.4455 10.753C34.5388 10.753 34.6368 10.76 34.7395 10.774C34.8422 10.7833 34.9518 10.802 35.0685 10.83V10.69C35.0685 10.592 35.0568 10.4987 35.0335 10.41C35.0102 10.3213 34.9682 10.2443 34.9075 10.179C34.8515 10.109 34.7745 10.0553 34.6765 10.018C34.5832 9.98067 34.4642 9.962 34.3195 9.962C34.1235 9.962 33.9438 9.976 33.7805 10.004C33.6172 10.032 33.4842 10.0647 33.3815 10.102L33.2765 9.416C33.3838 9.37867 33.5402 9.34133 33.7455 9.304C33.9508 9.26667 34.1702 9.248 34.4035 9.248ZM39.6827 10.046H38.4997V13H37.6527V10.046H36.4767V9.339H39.6827V10.046ZM43.6264 11.166C43.6264 11.4553 43.5844 11.719 43.5004 11.957C43.4164 12.195 43.2974 12.398 43.1434 12.566C42.9894 12.734 42.8027 12.8647 42.5834 12.958C42.3687 13.0513 42.1307 13.098 41.8694 13.098C41.608 13.098 41.37 13.0513 41.1554 12.958C40.9407 12.8647 40.7564 12.734 40.6024 12.566C40.4484 12.398 40.327 12.195 40.2384 11.957C40.1544 11.719 40.1124 11.4553 40.1124 11.166C40.1124 10.8767 40.1544 10.6153 40.2384 10.382C40.327 10.144 40.4484 9.941 40.6024 9.773C40.761 9.605 40.9477 9.47667 41.1624 9.388C41.377 9.29467 41.6127 9.248 41.8694 9.248C42.126 9.248 42.3617 9.29467 42.5764 9.388C42.7957 9.47667 42.9824 9.605 43.1364 9.773C43.2904 9.941 43.4094 10.144 43.4934 10.382C43.582 10.6153 43.6264 10.8767 43.6264 11.166ZM42.7584 11.166C42.7584 10.802 42.679 10.515 42.5204 10.305C42.3664 10.0903 42.1494 9.983 41.8694 9.983C41.5894 9.983 41.37 10.0903 41.2114 10.305C41.0574 10.515 40.9804 10.802 40.9804 11.166C40.9804 11.5347 41.0574 11.8263 41.2114 12.041C41.37 12.2557 41.5894 12.363 41.8694 12.363C42.1494 12.363 42.3664 12.2557 42.5204 12.041C42.679 11.8263 42.7584 11.5347 42.7584 11.166ZM46.928 11.187C46.928 10.809 46.8416 10.515 46.669 10.305C46.501 10.095 46.228 9.99 45.85 9.99C45.7706 9.99 45.6866 9.99467 45.598 10.004C45.514 10.0087 45.43 10.0227 45.346 10.046V12.139C45.4206 12.1903 45.5186 12.2393 45.64 12.286C45.766 12.328 45.899 12.349 46.039 12.349C46.347 12.349 46.571 12.244 46.711 12.034C46.8556 11.824 46.928 11.5417 46.928 11.187ZM47.796 11.173C47.796 11.453 47.7586 11.7097 47.684 11.943C47.614 12.1763 47.5113 12.377 47.376 12.545C47.2406 12.713 47.0703 12.8437 46.865 12.937C46.6643 13.0303 46.4356 13.077 46.179 13.077C46.0063 13.077 45.8476 13.056 45.703 13.014C45.5583 12.972 45.4393 12.9253 45.346 12.874V14.295H44.499V9.458C44.6716 9.41133 44.884 9.367 45.136 9.325C45.388 9.283 45.654 9.262 45.934 9.262C46.2233 9.262 46.4823 9.30633 46.711 9.395C46.9396 9.48367 47.1333 9.612 47.292 9.78C47.4553 9.94333 47.579 10.144 47.663 10.382C47.7516 10.6153 47.796 10.879 47.796 11.173ZM51.8749 9.339V13H51.0349C51.0349 12.734 51.0349 12.4703 51.0349 12.209C51.0395 11.9477 51.0419 11.705 51.0419 11.481C51.0465 11.257 51.0489 11.0633 51.0489 10.9C51.0535 10.732 51.0559 10.6083 51.0559 10.529C50.9159 10.711 50.7712 10.9117 50.6219 11.131C50.4725 11.3503 50.3232 11.5697 50.1739 11.789C50.0292 12.0083 49.8915 12.223 49.7609 12.433C49.6302 12.643 49.5159 12.832 49.4179 13H48.6689V9.339H49.5019C49.5019 9.60967 49.4995 9.86867 49.4949 10.116C49.4949 10.3587 49.4949 10.5803 49.4949 10.781C49.4949 10.9817 49.4925 11.1567 49.4879 11.306C49.4879 11.4553 49.4879 11.5697 49.4879 11.649C49.6185 11.4483 49.7539 11.243 49.8939 11.033C50.0339 10.8183 50.1739 10.6107 50.3139 10.41C50.4585 10.2047 50.6009 10.011 50.7409 9.829C50.8809 9.647 51.0162 9.48367 51.1469 9.339H51.8749ZM54.572 11.642C54.516 11.642 54.46 11.642 54.404 11.642C54.348 11.642 54.2943 11.6397 54.243 11.635C54.0937 11.859 53.956 12.09 53.83 12.328C53.704 12.5613 53.5873 12.7853 53.48 13H52.612C52.738 12.7107 52.878 12.433 53.032 12.167C53.186 11.901 53.3307 11.6747 53.466 11.488C53.2373 11.39 53.0693 11.2593 52.962 11.096C52.8593 10.928 52.808 10.732 52.808 10.508C52.808 10.3027 52.8453 10.123 52.92 9.969C52.9993 9.81033 53.109 9.67967 53.249 9.577C53.389 9.46967 53.557 9.39033 53.753 9.339C53.949 9.283 54.166 9.255 54.404 9.255C54.6793 9.255 54.9453 9.27133 55.202 9.304C55.4633 9.33667 55.6757 9.374 55.839 9.416V13H54.992V11.642H54.572ZM54.992 9.955C54.9407 9.94567 54.8613 9.93867 54.754 9.934C54.6467 9.92467 54.537 9.92 54.425 9.92C53.907 9.92 53.648 10.1113 53.648 10.494C53.648 10.5967 53.6667 10.683 53.704 10.753C53.746 10.8183 53.802 10.872 53.872 10.914C53.942 10.956 54.0237 10.9863 54.117 11.005C54.2103 11.019 54.3107 11.026 54.418 11.026H54.992V9.955Z" fill="#89E159"/>
<rect x="0.5" y="0.5" width="65" height="19" rx="3.5" stroke="#89E159"/>
<path d="M30 40.4664V19H35V40.4664C33.4545 41.4328 31.0227 40.8691 30 40.4664Z" fill="#89E159"/>
<path d="M26.4158 41.8202C25.4912 41.8201 23.5259 41.82 24.1043 44L40.2838 44.0012C41.7456 44.0013 40.6692 41.8212 39.7061 41.8211C38.7817 40.077 36.4318 39.2775 35.6614 39.6408C33.3502 36.3706 31.9052 39.0956 31.0387 38.5505C29.6521 37.6782 26.4159 39.6402 26.4158 41.8202L26.4158 41.8202Z" fill="#1E4E4E"/>
</svg>
