<svg width="132" height="88" viewBox="0 0 132 88" fill="none" xmlns="http://www.w3.org/2000/svg">
<rect x="1.5" y="1.5" width="129" height="38" rx="7" fill="#89E159"/>
<path d="M27.1256 17.31C27.0976 17.9447 27.0649 18.5933 27.0276 19.256C26.9902 19.9093 26.9202 20.544 26.8176 21.16C26.7242 21.7667 26.5842 22.3407 26.3976 22.882C26.2109 23.4233 25.9542 23.8993 25.6276 24.31C25.3009 24.7113 24.8902 25.0333 24.3956 25.276C23.9102 25.5187 23.3129 25.6493 22.6036 25.668L22.4076 24.128C22.7436 24.0907 23.0376 24.0253 23.2896 23.932C23.5416 23.8387 23.7609 23.7173 23.9476 23.568C24.1342 23.4093 24.2976 23.218 24.4376 22.994C24.5776 22.7607 24.6989 22.49 24.8016 22.182C25.0536 21.454 25.2216 20.544 25.3056 19.452C25.3896 18.36 25.4316 17.142 25.4316 15.798H31.4936V25.5H29.7156V17.31H27.1256ZM36.3122 24.31C36.8349 24.31 37.2315 24.282 37.5022 24.226V22.35C37.4089 22.322 37.2735 22.294 37.0962 22.266C36.9189 22.238 36.7229 22.224 36.5082 22.224C36.3215 22.224 36.1302 22.238 35.9342 22.266C35.7475 22.294 35.5749 22.3453 35.4162 22.42C35.2669 22.4947 35.1455 22.602 35.0522 22.742C34.9589 22.8727 34.9122 23.0407 34.9122 23.246C34.9122 23.6473 35.0382 23.9273 35.2902 24.086C35.5422 24.2353 35.8829 24.31 36.3122 24.31ZM36.1722 17.996C36.7322 17.996 37.2035 18.066 37.5862 18.206C37.9689 18.346 38.2722 18.542 38.4962 18.794C38.7295 19.046 38.8929 19.354 38.9862 19.718C39.0889 20.0727 39.1402 20.4647 39.1402 20.894V25.332C38.8789 25.388 38.4822 25.4533 37.9502 25.528C37.4275 25.612 36.8349 25.654 36.1722 25.654C35.7335 25.654 35.3322 25.612 34.9682 25.528C34.6042 25.444 34.2915 25.3087 34.0302 25.122C33.7782 24.9353 33.5775 24.6927 33.4282 24.394C33.2882 24.0953 33.2182 23.7267 33.2182 23.288C33.2182 22.868 33.2975 22.5133 33.4562 22.224C33.6242 21.9347 33.8482 21.7013 34.1282 21.524C34.4082 21.3373 34.7302 21.2067 35.0942 21.132C35.4675 21.048 35.8549 21.006 36.2562 21.006C36.4429 21.006 36.6389 21.02 36.8442 21.048C37.0495 21.0667 37.2689 21.104 37.5022 21.16V20.88C37.5022 20.684 37.4789 20.4973 37.4322 20.32C37.3855 20.1427 37.3015 19.9887 37.1802 19.858C37.0682 19.718 36.9142 19.6107 36.7182 19.536C36.5315 19.4613 36.2935 19.424 36.0042 19.424C35.6122 19.424 35.2529 19.452 34.9262 19.508C34.5995 19.564 34.3335 19.6293 34.1282 19.704L33.9182 18.332C34.1329 18.2573 34.4455 18.1827 34.8562 18.108C35.2669 18.0333 35.7055 17.996 36.1722 17.996ZM47.5007 16.12C47.4074 16.1387 47.3047 16.1573 47.1927 16.176C47.0901 16.1947 46.9641 16.2133 46.8147 16.232C46.6654 16.2507 46.4881 16.274 46.2827 16.302C46.0867 16.3207 45.8581 16.344 45.5967 16.372C45.1954 16.4187 44.8361 16.498 44.5187 16.61C44.2014 16.7127 43.9261 16.8667 43.6927 17.072C43.4594 17.268 43.2681 17.52 43.1187 17.828C42.9694 18.136 42.8621 18.5093 42.7967 18.948C43.0861 18.7613 43.3987 18.6167 43.7347 18.514C44.0801 18.4113 44.4161 18.36 44.7427 18.36C45.7134 18.36 46.4834 18.668 47.0527 19.284C47.6221 19.9 47.9067 20.7913 47.9067 21.958C47.9067 22.518 47.8274 23.0267 47.6687 23.484C47.5101 23.9413 47.2814 24.3333 46.9827 24.66C46.6841 24.9867 46.3247 25.2433 45.9047 25.43C45.4847 25.6073 45.0087 25.696 44.4767 25.696C43.8141 25.696 43.2587 25.5887 42.8107 25.374C42.3627 25.15 42.0034 24.8373 41.7327 24.436C41.4621 24.0253 41.2661 23.5353 41.1447 22.966C41.0234 22.3967 40.9627 21.762 40.9627 21.062C40.9627 20.1473 41.0374 19.34 41.1867 18.64C41.3454 17.9307 41.5974 17.324 41.9427 16.82C42.2974 16.316 42.7547 15.91 43.3147 15.602C43.8841 15.2847 44.5747 15.0653 45.3867 14.944C45.8067 14.8787 46.1567 14.8273 46.4367 14.79C46.7261 14.7527 47.0154 14.7013 47.3047 14.636L47.5007 16.12ZM42.7407 20.432C42.7221 20.5533 42.7127 20.7027 42.7127 20.88C42.7127 21.048 42.7127 21.2067 42.7127 21.356C42.7127 21.776 42.7407 22.1633 42.7967 22.518C42.8527 22.8727 42.9507 23.176 43.0907 23.428C43.2307 23.68 43.4127 23.876 43.6367 24.016C43.8607 24.156 44.1407 24.226 44.4767 24.226C44.7661 24.226 45.0181 24.17 45.2327 24.058C45.4474 23.946 45.6247 23.7873 45.7647 23.582C45.9047 23.3767 46.0074 23.1387 46.0727 22.868C46.1474 22.588 46.1847 22.2847 46.1847 21.958C46.1847 21.678 46.1521 21.412 46.0867 21.16C46.0307 20.8987 45.9327 20.67 45.7927 20.474C45.6621 20.2687 45.4847 20.1053 45.2607 19.984C45.0367 19.8627 44.7614 19.802 44.4347 19.802C44.1174 19.802 43.8001 19.858 43.4827 19.97C43.1747 20.082 42.9274 20.236 42.7407 20.432ZM56.2859 21.832C56.2859 22.4107 56.2019 22.938 56.0339 23.414C55.8659 23.89 55.6279 24.296 55.3199 24.632C55.0119 24.968 54.6386 25.2293 54.1999 25.416C53.7706 25.6027 53.2946 25.696 52.7719 25.696C52.2493 25.696 51.7733 25.6027 51.3439 25.416C50.9146 25.2293 50.5459 24.968 50.2379 24.632C49.9299 24.296 49.6873 23.89 49.5099 23.414C49.3419 22.938 49.2579 22.4107 49.2579 21.832C49.2579 21.2533 49.3419 20.7307 49.5099 20.264C49.6873 19.788 49.9299 19.382 50.2379 19.046C50.5553 18.71 50.9286 18.4533 51.3579 18.276C51.7873 18.0893 52.2586 17.996 52.7719 17.996C53.2853 17.996 53.7566 18.0893 54.1859 18.276C54.6246 18.4533 54.9979 18.71 55.3059 19.046C55.6139 19.382 55.8519 19.788 56.0199 20.264C56.1973 20.7307 56.2859 21.2533 56.2859 21.832ZM54.5499 21.832C54.5499 21.104 54.3913 20.53 54.0739 20.11C53.7659 19.6807 53.3319 19.466 52.7719 19.466C52.2119 19.466 51.7733 19.6807 51.4559 20.11C51.1479 20.53 50.9939 21.104 50.9939 21.832C50.9939 22.5693 51.1479 23.1527 51.4559 23.582C51.7733 24.0113 52.2119 24.226 52.7719 24.226C53.3319 24.226 53.7659 24.0113 54.0739 23.582C54.3913 23.1527 54.5499 22.5693 54.5499 21.832ZM62.8891 21.874C62.8891 21.118 62.7165 20.53 62.3711 20.11C62.0351 19.69 61.4891 19.48 60.7331 19.48C60.5745 19.48 60.4065 19.4893 60.2291 19.508C60.0611 19.5173 59.8931 19.5453 59.7251 19.592V23.778C59.8745 23.8807 60.0705 23.9787 60.3131 24.072C60.5651 24.156 60.8311 24.198 61.1111 24.198C61.7271 24.198 62.1751 23.988 62.4551 23.568C62.7445 23.148 62.8891 22.5833 62.8891 21.874ZM64.6251 21.846C64.6251 22.406 64.5505 22.9193 64.4011 23.386C64.2611 23.8527 64.0558 24.254 63.7851 24.59C63.5145 24.926 63.1738 25.1873 62.7631 25.374C62.3618 25.5607 61.9045 25.654 61.3911 25.654C61.0458 25.654 60.7285 25.612 60.4391 25.528C60.1498 25.444 59.9118 25.3507 59.7251 25.248V28.09H58.0311V18.416C58.3765 18.3227 58.8011 18.234 59.3051 18.15C59.8091 18.066 60.3411 18.024 60.9011 18.024C61.4798 18.024 61.9978 18.1127 62.4551 18.29C62.9125 18.4673 63.2998 18.724 63.6171 19.06C63.9438 19.3867 64.1911 19.788 64.3591 20.264C64.5365 20.7307 64.6251 21.258 64.6251 21.846ZM68.947 24.31C69.4696 24.31 69.8663 24.282 70.137 24.226V22.35C70.0436 22.322 69.9083 22.294 69.731 22.266C69.5536 22.238 69.3576 22.224 69.143 22.224C68.9563 22.224 68.765 22.238 68.569 22.266C68.3823 22.294 68.2096 22.3453 68.051 22.42C67.9016 22.4947 67.7803 22.602 67.687 22.742C67.5936 22.8727 67.547 23.0407 67.547 23.246C67.547 23.6473 67.673 23.9273 67.925 24.086C68.177 24.2353 68.5176 24.31 68.947 24.31ZM68.807 17.996C69.367 17.996 69.8383 18.066 70.221 18.206C70.6036 18.346 70.907 18.542 71.131 18.794C71.3643 19.046 71.5276 19.354 71.621 19.718C71.7236 20.0727 71.775 20.4647 71.775 20.894V25.332C71.5136 25.388 71.117 25.4533 70.585 25.528C70.0623 25.612 69.4696 25.654 68.807 25.654C68.3683 25.654 67.967 25.612 67.603 25.528C67.239 25.444 66.9263 25.3087 66.665 25.122C66.413 24.9353 66.2123 24.6927 66.063 24.394C65.923 24.0953 65.853 23.7267 65.853 23.288C65.853 22.868 65.9323 22.5133 66.091 22.224C66.259 21.9347 66.483 21.7013 66.763 21.524C67.043 21.3373 67.365 21.2067 67.729 21.132C68.1023 21.048 68.4896 21.006 68.891 21.006C69.0776 21.006 69.2736 21.02 69.479 21.048C69.6843 21.0667 69.9036 21.104 70.137 21.16V20.88C70.137 20.684 70.1136 20.4973 70.067 20.32C70.0203 20.1427 69.9363 19.9887 69.815 19.858C69.703 19.718 69.549 19.6107 69.353 19.536C69.1663 19.4613 68.9283 19.424 68.639 19.424C68.247 19.424 67.8876 19.452 67.561 19.508C67.2343 19.564 66.9683 19.6293 66.763 19.704L66.553 18.332C66.7676 18.2573 67.0803 18.1827 67.491 18.108C67.9016 18.0333 68.3403 17.996 68.807 17.996ZM79.3655 19.592H76.9995V25.5H75.3055V19.592H72.9535V18.178H79.3655V19.592ZM87.2527 21.832C87.2527 22.4107 87.1687 22.938 87.0007 23.414C86.8327 23.89 86.5947 24.296 86.2867 24.632C85.9787 24.968 85.6054 25.2293 85.1667 25.416C84.7374 25.6027 84.2614 25.696 83.7387 25.696C83.2161 25.696 82.7401 25.6027 82.3107 25.416C81.8814 25.2293 81.5127 24.968 81.2047 24.632C80.8967 24.296 80.6541 23.89 80.4767 23.414C80.3087 22.938 80.2247 22.4107 80.2247 21.832C80.2247 21.2533 80.3087 20.7307 80.4767 20.264C80.6541 19.788 80.8967 19.382 81.2047 19.046C81.5221 18.71 81.8954 18.4533 82.3247 18.276C82.7541 18.0893 83.2254 17.996 83.7387 17.996C84.2521 17.996 84.7234 18.0893 85.1527 18.276C85.5914 18.4533 85.9647 18.71 86.2727 19.046C86.5807 19.382 86.8187 19.788 86.9867 20.264C87.1641 20.7307 87.2527 21.2533 87.2527 21.832ZM85.5167 21.832C85.5167 21.104 85.3581 20.53 85.0407 20.11C84.7327 19.6807 84.2987 19.466 83.7387 19.466C83.1787 19.466 82.7401 19.6807 82.4227 20.11C82.1147 20.53 81.9607 21.104 81.9607 21.832C81.9607 22.5693 82.1147 23.1527 82.4227 23.582C82.7401 24.0113 83.1787 24.226 83.7387 24.226C84.2987 24.226 84.7327 24.0113 85.0407 23.582C85.3581 23.1527 85.5167 22.5693 85.5167 21.832ZM93.8559 21.874C93.8559 21.118 93.6833 20.53 93.3379 20.11C93.0019 19.69 92.4559 19.48 91.6999 19.48C91.5413 19.48 91.3733 19.4893 91.1959 19.508C91.0279 19.5173 90.8599 19.5453 90.6919 19.592V23.778C90.8413 23.8807 91.0373 23.9787 91.2799 24.072C91.5319 24.156 91.7979 24.198 92.0779 24.198C92.6939 24.198 93.1419 23.988 93.4219 23.568C93.7113 23.148 93.8559 22.5833 93.8559 21.874ZM95.5919 21.846C95.5919 22.406 95.5173 22.9193 95.3679 23.386C95.2279 23.8527 95.0226 24.254 94.7519 24.59C94.4813 24.926 94.1406 25.1873 93.7299 25.374C93.3286 25.5607 92.8713 25.654 92.3579 25.654C92.0126 25.654 91.6953 25.612 91.4059 25.528C91.1166 25.444 90.8786 25.3507 90.6919 25.248V28.09H88.9979V18.416C89.3433 18.3227 89.7679 18.234 90.2719 18.15C90.7759 18.066 91.3079 18.024 91.8679 18.024C92.4466 18.024 92.9646 18.1127 93.4219 18.29C93.8793 18.4673 94.2666 18.724 94.5839 19.06C94.9106 19.3867 95.1579 19.788 95.3259 20.264C95.5033 20.7307 95.5919 21.258 95.5919 21.846ZM103.75 18.178V25.5H102.07C102.07 24.968 102.07 24.4407 102.07 23.918C102.079 23.3953 102.084 22.91 102.084 22.462C102.093 22.014 102.098 21.6267 102.098 21.3C102.107 20.964 102.112 20.7167 102.112 20.558C101.832 20.922 101.542 21.3233 101.244 21.762C100.945 22.2007 100.646 22.6393 100.348 23.078C100.058 23.5167 99.7831 23.946 99.5218 24.366C99.2604 24.786 99.0318 25.164 98.8358 25.5H97.3378V18.178H99.0038C99.0038 18.7193 98.9991 19.2373 98.9898 19.732C98.9898 20.2173 98.9898 20.6607 98.9898 21.062C98.9898 21.4633 98.9851 21.8133 98.9758 22.112C98.9758 22.4107 98.9758 22.6393 98.9758 22.798C99.2371 22.3967 99.5078 21.986 99.7878 21.566C100.068 21.1367 100.348 20.7213 100.628 20.32C100.917 19.9093 101.202 19.522 101.482 19.158C101.762 18.794 102.032 18.4673 102.294 18.178H103.75ZM109.144 22.784C109.032 22.784 108.92 22.784 108.808 22.784C108.696 22.784 108.589 22.7793 108.486 22.77C108.187 23.218 107.912 23.68 107.66 24.156C107.408 24.6227 107.175 25.0707 106.96 25.5H105.224C105.476 24.9213 105.756 24.366 106.064 23.834C106.372 23.302 106.661 22.8493 106.932 22.476C106.475 22.28 106.139 22.0187 105.924 21.692C105.719 21.356 105.616 20.964 105.616 20.516C105.616 20.1053 105.691 19.746 105.84 19.438C105.999 19.1207 106.218 18.8593 106.498 18.654C106.778 18.4393 107.114 18.2807 107.506 18.178C107.898 18.066 108.332 18.01 108.808 18.01C109.359 18.01 109.891 18.0427 110.404 18.108C110.927 18.1733 111.351 18.248 111.678 18.332V25.5H109.984V22.784H109.144ZM109.984 19.41C109.881 19.3913 109.723 19.3773 109.508 19.368C109.293 19.3493 109.074 19.34 108.85 19.34C107.814 19.34 107.296 19.7227 107.296 20.488C107.296 20.6933 107.333 20.866 107.408 21.006C107.492 21.1367 107.604 21.244 107.744 21.328C107.884 21.412 108.047 21.4727 108.234 21.51C108.421 21.538 108.621 21.552 108.836 21.552H109.984V19.41Z" fill="#141B25"/>
<rect x="1.5" y="1.5" width="129" height="38" rx="7" stroke="#89E159" stroke-width="2"/>
<path d="M61 81.1145V39H71V81.1145C67.9091 83.0106 63.0455 81.9045 61 81.1145Z" fill="#89E159"/>
<path d="M53.6828 83.5532C51.8907 83.5531 48.081 83.5528 49.2021 87.8633L80.5651 87.8655C83.3987 87.8657 81.3121 83.5552 79.4453 83.5551C77.6533 80.1067 73.0984 78.5259 71.6048 79.2442C67.1249 72.7784 64.3238 78.1661 62.6442 77.0884C59.9562 75.3638 53.6831 79.2429 53.6828 83.5532L53.6828 83.5532Z" fill="#1E4E4E"/>
</svg>
