<svg width="44" height="44" viewBox="0 0 44 44" fill="none" xmlns="http://www.w3.org/2000/svg">
<path d="M17.9922 26.5918C18.3304 27.0655 18.5515 27.5958 18.6358 28.0434C18.678 28.2674 18.6836 28.4581 18.661 28.6045C18.6385 28.7501 18.5917 28.8335 18.5421 28.8794C18.3955 29.0151 18.0969 29.1049 17.724 29.0248C17.3619 28.9471 16.9617 28.7132 16.6401 28.2627C16.3121 27.8036 16.1434 27.271 16.1071 26.8141C16.0692 26.3353 16.1789 26.0252 16.3023 25.911C16.5883 25.6461 17.3096 25.636 17.9922 26.5918Z" fill="#141B25" stroke="#D2E68A" stroke-width="0.561111"/>
<path d="M19.8657 27.4318C20.0782 27.3172 20.2988 27.1897 20.5127 27.0661C20.5556 27.0413 20.5983 27.0167 20.6406 26.9924C20.8964 26.845 21.1385 26.7079 21.3551 26.6009C21.5759 26.4918 21.7488 26.4251 21.8702 26.4041C21.9224 26.3951 21.95 26.3965 21.9629 26.3989C22.0755 26.6032 22.0521 26.8611 21.8137 27.1954C21.5661 27.5426 21.1178 27.9137 20.5166 28.238C19.9204 28.5596 19.4088 28.6977 19.0375 28.706C18.6483 28.7147 18.4941 28.5858 18.4546 28.4909C18.4246 28.4188 18.433 28.3898 18.4386 28.3743C18.4493 28.3446 18.4847 28.2848 18.5962 28.1908C18.8246 27.998 19.2303 27.7745 19.8657 27.4318ZM21.9724 26.4022C21.9722 26.4025 21.9703 26.4019 21.9675 26.3999C21.9713 26.401 21.9727 26.402 21.9724 26.4022Z" fill="#141B25" stroke="#D2E68A" stroke-width="0.561111"/>
<path d="M23.7658 28.6127C23.5904 28.3368 23.3884 28.0553 23.1934 27.7879C23.1569 27.7378 23.1207 27.6883 23.0849 27.6394C22.9277 27.4245 22.7793 27.2216 22.6518 27.034C22.4925 26.7997 22.382 26.6123 22.3298 26.4755C22.3201 26.4502 22.3135 26.4292 22.3091 26.4123C22.3711 26.3703 22.4275 26.3597 22.4867 26.367C22.5713 26.3775 22.6848 26.4285 22.8338 26.5503C23.1351 26.7967 23.4946 27.2586 23.9421 27.9062C24.3858 28.5485 24.6973 29.0708 24.8559 29.4605C24.9358 29.6569 24.9667 29.7957 24.9689 29.8853C24.9706 29.9587 24.9543 29.9717 24.9497 29.9753C24.9494 29.9756 24.9492 29.9758 24.949 29.9759C24.8919 30.0264 24.8707 30.0249 24.8669 30.0246C24.8668 30.0246 24.8667 30.0246 24.8667 30.0246C24.856 30.024 24.8106 30.0162 24.7143 29.9278C24.5153 29.745 24.2332 29.3477 23.7658 28.6127Z" fill="#141B25" stroke="#D2E68A" stroke-width="0.561111"/>
<path d="M25.3861 30.3926C25.3416 30.3281 25.2895 30.2652 25.2471 30.214C25.2428 30.2088 25.2386 30.2036 25.2344 30.1986C25.2047 30.1626 25.1805 30.1328 25.161 30.1067C25.2253 30.0759 25.2931 30.0725 25.3627 30.0905C25.4669 30.1176 25.5689 30.1931 25.6367 30.2913C25.668 30.3365 25.6737 30.3624 25.6748 30.3697C25.6755 30.3744 25.6758 30.3783 25.6721 30.3884C25.6671 30.402 25.6548 30.4257 25.627 30.4599C25.5994 30.4937 25.5627 30.5304 25.5164 30.5713C25.5135 30.5678 25.5104 30.5641 25.5071 30.56C25.4751 30.5206 25.4379 30.4676 25.3861 30.3926Z" fill="#141B25" stroke="#D2E68A" stroke-width="0.561111"/>
<path d="M25.9245 30.583C25.8799 30.5186 25.8279 30.4557 25.7855 30.4044C25.7811 30.3992 25.7769 30.3941 25.7728 30.3891C25.743 30.3531 25.7189 30.3232 25.6993 30.2971C25.7636 30.2663 25.8315 30.2629 25.901 30.281C26.0052 30.308 26.1072 30.3835 26.1751 30.4817C26.2063 30.527 26.212 30.5528 26.2131 30.5601C26.2139 30.5648 26.2141 30.5687 26.2104 30.5788C26.2054 30.5924 26.1932 30.6161 26.1653 30.6503C26.1377 30.6841 26.101 30.7208 26.0547 30.7617C26.0518 30.7583 26.0487 30.7545 26.0454 30.7504C26.0134 30.711 25.9763 30.658 25.9245 30.583Z" fill="#141B25" stroke="#D2E68A" stroke-width="0.561111"/>
<path d="M26.8836 31.353C26.8117 31.2489 26.7306 31.1425 26.6553 31.0439C26.6481 31.0344 26.6409 31.025 26.6338 31.0157C26.5502 30.906 26.476 30.8075 26.4181 30.7188C26.4017 30.6936 26.3879 30.6712 26.3763 30.6514C26.4282 30.6573 26.5012 30.6809 26.6013 30.7412C26.7957 30.8581 27.0089 31.0702 27.1767 31.3131C27.3209 31.5219 27.3318 31.6847 27.3122 31.7948C27.3006 31.8598 27.276 31.9184 27.2463 31.9673C27.2293 31.9373 27.2113 31.9042 27.1906 31.8661C27.1717 31.8311 27.1504 31.792 27.1257 31.7473C27.0617 31.632 26.9832 31.497 26.8836 31.353ZM26.3249 30.5407C26.3249 30.5407 26.325 30.541 26.3251 30.5415L26.3249 30.5407Z" fill="#141B25" stroke="#D2E68A" stroke-width="0.561111"/>
<path d="M18.1293 26.8385C17.9495 27.4551 17.5987 27.984 17.213 28.3217C16.8129 28.672 16.4435 28.7636 16.2089 28.675C15.9681 28.5839 15.7513 28.3067 15.6442 27.8269C15.5391 27.3557 15.5573 26.7468 15.7402 26.1195C15.9163 25.5158 16.2842 25.0458 16.6894 24.7607C17.1053 24.4682 17.5105 24.4014 17.7683 24.4988C18.017 24.5928 18.1994 24.824 18.2772 25.2299C18.3563 25.6422 18.3158 26.1987 18.1293 26.8385Z" fill="#141B25" stroke="#D2E68A" stroke-width="0.561111"/>
<path d="M19.5443 27.1607C19.3645 27.7773 19.0137 28.3062 18.628 28.6439C18.2279 28.9943 17.8585 29.0859 17.6239 28.9972C17.3831 28.9062 17.1664 28.629 17.0593 28.1492C16.9541 27.678 16.9724 27.0691 17.1553 26.4418C17.3313 25.8381 17.6992 25.368 18.1044 25.083C18.5203 24.7904 18.9256 24.7236 19.1834 24.8211C19.432 24.9151 19.6144 25.1463 19.6923 25.5521C19.7714 25.9645 19.7309 26.521 19.5443 27.1607Z" fill="#141B25" stroke="#D2E68A" stroke-width="0.561111"/>
<path d="M21.0541 27.3756C20.8743 27.9922 20.5235 28.5211 20.1378 28.8588C19.7377 29.2091 19.3683 29.3008 19.1337 29.2121C18.8929 29.121 18.6761 28.8438 18.5691 28.364C18.4639 27.8929 18.4821 27.2839 18.665 26.6566C18.8411 26.0529 19.209 25.5829 19.6142 25.2978C20.0301 25.0053 20.4354 24.9385 20.6931 25.0359C20.9418 25.13 21.1242 25.3611 21.202 25.767C21.2811 26.1793 21.2406 26.7358 21.0541 27.3756Z" fill="#141B25" stroke="#D2E68A" stroke-width="0.561111"/>
<path d="M22.3751 27.483C22.1953 28.0996 21.8445 28.6285 21.4588 28.9662C21.0587 29.3165 20.6893 29.4082 20.4548 29.3195C20.2139 29.2284 19.9972 28.9513 19.8901 28.4714C19.7849 28.0003 19.8032 27.3913 19.9861 26.7641C20.1621 26.1603 20.53 25.6903 20.9352 25.4053C21.3512 25.1127 21.7564 25.0459 22.0142 25.1434C22.2628 25.2374 22.4452 25.4686 22.5231 25.8744C22.6022 26.2868 22.5617 26.8432 22.3751 27.483Z" fill="#141B25" stroke="#D2E68A" stroke-width="0.561111"/>
<path d="M24.0734 27.3756C23.8936 27.9922 23.5428 28.5211 23.1571 28.8588C22.757 29.2091 22.3876 29.3008 22.153 29.2121C21.9122 29.121 21.6954 28.8438 21.5883 28.364C21.4832 27.8929 21.5014 27.2839 21.6843 26.6566C21.8604 26.0529 22.2282 25.5829 22.6335 25.2978C23.0494 25.0053 23.4546 24.9385 23.7124 25.0359C23.9611 25.13 24.1435 25.3611 24.2213 25.767C24.3004 26.1793 24.2599 26.7358 24.0734 27.3756Z" fill="#141B25" stroke="#D2E68A" stroke-width="0.561111"/>
<path d="M25.4889 27.2682C25.3091 27.8848 24.9583 28.4136 24.5726 28.7514C24.1725 29.1017 23.8031 29.1933 23.5685 29.1047C23.3277 29.0136 23.1109 28.7364 23.0039 28.2566C22.8987 27.7854 22.917 27.1765 23.0999 26.5492C23.2759 25.9455 23.6438 25.4754 24.049 25.1904C24.4649 24.8979 24.8702 24.8311 25.1279 24.9285C25.3766 25.0225 25.559 25.2537 25.6368 25.6596C25.716 26.0719 25.6754 26.6284 25.4889 27.2682Z" fill="#141B25" stroke="#D2E68A" stroke-width="0.561111"/>
<path d="M26.6212 27.2682C26.4414 27.8848 26.0906 28.4136 25.7049 28.7514C25.3048 29.1017 24.9354 29.1933 24.7008 29.1047C24.46 29.0136 24.2433 28.7364 24.1362 28.2566C24.031 27.7854 24.0493 27.1765 24.2322 26.5492C24.4082 25.9455 24.7761 25.4754 25.1813 25.1904C25.5972 24.8979 26.0025 24.8311 26.2603 24.9285C26.5089 25.0225 26.6913 25.2537 26.7692 25.6596C26.8483 26.0719 26.8078 26.6284 26.6212 27.2682Z" fill="#141B25" stroke="#D2E68A" stroke-width="0.561111"/>
<path d="M27.8613 27.3831C27.7061 27.9154 27.4032 28.3719 27.071 28.6627C26.7245 28.9661 26.4143 29.0364 26.2271 28.9657C26.0336 28.8925 25.8498 28.6657 25.7577 28.2528C25.6674 27.8486 25.6826 27.3232 25.841 26.7802C25.9924 26.2607 26.3091 25.8563 26.6574 25.6113C27.0163 25.3588 27.3589 25.3065 27.5693 25.3861C27.7706 25.4622 27.9235 25.6498 27.9898 25.9955C28.0574 26.3478 28.0233 26.8275 27.8613 27.3831Z" fill="#141B25" stroke="#D2E68A" stroke-width="0.561111"/>
<path d="M28.4975 26.9961L28.5212 27.0441L28.5592 27.0812C28.7349 27.2528 28.8985 27.5775 28.9832 27.9895C29.0666 28.3951 29.0654 28.8479 28.9485 29.2487C28.9266 29.3239 28.9053 29.3564 28.8955 29.3681C28.8838 29.3661 28.8589 29.3593 28.8175 29.3374C28.7664 29.3104 28.7052 29.2687 28.6333 29.2118C28.5323 29.1319 28.4323 29.0408 28.3252 28.9433C28.2735 28.8962 28.2202 28.8477 28.1643 28.7981C28.0121 28.6631 27.8228 28.5038 27.6382 28.434C27.5647 28.4062 27.4981 28.3859 27.4421 28.3694C27.429 28.3656 27.4168 28.362 27.4055 28.3587C27.3655 28.3471 27.336 28.3385 27.3083 28.3289C27.2805 28.3192 27.266 28.3122 27.2594 28.3084C27.2536 28.2947 27.2371 28.244 27.2346 28.1121C27.2316 27.9605 27.2471 27.7403 27.2859 27.4147C27.457 26.8459 27.7272 26.6304 27.9231 26.5924C28.1001 26.558 28.3268 26.6506 28.4975 26.9961ZM27.2544 28.3051C27.2545 28.3051 27.2554 28.3056 27.2565 28.3067C27.2549 28.3056 27.2543 28.3051 27.2544 28.3051Z" fill="#141B25" stroke="#D2E68A" stroke-width="0.561111"/>
<path d="M28.116 20.8946L28.1468 20.8745L28.1717 20.8458C28.3478 20.6432 28.5217 20.441 28.6928 20.2421C29.3405 19.4891 29.9475 18.7833 30.4747 18.2799C30.8092 17.9605 31.0894 17.7447 31.3097 17.6464C31.5269 17.5496 31.614 17.5929 31.6648 17.6502C31.6929 17.6818 31.7024 17.7099 31.7025 17.7512C31.7026 17.8042 31.6857 17.889 31.6297 18.0129C31.5166 18.2633 31.288 18.5799 30.9656 18.9589C30.6475 19.3328 30.2577 19.7453 29.8378 20.1897L29.8358 20.1919C29.4172 20.6348 28.9708 21.1074 28.5494 21.5924C28.1297 22.0755 27.6444 22.7687 27.1367 23.4937L27.103 23.5419C26.5782 24.2913 26.0255 25.0783 25.4737 25.7446C24.9173 26.4164 24.3852 26.9362 23.9071 27.1786C23.6717 27.298 23.464 27.3425 23.281 27.3185C23.1025 27.295 22.9252 27.2038 22.7494 27.0058C22.6229 26.8632 22.5684 26.7107 22.5625 26.5426C22.5561 26.3652 22.6035 26.1495 22.717 25.8944C22.9456 25.3804 23.4059 24.787 24.0091 24.1689C25.2091 22.9392 26.8914 21.6947 28.116 20.8946Z" fill="#141B25" stroke="#D2E68A" stroke-width="0.561111"/>
<path d="M32.836 24.2604C32.6878 23.3661 32.4996 22.3876 32.3212 21.4597C32.199 20.8242 32.0814 20.2124 31.9843 19.6676C31.8634 18.9892 31.7739 18.4136 31.7409 18.0045C31.7261 17.8212 31.7239 17.6849 31.7314 17.593C31.7506 17.5944 31.7644 17.5978 31.7742 17.6014C31.7955 17.6092 31.8264 17.6278 31.8658 17.6886C31.9571 17.8295 32.0347 18.0979 32.129 18.5731C32.1668 18.7635 32.2061 18.9798 32.2503 19.2227C32.4189 20.1495 32.6577 21.4629 33.1492 23.1931C33.4868 25.0561 33.718 26.5489 33.8114 27.5857C33.8585 28.1079 33.869 28.4993 33.845 28.7595C33.8401 28.8124 33.8341 28.8565 33.8276 28.8928C33.7648 28.7867 33.6892 28.5958 33.6006 28.2719C33.4047 27.5561 33.1763 26.3143 32.836 24.2604Z" fill="#141B25" stroke="#D2E68A" stroke-width="0.561111"/>
<path d="M34.2338 29.3342C34.1923 29.2675 34.1431 29.2019 34.103 29.1484C34.0988 29.1429 34.0948 29.1375 34.0909 29.1323C34.0625 29.0943 34.0394 29.0627 34.0208 29.0352C34.0846 29.0096 34.1511 29.0101 34.219 29.0318C34.3222 29.0647 34.4216 29.1463 34.4857 29.2492C34.5154 29.2967 34.5202 29.3235 34.5211 29.3316C34.5217 29.3369 34.5216 29.3408 34.5177 29.3502C34.5123 29.3631 34.4994 29.3857 34.4703 29.4179C34.4419 29.4495 34.4044 29.4835 34.3572 29.5212C34.3543 29.5173 34.3511 29.5131 34.3477 29.5084C34.3173 29.4671 34.2823 29.4119 34.2338 29.3342Z" fill="#141B25" stroke="#D2E68A" stroke-width="0.561111"/>
<path d="M34.8937 29.7638C34.8522 29.6972 34.803 29.6316 34.7629 29.578C34.7588 29.5726 34.7547 29.5672 34.7508 29.562C34.7224 29.524 34.6993 29.4924 34.6807 29.4649C34.7445 29.4393 34.811 29.4398 34.8789 29.4615C34.9821 29.4944 35.0815 29.576 35.1457 29.6789C35.1753 29.7264 35.1802 29.7532 35.181 29.7613C35.1816 29.7666 35.1815 29.7705 35.1776 29.7799C35.1722 29.7928 35.1593 29.8153 35.1303 29.8476C35.1018 29.8792 35.0643 29.9132 35.0171 29.9509C35.0142 29.947 35.011 29.9428 35.0076 29.9381C34.9772 29.8967 34.9422 29.8416 34.8937 29.7638Z" fill="#141B25" stroke="#D2E68A" stroke-width="0.561111"/>
<path d="M35.5544 30.0861C35.5128 30.0194 35.4637 29.9539 35.4235 29.9003C35.4194 29.8948 35.4154 29.8895 35.4115 29.8843C35.383 29.8462 35.3599 29.8147 35.3413 29.7872C35.4051 29.7615 35.4716 29.762 35.5395 29.7837C35.6427 29.8167 35.7421 29.8982 35.8063 30.0011C35.8359 30.0486 35.8408 30.0755 35.8417 30.0835C35.8422 30.0889 35.8422 30.0928 35.8383 30.1022C35.8329 30.115 35.8199 30.1376 35.7909 30.1699C35.7625 30.2015 35.725 30.2355 35.6778 30.2731C35.6748 30.2693 35.6716 30.265 35.6682 30.2604C35.6378 30.219 35.6029 30.1639 35.5544 30.0861Z" fill="#141B25" stroke="#D2E68A" stroke-width="0.561111"/>
<path d="M36.121 30.4084C36.0795 30.3417 36.0303 30.2761 35.9902 30.2226C35.9861 30.2171 35.982 30.2117 35.9781 30.2065C35.9497 30.1685 35.9266 30.1369 35.908 30.1094C35.9718 30.0838 36.0383 30.0843 36.1062 30.106C36.2094 30.1389 36.3088 30.2205 36.373 30.3234C36.4026 30.3709 36.4074 30.3977 36.4083 30.4058C36.4089 30.4111 36.4088 30.415 36.4049 30.4244C36.3995 30.4373 36.3866 30.4599 36.3576 30.4921C36.3291 30.5237 36.2916 30.5577 36.2444 30.5954C36.2415 30.5916 36.2383 30.5873 36.2349 30.5827C36.2045 30.5413 36.1695 30.4861 36.121 30.4084Z" fill="#141B25" stroke="#D2E68A" stroke-width="0.561111"/>
<path d="M36.9078 31.0866C36.8406 30.9787 36.7642 30.8681 36.6932 30.7653C36.6864 30.7555 36.6797 30.7457 36.673 30.736C36.5942 30.6218 36.5243 30.5191 36.4701 30.427C36.4552 30.4017 36.4427 30.3791 36.4322 30.359C36.4831 30.3688 36.5536 30.3967 36.6483 30.4606C36.8379 30.5886 37.042 30.8129 37.1995 31.0653C37.3354 31.2832 37.3391 31.4476 37.3148 31.5564C37.3007 31.6192 37.2746 31.675 37.2439 31.7212C37.228 31.6899 37.2113 31.6554 37.192 31.6156C37.1746 31.5797 37.1551 31.5394 37.1323 31.4935C37.0734 31.3749 37.0009 31.2358 36.9078 31.0866ZM36.3841 30.2421C36.3841 30.2421 36.3842 30.2424 36.3842 30.243L36.3841 30.2421Z" fill="#141B25" stroke="#D2E68A" stroke-width="0.561111"/>
<path d="M32.3144 10.8242C32.577 11.1154 32.806 11.9625 32.1152 13.3994C31.4277 14.8297 29.8398 16.8117 26.5441 19.3173C25.2456 20.3046 24.0543 21.234 22.9814 22.071C21.7476 23.0336 20.6705 23.8739 19.7672 24.5393C18.9234 25.1609 18.2412 25.6224 17.733 25.8845C17.478 26.016 17.2766 26.0921 17.1262 26.1168C16.9747 26.1418 16.9067 26.1107 16.8731 26.0734C16.8398 26.0364 16.8123 25.9531 16.8499 25.7766C16.8864 25.6055 16.9775 25.3811 17.1258 25.1063C17.4216 24.5584 17.9277 23.8408 18.6082 23.0014C19.968 21.3245 22.0087 19.1806 24.4081 16.9688C26.8124 14.7523 28.6741 13.0455 30.0144 11.9808C30.6857 11.4476 31.2177 11.0824 31.6166 10.8937C31.8165 10.7992 31.9724 10.7542 32.0895 10.7486C32.2017 10.7432 32.2688 10.7737 32.3144 10.8242Z" fill="#141B25" stroke="#D2E68A" stroke-width="0.280556"/>
<path d="M17.8045 24.5081L18.3167 24.1433M21.4261 21.9287L21.0603 22.1892M21.4261 21.9287L21.5324 21.5277M21.4261 21.9287L21.8144 21.6725M18.319 23.6505C18.1397 23.8023 17.9582 23.9587 17.776 24.119L18.319 23.6505ZM18.319 23.6505L18.3672 23.3552M18.319 23.6505C18.4936 23.5027 18.6662 23.3592 18.8357 23.2204M18.319 23.6505L18.8357 23.2204M18.8357 23.2204L18.9123 22.8892M18.8357 23.2204C19.0636 23.0339 19.2859 22.8559 19.5 22.6878M19.5 22.6878L19.5753 22.4258M19.5 22.6878C19.7632 22.4812 20.0139 22.2894 20.247 22.1147M19.5 22.6878L20.247 22.1147M20.247 22.1147L20.2907 21.8141M20.247 22.1147C20.5141 21.9145 20.7582 21.7368 20.9716 21.5849M20.9716 21.5849C21.2534 21.3844 21.4817 21.229 21.6388 21.1267L21.7435 21.057M20.9716 21.5849L21.0062 21.2024M21.0603 22.1892L21.0974 21.9513M21.0603 22.1892L20.6944 22.4498M20.6944 22.4498L20.7566 22.2426M20.6944 22.4498L20.2555 22.7624M20.2555 22.7624L20.3322 22.5022M20.2555 22.7624L19.7067 23.1532M19.7067 23.1532L19.7962 22.9087M19.7067 23.1532L19.3409 23.4138M19.3409 23.4138L19.4399 23.11M19.3409 23.4138L18.8288 23.7786M18.8288 23.7786L18.8948 23.576M18.8288 23.7786L18.3167 24.1433M18.3167 24.1433L18.4362 23.8647M23.8985 20.297L23.7101 20.4214M23.7101 20.4214L23.8226 20.0897M23.7101 20.4214L23.4465 20.5953M23.4465 20.5953L23.5583 20.2625M23.4465 20.5953L22.9439 20.927M22.9439 20.927L23.0694 20.5887M22.9439 20.927L22.5795 21.1675M22.5795 21.1675L22.7027 20.8649M22.5795 21.1675L22.2027 21.4162M22.2027 21.4162L22.3548 21.065M22.2027 21.4162L21.8144 21.6725M21.8144 21.6725L21.9388 21.3347M24.2264 19.4037L24.5274 19.2033L24.9589 18.8281M24.2264 19.4037L24.3527 19.1096M24.2264 19.4037L23.5117 19.8797M23.5117 19.8797L23.6765 19.5632M23.5117 19.8797L22.9474 20.2554M22.9474 20.2554L23.0705 19.9527M22.9474 20.2554L22.2931 20.691M22.2931 20.691L22.4699 20.3571M22.2931 20.691L21.7435 21.057M21.7435 21.057L21.7799 20.773M17.79 23.9332L19.9773 21.9157M32.1659 10.6732L31.3265 11.4474M31.3265 11.4474L31.2506 11.2403M31.3265 11.4474L30.3892 12.3119M30.3892 12.3119L30.2584 11.9546M30.3892 12.3119L29.1578 13.4478M29.1578 13.4478L29.1468 13.0344M29.1578 13.4478L27.8636 14.6415M27.8636 14.6415L27.8909 14.205M27.8636 14.6415L26.9892 15.4481M26.9892 15.4481L26.9909 14.9416M26.9892 15.4481L25.4152 16.8999M25.4152 16.8999L25.4835 16.3199M25.4152 16.8999L24.121 18.0936M24.121 18.0936L24.1795 17.4867M24.121 18.0936L22.932 19.1904M22.932 19.1904L22.965 18.6426M22.932 19.1904L21.7775 20.2552M21.7775 20.2552L21.8554 19.7016M21.7775 20.2552L20.7766 21.1785M20.7766 21.1785L20.825 20.7075M20.7766 21.1785L19.9773 21.9157M19.9773 21.9157L20.0334 21.5314M32.5858 11.8199L32.2531 12.1335M32.2531 12.1335L32.1291 11.7949M32.2531 12.1335L31.3478 12.987M31.3478 12.987L31.2157 12.6262M31.3478 12.987L30.5113 13.7755M30.5113 13.7755L30.3892 13.4422M30.5113 13.7755L29.5944 14.6399M29.5944 14.6399L29.4606 14.2745M29.5944 14.6399L28.6552 15.5252M28.6552 15.5252L28.5181 15.1509M28.6552 15.5252L28.0465 16.0991M28.0465 16.0991L27.9065 15.7168M28.0465 16.0991L27.7421 16.386L27.4378 16.6729L26.2535 17.7025M25.6163 19.2379L28.0465 17.4234M25.6163 19.2379L25.2003 19.5632L25.1531 19.4835M25.6163 19.2379L25.1531 19.4835M25.6163 19.2379L25.7832 19.1096M26.8907 18.2578L27.2958 17.9462L28.0465 17.4234M26.8907 18.2578L26.864 17.9171M26.8907 18.2578L26.2535 18.7478M26.2535 18.7478L26.2415 18.3894M26.2535 18.7478L25.7832 19.1096M26.864 16.6729L26.8907 17.0474L26.2535 17.7025M26.2535 17.7025L26.191 17.4234M26.2535 17.7025L25.3905 18.4529M25.3905 18.4529L25.2946 18.0936M25.3905 18.4529L24.9589 18.8281M24.9589 18.8281L24.9589 18.5515M28.0465 17.4234L27.9065 17.1548M25.1059 19.4037L25.1531 19.4835M25.7192 18.8281L25.7832 19.1096" stroke="#D2E68A" stroke-width="0.280556"/>
<path d="M36.8136 16.2924C36.9852 16.8441 36.8801 18.0241 35.661 19.3641C34.4421 20.7039 32.1134 22.1955 27.8682 23.3388C26.1937 23.7898 24.6493 24.2322 23.2587 24.6305C21.6599 25.0885 20.2644 25.4882 19.1081 25.7758C18.0281 26.0445 17.1714 26.2113 16.564 26.2365C16.2597 26.2491 16.029 26.2256 15.8673 26.1685C15.7087 26.1125 15.6292 26.0296 15.5975 25.9276C15.5661 25.8267 15.5832 25.6883 15.6842 25.4993C15.785 25.3108 15.9599 25.0906 16.21 24.8429C16.7095 24.3483 17.4835 23.7686 18.4789 23.1414C20.4676 21.888 23.3154 20.4598 26.5502 19.1558C29.793 17.8486 32.299 16.8485 34.0423 16.328C34.9154 16.0673 35.5846 15.931 36.0542 15.932C36.5284 15.9329 36.7447 16.0708 36.8136 16.2924Z" fill="#141B25" stroke="#D2E68A" stroke-width="0.280556"/>
<path d="M17.1247 24.5576L17.7757 24.4098M21.7282 23.5122L21.2632 23.6178M21.7282 23.5122L21.9835 23.0859M21.7282 23.5122L22.2143 23.4248M17.9601 23.8118C17.7231 23.8929 17.4825 23.9783 17.2396 24.068L17.9601 23.8118ZM17.9601 23.8118L18.1176 23.4805M17.9601 23.8118C18.1906 23.7329 18.4176 23.658 18.6397 23.5871M17.9601 23.8118L18.6397 23.5871M18.6397 23.5871L18.8392 23.2286M18.6397 23.5871C18.9384 23.4919 19.2282 23.4039 19.5062 23.3231M19.5062 23.3231L19.6788 23.0478M19.5062 23.3231C19.8478 23.2238 20.1713 23.1352 20.4709 23.0574M19.5062 23.3231L20.4709 23.0574M20.4709 23.0574L20.6259 22.7171M20.4709 23.0574C20.8141 22.9682 21.1258 22.893 21.3969 22.8316M21.3969 22.8316C21.7551 22.7505 22.0426 22.6934 22.2388 22.6597L22.3702 22.6353M21.3969 22.8316L21.5731 22.3864M21.2632 23.6178L21.3885 23.3499M21.2632 23.6178L20.7982 23.7234M20.7982 23.7234L20.9374 23.5074M20.7982 23.7234L20.2402 23.8501M20.2402 23.8501L20.4136 23.5779M20.2402 23.8501L19.5427 24.0085M19.5427 24.0085L19.7232 23.7627M19.5427 24.0085L19.0777 24.1141M19.0777 24.1141L19.2897 23.8017M19.0777 24.1141L18.4267 24.262M18.4267 24.262L18.568 24.0537M18.4267 24.262L17.7757 24.4098M17.7757 24.4098L17.9991 24.14M24.8233 22.9557L24.5875 22.9981M24.5875 22.9981L24.8233 22.6597M24.5875 22.9981L24.2575 23.0574M24.2575 23.0574L24.4931 22.7171M24.2575 23.0574L23.6283 23.1706M23.6283 23.1706L23.8798 22.8316M23.6283 23.1706L23.1722 23.2526M23.1722 23.2526L23.4081 22.9557M23.1722 23.2526L22.7004 23.3374M22.7004 23.3374L22.9835 22.9981M22.7004 23.3374L22.2143 23.4248M22.2143 23.4248L22.4645 23.0859M25.8612 21.9887L25.4838 22.0586M25.4838 22.0586L25.7197 21.7739M25.4838 22.0586L24.5875 22.2247M24.5875 22.2247L24.8705 21.935M24.5875 22.2247L23.8798 22.3557M23.8798 22.3557L24.1157 22.0586M23.8798 22.3557L23.0593 22.5077M23.0593 22.5077L23.3609 22.2036M23.0593 22.5077L22.3702 22.6353M22.3702 22.6353L22.5117 22.311M17.3223 23.8501L20.2724 22.6597M36.7118 16.0259L35.5797 16.4828M35.5797 16.4828L35.5797 16.1871M35.5797 16.4828L34.3156 16.9929M34.3156 16.9929L34.3156 16.4828M34.3156 16.9929L32.6547 17.6631M32.6547 17.6631L32.7962 17.154M32.6547 17.6631L30.9091 18.3675M30.9091 18.3675L31.0979 17.8524M30.9091 18.3675L29.7297 18.8434M29.7297 18.8434L29.9184 18.2284M29.7297 18.8434L27.6068 19.7M27.6068 19.7L27.8899 19.0342M27.6068 19.7L25.8612 20.4044M25.8612 20.4044L26.1443 19.7M25.8612 20.4044L24.2575 21.0516M24.2575 21.0516L24.4931 20.4044M24.2575 21.0516L22.7004 21.6799M22.7004 21.6799L22.9835 21.0516M22.7004 21.6799L21.3504 22.2247M21.3504 22.2247L21.5731 21.6799M21.3504 22.2247L20.2724 22.6597M20.2724 22.6597L20.4709 22.2247M29.7297 20.592L30.1425 20.4189L30.5553 20.2457M36.7118 17.6631L36.2606 17.8524M36.2606 17.8524L36.2606 17.3689M36.2606 17.8524L35.0327 18.3675M35.0327 18.3675L35.0327 17.8524M35.0327 18.3675L33.8982 18.8434M33.8982 18.8434L33.8982 18.3675M33.8982 18.8434L32.6547 19.365M32.6547 19.365L32.6547 18.8434M32.6547 19.365L31.3809 19.8994M31.3809 19.8994L31.3809 19.365M31.3809 19.8994L30.5553 20.2457M30.5553 20.2457L30.5553 19.7M26.9463 22.6597L27.7697 22.4316M29.1164 22.0586L28.593 22.2036M28.593 22.2036L28.6919 21.7739M28.593 22.2036L27.7697 22.4316M27.7697 22.4316L27.8899 21.9887" stroke="#D2E68A" stroke-width="0.280556"/>
<path d="M26.6469 25.149C26.638 25.4242 26.4424 25.9722 25.7588 26.3664C25.075 26.7608 23.8782 27.0128 21.8635 26.6231C21.0443 26.4646 20.294 26.3347 19.6214 26.2182C18.8534 26.0851 18.1867 25.9696 17.6342 25.8493C17.1189 25.737 16.7388 25.6273 16.4936 25.5088C16.2326 25.3826 16.2356 25.3038 16.2358 25.2979L16.2358 25.2977C16.236 25.2915 16.2385 25.2631 16.2881 25.2111C16.3393 25.1575 16.4272 25.0939 16.5629 25.0268C16.834 24.8926 17.2426 24.7698 17.7697 24.6711C18.8194 24.4746 20.2777 24.3847 21.8927 24.4531C23.5293 24.5223 24.7725 24.5808 25.6046 24.7134C26.0237 24.7801 26.3075 24.8615 26.4787 24.9546C26.6393 25.042 26.6483 25.1061 26.6469 25.149Z" fill="#141B25" stroke="#D2E68A" stroke-width="0.561111"/>
<path d="M16.52 25.3194L17.1805 25.3954M16.7559 24.8897C17.0113 24.885 17.2633 24.8837 17.5107 24.8852M17.5107 24.8852L17.7466 24.6211M17.5107 24.8852C17.7514 24.8867 17.9877 24.8909 18.2184 24.8973M17.5107 24.8852L18.2184 24.8973M18.2184 24.8973L18.5014 24.6211M18.2184 24.8973C18.5284 24.9059 18.8282 24.9186 19.1147 24.9341M19.1147 24.9341L19.3506 24.7285M19.1147 24.9341C19.4669 24.9531 19.799 24.9765 20.1054 25.0021M19.1147 24.9341L20.1054 25.0021M20.1054 25.0021L20.3413 24.7285M20.1054 25.0021C20.4565 25.0314 20.7739 25.0636 21.049 25.0954M21.049 25.0954C21.4123 25.1374 21.7019 25.1787 21.8981 25.212L21.1905 25.8566L20.7187 25.8024M21.049 25.0954L21.332 24.7285M20.7187 25.8024L20.9074 25.588M20.7187 25.8024L20.247 25.7481M20.247 25.7481L20.4357 25.588M20.247 25.7481L19.6808 25.683M19.6808 25.683L19.9167 25.4806M19.6808 25.683L18.9732 25.6016M18.9732 25.6016L19.2091 25.4269M18.9732 25.6016L18.5014 25.5473M18.5014 25.5473L18.7845 25.3194M18.5014 25.5473L17.841 25.4714M17.841 25.4714L18.0297 25.3194M17.841 25.4714L17.1805 25.3954M17.1805 25.3954L17.4635 25.212" stroke="#D2E68A" stroke-width="0.280556"/>
<path d="M21.4098 25.7302L21.7911 25.7302M21.7911 25.2573C22.0457 25.2797 21.9155 25.2295 22.1617 25.2573M22.1617 25.2573L22.4181 25.0194M22.1617 25.2573C22.4012 25.2843 22.6361 25.3136 22.8652 25.3445M22.1617 25.2573L22.8652 25.3445M22.8652 25.3445L23.1697 25.0995M22.8652 25.3445C23.1732 25.386 23.4707 25.4304 23.7547 25.4763M23.7547 25.4763L24.0064 25.2967M23.7547 25.4763C24.1037 25.5326 24.4325 25.5912 24.7355 25.6492M23.7547 25.4763L24.7355 25.6492M24.7355 25.6492L24.9927 25.4019M24.7355 25.6492C25.0827 25.7156 25.396 25.7814 25.6673 25.8422M25.6673 25.8422C26.0256 25.9226 26.3105 25.9946 26.5032 26.0485L25.7458 26.6152L25.2806 26.5111M25.6673 25.8422L25.9791 25.5071M25.2806 26.5111L25.486 26.3177M25.2806 26.5111L24.8153 26.407M24.8153 26.407L25.0163 26.2676M24.8153 26.407L24.257 26.282M24.257 26.282L24.5084 26.1056M24.257 26.282L23.5591 26.1258M23.5591 26.1258L23.8082 25.9769M23.5591 26.1258L23.0938 26.0217M23.0938 26.0217L23.3943 25.8249M23.0938 26.0217L22.4425 25.876M22.4425 25.876L22.6428 25.7447M22.4425 25.876L21.7911 25.7302M21.7911 25.7302L22.0879 25.5776" stroke="#D2E68A" stroke-width="0.280556"/>
<path d="M25.4753 22.8292L25.506 22.8091L25.531 22.7804C25.707 22.5778 25.8809 22.3756 26.052 22.1767C26.6997 21.4237 27.3068 20.7179 27.8339 20.2145C28.1685 19.895 28.4487 19.6792 28.669 19.581C28.8861 19.4842 28.9733 19.5275 29.0241 19.5847C29.0522 19.6164 29.0616 19.6445 29.0617 19.6857C29.0618 19.7388 29.0449 19.8236 28.989 19.9475C28.8759 20.1978 28.6473 20.5144 28.3248 20.8935C28.0068 21.2673 27.617 21.6799 27.197 22.1243L27.195 22.1264C26.7764 22.5694 26.33 23.0419 25.9087 23.5269C25.489 24.0101 25.0036 24.7032 24.496 25.4283L24.4622 25.4765C23.9374 26.2259 23.3848 27.0128 22.8329 27.6792C22.2766 28.351 21.7444 28.8708 21.2664 29.1132C21.031 29.2326 20.8233 29.277 20.6402 29.253C20.4617 29.2296 20.2845 29.1384 20.1087 28.9403C19.9821 28.7978 19.9277 28.6453 19.9217 28.4772C19.9154 28.2998 19.9628 28.0841 20.0762 27.829C20.3048 27.315 20.7652 26.7215 21.3683 26.1035C22.5683 24.8738 24.2506 23.6293 25.4753 22.8292Z" fill="#141B25" stroke="#D2E68A" stroke-width="0.561111"/>
<path d="M30.1953 26.195C30.0472 25.3006 29.859 24.3222 29.6806 23.3943C29.5584 22.7588 29.4408 22.147 29.3437 21.6021C29.2228 20.9238 29.1333 20.3481 29.1003 19.939C29.0855 19.7558 29.0833 19.6195 29.0908 19.5276C29.11 19.5289 29.1237 19.5324 29.1336 19.536C29.1549 19.5438 29.1858 19.5624 29.2252 19.6232C29.3165 19.7641 29.394 20.0325 29.4884 20.5077C29.5262 20.698 29.5655 20.9144 29.6097 21.1572C29.7782 22.0841 30.0171 23.3974 30.5085 25.1277C30.8461 26.9906 31.0774 28.4834 31.1708 29.5203C31.2178 30.0424 31.2284 30.4339 31.2044 30.6941C31.1995 30.7469 31.1935 30.791 31.1869 30.8274C31.1241 30.7213 31.0485 30.5304 30.9599 30.2065C30.7641 29.4907 30.5356 28.2489 30.1953 26.195Z" fill="#141B25" stroke="#D2E68A" stroke-width="0.561111"/>
<path d="M31.593 31.2678C31.5514 31.2011 31.5022 31.1355 31.4621 31.0819C31.458 31.0765 31.454 31.0711 31.4501 31.0659C31.4216 31.0279 31.3985 30.9963 31.3799 30.9688C31.4437 30.9432 31.5102 30.9437 31.5781 30.9654C31.6813 30.9983 31.7807 31.0799 31.8449 31.1828C31.8745 31.2303 31.8794 31.2571 31.8802 31.2652C31.8808 31.2705 31.8808 31.2744 31.8768 31.2838C31.8715 31.2967 31.8585 31.3193 31.8295 31.3515C31.801 31.3831 31.7635 31.4171 31.7164 31.4548C31.7134 31.4509 31.7102 31.4467 31.7068 31.442C31.6764 31.4007 31.6415 31.3455 31.593 31.2678Z" fill="#141B25" stroke="#D2E68A" stroke-width="0.561111"/>
<path d="M32.2531 31.6984C32.2115 31.6317 32.1624 31.5662 32.1222 31.5126C32.1181 31.5071 32.1141 31.5018 32.1102 31.4966C32.0818 31.4585 32.0586 31.427 32.0401 31.3995C32.1039 31.3739 32.1703 31.3743 32.2383 31.396C32.3415 31.429 32.4409 31.5106 32.505 31.6135C32.5347 31.661 32.5395 31.6878 32.5404 31.6958C32.541 31.7012 32.5409 31.7051 32.537 31.7145C32.5316 31.7274 32.5186 31.7499 32.4896 31.7822C32.4612 31.8138 32.4237 31.8478 32.3765 31.8855C32.3735 31.8816 32.3704 31.8773 32.3669 31.8727C32.3366 31.8313 32.3016 31.7762 32.2531 31.6984Z" fill="#141B25" stroke="#D2E68A" stroke-width="0.561111"/>
<path d="M32.9134 32.0207C32.8718 31.954 32.8227 31.8884 32.7825 31.8349C32.7784 31.8294 32.7744 31.824 32.7705 31.8188C32.7421 31.7808 32.7189 31.7492 32.7004 31.7217C32.7642 31.6961 32.8306 31.6966 32.8986 31.7183C33.0018 31.7513 33.1011 31.8328 33.1653 31.9357C33.1949 31.9832 33.1998 32.01 33.2007 32.0181C33.2013 32.0235 33.2012 32.0273 33.1973 32.0367C33.1919 32.0496 33.1789 32.0722 33.1499 32.1044C33.1215 32.136 33.084 32.17 33.0368 32.2077C33.0338 32.2039 33.0306 32.1996 33.0272 32.195C32.9968 32.1536 32.9619 32.0984 32.9134 32.0207Z" fill="#141B25" stroke="#D2E68A" stroke-width="0.561111"/>
<path d="M33.4797 32.342C33.4381 32.2753 33.389 32.2097 33.3488 32.1562C33.3447 32.1507 33.3407 32.1453 33.3368 32.1401C33.3083 32.1021 33.2852 32.0705 33.2666 32.043C33.3304 32.0174 33.3969 32.0179 33.4648 32.0396C33.568 32.0725 33.6674 32.1541 33.7316 32.257C33.7612 32.3045 33.7661 32.3313 33.767 32.3394C33.7675 32.3447 33.7675 32.3486 33.7636 32.358C33.7582 32.3709 33.7452 32.3935 33.7162 32.4257C33.6878 32.4573 33.6503 32.4913 33.6031 32.529C33.6001 32.5251 33.5969 32.5209 33.5935 32.5163C33.5631 32.4749 33.5282 32.4197 33.4797 32.342Z" fill="#141B25" stroke="#D2E68A" stroke-width="0.561111"/>
<path d="M34.2661 33.0211C34.1988 32.9133 34.1224 32.8026 34.0515 32.6999C34.0447 32.69 34.0379 32.6802 34.0312 32.6705C33.9525 32.5563 33.8825 32.4537 33.8284 32.3616C33.8135 32.3363 33.801 32.3137 33.7905 32.2936C33.8413 32.3034 33.9118 32.3312 34.0065 32.3952C34.1962 32.5232 34.4003 32.7474 34.5577 32.9999C34.6936 33.2178 34.6974 33.3822 34.6731 33.491C34.659 33.5538 34.6329 33.6096 34.6021 33.6558C34.5863 33.6245 34.5695 33.59 34.5503 33.5502C34.5328 33.5142 34.5133 33.474 34.4906 33.4281C34.4317 33.3095 34.3592 33.1704 34.2661 33.0211ZM33.7424 32.1767C33.7424 32.1767 33.7424 32.177 33.7425 32.1776L33.7424 32.1767Z" fill="#141B25" stroke="#D2E68A" stroke-width="0.561111"/>
<path d="M21.0972 28.0066L21.7103 27.331M25.4846 23.1719L25.2408 23.4405M25.2408 23.4405L25.2013 23.2256L25.0126 23.3868L25.0458 23.6554M25.2408 23.4405L25.0458 23.6554M25.0458 23.6554L24.8711 23.8479M24.8711 23.8479L24.7767 23.5479L24.4937 23.7091L24.6071 24.1388M24.8711 23.8479L24.6071 24.1388M24.6071 24.1388L24.4121 24.3537M24.4121 24.3537L24.2578 23.8479L24.0219 24.0314L24.1635 24.5686L24.0219 24.7837M24.4121 24.3537L24.0219 24.7837M24.0219 24.7837L23.786 24.2463L23.4558 24.5149L23.7296 25.1058M24.0219 24.7837L23.7296 25.1058M23.7296 25.1058L23.4086 25.4595M23.4086 25.4595L23.1727 24.7837M23.4086 25.4595L23.109 25.7896M22.8425 25.1595L23.109 25.7896M23.109 25.7896L22.8425 26.0833M22.8425 26.0833L22.5595 25.4281L22.3236 25.643L22.6084 26.3413M22.8425 26.0833L22.6084 26.3413M22.6084 26.3413L22.3707 26.6032M22.3707 26.6032L22.0877 25.9116L21.899 26.1264L22.2184 26.7711M22.3707 26.6032L22.2184 26.7711M22.2184 26.7711L21.9854 27.0278M21.9854 27.0278L21.6631 26.395L21.38 26.7173L21.7103 27.331M21.9854 27.0278L21.7103 27.331" stroke="#D2E68A" stroke-width="0.280556"/>
<path d="M21.4274 27.6301L21.0972 27.0392L20.814 27.3615L21.0972 28.0061L21.4274 27.6301ZM21.4274 27.6301L22.0406 27.8987M21.7103 27.3615L22.4651 27.5764L22.7954 27.2541L21.9934 27.0392L22.2293 26.7706L23.0784 26.878L23.4087 26.502L22.6067 26.3409L22.8897 26.0723L23.5974 26.2334" stroke="#D2E68A" stroke-width="0.280556"/>
<path d="M23.1259 25.7504L23.8335 25.8973M23.8335 25.8973C22.9284 27.1604 22.0414 28.2221 21.8049 27.9529C21.6162 27.738 21.1602 28.0066 21.1916 28.114C21.0973 27.935 20.8142 27.8992 20.3896 27.8992C21.3804 26.6636 23.6731 23.9884 24.7299 23.6016L25.4375 23.0645L25.5791 23.2793C25.5342 23.3513 25.4869 23.4266 25.4375 23.5049M23.8335 25.8973C23.9122 25.7876 23.9909 25.6763 24.0694 25.5643M24.0694 25.5643L23.4089 25.4281L23.7392 25.1058L24.2759 25.2669M24.0694 25.5643C24.1385 25.4656 24.2075 25.3663 24.2759 25.2669M24.2759 25.2669C24.3654 25.1369 24.454 25.0067 24.5412 24.8775M24.5412 24.8775L24.0222 24.7835L24.1638 24.6223H24.7122M24.5412 24.8775C24.5989 24.7919 24.656 24.7067 24.7122 24.6223M24.7122 24.6223C24.7725 24.5318 24.8319 24.4421 24.89 24.3537M24.89 24.3537H24.3996L24.5884 24.1388L25.0657 24.0851M24.89 24.3537C24.9499 24.2627 25.0085 24.173 25.0657 24.0851M25.0657 24.0851C25.112 24.0138 25.1574 23.9436 25.2016 23.8748M25.2016 23.8748L24.89 23.8165L25.0657 23.6554L25.3079 23.7091M25.2016 23.8748C25.2378 23.8186 25.2733 23.7633 25.3079 23.7091M25.3079 23.7091C25.3525 23.6391 25.3958 23.571 25.4375 23.5049M25.4375 23.5049L25.2488 23.4405" stroke="#D2E68A" stroke-width="0.280556"/>
<path d="M17.2362 27.8323C17.533 28.3416 17.7083 28.8945 17.7543 29.3499C17.7773 29.5779 17.7666 29.7684 17.7317 29.9117C17.6969 30.0541 17.6435 30.1308 17.5916 30.1701C17.4358 30.2878 17.1321 30.3449 16.7672 30.224C16.4131 30.1066 16.0339 29.8294 15.7513 29.3445C15.4634 28.8505 15.3405 28.301 15.3432 27.8417C15.3461 27.3598 15.4821 27.0648 15.6126 26.9662C15.7691 26.8479 16.0151 26.8047 16.3133 26.9269C16.6096 27.0484 16.9442 27.3314 17.2362 27.8323Z" fill="#141B25" stroke="#D2E68A" stroke-width="0.561111"/>
<path d="M19.0315 28.8712C19.2528 28.7805 19.4832 28.6779 19.7066 28.5785C19.7515 28.5585 19.796 28.5387 19.8401 28.5191C20.1073 28.4006 20.3598 28.2908 20.5843 28.2082C20.8133 28.124 20.9906 28.0768 21.1127 28.0693C21.1654 28.0661 21.1926 28.0705 21.205 28.0743C21.3013 28.2923 21.2551 28.5476 20.9898 28.8535C20.7143 29.1713 20.2371 29.4911 19.6116 29.7475C18.9913 30.0018 18.471 30.0829 18.1012 30.0503C17.7143 30.0162 17.5706 29.8714 17.5387 29.7707C17.5147 29.6947 17.5256 29.666 17.5326 29.6511C17.5456 29.6229 17.5856 29.5676 17.7042 29.4866C17.9475 29.3202 18.3698 29.1425 19.0315 28.8712ZM21.214 28.0786C21.2137 28.0789 21.2118 28.0781 21.2091 28.0757C21.213 28.0772 21.2143 28.0784 21.214 28.0786Z" fill="#141B25" stroke="#D2E68A" stroke-width="0.561111"/>
<path d="M22.814 30.4767C22.6629 30.183 22.4858 29.8807 22.3144 29.5931C22.2823 29.5393 22.2505 29.486 22.2191 29.4334C22.0808 29.2022 21.9503 28.9838 21.8392 28.7829C21.7006 28.5322 21.6063 28.3331 21.5657 28.1906C21.5582 28.1644 21.5534 28.1427 21.5504 28.1253C21.6138 28.0918 21.6695 28.0877 21.7271 28.1013C21.8105 28.1211 21.9196 28.1846 22.0579 28.3226C22.3374 28.6015 22.6563 29.1014 23.0467 29.7951C23.4338 30.4833 23.6997 31.0379 23.8247 31.4437C23.8877 31.6484 23.9068 31.7904 23.9013 31.8803C23.8967 31.9542 23.8793 31.9642 23.8759 31.9661C23.8756 31.9663 23.8755 31.9663 23.8754 31.9664C23.8152 32.0096 23.7951 32.0057 23.7918 32.0051C23.7917 32.005 23.7916 32.005 23.7916 32.005C23.7809 32.0033 23.7358 31.9902 23.6471 31.8911C23.464 31.6868 23.2167 31.2596 22.814 30.4767Z" fill="#141B25" stroke="#D2E68A" stroke-width="0.561111"/>
<path d="M24.276 32.4267C24.2373 32.3578 24.1909 32.2897 24.1531 32.234C24.1492 32.2283 24.1454 32.2227 24.1417 32.2173C24.1149 32.1778 24.0931 32.145 24.0757 32.1165C24.1406 32.0944 24.207 32.0985 24.2739 32.1238C24.3756 32.1623 24.4715 32.2492 24.5313 32.3555C24.5589 32.4045 24.5626 32.4315 24.5631 32.4396C24.5635 32.445 24.5633 32.4489 24.5589 32.4581C24.553 32.4706 24.5391 32.4925 24.5088 32.5231C24.4791 32.5532 24.4402 32.5851 24.3914 32.6202C24.3886 32.6162 24.3856 32.6118 24.3824 32.6069C24.3538 32.564 24.3212 32.507 24.276 32.4267Z" fill="#141B25" stroke="#D2E68A" stroke-width="0.561111"/>
<path d="M24.7958 32.6747C24.7571 32.6059 24.7107 32.5377 24.6728 32.482C24.669 32.4763 24.6652 32.4708 24.6615 32.4653C24.6347 32.4258 24.6129 32.3931 24.5955 32.3646C24.6604 32.3424 24.7267 32.3465 24.7937 32.3719C24.8954 32.4104 24.9913 32.4973 25.051 32.6035C25.0786 32.6525 25.0824 32.6796 25.0829 32.6877C25.0833 32.693 25.083 32.6969 25.0787 32.7061C25.0728 32.7187 25.0589 32.7405 25.0286 32.7712C24.9988 32.8012 24.9599 32.8331 24.9112 32.8682C24.9084 32.8642 24.9054 32.8598 24.9022 32.855C24.8736 32.812 24.841 32.755 24.7958 32.6747Z" fill="#141B25" stroke="#D2E68A" stroke-width="0.561111"/>
<path d="M25.6854 33.5468C25.6227 33.4354 25.5511 33.3208 25.4845 33.2143C25.4781 33.2041 25.4718 33.1939 25.4655 33.1839C25.3916 33.0655 25.326 32.9592 25.2758 32.8642C25.262 32.8382 25.2504 32.8149 25.2408 32.7943C25.2912 32.8068 25.3604 32.8384 25.4524 32.9075C25.6365 33.0457 25.831 33.2807 25.9777 33.5414C26.1043 33.7664 26.1012 33.9308 26.0723 34.0382C26.0556 34.1002 26.0272 34.1545 25.9945 34.199C25.98 34.1669 25.9647 34.1315 25.9471 34.0907C25.9312 34.0538 25.9134 34.0126 25.8926 33.9655C25.8388 33.8438 25.7721 33.701 25.6854 33.5468ZM25.1977 32.6749C25.1977 32.6749 25.1977 32.6752 25.1977 32.6758L25.1977 32.6749Z" fill="#141B25" stroke="#D2E68A" stroke-width="0.561111"/>
<path d="M13.9805 28.489C13.7626 28.5113 13.5329 28.5272 13.3105 28.5425C13.2659 28.5456 13.2216 28.5486 13.1778 28.5517C12.912 28.5704 12.6623 28.5901 12.4458 28.6211C12.2246 28.6528 12.0619 28.6934 11.9596 28.743C11.9193 28.7626 11.8994 28.7775 11.8903 28.7862C11.8855 29.0332 12.0153 29.241 12.3389 29.3908C12.6773 29.5475 13.1858 29.6123 13.7984 29.5496C14.4054 29.4875 14.8673 29.3159 15.1633 29.1134C15.4716 28.9026 15.5425 28.7053 15.5339 28.5964C15.5274 28.5142 15.5075 28.4936 15.4981 28.4847C15.4798 28.4677 15.4306 28.4374 15.3051 28.4201C15.0457 28.3845 14.6321 28.4224 13.9805 28.489ZM11.8837 28.7947C11.884 28.7947 11.8856 28.793 11.8871 28.7894C11.8841 28.7928 11.8833 28.7946 11.8837 28.7947Z" fill="#141B25" stroke="#D2E68A" stroke-width="0.561111"/>
<path d="M10.9828 29.7963L10.9701 29.8471L10.9433 29.8905C10.7951 30.1311 10.6386 30.345 10.4967 30.5313C10.4479 30.5954 10.402 30.6548 10.3589 30.7105C10.2727 30.8219 10.1978 30.9187 10.1335 31.0097C10.058 31.1163 10.0194 31.1855 10.0016 31.2273C10.1431 31.3341 10.2162 31.3351 10.2884 31.2989C10.4033 31.2411 10.5879 31.0526 10.8652 30.5406C10.9762 30.3357 11.1094 30.1317 11.2347 29.9441C11.2588 29.908 11.2825 29.8727 11.3058 29.8381C11.4066 29.6878 11.4987 29.5506 11.5757 29.4225C11.6737 29.2593 11.7236 29.1481 11.7386 29.0791C11.739 29.0772 11.7394 29.0755 11.7397 29.0738C11.5028 28.8921 11.4022 28.9282 11.3495 28.9677C11.3055 29.0007 11.246 29.0707 11.1788 29.2115C11.1123 29.3511 11.0465 29.5429 10.9828 29.7963Z" fill="#141B25" stroke="#D2E68A" stroke-width="0.561111"/>
<path d="M9.49521 31.8709C9.53948 31.8048 9.59129 31.74 9.6327 31.6883C9.63698 31.6829 9.64114 31.6777 9.64517 31.6727C9.67058 31.6408 9.6915 31.6142 9.70867 31.591C9.54902 31.5203 9.35634 31.6012 9.23884 31.7766C9.21053 31.8189 9.20697 31.8403 9.20653 31.8434C9.20652 31.8435 9.2065 31.8435 9.20649 31.8436C9.20626 31.8449 9.20566 31.8483 9.2098 31.8589C9.21552 31.8737 9.22904 31.898 9.25816 31.9315C9.28696 31.9648 9.32485 32.0001 9.3719 32.0387C9.3731 32.0397 9.37428 32.0407 9.37543 32.0416C9.37636 32.0404 9.37731 32.0392 9.37828 32.038C9.40878 31.9991 9.44446 31.9467 9.49521 31.8709Z" fill="#141B25" stroke="#D2E68A" stroke-width="0.561111"/>
<path d="M8.93316 32.2277C8.98182 32.1654 9.03791 32.1052 9.08264 32.0572C9.08727 32.0522 9.09176 32.0474 9.09612 32.0427C9.12328 32.0135 9.14567 31.989 9.16415 31.9676C9.00824 31.8812 8.81006 31.9466 8.68226 32.11C8.65153 32.1493 8.64681 32.1698 8.64627 32.1724C8.64626 32.1724 8.64624 32.1725 8.64622 32.1726C8.64597 32.1735 8.64506 32.1768 8.64858 32.1881C8.6534 32.2036 8.66543 32.2293 8.69239 32.2655C8.71903 32.3013 8.75459 32.3399 8.79899 32.3826C8.80042 32.384 8.80182 32.3853 8.80317 32.3866C8.80397 32.3857 8.80479 32.3849 8.80561 32.384C8.83851 32.3479 8.87749 32.2989 8.93316 32.2277Z" fill="#141B25" stroke="#D2E68A" stroke-width="0.561111"/>
<path d="M7.79499 32.7819C7.89644 32.7159 8.00718 32.6517 8.10895 32.5927C8.11879 32.587 8.12855 32.5813 8.1382 32.5757C8.25165 32.5098 8.35125 32.4511 8.43251 32.3949C8.45645 32.3783 8.47657 32.3635 8.49338 32.3503C8.44251 32.3282 8.36163 32.3155 8.23482 32.3316C8.02121 32.3587 7.75917 32.463 7.52823 32.6132C7.33696 32.7376 7.27654 32.8725 7.25913 32.9795C7.24763 33.0502 7.25315 33.1216 7.26836 33.185C7.28964 33.1678 7.31256 33.1487 7.33847 33.1272C7.36751 33.1031 7.40032 33.0758 7.43881 33.0445C7.53618 32.9653 7.65415 32.8735 7.79499 32.7819Z" fill="#141B25" stroke="#D2E68A" stroke-width="0.561111"/>
<path d="M13.8445 26.4822C13.6266 26.5045 13.3969 26.5203 13.1745 26.5356C13.1299 26.5387 13.0856 26.5418 13.0418 26.5449C12.776 26.5635 12.5263 26.5832 12.3098 26.6143C12.0886 26.646 11.9259 26.6866 11.8236 26.7362C11.7833 26.7557 11.7634 26.7707 11.7543 26.7793C11.7495 27.0264 11.8793 27.2342 12.2029 27.3839C12.5414 27.5406 13.0498 27.6054 13.6624 27.5428C14.2694 27.4807 14.7313 27.309 15.0273 27.1066C15.3356 26.8957 15.4065 26.6985 15.3979 26.5895C15.3914 26.5074 15.3715 26.4867 15.3621 26.4779C15.3438 26.4609 15.2946 26.4306 15.1691 26.4133C14.9097 26.3776 14.4961 26.4155 13.8445 26.4822ZM11.7477 26.7878C11.7481 26.7879 11.7496 26.7862 11.7511 26.7826C11.7481 26.786 11.7473 26.7878 11.7477 26.7878Z" fill="#141B25" stroke="#D2E68A" stroke-width="0.561111"/>
<path d="M10.8471 27.7905L10.8343 27.8412L10.8075 27.8847C10.6594 28.1253 10.5029 28.3392 10.361 28.5255C10.3121 28.5896 10.2662 28.6489 10.2231 28.7046C10.137 28.816 10.0621 28.9128 9.99771 29.0038C9.9223 29.1105 9.88367 29.1796 9.86584 29.2214C10.0073 29.3282 10.0804 29.3293 10.1526 29.293C10.2676 29.2353 10.4521 29.0467 10.7294 28.5347C10.8404 28.3298 10.9736 28.1258 11.099 27.9383C11.1231 27.9022 11.1468 27.8668 11.17 27.8322C11.2709 27.6819 11.363 27.5448 11.4399 27.4167C11.538 27.2535 11.5879 27.1422 11.6029 27.0732C11.6033 27.0714 11.6036 27.0696 11.6039 27.068C11.3671 26.8862 11.2665 26.9223 11.2138 26.9618C11.1698 26.9948 11.1102 27.0648 11.0431 27.2057C10.9766 27.3452 10.9108 27.5371 10.8471 27.7905Z" fill="#141B25" stroke="#D2E68A" stroke-width="0.561111"/>
<path d="M9.35946 29.8631C9.40374 29.797 9.45554 29.7322 9.49696 29.6805C9.50123 29.6751 9.5054 29.6699 9.50943 29.6649C9.53484 29.633 9.55575 29.6064 9.57293 29.5832C9.41328 29.5125 9.2206 29.5934 9.1031 29.7688C9.07478 29.8111 9.07122 29.8325 9.07079 29.8356C9.07078 29.8356 9.07076 29.8357 9.07074 29.8358C9.07052 29.8371 9.06992 29.8405 9.07406 29.8511C9.07977 29.8658 9.0933 29.8901 9.12242 29.9237C9.15122 29.9569 9.18911 29.9923 9.23615 30.0309C9.23736 30.0319 9.23854 30.0329 9.23969 30.0338C9.24062 30.0326 9.24157 30.0314 9.24253 30.0302C9.27304 29.9913 9.30872 29.9389 9.35946 29.8631Z" fill="#141B25" stroke="#D2E68A" stroke-width="0.561111"/>
<path d="M8.79681 30.2189C8.84547 30.1567 8.90156 30.0964 8.94629 30.0484C8.95091 30.0434 8.95541 30.0386 8.95977 30.0339C8.98693 30.0047 9.00932 29.9802 9.0278 29.9588C8.87189 29.8724 8.67371 29.9378 8.54591 30.1012C8.51517 30.1405 8.51046 30.161 8.50992 30.1636C8.50991 30.1636 8.50989 30.1637 8.50987 30.1638C8.50961 30.1647 8.50871 30.168 8.51223 30.1794C8.51705 30.1948 8.52908 30.2205 8.55603 30.2567C8.58268 30.2925 8.61823 30.3312 8.66264 30.3738C8.66407 30.3752 8.66547 30.3766 8.66682 30.3778C8.66762 30.377 8.66843 30.3761 8.66926 30.3752C8.70216 30.3391 8.74114 30.2901 8.79681 30.2189Z" fill="#141B25" stroke="#D2E68A" stroke-width="0.561111"/>
<path d="M7.65889 30.7741C7.76033 30.7081 7.87107 30.6439 7.97284 30.5849C7.98268 30.5792 7.99244 30.5735 8.00209 30.5679C8.11555 30.502 8.21515 30.4433 8.2964 30.3871C8.32034 30.3705 8.34046 30.3557 8.35728 30.3425C8.3064 30.3204 8.22552 30.3077 8.09871 30.3237C7.8851 30.3508 7.62306 30.4552 7.39212 30.6054C7.20085 30.7298 7.14044 30.8647 7.12302 30.9717C7.11152 31.0424 7.11704 31.1138 7.13225 31.1772C7.15353 31.1599 7.17645 31.1409 7.20236 31.1194C7.2314 31.0953 7.26421 31.068 7.3027 31.0367C7.40008 30.9574 7.51804 30.8657 7.65889 30.7741Z" fill="#141B25" stroke="#D2E68A" stroke-width="0.561111"/>
<path d="M11.2602 24.292C10.106 23.9067 7.90399 22.6183 8.32928 20.547" stroke="#D2E68A" stroke-width="1.12222"/>
<path d="M15.8078 27.1873C15.713 27.5052 15.6303 27.7394 15.5503 27.9101C15.4624 28.0977 15.3891 28.1829 15.331 28.2229C15.2822 28.2565 15.2223 28.2734 15.1134 28.2597C14.9943 28.2448 14.8397 28.1962 14.6174 28.1121C14.2271 27.9646 13.8287 27.6609 13.5774 27.2405C13.3314 26.8289 13.2163 26.2898 13.407 25.6355C13.6047 24.9577 13.9756 24.415 14.5564 24.0856C15.1303 23.7602 15.9384 23.6265 17.0478 23.8195C17.0426 23.8402 17.0333 23.8702 17.016 23.9112C16.9447 24.0802 16.8063 24.2901 16.6315 24.555C16.5918 24.6151 16.5503 24.6781 16.5073 24.744C16.286 25.0832 16.0395 25.4823 15.8874 25.904C15.7454 26.2977 15.6754 26.7395 15.8078 27.1873Z" fill="#141B25" stroke="#D2E68A" stroke-width="0.561111"/>
<path d="M13.8983 25.9189C13.7278 26.5036 13.3951 27.0051 13.0297 27.325C12.6498 27.6576 12.3028 27.7412 12.0862 27.6593C11.8633 27.575 11.659 27.3169 11.5576 26.8624C11.4581 26.4166 11.4752 25.8393 11.6488 25.2439C11.8155 24.672 12.164 24.2268 12.5477 23.957C12.942 23.6796 13.3236 23.6183 13.5634 23.7089C13.7942 23.7962 13.9654 24.0109 14.0388 24.394C14.1136 24.7836 14.0755 25.311 13.8983 25.9189Z" fill="#141B25" stroke="#D2E68A" stroke-width="0.561111"/>
<path d="M12.6328 26.0451C12.451 26.6687 11.9379 27.0911 11.3313 27.3183C10.7561 27.5338 10.1547 27.5515 9.78014 27.4379C9.67081 27.2954 9.60884 27.1353 9.60444 26.8757C9.59902 26.5555 9.68212 26.0941 9.89455 25.3656C10.0971 24.671 10.4605 24.031 10.8686 23.6106C11.2908 23.1758 11.6871 23.0433 11.9779 23.1532C12.2997 23.2749 12.5681 23.6154 12.7056 24.1497C12.8418 24.6793 12.834 25.3554 12.6328 26.0451Z" fill="#141B25" stroke="#D2E68A" stroke-width="0.561111"/>
<path d="M11.8027 25.0922C11.7677 25.2754 11.7009 25.4124 11.6326 25.4902C11.5651 25.5672 11.5259 25.5596 11.5162 25.5572C11.5162 25.5572 11.5162 25.5572 11.5161 25.5572C11.5141 25.5572 11.487 25.5568 11.463 25.4645C11.4366 25.3629 11.4343 25.2048 11.4715 25.0101C11.5087 24.8154 11.5685 24.6727 11.6296 24.5928C11.6851 24.5202 11.7099 24.5326 11.7117 24.5336C11.7118 24.5336 11.7118 24.5336 11.7118 24.5336C11.7215 24.536 11.76 24.5477 11.7933 24.6496C11.8269 24.7528 11.8377 24.909 11.8027 25.0922Z" fill="#F68561" stroke="#D2E68A" stroke-width="0.561111"/>
<path d="M11.3782 25.3742L11.5669 24.4609C11.7084 24.7295 11.6141 25.4279 11.5669 25.5353C11.5291 25.6213 11.4254 25.41 11.3782 25.3742Z" fill="#141B25" stroke="#D2E68A" stroke-width="0.561111"/>
<path d="M10.5283 24.8364C9.34891 24.5679 7.05614 23.5042 7.32033 21.3984" stroke="#D2E68A" stroke-width="1.12222"/>
<path d="M10.9061 24.9971C10.7488 25.206 10.4438 25.699 10.4815 25.9998C10.5287 26.3759 10.4815 26.9399 10.2456 27.2533" stroke="#D2E68A" stroke-width="1.12222"/>
</svg>
