<svg width="44" height="44" viewBox="0 0 44 44" fill="none" xmlns="http://www.w3.org/2000/svg">
<rect width="44" height="44" fill="#1E1E1E"/>
<g id="14. &#208;&#156;&#208;&#184;&#208;&#189;&#208;&#184;-&#208;&#184;&#208;&#179;&#209;&#128;&#208;&#176; 1, &#208;&#191;&#208;&#181;&#209;&#128;&#208;&#181;&#209;&#134; - &#209;&#129;&#208;&#189;&#208;&#184;&#208;&#183;&#208;&#184;&#208;&#187;&#208;&#176;&#209;&#129;&#209;&#140; &#208;&#178;&#208;&#187;&#208;&#176;&#208;&#182;&#208;&#189;&#208;&#190;&#209;&#129;&#209;&#130;&#209;&#140;" clip-path="url(#clip0_0_1)">
<rect width="1280" height="660" transform="translate(-687 -186)" fill="#141B25"/>
<g id="&#208;&#188;&#208;&#190;&#208;&#189;&#208;&#184;&#209;&#130;&#208;&#190;&#209;&#128;">
<g id="&#209;&#141;&#208;&#186;&#209;&#128;&#208;&#176;&#208;&#189;">
<rect id="Rectangle 11547" x="-393" y="-161" width="771" height="431" rx="3" fill="#D9D9D9" stroke="#8990A5" stroke-width="2"/>
<rect id="Rectangle 11548" x="-377" y="-145" width="739" height="403" rx="1" fill="#1F2431" stroke="#8990A5" stroke-width="2"/>
</g>
<g id="&#208;&#186;&#208;&#176;&#209;&#128;&#209;&#130;&#208;&#190;&#209;&#135;&#208;&#186;&#208;&#176; &#209;&#131;&#209;&#135;&#208;&#176;&#209;&#129;&#209;&#130;&#208;&#186;&#208;&#176;_1">
<g id="Frame 5332516">
<g id="Frame 5332885">
<g id="&#208;&#183;&#208;&#181;&#208;&#188;&#208;&#187;&#209;&#143;" filter="url(#filter0_f_0_1)">
<rect x="-181" y="-92" width="166" height="93" fill="#141B25"/>
</g>
<rect x="-180" y="-125" width="164" height="125" rx="3" stroke="#8990A5" stroke-width="2"/>
</g>
</g>
</g>
<g id="&#208;&#186;&#208;&#176;&#209;&#128;&#209;&#130;&#208;&#190;&#209;&#135;&#208;&#186;&#208;&#176; &#209;&#131;&#209;&#135;&#208;&#176;&#209;&#129;&#209;&#130;&#208;&#186;&#208;&#176;_1_2">
<g id="&#208;&#191;&#208;&#190;&#208;&#186;&#208;&#176;&#208;&#183;&#208;&#176;&#209;&#130;&#208;&#181;&#208;&#187;&#208;&#184;">
<g id="&#209;&#130;&#208;&#176;&#208;&#185;&#208;&#188;&#208;&#181;&#209;&#128; &#208;&#184; &#208;&#184;&#208;&#186;&#208;&#190;&#208;&#189;&#208;&#186;&#208;&#176;">
<g id="Frame 5332899">
<g id="&#209;&#129;&#208;&#176;&#209;&#128;&#208;&#176;&#208;&#189;&#209;&#135;&#208;&#176; &#208;&#179;&#209;&#128;&#209;&#131;&#208;&#191;&#208;&#191;&#208;&#176;">
<path id="&#208;&#189;&#208;&#190;&#208;&#179;&#208;&#176; 1" d="M17.9924 26.5918C18.3307 27.0655 18.5517 27.5958 18.6361 28.0434C18.6783 28.2674 18.6839 28.4581 18.6612 28.6045C18.6387 28.7501 18.5919 28.8335 18.5423 28.8794C18.3957 29.0151 18.0971 29.1049 17.7242 29.0248C17.3621 28.9471 16.962 28.7132 16.6403 28.2627C16.3124 27.8036 16.1436 27.271 16.1074 26.8141C16.0694 26.3353 16.1792 26.0252 16.3025 25.911C16.5885 25.6461 17.3098 25.636 17.9924 26.5918Z" fill="#141B25" stroke="#8990A5" stroke-width="0.561111"/>
<path id="&#208;&#189;&#208;&#190;&#208;&#179;&#208;&#176; 2" d="M19.8657 27.4313C20.0782 27.3167 20.2988 27.1893 20.5127 27.0657C20.5556 27.0409 20.5983 27.0162 20.6406 26.9919C20.8964 26.8445 21.1385 26.7074 21.3551 26.6004C21.5759 26.4913 21.7488 26.4246 21.8702 26.4036C21.9224 26.3946 21.95 26.396 21.9629 26.3984C22.0755 26.6027 22.0521 26.8607 21.8137 27.1949C21.5661 27.5421 21.1178 27.9132 20.5166 28.2375C19.9204 28.5591 19.4088 28.6973 19.0375 28.7055C18.6483 28.7142 18.4941 28.5853 18.4546 28.4904C18.4246 28.4183 18.433 28.3893 18.4386 28.3738C18.4493 28.3442 18.4847 28.2843 18.5962 28.1903C18.8246 27.9976 19.2303 27.7741 19.8657 27.4313ZM21.9724 26.4017C21.9722 26.402 21.9703 26.4015 21.9675 26.3994C21.9713 26.4005 21.9727 26.4015 21.9724 26.4017Z" fill="#141B25" stroke="#8990A5" stroke-width="0.561111"/>
<path id="&#208;&#189;&#208;&#190;&#208;&#179;&#208;&#176; 3" d="M23.7653 28.6127C23.5899 28.3368 23.3879 28.0553 23.193 27.7879C23.1564 27.7378 23.1202 27.6883 23.0844 27.6394C22.9272 27.4245 22.7788 27.2216 22.6513 27.034C22.492 26.7997 22.3816 26.6123 22.3293 26.4755C22.3196 26.4502 22.313 26.4292 22.3086 26.4123C22.3706 26.3703 22.427 26.3597 22.4862 26.367C22.5708 26.3775 22.6843 26.4285 22.8333 26.5503C23.1347 26.7967 23.4941 27.2586 23.9416 27.9062C24.3853 28.5485 24.6968 29.0708 24.8554 29.4605C24.9353 29.6569 24.9662 29.7957 24.9684 29.8853C24.9701 29.9587 24.9538 29.9717 24.9492 29.9753C24.949 29.9756 24.9487 29.9758 24.9485 29.9759C24.8914 30.0264 24.8702 30.0249 24.8665 30.0246C24.8663 30.0246 24.8662 30.0246 24.8662 30.0246C24.8555 30.024 24.8101 30.0162 24.7138 29.9278C24.5148 29.745 24.2327 29.3477 23.7653 28.6127Z" fill="#141B25" stroke="#8990A5" stroke-width="0.561111"/>
<path id="&#208;&#189;&#208;&#190;&#208;&#179;&#208;&#176; 4" d="M25.3861 30.3921C25.3416 30.3277 25.2895 30.2648 25.2471 30.2135C25.2428 30.2083 25.2386 30.2031 25.2344 30.1982C25.2047 30.1622 25.1805 30.1323 25.161 30.1062C25.2253 30.0754 25.2931 30.072 25.3627 30.0901C25.4669 30.1171 25.5689 30.1926 25.6367 30.2908C25.668 30.3361 25.6737 30.3619 25.6748 30.3692C25.6755 30.3739 25.6758 30.3778 25.6721 30.3879C25.6671 30.4015 25.6548 30.4252 25.627 30.4594C25.5994 30.4932 25.5627 30.5299 25.5164 30.5708C25.5135 30.5673 25.5104 30.5636 25.5071 30.5595C25.4751 30.5201 25.4379 30.4671 25.3861 30.3921Z" fill="#141B25" stroke="#8990A5" stroke-width="0.561111"/>
<path id="&#208;&#189;&#208;&#190;&#208;&#179;&#208;&#176; 5" d="M25.9242 30.5826C25.8797 30.5181 25.8276 30.4552 25.7852 30.404C25.7809 30.3987 25.7766 30.3936 25.7725 30.3886C25.7428 30.3526 25.7186 30.3227 25.6991 30.2966C25.7634 30.2658 25.8312 30.2624 25.9008 30.2805C26.0049 30.3075 26.107 30.383 26.1748 30.4813C26.2061 30.5265 26.2118 30.5523 26.2129 30.5596C26.2136 30.5644 26.2139 30.5682 26.2102 30.5783C26.2052 30.5919 26.1929 30.6156 26.1651 30.6498C26.1375 30.6836 26.1008 30.7203 26.0545 30.7612C26.0516 30.7578 26.0485 30.754 26.0452 30.7499C26.0132 30.7105 25.976 30.6575 25.9242 30.5826Z" fill="#141B25" stroke="#8990A5" stroke-width="0.561111"/>
<path id="&#208;&#189;&#208;&#190;&#208;&#179;&#208;&#176; 6" d="M26.8831 31.3525C26.8112 31.2484 26.7301 31.1421 26.6548 31.0434C26.6476 31.034 26.6404 31.0245 26.6333 31.0152C26.5497 30.9055 26.4755 30.8071 26.4176 30.7183C26.4012 30.6932 26.3874 30.6707 26.3759 30.6509C26.4277 30.6568 26.5007 30.6804 26.6008 30.7407C26.7953 30.8576 27.0084 31.0697 27.1762 31.3126C27.3204 31.5214 27.3313 31.6842 27.3117 31.7943C27.3001 31.8593 27.2756 31.9179 27.2458 31.9668C27.2288 31.9368 27.2108 31.9037 27.1902 31.8656C27.1712 31.8307 27.15 31.7915 27.1252 31.7468C27.0612 31.6315 26.9827 31.4966 26.8831 31.3525ZM26.3244 30.5402C26.3244 30.5402 26.3245 30.5405 26.3246 30.541L26.3244 30.5402Z" fill="#141B25" stroke="#8990A5" stroke-width="0.561111"/>
<path id="&#209;&#130;&#209;&#131;&#208;&#187;&#208;&#190;&#208;&#178;&#208;&#184;&#209;&#137;&#208;&#181; 1" d="M18.1295 26.8385C17.9497 27.4551 17.5989 27.984 17.2132 28.3217C16.8131 28.672 16.4437 28.7636 16.2091 28.675C15.9683 28.5839 15.7516 28.3067 15.6445 27.8269C15.5393 27.3557 15.5576 26.7468 15.7405 26.1195C15.9165 25.5158 16.2844 25.0458 16.6896 24.7607C17.1055 24.4682 17.5108 24.4014 17.7686 24.4988C18.0172 24.5928 18.1996 24.824 18.2775 25.2299C18.3566 25.6422 18.3161 26.1987 18.1295 26.8385Z" fill="#141B25" stroke="#8990A5" stroke-width="0.561111"/>
<path id="&#209;&#130;&#209;&#131;&#208;&#187;&#208;&#190;&#208;&#178;&#208;&#184;&#209;&#137;&#208;&#181; 2" d="M19.5446 27.1607C19.3648 27.7773 19.014 28.3062 18.6283 28.6439C18.2282 28.9943 17.8588 29.0859 17.6242 28.9972C17.3834 28.9062 17.1666 28.629 17.0595 28.1492C16.9544 27.678 16.9726 27.0691 17.1555 26.4418C17.3316 25.8381 17.6994 25.368 18.1047 25.083C18.5206 24.7904 18.9258 24.7236 19.1836 24.8211C19.4323 24.9151 19.6147 25.1463 19.6925 25.5521C19.7716 25.9645 19.7311 26.521 19.5446 27.1607Z" fill="#141B25" stroke="#8990A5" stroke-width="0.561111"/>
<path id="&#209;&#130;&#209;&#131;&#208;&#187;&#208;&#190;&#208;&#178;&#208;&#184;&#209;&#137;&#208;&#181; 3" d="M21.0543 27.3751C20.8745 27.9917 20.5237 28.5206 20.138 28.8583C19.7379 29.2086 19.3685 29.3003 19.134 29.2116C18.8931 29.1205 18.6764 28.8434 18.5693 28.3635C18.4641 27.8924 18.4824 27.2834 18.6653 26.6561C18.8413 26.0524 19.2092 25.5824 19.6144 25.2974C20.0303 25.0048 20.4356 24.938 20.6934 25.0354C20.942 25.1295 21.1244 25.3607 21.2023 25.7665C21.2814 26.1789 21.2409 26.7353 21.0543 27.3751Z" fill="#141B25" stroke="#8990A5" stroke-width="0.561111"/>
<path id="&#209;&#130;&#209;&#131;&#208;&#187;&#208;&#190;&#208;&#178;&#208;&#184;&#209;&#137;&#208;&#181; 4" d="M22.3746 27.4825C22.1948 28.0991 21.844 28.628 21.4584 28.9657C21.0583 29.316 20.6888 29.4077 20.4543 29.319C20.2134 29.228 19.9967 28.9508 19.8896 28.471C19.7845 27.9998 19.8027 27.3908 19.9856 26.7636C20.1616 26.1598 20.5295 25.6898 20.9347 25.4048C21.3507 25.1122 21.7559 25.0454 22.0137 25.1429C22.2624 25.2369 22.4447 25.4681 22.5226 25.8739C22.6017 26.2863 22.5612 26.8427 22.3746 27.4825Z" fill="#141B25" stroke="#8990A5" stroke-width="0.561111"/>
<path id="&#209;&#130;&#209;&#131;&#208;&#187;&#208;&#190;&#208;&#178;&#208;&#184;&#209;&#137;&#208;&#181; 5" d="M24.0729 27.3751C23.8931 27.9917 23.5423 28.5206 23.1566 28.8583C22.7565 29.2086 22.3871 29.3003 22.1525 29.2116C21.9117 29.1205 21.6949 28.8434 21.5878 28.3635C21.4827 27.8924 21.5009 27.2834 21.6838 26.6561C21.8599 26.0524 22.2278 25.5824 22.633 25.2974C23.0489 25.0048 23.4542 24.938 23.7119 25.0354C23.9606 25.1295 24.143 25.3607 24.2208 25.7665C24.2999 26.1789 24.2594 26.7353 24.0729 27.3751Z" fill="#141B25" stroke="#8990A5" stroke-width="0.561111"/>
<path id="&#209;&#130;&#209;&#131;&#208;&#187;&#208;&#190;&#208;&#178;&#208;&#184;&#209;&#137;&#208;&#181; 6" d="M25.4889 27.2682C25.3091 27.8848 24.9583 28.4136 24.5726 28.7514C24.1725 29.1017 23.8031 29.1933 23.5685 29.1047C23.3277 29.0136 23.1109 28.7364 23.0039 28.2566C22.8987 27.7854 22.917 27.1765 23.0999 26.5492C23.2759 25.9455 23.6438 25.4754 24.049 25.1904C24.4649 24.8979 24.8702 24.8311 25.1279 24.9285C25.3766 25.0225 25.559 25.2537 25.6368 25.6596C25.716 26.0719 25.6754 26.6284 25.4889 27.2682Z" fill="#141B25" stroke="#8990A5" stroke-width="0.561111"/>
<path id="&#209;&#130;&#209;&#131;&#208;&#187;&#208;&#190;&#208;&#178;&#208;&#184;&#209;&#137;&#208;&#181; 7" d="M26.6207 27.2682C26.4409 27.8848 26.0901 28.4136 25.7045 28.7514C25.3043 29.1017 24.9349 29.1933 24.7004 29.1047C24.4595 29.0136 24.2428 28.7364 24.1357 28.2566C24.0305 27.7854 24.0488 27.1765 24.2317 26.5492C24.4077 25.9455 24.7756 25.4754 25.1808 25.1904C25.5968 24.8979 26.002 24.8311 26.2598 24.9285C26.5085 25.0225 26.6908 25.2537 26.7687 25.6596C26.8478 26.0719 26.8073 26.6284 26.6207 27.2682Z" fill="#141B25" stroke="#8990A5" stroke-width="0.561111"/>
<path id="&#209;&#130;&#209;&#131;&#208;&#187;&#208;&#190;&#208;&#178;&#208;&#184;&#209;&#137;&#208;&#181; 8" d="M27.8618 27.3831C27.7066 27.9154 27.4036 28.3719 27.0715 28.6627C26.7249 28.9661 26.4148 29.0364 26.2276 28.9657C26.0341 28.8925 25.8503 28.6657 25.7581 28.2528C25.6679 27.8486 25.6831 27.3232 25.8415 26.7802C25.9929 26.2607 26.3096 25.8563 26.6578 25.6113C27.0168 25.3588 27.3594 25.3065 27.5698 25.3861C27.7711 25.4622 27.924 25.6498 27.9903 25.9955C28.0579 26.3478 28.0238 26.8275 27.8618 27.3831Z" fill="#141B25" stroke="#8990A5" stroke-width="0.561111"/>
<path id="&#209;&#130;&#209;&#131;&#208;&#187;&#208;&#190;&#208;&#178;&#208;&#184;&#209;&#137;&#208;&#181; 9" d="M28.497 26.9961L28.5207 27.0441L28.5587 27.0812C28.7345 27.2528 28.898 27.5775 28.9827 27.9895C29.0661 28.3951 29.0649 28.8479 28.948 29.2487C28.9261 29.3239 28.9048 29.3564 28.8951 29.3681C28.8833 29.3661 28.8584 29.3593 28.817 29.3374C28.7659 29.3104 28.7047 29.2687 28.6328 29.2118C28.5318 29.1319 28.4318 29.0408 28.3247 28.9433C28.2731 28.8962 28.2197 28.8477 28.1638 28.7981C28.0116 28.6631 27.8223 28.5038 27.6377 28.434C27.5642 28.4062 27.4976 28.3859 27.4416 28.3694C27.4285 28.3656 27.4163 28.362 27.405 28.3587C27.365 28.3471 27.3355 28.3385 27.3078 28.3289C27.28 28.3192 27.2656 28.3122 27.2589 28.3084C27.2531 28.2947 27.2366 28.244 27.2341 28.1121C27.2311 27.9605 27.2466 27.7403 27.2854 27.4147C27.4565 26.8459 27.7267 26.6304 27.9226 26.5924C28.0996 26.558 28.3263 26.6506 28.497 26.9961ZM27.2539 28.3051C27.2541 28.3051 27.2549 28.3056 27.256 28.3067C27.2544 28.3056 27.2538 28.3051 27.2539 28.3051Z" fill="#141B25" stroke="#8990A5" stroke-width="0.561111"/>
<path id="&#208;&#189;&#208;&#190;&#208;&#179;&#208;&#176; &#208;&#183;&#208;&#176;&#208;&#180;&#208;&#189;&#209;&#143;&#209;&#143; 1" d="M28.1165 20.8946L28.1473 20.8745L28.1722 20.8458C28.3482 20.6432 28.5222 20.441 28.6933 20.2421C29.3409 19.4891 29.948 18.7833 30.4752 18.2799C30.8097 17.9605 31.0899 17.7447 31.3102 17.6464C31.5274 17.5496 31.6145 17.5929 31.6653 17.6502C31.6934 17.6818 31.7029 17.7099 31.7029 17.7512C31.7031 17.8042 31.6862 17.889 31.6302 18.0129C31.5171 18.2633 31.2885 18.5799 30.966 18.9589C30.648 19.3328 30.2582 19.7453 29.8383 20.1897L29.8362 20.1919C29.4177 20.6348 28.9713 21.1074 28.5499 21.5924C28.1302 22.0755 27.6449 22.7687 27.1372 23.4937L27.1035 23.5419C26.5787 24.2913 26.026 25.0783 25.4741 25.7446C24.9178 26.4164 24.3857 26.9362 23.9076 27.1786C23.6722 27.298 23.4645 27.3425 23.2815 27.3185C23.103 27.295 22.9257 27.2038 22.7499 27.0058C22.6234 26.8632 22.5689 26.7107 22.5629 26.5426C22.5566 26.3652 22.604 26.1495 22.7174 25.8944C22.9461 25.3804 23.4064 24.787 24.0096 24.1689C25.2095 22.9392 26.8918 21.6947 28.1165 20.8946Z" fill="#141B25" stroke="#8990A5" stroke-width="0.561111"/>
<path id="&#208;&#189;&#208;&#190;&#208;&#179;&#208;&#176; &#208;&#183;&#208;&#176;&#208;&#180;&#208;&#189;&#209;&#143;&#209;&#143; 2" d="M32.836 24.2604C32.6878 23.3661 32.4996 22.3876 32.3212 21.4597C32.199 20.8242 32.0814 20.2124 31.9843 19.6676C31.8634 18.9892 31.7739 18.4136 31.7409 18.0045C31.7261 17.8212 31.7239 17.6849 31.7314 17.593C31.7506 17.5944 31.7644 17.5978 31.7742 17.6014C31.7955 17.6092 31.8264 17.6278 31.8658 17.6886C31.9571 17.8295 32.0347 18.0979 32.129 18.5731C32.1668 18.7635 32.2061 18.9798 32.2503 19.2227C32.4189 20.1495 32.6577 21.4629 33.1492 23.1931C33.4868 25.0561 33.718 26.5489 33.8114 27.5857C33.8585 28.1079 33.869 28.4993 33.845 28.7595C33.8401 28.8124 33.8341 28.8565 33.8276 28.8928C33.7648 28.7867 33.6892 28.5958 33.6006 28.2719C33.4047 27.5561 33.1763 26.3143 32.836 24.2604Z" fill="#141B25" stroke="#8990A5" stroke-width="0.561111"/>
<path id="&#208;&#189;&#208;&#190;&#208;&#179;&#208;&#176; 7" d="M34.2333 29.3342C34.1918 29.2675 34.1426 29.2019 34.1025 29.1484C34.0984 29.1429 34.0943 29.1375 34.0904 29.1323C34.062 29.0943 34.0389 29.0627 34.0203 29.0352C34.0841 29.0096 34.1506 29.0101 34.2185 29.0318C34.3217 29.0647 34.4211 29.1463 34.4853 29.2492C34.5149 29.2967 34.5198 29.3235 34.5206 29.3316C34.5212 29.3369 34.5211 29.3408 34.5172 29.3502C34.5118 29.3631 34.4989 29.3857 34.4699 29.4179C34.4414 29.4495 34.4039 29.4835 34.3567 29.5212C34.3538 29.5173 34.3506 29.5131 34.3472 29.5084C34.3168 29.4671 34.2818 29.4119 34.2333 29.3342Z" fill="#141B25" stroke="#8990A5" stroke-width="0.561111"/>
<path id="&#208;&#189;&#208;&#190;&#208;&#179;&#208;&#176; 8" d="M34.8935 29.7638C34.8519 29.6972 34.8028 29.6316 34.7626 29.578C34.7585 29.5726 34.7545 29.5672 34.7506 29.562C34.7222 29.524 34.699 29.4924 34.6805 29.4649C34.7443 29.4393 34.8107 29.4398 34.8787 29.4615C34.9819 29.4944 35.0812 29.576 35.1454 29.6789C35.175 29.7264 35.1799 29.7532 35.1808 29.7613C35.1814 29.7666 35.1813 29.7705 35.1774 29.7799C35.172 29.7928 35.159 29.8153 35.13 29.8476C35.1016 29.8792 35.0641 29.9132 35.0169 29.9509C35.0139 29.947 35.0107 29.9428 35.0073 29.9381C34.9769 29.8967 34.942 29.8416 34.8935 29.7638Z" fill="#141B25" stroke="#8990A5" stroke-width="0.561111"/>
<path id="&#208;&#189;&#208;&#190;&#208;&#179;&#208;&#176; 9" d="M35.5546 30.0861C35.5131 30.0194 35.4639 29.9539 35.4238 29.9003C35.4196 29.8948 35.4156 29.8895 35.4117 29.8843C35.3833 29.8462 35.3602 29.8147 35.3416 29.7872C35.4054 29.7615 35.4719 29.762 35.5398 29.7837C35.643 29.8167 35.7424 29.8982 35.8065 30.0011C35.8362 30.0486 35.841 30.0755 35.8419 30.0835C35.8425 30.0889 35.8424 30.0928 35.8385 30.1022C35.8331 30.115 35.8202 30.1376 35.7912 30.1699C35.7627 30.2015 35.7252 30.2355 35.678 30.2731C35.6751 30.2693 35.6719 30.265 35.6685 30.2604C35.6381 30.219 35.6031 30.1639 35.5546 30.0861Z" fill="#141B25" stroke="#8990A5" stroke-width="0.561111"/>
<path id="&#208;&#189;&#208;&#190;&#208;&#179;&#208;&#176; 10" d="M36.121 30.4084C36.0795 30.3417 36.0303 30.2761 35.9902 30.2226C35.9861 30.2171 35.982 30.2117 35.9781 30.2065C35.9497 30.1685 35.9266 30.1369 35.908 30.1094C35.9718 30.0838 36.0383 30.0843 36.1062 30.106C36.2094 30.1389 36.3088 30.2205 36.373 30.3234C36.4026 30.3709 36.4074 30.3977 36.4083 30.4058C36.4089 30.4111 36.4088 30.415 36.4049 30.4244C36.3995 30.4373 36.3866 30.4599 36.3576 30.4921C36.3291 30.5237 36.2916 30.5577 36.2444 30.5954C36.2415 30.5916 36.2383 30.5873 36.2349 30.5827C36.2045 30.5413 36.1695 30.4861 36.121 30.4084Z" fill="#141B25" stroke="#8990A5" stroke-width="0.561111"/>
<path id="&#208;&#189;&#208;&#190;&#208;&#179;&#208;&#176; 11" d="M36.9078 31.0866C36.8406 30.9787 36.7642 30.8681 36.6932 30.7653C36.6864 30.7555 36.6797 30.7457 36.673 30.736C36.5942 30.6218 36.5243 30.5191 36.4701 30.427C36.4552 30.4017 36.4427 30.3791 36.4322 30.359C36.4831 30.3688 36.5536 30.3967 36.6483 30.4606C36.8379 30.5886 37.042 30.8129 37.1995 31.0653C37.3354 31.2832 37.3391 31.4476 37.3148 31.5564C37.3007 31.6192 37.2746 31.675 37.2439 31.7212C37.228 31.6899 37.2113 31.6554 37.192 31.6156C37.1746 31.5797 37.1551 31.5394 37.1323 31.4935C37.0734 31.3749 37.0009 31.2358 36.9078 31.0866ZM36.3841 30.2421C36.3841 30.2421 36.3842 30.2424 36.3842 30.243L36.3841 30.2421Z" fill="#141B25" stroke="#8990A5" stroke-width="0.561111"/>
<path id="&#208;&#186;&#209;&#128;&#209;&#139;&#208;&#187;&#208;&#190;" d="M32.3146 10.8237C32.5773 11.1149 32.8062 11.962 32.1155 13.3989C31.4279 14.8292 29.84 16.8112 26.5443 19.3168C25.2458 20.3041 24.0545 21.2335 22.9817 22.0705C21.7478 23.0331 20.6707 23.8734 19.7675 24.5388C18.9237 25.1604 18.2414 25.6219 17.7333 25.884C17.4783 26.0155 17.2768 26.0916 17.1264 26.1164C16.975 26.1413 16.907 26.1102 16.8733 26.0729C16.84 26.036 16.8125 25.9527 16.8502 25.7761C16.8867 25.605 16.9778 25.3806 17.1261 25.1058C17.4218 24.5579 17.9279 23.8403 18.6085 23.001C19.9682 21.324 22.0089 19.1801 24.4083 16.9683C26.8126 14.7518 28.6743 13.0451 30.0146 11.9803C30.686 11.4471 31.218 11.0819 31.6169 10.8932C31.8167 10.7987 31.9727 10.7537 32.0897 10.7481C32.2019 10.7427 32.2691 10.7732 32.3146 10.8237Z" fill="#141B25" stroke="#8990A5" stroke-width="0.280556"/>
<path id="&#208;&#186;&#209;&#128;&#209;&#139;&#208;&#187;&#208;&#190; &#208;&#178;&#208;&#190;&#208;&#187;&#208;&#189;&#209;&#139;" d="M17.8048 24.5076L18.3169 24.1428M21.4263 21.9282L21.0605 22.1888M21.4263 21.9282L21.5327 21.5272M21.4263 21.9282L21.8146 21.672M18.3193 23.65C18.1399 23.8019 17.9585 23.9582 17.7762 24.1185L18.3193 23.65ZM18.3193 23.65L18.3674 23.3547M18.3193 23.65C18.4938 23.5022 18.6664 23.3587 18.8359 23.2199M18.3193 23.65L18.8359 23.2199M18.8359 23.2199L18.9125 22.8887M18.8359 23.2199C19.0638 23.0334 19.2862 22.8554 19.5003 22.6873M19.5003 22.6873L19.5755 22.4253M19.5003 22.6873C19.7634 22.4807 20.0141 22.2889 20.2472 22.1142M19.5003 22.6873L20.2472 22.1142M20.2472 22.1142L20.291 21.8136M20.2472 22.1142C20.5144 21.914 20.7584 21.7363 20.9718 21.5844M20.9718 21.5844C21.2536 21.3839 21.4819 21.2285 21.639 21.1262L21.7438 21.0565M20.9718 21.5844L21.0065 21.2019M21.0605 22.1888L21.0976 21.9509M21.0605 22.1888L20.6947 22.4493M20.6947 22.4493L20.7569 22.2421M20.6947 22.4493L20.2557 22.7619M20.2557 22.7619L20.3324 22.5017M20.2557 22.7619L19.707 23.1528M19.707 23.1528L19.7965 22.9082M19.707 23.1528L19.3412 23.4133M19.3412 23.4133L19.4401 23.1095M19.3412 23.4133L18.829 23.7781M18.829 23.7781L18.895 23.5755M18.829 23.7781L18.3169 24.1428M18.3169 24.1428L18.4364 23.8642M23.8987 20.2966L23.7103 20.4209M23.7103 20.4209L23.8228 20.0892M23.7103 20.4209L23.4467 20.5948M23.4467 20.5948L23.5585 20.262M23.4467 20.5948L22.9441 20.9266M22.9441 20.9266L23.0697 20.5882M22.9441 20.9266L22.5798 21.167M22.5798 21.167L22.7029 20.8644M22.5798 21.167L22.2029 21.4157M22.2029 21.4157L22.355 21.0645M22.2029 21.4157L21.8146 21.672M21.8146 21.672L21.9391 21.3342M24.2267 19.4032L24.5276 19.2028L24.9592 18.8276M24.2267 19.4032L24.3529 19.1091M24.2267 19.4032L23.5119 19.8792M23.5119 19.8792L23.6768 19.5627M23.5119 19.8792L22.9476 20.2549M22.9476 20.2549L23.0707 19.9522M22.9476 20.2549L22.2933 20.6906M22.2933 20.6906L22.4701 20.3566M22.2933 20.6906L21.7438 21.0565M21.7438 21.0565L21.7802 20.7725M17.7902 23.9327L19.9775 21.9152M32.1661 10.6727L31.3267 11.447M31.3267 11.447L31.2509 11.2398M31.3267 11.447L30.3895 12.3114M30.3895 12.3114L30.2586 11.9541M30.3895 12.3114L29.158 13.4473M29.158 13.4473L29.147 13.0339M29.158 13.4473L27.8639 14.641M27.8639 14.641L27.8912 14.2045M27.8639 14.641L26.9894 15.4476M26.9894 15.4476L26.9911 14.9411M26.9894 15.4476L25.4154 16.8994M25.4154 16.8994L25.4838 16.3194M25.4154 16.8994L24.1212 18.0931M24.1212 18.0931L24.1797 17.4862M24.1212 18.0931L22.9322 19.1899M22.9322 19.1899L22.9652 18.6421M22.9322 19.1899L21.7777 20.2548M21.7777 20.2548L21.8557 19.7011M21.7777 20.2548L20.7768 21.178M20.7768 21.178L20.8252 20.707M20.7768 21.178L19.9775 21.9152M19.9775 21.9152L20.0336 21.5309M32.5861 11.8194L32.2534 12.1331M32.2534 12.1331L32.1294 11.7944M32.2534 12.1331L31.348 12.9865M31.348 12.9865L31.2159 12.6257M31.348 12.9865L30.5115 13.775M30.5115 13.775L30.3895 13.4417M30.5115 13.775L29.5946 14.6394M29.5946 14.6394L29.4608 14.274M29.5946 14.6394L28.6555 15.5247M28.6555 15.5247L28.5184 15.1505M28.6555 15.5247L28.0467 16.0986M28.0467 16.0986L27.9068 15.7164M28.0467 16.0986L27.7424 16.3855L27.438 16.6724L26.2538 17.702M25.6166 19.2374L28.0467 17.4229M25.6166 19.2374L25.2005 19.5627L25.1533 19.483M25.6166 19.2374L25.1533 19.483M25.6166 19.2374L25.7834 19.1091M26.8909 18.2573L27.296 17.9457L28.0467 17.4229M26.8909 18.2573L26.8642 17.9166M26.8909 18.2573L26.2538 18.7474M26.2538 18.7474L26.2417 18.3889M26.2538 18.7474L25.7834 19.1091M26.8642 16.6724L26.8909 17.0469L26.2538 17.702M26.2538 17.702L26.1912 17.4229M26.2538 17.702L25.3907 18.4524M25.3907 18.4524L25.2949 18.0931M25.3907 18.4524L24.9592 18.8276M24.9592 18.8276L24.9592 18.551M28.0467 17.4229L27.9068 17.1543M25.1062 19.4032L25.1533 19.483M25.7195 18.8276L25.7834 19.1091" stroke="#8990A5" stroke-width="0.280556"/>
<path id="&#208;&#186;&#209;&#128;&#209;&#139;&#208;&#187;&#208;&#190;_2" d="M36.8134 16.2919C36.9849 16.8436 36.8799 18.0236 35.6608 19.3637C34.4419 20.7034 32.1131 22.1951 27.8679 23.3384C26.1934 23.7893 24.6491 24.2317 23.2585 24.63C21.6596 25.088 20.2641 25.4878 19.1079 25.7754C18.0279 26.044 17.1712 26.2108 16.5637 26.236C16.2594 26.2486 16.0288 26.2251 15.8671 26.168C15.7084 26.112 15.6289 26.0291 15.5972 25.9271C15.5659 25.8262 15.5829 25.6879 15.684 25.4988C15.7847 25.3103 15.9597 25.0901 16.2098 24.8424C16.7092 24.3478 17.4833 23.7682 18.4787 23.1409C20.4674 21.8875 23.3152 20.4593 26.55 19.1553C29.7927 17.8481 32.2988 16.848 34.0421 16.3275C34.9152 16.0668 35.5843 15.9305 36.054 15.9315C36.5282 15.9324 36.7445 16.0703 36.8134 16.2919Z" fill="#141B25" stroke="#8990A5" stroke-width="0.280556"/>
<path id="&#208;&#186;&#209;&#128;&#209;&#139;&#208;&#187;&#208;&#190; &#208;&#178;&#208;&#190;&#208;&#187;&#208;&#189;&#209;&#139;_2" d="M17.1244 24.5576L17.7754 24.4098M21.728 23.5122L21.263 23.6178M21.728 23.5122L21.9833 23.0859M21.728 23.5122L22.2141 23.4248M17.9598 23.8118C17.7229 23.8929 17.4822 23.9783 17.2393 24.068L17.9598 23.8118ZM17.9598 23.8118L18.1173 23.4805M17.9598 23.8118C18.1903 23.7329 18.4173 23.658 18.6395 23.5871M17.9598 23.8118L18.6395 23.5871M18.6395 23.5871L18.839 23.2286M18.6395 23.5871C18.9381 23.4919 19.228 23.4039 19.5059 23.3231M19.5059 23.3231L19.6785 23.0478M19.5059 23.3231C19.8475 23.2238 20.1711 23.1352 20.4706 23.0574M19.5059 23.3231L20.4706 23.0574M20.4706 23.0574L20.6257 22.7171M20.4706 23.0574C20.8138 22.9682 21.1255 22.893 21.3967 22.8316M21.3967 22.8316C21.7549 22.7505 22.0424 22.6934 22.2386 22.6597L22.3699 22.6353M21.3967 22.8316L21.5729 22.3864M21.263 23.6178L21.3882 23.3499M21.263 23.6178L20.798 23.7234M20.798 23.7234L20.9372 23.5074M20.798 23.7234L20.24 23.8501M20.24 23.8501L20.4134 23.5779M20.24 23.8501L19.5425 24.0085M19.5425 24.0085L19.723 23.7627M19.5425 24.0085L19.0775 24.1141M19.0775 24.1141L19.2894 23.8017M19.0775 24.1141L18.4264 24.262M18.4264 24.262L18.5677 24.0537M18.4264 24.262L17.7754 24.4098M17.7754 24.4098L17.9988 24.14M24.8231 22.9557L24.5872 22.9981M24.5872 22.9981L24.8231 22.6597M24.5872 22.9981L24.2573 23.0574M24.2573 23.0574L24.4929 22.7171M24.2573 23.0574L23.6281 23.1706M23.6281 23.1706L23.8796 22.8316M23.6281 23.1706L23.1719 23.2526M23.1719 23.2526L23.4078 22.9557M23.1719 23.2526L22.7002 23.3374M22.7002 23.3374L22.9832 22.9981M22.7002 23.3374L22.2141 23.4248M22.2141 23.4248L22.4643 23.0859M25.861 21.9887L25.4836 22.0586M25.4836 22.0586L25.7195 21.7739M25.4836 22.0586L24.5872 22.2247M24.5872 22.2247L24.8703 21.935M24.5872 22.2247L23.8796 22.3557M23.8796 22.3557L24.1155 22.0586M23.8796 22.3557L23.0591 22.5077M23.0591 22.5077L23.3606 22.2036M23.0591 22.5077L22.3699 22.6353M22.3699 22.6353L22.5115 22.311M17.3221 23.8501L20.2722 22.6597M36.7116 16.0259L35.5794 16.4828M35.5794 16.4828L35.5794 16.1871M35.5794 16.4828L34.3153 16.9929M34.3153 16.9929L34.3153 16.4828M34.3153 16.9929L32.6544 17.6631M32.6544 17.6631L32.796 17.154M32.6544 17.6631L30.9089 18.3675M30.9089 18.3675L31.0976 17.8524M30.9089 18.3675L29.7295 18.8434M29.7295 18.8434L29.9182 18.2284M29.7295 18.8434L27.6066 19.7M27.6066 19.7L27.8896 19.0342M27.6066 19.7L25.861 20.4044M25.861 20.4044L26.1441 19.7M25.861 20.4044L24.2573 21.0516M24.2573 21.0516L24.4929 20.4044M24.2573 21.0516L22.7002 21.6799M22.7002 21.6799L22.9832 21.0516M22.7002 21.6799L21.3502 22.2247M21.3502 22.2247L21.5729 21.6799M21.3502 22.2247L20.2722 22.6597M20.2722 22.6597L20.4706 22.2247M29.7295 20.592L30.1423 20.4189L30.5551 20.2457M36.7116 17.6631L36.2603 17.8524M36.2603 17.8524L36.2603 17.3689M36.2603 17.8524L35.0325 18.3675M35.0325 18.3675L35.0325 17.8524M35.0325 18.3675L33.898 18.8434M33.898 18.8434L33.898 18.3675M33.898 18.8434L32.6544 19.365M32.6544 19.365L32.6544 18.8434M32.6544 19.365L31.3807 19.8994M31.3807 19.8994L31.3807 19.365M31.3807 19.8994L30.5551 20.2457M30.5551 20.2457L30.5551 19.7M26.9461 22.6597L27.7694 22.4316M29.1162 22.0586L28.5928 22.2036M28.5928 22.2036L28.6916 21.7739M28.5928 22.2036L27.7694 22.4316M27.7694 22.4316L27.8896 21.9887" stroke="#8990A5" stroke-width="0.280556"/>
<path id="&#208;&#186;&#209;&#128;&#209;&#139;&#208;&#187;&#208;&#190;_3" d="M26.6469 25.149C26.638 25.4242 26.4424 25.9722 25.7588 26.3664C25.075 26.7608 23.8782 27.0128 21.8635 26.6231C21.0443 26.4646 20.294 26.3347 19.6214 26.2182C18.8534 26.0851 18.1867 25.9696 17.6342 25.8493C17.1189 25.737 16.7388 25.6273 16.4936 25.5088C16.2326 25.3826 16.2356 25.3038 16.2358 25.2979L16.2358 25.2977C16.236 25.2915 16.2385 25.2631 16.2881 25.2111C16.3393 25.1575 16.4272 25.0939 16.5629 25.0268C16.834 24.8926 17.2426 24.7698 17.7697 24.6711C18.8194 24.4746 20.2777 24.3847 21.8927 24.4531C23.5293 24.5223 24.7725 24.5808 25.6046 24.7134C26.0237 24.7801 26.3075 24.8615 26.4787 24.9546C26.6393 25.042 26.6483 25.1061 26.6469 25.149Z" fill="#141B25" stroke="#8990A5" stroke-width="0.561111"/>
<path id="&#208;&#186;&#209;&#128;&#209;&#139;&#208;&#187;&#208;&#190; &#208;&#178;&#208;&#190;&#208;&#187;&#208;&#189;&#209;&#139;_3" d="M16.5205 25.3194L17.181 25.3954M16.7564 24.8897C17.0117 24.885 17.2638 24.8837 17.5112 24.8852M17.5112 24.8852L17.7471 24.6211M17.5112 24.8852C17.7519 24.8867 17.9882 24.8909 18.2189 24.8973M17.5112 24.8852L18.2189 24.8973M18.2189 24.8973L18.5019 24.6211M18.2189 24.8973C18.5289 24.9059 18.8287 24.9186 19.1152 24.9341M19.1152 24.9341L19.3511 24.7285M19.1152 24.9341C19.4674 24.9531 19.7995 24.9765 20.1059 25.0021M19.1152 24.9341L20.1059 25.0021M20.1059 25.0021L20.3418 24.7285M20.1059 25.0021C20.457 25.0314 20.7744 25.0636 21.0494 25.0954M21.0494 25.0954C21.4128 25.1374 21.7024 25.1787 21.8986 25.212L21.191 25.8566L20.7192 25.8024M21.0494 25.0954L21.3325 24.7285M20.7192 25.8024L20.9079 25.588M20.7192 25.8024L20.2474 25.7481M20.2474 25.7481L20.4362 25.588M20.2474 25.7481L19.6813 25.683M19.6813 25.683L19.9172 25.4806M19.6813 25.683L18.9737 25.6016M18.9737 25.6016L19.2096 25.4269M18.9737 25.6016L18.5019 25.5473M18.5019 25.5473L18.785 25.3194M18.5019 25.5473L17.8414 25.4714M17.8414 25.4714L18.0302 25.3194M17.8414 25.4714L17.181 25.3954M17.181 25.3954L17.464 25.212" stroke="#8990A5" stroke-width="0.280556"/>
<path id="&#208;&#186;&#209;&#128;&#209;&#139;&#208;&#187;&#208;&#190; &#208;&#178;&#208;&#190;&#208;&#187;&#208;&#189;&#209;&#139;_4" d="M21.4098 25.7302L21.7911 25.7302M21.7911 25.2573C22.0457 25.2797 21.9155 25.2295 22.1617 25.2573M22.1617 25.2573L22.4181 25.0194M22.1617 25.2573C22.4012 25.2843 22.6361 25.3136 22.8652 25.3445M22.1617 25.2573L22.8652 25.3445M22.8652 25.3445L23.1697 25.0995M22.8652 25.3445C23.1732 25.386 23.4707 25.4304 23.7547 25.4763M23.7547 25.4763L24.0064 25.2967M23.7547 25.4763C24.1037 25.5326 24.4325 25.5912 24.7355 25.6492M23.7547 25.4763L24.7355 25.6492M24.7355 25.6492L24.9927 25.4019M24.7355 25.6492C25.0827 25.7156 25.396 25.7814 25.6673 25.8422M25.6673 25.8422C26.0256 25.9226 26.3105 25.9946 26.5032 26.0485L25.7458 26.6152L25.2806 26.5111M25.6673 25.8422L25.9791 25.5071M25.2806 26.5111L25.486 26.3177M25.2806 26.5111L24.8153 26.407M24.8153 26.407L25.0163 26.2676M24.8153 26.407L24.257 26.282M24.257 26.282L24.5084 26.1056M24.257 26.282L23.5591 26.1258M23.5591 26.1258L23.8082 25.9769M23.5591 26.1258L23.0938 26.0217M23.0938 26.0217L23.3943 25.8249M23.0938 26.0217L22.4425 25.876M22.4425 25.876L22.6428 25.7447M22.4425 25.876L21.7911 25.7302M21.7911 25.7302L22.0879 25.5776" stroke="#8990A5" stroke-width="0.280556"/>
<g id="&#208;&#189;&#208;&#190;&#208;&#179;&#208;&#176; &#208;&#183;&#208;&#176;&#208;&#180;&#208;&#189;&#209;&#143;&#209;&#143;">
<path id="&#208;&#189;&#208;&#190;&#208;&#179;&#208;&#176; &#208;&#183;&#208;&#176;&#208;&#180;&#208;&#189;&#209;&#143;&#209;&#143; 1_2" d="M25.4749 22.8292L25.5057 22.8091L25.5306 22.7804C25.7066 22.5778 25.8806 22.3756 26.0517 22.1767C26.6993 21.4237 27.3064 20.7179 27.8336 20.2145C28.1681 19.895 28.4483 19.6792 28.6686 19.581C28.8858 19.4842 28.9729 19.5275 29.0237 19.5847C29.0518 19.6164 29.0612 19.6445 29.0613 19.6857C29.0615 19.7388 29.0446 19.8236 28.9886 19.9475C28.8755 20.1978 28.6469 20.5144 28.3244 20.8935C28.0064 21.2673 27.6166 21.6799 27.1967 22.1243L27.1946 22.1264C26.7761 22.5694 26.3297 23.0419 25.9083 23.5269C25.4886 24.0101 25.0033 24.7032 24.4956 25.4283L24.4619 25.4765C23.9371 26.2259 23.3844 27.0128 22.8325 27.6792C22.2762 28.351 21.7441 28.8708 21.266 29.1132C21.0306 29.2326 20.8229 29.277 20.6399 29.253C20.4614 29.2296 20.2841 29.1384 20.1083 28.9403C19.9818 28.7978 19.9273 28.6453 19.9213 28.4772C19.915 28.2998 19.9624 28.0841 20.0758 27.829C20.3045 27.315 20.7648 26.7215 21.368 26.1035C22.5679 24.8738 24.2502 23.6293 25.4749 22.8292Z" fill="#141B25" stroke="#8990A5" stroke-width="0.561111"/>
<path id="&#208;&#189;&#208;&#190;&#208;&#179;&#208;&#176; &#208;&#183;&#208;&#176;&#208;&#180;&#208;&#189;&#209;&#143;&#209;&#143; 2_2" d="M30.1953 26.195C30.0472 25.3006 29.859 24.3222 29.6806 23.3943C29.5584 22.7588 29.4408 22.147 29.3437 21.6021C29.2228 20.9238 29.1333 20.3481 29.1003 19.939C29.0855 19.7558 29.0833 19.6195 29.0908 19.5276C29.11 19.5289 29.1237 19.5324 29.1336 19.536C29.1549 19.5438 29.1858 19.5624 29.2252 19.6232C29.3165 19.7641 29.394 20.0325 29.4884 20.5077C29.5262 20.698 29.5655 20.9144 29.6097 21.1572C29.7782 22.0841 30.0171 23.3974 30.5085 25.1277C30.8461 26.9906 31.0774 28.4834 31.1708 29.5203C31.2178 30.0424 31.2284 30.4339 31.2044 30.6941C31.1995 30.7469 31.1935 30.791 31.1869 30.8274C31.1241 30.7213 31.0485 30.5304 30.9599 30.2065C30.7641 29.4907 30.5356 28.2489 30.1953 26.195Z" fill="#141B25" stroke="#8990A5" stroke-width="0.561111"/>
<path id="&#208;&#189;&#208;&#190;&#208;&#179;&#208;&#176; 7_2" d="M31.5927 31.2682C31.5511 31.2016 31.502 31.136 31.4618 31.0824C31.4577 31.077 31.4537 31.0716 31.4498 31.0664C31.4214 31.0284 31.3982 30.9968 31.3797 30.9693C31.4435 30.9437 31.5099 30.9442 31.5779 30.9659C31.6811 30.9988 31.7805 31.0804 31.8446 31.1833C31.8743 31.2308 31.8791 31.2576 31.88 31.2657C31.8806 31.271 31.8805 31.2749 31.8766 31.2843C31.8712 31.2972 31.8582 31.3197 31.8292 31.352C31.8008 31.3836 31.7633 31.4176 31.7161 31.4553C31.7131 31.4514 31.71 31.4472 31.7065 31.4425C31.6762 31.4011 31.6412 31.346 31.5927 31.2682Z" fill="#141B25" stroke="#8990A5" stroke-width="0.561111"/>
<path id="&#208;&#189;&#208;&#190;&#208;&#179;&#208;&#176; 8_2" d="M32.2529 31.6984C32.2113 31.6317 32.1621 31.5662 32.122 31.5126C32.1179 31.5071 32.1139 31.5018 32.11 31.4966C32.0815 31.4585 32.0584 31.427 32.0398 31.3995C32.1036 31.3739 32.1701 31.3743 32.238 31.396C32.3412 31.429 32.4406 31.5106 32.5048 31.6135C32.5344 31.661 32.5393 31.6878 32.5402 31.6958C32.5407 31.7012 32.5407 31.7051 32.5368 31.7145C32.5314 31.7274 32.5184 31.7499 32.4894 31.7822C32.461 31.8138 32.4234 31.8478 32.3763 31.8855C32.3733 31.8816 32.3701 31.8773 32.3667 31.8727C32.3363 31.8313 32.3014 31.7762 32.2529 31.6984Z" fill="#141B25" stroke="#8990A5" stroke-width="0.561111"/>
<path id="&#208;&#189;&#208;&#190;&#208;&#179;&#208;&#176; 9_2" d="M32.913 32.0207C32.8715 31.954 32.8223 31.8884 32.7822 31.8349C32.778 31.8294 32.774 31.824 32.7701 31.8188C32.7417 31.7808 32.7186 31.7492 32.7 31.7217C32.7638 31.6961 32.8303 31.6966 32.8982 31.7183C33.0014 31.7513 33.1008 31.8328 33.1649 31.9357C33.1946 31.9832 33.1994 32.01 33.2003 32.0181C33.2009 32.0235 33.2008 32.0273 33.1969 32.0367C33.1915 32.0496 33.1786 32.0722 33.1495 32.1044C33.1211 32.136 33.0836 32.17 33.0364 32.2077C33.0335 32.2039 33.0303 32.1996 33.0269 32.195C32.9965 32.1536 32.9615 32.0984 32.913 32.0207Z" fill="#141B25" stroke="#8990A5" stroke-width="0.561111"/>
<path id="&#208;&#189;&#208;&#190;&#208;&#179;&#208;&#176; 10_2" d="M33.4794 32.3425C33.4379 32.2758 33.3887 32.2102 33.3486 32.1567C33.3444 32.1512 33.3404 32.1458 33.3365 32.1406C33.3081 32.1026 33.285 32.071 33.2664 32.0435C33.3302 32.0179 33.3967 32.0184 33.4646 32.0401C33.5678 32.073 33.6672 32.1546 33.7314 32.2575C33.761 32.305 33.7658 32.3318 33.7667 32.3399C33.7673 32.3452 33.7672 32.3491 33.7633 32.3585C33.7579 32.3714 33.745 32.394 33.716 32.4262C33.6875 32.4578 33.65 32.4918 33.6028 32.5295C33.5999 32.5256 33.5967 32.5214 33.5933 32.5167C33.5629 32.4754 33.5279 32.4202 33.4794 32.3425Z" fill="#141B25" stroke="#8990A5" stroke-width="0.561111"/>
<path id="&#208;&#189;&#208;&#190;&#208;&#179;&#208;&#176; 11_2" d="M34.2662 33.0211C34.199 32.9133 34.1226 32.8026 34.0516 32.6999C34.0448 32.69 34.0381 32.6802 34.0314 32.6705C33.9526 32.5563 33.8827 32.4537 33.8285 32.3616C33.8136 32.3363 33.8011 32.3137 33.7906 32.2936C33.8415 32.3034 33.912 32.3312 34.0067 32.3952C34.1963 32.5232 34.4004 32.7474 34.5579 32.9999C34.6938 33.2178 34.6975 33.3822 34.6732 33.491C34.6591 33.5538 34.633 33.6096 34.6023 33.6558C34.5864 33.6245 34.5697 33.59 34.5504 33.5502C34.533 33.5142 34.5135 33.474 34.4907 33.4281C34.4318 33.3095 34.3593 33.1704 34.2662 33.0211ZM33.7425 32.1767C33.7425 32.1767 33.7426 32.177 33.7426 32.1776L33.7425 32.1767Z" fill="#141B25" stroke="#8990A5" stroke-width="0.561111"/>
<g id="&#209;&#128;&#209;&#131;&#208;&#177;&#209;&#135;&#208;&#184;&#208;&#186;&#208;&#184; &#208;&#189;&#208;&#176; &#208;&#189;&#208;&#190;&#208;&#179;&#208;&#181;">
<path id="Vector 3904" d="M21.0977 28.0056L21.7108 27.33M25.4851 23.1709L25.2413 23.4395M25.2413 23.4395L25.2018 23.2246L25.0131 23.3858L25.0463 23.6544M25.2413 23.4395L25.0463 23.6544M25.0463 23.6544L24.8716 23.8469M24.8716 23.8469L24.7772 23.547L24.4942 23.7081L24.6076 24.1379M24.8716 23.8469L24.6076 24.1379M24.6076 24.1379L24.4126 24.3527M24.4126 24.3527L24.2583 23.8469L24.0224 24.0304L24.1639 24.5676L24.0224 24.7827M24.4126 24.3527L24.0224 24.7827M24.0224 24.7827L23.7865 24.2453L23.4563 24.5139L23.7301 25.1048M24.0224 24.7827L23.7301 25.1048M23.7301 25.1048L23.4091 25.4585M23.4091 25.4585L23.1732 24.7827M23.4091 25.4585L23.1095 25.7887M22.843 25.1585L23.1095 25.7887M23.1095 25.7887L22.843 26.0823M22.843 26.0823L22.5599 25.4271L22.3241 25.642L22.6089 26.3403M22.843 26.0823L22.6089 26.3403M22.6089 26.3403L22.3712 26.6022M22.3712 26.6022L22.0882 25.9106L21.8995 26.1255L22.2189 26.7701M22.3712 26.6022L22.2189 26.7701M22.2189 26.7701L21.9859 27.0268M21.9859 27.0268L21.6636 26.3941L21.3805 26.7164L21.7108 27.33M21.9859 27.0268L21.7108 27.33" stroke="#8990A5" stroke-width="0.280556"/>
<path id="Vector 3905" d="M21.427 27.6301L21.0967 27.0392L20.8135 27.3615L21.0967 28.0061L21.427 27.6301ZM21.427 27.6301L22.0401 27.8987M21.7098 27.3615L22.4647 27.5764L22.7949 27.2541L21.9929 27.0392L22.2288 26.7706L23.0779 26.878L23.4082 26.502L22.6062 26.3409L22.8892 26.0723L23.5969 26.2334" stroke="#8990A5" stroke-width="0.280556"/>
<path id="&#209;&#128;&#209;&#131;&#208;&#177;&#209;&#135;&#208;&#184;&#208;&#186;&#208;&#184; &#208;&#189;&#208;&#176; &#208;&#189;&#208;&#190;&#208;&#179;&#208;&#181;_2" d="M23.1259 25.7499L23.8335 25.8968M23.8335 25.8968C22.9284 27.1599 22.0414 28.2216 21.8049 27.9524C21.6162 27.7375 21.1602 28.0061 21.1916 28.1135C21.0973 27.9345 20.8142 27.8987 20.3896 27.8987C21.3804 26.6631 23.6731 23.9879 24.7299 23.6012L25.4375 23.064L25.5791 23.2788C25.5342 23.3508 25.4869 23.4261 25.4375 23.5044M23.8335 25.8968C23.9122 25.7871 23.9909 25.6758 24.0694 25.5638M24.0694 25.5638L23.4089 25.4276L23.7392 25.1053L24.2759 25.2664M24.0694 25.5638C24.1385 25.4651 24.2075 25.3658 24.2759 25.2664M24.2759 25.2664C24.3654 25.1364 24.454 25.0062 24.5412 24.877M24.5412 24.877L24.0222 24.783L24.1638 24.6218H24.7122M24.5412 24.877C24.5989 24.7914 24.656 24.7062 24.7122 24.6218M24.7122 24.6218C24.7725 24.5313 24.8319 24.4416 24.89 24.3532M24.89 24.3532H24.3996L24.5884 24.1383L25.0657 24.0846M24.89 24.3532C24.9499 24.2622 25.0085 24.1725 25.0657 24.0846M25.0657 24.0846C25.112 24.0133 25.1574 23.9431 25.2016 23.8743M25.2016 23.8743L24.89 23.816L25.0657 23.6549L25.3079 23.7086M25.2016 23.8743C25.2378 23.8181 25.2733 23.7628 25.3079 23.7086M25.3079 23.7086C25.3525 23.6386 25.3958 23.5705 25.4375 23.5044M25.4375 23.5044L25.2488 23.44" stroke="#8990A5" stroke-width="0.280556"/>
</g>
</g>
<g id="&#208;&#189;&#208;&#190;&#208;&#179;&#208;&#176; &#209;&#129;&#209;&#128;&#208;&#181;&#208;&#180;&#208;&#189;&#209;&#143;&#209;&#143;">
<path id="&#208;&#189;&#208;&#190;&#208;&#179;&#208;&#176; 1_2" d="M17.2369 27.8318C17.5337 28.3411 17.709 28.894 17.755 29.3494C17.778 29.5774 17.7674 29.7679 17.7324 29.9112C17.6977 30.0536 17.6443 30.1303 17.5923 30.1696C17.4365 30.2873 17.1328 30.3444 16.7679 30.2235C16.4139 30.1062 16.0347 29.8289 15.7521 29.344C15.4641 28.85 15.3412 28.3005 15.344 27.8412C15.3468 27.3593 15.4828 27.0643 15.6133 26.9657C15.7698 26.8474 16.0159 26.8042 16.314 26.9264C16.6104 27.0479 16.945 27.3309 17.2369 27.8318Z" fill="#141B25" stroke="#8990A5" stroke-width="0.561111"/>
<path id="&#208;&#189;&#208;&#190;&#208;&#179;&#208;&#176; 2_2" d="M19.0315 28.8712C19.2528 28.7805 19.4832 28.6779 19.7066 28.5785C19.7515 28.5585 19.796 28.5387 19.8401 28.5191C20.1073 28.4006 20.3598 28.2908 20.5843 28.2082C20.8133 28.124 20.9906 28.0768 21.1127 28.0693C21.1654 28.0661 21.1926 28.0705 21.205 28.0743C21.3013 28.2923 21.2551 28.5476 20.9898 28.8535C20.7143 29.1713 20.2371 29.4911 19.6116 29.7475C18.9913 30.0018 18.471 30.0829 18.1012 30.0503C17.7143 30.0162 17.5706 29.8714 17.5387 29.7707C17.5147 29.6947 17.5256 29.666 17.5326 29.6511C17.5456 29.6229 17.5856 29.5676 17.7042 29.4866C17.9475 29.3202 18.3698 29.1425 19.0315 28.8712ZM21.214 28.0786C21.2137 28.0789 21.2118 28.0781 21.2091 28.0757C21.213 28.0772 21.2143 28.0784 21.214 28.0786Z" fill="#141B25" stroke="#8990A5" stroke-width="0.561111"/>
<path id="&#208;&#189;&#208;&#190;&#208;&#179;&#208;&#176; 3_2" d="M22.8145 30.4762C22.6633 30.1825 22.4863 29.8802 22.3149 29.5926C22.2828 29.5388 22.251 29.4855 22.2195 29.4329C22.0813 29.2017 21.9508 28.9833 21.8397 28.7824C21.7011 28.5318 21.6068 28.3326 21.5662 28.1901C21.5587 28.1639 21.5538 28.1422 21.5509 28.1248C21.6143 28.0913 21.67 28.0872 21.7275 28.1008C21.811 28.1206 21.9201 28.1841 22.0584 28.3221C22.3379 28.601 22.6568 29.1009 23.0471 29.7947C23.4343 30.4828 23.7002 31.0374 23.8251 31.4433C23.8881 31.6479 23.9072 31.7899 23.9018 31.8798C23.8972 31.9538 23.8798 31.9637 23.8763 31.9657C23.8761 31.9658 23.876 31.9659 23.8759 31.9659C23.8157 32.0091 23.7956 32.0052 23.7923 32.0046C23.7922 32.0046 23.7921 32.0045 23.7921 32.0045C23.7814 32.0028 23.7363 31.9897 23.6476 31.8906C23.4645 31.6863 23.2172 31.2591 22.8145 30.4762Z" fill="#141B25" stroke="#8990A5" stroke-width="0.561111"/>
<path id="&#208;&#189;&#208;&#190;&#208;&#179;&#208;&#176; 4_2" d="M24.276 32.4262C24.2373 32.3573 24.1909 32.2892 24.1531 32.2335C24.1492 32.2278 24.1454 32.2222 24.1417 32.2168C24.1149 32.1773 24.0931 32.1445 24.0757 32.1161C24.1406 32.0939 24.207 32.098 24.2739 32.1233C24.3756 32.1619 24.4715 32.2487 24.5313 32.355C24.5589 32.404 24.5626 32.4311 24.5631 32.4391C24.5635 32.4445 24.5633 32.4484 24.5589 32.4576C24.553 32.4702 24.5391 32.492 24.5088 32.5226C24.4791 32.5527 24.4402 32.5846 24.3914 32.6197C24.3886 32.6157 24.3856 32.6113 24.3824 32.6065C24.3538 32.5635 24.3212 32.5065 24.276 32.4262Z" fill="#141B25" stroke="#8990A5" stroke-width="0.561111"/>
<path id="&#208;&#189;&#208;&#190;&#208;&#179;&#208;&#176; 5_2" d="M24.7965 32.6747C24.7578 32.6059 24.7114 32.5377 24.6736 32.482C24.6697 32.4763 24.6659 32.4708 24.6622 32.4653C24.6354 32.4258 24.6136 32.3931 24.5963 32.3646C24.6611 32.3424 24.7275 32.3465 24.7944 32.3719C24.8961 32.4104 24.992 32.4973 25.0518 32.6035C25.0794 32.6525 25.0831 32.6796 25.0836 32.6877C25.084 32.693 25.0838 32.6969 25.0795 32.7061C25.0735 32.7187 25.0596 32.7405 25.0293 32.7712C24.9996 32.8012 24.9607 32.8331 24.912 32.8682C24.9091 32.8642 24.9061 32.8598 24.9029 32.855C24.8743 32.812 24.8417 32.755 24.7965 32.6747Z" fill="#141B25" stroke="#8990A5" stroke-width="0.561111"/>
<path id="&#208;&#189;&#208;&#190;&#208;&#179;&#208;&#176; 6_2" d="M25.6857 33.5468C25.623 33.4354 25.5513 33.3208 25.4848 33.2143C25.4784 33.2041 25.472 33.1939 25.4657 33.1839C25.3918 33.0655 25.3263 32.9592 25.276 32.8642C25.2623 32.8382 25.2507 32.8149 25.241 32.7943C25.2914 32.8068 25.3607 32.8384 25.4527 32.9075C25.6367 33.0457 25.8312 33.2807 25.9779 33.5414C26.1045 33.7664 26.1014 33.9308 26.0725 34.0382C26.0558 34.1002 26.0274 34.1545 25.9948 34.199C25.9802 34.1669 25.965 34.1315 25.9474 34.0907C25.9315 34.0538 25.9137 34.0126 25.8928 33.9655C25.839 33.8438 25.7724 33.701 25.6857 33.5468ZM25.1979 32.6749C25.1979 32.6749 25.1979 32.6752 25.198 32.6758L25.1979 32.6749Z" fill="#141B25" stroke="#8990A5" stroke-width="0.561111"/>
</g>
<g id="&#208;&#189;&#208;&#190;&#208;&#179;&#208;&#176; &#208;&#188;&#208;&#176;&#208;&#187;&#208;&#181;&#208;&#189;&#209;&#140;&#208;&#186;&#208;&#176;&#209;&#143;">
<path id="&#208;&#189;&#208;&#190;&#208;&#179;&#208;&#176; 7_3" d="M13.9771 28.4876C13.7592 28.5099 13.5294 28.5257 13.3071 28.541C13.2625 28.5441 13.2182 28.5471 13.1744 28.5502C12.9086 28.5689 12.6589 28.5886 12.4424 28.6196C12.2212 28.6514 12.0584 28.692 11.9561 28.7416C11.9158 28.7611 11.8959 28.776 11.8869 28.7847C11.8821 29.0318 12.0119 29.2395 12.3354 29.3893C12.6739 29.546 13.1824 29.6108 13.795 29.5481C14.4019 29.486 14.8638 29.3144 15.1598 29.112C15.4682 28.9011 15.5391 28.7039 15.5305 28.5949C15.524 28.5128 15.5041 28.4921 15.4947 28.4833C15.4764 28.4662 15.4271 28.4359 15.3017 28.4187C15.0423 28.383 14.6287 28.4209 13.9771 28.4876ZM11.8802 28.7932C11.8806 28.7933 11.8821 28.7916 11.8837 28.788C11.8806 28.7913 11.8799 28.7931 11.8802 28.7932Z" fill="#141B25" stroke="#8990A5" stroke-width="0.561111"/>
<path id="&#208;&#189;&#208;&#190;&#208;&#179;&#208;&#176; 8_3" d="M10.9799 29.7954L10.9671 29.8461L10.9404 29.8896C10.7922 30.1302 10.6357 30.344 10.4938 30.5303C10.4449 30.5944 10.399 30.6538 10.356 30.7095C10.2698 30.8209 10.1949 30.9177 10.1305 31.0087C10.0551 31.1154 10.0165 31.1845 9.99865 31.2263C10.1401 31.3331 10.2132 31.3341 10.2854 31.2979C10.4004 31.2401 10.585 31.0516 10.8623 30.5396C10.9732 30.3347 11.1065 30.1307 11.2318 29.9431C11.2559 29.9071 11.2796 29.8717 11.3029 29.8371C11.4037 29.6868 11.4958 29.5497 11.5727 29.4216C11.6708 29.2584 11.7207 29.1471 11.7357 29.0781C11.7361 29.0762 11.7364 29.0745 11.7368 29.0728C11.4999 28.8911 11.3993 28.9272 11.3466 28.9667C11.3026 28.9997 11.2431 29.0697 11.1759 29.2106C11.1094 29.3501 11.0436 29.542 10.9799 29.7954Z" fill="#141B25" stroke="#8990A5" stroke-width="0.561111"/>
<g id="&#209;&#129;&#209;&#130;&#208;&#190;&#208;&#191;&#208;&#176;">
<path id="&#208;&#189;&#208;&#190;&#208;&#179;&#208;&#176; 9_3" d="M9.49252 31.869C9.53679 31.8029 9.5886 31.7381 9.63002 31.6863C9.63429 31.681 9.63846 31.6758 9.64249 31.6707C9.6679 31.6389 9.68881 31.6122 9.70598 31.589C9.54633 31.5184 9.35365 31.5992 9.23616 31.7747C9.20784 31.817 9.20428 31.8384 9.20384 31.8414C9.20383 31.8415 9.20382 31.8416 9.2038 31.8417C9.20358 31.843 9.20298 31.8463 9.20711 31.857C9.21283 31.8717 9.22635 31.896 9.25548 31.9296C9.28427 31.9628 9.32216 31.9981 9.36921 32.0368C9.37042 32.0378 9.3716 32.0387 9.37275 32.0397C9.37368 32.0385 9.37462 32.0373 9.37559 32.0361C9.4061 31.9971 9.44178 31.9447 9.49252 31.869Z" fill="#141B25" stroke="#8990A5" stroke-width="0.561111"/>
<path id="&#208;&#189;&#208;&#190;&#208;&#179;&#208;&#176; 10_3" d="M8.92999 32.2252C8.97865 32.163 9.03474 32.1028 9.07947 32.0548C9.08409 32.0498 9.08859 32.045 9.09295 32.0403C9.12011 32.011 9.1425 31.9865 9.16098 31.9652C9.00507 31.8788 8.80688 31.9441 8.67909 32.1076C8.64835 32.1469 8.64363 32.1674 8.64309 32.1699C8.64308 32.17 8.64307 32.17 8.64305 32.1701C8.64279 32.1711 8.64189 32.1744 8.64541 32.1857C8.65023 32.2012 8.66226 32.2269 8.68921 32.2631C8.71586 32.2989 8.75141 32.3375 8.79581 32.3802C8.79725 32.3816 8.79864 32.3829 8.8 32.3842C8.8008 32.3833 8.80161 32.3824 8.80244 32.3815C8.83534 32.3455 8.87432 32.2964 8.92999 32.2252Z" fill="#141B25" stroke="#8990A5" stroke-width="0.561111"/>
<path id="&#208;&#189;&#208;&#190;&#208;&#179;&#208;&#176; 11_3" d="M7.79219 32.78C7.89364 32.714 8.00437 32.6498 8.10614 32.5907C8.11598 32.585 8.12574 32.5794 8.13539 32.5737C8.24885 32.5079 8.34845 32.4491 8.4297 32.3929C8.45364 32.3764 8.47376 32.3615 8.49058 32.3484C8.4397 32.3263 8.35882 32.3135 8.23201 32.3296C8.0184 32.3567 7.75636 32.4611 7.52542 32.6113C7.33415 32.7357 7.27374 32.8705 7.25632 32.9776C7.24482 33.0483 7.25034 33.1197 7.26556 33.183C7.28683 33.1658 7.30975 33.1468 7.33566 33.1253C7.3647 33.1011 7.39751 33.0739 7.436 33.0426C7.53338 32.9633 7.65134 32.8716 7.79219 32.78Z" fill="#141B25" stroke="#8990A5" stroke-width="0.561111"/>
</g>
</g>
<g id="&#208;&#189;&#208;&#190;&#208;&#179;&#208;&#176; &#208;&#188;&#208;&#176;&#208;&#187;&#208;&#181;&#208;&#189;&#209;&#140;&#208;&#186;&#208;&#176;&#209;&#143;_2">
<path id="&#208;&#189;&#208;&#190;&#208;&#179;&#208;&#176; 7_4" d="M13.8443 26.4822C13.6264 26.5045 13.3966 26.5203 13.1742 26.5356C13.1297 26.5387 13.0854 26.5418 13.0416 26.5449C12.7758 26.5635 12.5261 26.5832 12.3096 26.6143C12.0884 26.646 11.9256 26.6866 11.8233 26.7362C11.783 26.7557 11.7631 26.7707 11.7541 26.7793C11.7493 27.0264 11.8791 27.2342 12.2026 27.3839C12.5411 27.5406 13.0496 27.6054 13.6621 27.5428C14.2691 27.4807 14.731 27.309 15.027 27.1066C15.3353 26.8957 15.4063 26.6985 15.3977 26.5895C15.3912 26.5074 15.3713 26.4867 15.3618 26.4779C15.3436 26.4609 15.2943 26.4306 15.1689 26.4133C14.9094 26.3776 14.4959 26.4155 13.8443 26.4822ZM11.7474 26.7878C11.7478 26.7879 11.7493 26.7862 11.7509 26.7826C11.7478 26.786 11.7471 26.7878 11.7474 26.7878Z" fill="#141B25" stroke="#8990A5" stroke-width="0.561111"/>
<path id="&#208;&#189;&#208;&#190;&#208;&#179;&#208;&#176; 8_4" d="M10.8471 27.79L10.8343 27.8407L10.8075 27.8842C10.6594 28.1248 10.5029 28.3387 10.361 28.525C10.3121 28.5891 10.2662 28.6484 10.2231 28.7041C10.137 28.8155 10.0621 28.9123 9.99771 29.0034C9.9223 29.11 9.88367 29.1791 9.86584 29.2209C10.0073 29.3277 10.0804 29.3288 10.1526 29.2925C10.2676 29.2348 10.4521 29.0462 10.7294 28.5342C10.8404 28.3293 10.9736 28.1253 11.099 27.9378C11.1231 27.9017 11.1468 27.8664 11.17 27.8317C11.2709 27.6815 11.363 27.5443 11.4399 27.4162C11.538 27.253 11.5879 27.1417 11.6029 27.0727C11.6033 27.0709 11.6036 27.0691 11.6039 27.0675C11.3671 26.8858 11.2665 26.9218 11.2138 26.9613C11.1698 26.9943 11.1102 27.0643 11.0431 27.2052C10.9766 27.3448 10.9108 27.5366 10.8471 27.79Z" fill="#141B25" stroke="#8990A5" stroke-width="0.561111"/>
<g id="&#209;&#129;&#209;&#130;&#208;&#190;&#208;&#191;&#208;&#176;_2">
<path id="&#208;&#189;&#208;&#190;&#208;&#179;&#208;&#176; 9_4" d="M9.35971 29.8631C9.40398 29.797 9.45579 29.7322 9.4972 29.6805C9.50148 29.6751 9.50564 29.6699 9.50968 29.6649C9.53509 29.633 9.556 29.6064 9.57317 29.5832C9.41352 29.5125 9.22084 29.5934 9.10335 29.7688C9.07503 29.8111 9.07147 29.8325 9.07103 29.8356C9.07102 29.8356 9.07101 29.8357 9.07099 29.8358C9.07076 29.8371 9.07016 29.8405 9.0743 29.8511C9.08002 29.8658 9.09354 29.8901 9.12266 29.9237C9.15146 29.9569 9.18935 29.9923 9.2364 30.0309C9.23761 30.0319 9.23878 30.0329 9.23994 30.0338C9.24086 30.0326 9.24181 30.0314 9.24278 30.0302C9.27328 29.9913 9.30896 29.9389 9.35971 29.8631Z" fill="#141B25" stroke="#8990A5" stroke-width="0.561111"/>
<path id="&#208;&#189;&#208;&#190;&#208;&#179;&#208;&#176; 10_4" d="M8.79717 30.2189C8.84583 30.1567 8.90193 30.0964 8.94666 30.0484C8.95128 30.0434 8.95578 30.0386 8.96014 30.0339C8.9873 30.0047 9.00968 29.9802 9.02816 29.9588C8.87225 29.8724 8.67407 29.9378 8.54628 30.1012C8.51554 30.1405 8.51082 30.161 8.51028 30.1636C8.51027 30.1636 8.51026 30.1637 8.51024 30.1638C8.50998 30.1647 8.50908 30.168 8.5126 30.1794C8.51741 30.1948 8.52945 30.2205 8.5564 30.2567C8.58304 30.2925 8.6186 30.3312 8.663 30.3738C8.66444 30.3752 8.66583 30.3766 8.66719 30.3778C8.66799 30.377 8.6688 30.3761 8.66963 30.3752C8.70252 30.3391 8.74151 30.2901 8.79717 30.2189Z" fill="#141B25" stroke="#8990A5" stroke-width="0.561111"/>
<path id="&#208;&#189;&#208;&#190;&#208;&#179;&#208;&#176; 11_4" d="M7.65937 30.7746C7.76082 30.7086 7.87156 30.6444 7.97333 30.5853C7.98317 30.5796 7.99293 30.574 8.00258 30.5684C8.11603 30.5025 8.21563 30.4438 8.29689 30.3876C8.32082 30.371 8.34095 30.3561 8.35776 30.343C8.30689 30.3209 8.22601 30.3082 8.0992 30.3242C7.88559 30.3513 7.62355 30.4557 7.39261 30.6059C7.20134 30.7303 7.14092 30.8651 7.12351 30.9722C7.11201 31.0429 7.11753 31.1143 7.13274 31.1776C7.15402 31.1604 7.17694 31.1414 7.20285 31.1199C7.23189 31.0958 7.2647 31.0685 7.30319 31.0372C7.40056 30.9579 7.51853 30.8662 7.65937 30.7746Z" fill="#141B25" stroke="#8990A5" stroke-width="0.561111"/>
</g>
</g>
<path id="Vector 3901" d="M11.2605 24.292C10.1063 23.9067 7.90423 22.6183 8.32952 20.547" stroke="#8990A5" stroke-width="1.12222"/>
<path id="Ellipse 45" d="M15.808 27.1873C15.7132 27.5052 15.6306 27.7394 15.5505 27.9101C15.4626 28.0977 15.3894 28.1829 15.3313 28.2229C15.2824 28.2565 15.2225 28.2734 15.1136 28.2597C14.9945 28.2448 14.8399 28.1962 14.6176 28.1121C14.2274 27.9646 13.829 27.6609 13.5777 27.2405C13.3317 26.8289 13.2165 26.2898 13.4073 25.6355C13.6049 24.9577 13.9759 24.415 14.5567 24.0856C15.1306 23.7602 15.9387 23.6265 17.048 23.8195C17.0429 23.8402 17.0335 23.8702 17.0162 23.9112C16.945 24.0802 16.8065 24.2901 16.6318 24.555C16.5921 24.6151 16.5505 24.6781 16.5075 24.744C16.2862 25.0832 16.0397 25.4823 15.8876 25.904C15.7457 26.2977 15.6756 26.7395 15.808 27.1873Z" fill="#141B25" stroke="#8990A5" stroke-width="0.561111"/>
<path id="Ellipse 44" d="M13.8988 25.9184C13.7283 26.5031 13.3956 27.0046 13.0302 27.3245C12.6503 27.6571 12.3033 27.7407 12.0867 27.6588C11.8638 27.5745 11.6595 27.3164 11.5581 26.8619C11.4586 26.4161 11.4757 25.8388 11.6493 25.2434C11.816 24.6715 12.1645 24.2263 12.5482 23.9565C12.9425 23.6791 13.324 23.6178 13.5639 23.7085C13.7946 23.7957 13.9658 24.0104 14.0393 24.3935C14.1141 24.7831 14.076 25.3105 13.8988 25.9184Z" fill="#141B25" stroke="#8990A5" stroke-width="0.561111"/>
<path id="&#208;&#179;&#208;&#190;&#208;&#187;&#208;&#190;&#208;&#178;&#208;&#176;" d="M12.6333 26.0447C12.4515 26.6682 11.9384 27.0906 11.3318 27.3178C10.7566 27.5333 10.1552 27.551 9.78063 27.4374C9.6713 27.2949 9.60932 27.1348 9.60493 26.8752C9.59951 26.555 9.68261 26.0936 9.89504 25.3651C10.0976 24.6705 10.461 24.0306 10.8691 23.6101C11.2913 23.1753 11.6876 23.0428 11.9784 23.1528C12.3001 23.2744 12.5686 23.6149 12.706 24.1492C12.8423 24.6788 12.8344 25.3549 12.6333 26.0447Z" fill="#141B25" stroke="#8990A5" stroke-width="0.561111"/>
<g id="&#208;&#179;&#208;&#187;&#208;&#176;&#208;&#183;">
<path id="&#208;&#179;&#208;&#187;&#208;&#176;&#208;&#183;_2" d="M11.8027 25.0917C11.7677 25.2749 11.7009 25.4119 11.6326 25.4898C11.5651 25.5667 11.5259 25.5591 11.5162 25.5567C11.5162 25.5567 11.5162 25.5567 11.5161 25.5567C11.5141 25.5567 11.487 25.5564 11.463 25.4641C11.4366 25.3624 11.4343 25.2043 11.4715 25.0096C11.5087 24.8149 11.5685 24.6722 11.6296 24.5923C11.6851 24.5197 11.7099 24.5322 11.7117 24.5331C11.7118 24.5331 11.7118 24.5331 11.7118 24.5332C11.7215 24.5355 11.76 24.5472 11.7933 24.6491C11.8269 24.7523 11.8377 24.9085 11.8027 25.0917Z" fill="#F68561" stroke="#8990A5" stroke-width="0.561111"/>
<path id="&#208;&#179;&#208;&#187;&#208;&#176;&#208;&#183; &#208;&#177;&#208;&#187;&#208;&#184;&#208;&#186;" d="M11.3779 25.3732L11.5666 24.46C11.7082 24.7286 11.6138 25.4269 11.5666 25.5343C11.5289 25.6203 11.4251 25.409 11.3779 25.3732Z" fill="#141B25" stroke="#8990A5" stroke-width="0.561111"/>
</g>
<path id="Vector 3900" d="M10.5288 24.836C9.3494 24.5674 7.05663 23.5037 7.32081 21.3979" stroke="#8990A5" stroke-width="1.12222"/>
<path id="Vector 3902" d="M10.9066 24.9971C10.7493 25.206 10.4443 25.699 10.482 25.9998C10.5292 26.3759 10.482 26.9399 10.2461 27.2533" stroke="#8990A5" stroke-width="1.12222"/>
</g>
</g>
</g>
</g>
</g>
</g>
</g>
<defs>
<filter id="filter0_f_0_1" x="-201" y="-112" width="206" height="133" filterUnits="userSpaceOnUse" color-interpolation-filters="sRGB">
<feFlood flood-opacity="0" result="BackgroundImageFix"/>
<feBlend mode="normal" in="SourceGraphic" in2="BackgroundImageFix" result="shape"/>
<feGaussianBlur stdDeviation="10" result="effect1_foregroundBlur_0_1"/>
</filter>
<clipPath id="clip0_0_1">
<rect width="1280" height="660" fill="white" transform="translate(-687 -186)"/>
</clipPath>
</defs>
</svg>
