<svg width="473" height="423" viewBox="0 0 473 423" fill="none" xmlns="http://www.w3.org/2000/svg">
<path d="M461.325 411.337L458.488 415.437V461.454H461.325V411.337Z" fill="#888787" stroke="#888787" stroke-width="4.72801"/>
<path d="M99.1587 386.934V73.2841C99.1587 52.3944 116.093 35.46 136.983 35.46H399.438C420.308 35.46 437.234 52.3634 437.263 73.2332L437.685 386.751" stroke="#D9D9D9" stroke-width="0.945603"/>
<path d="M85.9202 400.463V53.8993C85.9202 33.0096 102.855 16.0752 123.744 16.0752H412.639C433.509 16.0752 450.436 32.979 450.463 53.849L450.923 399.044" stroke="#D9D9D9" stroke-width="0.945603"/>
<path d="M112.294 19.2024L144.429 5.19823C149.434 3.01699 154.836 1.89121 160.295 1.89121H431.065C452.999 1.89121 470.781 19.6724 470.781 41.6066V457.683C470.781 464.466 465.282 469.965 458.499 469.965C451.701 469.965 446.196 464.443 446.218 457.645L447.422 72.9736C447.496 49.4844 428.907 30.1797 405.432 29.3658L112.294 19.2024Z" fill="#1E4E4E" stroke="url(#paint0_linear_1435_3840)" stroke-width="3.78241"/>
<g filter="url(#filter0_d_1435_3840)">
<path d="M83.5562 404.718L84.5072 53.8084C84.5072 34.4712 99.8179 17.0205 118.945 17.0205L417.28 17.4921C439.321 18.9071 452.325 33.9995 453.76 52.8651V400.935H440.367V380.183L438.552 65.5994L435.584 56.6382L427.453 46.2622L421.235 41.5458L414.455 38.2443L404.016 36.3577L381.939 35.8861H345.118H271.478H169.168C122.293 35.8861 130.903 36.8294 124.207 38.2443C122.142 38.6806 120.151 39.3224 117.989 40.1309L112.727 43.4323L104.045 52.0141C101.388 57.866 99.9346 65.1212 99.6314 65.7191C99.1531 66.6623 99.6314 391.006 99.6314 391.006L83.5562 404.718Z" fill="url(#paint1_linear_1435_3840)"/>
</g>
<path d="M450.77 461.454L453.76 408.5L407.425 420.976V461.454H450.77Z" fill="#1E4E4E" stroke="#1E4E4E" stroke-width="4.72801"/>
<path d="M95.9814 397.772L451.869 396.208L421.643 467.128L22.5648 465.564L95.9814 397.772Z" fill="#1E4E4E"/>
<g filter="url(#filter1_ii_1435_3840)">
<path d="M96 89.5185C96 60.9898 96 46.7255 104.863 37.8627C113.725 29 127.99 29 156.519 29H382.661C411.12 29 425.349 29 434.207 37.8342C443.065 46.6684 443.103 60.898 443.179 89.3571L443.982 390.22H96V89.5185Z" fill="#1E4E4E"/>
</g>
<g filter="url(#filter2_d_1435_3840)">
<path d="M84.0291 390.534H451.869L445.702 399.99H84.0291V390.534Z" fill="url(#paint2_linear_1435_3840)"/>
<path d="M84.5019 391.007H450.996L445.446 399.517H84.5019V391.007Z" stroke="url(#paint3_linear_1435_3840)" stroke-width="0.945603"/>
</g>
<g filter="url(#filter3_d_1435_3840)">
<path d="M94.9034 401.881H85.3599L15 470.91L27.2928 468.479L62.7529 432.506L94.9034 401.881Z" fill="url(#paint4_linear_1435_3840)"/>
<path d="M94.9034 401.881H85.3599L15 470.91L27.2928 468.479L62.7529 432.506L94.9034 401.881Z" stroke="url(#paint5_linear_1435_3840)" stroke-width="4.72801"/>
</g>
<g filter="url(#filter4_d_1435_3840)">
<rect x="443.358" y="390.534" width="10.4016" height="73.757" fill="url(#paint6_linear_1435_3840)"/>
</g>
<path d="M470.308 375.405V367.367L454.705 385.806V394.79L464.161 382.497L470.308 375.405Z" fill="url(#paint7_linear_1435_3840)" stroke="url(#paint8_linear_1435_3840)" stroke-width="4.72801"/>
<g filter="url(#filter5_d_1435_3840)">
<path d="M444.777 400.463L391.35 469.492" stroke="url(#paint9_linear_1435_3840)" stroke-width="10.4016"/>
</g>
<path d="M148.385 410.146C151.054 410.146 154.029 409.879 156.345 409.446C157.5 409.23 158.514 408.968 159.249 408.667C159.614 408.518 159.937 408.348 160.178 408.152C160.41 407.962 160.64 407.682 160.64 407.309C160.64 406.944 160.417 406.659 160.192 406.459C159.956 406.25 159.637 406.061 159.272 405.888C158.538 405.541 157.525 405.218 156.368 404.942C154.049 404.388 151.067 404 148.385 404C145.703 404 142.934 404.388 140.827 404.944C139.776 405.222 138.868 405.547 138.212 405.899C137.885 406.074 137.599 406.267 137.388 406.481C137.182 406.691 137 406.97 137 407.309C137 407.654 137.187 407.93 137.402 408.131C137.618 408.333 137.909 408.507 138.236 408.659C138.894 408.964 139.803 409.227 140.852 409.444C142.955 409.879 145.716 410.146 148.385 410.146Z" fill="#1F2431" stroke="url(#paint10_linear_1435_3840)" stroke-width="0.945603"/>
<path d="M136.527 406.852V413.872C136.527 414.568 137.033 415.163 137.722 415.271C146.215 416.606 151.192 416.716 159.929 415.276C160.613 415.163 161.113 414.571 161.113 413.88V406.827C161.113 406.223 160.728 405.68 160.15 405.488C151.439 402.594 145.298 403.166 137.532 405.498C136.933 405.678 136.527 406.23 136.527 406.852Z" stroke="url(#paint11_linear_1435_3840)" stroke-width="0.945603"/>
<path d="M255.385 410.146C258.054 410.146 261.029 409.879 263.345 409.446C264.5 409.23 265.514 408.968 266.249 408.667C266.614 408.518 266.937 408.348 267.178 408.152C267.41 407.962 267.64 407.682 267.64 407.309C267.64 406.944 267.417 406.659 267.192 406.459C266.956 406.25 266.637 406.061 266.272 405.888C265.538 405.541 264.525 405.218 263.368 404.942C261.049 404.388 258.067 404 255.385 404C252.703 404 249.934 404.388 247.827 404.944C246.776 405.222 245.868 405.547 245.212 405.899C244.885 406.074 244.599 406.267 244.388 406.481C244.182 406.691 244 406.97 244 407.309C244 407.654 244.187 407.93 244.402 408.131C244.618 408.333 244.909 408.507 245.236 408.659C245.894 408.964 246.803 409.227 247.852 409.444C249.955 409.879 252.716 410.146 255.385 410.146Z" fill="#1F2431" stroke="url(#paint12_linear_1435_3840)" stroke-width="0.945603"/>
<path d="M243.527 406.852V413.872C243.527 414.568 244.033 415.163 244.722 415.271C253.215 416.606 258.192 416.716 266.929 415.276C267.613 415.163 268.113 414.571 268.113 413.88V406.827C268.113 406.223 267.728 405.68 267.15 405.488C258.439 402.594 252.298 403.166 244.532 405.498C243.933 405.678 243.527 406.23 243.527 406.852Z" stroke="url(#paint13_linear_1435_3840)" stroke-width="0.945603"/>
<path d="M362.385 410.146C365.054 410.146 368.029 409.879 370.345 409.446C371.5 409.23 372.514 408.968 373.249 408.667C373.614 408.518 373.937 408.348 374.178 408.152C374.41 407.962 374.64 407.682 374.64 407.309C374.64 406.944 374.417 406.659 374.192 406.459C373.956 406.25 373.637 406.061 373.272 405.888C372.538 405.541 371.525 405.218 370.368 404.942C368.049 404.388 365.067 404 362.385 404C359.703 404 356.934 404.388 354.827 404.944C353.776 405.222 352.868 405.547 352.212 405.899C351.885 406.074 351.599 406.267 351.388 406.481C351.182 406.691 351 406.97 351 407.309C351 407.654 351.187 407.93 351.402 408.131C351.618 408.333 351.909 408.507 352.236 408.659C352.894 408.964 353.803 409.227 354.852 409.444C356.955 409.879 359.716 410.146 362.385 410.146Z" fill="#1F2431" stroke="url(#paint14_linear_1435_3840)" stroke-width="0.945603"/>
<path d="M350.527 406.852V413.872C350.527 414.568 351.033 415.163 351.722 415.271C360.215 416.606 365.192 416.716 373.929 415.276C374.613 415.163 375.113 414.571 375.113 413.88V406.827C375.113 406.223 374.728 405.68 374.15 405.488C365.439 402.594 359.298 403.166 351.532 405.498C350.933 405.678 350.527 406.23 350.527 406.852Z" stroke="url(#paint15_linear_1435_3840)" stroke-width="0.945603"/>
<defs>
<filter id="filter0_d_1435_3840" x="78.8281" y="10.4013" width="391.007" height="408.501" filterUnits="userSpaceOnUse" color-interpolation-filters="sRGB">
<feFlood flood-opacity="0" result="BackgroundImageFix"/>
<feColorMatrix in="SourceAlpha" type="matrix" values="0 0 0 0 0 0 0 0 0 0 0 0 0 0 0 0 0 0 127 0" result="hardAlpha"/>
<feOffset dx="5.67362" dy="3.78241"/>
<feGaussianBlur stdDeviation="5.20082"/>
<feComposite in2="hardAlpha" operator="out"/>
<feColorMatrix type="matrix" values="0 0 0 0 0 0 0 0 0 0 0 0 0 0 0 0 0 0 0.25 0"/>
<feBlend mode="normal" in2="BackgroundImageFix" result="effect1_dropShadow_1435_3840"/>
<feBlend mode="normal" in="SourceGraphic" in2="effect1_dropShadow_1435_3840" result="shape"/>
</filter>
<filter id="filter1_ii_1435_3840" x="96" y="26.1632" width="347.982" height="367.84" filterUnits="userSpaceOnUse" color-interpolation-filters="sRGB">
<feFlood flood-opacity="0" result="BackgroundImageFix"/>
<feBlend mode="normal" in="SourceGraphic" in2="BackgroundImageFix" result="shape"/>
<feColorMatrix in="SourceAlpha" type="matrix" values="0 0 0 0 0 0 0 0 0 0 0 0 0 0 0 0 0 0 127 0" result="hardAlpha"/>
<feOffset dy="3.78241"/>
<feGaussianBlur stdDeviation="1.89121"/>
<feComposite in2="hardAlpha" operator="arithmetic" k2="-1" k3="1"/>
<feColorMatrix type="matrix" values="0 0 0 0 0 0 0 0 0 0 0 0 0 0 0 0 0 0 0.25 0"/>
<feBlend mode="normal" in2="shape" result="effect1_innerShadow_1435_3840"/>
<feColorMatrix in="SourceAlpha" type="matrix" values="0 0 0 0 0 0 0 0 0 0 0 0 0 0 0 0 0 0 127 0" result="hardAlpha"/>
<feOffset dy="-2.83681"/>
<feGaussianBlur stdDeviation="3.78241"/>
<feComposite in2="hardAlpha" operator="arithmetic" k2="-1" k3="1"/>
<feColorMatrix type="matrix" values="0 0 0 0 0 0 0 0 0 0 0 0 0 0 0 0 0 0 0.25 0"/>
<feBlend mode="normal" in2="effect1_innerShadow_1435_3840" result="effect2_innerShadow_1435_3840"/>
</filter>
<filter id="filter2_d_1435_3840" x="79.301" y="387.697" width="382.969" height="24.5857" filterUnits="userSpaceOnUse" color-interpolation-filters="sRGB">
<feFlood flood-opacity="0" result="BackgroundImageFix"/>
<feColorMatrix in="SourceAlpha" type="matrix" values="0 0 0 0 0 0 0 0 0 0 0 0 0 0 0 0 0 0 127 0" result="hardAlpha"/>
<feOffset dx="2.83681" dy="4.72801"/>
<feGaussianBlur stdDeviation="3.78241"/>
<feComposite in2="hardAlpha" operator="out"/>
<feColorMatrix type="matrix" values="0 0 0 0 0 0 0 0 0 0 0 0 0 0 0 0 0 0 0.25 0"/>
<feBlend mode="normal" in2="BackgroundImageFix" result="effect1_dropShadow_1435_3840"/>
<feBlend mode="normal" in="SourceGraphic" in2="effect1_dropShadow_1435_3840" result="shape"/>
</filter>
<filter id="filter3_d_1435_3840" x="0.131344" y="397.625" width="108.246" height="90.3767" filterUnits="userSpaceOnUse" color-interpolation-filters="sRGB">
<feFlood flood-opacity="0" result="BackgroundImageFix"/>
<feColorMatrix in="SourceAlpha" type="matrix" values="0 0 0 0 0 0 0 0 0 0 0 0 0 0 0 0 0 0 127 0" result="hardAlpha"/>
<feOffset dy="5.67362"/>
<feGaussianBlur stdDeviation="3.78241"/>
<feComposite in2="hardAlpha" operator="out"/>
<feColorMatrix type="matrix" values="0 0 0 0 0 0 0 0 0 0 0 0 0 0 0 0 0 0 0.25 0"/>
<feBlend mode="normal" in2="BackgroundImageFix" result="effect1_dropShadow_1435_3840"/>
<feBlend mode="normal" in="SourceGraphic" in2="effect1_dropShadow_1435_3840" result="shape"/>
</filter>
<filter id="filter4_d_1435_3840" x="432.957" y="390.534" width="31.2049" height="98.3425" filterUnits="userSpaceOnUse" color-interpolation-filters="sRGB">
<feFlood flood-opacity="0" result="BackgroundImageFix"/>
<feColorMatrix in="SourceAlpha" type="matrix" values="0 0 0 0 0 0 0 0 0 0 0 0 0 0 0 0 0 0 127 0" result="hardAlpha"/>
<feOffset dy="14.184"/>
<feGaussianBlur stdDeviation="5.20082"/>
<feComposite in2="hardAlpha" operator="out"/>
<feColorMatrix type="matrix" values="0 0 0 0 0 0 0 0 0 0 0 0 0 0 0 0 0 0 0.25 0"/>
<feBlend mode="normal" in2="BackgroundImageFix" result="effect1_dropShadow_1435_3840"/>
<feBlend mode="normal" in="SourceGraphic" in2="effect1_dropShadow_1435_3840" result="shape"/>
</filter>
<filter id="filter5_d_1435_3840" x="369.271" y="394.442" width="79.6187" height="90.5252" filterUnits="userSpaceOnUse" color-interpolation-filters="sRGB">
<feFlood flood-opacity="0" result="BackgroundImageFix"/>
<feColorMatrix in="SourceAlpha" type="matrix" values="0 0 0 0 0 0 0 0 0 0 0 0 0 0 0 0 0 0 127 0" result="hardAlpha"/>
<feOffset dx="-10.4016" dy="4.72801"/>
<feGaussianBlur stdDeviation="3.78241"/>
<feComposite in2="hardAlpha" operator="out"/>
<feColorMatrix type="matrix" values="0 0 0 0 0 0 0 0 0 0 0 0 0 0 0 0 0 0 0.25 0"/>
<feBlend mode="normal" in2="BackgroundImageFix" result="effect1_dropShadow_1435_3840"/>
<feBlend mode="normal" in="SourceGraphic" in2="effect1_dropShadow_1435_3840" result="shape"/>
</filter>
<linearGradient id="paint0_linear_1435_3840" x1="121.372" y1="2.00897e-05" x2="483.119" y2="24.6124" gradientUnits="userSpaceOnUse">
<stop offset="1" stop-color="#B9F598"/>
</linearGradient>
<linearGradient id="paint1_linear_1435_3840" x1="117.491" y1="17.0205" x2="463.191" y2="44.4219" gradientUnits="userSpaceOnUse">
<stop offset="1" stop-color="#B9F598"/>
</linearGradient>
<linearGradient id="paint2_linear_1435_3840" x1="117.748" y1="390.534" x2="147.997" y2="488.21" gradientUnits="userSpaceOnUse">
<stop offset="1" stop-color="#B9F598"/>
</linearGradient>
<linearGradient id="paint3_linear_1435_3840" x1="117.748" y1="390.534" x2="147.997" y2="488.21" gradientUnits="userSpaceOnUse">
<stop offset="1" stop-color="#B9F598"/>
</linearGradient>
<linearGradient id="paint4_linear_1435_3840" x1="22.3245" y1="401.881" x2="96.7209" y2="409.029" gradientUnits="userSpaceOnUse">
<stop offset="1" stop-color="#B9F598"/>
</linearGradient>
<linearGradient id="paint5_linear_1435_3840" x1="22.3245" y1="401.881" x2="96.7209" y2="409.029" gradientUnits="userSpaceOnUse">
<stop offset="1" stop-color="#B9F598"/>
</linearGradient>
<linearGradient id="paint6_linear_1435_3840" x1="444.312" y1="390.534" x2="454.084" y2="390.649" gradientUnits="userSpaceOnUse">
<stop offset="1" stop-color="#B9F598"/>
</linearGradient>
<linearGradient id="paint7_linear_1435_3840" x1="456.136" y1="367.367" x2="470.764" y2="368.058" gradientUnits="userSpaceOnUse">
<stop offset="1" stop-color="#B9F598"/>
</linearGradient>
<linearGradient id="paint8_linear_1435_3840" x1="456.136" y1="367.367" x2="470.764" y2="368.058" gradientUnits="userSpaceOnUse">
<stop offset="1" stop-color="#B9F598"/>
</linearGradient>
<linearGradient id="paint9_linear_1435_3840" x1="396.247" y1="400.463" x2="446.245" y2="403.675" gradientUnits="userSpaceOnUse">
<stop offset="1" stop-color="#B9F598"/>
</linearGradient>
<linearGradient id="paint10_linear_1435_3840" x1="139.553" y1="404.473" x2="158.405" y2="411.301" gradientUnits="userSpaceOnUse">
<stop offset="1" stop-color="#B9F598"/>
</linearGradient>
<linearGradient id="paint11_linear_1435_3840" x1="139.167" y1="404" x2="160.787" y2="407.583" gradientUnits="userSpaceOnUse">
<stop offset="1" stop-color="#B9F598"/>
</linearGradient>
<linearGradient id="paint12_linear_1435_3840" x1="246.553" y1="404.473" x2="265.405" y2="411.301" gradientUnits="userSpaceOnUse">
<stop offset="1" stop-color="#B9F598"/>
</linearGradient>
<linearGradient id="paint13_linear_1435_3840" x1="246.167" y1="404" x2="267.787" y2="407.583" gradientUnits="userSpaceOnUse">
<stop offset="1" stop-color="#B9F598"/>
</linearGradient>
<linearGradient id="paint14_linear_1435_3840" x1="353.553" y1="404.473" x2="372.405" y2="411.301" gradientUnits="userSpaceOnUse">
<stop offset="1" stop-color="#B9F598"/>
</linearGradient>
<linearGradient id="paint15_linear_1435_3840" x1="353.167" y1="404" x2="374.787" y2="407.583" gradientUnits="userSpaceOnUse">
<stop offset="1" stop-color="#B9F598"/>
</linearGradient>
</defs>
</svg>
