<svg width="41" height="39" viewBox="0 0 41 39" fill="none" xmlns="http://www.w3.org/2000/svg">
<path d="M32.8923 6.72903C30.893 4.94842 27.9076 4.54998 25.4206 3.55883C24.3011 3.1127 23.0461 2.79414 21.6537 2.78865C17.9917 2.77421 12.7058 2.02753 9.61751 3.99534V3.99534C6.61333 5.90953 4.87707 8.15379 3.95271 9.58943C3.02835 11.0251 -4.52465 26.6268 8.87862 30.6944C18.517 33.6195 26.075 32.3573 29.1833 30.7398C29.7978 30.4201 30.3692 30.0253 30.9674 29.6761C33.9214 27.9516 37.4489 25.1533 37.4489 19.7605C37.4489 15.4207 35.8267 9.34255 32.8923 6.72903Z" fill="#F68561"/>
<path d="M32.8923 6.72903C30.893 4.94842 27.9076 4.54998 25.4206 3.55883C24.3011 3.1127 23.0461 2.79414 21.6537 2.78865C17.9917 2.77421 12.7058 2.02753 9.61751 3.99534V3.99534C6.61333 5.90953 4.87707 8.15379 3.95271 9.58943C3.02835 11.0251 -4.52465 26.6268 8.87862 30.6944C18.517 33.6195 26.075 32.3573 29.1833 30.7398C29.7978 30.4201 30.3692 30.0253 30.9674 29.6761C33.9214 27.9516 37.4489 25.1533 37.4489 19.7605C37.4489 15.4207 35.8267 9.34255 32.8923 6.72903Z" stroke="#F68561"/>
<path d="M18.3747 6.26828C18.189 7.64145 18.3744 8.26385 18.7167 8.54132C19.267 8.9874 20.1113 8.7466 20.7295 8.41295C21.6454 7.91857 21.5433 7.15782 21.2559 6.43089L20.0332 2.94907C19.7518 2.16082 18.7708 2.2761 18.7026 3.10755C18.6216 4.0963 18.5196 5.19667 18.3747 6.26828Z" fill="url(#paint0_linear_1233_4752)" stroke="url(#paint1_linear_1233_4752)"/>
<path d="M17.7361 7.45517C18.2277 8.13682 18.5791 8.59064 18.8956 8.83346C19.4591 9.2657 20.2436 8.75443 20.6779 8.17727C21.3026 7.34711 20.925 6.69841 20.3817 6.14817L17.8872 3.46499C17.317 2.85818 16.1528 3.46252 16.362 4.27508C16.6406 5.35719 17.0601 6.51789 17.7361 7.45517Z" fill="#1E4E4E" stroke="#1E4E4E"/>
<path d="M19.527 8.50672C19.2482 8.30829 19.0695 8.02845 19.0053 7.68781C18.2155 3.49995 22.7257 11.3228 19.527 8.50672Z" fill="url(#paint2_linear_1233_4752)" stroke="url(#paint3_linear_1233_4752)"/>
<path d="M16.9829 5.12102C17.704 5.0156 18.2751 5.18707 18.7138 5.50344C20.236 6.60108 19.0457 8.24149 17.3801 7.37614C16.2375 6.78255 15.6626 7.88753 15.5087 8.47171C15.4991 8.50825 15.488 8.54442 15.4739 8.5795L15.1214 9.45618C14.9722 9.82725 14.4375 9.79627 14.3356 9.41064C14.3288 9.3851 14.3245 9.35895 14.3227 9.33256L14.2744 8.61467C14.3217 7.81141 14.7332 5.44989 16.9829 5.12102Z" fill="#1F2431"/>
<path d="M16.9829 5.12102C17.704 5.0156 18.2751 5.18707 18.7138 5.50344C20.236 6.60108 19.0457 8.24149 17.3801 7.37614C16.2375 6.78255 15.6626 7.88753 15.5087 8.47171C15.4991 8.50825 15.488 8.54442 15.4739 8.5795L15.1214 9.45618C14.9722 9.82725 14.4375 9.79627 14.3356 9.41064C14.3288 9.3851 14.3245 9.35895 14.3227 9.33256L14.2744 8.61467C14.3217 7.81141 14.7332 5.44989 16.9829 5.12102Z" fill="url(#paint4_linear_1233_4752)"/>
<path d="M16.9829 5.12102C17.704 5.0156 18.2751 5.18707 18.7138 5.50344C20.236 6.60108 19.0457 8.24149 17.3801 7.37614C16.2375 6.78255 15.6626 7.88753 15.5087 8.47171C15.4991 8.50825 15.488 8.54442 15.4739 8.5795L15.1214 9.45618C14.9722 9.82725 14.4375 9.79627 14.3356 9.41064C14.3288 9.3851 14.3245 9.35895 14.3227 9.33256L14.2744 8.61467C14.3217 7.81141 14.7332 5.44989 16.9829 5.12102Z" stroke="#1F2431"/>
<path d="M16.9829 5.12102C17.704 5.0156 18.2751 5.18707 18.7138 5.50344C20.236 6.60108 19.0457 8.24149 17.3801 7.37614C16.2375 6.78255 15.6626 7.88753 15.5087 8.47171C15.4991 8.50825 15.488 8.54442 15.4739 8.5795L15.1214 9.45618C14.9722 9.82725 14.4375 9.79627 14.3356 9.41064C14.3288 9.3851 14.3245 9.35895 14.3227 9.33256L14.2744 8.61467C14.3217 7.81141 14.7332 5.44989 16.9829 5.12102Z" stroke="url(#paint5_linear_1233_4752)"/>
<path d="M21.9477 5.33105C21.3313 5.28518 20.8301 5.45837 20.4336 5.75168C18.8414 6.92949 22.3906 8.84918 21.4578 7.10201C20.9999 6.24447 23.6602 7.2972 23.898 7.83468C23.9058 7.85241 23.912 7.86976 23.9205 7.88721C24.0731 8.20252 24.5394 8.14166 24.606 7.79772L24.6351 7.64712C24.6402 7.6211 24.6427 7.59466 24.6427 7.56815L24.6427 6.84902C24.5476 6.08953 24.0772 5.48956 21.9477 5.33105Z" fill="#1F2431"/>
<path d="M21.9477 5.33105C21.3313 5.28518 20.8301 5.45837 20.4336 5.75168C18.8414 6.92949 22.3906 8.84918 21.4578 7.10201C20.9999 6.24447 23.6602 7.2972 23.898 7.83468C23.9058 7.85241 23.912 7.86976 23.9205 7.88721C24.0731 8.20252 24.5394 8.14166 24.606 7.79772L24.6351 7.64712C24.6402 7.6211 24.6427 7.59466 24.6427 7.56815L24.6427 6.84902C24.5476 6.08953 24.0772 5.48956 21.9477 5.33105Z" fill="url(#paint6_linear_1233_4752)"/>
<path d="M21.9477 5.33105C21.3313 5.28518 20.8301 5.45837 20.4336 5.75168C18.8414 6.92949 22.3906 8.84918 21.4578 7.10201C20.9999 6.24447 23.6602 7.2972 23.898 7.83468C23.9058 7.85241 23.912 7.86976 23.9205 7.88721C24.0731 8.20252 24.5394 8.14166 24.606 7.79772L24.6351 7.64712C24.6402 7.6211 24.6427 7.59466 24.6427 7.56815L24.6427 6.84902C24.5476 6.08953 24.0772 5.48956 21.9477 5.33105Z" stroke="#1F2431"/>
<path d="M21.9477 5.33105C21.3313 5.28518 20.8301 5.45837 20.4336 5.75168C18.8414 6.92949 22.3906 8.84918 21.4578 7.10201C20.9999 6.24447 23.6602 7.2972 23.898 7.83468C23.9058 7.85241 23.912 7.86976 23.9205 7.88721C24.0731 8.20252 24.5394 8.14166 24.606 7.79772L24.6351 7.64712C24.6402 7.6211 24.6427 7.59466 24.6427 7.56815L24.6427 6.84902C24.5476 6.08953 24.0772 5.48956 21.9477 5.33105Z" stroke="url(#paint7_linear_1233_4752)"/>
<path d="M6.92306 15.4084C6.25096 18.6607 5.34877 20.6315 4.36647 20.4166C3.38418 20.2016 3.01887 17.9134 3.69097 14.6611C4.36307 11.4088 6.6156 8.37749 8.04747 9.38887C9.47934 10.4002 7.59516 12.1561 6.92306 15.4084Z" fill="#D9D9D9"/>
<path d="M31.4463 22.3969C33.8805 20.2959 34.6967 13.8093 35.3857 14.6547C36.2791 15.7506 38.0808 19.0385 34.0316 25.1755C28.1826 33.5965 14.0078 31.0239 12.7602 29.4933C11.5125 27.9627 23.7691 30.2809 31.4463 22.3969Z" fill="#8990A5"/>
<defs>
<linearGradient id="paint0_linear_1233_4752" x1="19.2915" y1="0.0452799" x2="22.4869" y2="0.58609" gradientUnits="userSpaceOnUse">
<stop stop-color="#89E159"/>
<stop offset="1" stop-color="#B9F598"/>
</linearGradient>
<linearGradient id="paint1_linear_1233_4752" x1="19.2915" y1="0.0452799" x2="22.4869" y2="0.58609" gradientUnits="userSpaceOnUse">
<stop stop-color="#89E159"/>
<stop offset="1" stop-color="#B9F598"/>
</linearGradient>
<linearGradient id="paint2_linear_1233_4752" x1="19.7235" y1="1.01416" x2="27.3007" y2="1.68628" gradientUnits="userSpaceOnUse">
<stop stop-color="#89E159"/>
<stop offset="1" stop-color="#B9F598"/>
</linearGradient>
<linearGradient id="paint3_linear_1233_4752" x1="19.7235" y1="1.01416" x2="27.3007" y2="1.68628" gradientUnits="userSpaceOnUse">
<stop stop-color="#89E159"/>
<stop offset="1" stop-color="#B9F598"/>
</linearGradient>
<linearGradient id="paint4_linear_1233_4752" x1="18.5906" y1="10.3339" x2="14.6593" y2="8.10576" gradientUnits="userSpaceOnUse">
<stop stop-color="#1E4E4E"/>
<stop offset="1" stop-color="#1F2431"/>
</linearGradient>
<linearGradient id="paint5_linear_1233_4752" x1="18.5906" y1="10.3339" x2="14.6593" y2="8.10576" gradientUnits="userSpaceOnUse">
<stop stop-color="#1E4E4E"/>
<stop offset="1" stop-color="#1F2431"/>
</linearGradient>
<linearGradient id="paint6_linear_1233_4752" x1="20.6346" y1="8.87297" x2="23.3676" y2="6.2804" gradientUnits="userSpaceOnUse">
<stop stop-color="#1E4E4E"/>
<stop offset="1" stop-color="#1F2431"/>
</linearGradient>
<linearGradient id="paint7_linear_1233_4752" x1="20.6346" y1="8.87297" x2="23.3676" y2="6.2804" gradientUnits="userSpaceOnUse">
<stop stop-color="#1E4E4E"/>
<stop offset="1" stop-color="#1F2431"/>
</linearGradient>
</defs>
</svg>
