<svg width="32" height="43" viewBox="0 0 32 43" fill="none" xmlns="http://www.w3.org/2000/svg">
<path d="M30.5117 26.4565C30.2105 34.5695 19.9393 42.3124 14.9543 42.1274C9.9693 41.9423 0.300448 33.4592 0.601632 25.3461C0.977464 15.2048 7.67372 15.4534 15.9332 15.76C24.1926 16.0666 30.8792 16.5587 30.5117 26.4565Z" fill="#F68561"/>
<path d="M17.851 18.1159C17.7707 18.1387 17.6909 18.1586 17.6114 18.1757C12.636 19.2446 17.0083 13.2647 17.851 18.1159C18.1834 17.5566 18.8938 16.9012 19.8101 16.3191C23.8937 13.725 24.9452 18.1831 20.1888 18.2598C19.4464 18.2718 18.6639 18.2285 17.851 18.1159Z" fill="#3D8E53"/>
<path d="M8.13691 27.6548C8.17006 28.7761 7.63886 29.689 6.95046 29.6939C6.26206 29.6987 5.67713 28.7937 5.64399 27.6724C5.61085 26.5511 6.14204 25.6381 6.83045 25.6333C7.51885 25.6284 8.10377 26.5335 8.13691 27.6548Z" fill="#141B25"/>
<path d="M11.23 21.808C11.2485 22.9294 10.7053 23.8375 10.0168 23.8364C9.32822 23.8353 8.75507 22.9254 8.73659 21.804C8.71811 20.6827 9.2613 19.7746 9.94984 19.7757C10.6384 19.7768 11.2115 20.6867 11.23 21.808Z" fill="#141B25"/>
<path d="M13.2492 33.8922C13.5102 34.9964 13.1738 35.9707 12.4976 36.0685C11.8215 36.1663 11.0618 35.3505 10.8008 34.2463C10.5397 33.1422 10.8762 32.1678 11.5523 32.07C12.2285 31.9722 12.9882 32.7881 13.2492 33.8922Z" fill="#141B25"/>
<path d="M20.7567 32.6552C20.3236 33.7141 19.4426 34.423 18.7889 34.2385C18.1352 34.054 17.9565 33.046 18.3896 31.9871C18.8227 30.9282 19.7037 30.2194 20.3574 30.4039C21.011 30.5884 21.1898 31.5964 20.7567 32.6552Z" fill="#141B25"/>
<path d="M26.1299 24.7098C25.742 25.7808 24.892 26.5143 24.2312 26.3481C23.5705 26.182 23.3493 25.1791 23.7372 24.1081C24.125 23.0371 24.9751 22.3036 25.6358 22.4698C26.2965 22.636 26.5177 23.6389 26.1299 24.7098Z" fill="#141B25"/>
<path d="M18.7314 22.4108C18.3436 23.4817 17.4935 24.2152 16.8328 24.049C16.1721 23.8829 15.9509 22.88 16.3387 21.809C16.7266 20.7381 17.5766 20.0046 18.2374 20.1707C18.8981 20.3369 19.1193 21.3398 18.7314 22.4108Z" fill="#141B25"/>
<path d="M16.0598 28.1028C16.0694 29.2241 15.519 30.1293 14.8304 30.1245C14.1419 30.1198 13.5759 29.207 13.5662 28.0857C13.5566 26.9644 14.107 26.0592 14.7956 26.064C15.4842 26.0687 16.0502 26.9815 16.0598 28.1028Z" fill="#141B25"/>
<path d="M18.412 16.3771C16.6615 6.15334 20.9875 6.0669 26.1425 0.913113" stroke="#3D8E53" stroke-width="0.5"/>
</svg>
