<svg width="45" height="45" viewBox="0 0 45 45" fill="none" xmlns="http://www.w3.org/2000/svg">
<g clip-path="url(#clip0_1233_4764)">
<path d="M30.255 12.6491C30.255 12.6491 33.3171 11.7175 35.8484 14.5511C38.7909 17.8488 37.332 22.8831 35.996 26.6167C34.6601 30.3503 34.0484 31.6898 33.3804 34.8574C32.8777 37.2269 32.3187 41.4456 28.0753 42.8167C25.1081 43.773 22.0531 41.6109 22.0531 41.6109C22.0531 41.6109 20.798 43.0136 18.0277 43.3476C15.0288 43.7062 11.8472 42.7745 10.7398 40.1589C10.1597 38.7913 9.5972 34.4074 9.19993 31.6195C8.67962 27.9632 6.81986 23.9941 6.35579 20.8476C5.96204 18.1616 6.62298 11.9495 14.9585 11.7843C17.873 11.7281 21.1495 12.8847 21.1495 12.8847C21.1495 12.8847 23.7159 11.5382 25.6742 11.3202C29.4429 10.8984 30.255 12.6491 30.255 12.6491Z" fill="#F68561"/>
<path d="M10.9086 12.5051C11.9844 12.034 13.2711 11.5981 15.5738 11.454C18.8363 11.2501 21.1461 12.8813 21.1461 12.8813C21.1461 12.8813 23.7125 11.5348 25.6707 11.3169C29.443 10.895 30.6031 12.5719 30.6031 12.5719C30.6031 12.5719 29.9879 12.6774 28.9965 13.043C28.1914 13.3383 28.4902 14.0555 29.1547 14.1223C30.459 14.2524 31.5242 15.1102 31.6543 15.5743C31.6543 15.5743 29.5695 14.6778 27.3969 15.3633C24.507 16.2774 23.7266 18.4219 23.7266 18.4219C23.7266 18.4219 22.0988 16.5235 18.2316 15.6446C14.5543 14.8079 11.9105 16.3934 11.9105 16.3934C12.125 15.4653 12.6559 15.0012 13.1305 14.5583C13.9848 13.7602 13.7035 13.0606 12.8316 12.8145C12.1074 12.6106 10.9086 12.5051 10.9086 12.5051Z" fill="#1E4E4E"/>
<path d="M30.9372 1.5954C32.3431 2.8132 29.4708 6.38799 28.8837 6.42314C27.6954 6.48994 26.813 5.04853 24.5981 7.17549C23.6981 8.04033 23.3466 9.2708 23.3747 10.4942C23.3852 10.8985 23.2868 12.4103 23.9969 12.7478C24.2184 12.8532 24.3661 12.9341 25.0551 12.6704C25.8251 12.3751 26.5106 13.1063 26.5106 13.1063L25.1887 14.6145L21.9157 15.6763L18.6321 15.0224L16.7337 13.3524C16.7337 13.3524 17.6161 12.6669 18.3825 12.9411C18.7973 13.0888 19.5989 12.8462 19.6024 12.361C19.6165 11.338 19.5743 10.3642 19.7641 9.34463C20.0805 7.66064 20.7977 6.05049 21.9473 4.7708C23.5962 2.93564 26.4892 -0.211714 28.8834 -0.598433C30.8486 -0.911323 30.9688 -0.06397 30.9372 1.5954Z" fill="#3D8E53"/>
<path d="M23.1074 3.70888C24.6156 2.55576 26.4719 1.89833 28.3527 1.59599C28.9855 1.49404 29.4637 1.52919 29.8223 1.67333C29.091 1.69091 27.6742 2.04951 25.3855 3.62802C23.9441 4.61943 21.0965 8.18076 23.466 11.8616C23.5293 12.1675 23.6418 12.4452 23.8316 12.621C23.2445 12.3573 22.0984 11.4538 21.8383 9.04912C21.5641 6.5038 22.1687 4.82334 23.1074 3.70888Z" fill="#89E159"/>
<path opacity="0.6" d="M24.7398 26.8382C24.7679 28.1706 24.5535 31.1448 23.7238 35.3812C23.0172 38.9882 23.7343 41.6073 24.673 42.778C23.1543 42.3667 22.0574 41.6144 22.0574 41.6144C22.0574 41.6144 21.6672 40.1659 21.6425 38.6859C21.6109 36.9069 22.3527 33.3351 23.2211 30.5015C23.8328 28.5116 24.0156 25.5093 24.0437 23.8218C24.0437 23.8183 24.6906 24.43 24.7398 26.8382Z" fill="#8990A5"/>
<path opacity="0.75" d="M26.772 22.2399C27.1447 22.2821 27.4822 22.0465 27.7634 21.818C28.79 20.9778 29.3736 20.2747 30.5267 19.5751C31.4197 19.0336 33.181 18.668 32.5904 17.2864C32.3056 16.6219 31.2122 16.5376 30.4704 16.6641C27.8865 17.1001 26.7369 18.6188 26.1919 20.5172C26.097 20.8477 25.9704 21.1817 26.0443 21.5227C26.1146 21.8602 26.3888 22.1872 26.7544 22.2399L26.772 22.2399ZM18.6861 18.4887C16.9845 17.4762 14.4744 17.4973 12.372 18.5731C11.8517 18.8403 11.3525 19.1883 11.0501 19.6911C10.8216 20.0708 10.7619 20.6403 11.124 20.8969C11.4263 21.1079 11.8412 20.9813 12.1927 20.8688C14.3021 20.2008 16.6892 20.454 18.6087 21.5543C19.3329 21.9692 20.8869 23.5055 21.3439 22.4297C21.7974 21.3434 20.8025 19.7473 18.6861 18.4887Z" fill="#DBE2F9"/>
</g>
<defs>
<clipPath id="clip0_1233_4764">
<rect width="45" height="45" rx="12" transform="matrix(-1 -4.7057e-09 -4.7057e-09 1 45 0)" fill="white"/>
</clipPath>
</defs>
</svg>
