<svg width="219" height="353" viewBox="0 0 219 353" fill="none" xmlns="http://www.w3.org/2000/svg">
<g filter="url(#filter0_f_1106_4505)">
<path d="M162.533 45.4489L25.8795 55.3915C16.8296 119.306 20.6021 256.939 33.6552 332.309C95.0418 327.691 136.898 325.332 183.608 305.633L162.533 45.4489Z" fill="#262B38"/>
</g>
<path d="M195.613 35L15.4961 48.5513C22.1281 118.955 26.7071 234.73 45.1234 315.795C103.503 324.299 161.464 317.614 216.012 306.141L195.613 35Z" fill="#1F2431"/>
<path d="M195.613 35L15.4961 48.5513C22.1281 118.955 26.7071 234.73 45.1234 315.795C103.503 324.299 161.464 317.614 216.012 306.141L195.613 35Z" fill="url(#paint0_linear_1106_4505)"/>
<path d="M183.229 16.2901C183.517 15.9212 183.941 15.682 184.406 15.6252C184.871 15.5683 185.339 15.6985 185.708 15.9871L189.884 19.25L195.449 23.6066L199.621 26.8699C199.809 27.011 199.966 27.1879 200.085 27.3905C200.203 27.593 200.28 27.8171 200.311 28.0496C200.341 28.2822 200.326 28.5185 200.264 28.7449C200.203 28.9713 200.097 29.1831 199.952 29.3681C199.808 29.5531 199.628 29.7074 199.424 29.8222C199.219 29.937 198.994 30.01 198.761 30.0367C198.528 30.0635 198.292 30.0436 198.067 29.9782C197.841 29.9127 197.631 29.8031 197.449 29.6557L194.879 27.6453L184.201 46.2074L188.562 49.6185C188.922 49.9102 189.153 50.3315 189.205 50.7918C189.257 51.2521 189.126 51.7145 188.841 52.0793C188.556 52.4442 188.138 52.6824 187.679 52.7426C187.22 52.8028 186.755 52.6801 186.385 52.4011L180.82 48.048L176.644 44.7851L166.577 57.6554C166.434 57.8384 166.257 57.9914 166.054 58.1056C165.852 58.2199 165.629 58.2932 165.399 58.3214C165.168 58.3496 164.934 58.3321 164.71 58.2699C164.487 58.2077 164.277 58.102 164.094 57.9589C163.911 57.8158 163.758 57.638 163.644 57.4358C163.53 57.2335 163.456 57.0108 163.428 56.7802C163.4 56.5496 163.418 56.3157 163.48 56.0919C163.542 55.8681 163.648 55.6587 163.791 55.4758L173.858 42.6054L169.686 39.3421L164.12 34.9855C163.933 34.8442 163.776 34.667 163.657 34.4643C163.539 34.2616 163.463 34.0374 163.432 33.8048C163.402 33.5722 163.418 33.3359 163.48 33.1096C163.542 32.8833 163.648 32.6716 163.793 32.4868C163.937 32.302 164.117 32.1479 164.322 32.0334C164.526 31.9189 164.752 31.8463 164.985 31.8198C165.218 31.7934 165.454 31.8136 165.679 31.8794C165.905 31.9452 166.114 32.0551 166.297 32.2028L170.658 35.6139L186.102 20.7801L183.532 18.7697C183.163 18.4811 182.923 18.0577 182.867 17.5927C182.81 17.1277 182.94 16.6591 183.229 16.2901V16.2901Z" fill="#8990A5"/>
<path d="M183.229 16.2901C183.517 15.9212 183.941 15.682 184.406 15.6252C184.871 15.5683 185.339 15.6985 185.708 15.9871L189.884 19.25L195.449 23.6066L199.621 26.8699C199.809 27.011 199.966 27.1879 200.085 27.3905C200.203 27.593 200.28 27.8171 200.311 28.0496C200.341 28.2822 200.326 28.5185 200.264 28.7449C200.203 28.9713 200.097 29.1831 199.952 29.3681C199.808 29.5531 199.628 29.7074 199.424 29.8222C199.219 29.937 198.994 30.01 198.761 30.0367C198.528 30.0635 198.292 30.0436 198.067 29.9782C197.841 29.9127 197.631 29.8031 197.449 29.6557L194.879 27.6453L184.201 46.2074L188.562 49.6185C188.922 49.9102 189.153 50.3315 189.205 50.7918C189.257 51.2521 189.126 51.7145 188.841 52.0793C188.556 52.4442 188.138 52.6824 187.679 52.7426C187.22 52.8028 186.755 52.6801 186.385 52.4011L180.82 48.048L176.644 44.7851L166.577 57.6554C166.434 57.8384 166.257 57.9914 166.054 58.1056C165.852 58.2199 165.629 58.2932 165.399 58.3214C165.168 58.3496 164.934 58.3321 164.71 58.2699C164.487 58.2077 164.277 58.102 164.094 57.9589C163.911 57.8158 163.758 57.638 163.644 57.4358C163.53 57.2335 163.456 57.0108 163.428 56.7802C163.4 56.5496 163.418 56.3157 163.48 56.0919C163.542 55.8681 163.648 55.6587 163.791 55.4758L173.858 42.6054L169.686 39.3421L164.12 34.9855C163.933 34.8442 163.776 34.667 163.657 34.4643C163.539 34.2616 163.463 34.0374 163.432 33.8048C163.402 33.5722 163.418 33.3359 163.48 33.1096C163.542 32.8833 163.648 32.6716 163.793 32.4868C163.937 32.302 164.117 32.1479 164.322 32.0334C164.526 31.9189 164.752 31.8463 164.985 31.8198C165.218 31.7934 165.454 31.8136 165.679 31.8794C165.905 31.9452 166.114 32.0551 166.297 32.2028L170.658 35.6139L186.102 20.7801L183.532 18.7697C183.163 18.4811 182.923 18.0577 182.867 17.5927C182.81 17.1277 182.94 16.6591 183.229 16.2901V16.2901Z" fill="#8990A5"/>
<path d="M115.477 75.9858C110.881 73.6037 103.394 69.103 93.9642 76.4088C92.3417 74.4479 88.1289 73.1102 84.5225 75.8944C80.0146 79.3747 77.5529 83.2359 76.2727 85.683C74.9925 88.1301 65.0205 114.418 86.7242 119.384C104.087 123.358 116.726 119.223 120.148 115.958C124.807 112.857 131.266 107.791 130.513 98.1041C129.761 88.4172 123.759 73.7776 115.477 75.9858Z" fill="#F68561"/>
<path d="M115.477 75.9858C110.881 73.6037 103.394 69.103 93.9642 76.4088C92.3417 74.4479 88.1289 73.1102 84.5225 75.8944C80.0146 79.3747 77.5529 83.2359 76.2727 85.683C74.9925 88.1301 65.0205 114.418 86.7242 119.384C104.087 123.358 116.726 119.223 120.148 115.958C124.807 112.857 131.266 107.791 130.513 98.1041C129.761 88.4172 123.759 73.7776 115.477 75.9858Z" stroke="#F68561"/>
<path d="M98.6568 78.5142C98.4401 82.5768 99.8203 82.53 101.117 82.386C104.155 81.4707 103.928 79.8847 103.233 78.4248L100.86 72.9152L98.8234 68.2512C98.6956 69.8414 98.8819 74.2968 98.6568 78.5142Z" fill="url(#paint1_linear_1106_4505)" stroke="url(#paint2_linear_1106_4505)"/>
<path d="M97.7972 80.5219C99.5632 82.6652 100.281 83.3305 101.395 82.6416C103.784 80.4895 103.004 79.133 101.815 78.0726L97.5325 74.0173L93.8815 70.5966C94.3785 72.1306 95.1492 77.3083 97.7972 80.5219Z" fill="#1E4E4E" stroke="#1E4E4E"/>
<path d="M100.758 82.0107C98.1089 80.3713 100.249 74.0557 111.794 68.9012C110.077 74.1442 102.593 83.4295 100.758 82.0107Z" fill="url(#paint3_linear_1106_4505)" stroke="url(#paint4_linear_1106_4505)"/>
<path d="M96.31 76.8196C99.8252 76.0089 101.371 79.7572 101.295 81.4847C97.6182 83.101 99.1605 81.2859 97.2226 80.4365C95.2803 79.5852 94.5232 81.6025 94.3877 82.5383L93.3228 86.0395L92.6452 84.0561L92.4689 82.831C92.4423 81.5195 92.7948 77.6303 96.31 76.8196Z" fill="#1F2431"/>
<path d="M96.31 76.8196C99.8252 76.0089 101.371 79.7572 101.295 81.4847C97.6182 83.101 99.1605 81.2859 97.2226 80.4365C95.2803 79.5852 94.5232 81.6025 94.3877 82.5383L93.3228 86.0395L92.6452 84.0561L92.4689 82.831C92.4423 81.5195 92.7948 77.6303 96.31 76.8196Z" fill="url(#paint5_linear_1106_4505)"/>
<path d="M96.31 76.8196C99.8252 76.0089 101.371 79.7572 101.295 81.4847C97.6182 83.101 99.1605 81.2859 97.2226 80.4365C95.2803 79.5852 94.5232 81.6025 94.3877 82.5383L93.3228 86.0395L92.6452 84.0561L92.4689 82.831C92.4423 81.5195 92.7948 77.6303 96.31 76.8196Z" stroke="#1F2431"/>
<path d="M96.31 76.8196C99.8252 76.0089 101.371 79.7572 101.295 81.4847C97.6182 83.101 99.1605 81.2859 97.2226 80.4365C95.2803 79.5852 94.5232 81.6025 94.3877 82.5383L93.3228 86.0395L92.6452 84.0561L92.4689 82.831C92.4423 81.5195 92.7948 77.6303 96.31 76.8196Z" stroke="url(#paint6_linear_1106_4505)"/>
<path d="M104.186 76.5512C100.799 76.555 99.9147 80.6412 100.34 82.2282C102.26 82.6091 104.481 80.851 103.635 79.4901C102.789 78.1301 107.287 79.5837 107.604 80.423L108.506 82.0078L108.734 79.9215L108.638 78.6878C108.392 77.465 107.572 76.5475 104.186 76.5512Z" fill="#1F2431"/>
<path d="M104.186 76.5512C100.799 76.555 99.9147 80.6412 100.34 82.2282C102.26 82.6091 104.481 80.851 103.635 79.4901C102.789 78.1301 107.287 79.5837 107.604 80.423L108.506 82.0078L108.734 79.9215L108.638 78.6878C108.392 77.465 107.572 76.5475 104.186 76.5512Z" fill="url(#paint7_linear_1106_4505)"/>
<path d="M104.186 76.5512C100.799 76.555 99.9147 80.6412 100.34 82.2282C102.26 82.6091 104.481 80.851 103.635 79.4901C102.789 78.1301 107.287 79.5837 107.604 80.423L108.506 82.0078L108.734 79.9215L108.638 78.6878C108.392 77.465 107.572 76.5475 104.186 76.5512Z" stroke="#1F2431"/>
<path d="M104.186 76.5512C100.799 76.555 99.9147 80.6412 100.34 82.2282C102.26 82.6091 104.481 80.851 103.635 79.4901C102.789 78.1301 107.287 79.5837 107.604 80.423L108.506 82.0078L108.734 79.9215L108.638 78.6878C108.392 77.465 107.572 76.5475 104.186 76.5512Z" stroke="url(#paint8_linear_1106_4505)"/>
<path d="M81.7038 94.776C81.0518 100.145 79.8742 103.459 78.294 103.231C76.7139 103.002 75.8476 99.3271 76.4996 93.958C77.1517 88.5889 80.3303 83.385 82.7218 84.8532C85.1132 86.3214 82.3559 89.4069 81.7038 94.776Z" fill="#D9D9D9"/>
<path d="M121.356 103.126C124.94 99.4121 125.411 88.768 126.607 90.0575C128.158 91.7293 131.422 96.8525 125.795 107.325C117.61 121.732 94.8754 119.29 92.7097 116.955C90.544 114.62 110.214 116.884 121.356 103.126Z" fill="#8990A5"/>
<path d="M83.091 148.805L80.7321 148.988L81.1898 154.878L79.5009 155.01L79.0432 149.119L76.6983 149.302L76.5887 147.892L82.9815 147.395L83.091 148.805ZM84.1244 151.013C84.0746 150.371 84.1239 149.801 84.2724 149.303C84.4302 148.804 84.655 148.384 84.9468 148.043C85.2379 147.693 85.582 147.422 85.9791 147.232C86.3755 147.033 86.7878 146.917 87.2158 146.884C88.2208 146.805 89.0267 147.056 89.6334 147.637C90.2495 148.216 90.6056 149.124 90.7017 150.362C90.709 150.455 90.7126 150.562 90.7127 150.684C90.7214 150.796 90.7247 150.898 90.7226 150.992L85.9071 151.366C85.9992 151.949 86.2394 152.389 86.6276 152.687C87.0244 152.974 87.5717 153.091 88.2696 153.036C88.679 153.005 89.0484 152.938 89.3776 152.838C89.7161 152.737 89.9798 152.637 90.1687 152.538L90.4994 153.902C90.41 153.956 90.2837 154.017 90.1205 154.086C89.9659 154.145 89.7831 154.201 89.5719 154.255C89.3708 154.318 89.1504 154.372 88.9106 154.419C88.6709 154.466 88.4254 154.499 88.1741 154.518C87.5321 154.568 86.9665 154.518 86.4775 154.369C85.9877 154.211 85.5763 153.976 85.2432 153.665C84.9094 153.344 84.6503 152.962 84.466 152.517C84.281 152.064 84.1671 151.562 84.1244 151.013ZM88.9651 149.879C88.947 149.646 88.8975 149.43 88.8164 149.231C88.7347 149.022 88.6229 148.848 88.481 148.709C88.3478 148.56 88.1848 148.451 87.9922 148.382C87.8082 148.303 87.5906 148.273 87.3393 148.292C87.0788 148.312 86.8548 148.381 86.6673 148.499C86.4791 148.607 86.3214 148.746 86.1941 148.915C86.0761 149.083 85.9879 149.273 85.9293 149.483C85.8708 149.694 85.8359 149.907 85.8246 150.123L88.9651 149.879ZM94.115 149.058C94.1175 149.451 94.1214 149.862 94.1267 150.292C94.1313 150.713 94.1406 151.134 94.1545 151.554C94.1684 151.974 94.1813 152.38 94.193 152.773C94.2048 153.165 94.219 153.529 94.2358 153.865L92.6027 153.992C92.5794 153.45 92.5621 152.867 92.5509 152.24C92.5389 151.605 92.5313 150.964 92.5279 150.318C92.5331 149.663 92.5394 149.021 92.5468 148.393C92.5542 147.765 92.5699 147.184 92.5938 146.648L94.0594 146.534C94.4571 147.074 94.8674 147.717 95.2903 148.461C95.7125 149.196 96.1849 150.034 96.7075 150.977C97.0954 149.945 97.449 149.014 97.7683 148.184C98.0869 147.345 98.3767 146.676 98.6376 146.179L100.117 146.064C100.223 146.589 100.329 147.161 100.433 147.78C100.547 148.399 100.652 149.032 100.749 149.68C100.846 150.318 100.937 150.952 101.023 151.582C101.109 152.203 101.182 152.782 101.243 153.32L99.5677 153.45C99.4898 152.689 99.3961 151.905 99.2867 151.099C99.1859 150.283 99.0764 149.477 98.9584 148.681C98.8405 148.971 98.7112 149.295 98.5705 149.652C98.439 150.009 98.3079 150.37 98.1772 150.736C98.0465 151.102 97.9197 151.458 97.7969 151.805C97.6733 152.142 97.5654 152.44 97.4733 152.7L96.2171 152.798C96.0859 152.555 95.9282 152.273 95.744 151.95C95.5691 151.627 95.3888 151.294 95.2031 150.953C95.0174 150.612 94.8279 150.28 94.6343 149.958C94.4494 149.626 94.2763 149.326 94.115 149.058ZM108.716 145.396L109.283 152.696L107.594 152.827L107.137 146.937L104.443 147.146L104.901 153.036L103.212 153.167L102.644 145.867L108.716 145.396ZM110.745 148.945C110.695 148.303 110.745 147.733 110.893 147.234C111.051 146.735 111.276 146.315 111.568 145.974C111.859 145.624 112.203 145.354 112.6 145.164C112.996 144.965 113.409 144.848 113.837 144.815C114.842 144.737 115.648 144.988 116.254 145.568C116.87 146.147 117.227 147.056 117.323 148.294C117.33 148.387 117.334 148.494 117.334 148.616C117.342 148.727 117.346 148.83 117.344 148.924L112.528 149.298C112.62 149.881 112.86 150.321 113.249 150.618C113.645 150.906 114.193 151.022 114.891 150.968C115.3 150.936 115.669 150.87 115.999 150.77C116.337 150.668 116.601 150.568 116.79 150.469L117.12 151.834C117.031 151.888 116.905 151.949 116.741 152.018C116.587 152.077 116.404 152.133 116.193 152.187C115.992 152.249 115.771 152.304 115.532 152.35C115.292 152.397 115.046 152.43 114.795 152.45C114.153 152.5 113.587 152.45 113.098 152.301C112.609 152.142 112.197 151.907 111.864 151.596C111.53 151.276 111.271 150.893 111.087 150.449C110.902 149.995 110.788 149.494 110.745 148.945ZM115.586 147.811C115.568 147.578 115.518 147.362 115.437 147.162C115.356 146.953 115.244 146.779 115.102 146.641C114.969 146.492 114.806 146.383 114.613 146.313C114.429 146.234 114.211 146.204 113.96 146.224C113.7 146.244 113.476 146.313 113.288 146.43C113.1 146.539 112.942 146.677 112.815 146.846C112.697 147.015 112.609 147.204 112.55 147.415C112.492 147.625 112.457 147.838 112.446 148.055L115.586 147.811ZM123.968 147.918C123.909 147.164 123.691 146.591 123.314 146.199C122.947 145.806 122.386 145.639 121.633 145.698C121.474 145.71 121.308 145.732 121.132 145.765C120.966 145.787 120.8 145.828 120.636 145.888L120.961 150.061C121.117 150.152 121.32 150.234 121.57 150.309C121.827 150.373 122.096 150.394 122.375 150.372C122.989 150.325 123.419 150.081 123.666 149.64C123.922 149.199 124.023 148.625 123.968 147.918ZM125.696 147.755C125.74 148.314 125.705 148.831 125.592 149.308C125.489 149.784 125.315 150.2 125.071 150.556C124.827 150.912 124.508 151.199 124.113 151.417C123.727 151.634 123.279 151.763 122.767 151.802C122.423 151.829 122.103 151.812 121.808 151.75C121.513 151.689 121.269 151.615 121.074 151.527L121.295 154.36L119.606 154.491L118.856 144.846C119.193 144.727 119.61 144.605 120.106 144.482C120.602 144.36 121.129 144.277 121.687 144.233C122.264 144.188 122.788 144.237 123.257 144.378C123.727 144.519 124.133 144.745 124.475 145.056C124.826 145.356 125.104 145.737 125.308 146.199C125.521 146.65 125.651 147.169 125.696 147.755ZM130.196 149.877C130.717 149.837 131.11 149.778 131.376 149.701L131.231 147.831C131.135 147.81 130.998 147.793 130.819 147.778C130.64 147.764 130.444 147.765 130.23 147.782C130.044 147.797 129.854 147.825 129.661 147.868C129.477 147.911 129.309 147.975 129.156 148.062C129.013 148.148 128.9 148.265 128.818 148.411C128.735 148.549 128.702 148.72 128.718 148.925C128.749 149.325 128.896 149.594 129.16 149.733C129.422 149.862 129.768 149.91 130.196 149.877ZM129.567 143.593C130.126 143.549 130.601 143.583 130.993 143.693C131.386 143.803 131.703 143.975 131.946 144.208C132.198 144.442 132.385 144.736 132.506 145.092C132.636 145.437 132.718 145.824 132.751 146.252L133.095 150.677C132.838 150.753 132.448 150.849 131.923 150.964C131.409 151.089 130.821 151.177 130.16 151.228C129.723 151.262 129.32 151.251 128.95 151.195C128.581 151.14 128.259 151.029 127.984 150.863C127.718 150.697 127.499 150.47 127.327 150.184C127.164 149.897 127.066 149.535 127.032 149.098C127 148.679 127.051 148.319 127.187 148.019C127.332 147.717 127.537 147.467 127.803 147.269C128.067 147.061 128.378 146.906 128.735 146.803C129.101 146.69 129.484 146.618 129.884 146.587C130.07 146.573 130.267 146.572 130.474 146.584C130.68 146.586 130.901 146.607 131.138 146.644L131.117 146.365C131.101 146.17 131.064 145.985 131.003 145.812C130.943 145.639 130.848 145.492 130.716 145.371C130.594 145.24 130.432 145.145 130.231 145.086C130.039 145.026 129.799 145.007 129.51 145.03C129.12 145.06 128.763 145.116 128.442 145.197C128.121 145.278 127.861 145.364 127.662 145.454L127.346 144.102C127.554 144.011 127.86 143.913 128.264 143.806C128.668 143.7 129.102 143.629 129.567 143.593ZM140.218 144.366L137.859 144.549L138.316 150.44L136.628 150.571L136.17 144.681L133.825 144.863L133.715 143.453L140.108 142.956L140.218 144.366ZM147.589 142.375C147.05 145.207 146.371 147.787 145.55 150.116C145.397 150.55 145.234 150.923 145.061 151.236C144.889 151.549 144.69 151.812 144.463 152.026C144.236 152.241 143.977 152.401 143.686 152.508C143.395 152.624 143.055 152.697 142.664 152.728C142.403 152.748 142.14 152.74 141.876 152.705C141.62 152.668 141.425 152.623 141.289 152.568L141.491 151.19C141.836 151.294 142.172 151.334 142.497 151.308C142.935 151.274 143.266 151.141 143.491 150.908C143.727 150.684 143.92 150.346 144.072 149.894C143.463 148.912 142.864 147.835 142.277 146.664C141.699 145.491 141.166 144.241 140.679 142.912L142.48 142.772C142.603 143.156 142.748 143.57 142.914 144.016C143.089 144.461 143.274 144.915 143.469 145.377C143.663 145.83 143.867 146.283 144.08 146.734C144.293 147.186 144.503 147.605 144.711 147.991C144.944 147.14 145.155 146.239 145.343 145.288C145.531 144.328 145.698 143.402 145.844 142.511L147.589 142.375ZM153.996 145.584C153.938 144.831 153.72 144.258 153.343 143.866C152.976 143.473 152.415 143.306 151.661 143.365C151.503 143.377 151.336 143.399 151.161 143.432C150.994 143.454 150.829 143.495 150.665 143.554L150.989 147.728C151.146 147.819 151.349 147.901 151.598 147.975C151.856 148.04 152.124 148.061 152.404 148.039C153.018 147.991 153.448 147.747 153.695 147.307C153.951 146.866 154.051 146.292 153.996 145.584ZM155.725 145.422C155.768 145.98 155.734 146.498 155.621 146.975C155.517 147.451 155.344 147.867 155.1 148.223C154.856 148.579 154.537 148.866 154.142 149.084C153.756 149.301 153.307 149.429 152.796 149.469C152.451 149.496 152.132 149.479 151.837 149.417C151.542 149.356 151.297 149.281 151.103 149.193L151.323 152.027L149.634 152.158L148.885 142.513C149.222 142.393 149.639 142.272 150.134 142.149C150.63 142.026 151.158 141.943 151.716 141.9C152.293 141.855 152.816 141.903 153.286 142.045C153.756 142.186 154.162 142.412 154.504 142.722C154.855 143.023 155.133 143.404 155.337 143.865C155.55 144.317 155.679 144.836 155.725 145.422ZM160.225 147.544C160.746 147.503 161.139 147.445 161.404 147.368L161.259 145.498C161.164 145.477 161.027 145.459 160.848 145.445C160.669 145.431 160.472 145.432 160.258 145.449C160.072 145.463 159.883 145.492 159.689 145.535C159.505 145.578 159.337 145.642 159.185 145.729C159.042 145.815 158.929 145.931 158.847 146.078C158.764 146.216 158.73 146.387 158.746 146.591C158.777 146.992 158.925 147.261 159.188 147.4C159.451 147.529 159.797 147.577 160.225 147.544ZM159.596 141.26C160.154 141.216 160.63 141.25 161.022 141.359C161.414 141.469 161.732 141.641 161.975 141.875C162.227 142.108 162.414 142.403 162.535 142.758C162.665 143.104 162.746 143.491 162.779 143.919L163.123 148.344C162.867 148.42 162.477 148.516 161.952 148.631C161.437 148.756 160.85 148.843 160.189 148.895C159.752 148.929 159.348 148.918 158.979 148.862C158.61 148.807 158.287 148.696 158.012 148.53C157.747 148.364 157.528 148.137 157.356 147.851C157.193 147.564 157.095 147.202 157.061 146.765C157.028 146.346 157.08 145.986 157.216 145.685C157.361 145.384 157.566 145.134 157.831 144.935C158.096 144.728 158.407 144.572 158.764 144.47C159.13 144.357 159.513 144.285 159.913 144.254C160.099 144.24 160.295 144.238 160.502 144.25C160.708 144.253 160.93 144.273 161.167 144.311L161.145 144.032C161.13 143.837 161.092 143.652 161.032 143.479C160.972 143.306 160.876 143.159 160.745 143.038C160.623 142.907 160.461 142.812 160.26 142.753C160.068 142.693 159.827 142.674 159.539 142.696C159.148 142.727 158.792 142.782 158.471 142.864C158.149 142.945 157.889 143.031 157.69 143.121L157.375 141.769C157.583 141.678 157.889 141.58 158.292 141.473C158.696 141.367 159.131 141.296 159.596 141.26ZM82.5127 174.976C82.2428 174.997 81.9676 175.009 81.687 175.012C81.4064 175.015 81.1347 175.013 80.872 175.005C80.6186 174.997 80.3791 174.988 80.1536 174.977C79.9274 174.957 79.7384 174.934 79.5866 174.909L79.039 167.86C79.1849 167.811 79.3685 167.764 79.5897 167.719C79.8101 167.664 80.0452 167.618 80.295 167.58C80.5534 167.532 80.8218 167.492 81.1002 167.461C81.378 167.421 81.6517 167.39 81.9216 167.369C82.908 167.293 83.6897 167.414 84.267 167.735C84.8434 168.046 85.1566 168.522 85.2065 169.164C85.2325 169.499 85.1719 169.803 85.0247 170.077C84.8774 170.351 84.6739 170.563 84.4142 170.714C84.7593 170.818 85.0637 171.001 85.3273 171.261C85.5909 171.521 85.7426 171.908 85.7824 172.419C85.8395 173.154 85.5952 173.744 85.0493 174.189C84.5028 174.625 83.6572 174.887 82.5127 174.976ZM82.2042 170.465C82.623 170.432 82.9626 170.345 83.223 170.203C83.4928 170.06 83.6136 169.807 83.5854 169.445C83.5716 169.268 83.5139 169.127 83.4122 169.023C83.3197 168.918 83.1966 168.838 83.0426 168.785C82.8887 168.731 82.7133 168.703 82.5164 168.699C82.3188 168.686 82.113 168.688 81.899 168.705C81.7315 168.718 81.5365 168.738 81.3139 168.764C81.1006 168.79 80.9295 168.818 80.8007 168.846L80.9341 170.563L82.2042 170.465ZM81.1759 173.676C81.289 173.686 81.4719 173.69 81.7246 173.689C81.9859 173.679 82.2282 173.664 82.4515 173.647C82.954 173.608 83.3627 173.506 83.6775 173.341C84.0016 173.176 84.1485 172.897 84.1182 172.506C84.0885 172.125 83.9147 171.876 83.5968 171.761C83.2875 171.635 82.8909 171.591 82.407 171.628L81.0252 171.736L81.1759 173.676ZM93.8633 170.275C93.9081 170.852 93.8652 171.384 93.7346 171.872C93.604 172.359 93.3981 172.782 93.1171 173.141C92.836 173.5 92.4841 173.79 92.0612 174.01C91.6476 174.229 91.1803 174.359 90.6592 174.399C90.1381 174.44 89.6563 174.384 89.2138 174.231C88.7713 174.078 88.3835 173.846 88.0504 173.535C87.7172 173.224 87.4439 172.838 87.2302 172.377C87.0258 171.915 86.9012 171.396 86.8564 170.819C86.8116 170.242 86.8548 169.715 86.9862 169.236C87.1261 168.748 87.3366 168.325 87.6176 167.966C87.908 167.606 88.2603 167.321 88.6746 167.111C89.0882 166.892 89.5509 166.762 90.0627 166.723C90.5745 166.683 91.0516 166.739 91.4941 166.892C91.9452 167.035 92.3373 167.262 92.6704 167.573C93.0035 167.884 93.2722 168.271 93.4766 168.732C93.6896 169.184 93.8184 169.698 93.8633 170.275ZM92.1325 170.409C92.0761 169.684 91.8734 169.124 91.5245 168.729C91.1842 168.325 90.7349 168.145 90.1765 168.188C89.6182 168.232 89.1975 168.48 88.9144 168.932C88.6399 169.375 88.5308 169.959 88.5872 170.685C88.6443 171.42 88.843 171.99 89.1834 172.394C89.533 172.797 89.987 172.977 90.5453 172.934C91.1036 172.891 91.5197 172.643 91.7935 172.191C92.0766 171.738 92.1896 171.144 92.1325 170.409ZM94.812 166.761C94.9294 166.705 95.0746 166.647 95.2478 166.587C95.421 166.526 95.6085 166.47 95.8103 166.416C96.0122 166.363 96.224 166.319 96.4459 166.283C96.6764 166.237 96.9079 166.205 97.1405 166.187C97.5407 166.156 97.9251 166.163 98.2938 166.209C98.6625 166.256 98.9882 166.352 99.2711 166.499C99.554 166.645 99.7846 166.843 99.9631 167.091C100.151 167.338 100.259 167.644 100.287 168.006C100.317 168.397 100.236 168.736 100.043 169.022C99.8499 169.309 99.6188 169.528 99.3498 169.68C99.7808 169.806 100.12 170.013 100.367 170.303C100.614 170.593 100.756 170.975 100.793 171.45C100.823 171.831 100.764 172.163 100.618 172.446C100.481 172.728 100.275 172.969 100 173.168C99.7338 173.357 99.4129 173.504 99.0371 173.608C98.6621 173.721 98.2513 173.796 97.8046 173.83C97.2649 173.872 96.7588 173.865 96.2863 173.808C95.8146 173.76 95.4391 173.686 95.1598 173.586L95.3466 172.196C95.5292 172.256 95.8199 172.323 96.2187 172.395C96.6167 172.457 97.081 172.468 97.6114 172.427C98.6349 172.347 99.1236 172.01 99.0773 171.414C99.0607 171.2 99.0008 171.032 98.8976 170.909C98.7944 170.786 98.6705 170.697 98.5259 170.643C98.3805 170.579 98.2187 170.545 98.0405 170.54C97.8615 170.526 97.6883 170.525 97.5208 170.538L96.125 170.647L96.0274 169.391L97.4092 169.283C97.7535 169.256 98.0419 169.173 98.2745 169.033C98.5156 168.884 98.6239 168.651 98.5993 168.334C98.579 168.074 98.4422 167.878 98.1886 167.748C97.9437 167.608 97.6072 167.555 97.1792 167.588C96.9931 167.602 96.8034 167.631 96.6102 167.674C96.4162 167.708 96.2276 167.751 96.0444 167.802C95.8705 167.853 95.7109 167.908 95.5656 167.966C95.4197 168.015 95.3062 168.061 95.2254 168.105L94.812 166.761ZM101.661 171.958L102.499 171.893C102.757 171.489 102.948 171.048 103.07 170.571C103.201 170.083 103.283 169.58 103.318 169.063C103.352 168.536 103.357 168.002 103.334 167.461C103.311 166.92 103.284 166.393 103.253 165.88L108.487 165.474L108.947 171.392L110.064 171.305L110.332 174.753L108.824 174.87L108.664 172.804L103.262 173.224L103.423 175.289L101.929 175.405L101.661 171.958ZM107.258 171.523L106.907 167.001L104.925 167.155C104.936 167.538 104.943 167.93 104.946 168.332C104.949 168.725 104.928 169.12 104.884 169.517C104.839 169.904 104.766 170.289 104.665 170.671C104.572 171.044 104.436 171.405 104.257 171.756L107.258 171.523ZM117.187 164.798C116.649 167.629 115.97 170.21 115.149 172.539C114.995 172.972 114.832 173.345 114.66 173.658C114.488 173.971 114.288 174.235 114.062 174.449C113.835 174.663 113.576 174.823 113.285 174.93C112.994 175.047 112.653 175.12 112.262 175.15C112.002 175.17 111.739 175.163 111.474 175.127C111.219 175.091 111.023 175.045 110.888 174.99L111.09 173.612C111.435 173.717 111.77 173.756 112.096 173.731C112.533 173.697 112.865 173.563 113.09 173.331C113.325 173.106 113.519 172.768 113.671 172.317C113.061 171.334 112.463 170.257 111.876 169.086C111.298 167.914 110.765 166.663 110.278 165.334L112.079 165.195C112.202 165.578 112.347 165.993 112.512 166.439C112.687 166.884 112.872 167.337 113.068 167.8C113.262 168.253 113.465 168.705 113.678 169.157C113.891 169.608 114.102 170.027 114.31 170.413C114.543 169.562 114.754 168.661 114.942 167.71C115.13 166.75 115.297 165.824 115.443 164.933L117.187 164.798ZM121.425 166.87L122.789 164.362L124.561 164.225L122.428 167.859C122.981 168.471 123.512 169.095 124.02 169.729C124.537 170.354 124.967 170.947 125.31 171.511L123.481 171.653C123.384 171.482 123.257 171.291 123.1 171.078C122.951 170.856 122.789 170.63 122.612 170.4C122.443 170.161 122.266 169.926 122.08 169.697C121.893 169.468 121.713 169.253 121.538 169.051C121.245 169.495 120.96 169.986 120.683 170.522C120.415 171.048 120.194 171.515 120.02 171.922L118.289 172.056C118.407 171.766 118.551 171.455 118.722 171.124C118.893 170.792 119.077 170.455 119.275 170.112C119.473 169.759 119.675 169.411 119.882 169.068C120.098 168.714 120.311 168.379 120.52 168.063L117.834 164.747L119.69 164.603L121.425 166.87ZM129.046 170.027C129.567 169.986 129.961 169.928 130.226 169.851L130.081 167.98C129.986 167.96 129.849 167.942 129.67 167.928C129.491 167.914 129.294 167.915 129.08 167.932C128.894 167.946 128.704 167.975 128.511 168.018C128.327 168.06 128.159 168.125 128.007 168.212C127.864 168.298 127.751 168.414 127.669 168.561C127.586 168.698 127.552 168.87 127.568 169.074C127.599 169.474 127.747 169.744 128.01 169.882C128.273 170.012 128.618 170.06 129.046 170.027ZM128.418 163.742C128.976 163.699 129.451 163.732 129.844 163.842C130.236 163.952 130.554 164.124 130.796 164.358C131.049 164.591 131.235 164.886 131.357 165.241C131.486 165.587 131.568 165.974 131.601 166.402L131.945 170.827C131.689 170.903 131.298 170.998 130.774 171.114C130.259 171.238 129.672 171.326 129.011 171.377C128.574 171.411 128.17 171.401 127.801 171.345C127.431 171.29 127.109 171.179 126.834 171.013C126.568 170.846 126.35 170.62 126.178 170.334C126.015 170.047 125.916 169.685 125.882 169.247C125.85 168.829 125.902 168.469 126.037 168.168C126.182 167.867 126.388 167.617 126.653 167.418C126.918 167.21 127.229 167.055 127.586 166.953C127.952 166.84 128.334 166.768 128.735 166.737C128.921 166.722 129.117 166.721 129.324 166.733C129.53 166.736 129.752 166.756 129.989 166.794L129.967 166.515C129.952 166.319 129.914 166.135 129.854 165.962C129.794 165.789 129.698 165.642 129.567 165.521C129.444 165.39 129.282 165.295 129.081 165.236C128.889 165.176 128.649 165.157 128.361 165.179C127.97 165.21 127.614 165.265 127.293 165.346C126.971 165.428 126.711 165.513 126.512 165.604L126.196 164.252C126.405 164.161 126.711 164.062 127.114 163.956C127.518 163.85 127.952 163.779 128.418 163.742Z" fill="#DBE2F9"/>
<path d="M86.8506 195.38C86.8767 195.715 86.8325 196.051 86.7183 196.387C86.6033 196.714 86.446 197.04 86.2466 197.365C86.0557 197.679 85.8319 197.991 85.5751 198.301C85.3177 198.602 85.0598 198.898 84.8016 199.19C84.6636 199.341 84.5091 199.522 84.3382 199.731C84.1673 199.941 84.0057 200.151 83.8533 200.359C83.701 200.567 83.5716 200.769 83.4651 200.965C83.3579 201.151 83.3043 201.305 83.3044 201.427L87.6035 201.093L87.7141 202.516L81.5586 202.995C81.5435 202.921 81.532 202.833 81.5241 202.731C81.5154 202.619 81.5089 202.535 81.5045 202.479C81.4698 202.033 81.5078 201.618 81.6185 201.235C81.7377 200.842 81.901 200.473 82.1083 200.129C82.3157 199.786 82.5523 199.458 82.8184 199.147C83.0844 198.837 83.3509 198.53 83.6176 198.229C83.8243 197.997 84.0221 197.771 84.2109 197.551C84.3997 197.33 84.561 197.116 84.6947 196.909C84.8369 196.692 84.9467 196.478 85.0238 196.266C85.1002 196.045 85.1298 195.822 85.1124 195.599C85.0748 195.115 84.9085 194.782 84.6134 194.599C84.3184 194.416 83.9708 194.34 83.5706 194.371C83.3101 194.391 83.071 194.447 82.8535 194.539C82.6359 194.631 82.4428 194.735 82.2739 194.851C82.1144 194.966 81.9738 195.085 81.8522 195.206C81.7299 195.319 81.6387 195.41 81.5786 195.48L80.6489 194.359C81.0108 193.957 81.4437 193.623 81.9474 193.36C82.4597 193.086 83.0183 192.925 83.6232 192.878C84.6561 192.798 85.4336 192.986 85.9558 193.441C86.4866 193.887 86.7848 194.533 86.8506 195.38ZM93.7575 199.266C93.7337 198.959 93.6518 198.69 93.5121 198.457C93.3723 198.224 93.1424 198.036 92.8223 197.893C92.5115 197.748 92.097 197.654 91.5787 197.61C91.0697 197.566 90.429 197.573 89.6567 197.633C89.6896 196.732 89.7029 195.879 89.6966 195.074C89.6895 194.261 89.6731 193.447 89.6474 192.635L94.5885 192.251L94.6992 193.675L91.1957 193.947C91.1987 194.106 91.1989 194.288 91.1962 194.494C91.202 194.691 91.2036 194.892 91.2009 195.098C91.2075 195.303 91.2087 195.5 91.2046 195.687C91.2004 195.875 91.1941 196.035 91.1856 196.166C92.5686 196.134 93.6075 196.371 94.3022 196.879C95.0055 197.377 95.3944 198.105 95.4689 199.063C95.5029 199.501 95.4599 199.911 95.3399 200.295C95.22 200.679 95.0169 201.017 94.7308 201.311C94.4447 201.605 94.0752 201.849 93.6222 202.043C93.1685 202.228 92.6299 202.345 92.0065 202.393C91.7552 202.413 91.4979 202.414 91.2345 202.397C90.971 202.38 90.7162 202.353 90.4699 202.316C90.2336 202.288 90.0203 202.253 89.8299 202.212C89.6394 202.17 89.4959 202.13 89.3992 202.091L89.6096 200.642C89.8122 200.72 90.0993 200.8 90.4709 200.884C90.8511 200.957 91.3064 200.973 91.8368 200.932C92.1997 200.904 92.5085 200.843 92.7633 200.748C93.0173 200.644 93.218 200.516 93.3654 200.364C93.522 200.212 93.6307 200.044 93.6914 199.861C93.7514 199.669 93.7734 199.471 93.7575 199.266ZM99.7684 196.791L103.523 196.5L103.644 198.049L99.8888 198.341L99.7684 196.791ZM110.788 200.934C110.537 200.954 110.275 200.955 110.002 200.939C109.739 200.931 109.485 200.909 109.239 200.872C109.002 200.844 108.784 200.809 108.585 200.768C108.384 200.718 108.231 200.669 108.124 200.622L108.347 199.158C108.55 199.236 108.842 199.321 109.224 199.413C109.604 199.496 110.069 199.516 110.618 199.473C111.353 199.416 111.873 199.235 112.177 198.931C112.48 198.617 112.614 198.223 112.577 197.748C112.553 197.441 112.468 197.19 112.322 196.996C112.185 196.8 112 196.651 111.767 196.547C111.543 196.433 111.285 196.365 110.993 196.34C110.709 196.306 110.409 196.302 110.093 196.326L109.521 196.371L109.414 195.003L110.112 194.948C110.326 194.932 110.539 194.897 110.75 194.843C110.97 194.779 111.164 194.689 111.333 194.573C111.501 194.447 111.634 194.292 111.732 194.107C111.83 193.921 111.868 193.689 111.846 193.41C111.829 193.186 111.772 192.999 111.676 192.847C111.58 192.695 111.458 192.574 111.311 192.482C111.173 192.39 111.013 192.327 110.833 192.295C110.653 192.262 110.465 192.253 110.269 192.268C109.85 192.301 109.483 192.395 109.168 192.55C108.851 192.697 108.574 192.859 108.335 193.036L107.623 191.828C107.747 191.734 107.898 191.633 108.077 191.526C108.256 191.418 108.454 191.314 108.671 191.213C108.897 191.111 109.138 191.027 109.395 190.96C109.651 190.884 109.924 190.835 110.212 190.812C110.752 190.77 111.222 190.799 111.623 190.899C112.024 190.999 112.36 191.16 112.63 191.383C112.908 191.595 113.121 191.86 113.267 192.176C113.422 192.482 113.514 192.826 113.544 193.207C113.579 193.654 113.484 194.064 113.26 194.437C113.046 194.81 112.75 195.104 112.374 195.32C112.89 195.458 113.327 195.719 113.685 196.103C114.051 196.487 114.26 196.999 114.31 197.641C114.343 198.069 114.299 198.475 114.18 198.859C114.059 199.234 113.855 199.568 113.569 199.861C113.283 200.146 112.908 200.386 112.446 200.581C111.992 200.766 111.439 200.884 110.788 200.934ZM122.362 194.952C122.489 196.58 122.288 197.855 121.761 198.776C121.233 199.687 120.443 200.184 119.391 200.266C118.34 200.347 117.483 199.979 116.82 199.16C116.156 198.331 115.761 197.103 115.635 195.474C115.572 194.665 115.591 193.942 115.691 193.307C115.8 192.662 115.982 192.115 116.237 191.664C116.502 191.213 116.83 190.86 117.222 190.605C117.624 190.349 118.085 190.201 118.606 190.16C119.657 190.078 120.515 190.452 121.178 191.28C121.841 192.099 122.236 193.323 122.362 194.952ZM120.618 195.087C120.579 194.585 120.514 194.117 120.424 193.684C120.335 193.251 120.212 192.881 120.057 192.575C119.911 192.259 119.728 192.015 119.509 191.845C119.29 191.675 119.027 191.602 118.72 191.626C118.413 191.65 118.159 191.763 117.96 191.966C117.77 192.168 117.622 192.437 117.517 192.772C117.421 193.098 117.362 193.482 117.34 193.924C117.327 194.365 117.34 194.836 117.379 195.339C117.419 195.841 117.478 196.309 117.559 196.743C117.649 197.176 117.767 197.551 117.913 197.867C118.068 198.173 118.255 198.411 118.474 198.582C118.702 198.751 118.97 198.824 119.277 198.8C119.584 198.776 119.833 198.663 120.023 198.461C120.214 198.259 120.357 197.995 120.453 197.67C120.558 197.334 120.622 196.945 120.643 196.503C120.665 196.062 120.657 195.59 120.618 195.087ZM126.272 192.429C126.252 192.178 126.22 191.946 126.176 191.734C126.13 191.513 126.064 191.327 125.978 191.174C125.891 191.022 125.784 190.904 125.655 190.82C125.527 190.736 125.375 190.701 125.198 190.715C124.835 190.743 124.597 190.935 124.484 191.29C124.371 191.645 124.335 192.074 124.374 192.577C124.413 193.088 124.516 193.511 124.683 193.844C124.849 194.178 125.114 194.331 125.477 194.302C125.653 194.289 125.799 194.231 125.912 194.128C126.026 194.026 126.114 193.892 126.176 193.728C126.238 193.564 126.275 193.37 126.285 193.144C126.296 192.919 126.291 192.68 126.272 192.429ZM123.117 192.674C123.046 191.762 123.183 191.045 123.526 190.522C123.878 189.999 124.404 189.71 125.101 189.655C125.799 189.601 126.358 189.806 126.778 190.269C127.207 190.732 127.457 191.42 127.528 192.332C127.6 193.253 127.459 193.975 127.107 194.499C126.763 195.021 126.243 195.31 125.545 195.364C124.847 195.418 124.284 195.214 123.854 194.751C123.435 194.288 123.189 193.595 123.117 192.674ZM133.888 199.139C133.163 199.196 132.503 199.135 131.908 198.956C131.314 198.778 130.8 198.49 130.367 198.093C129.933 197.687 129.584 197.18 129.322 196.573C129.059 195.966 128.897 195.258 128.834 194.449C128.771 193.639 128.836 192.913 129.03 192.271C129.233 191.628 129.531 191.076 129.926 190.615C130.32 190.144 130.797 189.775 131.357 189.506C131.916 189.238 132.526 189.079 133.187 189.027C133.587 188.996 133.953 189 134.283 189.04C134.613 189.071 134.902 189.114 135.15 189.17C135.398 189.225 135.604 189.289 135.769 189.36C135.933 189.432 136.05 189.483 136.118 189.516L135.713 190.993C135.479 190.871 135.148 190.766 134.719 190.677C134.3 190.579 133.848 190.549 133.364 190.586C132.946 190.619 132.561 190.724 132.209 190.901C131.857 191.068 131.557 191.307 131.31 191.616C131.072 191.925 130.895 192.304 130.78 192.753C130.665 193.202 130.63 193.715 130.675 194.292C130.715 194.803 130.807 195.269 130.952 195.688C131.107 196.107 131.317 196.465 131.583 196.763C131.849 197.051 132.175 197.269 132.561 197.417C132.946 197.555 133.399 197.605 133.921 197.564C134.544 197.516 135.046 197.416 135.428 197.264C135.809 197.104 136.102 196.959 136.307 196.831L136.893 198.232C136.787 198.315 136.64 198.401 136.45 198.491C136.27 198.58 136.052 198.672 135.797 198.766C135.542 198.852 135.253 198.926 134.93 198.988C134.608 199.06 134.261 199.11 133.888 199.139Z" fill="#89E159"/>
<path d="M87.1626 234.796C86.8927 234.817 86.6175 234.829 86.3369 234.832C86.0563 234.835 85.7846 234.833 85.5219 234.825C85.2685 234.817 85.029 234.807 84.8035 234.797C84.5773 234.777 84.3883 234.754 84.2365 234.729L83.6889 227.68C83.8348 227.631 84.0184 227.584 84.2396 227.539C84.46 227.484 84.6951 227.438 84.9449 227.4C85.2033 227.352 85.4717 227.312 85.7501 227.281C86.0279 227.241 86.3016 227.21 86.5715 227.189C87.5579 227.112 88.3396 227.234 88.9169 227.554C89.4933 227.865 89.8065 228.342 89.8564 228.984C89.8824 229.319 89.8218 229.623 89.6746 229.897C89.5273 230.17 89.3238 230.383 89.0641 230.534C89.4092 230.638 89.7136 230.821 89.9772 231.081C90.2408 231.341 90.3925 231.727 90.4323 232.239C90.4894 232.974 90.2451 233.564 89.6992 234.009C89.1527 234.445 88.3071 234.707 87.1626 234.796ZM86.8541 230.284C87.2729 230.252 87.6125 230.165 87.8729 230.023C88.1427 229.88 88.2635 229.627 88.2353 229.264C88.2215 229.088 88.1638 228.947 88.0621 228.843C87.9696 228.737 87.8465 228.658 87.6925 228.604C87.5386 228.551 87.3632 228.522 87.1663 228.519C86.9687 228.506 86.7629 228.508 86.5489 228.525C86.3814 228.538 86.1864 228.558 85.9638 228.584C85.7505 228.61 85.5794 228.638 85.4506 228.666L85.584 230.383L86.8541 230.284ZM85.8258 233.496C85.9389 233.506 86.1218 233.51 86.3745 233.509C86.6358 233.498 86.8781 233.484 87.1014 233.467C87.6039 233.428 88.0126 233.326 88.3274 233.161C88.6515 232.995 88.7984 232.717 88.7681 232.326C88.7384 231.945 88.5646 231.696 88.2467 231.581C87.9374 231.455 87.5408 231.411 87.0569 231.448L85.6751 231.556L85.8258 233.496ZM94.5978 228.138C94.6203 228.548 94.6396 228.977 94.6557 229.426C94.6711 229.864 94.6582 230.301 94.617 230.734C94.5851 231.168 94.5099 231.585 94.3914 231.988C94.2729 232.39 94.091 232.76 93.8457 233.097C93.6091 233.425 93.299 233.711 92.9155 233.956C92.5406 234.191 92.0715 234.359 91.5082 234.459L91.1613 233.067C91.6287 232.937 91.9847 232.76 92.2293 232.535C92.4732 232.301 92.6523 232.015 92.7666 231.679C92.8595 231.428 92.9219 231.147 92.9539 230.836C92.9951 230.523 93.0167 230.199 93.0186 229.862C93.0291 229.514 93.0252 229.164 93.0071 228.809C92.9889 228.455 92.9668 228.11 92.9408 227.775L92.8703 226.868L98.0347 226.467L98.6019 233.767L96.913 233.898L96.4542 227.994L94.5978 228.138ZM103.231 232.214C103.753 232.173 104.146 232.114 104.411 232.038L104.266 230.167C104.171 230.147 104.034 230.129 103.855 230.115C103.676 230.101 103.479 230.102 103.265 230.119C103.079 230.133 102.889 230.162 102.696 230.205C102.512 230.247 102.344 230.312 102.192 230.399C102.049 230.485 101.936 230.601 101.854 230.748C101.771 230.885 101.737 231.057 101.753 231.261C101.784 231.661 101.932 231.931 102.195 232.069C102.458 232.199 102.803 232.247 103.231 232.214ZM102.603 225.929C103.161 225.886 103.636 225.919 104.029 226.029C104.421 226.139 104.739 226.311 104.982 226.545C105.234 226.778 105.42 227.073 105.542 227.428C105.672 227.774 105.753 228.161 105.786 228.589L106.13 233.013C105.874 233.09 105.483 233.185 104.959 233.301C104.444 233.425 103.857 233.513 103.196 233.564C102.759 233.598 102.355 233.588 101.986 233.532C101.616 233.477 101.294 233.366 101.019 233.2C100.753 233.033 100.535 232.807 100.363 232.521C100.2 232.234 100.102 231.872 100.068 231.434C100.035 231.016 100.087 230.656 100.222 230.355C100.367 230.054 100.573 229.804 100.838 229.605C101.103 229.397 101.414 229.242 101.771 229.14C102.137 229.027 102.52 228.955 102.92 228.924C103.106 228.909 103.302 228.908 103.509 228.92C103.715 228.923 103.937 228.943 104.174 228.981L104.152 228.702C104.137 228.506 104.099 228.322 104.039 228.149C103.979 227.976 103.883 227.829 103.752 227.708C103.629 227.577 103.468 227.482 103.266 227.423C103.074 227.363 102.834 227.344 102.546 227.366C102.155 227.397 101.799 227.452 101.478 227.533C101.156 227.615 100.896 227.7 100.697 227.791L100.382 226.439C100.59 226.348 100.896 226.249 101.299 226.143C101.703 226.037 102.137 225.966 102.603 225.929ZM107.276 233.093C107.649 232.343 108.084 231.617 108.581 230.913C109.078 230.201 109.584 229.539 110.098 228.928C109.524 228.401 108.962 227.865 108.414 227.317C107.865 226.761 107.381 226.246 106.96 225.773L108.9 225.623C109.219 225.991 109.588 226.398 110.006 226.843C110.434 227.287 110.958 227.831 111.579 228.476L111.343 225.433L112.976 225.306L113.213 228.349C113.746 227.624 114.185 227.005 114.529 226.491C114.873 225.978 115.174 225.519 115.433 225.115L117.345 224.967C117.03 225.496 116.645 226.074 116.188 226.699C115.74 227.324 115.264 227.941 114.759 228.552C115.421 229.118 116.033 229.702 116.594 230.305C117.165 230.906 117.698 231.553 118.191 232.245L116.307 232.391C116.099 232.127 115.872 231.849 115.625 231.56C115.387 231.269 115.135 230.984 114.87 230.705C114.614 230.416 114.349 230.142 114.076 229.883C113.803 229.623 113.536 229.381 113.275 229.158L113.543 232.606L111.91 232.733L111.642 229.285C111.42 229.555 111.194 229.844 110.966 230.152C110.737 230.46 110.513 230.777 110.295 231.103C110.086 231.419 109.881 231.734 109.681 232.05C109.49 232.364 109.316 232.663 109.161 232.947L107.276 233.093ZM125.516 231.676L123.827 231.807L123.59 228.75L120.84 228.964L121.078 232.021L119.389 232.152L118.821 224.852L120.51 224.721L120.732 227.568L123.481 227.354L123.26 224.507L124.949 224.376L125.516 231.676ZM133.98 227.339C134.025 227.916 133.982 228.448 133.852 228.936C133.721 229.423 133.515 229.847 133.234 230.205C132.953 230.564 132.601 230.854 132.178 231.074C131.765 231.293 131.297 231.423 130.776 231.464C130.255 231.504 129.773 231.448 129.331 231.295C128.888 231.142 128.501 230.91 128.168 230.599C127.834 230.288 127.561 229.902 127.347 229.441C127.143 228.98 127.018 228.46 126.974 227.883C126.929 227.306 126.972 226.779 127.103 226.301C127.243 225.812 127.454 225.389 127.735 225.03C128.025 224.67 128.378 224.385 128.792 224.175C129.205 223.956 129.668 223.826 130.18 223.787C130.692 223.747 131.169 223.803 131.611 223.956C132.062 224.099 132.455 224.326 132.788 224.637C133.121 224.948 133.389 225.335 133.594 225.796C133.807 226.248 133.936 226.762 133.98 227.339ZM132.25 227.473C132.193 226.748 131.991 226.188 131.642 225.793C131.301 225.389 130.852 225.209 130.294 225.252C129.735 225.296 129.315 225.544 129.032 225.996C128.757 226.439 128.648 227.023 128.704 227.749C128.762 228.484 128.96 229.054 129.301 229.458C129.65 229.861 130.104 230.041 130.663 229.998C131.221 229.955 131.637 229.707 131.911 229.255C132.194 228.802 132.307 228.209 132.25 227.473ZM135.317 227.249C135.275 226.709 135.32 226.2 135.451 225.722C135.581 225.235 135.787 224.807 136.067 224.439C136.357 224.07 136.717 223.77 137.149 223.54C137.58 223.31 138.075 223.173 138.634 223.13C139.322 223.076 139.983 223.151 140.617 223.355L140.361 224.765C140.16 224.696 139.931 224.644 139.675 224.608C139.429 224.571 139.166 224.563 138.887 224.585C138.226 224.636 137.74 224.884 137.428 225.33C137.116 225.766 136.989 226.361 137.048 227.115C137.104 227.841 137.312 228.405 137.671 228.808C138.029 229.201 138.594 229.368 139.366 229.308C139.655 229.285 139.936 229.235 140.211 229.158C140.486 229.08 140.723 228.992 140.921 228.892L141.267 230.269C141.088 230.377 140.81 230.483 140.435 230.587C140.068 230.69 139.685 230.757 139.285 230.788C138.661 230.837 138.11 230.786 137.63 230.636C137.159 230.476 136.757 230.241 136.424 229.929C136.099 229.608 135.844 229.221 135.659 228.767C135.474 228.304 135.359 227.798 135.317 227.249ZM147.807 224.018L145.448 224.201L145.906 230.091L144.217 230.223L143.759 224.332L141.414 224.515L141.305 223.105L147.698 222.608L147.807 224.018ZM150.857 225.073C150.994 225.025 151.196 224.976 151.464 224.927C151.732 224.878 152 224.844 152.27 224.823C152.689 224.79 153.083 224.806 153.454 224.871C153.833 224.935 154.166 225.059 154.451 225.243C154.736 225.417 154.97 225.657 155.153 225.961C155.335 226.255 155.443 226.617 155.476 227.045C155.51 227.482 155.464 227.86 155.339 228.179C155.214 228.498 155.02 228.765 154.756 228.983C154.492 229.2 154.168 229.37 153.785 229.493C153.41 229.616 152.986 229.696 152.511 229.733C151.962 229.775 151.448 229.787 150.969 229.768C150.491 229.749 150.005 229.703 149.512 229.629L148.959 222.51L150.648 222.379L150.857 225.073ZM152.366 228.41C152.841 228.373 153.202 228.256 153.448 228.059C153.704 227.852 153.816 227.548 153.785 227.148C153.769 226.944 153.709 226.775 153.605 226.643C153.511 226.51 153.386 226.407 153.23 226.335C153.083 226.253 152.911 226.2 152.713 226.178C152.514 226.156 152.308 226.154 152.094 226.17C151.899 226.185 151.695 226.211 151.482 226.246C151.269 226.272 151.094 226.309 150.957 226.357L151.119 228.437C151.241 228.446 151.419 228.451 151.653 228.451C151.896 228.442 152.134 228.428 152.366 228.41ZM91.3023 247.05L91.8695 254.35L90.1806 254.482L89.7229 248.591L87.029 248.801L87.4867 254.691L85.7978 254.822L85.2306 247.522L91.3023 247.05ZM100.335 250.013C100.38 250.59 100.337 251.123 100.206 251.61C100.076 252.098 99.87 252.521 99.5889 252.88C99.3079 253.239 98.9559 253.528 98.533 253.748C98.1194 253.968 97.6521 254.098 97.131 254.138C96.6099 254.179 96.1281 254.122 95.6856 253.97C95.2431 253.817 94.8553 253.585 94.5222 253.274C94.1891 252.962 93.9157 252.576 93.702 252.116C93.4977 251.654 93.3731 251.135 93.3282 250.558C93.2834 249.981 93.3267 249.453 93.458 248.975C93.5979 248.487 93.8084 248.063 94.0895 247.704C94.3798 247.345 94.7321 247.06 95.1464 246.85C95.56 246.631 96.0227 246.501 96.5345 246.461C97.0463 246.421 97.5234 246.478 97.9659 246.631C98.417 246.774 98.8091 247.001 99.1422 247.312C99.4753 247.623 99.7441 248.009 99.9484 248.471C100.161 248.922 100.29 249.437 100.335 250.013ZM98.6043 250.148C98.5479 249.422 98.3453 248.862 97.9964 248.468C97.656 248.064 97.2067 247.883 96.6484 247.927C96.0901 247.97 95.6693 248.218 95.3862 248.671C95.1117 249.113 95.0026 249.698 95.059 250.423C95.1161 251.159 95.3149 251.728 95.6552 252.132C96.0048 252.536 96.4588 252.716 97.0171 252.672C97.5754 252.629 97.9915 252.381 98.2653 251.93C98.5484 251.477 98.6614 250.883 98.6043 250.148ZM103.182 248.402C103.217 248.849 103.367 249.155 103.633 249.322C103.907 249.478 104.267 249.539 104.714 249.505C104.928 249.488 105.137 249.463 105.34 249.428C105.552 249.383 105.735 249.336 105.891 249.287L105.63 245.937L107.319 245.806L107.887 253.106L106.198 253.237L105.995 250.627C105.829 250.668 105.614 250.722 105.347 250.79C105.081 250.848 104.84 250.885 104.626 250.902C104.189 250.936 103.785 250.925 103.416 250.869C103.056 250.813 102.738 250.697 102.462 250.522C102.186 250.338 101.965 250.088 101.8 249.773C101.634 249.449 101.533 249.04 101.494 248.547L101.317 246.272L103.006 246.141L103.182 248.402ZM112.947 252.853C112.678 252.874 112.402 252.886 112.122 252.889C111.841 252.892 111.569 252.89 111.307 252.882C111.053 252.874 110.814 252.864 110.588 252.854C110.362 252.834 110.173 252.811 110.021 252.785L109.474 245.737C109.62 245.688 109.803 245.641 110.024 245.596C110.245 245.541 110.48 245.495 110.73 245.457C110.988 245.408 111.257 245.369 111.535 245.338C111.813 245.298 112.087 245.267 112.356 245.246C113.343 245.169 114.125 245.291 114.702 245.611C115.278 245.922 115.591 246.399 115.641 247.041C115.667 247.376 115.607 247.68 115.459 247.954C115.312 248.227 115.109 248.44 114.849 248.591C115.194 248.695 115.498 248.877 115.762 249.138C116.026 249.398 116.177 249.784 116.217 250.296C116.274 251.031 116.03 251.621 115.484 252.066C114.938 252.502 114.092 252.764 112.947 252.853ZM112.639 248.341C113.058 248.309 113.397 248.222 113.658 248.08C113.928 247.937 114.048 247.684 114.02 247.321C114.006 247.144 113.949 247.004 113.847 246.899C113.755 246.794 113.631 246.715 113.477 246.661C113.323 246.608 113.148 246.579 112.951 246.576C112.754 246.563 112.548 246.565 112.334 246.582C112.166 246.595 111.971 246.615 111.749 246.641C111.535 246.667 111.364 246.694 111.235 246.723L111.369 248.44L112.639 248.341ZM111.611 251.553C111.724 251.563 111.907 251.567 112.159 251.566C112.421 251.555 112.663 251.541 112.886 251.524C113.389 251.485 113.797 251.383 114.112 251.218C114.436 251.052 114.583 250.774 114.553 250.383C114.523 250.002 114.349 249.753 114.032 249.637C113.722 249.512 113.326 249.467 112.842 249.505L111.46 249.612L111.611 251.553ZM126.871 251.631L125.182 251.762L124.615 244.462L126.304 244.331L126.871 251.631ZM119.311 247.584C119.448 247.536 119.645 247.488 119.904 247.44C120.171 247.391 120.431 247.357 120.682 247.337C121.082 247.306 121.463 247.323 121.824 247.389C122.194 247.454 122.517 247.578 122.793 247.763C123.078 247.937 123.308 248.177 123.481 248.482C123.663 248.777 123.771 249.138 123.804 249.566C123.838 250.003 123.793 250.381 123.668 250.7C123.543 251.019 123.353 251.286 123.098 251.503C122.843 251.719 122.529 251.889 122.155 252.011C121.79 252.133 121.379 252.212 120.923 252.247C120.393 252.289 119.888 252.3 119.409 252.281C118.94 252.261 118.459 252.214 117.966 252.14L117.413 245.022L119.102 244.89L119.311 247.584ZM120.778 250.925C121.216 250.891 121.553 250.775 121.791 250.579C122.037 250.373 122.144 250.07 122.113 249.669C122.097 249.465 122.042 249.296 121.947 249.163C121.853 249.03 121.728 248.927 121.572 248.855C121.426 248.773 121.258 248.72 121.069 248.697C120.889 248.674 120.701 248.67 120.506 248.685C120.329 248.699 120.134 248.723 119.922 248.758C119.718 248.784 119.548 248.82 119.411 248.868L119.572 250.948C119.695 250.957 119.873 250.962 120.107 250.963C120.341 250.954 120.564 250.941 120.778 250.925Z" fill="#DBE2F9"/>
<path d="M90.4631 277.812C90.1933 277.833 89.9345 277.876 89.6869 277.942C89.4393 278.009 89.2167 278.096 89.0192 278.205C89.0157 278.28 89.0129 278.365 89.0108 278.458C89.0173 278.542 89.0238 278.626 89.0303 278.71C89.0593 279.082 89.11 279.434 89.1826 279.765C89.2637 280.086 89.3745 280.368 89.515 280.61C89.6641 280.842 89.8514 281.024 90.077 281.156C90.3112 281.278 90.5911 281.327 90.9168 281.301C91.1866 281.28 91.4103 281.207 91.5877 281.081C91.7744 280.954 91.9214 280.797 92.0287 280.611C92.1359 280.425 92.2095 280.227 92.2494 280.018C92.2886 279.8 92.3006 279.593 92.2854 279.398C92.242 278.839 92.0742 278.426 91.7819 278.159C91.489 277.882 91.0493 277.766 90.4631 277.812ZM90.5684 276.456C91.1453 276.411 91.6403 276.457 92.0535 276.593C92.4752 276.719 92.8225 276.912 93.0955 277.172C93.3684 277.432 93.5751 277.743 93.7157 278.107C93.8649 278.46 93.955 278.837 93.9861 279.237C94.0143 279.6 93.9781 279.978 93.8775 280.369C93.7861 280.76 93.6178 281.124 93.3726 281.462C93.1359 281.789 92.8254 282.07 92.4412 282.306C92.0563 282.533 91.5893 282.667 91.0403 282.71C89.9329 282.796 89.058 282.499 88.4153 281.819C87.7813 281.128 87.4144 280.141 87.3146 278.857C87.2423 277.926 87.3132 277.092 87.5274 276.355C87.7502 275.608 88.0937 274.968 88.5578 274.435C89.0313 273.902 89.6165 273.483 90.3135 273.176C91.0191 272.859 91.8228 272.66 92.7247 272.581L92.9308 273.969C92.4291 274.018 91.9635 274.11 91.5341 274.246C91.104 274.373 90.7247 274.553 90.3963 274.784C90.068 275.016 89.7908 275.304 89.5649 275.649C89.3482 275.994 89.1932 276.408 89.0998 276.893C89.5391 276.643 90.0287 276.498 90.5684 276.456ZM101.777 276.792C101.904 278.421 101.703 279.696 101.176 280.617C100.647 281.528 99.8574 282.025 98.8059 282.107C97.7544 282.188 96.8973 281.82 96.2345 281C95.571 280.172 95.176 278.944 95.0494 277.315C94.9865 276.506 95.0053 275.783 95.1057 275.148C95.2148 274.503 95.3969 273.956 95.6521 273.505C95.9166 273.054 96.2449 272.701 96.637 272.446C97.0384 272.19 97.4996 272.042 98.0207 272.001C99.0722 271.919 99.9297 272.293 100.593 273.121C101.256 273.94 101.651 275.164 101.777 276.792ZM100.032 276.928C99.9934 276.426 99.9289 275.958 99.8391 275.525C99.7493 275.092 99.627 274.722 99.4721 274.416C99.3259 274.1 99.1431 273.856 98.924 273.686C98.7048 273.516 98.4417 273.443 98.1346 273.467C97.8275 273.49 97.5742 273.604 97.3746 273.807C97.1844 274.009 97.0368 274.277 96.9318 274.613C96.8354 274.939 96.7763 275.323 96.7544 275.764C96.7419 276.205 96.7551 276.677 96.7942 277.18C96.8332 277.682 96.893 278.15 96.9735 278.584C97.0633 279.017 97.1814 279.392 97.3276 279.708C97.4825 280.014 97.6695 280.252 97.8887 280.423C98.1172 280.592 98.3849 280.665 98.692 280.641C98.9991 280.617 99.2478 280.504 99.438 280.302C99.6283 280.1 99.7716 279.836 99.868 279.511C99.9729 279.175 100.036 278.786 100.058 278.344C100.08 277.903 100.071 277.431 100.032 276.928ZM105.968 276.551L109.722 276.259L109.843 277.809L106.088 278.1L105.968 276.551ZM115.826 280.573C115.827 279.862 115.895 279.108 116.03 278.311C116.164 277.514 116.343 276.737 116.565 275.98C116.796 275.214 117.053 274.496 117.338 273.828C117.632 273.15 117.93 272.579 118.231 272.116L113.778 272.462L113.665 271.01L120.128 270.508L120.227 271.792C119.947 272.16 119.649 272.656 119.332 273.28C119.015 273.904 118.724 274.605 118.456 275.384C118.189 276.154 117.967 276.976 117.791 277.851C117.625 278.725 117.547 279.588 117.557 280.439L115.826 280.573ZM128.562 274.711C128.688 276.34 128.488 277.614 127.96 278.535C127.432 279.447 126.642 279.944 125.59 280.025C124.539 280.107 123.682 279.738 123.019 278.919C122.355 278.091 121.96 276.862 121.834 275.234C121.771 274.424 121.79 273.702 121.89 273.067C121.999 272.422 122.181 271.874 122.437 271.424C122.701 270.973 123.029 270.62 123.421 270.364C123.823 270.109 124.284 269.96 124.805 269.92C125.857 269.838 126.714 270.212 127.378 271.04C128.04 271.859 128.435 273.083 128.562 274.711ZM126.817 274.847C126.778 274.344 126.713 273.877 126.624 273.444C126.534 273.011 126.411 272.641 126.257 272.335C126.11 272.018 125.928 271.775 125.708 271.605C125.489 271.435 125.226 271.362 124.919 271.385C124.612 271.409 124.359 271.523 124.159 271.725C123.969 271.927 123.821 272.196 123.716 272.532C123.62 272.858 123.561 273.242 123.539 273.683C123.526 274.124 123.54 274.596 123.579 275.098C123.618 275.601 123.678 276.069 123.758 276.503C123.848 276.936 123.966 277.31 124.112 277.627C124.267 277.933 124.454 278.171 124.673 278.341C124.902 278.511 125.169 278.584 125.477 278.56C125.784 278.536 126.032 278.423 126.223 278.221C126.413 278.019 126.556 277.755 126.652 277.429C126.757 277.094 126.821 276.705 126.843 276.263C126.865 275.821 126.856 275.349 126.817 274.847ZM134.326 271.848C134.392 272.695 134.224 273.363 133.822 273.853C133.429 274.342 132.884 274.614 132.186 274.668C131.842 274.695 131.521 274.664 131.224 274.575C130.926 274.476 130.666 274.323 130.444 274.116C130.222 273.908 130.038 273.646 129.892 273.33C129.754 273.004 129.669 272.631 129.636 272.213C129.57 271.356 129.733 270.688 130.127 270.209C130.529 269.719 131.078 269.447 131.776 269.392C132.474 269.338 133.055 269.522 133.518 269.945C133.99 270.358 134.26 270.992 134.326 271.848ZM133 271.951C132.962 271.458 132.84 271.098 132.635 270.87C132.439 270.633 132.183 270.526 131.866 270.551C131.55 270.575 131.313 270.72 131.156 270.985C130.998 271.241 130.938 271.615 130.976 272.108C131.015 272.602 131.132 272.967 131.328 273.204C131.524 273.433 131.78 273.534 132.096 273.51C132.413 273.485 132.65 273.345 132.808 273.09C132.974 272.824 133.039 272.444 133 271.951ZM136.971 269.199L138.576 269.075L133.87 279.171L132.265 279.296L136.971 269.199ZM141.22 276.171C141.286 277.018 141.118 277.686 140.716 278.176C140.323 278.665 139.778 278.937 139.08 278.991C138.736 279.018 138.414 278.982 138.117 278.884C137.819 278.794 137.56 278.646 137.338 278.439C137.116 278.231 136.932 277.969 136.785 277.653C136.648 277.327 136.562 276.954 136.53 276.536C136.463 275.679 136.627 275.011 137.02 274.532C137.422 274.042 137.972 273.769 138.67 273.715C139.368 273.661 139.948 273.845 140.412 274.268C140.884 274.681 141.153 275.315 141.22 276.171ZM139.894 276.274C139.855 275.781 139.734 275.421 139.529 275.193C139.333 274.956 139.076 274.849 138.76 274.874C138.444 274.898 138.207 275.043 138.049 275.308C137.891 275.564 137.832 275.938 137.87 276.431C137.908 276.925 138.026 277.29 138.222 277.527C138.417 277.756 138.673 277.857 138.99 277.833C139.306 277.808 139.543 277.668 139.701 277.412C139.868 277.147 139.932 276.767 139.894 276.274Z" fill="#89E159"/>
<defs>
<filter id="filter0_f_1106_4505" x="0.921875" y="25.4487" width="202.688" height="326.86" filterUnits="userSpaceOnUse" color-interpolation-filters="sRGB">
<feFlood flood-opacity="0" result="BackgroundImageFix"/>
<feBlend mode="normal" in="SourceGraphic" in2="BackgroundImageFix" result="shape"/>
<feGaussianBlur stdDeviation="10" result="effect1_foregroundBlur_1106_4505"/>
</filter>
<linearGradient id="paint0_linear_1106_4505" x1="57.0809" y1="319.474" x2="177.116" y2="45.371" gradientUnits="userSpaceOnUse">
<stop stop-color="#1E4E4E"/>
<stop offset="1" stop-color="#1F2431"/>
</linearGradient>
<linearGradient id="paint1_linear_1106_4505" x1="99.3208" y1="68.2862" x2="104.445" y2="68.7262" gradientUnits="userSpaceOnUse">
<stop stop-color="#89E159"/>
<stop offset="1" stop-color="#B9F598"/>
</linearGradient>
<linearGradient id="paint2_linear_1106_4505" x1="99.3208" y1="68.2862" x2="104.445" y2="68.7262" gradientUnits="userSpaceOnUse">
<stop stop-color="#89E159"/>
<stop offset="1" stop-color="#B9F598"/>
</linearGradient>
<linearGradient id="paint3_linear_1106_4505" x1="100.123" y1="69.8075" x2="112.188" y2="69.9108" gradientUnits="userSpaceOnUse">
<stop stop-color="#89E159"/>
<stop offset="1" stop-color="#B9F598"/>
</linearGradient>
<linearGradient id="paint4_linear_1106_4505" x1="100.123" y1="69.8075" x2="112.188" y2="69.9108" gradientUnits="userSpaceOnUse">
<stop stop-color="#89E159"/>
<stop offset="1" stop-color="#B9F598"/>
</linearGradient>
<linearGradient id="paint5_linear_1106_4505" x1="99.5098" y1="85.0958" x2="92.9421" y2="82.113" gradientUnits="userSpaceOnUse">
<stop stop-color="#1E4E4E"/>
<stop offset="1" stop-color="#1F2431"/>
</linearGradient>
<linearGradient id="paint6_linear_1106_4505" x1="99.5098" y1="85.0958" x2="92.9421" y2="82.113" gradientUnits="userSpaceOnUse">
<stop stop-color="#1E4E4E"/>
<stop offset="1" stop-color="#1F2431"/>
</linearGradient>
<linearGradient id="paint7_linear_1106_4505" x1="102.557" y1="82.4698" x2="106.673" y2="78.0342" gradientUnits="userSpaceOnUse">
<stop stop-color="#1E4E4E"/>
<stop offset="1" stop-color="#1F2431"/>
</linearGradient>
<linearGradient id="paint8_linear_1106_4505" x1="102.557" y1="82.4698" x2="106.673" y2="78.0342" gradientUnits="userSpaceOnUse">
<stop stop-color="#1E4E4E"/>
<stop offset="1" stop-color="#1F2431"/>
</linearGradient>
</defs>
</svg>
