<svg width="218" height="354" viewBox="0 0 218 354" fill="none" xmlns="http://www.w3.org/2000/svg">
<g filter="url(#filter0_f_1108_4664)">
<path d="M177.711 60.5301L26.7149 71.5705C15.9559 132.106 18.469 262.185 31.9759 333.286C99.807 328.182 146.047 325.45 197.856 306.265L177.711 60.5301Z" fill="#8990A5"/>
</g>
<path d="M20.3182 108.36C18.7055 86.833 17.2059 66.815 15.5868 49.472L193.691 36.0722L213.949 305.342C159.92 316.649 102.628 323.19 44.9469 314.903C31.2433 254.19 25.2518 174.215 20.3182 108.36Z" fill="#1F2431"/>
<path d="M20.3182 108.36C18.7055 86.833 17.2059 66.815 15.5868 49.472L193.691 36.0722L213.949 305.342C159.92 316.649 102.628 323.19 44.9469 314.903C31.2433 254.19 25.2518 174.215 20.3182 108.36Z" fill="url(#paint0_linear_1108_4664)"/>
<path d="M20.3182 108.36C18.7055 86.833 17.2059 66.815 15.5868 49.472L193.691 36.0722L213.949 305.342C159.92 316.649 102.628 323.19 44.9469 314.903C31.2433 254.19 25.2518 174.215 20.3182 108.36Z" stroke="#89E159" stroke-width="2"/>
<path d="M182.23 16.2901C182.519 15.9212 182.943 15.682 183.408 15.6252C183.873 15.5683 184.341 15.6985 184.71 15.9871L188.886 19.25L194.451 23.6066L198.623 26.8699C198.811 27.011 198.968 27.1879 199.087 27.3905C199.205 27.593 199.282 27.8171 199.313 28.0496C199.343 28.2822 199.328 28.5185 199.266 28.7449C199.205 28.9713 199.099 29.1831 198.954 29.3681C198.81 29.5531 198.63 29.7074 198.426 29.8222C198.221 29.937 197.996 30.01 197.763 30.0367C197.53 30.0635 197.294 30.0436 197.068 29.9782C196.843 29.9127 196.633 29.8031 196.451 29.6557L193.881 27.6453L183.203 46.2074L187.564 49.6185C187.924 49.9102 188.155 50.3315 188.207 50.7918C188.259 51.2521 188.128 51.7145 187.843 52.0793C187.557 52.4442 187.14 52.6824 186.681 52.7426C186.222 52.8028 185.757 52.6801 185.387 52.4011L179.822 48.048L175.646 44.7851L165.579 57.6554C165.436 57.8384 165.258 57.9914 165.056 58.1056C164.854 58.2199 164.631 58.2932 164.401 58.3214C164.17 58.3496 163.936 58.3321 163.712 58.2699C163.489 58.2077 163.279 58.102 163.096 57.9589C162.913 57.8158 162.76 57.638 162.646 57.4358C162.532 57.2335 162.458 57.0108 162.43 56.7802C162.402 56.5496 162.42 56.3157 162.482 56.0919C162.544 55.8681 162.65 55.6587 162.793 55.4758L172.86 42.6054L168.688 39.3421L163.122 34.9855C162.935 34.8442 162.778 34.667 162.659 34.4643C162.541 34.2616 162.465 34.0374 162.434 33.8048C162.404 33.5722 162.42 33.3359 162.482 33.1096C162.544 32.8833 162.65 32.6716 162.795 32.4868C162.939 32.302 163.119 32.1479 163.324 32.0334C163.528 31.9189 163.754 31.8463 163.987 31.8198C164.22 31.7934 164.456 31.8136 164.681 31.8794C164.907 31.9452 165.116 32.0551 165.299 32.2028L169.66 35.6139L185.104 20.7801L182.534 18.7697C182.165 18.4811 181.925 18.0577 181.869 17.5927C181.812 17.1277 181.942 16.6591 182.23 16.2901V16.2901Z" fill="#8990A5"/>
<path d="M182.23 16.2901C182.519 15.9212 182.943 15.682 183.408 15.6252C183.873 15.5683 184.341 15.6985 184.71 15.9871L188.886 19.25L194.451 23.6066L198.623 26.8699C198.811 27.011 198.968 27.1879 199.087 27.3905C199.205 27.593 199.282 27.8171 199.313 28.0496C199.343 28.2822 199.328 28.5185 199.266 28.7449C199.205 28.9713 199.099 29.1831 198.954 29.3681C198.81 29.5531 198.63 29.7074 198.426 29.8222C198.221 29.937 197.996 30.01 197.763 30.0367C197.53 30.0635 197.294 30.0436 197.068 29.9782C196.843 29.9127 196.633 29.8031 196.451 29.6557L193.881 27.6453L183.203 46.2074L187.564 49.6185C187.924 49.9102 188.155 50.3315 188.207 50.7918C188.259 51.2521 188.128 51.7145 187.843 52.0793C187.557 52.4442 187.14 52.6824 186.681 52.7426C186.222 52.8028 185.757 52.6801 185.387 52.4011L179.822 48.048L175.646 44.7851L165.579 57.6554C165.436 57.8384 165.258 57.9914 165.056 58.1056C164.854 58.2199 164.631 58.2932 164.401 58.3214C164.17 58.3496 163.936 58.3321 163.712 58.2699C163.489 58.2077 163.279 58.102 163.096 57.9589C162.913 57.8158 162.76 57.638 162.646 57.4358C162.532 57.2335 162.458 57.0108 162.43 56.7802C162.402 56.5496 162.42 56.3157 162.482 56.0919C162.544 55.8681 162.65 55.6587 162.793 55.4758L172.86 42.6054L168.688 39.3421L163.122 34.9855C162.935 34.8442 162.778 34.667 162.659 34.4643C162.541 34.2616 162.465 34.0374 162.434 33.8048C162.404 33.5722 162.42 33.3359 162.482 33.1096C162.544 32.8833 162.65 32.6716 162.795 32.4868C162.939 32.302 163.119 32.1479 163.324 32.0334C163.528 31.9189 163.754 31.8463 163.987 31.8198C164.22 31.7934 164.456 31.8136 164.681 31.8794C164.907 31.9452 165.116 32.0551 165.299 32.2028L169.66 35.6139L185.104 20.7801L182.534 18.7697C182.165 18.4811 181.925 18.0577 181.869 17.5927C181.812 17.1277 181.942 16.6591 182.23 16.2901V16.2901Z" fill="#8990A5"/>
<path d="M114.474 75.9858C109.878 73.6037 102.391 69.103 92.9612 76.4088C91.3388 74.4479 87.126 73.1102 83.5196 75.8944C79.0117 79.3747 76.5499 83.2359 75.2697 85.683C73.9895 88.1301 64.0176 114.418 85.7213 119.384C103.084 123.358 115.723 119.223 119.145 115.958C123.805 112.857 130.263 107.791 129.51 98.1041C128.758 88.4172 122.756 73.7776 114.474 75.9858Z" fill="#F68561"/>
<path d="M114.474 75.9858C109.878 73.6037 102.391 69.103 92.9612 76.4088C91.3388 74.4479 87.126 73.1102 83.5196 75.8944C79.0117 79.3747 76.5499 83.2359 75.2697 85.683C73.9895 88.1301 64.0176 114.418 85.7213 119.384C103.084 123.358 115.723 119.223 119.145 115.958C123.805 112.857 130.263 107.791 129.51 98.1041C128.758 88.4172 122.756 73.7776 114.474 75.9858Z" stroke="#F68561"/>
<path d="M97.65 78.5142C97.4332 82.5768 98.8135 82.53 100.11 82.386C103.148 81.4707 102.921 79.8847 102.226 78.4248L99.8532 72.9152L97.8165 68.2512C97.6888 69.8414 97.875 74.2968 97.65 78.5142Z" fill="url(#paint1_linear_1108_4664)" stroke="url(#paint2_linear_1108_4664)"/>
<path d="M96.7923 80.5219C98.5583 82.6652 99.2765 83.3305 100.39 82.6416C102.779 80.4895 102 79.133 100.81 78.0726L96.5277 74.0173L92.8766 70.5966C93.3736 72.1306 94.1443 77.3083 96.7923 80.5219Z" fill="#1E4E4E" stroke="#1E4E4E"/>
<path d="M99.7543 82.0107C97.105 80.3713 99.2451 74.0557 110.79 68.9012C109.073 74.1442 101.589 83.4295 99.7543 82.0107Z" fill="url(#paint3_linear_1108_4664)" stroke="url(#paint4_linear_1108_4664)"/>
<path d="M95.3051 76.8196C98.8203 76.0089 100.366 79.7572 100.29 81.4847C96.6133 83.101 98.1556 81.2859 96.2177 80.4365C94.2754 79.5852 93.5183 81.6025 93.3828 82.5383L92.3179 86.0395L91.6403 84.0561L91.464 82.831C91.4375 81.5195 91.79 77.6303 95.3051 76.8196Z" fill="#1F2431"/>
<path d="M95.3051 76.8196C98.8203 76.0089 100.366 79.7572 100.29 81.4847C96.6133 83.101 98.1556 81.2859 96.2177 80.4365C94.2754 79.5852 93.5183 81.6025 93.3828 82.5383L92.3179 86.0395L91.6403 84.0561L91.464 82.831C91.4375 81.5195 91.79 77.6303 95.3051 76.8196Z" fill="url(#paint5_linear_1108_4664)"/>
<path d="M95.3051 76.8196C98.8203 76.0089 100.366 79.7572 100.29 81.4847C96.6133 83.101 98.1556 81.2859 96.2177 80.4365C94.2754 79.5852 93.5183 81.6025 93.3828 82.5383L92.3179 86.0395L91.6403 84.0561L91.464 82.831C91.4375 81.5195 91.79 77.6303 95.3051 76.8196Z" stroke="#1F2431"/>
<path d="M95.3051 76.8196C98.8203 76.0089 100.366 79.7572 100.29 81.4847C96.6133 83.101 98.1556 81.2859 96.2177 80.4365C94.2754 79.5852 93.5183 81.6025 93.3828 82.5383L92.3179 86.0395L91.6403 84.0561L91.464 82.831C91.4375 81.5195 91.79 77.6303 95.3051 76.8196Z" stroke="url(#paint6_linear_1108_4664)"/>
<path d="M103.182 76.5512C99.795 76.555 98.9108 80.6412 99.3365 82.2282C101.256 82.6091 103.477 80.851 102.631 79.4901C101.785 78.1301 106.283 79.5837 106.6 80.423L107.502 82.0078L107.73 79.9215L107.634 78.6878C107.388 77.465 106.568 76.5475 103.182 76.5512Z" fill="#1F2431"/>
<path d="M103.182 76.5512C99.795 76.555 98.9108 80.6412 99.3365 82.2282C101.256 82.6091 103.477 80.851 102.631 79.4901C101.785 78.1301 106.283 79.5837 106.6 80.423L107.502 82.0078L107.73 79.9215L107.634 78.6878C107.388 77.465 106.568 76.5475 103.182 76.5512Z" fill="url(#paint7_linear_1108_4664)"/>
<path d="M103.182 76.5512C99.795 76.555 98.9108 80.6412 99.3365 82.2282C101.256 82.6091 103.477 80.851 102.631 79.4901C101.785 78.1301 106.283 79.5837 106.6 80.423L107.502 82.0078L107.73 79.9215L107.634 78.6878C107.388 77.465 106.568 76.5475 103.182 76.5512Z" stroke="#1F2431"/>
<path d="M103.182 76.5512C99.795 76.555 98.9108 80.6412 99.3365 82.2282C101.256 82.6091 103.477 80.851 102.631 79.4901C101.785 78.1301 106.283 79.5837 106.6 80.423L107.502 82.0078L107.73 79.9215L107.634 78.6878C107.388 77.465 106.568 76.5475 103.182 76.5512Z" stroke="url(#paint8_linear_1108_4664)"/>
<path d="M80.7019 94.776C80.0498 100.145 78.8722 103.459 77.2921 103.231C75.712 103.002 74.8456 99.3271 75.4977 93.958C76.1498 88.5889 79.3284 83.385 81.7198 84.8532C84.1112 86.3214 81.354 89.4069 80.7019 94.776Z" fill="#D9D9D9"/>
<path d="M120.354 103.126C123.937 99.4121 124.408 88.768 125.605 90.0575C127.155 91.7293 130.419 96.8525 124.792 107.325C116.607 121.732 93.8724 119.29 91.7067 116.955C89.541 114.62 109.211 116.884 120.354 103.126Z" fill="#8990A5"/>
<path d="M82.0891 148.805L79.7302 148.988L80.1878 154.878L78.4989 155.01L78.0413 149.119L75.6963 149.302L75.5868 147.892L81.9795 147.395L82.0891 148.805ZM83.1225 151.013C83.0726 150.371 83.1219 149.801 83.2704 149.303C83.4282 148.804 83.653 148.384 83.9448 148.043C84.2359 147.693 84.58 147.422 84.9772 147.232C85.3736 147.033 85.7858 146.917 86.2139 146.884C87.2188 146.805 88.0247 147.056 88.6315 147.637C89.2475 148.216 89.6036 149.124 89.6998 150.362C89.707 150.455 89.7107 150.562 89.7108 150.684C89.7195 150.796 89.7228 150.898 89.7207 150.992L84.9052 151.366C84.9973 151.949 85.2374 152.389 85.6256 152.687C86.0224 152.974 86.5698 153.091 87.2677 153.036C87.6771 153.005 88.0464 152.938 88.3756 152.838C88.7141 152.737 88.9778 152.637 89.1667 152.538L89.4974 153.902C89.408 153.956 89.2817 154.017 89.1185 154.086C88.964 154.145 88.7811 154.201 88.57 154.255C88.3689 154.318 88.1485 154.372 87.9087 154.419C87.6689 154.466 87.4234 154.499 87.1722 154.518C86.5301 154.568 85.9646 154.518 85.4755 154.369C84.9858 154.211 84.5743 153.976 84.2412 153.665C83.9074 153.344 83.6483 152.962 83.464 152.517C83.279 152.064 83.1652 151.562 83.1225 151.013ZM87.9632 149.879C87.9451 149.646 87.8955 149.43 87.8145 149.231C87.7327 149.022 87.6209 148.848 87.4791 148.709C87.3458 148.56 87.1829 148.451 86.9903 148.382C86.8062 148.303 86.5886 148.273 86.3374 148.292C86.0768 148.312 85.8528 148.381 85.6653 148.499C85.4772 148.607 85.3194 148.746 85.1921 148.915C85.0742 149.083 84.9859 149.273 84.9274 149.483C84.8688 149.694 84.8339 149.907 84.8226 150.123L87.9632 149.879ZM93.1131 149.058C93.1155 149.451 93.1194 149.862 93.1247 150.292C93.1294 150.713 93.1386 151.134 93.1526 151.554C93.1665 151.974 93.1793 152.38 93.1911 152.773C93.2028 153.165 93.2171 153.529 93.2338 153.865L91.6007 153.992C91.5774 153.45 91.5601 152.867 91.5489 152.24C91.537 151.605 91.5293 150.964 91.526 150.318C91.5312 149.663 91.5375 149.021 91.5449 148.393C91.5523 147.765 91.5679 147.184 91.5918 146.648L93.0574 146.534C93.4551 147.074 93.8654 147.717 94.2884 148.461C94.7105 149.196 95.1829 150.034 95.7055 150.977C96.0934 149.945 96.447 149.014 96.7664 148.184C97.085 147.345 97.3747 146.676 97.6356 146.179L99.1152 146.064C99.2215 146.589 99.3268 147.161 99.4311 147.78C99.5447 148.399 99.65 149.032 99.7472 149.68C99.8436 150.318 99.935 150.952 100.021 151.582C100.107 152.203 100.18 152.782 100.241 153.32L98.5657 153.45C98.4878 152.689 98.3942 151.905 98.2847 151.099C98.1839 150.283 98.0745 149.477 97.9565 148.681C97.8386 148.971 97.7093 149.295 97.5685 149.652C97.4371 150.009 97.306 150.37 97.1753 150.736C97.0446 151.102 96.9178 151.458 96.7949 151.805C96.6713 152.142 96.5635 152.44 96.4713 152.7L95.2151 152.798C95.0839 152.555 94.9262 152.273 94.742 151.95C94.5671 151.627 94.3868 151.294 94.2012 150.953C94.0155 150.612 93.8259 150.28 93.6324 149.958C93.4474 149.626 93.2743 149.326 93.1131 149.058ZM107.714 145.396L108.281 152.696L106.593 152.827L106.135 146.937L103.441 147.146L103.899 153.036L102.21 153.167L101.643 145.867L107.714 145.396ZM109.743 148.945C109.694 148.303 109.743 147.733 109.891 147.234C110.049 146.735 110.274 146.315 110.566 145.974C110.857 145.624 111.201 145.354 111.598 145.164C111.995 144.965 112.407 144.848 112.835 144.815C113.84 144.737 114.646 144.988 115.252 145.568C115.868 146.147 116.225 147.056 116.321 148.294C116.328 148.387 116.332 148.494 116.332 148.616C116.34 148.727 116.344 148.83 116.342 148.924L111.526 149.298C111.618 149.881 111.858 150.321 112.247 150.618C112.643 150.906 113.191 151.022 113.889 150.968C114.298 150.936 114.667 150.87 114.997 150.77C115.335 150.668 115.599 150.568 115.788 150.469L116.118 151.834C116.029 151.888 115.903 151.949 115.739 152.018C115.585 152.077 115.402 152.133 115.191 152.187C114.99 152.249 114.769 152.304 114.53 152.35C114.29 152.397 114.044 152.43 113.793 152.45C113.151 152.5 112.585 152.45 112.096 152.301C111.607 152.142 111.195 151.907 110.862 151.596C110.528 151.276 110.269 150.893 110.085 150.449C109.9 149.995 109.786 149.494 109.743 148.945ZM114.584 147.811C114.566 147.578 114.516 147.362 114.435 147.162C114.354 146.953 114.242 146.779 114.1 146.641C113.967 146.492 113.804 146.383 113.611 146.313C113.427 146.234 113.21 146.204 112.958 146.224C112.698 146.244 112.474 146.313 112.286 146.43C112.098 146.539 111.94 146.677 111.813 146.846C111.695 147.015 111.607 147.204 111.548 147.415C111.49 147.625 111.455 147.838 111.444 148.055L114.584 147.811ZM122.966 147.918C122.907 147.164 122.689 146.591 122.313 146.199C121.945 145.806 121.384 145.639 120.631 145.698C120.472 145.71 120.306 145.732 120.13 145.765C119.964 145.787 119.798 145.828 119.634 145.888L119.959 150.061C120.115 150.152 120.318 150.234 120.568 150.309C120.825 150.373 121.094 150.394 121.373 150.372C121.987 150.325 122.418 150.081 122.664 149.64C122.92 149.199 123.021 148.625 122.966 147.918ZM124.694 147.755C124.738 148.314 124.703 148.831 124.59 149.308C124.487 149.784 124.313 150.2 124.069 150.556C123.826 150.912 123.506 151.199 123.111 151.417C122.725 151.634 122.277 151.763 121.765 151.802C121.421 151.829 121.101 151.812 120.806 151.75C120.511 151.689 120.267 151.615 120.073 151.527L120.293 154.36L118.604 154.491L117.854 144.846C118.191 144.727 118.608 144.605 119.104 144.482C119.6 144.36 120.127 144.277 120.685 144.233C121.262 144.188 121.786 144.237 122.255 144.378C122.725 144.519 123.131 144.745 123.473 145.056C123.824 145.356 124.102 145.737 124.306 146.199C124.519 146.65 124.649 147.169 124.694 147.755ZM129.194 149.877C129.715 149.837 130.108 149.778 130.374 149.701L130.229 147.831C130.133 147.81 129.996 147.793 129.817 147.778C129.638 147.764 129.442 147.765 129.228 147.782C129.042 147.797 128.852 147.825 128.659 147.868C128.475 147.911 128.307 147.975 128.154 148.062C128.011 148.148 127.898 148.265 127.816 148.411C127.733 148.549 127.7 148.72 127.716 148.925C127.747 149.325 127.894 149.594 128.158 149.733C128.421 149.862 128.766 149.91 129.194 149.877ZM128.565 143.593C129.124 143.549 129.599 143.583 129.991 143.693C130.384 143.803 130.701 143.975 130.944 144.208C131.196 144.442 131.383 144.736 131.504 145.092C131.634 145.437 131.716 145.824 131.749 146.252L132.093 150.677C131.836 150.753 131.446 150.849 130.921 150.964C130.407 151.089 129.819 151.177 129.159 151.228C128.721 151.262 128.318 151.251 127.948 151.195C127.579 151.14 127.257 151.029 126.982 150.863C126.716 150.697 126.497 150.47 126.325 150.184C126.162 149.897 126.064 149.535 126.03 149.098C125.998 148.679 126.049 148.319 126.185 148.019C126.33 147.717 126.535 147.467 126.801 147.269C127.065 147.061 127.376 146.906 127.733 146.803C128.099 146.69 128.482 146.618 128.882 146.587C129.068 146.573 129.265 146.572 129.472 146.584C129.678 146.586 129.899 146.607 130.136 146.644L130.115 146.365C130.1 146.17 130.062 145.985 130.002 145.812C129.941 145.639 129.846 145.492 129.714 145.371C129.592 145.24 129.43 145.145 129.229 145.086C129.037 145.026 128.797 145.007 128.508 145.03C128.118 145.06 127.761 145.116 127.44 145.197C127.119 145.278 126.859 145.364 126.66 145.454L126.344 144.102C126.552 144.011 126.858 143.913 127.262 143.806C127.666 143.7 128.1 143.629 128.565 143.593ZM139.216 144.366L136.857 144.549L137.314 150.44L135.626 150.571L135.168 144.681L132.823 144.863L132.713 143.453L139.106 142.956L139.216 144.366ZM146.587 142.375C146.048 145.207 145.369 147.787 144.548 150.116C144.395 150.55 144.232 150.923 144.059 151.236C143.887 151.549 143.688 151.812 143.461 152.026C143.234 152.241 142.975 152.401 142.684 152.508C142.393 152.624 142.053 152.697 141.662 152.728C141.401 152.748 141.139 152.74 140.874 152.705C140.618 152.668 140.423 152.623 140.287 152.568L140.489 151.19C140.834 151.294 141.17 151.334 141.495 151.308C141.933 151.274 142.264 151.141 142.489 150.908C142.725 150.684 142.918 150.346 143.071 149.894C142.461 148.912 141.862 147.835 141.275 146.664C140.697 145.491 140.165 144.241 139.677 142.912L141.478 142.772C141.601 143.156 141.746 143.57 141.912 144.016C142.087 144.461 142.272 144.915 142.467 145.377C142.661 145.83 142.865 146.283 143.078 146.734C143.291 147.186 143.501 147.605 143.709 147.991C143.942 147.14 144.153 146.239 144.342 145.288C144.529 144.328 144.696 143.402 144.842 142.511L146.587 142.375ZM152.994 145.584C152.936 144.831 152.718 144.258 152.341 143.866C151.974 143.473 151.413 143.306 150.659 143.365C150.501 143.377 150.334 143.399 150.159 143.432C149.992 143.454 149.827 143.495 149.663 143.554L149.987 147.728C150.144 147.819 150.347 147.901 150.596 147.975C150.854 148.04 151.122 148.061 151.402 148.039C152.016 147.991 152.446 147.747 152.693 147.307C152.949 146.866 153.049 146.292 152.994 145.584ZM154.723 145.422C154.766 145.98 154.732 146.498 154.619 146.975C154.515 147.451 154.342 147.867 154.098 148.223C153.854 148.579 153.535 148.866 153.14 149.084C152.754 149.301 152.305 149.429 151.794 149.469C151.449 149.496 151.13 149.479 150.835 149.417C150.54 149.356 150.295 149.281 150.101 149.193L150.321 152.027L148.632 152.158L147.883 142.513C148.22 142.393 148.637 142.272 149.133 142.149C149.629 142.026 150.156 141.943 150.714 141.9C151.291 141.855 151.814 141.903 152.284 142.045C152.754 142.186 153.16 142.412 153.502 142.722C153.853 143.023 154.131 143.404 154.335 143.865C154.548 144.317 154.677 144.836 154.723 145.422ZM159.223 147.544C159.744 147.503 160.137 147.445 160.403 147.368L160.257 145.498C160.162 145.477 160.025 145.459 159.846 145.445C159.667 145.431 159.47 145.432 159.256 145.449C159.07 145.463 158.881 145.492 158.687 145.535C158.503 145.578 158.335 145.642 158.183 145.729C158.04 145.815 157.927 145.931 157.845 146.078C157.762 146.216 157.728 146.387 157.744 146.591C157.775 146.992 157.923 147.261 158.186 147.4C158.449 147.529 158.795 147.577 159.223 147.544ZM158.594 141.26C159.152 141.216 159.628 141.25 160.02 141.359C160.412 141.469 160.73 141.641 160.973 141.875C161.225 142.108 161.412 142.403 161.533 142.758C161.663 143.104 161.744 143.491 161.777 143.919L162.121 148.344C161.865 148.42 161.475 148.516 160.95 148.631C160.435 148.756 159.848 148.843 159.187 148.895C158.75 148.929 158.346 148.918 157.977 148.862C157.608 148.807 157.285 148.696 157.01 148.53C156.745 148.364 156.526 148.137 156.354 147.851C156.191 147.564 156.093 147.202 156.059 146.765C156.026 146.346 156.078 145.986 156.214 145.685C156.359 145.384 156.564 145.134 156.829 144.935C157.094 144.728 157.405 144.572 157.762 144.47C158.128 144.357 158.511 144.285 158.911 144.254C159.097 144.24 159.293 144.238 159.5 144.25C159.706 144.253 159.928 144.273 160.165 144.311L160.143 144.032C160.128 143.837 160.09 143.652 160.03 143.479C159.97 143.306 159.874 143.159 159.743 143.038C159.621 142.907 159.459 142.812 159.258 142.753C159.066 142.693 158.825 142.674 158.537 142.696C158.146 142.727 157.79 142.782 157.469 142.864C157.147 142.945 156.887 143.031 156.688 143.121L156.373 141.769C156.581 141.678 156.887 141.58 157.291 141.473C157.694 141.367 158.129 141.296 158.594 141.26ZM81.5107 174.976C81.2409 174.997 80.9656 175.009 80.685 175.012C80.4044 175.015 80.1328 175.013 79.87 175.005C79.6166 174.997 79.3772 174.988 79.1517 174.977C78.9255 174.957 78.7365 174.934 78.5847 174.909L78.037 167.86C78.183 167.811 78.3666 167.764 78.5877 167.719C78.8082 167.664 79.0433 167.618 79.2931 167.58C79.5515 167.532 79.8199 167.492 80.0983 167.461C80.376 167.421 80.6498 167.39 80.9196 167.369C81.906 167.293 82.6878 167.414 83.265 167.735C83.8415 168.046 84.1547 168.522 84.2046 169.164C84.2306 169.499 84.17 169.803 84.0227 170.077C83.8755 170.351 83.672 170.563 83.4123 170.714C83.7574 170.818 84.0617 171.001 84.3254 171.261C84.589 171.521 84.7407 171.908 84.7805 172.419C84.8376 173.154 84.5932 173.744 84.0474 174.189C83.5008 174.625 82.6553 174.887 81.5107 174.976ZM81.2023 170.465C81.621 170.432 81.9606 170.345 82.2211 170.203C82.4908 170.06 82.6116 169.807 82.5834 169.445C82.5697 169.268 82.5119 169.127 82.4102 169.023C82.3178 168.918 82.1946 168.838 82.0407 168.785C81.8867 168.731 81.7113 168.703 81.5145 168.699C81.3169 168.686 81.1111 168.688 80.8971 168.705C80.7296 168.718 80.5345 168.738 80.3119 168.764C80.0986 168.79 79.9275 168.818 79.7987 168.846L79.9321 170.563L81.2023 170.465ZM80.174 173.676C80.2871 173.686 80.47 173.69 80.7227 173.689C80.9839 173.679 81.2262 173.664 81.4496 173.647C81.952 173.608 82.3607 173.506 82.6755 173.341C82.9997 173.176 83.1466 172.897 83.1162 172.506C83.0866 172.125 82.9128 171.876 82.5949 171.761C82.2855 171.635 81.8889 171.591 81.405 171.628L80.0232 171.736L80.174 173.676ZM92.8613 170.275C92.9061 170.852 92.8632 171.384 92.7326 171.872C92.602 172.359 92.3962 172.782 92.1151 173.141C91.8341 173.5 91.4821 173.79 91.0592 174.01C90.6456 174.229 90.1783 174.359 89.6572 174.399C89.1361 174.44 88.6543 174.384 88.2118 174.231C87.7693 174.078 87.3815 173.846 87.0484 173.535C86.7153 173.224 86.4419 172.838 86.2282 172.377C86.0239 171.915 85.8993 171.396 85.8544 170.819C85.8096 170.242 85.8529 169.715 85.9842 169.236C86.1241 168.748 86.3346 168.325 86.6157 167.966C86.906 167.606 87.2584 167.321 87.6727 167.111C88.0862 166.892 88.5489 166.762 89.0607 166.723C89.5725 166.683 90.0497 166.739 90.4922 166.892C90.9432 167.035 91.3353 167.262 91.6684 167.573C92.0015 167.884 92.2703 168.271 92.4747 168.732C92.6876 169.184 92.8165 169.698 92.8613 170.275ZM91.1305 170.409C91.0741 169.684 90.8715 169.124 90.5226 168.729C90.1822 168.325 89.7329 168.145 89.1746 168.188C88.6163 168.232 88.1956 168.48 87.9124 168.932C87.6379 169.375 87.5288 169.959 87.5852 170.685C87.6423 171.42 87.8411 171.99 88.1814 172.394C88.531 172.797 88.985 172.977 89.5433 172.934C90.1016 172.891 90.5177 172.643 90.7915 172.191C91.0747 171.738 91.1877 171.144 91.1305 170.409ZM93.8101 166.761C93.9274 166.705 94.0727 166.647 94.2459 166.587C94.4191 166.526 94.6066 166.47 94.8084 166.416C95.0102 166.363 95.2221 166.319 95.4439 166.283C95.6744 166.237 95.906 166.205 96.1386 166.187C96.5387 166.156 96.9231 166.163 97.2918 166.209C97.6605 166.256 97.9863 166.352 98.2691 166.499C98.552 166.645 98.7827 166.843 98.9611 167.091C99.1488 167.338 99.2568 167.644 99.285 168.006C99.3154 168.397 99.234 168.736 99.041 169.022C98.8479 169.309 98.6169 169.528 98.3478 169.68C98.7789 169.806 99.118 170.013 99.3652 170.303C99.6123 170.593 99.7544 170.975 99.7913 171.45C99.8209 171.831 99.7625 172.163 99.6159 172.446C99.4787 172.728 99.2727 172.969 98.998 173.168C98.7319 173.357 98.4109 173.504 98.0352 173.608C97.6602 173.721 97.2493 173.796 96.8027 173.83C96.263 173.872 95.7569 173.865 95.2844 173.808C94.8126 173.76 94.4371 173.686 94.1579 173.586L94.3447 172.196C94.5273 172.256 94.818 172.323 95.2167 172.395C95.6148 172.457 96.079 172.468 96.6094 172.427C97.633 172.347 98.1216 172.01 98.0754 171.414C98.0587 171.2 97.9988 171.032 97.8957 170.909C97.7925 170.786 97.6686 170.697 97.5239 170.643C97.3786 170.579 97.2168 170.545 97.0385 170.54C96.8596 170.526 96.6863 170.525 96.5188 170.538L95.123 170.647L95.0254 169.391L96.4073 169.283C96.7516 169.256 97.04 169.173 97.2725 169.033C97.5136 168.884 97.6219 168.651 97.5973 168.334C97.5771 168.074 97.4402 167.878 97.1867 167.748C96.9418 167.608 96.6053 167.555 96.1772 167.588C95.9911 167.602 95.8015 167.631 95.6082 167.674C95.4143 167.708 95.2257 167.751 95.0425 167.802C94.8685 167.853 94.709 167.908 94.5637 167.966C94.4177 168.015 94.3043 168.061 94.2234 168.105L93.8101 166.761ZM100.659 171.958L101.497 171.893C101.756 171.489 101.946 171.048 102.068 170.571C102.199 170.083 102.281 169.58 102.316 169.063C102.35 168.536 102.355 168.002 102.332 167.461C102.309 166.92 102.282 166.393 102.251 165.88L107.485 165.474L107.945 171.392L109.062 171.305L109.33 174.753L107.822 174.87L107.662 172.804L102.26 173.224L102.421 175.289L100.927 175.405L100.659 171.958ZM106.256 171.523L105.905 167.001L103.923 167.155C103.934 167.538 103.941 167.93 103.944 168.332C103.947 168.725 103.926 169.12 103.882 169.517C103.837 169.904 103.764 170.289 103.663 170.671C103.57 171.044 103.434 171.405 103.255 171.756L106.256 171.523ZM116.185 164.798C115.647 167.629 114.968 170.21 114.147 172.539C113.993 172.972 113.83 173.345 113.658 173.658C113.486 173.971 113.286 174.235 113.06 174.449C112.833 174.663 112.574 174.823 112.283 174.93C111.992 175.047 111.651 175.12 111.261 175.15C111 175.17 110.737 175.163 110.472 175.127C110.217 175.091 110.021 175.045 109.886 174.99L110.088 173.612C110.433 173.717 110.768 173.756 111.094 173.731C111.531 173.697 111.863 173.563 112.088 173.331C112.323 173.106 112.517 172.768 112.669 172.317C112.059 171.334 111.461 170.257 110.874 169.086C110.296 167.914 109.763 166.663 109.276 165.334L111.077 165.195C111.2 165.578 111.345 165.993 111.51 166.439C111.685 166.884 111.87 167.337 112.066 167.8C112.26 168.253 112.464 168.705 112.676 169.157C112.889 169.608 113.1 170.027 113.308 170.413C113.541 169.562 113.752 168.661 113.94 167.71C114.128 166.75 114.295 165.824 114.441 164.933L116.185 164.798ZM120.423 166.87L121.787 164.362L123.559 164.225L121.426 167.859C121.98 168.471 122.51 169.095 123.018 169.729C123.535 170.354 123.965 170.947 124.308 171.511L122.479 171.653C122.382 171.482 122.255 171.291 122.098 171.078C121.949 170.856 121.787 170.63 121.61 170.4C121.441 170.161 121.264 169.926 121.078 169.697C120.891 169.468 120.711 169.253 120.536 169.051C120.243 169.495 119.958 169.986 119.681 170.522C119.413 171.048 119.192 171.515 119.018 171.922L117.287 172.056C117.405 171.766 117.549 171.455 117.72 171.124C117.891 170.792 118.075 170.455 118.273 170.112C118.471 169.759 118.673 169.411 118.88 169.068C119.096 168.714 119.309 168.379 119.519 168.063L116.832 164.747L118.688 164.603L120.423 166.87ZM128.044 170.027C128.565 169.986 128.959 169.928 129.224 169.851L129.079 167.98C128.984 167.96 128.847 167.942 128.668 167.928C128.489 167.914 128.292 167.915 128.078 167.932C127.892 167.946 127.702 167.975 127.509 168.018C127.325 168.06 127.157 168.125 127.005 168.212C126.862 168.298 126.749 168.414 126.667 168.561C126.584 168.698 126.55 168.87 126.566 169.074C126.597 169.474 126.745 169.744 127.008 169.882C127.271 170.012 127.616 170.06 128.044 170.027ZM127.416 163.742C127.974 163.699 128.449 163.732 128.842 163.842C129.234 163.952 129.552 164.124 129.795 164.358C130.047 164.591 130.233 164.886 130.355 165.241C130.484 165.587 130.566 165.974 130.599 166.402L130.943 170.827C130.687 170.903 130.296 170.998 129.772 171.114C129.257 171.238 128.67 171.326 128.009 171.377C127.572 171.411 127.168 171.401 126.799 171.345C126.429 171.29 126.107 171.179 125.832 171.013C125.566 170.846 125.348 170.62 125.176 170.334C125.013 170.047 124.915 169.685 124.881 169.247C124.848 168.829 124.9 168.469 125.035 168.168C125.18 167.867 125.386 167.617 125.651 167.418C125.916 167.21 126.227 167.055 126.584 166.953C126.95 166.84 127.332 166.768 127.733 166.737C127.919 166.722 128.115 166.721 128.322 166.733C128.528 166.736 128.75 166.756 128.987 166.794L128.965 166.515C128.95 166.319 128.912 166.135 128.852 165.962C128.792 165.789 128.696 165.642 128.565 165.521C128.442 165.39 128.281 165.295 128.079 165.236C127.887 165.176 127.647 165.157 127.359 165.179C126.968 165.21 126.612 165.265 126.291 165.346C125.969 165.428 125.709 165.513 125.51 165.604L125.194 164.252C125.403 164.161 125.709 164.062 126.112 163.956C126.516 163.85 126.95 163.779 127.416 163.742Z" fill="#DBE2F9"/>
<path d="M85.8487 195.38C85.8747 195.715 85.8306 196.051 85.7163 196.387C85.6013 196.714 85.4441 197.04 85.2446 197.365C85.0537 197.679 84.8299 197.991 84.5732 198.301C84.3157 198.602 84.0579 198.898 83.7997 199.19C83.6617 199.341 83.5072 199.522 83.3362 199.731C83.1653 199.941 83.0037 200.151 82.8514 200.359C82.6991 200.567 82.5697 200.769 82.4632 200.965C82.3559 201.151 82.3024 201.305 82.3025 201.427L86.6015 201.093L86.7121 202.516L80.5567 202.995C80.5416 202.921 80.5301 202.833 80.5221 202.731C80.5134 202.619 80.5069 202.535 80.5026 202.479C80.4679 202.033 80.5059 201.618 80.6165 201.235C80.7358 200.842 80.899 200.473 81.1064 200.129C81.3137 199.786 81.5504 199.458 81.8164 199.147C82.0825 198.837 82.3489 198.53 82.6157 198.229C82.8224 197.997 83.0201 197.771 83.2089 197.551C83.3977 197.33 83.559 197.116 83.6927 196.909C83.835 196.692 83.9447 196.478 84.0218 196.266C84.0983 196.045 84.1278 195.822 84.1105 195.599C84.0729 195.115 83.9065 194.782 83.6115 194.599C83.3164 194.416 82.9688 194.34 82.5687 194.371C82.3081 194.391 82.0691 194.447 81.8515 194.539C81.634 194.631 81.4408 194.735 81.272 194.851C81.1124 194.966 80.9718 195.085 80.8502 195.206C80.7279 195.319 80.6367 195.41 80.5766 195.48L79.647 194.359C80.0089 193.957 80.4417 193.623 80.9455 193.36C81.4578 193.086 82.0164 192.925 82.6212 192.878C83.6541 192.798 84.4316 192.986 84.9538 193.441C85.4846 193.887 85.7829 194.533 85.8487 195.38ZM92.7556 199.266C92.7317 198.959 92.6499 198.69 92.5101 198.457C92.3703 198.224 92.1404 198.036 91.8203 197.893C91.5095 197.748 91.095 197.654 90.5767 197.61C90.0677 197.566 89.4271 197.573 88.6547 197.633C88.6877 196.732 88.701 195.879 88.6946 195.074C88.6875 194.261 88.6712 193.447 88.6455 192.635L93.5866 192.251L93.6972 193.675L90.1938 193.947C90.1968 194.106 90.1969 194.288 90.1942 194.494C90.2001 194.691 90.2017 194.892 90.199 195.098C90.2056 195.303 90.2068 195.5 90.2026 195.687C90.1985 195.875 90.1922 196.035 90.1837 196.166C91.5666 196.134 92.6055 196.371 93.3003 196.879C94.0036 197.377 94.3925 198.105 94.467 199.063C94.5009 199.501 94.458 199.911 94.338 200.295C94.218 200.679 94.015 201.017 93.7289 201.311C93.4428 201.605 93.0732 201.849 92.6203 202.043C92.1666 202.228 91.628 202.345 91.0045 202.393C90.7533 202.413 90.4959 202.414 90.2325 202.397C89.9691 202.38 89.7142 202.353 89.4679 202.316C89.2317 202.288 89.0183 202.253 88.8279 202.212C88.6375 202.17 88.4939 202.13 88.3972 202.091L88.6076 200.642C88.8103 200.72 89.0974 200.8 89.469 200.884C89.8491 200.957 90.3044 200.973 90.8348 200.932C91.1977 200.904 91.5066 200.843 91.7613 200.748C92.0154 200.644 92.2161 200.516 92.3634 200.364C92.5201 200.212 92.6287 200.044 92.6894 199.861C92.7494 199.669 92.7715 199.471 92.7556 199.266ZM98.7665 196.791L102.521 196.5L102.642 198.049L98.8869 198.341L98.7665 196.791ZM109.786 200.934C109.535 200.954 109.273 200.955 109 200.939C108.737 200.931 108.483 200.909 108.237 200.872C108 200.844 107.782 200.809 107.583 200.768C107.382 200.718 107.229 200.669 107.122 200.622L107.345 199.158C107.548 199.236 107.84 199.321 108.222 199.413C108.602 199.496 109.067 199.516 109.616 199.473C110.352 199.416 110.871 199.235 111.175 198.931C111.478 198.617 111.612 198.223 111.575 197.748C111.551 197.441 111.466 197.19 111.32 196.996C111.183 196.8 110.998 196.651 110.765 196.547C110.541 196.433 110.283 196.365 109.991 196.34C109.707 196.306 109.407 196.302 109.091 196.326L108.519 196.371L108.413 195.003L109.11 194.948C109.324 194.932 109.537 194.897 109.748 194.843C109.968 194.779 110.162 194.689 110.331 194.573C110.499 194.447 110.632 194.292 110.73 194.107C110.828 193.921 110.866 193.689 110.844 193.41C110.827 193.186 110.77 192.999 110.674 192.847C110.578 192.695 110.456 192.574 110.309 192.482C110.171 192.39 110.011 192.327 109.831 192.295C109.651 192.262 109.463 192.253 109.267 192.268C108.849 192.301 108.481 192.395 108.166 192.55C107.85 192.697 107.572 192.859 107.333 193.036L106.621 191.828C106.745 191.734 106.896 191.633 107.075 191.526C107.254 191.418 107.452 191.314 107.669 191.213C107.895 191.111 108.136 191.027 108.393 190.96C108.65 190.884 108.922 190.835 109.21 190.812C109.75 190.77 110.22 190.799 110.621 190.899C111.022 190.999 111.358 191.16 111.628 191.383C111.906 191.595 112.119 191.86 112.265 192.176C112.42 192.482 112.512 192.826 112.542 193.207C112.577 193.654 112.482 194.064 112.258 194.437C112.044 194.81 111.748 195.104 111.372 195.32C111.888 195.458 112.325 195.719 112.683 196.103C113.049 196.487 113.258 196.999 113.308 197.641C113.341 198.069 113.298 198.475 113.178 198.859C113.057 199.234 112.853 199.568 112.567 199.861C112.281 200.146 111.906 200.386 111.444 200.581C110.99 200.766 110.437 200.884 109.786 200.934ZM121.36 194.952C121.487 196.58 121.286 197.855 120.759 198.776C120.231 199.687 119.441 200.184 118.389 200.266C117.338 200.347 116.481 199.979 115.818 199.16C115.154 198.331 114.759 197.103 114.633 195.474C114.57 194.665 114.589 193.942 114.689 193.307C114.798 192.662 114.98 192.115 115.235 191.664C115.5 191.213 115.828 190.86 116.22 190.605C116.622 190.349 117.083 190.201 117.604 190.16C118.656 190.078 119.513 190.452 120.177 191.28C120.839 192.099 121.234 193.323 121.36 194.952ZM119.616 195.087C119.577 194.585 119.512 194.117 119.422 193.684C119.333 193.251 119.21 192.881 119.055 192.575C118.909 192.259 118.726 192.015 118.507 191.845C118.288 191.675 118.025 191.602 117.718 191.626C117.411 191.65 117.158 191.763 116.958 191.966C116.768 192.168 116.62 192.437 116.515 192.772C116.419 193.098 116.36 193.482 116.338 193.924C116.325 194.365 116.338 194.836 116.378 195.339C116.417 195.841 116.476 196.309 116.557 196.743C116.647 197.176 116.765 197.551 116.911 197.867C117.066 198.173 117.253 198.411 117.472 198.582C117.701 198.751 117.968 198.824 118.275 198.8C118.582 198.776 118.831 198.663 119.021 198.461C119.212 198.259 119.355 197.995 119.451 197.67C119.556 197.334 119.62 196.945 119.642 196.503C119.663 196.062 119.655 195.59 119.616 195.087ZM125.27 192.429C125.25 192.178 125.218 191.946 125.174 191.734C125.129 191.513 125.063 191.327 124.976 191.174C124.889 191.022 124.782 190.904 124.653 190.82C124.525 190.736 124.373 190.701 124.196 190.715C123.833 190.743 123.595 190.935 123.482 191.29C123.369 191.645 123.333 192.074 123.372 192.577C123.411 193.088 123.514 193.511 123.681 193.844C123.847 194.178 124.112 194.331 124.475 194.302C124.651 194.289 124.797 194.231 124.91 194.128C125.024 194.026 125.112 193.892 125.174 193.728C125.236 193.564 125.273 193.37 125.283 193.144C125.294 192.919 125.289 192.68 125.27 192.429ZM122.115 192.674C122.045 191.762 122.181 191.045 122.524 190.522C122.876 189.999 123.402 189.71 124.099 189.655C124.797 189.601 125.356 189.806 125.776 190.269C126.205 190.732 126.455 191.42 126.526 192.332C126.598 193.253 126.457 193.975 126.105 194.499C125.762 195.021 125.241 195.31 124.543 195.364C123.845 195.418 123.282 195.214 122.852 194.751C122.433 194.288 122.187 193.595 122.115 192.674ZM132.887 199.139C132.161 199.196 131.501 199.135 130.906 198.956C130.312 198.778 129.798 198.49 129.365 198.093C128.931 197.687 128.582 197.18 128.32 196.573C128.058 195.966 127.895 195.258 127.832 194.449C127.769 193.639 127.834 192.913 128.028 192.271C128.231 191.628 128.529 191.076 128.924 190.615C129.318 190.144 129.795 189.775 130.355 189.506C130.914 189.238 131.524 189.079 132.185 189.027C132.585 188.996 132.951 189 133.281 189.04C133.611 189.071 133.9 189.114 134.148 189.17C134.396 189.225 134.602 189.289 134.767 189.36C134.931 189.432 135.048 189.483 135.116 189.516L134.711 190.993C134.477 190.871 134.146 190.766 133.717 190.677C133.298 190.579 132.846 190.549 132.362 190.586C131.944 190.619 131.559 190.724 131.207 190.901C130.855 191.068 130.555 191.307 130.308 191.616C130.07 191.925 129.893 192.304 129.778 192.753C129.664 193.202 129.628 193.715 129.673 194.292C129.713 194.803 129.805 195.269 129.95 195.688C130.105 196.107 130.315 196.465 130.581 196.763C130.847 197.051 131.173 197.269 131.559 197.417C131.944 197.555 132.397 197.605 132.919 197.564C133.542 197.516 134.044 197.416 134.426 197.264C134.807 197.104 135.1 196.959 135.305 196.831L135.891 198.232C135.785 198.315 135.638 198.401 135.448 198.491C135.268 198.58 135.05 198.672 134.795 198.766C134.54 198.852 134.251 198.926 133.928 198.988C133.606 199.06 133.259 199.11 132.887 199.139Z" fill="#89E159"/>
<path d="M86.1587 234.796C85.8888 234.817 85.6136 234.829 85.333 234.832C85.0524 234.835 84.7807 234.833 84.518 234.825C84.2646 234.817 84.0251 234.807 83.7996 234.797C83.5734 234.777 83.3844 234.754 83.2326 234.729L82.6849 227.68C82.8309 227.631 83.0145 227.584 83.2357 227.539C83.4561 227.484 83.6912 227.438 83.941 227.4C84.1994 227.352 84.4678 227.312 84.7462 227.281C85.024 227.241 85.2977 227.21 85.5676 227.189C86.554 227.112 87.3357 227.234 87.9129 227.554C88.4894 227.865 88.8026 228.342 88.8525 228.984C88.8785 229.319 88.8179 229.623 88.6707 229.897C88.5234 230.17 88.3199 230.383 88.0602 230.534C88.4053 230.638 88.7097 230.821 88.9733 231.081C89.2369 231.341 89.3886 231.727 89.4284 232.239C89.4855 232.974 89.2412 233.564 88.6953 234.009C88.1488 234.445 87.3032 234.707 86.1587 234.796ZM85.8502 230.284C86.269 230.252 86.6086 230.165 86.869 230.023C87.1388 229.88 87.2596 229.627 87.2314 229.264C87.2176 229.088 87.1599 228.947 87.0582 228.843C86.9657 228.737 86.8426 228.658 86.6886 228.604C86.5347 228.551 86.3593 228.522 86.1624 228.519C85.9648 228.506 85.759 228.508 85.545 228.525C85.3775 228.538 85.1825 228.558 84.9599 228.584C84.7466 228.61 84.5755 228.638 84.4467 228.666L84.5801 230.383L85.8502 230.284ZM84.8219 233.496C84.935 233.506 85.1179 233.51 85.3706 233.509C85.6319 233.498 85.8742 233.484 86.0975 233.467C86.6 233.428 87.0086 233.326 87.3235 233.161C87.6476 232.995 87.7945 232.717 87.7642 232.326C87.7345 231.945 87.5607 231.696 87.2428 231.581C86.9335 231.455 86.5369 231.411 86.053 231.448L84.6712 231.556L84.8219 233.496ZM93.5939 228.138C93.6164 228.548 93.6357 228.977 93.6518 229.426C93.6672 229.864 93.6543 230.301 93.6131 230.734C93.5812 231.168 93.506 231.585 93.3875 231.988C93.269 232.39 93.0871 232.76 92.8418 233.097C92.6052 233.425 92.2951 233.711 91.9116 233.956C91.5366 234.191 91.0675 234.359 90.5043 234.459L90.1574 233.067C90.6248 232.937 90.9808 232.76 91.2254 232.535C91.4693 232.301 91.6484 232.015 91.7627 231.679C91.8556 231.428 91.918 231.147 91.95 230.836C91.9912 230.523 92.0128 230.199 92.0147 229.862C92.0252 229.514 92.0213 229.164 92.0032 228.809C91.985 228.455 91.9629 228.11 91.9369 227.775L91.8664 226.868L97.0308 226.467L97.598 233.767L95.9091 233.898L95.4503 227.994L93.5939 228.138ZM102.228 232.214C102.749 232.173 103.142 232.114 103.407 232.038L103.262 230.167C103.167 230.147 103.03 230.129 102.851 230.115C102.672 230.101 102.475 230.102 102.261 230.119C102.075 230.133 101.886 230.162 101.692 230.205C101.508 230.247 101.34 230.312 101.188 230.399C101.045 230.485 100.932 230.601 100.85 230.748C100.767 230.885 100.733 231.057 100.749 231.261C100.78 231.661 100.928 231.931 101.191 232.069C101.454 232.199 101.799 232.247 102.228 232.214ZM101.599 225.929C102.157 225.886 102.632 225.919 103.025 226.029C103.417 226.139 103.735 226.311 103.978 226.545C104.23 226.778 104.417 227.073 104.538 227.428C104.668 227.774 104.749 228.161 104.782 228.589L105.126 233.013C104.87 233.09 104.48 233.185 103.955 233.301C103.44 233.425 102.853 233.513 102.192 233.564C101.755 233.598 101.351 233.588 100.982 233.532C100.613 233.477 100.29 233.366 100.015 233.2C99.7496 233.033 99.5307 232.807 99.3587 232.521C99.196 232.234 99.0976 231.872 99.0637 231.434C99.0311 231.016 99.0827 230.656 99.2185 230.355C99.3636 230.054 99.5688 229.804 99.8343 229.605C100.099 229.397 100.41 229.242 100.767 229.14C101.133 229.027 101.516 228.955 101.916 228.924C102.102 228.909 102.298 228.908 102.505 228.92C102.711 228.923 102.933 228.943 103.17 228.981L103.148 228.702C103.133 228.506 103.095 228.322 103.035 228.149C102.975 227.976 102.879 227.829 102.748 227.708C102.626 227.577 102.464 227.482 102.262 227.423C102.071 227.363 101.83 227.344 101.542 227.366C101.151 227.397 100.795 227.452 100.474 227.533C100.152 227.615 99.8922 227.7 99.6933 227.791L99.3776 226.439C99.5859 226.348 99.8918 226.249 100.295 226.143C100.699 226.037 101.134 225.966 101.599 225.929ZM106.272 233.093C106.645 232.343 107.08 231.617 107.577 230.913C108.074 230.201 108.58 229.539 109.094 228.928C108.52 228.401 107.958 227.865 107.41 227.317C106.862 226.761 106.377 226.246 105.956 225.773L107.896 225.623C108.215 225.991 108.584 226.398 109.002 226.843C109.43 227.287 109.954 227.831 110.576 228.476L110.339 225.433L111.972 225.306L112.209 228.349C112.742 227.624 113.181 227.005 113.525 226.491C113.869 225.978 114.17 225.519 114.429 225.115L116.341 224.967C116.026 225.496 115.641 226.074 115.184 226.699C114.736 227.324 114.26 227.941 113.755 228.552C114.417 229.118 115.029 229.702 115.59 230.305C116.161 230.906 116.694 231.553 117.187 232.245L115.303 232.391C115.095 232.127 114.868 231.849 114.621 231.56C114.383 231.269 114.131 230.984 113.866 230.705C113.61 230.416 113.345 230.142 113.072 229.883C112.799 229.623 112.532 229.381 112.272 229.158L112.539 232.606L110.906 232.733L110.638 229.285C110.416 229.555 110.19 229.844 109.962 230.152C109.733 230.46 109.509 230.777 109.291 231.103C109.082 231.419 108.877 231.734 108.677 232.05C108.486 232.364 108.312 232.663 108.157 232.947L106.272 233.093ZM124.512 231.676L122.823 231.807L122.586 228.75L119.836 228.964L120.074 232.021L118.385 232.152L117.818 224.852L119.506 224.721L119.728 227.568L122.477 227.354L122.256 224.507L123.945 224.376L124.512 231.676ZM132.977 227.339C133.021 227.916 132.979 228.448 132.848 228.936C132.717 229.423 132.511 229.847 132.23 230.205C131.949 230.564 131.597 230.854 131.174 231.074C130.761 231.293 130.294 231.423 129.772 231.464C129.251 231.504 128.77 231.448 128.327 231.295C127.885 231.142 127.497 230.91 127.164 230.599C126.831 230.288 126.557 229.902 126.343 229.441C126.139 228.98 126.015 228.46 125.97 227.883C125.925 227.306 125.968 226.779 126.099 226.301C126.239 225.812 126.45 225.389 126.731 225.03C127.021 224.67 127.374 224.385 127.788 224.175C128.202 223.956 128.664 223.826 129.176 223.787C129.688 223.747 130.165 223.803 130.607 223.956C131.059 224.099 131.451 224.326 131.784 224.637C132.117 224.948 132.386 225.335 132.59 225.796C132.803 226.248 132.932 226.762 132.977 227.339ZM131.246 227.473C131.189 226.748 130.987 226.188 130.638 225.793C130.298 225.389 129.848 225.209 129.29 225.252C128.732 225.296 128.311 225.544 128.028 225.996C127.753 226.439 127.644 227.023 127.7 227.749C127.758 228.484 127.956 229.054 128.297 229.458C128.646 229.861 129.1 230.041 129.659 229.998C130.217 229.955 130.633 229.707 130.907 229.255C131.19 228.802 131.303 228.209 131.246 227.473ZM134.313 227.249C134.271 226.709 134.316 226.2 134.447 225.722C134.578 225.235 134.783 224.807 135.063 224.439C135.353 224.07 135.714 223.77 136.145 223.54C136.576 223.31 137.071 223.173 137.63 223.13C138.318 223.076 138.979 223.151 139.613 223.355L139.358 224.765C139.156 224.696 138.927 224.644 138.671 224.608C138.425 224.571 138.162 224.563 137.883 224.585C137.222 224.636 136.736 224.884 136.424 225.33C136.112 225.766 135.985 226.361 136.044 227.115C136.1 227.841 136.308 228.405 136.667 228.808C137.025 229.201 137.59 229.368 138.362 229.308C138.651 229.285 138.933 229.235 139.207 229.158C139.482 229.08 139.719 228.992 139.917 228.892L140.263 230.269C140.084 230.377 139.806 230.483 139.431 230.587C139.064 230.69 138.681 230.757 138.281 230.788C137.657 230.837 137.106 230.786 136.626 230.636C136.155 230.476 135.753 230.241 135.42 229.929C135.095 229.608 134.84 229.221 134.655 228.767C134.47 228.304 134.355 227.798 134.313 227.249ZM146.803 224.018L144.444 224.201L144.902 230.091L143.213 230.223L142.756 224.332L140.411 224.515L140.301 223.105L146.694 222.608L146.803 224.018ZM149.853 225.073C149.99 225.025 150.192 224.976 150.46 224.927C150.728 224.878 150.996 224.844 151.266 224.823C151.685 224.79 152.079 224.806 152.45 224.871C152.829 224.935 153.162 225.059 153.447 225.243C153.732 225.417 153.966 225.657 154.149 225.961C154.331 226.255 154.439 226.617 154.472 227.045C154.506 227.482 154.461 227.86 154.336 228.179C154.21 228.498 154.016 228.765 153.752 228.983C153.488 229.2 153.164 229.37 152.781 229.493C152.406 229.616 151.982 229.696 151.507 229.733C150.958 229.775 150.444 229.787 149.966 229.768C149.487 229.749 149.001 229.703 148.508 229.629L147.955 222.51L149.644 222.379L149.853 225.073ZM151.362 228.41C151.837 228.373 152.198 228.256 152.445 228.059C152.7 227.852 152.812 227.548 152.781 227.148C152.765 226.944 152.705 226.775 152.601 226.643C152.507 226.51 152.382 226.407 152.226 226.335C152.08 226.253 151.907 226.2 151.709 226.178C151.51 226.156 151.304 226.154 151.09 226.17C150.895 226.185 150.691 226.211 150.478 226.246C150.265 226.272 150.09 226.309 149.953 226.357L150.115 228.437C150.237 228.446 150.415 228.451 150.65 228.451C150.892 228.442 151.13 228.428 151.362 228.41ZM90.2984 247.05L90.8656 254.35L89.1767 254.482L88.719 248.591L86.0251 248.801L86.4828 254.691L84.7939 254.822L84.2267 247.522L90.2984 247.05ZM99.3312 250.013C99.376 250.59 99.3331 251.123 99.2025 251.61C99.0719 252.098 98.8661 252.521 98.585 252.88C98.304 253.239 97.952 253.528 97.5291 253.748C97.1155 253.968 96.6482 254.098 96.1271 254.138C95.606 254.179 95.1242 254.122 94.6817 253.97C94.2392 253.817 93.8514 253.585 93.5183 253.274C93.1852 252.962 92.9118 252.576 92.6981 252.116C92.4937 251.654 92.3691 251.135 92.3243 250.558C92.2795 249.981 92.3228 249.453 92.4541 248.975C92.594 248.487 92.8045 248.063 93.0856 247.704C93.3759 247.345 93.7282 247.06 94.1425 246.85C94.5561 246.631 95.0188 246.501 95.5306 246.461C96.0424 246.421 96.5195 246.478 96.962 246.631C97.4131 246.774 97.8052 247.001 98.1383 247.312C98.4714 247.623 98.7402 248.009 98.9445 248.471C99.1575 248.922 99.2864 249.437 99.3312 250.013ZM97.6004 250.148C97.544 249.422 97.3414 248.862 96.9925 248.468C96.6521 248.064 96.2028 247.883 95.6445 247.927C95.0862 247.97 94.6654 248.218 94.3823 248.671C94.1078 249.113 93.9987 249.698 94.0551 250.423C94.1122 251.159 94.3109 251.728 94.6513 252.132C95.0009 252.536 95.4549 252.716 96.0132 252.672C96.5715 252.629 96.9876 252.381 97.2614 251.93C97.5445 251.477 97.6575 250.883 97.6004 250.148ZM102.178 248.402C102.213 248.849 102.363 249.155 102.629 249.322C102.903 249.478 103.263 249.539 103.71 249.505C103.924 249.488 104.133 249.463 104.336 249.428C104.548 249.383 104.732 249.336 104.887 249.287L104.627 245.937L106.315 245.806L106.883 253.106L105.194 253.237L104.991 250.627C104.826 250.668 104.61 250.722 104.344 250.79C104.077 250.848 103.836 250.885 103.622 250.902C103.185 250.936 102.781 250.925 102.412 250.869C102.052 250.813 101.734 250.697 101.458 250.522C101.182 250.338 100.961 250.088 100.796 249.773C100.631 249.449 100.529 249.04 100.49 248.547L100.314 246.272L102.002 246.141L102.178 248.402ZM111.944 252.853C111.674 252.874 111.398 252.886 111.118 252.889C110.837 252.892 110.566 252.89 110.303 252.882C110.049 252.874 109.81 252.864 109.584 252.854C109.358 252.834 109.169 252.811 109.017 252.785L108.47 245.737C108.616 245.688 108.799 245.641 109.021 245.596C109.241 245.541 109.476 245.495 109.726 245.457C109.984 245.408 110.253 245.369 110.531 245.338C110.809 245.298 111.083 245.267 111.352 245.246C112.339 245.169 113.121 245.291 113.698 245.611C114.274 245.922 114.587 246.399 114.637 247.041C114.663 247.376 114.603 247.68 114.456 247.954C114.308 248.227 114.105 248.44 113.845 248.591C114.19 248.695 114.495 248.877 114.758 249.138C115.022 249.398 115.173 249.784 115.213 250.296C115.27 251.031 115.026 251.621 114.48 252.066C113.934 252.502 113.088 252.764 111.944 252.853ZM111.635 248.341C112.054 248.309 112.393 248.222 112.654 248.08C112.924 247.937 113.044 247.684 113.016 247.321C113.002 247.144 112.945 247.004 112.843 246.899C112.751 246.794 112.627 246.715 112.473 246.661C112.32 246.608 112.144 246.579 111.947 246.576C111.75 246.563 111.544 246.565 111.33 246.582C111.162 246.595 110.967 246.615 110.745 246.641C110.531 246.667 110.36 246.694 110.232 246.723L110.365 248.44L111.635 248.341ZM110.607 251.553C110.72 251.563 110.903 251.567 111.155 251.566C111.417 251.555 111.659 251.541 111.882 251.524C112.385 251.485 112.794 251.383 113.108 251.218C113.432 251.052 113.579 250.774 113.549 250.383C113.519 250.002 113.346 249.753 113.028 249.637C112.718 249.512 112.322 249.467 111.838 249.505L110.456 249.612L110.607 251.553ZM125.867 251.631L124.178 251.762L123.611 244.462L125.3 244.331L125.867 251.631ZM118.307 247.584C118.444 247.536 118.641 247.488 118.9 247.44C119.167 247.391 119.427 247.357 119.678 247.337C120.078 247.306 120.459 247.323 120.82 247.389C121.19 247.454 121.513 247.578 121.79 247.763C122.075 247.937 122.304 248.177 122.477 248.482C122.659 248.777 122.767 249.138 122.8 249.566C122.834 250.003 122.789 250.381 122.664 250.7C122.539 251.019 122.349 251.286 122.094 251.503C121.839 251.719 121.525 251.889 121.151 252.011C120.786 252.133 120.375 252.212 119.919 252.247C119.389 252.289 118.884 252.3 118.405 252.281C117.936 252.261 117.455 252.214 116.962 252.14L116.409 245.022L118.098 244.89L118.307 247.584ZM119.774 250.925C120.212 250.891 120.549 250.775 120.787 250.579C121.033 250.373 121.14 250.07 121.109 249.669C121.093 249.465 121.038 249.296 120.943 249.163C120.849 249.03 120.724 248.927 120.568 248.855C120.422 248.773 120.254 248.72 120.065 248.697C119.885 248.674 119.697 248.67 119.502 248.685C119.325 248.699 119.131 248.723 118.918 248.758C118.714 248.784 118.544 248.82 118.407 248.868L118.569 250.948C118.691 250.957 118.869 250.962 119.103 250.963C119.337 250.954 119.56 250.941 119.774 250.925Z" fill="#DBE2F9"/>
<path d="M89.4592 277.812C89.1893 277.833 88.9306 277.876 88.683 277.942C88.4354 278.009 88.2128 278.096 88.0153 278.205C88.0118 278.28 88.009 278.365 88.0069 278.458C88.0134 278.542 88.0199 278.626 88.0264 278.71C88.0554 279.082 88.1061 279.434 88.1787 279.765C88.2598 280.086 88.3706 280.368 88.5111 280.61C88.6602 280.842 88.8475 281.024 89.0731 281.156C89.3073 281.278 89.5872 281.327 89.9129 281.301C90.1827 281.28 90.4064 281.207 90.5838 281.081C90.7705 280.954 90.9175 280.797 91.0247 280.611C91.132 280.425 91.2056 280.227 91.2455 280.018C91.2847 279.8 91.2967 279.593 91.2815 279.398C91.2381 278.839 91.0703 278.426 90.778 278.159C90.485 277.882 90.0454 277.766 89.4592 277.812ZM89.5645 276.456C90.1414 276.411 90.6364 276.457 91.0496 276.593C91.4713 276.719 91.8186 276.912 92.0915 277.172C92.3645 277.432 92.5712 277.743 92.7118 278.107C92.861 278.46 92.9511 278.837 92.9822 279.237C93.0104 279.6 92.9742 279.978 92.8736 280.369C92.7822 280.76 92.6139 281.124 92.3687 281.462C92.132 281.789 91.8215 282.07 91.4373 282.306C91.0524 282.533 90.5854 282.667 90.0364 282.71C88.929 282.796 88.0541 282.499 87.4114 281.819C86.7774 281.128 86.4105 280.141 86.3107 278.857C86.2384 277.926 86.3093 277.092 86.5235 276.355C86.7463 275.608 87.0897 274.968 87.5539 274.435C88.0274 273.902 88.6126 273.483 89.3096 273.176C90.0152 272.859 90.8189 272.66 91.7208 272.581L91.9269 273.969C91.4252 274.018 90.9596 274.11 90.5302 274.246C90.1001 274.373 89.7208 274.553 89.3924 274.784C89.0641 275.016 88.7869 275.304 88.561 275.649C88.3443 275.994 88.1893 276.408 88.0959 276.893C88.5352 276.643 89.0248 276.498 89.5645 276.456ZM100.773 276.792C100.9 278.421 100.699 279.696 100.172 280.617C99.6434 281.528 98.8535 282.025 97.802 282.107C96.7505 282.188 95.8934 281.82 95.2306 281C94.5671 280.172 94.1721 278.944 94.0455 277.315C93.9826 276.506 94.0014 275.783 94.1018 275.148C94.2109 274.503 94.393 273.956 94.6482 273.505C94.9127 273.054 95.241 272.701 95.6331 272.446C96.0345 272.19 96.4957 272.042 97.0168 272.001C98.0683 271.919 98.9258 272.293 99.5893 273.121C100.252 273.94 100.647 275.164 100.773 276.792ZM99.0285 276.928C98.9895 276.426 98.925 275.958 98.8352 275.525C98.7454 275.092 98.6231 274.722 98.4682 274.416C98.322 274.1 98.1392 273.856 97.92 273.686C97.7009 273.516 97.4377 273.443 97.1307 273.467C96.8236 273.49 96.5703 273.604 96.3707 273.807C96.1805 274.009 96.0328 274.277 95.9279 274.613C95.8315 274.939 95.7724 275.323 95.7505 275.764C95.738 276.205 95.7512 276.677 95.7903 277.18C95.8293 277.682 95.8891 278.15 95.9696 278.584C96.0594 279.017 96.1775 279.392 96.3237 279.708C96.4786 280.014 96.6656 280.252 96.8848 280.423C97.1133 280.592 97.381 280.665 97.6881 280.641C97.9952 280.617 98.2439 280.504 98.4341 280.302C98.6244 280.1 98.7677 279.836 98.8641 279.511C98.969 279.175 99.0325 278.786 99.0543 278.344C99.0762 277.903 99.0676 277.431 99.0285 276.928ZM104.964 276.551L108.718 276.259L108.839 277.809L105.084 278.1L104.964 276.551ZM114.823 280.573C114.823 279.862 114.891 279.108 115.026 278.311C115.161 277.514 115.339 276.737 115.561 275.98C115.792 275.214 116.049 274.496 116.335 273.828C116.628 273.15 116.926 272.579 117.227 272.116L112.774 272.462L112.661 271.01L119.124 270.508L119.224 271.792C118.943 272.16 118.645 272.656 118.328 273.28C118.011 273.904 117.72 274.605 117.452 275.384C117.185 276.154 116.963 276.976 116.788 277.851C116.621 278.725 116.543 279.588 116.553 280.439L114.823 280.573ZM127.558 274.711C127.684 276.34 127.484 277.614 126.956 278.535C126.428 279.447 125.638 279.944 124.586 280.025C123.535 280.107 122.678 279.738 122.015 278.919C121.352 278.091 120.957 276.862 120.83 275.234C120.767 274.424 120.786 273.702 120.886 273.067C120.995 272.422 121.177 271.874 121.433 271.424C121.697 270.973 122.025 270.62 122.418 270.364C122.819 270.109 123.28 269.96 123.801 269.92C124.853 269.838 125.71 270.212 126.374 271.04C127.037 271.859 127.431 273.083 127.558 274.711ZM125.813 274.847C125.774 274.344 125.71 273.877 125.62 273.444C125.53 273.011 125.408 272.641 125.253 272.335C125.106 272.018 124.924 271.775 124.705 271.605C124.485 271.435 124.222 271.362 123.915 271.385C123.608 271.409 123.355 271.523 123.155 271.725C122.965 271.927 122.817 272.196 122.712 272.532C122.616 272.858 122.557 273.242 122.535 273.683C122.522 274.124 122.536 274.596 122.575 275.098C122.614 275.601 122.674 276.069 122.754 276.503C122.844 276.936 122.962 277.31 123.108 277.627C123.263 277.933 123.45 278.171 123.669 278.341C123.898 278.511 124.166 278.584 124.473 278.56C124.78 278.536 125.028 278.423 125.219 278.221C125.409 278.019 125.552 277.755 125.649 277.429C125.754 277.094 125.817 276.705 125.839 276.263C125.861 275.821 125.852 275.349 125.813 274.847ZM133.322 271.848C133.388 272.695 133.22 273.363 132.818 273.853C132.426 274.342 131.88 274.614 131.182 274.668C130.838 274.695 130.517 274.664 130.22 274.575C129.922 274.476 129.662 274.323 129.44 274.116C129.218 273.908 129.034 273.646 128.888 273.33C128.75 273.004 128.665 272.631 128.632 272.213C128.566 271.356 128.729 270.688 129.123 270.209C129.525 269.719 130.075 269.447 130.772 269.392C131.47 269.338 132.051 269.522 132.514 269.945C132.987 270.358 133.256 270.992 133.322 271.848ZM131.996 271.951C131.958 271.458 131.836 271.098 131.631 270.87C131.435 270.633 131.179 270.526 130.862 270.551C130.546 270.575 130.309 270.72 130.152 270.985C129.994 271.241 129.934 271.615 129.972 272.108C130.011 272.602 130.128 272.967 130.324 273.204C130.52 273.433 130.776 273.534 131.092 273.51C131.409 273.485 131.646 273.345 131.804 273.09C131.97 272.824 132.035 272.444 131.996 271.951ZM135.967 269.199L137.572 269.075L132.866 279.171L131.261 279.296L135.967 269.199ZM140.216 276.171C140.282 277.018 140.114 277.686 139.712 278.176C139.319 278.665 138.774 278.937 138.076 278.991C137.732 279.018 137.411 278.982 137.113 278.884C136.816 278.794 136.556 278.646 136.334 278.439C136.112 278.231 135.928 277.969 135.781 277.653C135.644 277.327 135.559 276.954 135.526 276.536C135.46 275.679 135.623 275.011 136.016 274.532C136.418 274.042 136.968 273.769 137.666 273.715C138.364 273.661 138.945 273.845 139.408 274.268C139.88 274.681 140.149 275.315 140.216 276.171ZM138.89 276.274C138.852 275.781 138.73 275.421 138.525 275.193C138.329 274.956 138.072 274.849 137.756 274.874C137.44 274.898 137.203 275.043 137.046 275.308C136.888 275.564 136.828 275.938 136.866 276.431C136.904 276.925 137.022 277.29 137.218 277.527C137.414 277.756 137.67 277.857 137.986 277.833C138.302 277.808 138.54 277.668 138.698 277.412C138.864 277.147 138.928 276.767 138.89 276.274Z" fill="#89E159"/>
<defs>
<filter id="filter0_f_1108_4664" x="0.0136719" y="40.5303" width="217.843" height="312.755" filterUnits="userSpaceOnUse" color-interpolation-filters="sRGB">
<feFlood flood-opacity="0" result="BackgroundImageFix"/>
<feBlend mode="normal" in="SourceGraphic" in2="BackgroundImageFix" result="shape"/>
<feGaussianBlur stdDeviation="10" result="effect1_foregroundBlur_1108_4664"/>
</filter>
<linearGradient id="paint0_linear_1108_4664" x1="56.0809" y1="319.474" x2="176.116" y2="45.371" gradientUnits="userSpaceOnUse">
<stop stop-color="#1E4E4E"/>
<stop offset="1" stop-color="#1F2431"/>
</linearGradient>
<linearGradient id="paint1_linear_1108_4664" x1="98.314" y1="68.2862" x2="103.438" y2="68.7262" gradientUnits="userSpaceOnUse">
<stop stop-color="#89E159"/>
<stop offset="1" stop-color="#B9F598"/>
</linearGradient>
<linearGradient id="paint2_linear_1108_4664" x1="98.314" y1="68.2862" x2="103.438" y2="68.7262" gradientUnits="userSpaceOnUse">
<stop stop-color="#89E159"/>
<stop offset="1" stop-color="#B9F598"/>
</linearGradient>
<linearGradient id="paint3_linear_1108_4664" x1="99.1192" y1="69.8075" x2="111.184" y2="69.9108" gradientUnits="userSpaceOnUse">
<stop stop-color="#89E159"/>
<stop offset="1" stop-color="#B9F598"/>
</linearGradient>
<linearGradient id="paint4_linear_1108_4664" x1="99.1192" y1="69.8075" x2="111.184" y2="69.9108" gradientUnits="userSpaceOnUse">
<stop stop-color="#89E159"/>
<stop offset="1" stop-color="#B9F598"/>
</linearGradient>
<linearGradient id="paint5_linear_1108_4664" x1="98.5049" y1="85.0958" x2="91.9373" y2="82.113" gradientUnits="userSpaceOnUse">
<stop stop-color="#1E4E4E"/>
<stop offset="1" stop-color="#1F2431"/>
</linearGradient>
<linearGradient id="paint6_linear_1108_4664" x1="98.5049" y1="85.0958" x2="91.9373" y2="82.113" gradientUnits="userSpaceOnUse">
<stop stop-color="#1E4E4E"/>
<stop offset="1" stop-color="#1F2431"/>
</linearGradient>
<linearGradient id="paint7_linear_1108_4664" x1="101.553" y1="82.4698" x2="105.669" y2="78.0342" gradientUnits="userSpaceOnUse">
<stop stop-color="#1E4E4E"/>
<stop offset="1" stop-color="#1F2431"/>
</linearGradient>
<linearGradient id="paint8_linear_1108_4664" x1="101.553" y1="82.4698" x2="105.669" y2="78.0342" gradientUnits="userSpaceOnUse">
<stop stop-color="#1E4E4E"/>
<stop offset="1" stop-color="#1F2431"/>
</linearGradient>
</defs>
</svg>
