<svg width="182" height="212" viewBox="0 0 182 212" fill="none" xmlns="http://www.w3.org/2000/svg">
<g filter="url(#filter0_f_1388_5809)">
<rect width="120.502" height="156.275" transform="translate(20 37.0166) rotate(-8)" fill="#141B25"/>
</g>
<rect x="20.1963" y="35.4248" width="110.829" height="146.971" rx="4" transform="rotate(-8 20.1963 35.4248)" fill="#8990A5"/>
<g clip-path="url(#clip0_1388_5809)">
<rect x="20.0791" y="35.54" width="108" height="144" rx="4" transform="rotate(-8 20.0791 35.54)" fill="#DBE2F9"/>
<path d="M41.5971 94.1154C41.5538 93.4052 41.5747 92.6482 41.6597 91.8446C41.7446 91.0409 41.8745 90.2545 42.0491 89.4854C42.2317 88.7057 42.4446 87.9737 42.6877 87.2892C42.9387 86.5941 43.2001 86.006 43.4718 85.5249L39.0492 86.1464L38.8466 84.7046L45.2655 83.8025L45.4448 85.0779C45.1878 85.4628 44.9207 85.9763 44.6434 86.6185C44.366 87.2606 44.1182 87.9788 43.9 88.7729C43.6804 89.5578 43.5102 90.3922 43.3894 91.2763C43.2778 92.1591 43.2534 93.0249 43.3162 93.8738L41.5971 94.1154Z" fill="black"/>
<rect x="34.968" y="80.4041" width="19" height="19" rx="3.5" transform="rotate(-8 34.968 80.4041)" stroke="#141B25"/>
<path d="M70.0754 87.4838C70.1313 87.8812 70.1139 88.2606 70.0233 88.6221C69.9328 88.9835 69.7664 89.3085 69.5242 89.597C69.282 89.8856 68.9626 90.1284 68.5662 90.3255C68.179 90.5212 67.7174 90.6568 67.1813 90.7322C66.5528 90.8205 66.0183 90.8061 65.5777 90.6889C65.1371 90.5718 64.7732 90.3967 64.486 90.1637C64.1988 89.9308 63.9783 89.6696 63.8245 89.3802C63.6787 89.0802 63.5863 88.7916 63.5473 88.5143C63.5083 88.2371 63.5096 87.9777 63.5511 87.7362C63.6005 87.4842 63.6809 87.2515 63.7922 87.0379C63.9023 86.8151 64.0334 86.6081 64.1856 86.4171C64.3379 86.226 64.5019 86.0522 64.6778 85.8955C64.2111 85.6595 63.8474 85.3854 63.5868 85.0733C63.3341 84.7507 63.1727 84.3398 63.1025 83.8407C63.0519 83.4803 63.0731 83.1286 63.1663 82.7856C63.2674 82.4321 63.4345 82.1117 63.6674 81.8245C63.9004 81.5373 64.196 81.2931 64.5541 81.092C64.9123 80.8908 65.3224 80.7578 65.7845 80.6928C66.3299 80.6162 66.803 80.6298 67.204 80.7337C67.6143 80.8363 67.9571 80.9954 68.2325 81.2112C68.5171 81.4257 68.7363 81.6776 68.8901 81.967C69.0439 82.2565 69.1409 82.5444 69.1812 82.8309C69.2526 83.3393 69.1776 83.8116 68.9562 84.248C68.7335 84.6752 68.4581 85.0296 68.1301 85.3113C68.717 85.5305 69.1671 85.8159 69.4805 86.1678C69.8031 86.5183 70.0014 86.9569 70.0754 87.4838ZM65.1932 88.2547C65.2127 88.3934 65.2612 88.5374 65.3387 88.6867C65.4163 88.836 65.5288 88.9663 65.6764 89.0775C65.824 89.1887 66.0059 89.2762 66.2223 89.3401C66.4373 89.3947 66.6973 89.4006 67.0023 89.3577C67.2796 89.3187 67.5147 89.248 67.7076 89.1455C67.9006 89.0429 68.0533 88.9225 68.1658 88.7842C68.277 88.6366 68.3539 88.4797 68.3966 88.3135C68.4379 88.138 68.4468 87.9671 68.4235 87.8008C68.3871 87.542 68.3044 87.3227 68.1755 87.1429C68.0465 86.9631 67.8753 86.8175 67.6617 86.7061C67.4561 86.5842 67.2167 86.4906 66.9436 86.4253C66.6693 86.3508 66.3691 86.294 66.0432 86.255C65.7403 86.5143 65.5086 86.8108 65.3482 87.1444C65.1864 87.4687 65.1347 87.8388 65.1932 88.2547ZM67.5491 83.0886C67.5323 82.9684 67.4863 82.8429 67.4114 82.7121C67.3444 82.5707 67.2424 82.4484 67.1053 82.3451C66.9776 82.2405 66.82 82.159 66.6327 82.1005C66.4454 82.042 66.227 82.0303 65.9774 82.0654C65.7279 82.1004 65.5165 82.1725 65.3434 82.2817C65.1782 82.3803 65.0492 82.5021 64.9565 82.6471C64.8624 82.7829 64.7981 82.9286 64.7634 83.0842C64.7275 83.2307 64.7192 83.3732 64.7387 83.5118C64.7881 83.863 64.9642 84.1776 65.2672 84.4555C65.5794 84.732 66.0581 84.9192 66.7033 85.0171C67.0154 84.7564 67.2497 84.4785 67.4061 84.1831C67.5612 83.8786 67.6089 83.5137 67.5491 83.0886Z" fill="black"/>
<rect x="58.7346" y="77.0642" width="19" height="19" rx="3.5" transform="rotate(-8 58.7346 77.0642)" stroke="#141B25"/>
<path d="M90.2747 82.1985C90.5427 82.1608 90.8029 82.1007 91.0552 82.0181C91.3062 81.9263 91.517 81.8166 91.6875 81.6889C91.6825 81.5859 91.6747 81.4975 91.6644 81.4235C91.654 81.3496 91.6449 81.2849 91.6371 81.2295C91.5851 80.8598 91.5087 80.5171 91.4078 80.2014C91.3148 79.8751 91.1867 79.601 91.0236 79.3788C90.8683 79.1462 90.6701 78.9761 90.4288 78.8686C90.1954 78.7506 89.917 78.7144 89.5935 78.7598C89.3255 78.7975 89.1022 78.8854 88.9237 79.0236C88.7544 79.1605 88.6221 79.3252 88.5266 79.5177C88.4311 79.7102 88.3699 79.912 88.3431 80.1231C88.3162 80.3343 88.3164 80.5369 88.3437 80.731C88.4229 81.2948 88.6167 81.7011 88.925 81.9499C89.2425 82.1975 89.6924 82.2803 90.2747 82.1985ZM91.734 83.0254C91.5264 83.1583 91.2926 83.2713 91.0323 83.3644C90.7721 83.4575 90.5172 83.5216 90.2676 83.5567C89.6946 83.6372 89.1944 83.6321 88.7669 83.5414C88.3474 83.4401 87.9894 83.2737 87.693 83.042C87.4044 82.7998 87.1748 82.5069 87.004 82.1633C86.8332 81.8198 86.7185 81.44 86.6601 81.0241C86.6094 80.6637 86.6182 80.2901 86.6864 79.9036C86.7533 79.5077 86.894 79.1345 87.1087 78.7839C87.3233 78.4333 87.6157 78.133 87.9858 77.883C88.3547 77.6239 88.8117 77.4559 89.3571 77.3793C90.4846 77.2208 91.3863 77.4664 92.0619 78.116C92.7455 78.7551 93.1802 79.7355 93.3659 81.0572C93.6283 82.9242 93.3464 84.4058 92.5203 85.5021C91.6942 86.5984 90.2882 87.2908 88.3024 87.5794L88.0363 86.1889C88.5908 86.1109 89.0834 85.9946 89.5141 85.8398C89.9539 85.6837 90.326 85.4806 90.6301 85.2305C90.9435 84.9791 91.193 84.6755 91.3786 84.3195C91.5629 83.9543 91.6814 83.5229 91.734 83.0254Z" fill="black"/>
<rect x="82.5012" y="73.7234" width="19" height="19" rx="3.5" transform="rotate(-8 82.5012 73.7234)" stroke="#141B25"/>
<path d="M116.298 91.3212L118.061 91.0735L117.788 89.1325L118.858 88.9822L119.131 90.9232L120.893 90.6754L121.035 91.6855L119.273 91.9332L119.545 93.8742L118.476 94.0245L118.203 92.0835L116.44 92.3313L116.298 91.3212Z" fill="black"/>
<rect x="106.267" y="70.3836" width="19" height="43" rx="3.5" transform="rotate(-8 106.267 70.3836)" stroke="#141B25"/>
<path d="M40.436 63.984C40.325 63.8461 40.202 63.6991 40.067 63.543C39.9316 63.3843 39.7922 63.2262 39.6489 63.0686C39.5052 62.9084 39.3598 62.7551 39.2127 62.6088C39.0678 62.4595 38.9307 62.3267 38.8012 62.2102L39.0773 64.1749L38.5861 64.2439L38.2003 61.4989L38.6083 61.4416C38.7296 61.5376 38.8617 61.6537 39.0047 61.7898C39.1473 61.9233 39.2908 62.0633 39.4353 62.21C39.5824 62.3562 39.7245 62.5046 39.8614 62.655C40.0006 62.8024 40.1251 62.9411 40.2349 63.071L39.9789 61.249L40.474 61.1794L40.8598 63.9244L40.436 63.984ZM43.1849 63.533C43.0958 63.5697 42.979 63.6104 42.8344 63.655C42.6903 63.7021 42.5297 63.7382 42.3528 63.763C42.1864 63.7864 42.0431 63.7823 41.9229 63.7507C41.8053 63.7188 41.7063 63.6654 41.6257 63.5905C41.5478 63.5153 41.4862 63.4217 41.4408 63.3095C41.3951 63.1948 41.3624 63.0674 41.3427 62.9275L41.1796 61.7669L41.6589 61.6995L41.8114 62.7849C41.8426 63.0067 41.8965 63.1607 41.9733 63.2468C42.0526 63.3326 42.1729 63.3642 42.334 63.3416C42.3921 63.3334 42.4524 63.3222 42.5151 63.308C42.5803 63.2935 42.6283 63.28 42.6588 63.2676L42.4233 61.5921L42.9026 61.5247L43.1849 63.533ZM44.8311 62.2554C44.8007 62.0389 44.7511 61.887 44.6823 61.7997C44.6157 61.7094 44.5085 61.6747 44.3606 61.6955C44.3078 61.7029 44.2503 61.715 44.188 61.7319C44.1257 61.7487 44.0791 61.762 44.0482 61.7717L44.2831 63.4433L43.8038 63.5106L43.5221 61.5063C43.6109 61.4669 43.7275 61.425 43.872 61.3804C44.0192 61.3355 44.176 61.3013 44.3423 61.278C44.4849 61.2579 44.6037 61.2601 44.6987 61.2844C44.7963 61.3084 44.8798 61.3465 44.949 61.3987C44.9751 61.3735 45.0089 61.3458 45.0505 61.3158C45.092 61.2857 45.1392 61.2575 45.1921 61.2312C45.2446 61.2023 45.3003 61.177 45.3592 61.1553C45.4207 61.1331 45.4831 61.1176 45.5465 61.1087C45.7076 61.0861 45.843 61.0913 45.9526 61.1244C46.0646 61.1544 46.1555 61.2076 46.2255 61.2839C46.2977 61.3573 46.3528 61.4519 46.3906 61.5677C46.4307 61.6806 46.4606 61.807 46.4802 61.9469L46.6439 63.1115L46.1646 63.1788L46.0115 62.0896C45.9811 61.873 45.9328 61.7209 45.8666 61.6333C45.8001 61.543 45.6915 61.5084 45.541 61.5296C45.4644 61.5403 45.3937 61.5638 45.3287 61.5998C45.2634 61.6332 45.2153 61.6642 45.1843 61.6928C45.2147 61.7559 45.239 61.8238 45.2573 61.8966C45.2757 61.9695 45.2908 62.0481 45.3026 62.1326L45.4635 63.2774L44.9842 63.3447L44.8311 62.2554ZM40.8171 67.5294L40.8778 67.9612L39.1428 68.205L38.757 65.46L39.2561 65.3898L39.5812 67.7031L40.8171 67.5294ZM42.924 66.6153C42.947 66.779 42.9442 66.9316 42.9156 67.0729C42.887 67.2143 42.8358 67.3386 42.7621 67.4459C42.6883 67.5532 42.593 67.642 42.4763 67.7123C42.3623 67.7822 42.2313 67.8275 42.0835 67.8483C41.9356 67.8691 41.7972 67.8616 41.6683 67.8258C41.5394 67.7901 41.4247 67.7308 41.3242 67.648C41.2237 67.5652 41.1389 67.46 41.0698 67.3323C41.0033 67.2043 40.9586 67.0585 40.9356 66.8948C40.9126 66.731 40.9155 66.5798 40.9445 66.4411C40.9758 66.2994 41.0283 66.1748 41.1021 66.0675C41.1785 65.9598 41.2739 65.8724 41.3883 65.8051C41.5024 65.7353 41.632 65.6901 41.7773 65.6697C41.9225 65.6493 42.0596 65.6569 42.1885 65.6927C42.3196 65.7254 42.4355 65.7832 42.536 65.866C42.6365 65.9488 42.72 66.0542 42.7864 66.1822C42.8552 66.3072 42.901 66.4516 42.924 66.6153ZM42.4329 66.6843C42.4039 66.4783 42.3362 66.3223 42.2297 66.216C42.1255 66.1068 41.9942 66.0633 41.8357 66.0856C41.6773 66.1079 41.5617 66.186 41.489 66.3201C41.4185 66.4512 41.3978 66.6197 41.4267 66.8257C41.4561 67.0343 41.5228 67.1933 41.6271 67.3025C41.7339 67.4113 41.8666 67.4546 42.025 67.4324C42.1834 67.4101 42.2977 67.3321 42.3678 67.1984C42.4405 67.0643 42.4622 66.8929 42.4329 66.6843ZM43.3035 66.566C43.282 66.4128 43.2857 66.2669 43.3147 66.1282C43.3433 65.9868 43.3943 65.8612 43.4677 65.7512C43.5437 65.6409 43.6413 65.5491 43.7602 65.4758C43.8792 65.4026 44.0179 65.3548 44.1763 65.3325C44.3717 65.3051 44.5616 65.3147 44.7459 65.3615L44.698 65.7682C44.6392 65.7522 44.5731 65.7413 44.4995 65.7355C44.4287 65.7293 44.3536 65.7317 44.2744 65.7429C44.0869 65.7692 43.9526 65.8487 43.8716 65.9812C43.7903 66.1112 43.7646 66.2831 43.7947 66.497C43.8236 66.7029 43.8928 66.8602 44.0023 66.9687C44.1115 67.0745 44.2756 67.112 44.4948 67.0812C44.5767 67.0697 44.6561 67.0505 44.7331 67.0235C44.8101 66.9965 44.8759 66.9671 44.9307 66.9351L45.0537 67.3218C45.0046 67.3556 44.9274 67.3907 44.8221 67.427C44.7194 67.463 44.6113 67.489 44.4978 67.5049C44.3209 67.5298 44.1627 67.5251 44.0232 67.4908C43.886 67.4536 43.7672 67.3935 43.6667 67.3107C43.5684 67.2249 43.4889 67.1189 43.4281 66.9928C43.3669 66.8641 43.3254 66.7218 43.3035 66.566ZM45.7337 65.9902C45.7856 65.9183 45.8408 65.8418 45.8994 65.7609C45.9577 65.6773 46.0148 65.5952 46.0708 65.5146C46.1264 65.4314 46.1787 65.3527 46.2275 65.2785C46.2786 65.2013 46.3217 65.1347 46.3569 65.0786L46.9233 64.999C46.8121 65.1654 46.6937 65.3382 46.5681 65.5175C46.4451 65.6963 46.3202 65.8714 46.1935 66.0427C46.282 66.0976 46.3765 66.1664 46.477 66.2493C46.5771 66.3294 46.6756 66.4166 46.7723 66.5107C46.869 66.6048 46.9604 66.6997 47.0466 66.7953C47.1327 66.8909 47.2058 66.9803 47.266 67.0634L46.7114 67.1413C46.6524 67.0661 46.5849 66.9881 46.5089 66.9072C46.4355 66.826 46.3573 66.7481 46.2741 66.6736C46.1909 66.5991 46.1072 66.5301 46.0228 66.4666C45.9381 66.4004 45.8564 66.3459 45.7777 66.3031L45.9113 67.2538L45.432 67.3211L45.0112 64.3265L45.4793 64.18L45.7337 65.9902Z" fill="black"/>
<rect x="32.6184" y="56.4988" width="19" height="19" rx="3.5" transform="rotate(-8 32.6184 56.4988)" stroke="#141B25"/>
<path d="M63.4159 65.2788L62.4336 65.4168L64.0335 57.3719L65 57.236L63.4159 65.2788Z" fill="black"/>
<rect x="56.385" y="53.1589" width="19" height="19" rx="3.5" transform="rotate(-8 56.385 53.1589)" stroke="#141B25"/>
<path d="M86.4228 57.2178C86.5966 57.0654 86.786 56.9042 86.991 56.734C87.2025 56.5629 87.4122 56.4257 87.6198 56.3225L87.7614 56.2521L88.2428 57.2346L88.0913 57.3064C87.8894 57.4021 87.6549 57.4822 87.3879 57.5466C87.1266 57.6036 86.8809 57.6516 86.6508 57.6906C86.8561 57.8099 87.0698 57.9414 87.292 58.0852C87.5198 58.2215 87.7165 58.3756 87.882 58.5476L88.0006 58.6723L87.2069 59.4201L87.0898 59.3053C86.9308 59.1324 86.7847 58.9307 86.6513 58.7004C86.518 58.47 86.3902 58.2557 86.2681 58.0575C86.212 58.2808 86.1483 58.522 86.077 58.7811C86.0123 59.0393 85.9274 59.2734 85.8222 59.4834L85.7512 59.6247L84.7723 59.126L84.8617 58.9721C84.9669 58.7621 85.1069 58.5606 85.2817 58.3678C85.4622 58.1674 85.638 57.9811 85.8091 57.8089C85.5771 57.8348 85.3248 57.8602 85.0523 57.885C84.7854 57.9023 84.5375 57.8867 84.3085 57.838L84.1431 57.8108L84.3351 56.7336L84.4906 56.7622C84.7252 56.8033 84.9645 56.8774 85.2085 56.9845C85.4524 57.0916 85.6789 57.1944 85.888 57.2929C85.7961 57.0702 85.6995 56.8381 85.5983 56.5965C85.5036 56.3539 85.44 56.1172 85.4076 55.8861L85.3839 55.7178L86.4732 55.5647L86.4968 55.733C86.5293 55.9641 86.5302 56.2097 86.4994 56.4698C86.4753 56.729 86.4497 56.9784 86.4228 57.2178Z" fill="black"/>
<rect x="80.1516" y="49.8181" width="19" height="19" rx="3.5" transform="rotate(-8 80.1516 49.8181)" stroke="#141B25"/>
<path d="M108.876 54.9606L111.54 54.5862L111.694 55.6854L109.03 56.0598L108.876 54.9606Z" fill="black"/>
<rect x="103.917" y="46.4783" width="19" height="19" rx="3.5" transform="rotate(-8 103.917 46.4783)" stroke="#141B25"/>
<path d="M47.311 134.023C47.8172 133.735 48.315 133.388 48.8043 132.979C49.3028 132.57 49.7282 132.11 50.0805 131.598L51.2589 131.433L52.6092 141.04L50.9316 141.276L49.897 133.914C49.6748 134.144 49.3871 134.377 49.0342 134.615C48.6812 134.853 48.3376 135.057 48.0032 135.227L47.311 134.023Z" fill="black"/>
<rect x="42.6389" y="127.799" width="19" height="19" rx="3.5" transform="rotate(-8 42.6389 127.799)" stroke="#141B25"/>
<path d="M76.5685 130.421C76.6153 130.754 76.5921 131.091 76.4989 131.434C76.4044 131.768 76.2677 132.103 76.0887 132.439C75.9177 132.765 75.7137 133.09 75.4767 133.416C75.2384 133.732 74.9994 134.044 74.7598 134.351C74.6314 134.51 74.4885 134.7 74.3309 134.92C74.1733 135.14 74.025 135.359 73.8859 135.576C73.7468 135.794 73.6302 136.003 73.536 136.205C73.4405 136.398 73.3966 136.555 73.4043 136.676L77.6743 136.076L77.873 137.49L71.7591 138.349C71.7395 138.277 71.7225 138.19 71.7082 138.088C71.6927 137.977 71.681 137.894 71.6732 137.838C71.6108 137.395 71.623 136.978 71.7097 136.589C71.8043 136.189 71.9444 135.812 72.13 135.456C72.3156 135.1 72.5315 134.758 72.7778 134.431C73.024 134.105 73.2709 133.782 73.5185 133.465C73.7104 133.221 73.8938 132.983 74.0685 132.751C74.2433 132.52 74.391 132.296 74.5116 132.081C74.6401 131.856 74.7363 131.635 74.8002 131.419C74.8627 131.193 74.8784 130.969 74.8472 130.748C74.7797 130.267 74.593 129.944 74.2871 129.78C73.9813 129.616 73.6296 129.561 73.2322 129.617C72.9734 129.654 72.7383 129.724 72.5269 129.83C72.3154 129.935 72.1291 130.05 71.9678 130.177C71.8157 130.302 71.6827 130.429 71.5689 130.558C71.4538 130.678 71.3685 130.775 71.3129 130.848L70.3154 129.787C70.6516 129.363 71.063 129.003 71.5494 128.709C72.0437 128.404 72.5913 128.209 73.192 128.124C74.2179 127.98 75.0056 128.119 75.5551 128.542C76.1125 128.953 76.4503 129.58 76.5685 130.421Z" fill="black"/>
<rect x="66.4055" y="124.459" width="19" height="19" rx="3.5" transform="rotate(-8 66.4055 124.459)" stroke="#141B25"/>
<path d="M97.9672 134.877C97.7177 134.913 97.4563 134.93 97.1831 134.931C96.9204 134.94 96.665 134.933 96.4169 134.912C96.1793 134.898 95.9596 134.877 95.7577 134.849C95.5546 134.811 95.3982 134.772 95.2888 134.731L95.4208 133.256C95.6279 133.321 95.9247 133.388 96.3113 133.456C96.6966 133.515 97.1619 133.506 97.7072 133.43C98.4374 133.327 98.9447 133.114 99.2292 132.792C99.5124 132.46 99.6209 132.058 99.5547 131.586C99.5118 131.281 99.4114 131.036 99.2534 130.851C99.1047 130.665 98.911 130.527 98.6723 130.438C98.4415 130.339 98.1796 130.286 97.8866 130.28C97.6015 130.263 97.3019 130.277 96.9876 130.321L96.4192 130.401L96.2283 129.043L96.9215 128.945C97.134 128.915 97.344 128.867 97.5514 128.8C97.7667 128.723 97.9551 128.621 98.1164 128.495C98.2764 128.359 98.3995 128.196 98.4857 128.004C98.572 127.813 98.5956 127.579 98.5566 127.302C98.5255 127.08 98.4572 126.896 98.352 126.751C98.2467 126.605 98.1176 126.492 97.9647 126.409C97.821 126.326 97.6581 126.273 97.476 126.252C97.2939 126.23 97.1058 126.233 96.9117 126.26C96.4958 126.319 96.1352 126.436 95.8299 126.61C95.5233 126.776 95.2563 126.955 95.0288 127.147L94.2434 125.985C94.3611 125.884 94.5059 125.774 94.6778 125.655C94.8496 125.537 95.0406 125.421 95.2508 125.306C95.4701 125.191 95.706 125.092 95.9583 125.009C96.2093 124.917 96.478 124.851 96.7645 124.811C97.3006 124.736 97.7718 124.735 98.1782 124.81C98.5846 124.885 98.9294 125.025 99.2127 125.23C99.504 125.425 99.7324 125.676 99.898 125.982C100.072 126.278 100.185 126.616 100.238 126.995C100.301 127.438 100.232 127.853 100.032 128.24C99.8406 128.625 99.564 128.937 99.2018 129.176C99.7256 129.282 100.178 129.515 100.558 129.876C100.948 130.236 101.188 130.735 101.278 131.373C101.337 131.798 101.319 132.206 101.223 132.596C101.126 132.977 100.944 133.323 100.677 133.634C100.408 133.936 100.049 134.198 99.5997 134.422C99.1584 134.635 98.6142 134.787 97.9672 134.877Z" fill="black"/>
<rect x="90.1721" y="121.118" width="19" height="19" rx="3.5" transform="rotate(-8 90.1721 121.118)" stroke="#141B25"/>
<path d="M46.2754 108.993C46.0912 109.293 45.9004 109.612 45.703 109.95C45.5148 110.288 45.3332 110.638 45.1581 111.002C44.9831 111.366 44.8185 111.738 44.6646 112.118C44.5093 112.488 44.3725 112.856 44.2542 113.222L46.819 112.861L46.2754 108.993ZM47.621 106.698L48.4549 112.631L49.5363 112.479L49.7292 113.852L48.6478 114.004L48.9712 116.305L47.3353 116.535L47.0119 114.234L42.7973 114.826L42.6297 113.634C42.7574 113.201 42.9368 112.7 43.1677 112.13C43.4079 111.559 43.6785 110.97 43.9795 110.362C44.2806 109.754 44.606 109.153 44.9558 108.557C45.3056 107.961 45.6626 107.416 46.0267 106.922L47.621 106.698Z" fill="black"/>
<rect x="38.1692" y="103.18" width="19" height="19" rx="3.5" transform="rotate(-8 38.1692 103.18)" stroke="#141B25"/>
<path d="M71.3539 110.361C71.311 110.056 71.2126 109.791 71.0587 109.568C70.9048 109.345 70.6636 109.171 70.3352 109.048C70.0161 108.923 69.5965 108.855 69.0765 108.843C68.5657 108.83 67.9267 108.877 67.1596 108.985C67.1366 108.083 67.0969 107.231 67.0407 106.429C66.9831 105.617 66.9163 104.806 66.8403 103.997L71.7481 103.307L71.9468 104.721L68.467 105.21C68.4798 105.369 68.4913 105.551 68.5014 105.757C68.5194 105.952 68.5335 106.153 68.5436 106.359C68.5629 106.564 68.5763 106.76 68.5838 106.947C68.5913 107.134 68.5949 107.294 68.5946 107.426C69.9729 107.308 71.0245 107.481 71.7494 107.944C72.4823 108.397 72.9156 109.1 73.0494 110.052C73.1104 110.486 73.093 110.899 72.9971 111.289C72.9011 111.68 72.7195 112.03 72.4522 112.341C72.1848 112.652 71.8312 112.918 71.3911 113.141C70.9498 113.353 70.4195 113.503 69.8002 113.59C69.5507 113.625 69.2939 113.643 69.0299 113.642C68.7659 113.641 68.5099 113.63 68.2618 113.609C68.0242 113.595 67.8091 113.573 67.6165 113.544C67.4239 113.514 67.2781 113.483 67.1792 113.45L67.2993 111.991C67.5064 112.056 67.7979 112.119 68.174 112.179C68.558 112.229 69.0134 112.216 69.5402 112.142C69.9007 112.092 70.2051 112.011 70.4535 111.901C70.7006 111.781 70.8929 111.641 71.0306 111.481C71.1775 111.319 71.2755 111.145 71.3248 110.959C71.3728 110.763 71.3824 110.564 71.3539 110.361Z" fill="black"/>
<rect x="61.9358" y="99.8406" width="19" height="19" rx="3.5" transform="rotate(-8 61.9358 99.8406)" stroke="#141B25"/>
<path d="M93.4494 105.29C93.1814 105.327 92.9258 105.387 92.6828 105.468C92.4397 105.549 92.223 105.65 92.0327 105.771C92.0338 105.847 92.0363 105.931 92.04 106.025C92.0517 106.108 92.0634 106.191 92.0751 106.274C92.1271 106.644 92.1995 106.992 92.2925 107.318C92.3934 107.634 92.5215 107.908 92.6767 108.141C92.8399 108.363 93.0381 108.533 93.2715 108.651C93.5128 108.759 93.7952 108.79 94.1187 108.744C94.3867 108.706 94.6054 108.619 94.7746 108.482C94.9531 108.344 95.0901 108.179 95.1856 107.986C95.2811 107.794 95.3422 107.592 95.3691 107.381C95.3947 107.16 95.3939 106.953 95.3666 106.759C95.2886 106.205 95.0955 105.803 94.7872 105.554C94.4776 105.296 94.0317 105.208 93.4494 105.29ZM93.4703 103.929C94.0433 103.849 94.5403 103.864 94.9611 103.974C95.3898 104.074 95.7485 104.245 96.037 104.488C96.3255 104.73 96.5512 105.028 96.7141 105.382C96.8849 105.726 96.9982 106.096 97.0541 106.494C97.1047 106.854 97.092 107.233 97.0158 107.63C96.9489 108.026 96.8036 108.4 96.5797 108.752C96.3638 109.093 96.0714 109.393 95.7025 109.652C95.3324 109.902 94.8746 110.066 94.3293 110.142C93.2295 110.297 92.3378 110.055 91.6542 109.416C90.9785 108.766 90.5511 107.803 90.3718 106.528C90.2419 105.604 90.261 104.767 90.429 104.018C90.6049 103.258 90.908 102.598 91.3383 102.038C91.7778 101.476 92.3358 101.021 93.0124 100.671C93.697 100.311 94.4869 100.064 95.3821 99.9285L95.674 101.301C95.1762 101.381 94.7172 101.502 94.2971 101.664C93.8757 101.818 93.5083 102.02 93.1949 102.272C92.8815 102.523 92.6228 102.828 92.4187 103.187C92.2238 103.544 92.0949 103.967 92.0317 104.457C92.4547 104.181 92.9342 104.005 93.4703 103.929Z" fill="black"/>
<rect x="85.7024" y="96.4998" width="19" height="19" rx="3.5" transform="rotate(-8 85.7024 96.4998)" stroke="#141B25"/>
<rect x="37.3145" y="43.2158" width="4" height="6" rx="2" transform="rotate(-8 37.3145 43.2158)" fill="#1E4E4E"/>
<rect x="29.679" y="42.7742" width="19" height="9" rx="3.5" transform="rotate(-8 29.679 42.7742)" stroke="#141B25"/>
<path d="M120.724 138.535L120.338 135.79L122.101 135.542L122.16 135.966L120.897 136.144L120.992 136.821L122.117 136.663L122.175 137.079L121.05 137.237L121.163 138.041L122.522 137.85L122.582 138.274L120.724 138.535ZM122.739 136.208C122.828 136.168 122.945 136.126 123.089 136.082C123.234 136.037 123.396 136.002 123.575 135.977C123.744 135.953 123.889 135.957 124.009 135.989C124.129 136.018 124.228 136.07 124.306 136.145C124.386 136.217 124.448 136.311 124.491 136.426C124.536 136.538 124.569 136.664 124.588 136.804L124.752 137.969L124.273 138.036L124.12 136.947C124.104 136.836 124.083 136.743 124.056 136.669C124.032 136.592 123.999 136.532 123.958 136.489C123.92 136.443 123.87 136.414 123.809 136.401C123.75 136.385 123.679 136.383 123.598 136.394C123.537 136.403 123.474 136.416 123.409 136.433C123.344 136.45 123.296 136.463 123.265 136.473L123.5 138.145L123.021 138.212L122.739 136.208ZM124.946 135.272L125.414 135.125L125.502 135.751L126.239 135.647L126.295 136.047L125.559 136.151L125.677 136.995C125.701 137.161 125.744 137.276 125.807 137.34C125.869 137.404 125.964 137.427 126.091 137.409C126.178 137.397 126.253 137.377 126.317 137.349C126.383 137.321 126.435 137.296 126.472 137.275L126.605 137.644C126.553 137.675 126.483 137.709 126.397 137.746C126.311 137.785 126.207 137.813 126.085 137.83C125.938 137.851 125.811 137.848 125.705 137.823C125.602 137.797 125.516 137.751 125.447 137.685C125.378 137.617 125.325 137.532 125.286 137.429C125.247 137.324 125.218 137.203 125.199 137.066L124.946 135.272ZM126.7 136.649C126.674 136.467 126.678 136.303 126.712 136.158C126.748 136.013 126.804 135.89 126.882 135.787C126.958 135.682 127.052 135.599 127.162 135.538C127.271 135.474 127.387 135.433 127.508 135.416C127.793 135.376 128.028 135.434 128.211 135.588C128.397 135.743 128.515 135.995 128.564 136.347C128.568 136.373 128.571 136.403 128.573 136.438C128.577 136.47 128.58 136.499 128.581 136.526L127.214 136.718C127.251 136.882 127.327 137.004 127.443 137.082C127.562 137.157 127.72 137.18 127.918 137.152C128.034 137.136 128.138 137.111 128.23 137.076C128.325 137.041 128.398 137.008 128.45 136.976L128.569 137.36C128.544 137.377 128.509 137.396 128.464 137.419C128.421 137.438 128.37 137.458 128.311 137.477C128.254 137.498 128.193 137.518 128.125 137.535C128.057 137.553 127.988 137.567 127.917 137.577C127.735 137.602 127.572 137.598 127.43 137.564C127.288 137.528 127.166 137.468 127.066 137.385C126.965 137.3 126.884 137.195 126.824 137.072C126.763 136.946 126.722 136.805 126.7 136.649ZM128.06 136.24C128.051 136.174 128.033 136.113 128.006 136.057C127.979 135.999 127.944 135.952 127.901 135.915C127.861 135.874 127.812 135.846 127.756 135.83C127.702 135.811 127.64 135.806 127.568 135.816C127.494 135.826 127.432 135.85 127.38 135.887C127.329 135.921 127.286 135.963 127.253 136.014C127.222 136.064 127.2 136.119 127.187 136.18C127.174 136.242 127.168 136.303 127.169 136.365L128.06 136.24ZM130.172 135.535C130.13 135.527 130.073 135.522 130 135.519C129.929 135.512 129.847 135.516 129.755 135.529C129.702 135.536 129.646 135.55 129.587 135.569C129.53 135.587 129.49 135.602 129.468 135.614L129.701 137.273L129.222 137.341L128.945 135.368C129.032 135.321 129.143 135.273 129.276 135.225C129.411 135.173 129.564 135.136 129.733 135.112C129.764 135.107 129.802 135.105 129.845 135.104C129.887 135.101 129.93 135.1 129.974 135.102C130.017 135.102 130.059 135.104 130.1 135.109C130.14 135.111 130.173 135.115 130.198 135.119L130.172 135.535Z" fill="black"/>
<rect x="112.808" y="116.927" width="19" height="43" rx="3.5" transform="rotate(-8 112.808 116.927)" stroke="#141B25"/>
<path d="M58.0654 159.603C58.2927 161.221 58.1717 162.505 57.7023 163.457C57.2315 164.4 56.474 164.945 55.4296 165.092C54.3852 165.238 53.5068 164.923 52.7945 164.147C52.0809 163.361 51.6104 162.16 51.3831 160.542C51.2701 159.738 51.244 159.016 51.3048 158.376C51.3736 157.726 51.5214 157.168 51.7482 156.702C51.9842 156.236 52.2899 155.863 52.6654 155.584C53.0502 155.303 53.5013 155.127 54.0189 155.054C55.0633 154.907 55.9423 155.227 56.656 156.012C57.3683 156.789 57.8381 157.986 58.0654 159.603ZM56.3324 159.847C56.2623 159.348 56.169 158.885 56.0525 158.458C55.936 158.032 55.7909 157.67 55.6174 157.374C55.4518 157.068 55.2543 156.836 55.025 156.68C54.7957 156.524 54.5285 156.467 54.2235 156.51C53.9185 156.553 53.6727 156.682 53.4861 156.896C53.3087 157.11 53.1781 157.387 53.0942 157.729C53.0182 158.06 52.983 158.447 52.9886 158.889C53.0034 159.33 53.0459 159.8 53.1161 160.299C53.1862 160.798 53.2749 161.261 53.3822 161.689C53.4987 162.116 53.6397 162.483 53.8053 162.789C53.9789 163.085 54.1803 163.311 54.4097 163.468C54.6482 163.623 54.92 163.679 55.225 163.636C55.53 163.593 55.7712 163.465 55.9485 163.251C56.1259 163.038 56.2526 162.766 56.3285 162.435C56.4125 162.093 56.4516 161.701 56.4461 161.259C56.4405 160.817 56.4026 160.346 56.3324 159.847Z" fill="black"/>
<rect x="44.9885" y="151.704" width="43" height="19" rx="3.5" transform="rotate(-8 44.9885 151.704)" stroke="#141B25"/>
<rect width="4" height="4" transform="translate(106.495 32.4834) rotate(-8)" fill="#BFC6DC"/>
<rect width="4" height="4" transform="translate(111.446 31.7871) rotate(-8)" fill="#BFC6DC"/>
<rect width="4" height="4" transform="translate(112.143 36.7393) rotate(-8)" fill="#BFC6DC"/>
<rect width="4" height="4" transform="translate(107.191 37.4346) rotate(-8)" fill="#BFC6DC"/>
<path d="M97.1929 151.248C97.699 150.96 98.1968 150.612 98.6861 150.204C99.1846 149.795 99.61 149.334 99.9623 148.823L101.141 148.657L102.491 158.265L100.813 158.501L99.7789 151.139C99.5566 151.368 99.269 151.602 98.916 151.84C98.563 152.078 98.2194 152.282 97.8851 152.451L97.1929 151.248Z" fill="black"/>
<rect x="92.5208" y="145.023" width="19" height="19" rx="3.5" transform="rotate(-8 92.5208 145.023)" stroke="#141B25"/>
</g>
<defs>
<filter id="filter0_f_1388_5809" x="0" y="0.246094" width="181.079" height="211.524" filterUnits="userSpaceOnUse" color-interpolation-filters="sRGB">
<feFlood flood-opacity="0" result="BackgroundImageFix"/>
<feBlend mode="normal" in="SourceGraphic" in2="BackgroundImageFix" result="shape"/>
<feGaussianBlur stdDeviation="10" result="effect1_foregroundBlur_1388_5809"/>
</filter>
<clipPath id="clip0_1388_5809">
<rect x="20.0791" y="35.54" width="108" height="144" rx="4" transform="rotate(-8 20.0791 35.54)" fill="white"/>
</clipPath>
</defs>
</svg>
