<svg width="182" height="215" viewBox="0 0 182 215" fill="none" xmlns="http://www.w3.org/2000/svg">
<g filter="url(#filter0_f_1400_5094)">
<rect width="120.502" height="156.275" transform="translate(20 40.0162) rotate(-8)" fill="#89E159"/>
</g>
<rect x="20.1963" y="38.4244" width="110.829" height="146.971" rx="4" transform="rotate(-8 20.1963 38.4244)" fill="#8990A5"/>
<g clip-path="url(#clip0_1400_5094)">
<rect x="20.0791" y="38.5397" width="108" height="144" rx="4" transform="rotate(-8 20.0791 38.5397)" fill="#DBE2F9"/>
<path d="M41.5966 97.1151C41.5533 96.4049 41.5742 95.648 41.6592 94.8443C41.7442 94.0407 41.874 93.2543 42.0486 92.4852C42.2312 91.7055 42.4441 90.9734 42.6872 90.2889C42.9382 89.5939 43.1996 89.0058 43.4713 88.5246L39.0487 89.1462L38.8461 87.7044L45.265 86.8022L45.4443 88.0777C45.1873 88.4625 44.9202 88.976 44.6429 89.6182C44.3656 90.2604 44.1178 90.9785 43.8995 91.7727C43.6799 92.5575 43.5097 93.392 43.3889 94.2761C43.2774 95.1589 43.253 96.0247 43.3157 96.8735L41.5966 97.1151Z" fill="black"/>
<rect x="34.968" y="83.4042" width="19" height="19" rx="3.5" transform="rotate(-8 34.968 83.4042)" stroke="#141B25"/>
<path d="M70.0749 90.4832C70.1308 90.8806 70.1134 91.26 70.0228 91.6215C69.9323 91.9829 69.7659 92.3079 69.5237 92.5964C69.2815 92.885 68.9622 93.1278 68.5657 93.3248C68.1785 93.5206 67.7169 93.6562 67.1809 93.7315C66.5524 93.8199 66.0178 93.8055 65.5772 93.6883C65.1366 93.5711 64.7727 93.3961 64.4855 93.1631C64.1983 92.9302 63.9778 92.669 63.824 92.3796C63.6782 92.0796 63.5858 91.791 63.5468 91.5137C63.5079 91.2364 63.5091 90.9771 63.5506 90.7356C63.6 90.4836 63.6804 90.2508 63.7917 90.0373C63.9018 89.8144 64.0329 89.6075 64.1852 89.4165C64.3374 89.2254 64.5014 89.0516 64.6774 88.8949C64.2106 88.6589 63.847 88.3848 63.5863 88.0727C63.3336 87.7501 63.1722 87.3392 63.1021 86.8401C63.0514 86.4797 63.0727 86.128 63.1658 85.785C63.2669 85.4315 63.434 85.1111 63.6669 84.8239C63.8999 84.5367 64.1955 84.2925 64.5536 84.0914C64.9118 83.8902 65.3219 83.7572 65.7841 83.6922C66.3294 83.6156 66.8025 83.6292 67.2036 83.7331C67.6138 83.8356 67.9566 83.9948 68.232 84.2106C68.5166 84.4251 68.7358 84.677 68.8896 84.9664C69.0434 85.2558 69.1404 85.5438 69.1807 85.8303C69.2521 86.3387 69.1771 86.811 68.9557 87.2474C68.733 87.6746 68.4576 88.029 68.1297 88.3107C68.7165 88.5299 69.1666 88.8153 69.48 89.1671C69.8026 89.5177 70.0009 89.9563 70.0749 90.4832ZM65.1927 91.2541C65.2122 91.3928 65.2607 91.5367 65.3382 91.6861C65.4158 91.8354 65.5283 91.9657 65.6759 92.0769C65.8235 92.1881 66.0055 92.2756 66.2218 92.3395C66.4368 92.3941 66.6968 92.3999 67.0018 92.3571C67.2791 92.3181 67.5142 92.2474 67.7071 92.1449C67.9001 92.0423 68.0528 91.9219 68.1653 91.7836C68.2765 91.636 68.3534 91.4791 68.3961 91.3129C68.4374 91.1374 68.4463 90.9665 68.423 90.8001C68.3866 90.5414 68.3039 90.3221 68.175 90.1423C68.046 89.9624 67.8748 89.8169 67.6612 89.7055C67.4556 89.5836 67.2162 89.49 66.9431 89.4247C66.6688 89.3502 66.3686 89.2934 66.0427 89.2544C65.7398 89.5137 65.5082 89.8102 65.3477 90.1438C65.1859 90.4681 65.1343 90.8382 65.1927 91.2541ZM67.5487 86.088C67.5318 85.9678 67.4859 85.8423 67.4109 85.7115C67.3439 85.5701 67.2419 85.4478 67.1049 85.3445C66.9771 85.2399 66.8195 85.1584 66.6322 85.0999C66.4449 85.0414 66.2265 85.0297 65.977 85.0647C65.7274 85.0998 65.516 85.1719 65.3429 85.2811C65.1777 85.3797 65.0487 85.5015 64.956 85.6465C64.862 85.7822 64.7976 85.9279 64.7629 86.0836C64.727 86.2301 64.7187 86.3726 64.7382 86.5112C64.7876 86.8624 64.9637 87.177 65.2667 87.4549C65.5789 87.7314 66.0576 87.9186 66.7028 88.0165C67.0149 87.7558 67.2492 87.4778 67.4056 87.1825C67.5607 86.878 67.6084 86.5131 67.5487 86.088Z" fill="black"/>
<rect x="58.7346" y="80.064" width="19" height="19" rx="3.5" transform="rotate(-8 58.7346 80.064)" stroke="#141B25"/>
<path d="M90.2737 85.1986C90.5417 85.1609 90.8019 85.1008 91.0542 85.0182C91.3052 84.9264 91.516 84.8167 91.6865 84.689C91.6815 84.5861 91.6738 84.4976 91.6634 84.4237C91.653 84.3497 91.6439 84.285 91.6361 84.2296C91.5841 83.8599 91.5077 83.5172 91.4068 83.2015C91.3138 82.8753 91.1857 82.6011 91.0226 82.379C90.8674 82.1463 90.6691 81.9762 90.4278 81.8688C90.1944 81.7508 89.916 81.7145 89.5925 81.76C89.3245 81.7976 89.1012 81.8856 88.9227 82.0237C88.7534 82.1606 88.6211 82.3253 88.5256 82.5178C88.4301 82.7103 88.369 82.9121 88.3421 83.1233C88.3152 83.3344 88.3154 83.537 88.3427 83.7311C88.4219 84.2949 88.6157 84.7012 88.924 84.95C89.2415 85.1976 89.6914 85.2805 90.2737 85.1986ZM91.733 86.0256C91.5255 86.1584 91.2916 86.2714 91.0313 86.3645C90.7711 86.4576 90.5162 86.5217 90.2667 86.5568C89.6936 86.6373 89.1934 86.6323 88.7659 86.5415C88.3464 86.4403 87.9884 86.2738 87.692 86.0421C87.4035 85.7999 87.1738 85.507 87.003 85.1635C86.8322 84.8199 86.7175 84.4402 86.6591 84.0242C86.6084 83.6638 86.6172 83.2903 86.6854 82.9037C86.7523 82.5078 86.8931 82.1346 87.1077 81.784C87.3223 81.4334 87.6147 81.1331 87.9848 80.8832C88.3537 80.624 88.8108 80.4561 89.3561 80.3794C90.4837 80.221 91.3853 80.4665 92.0609 81.1162C92.7445 81.7552 93.1792 82.7356 93.365 84.0573C93.6273 85.9243 93.3455 87.4059 92.5193 88.5022C91.6932 89.5985 90.2872 90.291 88.3014 90.5795L88.0353 89.189C88.5898 89.111 89.0824 88.9947 89.5131 88.8399C89.953 88.6838 90.325 88.4808 90.6291 88.2307C90.9425 87.9793 91.192 87.6756 91.3776 87.3196C91.5619 86.9544 91.6804 86.5231 91.733 86.0256Z" fill="black"/>
<rect x="82.5008" y="76.7239" width="19" height="19" rx="3.5" transform="rotate(-8 82.5008 76.7239)" stroke="#141B25"/>
<path d="M116.299 94.3213L118.062 94.0736L117.789 92.1327L118.858 91.9824L119.131 93.9233L120.894 93.6756L121.036 94.6856L119.273 94.9334L119.546 96.8743L118.476 97.0246L118.204 95.0837L116.441 95.3314L116.299 94.3213Z" fill="black"/>
<rect x="106.267" y="73.3837" width="19" height="43" rx="3.5" transform="rotate(-8 106.267 73.3837)" stroke="#141B25"/>
<path d="M40.436 66.9833C40.325 66.8454 40.202 66.6985 40.067 66.5424C39.9316 66.3837 39.7922 66.2256 39.6489 66.068C39.5052 65.9078 39.3598 65.7545 39.2127 65.6082C39.0678 65.4589 38.9307 65.3261 38.8012 65.2096L39.0773 67.1743L38.5861 67.2433L38.2003 64.4983L38.6083 64.441C38.7296 64.537 38.8617 64.6531 39.0047 64.7892C39.1473 64.9226 39.2908 65.0627 39.4353 65.2093C39.5824 65.3556 39.7245 65.504 39.8614 65.6544C40.0006 65.8018 40.1251 65.9405 40.2349 66.0704L39.9789 64.2483L40.474 64.1788L40.8598 66.9238L40.436 66.9833ZM43.1849 66.5324C43.0958 66.5691 42.979 66.6098 42.8344 66.6543C42.6903 66.7015 42.5297 66.7376 42.3528 66.7624C42.1864 66.7858 42.0431 66.7817 41.9229 66.7501C41.8053 66.7182 41.7063 66.6648 41.6257 66.5899C41.5478 66.5147 41.4862 66.421 41.4408 66.3089C41.3951 66.1942 41.3624 66.0668 41.3427 65.9269L41.1796 64.7663L41.6589 64.6989L41.8114 65.7843C41.8426 66.0061 41.8965 66.1601 41.9733 66.2462C42.0526 66.332 42.1729 66.3636 42.334 66.3409C42.3921 66.3328 42.4524 66.3216 42.5151 66.3074C42.5803 66.2929 42.6283 66.2794 42.6588 66.267L42.4233 64.5915L42.9026 64.5241L43.1849 66.5324ZM44.8311 65.2548C44.8007 65.0383 44.7511 64.8864 44.6823 64.7991C44.6157 64.7088 44.5085 64.6741 44.3606 64.6949C44.3078 64.7023 44.2503 64.7144 44.188 64.7312C44.1257 64.7481 44.0791 64.7614 44.0482 64.7711L44.2831 66.4427L43.8038 66.51L43.5221 64.5057C43.6109 64.4663 43.7275 64.4244 43.872 64.3798C44.0192 64.3349 44.176 64.3007 44.3423 64.2774C44.4849 64.2573 44.6037 64.2595 44.6987 64.2838C44.7963 64.3078 44.8798 64.3459 44.949 64.3981C44.9751 64.3729 45.0089 64.3452 45.0505 64.3152C45.092 64.2851 45.1392 64.2569 45.1921 64.2306C45.2446 64.2017 45.3003 64.1764 45.3592 64.1546C45.4207 64.1325 45.4831 64.117 45.5465 64.1081C45.7076 64.0855 45.843 64.0907 45.9526 64.1237C46.0646 64.1538 46.1555 64.207 46.2255 64.2833C46.2977 64.3567 46.3528 64.4512 46.3906 64.5671C46.4307 64.68 46.4606 64.8064 46.4802 64.9463L46.6439 66.1109L46.1646 66.1782L46.0115 65.0889C45.9811 64.8724 45.9328 64.7203 45.8666 64.6327C45.8001 64.5424 45.6915 64.5078 45.541 64.529C45.4644 64.5397 45.3937 64.5631 45.3287 64.5992C45.2634 64.6326 45.2153 64.6636 45.1843 64.6922C45.2147 64.7553 45.239 64.8232 45.2573 64.896C45.2757 64.9689 45.2908 65.0475 45.3026 65.132L45.4635 66.2768L44.9842 66.3441L44.8311 65.2548ZM40.8171 70.5288L40.8778 70.9606L39.1428 71.2044L38.757 68.4594L39.2561 68.3892L39.5812 70.7025L40.8171 70.5288ZM42.924 69.6147C42.947 69.7784 42.9442 69.9309 42.9156 70.0723C42.887 70.2137 42.8358 70.338 42.7621 70.4453C42.6883 70.5526 42.593 70.6414 42.4763 70.7117C42.3623 70.7816 42.2313 70.8269 42.0835 70.8477C41.9356 70.8685 41.7972 70.861 41.6683 70.8252C41.5394 70.7895 41.4247 70.7302 41.3242 70.6474C41.2237 70.5646 41.1389 70.4593 41.0698 70.3317C41.0033 70.2037 40.9586 70.0579 40.9356 69.8941C40.9126 69.7304 40.9155 69.5792 40.9445 69.4405C40.9758 69.2988 41.0283 69.1742 41.1021 69.0669C41.1785 68.9592 41.2739 68.8718 41.3883 68.8045C41.5024 68.7346 41.632 68.6895 41.7773 68.6691C41.9225 68.6487 42.0596 68.6563 42.1885 68.6921C42.3196 68.7248 42.4355 68.7826 42.536 68.8654C42.6365 68.9482 42.72 69.0536 42.7864 69.1816C42.8552 69.3066 42.901 69.451 42.924 69.6147ZM42.4329 69.6837C42.4039 69.4777 42.3362 69.3216 42.2297 69.2154C42.1255 69.1062 41.9942 69.0627 41.8357 69.085C41.6773 69.1073 41.5617 69.1854 41.489 69.3195C41.4185 69.4506 41.3978 69.6191 41.4267 69.8251C41.4561 70.0337 41.5228 70.1927 41.6271 70.3019C41.7339 70.4107 41.8666 70.454 42.025 70.4318C42.1834 70.4095 42.2977 70.3315 42.3678 70.1978C42.4405 70.0637 42.4622 69.8923 42.4329 69.6837ZM43.3035 69.5654C43.282 69.4122 43.2857 69.2663 43.3147 69.1276C43.3433 68.9862 43.3943 68.8606 43.4677 68.7506C43.5437 68.6403 43.6413 68.5485 43.7602 68.4752C43.8792 68.402 44.0179 68.3542 44.1763 68.3319C44.3717 68.3045 44.5616 68.3141 44.7459 68.3609L44.698 68.7675C44.6392 68.7516 44.5731 68.7407 44.4995 68.7349C44.4287 68.7287 44.3536 68.7311 44.2744 68.7423C44.0869 68.7686 43.9526 68.8481 43.8716 68.9806C43.7903 69.1106 43.7646 69.2825 43.7947 69.4964C43.8236 69.7023 43.8928 69.8596 44.0023 69.9681C44.1115 70.0739 44.2756 70.1114 44.4948 70.0806C44.5767 70.0691 44.6561 70.0499 44.7331 70.0229C44.8101 69.9959 44.8759 69.9665 44.9307 69.9345L45.0537 70.3212C45.0046 70.355 44.9274 70.3901 44.8221 70.4264C44.7194 70.4624 44.6113 70.4884 44.4978 70.5043C44.3209 70.5292 44.1627 70.5245 44.0232 70.4902C43.886 70.453 43.7672 70.3929 43.6667 70.3101C43.5684 70.2243 43.4889 70.1183 43.4281 69.9922C43.3669 69.8635 43.3254 69.7212 43.3035 69.5654ZM45.7337 68.9896C45.7856 68.9177 45.8408 68.8412 45.8994 68.7603C45.9577 68.6767 46.0148 68.5946 46.0708 68.514C46.1264 68.4308 46.1787 68.3521 46.2275 68.2779C46.2786 68.2007 46.3217 68.1341 46.3569 68.078L46.9233 67.9984C46.8121 68.1648 46.6937 68.3376 46.5681 68.5168C46.4451 68.6957 46.3202 68.8708 46.1935 69.0421C46.282 69.097 46.3765 69.1658 46.477 69.2486C46.5771 69.3288 46.6756 69.416 46.7723 69.5101C46.869 69.6042 46.9604 69.6991 47.0466 69.7947C47.1327 69.8903 47.2058 69.9797 47.266 70.0628L46.7114 70.1407C46.6524 70.0655 46.5849 69.9875 46.5089 69.9066C46.4355 69.8254 46.3573 69.7475 46.2741 69.673C46.1909 69.5985 46.1072 69.5295 46.0228 69.466C45.9381 69.3998 45.8564 69.3453 45.7777 69.3025L45.9113 70.2531L45.432 70.3205L45.0112 67.3259L45.4793 67.1794L45.7337 68.9896Z" fill="black"/>
<rect x="32.6179" y="59.4985" width="19" height="19" rx="3.5" transform="rotate(-8 32.6179 59.4985)" stroke="#141B25"/>
<path d="M63.4154 68.2778L62.4331 68.4158L64.033 60.3709L64.9995 60.2351L63.4154 68.2778Z" fill="black"/>
<rect x="56.3845" y="56.1583" width="19" height="19" rx="3.5" transform="rotate(-8 56.3845 56.1583)" stroke="#141B25"/>
<path d="M86.4213 60.2175C86.5951 60.0652 86.7845 59.9039 86.9895 59.7337C87.2011 59.5626 87.4107 59.4254 87.6183 59.3222L87.7599 59.2518L88.2414 60.2344L88.0899 60.3062C87.8879 60.4019 87.6534 60.4819 87.3865 60.5464C87.1252 60.6033 86.8795 60.6513 86.6493 60.6904C86.8546 60.8096 87.0683 60.9412 87.2905 61.085C87.5183 61.2213 87.715 61.3754 87.8806 61.5474L87.9991 61.6721L87.2054 62.4198L87.0883 62.305C86.9294 62.1321 86.7832 61.9305 86.6499 61.7001C86.5165 61.4698 86.3888 61.2555 86.2667 61.0572C86.2105 61.2805 86.1468 61.5217 86.0755 61.7809C86.0108 62.039 85.9259 62.2731 85.8208 62.4831L85.7497 62.6244L84.7708 62.1258L84.8603 61.9718C84.9654 61.7618 85.1054 61.5604 85.2802 61.3675C85.4608 61.1671 85.6366 60.9808 85.8076 60.8087C85.5756 60.8346 85.3234 60.8599 85.0508 60.8847C84.784 60.9021 84.536 60.8864 84.3071 60.8378L84.1416 60.8106L84.3336 59.7334L84.4891 59.762C84.7238 59.8031 84.9631 59.8772 85.207 59.9842C85.451 60.0913 85.6775 60.1941 85.8866 60.2927C85.7947 60.07 85.6981 59.8378 85.5968 59.5962C85.5021 59.3537 85.4386 59.1169 85.4061 58.8859L85.3824 58.7175L86.4717 58.5644L86.4954 58.7328C86.5279 58.9638 86.5287 59.2094 86.498 59.4696C86.4738 59.7288 86.4482 59.9781 86.4213 60.2175Z" fill="black"/>
<rect x="80.1507" y="52.8182" width="19" height="19" rx="3.5" transform="rotate(-8 80.1507 52.8182)" stroke="#141B25"/>
<path d="M108.876 57.9605L111.54 57.5861L111.694 58.6853L109.03 59.0597L108.876 57.9605Z" fill="black"/>
<rect x="103.917" y="49.478" width="19" height="19" rx="3.5" transform="rotate(-8 103.917 49.478)" stroke="#141B25"/>
<path d="M47.31 137.022C47.8162 136.734 48.314 136.386 48.8033 135.978C49.3018 135.569 49.7272 135.109 50.0795 134.597L51.2579 134.432L52.6082 144.039L50.9307 144.275L49.896 136.913C49.6738 137.143 49.3862 137.376 49.0332 137.614C48.6802 137.852 48.3366 138.056 48.0023 138.226L47.31 137.022Z" fill="black"/>
<rect x="42.6385" y="130.798" width="19" height="19" rx="3.5" transform="rotate(-8 42.6385 130.798)" stroke="#141B25"/>
<path d="M76.5675 133.419C76.6143 133.752 76.5911 134.09 76.4979 134.433C76.4034 134.767 76.2667 135.102 76.0878 135.438C75.9167 135.763 75.7127 136.089 75.4757 136.414C75.2374 136.731 74.9985 137.042 74.7589 137.349C74.6305 137.509 74.4875 137.698 74.3299 137.919C74.1723 138.139 74.024 138.357 73.8849 138.575C73.7458 138.792 73.6292 139.002 73.535 139.204C73.4396 139.396 73.3956 139.553 73.4033 139.675L77.6733 139.075L77.8721 140.489L71.7581 141.348C71.7385 141.275 71.7216 141.188 71.7073 141.086C71.6917 140.975 71.68 140.892 71.6722 140.837C71.6098 140.393 71.622 139.977 71.7087 139.588C71.8033 139.188 71.9434 138.81 72.129 138.454C72.3146 138.098 72.5305 137.757 72.7768 137.43C73.023 137.103 73.2699 136.781 73.5175 136.463C73.7094 136.22 73.8928 135.982 74.0675 135.75C74.2423 135.518 74.39 135.295 74.5106 135.08C74.6391 134.854 74.7353 134.634 74.7992 134.417C74.8617 134.192 74.8774 133.968 74.8462 133.746C74.7787 133.265 74.592 132.943 74.2861 132.779C73.9803 132.614 73.6287 132.56 73.2312 132.616C72.9724 132.652 72.7373 132.723 72.5259 132.828C72.3145 132.933 72.1281 133.049 71.9668 133.175C71.8147 133.3 71.6818 133.427 71.5679 133.557C71.4528 133.676 71.3675 133.773 71.3119 133.847L70.3144 132.785C70.6507 132.361 71.062 132.002 71.5484 131.707C72.0427 131.402 72.5903 131.207 73.1911 131.123C74.217 130.979 75.0047 131.118 75.5541 131.54C76.1115 131.952 76.4493 132.578 76.5675 133.419Z" fill="black"/>
<rect x="66.4051" y="127.458" width="19" height="19" rx="3.5" transform="rotate(-8 66.4051 127.458)" stroke="#141B25"/>
<path d="M97.9658 137.877C97.7162 137.912 97.4548 137.93 97.1816 137.93C96.9189 137.939 96.6635 137.932 96.4154 137.911C96.1779 137.897 95.9582 137.876 95.7563 137.848C95.5531 137.811 95.3968 137.771 95.2873 137.73L95.4193 136.255C95.6264 136.32 95.9233 136.387 96.3098 136.455C96.6951 136.514 97.1604 136.505 97.7057 136.429C98.4359 136.326 98.9432 136.114 99.2278 135.791C99.511 135.459 99.6195 135.057 99.5532 134.586C99.5103 134.281 99.4099 134.036 99.252 133.851C99.1032 133.664 98.9095 133.526 98.6708 133.437C98.44 133.338 98.1782 133.285 97.8851 133.279C97.6001 133.263 97.3004 133.277 96.9862 133.321L96.4178 133.401L96.2268 132.042L96.92 131.945C97.1326 131.915 97.3426 131.866 97.5499 131.799C97.7653 131.722 97.9536 131.62 98.1149 131.494C98.2749 131.358 98.3981 131.195 98.4843 131.004C98.5705 130.812 98.5941 130.578 98.5552 130.301C98.524 130.079 98.4558 129.896 98.3505 129.75C98.2452 129.605 98.1162 129.491 97.9632 129.409C97.8195 129.325 97.6567 129.273 97.4745 129.251C97.2924 129.23 97.1043 129.232 96.9103 129.26C96.4943 129.318 96.1337 129.435 95.8284 129.61C95.5218 129.775 95.2548 129.954 95.0273 130.146L94.242 128.984C94.3597 128.883 94.5045 128.773 94.6763 128.655C94.8482 128.536 95.0392 128.42 95.2493 128.306C95.4687 128.19 95.7045 128.091 95.9568 128.008C96.2078 127.916 96.4766 127.85 96.7631 127.81C97.2991 127.735 97.7704 127.735 98.1767 127.809C98.5831 127.884 98.9279 128.024 99.2113 128.229C99.5025 128.424 99.731 128.675 99.8966 128.981C100.07 129.277 100.184 129.615 100.237 129.994C100.299 130.438 100.23 130.853 100.03 131.239C99.8391 131.624 99.5625 131.936 99.2003 132.175C99.7241 132.281 100.176 132.514 100.557 132.875C100.947 133.235 101.187 133.734 101.276 134.372C101.336 134.797 101.318 135.205 101.222 135.595C101.125 135.977 100.942 136.323 100.675 136.634C100.406 136.935 100.048 137.198 99.5983 137.421C99.1569 137.634 98.6128 137.786 97.9658 137.877Z" fill="black"/>
<rect x="90.1712" y="124.118" width="19" height="19" rx="3.5" transform="rotate(-8 90.1712 124.118)" stroke="#141B25"/>
<path d="M46.2744 111.993C46.0903 112.292 45.8995 112.611 45.702 112.95C45.5138 113.287 45.3322 113.638 45.1571 114.002C44.9821 114.366 44.8176 114.738 44.6636 115.117C44.5083 115.488 44.3715 115.856 44.2532 116.221L46.818 115.861L46.2744 111.993ZM47.62 109.697L48.4539 115.631L49.5353 115.479L49.7282 116.851L48.6468 117.003L48.9703 119.305L47.3343 119.535L47.0109 117.233L42.7963 117.826L42.6288 116.633C42.7565 116.201 42.9358 115.7 43.1668 115.13C43.407 114.559 43.6776 113.969 43.9786 113.362C44.2796 112.754 44.605 112.152 44.9548 111.556C45.3046 110.96 45.6616 110.415 46.0257 109.921L47.62 109.697Z" fill="black"/>
<rect x="38.1687" y="106.18" width="19" height="19" rx="3.5" transform="rotate(-8 38.1687 106.18)" stroke="#141B25"/>
<path d="M71.3529 113.36C71.31 113.055 71.2116 112.791 71.0577 112.567C70.9038 112.344 70.6626 112.17 70.3342 112.047C70.0151 111.922 69.5955 111.854 69.0755 111.842C68.5647 111.829 67.9258 111.876 67.1586 111.984C67.1356 111.083 67.0959 110.231 67.0397 109.428C66.9821 108.616 66.9153 107.805 66.8393 106.996L71.7471 106.306L71.9458 107.72L68.466 108.209C68.4789 108.368 68.4903 108.55 68.5004 108.756C68.5184 108.951 68.5325 109.152 68.5426 109.358C68.5619 109.563 68.5753 109.759 68.5828 109.946C68.5903 110.134 68.5939 110.293 68.5936 110.425C69.9719 110.307 71.0235 110.48 71.7484 110.943C72.4813 111.396 72.9146 112.099 73.0484 113.051C73.1094 113.485 73.092 113.898 72.9961 114.288C72.9002 114.679 72.7185 115.029 72.4512 115.34C72.1839 115.651 71.8302 115.918 71.3901 116.14C70.9488 116.353 70.4185 116.502 69.7993 116.589C69.5497 116.625 69.2929 116.642 69.029 116.641C68.765 116.641 68.5089 116.629 68.2608 116.608C68.0233 116.594 67.8082 116.572 67.6155 116.543C67.4229 116.513 67.2771 116.482 67.1782 116.449L67.2983 114.99C67.5054 115.055 67.797 115.118 68.173 115.178C68.557 115.228 69.0124 115.216 69.5392 115.142C69.8997 115.091 70.2041 115.01 70.4525 114.9C70.6996 114.781 70.892 114.64 71.0296 114.48C71.1765 114.318 71.2746 114.144 71.3238 113.958C71.3718 113.762 71.3815 113.563 71.3529 113.36Z" fill="black"/>
<rect x="61.9353" y="102.84" width="19" height="19" rx="3.5" transform="rotate(-8 61.9353 102.84)" stroke="#141B25"/>
<path d="M93.4479 108.289C93.1799 108.327 92.9244 108.387 92.6813 108.468C92.4383 108.549 92.2216 108.65 92.0312 108.771C92.0324 108.847 92.0348 108.931 92.0386 109.025C92.0502 109.108 92.0619 109.191 92.0736 109.274C92.1256 109.644 92.1981 109.992 92.291 110.318C92.3919 110.634 92.52 110.908 92.6752 111.141C92.8384 111.363 93.0367 111.533 93.27 111.651C93.5113 111.758 93.7937 111.789 94.1172 111.744C94.3853 111.706 94.6039 111.619 94.7732 111.482C94.9517 111.344 95.0887 111.179 95.1841 110.986C95.2796 110.794 95.3408 110.592 95.3677 110.381C95.3932 110.16 95.3924 109.953 95.3651 109.759C95.2872 109.204 95.0941 108.803 94.7858 108.554C94.4762 108.296 94.0302 108.208 93.4479 108.289ZM93.4688 106.929C94.0419 106.849 94.5388 106.864 94.9596 106.974C95.3884 107.074 95.747 107.245 96.0355 107.488C96.324 107.73 96.5497 108.028 96.7126 108.382C96.8834 108.726 96.9967 109.096 97.0526 109.494C97.1033 109.854 97.0905 110.233 97.0144 110.63C96.9475 111.026 96.8021 111.4 96.5782 111.752C96.3623 112.093 96.0699 112.393 95.7011 112.652C95.3309 112.902 94.8732 113.066 94.3279 113.142C93.228 113.297 92.3363 113.055 91.6527 112.415C90.977 111.766 90.5496 110.803 90.3703 109.528C90.2404 108.604 90.2595 107.767 90.4275 107.017C90.6035 106.258 90.9066 105.598 91.3368 105.038C91.7763 104.476 92.3344 104.021 93.011 103.671C93.6955 103.311 94.4854 103.064 95.3806 102.928L95.6725 104.301C95.1747 104.38 94.7158 104.502 94.2957 104.664C93.8742 104.818 93.5068 105.02 93.1934 105.272C92.88 105.523 92.6213 105.828 92.4172 106.186C92.2224 106.544 92.0934 106.967 92.0302 107.457C92.4532 107.18 92.9328 107.005 93.4688 106.929Z" fill="black"/>
<rect x="85.7014" y="99.5" width="19" height="19" rx="3.5" transform="rotate(-8 85.7014 99.5)" stroke="#141B25"/>
<rect x="37.3154" y="46.2156" width="4" height="6" rx="2" transform="rotate(-8 37.3154 46.2156)" fill="#1E4E4E"/>
<rect x="29.6795" y="45.7739" width="19" height="9" rx="3.5" transform="rotate(-8 29.6795 45.7739)" stroke="#141B25"/>
<path d="M120.725 141.535L120.339 138.79L122.102 138.542L122.161 138.966L120.898 139.143L120.993 139.821L122.118 139.663L122.176 140.079L121.051 140.237L121.164 141.041L122.523 140.85L122.583 141.274L120.725 141.535ZM122.74 139.208C122.829 139.168 122.946 139.126 123.09 139.082C123.235 139.037 123.397 139.002 123.576 138.977C123.745 138.953 123.89 138.957 124.01 138.989C124.13 139.018 124.229 139.07 124.307 139.145C124.387 139.217 124.449 139.311 124.492 139.426C124.537 139.538 124.57 139.664 124.589 139.804L124.753 140.969L124.274 141.036L124.121 139.947C124.105 139.836 124.084 139.743 124.057 139.669C124.033 139.592 124 139.531 123.959 139.489C123.921 139.443 123.871 139.414 123.81 139.401C123.751 139.385 123.68 139.383 123.599 139.394C123.538 139.403 123.475 139.415 123.41 139.433C123.345 139.45 123.297 139.463 123.266 139.473L123.501 141.145L123.022 141.212L122.74 139.208ZM124.947 138.271L125.415 138.125L125.503 138.751L126.24 138.647L126.296 139.047L125.56 139.151L125.678 139.994C125.702 140.161 125.745 140.276 125.808 140.34C125.87 140.404 125.965 140.427 126.092 140.409C126.179 140.397 126.254 140.377 126.318 140.349C126.384 140.321 126.436 140.296 126.473 140.275L126.606 140.644C126.553 140.675 126.484 140.709 126.398 140.746C126.312 140.785 126.208 140.813 126.086 140.83C125.939 140.851 125.812 140.848 125.706 140.823C125.602 140.797 125.517 140.751 125.448 140.685C125.379 140.617 125.326 140.531 125.287 140.429C125.248 140.324 125.219 140.203 125.199 140.066L124.947 138.271ZM126.701 139.649C126.675 139.467 126.679 139.303 126.713 139.158C126.749 139.013 126.805 138.889 126.883 138.787C126.959 138.682 127.053 138.599 127.163 138.538C127.272 138.474 127.388 138.433 127.509 138.416C127.794 138.376 128.029 138.433 128.212 138.588C128.398 138.742 128.515 138.995 128.565 139.346C128.569 139.373 128.572 139.403 128.574 139.438C128.578 139.47 128.581 139.499 128.582 139.526L127.215 139.718C127.252 139.882 127.328 140.004 127.444 140.082C127.562 140.156 127.721 140.18 127.919 140.152C128.035 140.136 128.139 140.11 128.231 140.076C128.326 140.041 128.399 140.008 128.451 139.976L128.57 140.36C128.545 140.376 128.51 140.396 128.465 140.419C128.422 140.438 128.371 140.458 128.312 140.477C128.255 140.498 128.194 140.517 128.126 140.535C128.058 140.553 127.989 140.566 127.918 140.576C127.736 140.602 127.573 140.598 127.431 140.564C127.289 140.527 127.167 140.468 127.067 140.385C126.966 140.3 126.885 140.195 126.825 140.072C126.764 139.946 126.723 139.805 126.701 139.649ZM128.061 139.239C128.052 139.173 128.034 139.113 128.007 139.057C127.98 138.999 127.945 138.951 127.902 138.914C127.862 138.874 127.813 138.846 127.757 138.83C127.703 138.81 127.641 138.806 127.569 138.816C127.495 138.826 127.433 138.85 127.381 138.887C127.33 138.921 127.287 138.963 127.254 139.014C127.223 139.064 127.201 139.119 127.188 139.18C127.175 139.241 127.169 139.303 127.17 139.365L128.061 139.239ZM130.173 138.535C130.131 138.527 130.074 138.522 130.001 138.519C129.93 138.512 129.848 138.516 129.756 138.529C129.703 138.536 129.647 138.549 129.588 138.568C129.531 138.587 129.491 138.602 129.469 138.613L129.702 140.273L129.223 140.341L128.946 138.368C129.033 138.321 129.144 138.273 129.277 138.224C129.412 138.173 129.565 138.135 129.734 138.112C129.765 138.107 129.803 138.105 129.846 138.104C129.888 138.101 129.931 138.1 129.975 138.102C130.018 138.101 130.06 138.104 130.101 138.109C130.141 138.111 130.174 138.114 130.199 138.119L130.173 138.535Z" fill="black"/>
<rect x="112.808" y="119.926" width="19" height="43" rx="3.5" transform="rotate(-8 112.808 119.926)" stroke="#141B25"/>
<path d="M58.0649 162.602C58.2922 164.22 58.1712 165.505 57.7018 166.456C57.2311 167.399 56.4735 167.944 55.4291 168.091C54.3847 168.237 53.5063 167.923 52.794 167.146C52.0804 166.361 51.6099 165.159 51.3826 163.542C51.2696 162.737 51.2435 162.015 51.3044 161.375C51.3732 160.725 51.5209 160.167 51.7477 159.701C51.9837 159.235 52.2895 158.862 52.665 158.583C53.0497 158.303 53.5009 158.126 54.0184 158.053C55.0628 157.907 55.9418 158.226 56.6555 159.012C57.3678 159.788 57.8376 160.985 58.0649 162.602ZM56.332 162.846C56.2618 162.347 56.1685 161.884 56.052 161.457C55.9355 161.031 55.7904 160.669 55.6169 160.373C55.4513 160.067 55.2538 159.835 55.0245 159.679C54.7952 159.523 54.528 159.466 54.223 159.509C53.918 159.552 53.6722 159.681 53.4856 159.895C53.3083 160.109 53.1776 160.386 53.0937 160.728C53.0177 161.059 52.9825 161.446 52.9881 161.888C53.0029 162.329 53.0454 162.799 53.1156 163.298C53.1857 163.797 53.2744 164.261 53.3817 164.689C53.4982 165.115 53.6392 165.482 53.8049 165.788C53.9784 166.084 54.1799 166.311 54.4092 166.467C54.6477 166.622 54.9195 166.678 55.2245 166.635C55.5295 166.592 55.7707 166.464 55.948 166.251C56.1254 166.037 56.2521 165.765 56.3281 165.434C56.412 165.092 56.4512 164.7 56.4456 164.258C56.44 163.816 56.4021 163.345 56.332 162.846Z" fill="black"/>
<rect x="44.9885" y="154.704" width="43" height="19" rx="3.5" transform="rotate(-8 44.9885 154.704)" stroke="#141B25"/>
<rect width="4" height="4" transform="translate(106.495 35.4832) rotate(-8)" fill="#BFC6DC"/>
<rect width="4" height="4" transform="translate(111.446 34.7872) rotate(-8)" fill="#BFC6DC"/>
<rect width="4" height="4" transform="translate(112.142 39.7386) rotate(-8)" fill="#BFC6DC"/>
<rect width="4" height="4" transform="translate(107.19 40.4344) rotate(-8)" fill="#BFC6DC"/>
<path d="M97.1929 154.248C97.699 153.96 98.1968 153.612 98.6861 153.204C99.1846 152.794 99.61 152.334 99.9623 151.823L101.141 151.657L102.491 161.265L100.813 161.5L99.7789 154.139C99.5566 154.368 99.269 154.601 98.916 154.84C98.563 155.078 98.2194 155.282 97.8851 155.451L97.1929 154.248Z" fill="black"/>
<rect x="92.5213" y="148.023" width="19" height="19" rx="3.5" transform="rotate(-8 92.5213 148.023)" stroke="#141B25"/>
</g>
<defs>
<filter id="filter0_f_1400_5094" x="0" y="3.24561" width="181.079" height="211.525" filterUnits="userSpaceOnUse" color-interpolation-filters="sRGB">
<feFlood flood-opacity="0" result="BackgroundImageFix"/>
<feBlend mode="normal" in="SourceGraphic" in2="BackgroundImageFix" result="shape"/>
<feGaussianBlur stdDeviation="10" result="effect1_foregroundBlur_1400_5094"/>
</filter>
<clipPath id="clip0_1400_5094">
<rect x="20.0791" y="38.5397" width="108" height="144" rx="4" transform="rotate(-8 20.0791 38.5397)" fill="white"/>
</clipPath>
</defs>
</svg>
