<svg width="266" height="178" viewBox="0 0 266 178" fill="none" xmlns="http://www.w3.org/2000/svg">
<g filter="url(#filter0_f_949_987)">
<rect x="27" y="34" width="212" height="117" fill="#141B25"/>
</g>
<path d="M95.757 15.7278C92.7373 18.7474 87.3365 19.6785 76.1641 14.5452C83.0746 8.17881 95.757 6.06509 95.757 15.7278C95.757 9.38665 98.8818 5.45757 111.214 8.17867C105.779 12.7081 100.588 19.6133 95.757 15.7278Z" fill="#3D8E53"/>
<path d="M95.757 15.7278C92.7373 18.7474 87.3365 19.6785 76.1641 14.5452C83.0746 8.17881 95.757 6.06509 95.757 15.7278ZM95.757 15.7278C95.757 9.38665 98.8818 5.45757 111.214 8.17867C105.779 12.7081 100.588 19.6133 95.757 15.7278ZM95.757 15.7278C97.6326 13.3121 102.702 9.08469 105.118 8.17881M95.757 15.7278C94.4484 14.52 87.8937 13.6545 83.3039 13.8961M95.757 15.7278C95.616 16.2918 95.5408 19.5503 95.5084 24.2975C95.4021 39.8847 95.757 63.8062 95.757 68.8107" stroke="#3D8E53" stroke-width="3.12554"/>
<path d="M96.9648 14.2186C98.538 12.2861 103.346 10.7271 105.372 10.0024" stroke="#89E159" stroke-width="0.781386"/>
<path d="M93.9418 14.8215C92.3879 12.5972 87.1952 12.5976 83.3008 13.8955" stroke="#89E159" stroke-width="0.781386"/>
<path d="M115.93 33.271C112.068 30.991 112.51 27.5268 111.212 15.8432C119.001 18.4397 125.756 30.7405 115.93 33.271C122.378 31.6103 124.236 28.8396 129.386 43.7544C123.357 39.4132 113.244 39.2018 115.93 33.271Z" fill="#3D8E53"/>
<path d="M115.93 33.271C112.068 30.991 112.51 27.5268 111.212 15.8432C119.001 18.4397 125.756 30.7405 115.93 33.271ZM115.93 33.271C122.378 31.6103 124.236 28.8396 129.386 43.7544C123.357 39.4132 113.244 39.2018 115.93 33.271ZM115.93 33.271C118.878 34.5458 124.504 38.594 126.058 40.8134M115.93 33.271C116.815 31.624 117.434 24.1081 115.986 19.5038M115.93 33.271C115.319 33.2753 102.699 31.7329 94.7301 41.3183" stroke="#3D8E53" stroke-width="1.56277"/>
<path d="M119.024 34.617C121.041 35.6227 124.987 38.7872 126.142 40.5101" stroke="#89E159" stroke-width="0.781386"/>
<path d="M117.514 31.7563C118.06 30.3662 115.808 24.9463 114.458 21.0375" stroke="#89E159" stroke-width="0.781386"/>
<g clip-path="url(#clip0_949_987)">
<path d="M100.459 40.3195C100.459 40.3195 99.1668 39.9263 98.0984 41.1222C96.8565 42.514 97.4723 44.6388 98.0361 46.2145C98.6 47.7903 98.8581 48.3556 99.14 49.6925C99.3522 50.6926 99.5881 52.4731 101.379 53.0518C102.631 53.4553 103.921 52.5428 103.921 52.5428C103.921 52.5428 104.45 53.1348 105.62 53.2758C106.885 53.4271 108.228 53.0339 108.695 51.93C108.94 51.3528 109.178 49.5026 109.345 48.3259C109.565 46.7828 110.35 45.1076 110.546 43.7797C110.712 42.6461 110.433 40.0242 106.915 39.9545C105.685 39.9308 104.302 40.4189 104.302 40.4189C104.302 40.4189 103.219 39.8506 102.392 39.7586C100.802 39.5806 100.459 40.3195 100.459 40.3195Z" fill="#F68561"/>
<path d="M108.623 40.2602C108.169 40.0614 107.626 39.8774 106.654 39.8166C105.277 39.7305 104.302 40.419 104.302 40.419C104.302 40.419 103.219 39.8507 102.393 39.7587C100.8 39.5807 100.311 40.2884 100.311 40.2884C100.311 40.2884 100.57 40.3329 100.989 40.4872C101.329 40.6119 101.203 40.9146 100.922 40.9428C100.372 40.9977 99.9221 41.3597 99.8672 41.5556C99.8672 41.5556 100.747 41.1772 101.664 41.4665C102.884 41.8523 103.213 42.7574 103.213 42.7574C103.213 42.7574 103.9 41.9562 105.532 41.5852C107.084 41.2321 108.2 41.9013 108.2 41.9013C108.109 41.5096 107.885 41.3137 107.685 41.1267C107.325 40.7899 107.443 40.4947 107.811 40.3908C108.117 40.3047 108.623 40.2602 108.623 40.2602Z" fill="#1E4E4E"/>
<path d="M100.235 36.639C100.248 37.3482 100.788 37.6776 101.036 37.6924C101.538 37.7206 101.91 37.1123 102.845 38.01C103.225 38.375 103.373 38.8943 103.361 39.4107C103.357 39.5813 103.398 40.2193 103.099 40.3618C103.005 40.4063 102.943 40.4404 102.652 40.3291C102.327 40.2045 102.038 40.5131 102.038 40.5131L102.596 41.1496L103.977 41.5977L105.363 41.3218L106.164 40.617C106.164 40.617 105.792 40.3276 105.468 40.4434C105.293 40.5057 104.955 40.4033 104.953 40.1985C104.947 39.7668 104.965 39.3558 104.885 38.9255C104.752 38.2147 104.449 37.5352 103.964 36.9951C103.268 36.2205 102.272 35.8184 101.262 35.6552C100.432 35.5232 100.222 35.9386 100.235 36.639Z" fill="#3D8E53"/>
<path d="M103.475 36.5473C102.838 36.0606 102.055 35.7831 101.261 35.6555C100.994 35.6125 100.792 35.6273 100.641 35.6881C100.949 35.6956 101.547 35.8469 102.513 36.5131C103.121 36.9315 104.323 38.4346 103.323 39.9881C103.297 40.1172 103.249 40.2344 103.169 40.3086C103.417 40.1973 103.9 39.816 104.01 38.8011C104.126 37.7268 103.871 37.0176 103.475 36.5473Z" fill="#89E159"/>
<path opacity="0.6" d="M102.786 46.3087C102.774 46.8711 102.865 48.1263 103.215 49.9143C103.513 51.4366 103.211 52.542 102.814 53.0361C103.455 52.8625 103.918 52.545 103.918 52.545C103.918 52.545 104.083 51.9337 104.093 51.309C104.107 50.5582 103.794 49.0507 103.427 47.8548C103.169 47.015 103.092 45.7479 103.08 45.0357C103.08 45.0342 102.807 45.2923 102.786 46.3087Z" fill="#8990A5"/>
<path opacity="0.75" d="M101.928 44.3683C101.77 44.3861 101.628 44.2867 101.509 44.1903C101.076 43.8357 100.83 43.5389 100.343 43.2436C99.966 43.0151 99.2227 42.8608 99.4719 42.2777C99.5921 41.9973 100.054 41.9617 100.367 42.0151C101.457 42.1991 101.942 42.8401 102.172 43.6413C102.212 43.7808 102.266 43.9217 102.235 44.0657C102.205 44.2081 102.089 44.3461 101.935 44.3683L101.928 44.3683ZM105.34 42.7852C106.058 42.3578 107.118 42.3667 108.005 42.8208C108.225 42.9335 108.435 43.0804 108.563 43.2926C108.659 43.4529 108.685 43.6932 108.532 43.8015C108.404 43.8906 108.229 43.8372 108.081 43.7897C107.19 43.5078 106.183 43.6146 105.373 44.079C105.067 44.2541 104.411 44.9025 104.218 44.4485C104.027 43.99 104.447 43.3163 105.34 42.7852Z" fill="#DBE2F9"/>
</g>
<g clip-path="url(#clip1_949_987)">
<path d="M92.7596 35.5724C92.7596 35.5724 94.052 35.1792 95.1203 36.3752C96.3622 37.7669 95.7465 39.8917 95.1826 41.4675C94.6188 43.0432 94.3606 43.6085 94.0787 44.9454C93.8665 45.9455 93.6306 47.726 91.8397 48.3047C90.5874 48.7083 89.298 47.7958 89.298 47.7958C89.298 47.7958 88.7683 48.3878 87.5991 48.5287C86.3335 48.6801 84.9907 48.2869 84.5233 47.183C84.2785 46.6058 84.0411 44.7555 83.8734 43.5789C83.6538 42.0357 82.8689 40.3606 82.673 39.0326C82.5068 37.899 82.7858 35.2772 86.3038 35.2074C87.5338 35.1837 88.9167 35.6719 88.9167 35.6719C88.9167 35.6719 89.9998 35.1036 90.8263 35.0116C92.4169 34.8335 92.7596 35.5724 92.7596 35.5724Z" fill="#F68561"/>
<path d="M84.5959 35.5117C85.0499 35.3129 85.593 35.1289 86.5648 35.068C87.9418 34.982 88.9166 35.6705 88.9166 35.6705C88.9166 35.6705 89.9997 35.1022 90.8262 35.0102C92.4183 34.8321 92.9079 35.5399 92.9079 35.5399C92.9079 35.5399 92.6483 35.5844 92.2298 35.7387C91.8901 35.8633 92.0162 36.166 92.2966 36.1942C92.8471 36.2491 93.2967 36.6112 93.3516 36.807C93.3516 36.807 92.4717 36.4287 91.5547 36.718C90.3351 37.1038 90.0057 38.0089 90.0057 38.0089C90.0057 38.0089 89.3187 37.2076 87.6866 36.8367C86.1345 36.4836 85.0188 37.1527 85.0188 37.1527C85.1093 36.761 85.3333 36.5652 85.5336 36.3782C85.8942 36.0414 85.7755 35.7461 85.4075 35.6423C85.1018 35.5562 84.5959 35.5117 84.5959 35.5117Z" fill="#1E4E4E"/>
<path d="M93.0492 30.9076C93.6426 31.4216 92.4303 32.9303 92.1826 32.9451C91.681 32.9733 91.3086 32.365 90.3738 33.2627C89.994 33.6277 89.8456 34.147 89.8575 34.6633C89.862 34.834 89.8204 35.472 90.1201 35.6144C90.2136 35.6589 90.2759 35.6931 90.5667 35.5818C90.8917 35.4572 91.181 35.7658 91.181 35.7658L90.6231 36.4023L89.2417 36.8504L87.8559 36.5744L87.0547 35.8696C87.0547 35.8696 87.4271 35.5803 87.7506 35.696C87.9256 35.7584 88.2639 35.656 88.2654 35.4512C88.2714 35.0194 88.2536 34.6084 88.3337 34.1781C88.4672 33.4674 88.7699 32.7879 89.2551 32.2478C89.951 31.4732 91.172 30.1449 92.1824 29.9817C93.0119 29.8496 93.0626 30.2072 93.0492 30.9076Z" fill="#3D8E53"/>
<path d="M89.7441 31.7987C90.3807 31.312 91.1641 31.0346 91.9579 30.907C92.225 30.8639 92.4268 30.8788 92.5781 30.9396C92.2695 30.947 91.6715 31.0984 90.7056 31.7646C90.0973 32.183 88.8954 33.6861 89.8955 35.2396C89.9222 35.3687 89.9697 35.4859 90.0498 35.5601C89.802 35.4488 89.3183 35.0675 89.2085 34.0526C89.0928 32.9783 89.348 32.2691 89.7441 31.7987Z" fill="#89E159"/>
<path opacity="0.6" d="M90.4326 41.5617C90.4445 42.124 90.354 43.3793 90.0038 45.1672C89.7055 46.6896 90.0082 47.795 90.4044 48.2891C89.7634 48.1155 89.3005 47.7979 89.3005 47.7979C89.3005 47.7979 89.1358 47.1866 89.1254 46.562C89.112 45.8112 89.4251 44.3037 89.7916 43.1077C90.0498 42.2679 90.1269 41.0008 90.1388 40.2886C90.1388 40.2871 90.4118 40.5453 90.4326 41.5617Z" fill="#8990A5"/>
<path opacity="0.75" d="M91.2912 39.6213C91.4485 39.6391 91.5909 39.5397 91.7096 39.4432C92.1429 39.0886 92.3892 38.7918 92.8758 38.4966C93.2527 38.2681 93.9961 38.1138 93.7468 37.5306C93.6266 37.2502 93.1652 37.2146 92.8521 37.268C91.7615 37.452 91.2764 38.093 91.0464 38.8942C91.0063 39.0337 90.9529 39.1747 90.984 39.3186C91.0137 39.461 91.1295 39.599 91.2838 39.6213L91.2912 39.6213ZM87.8785 38.0381C87.1604 37.6108 86.101 37.6197 85.2137 38.0737C84.9941 38.1865 84.7834 38.3334 84.6558 38.5455C84.5594 38.7058 84.5341 38.9462 84.687 39.0545C84.8146 39.1435 84.9897 39.0901 85.138 39.0426C86.0283 38.7607 87.0358 38.8675 87.8459 39.3319C88.1515 39.507 88.8074 40.1554 89.0003 39.7014C89.1917 39.2429 88.7718 38.5693 87.8785 38.0381Z" fill="#DBE2F9"/>
</g>
<path d="M80.5857 27.8596C75.8376 23.1107 65.1545 24.2979 61 45.6643C77.6181 46.2582 87.1142 36.1686 80.5857 27.8596Z" fill="#3D8E53"/>
<path d="M95.4233 32.0137C89.6861 27.4635 87.1142 26.079 80.5857 27.8596M80.5857 27.8596C75.8376 23.1107 65.1545 24.2979 61 45.6643C77.6181 46.2582 87.1142 36.1686 80.5857 27.8596Z" stroke="#3D8E53" stroke-width="1.56277"/>
<path d="M76.5664 30.1852C75.2668 30.762 71.0212 35.0854 69.3196 38.6367" stroke="#89E159" stroke-width="0.781386"/>
<path d="M87.0885 69.3189C85.7571 69.2955 82.927 69.2458 83.702 72.5642C93.6872 72.7395 105.088 72.5203 107.584 72.5642C109.689 72.6011 107.614 69.6793 106.227 69.6549C104.942 66.9886 101.579 65.7178 100.46 66.2489C97.2187 61.2349 95.0656 65.328 93.8323 64.4802C91.8586 63.1234 87.1465 66.0152 87.0885 69.3189L87.0885 69.3189Z" fill="#1E4E4E"/>
<path d="M133.757 74.7278C130.737 77.7474 125.337 78.6785 114.164 73.5452C121.075 67.1788 133.757 65.0651 133.757 74.7278C133.757 68.3867 136.882 64.4576 149.214 67.1787C143.779 71.7081 138.588 78.6133 133.757 74.7278Z" fill="#3D8E53"/>
<path d="M133.757 74.7278C130.737 77.7474 125.337 78.6785 114.164 73.5452C121.075 67.1788 133.757 65.0651 133.757 74.7278ZM133.757 74.7278C133.757 68.3867 136.882 64.4576 149.214 67.1787C143.779 71.7081 138.588 78.6133 133.757 74.7278ZM133.757 74.7278C135.633 72.3121 140.702 68.0847 143.118 67.1788M133.757 74.7278C132.448 73.52 125.894 72.6545 121.304 72.8961M133.757 74.7278C133.616 75.2918 133.541 78.5503 133.508 83.2975C133.402 98.8847 133.757 122.806 133.757 127.811" stroke="#3D8E53" stroke-width="3.12554"/>
<path d="M134.965 73.2186C136.538 71.2861 141.346 69.7271 143.372 69.0024" stroke="#89E159" stroke-width="0.781386"/>
<path d="M131.942 73.8215C130.388 71.5972 125.195 71.5976 121.301 72.8955" stroke="#89E159" stroke-width="0.781386"/>
<path d="M153.93 92.271C150.068 89.991 150.51 86.5268 149.212 74.8432C157.001 77.4397 163.756 89.7405 153.93 92.271C160.378 90.6103 162.236 87.8396 167.386 102.754C161.357 98.4132 151.244 98.2018 153.93 92.271Z" fill="#3D8E53"/>
<path d="M153.93 92.271C150.068 89.991 150.51 86.5268 149.212 74.8432C157.001 77.4397 163.756 89.7405 153.93 92.271ZM153.93 92.271C160.378 90.6103 162.236 87.8396 167.386 102.754C161.357 98.4132 151.244 98.2018 153.93 92.271ZM153.93 92.271C156.878 93.5458 162.504 97.594 164.058 99.8134M153.93 92.271C154.815 90.624 155.434 83.1081 153.986 78.5038M153.93 92.271C153.319 92.2753 140.699 90.7329 132.73 100.318" stroke="#3D8E53" stroke-width="1.56277"/>
<path d="M157.024 93.617C159.041 94.6227 162.987 97.7872 164.142 99.5101" stroke="#89E159" stroke-width="0.781386"/>
<path d="M155.514 90.7563C156.06 89.3662 153.808 83.9463 152.458 80.0375" stroke="#89E159" stroke-width="0.781386"/>
<g clip-path="url(#clip2_949_987)">
<path d="M138.459 99.3195C138.459 99.3195 137.167 98.9263 136.098 100.122C134.857 101.514 135.472 103.639 136.036 105.215C136.6 106.79 136.858 107.356 137.14 108.692C137.352 109.693 137.588 111.473 139.379 112.052C140.631 112.455 141.921 111.543 141.921 111.543C141.921 111.543 142.45 112.135 143.62 112.276C144.885 112.427 146.228 112.034 146.695 110.93C146.94 110.353 147.178 108.503 147.345 107.326C147.565 105.783 148.35 104.108 148.546 102.78C148.712 101.646 148.433 99.0242 144.915 98.9545C143.685 98.9308 142.302 99.4189 142.302 99.4189C142.302 99.4189 141.219 98.8506 140.392 98.7586C138.802 98.5806 138.459 99.3195 138.459 99.3195Z" fill="#F68561"/>
<path d="M146.623 99.2602C146.169 99.0614 145.626 98.8774 144.654 98.8166C143.277 98.7305 142.302 99.419 142.302 99.419C142.302 99.419 141.219 98.8507 140.393 98.7587C138.8 98.5807 138.311 99.2884 138.311 99.2884C138.311 99.2884 138.57 99.3329 138.989 99.4872C139.329 99.6119 139.203 99.9146 138.922 99.9428C138.372 99.9977 137.922 100.36 137.867 100.556C137.867 100.556 138.747 100.177 139.664 100.467C140.884 100.852 141.213 101.757 141.213 101.757C141.213 101.757 141.9 100.956 143.532 100.585C145.084 100.232 146.2 100.901 146.2 100.901C146.109 100.51 145.885 100.314 145.685 100.127C145.325 99.7899 145.443 99.4947 145.811 99.3908C146.117 99.3047 146.623 99.2602 146.623 99.2602Z" fill="#1E4E4E"/>
<path d="M138.235 95.639C138.248 96.3482 138.788 96.6776 139.036 96.6924C139.538 96.7206 139.91 96.1123 140.845 97.01C141.225 97.375 141.373 97.8943 141.361 98.4107C141.357 98.5813 141.398 99.2193 141.099 99.3618C141.005 99.4063 140.943 99.4404 140.652 99.3291C140.327 99.2045 140.038 99.5131 140.038 99.5131L140.596 100.15L141.977 100.598L143.363 100.322L144.164 99.617C144.164 99.617 143.792 99.3276 143.468 99.4434C143.293 99.5057 142.955 99.4033 142.953 99.1985C142.947 98.7668 142.965 98.3558 142.885 97.9255C142.752 97.2147 142.449 96.5352 141.964 95.9951C141.268 95.2205 140.272 94.8184 139.262 94.6552C138.432 94.5232 138.222 94.9386 138.235 95.639Z" fill="#3D8E53"/>
<path d="M141.475 95.5473C140.838 95.0606 140.055 94.7831 139.261 94.6555C138.994 94.6125 138.792 94.6273 138.641 94.6881C138.949 94.6956 139.547 94.8469 140.513 95.5131C141.121 95.9315 142.323 97.4346 141.323 98.9881C141.297 99.1172 141.249 99.2344 141.169 99.3086C141.417 99.1973 141.9 98.816 142.01 97.8011C142.126 96.7268 141.871 96.0176 141.475 95.5473Z" fill="#89E159"/>
<path opacity="0.6" d="M140.786 105.309C140.774 105.871 140.865 107.126 141.215 108.914C141.513 110.437 141.211 111.542 140.814 112.036C141.455 111.863 141.918 111.545 141.918 111.545C141.918 111.545 142.083 110.934 142.093 110.309C142.107 109.558 141.794 108.051 141.427 106.855C141.169 106.015 141.092 104.748 141.08 104.036C141.08 104.034 140.807 104.292 140.786 105.309Z" fill="#8990A5"/>
<path opacity="0.75" d="M139.928 103.368C139.77 103.386 139.628 103.287 139.509 103.19C139.076 102.836 138.83 102.539 138.343 102.244C137.966 102.015 137.223 101.861 137.472 101.278C137.592 100.997 138.054 100.962 138.367 101.015C139.457 101.199 139.942 101.84 140.172 102.641C140.212 102.781 140.266 102.922 140.235 103.066C140.205 103.208 140.089 103.346 139.935 103.368L139.928 103.368ZM143.34 101.785C144.058 101.358 145.118 101.367 146.005 101.821C146.225 101.934 146.435 102.08 146.563 102.293C146.659 102.453 146.685 102.693 146.532 102.802C146.404 102.891 146.229 102.837 146.081 102.79C145.19 102.508 144.183 102.615 143.373 103.079C143.067 103.254 142.411 103.902 142.218 103.448C142.027 102.99 142.447 102.316 143.34 101.785Z" fill="#DBE2F9"/>
</g>
<g clip-path="url(#clip3_949_987)">
<path d="M130.76 94.5724C130.76 94.5724 132.052 94.1792 133.12 95.3752C134.362 96.7669 133.746 98.8917 133.183 100.467C132.619 102.043 132.361 102.609 132.079 103.945C131.867 104.945 131.631 106.726 129.84 107.305C128.587 107.708 127.298 106.796 127.298 106.796C127.298 106.796 126.768 107.388 125.599 107.529C124.333 107.68 122.991 107.287 122.523 106.183C122.278 105.606 122.041 103.756 121.873 102.579C121.654 101.036 120.869 99.3606 120.673 98.0326C120.507 96.899 120.786 94.2772 124.304 94.2074C125.534 94.1837 126.917 94.6719 126.917 94.6719C126.917 94.6719 128 94.1036 128.826 94.0116C130.417 93.8335 130.76 94.5724 130.76 94.5724Z" fill="#F68561"/>
<path d="M122.596 94.5117C123.05 94.3129 123.593 94.1289 124.565 94.068C125.942 93.982 126.917 94.6705 126.917 94.6705C126.917 94.6705 128 94.1022 128.826 94.0102C130.418 93.8321 130.908 94.5399 130.908 94.5399C130.908 94.5399 130.648 94.5844 130.23 94.7387C129.89 94.8633 130.016 95.166 130.297 95.1942C130.847 95.2491 131.297 95.6112 131.352 95.807C131.352 95.807 130.472 95.4287 129.555 95.718C128.335 96.1038 128.006 97.0089 128.006 97.0089C128.006 97.0089 127.319 96.2076 125.687 95.8367C124.135 95.4836 123.019 96.1527 123.019 96.1527C123.109 95.761 123.333 95.5652 123.534 95.3782C123.894 95.0414 123.775 94.7461 123.407 94.6423C123.102 94.5562 122.596 94.5117 122.596 94.5117Z" fill="#1E4E4E"/>
<path d="M131.049 89.9076C131.643 90.4216 130.43 91.9303 130.183 91.9451C129.681 91.9733 129.309 91.365 128.374 92.2627C127.994 92.6277 127.846 93.147 127.857 93.6633C127.862 93.834 127.82 94.472 128.12 94.6144C128.214 94.6589 128.276 94.6931 128.567 94.5818C128.892 94.4572 129.181 94.7658 129.181 94.7658L128.623 95.4023L127.242 95.8504L125.856 95.5744L125.055 94.8696C125.055 94.8696 125.427 94.5803 125.751 94.696C125.926 94.7584 126.264 94.656 126.265 94.4512C126.271 94.0194 126.254 93.6084 126.334 93.1781C126.467 92.4674 126.77 91.7879 127.255 91.2478C127.951 90.4732 129.172 89.1449 130.182 88.9817C131.012 88.8496 131.063 89.2072 131.049 89.9076Z" fill="#3D8E53"/>
<path d="M127.744 90.7987C128.381 90.312 129.164 90.0346 129.958 89.907C130.225 89.8639 130.427 89.8788 130.578 89.9396C130.27 89.947 129.672 90.0984 128.706 90.7646C128.097 91.183 126.895 92.6861 127.895 94.2396C127.922 94.3687 127.97 94.4859 128.05 94.5601C127.802 94.4488 127.318 94.0675 127.209 93.0526C127.093 91.9783 127.348 91.2691 127.744 90.7987Z" fill="#89E159"/>
<path opacity="0.6" d="M128.433 100.562C128.444 101.124 128.354 102.379 128.004 104.167C127.706 105.69 128.008 106.795 128.404 107.289C127.763 107.115 127.3 106.798 127.3 106.798C127.3 106.798 127.136 106.187 127.125 105.562C127.112 104.811 127.425 103.304 127.792 102.108C128.05 101.268 128.127 100.001 128.139 99.2886C128.139 99.2871 128.412 99.5453 128.433 100.562Z" fill="#8990A5"/>
<path opacity="0.75" d="M129.291 98.6213C129.448 98.6391 129.591 98.5397 129.71 98.4432C130.143 98.0886 130.389 97.7918 130.876 97.4966C131.253 97.2681 131.996 97.1138 131.747 96.5306C131.627 96.2502 131.165 96.2146 130.852 96.268C129.762 96.452 129.276 97.093 129.046 97.8942C129.006 98.0337 128.953 98.1747 128.984 98.3186C129.014 98.461 129.129 98.599 129.284 98.6213L129.291 98.6213ZM125.879 97.0381C125.16 96.6108 124.101 96.6197 123.214 97.0737C122.994 97.1865 122.783 97.3334 122.656 97.5455C122.559 97.7058 122.534 97.9462 122.687 98.0545C122.815 98.1435 122.99 98.0901 123.138 98.0426C124.028 97.7607 125.036 97.8675 125.846 98.3319C126.152 98.507 126.807 99.1554 127 98.7014C127.192 98.2429 126.772 97.5693 125.879 97.0381Z" fill="#DBE2F9"/>
</g>
<path d="M118.586 86.8596C113.838 82.1107 103.155 83.2979 99 104.664C115.618 105.258 125.114 95.1686 118.586 86.8596Z" fill="#3D8E53"/>
<path d="M133.423 91.0137C127.686 86.4635 125.114 85.079 118.586 86.8596M118.586 86.8596C113.838 82.1107 103.155 83.2979 99 104.664C115.618 105.258 125.114 95.1686 118.586 86.8596Z" stroke="#3D8E53" stroke-width="1.56277"/>
<path d="M114.566 89.1852C113.267 89.762 109.021 94.0854 107.32 97.6367" stroke="#89E159" stroke-width="0.781386"/>
<path d="M125.088 128.319C123.757 128.296 120.927 128.246 121.702 131.564C131.687 131.739 143.088 131.52 145.584 131.564C147.689 131.601 145.614 128.679 144.227 128.655C142.942 125.989 139.579 124.718 138.46 125.249C135.219 120.235 133.066 124.328 131.832 123.48C129.859 122.123 125.146 125.015 125.088 128.319L125.088 128.319Z" fill="#1E4E4E"/>
<path d="M197.757 74.7278C194.737 77.7474 189.337 78.6785 178.164 73.5452C185.075 67.1788 197.757 65.0651 197.757 74.7278C197.757 68.3867 200.882 64.4576 213.214 67.1787C207.779 71.7081 202.588 78.6133 197.757 74.7278Z" fill="#3D8E53"/>
<path d="M197.757 74.7278C194.737 77.7474 189.337 78.6785 178.164 73.5452C185.075 67.1788 197.757 65.0651 197.757 74.7278ZM197.757 74.7278C197.757 68.3867 200.882 64.4576 213.214 67.1787C207.779 71.7081 202.588 78.6133 197.757 74.7278ZM197.757 74.7278C199.633 72.3121 204.702 68.0847 207.118 67.1788M197.757 74.7278C196.448 73.52 189.894 72.6545 185.304 72.8961M197.757 74.7278C197.616 75.2918 197.541 78.5503 197.508 83.2975C197.402 98.8847 197.757 122.806 197.757 127.811" stroke="#3D8E53" stroke-width="3.12554"/>
<path d="M198.965 73.2186C200.538 71.2861 205.346 69.7271 207.372 69.0024" stroke="#89E159" stroke-width="0.781386"/>
<path d="M195.942 73.8215C194.388 71.5972 189.195 71.5976 185.301 72.8955" stroke="#89E159" stroke-width="0.781386"/>
<path d="M217.93 92.271C214.068 89.991 214.51 86.5268 213.212 74.8432C221.001 77.4397 227.756 89.7405 217.93 92.271C224.378 90.6103 226.236 87.8396 231.386 102.754C225.357 98.4132 215.244 98.2018 217.93 92.271Z" fill="#3D8E53"/>
<path d="M217.93 92.271C214.068 89.991 214.51 86.5268 213.212 74.8432C221.001 77.4397 227.756 89.7405 217.93 92.271ZM217.93 92.271C224.378 90.6103 226.236 87.8396 231.386 102.754C225.357 98.4132 215.244 98.2018 217.93 92.271ZM217.93 92.271C220.878 93.5458 226.504 97.594 228.058 99.8134M217.93 92.271C218.815 90.624 219.434 83.1081 217.986 78.5038M217.93 92.271C217.319 92.2753 204.699 90.7329 196.73 100.318" stroke="#3D8E53" stroke-width="1.56277"/>
<path d="M221.024 93.617C223.041 94.6227 226.987 97.7872 228.142 99.5101" stroke="#89E159" stroke-width="0.781386"/>
<path d="M219.514 90.7563C220.06 89.3662 217.808 83.9463 216.458 80.0375" stroke="#89E159" stroke-width="0.781386"/>
<g clip-path="url(#clip4_949_987)">
<path d="M202.459 99.3195C202.459 99.3195 201.167 98.9263 200.098 100.122C198.857 101.514 199.472 103.639 200.036 105.215C200.6 106.79 200.858 107.356 201.14 108.692C201.352 109.693 201.588 111.473 203.379 112.052C204.631 112.455 205.921 111.543 205.921 111.543C205.921 111.543 206.45 112.135 207.62 112.276C208.885 112.427 210.228 112.034 210.695 110.93C210.94 110.353 211.178 108.503 211.345 107.326C211.565 105.783 212.35 104.108 212.546 102.78C212.712 101.646 212.433 99.0242 208.915 98.9545C207.685 98.9308 206.302 99.4189 206.302 99.4189C206.302 99.4189 205.219 98.8506 204.392 98.7586C202.802 98.5806 202.459 99.3195 202.459 99.3195Z" fill="#F68561"/>
<path d="M210.623 99.2602C210.169 99.0614 209.626 98.8774 208.654 98.8166C207.277 98.7305 206.302 99.419 206.302 99.419C206.302 99.419 205.219 98.8507 204.393 98.7587C202.8 98.5807 202.311 99.2884 202.311 99.2884C202.311 99.2884 202.57 99.3329 202.989 99.4872C203.329 99.6119 203.203 99.9146 202.922 99.9428C202.372 99.9977 201.922 100.36 201.867 100.556C201.867 100.556 202.747 100.177 203.664 100.467C204.884 100.852 205.213 101.757 205.213 101.757C205.213 101.757 205.9 100.956 207.532 100.585C209.084 100.232 210.2 100.901 210.2 100.901C210.109 100.51 209.885 100.314 209.685 100.127C209.325 99.7899 209.443 99.4947 209.811 99.3908C210.117 99.3047 210.623 99.2602 210.623 99.2602Z" fill="#1E4E4E"/>
<path d="M202.235 95.639C202.248 96.3482 202.788 96.6776 203.036 96.6924C203.538 96.7206 203.91 96.1123 204.845 97.01C205.225 97.375 205.373 97.8943 205.361 98.4107C205.357 98.5813 205.398 99.2193 205.099 99.3618C205.005 99.4063 204.943 99.4404 204.652 99.3291C204.327 99.2045 204.038 99.5131 204.038 99.5131L204.596 100.15L205.977 100.598L207.363 100.322L208.164 99.617C208.164 99.617 207.792 99.3276 207.468 99.4434C207.293 99.5057 206.955 99.4033 206.953 99.1985C206.947 98.7668 206.965 98.3558 206.885 97.9255C206.752 97.2147 206.449 96.5352 205.964 95.9951C205.268 95.2205 204.272 94.8184 203.262 94.6552C202.432 94.5232 202.222 94.9386 202.235 95.639Z" fill="#3D8E53"/>
<path d="M205.475 95.5473C204.838 95.0606 204.055 94.7831 203.261 94.6555C202.994 94.6125 202.792 94.6273 202.641 94.6881C202.949 94.6956 203.547 94.8469 204.513 95.5131C205.121 95.9315 206.323 97.4346 205.323 98.9881C205.297 99.1172 205.249 99.2344 205.169 99.3086C205.417 99.1973 205.9 98.816 206.01 97.8011C206.126 96.7268 205.871 96.0176 205.475 95.5473Z" fill="#89E159"/>
<path opacity="0.6" d="M204.786 105.309C204.774 105.871 204.865 107.126 205.215 108.914C205.513 110.437 205.211 111.542 204.814 112.036C205.455 111.863 205.918 111.545 205.918 111.545C205.918 111.545 206.083 110.934 206.093 110.309C206.107 109.558 205.794 108.051 205.427 106.855C205.169 106.015 205.092 104.748 205.08 104.036C205.08 104.034 204.807 104.292 204.786 105.309Z" fill="#8990A5"/>
<path opacity="0.75" d="M203.928 103.368C203.77 103.386 203.628 103.287 203.509 103.19C203.076 102.836 202.83 102.539 202.343 102.244C201.966 102.015 201.223 101.861 201.472 101.278C201.592 100.997 202.054 100.962 202.367 101.015C203.457 101.199 203.942 101.84 204.172 102.641C204.212 102.781 204.266 102.922 204.235 103.066C204.205 103.208 204.089 103.346 203.935 103.368L203.928 103.368ZM207.34 101.785C208.058 101.358 209.118 101.367 210.005 101.821C210.225 101.934 210.435 102.08 210.563 102.293C210.659 102.453 210.685 102.693 210.532 102.802C210.404 102.891 210.229 102.837 210.081 102.79C209.19 102.508 208.183 102.615 207.373 103.079C207.067 103.254 206.411 103.902 206.218 103.448C206.027 102.99 206.447 102.316 207.34 101.785Z" fill="#DBE2F9"/>
</g>
<g clip-path="url(#clip5_949_987)">
<path d="M194.76 94.5724C194.76 94.5724 196.052 94.1792 197.12 95.3752C198.362 96.7669 197.746 98.8917 197.183 100.467C196.619 102.043 196.361 102.609 196.079 103.945C195.867 104.945 195.631 106.726 193.84 107.305C192.587 107.708 191.298 106.796 191.298 106.796C191.298 106.796 190.768 107.388 189.599 107.529C188.333 107.68 186.991 107.287 186.523 106.183C186.278 105.606 186.041 103.756 185.873 102.579C185.654 101.036 184.869 99.3606 184.673 98.0326C184.507 96.899 184.786 94.2772 188.304 94.2074C189.534 94.1837 190.917 94.6719 190.917 94.6719C190.917 94.6719 192 94.1036 192.826 94.0116C194.417 93.8335 194.76 94.5724 194.76 94.5724Z" fill="#F68561"/>
<path d="M186.596 94.5117C187.05 94.3129 187.593 94.1289 188.565 94.068C189.942 93.982 190.917 94.6705 190.917 94.6705C190.917 94.6705 192 94.1022 192.826 94.0102C194.418 93.8321 194.908 94.5399 194.908 94.5399C194.908 94.5399 194.648 94.5844 194.23 94.7387C193.89 94.8633 194.016 95.166 194.297 95.1942C194.847 95.2491 195.297 95.6112 195.352 95.807C195.352 95.807 194.472 95.4287 193.555 95.718C192.335 96.1038 192.006 97.0089 192.006 97.0089C192.006 97.0089 191.319 96.2076 189.687 95.8367C188.135 95.4836 187.019 96.1527 187.019 96.1527C187.109 95.761 187.333 95.5652 187.534 95.3782C187.894 95.0414 187.775 94.7461 187.407 94.6423C187.102 94.5562 186.596 94.5117 186.596 94.5117Z" fill="#1E4E4E"/>
<path d="M195.049 89.9076C195.643 90.4216 194.43 91.9303 194.183 91.9451C193.681 91.9733 193.309 91.365 192.374 92.2627C191.994 92.6277 191.846 93.147 191.857 93.6633C191.862 93.834 191.82 94.472 192.12 94.6144C192.214 94.6589 192.276 94.6931 192.567 94.5818C192.892 94.4572 193.181 94.7658 193.181 94.7658L192.623 95.4023L191.242 95.8504L189.856 95.5744L189.055 94.8696C189.055 94.8696 189.427 94.5803 189.751 94.696C189.926 94.7584 190.264 94.656 190.265 94.4512C190.271 94.0194 190.254 93.6084 190.334 93.1781C190.467 92.4674 190.77 91.7879 191.255 91.2478C191.951 90.4732 193.172 89.1449 194.182 88.9817C195.012 88.8496 195.063 89.2072 195.049 89.9076Z" fill="#3D8E53"/>
<path d="M191.744 90.7987C192.381 90.312 193.164 90.0346 193.958 89.907C194.225 89.8639 194.427 89.8788 194.578 89.9396C194.27 89.947 193.672 90.0984 192.706 90.7646C192.097 91.183 190.895 92.6861 191.895 94.2396C191.922 94.3687 191.97 94.4859 192.05 94.5601C191.802 94.4488 191.318 94.0675 191.209 93.0526C191.093 91.9783 191.348 91.2691 191.744 90.7987Z" fill="#89E159"/>
<path opacity="0.6" d="M192.433 100.562C192.444 101.124 192.354 102.379 192.004 104.167C191.706 105.69 192.008 106.795 192.404 107.289C191.763 107.115 191.3 106.798 191.3 106.798C191.3 106.798 191.136 106.187 191.125 105.562C191.112 104.811 191.425 103.304 191.792 102.108C192.05 101.268 192.127 100.001 192.139 99.2886C192.139 99.2871 192.412 99.5453 192.433 100.562Z" fill="#8990A5"/>
<path opacity="0.75" d="M193.291 98.6213C193.448 98.6391 193.591 98.5397 193.71 98.4432C194.143 98.0886 194.389 97.7918 194.876 97.4966C195.253 97.2681 195.996 97.1138 195.747 96.5306C195.627 96.2502 195.165 96.2146 194.852 96.268C193.762 96.452 193.276 97.093 193.046 97.8942C193.006 98.0337 192.953 98.1747 192.984 98.3186C193.014 98.461 193.129 98.599 193.284 98.6213L193.291 98.6213ZM189.879 97.0381C189.16 96.6108 188.101 96.6197 187.214 97.0737C186.994 97.1865 186.783 97.3334 186.656 97.5455C186.559 97.7058 186.534 97.9462 186.687 98.0545C186.815 98.1435 186.99 98.0901 187.138 98.0426C188.028 97.7607 189.036 97.8675 189.846 98.3319C190.152 98.507 190.807 99.1554 191 98.7014C191.192 98.2429 190.772 97.5693 189.879 97.0381Z" fill="#DBE2F9"/>
</g>
<path d="M182.586 86.8596C177.838 82.1107 167.155 83.2979 163 104.664C179.618 105.258 189.114 95.1686 182.586 86.8596Z" fill="#3D8E53"/>
<path d="M197.423 91.0137C191.686 86.4635 189.114 85.079 182.586 86.8596M182.586 86.8596C177.838 82.1107 167.155 83.2979 163 104.664C179.618 105.258 189.114 95.1686 182.586 86.8596Z" stroke="#3D8E53" stroke-width="1.56277"/>
<path d="M178.566 89.1852C177.267 89.762 173.021 94.0854 171.32 97.6367" stroke="#89E159" stroke-width="0.781386"/>
<path d="M189.088 128.319C187.757 128.296 184.927 128.246 185.702 131.564C195.687 131.739 207.088 131.52 209.584 131.564C211.689 131.601 209.614 128.679 208.227 128.655C206.942 125.989 203.579 124.718 202.46 125.249C199.219 120.235 197.066 124.328 195.832 123.48C193.859 122.123 189.146 125.015 189.088 128.319L189.088 128.319Z" fill="#1E4E4E"/>
<path d="M165.757 14.7278C162.737 17.7474 157.337 18.6785 146.164 13.5452C153.075 7.17881 165.757 5.06509 165.757 14.7278C165.757 8.38665 168.882 4.45757 181.214 7.17867C175.779 11.7081 170.588 18.6133 165.757 14.7278Z" fill="#3D8E53"/>
<path d="M165.757 14.7278C162.737 17.7474 157.337 18.6785 146.164 13.5452C153.075 7.17881 165.757 5.06509 165.757 14.7278ZM165.757 14.7278C165.757 8.38665 168.882 4.45757 181.214 7.17867C175.779 11.7081 170.588 18.6133 165.757 14.7278ZM165.757 14.7278C167.633 12.3121 172.702 8.08469 175.118 7.17881M165.757 14.7278C164.448 13.52 157.894 12.6545 153.304 12.8961M165.757 14.7278C165.616 15.2918 165.541 18.5503 165.508 23.2975C165.402 38.8847 165.757 62.8062 165.757 67.8107" stroke="#3D8E53" stroke-width="3.12554"/>
<path d="M166.965 13.2186C168.538 11.2861 173.346 9.72715 175.372 9.00244" stroke="#89E159" stroke-width="0.781386"/>
<path d="M163.942 13.8215C162.388 11.5972 157.195 11.5976 153.301 12.8955" stroke="#89E159" stroke-width="0.781386"/>
<path d="M185.93 32.271C182.068 29.991 182.51 26.5268 181.212 14.8432C189.001 17.4397 195.756 29.7405 185.93 32.271C192.378 30.6103 194.236 27.8396 199.386 42.7544C193.357 38.4132 183.244 38.2018 185.93 32.271Z" fill="#3D8E53"/>
<path d="M185.93 32.271C182.068 29.991 182.51 26.5268 181.212 14.8432C189.001 17.4397 195.756 29.7405 185.93 32.271ZM185.93 32.271C192.378 30.6103 194.236 27.8396 199.386 42.7544C193.357 38.4132 183.244 38.2018 185.93 32.271ZM185.93 32.271C188.878 33.5458 194.504 37.594 196.058 39.8134M185.93 32.271C186.815 30.624 187.434 23.1081 185.986 18.5038M185.93 32.271C185.319 32.2753 172.699 30.7329 164.73 40.3183" stroke="#3D8E53" stroke-width="1.56277"/>
<path d="M189.024 33.617C191.041 34.6227 194.987 37.7872 196.142 39.5101" stroke="#89E159" stroke-width="0.781386"/>
<path d="M187.514 30.7563C188.06 29.3662 185.808 23.9463 184.458 20.0375" stroke="#89E159" stroke-width="0.781386"/>
<g clip-path="url(#clip6_949_987)">
<path d="M170.459 39.3195C170.459 39.3195 169.167 38.9263 168.098 40.1222C166.857 41.514 167.472 43.6388 168.036 45.2145C168.6 46.7903 168.858 47.3556 169.14 48.6925C169.352 49.6926 169.588 51.4731 171.379 52.0518C172.631 52.4553 173.921 51.5428 173.921 51.5428C173.921 51.5428 174.45 52.1348 175.62 52.2758C176.885 52.4271 178.228 52.0339 178.695 50.93C178.94 50.3528 179.178 48.5026 179.345 47.3259C179.565 45.7828 180.35 44.1076 180.546 42.7797C180.712 41.6461 180.433 39.0242 176.915 38.9545C175.685 38.9308 174.302 39.4189 174.302 39.4189C174.302 39.4189 173.219 38.8506 172.392 38.7586C170.802 38.5806 170.459 39.3195 170.459 39.3195Z" fill="#F68561"/>
<path d="M178.623 39.2602C178.169 39.0614 177.626 38.8774 176.654 38.8166C175.277 38.7305 174.302 39.419 174.302 39.419C174.302 39.419 173.219 38.8507 172.393 38.7587C170.8 38.5807 170.311 39.2884 170.311 39.2884C170.311 39.2884 170.57 39.3329 170.989 39.4872C171.329 39.6119 171.203 39.9146 170.922 39.9428C170.372 39.9977 169.922 40.3597 169.867 40.5556C169.867 40.5556 170.747 40.1772 171.664 40.4665C172.884 40.8523 173.213 41.7574 173.213 41.7574C173.213 41.7574 173.9 40.9562 175.532 40.5852C177.084 40.2321 178.2 40.9013 178.2 40.9013C178.109 40.5096 177.885 40.3137 177.685 40.1267C177.325 39.7899 177.443 39.4947 177.811 39.3908C178.117 39.3047 178.623 39.2602 178.623 39.2602Z" fill="#1E4E4E"/>
<path d="M170.235 35.639C170.248 36.3482 170.788 36.6776 171.036 36.6924C171.538 36.7206 171.91 36.1123 172.845 37.01C173.225 37.375 173.373 37.8943 173.361 38.4107C173.357 38.5813 173.398 39.2193 173.099 39.3618C173.005 39.4063 172.943 39.4404 172.652 39.3291C172.327 39.2045 172.038 39.5131 172.038 39.5131L172.596 40.1496L173.977 40.5977L175.363 40.3218L176.164 39.617C176.164 39.617 175.792 39.3276 175.468 39.4434C175.293 39.5057 174.955 39.4033 174.953 39.1985C174.947 38.7668 174.965 38.3558 174.885 37.9255C174.752 37.2147 174.449 36.5352 173.964 35.9951C173.268 35.2205 172.272 34.8184 171.262 34.6552C170.432 34.5232 170.222 34.9386 170.235 35.639Z" fill="#3D8E53"/>
<path d="M173.475 35.5473C172.838 35.0606 172.055 34.7831 171.261 34.6555C170.994 34.6125 170.792 34.6273 170.641 34.6881C170.949 34.6956 171.547 34.8469 172.513 35.5131C173.121 35.9315 174.323 37.4346 173.323 38.9881C173.297 39.1172 173.249 39.2344 173.169 39.3086C173.417 39.1973 173.9 38.816 174.01 37.8011C174.126 36.7268 173.871 36.0176 173.475 35.5473Z" fill="#89E159"/>
<path opacity="0.6" d="M172.786 45.3087C172.774 45.8711 172.865 47.1263 173.215 48.9143C173.513 50.4366 173.211 51.542 172.814 52.0361C173.455 51.8625 173.918 51.545 173.918 51.545C173.918 51.545 174.083 50.9337 174.093 50.309C174.107 49.5582 173.794 48.0507 173.427 46.8548C173.169 46.015 173.092 44.7479 173.08 44.0357C173.08 44.0342 172.807 44.2923 172.786 45.3087Z" fill="#8990A5"/>
<path opacity="0.75" d="M171.928 43.3683C171.77 43.3861 171.628 43.2867 171.509 43.1903C171.076 42.8357 170.83 42.5389 170.343 42.2436C169.966 42.0151 169.223 41.8608 169.472 41.2777C169.592 40.9973 170.054 40.9617 170.367 41.0151C171.457 41.1991 171.942 41.8401 172.172 42.6413C172.212 42.7808 172.266 42.9217 172.235 43.0657C172.205 43.2081 172.089 43.3461 171.935 43.3683L171.928 43.3683ZM175.34 41.7852C176.058 41.3578 177.118 41.3667 178.005 41.8208C178.225 41.9335 178.435 42.0804 178.563 42.2926C178.659 42.4529 178.685 42.6932 178.532 42.8015C178.404 42.8906 178.229 42.8372 178.081 42.7897C177.19 42.5078 176.183 42.6146 175.373 43.079C175.067 43.2541 174.411 43.9025 174.218 43.4485C174.027 42.99 174.447 42.3163 175.34 41.7852Z" fill="#DBE2F9"/>
</g>
<g clip-path="url(#clip7_949_987)">
<path d="M162.76 34.5724C162.76 34.5724 164.052 34.1792 165.12 35.3752C166.362 36.7669 165.746 38.8917 165.183 40.4675C164.619 42.0432 164.361 42.6085 164.079 43.9454C163.867 44.9455 163.631 46.726 161.84 47.3047C160.587 47.7083 159.298 46.7958 159.298 46.7958C159.298 46.7958 158.768 47.3878 157.599 47.5287C156.333 47.6801 154.991 47.2869 154.523 46.183C154.278 45.6058 154.041 43.7555 153.873 42.5789C153.654 41.0357 152.869 39.3606 152.673 38.0326C152.507 36.899 152.786 34.2772 156.304 34.2074C157.534 34.1837 158.917 34.6719 158.917 34.6719C158.917 34.6719 160 34.1036 160.826 34.0116C162.417 33.8335 162.76 34.5724 162.76 34.5724Z" fill="#F68561"/>
<path d="M154.596 34.5117C155.05 34.3129 155.593 34.1289 156.565 34.068C157.942 33.982 158.917 34.6705 158.917 34.6705C158.917 34.6705 160 34.1022 160.826 34.0102C162.418 33.8321 162.908 34.5399 162.908 34.5399C162.908 34.5399 162.648 34.5844 162.23 34.7387C161.89 34.8633 162.016 35.166 162.297 35.1942C162.847 35.2491 163.297 35.6112 163.352 35.807C163.352 35.807 162.472 35.4287 161.555 35.718C160.335 36.1038 160.006 37.0089 160.006 37.0089C160.006 37.0089 159.319 36.2076 157.687 35.8367C156.135 35.4836 155.019 36.1527 155.019 36.1527C155.109 35.761 155.333 35.5652 155.534 35.3782C155.894 35.0414 155.775 34.7461 155.407 34.6423C155.102 34.5562 154.596 34.5117 154.596 34.5117Z" fill="#1E4E4E"/>
<path d="M163.049 29.9076C163.643 30.4216 162.43 31.9303 162.183 31.9451C161.681 31.9733 161.309 31.365 160.374 32.2627C159.994 32.6277 159.846 33.147 159.857 33.6633C159.862 33.834 159.82 34.472 160.12 34.6144C160.214 34.6589 160.276 34.6931 160.567 34.5818C160.892 34.4572 161.181 34.7658 161.181 34.7658L160.623 35.4023L159.242 35.8504L157.856 35.5744L157.055 34.8696C157.055 34.8696 157.427 34.5803 157.751 34.696C157.926 34.7584 158.264 34.656 158.265 34.4512C158.271 34.0194 158.254 33.6084 158.334 33.1781C158.467 32.4674 158.77 31.7879 159.255 31.2478C159.951 30.4732 161.172 29.1449 162.182 28.9817C163.012 28.8496 163.063 29.2072 163.049 29.9076Z" fill="#3D8E53"/>
<path d="M159.744 30.7987C160.381 30.312 161.164 30.0346 161.958 29.907C162.225 29.8639 162.427 29.8788 162.578 29.9396C162.27 29.947 161.672 30.0984 160.706 30.7646C160.097 31.183 158.895 32.6861 159.895 34.2396C159.922 34.3687 159.97 34.4859 160.05 34.5601C159.802 34.4488 159.318 34.0675 159.209 33.0526C159.093 31.9783 159.348 31.2691 159.744 30.7987Z" fill="#89E159"/>
<path opacity="0.6" d="M160.433 40.5617C160.444 41.124 160.354 42.3793 160.004 44.1672C159.706 45.6896 160.008 46.795 160.404 47.2891C159.763 47.1155 159.3 46.7979 159.3 46.7979C159.3 46.7979 159.136 46.1866 159.125 45.562C159.112 44.8112 159.425 43.3037 159.792 42.1077C160.05 41.2679 160.127 40.0008 160.139 39.2886C160.139 39.2871 160.412 39.5453 160.433 40.5617Z" fill="#8990A5"/>
<path opacity="0.75" d="M161.291 38.6213C161.448 38.6391 161.591 38.5397 161.71 38.4432C162.143 38.0886 162.389 37.7918 162.876 37.4966C163.253 37.2681 163.996 37.1138 163.747 36.5306C163.627 36.2502 163.165 36.2146 162.852 36.268C161.762 36.452 161.276 37.093 161.046 37.8942C161.006 38.0337 160.953 38.1747 160.984 38.3186C161.014 38.461 161.129 38.599 161.284 38.6213L161.291 38.6213ZM157.879 37.0381C157.16 36.6108 156.101 36.6197 155.214 37.0737C154.994 37.1865 154.783 37.3334 154.656 37.5455C154.559 37.7058 154.534 37.9462 154.687 38.0545C154.815 38.1435 154.99 38.0901 155.138 38.0426C156.028 37.7607 157.036 37.8675 157.846 38.3319C158.152 38.507 158.807 39.1554 159 38.7014C159.192 38.2429 158.772 37.5693 157.879 37.0381Z" fill="#DBE2F9"/>
</g>
<path d="M150.586 26.8596C145.838 22.1107 135.155 23.2979 131 44.6643C147.618 45.2582 157.114 35.1686 150.586 26.8596Z" fill="#3D8E53"/>
<path d="M165.423 31.0137C159.686 26.4635 157.114 25.079 150.586 26.8596M150.586 26.8596C145.838 22.1107 135.155 23.2979 131 44.6643C147.618 45.2582 157.114 35.1686 150.586 26.8596Z" stroke="#3D8E53" stroke-width="1.56277"/>
<path d="M146.566 29.1852C145.267 29.762 141.021 34.0854 139.32 37.6367" stroke="#89E159" stroke-width="0.781386"/>
<path d="M157.088 68.3189C155.757 68.2955 152.927 68.2458 153.702 71.5642C163.687 71.7395 175.088 71.5203 177.584 71.5642C179.689 71.6011 177.614 68.6793 176.227 68.6549C174.942 65.9886 171.579 64.7178 170.46 65.2489C167.219 60.2349 165.066 64.328 163.832 63.4802C161.859 62.1234 157.146 65.0152 157.088 68.3189L157.088 68.3189Z" fill="#1E4E4E"/>
<path d="M71.757 74.7278C68.7373 77.7474 63.3365 78.6785 52.1641 73.5452C59.0746 67.1788 71.757 65.0651 71.757 74.7278C71.757 68.3867 74.8818 64.4576 87.2142 67.1787C81.779 71.7081 76.5883 78.6133 71.757 74.7278Z" fill="#3D8E53"/>
<path d="M71.757 74.7278C68.7373 77.7474 63.3365 78.6785 52.1641 73.5452C59.0746 67.1788 71.757 65.0651 71.757 74.7278ZM71.757 74.7278C71.757 68.3867 74.8818 64.4576 87.2142 67.1787C81.779 71.7081 76.5883 78.6133 71.757 74.7278ZM71.757 74.7278C73.6326 72.3121 78.7019 68.0847 81.1176 67.1788M71.757 74.7278C70.4484 73.52 63.8937 72.6545 59.3039 72.8961M71.757 74.7278C71.616 75.2918 71.5408 78.5503 71.5084 83.2975C71.4021 98.8847 71.757 122.806 71.757 127.811" stroke="#3D8E53" stroke-width="3.12554"/>
<path d="M72.9648 73.2186C74.538 71.2861 79.3464 69.7271 81.3724 69.0024" stroke="#89E159" stroke-width="0.781386"/>
<path d="M69.9418 73.8215C68.3879 71.5972 63.1952 71.5976 59.3008 72.8955" stroke="#89E159" stroke-width="0.781386"/>
<path d="M91.9297 92.271C88.0682 89.991 88.5101 86.5268 87.2124 74.8432C95.0008 77.4397 101.756 89.7405 91.9297 92.271C98.3784 90.6103 100.236 87.8396 105.386 102.754C99.3568 98.4132 89.2437 98.2018 91.9297 92.271Z" fill="#3D8E53"/>
<path d="M91.9297 92.271C88.0682 89.991 88.5101 86.5268 87.2124 74.8432C95.0008 77.4397 101.756 89.7405 91.9297 92.271ZM91.9297 92.271C98.3784 90.6103 100.236 87.8396 105.386 102.754C99.3568 98.4132 89.2437 98.2018 91.9297 92.271ZM91.9297 92.271C94.8776 93.5458 100.504 97.594 102.058 99.8134M91.9297 92.271C92.8154 90.624 93.4339 83.1081 91.9863 78.5038M91.9297 92.271C91.3193 92.2753 78.6988 90.7329 70.7301 100.318" stroke="#3D8E53" stroke-width="1.56277"/>
<path d="M95.024 93.617C97.0408 94.6227 100.987 97.7872 102.142 99.5101" stroke="#89E159" stroke-width="0.781386"/>
<path d="M93.5144 90.7563C94.0595 89.3662 91.8078 83.9463 90.4576 80.0375" stroke="#89E159" stroke-width="0.781386"/>
<g clip-path="url(#clip8_949_987)">
<path d="M76.4591 99.3195C76.4591 99.3195 75.1668 98.9263 74.0984 100.122C72.8565 101.514 73.4723 103.639 74.0361 105.215C74.6 106.79 74.8581 107.356 75.14 108.692C75.3522 109.693 75.5881 111.473 77.379 112.052C78.6313 112.455 79.9207 111.543 79.9207 111.543C79.9207 111.543 80.4504 112.135 81.6196 112.276C82.8853 112.427 84.2281 112.034 84.6955 110.93C84.9403 110.353 85.1777 108.503 85.3454 107.326C85.565 105.783 86.3499 104.108 86.5457 102.78C86.7119 101.646 86.433 99.0242 82.915 98.9545C81.6849 98.9308 80.3021 99.4189 80.3021 99.4189C80.3021 99.4189 79.2189 98.8506 78.3925 98.7586C76.8019 98.5806 76.4591 99.3195 76.4591 99.3195Z" fill="#F68561"/>
<path d="M84.6229 99.2602C84.1688 99.0614 83.6258 98.8774 82.6539 98.8166C81.277 98.7305 80.3022 99.419 80.3022 99.419C80.3022 99.419 79.219 98.8507 78.3926 98.7587C76.8005 98.5807 76.3108 99.2884 76.3108 99.2884C76.3108 99.2884 76.5705 99.3329 76.9889 99.4872C77.3287 99.6119 77.2026 99.9146 76.9221 99.9428C76.3717 99.9977 75.9221 100.36 75.8672 100.556C75.8672 100.556 76.7471 100.177 77.664 100.467C78.8837 100.852 79.2131 101.757 79.2131 101.757C79.2131 101.757 79.9001 100.956 81.5322 100.585C83.0842 100.232 84.2 100.901 84.2 100.901C84.1095 100.51 83.8854 100.314 83.6851 100.127C83.3246 99.7899 83.4433 99.4947 83.8113 99.3908C84.1169 99.3047 84.6229 99.2602 84.6229 99.2602Z" fill="#1E4E4E"/>
<path d="M76.235 95.639C76.2483 96.3482 76.7884 96.6776 77.0362 96.6924C77.5377 96.7206 77.9101 96.1123 78.8449 97.01C79.2247 97.375 79.3731 97.8943 79.3612 98.4107C79.3568 98.5813 79.3983 99.2193 79.0986 99.3618C79.0051 99.4063 78.9428 99.4404 78.652 99.3291C78.3271 99.2045 78.0377 99.5131 78.0377 99.5131L78.5956 100.15L79.977 100.598L81.3628 100.322L82.1641 99.617C82.1641 99.617 81.7917 99.3276 81.4682 99.4434C81.2931 99.5057 80.9548 99.4033 80.9533 99.1985C80.9474 98.7668 80.9652 98.3558 80.8851 97.9255C80.7515 97.2147 80.4488 96.5352 79.9637 95.9951C79.2678 95.2205 78.2722 94.8184 77.2617 94.6552C76.4323 94.5232 76.2216 94.9386 76.235 95.639Z" fill="#3D8E53"/>
<path d="M79.4746 95.5473C78.8381 95.0606 78.0547 94.7831 77.2608 94.6555C76.9938 94.6125 76.792 94.6273 76.6406 94.6881C76.9492 94.6956 77.5472 94.8469 78.5131 95.5131C79.1215 95.9315 80.3233 97.4346 79.3233 98.9881C79.2966 99.1172 79.2491 99.2344 79.169 99.3086C79.4167 99.1973 79.9005 98.816 80.0102 97.8011C80.126 96.7268 79.8708 96.0176 79.4746 95.5473Z" fill="#89E159"/>
<path opacity="0.6" d="M78.7862 105.309C78.7743 105.871 78.8648 107.126 79.215 108.914C79.5132 110.437 79.2105 111.542 78.8144 112.036C79.4553 111.863 79.9183 111.545 79.9183 111.545C79.9183 111.545 80.083 110.934 80.0934 110.309C80.1067 109.558 79.7936 108.051 79.4271 106.855C79.169 106.015 79.0918 104.748 79.0799 104.036C79.0799 104.034 78.8069 104.292 78.7862 105.309Z" fill="#8990A5"/>
<path opacity="0.75" d="M77.9276 103.368C77.7703 103.386 77.6278 103.287 77.5091 103.19C77.0759 102.836 76.8296 102.539 76.3429 102.244C75.966 102.015 75.2227 101.861 75.4719 101.278C75.5921 100.997 76.0536 100.962 76.3666 101.015C77.4572 101.199 77.9424 101.84 78.1724 102.641C78.2124 102.781 78.2659 102.922 78.2347 103.066C78.205 103.208 78.0893 103.346 77.935 103.368L77.9276 103.368ZM81.3402 101.785C82.0584 101.358 83.1178 101.367 84.0051 101.821C84.2246 101.934 84.4353 102.08 84.5629 102.293C84.6594 102.453 84.6846 102.693 84.5318 102.802C84.4042 102.891 84.2291 102.837 84.0807 102.79C83.1905 102.508 82.183 102.615 81.3729 103.079C81.0672 103.254 80.4114 103.902 80.2185 103.448C80.0271 102.99 80.447 102.316 81.3402 101.785Z" fill="#DBE2F9"/>
</g>
<g clip-path="url(#clip9_949_987)">
<path d="M68.7596 94.5724C68.7596 94.5724 70.052 94.1792 71.1203 95.3752C72.3622 96.7669 71.7465 98.8917 71.1826 100.467C70.6188 102.043 70.3606 102.609 70.0787 103.945C69.8665 104.945 69.6306 106.726 67.8397 107.305C66.5874 107.708 65.298 106.796 65.298 106.796C65.298 106.796 64.7683 107.388 63.5991 107.529C62.3335 107.68 60.9907 107.287 60.5233 106.183C60.2785 105.606 60.0411 103.756 59.8734 102.579C59.6538 101.036 58.8689 99.3606 58.673 98.0326C58.5068 96.899 58.7858 94.2772 62.3038 94.2074C63.5338 94.1837 64.9167 94.6719 64.9167 94.6719C64.9167 94.6719 65.9998 94.1036 66.8263 94.0116C68.4169 93.8335 68.7596 94.5724 68.7596 94.5724Z" fill="#F68561"/>
<path d="M60.5959 94.5117C61.0499 94.3129 61.593 94.1289 62.5648 94.068C63.9418 93.982 64.9166 94.6705 64.9166 94.6705C64.9166 94.6705 65.9997 94.1022 66.8262 94.0102C68.4183 93.8321 68.9079 94.5399 68.9079 94.5399C68.9079 94.5399 68.6483 94.5844 68.2298 94.7387C67.8901 94.8633 68.0162 95.166 68.2966 95.1942C68.8471 95.2491 69.2967 95.6112 69.3516 95.807C69.3516 95.807 68.4717 95.4287 67.5547 95.718C66.3351 96.1038 66.0057 97.0089 66.0057 97.0089C66.0057 97.0089 65.3187 96.2076 63.6866 95.8367C62.1345 95.4836 61.0188 96.1527 61.0188 96.1527C61.1093 95.761 61.3333 95.5652 61.5336 95.3782C61.8942 95.0414 61.7755 94.7461 61.4075 94.6423C61.1018 94.5562 60.5959 94.5117 60.5959 94.5117Z" fill="#1E4E4E"/>
<path d="M69.0492 89.9076C69.6426 90.4216 68.4303 91.9303 68.1826 91.9451C67.681 91.9733 67.3086 91.365 66.3738 92.2627C65.994 92.6277 65.8456 93.147 65.8575 93.6633C65.862 93.834 65.8204 94.472 66.1201 94.6144C66.2136 94.6589 66.2759 94.6931 66.5667 94.5818C66.8917 94.4572 67.181 94.7658 67.181 94.7658L66.6231 95.4023L65.2417 95.8504L63.8559 95.5744L63.0547 94.8696C63.0547 94.8696 63.4271 94.5803 63.7506 94.696C63.9256 94.7584 64.2639 94.656 64.2654 94.4512C64.2714 94.0194 64.2536 93.6084 64.3337 93.1781C64.4672 92.4674 64.7699 91.7879 65.2551 91.2478C65.951 90.4732 67.172 89.1449 68.1824 88.9817C69.0119 88.8496 69.0626 89.2072 69.0492 89.9076Z" fill="#3D8E53"/>
<path d="M65.7441 90.7987C66.3807 90.312 67.1641 90.0346 67.9579 89.907C68.225 89.8639 68.4268 89.8788 68.5781 89.9396C68.2695 89.947 67.6715 90.0984 66.7056 90.7646C66.0973 91.183 64.8954 92.6861 65.8955 94.2396C65.9222 94.3687 65.9697 94.4859 66.0498 94.5601C65.802 94.4488 65.3183 94.0675 65.2085 93.0526C65.0928 91.9783 65.348 91.2691 65.7441 90.7987Z" fill="#89E159"/>
<path opacity="0.6" d="M66.4326 100.562C66.4445 101.124 66.354 102.379 66.0038 104.167C65.7055 105.69 66.0082 106.795 66.4044 107.289C65.7634 107.115 65.3005 106.798 65.3005 106.798C65.3005 106.798 65.1358 106.187 65.1254 105.562C65.112 104.811 65.4251 103.304 65.7916 102.108C66.0498 101.268 66.1269 100.001 66.1388 99.2886C66.1388 99.2871 66.4118 99.5453 66.4326 100.562Z" fill="#8990A5"/>
<path opacity="0.75" d="M67.2912 98.6213C67.4485 98.6391 67.5909 98.5397 67.7096 98.4432C68.1429 98.0886 68.3892 97.7918 68.8758 97.4966C69.2527 97.2681 69.9961 97.1138 69.7468 96.5306C69.6266 96.2502 69.1652 96.2146 68.8521 96.268C67.7615 96.452 67.2764 97.093 67.0464 97.8942C67.0063 98.0337 66.9529 98.1747 66.984 98.3186C67.0137 98.461 67.1295 98.599 67.2838 98.6213L67.2912 98.6213ZM63.8785 97.0381C63.1604 96.6108 62.101 96.6197 61.2137 97.0737C60.9941 97.1865 60.7834 97.3334 60.6558 97.5455C60.5594 97.7058 60.5341 97.9462 60.687 98.0545C60.8146 98.1435 60.9897 98.0901 61.138 98.0426C62.0283 97.7607 63.0358 97.8675 63.8459 98.3319C64.1515 98.507 64.8074 99.1554 65.0003 98.7014C65.1917 98.2429 64.7718 97.5693 63.8785 97.0381Z" fill="#DBE2F9"/>
</g>
<path d="M56.5857 86.8596C51.8376 82.1107 41.1545 83.2979 37 104.664C53.6181 105.258 63.1142 95.1686 56.5857 86.8596Z" fill="#3D8E53"/>
<path d="M71.4233 91.0137C65.6861 86.4635 63.1142 85.079 56.5857 86.8596M56.5857 86.8596C51.8376 82.1107 41.1545 83.2979 37 104.664C53.6181 105.258 63.1142 95.1686 56.5857 86.8596Z" stroke="#3D8E53" stroke-width="1.56277"/>
<path d="M52.5664 89.1852C51.2668 89.762 47.0212 94.0854 45.3196 97.6367" stroke="#89E159" stroke-width="0.781386"/>
<path d="M63.0885 128.319C61.7571 128.296 58.927 128.246 59.702 131.564C69.6872 131.739 81.088 131.52 83.5843 131.564C85.6894 131.601 83.6136 128.679 82.2268 128.655C80.9418 125.989 77.5792 124.718 76.4601 125.249C73.2187 120.235 71.0656 124.328 69.8323 123.48C67.8586 122.123 63.1465 125.015 63.0885 128.319L63.0885 128.319Z" fill="#1E4E4E"/>
<defs>
<filter id="filter0_f_949_987" x="0.543306" y="7.54331" width="264.913" height="169.913" filterUnits="userSpaceOnUse" color-interpolation-filters="sRGB">
<feFlood flood-opacity="0" result="BackgroundImageFix"/>
<feBlend mode="normal" in="SourceGraphic" in2="BackgroundImageFix" result="shape"/>
<feGaussianBlur stdDeviation="13.2283" result="effect1_foregroundBlur_949_987"/>
</filter>
<clipPath id="clip0_949_987">
<rect width="18.9922" height="18.9922" fill="white" transform="translate(94.2344 34.9814)"/>
</clipPath>
<clipPath id="clip1_949_987">
<rect width="18.9922" height="18.9922" fill="white" transform="matrix(-0.999998 -7.5175e-09 -1.88909e-09 1 98.9844 30.2339)"/>
</clipPath>
<clipPath id="clip2_949_987">
<rect width="18.9922" height="18.9922" fill="white" transform="translate(132.234 93.9814)"/>
</clipPath>
<clipPath id="clip3_949_987">
<rect width="18.9922" height="18.9922" fill="white" transform="matrix(-0.999998 -7.5175e-09 -1.88909e-09 1 136.984 89.2339)"/>
</clipPath>
<clipPath id="clip4_949_987">
<rect width="18.9922" height="18.9922" fill="white" transform="translate(196.234 93.9814)"/>
</clipPath>
<clipPath id="clip5_949_987">
<rect width="18.9922" height="18.9922" fill="white" transform="matrix(-0.999998 -7.5175e-09 -1.88909e-09 1 200.984 89.2339)"/>
</clipPath>
<clipPath id="clip6_949_987">
<rect width="18.9922" height="18.9922" fill="white" transform="translate(164.234 33.9814)"/>
</clipPath>
<clipPath id="clip7_949_987">
<rect width="18.9922" height="18.9922" fill="white" transform="matrix(-0.999998 -7.5175e-09 -1.88909e-09 1 168.984 29.2339)"/>
</clipPath>
<clipPath id="clip8_949_987">
<rect width="18.9922" height="18.9922" fill="white" transform="translate(70.2344 93.9814)"/>
</clipPath>
<clipPath id="clip9_949_987">
<rect width="18.9922" height="18.9922" fill="white" transform="matrix(-0.999998 -7.5175e-09 -1.88909e-09 1 74.9844 89.2339)"/>
</clipPath>
</defs>
</svg>
