<svg width="72" height="72" viewBox="0 0 72 72" fill="none" xmlns="http://www.w3.org/2000/svg">
<g clip-path="url(#clip0_181_518)">
<path d="M48.4086 20.2388C48.4086 20.2388 53.308 18.7482 57.358 23.2819C62.0661 28.5582 59.7317 36.6132 57.5942 42.5869C55.4567 48.5607 54.478 50.7038 53.4092 55.7719C52.6049 59.5632 51.7105 66.3132 44.9211 68.5069C40.1736 70.0369 35.2855 66.5775 35.2855 66.5775C35.2855 66.5775 33.2774 68.8219 28.8449 69.3563C24.0467 69.93 18.9561 68.4394 17.1842 64.2544C16.2561 62.0663 15.3561 55.0519 14.7205 50.5913C13.888 44.7413 10.9124 38.3907 10.1699 33.3563C9.53986 29.0588 10.5974 19.1194 23.9342 18.855C28.5974 18.765 33.8399 20.6157 33.8399 20.6157C33.8399 20.6157 37.9461 18.4613 41.0792 18.1125C47.1092 17.4375 48.4086 20.2388 48.4086 20.2388Z" fill="#F68561"/>
<path d="M17.4543 20.0081C19.1756 19.2543 21.2343 18.5568 24.9187 18.3262C30.1387 18 33.8343 20.61 33.8343 20.61C33.8343 20.61 37.9406 18.4556 41.0737 18.1068C47.1093 17.4318 48.9656 20.115 48.9656 20.115C48.9656 20.115 47.9812 20.2837 46.395 20.8687C45.1068 21.3412 45.585 22.4887 46.6481 22.5956C48.735 22.8037 50.4393 24.1762 50.6475 24.9187C50.6475 24.9187 47.3118 23.4843 43.8356 24.5812C39.2118 26.0437 37.9631 29.475 37.9631 29.475C37.9631 29.475 35.3587 26.4375 29.1712 25.0312C23.2875 23.6925 19.0575 26.2293 19.0575 26.2293C19.4006 24.7443 20.25 24.0018 21.0093 23.2931C22.3762 22.0162 21.9262 20.8968 20.5312 20.5031C19.3725 20.1768 17.4543 20.0081 17.4543 20.0081Z" fill="#1E4E4E"/>
<path d="M49.5007 2.5525C51.7503 4.50098 47.1545 10.2206 46.2151 10.2769C44.3139 10.3838 42.902 8.07751 39.3583 11.4806C37.9183 12.8644 37.3558 14.8331 37.4008 16.7906C37.4176 17.4375 37.2601 19.8563 38.3964 20.3963C38.7508 20.565 38.987 20.6944 40.0895 20.2725C41.3214 19.8 42.4183 20.97 42.4183 20.97L40.3033 23.3831L35.0664 25.0819L29.8126 24.0356L26.7751 21.3638C26.7751 21.3638 28.187 20.2669 29.4133 20.7056C30.077 20.9419 31.3595 20.5538 31.3651 19.7775C31.3876 18.1406 31.3201 16.5825 31.6239 14.9513C32.1301 12.2569 33.2776 9.68063 35.117 7.63313C37.7551 4.69688 42.3841 -0.338889 46.2147 -0.957639C49.3591 -1.45826 49.5513 -0.102499 49.5007 2.5525Z" fill="#3D8E53"/>
<path d="M36.973 5.93438C39.3862 4.08938 42.3562 3.03751 45.3655 2.55376C46.378 2.39063 47.143 2.44688 47.7168 2.67751C46.5468 2.70563 44.2799 3.27938 40.618 5.80501C38.3118 7.39126 33.7555 13.0894 37.5468 18.9788C37.648 19.4681 37.828 19.9125 38.1318 20.1938C37.1924 19.7719 35.3587 18.3263 34.9424 14.4788C34.5037 10.4063 35.4712 7.71751 36.973 5.93438Z" fill="#89E159"/>
<path opacity="0.6" d="M39.5831 42.9413C39.6281 45.0731 39.285 49.8319 37.9575 56.61C36.8269 62.3813 37.9744 66.5719 39.4762 68.445C37.0462 67.7869 35.2912 66.5831 35.2912 66.5831C35.2912 66.5831 34.6669 64.2656 34.6275 61.8975C34.5769 59.0513 35.7637 53.3363 37.1531 48.8025C38.1319 45.6188 38.4244 40.815 38.4694 38.115C38.4694 38.1094 39.5044 39.0881 39.5831 42.9413Z" fill="#8990A5"/>
<path opacity="0.75" d="M42.8343 35.5838C43.4306 35.6513 43.9706 35.2744 44.4206 34.9088C46.0631 33.5644 46.9968 32.4394 48.8418 31.32C50.2706 30.4538 53.0887 29.8688 52.1437 27.6581C51.6881 26.595 49.9387 26.46 48.7518 26.6625C44.6175 27.36 42.7781 29.79 41.9062 32.8275C41.7543 33.3563 41.5518 33.8906 41.67 34.4363C41.7825 34.9763 42.2212 35.4994 42.8062 35.5838L42.8343 35.5838ZM29.8968 29.5819C27.1743 27.9619 23.1581 27.9956 19.7943 29.7169C18.9618 30.1444 18.1631 30.7013 17.6793 31.5056C17.3137 32.1131 17.2181 33.0244 17.7975 33.435C18.2812 33.7725 18.945 33.57 19.5075 33.39C22.8825 32.3213 26.7018 32.7263 29.7731 34.4869C30.9318 35.1506 33.4181 37.6088 34.1493 35.8875C34.875 34.1494 33.2831 31.5956 29.8968 29.5819Z" fill="#DBE2F9"/>
</g>
<defs>
<clipPath id="clip0_181_518">
<rect width="72" height="72" fill="white" transform="matrix(-1 -4.7057e-09 -4.7057e-09 1 72 0)"/>
</clipPath>
</defs>
</svg>
