<svg width="72" height="72" viewBox="0 0 72 72" fill="none" xmlns="http://www.w3.org/2000/svg">
<g clip-path="url(#clip0_781_113903)">
<path d="M48.2365 20.4659C48.2365 20.4659 53.0679 18.9959 57.0616 23.4667C61.7043 28.6697 59.4024 36.6128 57.2946 42.5036C55.1868 48.3944 54.2216 50.5077 53.1677 55.5055C52.3745 59.2441 51.4925 65.9003 44.7975 68.0636C40.1159 69.5723 35.2957 66.161 35.2957 66.161C35.2957 66.161 33.3154 68.3742 28.9445 68.9012C24.213 69.4669 19.1931 67.997 17.4458 63.8702C16.5306 61.7124 15.6431 54.7955 15.0163 50.3968C14.1954 44.628 11.2611 38.3656 10.5289 33.4012C9.90762 29.1634 10.9504 19.362 24.1021 19.1013C28.7004 19.0126 33.8701 20.8375 33.8701 20.8375C33.8701 20.8375 37.9193 18.713 41.0089 18.3691C46.9552 17.7035 48.2365 20.4659 48.2365 20.4659Z" fill="#1E4E4E"/>
<path d="M17.7122 20.2381C19.4096 19.4948 21.4397 18.807 25.0729 18.5796C30.2204 18.2579 33.8647 20.8316 33.8647 20.8316C33.8647 20.8316 37.9139 18.7072 41.0036 18.3633C46.9554 17.6976 48.7858 20.3435 48.7858 20.3435C48.7858 20.3435 47.8151 20.5099 46.2509 21.0868C44.9807 21.5527 45.4521 22.6843 46.5005 22.7897C48.5584 22.9949 50.2391 24.3483 50.4443 25.0805C50.4443 25.0805 47.155 23.6661 43.7271 24.7477C39.1675 26.1899 37.9361 29.5735 37.9361 29.5735C37.9361 29.5735 35.3679 26.5782 29.2664 25.1915C23.4643 23.8713 19.2931 26.3729 19.2931 26.3729C19.6314 24.9086 20.469 24.1764 21.2178 23.4775C22.5657 22.2183 22.122 21.1145 20.7464 20.7262C19.6037 20.4045 17.7122 20.2381 17.7122 20.2381Z" fill="#89E159"/>
<path d="M49.3132 3.02747C51.5315 4.94888 46.9996 10.5891 46.0732 10.6446C44.1984 10.75 42.8061 8.47574 39.3116 11.8316C37.8916 13.1961 37.3369 15.1375 37.3813 17.0678C37.3979 17.7057 37.2426 20.0909 38.3631 20.6234C38.7125 20.7898 38.9455 20.9174 40.0327 20.5014C41.2475 20.0354 42.3291 21.1892 42.3291 21.1892L40.2435 23.5688L35.0793 25.2439L29.8985 24.2122L26.9032 21.5775C26.9032 21.5775 28.2955 20.4958 29.5047 20.9285C30.1592 21.1614 31.4239 20.7787 31.4295 20.0132C31.4517 18.3991 31.3851 16.8626 31.6846 15.254C32.1839 12.5971 33.3154 10.0566 35.1292 8.03754C37.7307 5.14207 42.2954 0.176238 46.0728 -0.433918C49.1735 -0.92759 49.3631 0.409345 49.3132 3.02747Z" fill="#3D8E53"/>
<path d="M36.9594 6.36135C39.339 4.54198 42.2678 3.50471 45.2354 3.02768C46.2338 2.86682 46.9882 2.92229 47.554 3.14971C46.4002 3.17744 44.1648 3.74323 40.5538 6.23377C38.2796 7.79799 33.7866 13.417 37.5252 19.2246C37.625 19.7071 37.8025 20.1453 38.1021 20.4227C37.1758 20.0067 35.3675 18.5811 34.957 14.7871C34.5243 10.7711 35.4784 8.11971 36.9594 6.36135Z" fill="#89E159"/>
<path opacity="0.6" d="M39.5336 42.8549C39.578 44.9572 39.2396 49.6499 37.9306 56.3338C36.8156 62.0249 37.9472 66.1574 39.4282 68.0045C37.032 67.3555 35.3013 66.1685 35.3013 66.1685C35.3013 66.1685 34.6856 63.8831 34.6468 61.5479C34.5969 58.7412 35.7673 53.1056 37.1374 48.6348C38.1025 45.4953 38.3909 40.7582 38.4353 38.0957C38.4353 38.0902 39.4559 39.0553 39.5336 42.8549Z" fill="#8990A5"/>
<path opacity="0.75" d="M42.7395 35.6002C43.3274 35.6668 43.8599 35.2952 44.3037 34.9346C45.9234 33.6089 46.8442 32.4995 48.6635 31.3957C50.0724 30.5415 52.8514 29.9646 51.9195 27.7847C51.4702 26.7363 49.7452 26.6032 48.5748 26.8029C44.4978 27.4907 42.684 29.887 41.8242 32.8823C41.6745 33.4037 41.4748 33.9306 41.5913 34.4687C41.7022 35.0012 42.1349 35.517 42.7117 35.6002L42.7395 35.6002ZM29.9817 29.6817C27.297 28.0842 23.3365 28.1175 20.0195 29.8148C19.1985 30.2364 18.4109 30.7855 17.9338 31.5787C17.5733 32.1778 17.479 33.0764 18.0503 33.4813C18.5274 33.8141 19.1819 33.6145 19.7366 33.437C23.0647 32.383 26.831 32.7824 29.8596 34.5186C31.0023 35.1731 33.454 37.5971 34.1751 35.8998C34.8906 34.1858 33.3209 31.6675 29.9817 29.6817Z" fill="#DBE2F9"/>
</g>
<defs>
<clipPath id="clip0_781_113903">
<rect width="71" height="71" rx="18.9333" transform="matrix(-1 -4.7057e-09 -4.7057e-09 1 71.5 0.509766)" fill="white"/>
</clipPath>
</defs>
</svg>
