<svg width="166" height="127" viewBox="0 0 166 127" fill="none" xmlns="http://www.w3.org/2000/svg">
<g clip-path="url(#clip0_1005_4899)">
<g filter="url(#filter0_f_1005_4899)">
<rect y="34" width="166" height="93" fill="#141B25"/>
</g>
<path d="M56.0488 23.0654C53.9595 25.1547 50.2226 25.7989 42.4922 22.2471C47.2737 17.8422 56.0488 16.3796 56.0488 23.0654C56.0488 18.6779 58.2109 15.9593 66.7439 17.8421C62.9832 20.976 59.3917 25.7538 56.0488 23.0654Z" fill="#3D8E53"/>
<path d="M56.0488 23.0654C53.9595 25.1547 50.2226 25.7989 42.4922 22.2471C47.2737 17.8422 56.0488 16.3796 56.0488 23.0654ZM56.0488 23.0654C56.0488 18.6779 58.2109 15.9593 66.7439 17.8421C62.9832 20.976 59.3917 25.7538 56.0488 23.0654ZM56.0488 23.0654C57.3466 21.394 60.8542 18.4689 62.5256 17.8422M56.0488 23.0654C55.1434 22.2297 50.6081 21.6309 47.4324 21.798M56.0488 23.0654C55.9513 23.4556 55.8993 25.7102 55.8769 28.9949C55.8033 39.7798 56.0488 56.3314 56.0488 59.794" stroke="#3D8E53" stroke-width="2"/>
<path d="M56.8828 22.0208C57.9713 20.6836 61.2983 19.6049 62.7001 19.1035" stroke="#89E159" stroke-width="0.5"/>
<path d="M54.7924 22.4386C53.7172 20.8997 50.1243 20.8999 47.4297 21.7979" stroke="#89E159" stroke-width="0.5"/>
<path d="M70.01 35.2039C67.3382 33.6263 67.6439 31.2294 66.7461 23.1454C72.135 24.9419 76.8091 33.453 70.01 35.2039C74.4719 34.0548 75.7571 32.1378 79.3209 42.4575C75.1489 39.4537 68.1515 39.3075 70.01 35.2039Z" fill="#3D8E53"/>
<path d="M70.01 35.2039C67.3382 33.6263 67.6439 31.2294 66.7461 23.1454C72.135 24.9419 76.8091 33.453 70.01 35.2039ZM70.01 35.2039C74.4719 34.0548 75.7571 32.1378 79.3209 42.4575C75.1489 39.4537 68.1515 39.3075 70.01 35.2039ZM70.01 35.2039C72.0497 36.0859 75.9429 38.8869 77.018 40.4226M70.01 35.2039C70.6228 34.0643 71.0508 28.864 70.0492 25.6782M70.01 35.2039C69.5877 35.2069 60.8553 34.1397 55.3416 40.7719" stroke="#3D8E53"/>
<path d="M72.1504 36.1338C73.5459 36.8297 76.2761 39.0193 77.0755 40.2114" stroke="#89E159" stroke-width="0.5"/>
<path d="M71.1051 34.1551C71.4822 33.1933 69.9243 29.4431 68.99 26.7386" stroke="#89E159" stroke-width="0.5"/>
<g clip-path="url(#clip1_1005_4899)">
<path d="M59.3019 40.0801C59.3019 40.0801 58.4077 39.808 57.6685 40.6355C56.8092 41.5985 57.2353 43.0686 57.6254 44.1589C58.0155 45.2492 58.1942 45.6404 58.3892 46.5654C58.536 47.2573 58.6993 48.4893 59.9384 48.8897C60.8049 49.1689 61.6971 48.5375 61.6971 48.5375C61.6971 48.5375 62.0636 48.9472 62.8726 49.0447C63.7483 49.1494 64.6774 48.8773 65.0008 48.1135C65.1702 47.7142 65.3344 46.4339 65.4504 45.6198C65.6024 44.5521 66.1455 43.393 66.281 42.4742C66.396 41.6898 66.203 39.8758 63.7688 39.8275C62.9177 39.8111 61.9609 40.1489 61.9609 40.1489C61.9609 40.1489 61.2115 39.7557 60.6396 39.692C59.5391 39.5688 59.3019 40.0801 59.3019 40.0801Z" fill="#7CB342"/>
<path d="M64.9527 40.0388C64.6386 39.9012 64.2628 39.7739 63.5904 39.7318C62.6377 39.6722 61.9632 40.1486 61.9632 40.1486C61.9632 40.1486 61.2137 39.7554 60.6419 39.6918C59.5403 39.5686 59.2015 40.0583 59.2015 40.0583C59.2015 40.0583 59.3812 40.0891 59.6707 40.1958C59.9058 40.2821 59.8185 40.4915 59.6245 40.511C59.2436 40.549 58.9325 40.7995 58.8945 40.935C58.8945 40.935 59.5033 40.6732 60.1378 40.8734C60.9817 41.1403 61.2096 41.7666 61.2096 41.7666C61.2096 41.7666 61.6849 41.2122 62.8142 40.9555C63.8881 40.7112 64.6601 41.1742 64.6601 41.1742C64.5975 40.9032 64.4425 40.7677 64.3039 40.6383C64.0544 40.4053 64.1365 40.201 64.3912 40.1291C64.6026 40.0696 64.9527 40.0388 64.9527 40.0388Z" fill="#558B2F"/>
<path d="M59.1488 37.5335C59.1581 38.0242 59.5318 38.2521 59.7032 38.2624C60.0502 38.2819 60.3079 37.861 60.9547 38.4821C61.2175 38.7346 61.3202 39.094 61.312 39.4512C61.3089 39.5693 61.3376 40.0107 61.1303 40.1093C61.0656 40.1401 61.0225 40.1637 60.8212 40.0867C60.5964 40.0005 60.3962 40.214 60.3962 40.214L60.7822 40.6544L61.738 40.9645L62.6969 40.7735L63.2513 40.2859C63.2513 40.2859 62.9936 40.0857 62.7698 40.1658C62.6487 40.2089 62.4146 40.138 62.4136 39.9964C62.4094 39.6976 62.4218 39.4132 62.3663 39.1155C62.2739 38.6237 62.0645 38.1535 61.7288 37.7799C61.2473 37.2439 60.5584 36.9657 59.8593 36.8528C59.2854 36.7614 59.1396 37.0489 59.1488 37.5335Z" fill="#3D8E53"/>
<path d="M61.3906 37.47C60.9501 37.1333 60.4081 36.9413 59.8588 36.853C59.674 36.8232 59.5344 36.8335 59.4297 36.8756C59.6432 36.8807 60.057 36.9854 60.7253 37.4464C61.1462 37.7359 61.9778 38.7759 61.2858 39.8508C61.2674 39.9401 61.2345 40.0212 61.1791 40.0725C61.3505 39.9955 61.6852 39.7317 61.7612 39.0295C61.8413 38.2862 61.6647 37.7954 61.3906 37.47Z" fill="#C4C451"/>
<path opacity="0.6" d="M60.9109 44.2236C60.9026 44.6127 60.9653 45.4813 61.2075 46.7184C61.4139 47.7717 61.2045 48.5365 60.9304 48.8784C61.3739 48.7583 61.6942 48.5386 61.6942 48.5386C61.6942 48.5386 61.8081 48.1156 61.8153 47.6834C61.8246 47.1639 61.6079 46.1209 61.3544 45.2934C61.1757 44.7123 61.1223 43.8356 61.1141 43.3428C61.1141 43.3418 60.9252 43.5204 60.9109 44.2236Z" fill="#33691E"/>
<path opacity="0.75" d="M60.3197 42.881C60.2108 42.8933 60.1123 42.8246 60.0301 42.7578C59.7304 42.5125 59.5599 42.3071 59.2232 42.1028C58.9624 41.9447 58.4481 41.838 58.6206 41.4345C58.7037 41.2404 59.023 41.2158 59.2396 41.2528C59.9942 41.3801 60.3299 41.8236 60.4891 42.378C60.5168 42.4745 60.5537 42.572 60.5322 42.6716C60.5116 42.7701 60.4316 42.8656 60.3248 42.881L60.3197 42.881ZM62.6809 41.7856C63.1778 41.4899 63.9108 41.4961 64.5248 41.8102C64.6767 41.8883 64.8225 41.9899 64.9108 42.1367C64.9775 42.2476 64.995 42.4139 64.8892 42.4888C64.8009 42.5504 64.6798 42.5135 64.5771 42.4806C63.9611 42.2856 63.2641 42.3595 62.7035 42.6808C62.492 42.802 62.0383 43.2506 61.9048 42.9365C61.7724 42.6192 62.0629 42.1531 62.6809 41.7856Z" fill="#BBE68B"/>
</g>
<g clip-path="url(#clip2_1005_4899)">
<path d="M53.9793 36.7949C53.9793 36.7949 54.8735 36.5229 55.6127 37.3503C56.472 38.3133 56.046 39.7835 55.6558 40.8738C55.2657 41.964 55.0871 42.3552 54.892 43.2802C54.7452 43.9721 54.582 45.2041 53.3428 45.6045C52.4763 45.8837 51.5842 45.2524 51.5842 45.2524C51.5842 45.2524 51.2177 45.662 50.4087 45.7595C49.533 45.8642 48.6039 45.5922 48.2805 44.8284C48.1111 44.429 47.9468 43.1488 47.8308 42.3347C47.6789 41.267 47.1358 40.1079 47.0003 39.189C46.8853 38.4047 47.0783 36.5906 49.5124 36.5424C50.3635 36.5259 51.3203 36.8637 51.3203 36.8637C51.3203 36.8637 52.0698 36.4705 52.6416 36.4069C53.7422 36.2837 53.9793 36.7949 53.9793 36.7949Z" fill="#7CB342"/>
<path d="M48.3285 36.7536C48.6427 36.616 49.0184 36.4887 49.6909 36.4466C50.6436 36.3871 51.3181 36.8635 51.3181 36.8635C51.3181 36.8635 52.0675 36.4702 52.6394 36.4066C53.741 36.2834 54.0798 36.7731 54.0798 36.7731C54.0798 36.7731 53.9001 36.8039 53.6106 36.9107C53.3755 36.9969 53.4627 37.2063 53.6568 37.2259C54.0377 37.2638 54.3487 37.5143 54.3867 37.6499C54.3867 37.6499 53.7779 37.3881 53.1435 37.5883C52.2996 37.8552 52.0716 38.4814 52.0716 38.4814C52.0716 38.4814 51.5963 37.927 50.467 37.6704C49.3932 37.426 48.6211 37.8891 48.6211 37.8891C48.6837 37.618 48.8388 37.4825 48.9774 37.3532C49.2268 37.1201 49.1447 36.9158 48.8901 36.8439C48.6786 36.7844 48.3285 36.7536 48.3285 36.7536Z" fill="#558B2F"/>
<path d="M54.1772 33.5676C54.5877 33.9232 53.749 34.9671 53.5775 34.9774C53.2305 34.9969 52.9728 34.576 52.326 35.1971C52.0632 35.4496 51.9606 35.809 51.9688 36.1662C51.9718 36.2843 51.9431 36.7258 52.1505 36.8243C52.2152 36.8551 52.2583 36.8787 52.4595 36.8017C52.6843 36.7155 52.8845 36.929 52.8845 36.929L52.4985 37.3695L51.5427 37.6795L50.5838 37.4885L50.0294 37.0009C50.0294 37.0009 50.2871 36.8007 50.5109 36.8808C50.6321 36.9239 50.8662 36.8531 50.8672 36.7114C50.8713 36.4126 50.859 36.1283 50.9144 35.8305C51.0068 35.3388 51.2162 34.8686 51.552 34.4949C52.0334 33.959 52.8783 33.0399 53.5774 32.9269C54.1513 32.8356 54.1864 33.083 54.1772 33.5676Z" fill="#3D8E53"/>
<path d="M51.8907 34.1848C52.3311 33.8481 52.8732 33.6561 53.4224 33.5678C53.6072 33.5381 53.7468 33.5483 53.8516 33.5904C53.638 33.5956 53.2243 33.7003 52.5559 34.1612C52.135 34.4507 51.3034 35.4907 51.9954 36.5656C52.0139 36.6549 52.0467 36.736 52.1022 36.7874C51.9307 36.7104 51.596 36.4465 51.5201 35.7443C51.44 35.001 51.6166 34.5103 51.8907 34.1848Z" fill="#C4C451"/>
<path opacity="0.6" d="M52.3704 40.9385C52.3786 41.3276 52.316 42.1961 52.0737 43.4332C51.8673 44.4865 52.0768 45.2514 52.3509 45.5933C51.9074 45.4731 51.5871 45.2534 51.5871 45.2534C51.5871 45.2534 51.4731 44.8305 51.4659 44.3982C51.4567 43.8788 51.6733 42.8357 51.9269 42.0082C52.1055 41.4272 52.1589 40.5504 52.1671 40.0576C52.1671 40.0566 52.356 40.2352 52.3704 40.9385Z" fill="#33691E"/>
<path opacity="0.75" d="M52.9616 39.5959C53.0704 39.6082 53.169 39.5394 53.2511 39.4727C53.5509 39.2273 53.7213 39.022 54.058 38.8177C54.3188 38.6596 54.8332 38.5528 54.6607 38.1493C54.5775 37.9553 54.2582 37.9307 54.0416 37.9676C53.287 38.0949 52.9513 38.5384 52.7922 39.0928C52.7645 39.1893 52.7275 39.2868 52.7491 39.3864C52.7696 39.485 52.8497 39.5805 52.9565 39.5959L52.9616 39.5959ZM50.6003 38.5004C50.1034 38.2048 49.3704 38.2109 48.7565 38.5251C48.6045 38.6031 48.4588 38.7047 48.3705 38.8515C48.3037 38.9624 48.2863 39.1287 48.392 39.2037C48.4803 39.2653 48.6015 39.2283 48.7041 39.1955C49.3201 39.0004 50.0172 39.0743 50.5777 39.3957C50.7892 39.5168 51.243 39.9655 51.3765 39.6513C51.5089 39.3341 51.2184 38.868 50.6003 38.5004Z" fill="#BBE68B"/>
</g>
<path d="M45.5516 31.4596C42.2664 28.1738 34.8746 28.9952 32 43.7788C43.4983 44.1898 50.0688 37.2087 45.5516 31.4596Z" fill="#3D8E53"/>
<path d="M55.818 34.3339C51.8483 31.1855 50.0688 30.2276 45.5516 31.4596M45.5516 31.4596C42.2664 28.1738 34.8746 28.9952 32 43.7788C43.4983 44.1898 50.0688 37.2087 45.5516 31.4596Z" stroke="#3D8E53"/>
<path d="M42.7718 33.0695C41.8726 33.4685 38.935 36.4599 37.7576 38.9172" stroke="#89E159" stroke-width="0.5"/>
<path d="M50.0518 60.1464C49.1306 60.1302 47.1724 60.0958 47.7087 62.3918C54.6176 62.5132 62.506 62.3615 64.2332 62.3918C65.6897 62.4174 64.2535 60.3958 63.2939 60.3789C62.4048 58.534 60.0782 57.6548 59.3038 58.0223C57.0611 54.553 55.5713 57.3851 54.718 56.7985C53.3523 55.8597 50.0919 57.8605 50.0518 60.1464L50.0518 60.1464Z" fill="#1E4E4E"/>
<path d="M83.0488 71.0654C80.9595 73.1547 77.2226 73.7989 69.4922 70.2471C74.2737 65.8422 83.0488 64.3796 83.0488 71.0654C83.0488 66.6779 85.2109 63.9593 93.7439 65.8421C89.9832 68.976 86.3917 73.7538 83.0488 71.0654Z" fill="#3D8E53"/>
<path d="M83.0488 71.0654C80.9595 73.1547 77.2226 73.7989 69.4922 70.2471C74.2737 65.8422 83.0488 64.3796 83.0488 71.0654ZM83.0488 71.0654C83.0488 66.6779 85.2109 63.9593 93.7439 65.8421C89.9832 68.976 86.3917 73.7538 83.0488 71.0654ZM83.0488 71.0654C84.3466 69.394 87.8542 66.4689 89.5256 65.8422M83.0488 71.0654C82.1434 70.2297 77.6081 69.6309 74.4324 69.798M83.0488 71.0654C82.9513 71.4556 82.8993 73.7102 82.8769 76.9949C82.8033 87.7798 83.0488 104.331 83.0488 107.794" stroke="#3D8E53" stroke-width="2"/>
<path d="M83.8828 70.0208C84.9713 68.6836 88.2983 67.6049 89.7001 67.1035" stroke="#89E159" stroke-width="0.5"/>
<path d="M81.7924 70.4386C80.7172 68.8997 77.1243 68.8999 74.4297 69.7979" stroke="#89E159" stroke-width="0.5"/>
<path d="M97.01 83.2039C94.3382 81.6263 94.6439 79.2294 93.7461 71.1454C99.135 72.9419 103.809 81.453 97.01 83.2039C101.472 82.0548 102.757 80.1378 106.321 90.4575C102.149 87.4537 95.1515 87.3075 97.01 83.2039Z" fill="#3D8E53"/>
<path d="M97.01 83.2039C94.3382 81.6263 94.6439 79.2294 93.7461 71.1454C99.135 72.9419 103.809 81.453 97.01 83.2039ZM97.01 83.2039C101.472 82.0548 102.757 80.1378 106.321 90.4575C102.149 87.4537 95.1515 87.3075 97.01 83.2039ZM97.01 83.2039C99.0497 84.0859 102.943 86.8869 104.018 88.4226M97.01 83.2039C97.6228 82.0643 98.0508 76.864 97.0492 73.6782M97.01 83.2039C96.5877 83.2069 87.8553 82.1397 82.3416 88.7719" stroke="#3D8E53"/>
<path d="M99.1504 84.1338C100.546 84.8297 103.276 87.0193 104.075 88.2114" stroke="#89E159" stroke-width="0.5"/>
<path d="M98.1051 82.1551C98.4822 81.1933 96.9243 77.4431 95.99 74.7386" stroke="#89E159" stroke-width="0.5"/>
<g clip-path="url(#clip3_1005_4899)">
<path d="M86.3019 88.0801C86.3019 88.0801 85.4077 87.808 84.6685 88.6355C83.8092 89.5985 84.2353 91.0686 84.6254 92.1589C85.0155 93.2492 85.1942 93.6404 85.3892 94.5654C85.536 95.2573 85.6993 96.4893 86.9384 96.8897C87.8049 97.1689 88.6971 96.5375 88.6971 96.5375C88.6971 96.5375 89.0636 96.9472 89.8726 97.0447C90.7483 97.1494 91.6774 96.8773 92.0008 96.1135C92.1702 95.7142 92.3344 94.4339 92.4504 93.6198C92.6024 92.5521 93.1455 91.393 93.281 90.4742C93.396 89.6898 93.203 87.8758 90.7688 87.8275C89.9177 87.8111 88.9609 88.1489 88.9609 88.1489C88.9609 88.1489 88.2115 87.7557 87.6396 87.692C86.5391 87.5688 86.3019 88.0801 86.3019 88.0801Z" fill="#7CB342"/>
<path d="M91.9527 88.0388C91.6386 87.9012 91.2628 87.7739 90.5904 87.7318C89.6377 87.6722 88.9632 88.1486 88.9632 88.1486C88.9632 88.1486 88.2137 87.7554 87.6419 87.6918C86.5403 87.5686 86.2015 88.0583 86.2015 88.0583C86.2015 88.0583 86.3812 88.0891 86.6707 88.1958C86.9058 88.2821 86.8185 88.4915 86.6245 88.511C86.2436 88.549 85.9325 88.7995 85.8945 88.935C85.8945 88.935 86.5033 88.6732 87.1378 88.8734C87.9817 89.1403 88.2096 89.7666 88.2096 89.7666C88.2096 89.7666 88.6849 89.2122 89.8142 88.9555C90.8881 88.7112 91.6601 89.1742 91.6601 89.1742C91.5975 88.9032 91.4425 88.7677 91.3039 88.6383C91.0544 88.4053 91.1365 88.201 91.3912 88.1291C91.6026 88.0696 91.9527 88.0388 91.9527 88.0388Z" fill="#558B2F"/>
<path d="M86.1488 85.5335C86.1581 86.0242 86.5318 86.2521 86.7032 86.2624C87.0502 86.2819 87.3079 85.861 87.9547 86.4821C88.2175 86.7346 88.3202 87.094 88.312 87.4512C88.3089 87.5693 88.3376 88.0107 88.1303 88.1093C88.0656 88.1401 88.0225 88.1637 87.8212 88.0867C87.5964 88.0005 87.3962 88.214 87.3962 88.214L87.7822 88.6544L88.738 88.9645L89.6969 88.7735L90.2513 88.2859C90.2513 88.2859 89.9936 88.0857 89.7698 88.1658C89.6487 88.2089 89.4146 88.138 89.4136 87.9964C89.4094 87.6976 89.4218 87.4132 89.3663 87.1155C89.2739 86.6237 89.0645 86.1535 88.7288 85.7799C88.2473 85.2439 87.5584 84.9657 86.8593 84.8528C86.2854 84.7614 86.1396 85.0489 86.1488 85.5335Z" fill="#3D8E53"/>
<path d="M88.3906 85.47C87.9501 85.1333 87.4081 84.9413 86.8588 84.853C86.674 84.8232 86.5344 84.8335 86.4297 84.8756C86.6432 84.8807 87.057 84.9854 87.7253 85.4464C88.1462 85.7359 88.9778 86.7759 88.2858 87.8508C88.2674 87.9401 88.2345 88.0212 88.1791 88.0725C88.3505 87.9955 88.6852 87.7317 88.7612 87.0295C88.8413 86.2862 88.6647 85.7954 88.3906 85.47Z" fill="#C4C451"/>
<path opacity="0.6" d="M87.9109 92.2236C87.9026 92.6127 87.9653 93.4813 88.2075 94.7184C88.4139 95.7717 88.2045 96.5365 87.9304 96.8784C88.3739 96.7583 88.6942 96.5386 88.6942 96.5386C88.6942 96.5386 88.8081 96.1156 88.8153 95.6834C88.8246 95.1639 88.6079 94.1209 88.3544 93.2934C88.1757 92.7123 88.1223 91.8356 88.1141 91.3428C88.1141 91.3418 87.9252 91.5204 87.9109 92.2236Z" fill="#33691E"/>
<path opacity="0.75" d="M87.3197 90.881C87.2108 90.8933 87.1123 90.8246 87.0301 90.7578C86.7304 90.5125 86.5599 90.3071 86.2232 90.1028C85.9624 89.9447 85.4481 89.838 85.6206 89.4345C85.7037 89.2404 86.023 89.2158 86.2396 89.2528C86.9942 89.3801 87.3299 89.8236 87.4891 90.378C87.5168 90.4745 87.5537 90.572 87.5322 90.6716C87.5116 90.7701 87.4316 90.8656 87.3248 90.881L87.3197 90.881ZM89.6809 89.7856C90.1778 89.4899 90.9108 89.4961 91.5248 89.8102C91.6767 89.8883 91.8225 89.9899 91.9108 90.1367C91.9775 90.2476 91.995 90.4139 91.8892 90.4888C91.8009 90.5504 91.6798 90.5135 91.5771 90.4806C90.9611 90.2856 90.2641 90.3595 89.7035 90.6808C89.492 90.802 89.0383 91.2506 88.9048 90.9365C88.7724 90.6192 89.0629 90.1531 89.6809 89.7856Z" fill="#BBE68B"/>
</g>
<g clip-path="url(#clip4_1005_4899)">
<path d="M80.9793 84.7949C80.9793 84.7949 81.8735 84.5229 82.6127 85.3503C83.472 86.3133 83.046 87.7835 82.6558 88.8738C82.2657 89.964 82.0871 90.3552 81.892 91.2802C81.7452 91.9721 81.582 93.2041 80.3428 93.6045C79.4763 93.8837 78.5842 93.2524 78.5842 93.2524C78.5842 93.2524 78.2177 93.662 77.4087 93.7595C76.533 93.8642 75.6039 93.5922 75.2805 92.8284C75.1111 92.429 74.9468 91.1488 74.8308 90.3347C74.6789 89.267 74.1358 88.1079 74.0003 87.189C73.8853 86.4047 74.0783 84.5906 76.5124 84.5424C77.3635 84.5259 78.3203 84.8637 78.3203 84.8637C78.3203 84.8637 79.0698 84.4705 79.6416 84.4069C80.7422 84.2837 80.9793 84.7949 80.9793 84.7949Z" fill="#7CB342"/>
<path d="M75.3285 84.7536C75.6427 84.616 76.0184 84.4887 76.6909 84.4466C77.6436 84.3871 78.3181 84.8635 78.3181 84.8635C78.3181 84.8635 79.0675 84.4702 79.6394 84.4066C80.741 84.2834 81.0798 84.7731 81.0798 84.7731C81.0798 84.7731 80.9001 84.8039 80.6106 84.9107C80.3755 84.9969 80.4627 85.2063 80.6568 85.2259C81.0377 85.2638 81.3487 85.5143 81.3867 85.6499C81.3867 85.6499 80.7779 85.3881 80.1435 85.5883C79.2996 85.8552 79.0716 86.4814 79.0716 86.4814C79.0716 86.4814 78.5963 85.927 77.467 85.6704C76.3932 85.426 75.6211 85.8891 75.6211 85.8891C75.6837 85.618 75.8388 85.4825 75.9774 85.3532C76.2268 85.1201 76.1447 84.9158 75.8901 84.8439C75.6786 84.7844 75.3285 84.7536 75.3285 84.7536Z" fill="#558B2F"/>
<path d="M81.1772 81.5676C81.5877 81.9232 80.749 82.9671 80.5775 82.9774C80.2305 82.9969 79.9728 82.576 79.326 83.1971C79.0632 83.4496 78.9606 83.809 78.9688 84.1662C78.9718 84.2843 78.9431 84.7258 79.1505 84.8243C79.2152 84.8551 79.2583 84.8787 79.4595 84.8017C79.6843 84.7155 79.8845 84.929 79.8845 84.929L79.4985 85.3695L78.5427 85.6795L77.5838 85.4885L77.0294 85.0009C77.0294 85.0009 77.2871 84.8007 77.5109 84.8808C77.6321 84.9239 77.8662 84.8531 77.8672 84.7114C77.8713 84.4126 77.859 84.1283 77.9144 83.8305C78.0068 83.3388 78.2162 82.8686 78.552 82.4949C79.0334 81.959 79.8783 81.0399 80.5774 80.9269C81.1513 80.8356 81.1864 81.083 81.1772 81.5676Z" fill="#3D8E53"/>
<path d="M78.8907 82.1848C79.3311 81.8481 79.8732 81.6561 80.4224 81.5678C80.6072 81.5381 80.7468 81.5483 80.8516 81.5904C80.638 81.5956 80.2243 81.7003 79.5559 82.1612C79.135 82.4507 78.3034 83.4907 78.9954 84.5656C79.0139 84.6549 79.0467 84.736 79.1022 84.7874C78.9307 84.7104 78.596 84.4465 78.5201 83.7443C78.44 83.001 78.6166 82.5103 78.8907 82.1848Z" fill="#C4C451"/>
<path opacity="0.6" d="M79.3704 88.9385C79.3786 89.3276 79.316 90.1961 79.0737 91.4332C78.8673 92.4865 79.0768 93.2514 79.3509 93.5933C78.9074 93.4731 78.5871 93.2534 78.5871 93.2534C78.5871 93.2534 78.4731 92.8305 78.4659 92.3982C78.4567 91.8788 78.6733 90.8357 78.9269 90.0082C79.1055 89.4272 79.1589 88.5504 79.1671 88.0576C79.1671 88.0566 79.356 88.2352 79.3704 88.9385Z" fill="#33691E"/>
<path opacity="0.75" d="M79.9616 87.5959C80.0704 87.6082 80.169 87.5394 80.2511 87.4727C80.5509 87.2273 80.7213 87.022 81.058 86.8177C81.3188 86.6596 81.8332 86.5528 81.6607 86.1493C81.5775 85.9553 81.2582 85.9307 81.0416 85.9676C80.287 86.0949 79.9513 86.5384 79.7922 87.0928C79.7645 87.1893 79.7275 87.2868 79.7491 87.3864C79.7696 87.485 79.8497 87.5805 79.9565 87.5959L79.9616 87.5959ZM77.6003 86.5004C77.1034 86.2048 76.3704 86.2109 75.7565 86.5251C75.6045 86.6031 75.4588 86.7047 75.3705 86.8515C75.3037 86.9624 75.2863 87.1287 75.392 87.2037C75.4803 87.2653 75.6015 87.2283 75.7041 87.1955C76.3201 87.0004 77.0172 87.0743 77.5777 87.3957C77.7892 87.5168 78.243 87.9655 78.3765 87.6513C78.5089 87.3341 78.2184 86.868 77.6003 86.5004Z" fill="#BBE68B"/>
</g>
<path d="M72.5516 79.4596C69.2664 76.1738 61.8746 76.9952 59 91.7788C70.4983 92.1898 77.0688 85.2087 72.5516 79.4596Z" fill="#3D8E53"/>
<path d="M82.818 82.3339C78.8483 79.1855 77.0688 78.2276 72.5516 79.4596M72.5516 79.4596C69.2664 76.1738 61.8746 76.9952 59 91.7788C70.4983 92.1898 77.0688 85.2087 72.5516 79.4596Z" stroke="#3D8E53"/>
<path d="M69.7718 81.0695C68.8726 81.4685 65.935 84.4599 64.7576 86.9172" stroke="#89E159" stroke-width="0.5"/>
<path d="M77.0518 108.146C76.1306 108.13 74.1724 108.096 74.7087 110.392C81.6176 110.513 89.506 110.362 91.2332 110.392C92.6897 110.417 91.2535 108.396 90.2939 108.379C89.4048 106.534 87.0782 105.655 86.3038 106.022C84.0611 102.553 82.5713 105.385 81.718 104.798C80.3523 103.86 77.0919 105.861 77.0518 108.146L77.0518 108.146Z" fill="#1E4E4E"/>
<path d="M130.049 71.0654C127.96 73.1547 124.223 73.7989 116.492 70.2471C121.274 65.8422 130.049 64.3796 130.049 71.0654C130.049 66.6779 132.211 63.9593 140.744 65.8421C136.983 68.976 133.392 73.7538 130.049 71.0654Z" fill="#3D8E53"/>
<path d="M130.049 71.0654C127.96 73.1547 124.223 73.7989 116.492 70.2471C121.274 65.8422 130.049 64.3796 130.049 71.0654ZM130.049 71.0654C130.049 66.6779 132.211 63.9593 140.744 65.8421C136.983 68.976 133.392 73.7538 130.049 71.0654ZM130.049 71.0654C131.347 69.394 134.854 66.4689 136.526 65.8422M130.049 71.0654C129.143 70.2297 124.608 69.6309 121.432 69.798M130.049 71.0654C129.951 71.4556 129.899 73.7102 129.877 76.9949C129.803 87.7798 130.049 104.331 130.049 107.794" stroke="#3D8E53" stroke-width="2"/>
<path d="M130.883 70.0208C131.971 68.6836 135.298 67.6049 136.7 67.1035" stroke="#89E159" stroke-width="0.5"/>
<path d="M128.792 70.4386C127.717 68.8997 124.124 68.8999 121.43 69.7979" stroke="#89E159" stroke-width="0.5"/>
<path d="M144.01 83.2039C141.338 81.6263 141.644 79.2294 140.746 71.1454C146.135 72.9419 150.809 81.453 144.01 83.2039C148.472 82.0548 149.757 80.1378 153.321 90.4575C149.149 87.4537 142.152 87.3075 144.01 83.2039Z" fill="#3D8E53"/>
<path d="M144.01 83.2039C141.338 81.6263 141.644 79.2294 140.746 71.1454C146.135 72.9419 150.809 81.453 144.01 83.2039ZM144.01 83.2039C148.472 82.0548 149.757 80.1378 153.321 90.4575C149.149 87.4537 142.152 87.3075 144.01 83.2039ZM144.01 83.2039C146.05 84.0859 149.943 86.8869 151.018 88.4226M144.01 83.2039C144.623 82.0643 145.051 76.864 144.049 73.6782M144.01 83.2039C143.588 83.2069 134.855 82.1397 129.342 88.7719" stroke="#3D8E53"/>
<path d="M146.15 84.1338C147.546 84.8297 150.276 87.0193 151.075 88.2114" stroke="#89E159" stroke-width="0.5"/>
<path d="M145.105 82.1551C145.482 81.1933 143.924 77.4431 142.99 74.7386" stroke="#89E159" stroke-width="0.5"/>
<g clip-path="url(#clip5_1005_4899)">
<path d="M133.302 88.0801C133.302 88.0801 132.408 87.808 131.669 88.6355C130.809 89.5985 131.235 91.0686 131.625 92.1589C132.016 93.2492 132.194 93.6404 132.389 94.5654C132.536 95.2573 132.699 96.4893 133.938 96.8897C134.805 97.1689 135.697 96.5375 135.697 96.5375C135.697 96.5375 136.064 96.9472 136.873 97.0447C137.748 97.1494 138.677 96.8773 139.001 96.1135C139.17 95.7142 139.334 94.4339 139.45 93.6198C139.602 92.5521 140.145 91.393 140.281 90.4742C140.396 89.6898 140.203 87.8758 137.769 87.8275C136.918 87.8111 135.961 88.1489 135.961 88.1489C135.961 88.1489 135.211 87.7557 134.64 87.692C133.539 87.5688 133.302 88.0801 133.302 88.0801Z" fill="#7CB342"/>
<path d="M138.953 88.0388C138.639 87.9012 138.263 87.7739 137.59 87.7318C136.638 87.6722 135.963 88.1486 135.963 88.1486C135.963 88.1486 135.214 87.7554 134.642 87.6918C133.54 87.5686 133.201 88.0583 133.201 88.0583C133.201 88.0583 133.381 88.0891 133.671 88.1958C133.906 88.2821 133.819 88.4915 133.624 88.511C133.244 88.549 132.933 88.7995 132.895 88.935C132.895 88.935 133.503 88.6732 134.138 88.8734C134.982 89.1403 135.21 89.7666 135.21 89.7666C135.21 89.7666 135.685 89.2122 136.814 88.9555C137.888 88.7112 138.66 89.1742 138.66 89.1742C138.598 88.9032 138.442 88.7677 138.304 88.6383C138.054 88.4053 138.137 88.201 138.391 88.1291C138.603 88.0696 138.953 88.0388 138.953 88.0388Z" fill="#558B2F"/>
<path d="M133.149 85.5335C133.158 86.0242 133.532 86.2521 133.703 86.2624C134.05 86.2819 134.308 85.861 134.955 86.4821C135.218 86.7346 135.32 87.094 135.312 87.4512C135.309 87.5693 135.338 88.0107 135.13 88.1093C135.066 88.1401 135.022 88.1637 134.821 88.0867C134.596 88.0005 134.396 88.214 134.396 88.214L134.782 88.6544L135.738 88.9645L136.697 88.7735L137.251 88.2859C137.251 88.2859 136.994 88.0857 136.77 88.1658C136.649 88.2089 136.415 88.138 136.414 87.9964C136.409 87.6976 136.422 87.4132 136.366 87.1155C136.274 86.6237 136.064 86.1535 135.729 85.7799C135.247 85.2439 134.558 84.9657 133.859 84.8528C133.285 84.7614 133.14 85.0489 133.149 85.5335Z" fill="#3D8E53"/>
<path d="M135.391 85.47C134.95 85.1333 134.408 84.9413 133.859 84.853C133.674 84.8232 133.534 84.8335 133.43 84.8756C133.643 84.8807 134.057 84.9854 134.725 85.4464C135.146 85.7359 135.978 86.7759 135.286 87.8508C135.267 87.9401 135.235 88.0212 135.179 88.0725C135.351 87.9955 135.685 87.7317 135.761 87.0295C135.841 86.2862 135.665 85.7954 135.391 85.47Z" fill="#C4C451"/>
<path opacity="0.6" d="M134.911 92.2236C134.903 92.6127 134.965 93.4813 135.208 94.7184C135.414 95.7717 135.204 96.5365 134.93 96.8784C135.374 96.7583 135.694 96.5386 135.694 96.5386C135.694 96.5386 135.808 96.1156 135.815 95.6834C135.825 95.1639 135.608 94.1209 135.354 93.2934C135.176 92.7123 135.122 91.8356 135.114 91.3428C135.114 91.3418 134.925 91.5204 134.911 92.2236Z" fill="#33691E"/>
<path opacity="0.75" d="M134.32 90.881C134.211 90.8933 134.112 90.8246 134.03 90.7578C133.73 90.5125 133.56 90.3071 133.223 90.1028C132.962 89.9447 132.448 89.838 132.621 89.4345C132.704 89.2404 133.023 89.2158 133.24 89.2528C133.994 89.3801 134.33 89.8236 134.489 90.378C134.517 90.4745 134.554 90.572 134.532 90.6716C134.512 90.7701 134.432 90.8656 134.325 90.881L134.32 90.881ZM136.681 89.7856C137.178 89.4899 137.911 89.4961 138.525 89.8102C138.677 89.8883 138.822 89.9899 138.911 90.1367C138.978 90.2476 138.995 90.4139 138.889 90.4888C138.801 90.5504 138.68 90.5135 138.577 90.4806C137.961 90.2856 137.264 90.3595 136.704 90.6808C136.492 90.802 136.038 91.2506 135.905 90.9365C135.772 90.6192 136.063 90.1531 136.681 89.7856Z" fill="#BBE68B"/>
</g>
<g clip-path="url(#clip6_1005_4899)">
<path d="M127.979 84.7949C127.979 84.7949 128.874 84.5229 129.613 85.3503C130.472 86.3133 130.046 87.7835 129.656 88.8738C129.266 89.964 129.087 90.3552 128.892 91.2802C128.745 91.9721 128.582 93.2041 127.343 93.6045C126.476 93.8837 125.584 93.2524 125.584 93.2524C125.584 93.2524 125.218 93.662 124.409 93.7595C123.533 93.8642 122.604 93.5922 122.28 92.8284C122.111 92.429 121.947 91.1488 121.831 90.3347C121.679 89.267 121.136 88.1079 121 87.189C120.885 86.4047 121.078 84.5906 123.512 84.5424C124.364 84.5259 125.32 84.8637 125.32 84.8637C125.32 84.8637 126.07 84.4705 126.642 84.4069C127.742 84.2837 127.979 84.7949 127.979 84.7949Z" fill="#7CB342"/>
<path d="M122.329 84.7536C122.643 84.616 123.018 84.4887 123.691 84.4466C124.644 84.3871 125.318 84.8635 125.318 84.8635C125.318 84.8635 126.068 84.4702 126.639 84.4066C127.741 84.2834 128.08 84.7731 128.08 84.7731C128.08 84.7731 127.9 84.8039 127.611 84.9107C127.375 84.9969 127.463 85.2063 127.657 85.2259C128.038 85.2638 128.349 85.5143 128.387 85.6499C128.387 85.6499 127.778 85.3881 127.143 85.5883C126.3 85.8552 126.072 86.4814 126.072 86.4814C126.072 86.4814 125.596 85.927 124.467 85.6704C123.393 85.426 122.621 85.8891 122.621 85.8891C122.684 85.618 122.839 85.4825 122.977 85.3532C123.227 85.1201 123.145 84.9158 122.89 84.8439C122.679 84.7844 122.329 84.7536 122.329 84.7536Z" fill="#558B2F"/>
<path d="M128.177 81.5676C128.588 81.9232 127.749 82.9671 127.578 82.9774C127.231 82.9969 126.973 82.576 126.326 83.1971C126.063 83.4496 125.961 83.809 125.969 84.1662C125.972 84.2843 125.943 84.7258 126.15 84.8243C126.215 84.8551 126.258 84.8787 126.459 84.8017C126.684 84.7155 126.885 84.929 126.885 84.929L126.499 85.3695L125.543 85.6795L124.584 85.4885L124.029 85.0009C124.029 85.0009 124.287 84.8007 124.511 84.8808C124.632 84.9239 124.866 84.8531 124.867 84.7114C124.871 84.4126 124.859 84.1283 124.914 83.8305C125.007 83.3388 125.216 82.8686 125.552 82.4949C126.033 81.959 126.878 81.0399 127.577 80.9269C128.151 80.8356 128.186 81.083 128.177 81.5676Z" fill="#3D8E53"/>
<path d="M125.891 82.1848C126.331 81.8481 126.873 81.6561 127.422 81.5678C127.607 81.5381 127.747 81.5483 127.852 81.5904C127.638 81.5956 127.224 81.7003 126.556 82.1612C126.135 82.4507 125.303 83.4907 125.995 84.5656C126.014 84.6549 126.047 84.736 126.102 84.7874C125.931 84.7104 125.596 84.4465 125.52 83.7443C125.44 83.001 125.617 82.5103 125.891 82.1848Z" fill="#C4C451"/>
<path opacity="0.6" d="M126.37 88.9385C126.379 89.3276 126.316 90.1961 126.074 91.4332C125.867 92.4865 126.077 93.2514 126.351 93.5933C125.907 93.4731 125.587 93.2534 125.587 93.2534C125.587 93.2534 125.473 92.8305 125.466 92.3982C125.457 91.8788 125.673 90.8357 125.927 90.0082C126.106 89.4272 126.159 88.5504 126.167 88.0576C126.167 88.0566 126.356 88.2352 126.37 88.9385Z" fill="#33691E"/>
<path opacity="0.75" d="M126.962 87.5959C127.07 87.6082 127.169 87.5394 127.251 87.4727C127.551 87.2273 127.721 87.022 128.058 86.8177C128.319 86.6596 128.833 86.5528 128.661 86.1493C128.578 85.9553 128.258 85.9307 128.042 85.9676C127.287 86.0949 126.951 86.5384 126.792 87.0928C126.764 87.1893 126.728 87.2868 126.749 87.3864C126.77 87.485 126.85 87.5805 126.956 87.5959L126.962 87.5959ZM124.6 86.5004C124.103 86.2048 123.37 86.2109 122.756 86.5251C122.605 86.6031 122.459 86.7047 122.37 86.8515C122.304 86.9624 122.286 87.1287 122.392 87.2037C122.48 87.2653 122.601 87.2283 122.704 87.1955C123.32 87.0004 124.017 87.0743 124.578 87.3957C124.789 87.5168 125.243 87.9655 125.376 87.6513C125.509 87.3341 125.218 86.868 124.6 86.5004Z" fill="#BBE68B"/>
</g>
<path d="M119.552 79.4596C116.266 76.1738 108.875 76.9952 106 91.7788C117.498 92.1898 124.069 85.2087 119.552 79.4596Z" fill="#3D8E53"/>
<path d="M129.818 82.3339C125.848 79.1855 124.069 78.2276 119.552 79.4596M119.552 79.4596C116.266 76.1738 108.875 76.9952 106 91.7788C117.498 92.1898 124.069 85.2087 119.552 79.4596Z" stroke="#3D8E53"/>
<path d="M116.772 81.0695C115.873 81.4685 112.935 84.4599 111.758 86.9172" stroke="#89E159" stroke-width="0.5"/>
<path d="M124.052 108.146C123.131 108.13 121.172 108.096 121.709 110.392C128.618 110.513 136.506 110.362 138.233 110.392C139.69 110.417 138.253 108.396 137.294 108.379C136.405 106.534 134.078 105.655 133.304 106.022C131.061 102.553 129.571 105.385 128.718 104.798C127.352 103.86 124.092 105.861 124.052 108.146L124.052 108.146Z" fill="#1E4E4E"/>
<path d="M107.049 22.0654C104.96 24.1547 101.223 24.7989 93.4922 21.2471C98.2737 16.8422 107.049 15.3796 107.049 22.0654C107.049 17.6779 109.211 14.9593 117.744 16.8421C113.983 19.976 110.392 24.7538 107.049 22.0654Z" fill="#3D8E53"/>
<path d="M107.049 22.0654C104.96 24.1547 101.223 24.7989 93.4922 21.2471C98.2737 16.8422 107.049 15.3796 107.049 22.0654ZM107.049 22.0654C107.049 17.6779 109.211 14.9593 117.744 16.8421C113.983 19.976 110.392 24.7538 107.049 22.0654ZM107.049 22.0654C108.347 20.394 111.854 17.4689 113.526 16.8422M107.049 22.0654C106.143 21.2297 101.608 20.6309 98.4324 20.798M107.049 22.0654C106.951 22.4556 106.899 24.7102 106.877 27.9949C106.803 38.7798 107.049 55.3314 107.049 58.794" stroke="#3D8E53" stroke-width="2"/>
<path d="M107.883 21.0208C108.971 19.6836 112.298 18.6049 113.7 18.1035" stroke="#89E159" stroke-width="0.5"/>
<path d="M105.792 21.4386C104.717 19.8997 101.124 19.8999 98.4297 20.7979" stroke="#89E159" stroke-width="0.5"/>
<path d="M121.01 34.2039C118.338 32.6263 118.644 30.2294 117.746 22.1454C123.135 23.9419 127.809 32.453 121.01 34.2039C125.472 33.0548 126.757 31.1378 130.321 41.4575C126.149 38.4537 119.152 38.3075 121.01 34.2039Z" fill="#3D8E53"/>
<path d="M121.01 34.2039C118.338 32.6263 118.644 30.2294 117.746 22.1454C123.135 23.9419 127.809 32.453 121.01 34.2039ZM121.01 34.2039C125.472 33.0548 126.757 31.1378 130.321 41.4575C126.149 38.4537 119.152 38.3075 121.01 34.2039ZM121.01 34.2039C123.05 35.0859 126.943 37.8869 128.018 39.4226M121.01 34.2039C121.623 33.0643 122.051 27.864 121.049 24.6782M121.01 34.2039C120.588 34.2069 111.855 33.1397 106.342 39.7719" stroke="#3D8E53"/>
<path d="M123.15 35.1338C124.546 35.8297 127.276 38.0193 128.075 39.2114" stroke="#89E159" stroke-width="0.5"/>
<path d="M122.105 33.1551C122.482 32.1933 120.924 28.4431 119.99 25.7386" stroke="#89E159" stroke-width="0.5"/>
<g clip-path="url(#clip7_1005_4899)">
<path d="M110.302 39.0801C110.302 39.0801 109.408 38.808 108.669 39.6355C107.809 40.5985 108.235 42.0686 108.625 43.1589C109.016 44.2492 109.194 44.6404 109.389 45.5654C109.536 46.2573 109.699 47.4893 110.938 47.8897C111.805 48.1689 112.697 47.5375 112.697 47.5375C112.697 47.5375 113.064 47.9472 113.873 48.0447C114.748 48.1494 115.677 47.8773 116.001 47.1135C116.17 46.7142 116.334 45.4339 116.45 44.6198C116.602 43.5521 117.145 42.393 117.281 41.4742C117.396 40.6898 117.203 38.8758 114.769 38.8275C113.918 38.8111 112.961 39.1489 112.961 39.1489C112.961 39.1489 112.211 38.7557 111.64 38.692C110.539 38.5688 110.302 39.0801 110.302 39.0801Z" fill="#7CB342"/>
<path d="M115.953 39.0388C115.639 38.9012 115.263 38.7739 114.59 38.7318C113.638 38.6722 112.963 39.1486 112.963 39.1486C112.963 39.1486 112.214 38.7554 111.642 38.6918C110.54 38.5686 110.201 39.0583 110.201 39.0583C110.201 39.0583 110.381 39.0891 110.671 39.1958C110.906 39.2821 110.819 39.4915 110.624 39.511C110.244 39.549 109.933 39.7995 109.895 39.935C109.895 39.935 110.503 39.6732 111.138 39.8734C111.982 40.1403 112.21 40.7666 112.21 40.7666C112.21 40.7666 112.685 40.2122 113.814 39.9555C114.888 39.7112 115.66 40.1742 115.66 40.1742C115.598 39.9032 115.442 39.7677 115.304 39.6383C115.054 39.4053 115.137 39.201 115.391 39.1291C115.603 39.0696 115.953 39.0388 115.953 39.0388Z" fill="#558B2F"/>
<path d="M110.149 36.5335C110.158 37.0242 110.532 37.2521 110.703 37.2624C111.05 37.2819 111.308 36.861 111.955 37.4821C112.218 37.7346 112.32 38.094 112.312 38.4512C112.309 38.5693 112.338 39.0107 112.13 39.1093C112.066 39.1401 112.022 39.1637 111.821 39.0867C111.596 39.0005 111.396 39.214 111.396 39.214L111.782 39.6544L112.738 39.9645L113.697 39.7735L114.251 39.2859C114.251 39.2859 113.994 39.0857 113.77 39.1658C113.649 39.2089 113.415 39.138 113.414 38.9964C113.409 38.6976 113.422 38.4132 113.366 38.1155C113.274 37.6237 113.064 37.1535 112.729 36.7799C112.247 36.2439 111.558 35.9657 110.859 35.8528C110.285 35.7614 110.14 36.0489 110.149 36.5335Z" fill="#3D8E53"/>
<path d="M112.391 36.47C111.95 36.1333 111.408 35.9413 110.859 35.853C110.674 35.8232 110.534 35.8335 110.43 35.8756C110.643 35.8807 111.057 35.9854 111.725 36.4464C112.146 36.7359 112.978 37.7759 112.286 38.8508C112.267 38.9401 112.235 39.0212 112.179 39.0725C112.351 38.9955 112.685 38.7317 112.761 38.0295C112.841 37.2862 112.665 36.7954 112.391 36.47Z" fill="#C4C451"/>
<path opacity="0.6" d="M111.911 43.2236C111.903 43.6127 111.965 44.4813 112.208 45.7184C112.414 46.7717 112.204 47.5365 111.93 47.8784C112.374 47.7583 112.694 47.5386 112.694 47.5386C112.694 47.5386 112.808 47.1156 112.815 46.6834C112.825 46.1639 112.608 45.1209 112.354 44.2934C112.176 43.7123 112.122 42.8356 112.114 42.3428C112.114 42.3418 111.925 42.5204 111.911 43.2236Z" fill="#33691E"/>
<path opacity="0.75" d="M111.32 41.881C111.211 41.8933 111.112 41.8246 111.03 41.7578C110.73 41.5125 110.56 41.3071 110.223 41.1028C109.962 40.9447 109.448 40.838 109.621 40.4345C109.704 40.2404 110.023 40.2158 110.24 40.2528C110.994 40.3801 111.33 40.8236 111.489 41.378C111.517 41.4745 111.554 41.572 111.532 41.6716C111.512 41.7701 111.432 41.8656 111.325 41.881L111.32 41.881ZM113.681 40.7856C114.178 40.4899 114.911 40.4961 115.525 40.8102C115.677 40.8883 115.822 40.9899 115.911 41.1367C115.978 41.2476 115.995 41.4139 115.889 41.4888C115.801 41.5504 115.68 41.5135 115.577 41.4806C114.961 41.2856 114.264 41.3595 113.704 41.6808C113.492 41.802 113.038 42.2506 112.905 41.9365C112.772 41.6192 113.063 41.1531 113.681 40.7856Z" fill="#BBE68B"/>
</g>
<g clip-path="url(#clip8_1005_4899)">
<path d="M104.979 35.7949C104.979 35.7949 105.874 35.5229 106.613 36.3503C107.472 37.3133 107.046 38.7835 106.656 39.8738C106.266 40.964 106.087 41.3552 105.892 42.2802C105.745 42.9721 105.582 44.2041 104.343 44.6045C103.476 44.8837 102.584 44.2524 102.584 44.2524C102.584 44.2524 102.218 44.662 101.409 44.7595C100.533 44.8642 99.6039 44.5922 99.2805 43.8284C99.1111 43.429 98.9468 42.1488 98.8308 41.3347C98.6789 40.267 98.1358 39.1079 98.0003 38.189C97.8853 37.4047 98.0783 35.5906 100.512 35.5424C101.364 35.5259 102.32 35.8637 102.32 35.8637C102.32 35.8637 103.07 35.4705 103.642 35.4069C104.742 35.2837 104.979 35.7949 104.979 35.7949Z" fill="#7CB342"/>
<path d="M99.3285 35.7536C99.6427 35.616 100.018 35.4887 100.691 35.4466C101.644 35.3871 102.318 35.8635 102.318 35.8635C102.318 35.8635 103.068 35.4702 103.639 35.4066C104.741 35.2834 105.08 35.7731 105.08 35.7731C105.08 35.7731 104.9 35.8039 104.611 35.9107C104.375 35.9969 104.463 36.2063 104.657 36.2259C105.038 36.2638 105.349 36.5143 105.387 36.6499C105.387 36.6499 104.778 36.3881 104.143 36.5883C103.3 36.8552 103.072 37.4814 103.072 37.4814C103.072 37.4814 102.596 36.927 101.467 36.6704C100.393 36.426 99.6211 36.8891 99.6211 36.8891C99.6837 36.618 99.8388 36.4825 99.9774 36.3532C100.227 36.1201 100.145 35.9158 99.8901 35.8439C99.6786 35.7844 99.3285 35.7536 99.3285 35.7536Z" fill="#558B2F"/>
<path d="M105.177 32.5676C105.588 32.9232 104.749 33.9671 104.578 33.9774C104.231 33.9969 103.973 33.576 103.326 34.1971C103.063 34.4496 102.961 34.809 102.969 35.1662C102.972 35.2843 102.943 35.7258 103.15 35.8243C103.215 35.8551 103.258 35.8787 103.459 35.8017C103.684 35.7155 103.885 35.929 103.885 35.929L103.499 36.3695L102.543 36.6795L101.584 36.4885L101.029 36.0009C101.029 36.0009 101.287 35.8007 101.511 35.8808C101.632 35.9239 101.866 35.8531 101.867 35.7114C101.871 35.4126 101.859 35.1283 101.914 34.8305C102.007 34.3388 102.216 33.8686 102.552 33.4949C103.033 32.959 103.878 32.0399 104.577 31.9269C105.151 31.8356 105.186 32.083 105.177 32.5676Z" fill="#3D8E53"/>
<path d="M102.891 33.1848C103.331 32.8481 103.873 32.6561 104.422 32.5678C104.607 32.5381 104.747 32.5483 104.852 32.5904C104.638 32.5956 104.224 32.7003 103.556 33.1612C103.135 33.4507 102.303 34.4907 102.995 35.5656C103.014 35.6549 103.047 35.736 103.102 35.7874C102.931 35.7104 102.596 35.4465 102.52 34.7443C102.44 34.001 102.617 33.5103 102.891 33.1848Z" fill="#C4C451"/>
<path opacity="0.6" d="M103.37 39.9385C103.379 40.3276 103.316 41.1961 103.074 42.4332C102.867 43.4865 103.077 44.2514 103.351 44.5933C102.907 44.4731 102.587 44.2534 102.587 44.2534C102.587 44.2534 102.473 43.8305 102.466 43.3982C102.457 42.8788 102.673 41.8357 102.927 41.0082C103.106 40.4272 103.159 39.5504 103.167 39.0576C103.167 39.0566 103.356 39.2352 103.37 39.9385Z" fill="#33691E"/>
<path opacity="0.75" d="M103.962 38.5959C104.07 38.6082 104.169 38.5394 104.251 38.4727C104.551 38.2273 104.721 38.022 105.058 37.8177C105.319 37.6596 105.833 37.5528 105.661 37.1493C105.578 36.9553 105.258 36.9307 105.042 36.9676C104.287 37.0949 103.951 37.5384 103.792 38.0928C103.764 38.1893 103.728 38.2868 103.749 38.3864C103.77 38.485 103.85 38.5805 103.956 38.5959L103.962 38.5959ZM101.6 37.5004C101.103 37.2048 100.37 37.2109 99.7565 37.5251C99.6045 37.6031 99.4588 37.7047 99.3705 37.8515C99.3037 37.9624 99.2863 38.1287 99.392 38.2037C99.4803 38.2653 99.6015 38.2283 99.7041 38.1955C100.32 38.0004 101.017 38.0743 101.578 38.3957C101.789 38.5168 102.243 38.9655 102.376 38.6513C102.509 38.3341 102.218 37.868 101.6 37.5004Z" fill="#BBE68B"/>
</g>
<path d="M96.5516 30.4596C93.2664 27.1738 85.8746 27.9952 83 42.7788C94.4983 43.1898 101.069 36.2087 96.5516 30.4596Z" fill="#3D8E53"/>
<path d="M106.818 33.3339C102.848 30.1855 101.069 29.2276 96.5516 30.4596M96.5516 30.4596C93.2664 27.1738 85.8746 27.9952 83 42.7788C94.4983 43.1898 101.069 36.2087 96.5516 30.4596Z" stroke="#3D8E53"/>
<path d="M93.7718 32.0695C92.8726 32.4685 89.935 35.4599 88.7576 37.9172" stroke="#89E159" stroke-width="0.5"/>
<path d="M101.052 59.1464C100.131 59.1302 98.1724 59.0958 98.7087 61.3918C105.618 61.5132 113.506 61.3615 115.233 61.3918C116.69 61.4174 115.253 59.3958 114.294 59.3789C113.405 57.534 111.078 56.6548 110.304 57.0223C108.061 53.553 106.571 56.3851 105.718 55.7985C104.352 54.8597 101.092 56.8605 101.052 59.1464L101.052 59.1464Z" fill="#1E4E4E"/>
<path d="M36.0488 71.0654C33.9595 73.1547 30.2226 73.7989 22.4922 70.2471C27.2737 65.8422 36.0488 64.3796 36.0488 71.0654C36.0488 66.6779 38.2109 63.9593 46.7439 65.8421C42.9832 68.976 39.3917 73.7538 36.0488 71.0654Z" fill="#3D8E53"/>
<path d="M36.0488 71.0654C33.9595 73.1547 30.2226 73.7989 22.4922 70.2471C27.2737 65.8422 36.0488 64.3796 36.0488 71.0654ZM36.0488 71.0654C36.0488 66.6779 38.2109 63.9593 46.7439 65.8421C42.9832 68.976 39.3917 73.7538 36.0488 71.0654ZM36.0488 71.0654C37.3466 69.394 40.8542 66.4689 42.5256 65.8422M36.0488 71.0654C35.1434 70.2297 30.6081 69.6309 27.4324 69.798M36.0488 71.0654C35.9513 71.4556 35.8993 73.7102 35.8769 76.9949C35.8033 87.7798 36.0488 104.331 36.0488 107.794" stroke="#3D8E53" stroke-width="2"/>
<path d="M36.8828 70.0208C37.9713 68.6836 41.2983 67.6049 42.7001 67.1035" stroke="#89E159" stroke-width="0.5"/>
<path d="M34.7924 70.4386C33.7172 68.8997 30.1243 68.8999 27.4297 69.7979" stroke="#89E159" stroke-width="0.5"/>
<path d="M50.01 83.2039C47.3382 81.6263 47.6439 79.2294 46.7461 71.1454C52.135 72.9419 56.8091 81.453 50.01 83.2039C54.4719 82.0548 55.7571 80.1378 59.3209 90.4575C55.1489 87.4537 48.1515 87.3075 50.01 83.2039Z" fill="#3D8E53"/>
<path d="M50.01 83.2039C47.3382 81.6263 47.6439 79.2294 46.7461 71.1454C52.135 72.9419 56.8091 81.453 50.01 83.2039ZM50.01 83.2039C54.4719 82.0548 55.7571 80.1378 59.3209 90.4575C55.1489 87.4537 48.1515 87.3075 50.01 83.2039ZM50.01 83.2039C52.0497 84.0859 55.9429 86.8869 57.018 88.4226M50.01 83.2039C50.6228 82.0643 51.0508 76.864 50.0492 73.6782M50.01 83.2039C49.5877 83.2069 40.8553 82.1397 35.3416 88.7719" stroke="#3D8E53"/>
<path d="M52.1504 84.1338C53.5459 84.8297 56.2761 87.0193 57.0755 88.2114" stroke="#89E159" stroke-width="0.5"/>
<path d="M51.1051 82.1551C51.4822 81.1933 49.9243 77.4431 48.99 74.7386" stroke="#89E159" stroke-width="0.5"/>
<g clip-path="url(#clip9_1005_4899)">
<path d="M39.3019 88.0801C39.3019 88.0801 38.4077 87.808 37.6685 88.6355C36.8092 89.5985 37.2353 91.0686 37.6254 92.1589C38.0155 93.2492 38.1942 93.6404 38.3892 94.5654C38.536 95.2573 38.6993 96.4893 39.9384 96.8897C40.8049 97.1689 41.6971 96.5375 41.6971 96.5375C41.6971 96.5375 42.0636 96.9472 42.8726 97.0447C43.7483 97.1494 44.6774 96.8773 45.0008 96.1135C45.1702 95.7142 45.3344 94.4339 45.4504 93.6198C45.6024 92.5521 46.1455 91.393 46.281 90.4742C46.396 89.6898 46.203 87.8758 43.7688 87.8275C42.9177 87.8111 41.9609 88.1489 41.9609 88.1489C41.9609 88.1489 41.2115 87.7557 40.6396 87.692C39.5391 87.5688 39.3019 88.0801 39.3019 88.0801Z" fill="#7CB342"/>
<path d="M44.9527 88.0388C44.6386 87.9012 44.2628 87.7739 43.5904 87.7318C42.6377 87.6722 41.9632 88.1486 41.9632 88.1486C41.9632 88.1486 41.2137 87.7554 40.6419 87.6918C39.5403 87.5686 39.2015 88.0583 39.2015 88.0583C39.2015 88.0583 39.3812 88.0891 39.6707 88.1958C39.9058 88.2821 39.8185 88.4915 39.6245 88.511C39.2436 88.549 38.9325 88.7995 38.8945 88.935C38.8945 88.935 39.5033 88.6732 40.1378 88.8734C40.9817 89.1403 41.2096 89.7666 41.2096 89.7666C41.2096 89.7666 41.6849 89.2122 42.8142 88.9555C43.8881 88.7112 44.6601 89.1742 44.6601 89.1742C44.5975 88.9032 44.4425 88.7677 44.3039 88.6383C44.0544 88.4053 44.1365 88.201 44.3912 88.1291C44.6026 88.0696 44.9527 88.0388 44.9527 88.0388Z" fill="#558B2F"/>
<path d="M39.1488 85.5335C39.1581 86.0242 39.5318 86.2521 39.7032 86.2624C40.0502 86.2819 40.3079 85.861 40.9547 86.4821C41.2175 86.7346 41.3202 87.094 41.312 87.4512C41.3089 87.5693 41.3376 88.0107 41.1303 88.1093C41.0656 88.1401 41.0225 88.1637 40.8212 88.0867C40.5964 88.0005 40.3962 88.214 40.3962 88.214L40.7822 88.6544L41.738 88.9645L42.6969 88.7735L43.2513 88.2859C43.2513 88.2859 42.9936 88.0857 42.7698 88.1658C42.6487 88.2089 42.4146 88.138 42.4136 87.9964C42.4094 87.6976 42.4218 87.4132 42.3663 87.1155C42.2739 86.6237 42.0645 86.1535 41.7288 85.7799C41.2473 85.2439 40.5584 84.9657 39.8593 84.8528C39.2854 84.7614 39.1396 85.0489 39.1488 85.5335Z" fill="#3D8E53"/>
<path d="M41.3906 85.47C40.9501 85.1333 40.4081 84.9413 39.8588 84.853C39.674 84.8232 39.5344 84.8335 39.4297 84.8756C39.6432 84.8807 40.057 84.9854 40.7253 85.4464C41.1462 85.7359 41.9778 86.7759 41.2858 87.8508C41.2674 87.9401 41.2345 88.0212 41.1791 88.0725C41.3505 87.9955 41.6852 87.7317 41.7612 87.0295C41.8413 86.2862 41.6647 85.7954 41.3906 85.47Z" fill="#C4C451"/>
<path opacity="0.6" d="M40.9109 92.2236C40.9026 92.6127 40.9653 93.4813 41.2075 94.7184C41.4139 95.7717 41.2045 96.5365 40.9304 96.8784C41.3739 96.7583 41.6942 96.5386 41.6942 96.5386C41.6942 96.5386 41.8081 96.1156 41.8153 95.6834C41.8246 95.1639 41.6079 94.1209 41.3544 93.2934C41.1757 92.7123 41.1223 91.8356 41.1141 91.3428C41.1141 91.3418 40.9252 91.5204 40.9109 92.2236Z" fill="#33691E"/>
<path opacity="0.75" d="M40.3197 90.881C40.2108 90.8933 40.1123 90.8246 40.0301 90.7578C39.7304 90.5125 39.5599 90.3071 39.2232 90.1028C38.9624 89.9447 38.4481 89.838 38.6206 89.4345C38.7037 89.2404 39.023 89.2158 39.2396 89.2528C39.9942 89.3801 40.3299 89.8236 40.4891 90.378C40.5168 90.4745 40.5537 90.572 40.5322 90.6716C40.5116 90.7701 40.4316 90.8656 40.3248 90.881L40.3197 90.881ZM42.6809 89.7856C43.1778 89.4899 43.9108 89.4961 44.5248 89.8102C44.6767 89.8883 44.8225 89.9899 44.9108 90.1367C44.9775 90.2476 44.995 90.4139 44.8892 90.4888C44.8009 90.5504 44.6798 90.5135 44.5771 90.4806C43.9611 90.2856 43.2641 90.3595 42.7035 90.6808C42.492 90.802 42.0383 91.2506 41.9048 90.9365C41.7724 90.6192 42.0629 90.1531 42.6809 89.7856Z" fill="#BBE68B"/>
</g>
<g clip-path="url(#clip10_1005_4899)">
<path d="M33.9793 84.7949C33.9793 84.7949 34.8735 84.5229 35.6127 85.3503C36.472 86.3133 36.046 87.7835 35.6558 88.8738C35.2657 89.964 35.0871 90.3552 34.892 91.2802C34.7452 91.9721 34.582 93.2041 33.3428 93.6045C32.4763 93.8837 31.5842 93.2524 31.5842 93.2524C31.5842 93.2524 31.2177 93.662 30.4087 93.7595C29.533 93.8642 28.6039 93.5922 28.2805 92.8284C28.1111 92.429 27.9468 91.1488 27.8308 90.3347C27.6789 89.267 27.1358 88.1079 27.0003 87.189C26.8853 86.4047 27.0783 84.5906 29.5124 84.5424C30.3635 84.5259 31.3203 84.8637 31.3203 84.8637C31.3203 84.8637 32.0698 84.4705 32.6416 84.4069C33.7422 84.2837 33.9793 84.7949 33.9793 84.7949Z" fill="#7CB342"/>
<path d="M28.3285 84.7536C28.6427 84.616 29.0184 84.4887 29.6909 84.4466C30.6436 84.3871 31.3181 84.8635 31.3181 84.8635C31.3181 84.8635 32.0675 84.4702 32.6394 84.4066C33.741 84.2834 34.0798 84.7731 34.0798 84.7731C34.0798 84.7731 33.9001 84.8039 33.6106 84.9107C33.3755 84.9969 33.4627 85.2063 33.6568 85.2259C34.0377 85.2638 34.3487 85.5143 34.3867 85.6499C34.3867 85.6499 33.7779 85.3881 33.1435 85.5883C32.2996 85.8552 32.0716 86.4814 32.0716 86.4814C32.0716 86.4814 31.5963 85.927 30.467 85.6704C29.3932 85.426 28.6211 85.8891 28.6211 85.8891C28.6837 85.618 28.8388 85.4825 28.9774 85.3532C29.2268 85.1201 29.1447 84.9158 28.8901 84.8439C28.6786 84.7844 28.3285 84.7536 28.3285 84.7536Z" fill="#558B2F"/>
<path d="M34.1772 81.5676C34.5877 81.9232 33.749 82.9671 33.5775 82.9774C33.2305 82.9969 32.9728 82.576 32.326 83.1971C32.0632 83.4496 31.9606 83.809 31.9688 84.1662C31.9718 84.2843 31.9431 84.7258 32.1505 84.8243C32.2152 84.8551 32.2583 84.8787 32.4595 84.8017C32.6843 84.7155 32.8845 84.929 32.8845 84.929L32.4985 85.3695L31.5427 85.6795L30.5838 85.4885L30.0294 85.0009C30.0294 85.0009 30.2871 84.8007 30.5109 84.8808C30.6321 84.9239 30.8662 84.8531 30.8672 84.7114C30.8713 84.4126 30.859 84.1283 30.9144 83.8305C31.0068 83.3388 31.2162 82.8686 31.552 82.4949C32.0334 81.959 32.8783 81.0399 33.5774 80.9269C34.1513 80.8356 34.1864 81.083 34.1772 81.5676Z" fill="#3D8E53"/>
<path d="M31.8907 82.1848C32.3311 81.8481 32.8732 81.6561 33.4224 81.5678C33.6072 81.5381 33.7468 81.5483 33.8516 81.5904C33.638 81.5956 33.2243 81.7003 32.5559 82.1612C32.135 82.4507 31.3034 83.4907 31.9954 84.5656C32.0139 84.6549 32.0467 84.736 32.1022 84.7874C31.9307 84.7104 31.596 84.4465 31.5201 83.7443C31.44 83.001 31.6166 82.5103 31.8907 82.1848Z" fill="#C4C451"/>
<path opacity="0.6" d="M32.3704 88.9385C32.3786 89.3276 32.316 90.1961 32.0737 91.4332C31.8673 92.4865 32.0768 93.2514 32.3509 93.5933C31.9074 93.4731 31.5871 93.2534 31.5871 93.2534C31.5871 93.2534 31.4731 92.8305 31.4659 92.3982C31.4567 91.8788 31.6733 90.8357 31.9269 90.0082C32.1055 89.4272 32.1589 88.5504 32.1671 88.0576C32.1671 88.0566 32.356 88.2352 32.3704 88.9385Z" fill="#33691E"/>
<path opacity="0.75" d="M32.9616 87.5959C33.0704 87.6082 33.169 87.5394 33.2511 87.4727C33.5509 87.2273 33.7213 87.022 34.058 86.8177C34.3188 86.6596 34.8332 86.5528 34.6607 86.1493C34.5775 85.9553 34.2582 85.9307 34.0416 85.9676C33.287 86.0949 32.9513 86.5384 32.7922 87.0928C32.7645 87.1893 32.7275 87.2868 32.7491 87.3864C32.7696 87.485 32.8497 87.5805 32.9565 87.5959L32.9616 87.5959ZM30.6003 86.5004C30.1034 86.2048 29.3704 86.2109 28.7565 86.5251C28.6045 86.6031 28.4588 86.7047 28.3705 86.8515C28.3037 86.9624 28.2863 87.1287 28.392 87.2037C28.4803 87.2653 28.6015 87.2283 28.7041 87.1955C29.3201 87.0004 30.0172 87.0743 30.5777 87.3957C30.7892 87.5168 31.243 87.9655 31.3765 87.6513C31.5089 87.3341 31.2184 86.868 30.6003 86.5004Z" fill="#BBE68B"/>
</g>
<path d="M25.5516 79.4596C22.2664 76.1738 14.8746 76.9952 12 91.7788C23.4983 92.1898 30.0688 85.2087 25.5516 79.4596Z" fill="#3D8E53"/>
<path d="M35.818 82.3339C31.8483 79.1855 30.0688 78.2276 25.5516 79.4596M25.5516 79.4596C22.2664 76.1738 14.8746 76.9952 12 91.7788C23.4983 92.1898 30.0688 85.2087 25.5516 79.4596Z" stroke="#3D8E53"/>
<path d="M22.7718 81.0695C21.8726 81.4685 18.935 84.4599 17.7576 86.9172" stroke="#89E159" stroke-width="0.5"/>
<path d="M30.0518 108.146C29.1306 108.13 27.1724 108.096 27.7087 110.392C34.6176 110.513 42.506 110.362 44.2332 110.392C45.6897 110.417 44.2535 108.396 43.2939 108.379C42.4048 106.534 40.0782 105.655 39.3038 106.022C37.0611 102.553 35.5713 105.385 34.718 104.798C33.3523 103.86 30.0919 105.861 30.0518 108.146L30.0518 108.146Z" fill="#1E4E4E"/>
</g>
<defs>
<filter id="filter0_f_1005_4899" x="-20" y="14" width="206" height="133" filterUnits="userSpaceOnUse" color-interpolation-filters="sRGB">
<feFlood flood-opacity="0" result="BackgroundImageFix"/>
<feBlend mode="normal" in="SourceGraphic" in2="BackgroundImageFix" result="shape"/>
<feGaussianBlur stdDeviation="10" result="effect1_foregroundBlur_1005_4899"/>
</filter>
<clipPath id="clip0_1005_4899">
<rect width="166" height="127" rx="4" fill="white"/>
</clipPath>
<clipPath id="clip1_1005_4899">
<rect width="13.141" height="13.141" fill="white" transform="translate(54.9961 36.3867)"/>
</clipPath>
<clipPath id="clip2_1005_4899">
<rect width="13.141" height="13.141" fill="white" transform="matrix(-1 -4.7057e-09 -4.7057e-09 1 58.2852 33.1016)"/>
</clipPath>
<clipPath id="clip3_1005_4899">
<rect width="13.141" height="13.141" fill="white" transform="translate(81.9961 84.3867)"/>
</clipPath>
<clipPath id="clip4_1005_4899">
<rect width="13.141" height="13.141" fill="white" transform="matrix(-1 -4.7057e-09 -4.7057e-09 1 85.2852 81.1016)"/>
</clipPath>
<clipPath id="clip5_1005_4899">
<rect width="13.141" height="13.141" fill="white" transform="translate(128.996 84.3867)"/>
</clipPath>
<clipPath id="clip6_1005_4899">
<rect width="13.141" height="13.141" fill="white" transform="matrix(-1 -4.7057e-09 -4.7057e-09 1 132.285 81.1016)"/>
</clipPath>
<clipPath id="clip7_1005_4899">
<rect width="13.141" height="13.141" fill="white" transform="translate(105.996 35.3867)"/>
</clipPath>
<clipPath id="clip8_1005_4899">
<rect width="13.141" height="13.141" fill="white" transform="matrix(-1 -4.7057e-09 -4.7057e-09 1 109.285 32.1016)"/>
</clipPath>
<clipPath id="clip9_1005_4899">
<rect width="13.141" height="13.141" fill="white" transform="translate(34.9961 84.3867)"/>
</clipPath>
<clipPath id="clip10_1005_4899">
<rect width="13.141" height="13.141" fill="white" transform="matrix(-1 -4.7057e-09 -4.7057e-09 1 38.2852 81.1016)"/>
</clipPath>
</defs>
</svg>
