<svg width="199" height="608" viewBox="0 0 199 608" fill="none" xmlns="http://www.w3.org/2000/svg">
<path d="M142.268 273.757C138.335 277.603 131.3 278.789 116.749 272.251C125.749 264.143 142.268 261.45 142.268 273.757C142.268 265.681 146.338 260.677 162.4 264.142C155.321 269.911 148.56 278.706 142.268 273.757Z" fill="#3D8E53"/>
<path d="M142.268 273.757C138.335 277.603 131.3 278.789 116.749 272.251C125.749 264.143 142.268 261.45 142.268 273.757ZM142.268 273.757C142.268 265.681 146.338 260.677 162.4 264.142C155.321 269.911 148.56 278.706 142.268 273.757ZM142.268 273.757C144.711 270.68 151.313 265.296 154.459 264.143M142.268 273.757C140.563 272.219 132.026 271.117 126.048 271.424M142.268 273.757C142.084 274.475 141.986 278.626 141.944 284.672C141.805 304.524 142.268 334.991 142.268 341.365" stroke="#3D8E53" stroke-width="5.48665"/>
<path d="M143.841 271.835C145.89 269.373 152.153 267.388 154.791 266.465" stroke="#89E159" stroke-width="1.37166"/>
<path d="M139.907 272.604C137.883 269.771 131.12 269.772 126.048 271.425" stroke="#89E159" stroke-width="1.37166"/>
<path d="M168.544 296.101C163.514 293.197 164.09 288.785 162.4 273.905C172.544 277.212 181.343 292.878 168.544 296.101C176.943 293.986 179.362 290.457 186.071 309.453C178.217 303.924 165.045 303.655 168.544 296.101Z" fill="#3D8E53"/>
<path d="M168.544 296.101C163.514 293.197 164.09 288.785 162.4 273.905C172.544 277.212 181.343 292.878 168.544 296.101ZM168.544 296.101C176.943 293.986 179.362 290.457 186.071 309.453C178.217 303.924 165.045 303.655 168.544 296.101ZM168.544 296.101C172.383 297.725 179.712 302.881 181.736 305.707M168.544 296.101C169.697 294.003 170.503 284.431 168.618 278.567M168.544 296.101C167.749 296.107 151.311 294.142 140.932 306.35" stroke="#3D8E53" stroke-width="2.74333"/>
<path d="M172.573 297.817C175.2 299.098 180.339 303.129 181.844 305.323" stroke="#89E159" stroke-width="1.37166"/>
<path d="M170.608 294.172C171.318 292.402 168.386 285.499 166.627 280.52" stroke="#89E159" stroke-width="1.37166"/>
<path d="M148.39 305.082C148.39 305.082 146.707 304.581 145.316 306.104C143.698 307.877 144.5 310.583 145.235 312.59C145.969 314.597 146.305 315.317 146.672 317.019C146.949 318.293 147.256 320.561 149.589 321.298C151.22 321.812 152.899 320.65 152.899 320.65C152.899 320.65 153.589 321.404 155.112 321.583C156.76 321.776 158.509 321.275 159.118 319.869C159.437 319.134 159.746 316.777 159.964 315.279C160.251 313.313 161.273 311.18 161.528 309.489C161.744 308.045 161.381 304.706 156.799 304.617C155.197 304.587 153.396 305.208 153.396 305.208C153.396 305.208 151.985 304.484 150.909 304.367C148.837 304.141 148.39 305.082 148.39 305.082Z" fill="#F68561"/>
<path d="M159.025 305.003C158.434 304.75 157.726 304.516 156.461 304.438C154.667 304.329 153.397 305.206 153.397 305.206C153.397 305.206 151.987 304.482 150.91 304.365C148.837 304.138 148.199 305.039 148.199 305.039C148.199 305.039 148.537 305.096 149.082 305.293C149.525 305.451 149.36 305.837 148.995 305.873C148.278 305.943 147.693 306.404 147.621 306.653C147.621 306.653 148.767 306.171 149.961 306.54C151.55 307.031 151.979 308.184 151.979 308.184C151.979 308.184 152.874 307.163 155 306.691C157.021 306.241 158.474 307.094 158.474 307.094C158.356 306.595 158.065 306.345 157.804 306.107C157.334 305.678 157.489 305.302 157.968 305.17C158.366 305.06 159.025 305.003 159.025 305.003Z" fill="#1E4E4E"/>
<path d="M148.101 300.391C148.118 301.295 148.822 301.714 149.144 301.733C149.798 301.769 150.283 300.994 151.5 302.138C151.995 302.602 152.188 303.264 152.173 303.921C152.167 304.139 152.221 304.951 151.831 305.133C151.709 305.19 151.628 305.233 151.249 305.091C150.826 304.932 150.449 305.326 150.449 305.326L151.176 306.136L152.975 306.707L154.78 306.355L155.823 305.458C155.823 305.458 155.338 305.089 154.917 305.237C154.689 305.316 154.248 305.186 154.246 304.925C154.239 304.375 154.262 303.852 154.157 303.304C153.984 302.398 153.589 301.533 152.957 300.845C152.051 299.858 150.754 299.346 149.438 299.138C148.358 298.97 148.083 299.499 148.101 300.391Z" fill="#3D8E53"/>
<path d="M152.319 300.275C151.49 299.655 150.47 299.301 149.436 299.139C149.088 299.084 148.825 299.103 148.628 299.18C149.03 299.19 149.809 299.383 151.067 300.231C151.859 300.764 153.425 302.678 152.122 304.657C152.087 304.821 152.025 304.971 151.921 305.065C152.244 304.923 152.874 304.438 153.017 303.145C153.167 301.777 152.835 300.874 152.319 300.275Z" fill="#89E159"/>
<path opacity="0.6" d="M151.423 312.709C151.407 313.426 151.525 315.024 151.981 317.301C152.37 319.24 151.975 320.648 151.459 321.278C152.294 321.056 152.897 320.652 152.897 320.652C152.897 320.652 153.112 319.873 153.125 319.078C153.143 318.122 152.735 316.202 152.258 314.678C151.921 313.609 151.821 311.995 151.805 311.088C151.805 311.086 151.45 311.415 151.423 312.709Z" fill="#8990A5"/>
<path opacity="0.75" d="M150.306 310.239C150.101 310.261 149.915 310.135 149.761 310.012C149.196 309.56 148.875 309.182 148.242 308.806C147.751 308.515 146.783 308.319 147.107 307.576C147.264 307.219 147.865 307.173 148.273 307.242C149.693 307.476 150.325 308.292 150.624 309.313C150.677 309.49 150.746 309.67 150.706 309.853C150.667 310.035 150.516 310.21 150.315 310.239L150.306 310.239ZM154.75 308.222C155.686 307.678 157.066 307.689 158.221 308.268C158.507 308.411 158.782 308.598 158.948 308.869C159.074 309.073 159.106 309.379 158.907 309.517C158.741 309.63 158.513 309.562 158.32 309.502C157.16 309.143 155.848 309.279 154.793 309.87C154.395 310.093 153.541 310.919 153.289 310.341C153.04 309.757 153.587 308.899 154.75 308.222Z" fill="#DBE2F9"/>
<g clip-path="url(#clip0_1571_5803)">
<path d="M138.368 299.033C138.368 299.033 140.051 298.532 141.443 300.055C143.06 301.828 142.258 304.534 141.524 306.541C140.789 308.548 140.453 309.268 140.086 310.97C139.81 312.244 139.502 314.512 137.17 315.249C135.539 315.763 133.859 314.601 133.859 314.601C133.859 314.601 133.169 315.355 131.646 315.534C129.998 315.727 128.249 315.226 127.64 313.82C127.321 313.085 127.012 310.729 126.794 309.23C126.508 307.265 125.485 305.131 125.23 303.44C125.014 301.996 125.377 298.657 129.959 298.568C131.561 298.538 133.363 299.159 133.363 299.159C133.363 299.159 134.773 298.436 135.85 298.318C137.921 298.092 138.368 299.033 138.368 299.033Z" fill="#F68561"/>
<path d="M127.733 298.957C128.324 298.703 129.031 298.469 130.297 298.392C132.091 298.282 133.36 299.159 133.36 299.159C133.36 299.159 134.771 298.435 135.848 298.318C137.921 298.091 138.559 298.992 138.559 298.992C138.559 298.992 138.221 299.049 137.676 299.246C137.233 299.404 137.397 299.79 137.763 299.826C138.48 299.896 139.065 300.357 139.137 300.606C139.137 300.606 137.991 300.124 136.796 300.493C135.208 300.984 134.779 302.137 134.779 302.137C134.779 302.137 133.884 301.117 131.758 300.644C129.737 300.194 128.284 301.047 128.284 301.047C128.401 300.548 128.693 300.298 128.954 300.06C129.424 299.631 129.269 299.255 128.79 299.123C128.392 299.013 127.733 298.957 127.733 298.957Z" fill="#1E4E4E"/>
<path d="M138.743 293.093C139.515 293.747 137.936 295.669 137.614 295.688C136.96 295.724 136.475 294.949 135.258 296.092C134.763 296.557 134.57 297.218 134.585 297.876C134.591 298.093 134.537 298.906 134.927 299.087C135.049 299.144 135.13 299.188 135.509 299.046C135.932 298.887 136.309 299.28 136.309 299.28L135.583 300.091L133.783 300.662L131.978 300.31L130.935 299.412C130.935 299.412 131.42 299.044 131.841 299.191C132.069 299.271 132.51 299.14 132.512 298.88C132.52 298.33 132.496 297.806 132.601 297.258C132.775 296.353 133.169 295.487 133.801 294.8C134.707 293.813 136.297 292.121 137.614 291.913C138.694 291.745 138.76 292.201 138.743 293.093Z" fill="#3D8E53"/>
<path d="M134.439 294.228C135.268 293.608 136.288 293.254 137.322 293.092C137.67 293.037 137.933 293.056 138.13 293.134C137.728 293.143 136.949 293.336 135.691 294.184C134.899 294.717 133.333 296.631 134.636 298.61C134.671 298.774 134.732 298.924 134.837 299.018C134.514 298.877 133.884 298.391 133.741 297.098C133.59 295.73 133.923 294.827 134.439 294.228Z" fill="#89E159"/>
<path opacity="0.6" d="M135.336 306.66C135.351 307.377 135.233 308.975 134.777 311.253C134.389 313.192 134.783 314.599 135.299 315.229C134.464 315.008 133.861 314.603 133.861 314.603C133.861 314.603 133.647 313.825 133.633 313.029C133.616 312.073 134.023 310.153 134.501 308.63C134.837 307.56 134.938 305.946 134.953 305.039C134.953 305.037 135.309 305.366 135.336 306.66Z" fill="#8990A5"/>
<path opacity="0.75" d="M136.453 304.19C136.658 304.213 136.843 304.086 136.998 303.963C137.562 303.511 137.883 303.133 138.517 302.757C139.008 302.466 139.976 302.27 139.651 301.527C139.495 301.17 138.894 301.125 138.486 301.193C137.065 301.427 136.433 302.243 136.134 303.264C136.082 303.442 136.012 303.621 136.053 303.804C136.091 303.986 136.242 304.162 136.443 304.19L136.453 304.19ZM132.008 302.173C131.073 301.629 129.693 301.641 128.537 302.219C128.251 302.362 127.977 302.55 127.81 302.82C127.685 303.024 127.652 303.33 127.851 303.468C128.017 303.581 128.245 303.513 128.438 303.453C129.598 303.094 130.91 303.23 131.965 303.821C132.363 304.044 133.218 304.87 133.469 304.292C133.718 303.708 133.171 302.85 132.008 302.173Z" fill="#DBE2F9"/>
</g>
<path d="M122.51 289.208C116.325 283.16 102.411 284.672 97 311.885C118.645 312.641 131.013 299.791 122.51 289.208Z" fill="#3D8E53"/>
<path d="M141.835 294.499C134.363 288.704 131.013 286.94 122.51 289.208M122.51 289.208C116.325 283.16 102.411 284.672 97 311.885C118.645 312.641 131.013 299.791 122.51 289.208Z" stroke="#3D8E53" stroke-width="2.74333"/>
<path d="M117.275 292.171C115.583 292.906 110.053 298.412 107.837 302.935" stroke="#89E159" stroke-width="1.37166"/>
<path d="M130.982 342.013C129.248 341.984 125.561 341.92 126.571 346.147C139.576 346.37 154.425 346.091 157.677 346.147C160.418 346.194 157.715 342.472 155.909 342.441C154.235 339.045 149.855 337.427 148.398 338.103C144.176 331.717 141.372 336.931 139.765 335.851C137.195 334.123 131.057 337.806 130.982 342.013L130.982 342.013Z" fill="#1E4E4E"/>
<path d="M54.2676 365.757C50.3346 369.603 43.3003 370.789 28.7485 364.251C37.7493 356.143 54.2676 353.45 54.2676 365.757C54.2676 357.681 58.3375 352.677 74.4001 356.142C67.3209 361.911 60.5602 370.706 54.2676 365.757Z" fill="#3D8E53"/>
<path d="M54.2676 365.757C50.3346 369.603 43.3003 370.789 28.7485 364.251C37.7493 356.143 54.2676 353.45 54.2676 365.757ZM54.2676 365.757C54.2676 357.681 58.3375 352.677 74.4001 356.142C67.3209 361.911 60.5602 370.706 54.2676 365.757ZM54.2676 365.757C56.7105 362.68 63.3132 357.296 66.4595 356.143M54.2676 365.757C52.5633 364.219 44.0259 363.117 38.0479 363.424M54.2676 365.757C54.0839 366.475 53.986 370.626 53.9439 376.672C53.8054 396.524 54.2676 426.991 54.2676 433.365" stroke="#3D8E53" stroke-width="5.48665"/>
<path d="M55.8408 363.835C57.8898 361.373 64.1525 359.388 66.7914 358.465" stroke="#89E159" stroke-width="1.37166"/>
<path d="M51.9074 364.604C49.8834 361.771 43.1202 361.772 38.0479 363.425" stroke="#89E159" stroke-width="1.37166"/>
<path d="M80.5439 388.101C75.5144 385.197 76.0899 380.785 74.3998 365.905C84.5439 369.212 93.3425 384.878 80.5439 388.101C88.943 385.986 91.3622 382.457 98.0706 401.453C90.2173 395.924 77.0454 395.655 80.5439 388.101Z" fill="#3D8E53"/>
<path d="M80.5439 388.101C75.5144 385.197 76.0899 380.785 74.3998 365.905C84.5439 369.212 93.3425 384.878 80.5439 388.101ZM80.5439 388.101C88.943 385.986 91.3622 382.457 98.0706 401.453C90.2173 395.924 77.0454 395.655 80.5439 388.101ZM80.5439 388.101C84.3834 389.725 91.7119 394.881 93.7357 397.707M80.5439 388.101C81.6974 386.003 82.5031 376.431 80.6176 370.567M80.5439 388.101C79.7489 388.107 63.3111 386.142 52.9321 398.35" stroke="#3D8E53" stroke-width="2.74333"/>
<path d="M84.5732 389.817C87.2001 391.098 92.3394 395.129 93.8441 397.323" stroke="#89E159" stroke-width="1.37166"/>
<path d="M82.6083 386.172C83.3183 384.402 80.3855 377.499 78.6269 372.52" stroke="#89E159" stroke-width="1.37166"/>
<path d="M60.3905 397.082C60.3905 397.082 58.7072 396.581 57.3158 398.104C55.6983 399.877 56.5003 402.583 57.2346 404.59C57.969 406.597 58.3053 407.317 58.6724 409.019C58.9488 410.293 59.2561 412.561 61.5887 413.298C63.2197 413.812 64.8991 412.65 64.8991 412.65C64.8991 412.65 65.589 413.404 67.1119 413.583C68.7603 413.776 70.5093 413.275 71.118 411.869C71.4369 411.134 71.7461 408.777 71.9645 407.279C72.2505 405.313 73.2728 403.18 73.5279 401.489C73.7444 400.045 73.3811 396.706 68.799 396.617C67.1969 396.587 65.3958 397.208 65.3958 397.208C65.3958 397.208 63.985 396.484 62.9086 396.367C60.8369 396.141 60.3905 397.082 60.3905 397.082Z" fill="#F68561"/>
<path d="M71.0251 397.003C70.4337 396.75 69.7264 396.516 68.4606 396.438C66.6672 396.329 65.3975 397.206 65.3975 397.206C65.3975 397.206 63.9867 396.482 62.9103 396.365C60.8367 396.138 60.1989 397.039 60.1989 397.039C60.1989 397.039 60.5371 397.096 61.0821 397.293C61.5247 397.451 61.3604 397.837 60.9951 397.873C60.2782 397.943 59.6926 398.404 59.6211 398.653C59.6211 398.653 60.7671 398.171 61.9614 398.54C63.55 399.031 63.979 400.184 63.979 400.184C63.979 400.184 64.8738 399.163 66.9996 398.691C69.021 398.241 70.4743 399.094 70.4743 399.094C70.3564 398.595 70.0646 398.345 69.8037 398.107C69.3341 397.678 69.4887 397.302 69.9679 397.17C70.3661 397.06 71.0251 397.003 71.0251 397.003Z" fill="#1E4E4E"/>
<path d="M60.1009 392.391C60.1183 393.295 60.8217 393.714 61.1444 393.733C61.7976 393.769 62.2827 392.994 63.5002 394.138C63.9949 394.602 64.1882 395.264 64.1727 395.921C64.1669 396.139 64.2211 396.951 63.8307 397.133C63.7089 397.19 63.6278 397.233 63.249 397.091C62.8258 396.932 62.4489 397.326 62.4489 397.326L63.1755 398.136L64.9747 398.707L66.7797 398.355L67.8233 397.458C67.8233 397.458 67.3382 397.089 66.917 397.237C66.6889 397.316 66.2483 397.186 66.2464 396.925C66.2386 396.375 66.2618 395.852 66.1575 395.304C65.9835 394.398 65.5893 393.533 64.9574 392.845C64.051 391.858 62.7542 391.346 61.4382 391.138C60.3579 390.97 60.0835 391.499 60.1009 392.391Z" fill="#3D8E53"/>
<path d="M64.3191 392.275C63.49 391.655 62.4696 391.301 61.4357 391.139C61.0879 391.084 60.825 391.103 60.6279 391.18C61.0299 391.19 61.8087 391.383 63.0668 392.231C63.8591 392.764 65.4245 394.678 64.122 396.657C64.0872 396.821 64.0253 396.971 63.921 397.065C64.2437 396.923 64.8737 396.438 65.0167 395.145C65.1675 393.777 64.8351 392.874 64.3191 392.275Z" fill="#89E159"/>
<path opacity="0.6" d="M63.4227 404.709C63.4072 405.426 63.5251 407.024 63.9812 409.301C64.3696 411.24 63.9754 412.648 63.4594 413.278C64.2943 413.056 64.8972 412.652 64.8972 412.652C64.8972 412.652 65.1117 411.873 65.1253 411.078C65.1427 410.122 64.7349 408.202 64.2576 406.678C63.9213 405.609 63.8208 403.995 63.8053 403.088C63.8053 403.086 63.4497 403.415 63.4227 404.709Z" fill="#8990A5"/>
<path opacity="0.75" d="M62.3056 402.239C62.1007 402.261 61.9152 402.135 61.7606 402.012C61.1963 401.56 60.8755 401.182 60.2416 400.806C59.7507 400.515 58.7825 400.319 59.1072 399.576C59.2637 399.219 59.8648 399.173 60.2725 399.242C61.6929 399.476 62.3249 400.292 62.6244 401.313C62.6766 401.49 62.7462 401.67 62.7056 401.853C62.6669 402.035 62.5162 402.21 62.3152 402.239L62.3056 402.239ZM66.7504 400.222C67.6858 399.678 69.0656 399.689 70.2213 400.268C70.5073 400.411 70.7817 400.598 70.9479 400.869C71.0735 401.073 71.1064 401.379 70.9073 401.517C70.7411 401.63 70.5131 401.562 70.3198 401.502C69.1603 401.143 67.8481 401.279 66.7929 401.87C66.3948 402.093 65.5406 402.919 65.2894 402.341C65.0401 401.757 65.587 400.899 66.7504 400.222Z" fill="#DBE2F9"/>
<g clip-path="url(#clip1_1571_5803)">
<path d="M50.3678 391.033C50.3678 391.033 52.0511 390.532 53.4425 392.055C55.06 393.828 54.258 396.534 53.5237 398.541C52.7893 400.548 52.453 401.268 52.0859 402.97C51.8095 404.244 51.5022 406.512 49.1696 407.249C47.5386 407.763 45.8592 406.601 45.8592 406.601C45.8592 406.601 45.1693 407.355 43.6464 407.534C41.998 407.727 40.249 407.226 39.6403 405.82C39.3214 405.085 39.0122 402.729 38.7938 401.23C38.5078 399.265 37.4855 397.131 37.2304 395.44C37.0139 393.996 37.3773 390.657 41.9593 390.568C43.5614 390.538 45.3625 391.159 45.3625 391.159C45.3625 391.159 46.7733 390.436 47.8497 390.318C49.9214 390.092 50.3678 391.033 50.3678 391.033Z" fill="#F68561"/>
<path d="M39.7328 390.957C40.3241 390.703 41.0314 390.469 42.2973 390.392C44.0907 390.282 45.3603 391.159 45.3603 391.159C45.3603 391.159 46.7711 390.435 47.8475 390.318C49.9211 390.091 50.5589 390.992 50.5589 390.992C50.5589 390.992 50.2207 391.049 49.6757 391.246C49.2332 391.404 49.3974 391.79 49.7627 391.826C50.4797 391.896 51.0652 392.357 51.1367 392.606C51.1367 392.606 49.9907 392.124 48.7964 392.493C47.2079 392.984 46.7788 394.137 46.7788 394.137C46.7788 394.137 45.8841 393.117 43.7583 392.644C41.7368 392.194 40.2835 393.047 40.2835 393.047C40.4014 392.548 40.6932 392.298 40.9541 392.06C41.4237 391.631 41.2691 391.255 40.7899 391.123C40.3918 391.013 39.7328 390.957 39.7328 390.957Z" fill="#1E4E4E"/>
<path d="M50.7425 385.093C51.5154 385.747 49.9364 387.669 49.6137 387.688C48.9605 387.724 48.4754 386.949 47.2579 388.092C46.7632 388.557 46.5699 389.218 46.5854 389.876C46.5912 390.093 46.5371 390.906 46.9275 391.087C47.0492 391.144 47.1304 391.188 47.5092 391.046C47.9324 390.887 48.3092 391.28 48.3092 391.28L47.5826 392.091L45.7834 392.662L43.9784 392.31L42.9348 391.412C42.9348 391.412 43.4199 391.044 43.8412 391.191C44.0692 391.271 44.5098 391.14 44.5118 390.88C44.5195 390.33 44.4963 389.806 44.6007 389.258C44.7746 388.353 45.1688 387.487 45.8008 386.8C46.7071 385.813 48.2975 384.121 49.6135 383.913C50.6938 383.745 50.7599 384.201 50.7425 385.093Z" fill="#3D8E53"/>
<path d="M46.4387 386.228C47.2678 385.608 48.2882 385.254 49.3221 385.092C49.6699 385.037 49.9328 385.056 50.1299 385.134C49.7279 385.143 48.9491 385.336 47.691 386.184C46.8987 386.717 45.3333 388.631 46.6358 390.61C46.6706 390.774 46.7325 390.924 46.8368 391.018C46.5141 390.877 45.8841 390.391 45.7411 389.098C45.5903 387.73 45.9227 386.827 46.4387 386.228Z" fill="#89E159"/>
<path opacity="0.6" d="M47.3356 398.66C47.3511 399.377 47.2332 400.975 46.7771 403.253C46.3887 405.192 46.7829 406.599 47.2989 407.229C46.464 407.008 45.8611 406.603 45.8611 406.603C45.8611 406.603 45.6466 405.825 45.633 405.029C45.6156 404.073 46.0234 402.153 46.5007 400.63C46.837 399.56 46.9375 397.946 46.953 397.039C46.953 397.037 47.3086 397.366 47.3356 398.66Z" fill="#8990A5"/>
<path opacity="0.75" d="M48.4527 396.19C48.6576 396.213 48.8431 396.086 48.9977 395.963C49.562 395.511 49.8828 395.133 50.5167 394.757C51.0076 394.466 51.9758 394.27 51.6511 393.527C51.4946 393.17 50.8935 393.125 50.4858 393.193C49.0654 393.427 48.4334 394.243 48.1339 395.264C48.0817 395.442 48.0121 395.621 48.0527 395.804C48.0914 395.986 48.2421 396.162 48.4431 396.19L48.4527 396.19ZM44.0079 394.173C43.0725 393.629 41.6927 393.641 40.537 394.219C40.251 394.362 39.9766 394.55 39.8104 394.82C39.6848 395.024 39.6519 395.33 39.851 395.468C40.0172 395.581 40.2452 395.513 40.4385 395.453C41.598 395.094 42.9102 395.23 43.9654 395.821C44.3635 396.044 45.2177 396.87 45.4689 396.292C45.7182 395.708 45.1713 394.85 44.0079 394.173Z" fill="#DBE2F9"/>
</g>
<path d="M34.5096 381.208C28.3255 375.16 14.4111 376.672 9 403.885C30.6445 404.641 43.0128 391.791 34.5096 381.208Z" fill="#3D8E53"/>
<path d="M53.8351 386.499C46.3626 380.704 43.0128 378.94 34.5096 381.208M34.5096 381.208C28.3255 375.16 14.4111 376.672 9 403.885C30.6445 404.641 43.0128 391.791 34.5096 381.208Z" stroke="#3D8E53" stroke-width="2.74333"/>
<path d="M29.2753 384.171C27.5826 384.906 22.0529 390.412 19.8366 394.935" stroke="#89E159" stroke-width="1.37166"/>
<path d="M42.9816 434.013C41.2476 433.984 37.5615 433.92 38.5709 438.147C51.5763 438.37 66.4254 438.091 69.6767 438.147C72.4185 438.194 69.7149 434.472 67.9086 434.441C66.235 431.045 61.8553 429.427 60.3977 430.103C56.1759 423.717 53.3716 428.931 51.7652 427.851C49.1945 426.123 43.0572 429.806 42.9816 434.013L42.9816 434.013Z" fill="#1E4E4E"/>
<path d="M134.268 470.757C130.335 474.603 123.3 475.789 108.749 469.251C117.749 461.143 134.268 458.45 134.268 470.757C134.268 462.681 138.338 457.677 154.4 461.142C147.321 466.911 140.56 475.706 134.268 470.757Z" fill="#3D8E53"/>
<path d="M134.268 470.757C130.335 474.603 123.3 475.789 108.749 469.251C117.749 461.143 134.268 458.45 134.268 470.757ZM134.268 470.757C134.268 462.681 138.338 457.677 154.4 461.142C147.321 466.911 140.56 475.706 134.268 470.757ZM134.268 470.757C136.711 467.68 143.313 462.296 146.459 461.143M134.268 470.757C132.563 469.219 124.026 468.117 118.048 468.424M134.268 470.757C134.084 471.475 133.986 475.626 133.944 481.672C133.805 501.524 134.268 531.991 134.268 538.365" stroke="#3D8E53" stroke-width="5.48665"/>
<path d="M135.841 468.835C137.89 466.373 144.153 464.388 146.791 463.465" stroke="#89E159" stroke-width="1.37166"/>
<path d="M131.907 469.604C129.883 466.771 123.12 466.772 118.048 468.425" stroke="#89E159" stroke-width="1.37166"/>
<path d="M160.544 493.101C155.514 490.197 156.09 485.785 154.4 470.905C164.544 474.212 173.343 489.878 160.544 493.101C168.943 490.986 171.362 487.457 178.071 506.453C170.217 500.924 157.045 500.655 160.544 493.101Z" fill="#3D8E53"/>
<path d="M160.544 493.101C155.514 490.197 156.09 485.785 154.4 470.905C164.544 474.212 173.343 489.878 160.544 493.101ZM160.544 493.101C168.943 490.986 171.362 487.457 178.071 506.453C170.217 500.924 157.045 500.655 160.544 493.101ZM160.544 493.101C164.383 494.725 171.712 499.881 173.736 502.707M160.544 493.101C161.697 491.003 162.503 481.431 160.618 475.567M160.544 493.101C159.749 493.107 143.311 491.142 132.932 503.35" stroke="#3D8E53" stroke-width="2.74333"/>
<path d="M164.573 494.817C167.2 496.098 172.339 500.129 173.844 502.323" stroke="#89E159" stroke-width="1.37166"/>
<path d="M162.608 491.172C163.318 489.402 160.386 482.499 158.627 477.52" stroke="#89E159" stroke-width="1.37166"/>
<path d="M140.39 502.082C140.39 502.082 138.707 501.581 137.316 503.104C135.698 504.877 136.5 507.583 137.235 509.59C137.969 511.597 138.305 512.317 138.672 514.019C138.949 515.293 139.256 517.561 141.589 518.298C143.22 518.812 144.899 517.65 144.899 517.65C144.899 517.65 145.589 518.404 147.112 518.583C148.76 518.776 150.509 518.275 151.118 516.869C151.437 516.134 151.746 513.777 151.964 512.279C152.251 510.313 153.273 508.18 153.528 506.489C153.744 505.045 153.381 501.706 148.799 501.617C147.197 501.587 145.396 502.208 145.396 502.208C145.396 502.208 143.985 501.484 142.909 501.367C140.837 501.141 140.39 502.082 140.39 502.082Z" fill="#F68561"/>
<path d="M151.025 502.003C150.434 501.75 149.726 501.516 148.461 501.438C146.667 501.329 145.397 502.206 145.397 502.206C145.397 502.206 143.987 501.482 142.91 501.365C140.837 501.138 140.199 502.039 140.199 502.039C140.199 502.039 140.537 502.096 141.082 502.293C141.525 502.451 141.36 502.837 140.995 502.873C140.278 502.943 139.693 503.404 139.621 503.653C139.621 503.653 140.767 503.171 141.961 503.54C143.55 504.031 143.979 505.184 143.979 505.184C143.979 505.184 144.874 504.163 147 503.691C149.021 503.241 150.474 504.094 150.474 504.094C150.356 503.595 150.065 503.345 149.804 503.107C149.334 502.678 149.489 502.302 149.968 502.17C150.366 502.06 151.025 502.003 151.025 502.003Z" fill="#1E4E4E"/>
<path d="M140.101 497.391C140.118 498.295 140.822 498.714 141.144 498.733C141.798 498.769 142.283 497.994 143.5 499.138C143.995 499.602 144.188 500.264 144.173 500.921C144.167 501.139 144.221 501.951 143.831 502.133C143.709 502.19 143.628 502.233 143.249 502.091C142.826 501.932 142.449 502.326 142.449 502.326L143.176 503.136L144.975 503.707L146.78 503.355L147.823 502.458C147.823 502.458 147.338 502.089 146.917 502.237C146.689 502.316 146.248 502.186 146.246 501.925C146.239 501.375 146.262 500.852 146.157 500.304C145.984 499.398 145.589 498.533 144.957 497.845C144.051 496.858 142.754 496.346 141.438 496.138C140.358 495.97 140.083 496.499 140.101 497.391Z" fill="#3D8E53"/>
<path d="M144.319 497.275C143.49 496.655 142.47 496.301 141.436 496.139C141.088 496.084 140.825 496.103 140.628 496.18C141.03 496.19 141.809 496.383 143.067 497.231C143.859 497.764 145.425 499.678 144.122 501.657C144.087 501.821 144.025 501.971 143.921 502.065C144.244 501.923 144.874 501.438 145.017 500.145C145.167 498.777 144.835 497.874 144.319 497.275Z" fill="#89E159"/>
<path opacity="0.6" d="M143.423 509.709C143.407 510.426 143.525 512.024 143.981 514.301C144.37 516.24 143.975 517.648 143.459 518.278C144.294 518.056 144.897 517.652 144.897 517.652C144.897 517.652 145.112 516.873 145.125 516.078C145.143 515.122 144.735 513.202 144.258 511.678C143.921 510.609 143.821 508.995 143.805 508.088C143.805 508.086 143.45 508.415 143.423 509.709Z" fill="#8990A5"/>
<path opacity="0.75" d="M142.306 507.239C142.101 507.261 141.915 507.135 141.761 507.012C141.196 506.56 140.875 506.182 140.242 505.806C139.751 505.515 138.783 505.319 139.107 504.576C139.264 504.219 139.865 504.173 140.273 504.242C141.693 504.476 142.325 505.292 142.624 506.313C142.677 506.49 142.746 506.67 142.706 506.853C142.667 507.035 142.516 507.21 142.315 507.239L142.306 507.239ZM146.75 505.222C147.686 504.678 149.066 504.689 150.221 505.268C150.507 505.411 150.782 505.598 150.948 505.869C151.074 506.073 151.106 506.379 150.907 506.517C150.741 506.63 150.513 506.562 150.32 506.502C149.16 506.143 147.848 506.279 146.793 506.87C146.395 507.093 145.541 507.919 145.289 507.341C145.04 506.757 145.587 505.899 146.75 505.222Z" fill="#DBE2F9"/>
<g clip-path="url(#clip2_1571_5803)">
<path d="M130.368 496.033C130.368 496.033 132.051 495.532 133.443 497.055C135.06 498.828 134.258 501.534 133.524 503.541C132.789 505.548 132.453 506.268 132.086 507.97C131.81 509.244 131.502 511.512 129.17 512.249C127.539 512.763 125.859 511.601 125.859 511.601C125.859 511.601 125.169 512.355 123.646 512.534C121.998 512.727 120.249 512.226 119.64 510.82C119.321 510.085 119.012 507.729 118.794 506.23C118.508 504.265 117.485 502.131 117.23 500.44C117.014 498.996 117.377 495.657 121.959 495.568C123.561 495.538 125.363 496.159 125.363 496.159C125.363 496.159 126.773 495.436 127.85 495.318C129.921 495.092 130.368 496.033 130.368 496.033Z" fill="#F68561"/>
<path d="M119.733 495.957C120.324 495.703 121.031 495.469 122.297 495.392C124.091 495.282 125.36 496.159 125.36 496.159C125.36 496.159 126.771 495.435 127.848 495.318C129.921 495.091 130.559 495.992 130.559 495.992C130.559 495.992 130.221 496.049 129.676 496.246C129.233 496.404 129.397 496.79 129.763 496.826C130.48 496.896 131.065 497.357 131.137 497.606C131.137 497.606 129.991 497.124 128.796 497.493C127.208 497.984 126.779 499.137 126.779 499.137C126.779 499.137 125.884 498.117 123.758 497.644C121.737 497.194 120.284 498.047 120.284 498.047C120.401 497.548 120.693 497.298 120.954 497.06C121.424 496.631 121.269 496.255 120.79 496.123C120.392 496.013 119.733 495.957 119.733 495.957Z" fill="#1E4E4E"/>
<path d="M130.743 490.093C131.515 490.747 129.936 492.669 129.614 492.688C128.96 492.724 128.475 491.949 127.258 493.092C126.763 493.557 126.57 494.218 126.585 494.876C126.591 495.093 126.537 495.906 126.927 496.087C127.049 496.144 127.13 496.188 127.509 496.046C127.932 495.887 128.309 496.28 128.309 496.28L127.583 497.091L125.783 497.662L123.978 497.31L122.935 496.412C122.935 496.412 123.42 496.044 123.841 496.191C124.069 496.271 124.51 496.14 124.512 495.88C124.52 495.33 124.496 494.806 124.601 494.258C124.775 493.353 125.169 492.487 125.801 491.8C126.707 490.813 128.297 489.121 129.614 488.913C130.694 488.745 130.76 489.201 130.743 490.093Z" fill="#3D8E53"/>
<path d="M126.439 491.228C127.268 490.608 128.288 490.254 129.322 490.092C129.67 490.037 129.933 490.056 130.13 490.134C129.728 490.143 128.949 490.336 127.691 491.184C126.899 491.717 125.333 493.631 126.636 495.61C126.671 495.774 126.732 495.924 126.837 496.018C126.514 495.877 125.884 495.391 125.741 494.098C125.59 492.73 125.923 491.827 126.439 491.228Z" fill="#89E159"/>
<path opacity="0.6" d="M127.336 503.66C127.351 504.377 127.233 505.975 126.777 508.253C126.389 510.192 126.783 511.599 127.299 512.229C126.464 512.008 125.861 511.603 125.861 511.603C125.861 511.603 125.647 510.825 125.633 510.029C125.616 509.073 126.023 507.153 126.501 505.63C126.837 504.56 126.938 502.946 126.953 502.039C126.953 502.037 127.309 502.366 127.336 503.66Z" fill="#8990A5"/>
<path opacity="0.75" d="M128.453 501.19C128.658 501.213 128.843 501.086 128.998 500.963C129.562 500.511 129.883 500.133 130.517 499.757C131.008 499.466 131.976 499.27 131.651 498.527C131.495 498.17 130.894 498.125 130.486 498.193C129.065 498.427 128.433 499.243 128.134 500.264C128.082 500.442 128.012 500.621 128.053 500.804C128.091 500.986 128.242 501.162 128.443 501.19L128.453 501.19ZM124.008 499.173C123.073 498.629 121.693 498.641 120.537 499.219C120.251 499.362 119.977 499.55 119.81 499.82C119.685 500.024 119.652 500.33 119.851 500.468C120.017 500.581 120.245 500.513 120.438 500.453C121.598 500.094 122.91 500.23 123.965 500.821C124.363 501.044 125.218 501.87 125.469 501.292C125.718 500.708 125.171 499.85 124.008 499.173Z" fill="#DBE2F9"/>
</g>
<path d="M114.51 486.208C108.325 480.16 94.4111 481.672 89 508.885C110.645 509.641 123.013 496.791 114.51 486.208Z" fill="#3D8E53"/>
<path d="M133.835 491.499C126.363 485.704 123.013 483.94 114.51 486.208M114.51 486.208C108.325 480.16 94.4111 481.672 89 508.885C110.645 509.641 123.013 496.791 114.51 486.208Z" stroke="#3D8E53" stroke-width="2.74333"/>
<path d="M109.275 489.171C107.583 489.906 102.053 495.412 99.8366 499.935" stroke="#89E159" stroke-width="1.37166"/>
<path d="M122.982 539.013C121.248 538.984 117.561 538.92 118.571 543.147C131.576 543.37 146.425 543.091 149.677 543.147C152.418 543.194 149.715 539.472 147.909 539.441C146.235 536.045 141.855 534.427 140.398 535.103C136.176 528.717 133.372 533.931 131.765 532.851C129.195 531.123 123.057 534.806 122.982 539.013L122.982 539.013Z" fill="#1E4E4E"/>
<defs>
<clipPath id="clip0_1571_5803">
<rect width="24.6007" height="24.3273" fill="white" transform="matrix(-1.00552 -2.10604e-09 -9.07634e-09 0.99432 146.473 292.234)"/>
</clipPath>
<clipPath id="clip1_1571_5803">
<rect width="24.6007" height="24.3273" fill="white" transform="matrix(-1.00552 -2.10604e-09 -9.07634e-09 0.99432 58.4727 384.234)"/>
</clipPath>
<clipPath id="clip2_1571_5803">
<rect width="24.6007" height="24.3273" fill="white" transform="matrix(-1.00552 -2.10604e-09 -9.07634e-09 0.99432 138.473 489.234)"/>
</clipPath>
</defs>
</svg>
