<svg width="220" height="608" viewBox="0 0 220 608" fill="none" xmlns="http://www.w3.org/2000/svg">
<path d="M144.01 365.773C138.709 371.057 129.229 372.686 109.616 363.703C121.747 352.562 144.01 348.863 144.01 365.773C144.01 354.675 149.495 347.799 171.144 352.561C161.603 360.488 152.491 372.572 144.01 365.773Z" fill="#3D8E53"/>
<path d="M144.01 365.773C138.709 371.057 129.229 372.686 109.616 363.703C121.747 352.562 144.01 348.863 144.01 365.773ZM144.01 365.773C144.01 354.675 149.495 347.799 171.144 352.561C161.603 360.488 152.491 372.572 144.01 365.773ZM144.01 365.773C147.303 361.545 156.201 354.147 160.442 352.562M144.01 365.773C141.713 363.659 130.207 362.144 122.15 362.567M144.01 365.773C143.763 366.76 143.631 372.462 143.574 380.77C143.387 408.048 144.01 449.911 144.01 458.669" stroke="#3D8E53" stroke-width="5.48665"/>
<path d="M146.13 363.132C148.892 359.75 157.333 357.022 160.889 355.754" stroke="#89E159" stroke-width="1.37166"/>
<path d="M140.829 364.187C138.101 360.295 128.986 360.295 122.15 362.567" stroke="#89E159" stroke-width="1.37166"/>
<path d="M179.425 396.474C172.646 392.484 173.422 386.422 171.144 365.975C184.816 370.519 196.674 392.046 179.425 396.474C190.745 393.568 194.005 388.719 203.047 414.821C192.462 407.223 174.71 406.853 179.425 396.474Z" fill="#3D8E53"/>
<path d="M179.425 396.474C172.646 392.484 173.422 386.422 171.144 365.975C184.816 370.519 196.674 392.046 179.425 396.474ZM179.425 396.474C190.745 393.568 194.005 388.719 203.047 414.821C192.462 407.223 174.71 406.853 179.425 396.474ZM179.425 396.474C184.599 398.705 194.476 405.79 197.204 409.674M179.425 396.474C180.979 393.592 182.065 380.439 179.524 372.381M179.425 396.474C178.353 396.482 156.199 393.783 142.211 410.557" stroke="#3D8E53" stroke-width="2.74333"/>
<path d="M184.855 398.833C188.395 400.593 195.322 406.131 197.35 409.146" stroke="#89E159" stroke-width="1.37166"/>
<path d="M182.206 393.825C183.163 391.392 179.211 381.907 176.84 375.067" stroke="#89E159" stroke-width="1.37166"/>
<path d="M152.263 408.813C152.263 408.813 149.994 408.125 148.119 410.218C145.939 412.654 147.019 416.372 148.009 419.13C148.999 421.887 149.452 422.877 149.947 425.216C150.319 426.966 150.734 430.082 153.877 431.095C156.076 431.801 158.339 430.204 158.339 430.204C158.339 430.204 159.269 431.24 161.321 431.487C163.543 431.752 165.9 431.064 166.721 429.132C167.15 428.122 167.567 424.884 167.862 422.825C168.247 420.124 169.625 417.193 169.969 414.869C170.26 412.885 169.771 408.296 163.595 408.174C161.436 408.133 159.008 408.987 159.008 408.987C159.008 408.987 157.107 407.993 155.656 407.832C152.864 407.52 152.263 408.813 152.263 408.813Z" fill="#F68561"/>
<path d="M166.596 408.707C165.799 408.359 164.846 408.037 163.14 407.931C160.722 407.78 159.011 408.985 159.011 408.985C159.011 408.985 157.11 407.991 155.659 407.83C152.864 407.518 152.005 408.757 152.005 408.757C152.005 408.757 152.461 408.834 153.195 409.105C153.792 409.323 153.57 409.852 153.078 409.902C152.112 409.998 151.322 410.631 151.226 410.974C151.226 410.974 152.771 410.312 154.38 410.818C156.521 411.493 157.099 413.077 157.099 413.077C157.099 413.077 158.305 411.675 161.17 411.026C163.895 410.408 165.854 411.579 165.854 411.579C165.695 410.894 165.301 410.551 164.95 410.224C164.317 409.634 164.525 409.118 165.171 408.936C165.708 408.785 166.596 408.707 166.596 408.707Z" fill="#1E4E4E"/>
<path d="M151.872 402.37C151.896 403.611 152.844 404.187 153.279 404.213C154.159 404.263 154.813 403.198 156.454 404.769C157.12 405.408 157.381 406.317 157.36 407.22C157.352 407.519 157.425 408.635 156.899 408.885C156.735 408.963 156.626 409.022 156.115 408.828C155.545 408.609 155.037 409.15 155.037 409.15L156.016 410.263L158.441 411.048L160.874 410.565L162.28 409.331C162.28 409.331 161.626 408.825 161.059 409.027C160.751 409.137 160.157 408.957 160.155 408.599C160.144 407.843 160.176 407.124 160.035 406.371C159.801 405.127 159.269 403.938 158.418 402.993C157.196 401.637 155.448 400.934 153.675 400.648C152.219 400.417 151.849 401.144 151.872 402.37Z" fill="#3D8E53"/>
<path d="M157.558 402.209C156.44 401.357 155.065 400.872 153.671 400.649C153.203 400.573 152.848 400.599 152.583 400.706C153.125 400.719 154.174 400.984 155.87 402.149C156.938 402.882 159.047 405.512 157.292 408.231C157.245 408.457 157.162 408.662 157.021 408.792C157.456 408.597 158.305 407.93 158.498 406.153C158.701 404.274 158.253 403.032 157.558 402.209Z" fill="#89E159"/>
<path opacity="0.6" d="M156.349 419.294C156.328 420.278 156.487 422.475 157.102 425.604C157.625 428.268 157.094 430.203 156.399 431.068C157.524 430.764 158.336 430.208 158.336 430.208C158.336 430.208 158.626 429.138 158.644 428.045C158.667 426.731 158.118 424.093 157.474 422C157.021 420.53 156.886 418.313 156.865 417.066C156.865 417.064 156.386 417.516 156.349 419.294Z" fill="#8990A5"/>
<path opacity="0.75" d="M154.844 415.901C154.567 415.932 154.317 415.758 154.109 415.589C153.349 414.969 152.916 414.449 152.062 413.933C151.4 413.533 150.095 413.263 150.533 412.242C150.744 411.752 151.554 411.689 152.104 411.783C154.018 412.105 154.87 413.226 155.273 414.629C155.344 414.873 155.437 415.119 155.383 415.371C155.331 415.621 155.127 415.862 154.857 415.901L154.844 415.901ZM160.834 413.13C162.095 412.383 163.955 412.398 165.512 413.193C165.898 413.39 166.267 413.647 166.491 414.018C166.661 414.299 166.705 414.72 166.437 414.909C166.213 415.065 165.905 414.971 165.645 414.888C164.082 414.395 162.314 414.582 160.891 415.395C160.355 415.701 159.204 416.836 158.865 416.041C158.529 415.239 159.266 414.06 160.834 413.13Z" fill="#DBE2F9"/>
<g clip-path="url(#clip0_781_114963)">
<path d="M138.754 400.505C138.754 400.505 141.022 399.816 142.898 401.909C145.078 404.345 143.997 408.063 143.007 410.821C142.017 413.579 141.564 414.568 141.069 416.908C140.697 418.658 140.283 421.774 137.139 422.786C134.94 423.493 132.677 421.896 132.677 421.896C132.677 421.896 131.747 422.932 129.695 423.178C127.473 423.443 125.116 422.755 124.295 420.823C123.866 419.813 123.449 416.575 123.155 414.516C122.769 411.816 121.391 408.884 121.047 406.56C120.756 404.576 121.245 399.988 127.421 399.866C129.58 399.824 132.008 400.679 132.008 400.679C132.008 400.679 133.909 399.684 135.36 399.523C138.152 399.211 138.754 400.505 138.754 400.505Z" fill="#F68561"/>
<path d="M124.42 400.399C125.217 400.051 126.171 399.729 127.877 399.622C130.294 399.472 132.005 400.676 132.005 400.676C132.005 400.676 133.906 399.682 135.357 399.521C138.152 399.209 139.011 400.448 139.011 400.448C139.011 400.448 138.555 400.526 137.821 400.796C137.224 401.014 137.446 401.544 137.938 401.593C138.904 401.689 139.694 402.323 139.79 402.666C139.79 402.666 138.246 402.003 136.636 402.51C134.495 403.185 133.917 404.769 133.917 404.769C133.917 404.769 132.711 403.367 129.846 402.717C127.121 402.099 125.163 403.271 125.163 403.271C125.321 402.585 125.715 402.242 126.066 401.915C126.699 401.326 126.491 400.809 125.845 400.627C125.308 400.477 124.42 400.399 124.42 400.399Z" fill="#1E4E4E"/>
<path d="M139.259 392.342C140.301 393.241 138.173 395.881 137.738 395.907C136.857 395.957 136.204 394.892 134.563 396.463C133.896 397.102 133.635 398.011 133.656 398.914C133.664 399.213 133.591 400.329 134.117 400.579C134.281 400.657 134.391 400.716 134.901 400.522C135.472 400.303 135.98 400.844 135.98 400.844L135 401.958L132.575 402.742L130.143 402.259L128.736 401.025C128.736 401.025 129.39 400.519 129.958 400.722C130.265 400.831 130.859 400.651 130.862 400.293C130.872 399.537 130.841 398.818 130.981 398.065C131.216 396.821 131.747 395.632 132.599 394.687C133.82 393.331 135.964 391.007 137.738 390.721C139.194 390.49 139.283 391.116 139.259 392.342Z" fill="#3D8E53"/>
<path d="M133.458 393.901C134.576 393.049 135.951 392.563 137.344 392.34C137.813 392.265 138.167 392.291 138.433 392.397C137.891 392.41 136.842 392.675 135.146 393.841C134.078 394.573 131.968 397.204 133.724 399.922C133.771 400.148 133.854 400.353 133.995 400.483C133.56 400.288 132.711 399.621 132.518 397.845C132.315 395.965 132.763 394.724 133.458 393.901Z" fill="#89E159"/>
<path opacity="0.6" d="M134.667 410.986C134.688 411.97 134.529 414.167 133.914 417.296C133.391 419.96 133.922 421.894 134.617 422.759C133.492 422.455 132.68 421.899 132.68 421.899C132.68 421.899 132.391 420.83 132.372 419.736C132.349 418.423 132.898 415.784 133.542 413.691C133.995 412.222 134.13 410.004 134.151 408.758C134.151 408.755 134.63 409.207 134.667 410.986Z" fill="#8990A5"/>
<path opacity="0.75" d="M136.173 407.59C136.449 407.622 136.699 407.448 136.907 407.279C137.668 406.658 138.1 406.139 138.954 405.622C139.616 405.222 140.921 404.952 140.483 403.932C140.272 403.441 139.462 403.379 138.913 403.472C136.998 403.794 136.146 404.916 135.743 406.318C135.672 406.562 135.579 406.809 135.633 407.061C135.685 407.31 135.889 407.552 136.16 407.59L136.173 407.59ZM130.182 404.82C128.921 404.072 127.062 404.088 125.504 404.882C125.119 405.08 124.749 405.337 124.525 405.708C124.355 405.988 124.311 406.409 124.579 406.599C124.803 406.754 125.111 406.661 125.371 406.578C126.934 406.084 128.702 406.271 130.125 407.084C130.661 407.391 131.812 408.525 132.151 407.731C132.487 406.928 131.75 405.749 130.182 404.82Z" fill="#DBE2F9"/>
</g>
<path d="M117.381 387.005C109.046 378.694 90.2929 380.772 83 418.164C112.172 419.203 128.841 401.546 117.381 387.005Z" fill="#3D8E53"/>
<path d="M143.427 394.275C133.356 386.312 128.841 383.889 117.381 387.005M117.381 387.005C109.046 378.694 90.2929 380.772 83 418.164C112.172 419.203 128.841 401.546 117.381 387.005Z" stroke="#3D8E53" stroke-width="2.74333"/>
<path d="M110.327 391.075C108.045 392.085 100.593 399.651 97.6055 405.866" stroke="#89E159" stroke-width="1.37166"/>
<path d="M128.799 459.56C126.462 459.519 121.494 459.432 122.855 465.239C140.383 465.546 160.396 465.163 164.778 465.239C168.473 465.304 164.829 460.191 162.395 460.148C160.139 455.482 154.236 453.258 152.272 454.188C146.582 445.413 142.802 452.576 140.637 451.092C137.173 448.718 128.901 453.779 128.799 459.56L128.799 459.56Z" fill="#1E4E4E"/>
<path d="M83.0101 475.773C77.7094 481.057 68.2287 482.686 48.6165 473.703C60.7474 462.562 83.0101 458.863 83.0101 475.773C83.0101 464.675 88.4954 457.799 110.144 462.561C100.603 470.488 91.491 482.572 83.0101 475.773Z" fill="#3D8E53"/>
<path d="M83.0101 475.773C77.7094 481.057 68.2287 482.686 48.6165 473.703C60.7474 462.562 83.0101 458.863 83.0101 475.773ZM83.0101 475.773C83.0101 464.675 88.4954 457.799 110.144 462.561C100.603 470.488 91.491 482.572 83.0101 475.773ZM83.0101 475.773C86.3026 471.545 95.2014 464.147 99.4419 462.562M83.0101 475.773C80.7131 473.659 69.2068 472.144 61.1498 472.567M83.0101 475.773C82.7626 476.76 82.6306 482.462 82.5738 490.77C82.3872 518.048 83.0101 559.911 83.0101 568.669" stroke="#3D8E53" stroke-width="5.48665"/>
<path d="M85.1304 473.132C87.8919 469.75 96.3326 467.022 99.8891 465.754" stroke="#89E159" stroke-width="1.37166"/>
<path d="M79.8293 474.187C77.1015 470.295 67.9863 470.295 61.1499 472.567" stroke="#89E159" stroke-width="1.37166"/>
<path d="M118.425 506.474C111.646 502.484 112.422 496.422 110.144 475.975C123.816 480.519 135.674 502.046 118.425 506.474C129.745 503.568 133.005 498.719 142.047 524.821C131.462 517.223 113.71 516.853 118.425 506.474Z" fill="#3D8E53"/>
<path d="M118.425 506.474C111.646 502.484 112.422 496.422 110.144 475.975C123.816 480.519 135.674 502.046 118.425 506.474ZM118.425 506.474C129.745 503.568 133.005 498.719 142.047 524.821C131.462 517.223 113.71 516.853 118.425 506.474ZM118.425 506.474C123.599 508.705 133.476 515.79 136.204 519.674M118.425 506.474C119.979 503.592 121.065 490.439 118.524 482.381M118.425 506.474C117.353 506.482 95.1989 503.783 81.2105 520.557" stroke="#3D8E53" stroke-width="2.74333"/>
<path d="M123.855 508.833C127.395 510.593 134.322 516.131 136.35 519.146" stroke="#89E159" stroke-width="1.37166"/>
<path d="M121.206 503.825C122.163 501.392 118.211 491.907 115.84 485.067" stroke="#89E159" stroke-width="1.37166"/>
<path d="M91.2625 518.813C91.2625 518.813 88.9939 518.125 87.1186 520.218C84.9385 522.654 86.0194 526.372 87.0092 529.13C87.9989 531.887 88.4521 532.877 88.947 535.216C89.3195 536.966 89.7336 540.082 92.8774 541.095C95.0757 541.801 97.3391 540.204 97.3391 540.204C97.3391 540.204 98.2689 541.24 100.321 541.487C102.543 541.752 104.9 541.064 105.721 539.132C106.15 538.122 106.567 534.884 106.862 532.825C107.247 530.124 108.625 527.193 108.969 524.869C109.26 522.885 108.771 518.296 102.595 518.174C100.436 518.133 98.0085 518.987 98.0085 518.987C98.0085 518.987 96.1071 517.993 94.6563 517.832C91.8642 517.52 91.2625 518.813 91.2625 518.813Z" fill="#F68561"/>
<path d="M105.596 518.707C104.799 518.359 103.846 518.037 102.14 517.931C99.7225 517.78 98.0113 518.985 98.0113 518.985C98.0113 518.985 96.1099 517.991 94.6591 517.83C91.8644 517.518 91.0049 518.757 91.0049 518.757C91.0049 518.757 91.4607 518.834 92.1952 519.105C92.7916 519.323 92.5702 519.852 92.078 519.902C91.1116 519.998 90.3224 520.631 90.2261 520.974C90.2261 520.974 91.7706 520.312 93.3803 520.818C95.5213 521.493 96.0995 523.077 96.0995 523.077C96.0995 523.077 97.3054 521.675 100.17 521.026C102.895 520.408 104.854 521.579 104.854 521.579C104.695 520.894 104.301 520.551 103.95 520.224C103.317 519.634 103.525 519.118 104.171 518.936C104.708 518.785 105.596 518.707 105.596 518.707Z" fill="#1E4E4E"/>
<path d="M90.8721 512.37C90.8956 513.611 91.8436 514.187 92.2786 514.213C93.159 514.263 93.8127 513.198 95.4536 514.769C96.1204 515.408 96.3809 516.317 96.36 517.22C96.3522 517.519 96.4252 518.635 95.899 518.885C95.7349 518.963 95.6255 519.022 95.115 518.828C94.5446 518.609 94.0367 519.15 94.0367 519.15L95.0161 520.263L97.441 521.048L99.8737 520.565L101.28 519.331C101.28 519.331 100.626 518.825 100.059 519.027C99.7513 519.137 99.1574 518.957 99.1548 518.599C99.1444 517.843 99.1756 517.124 99.035 516.371C98.8006 515.127 98.2692 513.938 97.4175 512.993C96.196 511.637 94.4483 510.934 92.6745 510.648C91.2185 510.417 90.8487 511.144 90.8721 512.37Z" fill="#3D8E53"/>
<path d="M96.5576 512.209C95.4402 511.357 94.065 510.872 92.6715 510.649C92.2027 510.573 91.8484 510.599 91.5828 510.706C92.1245 510.719 93.1742 510.984 94.8698 512.149C95.9377 512.882 98.0474 515.512 96.2919 518.231C96.245 518.457 96.1617 518.662 96.021 518.792C96.456 518.597 97.3051 517.93 97.4978 516.153C97.701 514.274 97.253 513.032 96.5576 512.209Z" fill="#89E159"/>
<path opacity="0.6" d="M95.3492 529.294C95.3283 530.278 95.4872 532.475 96.1019 535.604C96.6254 538.268 96.0941 540.203 95.3987 541.068C96.5239 540.764 97.3365 540.208 97.3365 540.208C97.3365 540.208 97.6256 539.138 97.6438 538.045C97.6673 536.731 97.1177 534.093 96.4744 532C96.0212 530.53 95.8857 528.313 95.8649 527.066C95.8649 527.064 95.3856 527.516 95.3492 529.294Z" fill="#8990A5"/>
<path opacity="0.75" d="M93.8436 525.901C93.5675 525.932 93.3174 525.758 93.1091 525.589C92.3485 524.969 91.9162 524.449 91.0619 523.933C90.4003 523.533 89.0954 523.263 89.5329 522.242C89.7439 521.752 90.554 521.689 91.1035 521.783C93.0179 522.105 93.8696 523.226 94.2733 524.629C94.3437 524.873 94.4374 525.119 94.3827 525.371C94.3306 525.621 94.1275 525.862 93.8566 525.901L93.8436 525.901ZM99.8342 523.13C101.095 522.383 102.955 522.398 104.512 523.193C104.898 523.39 105.267 523.647 105.491 524.018C105.661 524.299 105.705 524.72 105.437 524.909C105.213 525.065 104.905 524.971 104.645 524.888C103.082 524.395 101.314 524.582 99.8915 525.395C99.3549 525.701 98.2037 526.836 97.8651 526.041C97.5291 525.239 98.2662 524.06 99.8342 523.13Z" fill="#DBE2F9"/>
<g clip-path="url(#clip1_781_114963)">
<path d="M77.7536 510.505C77.7536 510.505 80.0222 509.816 81.8975 511.909C84.0776 514.345 82.9967 518.063 82.0069 520.821C81.0172 523.579 80.564 524.568 80.0691 526.908C79.6966 528.658 79.2825 531.774 76.1387 532.786C73.9404 533.493 71.677 531.896 71.677 531.896C71.677 531.896 70.7472 532.932 68.6947 533.178C66.473 533.443 64.1158 532.755 63.2954 530.823C62.8656 529.813 62.4489 526.575 62.1546 524.516C61.7691 521.816 60.3912 518.884 60.0474 516.56C59.7557 514.576 60.2454 509.988 66.4209 509.866C68.5801 509.824 71.0076 510.679 71.0076 510.679C71.0076 510.679 72.909 509.684 74.3598 509.523C77.1519 509.211 77.7536 510.505 77.7536 510.505Z" fill="#F68561"/>
<path d="M63.4202 510.399C64.2172 510.051 65.1705 509.729 66.8765 509.622C69.2936 509.472 71.0048 510.676 71.0048 510.676C71.0048 510.676 72.9062 509.682 74.357 509.521C77.1517 509.209 78.0113 510.448 78.0113 510.448C78.0113 510.448 77.5555 510.526 76.821 510.796C76.2245 511.014 76.4459 511.544 76.9382 511.593C77.9045 511.689 78.6937 512.323 78.79 512.666C78.79 512.666 77.2455 512.003 75.6359 512.51C73.4949 513.185 72.9166 514.769 72.9166 514.769C72.9166 514.769 71.7107 513.367 68.8456 512.717C66.1212 512.099 64.1625 513.271 64.1625 513.271C64.3214 512.585 64.7147 512.242 65.0663 511.915C65.6992 511.326 65.4909 510.809 64.8449 510.627C64.3084 510.477 63.4202 510.399 63.4202 510.399Z" fill="#1E4E4E"/>
<path d="M78.2591 502.342C79.3007 503.241 77.1727 505.881 76.7377 505.907C75.8574 505.957 75.2036 504.892 73.5627 506.463C72.8959 507.102 72.6355 508.011 72.6563 508.914C72.6641 509.213 72.5912 510.329 73.1173 510.579C73.2814 510.657 73.3908 510.716 73.9013 510.522C74.4717 510.303 74.9796 510.844 74.9796 510.844L74.0003 511.958L71.5754 512.742L69.1427 512.259L67.7362 511.025C67.7362 511.025 68.3899 510.519 68.9577 510.722C69.2651 510.831 69.8589 510.651 69.8616 510.293C69.872 509.537 69.8407 508.818 69.9814 508.065C70.2158 506.821 70.7471 505.632 71.5988 504.687C72.8204 503.331 74.9638 501.007 76.7375 500.721C78.1935 500.49 78.2825 501.116 78.2591 502.342Z" fill="#3D8E53"/>
<path d="M72.4583 503.901C73.5757 503.049 74.9509 502.563 76.3444 502.34C76.8132 502.265 77.1674 502.291 77.4331 502.397C76.8913 502.41 75.8417 502.675 74.1461 503.841C73.0782 504.573 70.9685 507.204 72.724 509.922C72.7708 510.148 72.8542 510.353 72.9948 510.483C72.5599 510.288 71.7108 509.621 71.518 507.845C71.3149 505.965 71.7629 504.724 72.4583 503.901Z" fill="#89E159"/>
<path opacity="0.6" d="M73.6669 520.986C73.6878 521.97 73.5289 524.167 72.9142 527.296C72.3907 529.96 72.922 531.894 73.6175 532.759C72.4923 532.455 71.6796 531.899 71.6796 531.899C71.6796 531.899 71.3905 530.83 71.3723 529.736C71.3488 528.423 71.8984 525.784 72.5417 523.691C72.9949 522.222 73.1304 520.004 73.1512 518.758C73.1512 518.755 73.6305 519.207 73.6669 520.986Z" fill="#8990A5"/>
<path opacity="0.75" d="M75.1725 517.59C75.4486 517.622 75.6987 517.448 75.907 517.279C76.6676 516.658 77.0999 516.139 77.9543 515.622C78.6158 515.222 79.9207 514.952 79.4832 513.932C79.2722 513.441 78.4622 513.379 77.9126 513.472C75.9982 513.794 75.1465 514.916 74.7428 516.318C74.6724 516.562 74.5787 516.809 74.6334 517.061C74.6855 517.31 74.8886 517.552 75.1595 517.59L75.1725 517.59ZM69.1819 514.82C67.9213 514.072 66.0616 514.088 64.504 514.882C64.1186 515.08 63.7487 515.337 63.5247 515.708C63.3554 515.988 63.3111 516.409 63.5794 516.599C63.8034 516.754 64.1107 516.661 64.3712 516.578C65.934 516.084 67.7025 516.271 69.1246 517.084C69.6612 517.391 70.8124 518.525 71.151 517.731C71.487 516.928 70.7499 515.749 69.1819 514.82Z" fill="#DBE2F9"/>
</g>
<path d="M56.3809 497.005C48.0461 488.694 29.2929 490.772 22 528.164C51.1717 529.203 67.8412 511.546 56.3809 497.005Z" fill="#3D8E53"/>
<path d="M82.427 504.275C72.3559 496.312 67.8412 493.889 56.3809 497.005M56.3809 497.005C48.0461 488.694 29.2929 490.772 22 528.164C51.1717 529.203 67.8412 511.546 56.3809 497.005Z" stroke="#3D8E53" stroke-width="2.74333"/>
<path d="M49.3266 501.075C47.0453 502.085 39.5926 509.651 36.6055 515.866" stroke="#89E159" stroke-width="1.37166"/>
<path d="M67.799 569.56C65.462 569.519 60.494 569.432 61.8545 575.239C79.3827 575.546 99.3957 575.163 103.778 575.239C107.473 575.304 103.829 570.191 101.395 570.148C99.139 565.482 93.2363 563.258 91.2717 564.188C85.5818 555.413 81.8022 562.576 79.6372 561.092C76.1726 558.718 67.9009 563.779 67.7991 569.56L67.799 569.56Z" fill="#1E4E4E"/>
<path d="M79.0101 253.773C73.7094 259.057 64.2287 260.686 44.6165 251.703C56.7474 240.562 79.0101 236.863 79.0101 253.773C79.0101 242.675 84.4954 235.799 106.144 240.561C96.6028 248.488 87.491 260.572 79.0101 253.773Z" fill="#3D8E53"/>
<path d="M79.0101 253.773C73.7094 259.057 64.2287 260.686 44.6165 251.703C56.7474 240.562 79.0101 236.863 79.0101 253.773ZM79.0101 253.773C79.0101 242.675 84.4954 235.799 106.144 240.561C96.6028 248.488 87.491 260.572 79.0101 253.773ZM79.0101 253.773C82.3026 249.545 91.2014 242.147 95.4419 240.562M79.0101 253.773C76.7131 251.659 65.2068 250.144 57.1498 250.567M79.0101 253.773C78.7626 254.76 78.6306 260.462 78.5738 268.77C78.3872 296.048 79.0101 337.911 79.0101 346.669" stroke="#3D8E53" stroke-width="5.48665"/>
<path d="M81.1304 251.132C83.8919 247.75 92.3326 245.022 95.8891 243.754" stroke="#89E159" stroke-width="1.37166"/>
<path d="M75.8293 252.187C73.1015 248.295 63.9863 248.295 57.1499 250.567" stroke="#89E159" stroke-width="1.37166"/>
<path d="M114.425 284.474C107.646 280.484 108.422 274.422 106.144 253.975C119.816 258.519 131.674 280.046 114.425 284.474C125.745 281.568 129.005 276.719 138.047 302.821C127.462 295.223 109.71 294.853 114.425 284.474Z" fill="#3D8E53"/>
<path d="M114.425 284.474C107.646 280.484 108.422 274.422 106.144 253.975C119.816 258.519 131.674 280.046 114.425 284.474ZM114.425 284.474C125.745 281.568 129.005 276.719 138.047 302.821C127.462 295.223 109.71 294.853 114.425 284.474ZM114.425 284.474C119.599 286.705 129.476 293.79 132.204 297.674M114.425 284.474C115.979 281.592 117.065 268.439 114.524 260.381M114.425 284.474C113.353 284.482 91.1989 281.783 77.2105 298.557" stroke="#3D8E53" stroke-width="2.74333"/>
<path d="M119.855 286.833C123.395 288.593 130.322 294.131 132.35 297.146" stroke="#89E159" stroke-width="1.37166"/>
<path d="M117.206 281.825C118.163 279.392 114.211 269.907 111.84 263.067" stroke="#89E159" stroke-width="1.37166"/>
<path d="M87.2625 296.813C87.2625 296.813 84.9939 296.125 83.1186 298.218C80.9385 300.654 82.0194 304.372 83.0092 307.13C83.9989 309.887 84.4521 310.877 84.947 313.216C85.3195 314.966 85.7336 318.082 88.8774 319.095C91.0757 319.801 93.3391 318.204 93.3391 318.204C93.3391 318.204 94.2689 319.24 96.3214 319.487C98.5431 319.752 100.9 319.064 101.721 317.132C102.15 316.122 102.567 312.884 102.862 310.825C103.247 308.124 104.625 305.193 104.969 302.869C105.26 300.885 104.771 296.296 98.5952 296.174C96.436 296.133 94.0085 296.987 94.0085 296.987C94.0085 296.987 92.1071 295.993 90.6563 295.832C87.8642 295.52 87.2625 296.813 87.2625 296.813Z" fill="#F68561"/>
<path d="M101.596 296.707C100.799 296.359 99.8456 296.037 98.1396 295.931C95.7225 295.78 94.0113 296.985 94.0113 296.985C94.0113 296.985 92.1099 295.991 90.6591 295.83C87.8644 295.518 87.0049 296.757 87.0049 296.757C87.0049 296.757 87.4607 296.834 88.1952 297.105C88.7916 297.323 88.5702 297.852 88.078 297.902C87.1116 297.998 86.3224 298.631 86.2261 298.974C86.2261 298.974 87.7706 298.312 89.3803 298.818C91.5213 299.493 92.0995 301.077 92.0995 301.077C92.0995 301.077 93.3054 299.675 96.1705 299.026C98.8949 298.408 100.854 299.579 100.854 299.579C100.695 298.894 100.301 298.551 99.9498 298.224C99.3169 297.634 99.5252 297.118 100.171 296.936C100.708 296.785 101.596 296.707 101.596 296.707Z" fill="#1E4E4E"/>
<path d="M86.8721 290.37C86.8956 291.611 87.8436 292.187 88.2786 292.213C89.159 292.263 89.8127 291.198 91.4536 292.769C92.1204 293.408 92.3809 294.317 92.36 295.22C92.3522 295.519 92.4252 296.635 91.899 296.885C91.7349 296.963 91.6255 297.022 91.115 296.828C90.5446 296.609 90.0367 297.15 90.0367 297.15L91.0161 298.263L93.441 299.048L95.8737 298.565L97.2802 297.331C97.2802 297.331 96.6264 296.825 96.0586 297.027C95.7513 297.137 95.1574 296.957 95.1548 296.599C95.1444 295.843 95.1756 295.124 95.035 294.371C94.8006 293.127 94.2692 291.938 93.4175 290.993C92.196 289.637 90.4483 288.934 88.6745 288.648C87.2185 288.417 86.8487 289.144 86.8721 290.37Z" fill="#3D8E53"/>
<path d="M92.5576 290.209C91.4402 289.357 90.065 288.872 88.6715 288.649C88.2027 288.573 87.8484 288.599 87.5828 288.706C88.1245 288.719 89.1742 288.984 90.8698 290.149C91.9377 290.882 94.0474 293.512 92.2919 296.231C92.245 296.457 92.1617 296.662 92.021 296.792C92.456 296.597 93.3051 295.93 93.4978 294.153C93.701 292.274 93.253 291.032 92.5576 290.209Z" fill="#89E159"/>
<path opacity="0.6" d="M91.3492 307.294C91.3283 308.278 91.4872 310.475 92.1019 313.604C92.6254 316.268 92.0941 318.203 91.3987 319.068C92.5239 318.764 93.3365 318.208 93.3365 318.208C93.3365 318.208 93.6256 317.138 93.6438 316.045C93.6673 314.731 93.1177 312.093 92.4744 310C92.0212 308.53 91.8857 306.313 91.8649 305.066C91.8649 305.064 91.3856 305.516 91.3492 307.294Z" fill="#8990A5"/>
<path opacity="0.75" d="M89.8436 303.901C89.5675 303.932 89.3174 303.758 89.1091 303.589C88.3485 302.969 87.9162 302.449 87.0619 301.933C86.4003 301.533 85.0954 301.263 85.5329 300.242C85.7439 299.752 86.554 299.689 87.1035 299.783C89.0179 300.105 89.8696 301.226 90.2733 302.629C90.3437 302.873 90.4374 303.119 90.3827 303.371C90.3306 303.621 90.1275 303.862 89.8566 303.901L89.8436 303.901ZM95.8342 301.13C97.0948 300.383 98.9545 300.398 100.512 301.193C100.898 301.39 101.267 301.647 101.491 302.018C101.661 302.299 101.705 302.72 101.437 302.909C101.213 303.065 100.905 302.971 100.645 302.888C99.0821 302.395 97.3136 302.582 95.8915 303.395C95.3549 303.701 94.2037 304.836 93.8651 304.041C93.5291 303.239 94.2662 302.06 95.8342 301.13Z" fill="#DBE2F9"/>
<g clip-path="url(#clip2_781_114963)">
<path d="M73.7536 288.505C73.7536 288.505 76.0222 287.816 77.8975 289.909C80.0776 292.345 78.9967 296.063 78.0069 298.821C77.0172 301.579 76.564 302.568 76.0691 304.908C75.6966 306.658 75.2825 309.774 72.1387 310.786C69.9404 311.493 67.677 309.896 67.677 309.896C67.677 309.896 66.7472 310.932 64.6947 311.178C62.473 311.443 60.1158 310.755 59.2954 308.823C58.8656 307.813 58.4489 304.575 58.1546 302.516C57.7691 299.816 56.3912 296.884 56.0474 294.56C55.7557 292.576 56.2454 287.988 62.4209 287.866C64.5801 287.824 67.0076 288.679 67.0076 288.679C67.0076 288.679 68.909 287.684 70.3598 287.523C73.1519 287.211 73.7536 288.505 73.7536 288.505Z" fill="#F68561"/>
<path d="M59.4202 288.399C60.2172 288.051 61.1705 287.729 62.8765 287.622C65.2936 287.472 67.0048 288.676 67.0048 288.676C67.0048 288.676 68.9062 287.682 70.357 287.521C73.1517 287.209 74.0113 288.448 74.0113 288.448C74.0113 288.448 73.5555 288.526 72.821 288.796C72.2245 289.014 72.4459 289.544 72.9382 289.593C73.9045 289.689 74.6937 290.323 74.79 290.666C74.79 290.666 73.2455 290.003 71.6359 290.51C69.4949 291.185 68.9166 292.769 68.9166 292.769C68.9166 292.769 67.7107 291.367 64.8456 290.717C62.1212 290.099 60.1625 291.271 60.1625 291.271C60.3214 290.585 60.7147 290.242 61.0663 289.915C61.6992 289.326 61.4909 288.809 60.8449 288.627C60.3084 288.477 59.4202 288.399 59.4202 288.399Z" fill="#1E4E4E"/>
<path d="M74.2591 280.342C75.3007 281.241 73.1727 283.881 72.7377 283.907C71.8574 283.957 71.2036 282.892 69.5627 284.463C68.8959 285.102 68.6355 286.011 68.6563 286.914C68.6641 287.213 68.5912 288.329 69.1173 288.579C69.2814 288.657 69.3908 288.716 69.9013 288.522C70.4717 288.303 70.9796 288.844 70.9796 288.844L70.0003 289.958L67.5754 290.742L65.1427 290.259L63.7362 289.025C63.7362 289.025 64.3899 288.519 64.9577 288.722C65.2651 288.831 65.8589 288.651 65.8616 288.293C65.872 287.537 65.8407 286.818 65.9814 286.065C66.2158 284.821 66.7471 283.632 67.5988 282.687C68.8204 281.331 70.9638 279.007 72.7375 278.721C74.1935 278.49 74.2825 279.116 74.2591 280.342Z" fill="#3D8E53"/>
<path d="M68.4583 281.901C69.5757 281.049 70.9509 280.563 72.3444 280.34C72.8132 280.265 73.1674 280.291 73.4331 280.397C72.8913 280.41 71.8417 280.675 70.1461 281.841C69.0782 282.573 66.9685 285.204 68.724 287.922C68.7708 288.148 68.8542 288.353 68.9948 288.483C68.5599 288.288 67.7108 287.621 67.518 285.845C67.3149 283.965 67.7629 282.724 68.4583 281.901Z" fill="#89E159"/>
<path opacity="0.6" d="M69.6669 298.986C69.6878 299.97 69.5289 302.167 68.9142 305.296C68.3907 307.96 68.922 309.894 69.6175 310.759C68.4923 310.455 67.6796 309.899 67.6796 309.899C67.6796 309.899 67.3905 308.83 67.3723 307.736C67.3488 306.423 67.8984 303.784 68.5417 301.691C68.9949 300.222 69.1304 298.004 69.1512 296.758C69.1512 296.755 69.6305 297.207 69.6669 298.986Z" fill="#8990A5"/>
<path opacity="0.75" d="M71.1725 295.59C71.4486 295.622 71.6987 295.448 71.907 295.279C72.6676 294.658 73.0999 294.139 73.9543 293.622C74.6158 293.222 75.9207 292.952 75.4832 291.932C75.2722 291.441 74.4622 291.379 73.9126 291.472C71.9982 291.794 71.1465 292.916 70.7428 294.318C70.6724 294.562 70.5787 294.809 70.6334 295.061C70.6855 295.31 70.8886 295.552 71.1595 295.59L71.1725 295.59ZM65.1819 292.82C63.9213 292.072 62.0616 292.088 60.504 292.882C60.1186 293.08 59.7487 293.337 59.5247 293.708C59.3554 293.988 59.3111 294.409 59.5794 294.599C59.8034 294.754 60.1107 294.661 60.3712 294.578C61.934 294.084 63.7025 294.271 65.1246 295.084C65.6612 295.391 66.8124 296.525 67.151 295.731C67.487 294.928 66.7499 293.749 65.1819 292.82Z" fill="#DBE2F9"/>
</g>
<path d="M52.3809 275.005C44.0461 266.694 25.2929 268.772 18 306.164C47.1717 307.203 63.8412 289.546 52.3809 275.005Z" fill="#3D8E53"/>
<path d="M78.427 282.275C68.3559 274.312 63.8412 271.889 52.3809 275.005M52.3809 275.005C44.0461 266.694 25.2929 268.772 18 306.164C47.1717 307.203 63.8412 289.546 52.3809 275.005Z" stroke="#3D8E53" stroke-width="2.74333"/>
<path d="M45.3266 279.075C43.0453 280.085 35.5926 287.651 32.6055 293.866" stroke="#89E159" stroke-width="1.37166"/>
<path d="M63.799 347.56C61.462 347.519 56.494 347.432 57.8545 353.239C75.3827 353.546 95.3957 353.163 99.7777 353.239C103.473 353.304 99.8291 348.191 97.3947 348.148C95.139 343.482 89.2363 341.258 87.2717 342.188C81.5818 333.413 77.8022 340.576 75.6372 339.092C72.1726 336.718 63.9009 341.779 63.7991 347.56L63.799 347.56Z" fill="#1E4E4E"/>
<defs>
<clipPath id="clip0_781_114963">
<rect width="33.3135" height="33.2626" fill="white" transform="matrix(-1.00077 -1.245e-08 -6.87859e-09 0.999231 149.677 391.162)"/>
</clipPath>
<clipPath id="clip1_781_114963">
<rect width="33.3135" height="33.2626" fill="white" transform="matrix(-1.00077 -1.245e-08 -6.87859e-09 0.999231 88.6772 501.162)"/>
</clipPath>
<clipPath id="clip2_781_114963">
<rect width="33.3135" height="33.2626" fill="white" transform="matrix(-1.00077 -1.245e-08 -6.87859e-09 0.999231 84.6772 279.162)"/>
</clipPath>
</defs>
</svg>
