<svg width="72" height="72" viewBox="0 0 72 72" fill="none" xmlns="http://www.w3.org/2000/svg">
<g clip-path="url(#clip0_781_113882)">
<path d="M48.2365 19.9756C48.2365 19.9756 53.0679 18.5057 57.0616 22.9765C61.7043 28.1794 59.4024 36.1226 57.2946 42.0134C55.1868 47.9041 54.2216 50.0175 53.1677 55.0152C52.3745 58.7538 51.4925 65.4101 44.7975 67.5734C40.1159 69.0821 35.2957 65.6708 35.2957 65.6708C35.2957 65.6708 33.3154 67.884 28.9445 68.4109C24.213 68.9767 19.1931 67.5068 17.4458 63.3799C16.5306 61.2222 15.6431 54.3052 15.0163 49.9066C14.1954 44.1378 11.2611 37.8754 10.5289 32.9109C9.90762 28.6731 10.9504 18.8718 24.1021 18.6111C28.7004 18.5223 33.8701 20.3473 33.8701 20.3473C33.8701 20.3473 37.9193 18.2228 41.0089 17.8789C46.9552 17.2133 48.2365 19.9756 48.2365 19.9756Z" fill="url(#paint0_linear_781_113882)"/>
<path d="M17.7122 19.7479C19.4096 19.0046 21.4397 18.3168 25.0729 18.0894C30.2204 17.7676 33.8647 20.3414 33.8647 20.3414C33.8647 20.3414 37.9139 18.2169 41.0036 17.873C46.9554 17.2074 48.7858 19.8533 48.7858 19.8533C48.7858 19.8533 47.8151 20.0197 46.2509 20.5965C44.9807 21.0625 45.4521 22.194 46.5005 22.2994C48.5584 22.5047 50.2391 23.8581 50.4443 24.5903C50.4443 24.5903 47.155 23.1758 43.7271 24.2575C39.1675 25.6997 37.9361 29.0833 37.9361 29.0833C37.9361 29.0833 35.3679 26.0879 29.2664 24.7012C23.4643 23.3811 19.2931 25.8827 19.2931 25.8827C19.6314 24.4183 20.469 23.6862 21.2178 22.9872C22.5657 21.7281 22.122 20.6243 20.7464 20.236C19.6037 19.9143 17.7122 19.7479 17.7122 19.7479Z" fill="#1E4E4E"/>
<path d="M49.3132 2.53724C51.5315 4.45865 46.9996 10.0989 46.0732 10.1543C44.1984 10.2597 42.8061 7.98551 39.3116 11.3414C37.8916 12.7059 37.3369 14.6473 37.3813 16.5776C37.3979 17.2155 37.2426 19.6007 38.3631 20.1332C38.7125 20.2996 38.9455 20.4271 40.0327 20.0111C41.2475 19.5452 42.3291 20.6989 42.3291 20.6989L40.2435 23.0786L35.0793 24.7537L29.8985 23.722L26.9032 21.0872C26.9032 21.0872 28.2955 20.0056 29.5047 20.4382C30.1592 20.6712 31.4239 20.2885 31.4295 19.523C31.4517 17.9089 31.3851 16.3724 31.6846 14.7638C32.1839 12.1068 33.3154 9.56637 35.1292 7.5473C37.7307 4.65183 42.2954 -0.313996 46.0728 -0.924152C49.1735 -1.41782 49.3631 -0.0808892 49.3132 2.53724Z" fill="#3D8E53"/>
<path d="M36.9594 5.87112C39.339 4.05174 42.2678 3.01448 45.2354 2.53744C46.2338 2.37659 46.9882 2.43205 47.554 2.65948C46.4002 2.68721 44.1648 3.25299 40.5538 5.74354C38.2796 7.30776 33.7866 12.9267 37.5252 18.7343C37.625 19.2169 37.8025 19.6551 38.1021 19.9324C37.1758 19.5164 35.3675 18.0909 34.957 14.2968C34.5243 10.2809 35.4784 7.62948 36.9594 5.87112Z" fill="#89E159"/>
<path opacity="0.6" d="M39.5336 42.3647C39.578 44.467 39.2396 49.1596 37.9306 55.8436C36.8156 61.5347 37.9472 65.6671 39.4282 67.5142C37.032 66.8653 35.3013 65.6782 35.3013 65.6782C35.3013 65.6782 34.6856 63.3929 34.6468 61.0577C34.5969 58.251 35.7673 52.6153 37.1374 48.1446C38.1025 45.005 38.3909 40.268 38.4353 37.6055C38.4353 37.5999 39.4559 38.5651 39.5336 42.3647Z" fill="#8990A5"/>
<path opacity="0.75" d="M42.7395 35.11C43.3274 35.1766 43.8599 34.8049 44.3037 34.4444C45.9234 33.1187 46.8442 32.0093 48.6635 30.9055C50.0724 30.0512 52.8514 29.4744 51.9195 27.2944C51.4702 26.2461 49.7452 26.113 48.5748 26.3127C44.4978 27.0005 42.684 29.3967 41.8242 32.392C41.6745 32.9134 41.4748 33.4404 41.5913 33.9784C41.7022 34.5109 42.1349 35.0268 42.7117 35.11L42.7395 35.11ZM29.9817 29.1915C27.297 27.594 23.3365 27.6273 20.0195 29.3246C19.1985 29.7462 18.4109 30.2953 17.9338 31.0885C17.5733 31.6876 17.479 32.5862 18.0503 32.9911C18.5274 33.3239 19.1819 33.1242 19.7366 32.9467C23.0647 31.8928 26.831 32.2922 29.8596 34.0284C31.0023 34.6829 33.454 37.1069 34.1751 35.4095C34.8906 33.6955 33.3209 31.1773 29.9817 29.1915Z" fill="#DBE2F9"/>
</g>
<defs>
<linearGradient id="paint0_linear_781_113882" x1="55.2403" y1="17.7754" x2="9.14699" y2="21.4976" gradientUnits="userSpaceOnUse">
<stop offset="1" stop-color="#B9F598"/>
</linearGradient>
<clipPath id="clip0_781_113882">
<rect width="71" height="71" rx="18.9333" transform="matrix(-1 -4.7057e-09 -4.7057e-09 1 71.5 0.0195312)" fill="white"/>
</clipPath>
</defs>
</svg>
