<svg width="183" height="608" viewBox="0 0 183 608" fill="none" xmlns="http://www.w3.org/2000/svg">
<path d="M64.0101 250.773C58.7094 256.057 49.2287 257.686 29.6165 248.703C41.7474 237.562 64.0101 233.863 64.0101 250.773C64.0101 239.675 69.4954 232.799 91.144 237.561C81.6028 245.488 72.491 257.572 64.0101 250.773Z" fill="#3D8E53"/>
<path d="M64.0101 250.773C58.7094 256.057 49.2287 257.686 29.6165 248.703C41.7474 237.562 64.0101 233.863 64.0101 250.773ZM64.0101 250.773C64.0101 239.675 69.4954 232.799 91.144 237.561C81.6028 245.488 72.491 257.572 64.0101 250.773ZM64.0101 250.773C67.3026 246.545 76.2014 239.147 80.4419 237.562M64.0101 250.773C61.7131 248.659 50.2068 247.144 42.1498 247.567M64.0101 250.773C63.7626 251.76 63.6306 257.462 63.5738 265.77C63.3872 293.048 64.0101 334.911 64.0101 343.669" stroke="#3D8E53" stroke-width="5.48665"/>
<path d="M66.1304 248.132C68.8919 244.75 77.3326 242.022 80.8891 240.754" stroke="#89E159" stroke-width="1.37166"/>
<path d="M60.8293 249.187C58.1015 245.295 48.9863 245.295 42.1499 247.567" stroke="#89E159" stroke-width="1.37166"/>
<path d="M99.4247 281.474C92.6461 277.484 93.4217 271.422 91.1439 250.975C104.816 255.519 116.674 277.046 99.4247 281.474C110.745 278.568 114.005 273.719 123.047 299.821C112.462 292.223 94.7096 291.853 99.4247 281.474Z" fill="#3D8E53"/>
<path d="M99.4247 281.474C92.6461 277.484 93.4217 271.422 91.1439 250.975C104.816 255.519 116.674 277.046 99.4247 281.474ZM99.4247 281.474C110.745 278.568 114.005 273.719 123.047 299.821C112.462 292.223 94.7096 291.853 99.4247 281.474ZM99.4247 281.474C104.599 283.705 114.476 290.79 117.204 294.674M99.4247 281.474C100.979 278.592 102.065 265.439 99.524 257.381M99.4247 281.474C98.3531 281.482 76.1989 278.783 62.2105 295.557" stroke="#3D8E53" stroke-width="2.74333"/>
<path d="M104.855 283.833C108.395 285.593 115.322 291.131 117.35 294.146" stroke="#89E159" stroke-width="1.37166"/>
<path d="M102.206 278.825C103.163 276.392 99.2106 266.907 96.8404 260.067" stroke="#89E159" stroke-width="1.37166"/>
<path d="M72.2625 293.813C72.2625 293.813 69.9939 293.125 68.1186 295.218C65.9385 297.654 67.0194 301.372 68.0092 304.13C68.9989 306.887 69.4521 307.877 69.947 310.216C70.3195 311.966 70.7336 315.082 73.8774 316.095C76.0757 316.801 78.3391 315.204 78.3391 315.204C78.3391 315.204 79.2689 316.24 81.3214 316.487C83.5431 316.752 85.9003 316.064 86.7207 314.132C87.1505 313.122 87.5672 309.884 87.8616 307.825C88.247 305.124 89.6249 302.193 89.9687 299.869C90.2604 297.885 89.7707 293.296 83.5952 293.174C81.436 293.133 79.0085 293.987 79.0085 293.987C79.0085 293.987 77.1071 292.993 75.6563 292.832C72.8642 292.52 72.2625 293.813 72.2625 293.813Z" fill="#F68561"/>
<path d="M86.5959 293.707C85.7989 293.359 84.8456 293.037 83.1396 292.931C80.7225 292.78 79.0113 293.985 79.0113 293.985C79.0113 293.985 77.1099 292.991 75.6591 292.83C72.8644 292.518 72.0049 293.757 72.0049 293.757C72.0049 293.757 72.4607 293.834 73.1952 294.105C73.7916 294.323 73.5702 294.852 73.078 294.902C72.1116 294.998 71.3224 295.631 71.2261 295.974C71.2261 295.974 72.7706 295.312 74.3803 295.818C76.5213 296.493 77.0995 298.077 77.0995 298.077C77.0995 298.077 78.3054 296.675 81.1705 296.026C83.8949 295.408 85.8536 296.579 85.8536 296.579C85.6947 295.894 85.3014 295.551 84.9498 295.224C84.3169 294.634 84.5252 294.118 85.1712 293.936C85.7077 293.785 86.5959 293.707 86.5959 293.707Z" fill="#1E4E4E"/>
<path d="M71.8721 287.37C71.8956 288.611 72.8436 289.187 73.2786 289.213C74.159 289.263 74.8127 288.198 76.4536 289.769C77.1204 290.408 77.3809 291.317 77.36 292.22C77.3522 292.519 77.4252 293.635 76.899 293.885C76.7349 293.963 76.6255 294.022 76.115 293.828C75.5446 293.609 75.0367 294.15 75.0367 294.15L76.0161 295.263L78.441 296.048L80.8737 295.565L82.2802 294.331C82.2802 294.331 81.6264 293.825 81.0586 294.027C80.7513 294.137 80.1574 293.957 80.1548 293.599C80.1444 292.843 80.1756 292.124 80.035 291.371C79.8006 290.127 79.2692 288.938 78.4175 287.993C77.196 286.637 75.4483 285.934 73.6745 285.648C72.2185 285.417 71.8487 286.144 71.8721 287.37Z" fill="#3D8E53"/>
<path d="M77.5576 287.209C76.4402 286.357 75.065 285.872 73.6715 285.649C73.2027 285.573 72.8484 285.599 72.5828 285.706C73.1245 285.719 74.1742 285.984 75.8698 287.149C76.9377 287.882 79.0474 290.512 77.2919 293.231C77.245 293.457 77.1617 293.662 77.021 293.792C77.456 293.597 78.3051 292.93 78.4978 291.153C78.701 289.274 78.253 288.032 77.5576 287.209Z" fill="#89E159"/>
<path opacity="0.6" d="M76.3492 304.294C76.3283 305.278 76.4872 307.475 77.1019 310.604C77.6254 313.268 77.0941 315.203 76.3987 316.068C77.5239 315.764 78.3365 315.208 78.3365 315.208C78.3365 315.208 78.6256 314.138 78.6438 313.045C78.6673 311.731 78.1177 309.093 77.4744 307C77.0212 305.53 76.8857 303.313 76.8649 302.066C76.8649 302.064 76.3856 302.516 76.3492 304.294Z" fill="#8990A5"/>
<path opacity="0.75" d="M74.8436 300.901C74.5675 300.932 74.3174 300.758 74.1091 300.589C73.3485 299.969 72.9162 299.449 72.0619 298.933C71.4003 298.533 70.0954 298.263 70.5329 297.242C70.7439 296.752 71.554 296.689 72.1035 296.783C74.0179 297.105 74.8696 298.226 75.2733 299.629C75.3437 299.873 75.4374 300.119 75.3827 300.371C75.3306 300.621 75.1275 300.862 74.8566 300.901L74.8436 300.901ZM80.8342 298.13C82.0948 297.383 83.9545 297.398 85.5121 298.193C85.8976 298.39 86.2674 298.647 86.4914 299.018C86.6607 299.299 86.705 299.72 86.4367 299.909C86.2127 300.065 85.9054 299.971 85.6449 299.888C84.0821 299.395 82.3136 299.582 80.8915 300.395C80.3549 300.701 79.2037 301.836 78.8651 301.041C78.5291 300.239 79.2662 299.06 80.8342 298.13Z" fill="#DBE2F9"/>
<g clip-path="url(#clip0_781_114623)">
<path d="M58.7536 285.505C58.7536 285.505 61.0222 284.816 62.8975 286.909C65.0776 289.345 63.9967 293.063 63.0069 295.821C62.0172 298.579 61.564 299.568 61.0691 301.908C60.6966 303.658 60.2825 306.774 57.1387 307.786C54.9404 308.493 52.677 306.896 52.677 306.896C52.677 306.896 51.7472 307.932 49.6947 308.178C47.473 308.443 45.1158 307.755 44.2954 305.823C43.8656 304.813 43.4489 301.575 43.1546 299.516C42.7691 296.816 41.3912 293.884 41.0474 291.56C40.7557 289.576 41.2454 284.988 47.4209 284.866C49.5801 284.824 52.0076 285.679 52.0076 285.679C52.0076 285.679 53.909 284.684 55.3598 284.523C58.1519 284.211 58.7536 285.505 58.7536 285.505Z" fill="#F68561"/>
<path d="M44.4202 285.399C45.2172 285.051 46.1705 284.729 47.8765 284.622C50.2936 284.472 52.0048 285.676 52.0048 285.676C52.0048 285.676 53.9062 284.682 55.357 284.521C58.1517 284.209 59.0113 285.448 59.0113 285.448C59.0113 285.448 58.5555 285.526 57.821 285.796C57.2245 286.014 57.4459 286.544 57.9382 286.593C58.9045 286.689 59.6937 287.323 59.79 287.666C59.79 287.666 58.2455 287.003 56.6359 287.51C54.4949 288.185 53.9166 289.769 53.9166 289.769C53.9166 289.769 52.7107 288.367 49.8456 287.717C47.1212 287.099 45.1625 288.271 45.1625 288.271C45.3214 287.585 45.7147 287.242 46.0663 286.915C46.6992 286.326 46.4909 285.809 45.8449 285.627C45.3084 285.477 44.4202 285.399 44.4202 285.399Z" fill="#1E4E4E"/>
<path d="M59.2591 277.342C60.3007 278.241 58.1727 280.881 57.7377 280.907C56.8574 280.957 56.2036 279.892 54.5627 281.463C53.8959 282.102 53.6355 283.011 53.6563 283.914C53.6641 284.213 53.5912 285.329 54.1173 285.579C54.2814 285.657 54.3908 285.716 54.9013 285.522C55.4717 285.303 55.9796 285.844 55.9796 285.844L55.0003 286.958L52.5754 287.742L50.1427 287.259L48.7362 286.025C48.7362 286.025 49.3899 285.519 49.9577 285.722C50.2651 285.831 50.8589 285.651 50.8616 285.293C50.872 284.537 50.8407 283.818 50.9814 283.065C51.2158 281.821 51.7471 280.632 52.5988 279.687C53.8204 278.331 55.9638 276.007 57.7375 275.721C59.1935 275.49 59.2825 276.116 59.2591 277.342Z" fill="#3D8E53"/>
<path d="M53.4583 278.901C54.5757 278.049 55.9509 277.563 57.3444 277.34C57.8132 277.265 58.1674 277.291 58.4331 277.397C57.8913 277.41 56.8417 277.675 55.1461 278.841C54.0782 279.573 51.9685 282.204 53.724 284.922C53.7708 285.148 53.8542 285.353 53.9948 285.483C53.5599 285.288 52.7108 284.621 52.518 282.845C52.3149 280.965 52.7629 279.724 53.4583 278.901Z" fill="#89E159"/>
<path opacity="0.6" d="M54.6669 295.986C54.6878 296.97 54.5289 299.167 53.9142 302.296C53.3907 304.96 53.922 306.894 54.6175 307.759C53.4923 307.455 52.6796 306.899 52.6796 306.899C52.6796 306.899 52.3905 305.83 52.3723 304.736C52.3488 303.423 52.8984 300.784 53.5417 298.691C53.9949 297.222 54.1304 295.004 54.1512 293.758C54.1512 293.755 54.6305 294.207 54.6669 295.986Z" fill="#8990A5"/>
<path opacity="0.75" d="M56.1725 292.59C56.4486 292.622 56.6987 292.448 56.907 292.279C57.6676 291.658 58.0999 291.139 58.9543 290.622C59.6158 290.222 60.9207 289.952 60.4832 288.932C60.2722 288.441 59.4622 288.379 58.9126 288.472C56.9982 288.794 56.1465 289.916 55.7428 291.318C55.6724 291.562 55.5787 291.809 55.6334 292.061C55.6855 292.31 55.8886 292.552 56.1595 292.59L56.1725 292.59ZM50.1819 289.82C48.9213 289.072 47.0616 289.088 45.504 289.882C45.1186 290.08 44.7487 290.337 44.5247 290.708C44.3554 290.988 44.3111 291.409 44.5794 291.599C44.8034 291.754 45.1107 291.661 45.3712 291.578C46.934 291.084 48.7025 291.271 50.1246 292.084C50.6612 292.391 51.8124 293.525 52.151 292.731C52.487 291.928 51.7499 290.749 50.1819 289.82Z" fill="#DBE2F9"/>
</g>
<path d="M37.3809 272.005C29.0461 263.694 10.2929 265.772 3 303.164C32.1717 304.203 48.8412 286.546 37.3809 272.005Z" fill="#3D8E53"/>
<path d="M63.427 279.275C53.3559 271.312 48.8412 268.889 37.3809 272.005M37.3809 272.005C29.0461 263.694 10.2929 265.772 3 303.164C32.1717 304.203 48.8412 286.546 37.3809 272.005Z" stroke="#3D8E53" stroke-width="2.74333"/>
<path d="M30.3266 276.075C28.0453 277.085 20.5926 284.651 17.6055 290.866" stroke="#89E159" stroke-width="1.37166"/>
<path d="M48.799 344.56C46.462 344.519 41.494 344.432 42.8545 350.239C60.3827 350.546 80.3957 350.163 84.7777 350.239C88.4729 350.304 84.8291 345.191 82.3947 345.148C80.139 340.482 74.2363 338.258 72.2717 339.188C66.5818 330.413 62.8022 337.576 60.6372 336.092C57.1726 333.718 48.9009 338.779 48.7991 344.56L48.799 344.56Z" fill="#1E4E4E"/>
<path d="M74.0101 40.7726C68.7094 46.057 59.2287 47.6864 39.6165 38.7029C51.7474 27.5616 74.0101 23.8625 74.0101 40.7726C74.0101 29.6754 79.4954 22.7994 101.144 27.5613C91.6028 35.4879 82.491 47.5723 74.0101 40.7726Z" fill="#3D8E53"/>
<path d="M74.0101 40.7726C68.7094 46.057 59.2287 47.6864 39.6165 38.7029C51.7474 27.5616 74.0101 23.8625 74.0101 40.7726ZM74.0101 40.7726C74.0101 29.6754 79.4954 22.7994 101.144 27.5613C91.6028 35.4879 82.491 47.5723 74.0101 40.7726ZM74.0101 40.7726C77.3026 36.5451 86.2014 29.1469 90.4419 27.5616M74.0101 40.7726C71.7131 38.6588 60.2068 37.1442 52.1498 37.567M74.0101 40.7726C73.7626 41.7595 73.6306 47.462 73.5738 55.7698C73.3872 83.0478 74.0101 124.911 74.0101 133.669" stroke="#3D8E53" stroke-width="5.48665"/>
<path d="M76.1304 38.1324C78.8919 34.7504 87.3326 32.0222 90.8891 30.7539" stroke="#89E159" stroke-width="1.37166"/>
<path d="M70.8293 39.1874C68.1015 35.2949 58.9863 35.2955 52.1499 37.5669" stroke="#89E159" stroke-width="1.37166"/>
<path d="M109.425 71.4744C102.646 67.4843 103.422 61.4219 101.144 40.9754C114.816 45.5192 126.674 67.0459 109.425 71.4744C120.745 68.5682 124.005 63.7194 133.047 89.8207C122.462 82.2235 104.71 81.8535 109.425 71.4744Z" fill="#3D8E53"/>
<path d="M109.425 71.4744C102.646 67.4843 103.422 61.4219 101.144 40.9754C114.816 45.5192 126.674 67.0459 109.425 71.4744ZM109.425 71.4744C120.745 68.5682 124.005 63.7194 133.047 89.8207C122.462 82.2235 104.71 81.8535 109.425 71.4744ZM109.425 71.4744C114.599 73.7054 124.476 80.7899 127.204 84.6739M109.425 71.4744C110.979 68.5921 112.065 55.4391 109.524 47.3814M109.425 71.4744C108.353 71.482 86.1989 68.7827 72.2105 85.5574" stroke="#3D8E53" stroke-width="2.74333"/>
<path d="M114.855 73.8329C118.395 75.593 125.322 81.131 127.35 84.1461" stroke="#89E159" stroke-width="1.37166"/>
<path d="M112.206 68.8251C113.163 66.3925 109.211 56.9074 106.84 50.067" stroke="#89E159" stroke-width="1.37166"/>
<path d="M82.2625 83.8132C82.2625 83.8132 79.9939 83.1251 78.1186 85.218C75.9385 87.6536 77.0194 91.372 78.0092 94.1296C78.9989 96.8873 79.4521 97.8766 79.947 100.216C80.3195 101.966 80.7336 105.082 83.8774 106.095C86.0757 106.801 88.3391 105.204 88.3391 105.204C88.3391 105.204 89.2689 106.24 91.3214 106.487C93.5431 106.752 95.9003 106.064 96.7207 104.132C97.1505 103.122 97.5672 99.8838 97.8616 97.8247C98.247 95.1242 99.6249 92.1925 99.9687 89.8686C100.26 87.8847 99.7707 83.2965 93.5952 83.1744C91.436 83.1329 89.0085 83.9872 89.0085 83.9872C89.0085 83.9872 87.1071 82.9927 85.6563 82.8317C82.8642 82.5201 82.2625 83.8132 82.2625 83.8132Z" fill="#F68561"/>
<path d="M96.5959 83.7072C95.7989 83.3593 94.8456 83.0373 93.1396 82.9308C90.7225 82.7802 89.0113 83.9851 89.0113 83.9851C89.0113 83.9851 87.1099 82.9906 85.6591 82.8296C82.8644 82.518 82.0049 83.7566 82.0049 83.7566C82.0049 83.7566 82.4607 83.8345 83.1952 84.1045C83.7916 84.3226 83.5702 84.8524 83.078 84.9017C82.1116 84.9978 81.3224 85.6314 81.2261 85.9741C81.2261 85.9741 82.7706 85.312 84.3803 85.8183C86.5213 86.4934 87.0995 88.0774 87.0995 88.0774C87.0995 88.0774 88.3054 86.6752 91.1705 86.026C93.8949 85.408 95.8536 86.5791 95.8536 86.5791C95.6947 85.8936 95.3014 85.5509 94.9498 85.2237C94.3169 84.6342 94.5252 84.1175 95.1712 83.9357C95.7077 83.7851 96.5959 83.7072 96.5959 83.7072Z" fill="#1E4E4E"/>
<path d="M81.8721 77.3697C81.8956 78.6109 82.8436 79.1873 83.2786 79.2133C84.159 79.2626 84.8127 78.198 86.4536 79.769C87.1204 80.4078 87.3809 81.3166 87.36 82.2202C87.3522 82.5188 87.4252 83.6354 86.899 83.8847C86.7349 83.9626 86.6255 84.0223 86.115 83.8275C85.5446 83.6094 85.0367 84.1495 85.0367 84.1495L86.0161 85.2635L88.441 86.0477L90.8737 85.5647L92.2802 84.3313C92.2802 84.3313 91.6264 83.8249 91.0586 84.0275C90.7513 84.1365 90.1574 83.9574 90.1548 83.599C90.1444 82.8434 90.1756 82.1241 90.035 81.3711C89.8006 80.1273 89.2692 78.9381 88.4175 77.9929C87.196 76.6374 85.4483 75.9337 83.6745 75.6481C82.2185 75.417 81.8487 76.1441 81.8721 77.3697Z" fill="#3D8E53"/>
<path d="M87.5576 77.2092C86.4402 76.3575 85.065 75.8719 83.6715 75.6486C83.2027 75.5733 82.8484 75.5993 82.5828 75.7057C83.1245 75.7187 84.1742 75.9836 85.8698 77.1495C86.9377 77.8817 89.0474 80.5121 87.2919 83.2308C87.245 83.4567 87.1617 83.6618 87.021 83.7917C87.456 83.5969 88.3051 82.9296 88.4978 81.1535C88.701 79.2735 88.253 78.0323 87.5576 77.2092Z" fill="#89E159"/>
<path opacity="0.6" d="M86.3492 94.2943C86.3283 95.2785 86.4872 97.4752 87.1019 100.604C87.6254 103.268 87.0941 105.203 86.3987 106.068C87.5239 105.764 88.3365 105.208 88.3365 105.208C88.3365 105.208 88.6256 104.138 88.6438 103.045C88.6673 101.731 88.1177 99.0929 87.4744 97C87.0212 95.5303 86.8857 93.3128 86.8649 92.0664C86.8649 92.0638 86.3856 92.5156 86.3492 94.2943Z" fill="#8990A5"/>
<path opacity="0.75" d="M84.8436 90.901C84.5675 90.9322 84.3174 90.7582 84.1091 90.5894C83.3485 89.9688 82.9162 89.4495 82.0619 88.9328C81.4003 88.5329 80.0954 88.2628 80.5329 87.2423C80.7439 86.7516 81.554 86.6893 82.1035 86.7827C84.0179 87.1047 84.8696 88.2265 85.2733 89.6287C85.3437 89.8727 85.4374 90.1194 85.3827 90.3713C85.3306 90.6206 85.1275 90.8621 84.8566 90.901L84.8436 90.901ZM90.8342 88.1304C92.0948 87.3826 93.9545 87.3981 95.5121 88.1927C95.8976 88.3901 96.2674 88.6471 96.4914 89.0184C96.6607 89.2989 96.705 89.7195 96.4367 89.9091C96.2127 90.0649 95.9054 89.9714 95.6449 89.8883C94.0821 89.395 92.3136 89.5819 90.8915 90.3947C90.3549 90.7011 89.2037 91.8358 88.8651 91.0412C88.5291 90.2389 89.2662 89.06 90.8342 88.1304Z" fill="#DBE2F9"/>
<g clip-path="url(#clip1_781_114623)">
<path d="M68.7536 75.5046C68.7536 75.5046 71.0222 74.8165 72.8975 76.9094C75.0776 79.345 73.9967 83.0634 73.0069 85.821C72.0172 88.5787 71.564 89.568 71.0691 91.9076C70.6966 93.6577 70.2825 96.7737 67.1387 97.7864C64.9404 98.4927 62.677 96.8957 62.677 96.8957C62.677 96.8957 61.7472 97.9318 59.6947 98.1785C57.473 98.4433 55.1158 97.7552 54.2954 95.8233C53.8656 94.8132 53.4489 91.5752 53.1546 89.5161C52.7691 86.8156 51.3912 83.884 51.0474 81.56C50.7557 79.5761 51.2454 74.9879 57.4209 74.8658C59.5801 74.8243 62.0076 75.6786 62.0076 75.6786C62.0076 75.6786 63.909 74.6841 65.3598 74.5231C68.1519 74.2115 68.7536 75.5046 68.7536 75.5046Z" fill="#F68561"/>
<path d="M54.4202 75.3986C55.2172 75.0507 56.1705 74.7287 57.8765 74.6223C60.2936 74.4716 62.0048 75.6765 62.0048 75.6765C62.0048 75.6765 63.9062 74.682 65.357 74.521C68.1517 74.2094 69.0113 75.448 69.0113 75.448C69.0113 75.448 68.5555 75.5259 67.821 75.7959C67.2245 76.014 67.4459 76.5438 67.9382 76.5931C68.9045 76.6892 69.6937 77.3228 69.79 77.6655C69.79 77.6655 68.2455 77.0034 66.6359 77.5097C64.4949 78.1848 63.9166 79.7688 63.9166 79.7688C63.9166 79.7688 62.7107 78.3666 59.8456 77.7174C57.1212 77.0994 55.1625 78.2705 55.1625 78.2705C55.3214 77.585 55.7147 77.2423 56.0663 76.9151C56.6992 76.3256 56.4909 75.8089 55.8449 75.6272C55.3084 75.4765 54.4202 75.3986 54.4202 75.3986Z" fill="#1E4E4E"/>
<path d="M69.2591 67.3416C70.3007 68.2411 68.1727 70.8814 67.7377 70.9074C66.8574 70.9567 66.2036 69.8921 64.5627 71.463C63.8959 72.1018 63.6355 73.0106 63.6563 73.9143C63.6641 74.2129 63.5912 75.3294 64.1173 75.5787C64.2814 75.6566 64.3908 75.7163 64.9013 75.5216C65.4717 75.3035 65.9796 75.8436 65.9796 75.8436L65.0003 76.9575L62.5754 77.7417L60.1427 77.2587L58.7362 76.0253C58.7362 76.0253 59.3899 75.519 59.9577 75.7215C60.2651 75.8306 60.8589 75.6514 60.8616 75.2931C60.872 74.5375 60.8407 73.8182 60.9814 73.0652C61.2158 71.8214 61.7471 70.6321 62.5988 69.6869C63.8204 68.3315 65.9638 66.0069 67.7375 65.7212C69.1935 65.4901 69.2825 66.116 69.2591 67.3416Z" fill="#3D8E53"/>
<path d="M63.4583 68.9006C64.5757 68.0489 65.9509 67.5633 67.3444 67.34C67.8132 67.2647 68.1674 67.2907 68.4331 67.3971C67.8913 67.4101 66.8417 67.675 65.1461 68.8409C64.0782 69.5731 61.9685 72.2035 63.724 74.9222C63.7708 75.1481 63.8542 75.3532 63.9948 75.4831C63.5599 75.2883 62.7108 74.621 62.518 72.8449C62.3149 70.9649 62.7629 69.7237 63.4583 68.9006Z" fill="#89E159"/>
<path opacity="0.6" d="M64.6669 85.9857C64.6878 86.9699 64.5289 89.1666 63.9142 92.2956C63.3907 94.9597 63.922 96.8942 64.6175 97.7589C63.4923 97.4551 62.6796 96.8994 62.6796 96.8994C62.6796 96.8994 62.3905 95.8296 62.3723 94.7364C62.3488 93.4225 62.8984 90.7843 63.5417 88.6914C63.9949 87.2217 64.1304 85.0042 64.1512 83.7578C64.1512 83.7552 64.6305 84.207 64.6669 85.9857Z" fill="#8990A5"/>
<path opacity="0.75" d="M66.1725 82.5905C66.4486 82.6216 66.6987 82.4476 66.907 82.2789C67.6676 81.6583 68.0999 81.1389 68.9543 80.6222C69.6158 80.2223 70.9207 79.9523 70.4832 78.9318C70.2722 78.441 69.4622 78.3787 68.9126 78.4722C66.9982 78.7942 66.1465 79.9159 65.7428 81.3181C65.6724 81.5622 65.5787 81.8089 65.6334 82.0607C65.6855 82.31 65.8886 82.5515 66.1595 82.5905L66.1725 82.5905ZM60.1819 79.8198C58.9213 79.072 57.0616 79.0876 55.504 79.8822C55.1186 80.0795 54.7487 80.3366 54.5247 80.7079C54.3554 80.9883 54.3111 81.409 54.5794 81.5985C54.8034 81.7543 55.1107 81.6609 55.3712 81.5778C56.934 81.0844 58.7025 81.2714 60.1246 82.0841C60.6612 82.3905 61.8124 83.5253 62.151 82.7307C62.487 81.9283 61.7499 80.7494 60.1819 79.8198Z" fill="#DBE2F9"/>
</g>
<path d="M47.3809 62.0049C39.0461 53.6942 20.2929 55.7717 13 93.1635C42.1717 94.203 58.8412 76.5459 47.3809 62.0049Z" fill="#3D8E53"/>
<path d="M73.427 69.2747C63.3559 61.3116 58.8412 58.8887 47.3809 62.0049M47.3809 62.0049C39.0461 53.6942 20.2929 55.7717 13 93.1635C42.1717 94.203 58.8412 76.5459 47.3809 62.0049Z" stroke="#3D8E53" stroke-width="2.74333"/>
<path d="M40.3266 66.0754C38.0453 67.0847 30.5926 74.6508 27.6055 80.8658" stroke="#89E159" stroke-width="1.37166"/>
<path d="M58.799 134.56C56.462 134.519 51.494 134.432 52.8545 140.239C70.3827 140.546 90.3957 140.163 94.7777 140.239C98.4729 140.304 94.8291 135.191 92.3947 135.148C90.139 130.482 84.2363 128.258 82.2717 129.188C76.5818 120.413 72.8022 127.576 70.6372 126.092C67.1726 123.718 58.9009 128.779 58.7991 134.56L58.799 134.56Z" fill="#1E4E4E"/>
<path d="M100.01 365.773C94.7094 371.057 85.2287 372.686 65.6165 363.703C77.7474 352.562 100.01 348.863 100.01 365.773C100.01 354.675 105.495 347.799 127.144 352.561C117.603 360.488 108.491 372.572 100.01 365.773Z" fill="#3D8E53"/>
<path d="M100.01 365.773C94.7094 371.057 85.2287 372.686 65.6165 363.703C77.7474 352.562 100.01 348.863 100.01 365.773ZM100.01 365.773C100.01 354.675 105.495 347.799 127.144 352.561C117.603 360.488 108.491 372.572 100.01 365.773ZM100.01 365.773C103.303 361.545 112.201 354.147 116.442 352.562M100.01 365.773C97.7131 363.659 86.2068 362.144 78.1498 362.567M100.01 365.773C99.7626 366.76 99.6306 372.462 99.5738 380.77C99.3872 408.048 100.01 449.911 100.01 458.669" stroke="#3D8E53" stroke-width="5.48665"/>
<path d="M102.13 363.132C104.892 359.75 113.333 357.022 116.889 355.754" stroke="#89E159" stroke-width="1.37166"/>
<path d="M96.8293 364.187C94.1015 360.295 84.9863 360.295 78.1499 362.567" stroke="#89E159" stroke-width="1.37166"/>
<path d="M135.425 396.474C128.646 392.484 129.422 386.422 127.144 365.975C140.816 370.519 152.674 392.046 135.425 396.474C146.745 393.568 150.005 388.719 159.047 414.821C148.462 407.223 130.71 406.853 135.425 396.474Z" fill="#3D8E53"/>
<path d="M135.425 396.474C128.646 392.484 129.422 386.422 127.144 365.975C140.816 370.519 152.674 392.046 135.425 396.474ZM135.425 396.474C146.745 393.568 150.005 388.719 159.047 414.821C148.462 407.223 130.71 406.853 135.425 396.474ZM135.425 396.474C140.599 398.705 150.476 405.79 153.204 409.674M135.425 396.474C136.979 393.592 138.065 380.439 135.524 372.381M135.425 396.474C134.353 396.482 112.199 393.783 98.2105 410.557" stroke="#3D8E53" stroke-width="2.74333"/>
<path d="M140.855 398.833C144.395 400.593 151.322 406.131 153.35 409.146" stroke="#89E159" stroke-width="1.37166"/>
<path d="M138.206 393.825C139.163 391.392 135.211 381.907 132.84 375.067" stroke="#89E159" stroke-width="1.37166"/>
<path d="M108.263 408.813C108.263 408.813 105.994 408.125 104.119 410.218C101.939 412.654 103.019 416.372 104.009 419.13C104.999 421.887 105.452 422.877 105.947 425.216C106.319 426.966 106.734 430.082 109.877 431.095C112.076 431.801 114.339 430.204 114.339 430.204C114.339 430.204 115.269 431.24 117.321 431.487C119.543 431.752 121.9 431.064 122.721 429.132C123.15 428.122 123.567 424.884 123.862 422.825C124.247 420.124 125.625 417.193 125.969 414.869C126.26 412.885 125.771 408.296 119.595 408.174C117.436 408.133 115.008 408.987 115.008 408.987C115.008 408.987 113.107 407.993 111.656 407.832C108.864 407.52 108.263 408.813 108.263 408.813Z" fill="#F68561"/>
<path d="M122.596 408.707C121.799 408.359 120.846 408.037 119.14 407.931C116.722 407.78 115.011 408.985 115.011 408.985C115.011 408.985 113.11 407.991 111.659 407.83C108.864 407.518 108.005 408.757 108.005 408.757C108.005 408.757 108.461 408.834 109.195 409.105C109.792 409.323 109.57 409.852 109.078 409.902C108.112 409.998 107.322 410.631 107.226 410.974C107.226 410.974 108.771 410.312 110.38 410.818C112.521 411.493 113.099 413.077 113.099 413.077C113.099 413.077 114.305 411.675 117.17 411.026C119.895 410.408 121.854 411.579 121.854 411.579C121.695 410.894 121.301 410.551 120.95 410.224C120.317 409.634 120.525 409.118 121.171 408.936C121.708 408.785 122.596 408.707 122.596 408.707Z" fill="#1E4E4E"/>
<path d="M107.872 402.37C107.896 403.611 108.844 404.187 109.279 404.213C110.159 404.263 110.813 403.198 112.454 404.769C113.12 405.408 113.381 406.317 113.36 407.22C113.352 407.519 113.425 408.635 112.899 408.885C112.735 408.963 112.626 409.022 112.115 408.828C111.545 408.609 111.037 409.15 111.037 409.15L112.016 410.263L114.441 411.048L116.874 410.565L118.28 409.331C118.28 409.331 117.626 408.825 117.059 409.027C116.751 409.137 116.157 408.957 116.155 408.599C116.144 407.843 116.176 407.124 116.035 406.371C115.801 405.127 115.269 403.938 114.418 402.993C113.196 401.637 111.448 400.934 109.675 400.648C108.219 400.417 107.849 401.144 107.872 402.37Z" fill="#3D8E53"/>
<path d="M113.558 402.209C112.44 401.357 111.065 400.872 109.671 400.649C109.203 400.573 108.848 400.599 108.583 400.706C109.125 400.719 110.174 400.984 111.87 402.149C112.938 402.882 115.047 405.512 113.292 408.231C113.245 408.457 113.162 408.662 113.021 408.792C113.456 408.597 114.305 407.93 114.498 406.153C114.701 404.274 114.253 403.032 113.558 402.209Z" fill="#89E159"/>
<path opacity="0.6" d="M112.349 419.294C112.328 420.278 112.487 422.475 113.102 425.604C113.625 428.268 113.094 430.203 112.399 431.068C113.524 430.764 114.336 430.208 114.336 430.208C114.336 430.208 114.626 429.138 114.644 428.045C114.667 426.731 114.118 424.093 113.474 422C113.021 420.53 112.886 418.313 112.865 417.066C112.865 417.064 112.386 417.516 112.349 419.294Z" fill="#8990A5"/>
<path opacity="0.75" d="M110.844 415.901C110.567 415.932 110.317 415.758 110.109 415.589C109.349 414.969 108.916 414.449 108.062 413.933C107.4 413.533 106.095 413.263 106.533 412.242C106.744 411.752 107.554 411.689 108.104 411.783C110.018 412.105 110.87 413.226 111.273 414.629C111.344 414.873 111.437 415.119 111.383 415.371C111.331 415.621 111.127 415.862 110.857 415.901L110.844 415.901ZM116.834 413.13C118.095 412.383 119.955 412.398 121.512 413.193C121.898 413.39 122.267 413.647 122.491 414.018C122.661 414.299 122.705 414.72 122.437 414.909C122.213 415.065 121.905 414.971 121.645 414.888C120.082 414.395 118.314 414.582 116.891 415.395C116.355 415.701 115.204 416.836 114.865 416.041C114.529 415.239 115.266 414.06 116.834 413.13Z" fill="#DBE2F9"/>
<g clip-path="url(#clip2_781_114623)">
<path d="M94.7536 400.505C94.7536 400.505 97.0222 399.816 98.8975 401.909C101.078 404.345 99.9967 408.063 99.0069 410.821C98.0172 413.579 97.564 414.568 97.0691 416.908C96.6966 418.658 96.2825 421.774 93.1387 422.786C90.9404 423.493 88.677 421.896 88.677 421.896C88.677 421.896 87.7472 422.932 85.6947 423.178C83.473 423.443 81.1158 422.755 80.2954 420.823C79.8656 419.813 79.4489 416.575 79.1546 414.516C78.7691 411.816 77.3912 408.884 77.0474 406.56C76.7557 404.576 77.2454 399.988 83.4209 399.866C85.5801 399.824 88.0076 400.679 88.0076 400.679C88.0076 400.679 89.909 399.684 91.3598 399.523C94.1519 399.211 94.7536 400.505 94.7536 400.505Z" fill="#F68561"/>
<path d="M80.4202 400.399C81.2172 400.051 82.1705 399.729 83.8765 399.622C86.2936 399.472 88.0048 400.676 88.0048 400.676C88.0048 400.676 89.9062 399.682 91.357 399.521C94.1517 399.209 95.0113 400.448 95.0113 400.448C95.0113 400.448 94.5555 400.526 93.821 400.796C93.2245 401.014 93.4459 401.544 93.9382 401.593C94.9045 401.689 95.6937 402.323 95.79 402.666C95.79 402.666 94.2455 402.003 92.6359 402.51C90.4949 403.185 89.9166 404.769 89.9166 404.769C89.9166 404.769 88.7107 403.367 85.8456 402.717C83.1212 402.099 81.1625 403.271 81.1625 403.271C81.3214 402.585 81.7147 402.242 82.0663 401.915C82.6992 401.326 82.4909 400.809 81.8449 400.627C81.3084 400.477 80.4202 400.399 80.4202 400.399Z" fill="#1E4E4E"/>
<path d="M95.2591 392.342C96.3007 393.241 94.1727 395.881 93.7377 395.907C92.8574 395.957 92.2036 394.892 90.5627 396.463C89.8959 397.102 89.6355 398.011 89.6563 398.914C89.6641 399.213 89.5912 400.329 90.1173 400.579C90.2814 400.657 90.3908 400.716 90.9013 400.522C91.4717 400.303 91.9796 400.844 91.9796 400.844L91.0003 401.958L88.5754 402.742L86.1427 402.259L84.7362 401.025C84.7362 401.025 85.3899 400.519 85.9577 400.722C86.2651 400.831 86.8589 400.651 86.8616 400.293C86.872 399.537 86.8407 398.818 86.9814 398.065C87.2158 396.821 87.7471 395.632 88.5988 394.687C89.8204 393.331 91.9638 391.007 93.7375 390.721C95.1935 390.49 95.2825 391.116 95.2591 392.342Z" fill="#3D8E53"/>
<path d="M89.4583 393.901C90.5757 393.049 91.9509 392.563 93.3444 392.34C93.8132 392.265 94.1674 392.291 94.4331 392.397C93.8913 392.41 92.8417 392.675 91.1461 393.841C90.0782 394.573 87.9685 397.204 89.724 399.922C89.7708 400.148 89.8542 400.353 89.9948 400.483C89.5599 400.288 88.7108 399.621 88.518 397.845C88.3149 395.965 88.7629 394.724 89.4583 393.901Z" fill="#89E159"/>
<path opacity="0.6" d="M90.6669 410.986C90.6878 411.97 90.5289 414.167 89.9142 417.296C89.3907 419.96 89.922 421.894 90.6175 422.759C89.4923 422.455 88.6796 421.899 88.6796 421.899C88.6796 421.899 88.3905 420.83 88.3723 419.736C88.3488 418.423 88.8984 415.784 89.5417 413.691C89.9949 412.222 90.1304 410.004 90.1512 408.758C90.1512 408.755 90.6305 409.207 90.6669 410.986Z" fill="#8990A5"/>
<path opacity="0.75" d="M92.1725 407.59C92.4486 407.622 92.6987 407.448 92.907 407.279C93.6676 406.658 94.0999 406.139 94.9543 405.622C95.6158 405.222 96.9207 404.952 96.4832 403.932C96.2722 403.441 95.4622 403.379 94.9126 403.472C92.9982 403.794 92.1465 404.916 91.7428 406.318C91.6724 406.562 91.5787 406.809 91.6334 407.061C91.6855 407.31 91.8886 407.552 92.1595 407.59L92.1725 407.59ZM86.1819 404.82C84.9213 404.072 83.0616 404.088 81.504 404.882C81.1186 405.08 80.7487 405.337 80.5247 405.708C80.3554 405.988 80.3111 406.409 80.5794 406.599C80.8034 406.754 81.1107 406.661 81.3712 406.578C82.934 406.084 84.7025 406.271 86.1246 407.084C86.6612 407.391 87.8124 408.525 88.151 407.731C88.487 406.928 87.7499 405.749 86.1819 404.82Z" fill="#DBE2F9"/>
</g>
<path d="M73.3809 387.005C65.0461 378.694 46.2929 380.772 39 418.164C68.1717 419.203 84.8412 401.546 73.3809 387.005Z" fill="#3D8E53"/>
<path d="M99.427 394.275C89.3559 386.312 84.8412 383.889 73.3809 387.005M73.3809 387.005C65.0461 378.694 46.2929 380.772 39 418.164C68.1717 419.203 84.8412 401.546 73.3809 387.005Z" stroke="#3D8E53" stroke-width="2.74333"/>
<path d="M66.3266 391.075C64.0453 392.085 56.5926 399.651 53.6055 405.866" stroke="#89E159" stroke-width="1.37166"/>
<path d="M84.799 459.56C82.462 459.519 77.494 459.432 78.8545 465.239C96.3827 465.546 116.396 465.163 120.778 465.239C124.473 465.304 120.829 460.191 118.395 460.148C116.139 455.482 110.236 453.258 108.272 454.188C102.582 445.413 98.8022 452.576 96.6372 451.092C93.1726 448.718 84.9009 453.779 84.7991 459.56L84.799 459.56Z" fill="#1E4E4E"/>
<path d="M121.01 140.773C115.709 146.057 106.229 147.686 86.6165 138.703C98.7474 127.562 121.01 123.863 121.01 140.773C121.01 129.675 126.495 122.799 148.144 127.561C138.603 135.488 129.491 147.572 121.01 140.773Z" fill="#3D8E53"/>
<path d="M121.01 140.773C115.709 146.057 106.229 147.686 86.6165 138.703C98.7474 127.562 121.01 123.863 121.01 140.773ZM121.01 140.773C121.01 129.675 126.495 122.799 148.144 127.561C138.603 135.488 129.491 147.572 121.01 140.773ZM121.01 140.773C124.303 136.545 133.201 129.147 137.442 127.562M121.01 140.773C118.713 138.659 107.207 137.144 99.1498 137.567M121.01 140.773C120.763 141.76 120.631 147.462 120.574 155.77C120.387 183.048 121.01 224.911 121.01 233.669" stroke="#3D8E53" stroke-width="5.48665"/>
<path d="M123.13 138.132C125.892 134.75 134.333 132.022 137.889 130.754" stroke="#89E159" stroke-width="1.37166"/>
<path d="M117.829 139.187C115.101 135.295 105.986 135.295 99.1499 137.567" stroke="#89E159" stroke-width="1.37166"/>
<path d="M156.425 171.474C149.646 167.484 150.422 161.422 148.144 140.975C161.816 145.519 173.674 167.046 156.425 171.474C167.745 168.568 171.005 163.719 180.047 189.821C169.462 182.223 151.71 181.853 156.425 171.474Z" fill="#3D8E53"/>
<path d="M156.425 171.474C149.646 167.484 150.422 161.422 148.144 140.975C161.816 145.519 173.674 167.046 156.425 171.474ZM156.425 171.474C167.745 168.568 171.005 163.719 180.047 189.821C169.462 182.223 151.71 181.853 156.425 171.474ZM156.425 171.474C161.599 173.705 171.476 180.79 174.204 184.674M156.425 171.474C157.979 168.592 159.065 155.439 156.524 147.381M156.425 171.474C155.353 171.482 133.199 168.783 119.211 185.557" stroke="#3D8E53" stroke-width="2.74333"/>
<path d="M161.855 173.833C165.395 175.593 172.322 181.131 174.35 184.146" stroke="#89E159" stroke-width="1.37166"/>
<path d="M159.206 168.825C160.163 166.392 156.211 156.907 153.84 150.067" stroke="#89E159" stroke-width="1.37166"/>
<path d="M129.263 183.813C129.263 183.813 126.994 183.125 125.119 185.218C122.939 187.654 124.019 191.372 125.009 194.13C125.999 196.887 126.452 197.877 126.947 200.216C127.319 201.966 127.734 205.082 130.877 206.095C133.076 206.801 135.339 205.204 135.339 205.204C135.339 205.204 136.269 206.24 138.321 206.487C140.543 206.752 142.9 206.064 143.721 204.132C144.15 203.122 144.567 199.884 144.862 197.825C145.247 195.124 146.625 192.193 146.969 189.869C147.26 187.885 146.771 183.296 140.595 183.174C138.436 183.133 136.008 183.987 136.008 183.987C136.008 183.987 134.107 182.993 132.656 182.832C129.864 182.52 129.263 183.813 129.263 183.813Z" fill="#F68561"/>
<path d="M143.596 183.707C142.799 183.359 141.846 183.037 140.14 182.931C137.722 182.78 136.011 183.985 136.011 183.985C136.011 183.985 134.11 182.991 132.659 182.83C129.864 182.518 129.005 183.757 129.005 183.757C129.005 183.757 129.461 183.834 130.195 184.105C130.792 184.323 130.57 184.852 130.078 184.902C129.112 184.998 128.322 185.631 128.226 185.974C128.226 185.974 129.771 185.312 131.38 185.818C133.521 186.493 134.099 188.077 134.099 188.077C134.099 188.077 135.305 186.675 138.17 186.026C140.895 185.408 142.854 186.579 142.854 186.579C142.695 185.894 142.301 185.551 141.95 185.224C141.317 184.634 141.525 184.118 142.171 183.936C142.708 183.785 143.596 183.707 143.596 183.707Z" fill="#1E4E4E"/>
<path d="M128.872 177.37C128.896 178.611 129.844 179.187 130.279 179.213C131.159 179.263 131.813 178.198 133.454 179.769C134.12 180.408 134.381 181.317 134.36 182.22C134.352 182.519 134.425 183.635 133.899 183.885C133.735 183.963 133.626 184.022 133.115 183.828C132.545 183.609 132.037 184.15 132.037 184.15L133.016 185.263L135.441 186.048L137.874 185.565L139.28 184.331C139.28 184.331 138.626 183.825 138.059 184.027C137.751 184.137 137.157 183.957 137.155 183.599C137.144 182.843 137.176 182.124 137.035 181.371C136.801 180.127 136.269 178.938 135.418 177.993C134.196 176.637 132.448 175.934 130.675 175.648C129.219 175.417 128.849 176.144 128.872 177.37Z" fill="#3D8E53"/>
<path d="M134.558 177.209C133.44 176.357 132.065 175.872 130.671 175.649C130.203 175.573 129.848 175.599 129.583 175.706C130.125 175.719 131.174 175.984 132.87 177.149C133.938 177.882 136.047 180.512 134.292 183.231C134.245 183.457 134.162 183.662 134.021 183.792C134.456 183.597 135.305 182.93 135.498 181.153C135.701 179.274 135.253 178.032 134.558 177.209Z" fill="#89E159"/>
<path opacity="0.6" d="M133.349 194.294C133.328 195.278 133.487 197.475 134.102 200.604C134.625 203.268 134.094 205.203 133.399 206.068C134.524 205.764 135.336 205.208 135.336 205.208C135.336 205.208 135.626 204.138 135.644 203.045C135.667 201.731 135.118 199.093 134.474 197C134.021 195.53 133.886 193.313 133.865 192.066C133.865 192.064 133.386 192.516 133.349 194.294Z" fill="#8990A5"/>
<path opacity="0.75" d="M131.844 190.901C131.567 190.932 131.317 190.758 131.109 190.589C130.349 189.969 129.916 189.449 129.062 188.933C128.4 188.533 127.095 188.263 127.533 187.242C127.744 186.752 128.554 186.689 129.104 186.783C131.018 187.105 131.87 188.226 132.273 189.629C132.344 189.873 132.437 190.119 132.383 190.371C132.331 190.621 132.127 190.862 131.857 190.901L131.844 190.901ZM137.834 188.13C139.095 187.383 140.955 187.398 142.512 188.193C142.898 188.39 143.267 188.647 143.491 189.018C143.661 189.299 143.705 189.72 143.437 189.909C143.213 190.065 142.905 189.971 142.645 189.888C141.082 189.395 139.314 189.582 137.891 190.395C137.355 190.701 136.204 191.836 135.865 191.041C135.529 190.239 136.266 189.06 137.834 188.13Z" fill="#DBE2F9"/>
<g clip-path="url(#clip3_781_114623)">
<path d="M115.754 175.505C115.754 175.505 118.022 174.816 119.898 176.909C122.078 179.345 120.997 183.063 120.007 185.821C119.017 188.579 118.564 189.568 118.069 191.908C117.697 193.658 117.283 196.774 114.139 197.786C111.94 198.493 109.677 196.896 109.677 196.896C109.677 196.896 108.747 197.932 106.695 198.178C104.473 198.443 102.116 197.755 101.295 195.823C100.866 194.813 100.449 191.575 100.155 189.516C99.7691 186.816 98.3912 183.884 98.0474 181.56C97.7557 179.576 98.2454 174.988 104.421 174.866C106.58 174.824 109.008 175.679 109.008 175.679C109.008 175.679 110.909 174.684 112.36 174.523C115.152 174.211 115.754 175.505 115.754 175.505Z" fill="#F68561"/>
<path d="M101.42 175.399C102.217 175.051 103.171 174.729 104.877 174.622C107.294 174.472 109.005 175.676 109.005 175.676C109.005 175.676 110.906 174.682 112.357 174.521C115.152 174.209 116.011 175.448 116.011 175.448C116.011 175.448 115.555 175.526 114.821 175.796C114.224 176.014 114.446 176.544 114.938 176.593C115.904 176.689 116.694 177.323 116.79 177.666C116.79 177.666 115.246 177.003 113.636 177.51C111.495 178.185 110.917 179.769 110.917 179.769C110.917 179.769 109.711 178.367 106.846 177.717C104.121 177.099 102.163 178.271 102.163 178.271C102.321 177.585 102.715 177.242 103.066 176.915C103.699 176.326 103.491 175.809 102.845 175.627C102.308 175.477 101.42 175.399 101.42 175.399Z" fill="#1E4E4E"/>
<path d="M116.259 167.342C117.301 168.241 115.173 170.881 114.738 170.907C113.857 170.957 113.204 169.892 111.563 171.463C110.896 172.102 110.635 173.011 110.656 173.914C110.664 174.213 110.591 175.329 111.117 175.579C111.281 175.657 111.391 175.716 111.901 175.522C112.472 175.303 112.98 175.844 112.98 175.844L112 176.958L109.575 177.742L107.143 177.259L105.736 176.025C105.736 176.025 106.39 175.519 106.958 175.722C107.265 175.831 107.859 175.651 107.862 175.293C107.872 174.537 107.841 173.818 107.981 173.065C108.216 171.821 108.747 170.632 109.599 169.687C110.82 168.331 112.964 166.007 114.738 165.721C116.194 165.49 116.283 166.116 116.259 167.342Z" fill="#3D8E53"/>
<path d="M110.458 168.901C111.576 168.049 112.951 167.563 114.344 167.34C114.813 167.265 115.167 167.291 115.433 167.397C114.891 167.41 113.842 167.675 112.146 168.841C111.078 169.573 108.968 172.204 110.724 174.922C110.771 175.148 110.854 175.353 110.995 175.483C110.56 175.288 109.711 174.621 109.518 172.845C109.315 170.965 109.763 169.724 110.458 168.901Z" fill="#89E159"/>
<path opacity="0.6" d="M111.667 185.986C111.688 186.97 111.529 189.167 110.914 192.296C110.391 194.96 110.922 196.894 111.617 197.759C110.492 197.455 109.68 196.899 109.68 196.899C109.68 196.899 109.391 195.83 109.372 194.736C109.349 193.423 109.898 190.784 110.542 188.691C110.995 187.222 111.13 185.004 111.151 183.758C111.151 183.755 111.63 184.207 111.667 185.986Z" fill="#8990A5"/>
<path opacity="0.75" d="M113.173 182.59C113.449 182.622 113.699 182.448 113.907 182.279C114.668 181.658 115.1 181.139 115.954 180.622C116.616 180.222 117.921 179.952 117.483 178.932C117.272 178.441 116.462 178.379 115.913 178.472C113.998 178.794 113.146 179.916 112.743 181.318C112.672 181.562 112.579 181.809 112.633 182.061C112.685 182.31 112.889 182.552 113.16 182.59L113.173 182.59ZM107.182 179.82C105.921 179.072 104.062 179.088 102.504 179.882C102.119 180.08 101.749 180.337 101.525 180.708C101.355 180.988 101.311 181.409 101.579 181.599C101.803 181.754 102.111 181.661 102.371 181.578C103.934 181.084 105.702 181.271 107.125 182.084C107.661 182.391 108.812 183.525 109.151 182.731C109.487 181.928 108.75 180.749 107.182 179.82Z" fill="#DBE2F9"/>
</g>
<path d="M94.3809 162.005C86.0461 153.694 67.2929 155.772 60 193.164C89.1717 194.203 105.841 176.546 94.3809 162.005Z" fill="#3D8E53"/>
<path d="M120.427 169.275C110.356 161.312 105.841 158.889 94.3809 162.005M94.3809 162.005C86.0461 153.694 67.2929 155.772 60 193.164C89.1717 194.203 105.841 176.546 94.3809 162.005Z" stroke="#3D8E53" stroke-width="2.74333"/>
<path d="M87.3266 166.075C85.0453 167.085 77.5926 174.651 74.6055 180.866" stroke="#89E159" stroke-width="1.37166"/>
<path d="M105.799 234.56C103.462 234.519 98.494 234.432 99.8545 240.239C117.383 240.546 137.396 240.163 141.778 240.239C145.473 240.304 141.829 235.191 139.395 235.148C137.139 230.482 131.236 228.258 129.272 229.188C123.582 220.413 119.802 227.576 117.637 226.092C114.173 223.718 105.901 228.779 105.799 234.56L105.799 234.56Z" fill="#1E4E4E"/>
<defs>
<clipPath id="clip0_781_114623">
<rect width="33.3135" height="33.2626" fill="white" transform="matrix(-1.00077 -1.245e-08 -6.87859e-09 0.999231 69.6772 276.162)"/>
</clipPath>
<clipPath id="clip1_781_114623">
<rect width="33.3135" height="33.2626" fill="white" transform="matrix(-1.00077 -1.245e-08 -6.87859e-09 0.999231 79.6772 66.1621)"/>
</clipPath>
<clipPath id="clip2_781_114623">
<rect width="33.3135" height="33.2626" fill="white" transform="matrix(-1.00077 -1.245e-08 -6.87859e-09 0.999231 105.677 391.162)"/>
</clipPath>
<clipPath id="clip3_781_114623">
<rect width="33.3135" height="33.2626" fill="white" transform="matrix(-1.00077 -1.245e-08 -6.87859e-09 0.999231 126.677 166.162)"/>
</clipPath>
</defs>
</svg>
