<svg width="72" height="72" viewBox="0 0 72 72" fill="none" xmlns="http://www.w3.org/2000/svg">
<g clip-path="url(#clip0_781_113868)">
<path d="M48.2365 20.1104C48.2365 20.1104 53.0679 18.6405 57.0616 23.1112C61.7043 28.3142 59.4024 36.2573 57.2946 42.1481C55.1868 48.0389 54.2216 50.1523 53.1677 55.15C52.3745 58.8886 51.4925 65.5448 44.7975 67.7081C40.1159 69.2169 35.2957 65.8055 35.2957 65.8055C35.2957 65.8055 33.3154 68.0187 28.9445 68.5457C24.213 69.1115 19.1931 67.6416 17.4458 63.5147C16.5306 61.3569 15.6431 54.44 15.0163 50.0413C14.1954 44.2726 11.2611 38.0102 10.5289 33.0457C9.90762 28.8079 10.9504 19.0066 24.1021 18.7459C28.7004 18.6571 33.8701 20.482 33.8701 20.482C33.8701 20.482 37.9193 18.3576 41.0089 18.0137C46.9552 17.348 48.2365 20.1104 48.2365 20.1104Z" fill="#F68561"/>
<path d="M17.7122 19.8826C19.4096 19.1394 21.4397 18.4515 25.0729 18.2241C30.2204 17.9024 33.8647 20.4762 33.8647 20.4762C33.8647 20.4762 37.9139 18.3517 41.0036 18.0078C46.9554 17.3422 48.7858 19.988 48.7858 19.988C48.7858 19.988 47.8151 20.1544 46.2509 20.7313C44.9807 21.1972 45.4521 22.3288 46.5005 22.4342C48.5584 22.6394 50.2391 23.9929 50.4443 24.7251C50.4443 24.7251 47.155 23.3106 43.7271 24.3922C39.1675 25.8344 37.9361 29.218 37.9361 29.218C37.9361 29.218 35.3679 26.2227 29.2664 24.836C23.4643 23.5158 19.2931 26.0175 19.2931 26.0175C19.6314 24.5531 20.469 23.8209 21.2178 23.122C22.5657 21.8629 22.122 20.759 20.7464 20.3708C19.6037 20.049 17.7122 19.8826 17.7122 19.8826Z" fill="#1E4E4E"/>
<path d="M49.3132 2.672C51.5315 4.59341 46.9996 10.2336 46.0732 10.2891C44.1984 10.3945 42.8061 8.12027 39.3116 11.4761C37.8916 12.8407 37.3369 14.7821 37.3813 16.7124C37.3979 17.3503 37.2426 19.7354 38.3631 20.2679C38.7125 20.4343 38.9455 20.5619 40.0327 20.1459C41.2475 19.68 42.3291 20.8337 42.3291 20.8337L40.2435 23.2133L35.0793 24.8885L29.8985 23.8568L26.9032 21.222C26.9032 21.222 28.2955 20.1403 29.5047 20.573C30.1592 20.806 31.4239 20.4232 31.4295 19.6578C31.4517 18.0436 31.3851 16.5071 31.6846 14.8986C32.1839 12.2416 33.3154 9.70113 35.1292 7.68207C37.7307 4.7866 42.2954 -0.17923 46.0728 -0.789387C49.1735 -1.28306 49.3631 0.0538764 49.3132 2.672Z" fill="#3D8E53"/>
<path d="M36.9594 6.00588C39.339 4.18651 42.2678 3.14924 45.2354 2.67221C46.2338 2.51135 46.9882 2.56682 47.554 2.79424C46.4002 2.82198 44.1648 3.38776 40.5538 5.8783C38.2796 7.44252 33.7866 13.0615 37.5252 18.8691C37.625 19.3517 37.8025 19.7899 38.1021 20.0672C37.1758 19.6512 35.3675 18.2256 34.957 14.4316C34.5243 10.4156 35.4784 7.76424 36.9594 6.00588Z" fill="#89E159"/>
<path opacity="0.6" d="M39.5336 42.4995C39.578 44.6017 39.2396 49.2944 37.9306 55.9784C36.8156 61.6695 37.9472 65.8019 39.4282 67.649C37.032 67 35.3013 65.813 35.3013 65.813C35.3013 65.813 34.6856 63.5277 34.6468 61.1924C34.5969 58.3857 35.7673 52.7501 37.1374 48.2793C38.1025 45.1398 38.3909 40.4028 38.4353 37.7403C38.4353 37.7347 39.4559 38.6999 39.5336 42.4995Z" fill="#8990A5"/>
<path opacity="0.75" d="M42.7395 35.2448C43.3274 35.3113 43.8599 34.9397 44.3037 34.5791C45.9234 33.2534 46.8442 32.1441 48.6635 31.0402C50.0724 30.186 52.8514 29.6091 51.9195 27.4292C51.4702 26.3809 49.7452 26.2477 48.5748 26.4474C44.4978 27.1352 42.684 29.5315 41.8242 32.5268C41.6745 33.0482 41.4748 33.5752 41.5913 34.1132C41.7022 34.6457 42.1349 35.1616 42.7117 35.2448L42.7395 35.2448ZM29.9817 29.3262C27.297 27.7287 23.3365 27.762 20.0195 29.4594C19.1985 29.8809 18.4109 30.4301 17.9338 31.2233C17.5733 31.8223 17.479 32.7209 18.0503 33.1259C18.5274 33.4587 19.1819 33.259 19.7366 33.0815C23.0647 32.0276 26.831 32.427 29.8596 34.1631C31.0023 34.8177 33.454 37.2416 34.1751 35.5443C34.8906 33.8303 33.3209 31.312 29.9817 29.3262Z" fill="#DBE2F9"/>
</g>
<defs>
<clipPath id="clip0_781_113868">
<rect width="71" height="71" rx="18.9333" transform="matrix(-1 -4.7057e-09 -4.7057e-09 1 71.5 0.154297)" fill="white"/>
</clipPath>
</defs>
</svg>
