<svg width="211" height="608" viewBox="0 0 211 608" fill="none" xmlns="http://www.w3.org/2000/svg">
<path d="M67.2676 172.757C63.3346 176.603 56.3003 177.789 41.7485 171.251C50.7493 163.143 67.2676 160.45 67.2676 172.757C67.2676 164.681 71.3375 159.677 87.4001 163.142C80.3209 168.911 73.5602 177.706 67.2676 172.757Z" fill="#3D8E53"/>
<path d="M67.2676 172.757C63.3346 176.603 56.3003 177.789 41.7485 171.251C50.7493 163.143 67.2676 160.45 67.2676 172.757ZM67.2676 172.757C67.2676 164.681 71.3375 159.677 87.4001 163.142C80.3209 168.911 73.5602 177.706 67.2676 172.757ZM67.2676 172.757C69.7105 169.68 76.3132 164.296 79.4595 163.143M67.2676 172.757C65.5633 171.219 57.0259 170.117 51.0479 170.424M67.2676 172.757C67.0839 173.475 66.986 177.626 66.9439 183.672C66.8054 203.524 67.2676 233.991 67.2676 240.365" stroke="#3D8E53" stroke-width="5.48665"/>
<path d="M68.8408 170.835C70.8898 168.373 77.1525 166.388 79.7914 165.465" stroke="#89E159" stroke-width="1.37166"/>
<path d="M64.9074 171.604C62.8834 168.771 56.1202 168.772 51.0479 170.425" stroke="#89E159" stroke-width="1.37166"/>
<path d="M93.5439 195.101C88.5144 192.197 89.0899 187.785 87.3998 172.905C97.5439 176.212 106.343 191.878 93.5439 195.101C101.943 192.986 104.362 189.457 111.071 208.453C103.217 202.924 90.0454 202.655 93.5439 195.101Z" fill="#3D8E53"/>
<path d="M93.5439 195.101C88.5144 192.197 89.0899 187.785 87.3998 172.905C97.5439 176.212 106.343 191.878 93.5439 195.101ZM93.5439 195.101C101.943 192.986 104.362 189.457 111.071 208.453C103.217 202.924 90.0454 202.655 93.5439 195.101ZM93.5439 195.101C97.3834 196.725 104.712 201.881 106.736 204.707M93.5439 195.101C94.6974 193.003 95.5031 183.431 93.6176 177.567M93.5439 195.101C92.7489 195.107 76.3111 193.142 65.9321 205.35" stroke="#3D8E53" stroke-width="2.74333"/>
<path d="M97.5732 196.817C100.2 198.098 105.339 202.129 106.844 204.323" stroke="#89E159" stroke-width="1.37166"/>
<path d="M95.6083 193.172C96.3183 191.402 93.3855 184.499 91.6269 179.52" stroke="#89E159" stroke-width="1.37166"/>
<path d="M73.3905 204.082C73.3905 204.082 71.7072 203.581 70.3158 205.104C68.6983 206.877 69.5003 209.583 70.2346 211.59C70.969 213.597 71.3053 214.317 71.6724 216.019C71.9488 217.293 72.2561 219.561 74.5887 220.298C76.2197 220.812 77.8991 219.65 77.8991 219.65C77.8991 219.65 78.589 220.404 80.1119 220.583C81.7603 220.776 83.5093 220.275 84.118 218.869C84.4369 218.134 84.7461 215.777 84.9645 214.279C85.2505 212.313 86.2728 210.18 86.5279 208.489C86.7444 207.045 86.3811 203.706 81.799 203.617C80.1969 203.587 78.3958 204.208 78.3958 204.208C78.3958 204.208 76.985 203.484 75.9086 203.367C73.8369 203.141 73.3905 204.082 73.3905 204.082Z" fill="#F68561"/>
<path d="M84.0251 204.003C83.4337 203.75 82.7264 203.516 81.4606 203.438C79.6672 203.329 78.3975 204.206 78.3975 204.206C78.3975 204.206 76.9867 203.482 75.9103 203.365C73.8367 203.138 73.1989 204.039 73.1989 204.039C73.1989 204.039 73.5371 204.096 74.0821 204.293C74.5247 204.451 74.3604 204.837 73.9951 204.873C73.2782 204.943 72.6926 205.404 72.6211 205.653C72.6211 205.653 73.7671 205.171 74.9614 205.54C76.55 206.031 76.979 207.184 76.979 207.184C76.979 207.184 77.8738 206.163 79.9996 205.691C82.021 205.241 83.4743 206.094 83.4743 206.094C83.3564 205.595 83.0646 205.345 82.8037 205.107C82.3341 204.678 82.4887 204.302 82.9679 204.17C83.3661 204.06 84.0251 204.003 84.0251 204.003Z" fill="#1E4E4E"/>
<path d="M73.1009 199.391C73.1183 200.295 73.8217 200.714 74.1444 200.733C74.7976 200.769 75.2827 199.994 76.5002 201.138C76.9949 201.602 77.1882 202.264 77.1727 202.921C77.1669 203.139 77.2211 203.951 76.8307 204.133C76.7089 204.19 76.6278 204.233 76.249 204.091C75.8258 203.932 75.4489 204.326 75.4489 204.326L76.1755 205.136L77.9747 205.707L79.7797 205.355L80.8233 204.458C80.8233 204.458 80.3382 204.089 79.917 204.237C79.6889 204.316 79.2483 204.186 79.2464 203.925C79.2386 203.375 79.2618 202.852 79.1575 202.304C78.9835 201.398 78.5893 200.533 77.9574 199.845C77.051 198.858 75.7542 198.346 74.4382 198.138C73.3579 197.97 73.0835 198.499 73.1009 199.391Z" fill="#3D8E53"/>
<path d="M77.3191 199.275C76.49 198.655 75.4696 198.301 74.4357 198.139C74.0879 198.084 73.825 198.103 73.6279 198.18C74.0299 198.19 74.8087 198.383 76.0668 199.231C76.8591 199.764 78.4245 201.678 77.122 203.657C77.0872 203.821 77.0253 203.971 76.921 204.065C77.2437 203.923 77.8737 203.438 78.0167 202.145C78.1675 200.777 77.8351 199.874 77.3191 199.275Z" fill="#89E159"/>
<path opacity="0.6" d="M76.4227 211.709C76.4072 212.426 76.5251 214.024 76.9812 216.301C77.3696 218.24 76.9754 219.648 76.4594 220.278C77.2943 220.056 77.8972 219.652 77.8972 219.652C77.8972 219.652 78.1117 218.873 78.1253 218.078C78.1427 217.122 77.7349 215.202 77.2576 213.678C76.9213 212.609 76.8208 210.995 76.8053 210.088C76.8053 210.086 76.4497 210.415 76.4227 211.709Z" fill="#8990A5"/>
<path opacity="0.75" d="M75.3056 209.239C75.1007 209.261 74.9152 209.135 74.7606 209.012C74.1963 208.56 73.8755 208.182 73.2416 207.806C72.7507 207.515 71.7825 207.319 72.1072 206.576C72.2637 206.219 72.8648 206.173 73.2725 206.242C74.6929 206.476 75.3249 207.292 75.6244 208.313C75.6766 208.49 75.7462 208.67 75.7056 208.853C75.6669 209.035 75.5162 209.21 75.3152 209.239L75.3056 209.239ZM79.7504 207.222C80.6858 206.678 82.0656 206.689 83.2213 207.268C83.5073 207.411 83.7817 207.598 83.9479 207.869C84.0735 208.073 84.1064 208.379 83.9073 208.517C83.7411 208.63 83.5131 208.562 83.3198 208.502C82.1603 208.143 80.8481 208.279 79.7929 208.87C79.3948 209.093 78.5406 209.919 78.2894 209.341C78.0401 208.757 78.587 207.899 79.7504 207.222Z" fill="#DBE2F9"/>
<g clip-path="url(#clip0_1571_5693)">
<path d="M63.3678 198.033C63.3678 198.033 65.0511 197.532 66.4425 199.055C68.06 200.828 67.258 203.534 66.5237 205.541C65.7893 207.548 65.453 208.268 65.0859 209.97C64.8095 211.244 64.5022 213.512 62.1696 214.249C60.5386 214.763 58.8592 213.601 58.8592 213.601C58.8592 213.601 58.1693 214.355 56.6464 214.534C54.998 214.727 53.249 214.226 52.6403 212.82C52.3214 212.085 52.0122 209.729 51.7938 208.23C51.5078 206.265 50.4855 204.131 50.2304 202.44C50.0139 200.996 50.3773 197.657 54.9593 197.568C56.5614 197.538 58.3625 198.159 58.3625 198.159C58.3625 198.159 59.7733 197.436 60.8497 197.318C62.9214 197.092 63.3678 198.033 63.3678 198.033Z" fill="#F68561"/>
<path d="M52.7328 197.957C53.3241 197.703 54.0314 197.469 55.2973 197.392C57.0907 197.282 58.3603 198.159 58.3603 198.159C58.3603 198.159 59.7711 197.435 60.8475 197.318C62.9211 197.091 63.5589 197.992 63.5589 197.992C63.5589 197.992 63.2207 198.049 62.6757 198.246C62.2332 198.404 62.3974 198.79 62.7627 198.826C63.4797 198.896 64.0652 199.357 64.1367 199.606C64.1367 199.606 62.9907 199.124 61.7964 199.493C60.2079 199.984 59.7788 201.137 59.7788 201.137C59.7788 201.137 58.8841 200.117 56.7583 199.644C54.7368 199.194 53.2835 200.047 53.2835 200.047C53.4014 199.548 53.6932 199.298 53.9541 199.06C54.4237 198.631 54.2691 198.255 53.7899 198.123C53.3918 198.013 52.7328 197.957 52.7328 197.957Z" fill="#1E4E4E"/>
<path d="M63.7425 192.093C64.5154 192.747 62.9364 194.669 62.6137 194.688C61.9605 194.724 61.4754 193.949 60.2579 195.092C59.7632 195.557 59.5699 196.218 59.5854 196.876C59.5912 197.093 59.5371 197.906 59.9275 198.087C60.0492 198.144 60.1304 198.188 60.5092 198.046C60.9324 197.887 61.3092 198.28 61.3092 198.28L60.5826 199.091L58.7834 199.662L56.9784 199.31L55.9348 198.412C55.9348 198.412 56.4199 198.044 56.8412 198.191C57.0692 198.271 57.5098 198.14 57.5118 197.88C57.5195 197.33 57.4963 196.806 57.6007 196.258C57.7746 195.353 58.1688 194.487 58.8008 193.8C59.7071 192.813 61.2975 191.121 62.6135 190.913C63.6938 190.745 63.7599 191.201 63.7425 192.093Z" fill="#3D8E53"/>
<path d="M59.4387 193.228C60.2678 192.608 61.2882 192.254 62.3221 192.092C62.6699 192.037 62.9328 192.056 63.1299 192.134C62.7279 192.143 61.9491 192.336 60.691 193.184C59.8987 193.717 58.3333 195.631 59.6358 197.61C59.6706 197.774 59.7325 197.924 59.8368 198.018C59.5141 197.877 58.8841 197.391 58.7411 196.098C58.5903 194.73 58.9227 193.827 59.4387 193.228Z" fill="#89E159"/>
<path opacity="0.6" d="M60.3356 205.66C60.3511 206.377 60.2332 207.975 59.7771 210.253C59.3887 212.192 59.7829 213.599 60.2989 214.229C59.464 214.008 58.8611 213.603 58.8611 213.603C58.8611 213.603 58.6466 212.825 58.633 212.029C58.6156 211.073 59.0234 209.153 59.5007 207.63C59.837 206.56 59.9375 204.946 59.953 204.039C59.953 204.037 60.3086 204.366 60.3356 205.66Z" fill="#8990A5"/>
<path opacity="0.75" d="M61.4527 203.19C61.6576 203.213 61.8431 203.086 61.9977 202.963C62.562 202.511 62.8828 202.133 63.5167 201.757C64.0076 201.466 64.9758 201.27 64.6511 200.527C64.4946 200.17 63.8935 200.125 63.4858 200.193C62.0654 200.427 61.4334 201.243 61.1339 202.264C61.0817 202.442 61.0121 202.621 61.0527 202.804C61.0914 202.986 61.2421 203.162 61.4431 203.19L61.4527 203.19ZM57.0079 201.173C56.0725 200.629 54.6927 200.641 53.537 201.219C53.251 201.362 52.9766 201.55 52.8104 201.82C52.6848 202.024 52.6519 202.33 52.851 202.468C53.0172 202.581 53.2452 202.513 53.4385 202.453C54.598 202.094 55.9102 202.23 56.9654 202.821C57.3635 203.044 58.2177 203.87 58.4689 203.292C58.7182 202.708 58.1713 201.85 57.0079 201.173Z" fill="#DBE2F9"/>
</g>
<path d="M47.5096 188.208C41.3255 182.16 27.4111 183.672 22 210.885C43.6445 211.641 56.0128 198.791 47.5096 188.208Z" fill="#3D8E53"/>
<path d="M66.8351 193.499C59.3626 187.704 56.0128 185.94 47.5096 188.208M47.5096 188.208C41.3255 182.16 27.4111 183.672 22 210.885C43.6445 211.641 56.0128 198.791 47.5096 188.208Z" stroke="#3D8E53" stroke-width="2.74333"/>
<path d="M42.2753 191.171C40.5826 191.906 35.0529 197.412 32.8366 201.935" stroke="#89E159" stroke-width="1.37166"/>
<path d="M55.9816 241.013C54.2476 240.984 50.5615 240.92 51.5709 245.147C64.5763 245.37 79.4254 245.091 82.6767 245.147C85.4185 245.194 82.7149 241.472 80.9086 241.441C79.235 238.045 74.8553 236.427 73.3977 237.103C69.1759 230.717 66.3716 235.931 64.7652 234.851C62.1945 233.123 56.0572 236.806 55.9816 241.013L55.9816 241.013Z" fill="#1E4E4E"/>
<path d="M156.268 264.757C152.335 268.603 145.3 269.789 130.749 263.251C139.749 255.143 156.268 252.45 156.268 264.757C156.268 256.681 160.338 251.677 176.4 255.142C169.321 260.911 162.56 269.706 156.268 264.757Z" fill="#3D8E53"/>
<path d="M156.268 264.757C152.335 268.603 145.3 269.789 130.749 263.251C139.749 255.143 156.268 252.45 156.268 264.757ZM156.268 264.757C156.268 256.681 160.338 251.677 176.4 255.142C169.321 260.911 162.56 269.706 156.268 264.757ZM156.268 264.757C158.711 261.68 165.313 256.296 168.459 255.143M156.268 264.757C154.563 263.219 146.026 262.117 140.048 262.424M156.268 264.757C156.084 265.475 155.986 269.626 155.944 275.672C155.805 295.524 156.268 325.991 156.268 332.365" stroke="#3D8E53" stroke-width="5.48665"/>
<path d="M157.841 262.835C159.89 260.373 166.153 258.388 168.791 257.465" stroke="#89E159" stroke-width="1.37166"/>
<path d="M153.907 263.604C151.883 260.771 145.12 260.772 140.048 262.425" stroke="#89E159" stroke-width="1.37166"/>
<path d="M182.544 287.101C177.514 284.197 178.09 279.785 176.4 264.905C186.544 268.212 195.343 283.878 182.544 287.101C190.943 284.986 193.362 281.457 200.071 300.453C192.217 294.924 179.045 294.655 182.544 287.101Z" fill="#3D8E53"/>
<path d="M182.544 287.101C177.514 284.197 178.09 279.785 176.4 264.905C186.544 268.212 195.343 283.878 182.544 287.101ZM182.544 287.101C190.943 284.986 193.362 281.457 200.071 300.453C192.217 294.924 179.045 294.655 182.544 287.101ZM182.544 287.101C186.383 288.725 193.712 293.881 195.736 296.707M182.544 287.101C183.697 285.003 184.503 275.431 182.618 269.567M182.544 287.101C181.749 287.107 165.311 285.142 154.932 297.35" stroke="#3D8E53" stroke-width="2.74333"/>
<path d="M186.573 288.817C189.2 290.098 194.339 294.129 195.844 296.323" stroke="#89E159" stroke-width="1.37166"/>
<path d="M184.608 285.172C185.318 283.402 182.386 276.499 180.627 271.52" stroke="#89E159" stroke-width="1.37166"/>
<path d="M162.39 296.082C162.39 296.082 160.707 295.581 159.316 297.104C157.698 298.877 158.5 301.583 159.235 303.59C159.969 305.597 160.305 306.317 160.672 308.019C160.949 309.293 161.256 311.561 163.589 312.298C165.22 312.812 166.899 311.65 166.899 311.65C166.899 311.65 167.589 312.404 169.112 312.583C170.76 312.776 172.509 312.275 173.118 310.869C173.437 310.134 173.746 307.777 173.964 306.279C174.251 304.313 175.273 302.18 175.528 300.489C175.744 299.045 175.381 295.706 170.799 295.617C169.197 295.587 167.396 296.208 167.396 296.208C167.396 296.208 165.985 295.484 164.909 295.367C162.837 295.141 162.39 296.082 162.39 296.082Z" fill="#F68561"/>
<path d="M173.025 296.003C172.434 295.75 171.726 295.516 170.461 295.438C168.667 295.329 167.397 296.206 167.397 296.206C167.397 296.206 165.987 295.482 164.91 295.365C162.837 295.138 162.199 296.039 162.199 296.039C162.199 296.039 162.537 296.096 163.082 296.293C163.525 296.451 163.36 296.837 162.995 296.873C162.278 296.943 161.693 297.404 161.621 297.653C161.621 297.653 162.767 297.171 163.961 297.54C165.55 298.031 165.979 299.184 165.979 299.184C165.979 299.184 166.874 298.163 169 297.691C171.021 297.241 172.474 298.094 172.474 298.094C172.356 297.595 172.065 297.345 171.804 297.107C171.334 296.678 171.489 296.302 171.968 296.17C172.366 296.06 173.025 296.003 173.025 296.003Z" fill="#1E4E4E"/>
<path d="M162.101 291.391C162.118 292.295 162.822 292.714 163.144 292.733C163.798 292.769 164.283 291.994 165.5 293.138C165.995 293.602 166.188 294.264 166.173 294.921C166.167 295.139 166.221 295.951 165.831 296.133C165.709 296.19 165.628 296.233 165.249 296.091C164.826 295.932 164.449 296.326 164.449 296.326L165.176 297.136L166.975 297.707L168.78 297.355L169.823 296.458C169.823 296.458 169.338 296.089 168.917 296.237C168.689 296.316 168.248 296.186 168.246 295.925C168.239 295.375 168.262 294.852 168.157 294.304C167.984 293.398 167.589 292.533 166.957 291.845C166.051 290.858 164.754 290.346 163.438 290.138C162.358 289.97 162.083 290.499 162.101 291.391Z" fill="#3D8E53"/>
<path d="M166.319 291.275C165.49 290.655 164.47 290.301 163.436 290.139C163.088 290.084 162.825 290.103 162.628 290.18C163.03 290.19 163.809 290.383 165.067 291.231C165.859 291.764 167.425 293.678 166.122 295.657C166.087 295.821 166.025 295.971 165.921 296.065C166.244 295.923 166.874 295.438 167.017 294.145C167.167 292.777 166.835 291.874 166.319 291.275Z" fill="#89E159"/>
<path opacity="0.6" d="M165.423 303.709C165.407 304.426 165.525 306.024 165.981 308.301C166.37 310.24 165.975 311.648 165.459 312.278C166.294 312.056 166.897 311.652 166.897 311.652C166.897 311.652 167.112 310.873 167.125 310.078C167.143 309.122 166.735 307.202 166.258 305.678C165.921 304.609 165.821 302.995 165.805 302.088C165.805 302.086 165.45 302.415 165.423 303.709Z" fill="#8990A5"/>
<path opacity="0.75" d="M164.306 301.239C164.101 301.261 163.915 301.135 163.761 301.012C163.196 300.56 162.875 300.182 162.242 299.806C161.751 299.515 160.783 299.319 161.107 298.576C161.264 298.219 161.865 298.173 162.273 298.242C163.693 298.476 164.325 299.292 164.624 300.313C164.677 300.49 164.746 300.67 164.706 300.853C164.667 301.035 164.516 301.21 164.315 301.239L164.306 301.239ZM168.75 299.222C169.686 298.678 171.066 298.689 172.221 299.268C172.507 299.411 172.782 299.598 172.948 299.869C173.074 300.073 173.106 300.379 172.907 300.517C172.741 300.63 172.513 300.562 172.32 300.502C171.16 300.143 169.848 300.279 168.793 300.87C168.395 301.093 167.541 301.919 167.289 301.341C167.04 300.757 167.587 299.899 168.75 299.222Z" fill="#DBE2F9"/>
<g clip-path="url(#clip1_1571_5693)">
<path d="M152.368 290.033C152.368 290.033 154.051 289.532 155.443 291.055C157.06 292.828 156.258 295.534 155.524 297.541C154.789 299.548 154.453 300.268 154.086 301.97C153.81 303.244 153.502 305.512 151.17 306.249C149.539 306.763 147.859 305.601 147.859 305.601C147.859 305.601 147.169 306.355 145.646 306.534C143.998 306.727 142.249 306.226 141.64 304.82C141.321 304.085 141.012 301.729 140.794 300.23C140.508 298.265 139.485 296.131 139.23 294.44C139.014 292.996 139.377 289.657 143.959 289.568C145.561 289.538 147.363 290.159 147.363 290.159C147.363 290.159 148.773 289.436 149.85 289.318C151.921 289.092 152.368 290.033 152.368 290.033Z" fill="#F68561"/>
<path d="M141.733 289.957C142.324 289.703 143.031 289.469 144.297 289.392C146.091 289.282 147.36 290.159 147.36 290.159C147.36 290.159 148.771 289.435 149.848 289.318C151.921 289.091 152.559 289.992 152.559 289.992C152.559 289.992 152.221 290.049 151.676 290.246C151.233 290.404 151.397 290.79 151.763 290.826C152.48 290.896 153.065 291.357 153.137 291.606C153.137 291.606 151.991 291.124 150.796 291.493C149.208 291.984 148.779 293.137 148.779 293.137C148.779 293.137 147.884 292.117 145.758 291.644C143.737 291.194 142.284 292.047 142.284 292.047C142.401 291.548 142.693 291.298 142.954 291.06C143.424 290.631 143.269 290.255 142.79 290.123C142.392 290.013 141.733 289.957 141.733 289.957Z" fill="#1E4E4E"/>
<path d="M152.743 284.093C153.515 284.747 151.936 286.669 151.614 286.688C150.96 286.724 150.475 285.949 149.258 287.092C148.763 287.557 148.57 288.218 148.585 288.876C148.591 289.093 148.537 289.906 148.927 290.087C149.049 290.144 149.13 290.188 149.509 290.046C149.932 289.887 150.309 290.28 150.309 290.28L149.583 291.091L147.783 291.662L145.978 291.31L144.935 290.412C144.935 290.412 145.42 290.044 145.841 290.191C146.069 290.271 146.51 290.14 146.512 289.88C146.52 289.33 146.496 288.806 146.601 288.258C146.775 287.353 147.169 286.487 147.801 285.8C148.707 284.813 150.297 283.121 151.614 282.913C152.694 282.745 152.76 283.201 152.743 284.093Z" fill="#3D8E53"/>
<path d="M148.439 285.228C149.268 284.608 150.288 284.254 151.322 284.092C151.67 284.037 151.933 284.056 152.13 284.134C151.728 284.143 150.949 284.336 149.691 285.184C148.899 285.717 147.333 287.631 148.636 289.61C148.671 289.774 148.732 289.924 148.837 290.018C148.514 289.877 147.884 289.391 147.741 288.098C147.59 286.73 147.923 285.827 148.439 285.228Z" fill="#89E159"/>
<path opacity="0.6" d="M149.336 297.66C149.351 298.377 149.233 299.975 148.777 302.253C148.389 304.192 148.783 305.599 149.299 306.229C148.464 306.008 147.861 305.603 147.861 305.603C147.861 305.603 147.647 304.825 147.633 304.029C147.616 303.073 148.023 301.153 148.501 299.63C148.837 298.56 148.938 296.946 148.953 296.039C148.953 296.037 149.309 296.366 149.336 297.66Z" fill="#8990A5"/>
<path opacity="0.75" d="M150.453 295.19C150.658 295.213 150.843 295.086 150.998 294.963C151.562 294.511 151.883 294.133 152.517 293.757C153.008 293.466 153.976 293.27 153.651 292.527C153.495 292.17 152.894 292.125 152.486 292.193C151.065 292.427 150.433 293.243 150.134 294.264C150.082 294.442 150.012 294.621 150.053 294.804C150.091 294.986 150.242 295.162 150.443 295.19L150.453 295.19ZM146.008 293.173C145.073 292.629 143.693 292.641 142.537 293.219C142.251 293.362 141.977 293.55 141.81 293.82C141.685 294.024 141.652 294.33 141.851 294.468C142.017 294.581 142.245 294.513 142.438 294.453C143.598 294.094 144.91 294.23 145.965 294.821C146.363 295.044 147.218 295.87 147.469 295.292C147.718 294.708 147.171 293.85 146.008 293.173Z" fill="#DBE2F9"/>
</g>
<path d="M136.51 280.208C130.325 274.16 116.411 275.672 111 302.885C132.645 303.641 145.013 290.791 136.51 280.208Z" fill="#3D8E53"/>
<path d="M155.835 285.499C148.363 279.704 145.013 277.94 136.51 280.208M136.51 280.208C130.325 274.16 116.411 275.672 111 302.885C132.645 303.641 145.013 290.791 136.51 280.208Z" stroke="#3D8E53" stroke-width="2.74333"/>
<path d="M131.275 283.171C129.583 283.906 124.053 289.412 121.837 293.935" stroke="#89E159" stroke-width="1.37166"/>
<path d="M144.982 333.013C143.248 332.984 139.561 332.92 140.571 337.147C153.576 337.37 168.425 337.091 171.677 337.147C174.418 337.194 171.715 333.472 169.909 333.441C168.235 330.045 163.855 328.427 162.398 329.103C158.176 322.717 155.372 327.931 153.765 326.851C151.195 325.123 145.057 328.806 144.982 333.013L144.982 333.013Z" fill="#1E4E4E"/>
<path d="M59.2676 356.757C55.3346 360.603 48.3003 361.789 33.7485 355.251C42.7493 347.143 59.2676 344.45 59.2676 356.757C59.2676 348.681 63.3375 343.677 79.4001 347.142C72.3209 352.911 65.5602 361.706 59.2676 356.757Z" fill="#3D8E53"/>
<path d="M59.2676 356.757C55.3346 360.603 48.3003 361.789 33.7485 355.251C42.7493 347.143 59.2676 344.45 59.2676 356.757ZM59.2676 356.757C59.2676 348.681 63.3375 343.677 79.4001 347.142C72.3209 352.911 65.5602 361.706 59.2676 356.757ZM59.2676 356.757C61.7105 353.68 68.3132 348.296 71.4595 347.143M59.2676 356.757C57.5633 355.219 49.0259 354.117 43.0479 354.424M59.2676 356.757C59.0839 357.475 58.986 361.626 58.9439 367.672C58.8054 387.524 59.2676 417.991 59.2676 424.365" stroke="#3D8E53" stroke-width="5.48665"/>
<path d="M60.8408 354.835C62.8898 352.373 69.1525 350.388 71.7914 349.465" stroke="#89E159" stroke-width="1.37166"/>
<path d="M56.9074 355.604C54.8834 352.771 48.1202 352.772 43.0479 354.425" stroke="#89E159" stroke-width="1.37166"/>
<path d="M85.5439 379.101C80.5144 376.197 81.0899 371.785 79.3998 356.905C89.5439 360.212 98.3425 375.878 85.5439 379.101C93.943 376.986 96.3622 373.457 103.071 392.453C95.2173 386.924 82.0454 386.655 85.5439 379.101Z" fill="#3D8E53"/>
<path d="M85.5439 379.101C80.5144 376.197 81.0899 371.785 79.3998 356.905C89.5439 360.212 98.3425 375.878 85.5439 379.101ZM85.5439 379.101C93.943 376.986 96.3622 373.457 103.071 392.453C95.2173 386.924 82.0454 386.655 85.5439 379.101ZM85.5439 379.101C89.3834 380.725 96.7119 385.881 98.7357 388.707M85.5439 379.101C86.6974 377.003 87.5031 367.431 85.6176 361.567M85.5439 379.101C84.7489 379.107 68.3111 377.142 57.9321 389.35" stroke="#3D8E53" stroke-width="2.74333"/>
<path d="M89.5732 380.817C92.2001 382.098 97.3394 386.129 98.8441 388.323" stroke="#89E159" stroke-width="1.37166"/>
<path d="M87.6083 377.172C88.3183 375.402 85.3855 368.499 83.6269 363.52" stroke="#89E159" stroke-width="1.37166"/>
<path d="M65.3905 388.082C65.3905 388.082 63.7072 387.581 62.3158 389.104C60.6983 390.877 61.5003 393.583 62.2346 395.59C62.969 397.597 63.3053 398.317 63.6724 400.019C63.9488 401.293 64.2561 403.561 66.5887 404.298C68.2197 404.812 69.8991 403.65 69.8991 403.65C69.8991 403.65 70.589 404.404 72.1119 404.583C73.7603 404.776 75.5093 404.275 76.118 402.869C76.4369 402.134 76.7461 399.777 76.9645 398.279C77.2505 396.313 78.2728 394.18 78.5279 392.489C78.7444 391.045 78.3811 387.706 73.799 387.617C72.1969 387.587 70.3958 388.208 70.3958 388.208C70.3958 388.208 68.985 387.484 67.9086 387.367C65.8369 387.141 65.3905 388.082 65.3905 388.082Z" fill="#F68561"/>
<path d="M76.0251 388.003C75.4337 387.75 74.7264 387.516 73.4606 387.438C71.6672 387.329 70.3975 388.206 70.3975 388.206C70.3975 388.206 68.9867 387.482 67.9103 387.365C65.8367 387.138 65.1989 388.039 65.1989 388.039C65.1989 388.039 65.5371 388.096 66.0821 388.293C66.5247 388.451 66.3604 388.837 65.9951 388.873C65.2782 388.943 64.6926 389.404 64.6211 389.653C64.6211 389.653 65.7671 389.171 66.9614 389.54C68.55 390.031 68.979 391.184 68.979 391.184C68.979 391.184 69.8738 390.163 71.9996 389.691C74.021 389.241 75.4743 390.094 75.4743 390.094C75.3564 389.595 75.0646 389.345 74.8037 389.107C74.3341 388.678 74.4887 388.302 74.9679 388.17C75.3661 388.06 76.0251 388.003 76.0251 388.003Z" fill="#1E4E4E"/>
<path d="M65.1009 383.391C65.1183 384.295 65.8217 384.714 66.1444 384.733C66.7976 384.769 67.2827 383.994 68.5002 385.138C68.9949 385.602 69.1882 386.264 69.1727 386.921C69.1669 387.139 69.2211 387.951 68.8307 388.133C68.7089 388.19 68.6278 388.233 68.249 388.091C67.8258 387.932 67.4489 388.326 67.4489 388.326L68.1755 389.136L69.9747 389.707L71.7797 389.355L72.8233 388.458C72.8233 388.458 72.3382 388.089 71.917 388.237C71.6889 388.316 71.2483 388.186 71.2464 387.925C71.2386 387.375 71.2618 386.852 71.1575 386.304C70.9835 385.398 70.5893 384.533 69.9574 383.845C69.051 382.858 67.7542 382.346 66.4382 382.138C65.3579 381.97 65.0835 382.499 65.1009 383.391Z" fill="#3D8E53"/>
<path d="M69.3191 383.275C68.49 382.655 67.4696 382.301 66.4357 382.139C66.0879 382.084 65.825 382.103 65.6279 382.18C66.0299 382.19 66.8087 382.383 68.0668 383.231C68.8591 383.764 70.4245 385.678 69.122 387.657C69.0872 387.821 69.0253 387.971 68.921 388.065C69.2437 387.923 69.8737 387.438 70.0167 386.145C70.1675 384.777 69.8351 383.874 69.3191 383.275Z" fill="#89E159"/>
<path opacity="0.6" d="M68.4227 395.709C68.4072 396.426 68.5251 398.024 68.9812 400.301C69.3696 402.24 68.9754 403.648 68.4594 404.278C69.2943 404.056 69.8972 403.652 69.8972 403.652C69.8972 403.652 70.1117 402.873 70.1253 402.078C70.1427 401.122 69.7349 399.202 69.2576 397.678C68.9213 396.609 68.8208 394.995 68.8053 394.088C68.8053 394.086 68.4497 394.415 68.4227 395.709Z" fill="#8990A5"/>
<path opacity="0.75" d="M67.3056 393.239C67.1007 393.261 66.9152 393.135 66.7606 393.012C66.1963 392.56 65.8755 392.182 65.2416 391.806C64.7507 391.515 63.7825 391.319 64.1072 390.576C64.2637 390.219 64.8648 390.173 65.2725 390.242C66.6929 390.476 67.3249 391.292 67.6244 392.313C67.6766 392.49 67.7462 392.67 67.7056 392.853C67.6669 393.035 67.5162 393.21 67.3152 393.239L67.3056 393.239ZM71.7504 391.222C72.6858 390.678 74.0656 390.689 75.2213 391.268C75.5073 391.411 75.7817 391.598 75.9479 391.869C76.0735 392.073 76.1064 392.379 75.9073 392.517C75.7411 392.63 75.5131 392.562 75.3198 392.502C74.1603 392.143 72.8481 392.279 71.7929 392.87C71.3948 393.093 70.5406 393.919 70.2894 393.341C70.0401 392.757 70.587 391.899 71.7504 391.222Z" fill="#DBE2F9"/>
<g clip-path="url(#clip2_1571_5693)">
<path d="M55.3678 382.033C55.3678 382.033 57.0511 381.532 58.4425 383.055C60.06 384.828 59.258 387.534 58.5237 389.541C57.7893 391.548 57.453 392.268 57.0859 393.97C56.8095 395.244 56.5022 397.512 54.1696 398.249C52.5386 398.763 50.8592 397.601 50.8592 397.601C50.8592 397.601 50.1693 398.355 48.6464 398.534C46.998 398.727 45.249 398.226 44.6403 396.82C44.3214 396.085 44.0122 393.729 43.7938 392.23C43.5078 390.265 42.4855 388.131 42.2304 386.44C42.0139 384.996 42.3773 381.657 46.9593 381.568C48.5614 381.538 50.3625 382.159 50.3625 382.159C50.3625 382.159 51.7733 381.436 52.8497 381.318C54.9214 381.092 55.3678 382.033 55.3678 382.033Z" fill="#F68561"/>
<path d="M44.7328 381.957C45.3241 381.703 46.0314 381.469 47.2973 381.392C49.0907 381.282 50.3603 382.159 50.3603 382.159C50.3603 382.159 51.7711 381.435 52.8475 381.318C54.9211 381.091 55.5589 381.992 55.5589 381.992C55.5589 381.992 55.2207 382.049 54.6757 382.246C54.2332 382.404 54.3974 382.79 54.7627 382.826C55.4797 382.896 56.0652 383.357 56.1367 383.606C56.1367 383.606 54.9907 383.124 53.7964 383.493C52.2079 383.984 51.7788 385.137 51.7788 385.137C51.7788 385.137 50.8841 384.117 48.7583 383.644C46.7368 383.194 45.2835 384.047 45.2835 384.047C45.4014 383.548 45.6932 383.298 45.9541 383.06C46.4237 382.631 46.2691 382.255 45.7899 382.123C45.3918 382.013 44.7328 381.957 44.7328 381.957Z" fill="#1E4E4E"/>
<path d="M55.7425 376.093C56.5154 376.747 54.9364 378.669 54.6137 378.688C53.9605 378.724 53.4754 377.949 52.2579 379.092C51.7632 379.557 51.5699 380.218 51.5854 380.876C51.5912 381.093 51.5371 381.906 51.9275 382.087C52.0492 382.144 52.1304 382.188 52.5092 382.046C52.9324 381.887 53.3092 382.28 53.3092 382.28L52.5826 383.091L50.7834 383.662L48.9784 383.31L47.9348 382.412C47.9348 382.412 48.4199 382.044 48.8412 382.191C49.0692 382.271 49.5098 382.14 49.5118 381.88C49.5195 381.33 49.4963 380.806 49.6007 380.258C49.7746 379.353 50.1688 378.487 50.8008 377.8C51.7071 376.813 53.2975 375.121 54.6135 374.913C55.6938 374.745 55.7599 375.201 55.7425 376.093Z" fill="#3D8E53"/>
<path d="M51.4387 377.228C52.2678 376.608 53.2882 376.254 54.3221 376.092C54.6699 376.037 54.9328 376.056 55.1299 376.134C54.7279 376.143 53.9491 376.336 52.691 377.184C51.8987 377.717 50.3333 379.631 51.6358 381.61C51.6706 381.774 51.7325 381.924 51.8368 382.018C51.5141 381.877 50.8841 381.391 50.7411 380.098C50.5903 378.73 50.9227 377.827 51.4387 377.228Z" fill="#89E159"/>
<path opacity="0.6" d="M52.3356 389.66C52.3511 390.377 52.2332 391.975 51.7771 394.253C51.3887 396.192 51.7829 397.599 52.2989 398.229C51.464 398.008 50.8611 397.603 50.8611 397.603C50.8611 397.603 50.6466 396.825 50.633 396.029C50.6156 395.073 51.0234 393.153 51.5007 391.63C51.837 390.56 51.9375 388.946 51.953 388.039C51.953 388.037 52.3086 388.366 52.3356 389.66Z" fill="#8990A5"/>
<path opacity="0.75" d="M53.4527 387.19C53.6576 387.213 53.8431 387.086 53.9977 386.963C54.562 386.511 54.8828 386.133 55.5167 385.757C56.0076 385.466 56.9758 385.27 56.6511 384.527C56.4946 384.17 55.8935 384.125 55.4858 384.193C54.0654 384.427 53.4334 385.243 53.1339 386.264C53.0817 386.442 53.0121 386.621 53.0527 386.804C53.0914 386.986 53.2421 387.162 53.4431 387.19L53.4527 387.19ZM49.0079 385.173C48.0725 384.629 46.6927 384.641 45.537 385.219C45.251 385.362 44.9766 385.55 44.8104 385.82C44.6848 386.024 44.6519 386.33 44.851 386.468C45.0172 386.581 45.2452 386.513 45.4385 386.453C46.598 386.094 47.9102 386.23 48.9654 386.821C49.3635 387.044 50.2177 387.87 50.4689 387.292C50.7182 386.708 50.1713 385.85 49.0079 385.173Z" fill="#DBE2F9"/>
</g>
<path d="M39.5096 372.208C33.3255 366.16 19.4111 367.672 14 394.885C35.6445 395.641 48.0128 382.791 39.5096 372.208Z" fill="#3D8E53"/>
<path d="M58.8351 377.499C51.3626 371.704 48.0128 369.94 39.5096 372.208M39.5096 372.208C33.3255 366.16 19.4111 367.672 14 394.885C35.6445 395.641 48.0128 382.791 39.5096 372.208Z" stroke="#3D8E53" stroke-width="2.74333"/>
<path d="M34.2753 375.171C32.5826 375.906 27.0529 381.412 24.8366 385.935" stroke="#89E159" stroke-width="1.37166"/>
<path d="M47.9816 425.013C46.2476 424.984 42.5615 424.92 43.5709 429.147C56.5763 429.37 71.4254 429.091 74.6767 429.147C77.4185 429.194 74.7149 425.472 72.9086 425.441C71.235 422.045 66.8553 420.427 65.3977 421.103C61.1759 414.717 58.3716 419.931 56.7652 418.851C54.1945 417.123 48.0572 420.806 47.9816 425.013L47.9816 425.013Z" fill="#1E4E4E"/>
<path d="M148.268 461.757C144.335 465.603 137.3 466.789 122.749 460.251C131.749 452.143 148.268 449.45 148.268 461.757C148.268 453.681 152.338 448.677 168.4 452.142C161.321 457.911 154.56 466.706 148.268 461.757Z" fill="#3D8E53"/>
<path d="M148.268 461.757C144.335 465.603 137.3 466.789 122.749 460.251C131.749 452.143 148.268 449.45 148.268 461.757ZM148.268 461.757C148.268 453.681 152.338 448.677 168.4 452.142C161.321 457.911 154.56 466.706 148.268 461.757ZM148.268 461.757C150.711 458.68 157.313 453.296 160.459 452.143M148.268 461.757C146.563 460.219 138.026 459.117 132.048 459.424M148.268 461.757C148.084 462.475 147.986 466.626 147.944 472.672C147.805 492.524 148.268 522.991 148.268 529.365" stroke="#3D8E53" stroke-width="5.48665"/>
<path d="M149.841 459.835C151.89 457.373 158.153 455.388 160.791 454.465" stroke="#89E159" stroke-width="1.37166"/>
<path d="M145.907 460.604C143.883 457.771 137.12 457.772 132.048 459.425" stroke="#89E159" stroke-width="1.37166"/>
<path d="M174.544 484.101C169.514 481.197 170.09 476.785 168.4 461.905C178.544 465.212 187.343 480.878 174.544 484.101C182.943 481.986 185.362 478.457 192.071 497.453C184.217 491.924 171.045 491.655 174.544 484.101Z" fill="#3D8E53"/>
<path d="M174.544 484.101C169.514 481.197 170.09 476.785 168.4 461.905C178.544 465.212 187.343 480.878 174.544 484.101ZM174.544 484.101C182.943 481.986 185.362 478.457 192.071 497.453C184.217 491.924 171.045 491.655 174.544 484.101ZM174.544 484.101C178.383 485.725 185.712 490.881 187.736 493.707M174.544 484.101C175.697 482.003 176.503 472.431 174.618 466.567M174.544 484.101C173.749 484.107 157.311 482.142 146.932 494.35" stroke="#3D8E53" stroke-width="2.74333"/>
<path d="M178.573 485.817C181.2 487.098 186.339 491.129 187.844 493.323" stroke="#89E159" stroke-width="1.37166"/>
<path d="M176.608 482.172C177.318 480.402 174.386 473.499 172.627 468.52" stroke="#89E159" stroke-width="1.37166"/>
<path d="M154.39 493.082C154.39 493.082 152.707 492.581 151.316 494.104C149.698 495.877 150.5 498.583 151.235 500.59C151.969 502.597 152.305 503.317 152.672 505.019C152.949 506.293 153.256 508.561 155.589 509.298C157.22 509.812 158.899 508.65 158.899 508.65C158.899 508.65 159.589 509.404 161.112 509.583C162.76 509.776 164.509 509.275 165.118 507.869C165.437 507.134 165.746 504.777 165.964 503.279C166.251 501.313 167.273 499.18 167.528 497.489C167.744 496.045 167.381 492.706 162.799 492.617C161.197 492.587 159.396 493.208 159.396 493.208C159.396 493.208 157.985 492.484 156.909 492.367C154.837 492.141 154.39 493.082 154.39 493.082Z" fill="#F68561"/>
<path d="M165.025 493.003C164.434 492.75 163.726 492.516 162.461 492.438C160.667 492.329 159.397 493.206 159.397 493.206C159.397 493.206 157.987 492.482 156.91 492.365C154.837 492.138 154.199 493.039 154.199 493.039C154.199 493.039 154.537 493.096 155.082 493.293C155.525 493.451 155.36 493.837 154.995 493.873C154.278 493.943 153.693 494.404 153.621 494.653C153.621 494.653 154.767 494.171 155.961 494.54C157.55 495.031 157.979 496.184 157.979 496.184C157.979 496.184 158.874 495.163 161 494.691C163.021 494.241 164.474 495.094 164.474 495.094C164.356 494.595 164.065 494.345 163.804 494.107C163.334 493.678 163.489 493.302 163.968 493.17C164.366 493.06 165.025 493.003 165.025 493.003Z" fill="#1E4E4E"/>
<path d="M154.101 488.391C154.118 489.295 154.822 489.714 155.144 489.733C155.798 489.769 156.283 488.994 157.5 490.138C157.995 490.602 158.188 491.264 158.173 491.921C158.167 492.139 158.221 492.951 157.831 493.133C157.709 493.19 157.628 493.233 157.249 493.091C156.826 492.932 156.449 493.326 156.449 493.326L157.176 494.136L158.975 494.707L160.78 494.355L161.823 493.458C161.823 493.458 161.338 493.089 160.917 493.237C160.689 493.316 160.248 493.186 160.246 492.925C160.239 492.375 160.262 491.852 160.157 491.304C159.984 490.398 159.589 489.533 158.957 488.845C158.051 487.858 156.754 487.346 155.438 487.138C154.358 486.97 154.083 487.499 154.101 488.391Z" fill="#3D8E53"/>
<path d="M158.319 488.275C157.49 487.655 156.47 487.301 155.436 487.139C155.088 487.084 154.825 487.103 154.628 487.18C155.03 487.19 155.809 487.383 157.067 488.231C157.859 488.764 159.425 490.678 158.122 492.657C158.087 492.821 158.025 492.971 157.921 493.065C158.244 492.923 158.874 492.438 159.017 491.145C159.167 489.777 158.835 488.874 158.319 488.275Z" fill="#89E159"/>
<path opacity="0.6" d="M157.423 500.709C157.407 501.426 157.525 503.024 157.981 505.301C158.37 507.24 157.975 508.648 157.459 509.278C158.294 509.056 158.897 508.652 158.897 508.652C158.897 508.652 159.112 507.873 159.125 507.078C159.143 506.122 158.735 504.202 158.258 502.678C157.921 501.609 157.821 499.995 157.805 499.088C157.805 499.086 157.45 499.415 157.423 500.709Z" fill="#8990A5"/>
<path opacity="0.75" d="M156.306 498.239C156.101 498.261 155.915 498.135 155.761 498.012C155.196 497.56 154.875 497.182 154.242 496.806C153.751 496.515 152.783 496.319 153.107 495.576C153.264 495.219 153.865 495.173 154.273 495.242C155.693 495.476 156.325 496.292 156.624 497.313C156.677 497.49 156.746 497.67 156.706 497.853C156.667 498.035 156.516 498.21 156.315 498.239L156.306 498.239ZM160.75 496.222C161.686 495.678 163.066 495.689 164.221 496.268C164.507 496.411 164.782 496.598 164.948 496.869C165.074 497.073 165.106 497.379 164.907 497.517C164.741 497.63 164.513 497.562 164.32 497.502C163.16 497.143 161.848 497.279 160.793 497.87C160.395 498.093 159.541 498.919 159.289 498.341C159.04 497.757 159.587 496.899 160.75 496.222Z" fill="#DBE2F9"/>
<g clip-path="url(#clip3_1571_5693)">
<path d="M144.368 487.033C144.368 487.033 146.051 486.532 147.443 488.055C149.06 489.828 148.258 492.534 147.524 494.541C146.789 496.548 146.453 497.268 146.086 498.97C145.81 500.244 145.502 502.512 143.17 503.249C141.539 503.763 139.859 502.601 139.859 502.601C139.859 502.601 139.169 503.355 137.646 503.534C135.998 503.727 134.249 503.226 133.64 501.82C133.321 501.085 133.012 498.729 132.794 497.23C132.508 495.265 131.485 493.131 131.23 491.44C131.014 489.996 131.377 486.657 135.959 486.568C137.561 486.538 139.363 487.159 139.363 487.159C139.363 487.159 140.773 486.436 141.85 486.318C143.921 486.092 144.368 487.033 144.368 487.033Z" fill="#F68561"/>
<path d="M133.733 486.957C134.324 486.703 135.031 486.469 136.297 486.392C138.091 486.282 139.36 487.159 139.36 487.159C139.36 487.159 140.771 486.435 141.848 486.318C143.921 486.091 144.559 486.992 144.559 486.992C144.559 486.992 144.221 487.049 143.676 487.246C143.233 487.404 143.397 487.79 143.763 487.826C144.48 487.896 145.065 488.357 145.137 488.606C145.137 488.606 143.991 488.124 142.796 488.493C141.208 488.984 140.779 490.137 140.779 490.137C140.779 490.137 139.884 489.117 137.758 488.644C135.737 488.194 134.284 489.047 134.284 489.047C134.401 488.548 134.693 488.298 134.954 488.06C135.424 487.631 135.269 487.255 134.79 487.123C134.392 487.013 133.733 486.957 133.733 486.957Z" fill="#1E4E4E"/>
<path d="M144.743 481.093C145.515 481.747 143.936 483.669 143.614 483.688C142.96 483.724 142.475 482.949 141.258 484.092C140.763 484.557 140.57 485.218 140.585 485.876C140.591 486.093 140.537 486.906 140.927 487.087C141.049 487.144 141.13 487.188 141.509 487.046C141.932 486.887 142.309 487.28 142.309 487.28L141.583 488.091L139.783 488.662L137.978 488.31L136.935 487.412C136.935 487.412 137.42 487.044 137.841 487.191C138.069 487.271 138.51 487.14 138.512 486.88C138.52 486.33 138.496 485.806 138.601 485.258C138.775 484.353 139.169 483.487 139.801 482.8C140.707 481.813 142.297 480.121 143.614 479.913C144.694 479.745 144.76 480.201 144.743 481.093Z" fill="#3D8E53"/>
<path d="M140.439 482.228C141.268 481.608 142.288 481.254 143.322 481.092C143.67 481.037 143.933 481.056 144.13 481.134C143.728 481.143 142.949 481.336 141.691 482.184C140.899 482.717 139.333 484.631 140.636 486.61C140.671 486.774 140.732 486.924 140.837 487.018C140.514 486.877 139.884 486.391 139.741 485.098C139.59 483.73 139.923 482.827 140.439 482.228Z" fill="#89E159"/>
<path opacity="0.6" d="M141.336 494.66C141.351 495.377 141.233 496.975 140.777 499.253C140.389 501.192 140.783 502.599 141.299 503.229C140.464 503.008 139.861 502.603 139.861 502.603C139.861 502.603 139.647 501.825 139.633 501.029C139.616 500.073 140.023 498.153 140.501 496.63C140.837 495.56 140.938 493.946 140.953 493.039C140.953 493.037 141.309 493.366 141.336 494.66Z" fill="#8990A5"/>
<path opacity="0.75" d="M142.453 492.19C142.658 492.213 142.843 492.086 142.998 491.963C143.562 491.511 143.883 491.133 144.517 490.757C145.008 490.466 145.976 490.27 145.651 489.527C145.495 489.17 144.894 489.125 144.486 489.193C143.065 489.427 142.433 490.243 142.134 491.264C142.082 491.442 142.012 491.621 142.053 491.804C142.091 491.986 142.242 492.162 142.443 492.19L142.453 492.19ZM138.008 490.173C137.073 489.629 135.693 489.641 134.537 490.219C134.251 490.362 133.977 490.55 133.81 490.82C133.685 491.024 133.652 491.33 133.851 491.468C134.017 491.581 134.245 491.513 134.438 491.453C135.598 491.094 136.91 491.23 137.965 491.821C138.363 492.044 139.218 492.87 139.469 492.292C139.718 491.708 139.171 490.85 138.008 490.173Z" fill="#DBE2F9"/>
</g>
<path d="M128.51 477.208C122.325 471.16 108.411 472.672 103 499.885C124.645 500.641 137.013 487.791 128.51 477.208Z" fill="#3D8E53"/>
<path d="M147.835 482.499C140.363 476.704 137.013 474.94 128.51 477.208M128.51 477.208C122.325 471.16 108.411 472.672 103 499.885C124.645 500.641 137.013 487.791 128.51 477.208Z" stroke="#3D8E53" stroke-width="2.74333"/>
<path d="M123.275 480.171C121.583 480.906 116.053 486.412 113.837 490.935" stroke="#89E159" stroke-width="1.37166"/>
<path d="M136.982 530.013C135.248 529.984 131.561 529.92 132.571 534.147C145.576 534.37 160.425 534.091 163.677 534.147C166.418 534.194 163.715 530.472 161.909 530.441C160.235 527.045 155.855 525.427 154.398 526.103C150.176 519.717 147.372 524.931 145.765 523.851C143.195 522.123 137.057 525.806 136.982 530.013L136.982 530.013Z" fill="#1E4E4E"/>
<defs>
<clipPath id="clip0_1571_5693">
<rect width="24.6007" height="24.3273" fill="white" transform="matrix(-1.00552 -2.10604e-09 -9.07634e-09 0.99432 71.4727 191.234)"/>
</clipPath>
<clipPath id="clip1_1571_5693">
<rect width="24.6007" height="24.3273" fill="white" transform="matrix(-1.00552 -2.10604e-09 -9.07634e-09 0.99432 160.473 283.234)"/>
</clipPath>
<clipPath id="clip2_1571_5693">
<rect width="24.6007" height="24.3273" fill="white" transform="matrix(-1.00552 -2.10604e-09 -9.07634e-09 0.99432 63.4727 375.234)"/>
</clipPath>
<clipPath id="clip3_1571_5693">
<rect width="24.6007" height="24.3273" fill="white" transform="matrix(-1.00552 -2.10604e-09 -9.07634e-09 0.99432 152.473 480.234)"/>
</clipPath>
</defs>
</svg>
