<svg width="642" height="261" viewBox="0 0 642 261" fill="none" xmlns="http://www.w3.org/2000/svg">
<path d="M0.527344 172.677C5.30512 159.066 36.3607 157.87 38.1523 179.967" stroke="white"/>
<path d="M56.668 205.339C61.4457 191.728 92.5013 190.532 94.293 212.629" stroke="white"/>
<path d="M121.168 243.561C125.946 229.95 157.001 228.754 158.793 250.851" stroke="white"/>
<path d="M51.293 135.238C56.0707 121.626 87.1263 120.431 88.918 142.528" stroke="white"/>
<path d="M107.43 167.9C112.207 154.288 143.263 153.092 145.055 175.19" stroke="white"/>
<path d="M171.93 206.122C176.707 192.51 207.763 191.315 209.555 213.412" stroke="white"/>
<path d="M25.6094 153.566C30.3872 139.955 61.4427 138.759 63.2344 160.856" stroke="white"/>
<path d="M81.75 186.228C86.5278 172.617 117.583 171.421 119.375 193.518" stroke="white"/>
<path d="M146.25 224.45C151.028 210.839 182.083 209.643 183.875 231.74" stroke="white"/>
<path d="M640.805 181.502C635.983 167.764 604.639 166.557 602.83 188.86" stroke="white"/>
<path d="M584.145 214.468C579.322 200.73 547.978 199.523 546.17 221.826" stroke="white"/>
<path d="M519.047 253.045C514.225 239.308 482.881 238.101 481.072 260.403" stroke="white"/>
<path d="M589.57 143.714C584.748 129.976 553.404 128.77 551.596 151.072" stroke="white"/>
<path d="M532.91 176.68C528.088 162.942 496.744 161.735 494.936 184.038" stroke="white"/>
<path d="M467.812 215.258C462.99 201.52 431.646 200.313 429.838 222.616" stroke="white"/>
<path d="M615.488 162.213C610.666 148.475 579.322 147.268 577.514 169.571" stroke="white"/>
<path d="M558.828 195.179C554.006 181.441 522.662 180.234 520.854 202.537" stroke="white"/>
<path d="M493.73 233.757C488.908 220.019 457.564 218.812 455.756 241.115" stroke="white"/>
<path d="M445.805 48.5022C440.983 34.7642 409.639 33.5573 407.83 55.8601" stroke="white"/>
<path d="M389.145 81.4677C384.322 67.7298 352.978 66.5229 351.17 88.8257" stroke="white"/>
<path d="M324.047 120.045C319.225 106.308 287.881 105.101 286.072 127.403" stroke="white"/>
<path d="M394.57 10.7144C389.748 -3.02354 358.404 -4.23043 356.596 18.0723" stroke="white"/>
<path d="M337.91 43.68C333.088 29.942 301.744 28.7351 299.936 51.0379" stroke="white"/>
<path d="M272.812 82.2577C267.99 68.5198 236.646 67.3129 234.838 89.6156" stroke="white"/>
<path d="M420.488 29.2133C415.666 15.4754 384.322 14.2685 382.514 36.5712" stroke="white"/>
<path d="M363.828 62.1789C359.006 48.4409 327.662 47.234 325.854 69.5368" stroke="white"/>
<path d="M298.73 100.757C293.908 87.0187 262.564 85.8118 260.756 108.115" stroke="white"/>
</svg>
