<svg width="125" height="143" viewBox="0 0 125 143" fill="none" xmlns="http://www.w3.org/2000/svg">
<ellipse cx="63.5" cy="128" rx="60.5" ry="15" fill="#2E2121" fill-opacity="0.25"/>
<path fill-rule="evenodd" clip-rule="evenodd" d="M124.962 20.2016C124.964 20.1347 124.965 20.0675 124.965 20C124.965 16.4483 122.564 13.5587 119.357 11.309C116.066 8.99981 111.424 6.99533 105.851 5.34155C94.6783 2.02617 79.346 0 62.4824 0C45.6188 0 30.2865 2.02617 19.114 5.34155C13.5409 6.99533 8.89919 8.99981 5.60777 11.309C2.40118 13.5587 0 16.4483 0 20C0 20.0477 0.000491706 20.0953 0.00146968 20.1427L0.00185017 20.2085C0.00229148 20.3168 0.00261911 20.4655 0.00298367 20.6517L0.0032244 20.7763C0.0039136 21.1354 0.00481909 21.6073 0.00680662 22.1669C0.0112598 23.4208 0.0211477 25.1168 0.0462403 26.9831C0.0913512 30.3383 0.185892 34.2749 0.389494 37.1812C0.25718 37.2821 0.147743 37.4225 0.0778726 37.5951C-0.12593 38.0988 0.0840885 38.6868 0.546961 38.9086C1.29761 39.2682 2.05038 39.6209 2.80519 39.9667L19.6272 129.187C19.6281 129.192 19.6292 129.197 19.6302 129.202C19.6943 129.542 19.9086 129.806 20.1814 129.927C20.1859 129.929 20.1904 129.931 20.1949 129.933C47.8753 142.196 78.8556 141.966 106.382 129.291L109.345 127.927C109.363 127.919 109.382 127.91 109.4 127.9C109.536 127.828 109.65 127.722 109.735 127.596C109.801 127.498 109.852 127.385 109.883 127.262C109.893 127.221 109.9 127.181 109.906 127.139L122.66 39.7465C123.221 39.4889 123.781 39.2276 124.34 38.9624C124.723 38.8421 125.002 38.4538 125 37.9952C124.985 35.0756 124.971 30.6766 124.964 26.9571C124.96 25.0975 124.958 23.4084 124.958 22.1596C124.958 21.535 124.959 21.0214 124.96 20.6518C124.96 20.4669 124.961 20.3192 124.962 20.2123L124.962 20.2016ZM108.182 126.293L120.683 40.6371C83.6422 56.9912 41.8888 57.1684 4.8403 40.8802L21.3176 128.272C48.4398 140.141 78.7386 139.85 105.675 127.447L108.182 126.293ZM123.172 37.3414C84.7023 55.4406 40.7063 55.6169 2.24642 37.541C1.97251 34.0554 1.88048 28.7274 1.84762 24.8476C2.87258 26.1415 4.23785 27.2958 5.71843 28.3511C11.108 33.789 34.6782 39 62.9385 39C92.4499 39 116.847 32.9433 120.766 27.1907C121.66 26.4537 122.471 25.6685 123.136 24.8239C123.141 28.6278 123.155 33.833 123.172 37.3414ZM123.139 20.1472C123.097 21.7007 122.392 23.2073 121.103 24.6433C118.556 18.8869 93.4875 14 62.9385 14C31.7653 14 6.29894 19.506 4.64608 25.4422C2.8538 23.7634 1.86863 21.978 1.82576 20.1263C1.82536 20.0654 1.82488 20.0194 1.82431 19.9891C1.84418 10.053 28.9941 2 62.4824 2C95.9737 2 123.125 10.0544 123.141 19.9917C123.14 20.0272 123.139 20.0794 123.139 20.1472ZM118.906 26.6205C119.43 26.0626 119.492 25.7272 119.492 25.6071C119.492 25.4977 119.44 25.1711 118.86 24.6201C118.281 24.0705 117.33 23.4515 115.944 22.8054C113.182 21.5177 109.071 20.2945 103.85 19.2411C93.4358 17.1401 78.9695 15.7857 62.9385 15.7857C46.9163 15.7857 32.4556 17.2504 22.0459 19.4605C16.8271 20.5685 12.7155 21.8455 9.95206 23.1729C8.56546 23.8389 7.61088 24.4743 7.02801 25.0371C6.44158 25.6035 6.38508 25.9398 6.38508 26.0536C6.38508 26.1759 6.44977 26.5315 7.04862 27.1286C7.31481 27.394 7.65621 27.6754 8.07779 27.969C9.49203 28.8176 11.1251 29.6284 12.9551 30.3948C15.4215 31.3448 18.4907 32.2628 22.0824 33.1012C32.4845 35.5295 46.934 37.2143 62.9385 37.2143C78.9343 37.2143 93.3781 35.4196 103.777 32.8823C108.988 31.6107 113.076 29.947 115.843 28.5C116.05 28.3918 116.249 28.2894 116.438 28.1916L116.439 28.191L116.44 28.1908C116.64 28.0873 116.831 27.9889 117.011 27.894C117.696 27.4783 118.328 27.0535 118.906 26.6205Z" fill="#262020"/>
<path d="M21.4409 127.848L5 40C49.2347 55.6155 85.7678 52.4662 121 40L108.213 125.84C108.213 125.84 101.126 130.017 86.5 133.5C71.8739 136.983 50.8957 139.028 21.4409 127.848Z" fill="#1F2431"/>
<path d="M21.4409 127.848L5 40C49.2347 55.6155 85.7678 52.4662 121 40L108.213 125.84C108.213 125.84 101.126 130.017 86.5 133.5C71.8739 136.983 50.8957 139.028 21.4409 127.848Z" fill="url(#paint0_linear_1435_3816)"/>
<path d="M21.4409 127.848L5 40C49.2347 55.6155 85.7678 52.4662 121 40L108.213 125.84C108.213 125.84 101.126 130.017 86.5 133.5C71.8739 136.983 50.8957 139.028 21.4409 127.848Z" stroke="#262020" stroke-width="2"/>
<path d="M1 39.061V22.3826C18.2954 47.9251 117.423 41.9444 124 20V40.0194C77.4321 60.41 32.8889 54.2083 1 39.061Z" fill="#89E159" stroke="#262020" stroke-width="2"/>
<path d="M4.63134 25.3374L5.16502 25.9196L5.46299 25.1881C5.87741 24.1708 6.77871 23.2024 8.12889 22.2912C9.47454 21.3831 11.2264 20.5586 13.2772 19.814C17.3782 18.325 22.6021 17.1809 27.9845 16.3101C38.7447 14.5691 50.0506 13.9337 54.0666 13.7876C75.2685 13.0165 91.0891 14.6925 102.033 17.0532C107.506 18.2337 111.753 19.5842 114.841 20.8821C117.95 22.1887 119.827 23.4189 120.624 24.3288L121.004 24.764L121.38 24.3243C122.701 22.7774 123.47 21.2645 123.696 19.7895C123.923 18.3044 123.593 16.9032 122.796 15.6063C121.225 13.047 117.838 10.8877 113.293 9.09628C104.167 5.50019 89.9688 3.23539 74.7375 2.4552C59.4964 1.6745 43.1667 2.3777 29.7586 4.74728C23.0555 5.93191 17.0651 7.53601 12.3004 9.58905C7.54874 11.6365 3.94902 14.1588 2.11857 17.2211L2.11135 17.2332L2.10481 17.2457C1.0688 19.2238 1.50432 21.0345 2.28705 22.4371C2.91976 23.5708 3.81099 24.4882 4.34501 25.038C4.45859 25.1549 4.55601 25.2552 4.63134 25.3374Z" fill="#81C95A" stroke="#262020"/>
<path d="M63 37.5C78.4952 37.5 92.533 35.8778 102.709 33.5586C107.794 32.3997 111.936 31.062 114.819 29.6542C116.258 28.9512 117.408 28.2189 118.206 27.4645C118.998 26.7154 119.5 25.8876 119.5 25C119.5 24.1057 118.991 23.306 118.191 22.6079C117.388 21.9074 116.234 21.2548 114.794 20.6469C111.91 19.4294 107.767 18.3441 102.686 17.4367C92.5149 15.6205 78.4841 14.5 63 14.5C47.5159 14.5 33.4851 15.6205 23.3141 17.4367C18.2327 18.3441 14.0902 19.4294 11.2063 20.6469C9.76638 21.2548 8.61173 21.9074 7.80897 22.6079C7.00899 23.306 6.5 24.1057 6.5 25C6.5 25.8876 7.00218 26.7154 7.79412 27.4645C8.59163 28.2189 9.74173 28.9512 11.1813 29.6542C14.0641 31.062 18.2063 32.3997 23.2909 33.5586C33.467 35.8778 47.5048 37.5 63 37.5Z" fill="#321616" stroke="#262020"/>
<defs>
<linearGradient id="paint0_linear_1435_3816" x1="90.8145" y1="136.259" x2="19.5867" y2="82.9227" gradientUnits="userSpaceOnUse">
<stop stop-color="#1E4E4E"/>
<stop offset="1" stop-color="#1F2431"/>
</linearGradient>
</defs>
</svg>
