<svg width="473" height="423" viewBox="0 0 473 423" fill="none" xmlns="http://www.w3.org/2000/svg">
<path d="M461.325 411.337L458.488 415.437V461.454H461.325V411.337Z" fill="#888787" stroke="#888787" stroke-width="4.72801"/>
<path d="M99.1587 386.934V73.2841C99.1587 52.3944 116.093 35.46 136.983 35.46H399.438C420.308 35.46 437.234 52.3634 437.263 73.2332L437.685 386.751" stroke="#D9D9D9" stroke-width="0.945603"/>
<path d="M85.9202 400.463V53.8993C85.9202 33.0096 102.855 16.0752 123.744 16.0752H412.639C433.509 16.0752 450.436 32.979 450.463 53.849L450.923 399.044" stroke="#D9D9D9" stroke-width="0.945603"/>
<path d="M112.294 19.2024L144.429 5.19823C149.434 3.01699 154.836 1.89121 160.295 1.89121H431.065C452.999 1.89121 470.781 19.6724 470.781 41.6066V457.683C470.781 464.466 465.282 469.965 458.499 469.965C451.701 469.965 446.197 464.443 446.218 457.645L447.422 72.9736C447.496 49.4844 428.907 30.1797 405.432 29.3658L112.294 19.2024Z" fill="#1E4E4E" stroke="url(#paint0_linear_1722_5436)" stroke-width="3.78241"/>
<g filter="url(#filter0_d_1722_5436)">
<path d="M83.5562 404.718L84.5072 53.8084C84.5072 34.4712 99.818 17.0205 118.945 17.0205L417.28 17.4921C439.321 18.9071 452.325 33.9995 453.76 52.8651V400.935H440.367V380.183L438.552 65.5994L435.584 56.6382L427.453 46.2622L421.235 41.5458L414.455 38.2443L404.016 36.3577L381.939 35.8861H345.118H271.478H169.168C122.294 35.8861 130.903 36.8294 124.207 38.2443C122.142 38.6806 120.151 39.3224 117.989 40.1309L112.727 43.4323L104.045 52.0141C101.388 57.866 99.9346 65.1212 99.6315 65.7191C99.1532 66.6623 99.6315 391.006 99.6315 391.006L83.5562 404.718Z" fill="url(#paint1_linear_1722_5436)"/>
</g>
<path d="M450.77 461.454L453.76 408.5L407.425 420.976V461.454H450.77Z" fill="#1E4E4E" stroke="#1E4E4E" stroke-width="4.72801"/>
<path d="M95.9814 397.772L451.869 396.208L421.643 467.128L22.5648 465.564L95.9814 397.772Z" fill="#1E4E4E"/>
<g filter="url(#filter1_ii_1722_5436)">
<path d="M96 89.5185C96 60.9898 96 46.7255 104.863 37.8627C113.725 29 127.99 29 156.519 29H382.661C411.12 29 425.349 29 434.207 37.8342C443.065 46.6684 443.103 60.898 443.179 89.3571L443.982 390.22H96V89.5185Z" fill="#1E4E4E"/>
</g>
<path d="M257.46 68.12C257.18 68.12 256.873 68.1133 256.54 68.1C256.22 68.0867 255.893 68.0667 255.56 68.04C255.24 68.0133 254.92 67.98 254.6 67.94C254.28 67.9 253.987 67.8467 253.72 67.78V54.34C253.987 54.2733 254.28 54.22 254.6 54.18C254.92 54.14 255.24 54.1067 255.56 54.08C255.893 54.0533 256.22 54.0333 256.54 54.02C256.86 54.0067 257.16 54 257.44 54C258.24 54 258.987 54.06 259.68 54.18C260.387 54.3 260.993 54.5067 261.5 54.8C262.02 55.08 262.427 55.4533 262.72 55.92C263.013 56.3867 263.16 56.96 263.16 57.64C263.16 58.4 262.98 59.0267 262.62 59.52C262.26 60 261.78 60.36 261.18 60.6C261.993 60.84 262.64 61.22 263.12 61.74C263.6 62.26 263.84 62.9933 263.84 63.94C263.84 65.3267 263.327 66.3733 262.3 67.08C261.287 67.7733 259.673 68.12 257.46 68.12ZM255.64 61.54V66.42C255.787 66.4333 255.96 66.4467 256.16 66.46C256.333 66.4733 256.533 66.4867 256.76 66.5C257 66.5 257.273 66.5 257.58 66.5C258.153 66.5 258.693 66.4667 259.2 66.4C259.72 66.32 260.173 66.1867 260.56 66C260.947 65.8133 261.253 65.5533 261.48 65.22C261.72 64.8867 261.84 64.4667 261.84 63.96C261.84 63.5067 261.753 63.1267 261.58 62.82C261.407 62.5 261.153 62.2467 260.82 62.06C260.5 61.8733 260.113 61.74 259.66 61.66C259.207 61.58 258.7 61.54 258.14 61.54H255.64ZM255.64 59.98H257.68C258.16 59.98 258.613 59.9467 259.04 59.88C259.467 59.8133 259.833 59.6933 260.14 59.52C260.46 59.3467 260.707 59.12 260.88 58.84C261.067 58.56 261.16 58.2067 261.16 57.78C261.16 57.38 261.067 57.0467 260.88 56.78C260.693 56.5 260.433 56.28 260.1 56.12C259.78 55.9467 259.4 55.82 258.96 55.74C258.52 55.66 258.053 55.62 257.56 55.62C257.067 55.62 256.68 55.6267 256.4 55.64C256.12 55.6533 255.867 55.6733 255.64 55.7V59.98ZM270.072 59.16C270.072 59.6 270.058 60.0733 270.032 60.58C270.018 61.0733 269.985 61.5733 269.932 62.08C269.878 62.5733 269.805 63.0667 269.712 63.56C269.618 64.04 269.498 64.4933 269.352 64.92C269.205 65.3467 269.018 65.7467 268.792 66.12C268.578 66.4933 268.312 66.8267 267.992 67.12C267.672 67.4 267.298 67.64 266.872 67.84C266.445 68.0267 265.945 68.1467 265.372 68.2L265.112 66.64C265.765 66.5067 266.278 66.26 266.652 65.9C267.038 65.54 267.345 65.1 267.572 64.58C267.772 64.1267 267.918 63.6133 268.012 63.04C268.105 62.4667 268.172 61.8733 268.212 61.26C268.252 60.6333 268.272 60.0067 268.272 59.38C268.285 58.7533 268.292 58.16 268.292 57.6H275.212V68H273.352V59.16H270.072ZM281.925 66.66C282.365 66.66 282.751 66.6533 283.085 66.64C283.431 66.6133 283.718 66.5733 283.945 66.52V63.42C283.811 63.3533 283.591 63.3 283.285 63.26C282.991 63.2067 282.631 63.18 282.205 63.18C281.925 63.18 281.625 63.2 281.305 63.24C280.998 63.28 280.711 63.3667 280.445 63.5C280.191 63.62 279.978 63.7933 279.805 64.02C279.631 64.2333 279.545 64.52 279.545 64.88C279.545 65.5467 279.758 66.0133 280.185 66.28C280.611 66.5333 281.191 66.66 281.925 66.66ZM281.765 57.34C282.511 57.34 283.138 57.44 283.645 57.64C284.165 57.8267 284.578 58.1 284.885 58.46C285.205 58.8067 285.431 59.2267 285.565 59.72C285.698 60.2 285.765 60.7333 285.765 61.32V67.82C285.605 67.8467 285.378 67.8867 285.085 67.94C284.805 67.98 284.485 68.02 284.125 68.06C283.765 68.1 283.371 68.1333 282.945 68.16C282.531 68.2 282.118 68.22 281.705 68.22C281.118 68.22 280.578 68.16 280.085 68.04C279.591 67.92 279.165 67.7333 278.805 67.48C278.445 67.2133 278.165 66.8667 277.965 66.44C277.765 66.0133 277.665 65.5 277.665 64.9C277.665 64.3267 277.778 63.8333 278.005 63.42C278.245 63.0067 278.565 62.6733 278.965 62.42C279.365 62.1667 279.831 61.98 280.365 61.86C280.898 61.74 281.458 61.68 282.045 61.68C282.231 61.68 282.425 61.6933 282.625 61.72C282.825 61.7333 283.011 61.76 283.185 61.8C283.371 61.8267 283.531 61.8533 283.665 61.88C283.798 61.9067 283.891 61.9267 283.945 61.94V61.42C283.945 61.1133 283.911 60.8133 283.845 60.52C283.778 60.2133 283.658 59.9467 283.485 59.72C283.311 59.48 283.071 59.2933 282.765 59.16C282.471 59.0133 282.085 58.94 281.605 58.94C280.991 58.94 280.451 58.9867 279.985 59.08C279.531 59.16 279.191 59.2467 278.965 59.34L278.745 57.8C278.985 57.6933 279.385 57.5933 279.945 57.5C280.505 57.3933 281.111 57.34 281.765 57.34ZM301.674 57.6C301.407 57.9333 301.107 58.3 300.774 58.7C300.441 59.0867 300.094 59.4933 299.734 59.92C299.374 60.3333 299.007 60.7467 298.634 61.16C298.274 61.5733 297.927 61.9667 297.594 62.34C297.994 62.7267 298.407 63.1467 298.834 63.6C299.261 64.0533 299.674 64.5267 300.074 65.02C300.487 65.5 300.881 66 301.254 66.52C301.627 67.0267 301.954 67.52 302.234 68H300.154C299.874 67.56 299.547 67.1 299.174 66.62C298.814 66.1267 298.434 65.6533 298.034 65.2C297.647 64.7467 297.254 64.3267 296.854 63.94C296.467 63.54 296.107 63.2133 295.774 62.96V68H293.994V62.96C293.661 63.2133 293.294 63.54 292.894 63.94C292.507 64.3267 292.114 64.7467 291.714 65.2C291.327 65.6533 290.947 66.1267 290.574 66.62C290.214 67.1 289.894 67.56 289.614 68H287.554C287.834 67.52 288.154 67.0267 288.514 66.52C288.887 66.0133 289.274 65.52 289.674 65.04C290.087 64.5467 290.507 64.0733 290.934 63.62C291.361 63.1667 291.774 62.7467 292.174 62.36C291.841 61.9867 291.487 61.5933 291.114 61.18C290.754 60.7667 290.394 60.3533 290.034 59.94C289.674 59.5133 289.327 59.1067 288.994 58.72C288.661 58.32 288.354 57.9467 288.074 57.6H290.134C290.614 58.2 291.167 58.8667 291.794 59.6C292.421 60.3333 293.154 61.18 293.994 62.14V57.6H295.774V62.14C296.614 61.18 297.347 60.3333 297.974 59.6C298.601 58.8667 299.154 58.2 299.634 57.6H301.674ZM312.628 68H310.768V63.4H305.968V68H304.108V57.6H305.968V61.84H310.768V57.6H312.628V68ZM325.007 62.8C325.007 63.6267 324.887 64.3733 324.647 65.04C324.407 65.7067 324.067 66.28 323.627 66.76C323.2 67.24 322.687 67.6133 322.087 67.88C321.487 68.1333 320.833 68.26 320.127 68.26C319.42 68.26 318.767 68.1333 318.167 67.88C317.567 67.6133 317.047 67.24 316.607 66.76C316.18 66.28 315.847 65.7067 315.607 65.04C315.367 64.3733 315.247 63.6267 315.247 62.8C315.247 61.9867 315.367 61.2467 315.607 60.58C315.847 59.9 316.18 59.32 316.607 58.84C317.047 58.36 317.567 57.9933 318.167 57.74C318.767 57.4733 319.42 57.34 320.127 57.34C320.833 57.34 321.487 57.4733 322.087 57.74C322.687 57.9933 323.2 58.36 323.627 58.84C324.067 59.32 324.407 59.9 324.647 60.58C324.887 61.2467 325.007 61.9867 325.007 62.8ZM323.067 62.8C323.067 61.6267 322.8 60.7 322.267 60.02C321.747 59.3267 321.033 58.98 320.127 58.98C319.22 58.98 318.5 59.3267 317.967 60.02C317.447 60.7 317.187 61.6267 317.187 62.8C317.187 63.9733 317.447 64.9067 317.967 65.6C318.5 66.28 319.22 66.62 320.127 66.62C321.033 66.62 321.747 66.28 322.267 65.6C322.8 64.9067 323.067 63.9733 323.067 62.8ZM332.143 68.24C331.303 68.24 330.563 68.1067 329.923 67.84C329.297 67.5733 328.763 67.2 328.323 66.72C327.897 66.24 327.577 65.6733 327.363 65.02C327.15 64.3533 327.043 63.62 327.043 62.82C327.043 62.02 327.157 61.2867 327.383 60.62C327.623 59.9533 327.957 59.38 328.383 58.9C328.81 58.4067 329.33 58.0267 329.943 57.76C330.57 57.48 331.263 57.34 332.023 57.34C332.49 57.34 332.957 57.38 333.423 57.46C333.89 57.54 334.337 57.6667 334.763 57.84L334.343 59.42C334.063 59.2867 333.737 59.18 333.363 59.1C333.003 59.02 332.617 58.98 332.203 58.98C331.163 58.98 330.363 59.3067 329.803 59.96C329.257 60.6133 328.983 61.5667 328.983 62.82C328.983 63.38 329.043 63.8933 329.163 64.36C329.297 64.8267 329.497 65.2267 329.763 65.56C330.043 65.8933 330.397 66.1533 330.823 66.34C331.25 66.5133 331.77 66.6 332.383 66.6C332.877 66.6 333.323 66.5533 333.723 66.46C334.123 66.3667 334.437 66.2667 334.663 66.16L334.923 67.72C334.817 67.7867 334.663 67.8533 334.463 67.92C334.263 67.9733 334.037 68.02 333.783 68.06C333.53 68.1133 333.257 68.1533 332.963 68.18C332.683 68.22 332.41 68.24 332.143 68.24ZM344.553 57.6V59.16H341.173V68H339.313V59.16H335.933V57.6H344.553ZM350.411 66.7C351.198 66.7 351.818 66.5467 352.271 66.24C352.724 65.9333 352.951 65.44 352.951 64.76C352.951 64.4267 352.884 64.14 352.751 63.9C352.618 63.66 352.431 63.4667 352.191 63.32C351.964 63.16 351.698 63.0467 351.391 62.98C351.084 62.9 350.758 62.86 350.411 62.86C350.051 62.86 349.678 62.8733 349.291 62.9C348.918 62.9133 348.598 62.9533 348.331 63.02V66.6C348.411 66.6133 348.531 66.6267 348.691 66.64C348.851 66.6533 349.024 66.6667 349.211 66.68C349.411 66.68 349.611 66.6867 349.811 66.7C350.024 66.7 350.224 66.7 350.411 66.7ZM346.471 67.78V57.6H348.331V61.58C348.438 61.5533 348.578 61.5267 348.751 61.5C348.938 61.4733 349.131 61.4467 349.331 61.42C349.544 61.3933 349.764 61.3733 349.991 61.36C350.218 61.3467 350.431 61.34 350.631 61.34C351.204 61.34 351.744 61.4067 352.251 61.54C352.758 61.66 353.198 61.86 353.571 62.14C353.958 62.4067 354.264 62.76 354.491 63.2C354.718 63.6267 354.831 64.14 354.831 64.74C354.831 65.3667 354.724 65.9 354.511 66.34C354.298 66.78 353.991 67.14 353.591 67.42C353.191 67.7 352.711 67.9 352.151 68.02C351.604 68.1533 350.991 68.22 350.311 68.22C349.644 68.22 348.991 68.18 348.351 68.1C347.711 68.0333 347.084 67.9267 346.471 67.78ZM370.026 68H368.166V59.16H363.526V68H361.666V57.6H370.026V68ZM382.409 62.8C382.409 63.6267 382.289 64.3733 382.049 65.04C381.809 65.7067 381.469 66.28 381.029 66.76C380.602 67.24 380.089 67.6133 379.489 67.88C378.889 68.1333 378.236 68.26 377.529 68.26C376.822 68.26 376.169 68.1333 375.569 67.88C374.969 67.6133 374.449 67.24 374.009 66.76C373.582 66.28 373.249 65.7067 373.009 65.04C372.769 64.3733 372.649 63.6267 372.649 62.8C372.649 61.9867 372.769 61.2467 373.009 60.58C373.249 59.9 373.582 59.32 374.009 58.84C374.449 58.36 374.969 57.9933 375.569 57.74C376.169 57.4733 376.822 57.34 377.529 57.34C378.236 57.34 378.889 57.4733 379.489 57.74C380.089 57.9933 380.602 58.36 381.029 58.84C381.469 59.32 381.809 59.9 382.049 60.58C382.289 61.2467 382.409 61.9867 382.409 62.8ZM380.469 62.8C380.469 61.6267 380.202 60.7 379.669 60.02C379.149 59.3267 378.436 58.98 377.529 58.98C376.622 58.98 375.902 59.3267 375.369 60.02C374.849 60.7 374.589 61.6267 374.589 62.8C374.589 63.9733 374.849 64.9067 375.369 65.6C375.902 66.28 376.622 66.62 377.529 66.62C378.436 66.62 379.149 66.28 379.669 65.6C380.202 64.9067 380.469 63.9733 380.469 62.8ZM386.206 57.6V60.66C386.206 61.4467 386.406 62 386.806 62.32C387.206 62.6267 387.752 62.78 388.446 62.78C388.952 62.78 389.372 62.7533 389.706 62.7C390.052 62.6467 390.359 62.5867 390.626 62.52V57.6H392.486V68H390.626V63.96C390.519 63.9867 390.379 64.02 390.206 64.06C390.032 64.1 389.832 64.14 389.606 64.18C389.392 64.2067 389.166 64.2333 388.926 64.26C388.686 64.2867 388.452 64.3 388.226 64.3C387.652 64.3 387.126 64.24 386.646 64.12C386.179 64 385.772 63.8 385.426 63.52C385.092 63.24 384.826 62.8733 384.626 62.42C384.439 61.9533 384.346 61.3733 384.346 60.68V57.6H386.206ZM397.51 66.6C397.59 66.6133 397.703 66.6267 397.85 66.64C397.997 66.6533 398.163 66.6667 398.35 66.68C398.537 66.68 398.73 66.6867 398.93 66.7C399.143 66.7 399.343 66.7 399.53 66.7C399.917 66.7 400.283 66.6733 400.63 66.62C400.99 66.5667 401.297 66.4733 401.55 66.34C401.817 66.2067 402.023 66.0333 402.17 65.82C402.33 65.5933 402.41 65.3067 402.41 64.96C402.41 64.6267 402.337 64.3533 402.19 64.14C402.057 63.9133 401.87 63.7333 401.63 63.6C401.39 63.4667 401.103 63.3733 400.77 63.32C400.45 63.2667 400.103 63.24 399.73 63.24H397.51V66.6ZM399.49 61.86C399.85 61.86 400.177 61.84 400.47 61.8C400.777 61.7467 401.037 61.66 401.25 61.54C401.477 61.42 401.65 61.26 401.77 61.06C401.903 60.86 401.97 60.6067 401.97 60.3C401.97 59.98 401.89 59.7267 401.73 59.54C401.57 59.3533 401.357 59.2133 401.09 59.12C400.837 59.0133 400.543 58.9467 400.21 58.92C399.89 58.88 399.563 58.86 399.23 58.86C398.923 58.86 398.61 58.8667 398.29 58.88C397.983 58.8933 397.723 58.9067 397.51 58.92V61.86H399.49ZM399.45 68.18C398.663 68.18 397.937 68.14 397.27 68.06C396.603 67.9933 396.077 67.9133 395.69 67.82V57.7C396.077 57.6067 396.603 57.5267 397.27 57.46C397.937 57.38 398.663 57.34 399.45 57.34C399.997 57.34 400.53 57.3867 401.05 57.48C401.57 57.5733 402.03 57.7333 402.43 57.96C402.83 58.1733 403.15 58.4733 403.39 58.86C403.643 59.2333 403.77 59.7 403.77 60.26C403.77 60.7667 403.643 61.2 403.39 61.56C403.137 61.92 402.797 62.2 402.37 62.4C402.943 62.6 403.397 62.9 403.73 63.3C404.077 63.6867 404.25 64.2333 404.25 64.94C404.25 65.5667 404.123 66.0867 403.87 66.5C403.63 66.9133 403.29 67.2467 402.85 67.5C402.423 67.7533 401.917 67.9267 401.33 68.02C400.743 68.1267 400.117 68.18 399.45 68.18ZM410.467 62.86C410.107 62.86 409.754 62.8733 409.407 62.9C409.074 62.9133 408.774 62.9533 408.507 63.02V66.6C408.587 66.6133 408.7 66.6267 408.847 66.64C409.007 66.6533 409.174 66.6667 409.347 66.68C409.534 66.68 409.72 66.6867 409.907 66.7C410.094 66.7 410.26 66.7 410.407 66.7C411.22 66.7 411.847 66.5467 412.287 66.24C412.727 65.9333 412.947 65.44 412.947 64.76C412.947 64.4267 412.874 64.14 412.727 63.9C412.594 63.66 412.407 63.4667 412.167 63.32C411.94 63.16 411.68 63.0467 411.387 62.98C411.094 62.9 410.787 62.86 410.467 62.86ZM406.647 57.6H408.507V61.58C408.734 61.5267 409.06 61.4733 409.487 61.42C409.927 61.3667 410.347 61.34 410.747 61.34C411.294 61.34 411.814 61.4067 412.307 61.54C412.8 61.66 413.234 61.86 413.607 62.14C413.98 62.4067 414.274 62.76 414.487 63.2C414.714 63.6267 414.827 64.14 414.827 64.74C414.827 65.3667 414.72 65.9 414.507 66.34C414.294 66.78 413.994 67.14 413.607 67.42C413.22 67.7 412.754 67.9 412.207 68.02C411.66 68.1533 411.06 68.22 410.407 68.22C409.78 68.22 409.147 68.18 408.507 68.1C407.867 68.0333 407.247 67.9267 406.647 67.78V57.6ZM418.607 68H416.747V57.6H418.607V68Z" fill="url(#paint2_linear_1722_5436)"/>
<path d="M249.46 190.12C249.18 190.12 248.873 190.113 248.54 190.1C248.22 190.087 247.893 190.067 247.56 190.04C247.24 190.013 246.92 189.98 246.6 189.94C246.28 189.9 245.987 189.847 245.72 189.78V176.34C245.987 176.273 246.28 176.22 246.6 176.18C246.92 176.14 247.24 176.107 247.56 176.08C247.893 176.053 248.22 176.033 248.54 176.02C248.86 176.007 249.16 176 249.44 176C250.24 176 250.987 176.06 251.68 176.18C252.387 176.3 252.993 176.507 253.5 176.8C254.02 177.08 254.427 177.453 254.72 177.92C255.013 178.387 255.16 178.96 255.16 179.64C255.16 180.4 254.98 181.027 254.62 181.52C254.26 182 253.78 182.36 253.18 182.6C253.993 182.84 254.64 183.22 255.12 183.74C255.6 184.26 255.84 184.993 255.84 185.94C255.84 187.327 255.327 188.373 254.3 189.08C253.287 189.773 251.673 190.12 249.46 190.12ZM247.64 183.54V188.42C247.787 188.433 247.96 188.447 248.16 188.46C248.333 188.473 248.533 188.487 248.76 188.5C249 188.5 249.273 188.5 249.58 188.5C250.153 188.5 250.693 188.467 251.2 188.4C251.72 188.32 252.173 188.187 252.56 188C252.947 187.813 253.253 187.553 253.48 187.22C253.72 186.887 253.84 186.467 253.84 185.96C253.84 185.507 253.753 185.127 253.58 184.82C253.407 184.5 253.153 184.247 252.82 184.06C252.5 183.873 252.113 183.74 251.66 183.66C251.207 183.58 250.7 183.54 250.14 183.54H247.64ZM247.64 181.98H249.68C250.16 181.98 250.613 181.947 251.04 181.88C251.467 181.813 251.833 181.693 252.14 181.52C252.46 181.347 252.707 181.12 252.88 180.84C253.067 180.56 253.16 180.207 253.16 179.78C253.16 179.38 253.067 179.047 252.88 178.78C252.693 178.5 252.433 178.28 252.1 178.12C251.78 177.947 251.4 177.82 250.96 177.74C250.52 177.66 250.053 177.62 249.56 177.62C249.067 177.62 248.68 177.627 248.4 177.64C248.12 177.653 247.867 177.673 247.64 177.7V181.98ZM262.072 181.16C262.072 181.6 262.058 182.073 262.032 182.58C262.018 183.073 261.985 183.573 261.932 184.08C261.878 184.573 261.805 185.067 261.712 185.56C261.618 186.04 261.498 186.493 261.352 186.92C261.205 187.347 261.018 187.747 260.792 188.12C260.578 188.493 260.312 188.827 259.992 189.12C259.672 189.4 259.298 189.64 258.872 189.84C258.445 190.027 257.945 190.147 257.372 190.2L257.112 188.64C257.765 188.507 258.278 188.26 258.652 187.9C259.038 187.54 259.345 187.1 259.572 186.58C259.772 186.127 259.918 185.613 260.012 185.04C260.105 184.467 260.172 183.873 260.212 183.26C260.252 182.633 260.272 182.007 260.272 181.38C260.285 180.753 260.292 180.16 260.292 179.6H267.212V190H265.352V181.16H262.072ZM273.925 188.66C274.365 188.66 274.751 188.653 275.085 188.64C275.431 188.613 275.718 188.573 275.945 188.52V185.42C275.811 185.353 275.591 185.3 275.285 185.26C274.991 185.207 274.631 185.18 274.205 185.18C273.925 185.18 273.625 185.2 273.305 185.24C272.998 185.28 272.711 185.367 272.445 185.5C272.191 185.62 271.978 185.793 271.805 186.02C271.631 186.233 271.545 186.52 271.545 186.88C271.545 187.547 271.758 188.013 272.185 188.28C272.611 188.533 273.191 188.66 273.925 188.66ZM273.765 179.34C274.511 179.34 275.138 179.44 275.645 179.64C276.165 179.827 276.578 180.1 276.885 180.46C277.205 180.807 277.431 181.227 277.565 181.72C277.698 182.2 277.765 182.733 277.765 183.32V189.82C277.605 189.847 277.378 189.887 277.085 189.94C276.805 189.98 276.485 190.02 276.125 190.06C275.765 190.1 275.371 190.133 274.945 190.16C274.531 190.2 274.118 190.22 273.705 190.22C273.118 190.22 272.578 190.16 272.085 190.04C271.591 189.92 271.165 189.733 270.805 189.48C270.445 189.213 270.165 188.867 269.965 188.44C269.765 188.013 269.665 187.5 269.665 186.9C269.665 186.327 269.778 185.833 270.005 185.42C270.245 185.007 270.565 184.673 270.965 184.42C271.365 184.167 271.831 183.98 272.365 183.86C272.898 183.74 273.458 183.68 274.045 183.68C274.231 183.68 274.425 183.693 274.625 183.72C274.825 183.733 275.011 183.76 275.185 183.8C275.371 183.827 275.531 183.853 275.665 183.88C275.798 183.907 275.891 183.927 275.945 183.94V183.42C275.945 183.113 275.911 182.813 275.845 182.52C275.778 182.213 275.658 181.947 275.485 181.72C275.311 181.48 275.071 181.293 274.765 181.16C274.471 181.013 274.085 180.94 273.605 180.94C272.991 180.94 272.451 180.987 271.985 181.08C271.531 181.16 271.191 181.247 270.965 181.34L270.745 179.8C270.985 179.693 271.385 179.593 271.945 179.5C272.505 179.393 273.111 179.34 273.765 179.34ZM293.674 179.6C293.407 179.933 293.107 180.3 292.774 180.7C292.441 181.087 292.094 181.493 291.734 181.92C291.374 182.333 291.007 182.747 290.634 183.16C290.274 183.573 289.927 183.967 289.594 184.34C289.994 184.727 290.407 185.147 290.834 185.6C291.261 186.053 291.674 186.527 292.074 187.02C292.487 187.5 292.881 188 293.254 188.52C293.627 189.027 293.954 189.52 294.234 190H292.154C291.874 189.56 291.547 189.1 291.174 188.62C290.814 188.127 290.434 187.653 290.034 187.2C289.647 186.747 289.254 186.327 288.854 185.94C288.467 185.54 288.107 185.213 287.774 184.96V190H285.994V184.96C285.661 185.213 285.294 185.54 284.894 185.94C284.507 186.327 284.114 186.747 283.714 187.2C283.327 187.653 282.947 188.127 282.574 188.62C282.214 189.1 281.894 189.56 281.614 190H279.554C279.834 189.52 280.154 189.027 280.514 188.52C280.887 188.013 281.274 187.52 281.674 187.04C282.087 186.547 282.507 186.073 282.934 185.62C283.361 185.167 283.774 184.747 284.174 184.36C283.841 183.987 283.487 183.593 283.114 183.18C282.754 182.767 282.394 182.353 282.034 181.94C281.674 181.513 281.327 181.107 280.994 180.72C280.661 180.32 280.354 179.947 280.074 179.6H282.134C282.614 180.2 283.167 180.867 283.794 181.6C284.421 182.333 285.154 183.18 285.994 184.14V179.6H287.774V184.14C288.614 183.18 289.347 182.333 289.974 181.6C290.601 180.867 291.154 180.2 291.634 179.6H293.674ZM304.628 190H302.768V185.4H297.968V190H296.108V179.6H297.968V183.84H302.768V179.6H304.628V190ZM317.007 184.8C317.007 185.627 316.887 186.373 316.647 187.04C316.407 187.707 316.067 188.28 315.627 188.76C315.2 189.24 314.687 189.613 314.087 189.88C313.487 190.133 312.833 190.26 312.127 190.26C311.42 190.26 310.767 190.133 310.167 189.88C309.567 189.613 309.047 189.24 308.607 188.76C308.18 188.28 307.847 187.707 307.607 187.04C307.367 186.373 307.247 185.627 307.247 184.8C307.247 183.987 307.367 183.247 307.607 182.58C307.847 181.9 308.18 181.32 308.607 180.84C309.047 180.36 309.567 179.993 310.167 179.74C310.767 179.473 311.42 179.34 312.127 179.34C312.833 179.34 313.487 179.473 314.087 179.74C314.687 179.993 315.2 180.36 315.627 180.84C316.067 181.32 316.407 181.9 316.647 182.58C316.887 183.247 317.007 183.987 317.007 184.8ZM315.067 184.8C315.067 183.627 314.8 182.7 314.267 182.02C313.747 181.327 313.033 180.98 312.127 180.98C311.22 180.98 310.5 181.327 309.967 182.02C309.447 182.7 309.187 183.627 309.187 184.8C309.187 185.973 309.447 186.907 309.967 187.6C310.5 188.28 311.22 188.62 312.127 188.62C313.033 188.62 313.747 188.28 314.267 187.6C314.8 186.907 315.067 185.973 315.067 184.8ZM324.143 190.24C323.303 190.24 322.563 190.107 321.923 189.84C321.297 189.573 320.763 189.2 320.323 188.72C319.897 188.24 319.577 187.673 319.363 187.02C319.15 186.353 319.043 185.62 319.043 184.82C319.043 184.02 319.157 183.287 319.383 182.62C319.623 181.953 319.957 181.38 320.383 180.9C320.81 180.407 321.33 180.027 321.943 179.76C322.57 179.48 323.263 179.34 324.023 179.34C324.49 179.34 324.957 179.38 325.423 179.46C325.89 179.54 326.337 179.667 326.763 179.84L326.343 181.42C326.063 181.287 325.737 181.18 325.363 181.1C325.003 181.02 324.617 180.98 324.203 180.98C323.163 180.98 322.363 181.307 321.803 181.96C321.257 182.613 320.983 183.567 320.983 184.82C320.983 185.38 321.043 185.893 321.163 186.36C321.297 186.827 321.497 187.227 321.763 187.56C322.043 187.893 322.397 188.153 322.823 188.34C323.25 188.513 323.77 188.6 324.383 188.6C324.877 188.6 325.323 188.553 325.723 188.46C326.123 188.367 326.437 188.267 326.663 188.16L326.923 189.72C326.817 189.787 326.663 189.853 326.463 189.92C326.263 189.973 326.037 190.02 325.783 190.06C325.53 190.113 325.257 190.153 324.963 190.18C324.683 190.22 324.41 190.24 324.143 190.24ZM336.553 179.6V181.16H333.173V190H331.313V181.16H327.933V179.6H336.553ZM342.411 188.7C343.198 188.7 343.818 188.547 344.271 188.24C344.724 187.933 344.951 187.44 344.951 186.76C344.951 186.427 344.884 186.14 344.751 185.9C344.618 185.66 344.431 185.467 344.191 185.32C343.964 185.16 343.698 185.047 343.391 184.98C343.084 184.9 342.758 184.86 342.411 184.86C342.051 184.86 341.678 184.873 341.291 184.9C340.918 184.913 340.598 184.953 340.331 185.02V188.6C340.411 188.613 340.531 188.627 340.691 188.64C340.851 188.653 341.024 188.667 341.211 188.68C341.411 188.68 341.611 188.687 341.811 188.7C342.024 188.7 342.224 188.7 342.411 188.7ZM338.471 189.78V179.6H340.331V183.58C340.438 183.553 340.578 183.527 340.751 183.5C340.938 183.473 341.131 183.447 341.331 183.42C341.544 183.393 341.764 183.373 341.991 183.36C342.218 183.347 342.431 183.34 342.631 183.34C343.204 183.34 343.744 183.407 344.251 183.54C344.758 183.66 345.198 183.86 345.571 184.14C345.958 184.407 346.264 184.76 346.491 185.2C346.718 185.627 346.831 186.14 346.831 186.74C346.831 187.367 346.724 187.9 346.511 188.34C346.298 188.78 345.991 189.14 345.591 189.42C345.191 189.7 344.711 189.9 344.151 190.02C343.604 190.153 342.991 190.22 342.311 190.22C341.644 190.22 340.991 190.18 340.351 190.1C339.711 190.033 339.084 189.927 338.471 189.78ZM355.486 188.6C355.566 188.613 355.68 188.627 355.826 188.64C355.973 188.653 356.14 188.667 356.326 188.68C356.513 188.68 356.706 188.687 356.906 188.7C357.12 188.7 357.32 188.7 357.506 188.7C357.893 188.7 358.26 188.673 358.606 188.62C358.966 188.567 359.273 188.473 359.526 188.34C359.793 188.207 360 188.033 360.146 187.82C360.306 187.593 360.386 187.307 360.386 186.96C360.386 186.627 360.313 186.353 360.166 186.14C360.033 185.913 359.846 185.733 359.606 185.6C359.366 185.467 359.08 185.373 358.746 185.32C358.426 185.267 358.08 185.24 357.706 185.24H355.486V188.6ZM357.466 183.86C357.826 183.86 358.153 183.84 358.446 183.8C358.753 183.747 359.013 183.66 359.226 183.54C359.453 183.42 359.626 183.26 359.746 183.06C359.88 182.86 359.946 182.607 359.946 182.3C359.946 181.98 359.866 181.727 359.706 181.54C359.546 181.353 359.333 181.213 359.066 181.12C358.813 181.013 358.52 180.947 358.186 180.92C357.866 180.88 357.54 180.86 357.206 180.86C356.9 180.86 356.586 180.867 356.266 180.88C355.96 180.893 355.7 180.907 355.486 180.92V183.86H357.466ZM357.426 190.18C356.64 190.18 355.913 190.14 355.246 190.06C354.58 189.993 354.053 189.913 353.666 189.82V179.7C354.053 179.607 354.58 179.527 355.246 179.46C355.913 179.38 356.64 179.34 357.426 179.34C357.973 179.34 358.506 179.387 359.026 179.48C359.546 179.573 360.006 179.733 360.406 179.96C360.806 180.173 361.126 180.473 361.366 180.86C361.62 181.233 361.746 181.7 361.746 182.26C361.746 182.767 361.62 183.2 361.366 183.56C361.113 183.92 360.773 184.2 360.346 184.4C360.92 184.6 361.373 184.9 361.706 185.3C362.053 185.687 362.226 186.233 362.226 186.94C362.226 187.567 362.1 188.087 361.846 188.5C361.606 188.913 361.266 189.247 360.826 189.5C360.4 189.753 359.893 189.927 359.306 190.02C358.72 190.127 358.093 190.18 357.426 190.18ZM373.803 184.8C373.803 185.627 373.683 186.373 373.443 187.04C373.203 187.707 372.863 188.28 372.423 188.76C371.997 189.24 371.483 189.613 370.883 189.88C370.283 190.133 369.63 190.26 368.923 190.26C368.217 190.26 367.563 190.133 366.963 189.88C366.363 189.613 365.843 189.24 365.403 188.76C364.977 188.28 364.643 187.707 364.403 187.04C364.163 186.373 364.043 185.627 364.043 184.8C364.043 183.987 364.163 183.247 364.403 182.58C364.643 181.9 364.977 181.32 365.403 180.84C365.843 180.36 366.363 179.993 366.963 179.74C367.563 179.473 368.217 179.34 368.923 179.34C369.63 179.34 370.283 179.473 370.883 179.74C371.483 179.993 371.997 180.36 372.423 180.84C372.863 181.32 373.203 181.9 373.443 182.58C373.683 183.247 373.803 183.987 373.803 184.8ZM371.863 184.8C371.863 183.627 371.597 182.7 371.063 182.02C370.543 181.327 369.83 180.98 368.923 180.98C368.017 180.98 367.297 181.327 366.763 182.02C366.243 182.7 365.983 183.627 365.983 184.8C365.983 185.973 366.243 186.907 366.763 187.6C367.297 188.28 368.017 188.62 368.923 188.62C369.83 188.62 370.543 188.28 371.063 187.6C371.597 186.907 371.863 185.973 371.863 184.8ZM378.728 179.34C379.328 179.34 379.888 179.4 380.408 179.52C380.928 179.64 381.375 179.82 381.748 180.06C382.122 180.3 382.415 180.6 382.628 180.96C382.842 181.32 382.948 181.74 382.948 182.22C382.948 182.527 382.895 182.807 382.788 183.06C382.682 183.313 382.548 183.54 382.388 183.74C382.228 183.94 382.048 184.113 381.848 184.26C381.662 184.393 381.482 184.487 381.308 184.54C381.922 184.727 382.402 185.06 382.748 185.54C383.108 186.007 383.288 186.6 383.288 187.32C383.288 188.307 382.888 189.04 382.088 189.52C381.288 190 380.202 190.24 378.828 190.24C377.988 190.24 377.262 190.173 376.648 190.04C376.048 189.907 375.622 189.78 375.368 189.66L375.688 188.08C375.902 188.16 376.282 188.273 376.828 188.42C377.388 188.553 378.055 188.62 378.828 188.62C379.668 188.62 380.308 188.493 380.748 188.24C381.188 187.973 381.408 187.58 381.408 187.06C381.408 186.687 381.322 186.387 381.148 186.16C380.988 185.92 380.782 185.74 380.528 185.62C380.275 185.5 380.002 185.42 379.708 185.38C379.415 185.34 379.142 185.32 378.888 185.32H377.148V183.84H378.828C379.068 183.84 379.315 183.827 379.568 183.8C379.835 183.76 380.075 183.687 380.288 183.58C380.515 183.473 380.702 183.327 380.848 183.14C380.995 182.94 381.068 182.68 381.068 182.36C381.068 182.107 381.002 181.893 380.868 181.72C380.748 181.533 380.582 181.38 380.368 181.26C380.155 181.14 379.902 181.053 379.608 181C379.328 180.933 379.035 180.9 378.728 180.9C378.488 180.9 378.228 180.92 377.948 180.96C377.668 181 377.395 181.053 377.128 181.12C376.862 181.173 376.622 181.233 376.408 181.3C376.195 181.367 376.042 181.427 375.948 181.48L375.608 179.88C375.715 179.84 375.882 179.787 376.108 179.72C376.335 179.653 376.588 179.593 376.868 179.54C377.162 179.487 377.468 179.44 377.788 179.4C378.108 179.36 378.422 179.34 378.728 179.34ZM384.593 188.48H385.713C386.153 187.84 386.5 187.18 386.753 186.5C387.02 185.82 387.22 185.12 387.353 184.4C387.487 183.667 387.573 182.907 387.613 182.12C387.653 181.32 387.68 180.48 387.693 179.6H394.513V188.48H395.913V192.9H394.153V190H386.353V192.9H384.593V188.48ZM392.653 188.48V181.16H389.393C389.38 181.787 389.347 182.42 389.293 183.06C389.24 183.687 389.153 184.313 389.033 184.94C388.913 185.553 388.74 186.16 388.513 186.76C388.3 187.347 388.027 187.92 387.693 188.48H392.653ZM397.193 191.94C397.339 192.007 397.526 192.067 397.753 192.12C397.993 192.187 398.226 192.22 398.453 192.22C399.186 192.22 399.759 192.053 400.173 191.72C400.586 191.4 400.959 190.873 401.293 190.14C400.453 188.54 399.666 186.847 398.933 185.06C398.213 183.26 397.613 181.44 397.133 179.6H399.133C399.279 180.2 399.453 180.847 399.653 181.54C399.866 182.233 400.099 182.947 400.353 183.68C400.606 184.413 400.879 185.147 401.173 185.88C401.466 186.613 401.773 187.32 402.092 188C402.599 186.6 403.039 185.213 403.413 183.84C403.786 182.467 404.139 181.053 404.473 179.6H406.393C405.913 181.56 405.379 183.447 404.793 185.26C404.206 187.06 403.573 188.747 402.893 190.32C402.626 190.92 402.346 191.433 402.053 191.86C401.773 192.3 401.459 192.66 401.113 192.94C400.766 193.22 400.373 193.427 399.933 193.56C399.506 193.693 399.019 193.76 398.473 193.76C398.326 193.76 398.173 193.747 398.013 193.72C397.853 193.707 397.693 193.68 397.533 193.64C397.386 193.613 397.246 193.58 397.113 193.54C396.993 193.5 396.906 193.467 396.853 193.44L397.193 191.94ZM414.828 190C414.681 189.707 414.501 189.38 414.288 189.02C414.074 188.66 413.841 188.293 413.588 187.92C413.334 187.533 413.074 187.153 412.808 186.78C412.541 186.407 412.281 186.053 412.028 185.72C411.774 186.053 411.514 186.413 411.248 186.8C410.981 187.173 410.721 187.553 410.468 187.94C410.228 188.313 410.001 188.68 409.788 189.04C409.574 189.4 409.394 189.72 409.248 190H407.328C407.794 189.093 408.348 188.173 408.988 187.24C409.641 186.293 410.288 185.393 410.928 184.54L407.488 179.6H409.588L412.068 183.24L414.568 179.6H416.548L413.188 184.42C413.828 185.287 414.481 186.207 415.148 187.18C415.828 188.14 416.401 189.08 416.868 190H414.828ZM422.343 188.66C422.783 188.66 423.169 188.653 423.503 188.64C423.849 188.613 424.136 188.573 424.363 188.52V185.42C424.229 185.353 424.009 185.3 423.703 185.26C423.409 185.207 423.049 185.18 422.623 185.18C422.343 185.18 422.043 185.2 421.723 185.24C421.416 185.28 421.129 185.367 420.863 185.5C420.609 185.62 420.396 185.793 420.223 186.02C420.049 186.233 419.963 186.52 419.963 186.88C419.963 187.547 420.176 188.013 420.603 188.28C421.029 188.533 421.609 188.66 422.343 188.66ZM422.183 179.34C422.929 179.34 423.556 179.44 424.063 179.64C424.583 179.827 424.996 180.1 425.303 180.46C425.623 180.807 425.849 181.227 425.983 181.72C426.116 182.2 426.183 182.733 426.183 183.32V189.82C426.023 189.847 425.796 189.887 425.503 189.94C425.223 189.98 424.903 190.02 424.543 190.06C424.183 190.1 423.789 190.133 423.363 190.16C422.949 190.2 422.536 190.22 422.123 190.22C421.536 190.22 420.996 190.16 420.503 190.04C420.009 189.92 419.583 189.733 419.223 189.48C418.863 189.213 418.583 188.867 418.383 188.44C418.183 188.013 418.083 187.5 418.083 186.9C418.083 186.327 418.196 185.833 418.423 185.42C418.663 185.007 418.983 184.673 419.383 184.42C419.783 184.167 420.249 183.98 420.783 183.86C421.316 183.74 421.876 183.68 422.463 183.68C422.649 183.68 422.843 183.693 423.043 183.72C423.243 183.733 423.429 183.76 423.603 183.8C423.789 183.827 423.949 183.853 424.083 183.88C424.216 183.907 424.309 183.927 424.363 183.94V183.42C424.363 183.113 424.329 182.813 424.263 182.52C424.196 182.213 424.076 181.947 423.903 181.72C423.729 181.48 423.489 181.293 423.183 181.16C422.889 181.013 422.503 180.94 422.023 180.94C421.409 180.94 420.869 180.987 420.403 181.08C419.949 181.16 419.609 181.247 419.383 181.34L419.163 179.8C419.403 179.693 419.803 179.593 420.363 179.5C420.923 179.393 421.529 179.34 422.183 179.34Z" fill="url(#paint3_linear_1722_5436)"/>
<path d="M240.98 300.14V301.82H236.62V314H234.68V301.82H230.32V300.14H240.98ZM241.235 308.82C241.235 307.9 241.368 307.1 241.635 306.42C241.902 305.727 242.255 305.153 242.695 304.7C243.135 304.247 243.642 303.907 244.215 303.68C244.788 303.453 245.375 303.34 245.975 303.34C247.375 303.34 248.448 303.78 249.195 304.66C249.942 305.527 250.315 306.853 250.315 308.64C250.315 308.72 250.315 308.827 250.315 308.96C250.315 309.08 250.308 309.193 250.295 309.3H243.175C243.255 310.38 243.568 311.2 244.115 311.76C244.662 312.32 245.515 312.6 246.675 312.6C247.328 312.6 247.875 312.547 248.315 312.44C248.768 312.32 249.108 312.207 249.335 312.1L249.595 313.66C249.368 313.78 248.968 313.907 248.395 314.04C247.835 314.173 247.195 314.24 246.475 314.24C245.568 314.24 244.782 314.107 244.115 313.84C243.462 313.56 242.922 313.18 242.495 312.7C242.068 312.22 241.748 311.653 241.535 311C241.335 310.333 241.235 309.607 241.235 308.82ZM248.375 307.8C248.388 306.96 248.175 306.273 247.735 305.74C247.308 305.193 246.715 304.92 245.955 304.92C245.528 304.92 245.148 305.007 244.815 305.18C244.495 305.34 244.222 305.553 243.995 305.82C243.768 306.087 243.588 306.393 243.455 306.74C243.335 307.087 243.255 307.44 243.215 307.8H248.375ZM254.967 306.34C254.833 307.66 254.733 308.98 254.667 310.3C254.6 311.607 254.547 312.84 254.507 314H252.727C252.753 313.187 252.793 312.34 252.847 311.46C252.9 310.567 252.96 309.673 253.027 308.78C253.093 307.873 253.167 306.987 253.247 306.12C253.327 305.24 253.413 304.4 253.507 303.6H255.207C255.633 304.293 256.133 305.247 256.707 306.46C257.28 307.66 257.94 309.047 258.687 310.62C259.433 309.047 260.093 307.66 260.667 306.46C261.24 305.247 261.74 304.293 262.167 303.6H263.887C263.98 304.4 264.067 305.24 264.147 306.12C264.227 306.987 264.3 307.873 264.367 308.78C264.433 309.673 264.493 310.567 264.547 311.46C264.6 312.34 264.64 313.187 264.667 314H262.827C262.787 312.84 262.733 311.607 262.667 310.3C262.6 308.98 262.5 307.66 262.367 306.34C262.153 306.753 261.907 307.253 261.627 307.84C261.347 308.413 261.067 309 260.787 309.6C260.52 310.2 260.267 310.773 260.027 311.32C259.787 311.867 259.6 312.3 259.467 312.62H257.907C257.76 312.287 257.56 311.847 257.307 311.3C257.067 310.753 256.807 310.18 256.527 309.58C256.26 308.967 255.987 308.373 255.707 307.8C255.427 307.213 255.18 306.727 254.967 306.34ZM275.976 314H274.116V305.16H269.476V314H267.616V303.6H275.976V314ZM278.598 308.82C278.598 307.9 278.731 307.1 278.998 306.42C279.265 305.727 279.618 305.153 280.058 304.7C280.498 304.247 281.005 303.907 281.578 303.68C282.151 303.453 282.738 303.34 283.338 303.34C284.738 303.34 285.811 303.78 286.558 304.66C287.305 305.527 287.678 306.853 287.678 308.64C287.678 308.72 287.678 308.827 287.678 308.96C287.678 309.08 287.671 309.193 287.658 309.3H280.538C280.618 310.38 280.931 311.2 281.478 311.76C282.025 312.32 282.878 312.6 284.038 312.6C284.691 312.6 285.238 312.547 285.678 312.44C286.131 312.32 286.471 312.207 286.698 312.1L286.958 313.66C286.731 313.78 286.331 313.907 285.758 314.04C285.198 314.173 284.558 314.24 283.838 314.24C282.931 314.24 282.145 314.107 281.478 313.84C280.825 313.56 280.285 313.18 279.858 312.7C279.431 312.22 279.111 311.653 278.898 311C278.698 310.333 278.598 309.607 278.598 308.82ZM285.738 307.8C285.751 306.96 285.538 306.273 285.098 305.74C284.671 305.193 284.078 304.92 283.318 304.92C282.891 304.92 282.511 305.007 282.178 305.18C281.858 305.34 281.585 305.553 281.358 305.82C281.131 306.087 280.951 306.393 280.818 306.74C280.698 307.087 280.618 307.44 280.578 307.8H285.738ZM297.57 308.82C297.57 307.607 297.27 306.673 296.67 306.02C296.07 305.367 295.27 305.04 294.27 305.04C293.71 305.04 293.27 305.06 292.95 305.1C292.643 305.14 292.397 305.187 292.21 305.24V311.8C292.437 311.987 292.763 312.167 293.19 312.34C293.617 312.513 294.083 312.6 294.59 312.6C295.123 312.6 295.577 312.507 295.95 312.32C296.337 312.12 296.65 311.853 296.89 311.52C297.13 311.173 297.303 310.773 297.41 310.32C297.517 309.853 297.57 309.353 297.57 308.82ZM299.51 308.82C299.51 309.607 299.403 310.333 299.19 311C298.99 311.667 298.69 312.24 298.29 312.72C297.89 313.2 297.397 313.573 296.81 313.84C296.237 314.107 295.577 314.24 294.83 314.24C294.23 314.24 293.697 314.16 293.23 314C292.777 313.84 292.437 313.687 292.21 313.54V317.7H290.35V303.92C290.79 303.813 291.337 303.7 291.99 303.58C292.657 303.447 293.423 303.38 294.29 303.38C295.09 303.38 295.81 303.507 296.45 303.76C297.09 304.013 297.637 304.373 298.09 304.84C298.543 305.307 298.89 305.88 299.13 306.56C299.383 307.227 299.51 307.98 299.51 308.82ZM305.647 312.66C306.087 312.66 306.474 312.653 306.807 312.64C307.154 312.613 307.441 312.573 307.667 312.52V309.42C307.534 309.353 307.314 309.3 307.007 309.26C306.714 309.207 306.354 309.18 305.927 309.18C305.647 309.18 305.347 309.2 305.027 309.24C304.721 309.28 304.434 309.367 304.167 309.5C303.914 309.62 303.701 309.793 303.527 310.02C303.354 310.233 303.267 310.52 303.267 310.88C303.267 311.547 303.481 312.013 303.907 312.28C304.334 312.533 304.914 312.66 305.647 312.66ZM305.487 303.34C306.234 303.34 306.861 303.44 307.367 303.64C307.887 303.827 308.301 304.1 308.607 304.46C308.927 304.807 309.154 305.227 309.287 305.72C309.421 306.2 309.487 306.733 309.487 307.32V313.82C309.327 313.847 309.101 313.887 308.807 313.94C308.527 313.98 308.207 314.02 307.847 314.06C307.487 314.1 307.094 314.133 306.667 314.16C306.254 314.2 305.841 314.22 305.427 314.22C304.841 314.22 304.301 314.16 303.807 314.04C303.314 313.92 302.887 313.733 302.527 313.48C302.167 313.213 301.887 312.867 301.687 312.44C301.487 312.013 301.387 311.5 301.387 310.9C301.387 310.327 301.501 309.833 301.727 309.42C301.967 309.007 302.287 308.673 302.687 308.42C303.087 308.167 303.554 307.98 304.087 307.86C304.621 307.74 305.181 307.68 305.767 307.68C305.954 307.68 306.147 307.693 306.347 307.72C306.547 307.733 306.734 307.76 306.907 307.8C307.094 307.827 307.254 307.853 307.387 307.88C307.521 307.907 307.614 307.927 307.667 307.94V307.42C307.667 307.113 307.634 306.813 307.567 306.52C307.501 306.213 307.381 305.947 307.207 305.72C307.034 305.48 306.794 305.293 306.487 305.16C306.194 305.013 305.807 304.94 305.327 304.94C304.714 304.94 304.174 304.987 303.707 305.08C303.254 305.16 302.914 305.247 302.687 305.34L302.467 303.8C302.707 303.693 303.107 303.593 303.667 303.5C304.227 303.393 304.834 303.34 305.487 303.34ZM319.917 303.6V305.16H316.537V314H314.677V305.16H311.297V303.6H319.917ZM321.064 315.94C321.21 316.007 321.397 316.067 321.624 316.12C321.864 316.187 322.097 316.22 322.324 316.22C323.057 316.22 323.63 316.053 324.044 315.72C324.457 315.4 324.83 314.873 325.164 314.14C324.324 312.54 323.537 310.847 322.804 309.06C322.084 307.26 321.484 305.44 321.004 303.6H323.004C323.15 304.2 323.324 304.847 323.524 305.54C323.737 306.233 323.97 306.947 324.224 307.68C324.477 308.413 324.75 309.147 325.044 309.88C325.337 310.613 325.644 311.32 325.964 312C326.47 310.6 326.91 309.213 327.284 307.84C327.657 306.467 328.01 305.053 328.344 303.6H330.264C329.784 305.56 329.25 307.447 328.664 309.26C328.077 311.06 327.444 312.747 326.764 314.32C326.497 314.92 326.217 315.433 325.924 315.86C325.644 316.3 325.33 316.66 324.984 316.94C324.637 317.22 324.244 317.427 323.804 317.56C323.377 317.693 322.89 317.76 322.344 317.76C322.197 317.76 322.044 317.747 321.884 317.72C321.724 317.707 321.564 317.68 321.404 317.64C321.257 317.613 321.117 317.58 320.984 317.54C320.864 317.5 320.777 317.467 320.724 317.44L321.064 315.94ZM339.445 308.82C339.445 307.607 339.145 306.673 338.545 306.02C337.945 305.367 337.145 305.04 336.145 305.04C335.585 305.04 335.145 305.06 334.825 305.1C334.518 305.14 334.272 305.187 334.085 305.24V311.8C334.312 311.987 334.638 312.167 335.065 312.34C335.492 312.513 335.958 312.6 336.465 312.6C336.998 312.6 337.452 312.507 337.825 312.32C338.212 312.12 338.525 311.853 338.765 311.52C339.005 311.173 339.178 310.773 339.285 310.32C339.392 309.853 339.445 309.353 339.445 308.82ZM341.385 308.82C341.385 309.607 341.278 310.333 341.065 311C340.865 311.667 340.565 312.24 340.165 312.72C339.765 313.2 339.272 313.573 338.685 313.84C338.112 314.107 337.452 314.24 336.705 314.24C336.105 314.24 335.572 314.16 335.105 314C334.652 313.84 334.312 313.687 334.085 313.54V317.7H332.225V303.92C332.665 303.813 333.212 303.7 333.865 303.58C334.532 303.447 335.298 303.38 336.165 303.38C336.965 303.38 337.685 303.507 338.325 303.76C338.965 304.013 339.512 304.373 339.965 304.84C340.418 305.307 340.765 305.88 341.005 306.56C341.258 307.227 341.385 307.98 341.385 308.82ZM347.522 312.66C347.962 312.66 348.349 312.653 348.682 312.64C349.029 312.613 349.316 312.573 349.542 312.52V309.42C349.409 309.353 349.189 309.3 348.882 309.26C348.589 309.207 348.229 309.18 347.802 309.18C347.522 309.18 347.222 309.2 346.902 309.24C346.596 309.28 346.309 309.367 346.042 309.5C345.789 309.62 345.576 309.793 345.402 310.02C345.229 310.233 345.142 310.52 345.142 310.88C345.142 311.547 345.356 312.013 345.782 312.28C346.209 312.533 346.789 312.66 347.522 312.66ZM347.362 303.34C348.109 303.34 348.736 303.44 349.242 303.64C349.762 303.827 350.176 304.1 350.482 304.46C350.802 304.807 351.029 305.227 351.162 305.72C351.296 306.2 351.362 306.733 351.362 307.32V313.82C351.202 313.847 350.976 313.887 350.682 313.94C350.402 313.98 350.082 314.02 349.722 314.06C349.362 314.1 348.969 314.133 348.542 314.16C348.129 314.2 347.716 314.22 347.302 314.22C346.716 314.22 346.176 314.16 345.682 314.04C345.189 313.92 344.762 313.733 344.402 313.48C344.042 313.213 343.762 312.867 343.562 312.44C343.362 312.013 343.262 311.5 343.262 310.9C343.262 310.327 343.376 309.833 343.602 309.42C343.842 309.007 344.162 308.673 344.562 308.42C344.962 308.167 345.429 307.98 345.962 307.86C346.496 307.74 347.056 307.68 347.642 307.68C347.829 307.68 348.022 307.693 348.222 307.72C348.422 307.733 348.609 307.76 348.782 307.8C348.969 307.827 349.129 307.853 349.262 307.88C349.396 307.907 349.489 307.927 349.542 307.94V307.42C349.542 307.113 349.509 306.813 349.442 306.52C349.376 306.213 349.256 305.947 349.082 305.72C348.909 305.48 348.669 305.293 348.362 305.16C348.069 305.013 347.682 304.94 347.202 304.94C346.589 304.94 346.049 304.987 345.582 305.08C345.129 305.16 344.789 305.247 344.562 305.34L344.342 303.8C344.582 303.693 344.982 303.593 345.542 303.5C346.102 303.393 346.709 303.34 347.362 303.34ZM360.9 312.6C360.98 312.613 361.094 312.627 361.24 312.64C361.387 312.653 361.554 312.667 361.74 312.68C361.927 312.68 362.12 312.687 362.32 312.7C362.534 312.7 362.734 312.7 362.92 312.7C363.307 312.7 363.674 312.673 364.02 312.62C364.38 312.567 364.687 312.473 364.94 312.34C365.207 312.207 365.414 312.033 365.56 311.82C365.72 311.593 365.8 311.307 365.8 310.96C365.8 310.627 365.727 310.353 365.58 310.14C365.447 309.913 365.26 309.733 365.02 309.6C364.78 309.467 364.494 309.373 364.16 309.32C363.84 309.267 363.494 309.24 363.12 309.24H360.9V312.6ZM362.88 307.86C363.24 307.86 363.567 307.84 363.86 307.8C364.167 307.747 364.427 307.66 364.64 307.54C364.867 307.42 365.04 307.26 365.16 307.06C365.294 306.86 365.36 306.607 365.36 306.3C365.36 305.98 365.28 305.727 365.12 305.54C364.96 305.353 364.747 305.213 364.48 305.12C364.227 305.013 363.934 304.947 363.6 304.92C363.28 304.88 362.954 304.86 362.62 304.86C362.314 304.86 362 304.867 361.68 304.88C361.374 304.893 361.114 304.907 360.9 304.92V307.86H362.88ZM362.84 314.18C362.054 314.18 361.327 314.14 360.66 314.06C359.994 313.993 359.467 313.913 359.08 313.82V303.7C359.467 303.607 359.994 303.527 360.66 303.46C361.327 303.38 362.054 303.34 362.84 303.34C363.387 303.34 363.92 303.387 364.44 303.48C364.96 303.573 365.42 303.733 365.82 303.96C366.22 304.173 366.54 304.473 366.78 304.86C367.034 305.233 367.16 305.7 367.16 306.26C367.16 306.767 367.034 307.2 366.78 307.56C366.527 307.92 366.187 308.2 365.76 308.4C366.334 308.6 366.787 308.9 367.12 309.3C367.467 309.687 367.64 310.233 367.64 310.94C367.64 311.567 367.514 312.087 367.26 312.5C367.02 312.913 366.68 313.247 366.24 313.5C365.814 313.753 365.307 313.927 364.72 314.02C364.134 314.127 363.507 314.18 362.84 314.18ZM379.218 308.8C379.218 309.627 379.098 310.373 378.858 311.04C378.618 311.707 378.278 312.28 377.838 312.76C377.411 313.24 376.898 313.613 376.298 313.88C375.698 314.133 375.044 314.26 374.338 314.26C373.631 314.26 372.978 314.133 372.378 313.88C371.778 313.613 371.258 313.24 370.818 312.76C370.391 312.28 370.058 311.707 369.818 311.04C369.578 310.373 369.458 309.627 369.458 308.8C369.458 307.987 369.578 307.247 369.818 306.58C370.058 305.9 370.391 305.32 370.818 304.84C371.258 304.36 371.778 303.993 372.378 303.74C372.978 303.473 373.631 303.34 374.338 303.34C375.044 303.34 375.698 303.473 376.298 303.74C376.898 303.993 377.411 304.36 377.838 304.84C378.278 305.32 378.618 305.9 378.858 306.58C379.098 307.247 379.218 307.987 379.218 308.8ZM377.278 308.8C377.278 307.627 377.011 306.7 376.478 306.02C375.958 305.327 375.244 304.98 374.338 304.98C373.431 304.98 372.711 305.327 372.178 306.02C371.658 306.7 371.398 307.627 371.398 308.8C371.398 309.973 371.658 310.907 372.178 311.6C372.711 312.28 373.431 312.62 374.338 312.62C375.244 312.62 375.958 312.28 376.478 311.6C377.011 310.907 377.278 309.973 377.278 308.8ZM384.142 303.34C384.742 303.34 385.302 303.4 385.822 303.52C386.342 303.64 386.789 303.82 387.162 304.06C387.536 304.3 387.829 304.6 388.042 304.96C388.256 305.32 388.362 305.74 388.362 306.22C388.362 306.527 388.309 306.807 388.202 307.06C388.096 307.313 387.962 307.54 387.802 307.74C387.642 307.94 387.462 308.113 387.262 308.26C387.076 308.393 386.896 308.487 386.722 308.54C387.336 308.727 387.816 309.06 388.162 309.54C388.522 310.007 388.702 310.6 388.702 311.32C388.702 312.307 388.302 313.04 387.502 313.52C386.702 314 385.616 314.24 384.242 314.24C383.402 314.24 382.676 314.173 382.062 314.04C381.462 313.907 381.036 313.78 380.782 313.66L381.102 312.08C381.316 312.16 381.696 312.273 382.242 312.42C382.802 312.553 383.469 312.62 384.242 312.62C385.082 312.62 385.722 312.493 386.162 312.24C386.602 311.973 386.822 311.58 386.822 311.06C386.822 310.687 386.736 310.387 386.562 310.16C386.402 309.92 386.196 309.74 385.942 309.62C385.689 309.5 385.416 309.42 385.122 309.38C384.829 309.34 384.556 309.32 384.302 309.32H382.562V307.84H384.242C384.482 307.84 384.729 307.827 384.982 307.8C385.249 307.76 385.489 307.687 385.702 307.58C385.929 307.473 386.116 307.327 386.262 307.14C386.409 306.94 386.482 306.68 386.482 306.36C386.482 306.107 386.416 305.893 386.282 305.72C386.162 305.533 385.996 305.38 385.782 305.26C385.569 305.14 385.316 305.053 385.022 305C384.742 304.933 384.449 304.9 384.142 304.9C383.902 304.9 383.642 304.92 383.362 304.96C383.082 305 382.809 305.053 382.542 305.12C382.276 305.173 382.036 305.233 381.822 305.3C381.609 305.367 381.456 305.427 381.362 305.48L381.022 303.88C381.129 303.84 381.296 303.787 381.522 303.72C381.749 303.653 382.002 303.593 382.282 303.54C382.576 303.487 382.882 303.44 383.202 303.4C383.522 303.36 383.836 303.34 384.142 303.34ZM390.008 312.48H391.128C391.568 311.84 391.914 311.18 392.168 310.5C392.434 309.82 392.634 309.12 392.768 308.4C392.901 307.667 392.988 306.907 393.028 306.12C393.068 305.32 393.094 304.48 393.108 303.6H399.928V312.48H401.328V316.9H399.568V314H391.768V316.9H390.008V312.48ZM398.068 312.48V305.16H394.808C394.794 305.787 394.761 306.42 394.708 307.06C394.654 307.687 394.568 308.313 394.448 308.94C394.328 309.553 394.154 310.16 393.928 310.76C393.714 311.347 393.441 311.92 393.108 312.48H398.068ZM402.607 315.94C402.753 316.007 402.94 316.067 403.167 316.12C403.407 316.187 403.64 316.22 403.867 316.22C404.6 316.22 405.173 316.053 405.587 315.72C406 315.4 406.373 314.873 406.707 314.14C405.867 312.54 405.08 310.847 404.347 309.06C403.627 307.26 403.027 305.44 402.547 303.6H404.547C404.693 304.2 404.867 304.847 405.067 305.54C405.28 306.233 405.513 306.947 405.767 307.68C406.02 308.413 406.293 309.147 406.587 309.88C406.88 310.613 407.187 311.32 407.507 312C408.013 310.6 408.453 309.213 408.827 307.84C409.2 306.467 409.553 305.053 409.887 303.6H411.807C411.327 305.56 410.793 307.447 410.207 309.26C409.62 311.06 408.987 312.747 408.307 314.32C408.04 314.92 407.76 315.433 407.467 315.86C407.187 316.3 406.873 316.66 406.527 316.94C406.18 317.22 405.787 317.427 405.347 317.56C404.92 317.693 404.433 317.76 403.887 317.76C403.74 317.76 403.587 317.747 403.427 317.72C403.267 317.707 403.107 317.68 402.947 317.64C402.8 317.613 402.66 317.58 402.527 317.54C402.407 317.5 402.32 317.467 402.267 317.44L402.607 315.94ZM420.242 314C420.095 313.707 419.915 313.38 419.702 313.02C419.489 312.66 419.255 312.293 419.002 311.92C418.749 311.533 418.489 311.153 418.222 310.78C417.955 310.407 417.695 310.053 417.442 309.72C417.189 310.053 416.929 310.413 416.662 310.8C416.395 311.173 416.135 311.553 415.882 311.94C415.642 312.313 415.415 312.68 415.202 313.04C414.989 313.4 414.809 313.72 414.662 314H412.742C413.209 313.093 413.762 312.173 414.402 311.24C415.055 310.293 415.702 309.393 416.342 308.54L412.902 303.6H415.002L417.482 307.24L419.982 303.6H421.962L418.602 308.42C419.242 309.287 419.895 310.207 420.562 311.18C421.242 312.14 421.815 313.08 422.282 314H420.242ZM427.757 312.66C428.197 312.66 428.583 312.653 428.917 312.64C429.263 312.613 429.55 312.573 429.777 312.52V309.42C429.643 309.353 429.423 309.3 429.117 309.26C428.823 309.207 428.463 309.18 428.037 309.18C427.757 309.18 427.457 309.2 427.137 309.24C426.83 309.28 426.543 309.367 426.277 309.5C426.023 309.62 425.81 309.793 425.637 310.02C425.463 310.233 425.377 310.52 425.377 310.88C425.377 311.547 425.59 312.013 426.017 312.28C426.443 312.533 427.023 312.66 427.757 312.66ZM427.597 303.34C428.343 303.34 428.97 303.44 429.477 303.64C429.997 303.827 430.41 304.1 430.717 304.46C431.037 304.807 431.263 305.227 431.397 305.72C431.53 306.2 431.597 306.733 431.597 307.32V313.82C431.437 313.847 431.21 313.887 430.917 313.94C430.637 313.98 430.317 314.02 429.957 314.06C429.597 314.1 429.203 314.133 428.777 314.16C428.363 314.2 427.95 314.22 427.537 314.22C426.95 314.22 426.41 314.16 425.917 314.04C425.423 313.92 424.997 313.733 424.637 313.48C424.277 313.213 423.997 312.867 423.797 312.44C423.597 312.013 423.497 311.5 423.497 310.9C423.497 310.327 423.61 309.833 423.837 309.42C424.077 309.007 424.397 308.673 424.797 308.42C425.197 308.167 425.663 307.98 426.197 307.86C426.73 307.74 427.29 307.68 427.877 307.68C428.063 307.68 428.257 307.693 428.457 307.72C428.657 307.733 428.843 307.76 429.017 307.8C429.203 307.827 429.363 307.853 429.497 307.88C429.63 307.907 429.723 307.927 429.777 307.94V307.42C429.777 307.113 429.743 306.813 429.677 306.52C429.61 306.213 429.49 305.947 429.317 305.72C429.143 305.48 428.903 305.293 428.597 305.16C428.303 305.013 427.917 304.94 427.437 304.94C426.823 304.94 426.283 304.987 425.817 305.08C425.363 305.16 425.023 305.247 424.797 305.34L424.577 303.8C424.817 303.693 425.217 303.593 425.777 303.5C426.337 303.393 426.943 303.34 427.597 303.34Z" fill="url(#paint4_linear_1722_5436)"/>
<g filter="url(#filter2_d_1722_5436)">
<path d="M84.029 390.534H451.869L445.702 399.99H84.029V390.534Z" fill="url(#paint5_linear_1722_5436)"/>
<path d="M84.5018 391.007H450.996L445.446 399.517H84.5018V391.007Z" stroke="url(#paint6_linear_1722_5436)" stroke-width="0.945603"/>
</g>
<g filter="url(#filter3_d_1722_5436)">
<path d="M94.9034 401.881H85.3599L15 470.91L27.2928 468.479L62.7529 432.506L94.9034 401.881Z" fill="url(#paint7_linear_1722_5436)"/>
<path d="M94.9034 401.881H85.3599L15 470.91L27.2928 468.479L62.7529 432.506L94.9034 401.881Z" stroke="url(#paint8_linear_1722_5436)" stroke-width="4.72801"/>
</g>
<g filter="url(#filter4_d_1722_5436)">
<rect x="443.358" y="390.534" width="10.4016" height="73.757" fill="url(#paint9_linear_1722_5436)"/>
</g>
<path d="M470.308 375.405V367.367L454.705 385.806V394.79L464.161 382.497L470.308 375.405Z" fill="url(#paint10_linear_1722_5436)" stroke="url(#paint11_linear_1722_5436)" stroke-width="4.72801"/>
<g filter="url(#filter5_d_1722_5436)">
<path d="M444.777 400.463L391.35 469.492" stroke="url(#paint12_linear_1722_5436)" stroke-width="10.4016"/>
</g>
<rect x="114" y="52" width="105" height="69" rx="15.5156" fill="#1F2431"/>
<rect x="114" y="52" width="105" height="69" rx="15.5156" fill="url(#paint13_linear_1722_5436)"/>
<path d="M142.232 95.824C144.131 95.824 145.485 95.4507 146.296 94.704C147.128 93.9573 147.544 92.9547 147.544 91.696C147.544 90.8853 147.373 90.2027 147.032 89.648C146.691 89.0933 146.243 88.656 145.688 88.336C145.133 87.9947 144.483 87.76 143.736 87.632C143.011 87.4827 142.264 87.408 141.496 87.408H140.728V84.976H141.784C142.317 84.976 142.861 84.9227 143.416 84.816C143.992 84.7093 144.515 84.5173 144.984 84.24C145.453 83.9627 145.837 83.5893 146.136 83.12C146.435 82.6293 146.584 82.0213 146.584 81.296C146.584 80.6987 146.477 80.1867 146.264 79.76C146.051 79.3333 145.763 78.9813 145.4 78.704C145.059 78.4267 144.653 78.2347 144.184 78.128C143.736 78 143.256 77.936 142.744 77.936C141.72 77.936 140.845 78.0853 140.12 78.384C139.416 78.6827 138.819 78.992 138.328 79.312L137.176 77.04C137.432 76.8693 137.752 76.688 138.136 76.496C138.541 76.2827 138.989 76.0907 139.48 75.92C139.971 75.7493 140.493 75.6107 141.048 75.504C141.624 75.376 142.221 75.312 142.84 75.312C144.013 75.312 145.027 75.4613 145.88 75.76C146.733 76.0373 147.437 76.4427 147.992 76.976C148.547 77.488 148.963 78.1067 149.24 78.832C149.517 79.536 149.656 80.304 149.656 81.136C149.656 82.288 149.325 83.28 148.664 84.112C148.003 84.9227 147.203 85.5413 146.264 85.968C146.84 86.1387 147.395 86.384 147.928 86.704C148.461 87.024 148.92 87.4293 149.304 87.92C149.709 88.4107 150.029 88.976 150.264 89.616C150.52 90.256 150.648 90.9707 150.648 91.76C150.648 92.72 150.477 93.616 150.136 94.448C149.816 95.2587 149.304 95.9627 148.6 96.56C147.917 97.1573 147.053 97.6267 146.008 97.968C144.963 98.3093 143.725 98.48 142.296 98.48C141.741 98.48 141.165 98.4373 140.568 98.352C139.992 98.2667 139.448 98.16 138.936 98.032C138.424 97.904 137.976 97.776 137.592 97.648C137.208 97.52 136.931 97.4133 136.76 97.328L137.336 94.736C137.699 94.9067 138.296 95.1307 139.128 95.408C139.981 95.6853 141.016 95.824 142.232 95.824ZM154.663 86.896C154.663 83.184 155.313 80.3253 156.615 78.32C157.937 76.3147 159.761 75.312 162.087 75.312C164.412 75.312 166.225 76.3147 167.527 78.32C168.849 80.3253 169.51 83.184 169.51 86.896C169.51 90.608 168.849 93.4667 167.527 95.472C166.225 97.4773 164.412 98.48 162.087 98.48C159.761 98.48 157.937 97.4773 156.615 95.472C155.313 93.4667 154.663 90.608 154.663 86.896ZM166.375 86.896C166.375 85.68 166.3 84.528 166.151 83.44C166.023 82.352 165.788 81.4027 165.447 80.592C165.127 79.7813 164.689 79.1413 164.135 78.672C163.58 78.1813 162.897 77.936 162.087 77.936C161.276 77.936 160.593 78.1813 160.039 78.672C159.484 79.1413 159.036 79.7813 158.695 80.592C158.375 81.4027 158.14 82.352 157.991 83.44C157.863 84.528 157.799 85.68 157.799 86.896C157.799 88.112 157.863 89.264 157.991 90.352C158.14 91.44 158.375 92.3893 158.695 93.2C159.036 94.0107 159.484 94.6613 160.039 95.152C160.593 95.6213 161.276 95.856 162.087 95.856C162.897 95.856 163.58 95.6213 164.135 95.152C164.689 94.6613 165.127 94.0107 165.447 93.2C165.788 92.3893 166.023 91.44 166.151 90.352C166.3 89.264 166.375 88.112 166.375 86.896ZM176.821 94.352C176.842 94.5227 176.853 94.6933 176.853 94.864C176.853 95.0133 176.853 95.1733 176.853 95.344C176.853 96.688 176.65 98.0107 176.245 99.312C175.861 100.635 175.328 101.893 174.645 103.088L172.341 102.352C172.874 101.264 173.226 100.155 173.397 99.024C173.568 97.9147 173.653 96.8693 173.653 95.888C173.653 95.6107 173.642 95.344 173.621 95.088C173.621 94.832 173.61 94.5867 173.589 94.352H176.821ZM181.976 80.4C183.192 79.9307 184.376 79.3333 185.528 78.608C186.68 77.8613 187.736 76.9333 188.696 75.824H190.808V98H187.832V79.952C187.576 80.1867 187.256 80.432 186.872 80.688C186.509 80.944 186.104 81.1893 185.656 81.424C185.229 81.6587 184.771 81.8827 184.28 82.096C183.811 82.3093 183.352 82.4907 182.904 82.64L181.976 80.4Z" fill="url(#paint14_linear_1722_5436)"/>
<rect x="114" y="52" width="105" height="69" rx="15.5156" stroke="url(#paint15_linear_1722_5436)" stroke-width="1.55156"/>
<rect x="114" y="174" width="105" height="69" rx="15.5156" fill="#1F2431"/>
<rect x="114" y="174" width="105" height="69" rx="15.5156" fill="url(#paint16_linear_1722_5436)"/>
<path d="M153.216 220C153.344 218.293 153.643 216.501 154.112 214.624C154.603 212.725 155.2 210.891 155.904 209.12C156.608 207.328 157.376 205.675 158.208 204.16C159.061 202.624 159.893 201.376 160.704 200.416H149.92V197.824H164.032V200.288C163.328 201.099 162.549 202.219 161.696 203.648C160.843 205.056 160.032 206.645 159.264 208.416C158.517 210.165 157.867 212.043 157.312 214.048C156.779 216.032 156.448 218.016 156.32 220H153.216ZM167.663 208.896C167.663 205.184 168.313 202.325 169.615 200.32C170.937 198.315 172.761 197.312 175.087 197.312C177.412 197.312 179.225 198.315 180.527 200.32C181.849 202.325 182.51 205.184 182.51 208.896C182.51 212.608 181.849 215.467 180.527 217.472C179.225 219.477 177.412 220.48 175.087 220.48C172.761 220.48 170.937 219.477 169.615 217.472C168.313 215.467 167.663 212.608 167.663 208.896ZM179.375 208.896C179.375 207.68 179.3 206.528 179.151 205.44C179.023 204.352 178.788 203.403 178.447 202.592C178.127 201.781 177.689 201.141 177.135 200.672C176.58 200.181 175.897 199.936 175.087 199.936C174.276 199.936 173.593 200.181 173.039 200.672C172.484 201.141 172.036 201.781 171.695 202.592C171.375 203.403 171.14 204.352 170.991 205.44C170.863 206.528 170.799 207.68 170.799 208.896C170.799 210.112 170.863 211.264 170.991 212.352C171.14 213.44 171.375 214.389 171.695 215.2C172.036 216.011 172.484 216.661 173.039 217.152C173.593 217.621 174.276 217.856 175.087 217.856C175.897 217.856 176.58 217.621 177.135 217.152C177.689 216.661 178.127 216.011 178.447 215.2C178.788 214.389 179.023 213.44 179.151 212.352C179.3 211.264 179.375 210.112 179.375 208.896Z" fill="url(#paint17_linear_1722_5436)"/>
<rect x="114" y="174" width="105" height="69" rx="15.5156" stroke="url(#paint18_linear_1722_5436)" stroke-width="1.55156"/>
<path d="M148.385 410.146C151.054 410.146 154.029 409.879 156.345 409.446C157.5 409.23 158.514 408.968 159.249 408.667C159.614 408.518 159.937 408.348 160.178 408.152C160.41 407.962 160.64 407.682 160.64 407.309C160.64 406.944 160.417 406.659 160.192 406.459C159.956 406.25 159.637 406.061 159.272 405.888C158.538 405.541 157.525 405.218 156.368 404.942C154.049 404.388 151.067 404 148.385 404C145.703 404 142.934 404.388 140.827 404.944C139.776 405.222 138.868 405.547 138.212 405.899C137.885 406.074 137.599 406.267 137.388 406.481C137.182 406.691 137 406.97 137 407.309C137 407.654 137.187 407.93 137.402 408.131C137.618 408.333 137.909 408.507 138.236 408.659C138.894 408.964 139.803 409.227 140.852 409.444C142.955 409.879 145.716 410.146 148.385 410.146Z" fill="#1F2431" stroke="url(#paint19_linear_1722_5436)" stroke-width="0.945603"/>
<path d="M136.527 406.852V413.872C136.527 414.568 137.033 415.163 137.722 415.271C146.215 416.606 151.192 416.716 159.929 415.276C160.613 415.163 161.113 414.571 161.113 413.88V406.827C161.113 406.223 160.728 405.68 160.15 405.488C151.439 402.594 145.298 403.166 137.532 405.498C136.933 405.678 136.527 406.23 136.527 406.852Z" stroke="url(#paint20_linear_1722_5436)" stroke-width="0.945603"/>
<path d="M255.385 410.146C258.054 410.146 261.029 409.879 263.345 409.446C264.5 409.23 265.514 408.968 266.249 408.667C266.614 408.518 266.937 408.348 267.178 408.152C267.41 407.962 267.64 407.682 267.64 407.309C267.64 406.944 267.417 406.659 267.192 406.459C266.956 406.25 266.637 406.061 266.272 405.888C265.538 405.541 264.525 405.218 263.368 404.942C261.049 404.388 258.067 404 255.385 404C252.703 404 249.934 404.388 247.827 404.944C246.776 405.222 245.868 405.547 245.212 405.899C244.885 406.074 244.599 406.267 244.388 406.481C244.182 406.691 244 406.97 244 407.309C244 407.654 244.187 407.93 244.402 408.131C244.618 408.333 244.909 408.507 245.236 408.659C245.894 408.964 246.803 409.227 247.852 409.444C249.955 409.879 252.716 410.146 255.385 410.146Z" fill="#1F2431" stroke="url(#paint21_linear_1722_5436)" stroke-width="0.945603"/>
<path d="M243.527 406.852V413.872C243.527 414.568 244.033 415.163 244.722 415.271C253.215 416.606 258.192 416.716 266.929 415.276C267.613 415.163 268.113 414.571 268.113 413.88V406.827C268.113 406.223 267.728 405.68 267.15 405.488C258.439 402.594 252.298 403.166 244.532 405.498C243.933 405.678 243.527 406.23 243.527 406.852Z" stroke="url(#paint22_linear_1722_5436)" stroke-width="0.945603"/>
<path d="M362.385 410.146C365.054 410.146 368.029 409.879 370.345 409.446C371.5 409.23 372.514 408.968 373.249 408.667C373.614 408.518 373.937 408.348 374.178 408.152C374.41 407.962 374.64 407.682 374.64 407.309C374.64 406.944 374.417 406.659 374.192 406.459C373.956 406.25 373.637 406.061 373.272 405.888C372.538 405.541 371.525 405.218 370.368 404.942C368.049 404.388 365.067 404 362.385 404C359.703 404 356.934 404.388 354.827 404.944C353.776 405.222 352.868 405.547 352.212 405.899C351.885 406.074 351.599 406.267 351.388 406.481C351.182 406.691 351 406.97 351 407.309C351 407.654 351.187 407.93 351.402 408.131C351.618 408.333 351.909 408.507 352.236 408.659C352.894 408.964 353.803 409.227 354.852 409.444C356.955 409.879 359.716 410.146 362.385 410.146Z" fill="#1F2431" stroke="url(#paint23_linear_1722_5436)" stroke-width="0.945603"/>
<path d="M350.527 406.852V413.872C350.527 414.568 351.033 415.163 351.722 415.271C360.215 416.606 365.192 416.716 373.929 415.276C374.613 415.163 375.113 414.571 375.113 413.88V406.827C375.113 406.223 374.728 405.68 374.15 405.488C365.439 402.594 359.298 403.166 351.532 405.498C350.933 405.678 350.527 406.23 350.527 406.852Z" stroke="url(#paint24_linear_1722_5436)" stroke-width="0.945603"/>
<rect x="114" y="295" width="105" height="69" rx="15.5156" fill="#1F2431"/>
<rect x="114" y="295" width="105" height="69" rx="15.5156" fill="url(#paint25_linear_1722_5436)"/>
<path d="M162.944 324.488C162.944 325.256 162.784 326.003 162.464 326.728C162.165 327.432 161.76 328.136 161.248 328.84C160.736 329.523 160.16 330.205 159.52 330.888C158.88 331.549 158.24 332.2 157.6 332.84C157.237 333.203 156.811 333.629 156.32 334.12C155.851 334.611 155.403 335.123 154.976 335.656C154.549 336.189 154.187 336.701 153.888 337.192C153.611 337.683 153.472 338.109 153.472 338.472H163.68V341H150.24C150.219 340.872 150.208 340.744 150.208 340.616C150.208 340.488 150.208 340.371 150.208 340.264C150.208 339.261 150.368 338.333 150.688 337.48C151.029 336.605 151.467 335.784 152 335.016C152.533 334.248 153.131 333.523 153.792 332.84C154.453 332.157 155.104 331.496 155.744 330.856C156.277 330.344 156.779 329.843 157.248 329.352C157.739 328.84 158.165 328.339 158.528 327.848C158.912 327.336 159.211 326.813 159.424 326.28C159.659 325.747 159.776 325.181 159.776 324.584C159.776 323.944 159.669 323.4 159.456 322.952C159.264 322.504 158.997 322.131 158.656 321.832C158.315 321.533 157.909 321.32 157.44 321.192C156.992 321.043 156.512 320.968 156 320.968C155.381 320.968 154.816 321.053 154.304 321.224C153.792 321.395 153.333 321.597 152.928 321.832C152.523 322.045 152.181 322.28 151.904 322.536C151.627 322.771 151.413 322.952 151.264 323.08L149.792 320.968C149.984 320.755 150.272 320.499 150.656 320.2C151.04 319.88 151.499 319.581 152.032 319.304C152.565 319.027 153.163 318.792 153.824 318.6C154.485 318.408 155.2 318.312 155.968 318.312C158.293 318.312 160.032 318.856 161.184 319.944C162.357 321.011 162.944 322.525 162.944 324.488ZM172.431 327.368C175.652 327.496 178.009 328.2 179.503 329.48C181.017 330.76 181.775 332.499 181.775 334.696C181.775 335.677 181.604 336.584 181.263 337.416C180.943 338.248 180.441 338.963 179.759 339.56C179.097 340.157 178.255 340.627 177.231 340.968C176.207 341.309 174.991 341.48 173.583 341.48C173.028 341.48 172.463 341.437 171.887 341.352C171.311 341.267 170.777 341.16 170.286 341.032C169.796 340.904 169.359 340.776 168.975 340.648C168.591 340.52 168.313 340.413 168.143 340.328L168.719 337.736C169.081 337.907 169.668 338.131 170.479 338.408C171.311 338.685 172.324 338.824 173.519 338.824C174.479 338.824 175.279 338.717 175.919 338.504C176.58 338.291 177.113 338.003 177.519 337.64C177.924 337.277 178.212 336.861 178.383 336.392C178.575 335.901 178.671 335.389 178.671 334.856C178.671 334.045 178.532 333.331 178.255 332.712C177.977 332.072 177.487 331.539 176.783 331.112C176.079 330.685 175.14 330.365 173.967 330.152C172.793 329.917 171.311 329.8 169.519 329.8C169.647 328.755 169.743 327.773 169.807 326.856C169.892 325.939 169.967 325.043 170.031 324.168C170.095 323.293 170.148 322.429 170.191 321.576C170.233 320.701 170.276 319.784 170.319 318.824H181.007V321.352H172.911C172.889 321.672 172.857 322.109 172.815 322.664C172.772 323.197 172.729 323.763 172.687 324.36C172.644 324.936 172.601 325.501 172.559 326.056C172.516 326.611 172.473 327.048 172.431 327.368Z" fill="url(#paint26_linear_1722_5436)"/>
<rect x="114" y="295" width="105" height="69" rx="15.5156" stroke="url(#paint27_linear_1722_5436)" stroke-width="1.55156"/>
<path d="M248.908 230.102C248.675 230.625 248.432 231.082 248.18 231.474C247.937 231.857 247.667 232.174 247.368 232.426C247.079 232.678 246.752 232.865 246.388 232.986C246.033 233.107 245.632 233.168 245.184 233.168C244.913 233.168 244.629 233.14 244.33 233.084C244.041 233.028 243.803 232.958 243.616 232.874L243.938 231.418C244.115 231.493 244.302 231.553 244.498 231.6C244.694 231.637 244.895 231.656 245.1 231.656C245.529 231.656 245.884 231.558 246.164 231.362C246.453 231.166 246.719 230.844 246.962 230.396C246.57 229.761 246.192 229.122 245.828 228.478C245.473 227.834 245.142 227.209 244.834 226.602C244.526 225.986 244.241 225.398 243.98 224.838C243.728 224.278 243.499 223.765 243.294 223.298H245.268C245.417 223.681 245.585 224.091 245.772 224.53C245.968 224.969 246.173 225.421 246.388 225.888C246.612 226.355 246.845 226.831 247.088 227.316C247.331 227.801 247.573 228.287 247.816 228.772C248.152 227.941 248.474 227.055 248.782 226.112C249.09 225.169 249.379 224.231 249.65 223.298H251.554C251.33 223.989 251.106 224.642 250.882 225.258C250.658 225.865 250.434 226.448 250.21 227.008C249.995 227.559 249.776 228.091 249.552 228.604C249.337 229.108 249.123 229.607 248.908 230.102ZM255.398 233.14C255.128 233.14 254.852 233.131 254.572 233.112C254.292 233.093 254.022 233.07 253.76 233.042C253.508 233.014 253.27 232.986 253.046 232.958C252.822 232.921 252.636 232.883 252.486 232.846V225.776C252.636 225.739 252.822 225.706 253.046 225.678C253.27 225.641 253.508 225.613 253.76 225.594C254.022 225.566 254.292 225.547 254.572 225.538C254.852 225.519 255.128 225.51 255.398 225.51C256.388 225.51 257.158 225.692 257.708 226.056C258.259 226.411 258.534 226.91 258.534 227.554C258.534 227.89 258.45 228.189 258.282 228.45C258.114 228.711 257.895 228.907 257.624 229.038C257.96 229.169 258.25 229.374 258.492 229.654C258.735 229.934 258.856 230.331 258.856 230.844C258.856 231.581 258.567 232.151 257.988 232.552C257.41 232.944 256.546 233.14 255.398 233.14ZM255.44 228.618C255.86 228.618 256.206 228.557 256.476 228.436C256.756 228.315 256.896 228.072 256.896 227.708C256.896 227.531 256.85 227.386 256.756 227.274C256.672 227.162 256.556 227.073 256.406 227.008C256.257 226.943 256.084 226.901 255.888 226.882C255.692 226.854 255.487 226.84 255.272 226.84C255.104 226.84 254.908 226.845 254.684 226.854C254.47 226.863 254.297 226.877 254.166 226.896V228.618H255.44ZM254.166 231.74C254.278 231.759 254.46 231.777 254.712 231.796C254.974 231.805 255.216 231.81 255.44 231.81C255.944 231.81 256.36 231.74 256.686 231.6C257.022 231.46 257.19 231.194 257.19 230.802C257.19 230.419 257.036 230.158 256.728 230.018C256.43 229.869 256.038 229.794 255.552 229.794H254.166V231.74ZM263.327 227.078C263.318 227.489 263.304 227.918 263.285 228.366C263.266 228.805 263.22 229.239 263.145 229.668C263.08 230.097 262.972 230.508 262.823 230.9C262.674 231.292 262.464 231.647 262.193 231.964C261.932 232.272 261.6 232.533 261.199 232.748C260.807 232.953 260.326 233.084 259.757 233.14L259.519 231.726C259.995 231.633 260.364 231.483 260.625 231.278C260.886 231.063 261.087 230.793 261.227 230.466C261.339 230.223 261.423 229.948 261.479 229.64C261.544 229.332 261.591 229.01 261.619 228.674C261.656 228.329 261.68 227.979 261.689 227.624C261.698 227.269 261.703 226.924 261.703 226.588V225.678H266.883V233H265.189V227.078H263.327ZM271.619 231.81C272.142 231.81 272.538 231.782 272.809 231.726V229.85C272.716 229.822 272.58 229.794 272.403 229.766C272.226 229.738 272.03 229.724 271.815 229.724C271.628 229.724 271.437 229.738 271.241 229.766C271.054 229.794 270.882 229.845 270.723 229.92C270.574 229.995 270.452 230.102 270.359 230.242C270.266 230.373 270.219 230.541 270.219 230.746C270.219 231.147 270.345 231.427 270.597 231.586C270.849 231.735 271.19 231.81 271.619 231.81ZM271.479 225.496C272.039 225.496 272.51 225.566 272.893 225.706C273.276 225.846 273.579 226.042 273.803 226.294C274.036 226.546 274.2 226.854 274.293 227.218C274.396 227.573 274.447 227.965 274.447 228.394V232.832C274.186 232.888 273.789 232.953 273.257 233.028C272.734 233.112 272.142 233.154 271.479 233.154C271.04 233.154 270.639 233.112 270.275 233.028C269.911 232.944 269.598 232.809 269.337 232.622C269.085 232.435 268.884 232.193 268.735 231.894C268.595 231.595 268.525 231.227 268.525 230.788C268.525 230.368 268.604 230.013 268.763 229.724C268.931 229.435 269.155 229.201 269.435 229.024C269.715 228.837 270.037 228.707 270.401 228.632C270.774 228.548 271.162 228.506 271.563 228.506C271.75 228.506 271.946 228.52 272.151 228.548C272.356 228.567 272.576 228.604 272.809 228.66V228.38C272.809 228.184 272.786 227.997 272.739 227.82C272.692 227.643 272.608 227.489 272.487 227.358C272.375 227.218 272.221 227.111 272.025 227.036C271.838 226.961 271.6 226.924 271.311 226.924C270.919 226.924 270.56 226.952 270.233 227.008C269.906 227.064 269.64 227.129 269.435 227.204L269.225 225.832C269.44 225.757 269.752 225.683 270.163 225.608C270.574 225.533 271.012 225.496 271.479 225.496ZM275.583 233C276.013 232.281 276.503 231.591 277.053 230.928C277.604 230.256 278.159 229.635 278.719 229.066C278.187 228.497 277.669 227.918 277.165 227.33C276.661 226.733 276.218 226.182 275.835 225.678H277.781C278.071 226.07 278.407 226.504 278.789 226.98C279.181 227.456 279.662 228.039 280.231 228.73V225.678H281.869V228.73C282.457 228.049 282.943 227.465 283.325 226.98C283.708 226.495 284.044 226.061 284.333 225.678H286.251C285.897 226.182 285.467 226.728 284.963 227.316C284.469 227.904 283.946 228.483 283.395 229.052C284.011 229.668 284.576 230.298 285.089 230.942C285.612 231.586 286.093 232.272 286.531 233H284.641C284.455 232.72 284.249 232.426 284.025 232.118C283.811 231.81 283.582 231.507 283.339 231.208C283.106 230.9 282.863 230.606 282.611 230.326C282.359 230.046 282.112 229.785 281.869 229.542V233H280.231V229.542C279.989 229.794 279.741 230.065 279.489 230.354C279.237 230.643 278.99 230.942 278.747 231.25C278.514 231.549 278.285 231.847 278.061 232.146C277.847 232.445 277.651 232.729 277.473 233H275.583ZM293.878 233H292.184V229.934H289.426V233H287.732V225.678H289.426V228.534H292.184V225.678H293.878V233ZM302.443 225.678V233H300.763C300.763 232.468 300.763 231.941 300.763 231.418C300.772 230.895 300.777 230.41 300.777 229.962C300.786 229.514 300.791 229.127 300.791 228.8C300.8 228.464 300.805 228.217 300.805 228.058C300.525 228.422 300.236 228.823 299.937 229.262C299.638 229.701 299.34 230.139 299.041 230.578C298.752 231.017 298.476 231.446 298.215 231.866C297.954 232.286 297.725 232.664 297.529 233H296.031V225.678H297.697C297.697 226.219 297.692 226.737 297.683 227.232C297.683 227.717 297.683 228.161 297.683 228.562C297.683 228.963 297.678 229.313 297.669 229.612C297.669 229.911 297.669 230.139 297.669 230.298C297.93 229.897 298.201 229.486 298.481 229.066C298.761 228.637 299.041 228.221 299.321 227.82C299.61 227.409 299.895 227.022 300.175 226.658C300.455 226.294 300.726 225.967 300.987 225.678H302.443ZM310.119 227.092H307.753V233H306.059V227.092H303.707V225.678H310.119V227.092ZM313.079 228.38C313.219 228.343 313.424 228.31 313.695 228.282C313.965 228.254 314.236 228.24 314.507 228.24C314.927 228.24 315.319 228.287 315.683 228.38C316.056 228.473 316.378 228.623 316.649 228.828C316.919 229.024 317.134 229.281 317.293 229.598C317.451 229.906 317.531 230.275 317.531 230.704C317.531 231.143 317.456 231.516 317.307 231.824C317.157 232.132 316.943 232.384 316.663 232.58C316.383 232.776 316.047 232.921 315.655 233.014C315.272 233.107 314.843 233.154 314.367 233.154C313.816 233.154 313.303 233.126 312.827 233.07C312.351 233.014 311.87 232.93 311.385 232.818V225.678H313.079V228.38ZM314.325 231.824C314.801 231.824 315.169 231.735 315.431 231.558C315.701 231.371 315.837 231.077 315.837 230.676C315.837 230.471 315.79 230.298 315.697 230.158C315.613 230.018 315.496 229.906 315.347 229.822C315.207 229.729 315.039 229.663 314.843 229.626C314.647 229.589 314.441 229.57 314.227 229.57C314.031 229.57 313.825 229.579 313.611 229.598C313.396 229.607 313.219 229.631 313.079 229.668V231.754C313.2 231.773 313.377 231.791 313.611 231.81C313.853 231.819 314.091 231.824 314.325 231.824Z" fill="url(#paint28_linear_1722_5436)"/>
<rect x="236" y="209" width="89" height="37" rx="9" stroke="url(#paint29_linear_1722_5436)" stroke-width="2"/>
<path d="M357.104 228.142C357.104 228.674 357.169 229.159 357.3 229.598C357.431 230.027 357.617 230.396 357.86 230.704C358.112 231.003 358.415 231.236 358.77 231.404C359.125 231.572 359.526 231.656 359.974 231.656C360.413 231.656 360.809 231.572 361.164 231.404C361.519 231.236 361.817 231.003 362.06 230.704C362.312 230.396 362.503 230.027 362.634 229.598C362.765 229.159 362.83 228.674 362.83 228.142C362.83 227.61 362.765 227.129 362.634 226.7C362.503 226.261 362.312 225.893 362.06 225.594C361.817 225.286 361.519 225.048 361.164 224.88C360.809 224.712 360.413 224.628 359.974 224.628C359.526 224.628 359.125 224.712 358.77 224.88C358.415 225.048 358.112 225.286 357.86 225.594C357.617 225.902 357.431 226.271 357.3 226.7C357.169 227.129 357.104 227.61 357.104 228.142ZM364.678 228.142C364.678 228.973 364.552 229.705 364.3 230.34C364.057 230.975 363.721 231.507 363.292 231.936C362.872 232.356 362.377 232.673 361.808 232.888C361.239 233.103 360.632 233.21 359.988 233.21C359.344 233.21 358.733 233.103 358.154 232.888C357.585 232.673 357.085 232.356 356.656 231.936C356.236 231.507 355.9 230.975 355.648 230.34C355.396 229.705 355.27 228.973 355.27 228.142C355.27 227.311 355.396 226.583 355.648 225.958C355.9 225.323 356.241 224.791 356.67 224.362C357.109 223.933 357.613 223.611 358.182 223.396C358.751 223.181 359.353 223.074 359.988 223.074C360.623 223.074 361.225 223.181 361.794 223.396C362.363 223.611 362.858 223.933 363.278 224.362C363.707 224.791 364.048 225.323 364.3 225.958C364.552 226.583 364.678 227.311 364.678 228.142ZM366.123 229.346C366.123 228.805 366.207 228.301 366.375 227.834C366.543 227.358 366.781 226.947 367.089 226.602C367.407 226.257 367.789 225.986 368.237 225.79C368.685 225.594 369.189 225.496 369.749 225.496C370.44 225.496 371.093 225.622 371.709 225.874L371.345 227.26C371.149 227.176 370.925 227.106 370.673 227.05C370.431 226.994 370.169 226.966 369.889 226.966C369.227 226.966 368.723 227.176 368.377 227.596C368.032 228.007 367.859 228.59 367.859 229.346C367.859 230.074 368.023 230.653 368.349 231.082C368.676 231.502 369.227 231.712 370.001 231.712C370.291 231.712 370.575 231.684 370.855 231.628C371.135 231.572 371.378 231.502 371.583 231.418L371.821 232.818C371.635 232.911 371.35 232.995 370.967 233.07C370.594 233.145 370.207 233.182 369.805 233.182C369.18 233.182 368.634 233.089 368.167 232.902C367.71 232.706 367.327 232.44 367.019 232.104C366.721 231.759 366.497 231.353 366.347 230.886C366.198 230.41 366.123 229.897 366.123 229.346ZM379.234 225.678C378.478 228.459 377.6 230.979 376.602 233.238C376.415 233.658 376.224 234.017 376.028 234.316C375.832 234.615 375.612 234.862 375.37 235.058C375.127 235.254 374.856 235.394 374.558 235.478C374.259 235.571 373.914 235.618 373.522 235.618C373.26 235.618 372.999 235.59 372.738 235.534C372.486 235.478 372.294 235.417 372.164 235.352L372.472 233.994C372.808 234.125 373.139 234.19 373.466 234.19C373.904 234.19 374.245 234.083 374.488 233.868C374.74 233.663 374.959 233.341 375.146 232.902C374.614 231.875 374.1 230.755 373.606 229.542C373.12 228.329 372.686 227.041 372.304 225.678H374.11C374.203 226.07 374.315 226.495 374.446 226.952C374.586 227.409 374.735 227.876 374.894 228.352C375.052 228.819 375.22 229.285 375.398 229.752C375.575 230.219 375.752 230.653 375.93 231.054C376.228 230.223 376.508 229.341 376.77 228.408C377.031 227.465 377.269 226.555 377.484 225.678H379.234ZM380.515 225.678H382.209V231.614H384.505V225.678H386.199V231.614H388.495V225.678H390.189V233H380.515V225.678ZM398.754 225.678V233H397.074C397.074 232.468 397.074 231.941 397.074 231.418C397.083 230.895 397.088 230.41 397.088 229.962C397.097 229.514 397.102 229.127 397.102 228.8C397.111 228.464 397.116 228.217 397.116 228.058C396.836 228.422 396.546 228.823 396.248 229.262C395.949 229.701 395.65 230.139 395.352 230.578C395.062 231.017 394.787 231.446 394.526 231.866C394.264 232.286 394.036 232.664 393.84 233H392.342V225.678H394.008C394.008 226.219 394.003 226.737 393.994 227.232C393.994 227.717 393.994 228.161 393.994 228.562C393.994 228.963 393.989 229.313 393.98 229.612C393.98 229.911 393.98 230.139 393.98 230.298C394.241 229.897 394.512 229.486 394.792 229.066C395.072 228.637 395.352 228.221 395.632 227.82C395.921 227.409 396.206 227.022 396.486 226.658C396.766 226.294 397.036 225.967 397.298 225.678H398.754ZM406.43 227.092H404.064V233H402.37V227.092H400.018V225.678H406.43V227.092ZM409.389 228.38C409.529 228.343 409.735 228.31 410.005 228.282C410.276 228.254 410.547 228.24 410.817 228.24C411.237 228.24 411.629 228.287 411.993 228.38C412.367 228.473 412.689 228.623 412.959 228.828C413.23 229.024 413.445 229.281 413.603 229.598C413.762 229.906 413.841 230.275 413.841 230.704C413.841 231.143 413.767 231.516 413.617 231.824C413.468 232.132 413.253 232.384 412.973 232.58C412.693 232.776 412.357 232.921 411.965 233.014C411.583 233.107 411.153 233.154 410.677 233.154C410.127 233.154 409.613 233.126 409.137 233.07C408.661 233.014 408.181 232.93 407.695 232.818V225.678H409.389V228.38ZM410.635 231.824C411.111 231.824 411.48 231.735 411.741 231.558C412.012 231.371 412.147 231.077 412.147 230.676C412.147 230.471 412.101 230.298 412.007 230.158C411.923 230.018 411.807 229.906 411.657 229.822C411.517 229.729 411.349 229.663 411.153 229.626C410.957 229.589 410.752 229.57 410.537 229.57C410.341 229.57 410.136 229.579 409.921 229.598C409.707 229.607 409.529 229.631 409.389 229.668V231.754C409.511 231.773 409.688 231.791 409.921 231.81C410.164 231.819 410.402 231.824 410.635 231.824Z" fill="url(#paint30_linear_1722_5436)"/>
<rect x="340" y="209" width="89" height="37" rx="9" stroke="url(#paint31_linear_1722_5436)" stroke-width="2"/>
<path d="M320.859 101.292V110.994H319.095V102.804H314.951V110.994H313.187V101.292H320.859ZM329.719 107.326C329.719 107.905 329.635 108.432 329.467 108.908C329.299 109.384 329.061 109.79 328.753 110.126C328.445 110.462 328.072 110.723 327.633 110.91C327.204 111.097 326.728 111.19 326.205 111.19C325.682 111.19 325.206 111.097 324.777 110.91C324.348 110.723 323.979 110.462 323.671 110.126C323.363 109.79 323.12 109.384 322.943 108.908C322.775 108.432 322.691 107.905 322.691 107.326C322.691 106.747 322.775 106.225 322.943 105.758C323.12 105.282 323.363 104.876 323.671 104.54C323.988 104.204 324.362 103.947 324.791 103.77C325.22 103.583 325.692 103.49 326.205 103.49C326.718 103.49 327.19 103.583 327.619 103.77C328.058 103.947 328.431 104.204 328.739 104.54C329.047 104.876 329.285 105.282 329.453 105.758C329.63 106.225 329.719 106.747 329.719 107.326ZM327.983 107.326C327.983 106.598 327.824 106.024 327.507 105.604C327.199 105.175 326.765 104.96 326.205 104.96C325.645 104.96 325.206 105.175 324.889 105.604C324.581 106.024 324.427 106.598 324.427 107.326C324.427 108.063 324.581 108.647 324.889 109.076C325.206 109.505 325.645 109.72 326.205 109.72C326.765 109.72 327.199 109.505 327.507 109.076C327.824 108.647 327.983 108.063 327.983 107.326ZM334.334 105.072C334.325 105.483 334.311 105.912 334.292 106.36C334.274 106.799 334.227 107.233 334.152 107.662C334.087 108.091 333.98 108.502 333.83 108.894C333.681 109.286 333.471 109.641 333.2 109.958C332.939 110.266 332.608 110.527 332.206 110.742C331.814 110.947 331.334 111.078 330.764 111.134L330.526 109.72C331.002 109.627 331.371 109.477 331.632 109.272C331.894 109.057 332.094 108.787 332.234 108.46C332.346 108.217 332.43 107.942 332.486 107.634C332.552 107.326 332.598 107.004 332.626 106.668C332.664 106.323 332.687 105.973 332.696 105.618C332.706 105.263 332.71 104.918 332.71 104.582V103.672H337.89V110.994H336.196V105.072H334.334ZM346.462 103.672V110.994H344.782C344.782 110.462 344.782 109.935 344.782 109.412C344.792 108.889 344.796 108.404 344.796 107.956C344.806 107.508 344.81 107.121 344.81 106.794C344.82 106.458 344.824 106.211 344.824 106.052C344.544 106.416 344.255 106.817 343.956 107.256C343.658 107.695 343.359 108.133 343.06 108.572C342.771 109.011 342.496 109.44 342.234 109.86C341.973 110.28 341.744 110.658 341.548 110.994H340.05V103.672H341.716C341.716 104.213 341.712 104.731 341.702 105.226C341.702 105.711 341.702 106.155 341.702 106.556C341.702 106.957 341.698 107.307 341.688 107.606C341.688 107.905 341.688 108.133 341.688 108.292C341.95 107.891 342.22 107.48 342.5 107.06C342.78 106.631 343.06 106.215 343.34 105.814C343.63 105.403 343.914 105.016 344.194 104.652C344.474 104.288 344.745 103.961 345.006 103.672H346.462ZM354.138 105.086H351.772V110.994H350.078V105.086H347.726V103.672H354.138V105.086ZM357.098 106.374C357.238 106.337 357.443 106.304 357.714 106.276C357.984 106.248 358.255 106.234 358.526 106.234C358.946 106.234 359.338 106.281 359.702 106.374C360.075 106.467 360.397 106.617 360.668 106.822C360.938 107.018 361.153 107.275 361.312 107.592C361.47 107.9 361.55 108.269 361.55 108.698C361.55 109.137 361.475 109.51 361.326 109.818C361.176 110.126 360.962 110.378 360.682 110.574C360.402 110.77 360.066 110.915 359.674 111.008C359.291 111.101 358.862 111.148 358.386 111.148C357.835 111.148 357.322 111.12 356.846 111.064C356.37 111.008 355.889 110.924 355.404 110.812V103.672H357.098V106.374ZM358.344 109.818C358.82 109.818 359.188 109.729 359.45 109.552C359.72 109.365 359.856 109.071 359.856 108.67C359.856 108.465 359.809 108.292 359.716 108.152C359.632 108.012 359.515 107.9 359.366 107.816C359.226 107.723 359.058 107.657 358.862 107.62C358.666 107.583 358.46 107.564 358.246 107.564C358.05 107.564 357.844 107.573 357.63 107.592C357.415 107.601 357.238 107.625 357.098 107.662V109.748C357.219 109.767 357.396 109.785 357.63 109.804C357.872 109.813 358.11 109.818 358.344 109.818Z" fill="url(#paint32_linear_1722_5436)"/>
<rect x="293" y="87" width="88.0499" height="36.9873" rx="9" stroke="url(#paint33_linear_1722_5436)" stroke-width="2"/>
<circle cx="258.238" cy="351.238" r="12.7656" fill="url(#paint34_radial_1722_5436)" stroke="url(#paint35_linear_1722_5436)" stroke-width="0.945603"/>
<circle cx="332.238" cy="351.238" r="12.7656" fill="url(#paint36_radial_1722_5436)" stroke="url(#paint37_linear_1722_5436)" stroke-width="0.945603"/>
<circle cx="408.238" cy="351.238" r="12.7656" fill="url(#paint38_radial_1722_5436)" stroke="url(#paint39_linear_1722_5436)" stroke-width="0.945603"/>
<defs>
<filter id="filter0_d_1722_5436" x="78.8282" y="10.4013" width="391.007" height="408.501" filterUnits="userSpaceOnUse" color-interpolation-filters="sRGB">
<feFlood flood-opacity="0" result="BackgroundImageFix"/>
<feColorMatrix in="SourceAlpha" type="matrix" values="0 0 0 0 0 0 0 0 0 0 0 0 0 0 0 0 0 0 127 0" result="hardAlpha"/>
<feOffset dx="5.67362" dy="3.78241"/>
<feGaussianBlur stdDeviation="5.20082"/>
<feComposite in2="hardAlpha" operator="out"/>
<feColorMatrix type="matrix" values="0 0 0 0 0 0 0 0 0 0 0 0 0 0 0 0 0 0 0.25 0"/>
<feBlend mode="normal" in2="BackgroundImageFix" result="effect1_dropShadow_1722_5436"/>
<feBlend mode="normal" in="SourceGraphic" in2="effect1_dropShadow_1722_5436" result="shape"/>
</filter>
<filter id="filter1_ii_1722_5436" x="96" y="26.1632" width="347.982" height="367.84" filterUnits="userSpaceOnUse" color-interpolation-filters="sRGB">
<feFlood flood-opacity="0" result="BackgroundImageFix"/>
<feBlend mode="normal" in="SourceGraphic" in2="BackgroundImageFix" result="shape"/>
<feColorMatrix in="SourceAlpha" type="matrix" values="0 0 0 0 0 0 0 0 0 0 0 0 0 0 0 0 0 0 127 0" result="hardAlpha"/>
<feOffset dy="3.78241"/>
<feGaussianBlur stdDeviation="1.89121"/>
<feComposite in2="hardAlpha" operator="arithmetic" k2="-1" k3="1"/>
<feColorMatrix type="matrix" values="0 0 0 0 0 0 0 0 0 0 0 0 0 0 0 0 0 0 0.25 0"/>
<feBlend mode="normal" in2="shape" result="effect1_innerShadow_1722_5436"/>
<feColorMatrix in="SourceAlpha" type="matrix" values="0 0 0 0 0 0 0 0 0 0 0 0 0 0 0 0 0 0 127 0" result="hardAlpha"/>
<feOffset dy="-2.83681"/>
<feGaussianBlur stdDeviation="3.78241"/>
<feComposite in2="hardAlpha" operator="arithmetic" k2="-1" k3="1"/>
<feColorMatrix type="matrix" values="0 0 0 0 0 0 0 0 0 0 0 0 0 0 0 0 0 0 0.25 0"/>
<feBlend mode="normal" in2="effect1_innerShadow_1722_5436" result="effect2_innerShadow_1722_5436"/>
</filter>
<filter id="filter2_d_1722_5436" x="79.301" y="387.697" width="382.969" height="24.5857" filterUnits="userSpaceOnUse" color-interpolation-filters="sRGB">
<feFlood flood-opacity="0" result="BackgroundImageFix"/>
<feColorMatrix in="SourceAlpha" type="matrix" values="0 0 0 0 0 0 0 0 0 0 0 0 0 0 0 0 0 0 127 0" result="hardAlpha"/>
<feOffset dx="2.83681" dy="4.72801"/>
<feGaussianBlur stdDeviation="3.78241"/>
<feComposite in2="hardAlpha" operator="out"/>
<feColorMatrix type="matrix" values="0 0 0 0 0 0 0 0 0 0 0 0 0 0 0 0 0 0 0.25 0"/>
<feBlend mode="normal" in2="BackgroundImageFix" result="effect1_dropShadow_1722_5436"/>
<feBlend mode="normal" in="SourceGraphic" in2="effect1_dropShadow_1722_5436" result="shape"/>
</filter>
<filter id="filter3_d_1722_5436" x="0.131374" y="397.625" width="108.246" height="90.3767" filterUnits="userSpaceOnUse" color-interpolation-filters="sRGB">
<feFlood flood-opacity="0" result="BackgroundImageFix"/>
<feColorMatrix in="SourceAlpha" type="matrix" values="0 0 0 0 0 0 0 0 0 0 0 0 0 0 0 0 0 0 127 0" result="hardAlpha"/>
<feOffset dy="5.67362"/>
<feGaussianBlur stdDeviation="3.78241"/>
<feComposite in2="hardAlpha" operator="out"/>
<feColorMatrix type="matrix" values="0 0 0 0 0 0 0 0 0 0 0 0 0 0 0 0 0 0 0.25 0"/>
<feBlend mode="normal" in2="BackgroundImageFix" result="effect1_dropShadow_1722_5436"/>
<feBlend mode="normal" in="SourceGraphic" in2="effect1_dropShadow_1722_5436" result="shape"/>
</filter>
<filter id="filter4_d_1722_5436" x="432.956" y="390.534" width="31.2049" height="98.3425" filterUnits="userSpaceOnUse" color-interpolation-filters="sRGB">
<feFlood flood-opacity="0" result="BackgroundImageFix"/>
<feColorMatrix in="SourceAlpha" type="matrix" values="0 0 0 0 0 0 0 0 0 0 0 0 0 0 0 0 0 0 127 0" result="hardAlpha"/>
<feOffset dy="14.184"/>
<feGaussianBlur stdDeviation="5.20082"/>
<feComposite in2="hardAlpha" operator="out"/>
<feColorMatrix type="matrix" values="0 0 0 0 0 0 0 0 0 0 0 0 0 0 0 0 0 0 0.25 0"/>
<feBlend mode="normal" in2="BackgroundImageFix" result="effect1_dropShadow_1722_5436"/>
<feBlend mode="normal" in="SourceGraphic" in2="effect1_dropShadow_1722_5436" result="shape"/>
</filter>
<filter id="filter5_d_1722_5436" x="369.271" y="394.442" width="79.6187" height="90.5252" filterUnits="userSpaceOnUse" color-interpolation-filters="sRGB">
<feFlood flood-opacity="0" result="BackgroundImageFix"/>
<feColorMatrix in="SourceAlpha" type="matrix" values="0 0 0 0 0 0 0 0 0 0 0 0 0 0 0 0 0 0 127 0" result="hardAlpha"/>
<feOffset dx="-10.4016" dy="4.72801"/>
<feGaussianBlur stdDeviation="3.78241"/>
<feComposite in2="hardAlpha" operator="out"/>
<feColorMatrix type="matrix" values="0 0 0 0 0 0 0 0 0 0 0 0 0 0 0 0 0 0 0.25 0"/>
<feBlend mode="normal" in2="BackgroundImageFix" result="effect1_dropShadow_1722_5436"/>
<feBlend mode="normal" in="SourceGraphic" in2="effect1_dropShadow_1722_5436" result="shape"/>
</filter>
<linearGradient id="paint0_linear_1722_5436" x1="121.372" y1="2.00897e-05" x2="483.119" y2="24.6124" gradientUnits="userSpaceOnUse">
<stop offset="1" stop-color="#B9F598"/>
</linearGradient>
<linearGradient id="paint1_linear_1722_5436" x1="117.492" y1="17.0205" x2="463.191" y2="44.4219" gradientUnits="userSpaceOnUse">
<stop offset="1" stop-color="#B9F598"/>
</linearGradient>
<linearGradient id="paint2_linear_1722_5436" x1="267.492" y1="49" x2="383.237" y2="119.597" gradientUnits="userSpaceOnUse">
<stop offset="1" stop-color="#B9F598"/>
</linearGradient>
<linearGradient id="paint3_linear_1722_5436" x1="260.867" y1="171" x2="380.854" y2="250.68" gradientUnits="userSpaceOnUse">
<stop offset="1" stop-color="#B9F598"/>
</linearGradient>
<linearGradient id="paint4_linear_1722_5436" x1="248.7" y1="295" x2="373.009" y2="386.523" gradientUnits="userSpaceOnUse">
<stop offset="1" stop-color="#B9F598"/>
</linearGradient>
<linearGradient id="paint5_linear_1722_5436" x1="117.748" y1="390.534" x2="147.997" y2="488.21" gradientUnits="userSpaceOnUse">
<stop offset="1" stop-color="#B9F598"/>
</linearGradient>
<linearGradient id="paint6_linear_1722_5436" x1="117.748" y1="390.534" x2="147.997" y2="488.21" gradientUnits="userSpaceOnUse">
<stop offset="1" stop-color="#B9F598"/>
</linearGradient>
<linearGradient id="paint7_linear_1722_5436" x1="22.3245" y1="401.881" x2="96.7209" y2="409.029" gradientUnits="userSpaceOnUse">
<stop offset="1" stop-color="#B9F598"/>
</linearGradient>
<linearGradient id="paint8_linear_1722_5436" x1="22.3245" y1="401.881" x2="96.7209" y2="409.029" gradientUnits="userSpaceOnUse">
<stop offset="1" stop-color="#B9F598"/>
</linearGradient>
<linearGradient id="paint9_linear_1722_5436" x1="444.312" y1="390.534" x2="454.084" y2="390.649" gradientUnits="userSpaceOnUse">
<stop offset="1" stop-color="#B9F598"/>
</linearGradient>
<linearGradient id="paint10_linear_1722_5436" x1="456.136" y1="367.367" x2="470.764" y2="368.058" gradientUnits="userSpaceOnUse">
<stop offset="1" stop-color="#B9F598"/>
</linearGradient>
<linearGradient id="paint11_linear_1722_5436" x1="456.136" y1="367.367" x2="470.764" y2="368.058" gradientUnits="userSpaceOnUse">
<stop offset="1" stop-color="#B9F598"/>
</linearGradient>
<linearGradient id="paint12_linear_1722_5436" x1="396.247" y1="400.463" x2="446.245" y2="403.675" gradientUnits="userSpaceOnUse">
<stop offset="1" stop-color="#B9F598"/>
</linearGradient>
<linearGradient id="paint13_linear_1722_5436" x1="191.677" y1="121" x2="138.552" y2="70.7661" gradientUnits="userSpaceOnUse">
<stop stop-color="#1E4E4E"/>
<stop offset="1" stop-color="#1F2431"/>
</linearGradient>
<linearGradient id="paint14_linear_1722_5436" x1="140.775" y1="68" x2="198.815" y2="76.2034" gradientUnits="userSpaceOnUse">
<stop offset="1" stop-color="#B9F598"/>
</linearGradient>
<linearGradient id="paint15_linear_1722_5436" x1="123.625" y1="52" x2="220.741" y2="64.2676" gradientUnits="userSpaceOnUse">
<stop offset="1" stop-color="#B9F598"/>
</linearGradient>
<linearGradient id="paint16_linear_1722_5436" x1="191.677" y1="243" x2="138.552" y2="192.766" gradientUnits="userSpaceOnUse">
<stop stop-color="#1E4E4E"/>
<stop offset="1" stop-color="#1F2431"/>
</linearGradient>
<linearGradient id="paint17_linear_1722_5436" x1="151.392" y1="190" x2="185.922" y2="192.866" gradientUnits="userSpaceOnUse">
<stop offset="1" stop-color="#B9F598"/>
</linearGradient>
<linearGradient id="paint18_linear_1722_5436" x1="123.625" y1="174" x2="220.741" y2="186.268" gradientUnits="userSpaceOnUse">
<stop offset="1" stop-color="#B9F598"/>
</linearGradient>
<linearGradient id="paint19_linear_1722_5436" x1="139.553" y1="404.473" x2="158.405" y2="411.301" gradientUnits="userSpaceOnUse">
<stop offset="1" stop-color="#B9F598"/>
</linearGradient>
<linearGradient id="paint20_linear_1722_5436" x1="139.167" y1="404" x2="160.787" y2="407.583" gradientUnits="userSpaceOnUse">
<stop offset="1" stop-color="#B9F598"/>
</linearGradient>
<linearGradient id="paint21_linear_1722_5436" x1="246.553" y1="404.473" x2="265.405" y2="411.301" gradientUnits="userSpaceOnUse">
<stop offset="1" stop-color="#B9F598"/>
</linearGradient>
<linearGradient id="paint22_linear_1722_5436" x1="246.167" y1="404" x2="267.787" y2="407.583" gradientUnits="userSpaceOnUse">
<stop offset="1" stop-color="#B9F598"/>
</linearGradient>
<linearGradient id="paint23_linear_1722_5436" x1="353.553" y1="404.473" x2="372.405" y2="411.301" gradientUnits="userSpaceOnUse">
<stop offset="1" stop-color="#B9F598"/>
</linearGradient>
<linearGradient id="paint24_linear_1722_5436" x1="353.167" y1="404" x2="374.787" y2="407.583" gradientUnits="userSpaceOnUse">
<stop offset="1" stop-color="#B9F598"/>
</linearGradient>
<linearGradient id="paint25_linear_1722_5436" x1="191.677" y1="364" x2="138.552" y2="313.766" gradientUnits="userSpaceOnUse">
<stop stop-color="#1E4E4E"/>
<stop offset="1" stop-color="#1F2431"/>
</linearGradient>
<linearGradient id="paint26_linear_1722_5436" x1="151.392" y1="311" x2="185.922" y2="313.866" gradientUnits="userSpaceOnUse">
<stop offset="1" stop-color="#B9F598"/>
</linearGradient>
<linearGradient id="paint27_linear_1722_5436" x1="123.625" y1="295" x2="220.741" y2="307.268" gradientUnits="userSpaceOnUse">
<stop offset="1" stop-color="#B9F598"/>
</linearGradient>
<linearGradient id="paint28_linear_1722_5436" x1="249.875" y1="216" x2="315.54" y2="233.774" gradientUnits="userSpaceOnUse">
<stop offset="1" stop-color="#B9F598"/>
</linearGradient>
<linearGradient id="paint29_linear_1722_5436" x1="244.975" y1="210" x2="323.388" y2="226.18" gradientUnits="userSpaceOnUse">
<stop offset="1" stop-color="#B9F598"/>
</linearGradient>
<linearGradient id="paint30_linear_1722_5436" x1="360" y1="216" x2="413.855" y2="227.662" gradientUnits="userSpaceOnUse">
<stop offset="1" stop-color="#B9F598"/>
</linearGradient>
<linearGradient id="paint31_linear_1722_5436" x1="348.975" y1="210" x2="427.388" y2="226.18" gradientUnits="userSpaceOnUse">
<stop offset="1" stop-color="#B9F598"/>
</linearGradient>
<linearGradient id="paint32_linear_1722_5436" x1="316.608" y1="93.9941" x2="362.11" y2="102.205" gradientUnits="userSpaceOnUse">
<stop offset="1" stop-color="#B9F598"/>
</linearGradient>
<linearGradient id="paint33_linear_1722_5436" x1="301.888" y1="88" x2="379.512" y2="103.847" gradientUnits="userSpaceOnUse">
<stop offset="1" stop-color="#B9F598"/>
</linearGradient>
<radialGradient id="paint34_radial_1722_5436" cx="0" cy="0" r="1" gradientUnits="userSpaceOnUse" gradientTransform="translate(258.238 351.238) rotate(90) scale(13.2384)">
<stop stop-color="#37C7A4"/>
<stop offset="1" stop-color="#395350"/>
</radialGradient>
<linearGradient id="paint35_linear_1722_5436" x1="247.427" y1="338" x2="272.136" y2="340.051" gradientUnits="userSpaceOnUse">
<stop offset="1" stop-color="#B9F598"/>
</linearGradient>
<radialGradient id="paint36_radial_1722_5436" cx="0" cy="0" r="1" gradientUnits="userSpaceOnUse" gradientTransform="translate(332.238 351.238) rotate(90) scale(13.2384)">
<stop stop-color="#37C7A4"/>
<stop offset="1" stop-color="#395350"/>
</radialGradient>
<linearGradient id="paint37_linear_1722_5436" x1="321.427" y1="338" x2="346.136" y2="340.051" gradientUnits="userSpaceOnUse">
<stop offset="1" stop-color="#B9F598"/>
</linearGradient>
<radialGradient id="paint38_radial_1722_5436" cx="0" cy="0" r="1" gradientUnits="userSpaceOnUse" gradientTransform="translate(408.238 351.238) rotate(90) scale(13.2384)">
<stop stop-color="#37C7A4"/>
<stop offset="1" stop-color="#395350"/>
</radialGradient>
<linearGradient id="paint39_linear_1722_5436" x1="397.427" y1="338" x2="422.136" y2="340.051" gradientUnits="userSpaceOnUse">
<stop offset="1" stop-color="#B9F598"/>
</linearGradient>
</defs>
</svg>
