<svg width="166" height="36" viewBox="0 0 166 36" fill="none" xmlns="http://www.w3.org/2000/svg">
<path d="M30.072 13.684V22H28.56V14.98H25.008V22H23.496V13.684H30.072ZM31.6424 18.892C31.6424 18.34 31.7224 17.856 31.8824 17.44C32.0504 17.024 32.2704 16.68 32.5424 16.408C32.8144 16.128 33.1264 15.92 33.4784 15.784C33.8304 15.64 34.1904 15.568 34.5584 15.568C35.4224 15.568 36.0944 15.836 36.5744 16.372C37.0624 16.908 37.3064 17.708 37.3064 18.772C37.3064 18.852 37.3024 18.944 37.2944 19.048C37.2944 19.144 37.2904 19.232 37.2824 19.312H33.1424C33.1824 19.816 33.3584 20.208 33.6704 20.488C33.9904 20.76 34.4504 20.896 35.0504 20.896C35.4024 20.896 35.7224 20.864 36.0104 20.8C36.3064 20.736 36.5384 20.668 36.7064 20.596L36.8984 21.784C36.8184 21.824 36.7064 21.868 36.5624 21.916C36.4264 21.956 36.2664 21.992 36.0824 22.024C35.9064 22.064 35.7144 22.096 35.5064 22.12C35.2984 22.144 35.0864 22.156 34.8704 22.156C34.3184 22.156 33.8384 22.076 33.4304 21.916C33.0224 21.748 32.6864 21.52 32.4224 21.232C32.1584 20.936 31.9624 20.592 31.8344 20.2C31.7064 19.8 31.6424 19.364 31.6424 18.892ZM35.8544 18.244C35.8544 18.044 35.8264 17.856 35.7704 17.68C35.7144 17.496 35.6304 17.34 35.5184 17.212C35.4144 17.076 35.2824 16.972 35.1224 16.9C34.9704 16.82 34.7864 16.78 34.5704 16.78C34.3464 16.78 34.1504 16.824 33.9824 16.912C33.8144 16.992 33.6704 17.1 33.5504 17.236C33.4384 17.372 33.3504 17.528 33.2864 17.704C33.2224 17.88 33.1784 18.06 33.1544 18.244H35.8544ZM43.0099 18.892C43.0099 18.244 42.8619 17.74 42.5659 17.38C42.2779 17.02 41.8099 16.84 41.1619 16.84C41.0259 16.84 40.8819 16.848 40.7299 16.864C40.5859 16.872 40.4419 16.896 40.2979 16.936V20.524C40.4259 20.612 40.5939 20.696 40.8019 20.776C41.0179 20.848 41.2459 20.884 41.4859 20.884C42.0139 20.884 42.3979 20.704 42.6379 20.344C42.8859 19.984 43.0099 19.5 43.0099 18.892ZM44.4979 18.868C44.4979 19.348 44.4339 19.788 44.3059 20.188C44.1859 20.588 44.0099 20.932 43.7779 21.22C43.5459 21.508 43.2539 21.732 42.9019 21.892C42.5579 22.052 42.1659 22.132 41.7259 22.132C41.4299 22.132 41.1579 22.096 40.9099 22.024C40.6619 21.952 40.4579 21.872 40.2979 21.784V24.22H38.8459V15.928C39.1419 15.848 39.5059 15.772 39.9379 15.7C40.3699 15.628 40.8259 15.592 41.3059 15.592C41.8019 15.592 42.2459 15.668 42.6379 15.82C43.0299 15.972 43.3619 16.192 43.6339 16.48C43.9139 16.76 44.1259 17.104 44.2699 17.512C44.4219 17.912 44.4979 18.364 44.4979 18.868ZM45.6463 18.892C45.6463 18.34 45.7263 17.856 45.8863 17.44C46.0543 17.024 46.2743 16.68 46.5463 16.408C46.8183 16.128 47.1303 15.92 47.4823 15.784C47.8343 15.64 48.1943 15.568 48.5623 15.568C49.4263 15.568 50.0983 15.836 50.5783 16.372C51.0663 16.908 51.3103 17.708 51.3103 18.772C51.3103 18.852 51.3063 18.944 51.2983 19.048C51.2983 19.144 51.2943 19.232 51.2863 19.312H47.1463C47.1863 19.816 47.3623 20.208 47.6743 20.488C47.9943 20.76 48.4543 20.896 49.0543 20.896C49.4063 20.896 49.7263 20.864 50.0143 20.8C50.3103 20.736 50.5423 20.668 50.7103 20.596L50.9023 21.784C50.8223 21.824 50.7103 21.868 50.5663 21.916C50.4303 21.956 50.2703 21.992 50.0863 22.024C49.9103 22.064 49.7183 22.096 49.5103 22.12C49.3023 22.144 49.0903 22.156 48.8743 22.156C48.3223 22.156 47.8423 22.076 47.4343 21.916C47.0263 21.748 46.6903 21.52 46.4263 21.232C46.1623 20.936 45.9663 20.592 45.8383 20.2C45.7103 19.8 45.6463 19.364 45.6463 18.892ZM49.8583 18.244C49.8583 18.044 49.8303 17.856 49.7743 17.68C49.7183 17.496 49.6343 17.34 49.5223 17.212C49.4183 17.076 49.2863 16.972 49.1263 16.9C48.9743 16.82 48.7903 16.78 48.5743 16.78C48.3503 16.78 48.1543 16.824 47.9863 16.912C47.8183 16.992 47.6743 17.1 47.5543 17.236C47.4423 17.372 47.3543 17.528 47.2903 17.704C47.2263 17.88 47.1823 18.06 47.1583 18.244H49.8583ZM52.4566 15.916C52.5606 15.876 52.6886 15.836 52.8406 15.796C52.9926 15.756 53.1566 15.72 53.3326 15.688C53.5086 15.656 53.6926 15.632 53.8846 15.616C54.0846 15.592 54.2846 15.58 54.4846 15.58C54.8286 15.58 55.1566 15.612 55.4686 15.676C55.7806 15.74 56.0526 15.844 56.2846 15.988C56.5166 16.132 56.7006 16.316 56.8366 16.54C56.9806 16.764 57.0526 17.032 57.0526 17.344C57.0526 17.68 56.9606 17.964 56.7766 18.196C56.5926 18.428 56.3806 18.6 56.1406 18.712C56.5006 18.848 56.7766 19.048 56.9686 19.312C57.1606 19.576 57.2566 19.912 57.2566 20.32C57.2566 20.648 57.1846 20.928 57.0406 21.16C56.9046 21.392 56.7126 21.584 56.4646 21.736C56.2246 21.88 55.9406 21.984 55.6126 22.048C55.2846 22.12 54.9286 22.156 54.5446 22.156C54.0806 22.156 53.6486 22.116 53.2486 22.036C52.8486 21.964 52.5326 21.876 52.3006 21.772L52.5526 20.596C52.7046 20.66 52.9486 20.736 53.2846 20.824C53.6206 20.904 54.0166 20.944 54.4726 20.944C55.3526 20.944 55.7926 20.688 55.7926 20.176C55.7926 19.992 55.7526 19.844 55.6726 19.732C55.5926 19.62 55.4926 19.536 55.3726 19.48C55.2526 19.416 55.1166 19.376 54.9646 19.36C54.8126 19.336 54.6646 19.324 54.5206 19.324H53.3206V18.244H54.5086C54.8046 18.244 55.0566 18.192 55.2646 18.088C55.4806 17.976 55.5886 17.784 55.5886 17.512C55.5886 17.288 55.4846 17.112 55.2766 16.984C55.0766 16.848 54.7926 16.78 54.4246 16.78C54.2646 16.78 54.1006 16.792 53.9326 16.816C53.7646 16.832 53.6006 16.856 53.4406 16.888C53.2886 16.92 53.1486 16.956 53.0206 16.996C52.8926 17.028 52.7926 17.06 52.7206 17.092L52.4566 15.916ZM60.9406 20.98C61.3886 20.98 61.7286 20.956 61.9606 20.908V19.3C61.8806 19.276 61.7646 19.252 61.6126 19.228C61.4606 19.204 61.2926 19.192 61.1086 19.192C60.9486 19.192 60.7846 19.204 60.6166 19.228C60.4566 19.252 60.3086 19.296 60.1726 19.36C60.0446 19.424 59.9406 19.516 59.8606 19.636C59.7806 19.748 59.7406 19.892 59.7406 20.068C59.7406 20.412 59.8486 20.652 60.0646 20.788C60.2806 20.916 60.5726 20.98 60.9406 20.98ZM60.8206 15.568C61.3006 15.568 61.7046 15.628 62.0326 15.748C62.3606 15.868 62.6206 16.036 62.8126 16.252C63.0126 16.468 63.1526 16.732 63.2326 17.044C63.3206 17.348 63.3646 17.684 63.3646 18.052V21.856C63.1406 21.904 62.8006 21.96 62.3446 22.024C61.8966 22.096 61.3886 22.132 60.8206 22.132C60.4446 22.132 60.1006 22.096 59.7886 22.024C59.4766 21.952 59.2086 21.836 58.9846 21.676C58.7686 21.516 58.5966 21.308 58.4686 21.052C58.3486 20.796 58.2886 20.48 58.2886 20.104C58.2886 19.744 58.3566 19.44 58.4926 19.192C58.6366 18.944 58.8286 18.744 59.0686 18.592C59.3086 18.432 59.5846 18.32 59.8966 18.256C60.2166 18.184 60.5486 18.148 60.8926 18.148C61.0526 18.148 61.2206 18.16 61.3966 18.184C61.5726 18.2 61.7606 18.232 61.9606 18.28V18.04C61.9606 17.872 61.9406 17.712 61.9006 17.56C61.8606 17.408 61.7886 17.276 61.6846 17.164C61.5886 17.044 61.4566 16.952 61.2886 16.888C61.1286 16.824 60.9246 16.792 60.6766 16.792C60.3406 16.792 60.0326 16.816 59.7526 16.864C59.4726 16.912 59.2446 16.968 59.0686 17.032L58.8886 15.856C59.0726 15.792 59.3406 15.728 59.6926 15.664C60.0446 15.6 60.4206 15.568 60.8206 15.568ZM70.3628 15.724V22H68.9108V16.936H66.5948V22H65.1428V15.724H70.3628ZM77.3332 15.724C76.6852 18.108 75.9332 20.268 75.0772 22.204C74.9172 22.564 74.7532 22.872 74.5852 23.128C74.4172 23.384 74.2292 23.596 74.0212 23.764C73.8132 23.932 73.5812 24.052 73.3252 24.124C73.0692 24.204 72.7732 24.244 72.4372 24.244C72.2132 24.244 71.9892 24.22 71.7652 24.172C71.5492 24.124 71.3852 24.072 71.2732 24.016L71.5372 22.852C71.8252 22.964 72.1092 23.02 72.3892 23.02C72.7652 23.02 73.0572 22.928 73.2652 22.744C73.4812 22.568 73.6692 22.292 73.8292 21.916C73.3732 21.036 72.9332 20.076 72.5092 19.036C72.0932 17.996 71.7212 16.892 71.3932 15.724H72.9412C73.0212 16.06 73.1172 16.424 73.2292 16.816C73.3492 17.208 73.4772 17.608 73.6132 18.016C73.7492 18.416 73.8932 18.816 74.0452 19.216C74.1972 19.616 74.3492 19.988 74.5012 20.332C74.7572 19.62 74.9972 18.864 75.2212 18.064C75.4452 17.256 75.6492 16.476 75.8332 15.724H77.3332ZM77.9666 18.868C77.9666 18.404 78.0386 17.972 78.1826 17.572C78.3266 17.164 78.5306 16.812 78.7946 16.516C79.0666 16.22 79.3946 15.988 79.7786 15.82C80.1626 15.652 80.5946 15.568 81.0746 15.568C81.6666 15.568 82.2266 15.676 82.7546 15.892L82.4426 17.08C82.2746 17.008 82.0826 16.948 81.8666 16.9C81.6586 16.852 81.4346 16.828 81.1946 16.828C80.6266 16.828 80.1946 17.008 79.8986 17.368C79.6026 17.72 79.4546 18.22 79.4546 18.868C79.4546 19.492 79.5946 19.988 79.8746 20.356C80.1546 20.716 80.6266 20.896 81.2906 20.896C81.5386 20.896 81.7826 20.872 82.0226 20.824C82.2626 20.776 82.4706 20.716 82.6466 20.644L82.8506 21.844C82.6906 21.924 82.4466 21.996 82.1186 22.06C81.7986 22.124 81.4666 22.156 81.1226 22.156C80.5866 22.156 80.1186 22.076 79.7186 21.916C79.3266 21.748 78.9986 21.52 78.7346 21.232C78.4786 20.936 78.2866 20.588 78.1586 20.188C78.0306 19.78 77.9666 19.34 77.9666 18.868ZM85.4268 18.244C85.6108 18.06 85.8108 17.856 86.0268 17.632C86.2428 17.4 86.4548 17.168 86.6628 16.936C86.8788 16.704 87.0828 16.484 87.2748 16.276C87.4668 16.06 87.6268 15.876 87.7548 15.724H89.4588C89.2828 15.932 89.0788 16.16 88.8468 16.408C88.6228 16.656 88.3868 16.912 88.1388 17.176C87.8988 17.432 87.6588 17.684 87.4188 17.932C87.1868 18.172 86.9748 18.388 86.7828 18.58C87.0308 18.788 87.2868 19.032 87.5508 19.312C87.8228 19.584 88.0868 19.876 88.3428 20.188C88.6068 20.492 88.8508 20.804 89.0748 21.124C89.2988 21.436 89.4868 21.728 89.6388 22H87.9588C87.8068 21.76 87.6268 21.508 87.4188 21.244C87.2188 20.98 87.0068 20.724 86.7828 20.476C86.5588 20.22 86.3308 19.98 86.0988 19.756C85.8668 19.532 85.6428 19.34 85.4268 19.18V22H83.9748V15.724H85.4268V18.244ZM93.1424 18.868C93.1424 18.404 93.2144 17.972 93.3584 17.572C93.5024 17.164 93.7064 16.812 93.9704 16.516C94.2424 16.22 94.5704 15.988 94.9544 15.82C95.3384 15.652 95.7704 15.568 96.2504 15.568C96.8424 15.568 97.4024 15.676 97.9304 15.892L97.6184 17.08C97.4504 17.008 97.2584 16.948 97.0424 16.9C96.8344 16.852 96.6104 16.828 96.3704 16.828C95.8024 16.828 95.3704 17.008 95.0744 17.368C94.7784 17.72 94.6304 18.22 94.6304 18.868C94.6304 19.492 94.7704 19.988 95.0504 20.356C95.3304 20.716 95.8024 20.896 96.4664 20.896C96.7144 20.896 96.9584 20.872 97.1984 20.824C97.4384 20.776 97.6464 20.716 97.8224 20.644L98.0264 21.844C97.8664 21.924 97.6224 21.996 97.2944 22.06C96.9744 22.124 96.6424 22.156 96.2984 22.156C95.7624 22.156 95.2944 22.076 94.8944 21.916C94.5024 21.748 94.1744 21.52 93.9104 21.232C93.6544 20.936 93.4624 20.588 93.3344 20.188C93.2064 19.78 93.1424 19.34 93.1424 18.868ZM104.647 15.724V22H103.207C103.207 21.544 103.207 21.092 103.207 20.644C103.215 20.196 103.219 19.78 103.219 19.396C103.227 19.012 103.231 18.68 103.231 18.4C103.239 18.112 103.243 17.9 103.243 17.764C103.003 18.076 102.755 18.42 102.499 18.796C102.243 19.172 101.987 19.548 101.731 19.924C101.483 20.3 101.247 20.668 101.023 21.028C100.799 21.388 100.603 21.712 100.435 22H99.1506V15.724H100.579C100.579 16.188 100.575 16.632 100.567 17.056C100.567 17.472 100.567 17.852 100.567 18.196C100.567 18.54 100.563 18.84 100.555 19.096C100.555 19.352 100.555 19.548 100.555 19.684C100.779 19.34 101.011 18.988 101.251 18.628C101.491 18.26 101.731 17.904 101.971 17.56C102.219 17.208 102.463 16.876 102.703 16.564C102.943 16.252 103.175 15.972 103.399 15.724H104.647ZM106.15 18.868C106.15 18.404 106.222 17.972 106.366 17.572C106.51 17.164 106.714 16.812 106.978 16.516C107.25 16.22 107.578 15.988 107.962 15.82C108.346 15.652 108.778 15.568 109.258 15.568C109.85 15.568 110.41 15.676 110.938 15.892L110.626 17.08C110.458 17.008 110.266 16.948 110.05 16.9C109.842 16.852 109.618 16.828 109.378 16.828C108.81 16.828 108.378 17.008 108.082 17.368C107.786 17.72 107.638 18.22 107.638 18.868C107.638 19.492 107.778 19.988 108.058 20.356C108.338 20.716 108.81 20.896 109.474 20.896C109.722 20.896 109.966 20.872 110.206 20.824C110.446 20.776 110.654 20.716 110.83 20.644L111.034 21.844C110.874 21.924 110.63 21.996 110.302 22.06C109.982 22.124 109.65 22.156 109.306 22.156C108.77 22.156 108.302 22.076 107.902 21.916C107.51 21.748 107.182 21.52 106.918 21.232C106.662 20.936 106.47 20.588 106.342 20.188C106.214 19.78 106.15 19.34 106.15 18.868ZM117.039 16.936H115.011V22H113.559V16.936H111.543V15.724H117.039V16.936ZM117.775 18.892C117.775 18.34 117.855 17.856 118.015 17.44C118.183 17.024 118.403 16.68 118.675 16.408C118.947 16.128 119.259 15.92 119.611 15.784C119.963 15.64 120.323 15.568 120.691 15.568C121.555 15.568 122.227 15.836 122.707 16.372C123.195 16.908 123.439 17.708 123.439 18.772C123.439 18.852 123.435 18.944 123.427 19.048C123.427 19.144 123.423 19.232 123.415 19.312H119.275C119.315 19.816 119.491 20.208 119.803 20.488C120.123 20.76 120.583 20.896 121.183 20.896C121.535 20.896 121.855 20.864 122.143 20.8C122.439 20.736 122.671 20.668 122.839 20.596L123.031 21.784C122.951 21.824 122.839 21.868 122.695 21.916C122.559 21.956 122.399 21.992 122.215 22.024C122.039 22.064 121.847 22.096 121.639 22.12C121.431 22.144 121.219 22.156 121.003 22.156C120.451 22.156 119.971 22.076 119.563 21.916C119.155 21.748 118.819 21.52 118.555 21.232C118.291 20.936 118.095 20.592 117.967 20.2C117.839 19.8 117.775 19.364 117.775 18.892ZM121.987 18.244C121.987 18.044 121.959 17.856 121.903 17.68C121.847 17.496 121.763 17.34 121.651 17.212C121.547 17.076 121.415 16.972 121.255 16.9C121.103 16.82 120.919 16.78 120.703 16.78C120.479 16.78 120.283 16.824 120.115 16.912C119.947 16.992 119.803 17.1 119.683 17.236C119.571 17.372 119.483 17.528 119.419 17.704C119.355 17.88 119.311 18.06 119.287 18.244H121.987ZM126.443 17.884C126.419 18.22 126.395 18.572 126.371 18.94C126.347 19.3 126.327 19.66 126.311 20.02C126.295 20.38 126.279 20.728 126.263 21.064C126.247 21.4 126.235 21.712 126.227 22H124.823C124.839 21.536 124.863 21.036 124.895 20.5C124.927 19.956 124.963 19.408 125.003 18.856C125.051 18.296 125.099 17.748 125.147 17.212C125.195 16.676 125.247 16.18 125.303 15.724H126.563C126.867 16.212 127.175 16.788 127.487 17.452C127.799 18.108 128.147 18.856 128.531 19.696C128.931 18.84 129.295 18.068 129.623 17.38C129.951 16.684 130.243 16.132 130.499 15.724H131.771C131.827 16.18 131.879 16.676 131.927 17.212C131.983 17.748 132.031 18.296 132.071 18.856C132.111 19.408 132.147 19.956 132.179 20.5C132.211 21.036 132.235 21.536 132.251 22H130.811C130.795 21.344 130.767 20.668 130.727 19.972C130.695 19.268 130.655 18.572 130.607 17.884C130.487 18.124 130.355 18.392 130.211 18.688C130.075 18.984 129.939 19.284 129.803 19.588C129.667 19.892 129.535 20.188 129.407 20.476C129.279 20.756 129.167 21.004 129.071 21.22H127.991C127.895 21.004 127.779 20.752 127.643 20.464C127.515 20.176 127.383 19.88 127.247 19.576C127.111 19.272 126.971 18.976 126.827 18.688C126.691 18.392 126.563 18.124 126.443 17.884ZM141.588 22H140.136V15.724H141.588V22ZM135.396 18.04C135.516 18.008 135.688 17.98 135.912 17.956C136.144 17.932 136.368 17.92 136.584 17.92C136.928 17.92 137.252 17.96 137.556 18.04C137.868 18.12 138.136 18.248 138.36 18.424C138.592 18.592 138.772 18.812 138.9 19.084C139.036 19.348 139.104 19.664 139.104 20.032C139.104 20.408 139.04 20.728 138.912 20.992C138.784 21.256 138.604 21.472 138.372 21.64C138.14 21.808 137.86 21.932 137.532 22.012C137.212 22.092 136.856 22.132 136.464 22.132C136.008 22.132 135.576 22.108 135.168 22.06C134.768 22.012 134.36 21.94 133.944 21.844V15.724H135.396V18.04ZM136.428 20.992C136.804 20.992 137.1 20.916 137.316 20.764C137.54 20.604 137.652 20.352 137.652 20.008C137.652 19.832 137.616 19.684 137.544 19.564C137.472 19.444 137.372 19.348 137.244 19.276C137.124 19.196 136.984 19.14 136.824 19.108C136.672 19.076 136.512 19.06 136.344 19.06C136.192 19.06 136.024 19.068 135.84 19.084C135.664 19.092 135.516 19.112 135.396 19.144V20.932C135.5 20.948 135.652 20.964 135.852 20.98C136.052 20.988 136.244 20.992 136.428 20.992Z" fill="#89E159"/>
<rect x="1" y="1" width="164" height="34" rx="7" stroke="#89E159" stroke-width="2"/>
</svg>
