<svg width="507" height="423" viewBox="0 0 507 423" fill="none" xmlns="http://www.w3.org/2000/svg">
<path d="M495.325 411.337L492.488 415.437V461.454H495.325V411.337Z" fill="#888787" stroke="#888787" stroke-width="4.72801"/>
<path d="M133.159 386.934V73.2841C133.159 52.3944 150.093 35.46 170.983 35.46H433.438C454.308 35.46 471.234 52.3634 471.263 73.2332L471.685 386.751" stroke="#D9D9D9" stroke-width="0.945603"/>
<path d="M119.92 400.463V53.8993C119.92 33.0096 136.855 16.0752 157.744 16.0752H446.639C467.509 16.0752 484.436 32.979 484.463 53.849L484.923 399.044" stroke="#D9D9D9" stroke-width="0.945603"/>
<path d="M146.294 19.2024L178.429 5.19823C183.434 3.01699 188.836 1.89121 194.295 1.89121H465.065C486.999 1.89121 504.781 19.6724 504.781 41.6066V457.683C504.781 464.466 499.282 469.965 492.499 469.965C485.701 469.965 480.197 464.443 480.218 457.645L481.422 72.9736C481.496 49.4844 462.907 30.1797 439.432 29.3658L146.294 19.2024Z" fill="#1E4E4E" stroke="url(#paint0_linear_1726_6154)" stroke-width="3.78241"/>
<g filter="url(#filter0_d_1726_6154)">
<path d="M117.556 404.718L118.507 53.8084C118.507 34.4712 133.818 17.0205 152.945 17.0205L451.28 17.4921C473.321 18.9071 486.325 33.9995 487.76 52.8651V400.935H474.367V380.183L472.552 65.5994L469.584 56.6382L461.453 46.2622L455.235 41.5458L448.455 38.2443L438.016 36.3577L415.939 35.8861H379.118H305.478H203.168C156.294 35.8861 164.903 36.8294 158.207 38.2443C156.142 38.6806 154.151 39.3224 151.989 40.1309L146.727 43.4323L138.045 52.0141C135.388 57.866 133.935 65.1212 133.632 65.7191C133.153 66.6623 133.631 391.006 133.631 391.006L117.556 404.718Z" fill="url(#paint1_linear_1726_6154)"/>
</g>
<path d="M484.77 461.454L487.76 408.5L441.425 420.976V461.454H484.77Z" fill="#1E4E4E" stroke="#1E4E4E" stroke-width="4.72801"/>
<path d="M129.981 397.772L485.869 396.208L455.643 467.128L56.5648 465.564L129.981 397.772Z" fill="#1E4E4E"/>
<g filter="url(#filter1_ii_1726_6154)">
<path d="M130 89.5185C130 60.9898 130 46.7255 138.863 37.8627C147.725 29 161.99 29 190.519 29H416.661C445.12 29 459.349 29 468.207 37.8342C477.065 46.6684 477.103 60.898 477.179 89.3571L477.982 390.22H130V89.5185Z" fill="#1E4E4E"/>
</g>
<path d="M283.46 190.12C283.18 190.12 282.873 190.113 282.54 190.1C282.22 190.087 281.893 190.067 281.56 190.04C281.24 190.013 280.92 189.98 280.6 189.94C280.28 189.9 279.987 189.847 279.72 189.78V176.34C279.987 176.273 280.28 176.22 280.6 176.18C280.92 176.14 281.24 176.107 281.56 176.08C281.893 176.053 282.22 176.033 282.54 176.02C282.86 176.007 283.16 176 283.44 176C284.24 176 284.987 176.06 285.68 176.18C286.387 176.3 286.993 176.507 287.5 176.8C288.02 177.08 288.427 177.453 288.72 177.92C289.013 178.387 289.16 178.96 289.16 179.64C289.16 180.4 288.98 181.027 288.62 181.52C288.26 182 287.78 182.36 287.18 182.6C287.993 182.84 288.64 183.22 289.12 183.74C289.6 184.26 289.84 184.993 289.84 185.94C289.84 187.327 289.327 188.373 288.3 189.08C287.287 189.773 285.673 190.12 283.46 190.12ZM281.64 183.54V188.42C281.787 188.433 281.96 188.447 282.16 188.46C282.333 188.473 282.533 188.487 282.76 188.5C283 188.5 283.273 188.5 283.58 188.5C284.153 188.5 284.693 188.467 285.2 188.4C285.72 188.32 286.173 188.187 286.56 188C286.947 187.813 287.253 187.553 287.48 187.22C287.72 186.887 287.84 186.467 287.84 185.96C287.84 185.507 287.753 185.127 287.58 184.82C287.407 184.5 287.153 184.247 286.82 184.06C286.5 183.873 286.113 183.74 285.66 183.66C285.207 183.58 284.7 183.54 284.14 183.54H281.64ZM281.64 181.98H283.68C284.16 181.98 284.613 181.947 285.04 181.88C285.467 181.813 285.833 181.693 286.14 181.52C286.46 181.347 286.707 181.12 286.88 180.84C287.067 180.56 287.16 180.207 287.16 179.78C287.16 179.38 287.067 179.047 286.88 178.78C286.693 178.5 286.433 178.28 286.1 178.12C285.78 177.947 285.4 177.82 284.96 177.74C284.52 177.66 284.053 177.62 283.56 177.62C283.067 177.62 282.68 177.627 282.4 177.64C282.12 177.653 281.867 177.673 281.64 177.7V181.98ZM296.072 181.16C296.072 181.6 296.058 182.073 296.032 182.58C296.018 183.073 295.985 183.573 295.932 184.08C295.878 184.573 295.805 185.067 295.712 185.56C295.618 186.04 295.498 186.493 295.352 186.92C295.205 187.347 295.018 187.747 294.792 188.12C294.578 188.493 294.312 188.827 293.992 189.12C293.672 189.4 293.298 189.64 292.872 189.84C292.445 190.027 291.945 190.147 291.372 190.2L291.112 188.64C291.765 188.507 292.278 188.26 292.652 187.9C293.038 187.54 293.345 187.1 293.572 186.58C293.772 186.127 293.918 185.613 294.012 185.04C294.105 184.467 294.172 183.873 294.212 183.26C294.252 182.633 294.272 182.007 294.272 181.38C294.285 180.753 294.292 180.16 294.292 179.6H301.212V190H299.352V181.16H296.072ZM307.925 188.66C308.365 188.66 308.751 188.653 309.085 188.64C309.431 188.613 309.718 188.573 309.945 188.52V185.42C309.811 185.353 309.591 185.3 309.285 185.26C308.991 185.207 308.631 185.18 308.205 185.18C307.925 185.18 307.625 185.2 307.305 185.24C306.998 185.28 306.711 185.367 306.445 185.5C306.191 185.62 305.978 185.793 305.805 186.02C305.631 186.233 305.545 186.52 305.545 186.88C305.545 187.547 305.758 188.013 306.185 188.28C306.611 188.533 307.191 188.66 307.925 188.66ZM307.765 179.34C308.511 179.34 309.138 179.44 309.645 179.64C310.165 179.827 310.578 180.1 310.885 180.46C311.205 180.807 311.431 181.227 311.565 181.72C311.698 182.2 311.765 182.733 311.765 183.32V189.82C311.605 189.847 311.378 189.887 311.085 189.94C310.805 189.98 310.485 190.02 310.125 190.06C309.765 190.1 309.371 190.133 308.945 190.16C308.531 190.2 308.118 190.22 307.705 190.22C307.118 190.22 306.578 190.16 306.085 190.04C305.591 189.92 305.165 189.733 304.805 189.48C304.445 189.213 304.165 188.867 303.965 188.44C303.765 188.013 303.665 187.5 303.665 186.9C303.665 186.327 303.778 185.833 304.005 185.42C304.245 185.007 304.565 184.673 304.965 184.42C305.365 184.167 305.831 183.98 306.365 183.86C306.898 183.74 307.458 183.68 308.045 183.68C308.231 183.68 308.425 183.693 308.625 183.72C308.825 183.733 309.011 183.76 309.185 183.8C309.371 183.827 309.531 183.853 309.665 183.88C309.798 183.907 309.891 183.927 309.945 183.94V183.42C309.945 183.113 309.911 182.813 309.845 182.52C309.778 182.213 309.658 181.947 309.485 181.72C309.311 181.48 309.071 181.293 308.765 181.16C308.471 181.013 308.085 180.94 307.605 180.94C306.991 180.94 306.451 180.987 305.985 181.08C305.531 181.16 305.191 181.247 304.965 181.34L304.745 179.8C304.985 179.693 305.385 179.593 305.945 179.5C306.505 179.393 307.111 179.34 307.765 179.34ZM327.674 179.6C327.407 179.933 327.107 180.3 326.774 180.7C326.441 181.087 326.094 181.493 325.734 181.92C325.374 182.333 325.007 182.747 324.634 183.16C324.274 183.573 323.927 183.967 323.594 184.34C323.994 184.727 324.407 185.147 324.834 185.6C325.261 186.053 325.674 186.527 326.074 187.02C326.487 187.5 326.881 188 327.254 188.52C327.627 189.027 327.954 189.52 328.234 190H326.154C325.874 189.56 325.547 189.1 325.174 188.62C324.814 188.127 324.434 187.653 324.034 187.2C323.647 186.747 323.254 186.327 322.854 185.94C322.467 185.54 322.107 185.213 321.774 184.96V190H319.994V184.96C319.661 185.213 319.294 185.54 318.894 185.94C318.507 186.327 318.114 186.747 317.714 187.2C317.327 187.653 316.947 188.127 316.574 188.62C316.214 189.1 315.894 189.56 315.614 190H313.554C313.834 189.52 314.154 189.027 314.514 188.52C314.887 188.013 315.274 187.52 315.674 187.04C316.087 186.547 316.507 186.073 316.934 185.62C317.361 185.167 317.774 184.747 318.174 184.36C317.841 183.987 317.487 183.593 317.114 183.18C316.754 182.767 316.394 182.353 316.034 181.94C315.674 181.513 315.327 181.107 314.994 180.72C314.661 180.32 314.354 179.947 314.074 179.6H316.134C316.614 180.2 317.167 180.867 317.794 181.6C318.421 182.333 319.154 183.18 319.994 184.14V179.6H321.774V184.14C322.614 183.18 323.347 182.333 323.974 181.6C324.601 180.867 325.154 180.2 325.634 179.6H327.674ZM338.628 190H336.768V185.4H331.968V190H330.108V179.6H331.968V183.84H336.768V179.6H338.628V190ZM351.007 184.8C351.007 185.627 350.887 186.373 350.647 187.04C350.407 187.707 350.067 188.28 349.627 188.76C349.2 189.24 348.687 189.613 348.087 189.88C347.487 190.133 346.833 190.26 346.127 190.26C345.42 190.26 344.767 190.133 344.167 189.88C343.567 189.613 343.047 189.24 342.607 188.76C342.18 188.28 341.847 187.707 341.607 187.04C341.367 186.373 341.247 185.627 341.247 184.8C341.247 183.987 341.367 183.247 341.607 182.58C341.847 181.9 342.18 181.32 342.607 180.84C343.047 180.36 343.567 179.993 344.167 179.74C344.767 179.473 345.42 179.34 346.127 179.34C346.833 179.34 347.487 179.473 348.087 179.74C348.687 179.993 349.2 180.36 349.627 180.84C350.067 181.32 350.407 181.9 350.647 182.58C350.887 183.247 351.007 183.987 351.007 184.8ZM349.067 184.8C349.067 183.627 348.8 182.7 348.267 182.02C347.747 181.327 347.033 180.98 346.127 180.98C345.22 180.98 344.5 181.327 343.967 182.02C343.447 182.7 343.187 183.627 343.187 184.8C343.187 185.973 343.447 186.907 343.967 187.6C344.5 188.28 345.22 188.62 346.127 188.62C347.033 188.62 347.747 188.28 348.267 187.6C348.8 186.907 349.067 185.973 349.067 184.8ZM358.143 190.24C357.303 190.24 356.563 190.107 355.923 189.84C355.297 189.573 354.763 189.2 354.323 188.72C353.897 188.24 353.577 187.673 353.363 187.02C353.15 186.353 353.043 185.62 353.043 184.82C353.043 184.02 353.157 183.287 353.383 182.62C353.623 181.953 353.957 181.38 354.383 180.9C354.81 180.407 355.33 180.027 355.943 179.76C356.57 179.48 357.263 179.34 358.023 179.34C358.49 179.34 358.957 179.38 359.423 179.46C359.89 179.54 360.337 179.667 360.763 179.84L360.343 181.42C360.063 181.287 359.737 181.18 359.363 181.1C359.003 181.02 358.617 180.98 358.203 180.98C357.163 180.98 356.363 181.307 355.803 181.96C355.257 182.613 354.983 183.567 354.983 184.82C354.983 185.38 355.043 185.893 355.163 186.36C355.297 186.827 355.497 187.227 355.763 187.56C356.043 187.893 356.397 188.153 356.823 188.34C357.25 188.513 357.77 188.6 358.383 188.6C358.877 188.6 359.323 188.553 359.723 188.46C360.123 188.367 360.437 188.267 360.663 188.16L360.923 189.72C360.817 189.787 360.663 189.853 360.463 189.92C360.263 189.973 360.037 190.02 359.783 190.06C359.53 190.113 359.257 190.153 358.963 190.18C358.683 190.22 358.41 190.24 358.143 190.24ZM370.553 179.6V181.16H367.173V190H365.313V181.16H361.933V179.6H370.553ZM376.411 188.7C377.198 188.7 377.818 188.547 378.271 188.24C378.724 187.933 378.951 187.44 378.951 186.76C378.951 186.427 378.884 186.14 378.751 185.9C378.618 185.66 378.431 185.467 378.191 185.32C377.964 185.16 377.698 185.047 377.391 184.98C377.084 184.9 376.758 184.86 376.411 184.86C376.051 184.86 375.678 184.873 375.291 184.9C374.918 184.913 374.598 184.953 374.331 185.02V188.6C374.411 188.613 374.531 188.627 374.691 188.64C374.851 188.653 375.024 188.667 375.211 188.68C375.411 188.68 375.611 188.687 375.811 188.7C376.024 188.7 376.224 188.7 376.411 188.7ZM372.471 189.78V179.6H374.331V183.58C374.438 183.553 374.578 183.527 374.751 183.5C374.938 183.473 375.131 183.447 375.331 183.42C375.544 183.393 375.764 183.373 375.991 183.36C376.218 183.347 376.431 183.34 376.631 183.34C377.204 183.34 377.744 183.407 378.251 183.54C378.758 183.66 379.198 183.86 379.571 184.14C379.958 184.407 380.264 184.76 380.491 185.2C380.718 185.627 380.831 186.14 380.831 186.74C380.831 187.367 380.724 187.9 380.511 188.34C380.298 188.78 379.991 189.14 379.591 189.42C379.191 189.7 378.711 189.9 378.151 190.02C377.604 190.153 376.991 190.22 376.311 190.22C375.644 190.22 374.991 190.18 374.351 190.1C373.711 190.033 373.084 189.927 372.471 189.78ZM389.486 188.6C389.566 188.613 389.68 188.627 389.826 188.64C389.973 188.653 390.14 188.667 390.326 188.68C390.513 188.68 390.706 188.687 390.906 188.7C391.12 188.7 391.32 188.7 391.506 188.7C391.893 188.7 392.26 188.673 392.606 188.62C392.966 188.567 393.273 188.473 393.526 188.34C393.793 188.207 394 188.033 394.146 187.82C394.306 187.593 394.386 187.307 394.386 186.96C394.386 186.627 394.313 186.353 394.166 186.14C394.033 185.913 393.846 185.733 393.606 185.6C393.366 185.467 393.08 185.373 392.746 185.32C392.426 185.267 392.08 185.24 391.706 185.24H389.486V188.6ZM391.466 183.86C391.826 183.86 392.153 183.84 392.446 183.8C392.753 183.747 393.013 183.66 393.226 183.54C393.453 183.42 393.626 183.26 393.746 183.06C393.88 182.86 393.946 182.607 393.946 182.3C393.946 181.98 393.866 181.727 393.706 181.54C393.546 181.353 393.333 181.213 393.066 181.12C392.813 181.013 392.52 180.947 392.186 180.92C391.866 180.88 391.54 180.86 391.206 180.86C390.9 180.86 390.586 180.867 390.266 180.88C389.96 180.893 389.7 180.907 389.486 180.92V183.86H391.466ZM391.426 190.18C390.64 190.18 389.913 190.14 389.246 190.06C388.58 189.993 388.053 189.913 387.666 189.82V179.7C388.053 179.607 388.58 179.527 389.246 179.46C389.913 179.38 390.64 179.34 391.426 179.34C391.973 179.34 392.506 179.387 393.026 179.48C393.546 179.573 394.006 179.733 394.406 179.96C394.806 180.173 395.126 180.473 395.366 180.86C395.62 181.233 395.746 181.7 395.746 182.26C395.746 182.767 395.62 183.2 395.366 183.56C395.113 183.92 394.773 184.2 394.346 184.4C394.92 184.6 395.373 184.9 395.706 185.3C396.053 185.687 396.226 186.233 396.226 186.94C396.226 187.567 396.1 188.087 395.846 188.5C395.606 188.913 395.266 189.247 394.826 189.5C394.4 189.753 393.893 189.927 393.306 190.02C392.72 190.127 392.093 190.18 391.426 190.18ZM407.803 184.8C407.803 185.627 407.683 186.373 407.443 187.04C407.203 187.707 406.863 188.28 406.423 188.76C405.997 189.24 405.483 189.613 404.883 189.88C404.283 190.133 403.63 190.26 402.923 190.26C402.217 190.26 401.563 190.133 400.963 189.88C400.363 189.613 399.843 189.24 399.403 188.76C398.977 188.28 398.643 187.707 398.403 187.04C398.163 186.373 398.043 185.627 398.043 184.8C398.043 183.987 398.163 183.247 398.403 182.58C398.643 181.9 398.977 181.32 399.403 180.84C399.843 180.36 400.363 179.993 400.963 179.74C401.563 179.473 402.217 179.34 402.923 179.34C403.63 179.34 404.283 179.473 404.883 179.74C405.483 179.993 405.997 180.36 406.423 180.84C406.863 181.32 407.203 181.9 407.443 182.58C407.683 183.247 407.803 183.987 407.803 184.8ZM405.863 184.8C405.863 183.627 405.597 182.7 405.063 182.02C404.543 181.327 403.83 180.98 402.923 180.98C402.017 180.98 401.297 181.327 400.763 182.02C400.243 182.7 399.983 183.627 399.983 184.8C399.983 185.973 400.243 186.907 400.763 187.6C401.297 188.28 402.017 188.62 402.923 188.62C403.83 188.62 404.543 188.28 405.063 187.6C405.597 186.907 405.863 185.973 405.863 184.8ZM412.728 179.34C413.328 179.34 413.888 179.4 414.408 179.52C414.928 179.64 415.375 179.82 415.748 180.06C416.122 180.3 416.415 180.6 416.628 180.96C416.842 181.32 416.948 181.74 416.948 182.22C416.948 182.527 416.895 182.807 416.788 183.06C416.682 183.313 416.548 183.54 416.388 183.74C416.228 183.94 416.048 184.113 415.848 184.26C415.662 184.393 415.482 184.487 415.308 184.54C415.922 184.727 416.402 185.06 416.748 185.54C417.108 186.007 417.288 186.6 417.288 187.32C417.288 188.307 416.888 189.04 416.088 189.52C415.288 190 414.202 190.24 412.828 190.24C411.988 190.24 411.262 190.173 410.648 190.04C410.048 189.907 409.622 189.78 409.368 189.66L409.688 188.08C409.902 188.16 410.282 188.273 410.828 188.42C411.388 188.553 412.055 188.62 412.828 188.62C413.668 188.62 414.308 188.493 414.748 188.24C415.188 187.973 415.408 187.58 415.408 187.06C415.408 186.687 415.322 186.387 415.148 186.16C414.988 185.92 414.782 185.74 414.528 185.62C414.275 185.5 414.002 185.42 413.708 185.38C413.415 185.34 413.142 185.32 412.888 185.32H411.148V183.84H412.828C413.068 183.84 413.315 183.827 413.568 183.8C413.835 183.76 414.075 183.687 414.288 183.58C414.515 183.473 414.702 183.327 414.848 183.14C414.995 182.94 415.068 182.68 415.068 182.36C415.068 182.107 415.002 181.893 414.868 181.72C414.748 181.533 414.582 181.38 414.368 181.26C414.155 181.14 413.902 181.053 413.608 181C413.328 180.933 413.035 180.9 412.728 180.9C412.488 180.9 412.228 180.92 411.948 180.96C411.668 181 411.395 181.053 411.128 181.12C410.862 181.173 410.622 181.233 410.408 181.3C410.195 181.367 410.042 181.427 409.948 181.48L409.608 179.88C409.715 179.84 409.882 179.787 410.108 179.72C410.335 179.653 410.588 179.593 410.868 179.54C411.162 179.487 411.468 179.44 411.788 179.4C412.108 179.36 412.422 179.34 412.728 179.34ZM418.593 188.48H419.713C420.153 187.84 420.5 187.18 420.753 186.5C421.02 185.82 421.22 185.12 421.353 184.4C421.487 183.667 421.573 182.907 421.613 182.12C421.653 181.32 421.68 180.48 421.693 179.6H428.513V188.48H429.913V192.9H428.153V190H420.353V192.9H418.593V188.48ZM426.653 188.48V181.16H423.393C423.38 181.787 423.347 182.42 423.293 183.06C423.24 183.687 423.153 184.313 423.033 184.94C422.913 185.553 422.74 186.16 422.513 186.76C422.3 187.347 422.027 187.92 421.693 188.48H426.653ZM431.193 191.94C431.339 192.007 431.526 192.067 431.753 192.12C431.993 192.187 432.226 192.22 432.453 192.22C433.186 192.22 433.759 192.053 434.173 191.72C434.586 191.4 434.959 190.873 435.293 190.14C434.453 188.54 433.666 186.847 432.933 185.06C432.213 183.26 431.613 181.44 431.133 179.6H433.133C433.279 180.2 433.453 180.847 433.653 181.54C433.866 182.233 434.099 182.947 434.353 183.68C434.606 184.413 434.879 185.147 435.173 185.88C435.466 186.613 435.773 187.32 436.092 188C436.599 186.6 437.039 185.213 437.413 183.84C437.786 182.467 438.139 181.053 438.473 179.6H440.393C439.913 181.56 439.379 183.447 438.793 185.26C438.206 187.06 437.573 188.747 436.893 190.32C436.626 190.92 436.346 191.433 436.053 191.86C435.773 192.3 435.459 192.66 435.113 192.94C434.766 193.22 434.373 193.427 433.933 193.56C433.506 193.693 433.019 193.76 432.473 193.76C432.326 193.76 432.173 193.747 432.013 193.72C431.853 193.707 431.693 193.68 431.533 193.64C431.386 193.613 431.246 193.58 431.113 193.54C430.993 193.5 430.906 193.467 430.853 193.44L431.193 191.94ZM448.828 190C448.681 189.707 448.501 189.38 448.288 189.02C448.074 188.66 447.841 188.293 447.588 187.92C447.334 187.533 447.074 187.153 446.808 186.78C446.541 186.407 446.281 186.053 446.028 185.72C445.774 186.053 445.514 186.413 445.248 186.8C444.981 187.173 444.721 187.553 444.468 187.94C444.228 188.313 444.001 188.68 443.788 189.04C443.574 189.4 443.394 189.72 443.248 190H441.328C441.794 189.093 442.348 188.173 442.988 187.24C443.641 186.293 444.288 185.393 444.928 184.54L441.488 179.6H443.588L446.068 183.24L448.568 179.6H450.548L447.188 184.42C447.828 185.287 448.481 186.207 449.148 187.18C449.828 188.14 450.401 189.08 450.868 190H448.828ZM456.343 188.66C456.783 188.66 457.169 188.653 457.503 188.64C457.849 188.613 458.136 188.573 458.363 188.52V185.42C458.229 185.353 458.009 185.3 457.703 185.26C457.409 185.207 457.049 185.18 456.623 185.18C456.343 185.18 456.043 185.2 455.723 185.24C455.416 185.28 455.129 185.367 454.863 185.5C454.609 185.62 454.396 185.793 454.223 186.02C454.049 186.233 453.963 186.52 453.963 186.88C453.963 187.547 454.176 188.013 454.603 188.28C455.029 188.533 455.609 188.66 456.343 188.66ZM456.183 179.34C456.929 179.34 457.556 179.44 458.063 179.64C458.583 179.827 458.996 180.1 459.303 180.46C459.623 180.807 459.849 181.227 459.983 181.72C460.116 182.2 460.183 182.733 460.183 183.32V189.82C460.023 189.847 459.796 189.887 459.503 189.94C459.223 189.98 458.903 190.02 458.543 190.06C458.183 190.1 457.789 190.133 457.363 190.16C456.949 190.2 456.536 190.22 456.123 190.22C455.536 190.22 454.996 190.16 454.503 190.04C454.009 189.92 453.583 189.733 453.223 189.48C452.863 189.213 452.583 188.867 452.383 188.44C452.183 188.013 452.083 187.5 452.083 186.9C452.083 186.327 452.196 185.833 452.423 185.42C452.663 185.007 452.983 184.673 453.383 184.42C453.783 184.167 454.249 183.98 454.783 183.86C455.316 183.74 455.876 183.68 456.463 183.68C456.649 183.68 456.843 183.693 457.043 183.72C457.243 183.733 457.429 183.76 457.603 183.8C457.789 183.827 457.949 183.853 458.083 183.88C458.216 183.907 458.309 183.927 458.363 183.94V183.42C458.363 183.113 458.329 182.813 458.263 182.52C458.196 182.213 458.076 181.947 457.903 181.72C457.729 181.48 457.489 181.293 457.183 181.16C456.889 181.013 456.503 180.94 456.023 180.94C455.409 180.94 454.869 180.987 454.403 181.08C453.949 181.16 453.609 181.247 453.383 181.34L453.163 179.8C453.403 179.693 453.803 179.593 454.363 179.5C454.923 179.393 455.529 179.34 456.183 179.34Z" fill="url(#paint2_linear_1726_6154)"/>
<path d="M274.98 300.14V301.82H270.62V314H268.68V301.82H264.32V300.14H274.98ZM275.235 308.82C275.235 307.9 275.368 307.1 275.635 306.42C275.902 305.727 276.255 305.153 276.695 304.7C277.135 304.247 277.642 303.907 278.215 303.68C278.788 303.453 279.375 303.34 279.975 303.34C281.375 303.34 282.448 303.78 283.195 304.66C283.942 305.527 284.315 306.853 284.315 308.64C284.315 308.72 284.315 308.827 284.315 308.96C284.315 309.08 284.308 309.193 284.295 309.3H277.175C277.255 310.38 277.568 311.2 278.115 311.76C278.662 312.32 279.515 312.6 280.675 312.6C281.328 312.6 281.875 312.547 282.315 312.44C282.768 312.32 283.108 312.207 283.335 312.1L283.595 313.66C283.368 313.78 282.968 313.907 282.395 314.04C281.835 314.173 281.195 314.24 280.475 314.24C279.568 314.24 278.782 314.107 278.115 313.84C277.462 313.56 276.922 313.18 276.495 312.7C276.068 312.22 275.748 311.653 275.535 311C275.335 310.333 275.235 309.607 275.235 308.82ZM282.375 307.8C282.388 306.96 282.175 306.273 281.735 305.74C281.308 305.193 280.715 304.92 279.955 304.92C279.528 304.92 279.148 305.007 278.815 305.18C278.495 305.34 278.222 305.553 277.995 305.82C277.768 306.087 277.588 306.393 277.455 306.74C277.335 307.087 277.255 307.44 277.215 307.8H282.375ZM288.967 306.34C288.833 307.66 288.733 308.98 288.667 310.3C288.6 311.607 288.547 312.84 288.507 314H286.727C286.753 313.187 286.793 312.34 286.847 311.46C286.9 310.567 286.96 309.673 287.027 308.78C287.093 307.873 287.167 306.987 287.247 306.12C287.327 305.24 287.413 304.4 287.507 303.6H289.207C289.633 304.293 290.133 305.247 290.707 306.46C291.28 307.66 291.94 309.047 292.687 310.62C293.433 309.047 294.093 307.66 294.667 306.46C295.24 305.247 295.74 304.293 296.167 303.6H297.887C297.98 304.4 298.067 305.24 298.147 306.12C298.227 306.987 298.3 307.873 298.367 308.78C298.433 309.673 298.493 310.567 298.547 311.46C298.6 312.34 298.64 313.187 298.667 314H296.827C296.787 312.84 296.733 311.607 296.667 310.3C296.6 308.98 296.5 307.66 296.367 306.34C296.153 306.753 295.907 307.253 295.627 307.84C295.347 308.413 295.067 309 294.787 309.6C294.52 310.2 294.267 310.773 294.027 311.32C293.787 311.867 293.6 312.3 293.467 312.62H291.907C291.76 312.287 291.56 311.847 291.307 311.3C291.067 310.753 290.807 310.18 290.527 309.58C290.26 308.967 289.987 308.373 289.707 307.8C289.427 307.213 289.18 306.727 288.967 306.34ZM309.976 314H308.116V305.16H303.476V314H301.616V303.6H309.976V314ZM312.598 308.82C312.598 307.9 312.731 307.1 312.998 306.42C313.265 305.727 313.618 305.153 314.058 304.7C314.498 304.247 315.005 303.907 315.578 303.68C316.151 303.453 316.738 303.34 317.338 303.34C318.738 303.34 319.811 303.78 320.558 304.66C321.305 305.527 321.678 306.853 321.678 308.64C321.678 308.72 321.678 308.827 321.678 308.96C321.678 309.08 321.671 309.193 321.658 309.3H314.538C314.618 310.38 314.931 311.2 315.478 311.76C316.025 312.32 316.878 312.6 318.038 312.6C318.691 312.6 319.238 312.547 319.678 312.44C320.131 312.32 320.471 312.207 320.698 312.1L320.958 313.66C320.731 313.78 320.331 313.907 319.758 314.04C319.198 314.173 318.558 314.24 317.838 314.24C316.931 314.24 316.145 314.107 315.478 313.84C314.825 313.56 314.285 313.18 313.858 312.7C313.431 312.22 313.111 311.653 312.898 311C312.698 310.333 312.598 309.607 312.598 308.82ZM319.738 307.8C319.751 306.96 319.538 306.273 319.098 305.74C318.671 305.193 318.078 304.92 317.318 304.92C316.891 304.92 316.511 305.007 316.178 305.18C315.858 305.34 315.585 305.553 315.358 305.82C315.131 306.087 314.951 306.393 314.818 306.74C314.698 307.087 314.618 307.44 314.578 307.8H319.738ZM331.57 308.82C331.57 307.607 331.27 306.673 330.67 306.02C330.07 305.367 329.27 305.04 328.27 305.04C327.71 305.04 327.27 305.06 326.95 305.1C326.643 305.14 326.397 305.187 326.21 305.24V311.8C326.437 311.987 326.763 312.167 327.19 312.34C327.617 312.513 328.083 312.6 328.59 312.6C329.123 312.6 329.577 312.507 329.95 312.32C330.337 312.12 330.65 311.853 330.89 311.52C331.13 311.173 331.303 310.773 331.41 310.32C331.517 309.853 331.57 309.353 331.57 308.82ZM333.51 308.82C333.51 309.607 333.403 310.333 333.19 311C332.99 311.667 332.69 312.24 332.29 312.72C331.89 313.2 331.397 313.573 330.81 313.84C330.237 314.107 329.577 314.24 328.83 314.24C328.23 314.24 327.697 314.16 327.23 314C326.777 313.84 326.437 313.687 326.21 313.54V317.7H324.35V303.92C324.79 303.813 325.337 303.7 325.99 303.58C326.657 303.447 327.423 303.38 328.29 303.38C329.09 303.38 329.81 303.507 330.45 303.76C331.09 304.013 331.637 304.373 332.09 304.84C332.543 305.307 332.89 305.88 333.13 306.56C333.383 307.227 333.51 307.98 333.51 308.82ZM339.647 312.66C340.087 312.66 340.474 312.653 340.807 312.64C341.154 312.613 341.441 312.573 341.667 312.52V309.42C341.534 309.353 341.314 309.3 341.007 309.26C340.714 309.207 340.354 309.18 339.927 309.18C339.647 309.18 339.347 309.2 339.027 309.24C338.721 309.28 338.434 309.367 338.167 309.5C337.914 309.62 337.701 309.793 337.527 310.02C337.354 310.233 337.267 310.52 337.267 310.88C337.267 311.547 337.481 312.013 337.907 312.28C338.334 312.533 338.914 312.66 339.647 312.66ZM339.487 303.34C340.234 303.34 340.861 303.44 341.367 303.64C341.887 303.827 342.301 304.1 342.607 304.46C342.927 304.807 343.154 305.227 343.287 305.72C343.421 306.2 343.487 306.733 343.487 307.32V313.82C343.327 313.847 343.101 313.887 342.807 313.94C342.527 313.98 342.207 314.02 341.847 314.06C341.487 314.1 341.094 314.133 340.667 314.16C340.254 314.2 339.841 314.22 339.427 314.22C338.841 314.22 338.301 314.16 337.807 314.04C337.314 313.92 336.887 313.733 336.527 313.48C336.167 313.213 335.887 312.867 335.687 312.44C335.487 312.013 335.387 311.5 335.387 310.9C335.387 310.327 335.501 309.833 335.727 309.42C335.967 309.007 336.287 308.673 336.687 308.42C337.087 308.167 337.554 307.98 338.087 307.86C338.621 307.74 339.181 307.68 339.767 307.68C339.954 307.68 340.147 307.693 340.347 307.72C340.547 307.733 340.734 307.76 340.907 307.8C341.094 307.827 341.254 307.853 341.387 307.88C341.521 307.907 341.614 307.927 341.667 307.94V307.42C341.667 307.113 341.634 306.813 341.567 306.52C341.501 306.213 341.381 305.947 341.207 305.72C341.034 305.48 340.794 305.293 340.487 305.16C340.194 305.013 339.807 304.94 339.327 304.94C338.714 304.94 338.174 304.987 337.707 305.08C337.254 305.16 336.914 305.247 336.687 305.34L336.467 303.8C336.707 303.693 337.107 303.593 337.667 303.5C338.227 303.393 338.834 303.34 339.487 303.34ZM353.917 303.6V305.16H350.537V314H348.677V305.16H345.297V303.6H353.917ZM355.064 315.94C355.21 316.007 355.397 316.067 355.624 316.12C355.864 316.187 356.097 316.22 356.324 316.22C357.057 316.22 357.63 316.053 358.044 315.72C358.457 315.4 358.83 314.873 359.164 314.14C358.324 312.54 357.537 310.847 356.804 309.06C356.084 307.26 355.484 305.44 355.004 303.6H357.004C357.15 304.2 357.324 304.847 357.524 305.54C357.737 306.233 357.97 306.947 358.224 307.68C358.477 308.413 358.75 309.147 359.044 309.88C359.337 310.613 359.644 311.32 359.964 312C360.47 310.6 360.91 309.213 361.284 307.84C361.657 306.467 362.01 305.053 362.344 303.6H364.264C363.784 305.56 363.25 307.447 362.664 309.26C362.077 311.06 361.444 312.747 360.764 314.32C360.497 314.92 360.217 315.433 359.924 315.86C359.644 316.3 359.33 316.66 358.984 316.94C358.637 317.22 358.244 317.427 357.804 317.56C357.377 317.693 356.89 317.76 356.344 317.76C356.197 317.76 356.044 317.747 355.884 317.72C355.724 317.707 355.564 317.68 355.404 317.64C355.257 317.613 355.117 317.58 354.984 317.54C354.864 317.5 354.777 317.467 354.724 317.44L355.064 315.94ZM373.445 308.82C373.445 307.607 373.145 306.673 372.545 306.02C371.945 305.367 371.145 305.04 370.145 305.04C369.585 305.04 369.145 305.06 368.825 305.1C368.518 305.14 368.272 305.187 368.085 305.24V311.8C368.312 311.987 368.638 312.167 369.065 312.34C369.492 312.513 369.958 312.6 370.465 312.6C370.998 312.6 371.452 312.507 371.825 312.32C372.212 312.12 372.525 311.853 372.765 311.52C373.005 311.173 373.178 310.773 373.285 310.32C373.392 309.853 373.445 309.353 373.445 308.82ZM375.385 308.82C375.385 309.607 375.278 310.333 375.065 311C374.865 311.667 374.565 312.24 374.165 312.72C373.765 313.2 373.272 313.573 372.685 313.84C372.112 314.107 371.452 314.24 370.705 314.24C370.105 314.24 369.572 314.16 369.105 314C368.652 313.84 368.312 313.687 368.085 313.54V317.7H366.225V303.92C366.665 303.813 367.212 303.7 367.865 303.58C368.532 303.447 369.298 303.38 370.165 303.38C370.965 303.38 371.685 303.507 372.325 303.76C372.965 304.013 373.512 304.373 373.965 304.84C374.418 305.307 374.765 305.88 375.005 306.56C375.258 307.227 375.385 307.98 375.385 308.82ZM381.522 312.66C381.962 312.66 382.349 312.653 382.682 312.64C383.029 312.613 383.316 312.573 383.542 312.52V309.42C383.409 309.353 383.189 309.3 382.882 309.26C382.589 309.207 382.229 309.18 381.802 309.18C381.522 309.18 381.222 309.2 380.902 309.24C380.596 309.28 380.309 309.367 380.042 309.5C379.789 309.62 379.576 309.793 379.402 310.02C379.229 310.233 379.142 310.52 379.142 310.88C379.142 311.547 379.356 312.013 379.782 312.28C380.209 312.533 380.789 312.66 381.522 312.66ZM381.362 303.34C382.109 303.34 382.736 303.44 383.242 303.64C383.762 303.827 384.176 304.1 384.482 304.46C384.802 304.807 385.029 305.227 385.162 305.72C385.296 306.2 385.362 306.733 385.362 307.32V313.82C385.202 313.847 384.976 313.887 384.682 313.94C384.402 313.98 384.082 314.02 383.722 314.06C383.362 314.1 382.969 314.133 382.542 314.16C382.129 314.2 381.716 314.22 381.302 314.22C380.716 314.22 380.176 314.16 379.682 314.04C379.189 313.92 378.762 313.733 378.402 313.48C378.042 313.213 377.762 312.867 377.562 312.44C377.362 312.013 377.262 311.5 377.262 310.9C377.262 310.327 377.376 309.833 377.602 309.42C377.842 309.007 378.162 308.673 378.562 308.42C378.962 308.167 379.429 307.98 379.962 307.86C380.496 307.74 381.056 307.68 381.642 307.68C381.829 307.68 382.022 307.693 382.222 307.72C382.422 307.733 382.609 307.76 382.782 307.8C382.969 307.827 383.129 307.853 383.262 307.88C383.396 307.907 383.489 307.927 383.542 307.94V307.42C383.542 307.113 383.509 306.813 383.442 306.52C383.376 306.213 383.256 305.947 383.082 305.72C382.909 305.48 382.669 305.293 382.362 305.16C382.069 305.013 381.682 304.94 381.202 304.94C380.589 304.94 380.049 304.987 379.582 305.08C379.129 305.16 378.789 305.247 378.562 305.34L378.342 303.8C378.582 303.693 378.982 303.593 379.542 303.5C380.102 303.393 380.709 303.34 381.362 303.34ZM394.9 312.6C394.98 312.613 395.094 312.627 395.24 312.64C395.387 312.653 395.554 312.667 395.74 312.68C395.927 312.68 396.12 312.687 396.32 312.7C396.534 312.7 396.734 312.7 396.92 312.7C397.307 312.7 397.674 312.673 398.02 312.62C398.38 312.567 398.687 312.473 398.94 312.34C399.207 312.207 399.414 312.033 399.56 311.82C399.72 311.593 399.8 311.307 399.8 310.96C399.8 310.627 399.727 310.353 399.58 310.14C399.447 309.913 399.26 309.733 399.02 309.6C398.78 309.467 398.494 309.373 398.16 309.32C397.84 309.267 397.494 309.24 397.12 309.24H394.9V312.6ZM396.88 307.86C397.24 307.86 397.567 307.84 397.86 307.8C398.167 307.747 398.427 307.66 398.64 307.54C398.867 307.42 399.04 307.26 399.16 307.06C399.294 306.86 399.36 306.607 399.36 306.3C399.36 305.98 399.28 305.727 399.12 305.54C398.96 305.353 398.747 305.213 398.48 305.12C398.227 305.013 397.934 304.947 397.6 304.92C397.28 304.88 396.954 304.86 396.62 304.86C396.314 304.86 396 304.867 395.68 304.88C395.374 304.893 395.114 304.907 394.9 304.92V307.86H396.88ZM396.84 314.18C396.054 314.18 395.327 314.14 394.66 314.06C393.994 313.993 393.467 313.913 393.08 313.82V303.7C393.467 303.607 393.994 303.527 394.66 303.46C395.327 303.38 396.054 303.34 396.84 303.34C397.387 303.34 397.92 303.387 398.44 303.48C398.96 303.573 399.42 303.733 399.82 303.96C400.22 304.173 400.54 304.473 400.78 304.86C401.034 305.233 401.16 305.7 401.16 306.26C401.16 306.767 401.034 307.2 400.78 307.56C400.527 307.92 400.187 308.2 399.76 308.4C400.334 308.6 400.787 308.9 401.12 309.3C401.467 309.687 401.64 310.233 401.64 310.94C401.64 311.567 401.514 312.087 401.26 312.5C401.02 312.913 400.68 313.247 400.24 313.5C399.814 313.753 399.307 313.927 398.72 314.02C398.134 314.127 397.507 314.18 396.84 314.18ZM413.218 308.8C413.218 309.627 413.098 310.373 412.858 311.04C412.618 311.707 412.278 312.28 411.838 312.76C411.411 313.24 410.898 313.613 410.298 313.88C409.698 314.133 409.044 314.26 408.338 314.26C407.631 314.26 406.978 314.133 406.378 313.88C405.778 313.613 405.258 313.24 404.818 312.76C404.391 312.28 404.058 311.707 403.818 311.04C403.578 310.373 403.458 309.627 403.458 308.8C403.458 307.987 403.578 307.247 403.818 306.58C404.058 305.9 404.391 305.32 404.818 304.84C405.258 304.36 405.778 303.993 406.378 303.74C406.978 303.473 407.631 303.34 408.338 303.34C409.044 303.34 409.698 303.473 410.298 303.74C410.898 303.993 411.411 304.36 411.838 304.84C412.278 305.32 412.618 305.9 412.858 306.58C413.098 307.247 413.218 307.987 413.218 308.8ZM411.278 308.8C411.278 307.627 411.011 306.7 410.478 306.02C409.958 305.327 409.244 304.98 408.338 304.98C407.431 304.98 406.711 305.327 406.178 306.02C405.658 306.7 405.398 307.627 405.398 308.8C405.398 309.973 405.658 310.907 406.178 311.6C406.711 312.28 407.431 312.62 408.338 312.62C409.244 312.62 409.958 312.28 410.478 311.6C411.011 310.907 411.278 309.973 411.278 308.8ZM418.142 303.34C418.742 303.34 419.302 303.4 419.822 303.52C420.342 303.64 420.789 303.82 421.162 304.06C421.536 304.3 421.829 304.6 422.042 304.96C422.256 305.32 422.362 305.74 422.362 306.22C422.362 306.527 422.309 306.807 422.202 307.06C422.096 307.313 421.962 307.54 421.802 307.74C421.642 307.94 421.462 308.113 421.262 308.26C421.076 308.393 420.896 308.487 420.722 308.54C421.336 308.727 421.816 309.06 422.162 309.54C422.522 310.007 422.702 310.6 422.702 311.32C422.702 312.307 422.302 313.04 421.502 313.52C420.702 314 419.616 314.24 418.242 314.24C417.402 314.24 416.676 314.173 416.062 314.04C415.462 313.907 415.036 313.78 414.782 313.66L415.102 312.08C415.316 312.16 415.696 312.273 416.242 312.42C416.802 312.553 417.469 312.62 418.242 312.62C419.082 312.62 419.722 312.493 420.162 312.24C420.602 311.973 420.822 311.58 420.822 311.06C420.822 310.687 420.736 310.387 420.562 310.16C420.402 309.92 420.196 309.74 419.942 309.62C419.689 309.5 419.416 309.42 419.122 309.38C418.829 309.34 418.556 309.32 418.302 309.32H416.562V307.84H418.242C418.482 307.84 418.729 307.827 418.982 307.8C419.249 307.76 419.489 307.687 419.702 307.58C419.929 307.473 420.116 307.327 420.262 307.14C420.409 306.94 420.482 306.68 420.482 306.36C420.482 306.107 420.416 305.893 420.282 305.72C420.162 305.533 419.996 305.38 419.782 305.26C419.569 305.14 419.316 305.053 419.022 305C418.742 304.933 418.449 304.9 418.142 304.9C417.902 304.9 417.642 304.92 417.362 304.96C417.082 305 416.809 305.053 416.542 305.12C416.276 305.173 416.036 305.233 415.822 305.3C415.609 305.367 415.456 305.427 415.362 305.48L415.022 303.88C415.129 303.84 415.296 303.787 415.522 303.72C415.749 303.653 416.002 303.593 416.282 303.54C416.576 303.487 416.882 303.44 417.202 303.4C417.522 303.36 417.836 303.34 418.142 303.34ZM424.008 312.48H425.128C425.568 311.84 425.914 311.18 426.168 310.5C426.434 309.82 426.634 309.12 426.768 308.4C426.901 307.667 426.988 306.907 427.028 306.12C427.068 305.32 427.094 304.48 427.108 303.6H433.928V312.48H435.328V316.9H433.568V314H425.768V316.9H424.008V312.48ZM432.068 312.48V305.16H428.808C428.794 305.787 428.761 306.42 428.708 307.06C428.654 307.687 428.568 308.313 428.448 308.94C428.328 309.553 428.154 310.16 427.928 310.76C427.714 311.347 427.441 311.92 427.108 312.48H432.068ZM436.607 315.94C436.753 316.007 436.94 316.067 437.167 316.12C437.407 316.187 437.64 316.22 437.867 316.22C438.6 316.22 439.173 316.053 439.587 315.72C440 315.4 440.373 314.873 440.707 314.14C439.867 312.54 439.08 310.847 438.347 309.06C437.627 307.26 437.027 305.44 436.547 303.6H438.547C438.693 304.2 438.867 304.847 439.067 305.54C439.28 306.233 439.513 306.947 439.767 307.68C440.02 308.413 440.293 309.147 440.587 309.88C440.88 310.613 441.187 311.32 441.507 312C442.013 310.6 442.453 309.213 442.827 307.84C443.2 306.467 443.553 305.053 443.887 303.6H445.807C445.327 305.56 444.793 307.447 444.207 309.26C443.62 311.06 442.987 312.747 442.307 314.32C442.04 314.92 441.76 315.433 441.467 315.86C441.187 316.3 440.873 316.66 440.527 316.94C440.18 317.22 439.787 317.427 439.347 317.56C438.92 317.693 438.433 317.76 437.887 317.76C437.74 317.76 437.587 317.747 437.427 317.72C437.267 317.707 437.107 317.68 436.947 317.64C436.8 317.613 436.66 317.58 436.527 317.54C436.407 317.5 436.32 317.467 436.267 317.44L436.607 315.94ZM454.242 314C454.095 313.707 453.915 313.38 453.702 313.02C453.489 312.66 453.255 312.293 453.002 311.92C452.749 311.533 452.489 311.153 452.222 310.78C451.955 310.407 451.695 310.053 451.442 309.72C451.189 310.053 450.929 310.413 450.662 310.8C450.395 311.173 450.135 311.553 449.882 311.94C449.642 312.313 449.415 312.68 449.202 313.04C448.989 313.4 448.809 313.72 448.662 314H446.742C447.209 313.093 447.762 312.173 448.402 311.24C449.055 310.293 449.702 309.393 450.342 308.54L446.902 303.6H449.002L451.482 307.24L453.982 303.6H455.962L452.602 308.42C453.242 309.287 453.895 310.207 454.562 311.18C455.242 312.14 455.815 313.08 456.282 314H454.242ZM461.757 312.66C462.197 312.66 462.583 312.653 462.917 312.64C463.263 312.613 463.55 312.573 463.777 312.52V309.42C463.643 309.353 463.423 309.3 463.117 309.26C462.823 309.207 462.463 309.18 462.037 309.18C461.757 309.18 461.457 309.2 461.137 309.24C460.83 309.28 460.543 309.367 460.277 309.5C460.023 309.62 459.81 309.793 459.637 310.02C459.463 310.233 459.377 310.52 459.377 310.88C459.377 311.547 459.59 312.013 460.017 312.28C460.443 312.533 461.023 312.66 461.757 312.66ZM461.597 303.34C462.343 303.34 462.97 303.44 463.477 303.64C463.997 303.827 464.41 304.1 464.717 304.46C465.037 304.807 465.263 305.227 465.397 305.72C465.53 306.2 465.597 306.733 465.597 307.32V313.82C465.437 313.847 465.21 313.887 464.917 313.94C464.637 313.98 464.317 314.02 463.957 314.06C463.597 314.1 463.203 314.133 462.777 314.16C462.363 314.2 461.95 314.22 461.537 314.22C460.95 314.22 460.41 314.16 459.917 314.04C459.423 313.92 458.997 313.733 458.637 313.48C458.277 313.213 457.997 312.867 457.797 312.44C457.597 312.013 457.497 311.5 457.497 310.9C457.497 310.327 457.61 309.833 457.837 309.42C458.077 309.007 458.397 308.673 458.797 308.42C459.197 308.167 459.663 307.98 460.197 307.86C460.73 307.74 461.29 307.68 461.877 307.68C462.063 307.68 462.257 307.693 462.457 307.72C462.657 307.733 462.843 307.76 463.017 307.8C463.203 307.827 463.363 307.853 463.497 307.88C463.63 307.907 463.723 307.927 463.777 307.94V307.42C463.777 307.113 463.743 306.813 463.677 306.52C463.61 306.213 463.49 305.947 463.317 305.72C463.143 305.48 462.903 305.293 462.597 305.16C462.303 305.013 461.917 304.94 461.437 304.94C460.823 304.94 460.283 304.987 459.817 305.08C459.363 305.16 459.023 305.247 458.797 305.34L458.577 303.8C458.817 303.693 459.217 303.593 459.777 303.5C460.337 303.393 460.943 303.34 461.597 303.34Z" fill="url(#paint3_linear_1726_6154)"/>
<g filter="url(#filter2_d_1726_6154)">
<path d="M118.029 390.534H485.869L479.702 399.99H118.029V390.534Z" fill="url(#paint4_linear_1726_6154)"/>
<path d="M118.502 391.007H484.996L479.446 399.517H118.502V391.007Z" stroke="url(#paint5_linear_1726_6154)" stroke-width="0.945603"/>
</g>
<g filter="url(#filter3_d_1726_6154)">
<path d="M128.903 401.881H119.36L49 470.91L61.2928 468.479L96.7529 432.506L128.903 401.881Z" fill="url(#paint6_linear_1726_6154)"/>
<path d="M128.903 401.881H119.36L49 470.91L61.2928 468.479L96.7529 432.506L128.903 401.881Z" stroke="url(#paint7_linear_1726_6154)" stroke-width="4.72801"/>
</g>
<g filter="url(#filter4_d_1726_6154)">
<rect x="477.358" y="390.534" width="10.4016" height="73.757" fill="url(#paint8_linear_1726_6154)"/>
</g>
<path d="M504.308 375.405V367.367L488.705 385.806V394.79L498.161 382.497L504.308 375.405Z" fill="url(#paint9_linear_1726_6154)" stroke="url(#paint10_linear_1726_6154)" stroke-width="4.72801"/>
<g filter="url(#filter5_d_1726_6154)">
<path d="M478.777 400.463L425.35 469.492" stroke="url(#paint11_linear_1726_6154)" stroke-width="10.4016"/>
</g>
<rect x="148" y="174" width="105" height="69" rx="15.5156" fill="#1F2431"/>
<rect x="148" y="174" width="105" height="69" rx="15.5156" fill="url(#paint12_linear_1726_6154)"/>
<path d="M187.216 220C187.344 218.293 187.643 216.501 188.112 214.624C188.603 212.725 189.2 210.891 189.904 209.12C190.608 207.328 191.376 205.675 192.208 204.16C193.061 202.624 193.893 201.376 194.704 200.416H183.92V197.824H198.032V200.288C197.328 201.099 196.549 202.219 195.696 203.648C194.843 205.056 194.032 206.645 193.264 208.416C192.517 210.165 191.867 212.043 191.312 214.048C190.779 216.032 190.448 218.016 190.32 220H187.216ZM201.663 208.896C201.663 205.184 202.313 202.325 203.615 200.32C204.937 198.315 206.761 197.312 209.087 197.312C211.412 197.312 213.225 198.315 214.527 200.32C215.849 202.325 216.51 205.184 216.51 208.896C216.51 212.608 215.849 215.467 214.527 217.472C213.225 219.477 211.412 220.48 209.087 220.48C206.761 220.48 204.937 219.477 203.615 217.472C202.313 215.467 201.663 212.608 201.663 208.896ZM213.375 208.896C213.375 207.68 213.3 206.528 213.151 205.44C213.023 204.352 212.788 203.403 212.447 202.592C212.127 201.781 211.689 201.141 211.135 200.672C210.58 200.181 209.897 199.936 209.087 199.936C208.276 199.936 207.593 200.181 207.039 200.672C206.484 201.141 206.036 201.781 205.695 202.592C205.375 203.403 205.14 204.352 204.991 205.44C204.863 206.528 204.799 207.68 204.799 208.896C204.799 210.112 204.863 211.264 204.991 212.352C205.14 213.44 205.375 214.389 205.695 215.2C206.036 216.011 206.484 216.661 207.039 217.152C207.593 217.621 208.276 217.856 209.087 217.856C209.897 217.856 210.58 217.621 211.135 217.152C211.689 216.661 212.127 216.011 212.447 215.2C212.788 214.389 213.023 213.44 213.151 212.352C213.3 211.264 213.375 210.112 213.375 208.896Z" fill="url(#paint13_linear_1726_6154)"/>
<rect x="148" y="174" width="105" height="69" rx="15.5156" stroke="url(#paint14_linear_1726_6154)" stroke-width="1.55156"/>
<path d="M182.385 410.146C185.054 410.146 188.029 409.879 190.345 409.446C191.5 409.23 192.514 408.968 193.249 408.667C193.614 408.518 193.937 408.348 194.178 408.152C194.41 407.962 194.64 407.682 194.64 407.309C194.64 406.944 194.417 406.659 194.192 406.459C193.956 406.25 193.637 406.061 193.272 405.888C192.538 405.541 191.525 405.218 190.368 404.942C188.049 404.388 185.067 404 182.385 404C179.703 404 176.934 404.388 174.827 404.944C173.776 405.222 172.868 405.547 172.212 405.899C171.885 406.074 171.599 406.267 171.388 406.481C171.182 406.691 171 406.97 171 407.309C171 407.654 171.187 407.93 171.402 408.131C171.618 408.333 171.909 408.507 172.236 408.659C172.894 408.964 173.803 409.227 174.852 409.444C176.955 409.879 179.716 410.146 182.385 410.146Z" fill="#1F2431" stroke="url(#paint15_linear_1726_6154)" stroke-width="0.945603"/>
<path d="M170.527 406.852V413.872C170.527 414.568 171.033 415.163 171.722 415.271C180.215 416.606 185.192 416.716 193.929 415.276C194.613 415.163 195.113 414.571 195.113 413.88V406.827C195.113 406.223 194.728 405.68 194.15 405.488C185.439 402.594 179.298 403.166 171.532 405.498C170.933 405.678 170.527 406.23 170.527 406.852Z" stroke="url(#paint16_linear_1726_6154)" stroke-width="0.945603"/>
<path d="M289.385 410.146C292.054 410.146 295.029 409.879 297.345 409.446C298.5 409.23 299.514 408.968 300.249 408.667C300.614 408.518 300.937 408.348 301.178 408.152C301.41 407.962 301.64 407.682 301.64 407.309C301.64 406.944 301.417 406.659 301.192 406.459C300.956 406.25 300.637 406.061 300.272 405.888C299.538 405.541 298.525 405.218 297.368 404.942C295.049 404.388 292.067 404 289.385 404C286.703 404 283.934 404.388 281.827 404.944C280.776 405.222 279.868 405.547 279.212 405.899C278.885 406.074 278.599 406.267 278.388 406.481C278.182 406.691 278 406.97 278 407.309C278 407.654 278.187 407.93 278.402 408.131C278.618 408.333 278.909 408.507 279.236 408.659C279.894 408.964 280.803 409.227 281.852 409.444C283.955 409.879 286.716 410.146 289.385 410.146Z" fill="#1F2431" stroke="url(#paint17_linear_1726_6154)" stroke-width="0.945603"/>
<path d="M277.527 406.852V413.872C277.527 414.568 278.033 415.163 278.722 415.271C287.215 416.606 292.192 416.716 300.929 415.276C301.613 415.163 302.113 414.571 302.113 413.88V406.827C302.113 406.223 301.728 405.68 301.15 405.488C292.439 402.594 286.298 403.166 278.532 405.498C277.933 405.678 277.527 406.23 277.527 406.852Z" stroke="url(#paint18_linear_1726_6154)" stroke-width="0.945603"/>
<path d="M396.385 410.146C399.054 410.146 402.029 409.879 404.345 409.446C405.5 409.23 406.514 408.968 407.249 408.667C407.614 408.518 407.937 408.348 408.178 408.152C408.41 407.962 408.64 407.682 408.64 407.309C408.64 406.944 408.417 406.659 408.192 406.459C407.956 406.25 407.637 406.061 407.272 405.888C406.538 405.541 405.525 405.218 404.368 404.942C402.049 404.388 399.067 404 396.385 404C393.703 404 390.934 404.388 388.827 404.944C387.776 405.222 386.868 405.547 386.212 405.899C385.885 406.074 385.599 406.267 385.388 406.481C385.182 406.691 385 406.97 385 407.309C385 407.654 385.187 407.93 385.402 408.131C385.618 408.333 385.909 408.507 386.236 408.659C386.894 408.964 387.803 409.227 388.852 409.444C390.955 409.879 393.716 410.146 396.385 410.146Z" fill="#1F2431" stroke="url(#paint19_linear_1726_6154)" stroke-width="0.945603"/>
<path d="M384.527 406.852V413.872C384.527 414.568 385.033 415.163 385.722 415.271C394.215 416.606 399.192 416.716 407.929 415.276C408.613 415.163 409.113 414.571 409.113 413.88V406.827C409.113 406.223 408.728 405.68 408.15 405.488C399.439 402.594 393.298 403.166 385.532 405.498C384.933 405.678 384.527 406.23 384.527 406.852Z" stroke="url(#paint20_linear_1726_6154)" stroke-width="0.945603"/>
<rect x="148" y="295" width="105" height="69" rx="15.5156" fill="#1F2431"/>
<rect x="148" y="295" width="105" height="69" rx="15.5156" fill="url(#paint21_linear_1726_6154)"/>
<path d="M196.944 324.488C196.944 325.256 196.784 326.003 196.464 326.728C196.165 327.432 195.76 328.136 195.248 328.84C194.736 329.523 194.16 330.205 193.52 330.888C192.88 331.549 192.24 332.2 191.6 332.84C191.237 333.203 190.811 333.629 190.32 334.12C189.851 334.611 189.403 335.123 188.976 335.656C188.549 336.189 188.187 336.701 187.888 337.192C187.611 337.683 187.472 338.109 187.472 338.472H197.68V341H184.24C184.219 340.872 184.208 340.744 184.208 340.616C184.208 340.488 184.208 340.371 184.208 340.264C184.208 339.261 184.368 338.333 184.688 337.48C185.029 336.605 185.467 335.784 186 335.016C186.533 334.248 187.131 333.523 187.792 332.84C188.453 332.157 189.104 331.496 189.744 330.856C190.277 330.344 190.779 329.843 191.248 329.352C191.739 328.84 192.165 328.339 192.528 327.848C192.912 327.336 193.211 326.813 193.424 326.28C193.659 325.747 193.776 325.181 193.776 324.584C193.776 323.944 193.669 323.4 193.456 322.952C193.264 322.504 192.997 322.131 192.656 321.832C192.315 321.533 191.909 321.32 191.44 321.192C190.992 321.043 190.512 320.968 190 320.968C189.381 320.968 188.816 321.053 188.304 321.224C187.792 321.395 187.333 321.597 186.928 321.832C186.523 322.045 186.181 322.28 185.904 322.536C185.627 322.771 185.413 322.952 185.264 323.08L183.792 320.968C183.984 320.755 184.272 320.499 184.656 320.2C185.04 319.88 185.499 319.581 186.032 319.304C186.565 319.027 187.163 318.792 187.824 318.6C188.485 318.408 189.2 318.312 189.968 318.312C192.293 318.312 194.032 318.856 195.184 319.944C196.357 321.011 196.944 322.525 196.944 324.488ZM206.431 327.368C209.652 327.496 212.009 328.2 213.503 329.48C215.017 330.76 215.775 332.499 215.775 334.696C215.775 335.677 215.604 336.584 215.263 337.416C214.943 338.248 214.441 338.963 213.759 339.56C213.097 340.157 212.255 340.627 211.231 340.968C210.207 341.309 208.991 341.48 207.583 341.48C207.028 341.48 206.463 341.437 205.887 341.352C205.311 341.267 204.777 341.16 204.286 341.032C203.796 340.904 203.359 340.776 202.975 340.648C202.591 340.52 202.313 340.413 202.143 340.328L202.719 337.736C203.081 337.907 203.668 338.131 204.479 338.408C205.311 338.685 206.324 338.824 207.519 338.824C208.479 338.824 209.279 338.717 209.919 338.504C210.58 338.291 211.113 338.003 211.519 337.64C211.924 337.277 212.212 336.861 212.383 336.392C212.575 335.901 212.671 335.389 212.671 334.856C212.671 334.045 212.532 333.331 212.255 332.712C211.977 332.072 211.487 331.539 210.783 331.112C210.079 330.685 209.14 330.365 207.967 330.152C206.793 329.917 205.311 329.8 203.519 329.8C203.647 328.755 203.743 327.773 203.807 326.856C203.892 325.939 203.967 325.043 204.031 324.168C204.095 323.293 204.148 322.429 204.191 321.576C204.233 320.701 204.276 319.784 204.319 318.824H215.007V321.352H206.911C206.889 321.672 206.857 322.109 206.815 322.664C206.772 323.197 206.729 323.763 206.687 324.36C206.644 324.936 206.601 325.501 206.559 326.056C206.516 326.611 206.473 327.048 206.431 327.368Z" fill="url(#paint22_linear_1726_6154)"/>
<rect x="148" y="295" width="105" height="69" rx="15.5156" stroke="url(#paint23_linear_1726_6154)" stroke-width="1.55156"/>
<path d="M282.908 230.102C282.675 230.625 282.432 231.082 282.18 231.474C281.937 231.857 281.667 232.174 281.368 232.426C281.079 232.678 280.752 232.865 280.388 232.986C280.033 233.107 279.632 233.168 279.184 233.168C278.913 233.168 278.629 233.14 278.33 233.084C278.041 233.028 277.803 232.958 277.616 232.874L277.938 231.418C278.115 231.493 278.302 231.553 278.498 231.6C278.694 231.637 278.895 231.656 279.1 231.656C279.529 231.656 279.884 231.558 280.164 231.362C280.453 231.166 280.719 230.844 280.962 230.396C280.57 229.761 280.192 229.122 279.828 228.478C279.473 227.834 279.142 227.209 278.834 226.602C278.526 225.986 278.241 225.398 277.98 224.838C277.728 224.278 277.499 223.765 277.294 223.298H279.268C279.417 223.681 279.585 224.091 279.772 224.53C279.968 224.969 280.173 225.421 280.388 225.888C280.612 226.355 280.845 226.831 281.088 227.316C281.331 227.801 281.573 228.287 281.816 228.772C282.152 227.941 282.474 227.055 282.782 226.112C283.09 225.169 283.379 224.231 283.65 223.298H285.554C285.33 223.989 285.106 224.642 284.882 225.258C284.658 225.865 284.434 226.448 284.21 227.008C283.995 227.559 283.776 228.091 283.552 228.604C283.337 229.108 283.123 229.607 282.908 230.102ZM289.398 233.14C289.128 233.14 288.852 233.131 288.572 233.112C288.292 233.093 288.022 233.07 287.76 233.042C287.508 233.014 287.27 232.986 287.046 232.958C286.822 232.921 286.636 232.883 286.486 232.846V225.776C286.636 225.739 286.822 225.706 287.046 225.678C287.27 225.641 287.508 225.613 287.76 225.594C288.022 225.566 288.292 225.547 288.572 225.538C288.852 225.519 289.128 225.51 289.398 225.51C290.388 225.51 291.158 225.692 291.708 226.056C292.259 226.411 292.534 226.91 292.534 227.554C292.534 227.89 292.45 228.189 292.282 228.45C292.114 228.711 291.895 228.907 291.624 229.038C291.96 229.169 292.25 229.374 292.492 229.654C292.735 229.934 292.856 230.331 292.856 230.844C292.856 231.581 292.567 232.151 291.988 232.552C291.41 232.944 290.546 233.14 289.398 233.14ZM289.44 228.618C289.86 228.618 290.206 228.557 290.476 228.436C290.756 228.315 290.896 228.072 290.896 227.708C290.896 227.531 290.85 227.386 290.756 227.274C290.672 227.162 290.556 227.073 290.406 227.008C290.257 226.943 290.084 226.901 289.888 226.882C289.692 226.854 289.487 226.84 289.272 226.84C289.104 226.84 288.908 226.845 288.684 226.854C288.47 226.863 288.297 226.877 288.166 226.896V228.618H289.44ZM288.166 231.74C288.278 231.759 288.46 231.777 288.712 231.796C288.974 231.805 289.216 231.81 289.44 231.81C289.944 231.81 290.36 231.74 290.686 231.6C291.022 231.46 291.19 231.194 291.19 230.802C291.19 230.419 291.036 230.158 290.728 230.018C290.43 229.869 290.038 229.794 289.552 229.794H288.166V231.74ZM297.327 227.078C297.318 227.489 297.304 227.918 297.285 228.366C297.266 228.805 297.22 229.239 297.145 229.668C297.08 230.097 296.972 230.508 296.823 230.9C296.674 231.292 296.464 231.647 296.193 231.964C295.932 232.272 295.6 232.533 295.199 232.748C294.807 232.953 294.326 233.084 293.757 233.14L293.519 231.726C293.995 231.633 294.364 231.483 294.625 231.278C294.886 231.063 295.087 230.793 295.227 230.466C295.339 230.223 295.423 229.948 295.479 229.64C295.544 229.332 295.591 229.01 295.619 228.674C295.656 228.329 295.68 227.979 295.689 227.624C295.698 227.269 295.703 226.924 295.703 226.588V225.678H300.883V233H299.189V227.078H297.327ZM305.619 231.81C306.142 231.81 306.538 231.782 306.809 231.726V229.85C306.716 229.822 306.58 229.794 306.403 229.766C306.226 229.738 306.03 229.724 305.815 229.724C305.628 229.724 305.437 229.738 305.241 229.766C305.054 229.794 304.882 229.845 304.723 229.92C304.574 229.995 304.452 230.102 304.359 230.242C304.266 230.373 304.219 230.541 304.219 230.746C304.219 231.147 304.345 231.427 304.597 231.586C304.849 231.735 305.19 231.81 305.619 231.81ZM305.479 225.496C306.039 225.496 306.51 225.566 306.893 225.706C307.276 225.846 307.579 226.042 307.803 226.294C308.036 226.546 308.2 226.854 308.293 227.218C308.396 227.573 308.447 227.965 308.447 228.394V232.832C308.186 232.888 307.789 232.953 307.257 233.028C306.734 233.112 306.142 233.154 305.479 233.154C305.04 233.154 304.639 233.112 304.275 233.028C303.911 232.944 303.598 232.809 303.337 232.622C303.085 232.435 302.884 232.193 302.735 231.894C302.595 231.595 302.525 231.227 302.525 230.788C302.525 230.368 302.604 230.013 302.763 229.724C302.931 229.435 303.155 229.201 303.435 229.024C303.715 228.837 304.037 228.707 304.401 228.632C304.774 228.548 305.162 228.506 305.563 228.506C305.75 228.506 305.946 228.52 306.151 228.548C306.356 228.567 306.576 228.604 306.809 228.66V228.38C306.809 228.184 306.786 227.997 306.739 227.82C306.692 227.643 306.608 227.489 306.487 227.358C306.375 227.218 306.221 227.111 306.025 227.036C305.838 226.961 305.6 226.924 305.311 226.924C304.919 226.924 304.56 226.952 304.233 227.008C303.906 227.064 303.64 227.129 303.435 227.204L303.225 225.832C303.44 225.757 303.752 225.683 304.163 225.608C304.574 225.533 305.012 225.496 305.479 225.496ZM309.583 233C310.013 232.281 310.503 231.591 311.053 230.928C311.604 230.256 312.159 229.635 312.719 229.066C312.187 228.497 311.669 227.918 311.165 227.33C310.661 226.733 310.218 226.182 309.835 225.678H311.781C312.071 226.07 312.407 226.504 312.789 226.98C313.181 227.456 313.662 228.039 314.231 228.73V225.678H315.869V228.73C316.457 228.049 316.943 227.465 317.325 226.98C317.708 226.495 318.044 226.061 318.333 225.678H320.251C319.897 226.182 319.467 226.728 318.963 227.316C318.469 227.904 317.946 228.483 317.395 229.052C318.011 229.668 318.576 230.298 319.089 230.942C319.612 231.586 320.093 232.272 320.531 233H318.641C318.455 232.72 318.249 232.426 318.025 232.118C317.811 231.81 317.582 231.507 317.339 231.208C317.106 230.9 316.863 230.606 316.611 230.326C316.359 230.046 316.112 229.785 315.869 229.542V233H314.231V229.542C313.989 229.794 313.741 230.065 313.489 230.354C313.237 230.643 312.99 230.942 312.747 231.25C312.514 231.549 312.285 231.847 312.061 232.146C311.847 232.445 311.651 232.729 311.473 233H309.583ZM327.878 233H326.184V229.934H323.426V233H321.732V225.678H323.426V228.534H326.184V225.678H327.878V233ZM336.443 225.678V233H334.763C334.763 232.468 334.763 231.941 334.763 231.418C334.772 230.895 334.777 230.41 334.777 229.962C334.786 229.514 334.791 229.127 334.791 228.8C334.8 228.464 334.805 228.217 334.805 228.058C334.525 228.422 334.236 228.823 333.937 229.262C333.638 229.701 333.34 230.139 333.041 230.578C332.752 231.017 332.476 231.446 332.215 231.866C331.954 232.286 331.725 232.664 331.529 233H330.031V225.678H331.697C331.697 226.219 331.692 226.737 331.683 227.232C331.683 227.717 331.683 228.161 331.683 228.562C331.683 228.963 331.678 229.313 331.669 229.612C331.669 229.911 331.669 230.139 331.669 230.298C331.93 229.897 332.201 229.486 332.481 229.066C332.761 228.637 333.041 228.221 333.321 227.82C333.61 227.409 333.895 227.022 334.175 226.658C334.455 226.294 334.726 225.967 334.987 225.678H336.443ZM344.119 227.092H341.753V233H340.059V227.092H337.707V225.678H344.119V227.092ZM347.079 228.38C347.219 228.343 347.424 228.31 347.695 228.282C347.965 228.254 348.236 228.24 348.507 228.24C348.927 228.24 349.319 228.287 349.683 228.38C350.056 228.473 350.378 228.623 350.649 228.828C350.919 229.024 351.134 229.281 351.293 229.598C351.451 229.906 351.531 230.275 351.531 230.704C351.531 231.143 351.456 231.516 351.307 231.824C351.157 232.132 350.943 232.384 350.663 232.58C350.383 232.776 350.047 232.921 349.655 233.014C349.272 233.107 348.843 233.154 348.367 233.154C347.816 233.154 347.303 233.126 346.827 233.07C346.351 233.014 345.87 232.93 345.385 232.818V225.678H347.079V228.38ZM348.325 231.824C348.801 231.824 349.169 231.735 349.431 231.558C349.701 231.371 349.837 231.077 349.837 230.676C349.837 230.471 349.79 230.298 349.697 230.158C349.613 230.018 349.496 229.906 349.347 229.822C349.207 229.729 349.039 229.663 348.843 229.626C348.647 229.589 348.441 229.57 348.227 229.57C348.031 229.57 347.825 229.579 347.611 229.598C347.396 229.607 347.219 229.631 347.079 229.668V231.754C347.2 231.773 347.377 231.791 347.611 231.81C347.853 231.819 348.091 231.824 348.325 231.824Z" fill="url(#paint24_linear_1726_6154)"/>
<rect x="270" y="209" width="89" height="37" rx="9" stroke="url(#paint25_linear_1726_6154)" stroke-width="2"/>
<path d="M391.104 228.142C391.104 228.674 391.169 229.159 391.3 229.598C391.431 230.027 391.617 230.396 391.86 230.704C392.112 231.003 392.415 231.236 392.77 231.404C393.125 231.572 393.526 231.656 393.974 231.656C394.413 231.656 394.809 231.572 395.164 231.404C395.519 231.236 395.817 231.003 396.06 230.704C396.312 230.396 396.503 230.027 396.634 229.598C396.765 229.159 396.83 228.674 396.83 228.142C396.83 227.61 396.765 227.129 396.634 226.7C396.503 226.261 396.312 225.893 396.06 225.594C395.817 225.286 395.519 225.048 395.164 224.88C394.809 224.712 394.413 224.628 393.974 224.628C393.526 224.628 393.125 224.712 392.77 224.88C392.415 225.048 392.112 225.286 391.86 225.594C391.617 225.902 391.431 226.271 391.3 226.7C391.169 227.129 391.104 227.61 391.104 228.142ZM398.678 228.142C398.678 228.973 398.552 229.705 398.3 230.34C398.057 230.975 397.721 231.507 397.292 231.936C396.872 232.356 396.377 232.673 395.808 232.888C395.239 233.103 394.632 233.21 393.988 233.21C393.344 233.21 392.733 233.103 392.154 232.888C391.585 232.673 391.085 232.356 390.656 231.936C390.236 231.507 389.9 230.975 389.648 230.34C389.396 229.705 389.27 228.973 389.27 228.142C389.27 227.311 389.396 226.583 389.648 225.958C389.9 225.323 390.241 224.791 390.67 224.362C391.109 223.933 391.613 223.611 392.182 223.396C392.751 223.181 393.353 223.074 393.988 223.074C394.623 223.074 395.225 223.181 395.794 223.396C396.363 223.611 396.858 223.933 397.278 224.362C397.707 224.791 398.048 225.323 398.3 225.958C398.552 226.583 398.678 227.311 398.678 228.142ZM400.123 229.346C400.123 228.805 400.207 228.301 400.375 227.834C400.543 227.358 400.781 226.947 401.089 226.602C401.407 226.257 401.789 225.986 402.237 225.79C402.685 225.594 403.189 225.496 403.749 225.496C404.44 225.496 405.093 225.622 405.709 225.874L405.345 227.26C405.149 227.176 404.925 227.106 404.673 227.05C404.431 226.994 404.169 226.966 403.889 226.966C403.227 226.966 402.723 227.176 402.377 227.596C402.032 228.007 401.859 228.59 401.859 229.346C401.859 230.074 402.023 230.653 402.349 231.082C402.676 231.502 403.227 231.712 404.001 231.712C404.291 231.712 404.575 231.684 404.855 231.628C405.135 231.572 405.378 231.502 405.583 231.418L405.821 232.818C405.635 232.911 405.35 232.995 404.967 233.07C404.594 233.145 404.207 233.182 403.805 233.182C403.18 233.182 402.634 233.089 402.167 232.902C401.71 232.706 401.327 232.44 401.019 232.104C400.721 231.759 400.497 231.353 400.347 230.886C400.198 230.41 400.123 229.897 400.123 229.346ZM413.234 225.678C412.478 228.459 411.6 230.979 410.602 233.238C410.415 233.658 410.224 234.017 410.028 234.316C409.832 234.615 409.612 234.862 409.37 235.058C409.127 235.254 408.856 235.394 408.558 235.478C408.259 235.571 407.914 235.618 407.522 235.618C407.26 235.618 406.999 235.59 406.738 235.534C406.486 235.478 406.294 235.417 406.164 235.352L406.472 233.994C406.808 234.125 407.139 234.19 407.466 234.19C407.904 234.19 408.245 234.083 408.488 233.868C408.74 233.663 408.959 233.341 409.146 232.902C408.614 231.875 408.1 230.755 407.606 229.542C407.12 228.329 406.686 227.041 406.304 225.678H408.11C408.203 226.07 408.315 226.495 408.446 226.952C408.586 227.409 408.735 227.876 408.894 228.352C409.052 228.819 409.22 229.285 409.398 229.752C409.575 230.219 409.752 230.653 409.93 231.054C410.228 230.223 410.508 229.341 410.77 228.408C411.031 227.465 411.269 226.555 411.484 225.678H413.234ZM414.515 225.678H416.209V231.614H418.505V225.678H420.199V231.614H422.495V225.678H424.189V233H414.515V225.678ZM432.754 225.678V233H431.074C431.074 232.468 431.074 231.941 431.074 231.418C431.083 230.895 431.088 230.41 431.088 229.962C431.097 229.514 431.102 229.127 431.102 228.8C431.111 228.464 431.116 228.217 431.116 228.058C430.836 228.422 430.546 228.823 430.248 229.262C429.949 229.701 429.65 230.139 429.352 230.578C429.062 231.017 428.787 231.446 428.526 231.866C428.264 232.286 428.036 232.664 427.84 233H426.342V225.678H428.008C428.008 226.219 428.003 226.737 427.994 227.232C427.994 227.717 427.994 228.161 427.994 228.562C427.994 228.963 427.989 229.313 427.98 229.612C427.98 229.911 427.98 230.139 427.98 230.298C428.241 229.897 428.512 229.486 428.792 229.066C429.072 228.637 429.352 228.221 429.632 227.82C429.921 227.409 430.206 227.022 430.486 226.658C430.766 226.294 431.036 225.967 431.298 225.678H432.754ZM440.43 227.092H438.064V233H436.37V227.092H434.018V225.678H440.43V227.092ZM443.389 228.38C443.529 228.343 443.735 228.31 444.005 228.282C444.276 228.254 444.547 228.24 444.817 228.24C445.237 228.24 445.629 228.287 445.993 228.38C446.367 228.473 446.689 228.623 446.959 228.828C447.23 229.024 447.445 229.281 447.603 229.598C447.762 229.906 447.841 230.275 447.841 230.704C447.841 231.143 447.767 231.516 447.617 231.824C447.468 232.132 447.253 232.384 446.973 232.58C446.693 232.776 446.357 232.921 445.965 233.014C445.583 233.107 445.153 233.154 444.677 233.154C444.127 233.154 443.613 233.126 443.137 233.07C442.661 233.014 442.181 232.93 441.695 232.818V225.678H443.389V228.38ZM444.635 231.824C445.111 231.824 445.48 231.735 445.741 231.558C446.012 231.371 446.147 231.077 446.147 230.676C446.147 230.471 446.101 230.298 446.007 230.158C445.923 230.018 445.807 229.906 445.657 229.822C445.517 229.729 445.349 229.663 445.153 229.626C444.957 229.589 444.752 229.57 444.537 229.57C444.341 229.57 444.136 229.579 443.921 229.598C443.707 229.607 443.529 229.631 443.389 229.668V231.754C443.511 231.773 443.688 231.791 443.921 231.81C444.164 231.819 444.402 231.824 444.635 231.824Z" fill="url(#paint26_linear_1726_6154)"/>
<rect x="374" y="209" width="89" height="37" rx="9" stroke="url(#paint27_linear_1726_6154)" stroke-width="2"/>
<circle cx="292.238" cy="351.238" r="12.7656" fill="url(#paint28_radial_1726_6154)" stroke="url(#paint29_linear_1726_6154)" stroke-width="0.945603"/>
<circle cx="366.238" cy="351.238" r="12.7656" fill="url(#paint30_radial_1726_6154)" stroke="url(#paint31_linear_1726_6154)" stroke-width="0.945603"/>
<circle cx="442.238" cy="351.238" r="12.7656" fill="url(#paint32_radial_1726_6154)" stroke="url(#paint33_linear_1726_6154)" stroke-width="0.945603"/>
<path d="M291.46 68.12C291.18 68.12 290.873 68.1133 290.54 68.1C290.22 68.0867 289.893 68.0667 289.56 68.04C289.24 68.0133 288.92 67.98 288.6 67.94C288.28 67.9 287.987 67.8467 287.72 67.78V54.34C287.987 54.2733 288.28 54.22 288.6 54.18C288.92 54.14 289.24 54.1067 289.56 54.08C289.893 54.0533 290.22 54.0333 290.54 54.02C290.86 54.0067 291.16 54 291.44 54C292.24 54 292.987 54.06 293.68 54.18C294.387 54.3 294.993 54.5067 295.5 54.8C296.02 55.08 296.427 55.4533 296.72 55.92C297.013 56.3867 297.16 56.96 297.16 57.64C297.16 58.4 296.98 59.0267 296.62 59.52C296.26 60 295.78 60.36 295.18 60.6C295.993 60.84 296.64 61.22 297.12 61.74C297.6 62.26 297.84 62.9933 297.84 63.94C297.84 65.3267 297.327 66.3733 296.3 67.08C295.287 67.7733 293.673 68.12 291.46 68.12ZM289.64 61.54V66.42C289.787 66.4333 289.96 66.4467 290.16 66.46C290.333 66.4733 290.533 66.4867 290.76 66.5C291 66.5 291.273 66.5 291.58 66.5C292.153 66.5 292.693 66.4667 293.2 66.4C293.72 66.32 294.173 66.1867 294.56 66C294.947 65.8133 295.253 65.5533 295.48 65.22C295.72 64.8867 295.84 64.4667 295.84 63.96C295.84 63.5067 295.753 63.1267 295.58 62.82C295.407 62.5 295.153 62.2467 294.82 62.06C294.5 61.8733 294.113 61.74 293.66 61.66C293.207 61.58 292.7 61.54 292.14 61.54H289.64ZM289.64 59.98H291.68C292.16 59.98 292.613 59.9467 293.04 59.88C293.467 59.8133 293.833 59.6933 294.14 59.52C294.46 59.3467 294.707 59.12 294.88 58.84C295.067 58.56 295.16 58.2067 295.16 57.78C295.16 57.38 295.067 57.0467 294.88 56.78C294.693 56.5 294.433 56.28 294.1 56.12C293.78 55.9467 293.4 55.82 292.96 55.74C292.52 55.66 292.053 55.62 291.56 55.62C291.067 55.62 290.68 55.6267 290.4 55.64C290.12 55.6533 289.867 55.6733 289.64 55.7V59.98ZM304.072 59.16C304.072 59.6 304.058 60.0733 304.032 60.58C304.018 61.0733 303.985 61.5733 303.932 62.08C303.878 62.5733 303.805 63.0667 303.712 63.56C303.618 64.04 303.498 64.4933 303.352 64.92C303.205 65.3467 303.018 65.7467 302.792 66.12C302.578 66.4933 302.312 66.8267 301.992 67.12C301.672 67.4 301.298 67.64 300.872 67.84C300.445 68.0267 299.945 68.1467 299.372 68.2L299.112 66.64C299.765 66.5067 300.278 66.26 300.652 65.9C301.038 65.54 301.345 65.1 301.572 64.58C301.772 64.1267 301.918 63.6133 302.012 63.04C302.105 62.4667 302.172 61.8733 302.212 61.26C302.252 60.6333 302.272 60.0067 302.272 59.38C302.285 58.7533 302.292 58.16 302.292 57.6H309.212V68H307.352V59.16H304.072ZM315.925 66.66C316.365 66.66 316.751 66.6533 317.085 66.64C317.431 66.6133 317.718 66.5733 317.945 66.52V63.42C317.811 63.3533 317.591 63.3 317.285 63.26C316.991 63.2067 316.631 63.18 316.205 63.18C315.925 63.18 315.625 63.2 315.305 63.24C314.998 63.28 314.711 63.3667 314.445 63.5C314.191 63.62 313.978 63.7933 313.805 64.02C313.631 64.2333 313.545 64.52 313.545 64.88C313.545 65.5467 313.758 66.0133 314.185 66.28C314.611 66.5333 315.191 66.66 315.925 66.66ZM315.765 57.34C316.511 57.34 317.138 57.44 317.645 57.64C318.165 57.8267 318.578 58.1 318.885 58.46C319.205 58.8067 319.431 59.2267 319.565 59.72C319.698 60.2 319.765 60.7333 319.765 61.32V67.82C319.605 67.8467 319.378 67.8867 319.085 67.94C318.805 67.98 318.485 68.02 318.125 68.06C317.765 68.1 317.371 68.1333 316.945 68.16C316.531 68.2 316.118 68.22 315.705 68.22C315.118 68.22 314.578 68.16 314.085 68.04C313.591 67.92 313.165 67.7333 312.805 67.48C312.445 67.2133 312.165 66.8667 311.965 66.44C311.765 66.0133 311.665 65.5 311.665 64.9C311.665 64.3267 311.778 63.8333 312.005 63.42C312.245 63.0067 312.565 62.6733 312.965 62.42C313.365 62.1667 313.831 61.98 314.365 61.86C314.898 61.74 315.458 61.68 316.045 61.68C316.231 61.68 316.425 61.6933 316.625 61.72C316.825 61.7333 317.011 61.76 317.185 61.8C317.371 61.8267 317.531 61.8533 317.665 61.88C317.798 61.9067 317.891 61.9267 317.945 61.94V61.42C317.945 61.1133 317.911 60.8133 317.845 60.52C317.778 60.2133 317.658 59.9467 317.485 59.72C317.311 59.48 317.071 59.2933 316.765 59.16C316.471 59.0133 316.085 58.94 315.605 58.94C314.991 58.94 314.451 58.9867 313.985 59.08C313.531 59.16 313.191 59.2467 312.965 59.34L312.745 57.8C312.985 57.6933 313.385 57.5933 313.945 57.5C314.505 57.3933 315.111 57.34 315.765 57.34ZM335.674 57.6C335.407 57.9333 335.107 58.3 334.774 58.7C334.441 59.0867 334.094 59.4933 333.734 59.92C333.374 60.3333 333.007 60.7467 332.634 61.16C332.274 61.5733 331.927 61.9667 331.594 62.34C331.994 62.7267 332.407 63.1467 332.834 63.6C333.261 64.0533 333.674 64.5267 334.074 65.02C334.487 65.5 334.881 66 335.254 66.52C335.627 67.0267 335.954 67.52 336.234 68H334.154C333.874 67.56 333.547 67.1 333.174 66.62C332.814 66.1267 332.434 65.6533 332.034 65.2C331.647 64.7467 331.254 64.3267 330.854 63.94C330.467 63.54 330.107 63.2133 329.774 62.96V68H327.994V62.96C327.661 63.2133 327.294 63.54 326.894 63.94C326.507 64.3267 326.114 64.7467 325.714 65.2C325.327 65.6533 324.947 66.1267 324.574 66.62C324.214 67.1 323.894 67.56 323.614 68H321.554C321.834 67.52 322.154 67.0267 322.514 66.52C322.887 66.0133 323.274 65.52 323.674 65.04C324.087 64.5467 324.507 64.0733 324.934 63.62C325.361 63.1667 325.774 62.7467 326.174 62.36C325.841 61.9867 325.487 61.5933 325.114 61.18C324.754 60.7667 324.394 60.3533 324.034 59.94C323.674 59.5133 323.327 59.1067 322.994 58.72C322.661 58.32 322.354 57.9467 322.074 57.6H324.134C324.614 58.2 325.167 58.8667 325.794 59.6C326.421 60.3333 327.154 61.18 327.994 62.14V57.6H329.774V62.14C330.614 61.18 331.347 60.3333 331.974 59.6C332.601 58.8667 333.154 58.2 333.634 57.6H335.674ZM346.628 68H344.768V63.4H339.968V68H338.108V57.6H339.968V61.84H344.768V57.6H346.628V68ZM359.007 62.8C359.007 63.6267 358.887 64.3733 358.647 65.04C358.407 65.7067 358.067 66.28 357.627 66.76C357.2 67.24 356.687 67.6133 356.087 67.88C355.487 68.1333 354.833 68.26 354.127 68.26C353.42 68.26 352.767 68.1333 352.167 67.88C351.567 67.6133 351.047 67.24 350.607 66.76C350.18 66.28 349.847 65.7067 349.607 65.04C349.367 64.3733 349.247 63.6267 349.247 62.8C349.247 61.9867 349.367 61.2467 349.607 60.58C349.847 59.9 350.18 59.32 350.607 58.84C351.047 58.36 351.567 57.9933 352.167 57.74C352.767 57.4733 353.42 57.34 354.127 57.34C354.833 57.34 355.487 57.4733 356.087 57.74C356.687 57.9933 357.2 58.36 357.627 58.84C358.067 59.32 358.407 59.9 358.647 60.58C358.887 61.2467 359.007 61.9867 359.007 62.8ZM357.067 62.8C357.067 61.6267 356.8 60.7 356.267 60.02C355.747 59.3267 355.033 58.98 354.127 58.98C353.22 58.98 352.5 59.3267 351.967 60.02C351.447 60.7 351.187 61.6267 351.187 62.8C351.187 63.9733 351.447 64.9067 351.967 65.6C352.5 66.28 353.22 66.62 354.127 66.62C355.033 66.62 355.747 66.28 356.267 65.6C356.8 64.9067 357.067 63.9733 357.067 62.8ZM366.143 68.24C365.303 68.24 364.563 68.1067 363.923 67.84C363.297 67.5733 362.763 67.2 362.323 66.72C361.897 66.24 361.577 65.6733 361.363 65.02C361.15 64.3533 361.043 63.62 361.043 62.82C361.043 62.02 361.157 61.2867 361.383 60.62C361.623 59.9533 361.957 59.38 362.383 58.9C362.81 58.4067 363.33 58.0267 363.943 57.76C364.57 57.48 365.263 57.34 366.023 57.34C366.49 57.34 366.957 57.38 367.423 57.46C367.89 57.54 368.337 57.6667 368.763 57.84L368.343 59.42C368.063 59.2867 367.737 59.18 367.363 59.1C367.003 59.02 366.617 58.98 366.203 58.98C365.163 58.98 364.363 59.3067 363.803 59.96C363.257 60.6133 362.983 61.5667 362.983 62.82C362.983 63.38 363.043 63.8933 363.163 64.36C363.297 64.8267 363.497 65.2267 363.763 65.56C364.043 65.8933 364.397 66.1533 364.823 66.34C365.25 66.5133 365.77 66.6 366.383 66.6C366.877 66.6 367.323 66.5533 367.723 66.46C368.123 66.3667 368.437 66.2667 368.663 66.16L368.923 67.72C368.817 67.7867 368.663 67.8533 368.463 67.92C368.263 67.9733 368.037 68.02 367.783 68.06C367.53 68.1133 367.257 68.1533 366.963 68.18C366.683 68.22 366.41 68.24 366.143 68.24ZM378.553 57.6V59.16H375.173V68H373.313V59.16H369.933V57.6H378.553ZM384.411 66.7C385.198 66.7 385.818 66.5467 386.271 66.24C386.724 65.9333 386.951 65.44 386.951 64.76C386.951 64.4267 386.884 64.14 386.751 63.9C386.618 63.66 386.431 63.4667 386.191 63.32C385.964 63.16 385.698 63.0467 385.391 62.98C385.084 62.9 384.758 62.86 384.411 62.86C384.051 62.86 383.678 62.8733 383.291 62.9C382.918 62.9133 382.598 62.9533 382.331 63.02V66.6C382.411 66.6133 382.531 66.6267 382.691 66.64C382.851 66.6533 383.024 66.6667 383.211 66.68C383.411 66.68 383.611 66.6867 383.811 66.7C384.024 66.7 384.224 66.7 384.411 66.7ZM380.471 67.78V57.6H382.331V61.58C382.438 61.5533 382.578 61.5267 382.751 61.5C382.938 61.4733 383.131 61.4467 383.331 61.42C383.544 61.3933 383.764 61.3733 383.991 61.36C384.218 61.3467 384.431 61.34 384.631 61.34C385.204 61.34 385.744 61.4067 386.251 61.54C386.758 61.66 387.198 61.86 387.571 62.14C387.958 62.4067 388.264 62.76 388.491 63.2C388.718 63.6267 388.831 64.14 388.831 64.74C388.831 65.3667 388.724 65.9 388.511 66.34C388.298 66.78 387.991 67.14 387.591 67.42C387.191 67.7 386.711 67.9 386.151 68.02C385.604 68.1533 384.991 68.22 384.311 68.22C383.644 68.22 382.991 68.18 382.351 68.1C381.711 68.0333 381.084 67.9267 380.471 67.78ZM404.026 68H402.166V59.16H397.526V68H395.666V57.6H404.026V68ZM416.409 62.8C416.409 63.6267 416.289 64.3733 416.049 65.04C415.809 65.7067 415.469 66.28 415.029 66.76C414.602 67.24 414.089 67.6133 413.489 67.88C412.889 68.1333 412.236 68.26 411.529 68.26C410.822 68.26 410.169 68.1333 409.569 67.88C408.969 67.6133 408.449 67.24 408.009 66.76C407.582 66.28 407.249 65.7067 407.009 65.04C406.769 64.3733 406.649 63.6267 406.649 62.8C406.649 61.9867 406.769 61.2467 407.009 60.58C407.249 59.9 407.582 59.32 408.009 58.84C408.449 58.36 408.969 57.9933 409.569 57.74C410.169 57.4733 410.822 57.34 411.529 57.34C412.236 57.34 412.889 57.4733 413.489 57.74C414.089 57.9933 414.602 58.36 415.029 58.84C415.469 59.32 415.809 59.9 416.049 60.58C416.289 61.2467 416.409 61.9867 416.409 62.8ZM414.469 62.8C414.469 61.6267 414.202 60.7 413.669 60.02C413.149 59.3267 412.436 58.98 411.529 58.98C410.622 58.98 409.902 59.3267 409.369 60.02C408.849 60.7 408.589 61.6267 408.589 62.8C408.589 63.9733 408.849 64.9067 409.369 65.6C409.902 66.28 410.622 66.62 411.529 66.62C412.436 66.62 413.149 66.28 413.669 65.6C414.202 64.9067 414.469 63.9733 414.469 62.8ZM420.206 57.6V60.66C420.206 61.4467 420.406 62 420.806 62.32C421.206 62.6267 421.752 62.78 422.446 62.78C422.952 62.78 423.372 62.7533 423.706 62.7C424.052 62.6467 424.359 62.5867 424.626 62.52V57.6H426.486V68H424.626V63.96C424.519 63.9867 424.379 64.02 424.206 64.06C424.032 64.1 423.832 64.14 423.606 64.18C423.392 64.2067 423.166 64.2333 422.926 64.26C422.686 64.2867 422.452 64.3 422.226 64.3C421.652 64.3 421.126 64.24 420.646 64.12C420.179 64 419.772 63.8 419.426 63.52C419.092 63.24 418.826 62.8733 418.626 62.42C418.439 61.9533 418.346 61.3733 418.346 60.68V57.6H420.206ZM431.51 66.6C431.59 66.6133 431.703 66.6267 431.85 66.64C431.997 66.6533 432.163 66.6667 432.35 66.68C432.537 66.68 432.73 66.6867 432.93 66.7C433.143 66.7 433.343 66.7 433.53 66.7C433.917 66.7 434.283 66.6733 434.63 66.62C434.99 66.5667 435.297 66.4733 435.55 66.34C435.817 66.2067 436.023 66.0333 436.17 65.82C436.33 65.5933 436.41 65.3067 436.41 64.96C436.41 64.6267 436.337 64.3533 436.19 64.14C436.057 63.9133 435.87 63.7333 435.63 63.6C435.39 63.4667 435.103 63.3733 434.77 63.32C434.45 63.2667 434.103 63.24 433.73 63.24H431.51V66.6ZM433.49 61.86C433.85 61.86 434.177 61.84 434.47 61.8C434.777 61.7467 435.037 61.66 435.25 61.54C435.477 61.42 435.65 61.26 435.77 61.06C435.903 60.86 435.97 60.6067 435.97 60.3C435.97 59.98 435.89 59.7267 435.73 59.54C435.57 59.3533 435.357 59.2133 435.09 59.12C434.837 59.0133 434.543 58.9467 434.21 58.92C433.89 58.88 433.563 58.86 433.23 58.86C432.923 58.86 432.61 58.8667 432.29 58.88C431.983 58.8933 431.723 58.9067 431.51 58.92V61.86H433.49ZM433.45 68.18C432.663 68.18 431.937 68.14 431.27 68.06C430.603 67.9933 430.077 67.9133 429.69 67.82V57.7C430.077 57.6067 430.603 57.5267 431.27 57.46C431.937 57.38 432.663 57.34 433.45 57.34C433.997 57.34 434.53 57.3867 435.05 57.48C435.57 57.5733 436.03 57.7333 436.43 57.96C436.83 58.1733 437.15 58.4733 437.39 58.86C437.643 59.2333 437.77 59.7 437.77 60.26C437.77 60.7667 437.643 61.2 437.39 61.56C437.137 61.92 436.797 62.2 436.37 62.4C436.943 62.6 437.397 62.9 437.73 63.3C438.077 63.6867 438.25 64.2333 438.25 64.94C438.25 65.5667 438.123 66.0867 437.87 66.5C437.63 66.9133 437.29 67.2467 436.85 67.5C436.423 67.7533 435.917 67.9267 435.33 68.02C434.743 68.1267 434.117 68.18 433.45 68.18ZM444.467 62.86C444.107 62.86 443.754 62.8733 443.407 62.9C443.074 62.9133 442.774 62.9533 442.507 63.02V66.6C442.587 66.6133 442.7 66.6267 442.847 66.64C443.007 66.6533 443.174 66.6667 443.347 66.68C443.534 66.68 443.72 66.6867 443.907 66.7C444.094 66.7 444.26 66.7 444.407 66.7C445.22 66.7 445.847 66.5467 446.287 66.24C446.727 65.9333 446.947 65.44 446.947 64.76C446.947 64.4267 446.874 64.14 446.727 63.9C446.594 63.66 446.407 63.4667 446.167 63.32C445.94 63.16 445.68 63.0467 445.387 62.98C445.094 62.9 444.787 62.86 444.467 62.86ZM440.647 57.6H442.507V61.58C442.734 61.5267 443.06 61.4733 443.487 61.42C443.927 61.3667 444.347 61.34 444.747 61.34C445.294 61.34 445.814 61.4067 446.307 61.54C446.8 61.66 447.234 61.86 447.607 62.14C447.98 62.4067 448.274 62.76 448.487 63.2C448.714 63.6267 448.827 64.14 448.827 64.74C448.827 65.3667 448.72 65.9 448.507 66.34C448.294 66.78 447.994 67.14 447.607 67.42C447.22 67.7 446.754 67.9 446.207 68.02C445.66 68.1533 445.06 68.22 444.407 68.22C443.78 68.22 443.147 68.18 442.507 68.1C441.867 68.0333 441.247 67.9267 440.647 67.78V57.6ZM452.607 68H450.747V57.6H452.607V68Z" fill="url(#paint34_linear_1726_6154)"/>
<rect x="148" y="52" width="105" height="69" rx="15.5156" fill="#1F2431"/>
<rect x="148" y="52" width="105" height="69" rx="15.5156" fill="url(#paint35_linear_1726_6154)"/>
<path d="M176.232 95.824C178.131 95.824 179.485 95.4507 180.296 94.704C181.128 93.9573 181.544 92.9547 181.544 91.696C181.544 90.8853 181.373 90.2027 181.032 89.648C180.691 89.0933 180.243 88.656 179.688 88.336C179.133 87.9947 178.483 87.76 177.736 87.632C177.011 87.4827 176.264 87.408 175.496 87.408H174.728V84.976H175.784C176.317 84.976 176.861 84.9227 177.416 84.816C177.992 84.7093 178.515 84.5173 178.984 84.24C179.453 83.9627 179.837 83.5893 180.136 83.12C180.435 82.6293 180.584 82.0213 180.584 81.296C180.584 80.6987 180.477 80.1867 180.264 79.76C180.051 79.3333 179.763 78.9813 179.4 78.704C179.059 78.4267 178.653 78.2347 178.184 78.128C177.736 78 177.256 77.936 176.744 77.936C175.72 77.936 174.845 78.0853 174.12 78.384C173.416 78.6827 172.819 78.992 172.328 79.312L171.176 77.04C171.432 76.8693 171.752 76.688 172.136 76.496C172.541 76.2827 172.989 76.0907 173.48 75.92C173.971 75.7493 174.493 75.6107 175.048 75.504C175.624 75.376 176.221 75.312 176.84 75.312C178.013 75.312 179.027 75.4613 179.88 75.76C180.733 76.0373 181.437 76.4427 181.992 76.976C182.547 77.488 182.963 78.1067 183.24 78.832C183.517 79.536 183.656 80.304 183.656 81.136C183.656 82.288 183.325 83.28 182.664 84.112C182.003 84.9227 181.203 85.5413 180.264 85.968C180.84 86.1387 181.395 86.384 181.928 86.704C182.461 87.024 182.92 87.4293 183.304 87.92C183.709 88.4107 184.029 88.976 184.264 89.616C184.52 90.256 184.648 90.9707 184.648 91.76C184.648 92.72 184.477 93.616 184.136 94.448C183.816 95.2587 183.304 95.9627 182.6 96.56C181.917 97.1573 181.053 97.6267 180.008 97.968C178.963 98.3093 177.725 98.48 176.296 98.48C175.741 98.48 175.165 98.4373 174.568 98.352C173.992 98.2667 173.448 98.16 172.936 98.032C172.424 97.904 171.976 97.776 171.592 97.648C171.208 97.52 170.931 97.4133 170.76 97.328L171.336 94.736C171.699 94.9067 172.296 95.1307 173.128 95.408C173.981 95.6853 175.016 95.824 176.232 95.824ZM188.663 86.896C188.663 83.184 189.313 80.3253 190.615 78.32C191.937 76.3147 193.761 75.312 196.087 75.312C198.412 75.312 200.225 76.3147 201.527 78.32C202.849 80.3253 203.51 83.184 203.51 86.896C203.51 90.608 202.849 93.4667 201.527 95.472C200.225 97.4773 198.412 98.48 196.087 98.48C193.761 98.48 191.937 97.4773 190.615 95.472C189.313 93.4667 188.663 90.608 188.663 86.896ZM200.375 86.896C200.375 85.68 200.3 84.528 200.151 83.44C200.023 82.352 199.788 81.4027 199.447 80.592C199.127 79.7813 198.689 79.1413 198.135 78.672C197.58 78.1813 196.897 77.936 196.087 77.936C195.276 77.936 194.593 78.1813 194.039 78.672C193.484 79.1413 193.036 79.7813 192.695 80.592C192.375 81.4027 192.14 82.352 191.991 83.44C191.863 84.528 191.799 85.68 191.799 86.896C191.799 88.112 191.863 89.264 191.991 90.352C192.14 91.44 192.375 92.3893 192.695 93.2C193.036 94.0107 193.484 94.6613 194.039 95.152C194.593 95.6213 195.276 95.856 196.087 95.856C196.897 95.856 197.58 95.6213 198.135 95.152C198.689 94.6613 199.127 94.0107 199.447 93.2C199.788 92.3893 200.023 91.44 200.151 90.352C200.3 89.264 200.375 88.112 200.375 86.896ZM210.821 94.352C210.842 94.5227 210.853 94.6933 210.853 94.864C210.853 95.0133 210.853 95.1733 210.853 95.344C210.853 96.688 210.65 98.0107 210.245 99.312C209.861 100.635 209.328 101.893 208.645 103.088L206.341 102.352C206.874 101.264 207.226 100.155 207.397 99.024C207.568 97.9147 207.653 96.8693 207.653 95.888C207.653 95.6107 207.642 95.344 207.621 95.088C207.621 94.832 207.61 94.5867 207.589 94.352H210.821ZM215.976 80.4C217.192 79.9307 218.376 79.3333 219.528 78.608C220.68 77.8613 221.736 76.9333 222.696 75.824H224.808V98H221.832V79.952C221.576 80.1867 221.256 80.432 220.872 80.688C220.509 80.944 220.104 81.1893 219.656 81.424C219.229 81.6587 218.771 81.8827 218.28 82.096C217.811 82.3093 217.352 82.4907 216.904 82.64L215.976 80.4Z" fill="url(#paint36_linear_1726_6154)"/>
<rect x="148" y="52" width="105" height="69" rx="15.5156" stroke="url(#paint37_linear_1726_6154)" stroke-width="1.55156"/>
<path d="M354.859 101.292V110.994H353.095V102.804H348.951V110.994H347.187V101.292H354.859ZM363.719 107.326C363.719 107.905 363.635 108.432 363.467 108.908C363.299 109.384 363.061 109.79 362.753 110.126C362.445 110.462 362.072 110.723 361.633 110.91C361.204 111.097 360.728 111.19 360.205 111.19C359.682 111.19 359.206 111.097 358.777 110.91C358.348 110.723 357.979 110.462 357.671 110.126C357.363 109.79 357.12 109.384 356.943 108.908C356.775 108.432 356.691 107.905 356.691 107.326C356.691 106.747 356.775 106.225 356.943 105.758C357.12 105.282 357.363 104.876 357.671 104.54C357.988 104.204 358.362 103.947 358.791 103.77C359.22 103.583 359.692 103.49 360.205 103.49C360.718 103.49 361.19 103.583 361.619 103.77C362.058 103.947 362.431 104.204 362.739 104.54C363.047 104.876 363.285 105.282 363.453 105.758C363.63 106.225 363.719 106.747 363.719 107.326ZM361.983 107.326C361.983 106.598 361.824 106.024 361.507 105.604C361.199 105.175 360.765 104.96 360.205 104.96C359.645 104.96 359.206 105.175 358.889 105.604C358.581 106.024 358.427 106.598 358.427 107.326C358.427 108.063 358.581 108.647 358.889 109.076C359.206 109.505 359.645 109.72 360.205 109.72C360.765 109.72 361.199 109.505 361.507 109.076C361.824 108.647 361.983 108.063 361.983 107.326ZM368.334 105.072C368.325 105.483 368.311 105.912 368.292 106.36C368.274 106.799 368.227 107.233 368.152 107.662C368.087 108.091 367.98 108.502 367.83 108.894C367.681 109.286 367.471 109.641 367.2 109.958C366.939 110.266 366.608 110.527 366.206 110.742C365.814 110.947 365.334 111.078 364.764 111.134L364.526 109.72C365.002 109.627 365.371 109.477 365.632 109.272C365.894 109.057 366.094 108.787 366.234 108.46C366.346 108.217 366.43 107.942 366.486 107.634C366.552 107.326 366.598 107.004 366.626 106.668C366.664 106.323 366.687 105.973 366.696 105.618C366.706 105.263 366.71 104.918 366.71 104.582V103.672H371.89V110.994H370.196V105.072H368.334ZM380.462 103.672V110.994H378.782C378.782 110.462 378.782 109.935 378.782 109.412C378.792 108.889 378.796 108.404 378.796 107.956C378.806 107.508 378.81 107.121 378.81 106.794C378.82 106.458 378.824 106.211 378.824 106.052C378.544 106.416 378.255 106.817 377.956 107.256C377.658 107.695 377.359 108.133 377.06 108.572C376.771 109.011 376.496 109.44 376.234 109.86C375.973 110.28 375.744 110.658 375.548 110.994H374.05V103.672H375.716C375.716 104.213 375.712 104.731 375.702 105.226C375.702 105.711 375.702 106.155 375.702 106.556C375.702 106.957 375.698 107.307 375.688 107.606C375.688 107.905 375.688 108.133 375.688 108.292C375.95 107.891 376.22 107.48 376.5 107.06C376.78 106.631 377.06 106.215 377.34 105.814C377.63 105.403 377.914 105.016 378.194 104.652C378.474 104.288 378.745 103.961 379.006 103.672H380.462ZM388.138 105.086H385.772V110.994H384.078V105.086H381.726V103.672H388.138V105.086ZM391.098 106.374C391.238 106.337 391.443 106.304 391.714 106.276C391.984 106.248 392.255 106.234 392.526 106.234C392.946 106.234 393.338 106.281 393.702 106.374C394.075 106.467 394.397 106.617 394.668 106.822C394.938 107.018 395.153 107.275 395.312 107.592C395.47 107.9 395.55 108.269 395.55 108.698C395.55 109.137 395.475 109.51 395.326 109.818C395.176 110.126 394.962 110.378 394.682 110.574C394.402 110.77 394.066 110.915 393.674 111.008C393.291 111.101 392.862 111.148 392.386 111.148C391.835 111.148 391.322 111.12 390.846 111.064C390.37 111.008 389.889 110.924 389.404 110.812V103.672H391.098V106.374ZM392.344 109.818C392.82 109.818 393.188 109.729 393.45 109.552C393.72 109.365 393.856 109.071 393.856 108.67C393.856 108.465 393.809 108.292 393.716 108.152C393.632 108.012 393.515 107.9 393.366 107.816C393.226 107.723 393.058 107.657 392.862 107.62C392.666 107.583 392.46 107.564 392.246 107.564C392.05 107.564 391.844 107.573 391.63 107.592C391.415 107.601 391.238 107.625 391.098 107.662V109.748C391.219 109.767 391.396 109.785 391.63 109.804C391.872 109.813 392.11 109.818 392.344 109.818Z" fill="url(#paint38_linear_1726_6154)"/>
<rect x="327" y="87" width="88.0499" height="36.9873" rx="9" stroke="url(#paint39_linear_1726_6154)" stroke-width="2"/>
<path fill-rule="evenodd" clip-rule="evenodd" d="M10.2249 91.6638H79.7575L49.38 119.301C46.952 121.51 46.952 125.135 49.38 127.344C51.8073 129.552 55.7289 129.552 58.1569 127.344L99.1793 90.0211C101.607 87.8122 101.607 84.2443 99.1793 82.0358L58.2189 44.6563C57.0564 43.5959 55.4772 43 53.8307 43C52.1842 43 50.6051 43.5959 49.442 44.6563C47.014 46.8653 47.014 50.4332 49.442 52.6422L79.7575 80.3362H10.2249C6.80123 80.3362 4 82.8854 4 86.0003C4 89.1152 6.80123 91.6638 10.2249 91.6638Z" fill="#89E159" stroke="#89E159" stroke-width="8"/>
<defs>
<filter id="filter0_d_1726_6154" x="112.828" y="10.4013" width="391.007" height="408.501" filterUnits="userSpaceOnUse" color-interpolation-filters="sRGB">
<feFlood flood-opacity="0" result="BackgroundImageFix"/>
<feColorMatrix in="SourceAlpha" type="matrix" values="0 0 0 0 0 0 0 0 0 0 0 0 0 0 0 0 0 0 127 0" result="hardAlpha"/>
<feOffset dx="5.67362" dy="3.78241"/>
<feGaussianBlur stdDeviation="5.20082"/>
<feComposite in2="hardAlpha" operator="out"/>
<feColorMatrix type="matrix" values="0 0 0 0 0 0 0 0 0 0 0 0 0 0 0 0 0 0 0.25 0"/>
<feBlend mode="normal" in2="BackgroundImageFix" result="effect1_dropShadow_1726_6154"/>
<feBlend mode="normal" in="SourceGraphic" in2="effect1_dropShadow_1726_6154" result="shape"/>
</filter>
<filter id="filter1_ii_1726_6154" x="130" y="26.1632" width="347.982" height="367.84" filterUnits="userSpaceOnUse" color-interpolation-filters="sRGB">
<feFlood flood-opacity="0" result="BackgroundImageFix"/>
<feBlend mode="normal" in="SourceGraphic" in2="BackgroundImageFix" result="shape"/>
<feColorMatrix in="SourceAlpha" type="matrix" values="0 0 0 0 0 0 0 0 0 0 0 0 0 0 0 0 0 0 127 0" result="hardAlpha"/>
<feOffset dy="3.78241"/>
<feGaussianBlur stdDeviation="1.89121"/>
<feComposite in2="hardAlpha" operator="arithmetic" k2="-1" k3="1"/>
<feColorMatrix type="matrix" values="0 0 0 0 0 0 0 0 0 0 0 0 0 0 0 0 0 0 0.25 0"/>
<feBlend mode="normal" in2="shape" result="effect1_innerShadow_1726_6154"/>
<feColorMatrix in="SourceAlpha" type="matrix" values="0 0 0 0 0 0 0 0 0 0 0 0 0 0 0 0 0 0 127 0" result="hardAlpha"/>
<feOffset dy="-2.83681"/>
<feGaussianBlur stdDeviation="3.78241"/>
<feComposite in2="hardAlpha" operator="arithmetic" k2="-1" k3="1"/>
<feColorMatrix type="matrix" values="0 0 0 0 0 0 0 0 0 0 0 0 0 0 0 0 0 0 0.25 0"/>
<feBlend mode="normal" in2="effect1_innerShadow_1726_6154" result="effect2_innerShadow_1726_6154"/>
</filter>
<filter id="filter2_d_1726_6154" x="113.301" y="387.697" width="382.969" height="24.5857" filterUnits="userSpaceOnUse" color-interpolation-filters="sRGB">
<feFlood flood-opacity="0" result="BackgroundImageFix"/>
<feColorMatrix in="SourceAlpha" type="matrix" values="0 0 0 0 0 0 0 0 0 0 0 0 0 0 0 0 0 0 127 0" result="hardAlpha"/>
<feOffset dx="2.83681" dy="4.72801"/>
<feGaussianBlur stdDeviation="3.78241"/>
<feComposite in2="hardAlpha" operator="out"/>
<feColorMatrix type="matrix" values="0 0 0 0 0 0 0 0 0 0 0 0 0 0 0 0 0 0 0.25 0"/>
<feBlend mode="normal" in2="BackgroundImageFix" result="effect1_dropShadow_1726_6154"/>
<feBlend mode="normal" in="SourceGraphic" in2="effect1_dropShadow_1726_6154" result="shape"/>
</filter>
<filter id="filter3_d_1726_6154" x="34.1314" y="397.625" width="108.246" height="90.3767" filterUnits="userSpaceOnUse" color-interpolation-filters="sRGB">
<feFlood flood-opacity="0" result="BackgroundImageFix"/>
<feColorMatrix in="SourceAlpha" type="matrix" values="0 0 0 0 0 0 0 0 0 0 0 0 0 0 0 0 0 0 127 0" result="hardAlpha"/>
<feOffset dy="5.67362"/>
<feGaussianBlur stdDeviation="3.78241"/>
<feComposite in2="hardAlpha" operator="out"/>
<feColorMatrix type="matrix" values="0 0 0 0 0 0 0 0 0 0 0 0 0 0 0 0 0 0 0.25 0"/>
<feBlend mode="normal" in2="BackgroundImageFix" result="effect1_dropShadow_1726_6154"/>
<feBlend mode="normal" in="SourceGraphic" in2="effect1_dropShadow_1726_6154" result="shape"/>
</filter>
<filter id="filter4_d_1726_6154" x="466.956" y="390.534" width="31.2049" height="98.3425" filterUnits="userSpaceOnUse" color-interpolation-filters="sRGB">
<feFlood flood-opacity="0" result="BackgroundImageFix"/>
<feColorMatrix in="SourceAlpha" type="matrix" values="0 0 0 0 0 0 0 0 0 0 0 0 0 0 0 0 0 0 127 0" result="hardAlpha"/>
<feOffset dy="14.184"/>
<feGaussianBlur stdDeviation="5.20082"/>
<feComposite in2="hardAlpha" operator="out"/>
<feColorMatrix type="matrix" values="0 0 0 0 0 0 0 0 0 0 0 0 0 0 0 0 0 0 0.25 0"/>
<feBlend mode="normal" in2="BackgroundImageFix" result="effect1_dropShadow_1726_6154"/>
<feBlend mode="normal" in="SourceGraphic" in2="effect1_dropShadow_1726_6154" result="shape"/>
</filter>
<filter id="filter5_d_1726_6154" x="403.271" y="394.442" width="79.6187" height="90.5252" filterUnits="userSpaceOnUse" color-interpolation-filters="sRGB">
<feFlood flood-opacity="0" result="BackgroundImageFix"/>
<feColorMatrix in="SourceAlpha" type="matrix" values="0 0 0 0 0 0 0 0 0 0 0 0 0 0 0 0 0 0 127 0" result="hardAlpha"/>
<feOffset dx="-10.4016" dy="4.72801"/>
<feGaussianBlur stdDeviation="3.78241"/>
<feComposite in2="hardAlpha" operator="out"/>
<feColorMatrix type="matrix" values="0 0 0 0 0 0 0 0 0 0 0 0 0 0 0 0 0 0 0.25 0"/>
<feBlend mode="normal" in2="BackgroundImageFix" result="effect1_dropShadow_1726_6154"/>
<feBlend mode="normal" in="SourceGraphic" in2="effect1_dropShadow_1726_6154" result="shape"/>
</filter>
<linearGradient id="paint0_linear_1726_6154" x1="155.372" y1="2.00897e-05" x2="517.119" y2="24.6124" gradientUnits="userSpaceOnUse">
<stop offset="1" stop-color="#B9F598"/>
</linearGradient>
<linearGradient id="paint1_linear_1726_6154" x1="151.492" y1="17.0205" x2="497.191" y2="44.4219" gradientUnits="userSpaceOnUse">
<stop offset="1" stop-color="#B9F598"/>
</linearGradient>
<linearGradient id="paint2_linear_1726_6154" x1="294.867" y1="171" x2="414.854" y2="250.68" gradientUnits="userSpaceOnUse">
<stop offset="1" stop-color="#B9F598"/>
</linearGradient>
<linearGradient id="paint3_linear_1726_6154" x1="282.7" y1="295" x2="407.009" y2="386.523" gradientUnits="userSpaceOnUse">
<stop offset="1" stop-color="#B9F598"/>
</linearGradient>
<linearGradient id="paint4_linear_1726_6154" x1="151.748" y1="390.534" x2="181.997" y2="488.21" gradientUnits="userSpaceOnUse">
<stop offset="1" stop-color="#B9F598"/>
</linearGradient>
<linearGradient id="paint5_linear_1726_6154" x1="151.748" y1="390.534" x2="181.997" y2="488.21" gradientUnits="userSpaceOnUse">
<stop offset="1" stop-color="#B9F598"/>
</linearGradient>
<linearGradient id="paint6_linear_1726_6154" x1="56.3245" y1="401.881" x2="130.721" y2="409.029" gradientUnits="userSpaceOnUse">
<stop offset="1" stop-color="#B9F598"/>
</linearGradient>
<linearGradient id="paint7_linear_1726_6154" x1="56.3245" y1="401.881" x2="130.721" y2="409.029" gradientUnits="userSpaceOnUse">
<stop offset="1" stop-color="#B9F598"/>
</linearGradient>
<linearGradient id="paint8_linear_1726_6154" x1="478.312" y1="390.534" x2="488.084" y2="390.649" gradientUnits="userSpaceOnUse">
<stop offset="1" stop-color="#B9F598"/>
</linearGradient>
<linearGradient id="paint9_linear_1726_6154" x1="490.136" y1="367.367" x2="504.764" y2="368.058" gradientUnits="userSpaceOnUse">
<stop offset="1" stop-color="#B9F598"/>
</linearGradient>
<linearGradient id="paint10_linear_1726_6154" x1="490.136" y1="367.367" x2="504.764" y2="368.058" gradientUnits="userSpaceOnUse">
<stop offset="1" stop-color="#B9F598"/>
</linearGradient>
<linearGradient id="paint11_linear_1726_6154" x1="430.247" y1="400.463" x2="480.245" y2="403.675" gradientUnits="userSpaceOnUse">
<stop offset="1" stop-color="#B9F598"/>
</linearGradient>
<linearGradient id="paint12_linear_1726_6154" x1="225.677" y1="243" x2="172.552" y2="192.766" gradientUnits="userSpaceOnUse">
<stop stop-color="#1E4E4E"/>
<stop offset="1" stop-color="#1F2431"/>
</linearGradient>
<linearGradient id="paint13_linear_1726_6154" x1="185.392" y1="190" x2="219.922" y2="192.866" gradientUnits="userSpaceOnUse">
<stop offset="1" stop-color="#B9F598"/>
</linearGradient>
<linearGradient id="paint14_linear_1726_6154" x1="157.625" y1="174" x2="254.741" y2="186.268" gradientUnits="userSpaceOnUse">
<stop offset="1" stop-color="#B9F598"/>
</linearGradient>
<linearGradient id="paint15_linear_1726_6154" x1="173.553" y1="404.473" x2="192.405" y2="411.301" gradientUnits="userSpaceOnUse">
<stop offset="1" stop-color="#B9F598"/>
</linearGradient>
<linearGradient id="paint16_linear_1726_6154" x1="173.167" y1="404" x2="194.787" y2="407.583" gradientUnits="userSpaceOnUse">
<stop offset="1" stop-color="#B9F598"/>
</linearGradient>
<linearGradient id="paint17_linear_1726_6154" x1="280.553" y1="404.473" x2="299.405" y2="411.301" gradientUnits="userSpaceOnUse">
<stop offset="1" stop-color="#B9F598"/>
</linearGradient>
<linearGradient id="paint18_linear_1726_6154" x1="280.167" y1="404" x2="301.787" y2="407.583" gradientUnits="userSpaceOnUse">
<stop offset="1" stop-color="#B9F598"/>
</linearGradient>
<linearGradient id="paint19_linear_1726_6154" x1="387.553" y1="404.473" x2="406.405" y2="411.301" gradientUnits="userSpaceOnUse">
<stop offset="1" stop-color="#B9F598"/>
</linearGradient>
<linearGradient id="paint20_linear_1726_6154" x1="387.167" y1="404" x2="408.787" y2="407.583" gradientUnits="userSpaceOnUse">
<stop offset="1" stop-color="#B9F598"/>
</linearGradient>
<linearGradient id="paint21_linear_1726_6154" x1="225.677" y1="364" x2="172.552" y2="313.766" gradientUnits="userSpaceOnUse">
<stop stop-color="#1E4E4E"/>
<stop offset="1" stop-color="#1F2431"/>
</linearGradient>
<linearGradient id="paint22_linear_1726_6154" x1="185.392" y1="311" x2="219.922" y2="313.866" gradientUnits="userSpaceOnUse">
<stop offset="1" stop-color="#B9F598"/>
</linearGradient>
<linearGradient id="paint23_linear_1726_6154" x1="157.625" y1="295" x2="254.741" y2="307.268" gradientUnits="userSpaceOnUse">
<stop offset="1" stop-color="#B9F598"/>
</linearGradient>
<linearGradient id="paint24_linear_1726_6154" x1="283.875" y1="216" x2="349.54" y2="233.774" gradientUnits="userSpaceOnUse">
<stop offset="1" stop-color="#B9F598"/>
</linearGradient>
<linearGradient id="paint25_linear_1726_6154" x1="278.975" y1="210" x2="357.388" y2="226.18" gradientUnits="userSpaceOnUse">
<stop offset="1" stop-color="#B9F598"/>
</linearGradient>
<linearGradient id="paint26_linear_1726_6154" x1="394" y1="216" x2="447.855" y2="227.662" gradientUnits="userSpaceOnUse">
<stop offset="1" stop-color="#B9F598"/>
</linearGradient>
<linearGradient id="paint27_linear_1726_6154" x1="382.975" y1="210" x2="461.388" y2="226.18" gradientUnits="userSpaceOnUse">
<stop offset="1" stop-color="#B9F598"/>
</linearGradient>
<radialGradient id="paint28_radial_1726_6154" cx="0" cy="0" r="1" gradientUnits="userSpaceOnUse" gradientTransform="translate(292.238 351.238) rotate(90) scale(13.2384)">
<stop stop-color="#37C7A4"/>
<stop offset="1" stop-color="#395350"/>
</radialGradient>
<linearGradient id="paint29_linear_1726_6154" x1="281.427" y1="338" x2="306.136" y2="340.051" gradientUnits="userSpaceOnUse">
<stop offset="1" stop-color="#B9F598"/>
</linearGradient>
<radialGradient id="paint30_radial_1726_6154" cx="0" cy="0" r="1" gradientUnits="userSpaceOnUse" gradientTransform="translate(366.238 351.238) rotate(90) scale(13.2384)">
<stop stop-color="#37C7A4"/>
<stop offset="1" stop-color="#395350"/>
</radialGradient>
<linearGradient id="paint31_linear_1726_6154" x1="355.427" y1="338" x2="380.136" y2="340.051" gradientUnits="userSpaceOnUse">
<stop offset="1" stop-color="#B9F598"/>
</linearGradient>
<radialGradient id="paint32_radial_1726_6154" cx="0" cy="0" r="1" gradientUnits="userSpaceOnUse" gradientTransform="translate(442.238 351.238) rotate(90) scale(13.2384)">
<stop stop-color="#37C7A4"/>
<stop offset="1" stop-color="#395350"/>
</radialGradient>
<linearGradient id="paint33_linear_1726_6154" x1="431.427" y1="338" x2="456.136" y2="340.051" gradientUnits="userSpaceOnUse">
<stop offset="1" stop-color="#B9F598"/>
</linearGradient>
<linearGradient id="paint34_linear_1726_6154" x1="301.492" y1="49" x2="417.237" y2="119.597" gradientUnits="userSpaceOnUse">
<stop offset="1" stop-color="#B9F598"/>
</linearGradient>
<linearGradient id="paint35_linear_1726_6154" x1="225.677" y1="121" x2="172.552" y2="70.7661" gradientUnits="userSpaceOnUse">
<stop stop-color="#1E4E4E"/>
<stop offset="1" stop-color="#1F2431"/>
</linearGradient>
<linearGradient id="paint36_linear_1726_6154" x1="174.775" y1="68" x2="232.815" y2="76.2034" gradientUnits="userSpaceOnUse">
<stop offset="1" stop-color="#B9F598"/>
</linearGradient>
<linearGradient id="paint37_linear_1726_6154" x1="157.625" y1="52" x2="254.741" y2="64.2676" gradientUnits="userSpaceOnUse">
<stop offset="1" stop-color="#B9F598"/>
</linearGradient>
<linearGradient id="paint38_linear_1726_6154" x1="350.608" y1="93.9941" x2="396.11" y2="102.205" gradientUnits="userSpaceOnUse">
<stop offset="1" stop-color="#B9F598"/>
</linearGradient>
<linearGradient id="paint39_linear_1726_6154" x1="335.888" y1="88" x2="413.512" y2="103.847" gradientUnits="userSpaceOnUse">
<stop offset="1" stop-color="#B9F598"/>
</linearGradient>
</defs>
</svg>
