<svg width="90" height="27" viewBox="0 0 90 27" fill="none" xmlns="http://www.w3.org/2000/svg">
<path d="M4.10785 13.2747L4.74012 13.9514C4.83285 13.8648 4.90678 13.76 4.95733 13.6436C5.00788 13.5272 5.03396 13.4016 5.03396 13.2747C5.03396 13.1478 5.00788 13.0223 4.95733 12.9058C4.90678 12.7894 4.83285 12.6846 4.74012 12.598L4.10785 13.2747ZM20.4356 16.4435C18.9834 18.234 17.0779 20.3235 14.9922 21.9585C12.8842 23.612 10.7195 24.6975 8.7313 24.6975V26.5498C11.3456 26.5498 13.9203 25.1544 16.1357 23.4169C18.3746 21.6609 20.3788 19.4529 21.8743 17.6104L20.4356 16.4435ZM8.7313 24.6975C5.14393 24.6975 2.9273 23.1316 2.16784 21.1953C1.41085 19.2627 1.95173 16.5595 4.74012 13.9514L3.47559 12.598C0.32167 15.5469 -0.673655 19.0182 0.442689 21.8708C1.55903 24.7197 4.62404 26.5498 8.7313 26.5498V24.6975ZM21.873 8.94025C20.3776 7.09656 18.3733 4.88857 16.1345 3.13256C13.9191 1.39507 11.3443 -0.000362396 8.72883 -0.000362396V1.85197C10.7195 1.85197 12.883 2.93868 14.991 4.59096C17.0767 6.22596 18.9821 8.3154 20.4344 10.106L21.873 8.94025ZM8.72883 -0.000362396C4.62281 -0.000362396 1.5578 1.82975 0.442689 4.67988C-0.67489 7.53248 0.3192 11.0025 3.47435 13.9514L4.74012 12.598C1.95173 9.98991 1.40961 7.28673 2.1666 5.35413C2.92483 3.41782 5.1427 1.85197 8.72883 1.85197V-0.000362396ZM21.8743 17.6104C23.1487 16.0421 24.0835 14.9517 24.0835 13.2747H22.2312C22.2312 14.1675 21.831 14.7232 20.4356 16.4435L21.8743 17.6104ZM20.4344 10.106C21.8298 11.8262 22.2312 12.3819 22.2312 13.2747H24.0835C24.0835 11.5977 23.1487 10.5073 21.8743 8.93902L20.4344 10.106Z" fill="#D9D9D9"/>
<path d="M84.9756 13.2751L84.3434 12.5984C84.2506 12.685 84.1767 12.7898 84.1262 12.9062C84.0756 13.0226 84.0495 13.1482 84.0495 13.2751C84.0495 13.402 84.0756 13.5276 84.1262 13.644C84.1767 13.7604 84.2506 13.8652 84.3434 13.9518L84.9756 13.2751ZM68.6479 10.1064C70.1001 8.31576 72.0056 6.22632 74.0913 4.59133C76.1993 2.93781 78.364 1.85234 80.3522 1.85234V0C77.7379 0 75.1632 1.39543 72.9478 3.13292C70.7089 4.88894 68.7047 7.09692 67.2092 8.93938L68.6479 10.1064ZM80.3522 1.85234C83.9396 1.85234 86.1562 3.41818 86.9157 5.35449C87.6727 7.2871 87.1318 9.99027 84.3434 12.5984L85.6079 13.9518C88.7618 11.0029 89.7572 7.5316 88.6408 4.679C87.5245 1.83011 84.4595 0 80.3522 0V1.85234ZM67.2105 17.6096C68.7059 19.4532 70.7101 21.6612 72.949 23.4172C75.1644 25.1547 77.7392 26.5502 80.3547 26.5502V24.6978C78.364 24.6978 76.2005 23.6111 74.0925 21.9588C72.0068 20.3238 70.1013 18.2344 68.6491 16.4438L67.2105 17.6096ZM80.3547 26.5502C84.4607 26.5502 87.5257 24.7201 88.6408 21.8699C89.7584 19.0173 88.7643 15.5473 85.6091 12.5984L84.3434 13.9518C87.1318 16.5599 87.6739 19.2631 86.9169 21.1957C86.1587 23.132 83.9408 24.6978 80.3547 24.6978V26.5502ZM67.2092 8.93938C65.9348 10.5077 65 11.5981 65 13.2751H66.8523C66.8523 12.3823 67.2524 11.8266 68.6479 10.1064L67.2092 8.93938ZM68.6491 16.4438C67.2537 14.7236 66.8523 14.1679 66.8523 13.2751H65C65 14.9521 65.9348 16.0425 67.2092 17.6108L68.6491 16.4438Z" fill="#D9D9D9"/>
<path d="M66.9863 13.5752H21.9863" stroke="#D9D9D9" stroke-width="6"/>
</svg>
