<svg width="68" height="101" viewBox="0 0 68 101" fill="none" xmlns="http://www.w3.org/2000/svg">
<g style="mix-blend-mode:multiply" filter="url(#filter0_f_940_3685)">
<ellipse cx="34" cy="77.5" rx="28" ry="17.5" fill="black" fill-opacity="0.1"/>
</g>
<path d="M60.9395 48.5034C60.3873 63.3773 41.5567 77.5726 32.4175 77.2334C23.2783 76.8941 5.55212 61.3416 6.10429 46.4677C6.79332 27.8753 19.0698 28.3311 34.2121 28.8932C49.3544 29.4553 61.6131 30.3574 60.9395 48.5034Z" fill="#F68561"/>
<path d="M23.9338 20.4284C31.3405 21.454 35.1969 26.406 36.8392 30.2959C35.852 26.4234 35.2333 20.5595 40.4192 19.0865C41.0295 20.8673 42.8393 26.1485 41.4895 29.8123C45.2953 27.4505 50.9307 25.809 54.8868 28.3391C54.4384 30.6934 47.2164 34.5262 37.7288 33.2124C30.8655 35.1618 25.6725 25.502 23.9338 20.4284Z" fill="#3D8E53"/>
<path d="M19.9177 50.7004C19.9784 52.7561 19.0046 54.4298 17.7425 54.4388C16.4804 54.4477 15.4081 52.7884 15.3473 50.7327C15.2866 48.677 16.2604 47.0033 17.5225 46.9943C18.7846 46.9854 19.8569 48.6447 19.9177 50.7004Z" fill="#141B25"/>
<path d="M25.5887 39.9811C25.6226 42.0369 24.6267 43.7018 23.3644 43.6998C22.1021 43.6978 21.0513 42.0296 21.0174 39.9738C20.9835 37.918 21.9794 36.2531 23.2417 36.2551C24.504 36.2572 25.5548 37.9253 25.5887 39.9811Z" fill="#141B25"/>
<path d="M29.2904 62.1357C29.7689 64.16 29.152 65.9463 27.9125 66.1256C26.6729 66.3049 25.2801 64.8092 24.8016 62.7849C24.323 60.7606 24.9399 58.9743 26.1795 58.795C27.419 58.6158 28.8118 60.1114 29.2904 62.1357Z" fill="#141B25"/>
<path d="M43.0538 59.8677C42.2597 61.809 40.6445 63.1086 39.4462 62.7703C38.2478 62.4321 37.92 60.5841 38.7141 58.6428C39.5081 56.7015 41.1233 55.402 42.3217 55.7403C43.5201 56.0785 43.8479 57.9264 43.0538 59.8677Z" fill="#141B25"/>
<path d="M52.9048 45.3012C52.1937 47.2647 50.6353 48.6094 49.4239 48.3048C48.2126 48.0001 47.8071 46.1615 48.5181 44.1981C49.2292 42.2346 50.7876 40.8899 51.999 41.1945C53.2103 41.4992 53.6159 43.3378 52.9048 45.3012Z" fill="#141B25"/>
<path d="M39.3403 41.0863C38.6293 43.0497 37.0708 44.3944 35.8595 44.0898C34.6482 43.7852 34.2426 41.9465 34.9537 39.9831C35.6648 38.0197 37.2232 36.6749 38.4345 36.9796C39.6459 37.2842 40.0514 39.1228 39.3403 41.0863Z" fill="#141B25"/>
<path d="M34.4443 51.5218C34.4619 53.5775 33.4529 55.237 32.1905 55.2284C30.928 55.2197 29.8904 53.5462 29.8727 51.4905C29.8551 49.4348 30.8642 47.7753 32.1266 47.784C33.389 47.7926 34.4267 49.4661 34.4443 51.5218Z" fill="#141B25"/>
<path d="M38.7553 30.0247C35.546 11.2811 43.4771 11.1227 52.928 1.67404" stroke="#3D8E53" stroke-width="0.5"/>
<defs>
<filter id="filter0_f_940_3685" x="0.43117" y="54.4312" width="67.1377" height="46.1377" filterUnits="userSpaceOnUse" color-interpolation-filters="sRGB">
<feFlood flood-opacity="0" result="BackgroundImageFix"/>
<feBlend mode="normal" in="SourceGraphic" in2="BackgroundImageFix" result="shape"/>
<feGaussianBlur stdDeviation="2.78441" result="effect1_foregroundBlur_940_3685"/>
</filter>
</defs>
</svg>
