<svg width="212" height="611" viewBox="0 0 212 611" fill="none" xmlns="http://www.w3.org/2000/svg">
<path d="M80.4794 154.122C78.8453 160.485 87.2887 175.005 90.3202 177.627C93.1326 179.04 104.519 184.164 110.961 183.809C119.013 183.365 119.446 175.499 118.653 172.406C120.536 171.257 124.253 167.915 124.054 163.744C123.856 159.573 119.247 157.735 116.026 157.912C118.401 156.91 122.257 148.735 114.873 143.861C105.37 137.589 104.144 142.361 99.9688 146.251C96.7719 140.154 91.7121 139.218 90.4644 139.98C86.6984 142.278 88.8299 146.343 87.6032 151.115C84.2464 151.823 81.513 150.097 80.4794 154.122Z" fill="#3D8E53"/>
<path d="M90.3202 177.626L81.3296 199.756C88.0655 201.904 100.431 209.327 96.0076 221.834C91.5839 234.342 99.6852 234.492 104.289 233.004C106.822 230.398 109.748 225.187 101.183 225.186C99.8029 225.558 97.4572 226.972 99.1135 229.653M90.3202 177.626C87.2887 175.005 78.8453 160.485 80.4794 154.122C81.513 150.097 84.2464 151.823 87.6032 151.115C88.8299 146.343 86.6984 142.278 90.4644 139.98C91.7121 139.218 96.7719 140.154 99.9688 146.251C104.144 142.361 105.37 137.589 114.873 143.861C122.257 148.735 118.401 156.91 116.026 157.912C119.247 157.735 123.856 159.573 124.054 163.744C124.253 167.915 120.536 171.257 118.653 172.406C119.446 175.499 119.013 183.365 110.961 183.809C104.519 184.164 93.1326 179.04 90.3202 177.626Z" stroke="#3D8E53" stroke-width="3.72722"/>
<path d="M101.359 186.742C98.8416 188.795 97.9395 197.391 98.3764 199.427C99.0807 200.903 102.107 206.636 104.775 208.562C108.109 210.969 110.59 207.921 111.182 206.413C112.269 206.552 114.728 206.392 115.873 204.638C117.019 202.884 115.724 200.659 114.391 199.696C115.63 200.053 119.563 197.979 118.056 193.632C116.115 188.038 114.227 189.578 111.424 189.813C111.941 186.315 108.881 186.834 108.161 186.742C105.988 186.463 106.965 186.272 105.076 187.812C103.533 187.02 102.952 185.443 101.359 186.742Z" fill="#3D8E53"/>
<path d="M98.3764 199.427C97.9395 197.391 98.8416 188.795 101.359 186.742C102.952 185.443 103.533 187.02 105.076 187.812C106.965 186.272 105.988 186.463 108.161 186.742C108.881 186.834 111.941 186.315 111.424 189.813C114.227 189.578 116.115 188.038 118.056 193.632C119.563 197.979 115.63 200.053 114.391 199.696C115.724 200.659 117.019 202.884 115.873 204.638C114.728 206.392 112.269 206.552 111.182 206.413C110.59 207.921 108.109 210.969 104.775 208.562C102.107 206.636 99.0807 200.903 98.3764 199.427ZM98.3764 199.427C96.2865 198.992 87.3924 198.04 81.3074 199.782" stroke="#3D8E53" stroke-width="3.72722"/>
<path d="M92.3207 174.739L94.441 147.963M92.3207 174.739L110.003 149.193M92.3207 174.739L115.025 164.402M92.3207 174.739L110.832 176.852M92.3207 174.739L87.8114 161.397" stroke="#89E159" stroke-width="1.86361"/>
<path d="M75.3806 160.708C78.1403 164.808 75.185 176.894 73.5057 179.413C71.7048 181.036 64.2714 187.185 59.2894 188.38C53.0624 189.875 50.8572 184.451 50.7225 182.102C49.0169 181.717 45.3948 180.205 44.5509 177.233C43.707 174.261 46.7717 171.937 49.2628 171.34C47.2187 171.169 42.3377 166.295 46.7884 161.219C52.5164 154.685 54.5867 157.76 58.688 159.554C59.664 154.557 63.2873 152.766 64.4173 153.021C67.8284 153.79 67.1775 157.121 69.2482 160.196C71.9689 159.94 73.635 158.115 75.3806 160.708Z" fill="#3D8E53"/>
<path d="M81.4325 200.544L73.5057 179.413M73.5057 179.413C75.185 176.894 78.1403 164.808 75.3806 160.708C73.635 158.115 71.9689 159.94 69.2482 160.196C67.1775 157.121 67.8284 153.79 64.4173 153.021C63.2873 152.766 59.664 154.557 58.688 159.554C54.5867 157.76 52.5164 154.685 46.7884 161.219C42.3377 166.295 47.2187 171.169 49.2628 171.34C46.7717 171.937 43.707 174.261 44.5509 177.233C45.3948 180.205 49.0169 181.717 50.7225 182.102C50.8572 184.451 53.0624 189.875 59.2894 188.38C64.2714 187.185 71.7048 181.036 73.5057 179.413Z" stroke="#3D8E53" stroke-width="3.72722"/>
<path d="M71.1089 178L63.1135 159.679M71.1089 178L51.5785 164.034M71.1089 178L51.3874 175.836M71.1089 178L57.543 183.636M71.1089 178L71.3554 167.622" stroke="#89E159" stroke-width="1.86361"/>
<path d="M73.3776 200.047C71.8817 204.476 65.8851 207.135 63.6347 206.251C61.3844 205.366 58.3795 199.167 59.8754 194.738C61.745 189.202 64.7679 190.391 68.4964 191.857C72.2249 193.323 75.2026 194.644 73.3776 200.047Z" fill="#F68561"/>
<path d="M66.6797 187.324C68.5294 188.318 68.9582 190.442 68.9529 191.817C69.6524 190.822 73.3039 191.941 74.2399 193.303C73.913 193.973 71.1473 193.791 68.8989 192.583C67.0077 192.582 66.6504 189 66.6797 187.324Z" fill="#3D8E53"/>
<path d="M62.9369 197.193C62.7643 197.817 62.3684 198.237 62.0525 198.132C61.7367 198.026 61.6205 197.435 61.793 196.811C61.9656 196.187 62.3615 195.767 62.6774 195.872C62.9932 195.978 63.1094 196.569 62.9369 197.193Z" fill="#141B25"/>
<path d="M65.332 194.451C65.1527 195.073 64.7521 195.488 64.4372 195.38C64.1222 195.271 64.0123 194.679 64.1915 194.057C64.3708 193.436 64.7714 193.02 65.0863 193.128C65.4013 193.237 65.5112 193.829 65.332 194.451Z" fill="#141B25"/>
<path d="M64.2328 201.439C64.1674 202.089 63.8503 202.574 63.5245 202.522C63.1988 202.469 62.9876 201.9 63.053 201.25C63.1184 200.599 63.4355 200.115 63.7613 200.167C64.0871 200.219 64.2982 200.788 64.2328 201.439Z" fill="#141B25"/>
<path d="M67.8795 201.927C67.504 202.443 66.9821 202.696 66.7138 202.492C66.4456 202.287 66.5325 201.703 66.908 201.187C67.2835 200.67 67.8054 200.418 68.0736 200.622C68.3419 200.827 68.255 201.411 67.8795 201.927Z" fill="#141B25"/>
<path d="M71.6676 198.39C71.3108 198.92 70.799 199.191 70.5244 198.996C70.2498 198.8 70.3165 198.212 70.6733 197.682C71.0301 197.152 71.5419 196.881 71.8165 197.076C72.091 197.272 72.0244 197.86 71.6676 198.39Z" fill="#141B25"/>
<path d="M68.6637 195.954C68.3069 196.485 67.795 196.756 67.5205 196.56C67.2459 196.365 67.3126 195.777 67.6694 195.247C68.0262 194.717 68.538 194.446 68.8126 194.641C69.0871 194.836 69.0205 195.424 68.6637 195.954Z" fill="#141B25"/>
<path d="M66.4895 198.686C66.3062 199.306 65.9028 199.719 65.5884 199.609C65.2741 199.498 65.1679 198.905 65.3512 198.285C65.5345 197.665 65.9379 197.252 66.2523 197.363C66.5666 197.473 66.6728 198.066 66.4895 198.686Z" fill="#141B25"/>
<path d="M68.3848 191.668C76.7544 190.657 78.9664 194.679 81.0136 198.314" stroke="#3D8E53" stroke-width="1.86361"/>
<path d="M84.8379 213.487C84.6721 218.308 79.0152 222.909 76.2697 222.799C73.5243 222.689 68.1992 217.648 68.3651 212.827C68.572 206.801 72.26 206.949 76.8088 207.131C81.3577 207.313 85.0403 207.606 84.8379 213.487Z" fill="#F68561"/>
<path d="M73.7213 204.387C75.9463 204.719 77.1048 206.324 77.5981 207.585C77.3016 206.33 77.1157 204.429 78.6736 203.952C78.8569 204.529 79.4006 206.241 78.9951 207.429C80.1384 206.663 81.8313 206.131 83.0198 206.951C82.885 207.714 80.7155 208.957 77.8653 208.531C75.8035 209.163 74.2435 206.031 73.7213 204.387Z" fill="#3D8E53"/>
<path d="M72.5149 214.198C72.5332 214.864 72.2406 215.407 71.8615 215.41C71.4823 215.413 71.1602 214.875 71.1419 214.208C71.1237 213.542 71.4162 213 71.7954 212.997C72.1745 212.994 72.4967 213.532 72.5149 214.198Z" fill="#141B25"/>
<path d="M74.2188 210.727C74.229 211.393 73.9298 211.933 73.5506 211.932C73.1714 211.931 72.8558 211.391 72.8456 210.724C72.8354 210.058 73.1346 209.518 73.5138 209.519C73.893 209.519 74.2086 210.06 74.2188 210.727Z" fill="#141B25"/>
<path d="M75.33 217.911C75.4738 218.567 75.2885 219.146 74.9161 219.205C74.5437 219.263 74.1253 218.778 73.9815 218.122C73.8377 217.466 74.0231 216.886 74.3954 216.828C74.7678 216.77 75.1862 217.255 75.33 217.911Z" fill="#141B25"/>
<path d="M79.4645 217.173C79.2259 217.802 78.7407 218.224 78.3807 218.114C78.0207 218.004 77.9223 217.405 78.1608 216.776C78.3994 216.147 78.8846 215.726 79.2446 215.835C79.6046 215.945 79.7031 216.544 79.4645 217.173Z" fill="#141B25"/>
<path d="M82.4236 212.453C82.21 213.09 81.7418 213.526 81.3779 213.427C81.014 213.328 80.8922 212.732 81.1059 212.096C81.3195 211.459 81.7877 211.023 82.1516 211.122C82.5155 211.221 82.6373 211.817 82.4236 212.453Z" fill="#141B25"/>
<path d="M78.3494 211.086C78.1358 211.723 77.6676 212.158 77.3037 212.06C76.9398 211.961 76.818 211.365 77.0316 210.729C77.2453 210.092 77.7135 209.656 78.0773 209.755C78.4412 209.854 78.5631 210.45 78.3494 211.086Z" fill="#141B25"/>
<path d="M76.8785 214.471C76.8838 215.137 76.5807 215.675 76.2015 215.672C75.8222 215.669 75.5105 215.127 75.5052 214.46C75.4999 213.794 75.803 213.256 76.1823 213.259C76.5615 213.262 76.8732 213.804 76.8785 214.471Z" fill="#141B25"/>
<path d="M78.1737 207.5C77.2096 201.425 79.5922 201.373 82.4313 198.311" stroke="#3D8E53" stroke-width="1.86361"/>
<path d="M150.479 256.122C148.845 262.485 157.289 277.005 160.32 279.627C163.133 281.04 174.519 286.164 180.961 285.809C189.013 285.365 189.446 277.499 188.653 274.406C190.536 273.257 194.253 269.915 194.054 265.744C193.856 261.573 189.247 259.735 186.026 259.912C188.401 258.91 192.257 250.735 184.873 245.861C175.37 239.589 174.144 244.361 169.969 248.251C166.772 242.154 161.712 241.218 160.464 241.98C156.698 244.278 158.83 248.343 157.603 253.115C154.246 253.823 151.513 252.097 150.479 256.122Z" fill="#3D8E53"/>
<path d="M160.32 279.626L151.33 301.756C158.065 303.904 170.431 311.327 166.008 323.834C161.584 336.342 169.685 336.492 174.289 335.004C176.822 332.398 179.748 327.187 171.183 327.186C169.803 327.558 167.457 328.972 169.114 331.653M160.32 279.626C157.289 277.005 148.845 262.485 150.479 256.122C151.513 252.097 154.246 253.823 157.603 253.115C158.83 248.343 156.698 244.278 160.464 241.98C161.712 241.218 166.772 242.154 169.969 248.251C174.144 244.361 175.37 239.589 184.873 245.861C192.257 250.735 188.401 258.91 186.026 259.912C189.247 259.735 193.856 261.573 194.054 265.744C194.253 269.915 190.536 273.257 188.653 274.406C189.446 277.499 189.013 285.365 180.961 285.809C174.519 286.164 163.133 281.04 160.32 279.626Z" stroke="#3D8E53" stroke-width="3.72722"/>
<path d="M171.359 288.742C168.842 290.795 167.939 299.391 168.376 301.427C169.081 302.903 172.107 308.636 174.775 310.562C178.109 312.969 180.59 309.921 181.182 308.413C182.269 308.552 184.728 308.392 185.873 306.638C187.019 304.884 185.724 302.659 184.391 301.696C185.63 302.053 189.563 299.979 188.056 295.632C186.115 290.038 184.227 291.578 181.424 291.813C181.941 288.315 178.881 288.834 178.161 288.742C175.988 288.463 176.965 288.272 175.076 289.812C173.533 289.02 172.952 287.443 171.359 288.742Z" fill="#3D8E53"/>
<path d="M168.376 301.427C167.939 299.391 168.842 290.795 171.359 288.742C172.952 287.443 173.533 289.02 175.076 289.812C176.965 288.272 175.988 288.463 178.161 288.742C178.881 288.834 181.941 288.315 181.424 291.813C184.227 291.578 186.115 290.038 188.056 295.632C189.563 299.979 185.63 302.053 184.391 301.696C185.724 302.659 187.019 304.884 185.873 306.638C184.728 308.392 182.269 308.552 181.182 308.413C180.59 309.921 178.109 312.969 174.775 310.562C172.107 308.636 169.081 302.903 168.376 301.427ZM168.376 301.427C166.286 300.992 157.392 300.04 151.307 301.782" stroke="#3D8E53" stroke-width="3.72722"/>
<path d="M162.321 276.739L164.441 249.963M162.321 276.739L180.003 251.193M162.321 276.739L185.025 266.402M162.321 276.739L180.832 278.852M162.321 276.739L157.811 263.397" stroke="#89E159" stroke-width="1.86361"/>
<path d="M145.381 262.708C148.14 266.808 145.185 278.894 143.506 281.413C141.705 283.036 134.271 289.185 129.289 290.38C123.062 291.875 120.857 286.451 120.722 284.102C119.017 283.717 115.395 282.205 114.551 279.233C113.707 276.261 116.772 273.937 119.263 273.34C117.219 273.169 112.338 268.295 116.788 263.219C122.516 256.685 124.587 259.76 128.688 261.554C129.664 256.557 133.287 254.766 134.417 255.021C137.828 255.79 137.177 259.121 139.248 262.196C141.969 261.94 143.635 260.115 145.381 262.708Z" fill="#3D8E53"/>
<path d="M151.432 302.544L143.506 281.413M143.506 281.413C145.185 278.894 148.14 266.808 145.381 262.708C143.635 260.115 141.969 261.94 139.248 262.196C137.177 259.121 137.828 255.79 134.417 255.021C133.287 254.766 129.664 256.557 128.688 261.554C124.587 259.76 122.516 256.685 116.788 263.219C112.338 268.295 117.219 273.169 119.263 273.34C116.772 273.937 113.707 276.261 114.551 279.233C115.395 282.205 119.017 283.717 120.722 284.102C120.857 286.451 123.062 291.875 129.289 290.38C134.271 289.185 141.705 283.036 143.506 281.413Z" stroke="#3D8E53" stroke-width="3.72722"/>
<path d="M141.109 280L133.113 261.679M141.109 280L121.579 266.034M141.109 280L121.387 277.836M141.109 280L127.543 285.636M141.109 280L141.355 269.622" stroke="#89E159" stroke-width="1.86361"/>
<path d="M143.378 302.047C141.882 306.476 135.885 309.135 133.635 308.251C131.384 307.366 128.38 301.167 129.875 296.738C131.745 291.202 134.768 292.391 138.496 293.857C142.225 295.323 145.203 296.644 143.378 302.047Z" fill="#F68561"/>
<path d="M136.68 289.324C138.529 290.318 138.958 292.442 138.953 293.817C139.652 292.822 143.304 293.941 144.24 295.303C143.913 295.973 141.147 295.791 138.899 294.583C137.008 294.582 136.65 291 136.68 289.324Z" fill="#3D8E53"/>
<path d="M132.937 299.193C132.764 299.817 132.368 300.237 132.053 300.132C131.737 300.026 131.62 299.435 131.793 298.811C131.966 298.187 132.362 297.767 132.677 297.872C132.993 297.978 133.109 298.569 132.937 299.193Z" fill="#141B25"/>
<path d="M135.332 296.451C135.153 297.073 134.752 297.488 134.437 297.38C134.122 297.271 134.012 296.679 134.192 296.057C134.371 295.436 134.771 295.02 135.086 295.128C135.401 295.237 135.511 295.829 135.332 296.451Z" fill="#141B25"/>
<path d="M134.233 303.439C134.167 304.089 133.85 304.574 133.525 304.522C133.199 304.469 132.988 303.9 133.053 303.25C133.118 302.599 133.435 302.115 133.761 302.167C134.087 302.219 134.298 302.788 134.233 303.439Z" fill="#141B25"/>
<path d="M137.879 303.927C137.504 304.443 136.982 304.696 136.714 304.492C136.446 304.287 136.532 303.703 136.908 303.187C137.283 302.67 137.805 302.418 138.074 302.622C138.342 302.827 138.255 303.411 137.879 303.927Z" fill="#141B25"/>
<path d="M141.668 300.39C141.311 300.92 140.799 301.191 140.524 300.996C140.25 300.8 140.316 300.212 140.673 299.682C141.03 299.152 141.542 298.881 141.816 299.076C142.091 299.272 142.024 299.86 141.668 300.39Z" fill="#141B25"/>
<path d="M138.664 297.954C138.307 298.485 137.795 298.756 137.52 298.56C137.246 298.365 137.313 297.777 137.669 297.247C138.026 296.717 138.538 296.446 138.813 296.641C139.087 296.836 139.02 297.424 138.664 297.954Z" fill="#141B25"/>
<path d="M136.49 300.686C136.306 301.306 135.903 301.719 135.588 301.609C135.274 301.498 135.168 300.905 135.351 300.285C135.535 299.665 135.938 299.252 136.252 299.363C136.567 299.473 136.673 300.066 136.49 300.686Z" fill="#141B25"/>
<path d="M138.385 293.668C146.754 292.657 148.966 296.679 151.014 300.314" stroke="#3D8E53" stroke-width="1.86361"/>
<path d="M154.838 315.487C154.672 320.308 149.015 324.909 146.27 324.799C143.524 324.689 138.199 319.648 138.365 314.827C138.572 308.801 142.26 308.949 146.809 309.131C151.358 309.313 155.04 309.606 154.838 315.487Z" fill="#F68561"/>
<path d="M143.721 306.387C145.946 306.719 147.105 308.324 147.598 309.585C147.302 308.33 147.116 306.429 148.674 305.952C148.857 306.529 149.401 308.241 148.995 309.429C150.138 308.663 151.831 308.131 153.02 308.951C152.885 309.714 150.715 310.957 147.865 310.531C145.804 311.163 144.244 308.031 143.721 306.387Z" fill="#3D8E53"/>
<path d="M142.515 316.198C142.533 316.864 142.241 317.407 141.861 317.41C141.482 317.413 141.16 316.875 141.142 316.208C141.124 315.542 141.416 315 141.795 314.997C142.175 314.994 142.497 315.532 142.515 316.198Z" fill="#141B25"/>
<path d="M144.219 312.727C144.229 313.393 143.93 313.933 143.551 313.932C143.171 313.931 142.856 313.391 142.846 312.724C142.835 312.058 143.135 311.518 143.514 311.519C143.893 311.519 144.209 312.06 144.219 312.727Z" fill="#141B25"/>
<path d="M145.33 319.911C145.474 320.567 145.288 321.146 144.916 321.205C144.544 321.263 144.125 320.778 143.982 320.122C143.838 319.466 144.023 318.886 144.395 318.828C144.768 318.77 145.186 319.255 145.33 319.911Z" fill="#141B25"/>
<path d="M149.465 319.173C149.226 319.802 148.741 320.224 148.381 320.114C148.021 320.004 147.922 319.405 148.161 318.776C148.399 318.147 148.885 317.726 149.245 317.835C149.605 317.945 149.703 318.544 149.465 319.173Z" fill="#141B25"/>
<path d="M152.424 314.453C152.21 315.09 151.742 315.526 151.378 315.427C151.014 315.328 150.892 314.732 151.106 314.096C151.319 313.459 151.788 313.023 152.152 313.122C152.515 313.221 152.637 313.817 152.424 314.453Z" fill="#141B25"/>
<path d="M148.349 313.086C148.136 313.723 147.668 314.158 147.304 314.06C146.94 313.961 146.818 313.365 147.032 312.729C147.245 312.092 147.713 311.656 148.077 311.755C148.441 311.854 148.563 312.45 148.349 313.086Z" fill="#141B25"/>
<path d="M146.879 316.471C146.884 317.137 146.581 317.675 146.201 317.672C145.822 317.669 145.51 317.127 145.505 316.46C145.5 315.794 145.803 315.256 146.182 315.259C146.562 315.262 146.873 315.804 146.879 316.471Z" fill="#141B25"/>
<path d="M148.174 309.5C147.21 303.425 149.592 303.373 152.431 300.311" stroke="#3D8E53" stroke-width="1.86361"/>
<path d="M69.4794 358.122C67.8453 364.485 76.2887 379.005 79.3202 381.627C82.1326 383.04 93.5186 388.164 99.961 387.809C108.013 387.365 108.446 379.499 107.653 376.406C109.536 375.257 113.253 371.915 113.054 367.744C112.856 363.573 108.247 361.735 105.026 361.912C107.401 360.91 111.257 352.735 103.873 347.861C94.3698 341.589 93.1437 346.361 88.9688 350.251C85.7719 344.154 80.7121 343.218 79.4644 343.98C75.6984 346.278 77.8299 350.343 76.6032 355.115C73.2464 355.823 70.513 354.097 69.4794 358.122Z" fill="#3D8E53"/>
<path d="M79.3202 381.626L70.3296 403.756C77.0655 405.904 89.4313 413.327 85.0076 425.834C80.5839 438.342 88.6852 438.492 93.2887 437.004C95.8223 434.398 98.7481 429.187 90.1828 429.186C88.8029 429.558 86.4572 430.972 88.1135 433.653M79.3202 381.626C76.2887 379.005 67.8453 364.485 69.4794 358.122C70.513 354.097 73.2464 355.823 76.6032 355.115C77.8299 350.343 75.6984 346.278 79.4644 343.98C80.7121 343.218 85.7719 344.154 88.9688 350.251C93.1437 346.361 94.3698 341.589 103.873 347.861C111.257 352.735 107.401 360.91 105.026 361.912C108.247 361.735 112.856 363.573 113.054 367.744C113.253 371.915 109.536 375.257 107.653 376.406C108.446 379.499 108.013 387.365 99.961 387.809C93.5186 388.164 82.1326 383.04 79.3202 381.626Z" stroke="#3D8E53" stroke-width="3.72722"/>
<path d="M90.3592 390.742C87.8416 392.795 86.9395 401.391 87.3764 403.427C88.0807 404.903 91.1073 410.636 93.7749 412.562C97.1091 414.969 99.59 411.921 100.182 410.413C101.269 410.552 103.728 410.392 104.873 408.638C106.019 406.884 104.724 404.659 103.391 403.696C104.63 404.053 108.563 401.979 107.056 397.632C105.115 392.038 103.227 393.578 100.424 393.813C100.941 390.315 97.8808 390.834 97.1609 390.742C94.9878 390.463 95.9649 390.272 94.0761 391.812C92.5327 391.02 91.9517 389.443 90.3592 390.742Z" fill="#3D8E53"/>
<path d="M87.3764 403.427C86.9395 401.391 87.8416 392.795 90.3592 390.742C91.9517 389.443 92.5327 391.02 94.0761 391.812C95.9649 390.272 94.9878 390.463 97.1609 390.742C97.8808 390.834 100.941 390.315 100.424 393.813C103.227 393.578 105.115 392.038 107.056 397.632C108.563 401.979 104.63 404.053 103.391 403.696C104.724 404.659 106.019 406.884 104.873 408.638C103.728 410.392 101.269 410.552 100.182 410.413C99.59 411.921 97.1091 414.969 93.7749 412.562C91.1073 410.636 88.0807 404.903 87.3764 403.427ZM87.3764 403.427C85.2865 402.992 76.3924 402.04 70.3074 403.782" stroke="#3D8E53" stroke-width="3.72722"/>
<path d="M81.3207 378.739L83.441 351.963M81.3207 378.739L99.0032 353.193M81.3207 378.739L104.025 368.402M81.3207 378.739L99.8318 380.852M81.3207 378.739L76.8114 365.397" stroke="#89E159" stroke-width="1.86361"/>
<path d="M64.3806 364.708C67.1403 368.808 64.185 380.894 62.5057 383.413C60.7048 385.036 53.2714 391.185 48.2894 392.38C42.0624 393.875 39.8572 388.451 39.7225 386.102C38.0169 385.717 34.3948 384.205 33.5509 381.233C32.707 378.261 35.7717 375.937 38.2628 375.34C36.2187 375.169 31.3377 370.295 35.7884 365.219C41.5164 358.685 43.5867 361.76 47.688 363.554C48.664 358.557 52.2873 356.766 53.4173 357.021C56.8284 357.79 56.1775 361.121 58.2482 364.196C60.9689 363.94 62.635 362.115 64.3806 364.708Z" fill="#3D8E53"/>
<path d="M70.4325 404.544L62.5057 383.413M62.5057 383.413C64.185 380.894 67.1403 368.808 64.3806 364.708C62.635 362.115 60.9689 363.94 58.2482 364.196C56.1775 361.121 56.8284 357.79 53.4173 357.021C52.2873 356.766 48.664 358.557 47.688 363.554C43.5867 361.76 41.5164 358.685 35.7884 365.219C31.3377 370.295 36.2187 375.169 38.2628 375.34C35.7717 375.937 32.707 378.261 33.5509 381.233C34.3948 384.205 38.0169 385.717 39.7225 386.102C39.8572 388.451 42.0624 393.875 48.2894 392.38C53.2714 391.185 60.7048 385.036 62.5057 383.413Z" stroke="#3D8E53" stroke-width="3.72722"/>
<path d="M60.1089 382L52.1135 363.679M60.1089 382L40.5785 368.034M60.1089 382L40.3874 379.836M60.1089 382L46.543 387.636M60.1089 382L60.3554 371.622" stroke="#89E159" stroke-width="1.86361"/>
<path d="M62.3776 404.047C60.8817 408.476 54.8851 411.135 52.6347 410.251C50.3844 409.366 47.3795 403.167 48.8754 398.738C50.745 393.202 53.7679 394.391 57.4964 395.857C61.2249 397.323 64.2026 398.644 62.3776 404.047Z" fill="#F68561"/>
<path d="M55.6797 391.324C57.5294 392.318 57.9582 394.442 57.9529 395.817C58.6524 394.822 62.3039 395.941 63.2399 397.303C62.913 397.973 60.1473 397.791 57.8989 396.583C56.0077 396.582 55.6504 393 55.6797 391.324Z" fill="#3D8E53"/>
<path d="M51.9369 401.193C51.7643 401.817 51.3684 402.237 51.0525 402.132C50.7367 402.026 50.6205 401.435 50.793 400.811C50.9656 400.187 51.3615 399.767 51.6774 399.872C51.9932 399.978 52.1094 400.569 51.9369 401.193Z" fill="#141B25"/>
<path d="M54.332 398.451C54.1527 399.073 53.7521 399.488 53.4372 399.38C53.1222 399.271 53.0123 398.679 53.1915 398.057C53.3708 397.436 53.7714 397.02 54.0863 397.128C54.4013 397.237 54.5112 397.829 54.332 398.451Z" fill="#141B25"/>
<path d="M53.2328 405.439C53.1674 406.089 52.8503 406.574 52.5245 406.522C52.1988 406.469 51.9876 405.9 52.053 405.25C52.1184 404.599 52.4355 404.115 52.7613 404.167C53.0871 404.219 53.2982 404.788 53.2328 405.439Z" fill="#141B25"/>
<path d="M56.8795 405.927C56.504 406.443 55.9821 406.696 55.7138 406.492C55.4456 406.287 55.5325 405.703 55.908 405.187C56.2835 404.67 56.8054 404.418 57.0736 404.622C57.3419 404.827 57.255 405.411 56.8795 405.927Z" fill="#141B25"/>
<path d="M60.6676 402.39C60.3108 402.92 59.799 403.191 59.5244 402.996C59.2498 402.8 59.3165 402.212 59.6733 401.682C60.0301 401.152 60.5419 400.881 60.8165 401.076C61.091 401.272 61.0244 401.86 60.6676 402.39Z" fill="#141B25"/>
<path d="M57.6637 399.954C57.3069 400.485 56.795 400.756 56.5205 400.56C56.2459 400.365 56.3126 399.777 56.6694 399.247C57.0262 398.717 57.538 398.446 57.8126 398.641C58.0871 398.836 58.0205 399.424 57.6637 399.954Z" fill="#141B25"/>
<path d="M55.4895 402.686C55.3062 403.306 54.9028 403.719 54.5884 403.609C54.2741 403.498 54.1679 402.905 54.3512 402.285C54.5345 401.665 54.9379 401.252 55.2523 401.363C55.5666 401.473 55.6728 402.066 55.4895 402.686Z" fill="#141B25"/>
<path d="M57.3848 395.668C65.7544 394.657 67.9664 398.679 70.0136 402.314" stroke="#3D8E53" stroke-width="1.86361"/>
<path d="M73.8379 417.487C73.6721 422.308 68.0152 426.909 65.2697 426.799C62.5243 426.689 57.1992 421.648 57.3651 416.827C57.572 410.801 61.26 410.949 65.8088 411.131C70.3577 411.313 74.0403 411.606 73.8379 417.487Z" fill="#F68561"/>
<path d="M62.7213 408.387C64.9463 408.719 66.1048 410.324 66.5981 411.585C66.3016 410.33 66.1157 408.429 67.6736 407.952C67.8569 408.529 68.4006 410.241 67.9951 411.429C69.1384 410.663 70.8313 410.131 72.0198 410.951C71.885 411.714 69.7155 412.957 66.8653 412.531C64.8035 413.163 63.2435 410.031 62.7213 408.387Z" fill="#3D8E53"/>
<path d="M61.5149 418.198C61.5332 418.864 61.2406 419.407 60.8615 419.41C60.4823 419.413 60.1602 418.875 60.1419 418.208C60.1237 417.542 60.4162 417 60.7954 416.997C61.1745 416.994 61.4967 417.532 61.5149 418.198Z" fill="#141B25"/>
<path d="M63.2188 414.727C63.229 415.393 62.9298 415.933 62.5506 415.932C62.1714 415.931 61.8558 415.391 61.8456 414.724C61.8354 414.058 62.1346 413.518 62.5138 413.519C62.893 413.519 63.2086 414.06 63.2188 414.727Z" fill="#141B25"/>
<path d="M64.33 421.911C64.4738 422.567 64.2885 423.146 63.9161 423.205C63.5437 423.263 63.1253 422.778 62.9815 422.122C62.8377 421.466 63.0231 420.886 63.3954 420.828C63.7678 420.77 64.1862 421.255 64.33 421.911Z" fill="#141B25"/>
<path d="M68.4645 421.173C68.2259 421.802 67.7407 422.224 67.3807 422.114C67.0207 422.004 66.9223 421.405 67.1608 420.776C67.3994 420.147 67.8846 419.726 68.2446 419.835C68.6046 419.945 68.7031 420.544 68.4645 421.173Z" fill="#141B25"/>
<path d="M71.4236 416.453C71.21 417.09 70.7418 417.526 70.3779 417.427C70.014 417.328 69.8922 416.732 70.1059 416.096C70.3195 415.459 70.7877 415.023 71.1516 415.122C71.5155 415.221 71.6373 415.817 71.4236 416.453Z" fill="#141B25"/>
<path d="M67.3494 415.086C67.1358 415.723 66.6676 416.158 66.3037 416.06C65.9398 415.961 65.818 415.365 66.0316 414.729C66.2453 414.092 66.7135 413.656 67.0773 413.755C67.4412 413.854 67.5631 414.45 67.3494 415.086Z" fill="#141B25"/>
<path d="M65.8785 418.471C65.8838 419.137 65.5807 419.675 65.2015 419.672C64.8222 419.669 64.5105 419.127 64.5052 418.46C64.4999 417.794 64.803 417.256 65.1823 417.259C65.5615 417.262 65.8732 417.804 65.8785 418.471Z" fill="#141B25"/>
<path d="M67.1737 411.5C66.2096 405.425 68.5922 405.373 71.4313 402.311" stroke="#3D8E53" stroke-width="1.86361"/>
<path d="M150.479 458.122C148.845 464.485 157.289 479.005 160.32 481.627C163.133 483.04 174.519 488.164 180.961 487.809C189.013 487.365 189.446 479.499 188.653 476.406C190.536 475.257 194.253 471.915 194.054 467.744C193.856 463.573 189.247 461.735 186.026 461.912C188.401 460.91 192.257 452.735 184.873 447.861C175.37 441.589 174.144 446.361 169.969 450.251C166.772 444.154 161.712 443.218 160.464 443.98C156.698 446.278 158.83 450.343 157.603 455.115C154.246 455.823 151.513 454.097 150.479 458.122Z" fill="#3D8E53"/>
<path d="M160.32 481.626L151.33 503.756C158.065 505.904 170.431 513.327 166.008 525.834C161.584 538.342 169.685 538.492 174.289 537.004C176.822 534.398 179.748 529.187 171.183 529.186C169.803 529.558 167.457 530.972 169.114 533.653M160.32 481.626C157.289 479.005 148.845 464.485 150.479 458.122C151.513 454.097 154.246 455.823 157.603 455.115C158.83 450.343 156.698 446.278 160.464 443.98C161.712 443.218 166.772 444.154 169.969 450.251C174.144 446.361 175.37 441.589 184.873 447.861C192.257 452.735 188.401 460.91 186.026 461.912C189.247 461.735 193.856 463.573 194.054 467.744C194.253 471.915 190.536 475.257 188.653 476.406C189.446 479.499 189.013 487.365 180.961 487.809C174.519 488.164 163.133 483.04 160.32 481.626Z" stroke="#3D8E53" stroke-width="3.72722"/>
<path d="M171.359 490.742C168.842 492.795 167.939 501.391 168.376 503.427C169.081 504.903 172.107 510.636 174.775 512.562C178.109 514.969 180.59 511.921 181.182 510.413C182.269 510.552 184.728 510.392 185.873 508.638C187.019 506.884 185.724 504.659 184.391 503.696C185.63 504.053 189.563 501.979 188.056 497.632C186.115 492.038 184.227 493.578 181.424 493.813C181.941 490.315 178.881 490.834 178.161 490.742C175.988 490.463 176.965 490.272 175.076 491.812C173.533 491.02 172.952 489.443 171.359 490.742Z" fill="#3D8E53"/>
<path d="M168.376 503.427C167.939 501.391 168.842 492.795 171.359 490.742C172.952 489.443 173.533 491.02 175.076 491.812C176.965 490.272 175.988 490.463 178.161 490.742C178.881 490.834 181.941 490.315 181.424 493.813C184.227 493.578 186.115 492.038 188.056 497.632C189.563 501.979 185.63 504.053 184.391 503.696C185.724 504.659 187.019 506.884 185.873 508.638C184.728 510.392 182.269 510.552 181.182 510.413C180.59 511.921 178.109 514.969 174.775 512.562C172.107 510.636 169.081 504.903 168.376 503.427ZM168.376 503.427C166.286 502.992 157.392 502.04 151.307 503.782" stroke="#3D8E53" stroke-width="3.72722"/>
<path d="M162.321 478.739L164.441 451.963M162.321 478.739L180.003 453.193M162.321 478.739L185.025 468.402M162.321 478.739L180.832 480.852M162.321 478.739L157.811 465.397" stroke="#89E159" stroke-width="1.86361"/>
<path d="M145.381 464.708C148.14 468.808 145.185 480.894 143.506 483.413C141.705 485.036 134.271 491.185 129.289 492.38C123.062 493.875 120.857 488.451 120.722 486.102C119.017 485.717 115.395 484.205 114.551 481.233C113.707 478.261 116.772 475.937 119.263 475.34C117.219 475.169 112.338 470.295 116.788 465.219C122.516 458.685 124.587 461.76 128.688 463.554C129.664 458.557 133.287 456.766 134.417 457.021C137.828 457.79 137.177 461.121 139.248 464.196C141.969 463.94 143.635 462.115 145.381 464.708Z" fill="#3D8E53"/>
<path d="M151.432 504.544L143.506 483.413M143.506 483.413C145.185 480.894 148.14 468.808 145.381 464.708C143.635 462.115 141.969 463.94 139.248 464.196C137.177 461.121 137.828 457.79 134.417 457.021C133.287 456.766 129.664 458.557 128.688 463.554C124.587 461.76 122.516 458.685 116.788 465.219C112.338 470.295 117.219 475.169 119.263 475.34C116.772 475.937 113.707 478.261 114.551 481.233C115.395 484.205 119.017 485.717 120.722 486.102C120.857 488.451 123.062 493.875 129.289 492.38C134.271 491.185 141.705 485.036 143.506 483.413Z" stroke="#3D8E53" stroke-width="3.72722"/>
<path d="M141.109 482L133.113 463.679M141.109 482L121.579 468.034M141.109 482L121.387 479.836M141.109 482L127.543 487.636M141.109 482L141.355 471.622" stroke="#89E159" stroke-width="1.86361"/>
<path d="M143.378 504.047C141.882 508.476 135.885 511.135 133.635 510.251C131.384 509.366 128.38 503.167 129.875 498.738C131.745 493.202 134.768 494.391 138.496 495.857C142.225 497.323 145.203 498.644 143.378 504.047Z" fill="#F68561"/>
<path d="M136.68 491.324C138.529 492.318 138.958 494.442 138.953 495.817C139.652 494.822 143.304 495.941 144.24 497.303C143.913 497.973 141.147 497.791 138.899 496.583C137.008 496.582 136.65 493 136.68 491.324Z" fill="#3D8E53"/>
<path d="M132.937 501.193C132.764 501.817 132.368 502.237 132.053 502.132C131.737 502.026 131.62 501.435 131.793 500.811C131.966 500.187 132.362 499.767 132.677 499.872C132.993 499.978 133.109 500.569 132.937 501.193Z" fill="#141B25"/>
<path d="M135.332 498.451C135.153 499.073 134.752 499.488 134.437 499.38C134.122 499.271 134.012 498.679 134.192 498.057C134.371 497.436 134.771 497.02 135.086 497.128C135.401 497.237 135.511 497.829 135.332 498.451Z" fill="#141B25"/>
<path d="M134.233 505.439C134.167 506.089 133.85 506.574 133.525 506.522C133.199 506.469 132.988 505.9 133.053 505.25C133.118 504.599 133.435 504.115 133.761 504.167C134.087 504.219 134.298 504.788 134.233 505.439Z" fill="#141B25"/>
<path d="M137.879 505.927C137.504 506.443 136.982 506.696 136.714 506.492C136.446 506.287 136.532 505.703 136.908 505.187C137.283 504.67 137.805 504.418 138.074 504.622C138.342 504.827 138.255 505.411 137.879 505.927Z" fill="#141B25"/>
<path d="M141.668 502.39C141.311 502.92 140.799 503.191 140.524 502.996C140.25 502.8 140.316 502.212 140.673 501.682C141.03 501.152 141.542 500.881 141.816 501.076C142.091 501.272 142.024 501.86 141.668 502.39Z" fill="#141B25"/>
<path d="M138.664 499.954C138.307 500.485 137.795 500.756 137.52 500.56C137.246 500.365 137.313 499.777 137.669 499.247C138.026 498.717 138.538 498.446 138.813 498.641C139.087 498.836 139.02 499.424 138.664 499.954Z" fill="#141B25"/>
<path d="M136.49 502.686C136.306 503.306 135.903 503.719 135.588 503.609C135.274 503.498 135.168 502.905 135.351 502.285C135.535 501.665 135.938 501.252 136.252 501.363C136.567 501.473 136.673 502.066 136.49 502.686Z" fill="#141B25"/>
<path d="M138.385 495.668C146.754 494.657 148.966 498.679 151.014 502.314" stroke="#3D8E53" stroke-width="1.86361"/>
<path d="M154.838 517.487C154.672 522.308 149.015 526.909 146.27 526.799C143.524 526.689 138.199 521.648 138.365 516.827C138.572 510.801 142.26 510.949 146.809 511.131C151.358 511.313 155.04 511.606 154.838 517.487Z" fill="#F68561"/>
<path d="M143.721 508.387C145.946 508.719 147.105 510.324 147.598 511.585C147.302 510.33 147.116 508.429 148.674 507.952C148.857 508.529 149.401 510.241 148.995 511.429C150.138 510.663 151.831 510.131 153.02 510.951C152.885 511.714 150.715 512.957 147.865 512.531C145.804 513.163 144.244 510.031 143.721 508.387Z" fill="#3D8E53"/>
<path d="M142.515 518.198C142.533 518.864 142.241 519.407 141.861 519.41C141.482 519.413 141.16 518.875 141.142 518.208C141.124 517.542 141.416 517 141.795 516.997C142.175 516.994 142.497 517.532 142.515 518.198Z" fill="#141B25"/>
<path d="M144.219 514.727C144.229 515.393 143.93 515.933 143.551 515.932C143.171 515.931 142.856 515.391 142.846 514.724C142.835 514.058 143.135 513.518 143.514 513.519C143.893 513.519 144.209 514.06 144.219 514.727Z" fill="#141B25"/>
<path d="M145.33 521.911C145.474 522.567 145.288 523.146 144.916 523.205C144.544 523.263 144.125 522.778 143.982 522.122C143.838 521.466 144.023 520.886 144.395 520.828C144.768 520.77 145.186 521.255 145.33 521.911Z" fill="#141B25"/>
<path d="M149.465 521.173C149.226 521.802 148.741 522.224 148.381 522.114C148.021 522.004 147.922 521.405 148.161 520.776C148.399 520.147 148.885 519.726 149.245 519.835C149.605 519.945 149.703 520.544 149.465 521.173Z" fill="#141B25"/>
<path d="M152.424 516.453C152.21 517.09 151.742 517.526 151.378 517.427C151.014 517.328 150.892 516.732 151.106 516.096C151.319 515.459 151.788 515.023 152.152 515.122C152.515 515.221 152.637 515.817 152.424 516.453Z" fill="#141B25"/>
<path d="M148.349 515.086C148.136 515.723 147.668 516.158 147.304 516.06C146.94 515.961 146.818 515.365 147.032 514.729C147.245 514.092 147.713 513.656 148.077 513.755C148.441 513.854 148.563 514.45 148.349 515.086Z" fill="#141B25"/>
<path d="M146.879 518.471C146.884 519.137 146.581 519.675 146.201 519.672C145.822 519.669 145.51 519.127 145.505 518.46C145.5 517.794 145.803 517.256 146.182 517.259C146.562 517.262 146.873 517.804 146.879 518.471Z" fill="#141B25"/>
<path d="M148.174 511.5C147.21 505.425 149.592 505.373 152.431 502.311" stroke="#3D8E53" stroke-width="1.86361"/>
</svg>
