<svg width="166" height="127" viewBox="0 0 166 127" fill="none" xmlns="http://www.w3.org/2000/svg">
<g clip-path="url(#clip0_1005_4901)">
<g filter="url(#filter0_f_1005_4901)">
<rect y="34" width="166" height="93" fill="#141B25"/>
</g>
<g filter="url(#filter1_f_1005_4901)">
<ellipse cx="103" cy="58.875" rx="53" ry="39" fill="#1E4E4E"/>
</g>
<path d="M101.857 109.875L150 81.8088V68.2912V66.4043V53.674C143.956 36.2848 136.298 26.4463 127.833 21.6132M101.857 109.875V90.1128V87.7111V71.3097C101.857 28.8333 62.3036 18.06 56 46.4688V75.5642L86.5483 98.4208L99.2901 107.954M101.857 109.875L99.2901 107.954M66.8062 31.9373C88.6957 14.2859 118.62 22.6925 118.62 65.1689L130.604 60.5935C118.62 21.9715 101.996 16.1731 81.9764 24.166C98.1164 13.7831 124.337 19.9127 132.89 59.9417L148.476 54.2325C142.749 37.754 135.602 28.4221 127.833 23.5047M66.8062 31.9373C88.9035 18.1973 114.464 24.7376 116.654 65.8893L103.52 70.7007C103.173 54.0792 95.3456 23.0564 66.8062 31.9373ZM99.2901 107.954L99.3127 105.621M99.3127 105.621L99.6404 71.7909C98.4628 31.167 66.8062 21.7659 57.5932 46.4688V74.9883L62.5807 78.6504C63.3565 51.584 71.1702 47.2684 75.6728 49.2831C85.8426 54.9375 88.8208 84.3557 88.346 97.5689L99.3127 105.621ZM127.833 10.6492L121.114 6.875L115.573 9.27675M127.833 10.6492L122.361 13.394M127.833 10.6492V21.6132M115.573 9.27675L122.361 13.394M115.573 9.27675V17.8609M122.361 13.394V19.1938V20.7702V30.9611M122.361 30.9611L127.833 28.079V23.5047M122.361 30.9611L115.573 25.3342V19.0637M127.833 23.5047V21.6132M115.573 17.8609C110.376 17.4437 105.037 18.2888 99.7097 19.9127C104.944 18.8646 110.303 18.3394 115.573 19.0637M115.573 17.8609V19.0637M116.654 81.1623L103.52 86.9753V72.3399L116.654 67.6736V81.1623ZM118.62 80.292L130.604 74.9883V62.4584L118.62 67.0788V80.292ZM132.89 73.9766L148.476 67.0788V55.459L132.89 61.5663V73.9766ZM148.476 68.982V80.292L132.89 89.3113V76.0465L148.476 68.982ZM103.52 106.307V89.3593L116.654 83.4058V98.7591L103.52 106.307ZM118.62 82.5145V97.5689L130.604 90.6341V77.0826L118.62 82.5145ZM86.5483 96.2488C87.0231 83.0357 83.9853 60.5935 75.0494 51.2731C72.0938 49.4538 65.8226 52.6469 64.3817 79.9728L86.5483 96.2488ZM125.617 10.3747L122.361 12.0902L117.789 9.55124L121.114 7.90432L125.617 10.3747Z" stroke="#BFC6DC" stroke-width="0.5"/>
<path d="M38.5236 73.8175C38.0902 75.3804 40.3276 78.9467 41.131 79.5903C41.8764 79.9374 44.8941 81.1954 46.6017 81.1079C48.736 80.9986 48.8511 79.0666 48.6409 78.3069C49.1401 78.0246 50.1253 77.2037 50.0728 76.1791C50.0203 75.1546 48.799 74.7034 47.9452 74.7472C48.5746 74.5009 49.597 72.4928 47.64 71.296C45.1214 69.7556 44.7963 70.928 43.6896 71.8834C42.8425 70.386 41.5014 70.1565 41.1707 70.3435C40.1724 70.9082 40.7372 71.9065 40.4119 73.0788C39.5221 73.2528 38.7977 72.8289 38.5236 73.8175Z" fill="#3D8E53"/>
<path d="M41.131 79.5903L38.7473 85.026C40.5326 85.5533 43.8098 87.3761 42.6369 90.4484C41.4639 93.5207 43.6112 93.5573 44.8314 93.1916C45.503 92.5515 46.2787 91.2714 44.0085 91.2714C43.6427 91.3628 43.0209 91.7103 43.4598 92.3686M41.131 79.5903C40.3276 78.9467 38.0902 75.3804 38.5236 73.8175C38.7977 72.8289 39.5221 73.2528 40.4119 73.0788C40.7372 71.9065 40.1724 70.9082 41.1707 70.3435C41.5014 70.1565 42.8425 70.386 43.6896 71.8834C44.7963 70.928 45.1214 69.7556 47.64 71.296C49.597 72.4928 48.5746 74.5009 47.9452 74.7472C48.799 74.7034 50.0203 75.1546 50.0728 76.1791C50.1253 77.2037 49.1401 78.0246 48.6409 78.3069C48.8511 79.0666 48.736 80.9986 46.6017 81.1079C44.8941 81.1954 41.8764 79.9374 41.131 79.5903Z" stroke="#3D8E53"/>
<path d="M44.0581 81.832C43.3909 82.3364 43.1518 84.4479 43.2676 84.948C43.4542 85.3106 44.2564 86.719 44.9634 87.192C45.847 87.7832 46.5045 87.0345 46.6615 86.664C46.9494 86.6982 47.6013 86.6589 47.9048 86.228C48.2083 85.7972 47.8653 85.2507 47.5118 85.0142C47.8401 85.1018 48.8827 84.5924 48.4831 83.5246C47.9689 82.1505 47.4684 82.5288 46.7256 82.5864C46.8627 81.7273 46.0515 81.8547 45.8607 81.832C45.2848 81.7636 45.5438 81.7167 45.0432 82.0949C44.6341 81.9005 44.4802 81.513 44.0581 81.832Z" fill="#3D8E53"/>
<path d="M43.2676 84.948C43.1518 84.4479 43.3909 82.3364 44.0581 81.832C44.4802 81.513 44.6341 81.9005 45.0432 82.0949C45.5438 81.7167 45.2848 81.7636 45.8607 81.832C46.0515 81.8547 46.8627 81.7273 46.7256 82.5864C47.4684 82.5288 47.9689 82.1505 48.4831 83.5246C48.8827 84.5924 47.8401 85.1018 47.5118 85.0142C47.8653 85.2507 48.2083 85.7972 47.9048 86.228C47.6013 86.6589 46.9494 86.6982 46.6615 86.664C46.5045 87.0345 45.847 87.7832 44.9634 87.192C44.2564 86.719 43.4542 85.3106 43.2676 84.948ZM43.2676 84.948C42.7137 84.8412 40.3565 84.6074 38.7438 85.0353" stroke="#3D8E53"/>
<path d="M41.663 78.8823L42.2249 72.3049M41.663 78.8823L46.3493 72.6073M41.663 78.8823L47.6803 76.3431M41.663 78.8823L46.5689 79.4015M41.663 78.8823L40.4679 75.605" stroke="#89E159" stroke-width="0.5"/>
<path d="M37.1727 75.4336C37.9041 76.4407 37.1209 79.4093 36.6758 80.0282C36.1986 80.4268 34.2285 81.9374 32.9081 82.231C31.2578 82.598 30.6734 81.2657 30.6377 80.6887C30.1856 80.5943 29.2257 80.2229 29.002 79.4927C28.7784 78.7626 29.5906 78.1919 30.2508 78.0451C29.7091 78.0031 28.4155 76.806 29.595 75.5589C31.1131 73.954 31.6618 74.7094 32.7487 75.15C33.0074 73.9227 33.9677 73.4827 34.2672 73.5453C35.1712 73.7341 34.9987 74.5523 35.5475 75.3076C36.2685 75.2448 36.7101 74.7966 37.1727 75.4336Z" fill="#3D8E53"/>
<path d="M38.7767 85.219L36.6758 80.0282M36.6758 80.0282C37.1209 79.4093 37.9041 76.4407 37.1727 75.4336C36.7101 74.7966 36.2685 75.2448 35.5475 75.3076C34.9987 74.5523 35.1712 73.7341 34.2672 73.5453C33.9677 73.4827 33.0074 73.9227 32.7487 75.15C31.6618 74.7094 31.1131 73.954 29.595 75.5589C28.4155 76.806 29.7091 78.0031 30.2508 78.0451C29.5906 78.1919 28.7784 78.7626 29.002 79.4927C29.2257 80.2229 30.1856 80.5943 30.6377 80.6887C30.6734 81.2657 31.2578 82.598 32.9081 82.231C34.2285 81.9374 36.1986 80.4268 36.6758 80.0282Z" stroke="#3D8E53"/>
<path d="M36.0403 79.682L33.9213 75.1815M36.0403 79.682L30.8642 76.2513M36.0403 79.682L30.8136 79.1505M36.0403 79.682L32.445 81.0664M36.0403 79.682L36.1056 77.1328" stroke="#89E159" stroke-width="0.5"/>
<path d="M36.6396 85.0995C36.2431 86.1875 34.6538 86.8407 34.0574 86.6234C33.461 86.406 32.6646 84.8834 33.0611 83.7955C33.5566 82.4356 34.3577 82.7275 35.3459 83.0876C36.3341 83.4477 37.1232 83.7723 36.6396 85.0995Z" fill="#1E4E4E"/>
<path d="M34.8633 81.9736C35.3535 82.2177 35.4671 82.7393 35.4658 83.0771C35.6511 82.8327 36.6189 83.1078 36.8669 83.4422C36.7803 83.6068 36.0473 83.5619 35.4515 83.2652C34.9502 83.265 34.8555 82.3853 34.8633 81.9736Z" fill="#3D8E53"/>
<path d="M33.8727 84.3986C33.827 84.5518 33.722 84.6551 33.6383 84.6292C33.5546 84.6033 33.5238 84.4581 33.5696 84.3048C33.6153 84.1516 33.7202 84.0483 33.8039 84.0742C33.8876 84.1001 33.9184 84.2453 33.8727 84.3986Z" fill="#8990A5"/>
<path d="M34.5092 83.7257C34.4617 83.8784 34.3555 83.9805 34.2721 83.9538C34.1886 83.9271 34.1594 83.7817 34.207 83.629C34.2545 83.4763 34.3606 83.3742 34.4441 83.4009C34.5276 83.4276 34.5567 83.573 34.5092 83.7257Z" fill="#8990A5"/>
<path d="M34.2149 85.4411C34.1976 85.6008 34.1135 85.7199 34.0272 85.7071C33.9409 85.6942 33.8849 85.5544 33.9022 85.3947C33.9195 85.2349 34.0036 85.1159 34.0899 85.1287C34.1763 85.1415 34.2322 85.2814 34.2149 85.4411Z" fill="#8990A5"/>
<path d="M35.1828 85.5628C35.0832 85.6896 34.9449 85.7517 34.8738 85.7015C34.8027 85.6513 34.8258 85.5078 34.9253 85.381C35.0248 85.2542 35.1631 85.1921 35.2342 85.2423C35.3053 85.2925 35.2823 85.436 35.1828 85.5628Z" fill="#8990A5"/>
<path d="M36.1861 84.6937C36.0915 84.8239 35.9559 84.8905 35.8831 84.8425C35.8103 84.7945 35.828 84.6501 35.9225 84.5199C36.0171 84.3897 36.1527 84.3231 36.2255 84.3711C36.2983 84.4191 36.2806 84.5635 36.1861 84.6937Z" fill="#8990A5"/>
<path d="M35.3892 84.0961C35.2946 84.2263 35.159 84.2929 35.0862 84.2449C35.0135 84.1969 35.0311 84.0524 35.1257 83.9222C35.2202 83.7921 35.3559 83.7254 35.4286 83.7734C35.5014 83.8214 35.4837 83.9659 35.3892 84.0961Z" fill="#8990A5"/>
<path d="M34.8153 84.7649C34.7667 84.9173 34.6598 85.0187 34.5765 84.9915C34.4932 84.9643 34.465 84.8188 34.5136 84.6665C34.5622 84.5141 34.6691 84.4127 34.7524 84.4399C34.8357 84.4671 34.8639 84.6126 34.8153 84.7649Z" fill="#8990A5"/>
<path d="M35.3143 83.042C37.5325 82.7936 38.1187 83.7814 38.6612 84.6744" stroke="#3D8E53" stroke-width="0.5"/>
<path d="M39.677 88.4027C39.633 89.5869 38.1338 90.7171 37.4062 90.6901C36.6786 90.6631 35.2673 89.4248 35.3112 88.2406C35.3661 86.7604 36.3435 86.7967 37.5491 86.8414C38.7547 86.8862 39.7306 86.958 39.677 88.4027Z" fill="#1E4E4E"/>
<path d="M36.7316 86.1669C37.3213 86.2486 37.6283 86.6428 37.7591 86.9525C37.6805 86.6442 37.6312 86.1773 38.0441 86.0601C38.0927 86.2018 38.2368 86.6223 38.1293 86.914C38.4323 86.726 38.881 86.5953 39.196 86.7967C39.1603 86.9842 38.5853 87.2893 37.8299 87.1847C37.2835 87.3399 36.87 86.5708 36.7316 86.1669Z" fill="#3D8E53"/>
<path d="M36.4117 88.577C36.4165 88.7406 36.339 88.8739 36.2385 88.8746C36.138 88.8753 36.0527 88.7432 36.0478 88.5796C36.043 88.4159 36.1205 88.2826 36.221 88.2819C36.3215 88.2812 36.4069 88.4133 36.4117 88.577Z" fill="#8990A5"/>
<path d="M36.8649 87.7237C36.8676 87.8874 36.7883 88.0199 36.6878 88.0198C36.5873 88.0196 36.5037 87.8868 36.501 87.7231C36.4983 87.5594 36.5776 87.4269 36.6781 87.427C36.7786 87.4272 36.8622 87.56 36.8649 87.7237Z" fill="#8990A5"/>
<path d="M37.1568 89.4882C37.1949 89.6493 37.1458 89.7916 37.0471 89.8058C36.9484 89.8201 36.8376 89.701 36.7995 89.5399C36.7614 89.3787 36.8105 89.2365 36.9092 89.2222C37.0078 89.2079 37.1187 89.327 37.1568 89.4882Z" fill="#8990A5"/>
<path d="M38.2545 89.3071C38.1913 89.4616 38.0627 89.5651 37.9673 89.5382C37.8718 89.5112 37.8457 89.3641 37.909 89.2095C37.9722 89.055 38.1008 88.9515 38.1962 88.9784C38.2916 89.0054 38.3177 89.1525 38.2545 89.3071Z" fill="#8990A5"/>
<path d="M39.0397 88.1472C38.9831 88.3036 38.859 88.4106 38.7626 88.3864C38.6661 88.3621 38.6338 88.2157 38.6905 88.0594C38.7471 87.9031 38.8712 87.796 38.9676 87.8203C39.064 87.8445 39.0963 87.9909 39.0397 88.1472Z" fill="#8990A5"/>
<path d="M37.9577 87.8123C37.9011 87.9686 37.777 88.0757 37.6805 88.0514C37.5841 88.0272 37.5518 87.8808 37.6084 87.7245C37.665 87.5681 37.7891 87.4611 37.8856 87.4853C37.982 87.5096 38.0143 87.656 37.9577 87.8123Z" fill="#8990A5"/>
<path d="M37.5696 88.6426C37.571 88.8063 37.4907 88.9384 37.3902 88.9377C37.2897 88.937 37.2071 88.8038 37.2057 88.6401C37.2043 88.4764 37.2846 88.3443 37.3851 88.345C37.4856 88.3457 37.5682 88.4789 37.5696 88.6426Z" fill="#8990A5"/>
<path d="M37.9118 86.9312C37.6563 85.4389 38.2877 85.4263 39.0402 84.6741" stroke="#3D8E53" stroke-width="0.5"/>
<path d="M24.5236 94.8175C24.0902 96.3804 26.3276 99.9467 27.131 100.59C27.8764 100.937 30.8941 102.195 32.6017 102.108C34.736 101.999 34.8511 100.067 34.6409 99.3069C35.1401 99.0246 36.1253 98.2037 36.0728 97.1791C36.0203 96.1546 34.799 95.7034 33.9452 95.7472C34.5746 95.5009 35.597 93.4928 33.64 92.296C31.1214 90.7556 30.7963 91.928 29.6896 92.8834C28.8425 91.386 27.5014 91.1565 27.1707 91.3435C26.1724 91.9082 26.7372 92.9065 26.4119 94.0788C25.5221 94.2528 24.7977 93.8289 24.5236 94.8175Z" fill="#3D8E53"/>
<path d="M27.131 100.59L24.7473 106.026C26.5326 106.553 29.8098 108.376 28.6369 111.448C27.4639 114.521 29.6112 114.557 30.8314 114.192C31.503 113.551 32.2787 112.271 30.0085 112.271C29.6427 112.363 29.0209 112.71 29.4598 113.369M27.131 100.59C26.3276 99.9467 24.0902 96.3804 24.5236 94.8175C24.7977 93.8289 25.5221 94.2528 26.4119 94.0788C26.7372 92.9065 26.1724 91.9082 27.1707 91.3435C27.5014 91.1565 28.8425 91.386 29.6896 92.8834C30.7963 91.928 31.1214 90.7556 33.64 92.296C35.597 93.4928 34.5746 95.5009 33.9452 95.7472C34.799 95.7034 36.0203 96.1546 36.0728 97.1791C36.1253 98.2037 35.1401 99.0246 34.6409 99.3069C34.8511 100.067 34.736 101.999 32.6017 102.108C30.8941 102.195 27.8764 100.937 27.131 100.59Z" stroke="#3D8E53"/>
<path d="M30.0581 102.832C29.3909 103.336 29.1518 105.448 29.2676 105.948C29.4542 106.311 30.2564 107.719 30.9634 108.192C31.847 108.783 32.5045 108.034 32.6615 107.664C32.9494 107.698 33.6013 107.659 33.9048 107.228C34.2083 106.797 33.8653 106.251 33.5118 106.014C33.8401 106.102 34.8827 105.592 34.4831 104.525C33.9689 103.15 33.4684 103.529 32.7256 103.586C32.8627 102.727 32.0515 102.855 31.8607 102.832C31.2848 102.764 31.5438 102.717 31.0432 103.095C30.6341 102.9 30.4802 102.513 30.0581 102.832Z" fill="#3D8E53"/>
<path d="M29.2676 105.948C29.1518 105.448 29.3909 103.336 30.0581 102.832C30.4802 102.513 30.6341 102.9 31.0432 103.095C31.5438 102.717 31.2848 102.764 31.8607 102.832C32.0515 102.855 32.8627 102.727 32.7256 103.586C33.4684 103.529 33.9689 103.15 34.4831 104.525C34.8827 105.592 33.8401 106.102 33.5118 106.014C33.8653 106.251 34.2083 106.797 33.9048 107.228C33.6013 107.659 32.9494 107.698 32.6615 107.664C32.5045 108.034 31.847 108.783 30.9634 108.192C30.2564 107.719 29.4542 106.311 29.2676 105.948ZM29.2676 105.948C28.7137 105.841 26.3565 105.607 24.7438 106.035" stroke="#3D8E53"/>
<path d="M27.663 99.8823L28.2249 93.3049M27.663 99.8823L32.3493 93.6073M27.663 99.8823L33.6803 97.3431M27.663 99.8823L32.5689 100.401M27.663 99.8823L26.4679 96.605" stroke="#89E159" stroke-width="0.5"/>
<path d="M23.1727 96.4336C23.9041 97.4407 23.1209 100.409 22.6758 101.028C22.1986 101.427 20.2285 102.937 18.9081 103.231C17.2578 103.598 16.6734 102.266 16.6377 101.689C16.1856 101.594 15.2257 101.223 15.002 100.493C14.7784 99.7626 15.5906 99.1919 16.2508 99.0451C15.7091 99.0031 14.4155 97.806 15.595 96.5589C17.1131 94.954 17.6618 95.7094 18.7487 96.15C19.0074 94.9227 19.9677 94.4827 20.2672 94.5453C21.1712 94.7341 20.9987 95.5523 21.5475 96.3076C22.2685 96.2448 22.7101 95.7966 23.1727 96.4336Z" fill="#3D8E53"/>
<path d="M24.7767 106.219L22.6758 101.028M22.6758 101.028C23.1209 100.409 23.9041 97.4407 23.1727 96.4336C22.7101 95.7966 22.2685 96.2448 21.5475 96.3076C20.9987 95.5523 21.1712 94.7341 20.2672 94.5453C19.9677 94.4827 19.0074 94.9227 18.7487 96.15C17.6618 95.7094 17.1131 94.954 15.595 96.5589C14.4155 97.806 15.7091 99.0031 16.2508 99.0451C15.5906 99.1919 14.7784 99.7626 15.002 100.493C15.2257 101.223 16.1856 101.594 16.6377 101.689C16.6734 102.266 17.2578 103.598 18.9081 103.231C20.2285 102.937 22.1986 101.427 22.6758 101.028Z" stroke="#3D8E53"/>
<path d="M22.0403 100.682L19.9213 96.1815M22.0403 100.682L16.8642 97.2513M22.0403 100.682L16.8136 100.151M22.0403 100.682L18.445 102.066M22.0403 100.682L22.1056 98.1328" stroke="#89E159" stroke-width="0.5"/>
<path d="M22.6396 106.1C22.2431 107.187 20.6538 107.841 20.0574 107.623C19.461 107.406 18.6646 105.883 19.0611 104.795C19.5566 103.436 20.3577 103.728 21.3459 104.088C22.3341 104.448 23.1232 104.772 22.6396 106.1Z" fill="#1E4E4E"/>
<path d="M20.8633 102.974C21.3535 103.218 21.4671 103.739 21.4658 104.077C21.6511 103.833 22.6189 104.108 22.8669 104.442C22.7803 104.607 22.0473 104.562 21.4515 104.265C20.9502 104.265 20.8555 103.385 20.8633 102.974Z" fill="#3D8E53"/>
<path d="M19.8727 105.399C19.827 105.552 19.722 105.655 19.6383 105.629C19.5546 105.603 19.5238 105.458 19.5696 105.305C19.6153 105.152 19.7202 105.048 19.8039 105.074C19.8876 105.1 19.9184 105.245 19.8727 105.399Z" fill="#8990A5"/>
<path d="M20.5092 104.726C20.4617 104.878 20.3555 104.981 20.2721 104.954C20.1886 104.927 20.1594 104.782 20.207 104.629C20.2545 104.476 20.3606 104.374 20.4441 104.401C20.5276 104.428 20.5567 104.573 20.5092 104.726Z" fill="#8990A5"/>
<path d="M20.2149 106.441C20.1976 106.601 20.1135 106.72 20.0272 106.707C19.9409 106.694 19.8849 106.554 19.9022 106.395C19.9195 106.235 20.0036 106.116 20.0899 106.129C20.1763 106.142 20.2322 106.281 20.2149 106.441Z" fill="#8990A5"/>
<path d="M21.1828 106.563C21.0832 106.69 20.9449 106.752 20.8738 106.701C20.8027 106.651 20.8258 106.508 20.9253 106.381C21.0248 106.254 21.1631 106.192 21.2342 106.242C21.3053 106.293 21.2823 106.436 21.1828 106.563Z" fill="#8990A5"/>
<path d="M22.1861 105.694C22.0915 105.824 21.9559 105.891 21.8831 105.843C21.8103 105.795 21.828 105.65 21.9225 105.52C22.0171 105.39 22.1527 105.323 22.2255 105.371C22.2983 105.419 22.2806 105.564 22.1861 105.694Z" fill="#8990A5"/>
<path d="M21.3892 105.096C21.2946 105.226 21.159 105.293 21.0862 105.245C21.0135 105.197 21.0311 105.052 21.1257 104.922C21.2202 104.792 21.3559 104.725 21.4286 104.773C21.5014 104.821 21.4837 104.966 21.3892 105.096Z" fill="#8990A5"/>
<path d="M20.8153 105.765C20.7667 105.917 20.6598 106.019 20.5765 105.992C20.4932 105.964 20.465 105.819 20.5136 105.666C20.5622 105.514 20.6691 105.413 20.7524 105.44C20.8357 105.467 20.8639 105.613 20.8153 105.765Z" fill="#8990A5"/>
<path d="M21.3143 104.042C23.5325 103.794 24.1187 104.781 24.6612 105.674" stroke="#3D8E53" stroke-width="0.5"/>
<path d="M25.677 109.403C25.633 110.587 24.1338 111.717 23.4062 111.69C22.6786 111.663 21.2673 110.425 21.3112 109.241C21.3661 107.76 22.3435 107.797 23.5491 107.841C24.7547 107.886 25.7306 107.958 25.677 109.403Z" fill="#1E4E4E"/>
<path d="M22.7316 107.167C23.3213 107.249 23.6283 107.643 23.7591 107.953C23.6805 107.644 23.6312 107.177 24.0441 107.06C24.0927 107.202 24.2368 107.622 24.1293 107.914C24.4323 107.726 24.881 107.595 25.196 107.797C25.1603 107.984 24.5853 108.289 23.8299 108.185C23.2835 108.34 22.87 107.571 22.7316 107.167Z" fill="#3D8E53"/>
<path d="M22.4117 109.577C22.4165 109.741 22.339 109.874 22.2385 109.875C22.138 109.875 22.0527 109.743 22.0478 109.58C22.043 109.416 22.1205 109.283 22.221 109.282C22.3215 109.281 22.4069 109.413 22.4117 109.577Z" fill="#8990A5"/>
<path d="M22.8649 108.724C22.8676 108.887 22.7883 109.02 22.6878 109.02C22.5873 109.02 22.5037 108.887 22.501 108.723C22.4983 108.559 22.5776 108.427 22.6781 108.427C22.7786 108.427 22.8622 108.56 22.8649 108.724Z" fill="#8990A5"/>
<path d="M23.1568 110.488C23.1949 110.649 23.1458 110.792 23.0471 110.806C22.9484 110.82 22.8376 110.701 22.7995 110.54C22.7614 110.379 22.8105 110.236 22.9092 110.222C23.0078 110.208 23.1187 110.327 23.1568 110.488Z" fill="#8990A5"/>
<path d="M24.2545 110.307C24.1913 110.462 24.0627 110.565 23.9673 110.538C23.8718 110.511 23.8457 110.364 23.909 110.21C23.9722 110.055 24.1008 109.952 24.1962 109.978C24.2916 110.005 24.3177 110.153 24.2545 110.307Z" fill="#8990A5"/>
<path d="M25.0397 109.147C24.9831 109.304 24.859 109.411 24.7626 109.386C24.6661 109.362 24.6338 109.216 24.6905 109.059C24.7471 108.903 24.8712 108.796 24.9676 108.82C25.064 108.845 25.0963 108.991 25.0397 109.147Z" fill="#8990A5"/>
<path d="M23.9577 108.812C23.9011 108.969 23.777 109.076 23.6805 109.051C23.5841 109.027 23.5518 108.881 23.6084 108.724C23.665 108.568 23.7891 108.461 23.8856 108.485C23.982 108.51 24.0143 108.656 23.9577 108.812Z" fill="#8990A5"/>
<path d="M23.5696 109.643C23.571 109.806 23.4907 109.938 23.3902 109.938C23.2897 109.937 23.2071 109.804 23.2057 109.64C23.2043 109.476 23.2846 109.344 23.3851 109.345C23.4856 109.346 23.5682 109.479 23.5696 109.643Z" fill="#8990A5"/>
<path d="M23.9118 107.931C23.6563 106.439 24.2877 106.426 25.0402 105.674" stroke="#3D8E53" stroke-width="0.5"/>
<path d="M62.5236 95.8175C62.0902 97.3804 64.3276 100.947 65.131 101.59C65.8764 101.937 68.8941 103.195 70.6017 103.108C72.736 102.999 72.8511 101.067 72.6409 100.307C73.1401 100.025 74.1253 99.2037 74.0728 98.1791C74.0203 97.1546 72.799 96.7034 71.9452 96.7472C72.5746 96.5009 73.597 94.4928 71.64 93.296C69.1214 91.7556 68.7963 92.928 67.6896 93.8834C66.8425 92.386 65.5014 92.1565 65.1707 92.3435C64.1724 92.9082 64.7372 93.9065 64.4119 95.0788C63.5221 95.2528 62.7977 94.8289 62.5236 95.8175Z" fill="#3D8E53"/>
<path d="M65.131 101.59L62.7473 107.026C64.5326 107.553 67.8098 109.376 66.6369 112.448C65.4639 115.521 67.6112 115.557 68.8314 115.192C69.503 114.551 70.2787 113.271 68.0085 113.271C67.6427 113.363 67.0209 113.71 67.4598 114.369M65.131 101.59C64.3276 100.947 62.0902 97.3804 62.5236 95.8175C62.7977 94.8289 63.5221 95.2528 64.4119 95.0788C64.7372 93.9065 64.1724 92.9082 65.1707 92.3435C65.5014 92.1565 66.8425 92.386 67.6896 93.8834C68.7963 92.928 69.1214 91.7556 71.64 93.296C73.597 94.4928 72.5746 96.5009 71.9452 96.7472C72.799 96.7034 74.0203 97.1546 74.0728 98.1791C74.1253 99.2037 73.1401 100.025 72.6409 100.307C72.8511 101.067 72.736 102.999 70.6017 103.108C68.8941 103.195 65.8764 101.937 65.131 101.59Z" stroke="#3D8E53"/>
<path d="M68.0581 103.832C67.3909 104.336 67.1518 106.448 67.2676 106.948C67.4542 107.311 68.2564 108.719 68.9634 109.192C69.847 109.783 70.5045 109.034 70.6615 108.664C70.9494 108.698 71.6013 108.659 71.9048 108.228C72.2083 107.797 71.8653 107.251 71.5118 107.014C71.8401 107.102 72.8827 106.592 72.4831 105.525C71.9689 104.15 71.4684 104.529 70.7256 104.586C70.8627 103.727 70.0515 103.855 69.8607 103.832C69.2848 103.764 69.5438 103.717 69.0432 104.095C68.6341 103.9 68.4802 103.513 68.0581 103.832Z" fill="#3D8E53"/>
<path d="M67.2676 106.948C67.1518 106.448 67.3909 104.336 68.0581 103.832C68.4802 103.513 68.6341 103.9 69.0432 104.095C69.5438 103.717 69.2848 103.764 69.8607 103.832C70.0515 103.855 70.8627 103.727 70.7256 104.586C71.4684 104.529 71.9689 104.15 72.4831 105.525C72.8827 106.592 71.8401 107.102 71.5118 107.014C71.8653 107.251 72.2083 107.797 71.9048 108.228C71.6013 108.659 70.9494 108.698 70.6615 108.664C70.5045 109.034 69.847 109.783 68.9634 109.192C68.2564 108.719 67.4542 107.311 67.2676 106.948ZM67.2676 106.948C66.7137 106.841 64.3565 106.607 62.7438 107.035" stroke="#3D8E53"/>
<path d="M65.663 100.882L66.2249 94.3049M65.663 100.882L70.3493 94.6073M65.663 100.882L71.6803 98.3431M65.663 100.882L70.5689 101.401M65.663 100.882L64.4679 97.605" stroke="#89E159" stroke-width="0.5"/>
<path d="M61.1727 97.4336C61.9041 98.4407 61.1209 101.409 60.6758 102.028C60.1986 102.427 58.2285 103.937 56.9081 104.231C55.2578 104.598 54.6734 103.266 54.6377 102.689C54.1856 102.594 53.2257 102.223 53.002 101.493C52.7784 100.763 53.5906 100.192 54.2508 100.045C53.7091 100.003 52.4155 98.806 53.595 97.5589C55.1131 95.954 55.6618 96.7094 56.7487 97.15C57.0074 95.9227 57.9677 95.4827 58.2672 95.5453C59.1712 95.7341 58.9987 96.5523 59.5475 97.3076C60.2685 97.2448 60.7101 96.7966 61.1727 97.4336Z" fill="#3D8E53"/>
<path d="M62.7767 107.219L60.6758 102.028M60.6758 102.028C61.1209 101.409 61.9041 98.4407 61.1727 97.4336C60.7101 96.7966 60.2685 97.2448 59.5475 97.3076C58.9987 96.5523 59.1712 95.7341 58.2672 95.5453C57.9677 95.4827 57.0074 95.9227 56.7487 97.15C55.6618 96.7094 55.1131 95.954 53.595 97.5589C52.4155 98.806 53.7091 100.003 54.2508 100.045C53.5906 100.192 52.7784 100.763 53.002 101.493C53.2257 102.223 54.1856 102.594 54.6377 102.689C54.6734 103.266 55.2578 104.598 56.9081 104.231C58.2285 103.937 60.1986 102.427 60.6758 102.028Z" stroke="#3D8E53"/>
<path d="M60.0403 101.682L57.9213 97.1815M60.0403 101.682L54.8642 98.2513M60.0403 101.682L54.8136 101.151M60.0403 101.682L56.445 103.066M60.0403 101.682L60.1056 99.1328" stroke="#89E159" stroke-width="0.5"/>
<path d="M60.6396 107.1C60.2431 108.187 58.6538 108.841 58.0574 108.623C57.461 108.406 56.6646 106.883 57.0611 105.795C57.5566 104.436 58.3577 104.728 59.3459 105.088C60.3341 105.448 61.1232 105.772 60.6396 107.1Z" fill="#1E4E4E"/>
<path d="M58.8633 103.974C59.3535 104.218 59.4671 104.739 59.4658 105.077C59.6511 104.833 60.6189 105.108 60.8669 105.442C60.7803 105.607 60.0473 105.562 59.4515 105.265C58.9502 105.265 58.8555 104.385 58.8633 103.974Z" fill="#3D8E53"/>
<path d="M57.8727 106.399C57.827 106.552 57.722 106.655 57.6383 106.629C57.5546 106.603 57.5238 106.458 57.5696 106.305C57.6153 106.152 57.7202 106.048 57.8039 106.074C57.8876 106.1 57.9184 106.245 57.8727 106.399Z" fill="#8990A5"/>
<path d="M58.5092 105.726C58.4617 105.878 58.3555 105.981 58.2721 105.954C58.1886 105.927 58.1594 105.782 58.207 105.629C58.2545 105.476 58.3606 105.374 58.4441 105.401C58.5276 105.428 58.5567 105.573 58.5092 105.726Z" fill="#8990A5"/>
<path d="M58.2149 107.441C58.1976 107.601 58.1135 107.72 58.0272 107.707C57.9409 107.694 57.8849 107.554 57.9022 107.395C57.9195 107.235 58.0036 107.116 58.0899 107.129C58.1763 107.142 58.2322 107.281 58.2149 107.441Z" fill="#8990A5"/>
<path d="M59.1828 107.563C59.0832 107.69 58.9449 107.752 58.8738 107.701C58.8027 107.651 58.8258 107.508 58.9253 107.381C59.0248 107.254 59.1631 107.192 59.2342 107.242C59.3053 107.293 59.2823 107.436 59.1828 107.563Z" fill="#8990A5"/>
<path d="M60.1861 106.694C60.0915 106.824 59.9559 106.891 59.8831 106.843C59.8103 106.795 59.828 106.65 59.9225 106.52C60.0171 106.39 60.1527 106.323 60.2255 106.371C60.2983 106.419 60.2806 106.564 60.1861 106.694Z" fill="#8990A5"/>
<path d="M59.3892 106.096C59.2946 106.226 59.159 106.293 59.0862 106.245C59.0135 106.197 59.0311 106.052 59.1257 105.922C59.2202 105.792 59.3559 105.725 59.4286 105.773C59.5014 105.821 59.4837 105.966 59.3892 106.096Z" fill="#8990A5"/>
<path d="M58.8153 106.765C58.7667 106.917 58.6598 107.019 58.5765 106.992C58.4932 106.964 58.465 106.819 58.5136 106.666C58.5622 106.514 58.6691 106.413 58.7524 106.44C58.8357 106.467 58.8639 106.613 58.8153 106.765Z" fill="#8990A5"/>
<path d="M59.3143 105.042C61.5325 104.794 62.1187 105.781 62.6612 106.674" stroke="#3D8E53" stroke-width="0.5"/>
<path d="M63.677 110.403C63.633 111.587 62.1338 112.717 61.4062 112.69C60.6786 112.663 59.2673 111.425 59.3112 110.241C59.3661 108.76 60.3435 108.797 61.5491 108.841C62.7547 108.886 63.7306 108.958 63.677 110.403Z" fill="#1E4E4E"/>
<path d="M60.7316 108.167C61.3213 108.249 61.6283 108.643 61.7591 108.953C61.6805 108.644 61.6312 108.177 62.0441 108.06C62.0927 108.202 62.2368 108.622 62.1293 108.914C62.4323 108.726 62.881 108.595 63.196 108.797C63.1603 108.984 62.5853 109.289 61.8299 109.185C61.2835 109.34 60.87 108.571 60.7316 108.167Z" fill="#3D8E53"/>
<path d="M60.4117 110.577C60.4165 110.741 60.339 110.874 60.2385 110.875C60.138 110.875 60.0527 110.743 60.0478 110.58C60.043 110.416 60.1205 110.283 60.221 110.282C60.3215 110.281 60.4069 110.413 60.4117 110.577Z" fill="#8990A5"/>
<path d="M60.8649 109.724C60.8676 109.887 60.7883 110.02 60.6878 110.02C60.5873 110.02 60.5037 109.887 60.501 109.723C60.4983 109.559 60.5776 109.427 60.6781 109.427C60.7786 109.427 60.8622 109.56 60.8649 109.724Z" fill="#8990A5"/>
<path d="M61.1568 111.488C61.1949 111.649 61.1458 111.792 61.0471 111.806C60.9484 111.82 60.8376 111.701 60.7995 111.54C60.7614 111.379 60.8105 111.236 60.9092 111.222C61.0078 111.208 61.1187 111.327 61.1568 111.488Z" fill="#8990A5"/>
<path d="M62.2545 111.307C62.1913 111.462 62.0627 111.565 61.9673 111.538C61.8718 111.511 61.8457 111.364 61.909 111.21C61.9722 111.055 62.1008 110.952 62.1962 110.978C62.2916 111.005 62.3177 111.153 62.2545 111.307Z" fill="#8990A5"/>
<path d="M63.0397 110.147C62.9831 110.304 62.859 110.411 62.7626 110.386C62.6661 110.362 62.6338 110.216 62.6905 110.059C62.7471 109.903 62.8712 109.796 62.9676 109.82C63.064 109.845 63.0963 109.991 63.0397 110.147Z" fill="#8990A5"/>
<path d="M61.9577 109.812C61.9011 109.969 61.777 110.076 61.6805 110.051C61.5841 110.027 61.5518 109.881 61.6084 109.724C61.665 109.568 61.7891 109.461 61.8856 109.485C61.982 109.51 62.0143 109.656 61.9577 109.812Z" fill="#8990A5"/>
<path d="M61.5696 110.643C61.571 110.806 61.4907 110.938 61.3902 110.938C61.2897 110.937 61.2071 110.804 61.2057 110.64C61.2043 110.476 61.2846 110.344 61.3851 110.345C61.4856 110.346 61.5682 110.479 61.5696 110.643Z" fill="#8990A5"/>
<path d="M61.9118 108.931C61.6563 107.439 62.2877 107.426 63.0402 106.674" stroke="#3D8E53" stroke-width="0.5"/>
</g>
<defs>
<filter id="filter0_f_1005_4901" x="-20" y="14" width="206" height="133" filterUnits="userSpaceOnUse" color-interpolation-filters="sRGB">
<feFlood flood-opacity="0" result="BackgroundImageFix"/>
<feBlend mode="normal" in="SourceGraphic" in2="BackgroundImageFix" result="shape"/>
<feGaussianBlur stdDeviation="10" result="effect1_foregroundBlur_1005_4901"/>
</filter>
<filter id="filter1_f_1005_4901" x="-50" y="-80.125" width="306" height="278" filterUnits="userSpaceOnUse" color-interpolation-filters="sRGB">
<feFlood flood-opacity="0" result="BackgroundImageFix"/>
<feBlend mode="normal" in="SourceGraphic" in2="BackgroundImageFix" result="shape"/>
<feGaussianBlur stdDeviation="50" result="effect1_foregroundBlur_1005_4901"/>
</filter>
<clipPath id="clip0_1005_4901">
<rect width="166" height="127" rx="4" fill="white"/>
</clipPath>
</defs>
</svg>
