<svg width="71" height="71" viewBox="0 0 71 71" fill="none" xmlns="http://www.w3.org/2000/svg">
<path d="M40.5644 9.11445C40.2427 8.79274 30.7353 8.90922 30.7353 8.90922L8.95277 33.1047C8.95277 33.1047 8.19284 40.2269 8.89175 43.2111C9.28558 44.8918 10.0899 47.9148 12.5305 51.5037C14.2001 53.9609 15.5092 55.0259 15.5092 55.0259L28.511 60.6449L49.3673 62.958L62.9793 54.621C62.9793 54.621 63.9278 50.8269 63.5895 48.0535C63.2511 45.2745 62.7075 43.1778 62.7741 41.3473C62.8407 39.5169 63.9278 32.1673 62.2083 26.9033C60.6885 22.255 56.2066 15.8151 50.5876 12.498C44.9686 9.18102 40.5644 9.11445 40.5644 9.11445Z" fill="#89E159"/>
<path d="M48.8734 68.7696C51.5359 69.1745 55.3244 69.2134 59.3403 66.1681C62.9236 63.4502 64.5766 60.6878 64.7762 58.347C65.0145 55.5864 64.6469 53.0933 64.4189 51.5467C64.3762 51.2567 64.3383 51 64.3103 50.7811C64.1384 49.3944 63.3562 46.3769 63.3562 46.3769C63.3562 46.3769 61.1319 51.3025 58.353 53.6156C55.574 55.9286 48.8678 58.996 42.2171 59.2234L41.9826 59.2317C35.4613 59.4603 31.0569 59.6147 26.4251 58.4691C21.738 57.3098 13.7783 53.194 13.7783 53.194C13.7783 53.194 16.5739 57.3541 22.032 60.4327C26.1534 62.7568 28.6328 63.3503 30.3024 63.7275C31.579 64.0194 32.7053 64.165 33.8027 64.3069C34.937 64.4536 36.0405 64.5963 37.2471 64.8923C38.6566 65.2352 40.673 65.9943 42.6921 66.7544C45.0831 67.6545 47.478 68.5561 48.8734 68.7696Z" fill="#BFC6DC"/>
<path d="M10.7166 29.3098C10.5558 29.4208 5.68007 37.0588 5.6246 37.7577C5.56914 38.4622 5.45265 39.5937 6.21812 39.9765C6.76171 40.2483 7.19437 39.7601 7.57156 39.4329C7.94874 39.1056 8.70867 38.623 9.57398 38.1848C10.4393 37.7466 11.9259 37.4526 12.9853 36.8314C14.5551 35.9106 15.964 33.6919 15.964 33.6919L19.808 39.2165L18.4379 42.6223C18.4379 42.6223 19.403 43.7816 19.5972 43.9258C19.9466 44.1865 22.0323 42.6279 23.1139 39.8655C24.1955 37.1032 24.4673 33.5809 24.4673 33.5809C24.4673 33.5809 26.6362 35.0952 28.7495 35.5334C30.8629 35.9661 35.1894 35.7497 35.4668 35.4225C35.7109 35.134 35.8551 31.0072 35.6387 29.1656C35.4224 27.324 34.4073 24.889 34.4073 24.889C34.4073 24.889 36.6039 25.2384 39.2054 24.534C41.8069 23.8295 43.7538 22.3152 43.8648 21.7161C43.9757 21.1171 42.3782 19.5972 42.3782 19.5972L35.9549 17.3286L35.1784 15.3927C35.1784 15.3927 38.4621 14.4276 40.1761 12.3974C41.413 10.9275 43.6318 9.06372 43.6318 8.19286C43.6318 7.32201 42.234 7.52169 42.234 7.52169L30.3193 12.2865L10.7166 29.3098Z" fill="#1E4E4E"/>
<path d="M16.5129 14.6548C20.013 11.4376 23.5464 8.79729 29.243 7.31628C34.9175 5.84081 38.8779 6.56745 39.7987 6.73386C40.7195 6.89471 43.4929 7.39948 43.2766 7.69346C43.1823 7.82104 41.1577 8.78065 39.1497 10.0786C37.1418 11.3766 36.2986 11.7982 35.7939 12.081C35.0395 12.5026 33.9523 13.085 33.9967 13.7617C34.0632 14.6825 35.3057 14.738 36.6592 15.4425C38.0126 16.1469 39.6933 17.2285 40.9414 18.3157C42.1894 19.4029 42.8162 19.8356 42.9882 20.2627C43.1768 20.7286 39.0998 22.9196 36.3375 22.8642C33.5751 22.8087 32.2771 21.5662 31.6226 22.5369C30.9736 23.5132 33.0315 25.9482 33.5751 28.6607C34.1187 31.3731 34.1187 34.08 34.1187 34.08C34.1187 34.08 29.9696 34.3906 28.0504 33.6972C25.1605 32.6544 24.8 30.4301 23.2302 30.7185C21.1057 31.1068 23.0028 34.7622 21.5107 39.1276C20.1794 43.0326 19.0478 43.3321 19.0478 43.3321C19.0478 43.3321 17.2118 41.4407 16.5573 40.4089C15.9028 39.3772 15.1539 38.8447 14.9931 36.626C14.8322 34.4072 15.104 31.5894 14.0168 31.4785C12.9296 31.3675 12.6634 33.6473 11.4153 34.7844C10.1673 35.9215 8.27581 36.5206 7.40495 37.2195C6.53964 37.9239 5.64105 39.1775 5.64105 39.1775C5.64105 39.1775 5.0198 35.4334 6.7005 30.3968C8.3812 25.3603 11.1491 19.586 16.5129 14.6548Z" fill="url(#paint0_linear_1571_6099)"/>
<path d="M9.95651 3.9318C10.0952 3.41594 12.4637 1.9793 13.6008 2.03477C14.7379 2.09023 14.5105 2.41195 14.6714 2.84461C14.8322 3.27727 14.0224 7.39305 15.3203 9.7782C16.4907 11.9248 17.5391 12.9732 19.8688 12.9177C22.1985 12.8623 16.9456 19.7959 16.9456 19.7959C16.9456 19.7959 12.4471 17.3053 10.661 12.7014C8.87487 8.0975 9.74018 4.74164 9.95651 3.9318Z" fill="url(#paint1_linear_1571_6099)"/>
<path d="M56.1402 47.2485C55.114 47.2984 54.171 48.6962 54.7091 50.5932C55.1528 52.163 56.2788 52.7454 57.0998 52.64C57.9207 52.5402 58.6695 51.2755 58.3645 49.5005C58.1259 48.1526 57.5047 47.1819 56.1402 47.2485ZM54.7756 31.6562C53.3723 32.0167 53.5109 33.8583 53.8216 34.8623C54.1266 35.8663 54.9809 36.5374 55.9016 36.3544C56.8224 36.1713 57.3716 34.7125 57.1275 33.5976C56.8945 32.4771 56.0736 31.3234 54.7756 31.6562ZM47.3705 18.6488C46.3499 19.5363 46.7881 20.9674 47.6756 21.927C48.5631 22.881 49.7224 23.1195 50.4768 22.5427C51.2312 21.9658 50.9871 19.9467 50.0996 19.0981C49.2121 18.2438 48.1527 17.9665 47.3705 18.6488ZM42.4116 30.2584C41.6018 30.985 41.7571 32.5659 42.6668 33.6642C43.5765 34.7624 44.9577 35.3837 45.651 34.4685C46.3444 33.5532 45.8341 31.7616 45.1074 30.8075C44.3752 29.8535 43.0995 29.6371 42.4116 30.2584Z" fill="#DBE2F9"/>
<path d="M42.6442 43.9537C41.8954 44.8856 42.4834 46.2446 43.1712 47.0655C43.9644 48.0085 45.7782 48.602 46.6047 47.7977C47.5643 46.8658 47.1316 45.2461 45.8891 44.1257C44.9517 43.2825 43.3986 43.0052 42.6442 43.9537ZM43.7869 57.6933C43.4652 58.8526 43.9533 59.9343 46.1055 60.2893C47.9803 60.5943 48.9399 59.7068 48.9066 58.7528C48.8844 58.1038 48.1578 57.0111 46.3828 56.706C44.9573 56.4564 44.0587 56.706 43.7869 57.6933ZM29.3151 53.156C28.5884 54.2432 29.4815 55.7464 30.3745 56.4342C31.3952 57.2218 33.1036 57.0499 33.5473 56.0903C33.9911 55.1362 33.4475 53.8382 32.388 53.0894C31.3286 52.335 29.9308 52.2352 29.3151 53.156ZM17.6777 46.4997C16.3354 47.6202 17.3061 49.3065 18.1548 49.9443C19.1088 50.6599 20.3069 51.1702 21.3609 50.2494C22.4148 49.3286 21.3941 47.415 20.7452 46.8381C20.1017 46.2612 18.7039 45.6455 17.6777 46.4997Z" fill="#DBE2F9"/>
<path d="M30.8849 41.1753C30.1749 42.2458 30.8516 43.9043 31.7391 44.4868C32.6266 45.0692 33.9912 45.4741 34.8121 44.4202C35.633 43.3607 35.156 41.9962 34.1964 41.2141C33.2423 40.4264 31.6393 40.0493 30.8849 41.1753Z" fill="#DBE2F9"/>
<defs>
<linearGradient id="paint0_linear_1571_6099" x1="8.99012" y1="6.4082" x2="44.2182" y2="9.39865" gradientUnits="userSpaceOnUse">
<stop offset="1" stop-color="#B9F598"/>
</linearGradient>
<linearGradient id="paint1_linear_1571_6099" x1="10.5565" y1="2.0332" x2="20.78" y2="2.55435" gradientUnits="userSpaceOnUse">
<stop offset="1" stop-color="#B9F598"/>
</linearGradient>
</defs>
</svg>
