<svg width="58" height="79" viewBox="0 0 58 79" fill="none" xmlns="http://www.w3.org/2000/svg">
<path d="M55.9395 48.5034C55.3873 63.3773 36.5567 77.5726 27.4175 77.2334C18.2783 76.8941 0.552124 61.3416 1.10429 46.4677C1.79332 27.8753 14.0698 28.3311 29.2121 28.8932C44.3544 29.4553 56.6131 30.3574 55.9395 48.5034Z" fill="#F68561"/>
<path d="M18.9338 20.4284C26.3405 21.454 30.1969 26.406 31.8392 30.2959C30.852 26.4234 30.2333 20.5595 35.4192 19.0865C36.0295 20.8673 37.8393 26.1485 36.4895 29.8123C40.2953 27.4505 45.9307 25.809 49.8868 28.3391C49.4384 30.6934 42.2164 34.5262 32.7288 33.2124C25.8655 35.1618 20.6725 25.502 18.9338 20.4284Z" fill="#3D8E53"/>
<path d="M14.9177 50.7004C14.9784 52.7561 14.0046 54.4298 12.7425 54.4388C11.4804 54.4477 10.4081 52.7884 10.3473 50.7327C10.2866 48.677 11.2604 47.0033 12.5225 46.9943C13.7846 46.9854 14.8569 48.6447 14.9177 50.7004Z" fill="#141B25"/>
<path d="M20.5887 39.9811C20.6226 42.0369 19.6267 43.7018 18.3644 43.6998C17.1021 43.6978 16.0513 42.0296 16.0174 39.9738C15.9835 37.918 16.9794 36.2531 18.2417 36.2551C19.504 36.2572 20.5548 37.9253 20.5887 39.9811Z" fill="#141B25"/>
<path d="M24.2904 62.1357C24.7689 64.16 24.152 65.9463 22.9125 66.1256C21.6729 66.3049 20.2801 64.8092 19.8016 62.7849C19.323 60.7606 19.9399 58.9743 21.1795 58.795C22.419 58.6158 23.8118 60.1114 24.2904 62.1357Z" fill="#141B25"/>
<path d="M38.0538 59.8677C37.2597 61.809 35.6445 63.1086 34.4462 62.7703C33.2478 62.4321 32.92 60.5841 33.7141 58.6428C34.5081 56.7015 36.1233 55.402 37.3217 55.7403C38.5201 56.0785 38.8479 57.9264 38.0538 59.8677Z" fill="#141B25"/>
<path d="M47.9048 45.3012C47.1937 47.2647 45.6353 48.6094 44.4239 48.3048C43.2126 48.0001 42.8071 46.1615 43.5181 44.1981C44.2292 42.2346 45.7876 40.8899 46.999 41.1945C48.2103 41.4992 48.6159 43.3378 47.9048 45.3012Z" fill="#141B25"/>
<path d="M34.3403 41.0863C33.6293 43.0497 32.0708 44.3944 30.8595 44.0898C29.6482 43.7852 29.2426 41.9465 29.9537 39.9831C30.6648 38.0197 32.2232 36.6749 33.4345 36.9796C34.6459 37.2842 35.0514 39.1228 34.3403 41.0863Z" fill="#141B25"/>
<path d="M29.4443 51.5218C29.4619 53.5775 28.4529 55.237 27.1905 55.2284C25.928 55.2197 24.8904 53.5462 24.8727 51.4905C24.8551 49.4348 25.8642 47.7753 27.1266 47.784C28.389 47.7926 29.4267 49.4661 29.4443 51.5218Z" fill="#141B25"/>
<path d="M33.7553 30.0247C30.546 11.2811 38.4771 11.1227 47.928 1.67404" stroke="#3D8E53" stroke-width="0.5"/>
</svg>
