<svg width="220" height="168" viewBox="0 0 220 168" fill="none" xmlns="http://www.w3.org/2000/svg">
<g filter="url(#filter0_f_949_988)">
<rect y="45.0601" width="220" height="123.253" fill="#141B25"/>
</g>
<g filter="url(#filter1_f_949_988)">
<ellipse cx="136.507" cy="78.0266" rx="70.241" ry="51.6867" fill="#1E4E4E"/>
</g>
<path d="M134.993 145.617L198.797 108.421V90.5058V88.0051V71.1336C190.787 48.0877 180.638 35.0488 169.42 28.6433M134.993 145.617V119.426V116.243V94.5063C134.993 38.2123 82.5727 23.9344 74.2186 61.5845V100.145L114.704 130.437L131.591 143.072M134.993 145.617L131.591 143.072M88.54 42.326C117.55 18.9325 157.21 30.0738 157.21 86.3678L173.092 80.3041C157.21 29.1183 135.177 21.4336 108.645 32.0267C130.036 18.2661 164.786 26.3897 176.121 79.4402L196.777 71.8737C189.187 50.0348 179.715 37.6673 169.42 31.1502M88.54 42.326C117.826 24.1164 151.701 32.7841 154.604 87.3225L137.196 93.6991C136.737 71.6706 126.363 30.5561 88.54 42.326ZM131.591 143.072L131.621 139.979M131.621 139.979L132.055 95.144C130.495 41.3051 88.54 28.8457 76.33 61.5845V99.3815L82.94 104.235C83.9682 68.3638 94.3237 62.6443 100.291 65.3143C113.769 72.8081 117.716 111.796 117.087 129.308L131.621 139.979ZM169.42 14.1128L160.515 9.11084L153.17 12.2939M169.42 14.1128L162.167 17.7505M169.42 14.1128V28.6433M153.17 12.2939L162.167 17.7505M153.17 12.2939V23.6704M162.167 17.7505V25.437V27.5262V41.0322M162.167 41.0322L169.42 37.2126V31.1502M162.167 41.0322L153.17 33.5748V25.2646M169.42 31.1502V28.6433M153.17 23.6704C146.283 23.1176 139.208 24.2375 132.147 26.3897C139.085 25.0007 146.186 24.3047 153.17 25.2646M153.17 23.6704V25.2646M154.604 107.564L137.196 115.268V95.8715L154.604 89.6873V107.564ZM157.21 106.411L173.092 99.3815V82.7756L157.21 88.899V106.411ZM176.121 98.0407L196.777 88.899V73.4993L176.121 81.5933V98.0407ZM196.777 91.4213V106.411L176.121 118.364V100.784L196.777 91.4213ZM137.196 140.889V118.427L154.604 110.537V130.885L137.196 140.889ZM157.21 109.356V129.308L173.092 120.117V102.157L157.21 109.356ZM114.704 127.558C115.333 110.047 111.307 80.3041 99.4647 67.9517C95.5477 65.5406 87.2364 69.7723 85.3269 105.988L114.704 127.558ZM166.482 13.749L162.167 16.0226L156.108 12.6577L160.515 10.475L166.482 13.749Z" stroke="#BFC6DC" stroke-width="0.662651"/>
<path d="M50.8589 97.9878C50.2846 100.059 53.2498 104.785 54.3145 105.639C55.3024 106.098 59.3017 107.766 61.5648 107.65C64.3934 107.505 64.5459 104.944 64.2674 103.938C64.9289 103.563 66.2346 102.476 66.165 101.118C66.0955 99.7599 64.4769 99.1619 63.3453 99.2199C64.1795 98.8935 65.5344 96.2322 62.9409 94.646C59.603 92.6046 59.1721 94.1583 57.7054 95.4246C56.5827 93.44 54.8054 93.1358 54.3671 93.3837C53.044 94.1321 53.7926 95.4552 53.3614 97.0088C52.1822 97.2394 51.2221 96.6776 50.8589 97.9878Z" fill="#3D8E53"/>
<path d="M54.3145 105.639L51.1553 112.842C53.5213 113.541 57.8648 115.957 56.3102 120.029C54.7557 124.101 57.6014 124.149 59.2186 123.664C60.1087 122.816 61.1367 121.119 58.128 121.119C57.6432 121.241 56.8192 121.701 57.4009 122.574M54.3145 105.639C53.2498 104.785 50.2846 100.059 50.8589 97.9878C51.2221 96.6776 52.1822 97.2394 53.3614 97.0088C53.7926 95.4552 53.044 94.1321 54.3671 93.3837C54.8054 93.1358 56.5827 93.44 57.7054 95.4246C59.1721 94.1583 59.603 92.6046 62.9409 94.646C65.5344 96.2322 64.1795 98.8935 63.3453 99.2199C64.4769 99.1619 66.0955 99.7599 66.165 101.118C66.2346 102.476 64.9289 103.563 64.2674 103.938C64.5459 104.944 64.3934 107.505 61.5648 107.65C59.3017 107.766 55.3024 106.098 54.3145 105.639Z" stroke="#3D8E53" stroke-width="1.3253"/>
<path d="M58.1942 108.608C57.3099 109.277 56.993 112.075 57.1465 112.738C57.3938 113.219 58.4569 115.085 59.3939 115.712C60.565 116.496 61.4364 115.503 61.6444 115.012C62.026 115.058 62.8899 115.006 63.2922 114.435C63.6944 113.864 63.2398 113.139 62.7713 112.826C63.2065 112.942 64.5881 112.267 64.0586 110.852C63.3771 109.031 62.7138 109.532 61.7294 109.608C61.9111 108.47 60.8361 108.639 60.5832 108.608C59.8199 108.518 60.1631 108.456 59.4997 108.957C58.9576 108.699 58.7535 108.186 58.1942 108.608Z" fill="#3D8E53"/>
<path d="M57.1465 112.738C56.993 112.075 57.3099 109.277 58.1942 108.608C58.7535 108.186 58.9576 108.699 59.4997 108.957C60.1631 108.456 59.8199 108.518 60.5832 108.608C60.8361 108.639 61.9111 108.47 61.7294 109.608C62.7138 109.532 63.3771 109.031 64.0586 110.852C64.5881 112.267 63.2065 112.942 62.7713 112.826C63.2398 113.139 63.6944 113.864 63.2922 114.435C62.8899 115.006 62.026 115.058 61.6444 115.012C61.4364 115.503 60.565 116.496 59.3939 115.712C58.4569 115.085 57.3938 113.219 57.1465 112.738ZM57.1465 112.738C56.4124 112.597 53.2885 112.287 51.1511 112.854" stroke="#3D8E53" stroke-width="1.3253"/>
<path d="M55.0194 104.7L55.7641 95.9832M55.0194 104.7L61.2302 96.3839M55.0194 104.7L62.9941 101.335M55.0194 104.7L61.5212 105.388M55.0194 104.7L53.4355 100.357" stroke="#89E159" stroke-width="0.662651"/>
<path d="M49.0698 100.131C50.0392 101.466 49.0011 105.4 48.4113 106.22C47.7787 106.749 45.1678 108.751 43.4179 109.14C41.2307 109.626 40.4562 107.86 40.4089 107.096C39.8098 106.971 38.5376 106.478 38.2411 105.511C37.9447 104.543 39.0212 103.787 39.8962 103.592C39.1782 103.537 37.4638 101.95 39.0271 100.297C41.0389 98.1702 41.7661 99.1713 43.2067 99.7553C43.5495 98.1287 44.8221 97.5456 45.2191 97.6285C46.4172 97.8788 46.1885 98.9632 46.9159 99.9642C47.8715 99.8809 48.4567 99.287 49.0698 100.131Z" fill="#3D8E53"/>
<path d="M51.1955 113.1L48.4113 106.22M48.4113 106.22C49.0011 105.4 50.0392 101.466 49.0698 100.131C48.4567 99.287 47.8715 99.8809 46.9159 99.9642C46.1885 98.9632 46.4172 97.8788 45.2191 97.6285C44.8221 97.5456 43.5495 98.1287 43.2067 99.7553C41.7661 99.1713 41.0389 98.1702 39.0271 100.297C37.4638 101.95 39.1782 103.537 39.8962 103.592C39.0212 103.787 37.9447 104.543 38.2411 105.511C38.5376 106.478 39.8098 106.971 40.4089 107.096C40.4562 107.86 41.2307 109.626 43.4179 109.14C45.1678 108.751 47.7787 106.749 48.4113 106.22Z" stroke="#3D8E53" stroke-width="1.3253"/>
<path d="M47.568 105.76L44.7597 99.7953M47.568 105.76L40.7082 101.213M47.568 105.76L40.6411 105.055M47.568 105.76L42.8032 107.595M47.568 105.76L47.6546 102.381" stroke="#89E159" stroke-width="0.662651"/>
<path d="M48.3689 112.939C47.8435 114.38 45.7372 115.246 44.9468 114.958C44.1564 114.67 43.101 112.652 43.6264 111.21C44.2831 109.408 45.3448 109.795 46.6544 110.272C47.964 110.75 49.0099 111.18 48.3689 112.939Z" fill="#F68561"/>
<path d="M46.0156 108.797C46.6653 109.121 46.8159 109.812 46.8141 110.26C47.0598 109.936 48.3423 110.3 48.6711 110.744C48.5563 110.962 47.5849 110.902 46.7951 110.509C46.1309 110.509 46.0054 109.343 46.0156 108.797Z" fill="#3D8E53"/>
<path d="M44.7022 112.01C44.6416 112.213 44.5025 112.349 44.3916 112.315C44.2806 112.281 44.2398 112.088 44.3004 111.885C44.361 111.682 44.5001 111.545 44.611 111.58C44.722 111.614 44.7628 111.806 44.7022 112.01Z" fill="#141B25"/>
<path d="M45.5444 111.117C45.4814 111.319 45.3407 111.454 45.2301 111.419C45.1195 111.384 45.0809 111.191 45.1438 110.988C45.2068 110.786 45.3475 110.651 45.4581 110.686C45.5687 110.722 45.6073 110.914 45.5444 111.117Z" fill="#141B25"/>
<path d="M45.158 113.392C45.135 113.603 45.0236 113.761 44.9092 113.744C44.7948 113.727 44.7206 113.542 44.7436 113.33C44.7665 113.118 44.8779 112.961 44.9924 112.978C45.1068 112.995 45.1809 113.18 45.158 113.392Z" fill="#141B25"/>
<path d="M46.4384 113.551C46.3065 113.719 46.1232 113.801 46.029 113.735C45.9347 113.668 45.9653 113.478 46.0971 113.31C46.229 113.142 46.4123 113.06 46.5065 113.126C46.6008 113.193 46.5702 113.383 46.4384 113.551Z" fill="#141B25"/>
<path d="M47.7669 112.4C47.6415 112.572 47.4618 112.661 47.3653 112.597C47.2689 112.533 47.2923 112.342 47.4176 112.169C47.5429 111.997 47.7227 111.909 47.8191 111.972C47.9156 112.036 47.8922 112.227 47.7669 112.4Z" fill="#141B25"/>
<path d="M46.7122 111.608C46.5869 111.78 46.4071 111.869 46.3107 111.805C46.2142 111.741 46.2376 111.55 46.3629 111.377C46.4883 111.205 46.668 111.117 46.7645 111.18C46.8609 111.244 46.8375 111.435 46.7122 111.608Z" fill="#141B25"/>
<path d="M45.9512 112.495C45.8868 112.697 45.7451 112.831 45.6347 112.795C45.5243 112.759 45.487 112.566 45.5514 112.365C45.6158 112.163 45.7575 112.028 45.8679 112.064C45.9783 112.1 46.0156 112.293 45.9512 112.495Z" fill="#141B25"/>
<path d="M46.6157 110.212C49.5554 109.883 50.3323 111.192 51.0514 112.376" stroke="#3D8E53" stroke-width="0.662651"/>
<path d="M52.3931 117.316C52.3349 118.885 50.348 120.383 49.3836 120.347C48.4193 120.311 46.5489 118.67 46.6072 117.101C46.6799 115.139 47.9752 115.187 49.573 115.247C51.1707 115.306 52.4642 115.401 52.3931 117.316Z" fill="#F68561"/>
<path d="M48.4876 114.352C49.2691 114.46 49.6761 114.982 49.8493 115.393C49.7452 114.984 49.6799 114.365 50.2271 114.21C50.2915 114.398 50.4824 114.955 50.34 115.342C50.7416 115.093 51.3362 114.919 51.7536 115.186C51.7063 115.435 50.9443 115.839 49.9432 115.701C49.219 115.906 48.6711 114.887 48.4876 114.352Z" fill="#3D8E53"/>
<path d="M48.0642 117.547C48.0706 117.764 47.9678 117.941 47.8347 117.942C47.7015 117.942 47.5883 117.767 47.5819 117.55C47.5755 117.334 47.6783 117.157 47.8114 117.156C47.9446 117.155 48.0578 117.33 48.0642 117.547Z" fill="#141B25"/>
<path d="M48.6646 116.415C48.6682 116.631 48.5631 116.807 48.4299 116.807C48.2967 116.807 48.1858 116.631 48.1823 116.414C48.1787 116.197 48.2838 116.021 48.417 116.021C48.5501 116.022 48.661 116.198 48.6646 116.415Z" fill="#141B25"/>
<path d="M49.0534 118.754C49.1038 118.968 49.0388 119.156 48.908 119.175C48.7772 119.194 48.6302 119.036 48.5797 118.823C48.5292 118.609 48.5943 118.421 48.7251 118.402C48.8559 118.383 49.0029 118.541 49.0534 118.754Z" fill="#141B25"/>
<path d="M50.5054 118.514C50.4216 118.719 50.2512 118.856 50.1248 118.821C49.9983 118.785 49.9637 118.59 50.0475 118.385C50.1313 118.18 50.3017 118.043 50.4282 118.079C50.5546 118.114 50.5892 118.309 50.5054 118.514Z" fill="#141B25"/>
<path d="M51.5458 116.979C51.4707 117.186 51.3063 117.328 51.1785 117.296C51.0507 117.264 51.0079 117.07 51.0829 116.862C51.1579 116.655 51.3224 116.513 51.4502 116.546C51.578 116.578 51.6208 116.772 51.5458 116.979Z" fill="#141B25"/>
<path d="M50.1122 116.533C50.0371 116.74 49.8727 116.882 49.7449 116.85C49.6171 116.818 49.5743 116.624 49.6493 116.417C49.7243 116.209 49.8888 116.068 50.0166 116.1C50.1444 116.132 50.1872 116.326 50.1122 116.533Z" fill="#141B25"/>
<path d="M49.599 117.634C49.6009 117.851 49.4944 118.026 49.3612 118.025C49.228 118.024 49.1185 117.847 49.1166 117.631C49.1148 117.414 49.2213 117.239 49.3545 117.239C49.4877 117.24 49.5972 117.417 49.599 117.634Z" fill="#141B25"/>
<path d="M50.0524 115.366C49.7138 113.388 50.5506 113.371 51.5478 112.374" stroke="#3D8E53" stroke-width="0.662651"/>
<path d="M32.8589 125.988C32.2846 128.059 35.2498 132.785 36.3145 133.639C37.3024 134.098 41.3017 135.766 43.5648 135.65C46.3934 135.505 46.5459 132.944 46.2674 131.938C46.9289 131.563 48.2346 130.476 48.165 129.118C48.0955 127.76 46.4769 127.162 45.3453 127.22C46.1795 126.894 47.5344 124.232 44.9409 122.646C41.603 120.605 41.1721 122.158 39.7054 123.425C38.5827 121.44 36.8054 121.136 36.3671 121.384C35.044 122.132 35.7926 123.455 35.3614 125.009C34.1822 125.239 33.2221 124.678 32.8589 125.988Z" fill="#3D8E53"/>
<path d="M36.3145 133.639L33.1553 140.842C35.5213 141.541 39.8648 143.957 38.3102 148.029C36.7557 152.101 39.6014 152.149 41.2186 151.664C42.1087 150.816 43.1367 149.119 40.128 149.119C39.6432 149.241 38.8192 149.701 39.4009 150.574M36.3145 133.639C35.2498 132.785 32.2846 128.059 32.8589 125.988C33.2221 124.678 34.1822 125.239 35.3614 125.009C35.7926 123.455 35.044 122.132 36.3671 121.384C36.8054 121.136 38.5827 121.44 39.7054 123.425C41.1721 122.158 41.603 120.605 44.9409 122.646C47.5344 124.232 46.1795 126.894 45.3453 127.22C46.4769 127.162 48.0955 127.76 48.165 129.118C48.2346 130.476 46.9289 131.563 46.2674 131.938C46.5459 132.944 46.3934 135.505 43.5648 135.65C41.3017 135.766 37.3024 134.098 36.3145 133.639Z" stroke="#3D8E53" stroke-width="1.3253"/>
<path d="M40.1942 136.608C39.3099 137.277 38.993 140.075 39.1465 140.738C39.3938 141.219 40.4569 143.085 41.3939 143.712C42.565 144.496 43.4364 143.503 43.6444 143.012C44.026 143.058 44.8899 143.006 45.2922 142.435C45.6944 141.864 45.2398 141.139 44.7713 140.826C45.2065 140.942 46.5881 140.267 46.0586 138.852C45.3771 137.031 44.7138 137.532 43.7294 137.608C43.9111 136.47 42.8361 136.639 42.5832 136.608C41.8199 136.518 42.1631 136.456 41.4997 136.957C40.9576 136.699 40.7535 136.186 40.1942 136.608Z" fill="#3D8E53"/>
<path d="M39.1465 140.738C38.993 140.075 39.3099 137.277 40.1942 136.608C40.7535 136.186 40.9576 136.699 41.4997 136.957C42.1631 136.456 41.8199 136.518 42.5832 136.608C42.8361 136.639 43.9111 136.47 43.7294 137.608C44.7138 137.532 45.3771 137.031 46.0586 138.852C46.5881 140.267 45.2065 140.942 44.7713 140.826C45.2398 141.139 45.6944 141.864 45.2922 142.435C44.8899 143.006 44.026 143.058 43.6444 143.012C43.4364 143.503 42.565 144.496 41.3939 143.712C40.4569 143.085 39.3938 141.219 39.1465 140.738ZM39.1465 140.738C38.4124 140.597 35.2885 140.287 33.1511 140.854" stroke="#3D8E53" stroke-width="1.3253"/>
<path d="M37.0194 132.7L37.7641 123.983M37.0194 132.7L43.2302 124.384M37.0194 132.7L44.9941 129.335M37.0194 132.7L43.5212 133.388M37.0194 132.7L35.4355 128.357" stroke="#89E159" stroke-width="0.662651"/>
<path d="M31.0698 128.131C32.0392 129.466 31.0011 133.4 30.4113 134.22C29.7787 134.749 27.1678 136.751 25.4179 137.14C23.2307 137.626 22.4562 135.86 22.4089 135.096C21.8098 134.971 20.5376 134.478 20.2411 133.511C19.9447 132.543 21.0212 131.787 21.8962 131.592C21.1782 131.537 19.4638 129.95 21.0271 128.297C23.0389 126.17 23.7661 127.171 25.2067 127.755C25.5495 126.129 26.8221 125.546 27.2191 125.629C28.4172 125.879 28.1885 126.963 28.9159 127.964C29.8715 127.881 30.4567 127.287 31.0698 128.131Z" fill="#3D8E53"/>
<path d="M33.1955 141.1L30.4113 134.22M30.4113 134.22C31.0011 133.4 32.0392 129.466 31.0698 128.131C30.4567 127.287 29.8715 127.881 28.9159 127.964C28.1885 126.963 28.4172 125.879 27.2191 125.629C26.8221 125.546 25.5495 126.129 25.2067 127.755C23.7661 127.171 23.0389 126.17 21.0271 128.297C19.4638 129.95 21.1782 131.537 21.8962 131.592C21.0212 131.787 19.9447 132.543 20.2411 133.511C20.5376 134.478 21.8098 134.971 22.4089 135.096C22.4562 135.86 23.2307 137.626 25.4179 137.14C27.1678 136.751 29.7787 134.749 30.4113 134.22Z" stroke="#3D8E53" stroke-width="1.3253"/>
<path d="M29.568 133.76L26.7597 127.795M29.568 133.76L22.7082 129.213M29.568 133.76L22.6411 133.055M29.568 133.76L24.8032 135.595M29.568 133.76L29.6546 130.381" stroke="#89E159" stroke-width="0.662651"/>
<path d="M30.3689 140.939C29.8435 142.38 27.7372 143.246 26.9468 142.958C26.1564 142.67 25.101 140.652 25.6264 139.21C26.2831 137.408 27.3448 137.795 28.6544 138.272C29.964 138.75 31.0099 139.18 30.3689 140.939Z" fill="#F68561"/>
<path d="M28.0156 136.797C28.6653 137.121 28.8159 137.812 28.8141 138.26C29.0598 137.936 30.3423 138.3 30.6711 138.744C30.5563 138.962 29.5849 138.902 28.7951 138.509C28.1309 138.509 28.0054 137.343 28.0156 136.797Z" fill="#3D8E53"/>
<path d="M26.7022 140.01C26.6416 140.213 26.5025 140.349 26.3916 140.315C26.2806 140.281 26.2398 140.088 26.3004 139.885C26.361 139.682 26.5001 139.545 26.611 139.58C26.722 139.614 26.7628 139.806 26.7022 140.01Z" fill="#141B25"/>
<path d="M27.5444 139.117C27.4814 139.319 27.3407 139.454 27.2301 139.419C27.1195 139.384 27.0809 139.191 27.1438 138.988C27.2068 138.786 27.3475 138.651 27.4581 138.686C27.5687 138.722 27.6073 138.914 27.5444 139.117Z" fill="#141B25"/>
<path d="M27.158 141.392C27.135 141.603 27.0236 141.761 26.9092 141.744C26.7948 141.727 26.7206 141.542 26.7436 141.33C26.7665 141.118 26.8779 140.961 26.9924 140.978C27.1068 140.995 27.1809 141.18 27.158 141.392Z" fill="#141B25"/>
<path d="M28.4384 141.551C28.3065 141.719 28.1232 141.801 28.029 141.735C27.9347 141.668 27.9653 141.478 28.0971 141.31C28.229 141.142 28.4123 141.06 28.5065 141.126C28.6008 141.193 28.5702 141.383 28.4384 141.551Z" fill="#141B25"/>
<path d="M29.7669 140.4C29.6415 140.572 29.4618 140.661 29.3653 140.597C29.2689 140.533 29.2923 140.342 29.4176 140.169C29.5429 139.997 29.7227 139.909 29.8191 139.972C29.9156 140.036 29.8922 140.227 29.7669 140.4Z" fill="#141B25"/>
<path d="M28.7122 139.608C28.5869 139.78 28.4071 139.869 28.3107 139.805C28.2142 139.741 28.2376 139.55 28.3629 139.377C28.4883 139.205 28.668 139.117 28.7645 139.18C28.8609 139.244 28.8375 139.435 28.7122 139.608Z" fill="#141B25"/>
<path d="M27.9512 140.495C27.8868 140.697 27.7451 140.831 27.6347 140.795C27.5243 140.759 27.487 140.566 27.5514 140.365C27.6158 140.163 27.7575 140.028 27.8679 140.064C27.9783 140.1 28.0156 140.293 27.9512 140.495Z" fill="#141B25"/>
<path d="M28.6157 138.212C31.5554 137.883 32.3323 139.192 33.0514 140.376" stroke="#3D8E53" stroke-width="0.662651"/>
<path d="M34.3931 145.316C34.3349 146.885 32.348 148.383 31.3836 148.347C30.4193 148.311 28.5489 146.67 28.6072 145.101C28.6799 143.139 29.9752 143.187 31.573 143.247C33.1707 143.306 34.4642 143.401 34.3931 145.316Z" fill="#F68561"/>
<path d="M30.4876 142.352C31.2691 142.46 31.6761 142.982 31.8493 143.393C31.7452 142.984 31.6799 142.365 32.2271 142.21C32.2915 142.398 32.4824 142.955 32.34 143.342C32.7416 143.093 33.3362 142.919 33.7536 143.186C33.7063 143.435 32.9443 143.839 31.9432 143.701C31.219 143.906 30.6711 142.887 30.4876 142.352Z" fill="#3D8E53"/>
<path d="M30.0642 145.547C30.0706 145.764 29.9678 145.941 29.8347 145.942C29.7015 145.942 29.5883 145.767 29.5819 145.55C29.5755 145.334 29.6783 145.157 29.8114 145.156C29.9446 145.155 30.0578 145.33 30.0642 145.547Z" fill="#141B25"/>
<path d="M30.6646 144.415C30.6682 144.631 30.5631 144.807 30.4299 144.807C30.2967 144.807 30.1858 144.631 30.1823 144.414C30.1787 144.197 30.2838 144.021 30.417 144.021C30.5501 144.022 30.661 144.198 30.6646 144.415Z" fill="#141B25"/>
<path d="M31.0534 146.754C31.1038 146.968 31.0388 147.156 30.908 147.175C30.7772 147.194 30.6302 147.036 30.5797 146.823C30.5292 146.609 30.5943 146.421 30.7251 146.402C30.8559 146.383 31.0029 146.541 31.0534 146.754Z" fill="#141B25"/>
<path d="M32.5054 146.514C32.4216 146.719 32.2512 146.856 32.1248 146.821C31.9983 146.785 31.9637 146.59 32.0475 146.385C32.1313 146.18 32.3017 146.043 32.4282 146.079C32.5546 146.114 32.5892 146.309 32.5054 146.514Z" fill="#141B25"/>
<path d="M33.5458 144.979C33.4707 145.186 33.3063 145.328 33.1785 145.296C33.0507 145.264 33.0079 145.07 33.0829 144.862C33.1579 144.655 33.3224 144.513 33.4502 144.546C33.578 144.578 33.6208 144.772 33.5458 144.979Z" fill="#141B25"/>
<path d="M32.1122 144.533C32.0371 144.74 31.8727 144.882 31.7449 144.85C31.6171 144.818 31.5743 144.624 31.6493 144.417C31.7243 144.209 31.8888 144.068 32.0166 144.1C32.1444 144.132 32.1872 144.326 32.1122 144.533Z" fill="#141B25"/>
<path d="M31.599 145.634C31.6009 145.851 31.4944 146.026 31.3612 146.025C31.228 146.024 31.1185 145.847 31.1166 145.631C31.1148 145.414 31.2213 145.239 31.3545 145.239C31.4877 145.24 31.5972 145.417 31.599 145.634Z" fill="#141B25"/>
<path d="M32.0524 143.366C31.7138 141.388 32.5506 141.371 33.5478 140.374" stroke="#3D8E53" stroke-width="0.662651"/>
<path d="M82.8589 126.988C82.2846 129.06 85.2498 133.786 86.3145 134.639C87.3024 135.099 91.3017 136.766 93.5648 136.65C96.3934 136.505 96.5459 133.945 96.2674 132.938C96.9289 132.564 98.2346 131.476 98.165 130.118C98.0955 128.76 96.4769 128.162 95.3453 128.22C96.1795 127.894 97.5344 125.233 94.9409 123.646C91.603 121.605 91.1721 123.159 89.7054 124.425C88.5827 122.44 86.8054 122.136 86.3671 122.384C85.044 123.133 85.7926 124.456 85.3614 126.009C84.1822 126.24 83.2221 125.678 82.8589 126.988Z" fill="#3D8E53"/>
<path d="M86.3145 134.639L83.1553 141.843C85.5213 142.542 89.8648 144.957 88.3102 149.029C86.7557 153.101 89.6014 153.149 91.2186 152.665C92.1087 151.816 93.1367 150.12 90.128 150.12C89.6432 150.241 88.8192 150.702 89.4009 151.574M86.3145 134.639C85.2498 133.786 82.2846 129.06 82.8589 126.988C83.2221 125.678 84.1822 126.24 85.3614 126.009C85.7926 124.456 85.044 123.133 86.3671 122.384C86.8054 122.136 88.5827 122.44 89.7054 124.425C91.1721 123.159 91.603 121.605 94.9409 123.646C97.5344 125.233 96.1795 127.894 95.3453 128.22C96.4769 128.162 98.0955 128.76 98.165 130.118C98.2346 131.476 96.9289 132.564 96.2674 132.938C96.5459 133.945 96.3934 136.505 93.5648 136.65C91.3017 136.766 87.3024 135.099 86.3145 134.639Z" stroke="#3D8E53" stroke-width="1.3253"/>
<path d="M90.1942 137.609C89.3099 138.277 88.993 141.076 89.1465 141.739C89.3938 142.219 90.4569 144.086 91.3939 144.713C92.565 145.496 93.4364 144.504 93.6444 144.013C94.026 144.058 94.8899 144.006 95.2922 143.435C95.6944 142.864 95.2398 142.14 94.7713 141.826C95.2065 141.942 96.5881 141.267 96.0586 139.852C95.3771 138.031 94.7138 138.532 93.7294 138.609C93.9111 137.47 92.8361 137.639 92.5832 137.609C91.8199 137.518 92.1631 137.456 91.4997 137.957C90.9576 137.7 90.7535 137.186 90.1942 137.609Z" fill="#3D8E53"/>
<path d="M89.1465 141.739C88.993 141.076 89.3099 138.277 90.1942 137.609C90.7535 137.186 90.9576 137.7 91.4997 137.957C92.1631 137.456 91.8199 137.518 92.5832 137.609C92.8361 137.639 93.9111 137.47 93.7294 138.609C94.7138 138.532 95.3771 138.031 96.0586 139.852C96.5881 141.267 95.2065 141.942 94.7713 141.826C95.2398 142.14 95.6944 142.864 95.2922 143.435C94.8899 144.006 94.026 144.058 93.6444 144.013C93.4364 144.504 92.565 145.496 91.3939 144.713C90.4569 144.086 89.3938 142.219 89.1465 141.739ZM89.1465 141.739C88.4124 141.597 85.2885 141.287 83.1511 141.854" stroke="#3D8E53" stroke-width="1.3253"/>
<path d="M87.0194 133.701L87.7641 124.984M87.0194 133.701L93.2302 125.384M87.0194 133.701L94.9941 130.335M87.0194 133.701L93.5212 134.389M87.0194 133.701L85.4355 129.357" stroke="#89E159" stroke-width="0.662651"/>
<path d="M81.0698 129.132C82.0392 130.466 81.0011 134.401 80.4113 135.221C79.7787 135.749 77.1678 137.751 75.4179 138.14C73.2307 138.627 72.4562 136.861 72.4089 136.096C71.8098 135.971 70.5376 135.479 70.2411 134.511C69.9447 133.544 71.0212 132.787 71.8962 132.593C71.1782 132.537 69.4638 130.951 71.0271 129.298C73.0389 127.171 73.7661 128.172 75.2067 128.756C75.5495 127.129 76.8221 126.546 77.2191 126.629C78.4172 126.879 78.1885 127.964 78.9159 128.965C79.8715 128.881 80.4567 128.287 81.0698 129.132Z" fill="#3D8E53"/>
<path d="M83.1955 142.1L80.4113 135.221M80.4113 135.221C81.0011 134.401 82.0392 130.466 81.0698 129.132C80.4567 128.287 79.8715 128.881 78.9159 128.965C78.1885 127.964 78.4172 126.879 77.2191 126.629C76.8221 126.546 75.5495 127.129 75.2067 128.756C73.7661 128.172 73.0389 127.171 71.0271 129.298C69.4638 130.951 71.1782 132.537 71.8962 132.593C71.0212 132.787 69.9447 133.544 70.2411 134.511C70.5376 135.479 71.8098 135.971 72.4089 136.096C72.4562 136.861 73.2307 138.627 75.4179 138.14C77.1678 137.751 79.7787 135.749 80.4113 135.221Z" stroke="#3D8E53" stroke-width="1.3253"/>
<path d="M79.568 134.76L76.7597 128.796M79.568 134.76L72.7082 130.214M79.568 134.76L72.6411 134.056M79.568 134.76L74.8032 136.595M79.568 134.76L79.6546 131.382" stroke="#89E159" stroke-width="0.662651"/>
<path d="M80.3689 141.939C79.8435 143.381 77.7372 144.247 76.9468 143.959C76.1564 143.671 75.101 141.653 75.6264 140.211C76.2831 138.409 77.3448 138.796 78.6544 139.273C79.964 139.75 81.0099 140.18 80.3689 141.939Z" fill="#F68561"/>
<path d="M78.0156 137.798C78.6653 138.121 78.8159 138.813 78.8141 139.26C79.0598 138.936 80.3423 139.301 80.6711 139.744C80.5563 139.962 79.5849 139.903 78.7951 139.51C78.1309 139.509 78.0054 138.343 78.0156 137.798Z" fill="#3D8E53"/>
<path d="M76.7022 141.01C76.6416 141.213 76.5025 141.35 76.3916 141.316C76.2806 141.281 76.2398 141.089 76.3004 140.886C76.361 140.683 76.5001 140.546 76.611 140.58C76.722 140.615 76.7628 140.807 76.7022 141.01Z" fill="#141B25"/>
<path d="M77.5444 140.117C77.4814 140.319 77.3407 140.455 77.2301 140.419C77.1195 140.384 77.0809 140.191 77.1438 139.989C77.2068 139.787 77.3475 139.651 77.4581 139.687C77.5687 139.722 77.6073 139.915 77.5444 140.117Z" fill="#141B25"/>
<path d="M77.158 142.392C77.135 142.604 77.0236 142.762 76.9092 142.745C76.7948 142.728 76.7206 142.542 76.7436 142.331C76.7665 142.119 76.8779 141.961 76.9924 141.978C77.1068 141.995 77.1809 142.18 77.158 142.392Z" fill="#141B25"/>
<path d="M78.4384 142.552C78.3065 142.72 78.1232 142.802 78.029 142.735C77.9347 142.669 77.9653 142.479 78.0971 142.311C78.229 142.143 78.4123 142.06 78.5065 142.127C78.6008 142.193 78.5702 142.384 78.4384 142.552Z" fill="#141B25"/>
<path d="M79.7669 141.4C79.6415 141.573 79.4618 141.661 79.3653 141.597C79.2689 141.534 79.2923 141.342 79.4176 141.17C79.5429 140.997 79.7227 140.909 79.8191 140.973C79.9156 141.036 79.8922 141.228 79.7669 141.4Z" fill="#141B25"/>
<path d="M78.7122 140.608C78.5869 140.781 78.4071 140.869 78.3107 140.805C78.2142 140.742 78.2376 140.55 78.3629 140.378C78.4883 140.205 78.668 140.117 78.7645 140.181C78.8609 140.244 78.8375 140.436 78.7122 140.608Z" fill="#141B25"/>
<path d="M77.9512 141.496C77.8868 141.697 77.7451 141.832 77.6347 141.796C77.5243 141.76 77.487 141.567 77.5514 141.365C77.6158 141.163 77.7575 141.029 77.8679 141.065C77.9783 141.101 78.0156 141.294 77.9512 141.496Z" fill="#141B25"/>
<path d="M78.6157 139.213C81.5554 138.884 82.3323 140.193 83.0514 141.376" stroke="#3D8E53" stroke-width="0.662651"/>
<path d="M84.3931 146.316C84.3349 147.886 82.348 149.384 81.3836 149.348C80.4193 149.312 78.5489 147.671 78.6072 146.102C78.6799 144.14 79.9752 144.188 81.573 144.247C83.1707 144.306 84.4642 144.402 84.3931 146.316Z" fill="#F68561"/>
<path d="M80.4876 143.352C81.2691 143.46 81.6761 143.983 81.8493 144.393C81.7452 143.985 81.6799 143.366 82.2271 143.211C82.2915 143.398 82.4824 143.956 82.34 144.342C82.7416 144.093 83.3362 143.92 83.7536 144.187C83.7063 144.435 82.9443 144.84 81.9432 144.701C81.219 144.907 80.6711 143.887 80.4876 143.352Z" fill="#3D8E53"/>
<path d="M80.0642 146.548C80.0706 146.764 79.9678 146.941 79.8347 146.942C79.7015 146.943 79.5883 146.768 79.5819 146.551C79.5755 146.334 79.6783 146.157 79.8114 146.156C79.9446 146.156 80.0578 146.331 80.0642 146.548Z" fill="#141B25"/>
<path d="M80.6646 145.415C80.6682 145.632 80.5631 145.808 80.4299 145.807C80.2967 145.807 80.1858 145.631 80.1823 145.414C80.1787 145.197 80.2838 145.022 80.417 145.022C80.5501 145.022 80.661 145.198 80.6646 145.415Z" fill="#141B25"/>
<path d="M81.0534 147.755C81.1038 147.968 81.0388 148.157 80.908 148.176C80.7772 148.195 80.6302 148.037 80.5797 147.823C80.5292 147.61 80.5943 147.421 80.7251 147.402C80.8559 147.383 81.0029 147.541 81.0534 147.755Z" fill="#141B25"/>
<path d="M82.5054 147.515C82.4216 147.72 82.2512 147.857 82.1248 147.821C81.9983 147.785 81.9637 147.59 82.0475 147.386C82.1313 147.181 82.3017 147.044 82.4282 147.079C82.5546 147.115 82.5892 147.31 82.5054 147.515Z" fill="#141B25"/>
<path d="M83.5458 145.979C83.4707 146.186 83.3063 146.328 83.1785 146.296C83.0507 146.264 83.0079 146.07 83.0829 145.863C83.1579 145.656 83.3224 145.514 83.4502 145.546C83.578 145.578 83.6208 145.772 83.5458 145.979Z" fill="#141B25"/>
<path d="M82.1122 145.534C82.0371 145.741 81.8727 145.883 81.7449 145.85C81.6171 145.818 81.5743 145.624 81.6493 145.417C81.7243 145.21 81.8888 145.068 82.0166 145.1C82.1444 145.132 82.1872 145.326 82.1122 145.534Z" fill="#141B25"/>
<path d="M81.599 146.634C81.6009 146.851 81.4944 147.026 81.3612 147.025C81.228 147.025 81.1185 146.848 81.1166 146.631C81.1148 146.414 81.2213 146.239 81.3545 146.24C81.4877 146.241 81.5972 146.417 81.599 146.634Z" fill="#141B25"/>
<path d="M82.0524 144.366C81.7138 142.388 82.5506 142.372 83.5478 141.375" stroke="#3D8E53" stroke-width="0.662651"/>
<defs>
<filter id="filter0_f_949_988" x="-26.506" y="18.554" width="273.012" height="176.265" filterUnits="userSpaceOnUse" color-interpolation-filters="sRGB">
<feFlood flood-opacity="0" result="BackgroundImageFix"/>
<feBlend mode="normal" in="SourceGraphic" in2="BackgroundImageFix" result="shape"/>
<feGaussianBlur stdDeviation="13.253" result="effect1_foregroundBlur_949_988"/>
</filter>
<filter id="filter1_f_949_988" x="-66.2645" y="-106.19" width="405.541" height="368.434" filterUnits="userSpaceOnUse" color-interpolation-filters="sRGB">
<feFlood flood-opacity="0" result="BackgroundImageFix"/>
<feBlend mode="normal" in="SourceGraphic" in2="BackgroundImageFix" result="shape"/>
<feGaussianBlur stdDeviation="66.2651" result="effect1_foregroundBlur_949_988"/>
</filter>
</defs>
</svg>
