<svg width="203" height="610" viewBox="0 0 203 610" fill="none" xmlns="http://www.w3.org/2000/svg">
<path d="M135.479 277.122C133.845 283.485 142.289 298.005 145.32 300.627C148.133 302.04 159.519 307.164 165.961 306.809C174.013 306.365 174.446 298.499 173.653 295.406C175.536 294.257 179.253 290.915 179.054 286.744C178.856 282.573 174.247 280.735 171.026 280.912C173.401 279.91 177.257 271.735 169.873 266.861C160.37 260.589 159.144 265.361 154.969 269.251C151.772 263.154 146.712 262.218 145.464 262.98C141.698 265.278 143.83 269.343 142.603 274.115C139.246 274.823 136.513 273.097 135.479 277.122Z" fill="#3D8E53"/>
<path d="M145.32 300.626L136.33 322.756C143.065 324.904 155.431 332.327 151.008 344.834C146.584 357.342 154.685 357.492 159.289 356.004C161.822 353.398 164.748 348.187 156.183 348.186C154.803 348.558 152.457 349.972 154.114 352.653M145.32 300.626C142.289 298.005 133.845 283.485 135.479 277.122C136.513 273.097 139.246 274.823 142.603 274.115C143.83 269.343 141.698 265.278 145.464 262.98C146.712 262.218 151.772 263.154 154.969 269.251C159.144 265.361 160.37 260.589 169.873 266.861C177.257 271.735 173.401 279.91 171.026 280.912C174.247 280.735 178.856 282.573 179.054 286.744C179.253 290.915 175.536 294.257 173.653 295.406C174.446 298.499 174.013 306.365 165.961 306.809C159.519 307.164 148.133 302.04 145.32 300.626Z" stroke="#3D8E53" stroke-width="3.72722"/>
<path d="M156.359 309.742C153.842 311.795 152.939 320.391 153.376 322.427C154.081 323.903 157.107 329.636 159.775 331.562C163.109 333.969 165.59 330.921 166.182 329.413C167.269 329.552 169.728 329.392 170.873 327.638C172.019 325.884 170.724 323.659 169.391 322.696C170.63 323.053 174.563 320.979 173.056 316.632C171.115 311.038 169.227 312.578 166.424 312.813C166.941 309.315 163.881 309.834 163.161 309.742C160.988 309.463 161.965 309.272 160.076 310.812C158.533 310.02 157.952 308.443 156.359 309.742Z" fill="#3D8E53"/>
<path d="M153.376 322.427C152.939 320.391 153.842 311.795 156.359 309.742C157.952 308.443 158.533 310.02 160.076 310.812C161.965 309.272 160.988 309.463 163.161 309.742C163.881 309.834 166.941 309.315 166.424 312.813C169.227 312.578 171.115 311.038 173.056 316.632C174.563 320.979 170.63 323.053 169.391 322.696C170.724 323.659 172.019 325.884 170.873 327.638C169.728 329.392 167.269 329.552 166.182 329.413C165.59 330.921 163.109 333.969 159.775 331.562C157.107 329.636 154.081 323.903 153.376 322.427ZM153.376 322.427C151.286 321.992 142.392 321.04 136.307 322.782" stroke="#3D8E53" stroke-width="3.72722"/>
<path d="M147.321 297.739L149.441 270.963M147.321 297.739L165.003 272.193M147.321 297.739L170.025 287.402M147.321 297.739L165.832 299.852M147.321 297.739L142.811 284.397" stroke="#89E159" stroke-width="1.86361"/>
<path d="M130.381 283.708C133.14 287.808 130.185 299.894 128.506 302.413C126.705 304.036 119.271 310.185 114.289 311.38C108.062 312.875 105.857 307.451 105.722 305.102C104.017 304.717 100.395 303.205 99.5509 300.233C98.707 297.261 101.772 294.937 104.263 294.34C102.219 294.169 97.3377 289.295 101.788 284.219C107.516 277.685 109.587 280.76 113.688 282.554C114.664 277.557 118.287 275.766 119.417 276.021C122.828 276.79 122.177 280.121 124.248 283.196C126.969 282.94 128.635 281.115 130.381 283.708Z" fill="#3D8E53"/>
<path d="M136.432 323.544L128.506 302.413M128.506 302.413C130.185 299.894 133.14 287.808 130.381 283.708C128.635 281.115 126.969 282.94 124.248 283.196C122.177 280.121 122.828 276.79 119.417 276.021C118.287 275.766 114.664 277.557 113.688 282.554C109.587 280.76 107.516 277.685 101.788 284.219C97.3377 289.295 102.219 294.169 104.263 294.34C101.772 294.937 98.707 297.261 99.5509 300.233C100.395 303.205 104.017 304.717 105.722 305.102C105.857 307.451 108.062 312.875 114.289 311.38C119.271 310.185 126.705 304.036 128.506 302.413Z" stroke="#3D8E53" stroke-width="3.72722"/>
<path d="M126.109 301L118.113 282.679M126.109 301L106.579 287.034M126.109 301L106.387 298.836M126.109 301L112.543 306.636M126.109 301L126.355 290.622" stroke="#89E159" stroke-width="1.86361"/>
<path d="M128.378 323.047C126.882 327.476 120.885 330.135 118.635 329.251C116.384 328.366 113.38 322.167 114.875 317.738C116.745 312.202 119.768 313.391 123.496 314.857C127.225 316.323 130.203 317.644 128.378 323.047Z" fill="#F68561"/>
<path d="M121.68 310.324C123.529 311.318 123.958 313.442 123.953 314.817C124.652 313.822 128.304 314.941 129.24 316.303C128.913 316.973 126.147 316.791 123.899 315.583C122.008 315.582 121.65 312 121.68 310.324Z" fill="#3D8E53"/>
<path d="M117.937 320.193C117.764 320.817 117.368 321.237 117.053 321.132C116.737 321.026 116.62 320.435 116.793 319.811C116.966 319.187 117.362 318.767 117.677 318.872C117.993 318.978 118.109 319.569 117.937 320.193Z" fill="#141B25"/>
<path d="M120.332 317.451C120.153 318.073 119.752 318.488 119.437 318.38C119.122 318.271 119.012 317.679 119.192 317.057C119.371 316.436 119.771 316.02 120.086 316.128C120.401 316.237 120.511 316.829 120.332 317.451Z" fill="#141B25"/>
<path d="M119.233 324.439C119.167 325.089 118.85 325.574 118.525 325.522C118.199 325.469 117.988 324.9 118.053 324.25C118.118 323.599 118.435 323.115 118.761 323.167C119.087 323.219 119.298 323.788 119.233 324.439Z" fill="#141B25"/>
<path d="M122.879 324.927C122.504 325.443 121.982 325.696 121.714 325.492C121.446 325.287 121.532 324.703 121.908 324.187C122.283 323.67 122.805 323.418 123.074 323.622C123.342 323.827 123.255 324.411 122.879 324.927Z" fill="#141B25"/>
<path d="M126.668 321.39C126.311 321.92 125.799 322.191 125.524 321.996C125.25 321.8 125.316 321.212 125.673 320.682C126.03 320.152 126.542 319.881 126.816 320.076C127.091 320.272 127.024 320.86 126.668 321.39Z" fill="#141B25"/>
<path d="M123.664 318.954C123.307 319.485 122.795 319.756 122.52 319.56C122.246 319.365 122.313 318.777 122.669 318.247C123.026 317.717 123.538 317.446 123.813 317.641C124.087 317.836 124.02 318.424 123.664 318.954Z" fill="#141B25"/>
<path d="M121.49 321.686C121.306 322.306 120.903 322.719 120.588 322.609C120.274 322.498 120.168 321.905 120.351 321.285C120.535 320.665 120.938 320.252 121.252 320.363C121.567 320.473 121.673 321.066 121.49 321.686Z" fill="#141B25"/>
<path d="M123.385 314.668C131.754 313.657 133.966 317.679 136.014 321.314" stroke="#3D8E53" stroke-width="1.86361"/>
<path d="M139.838 336.487C139.672 341.308 134.015 345.909 131.27 345.799C128.524 345.689 123.199 340.648 123.365 335.827C123.572 329.801 127.26 329.949 131.809 330.131C136.358 330.313 140.04 330.606 139.838 336.487Z" fill="#F68561"/>
<path d="M128.721 327.387C130.946 327.719 132.105 329.324 132.598 330.585C132.302 329.33 132.116 327.429 133.674 326.952C133.857 327.529 134.401 329.241 133.995 330.429C135.138 329.663 136.831 329.131 138.02 329.951C137.885 330.714 135.715 331.957 132.865 331.531C130.804 332.163 129.244 329.031 128.721 327.387Z" fill="#3D8E53"/>
<path d="M127.515 337.198C127.533 337.864 127.241 338.407 126.861 338.41C126.482 338.413 126.16 337.875 126.142 337.208C126.124 336.542 126.416 336 126.795 335.997C127.175 335.994 127.497 336.532 127.515 337.198Z" fill="#141B25"/>
<path d="M129.219 333.727C129.229 334.393 128.93 334.933 128.551 334.932C128.171 334.931 127.856 334.391 127.846 333.724C127.835 333.058 128.135 332.518 128.514 332.519C128.893 332.519 129.209 333.06 129.219 333.727Z" fill="#141B25"/>
<path d="M130.33 340.911C130.474 341.567 130.288 342.146 129.916 342.205C129.544 342.263 129.125 341.778 128.982 341.122C128.838 340.466 129.023 339.886 129.395 339.828C129.768 339.77 130.186 340.255 130.33 340.911Z" fill="#141B25"/>
<path d="M134.465 340.173C134.226 340.802 133.741 341.224 133.381 341.114C133.021 341.004 132.922 340.405 133.161 339.776C133.399 339.147 133.885 338.726 134.245 338.835C134.605 338.945 134.703 339.544 134.465 340.173Z" fill="#141B25"/>
<path d="M137.424 335.453C137.21 336.09 136.742 336.526 136.378 336.427C136.014 336.328 135.892 335.732 136.106 335.096C136.319 334.459 136.788 334.023 137.152 334.122C137.515 334.221 137.637 334.817 137.424 335.453Z" fill="#141B25"/>
<path d="M133.349 334.086C133.136 334.723 132.668 335.158 132.304 335.06C131.94 334.961 131.818 334.365 132.032 333.729C132.245 333.092 132.713 332.656 133.077 332.755C133.441 332.854 133.563 333.45 133.349 334.086Z" fill="#141B25"/>
<path d="M131.879 337.471C131.884 338.137 131.581 338.675 131.201 338.672C130.822 338.669 130.51 338.127 130.505 337.46C130.5 336.794 130.803 336.256 131.182 336.259C131.562 336.262 131.873 336.804 131.879 337.471Z" fill="#141B25"/>
<path d="M133.174 330.5C132.21 324.425 134.592 324.373 137.431 321.311" stroke="#3D8E53" stroke-width="1.86361"/>
<path d="M49.4794 379.122C47.8453 385.485 56.2887 400.005 59.3202 402.627C62.1326 404.04 73.5186 409.164 79.961 408.809C88.0133 408.365 88.4463 400.499 87.6532 397.406C89.5362 396.257 93.2527 392.915 93.0542 388.744C92.8556 384.573 88.2475 382.735 85.0262 382.912C87.4007 381.91 91.2568 373.735 83.8728 368.861C74.3698 362.589 73.1437 367.361 68.9688 371.251C65.7719 365.154 60.7121 364.218 59.4644 364.98C55.6984 367.278 57.8299 371.343 56.6032 376.115C53.2464 376.823 50.513 375.097 49.4794 379.122Z" fill="#3D8E53"/>
<path d="M59.3202 402.626L50.3296 424.756C57.0655 426.904 69.4313 434.327 65.0076 446.834C60.5839 459.342 68.6852 459.492 73.2887 458.004C75.8223 455.398 78.7481 450.187 70.1828 450.186C68.8029 450.558 66.4572 451.972 68.1135 454.653M59.3202 402.626C56.2887 400.005 47.8453 385.485 49.4794 379.122C50.513 375.097 53.2464 376.823 56.6032 376.115C57.8299 371.343 55.6984 367.278 59.4644 364.98C60.7121 364.218 65.7719 365.154 68.9688 371.251C73.1437 367.361 74.3698 362.589 83.8728 368.861C91.2568 373.735 87.4007 381.91 85.0262 382.912C88.2475 382.735 92.8556 384.573 93.0542 388.744C93.2527 392.915 89.5362 396.257 87.6532 397.406C88.4463 400.499 88.0133 408.365 79.961 408.809C73.5186 409.164 62.1326 404.04 59.3202 402.626Z" stroke="#3D8E53" stroke-width="3.72722"/>
<path d="M70.3592 411.742C67.8416 413.795 66.9395 422.391 67.3764 424.427C68.0807 425.903 71.1073 431.636 73.7749 433.562C77.1091 435.969 79.59 432.921 80.1821 431.413C81.2687 431.552 83.7282 431.392 84.8734 429.638C86.0187 427.884 84.7245 425.659 83.3906 424.696C84.6295 425.053 88.5631 422.979 87.0556 418.632C85.1154 413.038 83.2267 414.578 80.4241 414.813C80.9415 411.315 77.8808 411.834 77.1609 411.742C74.9878 411.463 75.9649 411.272 74.0761 412.812C72.5327 412.02 71.9517 410.443 70.3592 411.742Z" fill="#3D8E53"/>
<path d="M67.3764 424.427C66.9395 422.391 67.8416 413.795 70.3592 411.742C71.9517 410.443 72.5327 412.02 74.0761 412.812C75.9649 411.272 74.9878 411.463 77.1609 411.742C77.8808 411.834 80.9415 411.315 80.4241 414.813C83.2267 414.578 85.1154 413.038 87.0556 418.632C88.5631 422.979 84.6295 425.053 83.3906 424.696C84.7245 425.659 86.0187 427.884 84.8734 429.638C83.7282 431.392 81.2687 431.552 80.1821 431.413C79.59 432.921 77.1091 435.969 73.7749 433.562C71.1073 431.636 68.0807 425.903 67.3764 424.427ZM67.3764 424.427C65.2865 423.992 56.3924 423.04 50.3074 424.782" stroke="#3D8E53" stroke-width="3.72722"/>
<path d="M61.3207 399.739L63.441 372.963M61.3207 399.739L79.0032 374.193M61.3207 399.739L84.0251 389.402M61.3207 399.739L79.8318 401.852M61.3207 399.739L56.8114 386.397" stroke="#89E159" stroke-width="1.86361"/>
<path d="M44.3806 385.708C47.1403 389.808 44.185 401.894 42.5057 404.413C40.7048 406.036 33.2714 412.185 28.2894 413.38C22.0624 414.875 19.8572 409.451 19.7225 407.102C18.0169 406.717 14.3948 405.205 13.5509 402.233C12.707 399.261 15.7717 396.937 18.2628 396.34C16.2187 396.169 11.3377 391.295 15.7884 386.219C21.5164 379.685 23.5867 382.76 27.688 384.554C28.664 379.557 32.2873 377.766 33.4173 378.021C36.8284 378.79 36.1775 382.121 38.2482 385.196C40.9689 384.94 42.635 383.115 44.3806 385.708Z" fill="#3D8E53"/>
<path d="M50.4325 425.544L42.5057 404.413M42.5057 404.413C44.185 401.894 47.1403 389.808 44.3806 385.708C42.635 383.115 40.9689 384.94 38.2482 385.196C36.1775 382.121 36.8284 378.79 33.4173 378.021C32.2873 377.766 28.664 379.557 27.688 384.554C23.5867 382.76 21.5164 379.685 15.7884 386.219C11.3377 391.295 16.2187 396.169 18.2628 396.34C15.7717 396.937 12.707 399.261 13.5509 402.233C14.3948 405.205 18.0169 406.717 19.7225 407.102C19.8572 409.451 22.0624 414.875 28.2894 413.38C33.2714 412.185 40.7048 406.036 42.5057 404.413Z" stroke="#3D8E53" stroke-width="3.72722"/>
<path d="M40.1089 403L32.1135 384.679M40.1089 403L20.5785 389.034M40.1089 403L20.3874 400.836M40.1089 403L26.543 408.636M40.1089 403L40.3554 392.622" stroke="#89E159" stroke-width="1.86361"/>
<path d="M42.3776 425.047C40.8817 429.476 34.8851 432.135 32.6347 431.251C30.3844 430.366 27.3795 424.167 28.8754 419.738C30.745 414.202 33.7679 415.391 37.4964 416.857C41.2249 418.323 44.2026 419.644 42.3776 425.047Z" fill="#F68561"/>
<path d="M35.6797 412.324C37.5294 413.318 37.9582 415.442 37.9529 416.817C38.6524 415.822 42.3039 416.941 43.2399 418.303C42.913 418.973 40.1473 418.791 37.8989 417.583C36.0077 417.582 35.6504 414 35.6797 412.324Z" fill="#3D8E53"/>
<path d="M31.9369 422.193C31.7643 422.817 31.3684 423.237 31.0525 423.132C30.7367 423.026 30.6205 422.435 30.793 421.811C30.9656 421.187 31.3615 420.767 31.6774 420.872C31.9932 420.978 32.1094 421.569 31.9369 422.193Z" fill="#141B25"/>
<path d="M34.332 419.451C34.1527 420.073 33.7521 420.488 33.4372 420.38C33.1222 420.271 33.0123 419.679 33.1915 419.057C33.3708 418.436 33.7714 418.02 34.0863 418.128C34.4013 418.237 34.5112 418.829 34.332 419.451Z" fill="#141B25"/>
<path d="M33.2328 426.439C33.1674 427.089 32.8503 427.574 32.5245 427.522C32.1988 427.469 31.9876 426.9 32.053 426.25C32.1184 425.599 32.4355 425.115 32.7613 425.167C33.0871 425.219 33.2982 425.788 33.2328 426.439Z" fill="#141B25"/>
<path d="M36.8795 426.927C36.504 427.443 35.9821 427.696 35.7138 427.492C35.4456 427.287 35.5325 426.703 35.908 426.187C36.2835 425.67 36.8054 425.418 37.0736 425.622C37.3419 425.827 37.255 426.411 36.8795 426.927Z" fill="#141B25"/>
<path d="M40.6676 423.39C40.3108 423.92 39.799 424.191 39.5244 423.996C39.2498 423.8 39.3165 423.212 39.6733 422.682C40.0301 422.152 40.5419 421.881 40.8165 422.076C41.091 422.272 41.0244 422.86 40.6676 423.39Z" fill="#141B25"/>
<path d="M37.6637 420.954C37.3069 421.485 36.795 421.756 36.5205 421.56C36.2459 421.365 36.3126 420.777 36.6694 420.247C37.0262 419.717 37.538 419.446 37.8126 419.641C38.0871 419.836 38.0205 420.424 37.6637 420.954Z" fill="#141B25"/>
<path d="M35.4895 423.686C35.3062 424.306 34.9028 424.719 34.5884 424.609C34.2741 424.498 34.1679 423.905 34.3512 423.285C34.5345 422.665 34.9379 422.252 35.2523 422.363C35.5666 422.473 35.6728 423.066 35.4895 423.686Z" fill="#141B25"/>
<path d="M37.3848 416.668C45.7544 415.657 47.9664 419.679 50.0136 423.314" stroke="#3D8E53" stroke-width="1.86361"/>
<path d="M53.8379 438.487C53.6721 443.308 48.0152 447.909 45.2697 447.799C42.5243 447.689 37.1992 442.648 37.3651 437.827C37.572 431.801 41.26 431.949 45.8088 432.131C50.3577 432.313 54.0403 432.606 53.8379 438.487Z" fill="#F68561"/>
<path d="M42.7213 429.387C44.9463 429.719 46.1048 431.324 46.5981 432.585C46.3016 431.33 46.1157 429.429 47.6736 428.952C47.8569 429.529 48.4006 431.241 47.9951 432.429C49.1384 431.663 50.8313 431.131 52.0198 431.951C51.885 432.714 49.7155 433.957 46.8653 433.531C44.8035 434.163 43.2435 431.031 42.7213 429.387Z" fill="#3D8E53"/>
<path d="M41.5149 439.198C41.5332 439.864 41.2406 440.407 40.8615 440.41C40.4823 440.413 40.1602 439.875 40.1419 439.208C40.1237 438.542 40.4162 438 40.7954 437.997C41.1745 437.994 41.4967 438.532 41.5149 439.198Z" fill="#141B25"/>
<path d="M43.2188 435.727C43.229 436.393 42.9298 436.933 42.5506 436.932C42.1714 436.931 41.8558 436.391 41.8456 435.724C41.8354 435.058 42.1346 434.518 42.5138 434.519C42.893 434.519 43.2086 435.06 43.2188 435.727Z" fill="#141B25"/>
<path d="M44.33 442.911C44.4738 443.567 44.2885 444.146 43.9161 444.205C43.5437 444.263 43.1253 443.778 42.9815 443.122C42.8377 442.466 43.0231 441.886 43.3954 441.828C43.7678 441.77 44.1862 442.255 44.33 442.911Z" fill="#141B25"/>
<path d="M48.4645 442.173C48.2259 442.802 47.7407 443.224 47.3807 443.114C47.0207 443.004 46.9223 442.405 47.1608 441.776C47.3994 441.147 47.8846 440.726 48.2446 440.835C48.6046 440.945 48.7031 441.544 48.4645 442.173Z" fill="#141B25"/>
<path d="M51.4236 437.453C51.21 438.09 50.7418 438.526 50.3779 438.427C50.014 438.328 49.8922 437.732 50.1059 437.096C50.3195 436.459 50.7877 436.023 51.1516 436.122C51.5155 436.221 51.6373 436.817 51.4236 437.453Z" fill="#141B25"/>
<path d="M47.3494 436.086C47.1358 436.723 46.6676 437.158 46.3037 437.06C45.9398 436.961 45.818 436.365 46.0316 435.729C46.2453 435.092 46.7135 434.656 47.0773 434.755C47.4412 434.854 47.5631 435.45 47.3494 436.086Z" fill="#141B25"/>
<path d="M45.8785 439.471C45.8838 440.137 45.5807 440.675 45.2015 440.672C44.8222 440.669 44.5105 440.127 44.5052 439.46C44.4999 438.794 44.803 438.256 45.1823 438.259C45.5615 438.262 45.8732 438.804 45.8785 439.471Z" fill="#141B25"/>
<path d="M47.1737 432.5C46.2096 426.425 48.5922 426.373 51.4313 423.311" stroke="#3D8E53" stroke-width="1.86361"/>
<path d="M135.479 481.122C133.845 487.485 142.289 502.005 145.32 504.627C148.133 506.04 159.519 511.164 165.961 510.809C174.013 510.365 174.446 502.499 173.653 499.406C175.536 498.257 179.253 494.915 179.054 490.744C178.856 486.573 174.247 484.735 171.026 484.912C173.401 483.91 177.257 475.735 169.873 470.861C160.37 464.589 159.144 469.361 154.969 473.251C151.772 467.154 146.712 466.218 145.464 466.98C141.698 469.278 143.83 473.343 142.603 478.115C139.246 478.823 136.513 477.097 135.479 481.122Z" fill="#3D8E53"/>
<path d="M145.32 504.626L136.33 526.756C143.065 528.904 155.431 536.327 151.008 548.834C146.584 561.342 154.685 561.492 159.289 560.004C161.822 557.398 164.748 552.187 156.183 552.186C154.803 552.558 152.457 553.972 154.114 556.653M145.32 504.626C142.289 502.005 133.845 487.485 135.479 481.122C136.513 477.097 139.246 478.823 142.603 478.115C143.83 473.343 141.698 469.278 145.464 466.98C146.712 466.218 151.772 467.154 154.969 473.251C159.144 469.361 160.37 464.589 169.873 470.861C177.257 475.735 173.401 483.91 171.026 484.912C174.247 484.735 178.856 486.573 179.054 490.744C179.253 494.915 175.536 498.257 173.653 499.406C174.446 502.499 174.013 510.365 165.961 510.809C159.519 511.164 148.133 506.04 145.32 504.626Z" stroke="#3D8E53" stroke-width="3.72722"/>
<path d="M156.359 513.742C153.842 515.795 152.939 524.391 153.376 526.427C154.081 527.903 157.107 533.636 159.775 535.562C163.109 537.969 165.59 534.921 166.182 533.413C167.269 533.552 169.728 533.392 170.873 531.638C172.019 529.884 170.724 527.659 169.391 526.696C170.63 527.053 174.563 524.979 173.056 520.632C171.115 515.038 169.227 516.578 166.424 516.813C166.941 513.315 163.881 513.834 163.161 513.742C160.988 513.463 161.965 513.272 160.076 514.812C158.533 514.02 157.952 512.443 156.359 513.742Z" fill="#3D8E53"/>
<path d="M153.376 526.427C152.939 524.391 153.842 515.795 156.359 513.742C157.952 512.443 158.533 514.02 160.076 514.812C161.965 513.272 160.988 513.463 163.161 513.742C163.881 513.834 166.941 513.315 166.424 516.813C169.227 516.578 171.115 515.038 173.056 520.632C174.563 524.979 170.63 527.053 169.391 526.696C170.724 527.659 172.019 529.884 170.873 531.638C169.728 533.392 167.269 533.552 166.182 533.413C165.59 534.921 163.109 537.969 159.775 535.562C157.107 533.636 154.081 527.903 153.376 526.427ZM153.376 526.427C151.286 525.992 142.392 525.04 136.307 526.782" stroke="#3D8E53" stroke-width="3.72722"/>
<path d="M147.321 501.739L149.441 474.963M147.321 501.739L165.003 476.193M147.321 501.739L170.025 491.402M147.321 501.739L165.832 503.852M147.321 501.739L142.811 488.397" stroke="#89E159" stroke-width="1.86361"/>
<path d="M130.381 487.708C133.14 491.808 130.185 503.894 128.506 506.413C126.705 508.036 119.271 514.185 114.289 515.38C108.062 516.875 105.857 511.451 105.722 509.102C104.017 508.717 100.395 507.205 99.5509 504.233C98.707 501.261 101.772 498.937 104.263 498.34C102.219 498.169 97.3377 493.295 101.788 488.219C107.516 481.685 109.587 484.76 113.688 486.554C114.664 481.557 118.287 479.766 119.417 480.021C122.828 480.79 122.177 484.121 124.248 487.196C126.969 486.94 128.635 485.115 130.381 487.708Z" fill="#3D8E53"/>
<path d="M136.432 527.544L128.506 506.413M128.506 506.413C130.185 503.894 133.14 491.808 130.381 487.708C128.635 485.115 126.969 486.94 124.248 487.196C122.177 484.121 122.828 480.79 119.417 480.021C118.287 479.766 114.664 481.557 113.688 486.554C109.587 484.76 107.516 481.685 101.788 488.219C97.3377 493.295 102.219 498.169 104.263 498.34C101.772 498.937 98.707 501.261 99.5509 504.233C100.395 507.205 104.017 508.717 105.722 509.102C105.857 511.451 108.062 516.875 114.289 515.38C119.271 514.185 126.705 508.036 128.506 506.413Z" stroke="#3D8E53" stroke-width="3.72722"/>
<path d="M126.109 505L118.113 486.679M126.109 505L106.579 491.034M126.109 505L106.387 502.836M126.109 505L112.543 510.636M126.109 505L126.355 494.622" stroke="#89E159" stroke-width="1.86361"/>
<path d="M128.378 527.047C126.882 531.476 120.885 534.135 118.635 533.251C116.384 532.366 113.38 526.167 114.875 521.738C116.745 516.202 119.768 517.391 123.496 518.857C127.225 520.323 130.203 521.644 128.378 527.047Z" fill="#F68561"/>
<path d="M121.68 514.324C123.529 515.318 123.958 517.442 123.953 518.817C124.652 517.822 128.304 518.941 129.24 520.303C128.913 520.973 126.147 520.791 123.899 519.583C122.008 519.582 121.65 516 121.68 514.324Z" fill="#3D8E53"/>
<path d="M117.937 524.193C117.764 524.817 117.368 525.237 117.053 525.132C116.737 525.026 116.62 524.435 116.793 523.811C116.966 523.187 117.362 522.767 117.677 522.872C117.993 522.978 118.109 523.569 117.937 524.193Z" fill="#141B25"/>
<path d="M120.332 521.451C120.153 522.073 119.752 522.488 119.437 522.38C119.122 522.271 119.012 521.679 119.192 521.057C119.371 520.436 119.771 520.02 120.086 520.128C120.401 520.237 120.511 520.829 120.332 521.451Z" fill="#141B25"/>
<path d="M119.233 528.439C119.167 529.089 118.85 529.574 118.525 529.522C118.199 529.469 117.988 528.9 118.053 528.25C118.118 527.599 118.435 527.115 118.761 527.167C119.087 527.219 119.298 527.788 119.233 528.439Z" fill="#141B25"/>
<path d="M122.879 528.927C122.504 529.443 121.982 529.696 121.714 529.492C121.446 529.287 121.532 528.703 121.908 528.187C122.283 527.67 122.805 527.418 123.074 527.622C123.342 527.827 123.255 528.411 122.879 528.927Z" fill="#141B25"/>
<path d="M126.668 525.39C126.311 525.92 125.799 526.191 125.524 525.996C125.25 525.8 125.316 525.212 125.673 524.682C126.03 524.152 126.542 523.881 126.816 524.076C127.091 524.272 127.024 524.86 126.668 525.39Z" fill="#141B25"/>
<path d="M123.664 522.954C123.307 523.485 122.795 523.756 122.52 523.56C122.246 523.365 122.313 522.777 122.669 522.247C123.026 521.717 123.538 521.446 123.813 521.641C124.087 521.836 124.02 522.424 123.664 522.954Z" fill="#141B25"/>
<path d="M121.49 525.686C121.306 526.306 120.903 526.719 120.588 526.609C120.274 526.498 120.168 525.905 120.351 525.285C120.535 524.665 120.938 524.252 121.252 524.363C121.567 524.473 121.673 525.066 121.49 525.686Z" fill="#141B25"/>
<path d="M123.385 518.668C131.754 517.657 133.966 521.679 136.014 525.314" stroke="#3D8E53" stroke-width="1.86361"/>
<path d="M139.838 540.487C139.672 545.308 134.015 549.909 131.27 549.799C128.524 549.689 123.199 544.648 123.365 539.827C123.572 533.801 127.26 533.949 131.809 534.131C136.358 534.313 140.04 534.606 139.838 540.487Z" fill="#F68561"/>
<path d="M128.721 531.387C130.946 531.719 132.105 533.324 132.598 534.585C132.302 533.33 132.116 531.429 133.674 530.952C133.857 531.529 134.401 533.241 133.995 534.429C135.138 533.663 136.831 533.131 138.02 533.951C137.885 534.714 135.715 535.957 132.865 535.531C130.804 536.163 129.244 533.031 128.721 531.387Z" fill="#3D8E53"/>
<path d="M127.515 541.198C127.533 541.864 127.241 542.407 126.861 542.41C126.482 542.413 126.16 541.875 126.142 541.208C126.124 540.542 126.416 540 126.795 539.997C127.175 539.994 127.497 540.532 127.515 541.198Z" fill="#141B25"/>
<path d="M129.219 537.727C129.229 538.393 128.93 538.933 128.551 538.932C128.171 538.931 127.856 538.391 127.846 537.724C127.835 537.058 128.135 536.518 128.514 536.519C128.893 536.519 129.209 537.06 129.219 537.727Z" fill="#141B25"/>
<path d="M130.33 544.911C130.474 545.567 130.288 546.146 129.916 546.205C129.544 546.263 129.125 545.778 128.982 545.122C128.838 544.466 129.023 543.886 129.395 543.828C129.768 543.77 130.186 544.255 130.33 544.911Z" fill="#141B25"/>
<path d="M134.465 544.173C134.226 544.802 133.741 545.224 133.381 545.114C133.021 545.004 132.922 544.405 133.161 543.776C133.399 543.147 133.885 542.726 134.245 542.835C134.605 542.945 134.703 543.544 134.465 544.173Z" fill="#141B25"/>
<path d="M137.424 539.453C137.21 540.09 136.742 540.526 136.378 540.427C136.014 540.328 135.892 539.732 136.106 539.096C136.319 538.459 136.788 538.023 137.152 538.122C137.515 538.221 137.637 538.817 137.424 539.453Z" fill="#141B25"/>
<path d="M133.349 538.086C133.136 538.723 132.668 539.158 132.304 539.06C131.94 538.961 131.818 538.365 132.032 537.729C132.245 537.092 132.713 536.656 133.077 536.755C133.441 536.854 133.563 537.45 133.349 538.086Z" fill="#141B25"/>
<path d="M131.879 541.471C131.884 542.137 131.581 542.675 131.201 542.672C130.822 542.669 130.51 542.127 130.505 541.46C130.5 540.794 130.803 540.256 131.182 540.259C131.562 540.262 131.873 540.804 131.879 541.471Z" fill="#141B25"/>
<path d="M133.174 534.5C132.21 528.425 134.592 528.373 137.431 525.311" stroke="#3D8E53" stroke-width="1.86361"/>
</svg>
