<svg width="72" height="63" viewBox="0 0 72 63" fill="none" xmlns="http://www.w3.org/2000/svg">
<g clip-path="url(#clip0_776_96029)">
<path d="M51.637 10.0589C46.5509 7.07463 38.3203 1.53752 26.7916 8.69972C25.0963 6.42601 20.358 4.61211 15.95 7.34056C10.44 10.7511 7.25553 14.7498 5.56014 17.3077C3.86475 19.8657 -9.98831 47.6637 14.5948 54.9112C34.2613 60.7091 49.2055 57.2735 53.444 54.0051C59.0953 51.0208 66.996 46.0478 66.996 35.4299C66.996 24.8119 61.3856 8.3536 51.637 10.0589Z" fill="#F68561"/>
<path d="M51.637 10.0589C46.5509 7.07463 38.3203 1.53752 26.7916 8.69972C25.0963 6.42601 20.358 4.61211 15.95 7.34056C10.44 10.7511 7.25553 14.7498 5.56014 17.3077C3.86475 19.8657 -9.98831 47.6637 14.5948 54.9112C34.2613 60.7091 49.2055 57.2735 53.444 54.0051C59.0953 51.0208 66.996 46.0478 66.996 35.4299C66.996 24.8119 61.3856 8.3536 51.637 10.0589Z" stroke="#F68561" stroke-width="0.814902"/>
<path d="M32.0102 11.3901C31.3965 15.7982 32.9923 15.8639 34.5001 15.8167C38.086 15.0765 37.9659 13.3293 37.2947 11.6798L35.0522 5.47613L33.1212 0.22217C32.8315 1.94397 32.6473 6.81413 32.0102 11.3901Z" fill="url(#paint0_linear_776_96029)" stroke="url(#paint1_linear_776_96029)" stroke-width="0.814902"/>
<path d="M30.8409 13.5041C32.6855 15.9888 33.4541 16.7745 34.8004 16.1181C37.7476 13.9753 36.97 12.4314 35.6933 11.1754L31.1182 6.39469L27.2142 2.35885C27.65 4.07222 28.0752 9.77872 30.8409 13.5041Z" fill="#1E4E4E" stroke="#1E4E4E" stroke-width="0.814902"/>
<path d="M34.1237 15.378C31.2154 13.3677 34.2489 6.66761 48.0237 2.02832C45.5743 7.59546 36.1127 17.0791 34.1237 15.378Z" fill="url(#paint2_linear_776_96029)" stroke="url(#paint3_linear_776_96029)" stroke-width="0.814902"/>
<path d="M29.4577 9.34586C33.5838 8.75991 35.0306 12.9747 34.7886 14.8505C30.4038 16.3004 32.3448 14.4533 30.1862 13.3639C28.0226 12.272 26.969 14.4059 26.7288 15.414L25.1873 19.1387L24.5836 16.9204L24.49 15.5706C24.5768 14.1394 25.3315 9.9318 29.4577 9.34586Z" fill="#1F2431"/>
<path d="M29.4577 9.34586C33.5838 8.75991 35.0306 12.9747 34.7886 14.8505C30.4038 16.3004 32.3448 14.4533 30.1862 13.3639C28.0226 12.272 26.969 14.4059 26.7288 15.414L25.1873 19.1387L24.5836 16.9204L24.49 15.5706C24.5768 14.1394 25.3315 9.9318 29.4577 9.34586Z" fill="url(#paint4_linear_776_96029)"/>
<path d="M29.4577 9.34586C33.5838 8.75991 35.0306 12.9747 34.7886 14.8505C30.4038 16.3004 32.3448 14.4533 30.1862 13.3639C28.0226 12.272 26.969 14.4059 26.7288 15.414L25.1873 19.1387L24.5836 16.9204L24.49 15.5706C24.5768 14.1394 25.3315 9.9318 29.4577 9.34586Z" stroke="#1F2431" stroke-width="0.814902"/>
<path d="M29.4577 9.34586C33.5838 8.75991 35.0306 12.9747 34.7886 14.8505C30.4038 16.3004 32.3448 14.4533 30.1862 13.3639C28.0226 12.272 26.969 14.4059 26.7288 15.414L25.1873 19.1387L24.5836 16.9204L24.49 15.5706C24.5768 14.1394 25.3315 9.9318 29.4577 9.34586Z" stroke="url(#paint5_linear_776_96029)" stroke-width="0.814902"/>
<path d="M38.5641 9.72008C34.6583 9.43767 33.2728 13.815 33.6216 15.5801C35.8008 16.1575 38.5199 14.4299 37.6656 12.8754C36.8119 11.3222 41.8684 13.2864 42.1591 14.2278L43.0579 16.0308L43.5071 13.777L43.507 12.4247C43.3326 11.0715 42.4698 10.0025 38.5641 9.72008Z" fill="#1F2431"/>
<path d="M38.5641 9.72008C34.6583 9.43767 33.2728 13.815 33.6216 15.5801C35.8008 16.1575 38.5199 14.4299 37.6656 12.8754C36.8119 11.3222 41.8684 13.2864 42.1591 14.2278L43.0579 16.0308L43.5071 13.777L43.507 12.4247C43.3326 11.0715 42.4698 10.0025 38.5641 9.72008Z" fill="url(#paint6_linear_776_96029)"/>
<path d="M38.5641 9.72008C34.6583 9.43767 33.2728 13.815 33.6216 15.5801C35.8008 16.1575 38.5199 14.4299 37.6656 12.8754C36.8119 11.3222 41.8684 13.2864 42.1591 14.2278L43.0579 16.0308L43.5071 13.777L43.507 12.4247C43.3326 11.0715 42.4698 10.0025 38.5641 9.72008Z" stroke="#1F2431" stroke-width="0.814902"/>
<path d="M38.5641 9.72008C34.6583 9.43767 33.2728 13.815 33.6216 15.5801C35.8008 16.1575 38.5199 14.4299 37.6656 12.8754C36.8119 11.3222 41.8684 13.2864 42.1591 14.2278L43.0579 16.0308L43.5071 13.777L43.507 12.4247C43.3326 11.0715 42.4698 10.0025 38.5641 9.72008Z" stroke="url(#paint7_linear_776_96029)" stroke-width="0.814902"/>
<path d="M11.0097 27.6749C9.77703 33.4696 8.12231 36.981 6.32067 36.5981C4.51904 36.2151 3.84902 32.1381 5.08172 26.3434C6.31443 20.5486 10.4458 15.1477 13.072 16.9497C15.6983 18.7517 12.2424 21.8801 11.0097 27.6749Z" fill="#D9D9D9"/>
<path d="M55.9864 40.1258C60.451 36.3825 61.948 24.8252 63.2118 26.3313C64.8503 28.284 68.1549 34.1421 60.7282 45.0767C50.0004 60.0805 24.0022 55.4968 21.7139 52.7697C19.4256 50.0426 41.9055 54.173 55.9864 40.1258Z" fill="#8990A5"/>
</g>
<defs>
<linearGradient id="paint0_linear_776_96029" x1="33.6917" y1="0.302356" x2="39.5427" y2="1.32173" gradientUnits="userSpaceOnUse">
<stop stop-color="#89E159"/>
<stop offset="1" stop-color="#B9F598"/>
</linearGradient>
<linearGradient id="paint1_linear_776_96029" x1="33.6917" y1="0.302356" x2="39.5427" y2="1.32173" gradientUnits="userSpaceOnUse">
<stop stop-color="#89E159"/>
<stop offset="1" stop-color="#B9F598"/>
</linearGradient>
<linearGradient id="paint2_linear_776_96029" x1="34.4841" y1="2.02832" x2="48.3751" y2="3.29671" gradientUnits="userSpaceOnUse">
<stop stop-color="#89E159"/>
<stop offset="1" stop-color="#B9F598"/>
</linearGradient>
<linearGradient id="paint3_linear_776_96029" x1="34.4841" y1="2.02832" x2="48.3751" y2="3.29671" gradientUnits="userSpaceOnUse">
<stop stop-color="#89E159"/>
<stop offset="1" stop-color="#B9F598"/>
</linearGradient>
<linearGradient id="paint4_linear_776_96029" x1="32.4065" y1="18.6339" x2="25.2991" y2="14.4871" gradientUnits="userSpaceOnUse">
<stop stop-color="#1E4E4E"/>
<stop offset="1" stop-color="#1F2431"/>
</linearGradient>
<linearGradient id="paint5_linear_776_96029" x1="32.4065" y1="18.6339" x2="25.2991" y2="14.4871" gradientUnits="userSpaceOnUse">
<stop stop-color="#1E4E4E"/>
<stop offset="1" stop-color="#1F2431"/>
</linearGradient>
<linearGradient id="paint6_linear_776_96029" x1="36.1558" y1="16.0308" x2="41.0306" y2="11.2705" gradientUnits="userSpaceOnUse">
<stop stop-color="#1E4E4E"/>
<stop offset="1" stop-color="#1F2431"/>
</linearGradient>
<linearGradient id="paint7_linear_776_96029" x1="36.1558" y1="16.0308" x2="41.0306" y2="11.2705" gradientUnits="userSpaceOnUse">
<stop stop-color="#1E4E4E"/>
<stop offset="1" stop-color="#1F2431"/>
</linearGradient>
<clipPath id="clip0_776_96029">
<rect width="71.7113" height="61.9325" fill="white" transform="translate(0.144531 0.22168)"/>
</clipPath>
</defs>
</svg>
