<svg width="72" height="63" viewBox="0 0 72 63" fill="none" xmlns="http://www.w3.org/2000/svg">
<g clip-path="url(#clip0_776_95540)">
<path d="M51.6372 10.0589C46.551 7.07464 38.3204 1.53751 26.7917 8.69973C25.0963 6.42601 20.3581 4.6121 15.9501 7.34057C10.44 10.7511 7.25555 14.7498 5.56015 17.3078C3.86476 19.8657 -9.98834 47.6638 14.5949 54.9113C34.2614 60.7093 49.2057 57.2737 53.4441 54.0052C59.0955 51.0209 66.9962 46.0479 66.9962 35.43C66.9962 24.812 61.3858 8.35361 51.6372 10.0589Z" fill="url(#paint0_linear_776_95540)" stroke="#89E159" stroke-width="0.814902"/>
<path d="M32.0112 11.3901C31.3974 15.7982 32.9933 15.864 34.5011 15.8167C38.087 15.0765 37.9668 13.3293 37.2957 11.6798L35.0532 5.47615L33.1221 0.22217C32.8324 1.94397 32.6483 6.81415 32.0112 11.3901Z" fill="#1F2431"/>
<path d="M32.0112 11.3901C31.3974 15.7982 32.9933 15.864 34.5011 15.8167C38.087 15.0765 37.9668 13.3293 37.2957 11.6798L35.0532 5.47615L33.1221 0.22217C32.8324 1.94397 32.6483 6.81415 32.0112 11.3901Z" fill="url(#paint1_linear_776_95540)"/>
<path d="M32.0112 11.3901C31.3974 15.7982 32.9933 15.864 34.5011 15.8167C38.087 15.0765 37.9668 13.3293 37.2957 11.6798L35.0532 5.47615L33.1221 0.22217C32.8324 1.94397 32.6483 6.81415 32.0112 11.3901Z" stroke="#1F2431" stroke-width="0.814902"/>
<path d="M32.0112 11.3901C31.3974 15.7982 32.9933 15.864 34.5011 15.8167C38.087 15.0765 37.9668 13.3293 37.2957 11.6798L35.0532 5.47615L33.1221 0.22217C32.8324 1.94397 32.6483 6.81415 32.0112 11.3901Z" stroke="url(#paint2_linear_776_95540)" stroke-width="0.814902"/>
<path d="M30.8419 13.5042C32.6865 15.9888 33.4551 16.7745 34.8014 16.1181C37.7486 13.9753 36.971 12.4314 35.6943 11.1754L31.1192 6.3947L27.2152 2.35885C27.651 4.07223 28.0761 9.77874 30.8419 13.5042Z" fill="#1E4E4E" stroke="#1E4E4E" stroke-width="0.814902"/>
<path d="M34.1247 15.3781C31.2164 13.3677 34.2499 6.66762 48.0248 2.02832C45.5754 7.59548 36.1137 17.0792 34.1247 15.3781Z" fill="#1E4E4E" stroke="#1E4E4E" stroke-width="0.814902"/>
<path d="M29.4587 9.34586C33.5848 8.75991 35.0316 12.9747 34.7896 14.8505C30.4048 16.3005 32.3458 14.4533 30.1872 13.3639C28.0236 12.272 26.97 14.4059 26.7298 15.4141L25.1883 19.1387L24.5846 16.9204L24.491 15.5706C24.5778 14.1394 25.3325 9.93181 29.4587 9.34586Z" fill="#1F2431"/>
<path d="M29.4587 9.34586C33.5848 8.75991 35.0316 12.9747 34.7896 14.8505C30.4048 16.3005 32.3458 14.4533 30.1872 13.3639C28.0236 12.272 26.97 14.4059 26.7298 15.4141L25.1883 19.1387L24.5846 16.9204L24.491 15.5706C24.5778 14.1394 25.3325 9.93181 29.4587 9.34586Z" fill="url(#paint3_linear_776_95540)"/>
<path d="M29.4587 9.34586C33.5848 8.75991 35.0316 12.9747 34.7896 14.8505C30.4048 16.3005 32.3458 14.4533 30.1872 13.3639C28.0236 12.272 26.97 14.4059 26.7298 15.4141L25.1883 19.1387L24.5846 16.9204L24.491 15.5706C24.5778 14.1394 25.3325 9.93181 29.4587 9.34586Z" stroke="#1F2431" stroke-width="0.814902"/>
<path d="M29.4587 9.34586C33.5848 8.75991 35.0316 12.9747 34.7896 14.8505C30.4048 16.3005 32.3458 14.4533 30.1872 13.3639C28.0236 12.272 26.97 14.4059 26.7298 15.4141L25.1883 19.1387L24.5846 16.9204L24.491 15.5706C24.5778 14.1394 25.3325 9.93181 29.4587 9.34586Z" stroke="url(#paint4_linear_776_95540)" stroke-width="0.814902"/>
<path d="M38.564 9.72008C34.6583 9.43767 33.2728 13.815 33.6216 15.5801C35.8008 16.1575 38.5199 14.4299 37.6656 12.8755C36.8119 11.3222 41.8684 13.2864 42.1591 14.2278L43.0579 16.0308L43.5071 13.777L43.507 12.4247C43.3326 11.0715 42.4698 10.0025 38.564 9.72008Z" fill="#1F2431"/>
<path d="M38.564 9.72008C34.6583 9.43767 33.2728 13.815 33.6216 15.5801C35.8008 16.1575 38.5199 14.4299 37.6656 12.8755C36.8119 11.3222 41.8684 13.2864 42.1591 14.2278L43.0579 16.0308L43.5071 13.777L43.507 12.4247C43.3326 11.0715 42.4698 10.0025 38.564 9.72008Z" fill="url(#paint5_linear_776_95540)"/>
<path d="M38.564 9.72008C34.6583 9.43767 33.2728 13.815 33.6216 15.5801C35.8008 16.1575 38.5199 14.4299 37.6656 12.8755C36.8119 11.3222 41.8684 13.2864 42.1591 14.2278L43.0579 16.0308L43.5071 13.777L43.507 12.4247C43.3326 11.0715 42.4698 10.0025 38.564 9.72008Z" stroke="#1F2431" stroke-width="0.814902"/>
<path d="M38.564 9.72008C34.6583 9.43767 33.2728 13.815 33.6216 15.5801C35.8008 16.1575 38.5199 14.4299 37.6656 12.8755C36.8119 11.3222 41.8684 13.2864 42.1591 14.2278L43.0579 16.0308L43.5071 13.777L43.507 12.4247C43.3326 11.0715 42.4698 10.0025 38.564 9.72008Z" stroke="url(#paint6_linear_776_95540)" stroke-width="0.814902"/>
<path d="M11.0112 27.6759C9.77851 33.4706 8.12378 36.9821 6.32214 36.5991C4.5205 36.2162 3.85047 32.1391 5.08318 26.3444C6.31589 20.5496 10.4473 15.1487 13.0735 16.9507C15.6997 18.7527 12.2439 21.8811 11.0112 27.6759Z" fill="#D9D9D9"/>
<path d="M55.987 40.1267C60.4516 36.3834 61.9486 24.826 63.2124 26.3321C64.8509 28.2849 68.1554 34.1429 60.7287 45.0776C50.0009 60.0815 24.0027 55.4977 21.7143 52.7706C19.426 50.0435 41.906 54.174 55.987 40.1267Z" fill="#8990A5"/>
</g>
<defs>
<linearGradient id="paint0_linear_776_95540" x1="52.0901" y1="56.2326" x2="5.56652" y2="39.8767" gradientUnits="userSpaceOnUse">
<stop stop-color="#89E159"/>
<stop offset="1" stop-color="#B9F598"/>
</linearGradient>
<linearGradient id="paint1_linear_776_95540" x1="35.6338" y1="16.0839" x2="30.1993" y2="13.8571" gradientUnits="userSpaceOnUse">
<stop stop-color="#1E4E4E"/>
<stop offset="1" stop-color="#1F2431"/>
</linearGradient>
<linearGradient id="paint2_linear_776_95540" x1="35.6338" y1="16.0839" x2="30.1993" y2="13.8571" gradientUnits="userSpaceOnUse">
<stop stop-color="#1E4E4E"/>
<stop offset="1" stop-color="#1F2431"/>
</linearGradient>
<linearGradient id="paint3_linear_776_95540" x1="32.4075" y1="18.6339" x2="25.3001" y2="14.4872" gradientUnits="userSpaceOnUse">
<stop stop-color="#1E4E4E"/>
<stop offset="1" stop-color="#1F2431"/>
</linearGradient>
<linearGradient id="paint4_linear_776_95540" x1="32.4075" y1="18.6339" x2="25.3001" y2="14.4872" gradientUnits="userSpaceOnUse">
<stop stop-color="#1E4E4E"/>
<stop offset="1" stop-color="#1F2431"/>
</linearGradient>
<linearGradient id="paint5_linear_776_95540" x1="36.1557" y1="16.0308" x2="41.0305" y2="11.2705" gradientUnits="userSpaceOnUse">
<stop stop-color="#1E4E4E"/>
<stop offset="1" stop-color="#1F2431"/>
</linearGradient>
<linearGradient id="paint6_linear_776_95540" x1="36.1557" y1="16.0308" x2="41.0305" y2="11.2705" gradientUnits="userSpaceOnUse">
<stop stop-color="#1E4E4E"/>
<stop offset="1" stop-color="#1F2431"/>
</linearGradient>
<clipPath id="clip0_776_95540">
<rect width="71.7113" height="61.9325" fill="white" transform="translate(0.144531 0.22168)"/>
</clipPath>
</defs>
</svg>
