<svg width="92" height="83" viewBox="0 0 92 83" fill="none" xmlns="http://www.w3.org/2000/svg">
<g style="mix-blend-mode:multiply" filter="url(#filter0_f_940_3683)">
<ellipse cx="46" cy="59.5" rx="40" ry="17.5" fill="black" fill-opacity="0.1"/>
</g>
<path d="M64.6997 11.8767C59.5931 8.88043 51.3294 3.32104 39.7543 10.5121C38.0521 8.2292 33.2948 6.408 28.8691 9.14743C23.3369 12.5717 20.1396 16.5865 18.4374 19.1547C16.7352 21.7229 2.82639 49.6328 27.5084 56.9095C47.2541 62.7308 62.2584 59.2813 66.5139 55.9997C72.188 53.0035 80.1205 48.0104 80.1205 37.3498C80.1205 26.6891 74.4876 10.1645 64.6997 11.8767Z" fill="#F68561"/>
<path d="M64.6997 11.8767C59.5931 8.88043 51.3294 3.32104 39.7543 10.5121C38.0521 8.2292 33.2948 6.408 28.8691 9.14743C23.3369 12.5717 20.1396 16.5865 18.4374 19.1547C16.7352 21.7229 2.82639 49.6328 27.5084 56.9095C47.2541 62.7308 62.2584 59.2813 66.5139 55.9997C72.188 53.0035 80.1205 48.0104 80.1205 37.3498C80.1205 26.6891 74.4876 10.1645 64.6997 11.8767Z" stroke="#F68561"/>
<path d="M44.994 13.2133C44.3778 17.6392 45.9801 17.7052 47.494 17.6577C51.0943 16.9146 50.9736 15.1603 50.2998 13.5042L48.0482 7.2756L46.1095 2.00049C45.8186 3.72922 45.6337 8.61898 44.994 13.2133Z" fill="url(#paint0_linear_940_3683)" stroke="url(#paint1_linear_940_3683)"/>
<path d="M43.8201 15.3366C45.6721 17.8312 46.4438 18.6201 47.7955 17.961C50.7546 15.8096 49.9739 14.2595 48.692 12.9985L44.0985 8.19853L40.1788 4.14645C40.6164 5.86672 41.0432 11.5962 43.8201 15.3366Z" fill="#1E4E4E" stroke="#1E4E4E"/>
<path d="M47.116 17.2175C44.1961 15.1991 47.2417 8.47204 61.072 3.81409C58.6128 9.40363 49.1131 18.9255 47.116 17.2175Z" fill="url(#paint2_linear_940_3683)" stroke="url(#paint3_linear_940_3683)"/>
<path d="M42.4314 11.1612C46.5742 10.5729 48.0268 14.8046 47.7838 16.6879C43.3814 18.1437 45.3302 16.2892 43.1629 15.1954C40.9906 14.0991 39.9327 16.2415 39.6916 17.2538L38.1439 20.9934L37.5378 18.7662L37.4438 17.411C37.5309 15.974 38.2887 11.7495 42.4314 11.1612Z" fill="#1F2431"/>
<path d="M42.4314 11.1612C46.5742 10.5729 48.0268 14.8046 47.7838 16.6879C43.3814 18.1437 45.3302 16.2892 43.1629 15.1954C40.9906 14.0991 39.9327 16.2415 39.6916 17.2538L38.1439 20.9934L37.5378 18.7662L37.4438 17.411C37.5309 15.974 38.2887 11.7495 42.4314 11.1612Z" fill="url(#paint4_linear_940_3683)"/>
<path d="M42.4314 11.1612C46.5742 10.5729 48.0268 14.8046 47.7838 16.6879C43.3814 18.1437 45.3302 16.2892 43.1629 15.1954C40.9906 14.0991 39.9327 16.2415 39.6916 17.2538L38.1439 20.9934L37.5378 18.7662L37.4438 17.411C37.5309 15.974 38.2887 11.7495 42.4314 11.1612Z" stroke="#1F2431"/>
<path d="M42.4314 11.1612C46.5742 10.5729 48.0268 14.8046 47.7838 16.6879C43.3814 18.1437 45.3302 16.2892 43.1629 15.1954C40.9906 14.0991 39.9327 16.2415 39.6916 17.2538L38.1439 20.9934L37.5378 18.7662L37.4438 17.411C37.5309 15.974 38.2887 11.7495 42.4314 11.1612Z" stroke="url(#paint5_linear_940_3683)"/>
<path d="M51.5744 11.5369C47.653 11.2534 46.2619 15.6483 46.6121 17.4205C48.8001 18.0002 51.5301 16.2657 50.6723 14.705C49.8152 13.1455 54.8921 15.1176 55.1839 16.0627L56.0864 17.873L56.5374 15.6101L56.5373 14.2524C56.3621 12.8937 55.4959 11.8204 51.5744 11.5369Z" fill="#1F2431"/>
<path d="M51.5744 11.5369C47.653 11.2534 46.2619 15.6483 46.6121 17.4205C48.8001 18.0002 51.5301 16.2657 50.6723 14.705C49.8152 13.1455 54.8921 15.1176 55.1839 16.0627L56.0864 17.873L56.5374 15.6101L56.5373 14.2524C56.3621 12.8937 55.4959 11.8204 51.5744 11.5369Z" fill="url(#paint6_linear_940_3683)"/>
<path d="M51.5744 11.5369C47.653 11.2534 46.2619 15.6483 46.6121 17.4205C48.8001 18.0002 51.5301 16.2657 50.6723 14.705C49.8152 13.1455 54.8921 15.1176 55.1839 16.0627L56.0864 17.873L56.5374 15.6101L56.5373 14.2524C56.3621 12.8937 55.4959 11.8204 51.5744 11.5369Z" stroke="#1F2431"/>
<path d="M51.5744 11.5369C47.653 11.2534 46.2619 15.6483 46.6121 17.4205C48.8001 18.0002 51.5301 16.2657 50.6723 14.705C49.8152 13.1455 54.8921 15.1176 55.1839 16.0627L56.0864 17.873L56.5374 15.6101L56.5373 14.2524C56.3621 12.8937 55.4959 11.8204 51.5744 11.5369Z" stroke="url(#paint7_linear_940_3683)"/>
<path d="M23.9087 29.564C22.671 35.3821 21.0096 38.9076 19.2007 38.5231C17.3918 38.1386 16.7191 34.0452 17.9568 28.2271C19.1944 22.4091 23.3425 16.9864 25.9793 18.7957C28.616 20.6049 25.1463 23.7459 23.9087 29.564Z" fill="#D9D9D9"/>
<path d="M69.0666 42.0658C73.5492 38.3073 75.0522 26.7035 76.3211 28.2157C77.9662 30.1763 81.284 36.0579 73.8275 47.0365C63.0565 62.1007 36.9537 57.4986 34.6562 54.7605C32.3587 52.0224 54.929 56.1695 69.0666 42.0658Z" fill="#8990A5"/>
<defs>
<filter id="filter0_f_940_3683" x="0.43117" y="36.4312" width="91.1377" height="46.1377" filterUnits="userSpaceOnUse" color-interpolation-filters="sRGB">
<feFlood flood-opacity="0" result="BackgroundImageFix"/>
<feBlend mode="normal" in="SourceGraphic" in2="BackgroundImageFix" result="shape"/>
<feGaussianBlur stdDeviation="2.78441" result="effect1_foregroundBlur_940_3683"/>
</filter>
<linearGradient id="paint0_linear_940_3683" x1="46.6823" y1="2.081" x2="52.5568" y2="3.10448" gradientUnits="userSpaceOnUse">
<stop stop-color="#89E159"/>
<stop offset="1" stop-color="#B9F598"/>
</linearGradient>
<linearGradient id="paint1_linear_940_3683" x1="46.6823" y1="2.081" x2="52.5568" y2="3.10448" gradientUnits="userSpaceOnUse">
<stop stop-color="#89E159"/>
<stop offset="1" stop-color="#B9F598"/>
</linearGradient>
<linearGradient id="paint2_linear_940_3683" x1="47.4778" y1="3.81409" x2="61.4248" y2="5.08758" gradientUnits="userSpaceOnUse">
<stop stop-color="#89E159"/>
<stop offset="1" stop-color="#B9F598"/>
</linearGradient>
<linearGradient id="paint3_linear_940_3683" x1="47.4778" y1="3.81409" x2="61.4248" y2="5.08758" gradientUnits="userSpaceOnUse">
<stop stop-color="#89E159"/>
<stop offset="1" stop-color="#B9F598"/>
</linearGradient>
<linearGradient id="paint4_linear_940_3683" x1="45.3921" y1="20.4866" x2="38.2561" y2="16.3232" gradientUnits="userSpaceOnUse">
<stop stop-color="#1E4E4E"/>
<stop offset="1" stop-color="#1F2431"/>
</linearGradient>
<linearGradient id="paint5_linear_940_3683" x1="45.3921" y1="20.4866" x2="38.2561" y2="16.3232" gradientUnits="userSpaceOnUse">
<stop stop-color="#1E4E4E"/>
<stop offset="1" stop-color="#1F2431"/>
</linearGradient>
<linearGradient id="paint6_linear_940_3683" x1="49.1565" y1="17.873" x2="54.0509" y2="13.0936" gradientUnits="userSpaceOnUse">
<stop stop-color="#1E4E4E"/>
<stop offset="1" stop-color="#1F2431"/>
</linearGradient>
<linearGradient id="paint7_linear_940_3683" x1="49.1565" y1="17.873" x2="54.0509" y2="13.0936" gradientUnits="userSpaceOnUse">
<stop stop-color="#1E4E4E"/>
<stop offset="1" stop-color="#1F2431"/>
</linearGradient>
</defs>
</svg>
