<svg width="73" height="71" viewBox="0 0 73 71" fill="none" xmlns="http://www.w3.org/2000/svg">
<path d="M52.6997 11.8767C47.5931 8.88043 39.3294 3.32104 27.7543 10.5121C26.0521 8.2292 21.2948 6.408 16.8691 9.14743C11.3369 12.5717 8.13961 16.5865 6.4374 19.1547C4.73519 21.7229 -9.17361 49.6328 15.5084 56.9095C35.2541 62.7308 50.2584 59.2813 54.5139 55.9997C60.188 53.0035 68.1205 48.0104 68.1205 37.3498C68.1205 26.6891 62.4876 10.1645 52.6997 11.8767Z" fill="#F68561"/>
<path d="M52.6997 11.8767C47.5931 8.88043 39.3294 3.32104 27.7543 10.5121C26.0521 8.2292 21.2948 6.408 16.8691 9.14743C11.3369 12.5717 8.13961 16.5865 6.4374 19.1547C4.73519 21.7229 -9.17361 49.6328 15.5084 56.9095C35.2541 62.7308 50.2584 59.2813 54.5139 55.9997C60.188 53.0035 68.1205 48.0104 68.1205 37.3498C68.1205 26.6891 62.4876 10.1645 52.6997 11.8767Z" stroke="#F68561"/>
<path d="M32.994 13.2133C32.3778 17.6392 33.9801 17.7052 35.494 17.6577C39.0943 16.9146 38.9736 15.1603 38.2998 13.5042L36.0482 7.2756L34.1095 2.00049C33.8186 3.72922 33.6337 8.61898 32.994 13.2133Z" fill="url(#paint0_linear_181_504)" stroke="url(#paint1_linear_181_504)"/>
<path d="M31.8201 15.3366C33.6721 17.8312 34.4438 18.6201 35.7955 17.961C38.7546 15.8096 37.9739 14.2595 36.692 12.9985L32.0985 8.19853L28.1788 4.14645C28.6164 5.86672 29.0432 11.5962 31.8201 15.3366Z" fill="#1E4E4E" stroke="#1E4E4E"/>
<path d="M35.116 17.2175C32.1961 15.1991 35.2417 8.47204 49.072 3.81409C46.6128 9.40363 37.1131 18.9255 35.116 17.2175Z" fill="url(#paint2_linear_181_504)" stroke="url(#paint3_linear_181_504)"/>
<path d="M30.4314 11.1612C34.5742 10.5729 36.0268 14.8046 35.7838 16.6879C31.3814 18.1437 33.3302 16.2892 31.1629 15.1954C28.9906 14.0991 27.9327 16.2415 27.6916 17.2538L26.1439 20.9934L25.5378 18.7662L25.4438 17.411C25.5309 15.974 26.2887 11.7495 30.4314 11.1612Z" fill="#1F2431"/>
<path d="M30.4314 11.1612C34.5742 10.5729 36.0268 14.8046 35.7838 16.6879C31.3814 18.1437 33.3302 16.2892 31.1629 15.1954C28.9906 14.0991 27.9327 16.2415 27.6916 17.2538L26.1439 20.9934L25.5378 18.7662L25.4438 17.411C25.5309 15.974 26.2887 11.7495 30.4314 11.1612Z" fill="url(#paint4_linear_181_504)"/>
<path d="M30.4314 11.1612C34.5742 10.5729 36.0268 14.8046 35.7838 16.6879C31.3814 18.1437 33.3302 16.2892 31.1629 15.1954C28.9906 14.0991 27.9327 16.2415 27.6916 17.2538L26.1439 20.9934L25.5378 18.7662L25.4438 17.411C25.5309 15.974 26.2887 11.7495 30.4314 11.1612Z" stroke="#1F2431"/>
<path d="M30.4314 11.1612C34.5742 10.5729 36.0268 14.8046 35.7838 16.6879C31.3814 18.1437 33.3302 16.2892 31.1629 15.1954C28.9906 14.0991 27.9327 16.2415 27.6916 17.2538L26.1439 20.9934L25.5378 18.7662L25.4438 17.411C25.5309 15.974 26.2887 11.7495 30.4314 11.1612Z" stroke="url(#paint5_linear_181_504)"/>
<path d="M39.5744 11.5369C35.653 11.2534 34.2619 15.6483 34.6121 17.4205C36.8001 18.0002 39.5301 16.2657 38.6723 14.705C37.8152 13.1455 42.8921 15.1176 43.1839 16.0627L44.0864 17.873L44.5374 15.6101L44.5373 14.2524C44.3621 12.8937 43.4959 11.8204 39.5744 11.5369Z" fill="#1F2431"/>
<path d="M39.5744 11.5369C35.653 11.2534 34.2619 15.6483 34.6121 17.4205C36.8001 18.0002 39.5301 16.2657 38.6723 14.705C37.8152 13.1455 42.8921 15.1176 43.1839 16.0627L44.0864 17.873L44.5374 15.6101L44.5373 14.2524C44.3621 12.8937 43.4959 11.8204 39.5744 11.5369Z" fill="url(#paint6_linear_181_504)"/>
<path d="M39.5744 11.5369C35.653 11.2534 34.2619 15.6483 34.6121 17.4205C36.8001 18.0002 39.5301 16.2657 38.6723 14.705C37.8152 13.1455 42.8921 15.1176 43.1839 16.0627L44.0864 17.873L44.5374 15.6101L44.5373 14.2524C44.3621 12.8937 43.4959 11.8204 39.5744 11.5369Z" stroke="#1F2431"/>
<path d="M39.5744 11.5369C35.653 11.2534 34.2619 15.6483 34.6121 17.4205C36.8001 18.0002 39.5301 16.2657 38.6723 14.705C37.8152 13.1455 42.8921 15.1176 43.1839 16.0627L44.0864 17.873L44.5374 15.6101L44.5373 14.2524C44.3621 12.8937 43.4959 11.8204 39.5744 11.5369Z" stroke="url(#paint7_linear_181_504)"/>
<path d="M11.9087 29.564C10.671 35.3821 9.00961 38.9076 7.20072 38.5231C5.39184 38.1386 4.71912 34.0452 5.95678 28.2271C7.19445 22.4091 11.3425 16.9864 13.9793 18.7957C16.616 20.6049 13.1463 23.7459 11.9087 29.564Z" fill="#D9D9D9"/>
<path d="M57.0666 42.0658C61.5492 38.3073 63.0522 26.7035 64.3211 28.2157C65.9662 30.1763 69.284 36.0579 61.8275 47.0365C51.0565 62.1007 24.9537 57.4986 22.6562 54.7605C20.3587 52.0224 42.929 56.1695 57.0666 42.0658Z" fill="#8990A5"/>
<defs>
<linearGradient id="paint0_linear_181_504" x1="34.6823" y1="2.081" x2="40.5568" y2="3.10448" gradientUnits="userSpaceOnUse">
<stop stop-color="#89E159"/>
<stop offset="1" stop-color="#B9F598"/>
</linearGradient>
<linearGradient id="paint1_linear_181_504" x1="34.6823" y1="2.081" x2="40.5568" y2="3.10448" gradientUnits="userSpaceOnUse">
<stop stop-color="#89E159"/>
<stop offset="1" stop-color="#B9F598"/>
</linearGradient>
<linearGradient id="paint2_linear_181_504" x1="35.4778" y1="3.81409" x2="49.4248" y2="5.08758" gradientUnits="userSpaceOnUse">
<stop stop-color="#89E159"/>
<stop offset="1" stop-color="#B9F598"/>
</linearGradient>
<linearGradient id="paint3_linear_181_504" x1="35.4778" y1="3.81409" x2="49.4248" y2="5.08758" gradientUnits="userSpaceOnUse">
<stop stop-color="#89E159"/>
<stop offset="1" stop-color="#B9F598"/>
</linearGradient>
<linearGradient id="paint4_linear_181_504" x1="33.3921" y1="20.4866" x2="26.2561" y2="16.3232" gradientUnits="userSpaceOnUse">
<stop stop-color="#1E4E4E"/>
<stop offset="1" stop-color="#1F2431"/>
</linearGradient>
<linearGradient id="paint5_linear_181_504" x1="33.3921" y1="20.4866" x2="26.2561" y2="16.3232" gradientUnits="userSpaceOnUse">
<stop stop-color="#1E4E4E"/>
<stop offset="1" stop-color="#1F2431"/>
</linearGradient>
<linearGradient id="paint6_linear_181_504" x1="37.1565" y1="17.873" x2="42.0509" y2="13.0936" gradientUnits="userSpaceOnUse">
<stop stop-color="#1E4E4E"/>
<stop offset="1" stop-color="#1F2431"/>
</linearGradient>
<linearGradient id="paint7_linear_181_504" x1="37.1565" y1="17.873" x2="42.0509" y2="13.0936" gradientUnits="userSpaceOnUse">
<stop stop-color="#1E4E4E"/>
<stop offset="1" stop-color="#1F2431"/>
</linearGradient>
</defs>
</svg>
