<svg width="1224" height="305" viewBox="0 0 1224 305" fill="none" xmlns="http://www.w3.org/2000/svg">
<g clip-path="url(#clip0_778_10066)">
<path d="M46.7477 146.359V129.859L47.5 158V177L47.8354 182.5C59.2007 186.334 67.8899 182.92 76.752 178.359C93.252 173.359 96.252 155.359 84.252 138.359C87.752 129.859 87.252 121.359 71.2479 121.359C73.5811 115.359 71.4477 103.859 56.2479 105.859C51.2479 102.192 42.1477 97.0589 33.7477 105.859C26.081 104.359 12.8519 111.859 13.2519 127.859L13.1862 127.924C3.19077 137.752 -10.696 151.407 13.2516 173.359C11.939 180.564 33.7477 187.859 46.7477 181.859V178.359V168.359V160.859V146.359Z" fill="#0A1B1B"/>
<path d="M46.7477 181.859C46.7477 189.859 45.752 201.359 44.752 207.359H49.752L47.8354 182.5C47.1666 182.274 47.4426 182.137 46.7477 181.859Z" fill="#0A1B1B"/>
<path d="M46.7477 129.859C46.7477 129.355 46.7477 137.555 46.7477 146.359M46.7477 129.859C46.7477 130.143 46.7477 136.778 46.7477 146.359M46.7477 129.859V146.359M46.7477 129.859L47.5 158M46.7477 160.859C46.7477 156.912 46.7477 151.531 46.7477 146.359M46.7477 160.859C46.7477 155.633 46.7477 150.694 46.7477 146.359M46.7477 160.859V146.359M46.7477 160.859C46.7477 164.902 46.7477 164.117 46.7477 168.359M46.7477 160.859V168.359M46.7477 160.859C47.0052 159.829 47.0405 158.929 47.5 158M61.7477 146.359C58.1174 147.666 50.6094 151.71 47.5 158M46.7477 146.359C44.581 143.026 38.1477 136.759 29.7477 138.359M46.7477 168.359C43.7477 163.026 36.352 154.859 24.752 154.859M46.7477 168.359C46.7477 170.024 46.7477 176.694 46.7477 178.359M46.7477 168.359V178.359M46.7477 178.359C46.7477 180.851 46.7477 179.444 46.7477 181.859M46.7477 178.359V181.859M46.7477 178.359C47.2799 177.844 46.8259 177.588 47.5 177M72.7477 166.859C65.2129 164.347 53.3698 171.877 47.5 177M13.2519 127.859C12.8519 111.859 26.081 104.359 33.7477 105.859C42.1477 97.0589 51.2479 102.192 56.2479 105.859C71.4477 103.859 73.5811 115.359 71.2479 121.359C87.252 121.359 87.752 129.859 84.252 138.359C96.252 155.359 93.252 173.359 76.752 178.359C67.8899 182.92 59.2007 186.334 47.8354 182.5M13.2519 127.859L13.1862 127.924M13.2519 127.859C13.23 127.88 13.2081 127.902 13.1862 127.924M46.7477 181.859C33.7477 187.859 11.939 180.564 13.2516 173.359C-10.696 151.407 3.19077 137.752 13.1862 127.924M46.7477 181.859C46.7477 189.859 45.752 201.359 44.752 207.359H49.752L47.8354 182.5M46.7477 181.859C47.4426 182.137 47.1666 182.274 47.8354 182.5M46.7477 181.859L47.8354 182.5M47.8354 182.5L47.5 177M47.5 158V177M47.5 187.5V203.5" stroke="#1E4E4E" stroke-width="2"/>
<path d="M70.3912 143.762C68.9017 143.578 67.4327 143.236 66.0447 144.062C64.7485 144.834 63.7555 146.152 63.377 147.563C62.8421 149.556 63.1603 151.825 64.5881 153.421C65.3726 154.297 66.677 155.23 67.8428 155.577C70.8356 156.469 74.5348 156.046 76.4124 153.386C76.9487 152.627 77.4864 151.597 77.6825 150.697C78.2325 148.176 77.6167 145.223 74.8818 144.138C73.6638 143.655 72.3622 143.921 71.0894 143.833C70.8548 143.816 70.623 143.791 70.3912 143.762Z" fill="#F68561"/>
<path d="M74.2704 139.001C75.262 138.974 76.9249 139.344 77.5974 139.935C77.6796 140.009 77.8371 140.113 77.8604 140.205C77.8974 140.355 77.755 140.483 77.6509 140.592C76.1715 142.168 73.1417 142.986 71.2241 141.915C70.9556 141.765 71.0994 141.487 71.1542 141.258C71.3747 140.341 72.2226 139.5 73.2677 139.167C73.5951 139.063 73.9334 139.011 74.2704 139.001Z" fill="#A7FF77"/>
<path d="M71.0572 141.511C71.0507 141.477 71.0387 141.446 71.0212 141.424C70.9842 141.382 70.9076 141.341 70.8642 141.318C70.7986 141.281 70.7284 141.267 70.6601 141.267C70.6342 141.267 70.6093 141.268 70.5853 141.272C70.4929 141.288 70.4135 141.338 70.3609 141.447C70.2907 141.588 70.3027 141.748 70.2842 141.912C70.2584 142.146 70.1826 142.359 70.1411 142.588C70.1087 142.764 70.0829 142.943 70.0598 143.123C70.0422 143.255 70.0275 143.387 70.0164 143.52C69.9767 144.014 69.9213 144.507 69.936 145.006C69.937 145.075 69.9388 145.144 69.9416 145.212C69.9425 145.247 69.9453 145.281 69.949 145.316C69.9545 145.361 69.9564 145.414 69.96 145.466C69.9619 145.485 69.9628 145.504 69.9647 145.523C69.9748 145.604 69.9942 145.679 70.0469 145.721C70.1124 145.774 70.19 145.799 70.2676 145.8C70.2916 145.8 70.3147 145.795 70.3387 145.792L70.3997 145.787C70.4292 145.774 70.4588 145.758 70.4902 145.746C70.5391 145.729 70.5871 145.692 70.6213 145.637C70.6518 145.587 70.6555 145.536 70.6536 145.477L70.6509 145.435C70.6472 145.383 70.6444 145.329 70.6425 145.275C70.6388 145.169 70.6361 145.06 70.6342 144.954C70.6287 144.714 70.6315 144.472 70.6462 144.233C70.6564 144.09 70.661 143.945 70.6693 143.802C70.6795 143.603 70.6989 143.406 70.722 143.208C70.7275 143.166 70.7303 143.126 70.7358 143.085C70.7691 142.832 70.8309 142.605 70.8974 142.366C70.9279 142.255 70.9408 142.138 70.9685 142.032C70.999 141.922 71.0664 141.861 71.0664 141.729C71.0664 141.669 71.0701 141.581 71.0572 141.511Z" fill="#A7FF77"/>
<path d="M67.5813 144.874C67.424 144.642 66.9926 144.619 66.6854 144.735C66.3056 144.878 65.9677 145.191 65.7305 145.543C65.5264 145.846 65.2266 146.481 65.5228 146.829C65.6678 146.998 65.8435 146.932 66.0107 146.84C66.3142 146.673 66.4974 146.31 66.753 146.076C67.016 145.836 67.9464 145.406 67.5813 144.874Z" fill="#DBE2F9"/>
<path d="M70.125 146.24C69.855 146.185 69.592 146.094 69.3451 145.979C69.2158 145.919 68.842 145.637 68.8039 145.933C68.7555 146.291 69.2758 146.6 69.5343 146.715C69.9796 146.914 70.4781 146.986 70.9569 146.894C71.4184 146.805 71.8118 146.589 72.1072 146.21C72.1453 146.161 72.1707 146.103 72.1891 146.048C72.2549 145.85 72.0264 145.848 71.9041 145.904C71.8049 145.949 71.7195 146.021 71.6215 146.066C71.4322 146.152 71.2338 146.222 71.0319 146.26C70.7296 146.314 70.4238 146.3 70.125 146.24Z" fill="#1E4E4E"/>
<path d="M21.3912 153.762C19.9017 153.578 18.4327 153.236 17.0447 154.062C15.7485 154.834 14.7555 156.152 14.377 157.563C13.8421 159.556 14.1603 161.825 15.5881 163.421C16.3726 164.297 17.677 165.23 18.8428 165.577C21.8356 166.469 25.5348 166.046 27.4124 163.386C27.9487 162.627 28.4864 161.597 28.6825 160.697C29.2325 158.176 28.6167 155.223 25.8818 154.138C24.6638 153.655 23.3622 153.921 22.0894 153.833C21.8548 153.816 21.623 153.791 21.3912 153.762Z" fill="#F68561"/>
<path d="M25.2704 149.001C26.262 148.974 27.9249 149.344 28.5974 149.935C28.6796 150.009 28.8371 150.113 28.8604 150.205C28.8974 150.355 28.755 150.483 28.6509 150.592C27.1715 152.168 24.1417 152.986 22.2241 151.915C21.9556 151.765 22.0994 151.487 22.1542 151.258C22.3747 150.341 23.2226 149.5 24.2677 149.167C24.5951 149.063 24.9334 149.011 25.2704 149.001Z" fill="#A7FF77"/>
<path d="M22.0572 151.511C22.0507 151.477 22.0387 151.446 22.0212 151.424C21.9842 151.382 21.9076 151.341 21.8642 151.318C21.7986 151.281 21.7284 151.267 21.6601 151.267C21.6342 151.267 21.6093 151.268 21.5853 151.272C21.4929 151.288 21.4135 151.338 21.3609 151.447C21.2907 151.588 21.3027 151.748 21.2842 151.912C21.2584 152.146 21.1826 152.359 21.1411 152.588C21.1087 152.764 21.0829 152.943 21.0598 153.123C21.0422 153.255 21.0275 153.387 21.0164 153.52C20.9767 154.014 20.9213 154.507 20.936 155.006C20.937 155.075 20.9388 155.144 20.9416 155.212C20.9425 155.247 20.9453 155.281 20.949 155.316C20.9545 155.361 20.9564 155.414 20.96 155.466C20.9619 155.485 20.9628 155.504 20.9647 155.523C20.9748 155.604 20.9942 155.679 21.0469 155.721C21.1124 155.774 21.19 155.799 21.2676 155.8C21.2916 155.8 21.3147 155.795 21.3387 155.792L21.3997 155.787C21.4292 155.774 21.4588 155.758 21.4902 155.746C21.5391 155.729 21.5871 155.692 21.6213 155.637C21.6518 155.587 21.6555 155.536 21.6536 155.477L21.6509 155.435C21.6472 155.383 21.6444 155.329 21.6425 155.275C21.6388 155.169 21.6361 155.06 21.6342 154.954C21.6287 154.714 21.6315 154.472 21.6462 154.233C21.6564 154.09 21.661 153.945 21.6693 153.802C21.6795 153.603 21.6989 153.406 21.722 153.208C21.7275 153.166 21.7303 153.126 21.7358 153.085C21.7691 152.832 21.8309 152.605 21.8974 152.366C21.9279 152.255 21.9408 152.138 21.9685 152.032C21.999 151.922 22.0664 151.861 22.0664 151.729C22.0664 151.669 22.0701 151.581 22.0572 151.511Z" fill="#A7FF77"/>
<path d="M18.5813 154.874C18.424 154.642 17.9926 154.619 17.6854 154.735C17.3056 154.878 16.9677 155.191 16.7305 155.543C16.5264 155.846 16.2266 156.481 16.5228 156.829C16.6678 156.998 16.8435 156.932 17.0107 156.84C17.3142 156.673 17.4974 156.31 17.753 156.076C18.016 155.836 18.9464 155.406 18.5813 154.874Z" fill="#DBE2F9"/>
<path d="M21.125 156.24C20.855 156.185 20.592 156.094 20.3451 155.979C20.2158 155.919 19.842 155.637 19.8039 155.933C19.7555 156.291 20.2758 156.6 20.5343 156.715C20.9796 156.914 21.4781 156.986 21.9569 156.894C22.4184 156.805 22.8118 156.589 23.1072 156.21C23.1453 156.161 23.1707 156.103 23.1891 156.048C23.2549 155.85 23.0264 155.848 22.9041 155.904C22.8049 155.949 22.7195 156.021 22.6215 156.066C22.4322 156.152 22.2338 156.222 22.0319 156.26C21.7296 156.314 21.4238 156.3 21.125 156.24Z" fill="#1E4E4E"/>
<path d="M37.3912 117.762C35.9017 117.578 34.4327 117.236 33.0447 118.062C31.7485 118.834 30.7555 120.152 30.377 121.563C29.8421 123.556 30.1603 125.825 31.5881 127.421C32.3726 128.297 33.677 129.23 34.8428 129.577C37.8356 130.469 41.5348 130.046 43.4124 127.386C43.9487 126.627 44.4864 125.597 44.6825 124.697C45.2325 122.176 44.6167 119.223 41.8818 118.138C40.6638 117.655 39.3622 117.921 38.0894 117.833C37.8548 117.816 37.623 117.791 37.3912 117.762Z" fill="#F68561"/>
<path d="M41.2704 113.001C42.262 112.974 43.9249 113.344 44.5974 113.935C44.6796 114.009 44.8371 114.113 44.8604 114.205C44.8974 114.355 44.755 114.483 44.6509 114.592C43.1715 116.168 40.1417 116.986 38.2241 115.915C37.9556 115.765 38.0994 115.487 38.1542 115.258C38.3747 114.341 39.2226 113.5 40.2677 113.167C40.5951 113.063 40.9334 113.011 41.2704 113.001Z" fill="#A7FF77"/>
<path d="M38.0572 115.511C38.0507 115.477 38.0387 115.446 38.0212 115.424C37.9842 115.382 37.9076 115.341 37.8642 115.318C37.7986 115.281 37.7284 115.267 37.6601 115.267C37.6342 115.267 37.6093 115.268 37.5853 115.272C37.4929 115.288 37.4135 115.338 37.3609 115.447C37.2907 115.588 37.3027 115.748 37.2842 115.912C37.2584 116.146 37.1826 116.359 37.1411 116.588C37.1087 116.764 37.0829 116.943 37.0598 117.123C37.0422 117.255 37.0275 117.387 37.0164 117.52C36.9767 118.014 36.9213 118.507 36.936 119.006C36.937 119.075 36.9388 119.144 36.9416 119.212C36.9425 119.247 36.9453 119.281 36.949 119.316C36.9545 119.361 36.9564 119.414 36.96 119.466C36.9619 119.485 36.9628 119.504 36.9647 119.523C36.9748 119.604 36.9942 119.679 37.0469 119.721C37.1124 119.774 37.19 119.799 37.2676 119.8C37.2916 119.8 37.3147 119.795 37.3387 119.792L37.3997 119.787C37.4292 119.774 37.4588 119.758 37.4902 119.746C37.5391 119.729 37.5871 119.692 37.6213 119.637C37.6518 119.587 37.6555 119.536 37.6536 119.477L37.6509 119.435C37.6472 119.383 37.6444 119.329 37.6425 119.275C37.6388 119.169 37.6361 119.06 37.6342 118.954C37.6287 118.714 37.6315 118.472 37.6462 118.233C37.6564 118.09 37.661 117.945 37.6693 117.802C37.6795 117.603 37.6989 117.406 37.722 117.208C37.7275 117.166 37.7303 117.126 37.7358 117.085C37.7691 116.832 37.8309 116.605 37.8974 116.366C37.9279 116.255 37.9408 116.138 37.9685 116.032C37.999 115.922 38.0664 115.861 38.0664 115.729C38.0664 115.669 38.0701 115.581 38.0572 115.511Z" fill="#A7FF77"/>
<path d="M34.5813 118.874C34.424 118.642 33.9926 118.619 33.6854 118.735C33.3056 118.878 32.9677 119.191 32.7305 119.543C32.5264 119.846 32.2266 120.481 32.5228 120.829C32.6678 120.998 32.8435 120.932 33.0107 120.84C33.3142 120.673 33.4974 120.31 33.753 120.076C34.016 119.836 34.9464 119.406 34.5813 118.874Z" fill="#DBE2F9"/>
<path d="M37.125 120.24C36.855 120.185 36.592 120.094 36.3451 119.979C36.2158 119.919 35.842 119.637 35.8039 119.933C35.7555 120.291 36.2758 120.6 36.5343 120.715C36.9796 120.914 37.4781 120.986 37.9569 120.894C38.4184 120.805 38.8118 120.589 39.1072 120.21C39.1453 120.161 39.1707 120.103 39.1891 120.048C39.2549 119.85 39.0264 119.848 38.9041 119.904C38.8049 119.949 38.7195 120.021 38.6215 120.066C38.4322 120.152 38.2338 120.222 38.0319 120.26C37.7296 120.314 37.4238 120.3 37.125 120.24Z" fill="#1E4E4E"/>
<path d="M37.553 204.73C36.1934 204.73 33.3032 204.73 34.154 208H57.9474C60.0971 208 58.5139 204.73 57.0976 204.73C55.738 202.114 52.2823 200.915 51.1492 201.46C47.7502 196.555 45.6255 200.642 44.3511 199.825C42.3119 198.517 37.553 201.46 37.553 204.73H37.553Z" fill="#1E4E4E"/>
</g>
<g clip-path="url(#clip1_778_10066)">
<path d="M774.748 108.359V91.8589L775.5 120V139L775.835 144.5C787.201 148.334 795.89 144.92 804.752 140.359C821.252 135.359 824.252 117.359 812.252 100.359C815.752 91.8589 815.252 83.3589 799.248 83.3589C801.581 77.3589 799.448 65.859 784.248 67.8589C779.248 64.1923 770.148 59.0589 761.748 67.8589C754.081 66.3589 740.852 73.8589 741.252 89.8589L741.186 89.9235C731.191 99.7521 717.304 113.407 741.252 135.359C739.939 142.564 761.748 149.859 774.748 143.859V140.359V130.359V122.859V108.359Z" fill="#0A1B1B"/>
<path d="M774.748 143.859C774.748 151.859 773.752 163.359 772.752 169.359H777.752L775.835 144.5C775.167 144.274 775.443 144.137 774.748 143.859Z" fill="#0A1B1B"/>
<path d="M774.748 91.8589C774.748 91.355 774.748 99.5547 774.748 108.359M774.748 91.8589C774.748 92.1429 774.748 98.7775 774.748 108.359M774.748 91.8589V108.359M774.748 91.8589L775.5 120M774.748 122.859C774.748 118.912 774.748 113.531 774.748 108.359M774.748 122.859C774.748 117.633 774.748 112.694 774.748 108.359M774.748 122.859V108.359M774.748 122.859C774.748 126.902 774.748 126.117 774.748 130.359M774.748 122.859V130.359M774.748 122.859C775.005 121.829 775.041 120.929 775.5 120M789.748 108.359C786.117 109.666 778.609 113.71 775.5 120M774.748 108.359C772.581 105.026 766.148 98.7589 757.748 100.359M774.748 130.359C771.748 125.026 764.352 116.859 752.752 116.859M774.748 130.359C774.748 132.024 774.748 138.694 774.748 140.359M774.748 130.359V140.359M774.748 140.359C774.748 142.851 774.748 141.444 774.748 143.859M774.748 140.359V143.859M774.748 140.359C775.28 139.844 774.826 139.588 775.5 139M800.748 128.859C793.213 126.347 781.37 133.877 775.5 139M741.252 89.8589C740.852 73.8589 754.081 66.3589 761.748 67.8589C770.148 59.0589 779.248 64.1923 784.248 67.8589C799.448 65.859 801.581 77.3589 799.248 83.3589C815.252 83.3589 815.752 91.8589 812.252 100.359C824.252 117.359 821.252 135.359 804.752 140.359C795.89 144.92 787.201 148.334 775.835 144.5M741.252 89.8589L741.186 89.9235M741.252 89.8589C741.23 89.8804 741.208 89.9019 741.186 89.9235M774.748 143.859C761.748 149.859 739.939 142.564 741.252 135.359C717.304 113.407 731.191 99.7521 741.186 89.9235M774.748 143.859C774.748 151.859 773.752 163.359 772.752 169.359H777.752L775.835 144.5M774.748 143.859C775.443 144.137 775.167 144.274 775.835 144.5M774.748 143.859L775.835 144.5M775.835 144.5L775.5 139M775.5 120V139M775.5 149.5V165.5" stroke="#1E4E4E" stroke-width="2"/>
<path d="M798.391 105.762C796.902 105.578 795.433 105.236 794.045 106.062C792.749 106.834 791.756 108.152 791.377 109.563C790.842 111.556 791.16 113.825 792.588 115.421C793.373 116.297 794.677 117.23 795.843 117.577C798.836 118.469 802.535 118.046 804.412 115.386C804.949 114.627 805.486 113.597 805.683 112.697C806.233 110.176 805.617 107.223 802.882 106.138C801.664 105.655 800.362 105.921 799.089 105.833C798.855 105.816 798.623 105.791 798.391 105.762Z" fill="#F68561"/>
<path d="M802.27 101.001C803.262 100.974 804.925 101.344 805.597 101.935C805.68 102.009 805.837 102.113 805.86 102.205C805.897 102.355 805.755 102.483 805.651 102.592C804.172 104.168 801.142 104.986 799.224 103.915C798.956 103.765 799.099 103.487 799.154 103.258C799.375 102.341 800.223 101.5 801.268 101.167C801.595 101.063 801.933 101.011 802.27 101.001Z" fill="#A7FF77"/>
<path d="M799.057 103.511C799.051 103.477 799.039 103.446 799.021 103.424C798.984 103.382 798.908 103.341 798.864 103.318C798.799 103.281 798.728 103.267 798.66 103.267C798.634 103.267 798.609 103.268 798.585 103.272C798.493 103.288 798.414 103.338 798.361 103.447C798.291 103.588 798.303 103.748 798.284 103.912C798.258 104.146 798.183 104.359 798.141 104.588C798.109 104.764 798.083 104.943 798.06 105.123C798.042 105.255 798.027 105.387 798.016 105.52C797.977 106.014 797.921 106.507 797.936 107.006C797.937 107.075 797.939 107.144 797.942 107.212C797.943 107.247 797.945 107.281 797.949 107.316C797.955 107.361 797.956 107.414 797.96 107.466C797.962 107.485 797.963 107.504 797.965 107.523C797.975 107.604 797.994 107.679 798.047 107.721C798.112 107.774 798.19 107.799 798.268 107.8C798.292 107.8 798.315 107.795 798.339 107.792L798.4 107.787C798.429 107.774 798.459 107.758 798.49 107.746C798.539 107.729 798.587 107.692 798.621 107.637C798.652 107.587 798.655 107.536 798.654 107.477L798.651 107.435C798.647 107.383 798.644 107.329 798.643 107.275C798.639 107.169 798.636 107.06 798.634 106.954C798.629 106.714 798.631 106.472 798.646 106.233C798.656 106.09 798.661 105.945 798.669 105.802C798.679 105.603 798.699 105.406 798.722 105.208C798.728 105.166 798.73 105.126 798.736 105.085C798.769 104.832 798.831 104.605 798.897 104.366C798.928 104.255 798.941 104.138 798.969 104.032C798.999 103.922 799.066 103.861 799.066 103.729C799.066 103.669 799.07 103.581 799.057 103.511Z" fill="#A7FF77"/>
<path d="M795.581 106.874C795.424 106.642 794.993 106.619 794.685 106.735C794.306 106.878 793.968 107.191 793.73 107.543C793.526 107.846 793.227 108.481 793.523 108.829C793.668 108.998 793.844 108.932 794.011 108.84C794.314 108.673 794.497 108.31 794.753 108.076C795.016 107.836 795.946 107.406 795.581 106.874Z" fill="#DBE2F9"/>
<path d="M798.125 108.24C797.855 108.185 797.592 108.094 797.345 107.979C797.216 107.919 796.842 107.637 796.804 107.933C796.755 108.291 797.276 108.6 797.534 108.715C797.98 108.914 798.478 108.986 798.957 108.894C799.418 108.805 799.812 108.589 800.107 108.21C800.145 108.161 800.171 108.103 800.189 108.048C800.255 107.85 800.026 107.848 799.904 107.904C799.805 107.949 799.72 108.021 799.621 108.066C799.432 108.152 799.234 108.222 799.032 108.26C798.73 108.314 798.424 108.3 798.125 108.24Z" fill="#1E4E4E"/>
<path d="M749.391 115.762C747.902 115.578 746.433 115.236 745.045 116.062C743.749 116.834 742.756 118.152 742.377 119.563C741.842 121.556 742.16 123.825 743.588 125.421C744.373 126.297 745.677 127.23 746.843 127.577C749.836 128.469 753.535 128.046 755.412 125.386C755.949 124.627 756.486 123.597 756.683 122.697C757.233 120.176 756.617 117.223 753.882 116.138C752.664 115.655 751.362 115.921 750.089 115.833C749.855 115.816 749.623 115.791 749.391 115.762Z" fill="#F68561"/>
<path d="M753.27 111.001C754.262 110.974 755.925 111.344 756.597 111.935C756.68 112.009 756.837 112.113 756.86 112.205C756.897 112.355 756.755 112.483 756.651 112.592C755.172 114.168 752.142 114.986 750.224 113.915C749.956 113.765 750.099 113.487 750.154 113.258C750.375 112.341 751.223 111.5 752.268 111.167C752.595 111.063 752.933 111.011 753.27 111.001Z" fill="#A7FF77"/>
<path d="M750.057 113.511C750.051 113.477 750.039 113.446 750.021 113.424C749.984 113.382 749.908 113.341 749.864 113.318C749.799 113.281 749.728 113.267 749.66 113.267C749.634 113.267 749.609 113.268 749.585 113.272C749.493 113.288 749.414 113.338 749.361 113.447C749.291 113.588 749.303 113.748 749.284 113.912C749.258 114.146 749.183 114.359 749.141 114.588C749.109 114.764 749.083 114.943 749.06 115.123C749.042 115.255 749.027 115.387 749.016 115.52C748.977 116.014 748.921 116.507 748.936 117.006C748.937 117.075 748.939 117.144 748.942 117.212C748.943 117.247 748.945 117.281 748.949 117.316C748.955 117.361 748.956 117.414 748.96 117.466C748.962 117.485 748.963 117.504 748.965 117.523C748.975 117.604 748.994 117.679 749.047 117.721C749.112 117.774 749.19 117.799 749.268 117.8C749.292 117.8 749.315 117.795 749.339 117.792L749.4 117.787C749.429 117.774 749.459 117.758 749.49 117.746C749.539 117.729 749.587 117.692 749.621 117.637C749.652 117.587 749.655 117.536 749.654 117.477L749.651 117.435C749.647 117.383 749.644 117.329 749.643 117.275C749.639 117.169 749.636 117.06 749.634 116.954C749.629 116.714 749.631 116.472 749.646 116.233C749.656 116.09 749.661 115.945 749.669 115.802C749.679 115.603 749.699 115.406 749.722 115.208C749.728 115.166 749.73 115.126 749.736 115.085C749.769 114.832 749.831 114.605 749.897 114.366C749.928 114.255 749.941 114.138 749.969 114.032C749.999 113.922 750.066 113.861 750.066 113.729C750.066 113.669 750.07 113.581 750.057 113.511Z" fill="#A7FF77"/>
<path d="M746.581 116.874C746.424 116.642 745.993 116.619 745.685 116.735C745.306 116.878 744.968 117.191 744.73 117.543C744.526 117.846 744.227 118.481 744.523 118.829C744.668 118.998 744.844 118.932 745.011 118.84C745.314 118.673 745.497 118.31 745.753 118.076C746.016 117.836 746.946 117.406 746.581 116.874Z" fill="#DBE2F9"/>
<path d="M749.125 118.24C748.855 118.185 748.592 118.094 748.345 117.979C748.216 117.919 747.842 117.637 747.804 117.933C747.755 118.291 748.276 118.6 748.534 118.715C748.98 118.914 749.478 118.986 749.957 118.894C750.418 118.805 750.812 118.589 751.107 118.21C751.145 118.161 751.171 118.103 751.189 118.048C751.255 117.85 751.026 117.848 750.904 117.904C750.805 117.949 750.72 118.021 750.621 118.066C750.432 118.152 750.234 118.222 750.032 118.26C749.73 118.314 749.424 118.3 749.125 118.24Z" fill="#1E4E4E"/>
<path d="M765.391 79.7625C763.902 79.578 762.433 79.2364 761.045 80.0622C759.749 80.8342 758.756 82.152 758.377 83.5627C757.842 85.5557 758.16 87.8248 759.588 89.4213C760.373 90.2968 761.677 91.2298 762.843 91.5766C765.836 92.469 769.535 92.0464 771.412 89.386C771.949 88.627 772.486 87.5971 772.683 86.6968C773.233 84.1764 772.617 81.2229 769.882 80.1381C768.664 79.6552 767.362 79.9208 766.089 79.8332C765.855 79.8161 765.623 79.7913 765.391 79.7625Z" fill="#F68561"/>
<path d="M769.27 75.0014C770.262 74.974 771.925 75.3443 772.597 75.9352C772.68 76.0095 772.837 76.1135 772.86 76.2049C772.897 76.3546 772.755 76.4826 772.651 76.5924C771.172 78.1684 768.142 78.9856 766.224 77.9147C765.956 77.765 766.099 77.4873 766.154 77.2575C766.375 76.3409 767.223 75.4997 768.268 75.1671C768.595 75.0631 768.933 75.0106 769.27 75.0014Z" fill="#A7FF77"/>
<path d="M766.057 77.5115C766.051 77.4765 766.039 77.4456 766.021 77.4241C765.984 77.3824 765.908 77.3406 765.864 77.3178C765.799 77.2815 765.728 77.2667 765.66 77.2667C765.634 77.2667 765.609 77.268 765.585 77.272C765.493 77.2882 765.414 77.338 765.361 77.4469C765.291 77.5882 765.303 77.7482 765.284 77.9124C765.258 78.1464 765.183 78.359 765.141 78.5877C765.109 78.7639 765.083 78.9428 765.06 79.123C765.042 79.2549 765.027 79.3867 765.016 79.5199C764.977 80.0136 764.921 80.5073 764.936 81.0063C764.937 81.0749 764.939 81.1435 764.942 81.2121C764.943 81.2471 764.945 81.2807 764.949 81.3157C764.955 81.3615 764.956 81.4139 764.96 81.4664C764.962 81.4852 764.963 81.5041 764.965 81.5229C764.975 81.6036 764.994 81.6789 765.047 81.7206C765.112 81.7744 765.19 81.7987 765.268 81.8C765.292 81.8 765.315 81.7946 765.339 81.7919L765.4 81.7865C765.429 81.7744 765.459 81.7583 765.49 81.7462C765.539 81.7287 765.587 81.6924 765.621 81.6372C765.652 81.5875 765.655 81.5363 765.654 81.4771L765.651 81.4354C765.647 81.383 765.644 81.3292 765.643 81.2754C765.639 81.1691 765.636 81.0601 765.634 80.9539C765.629 80.7144 765.631 80.4723 765.646 80.2328C765.656 80.0902 765.661 79.945 765.669 79.8024C765.679 79.6033 765.699 79.4055 765.722 79.2078C765.728 79.1661 765.73 79.1257 765.736 79.0854C765.769 78.8325 765.831 78.6051 765.897 78.3657C765.928 78.2554 765.941 78.1384 765.969 78.0321C765.999 77.9218 766.066 77.8612 766.066 77.7294C766.066 77.6689 766.07 77.5814 766.057 77.5115Z" fill="#A7FF77"/>
<path d="M762.581 80.8744C762.424 80.6417 761.993 80.6187 761.685 80.7351C761.306 80.8784 760.968 81.1909 760.73 81.5426C760.526 81.8456 760.227 82.4813 760.523 82.8289C760.668 82.998 760.844 82.9317 761.011 82.8398C761.314 82.6734 761.497 82.3095 761.753 82.0755C762.016 81.8361 762.946 81.406 762.581 80.8744Z" fill="#DBE2F9"/>
<path d="M765.125 82.2399C764.855 82.1852 764.592 82.0943 764.345 81.9793C764.216 81.9191 763.842 81.6366 763.804 81.9333C763.755 82.2914 764.276 82.6002 764.534 82.7151C764.98 82.9144 765.478 82.9856 765.957 82.8936C766.418 82.8049 766.812 82.5892 767.107 82.2104C767.145 82.1611 767.171 82.103 767.189 82.0483C767.255 81.8501 767.026 81.8479 766.904 81.9038C766.805 81.9487 766.72 82.0209 766.621 82.0658C766.432 82.1523 766.234 82.2224 766.032 82.2596C765.73 82.3144 765.424 82.3001 765.125 82.2399Z" fill="#1E4E4E"/>
<path d="M765.553 166.73C764.193 166.73 761.303 166.73 762.154 170H785.947C788.097 170 786.514 166.73 785.098 166.73C783.738 164.114 780.282 162.915 779.149 163.46C775.75 158.555 773.625 162.642 772.351 161.825C770.312 160.517 765.553 163.46 765.553 166.73H765.553Z" fill="#1E4E4E"/>
</g>
<g clip-path="url(#clip2_778_10066)">
<path d="M1168.42 228.713V208.446L1169.34 243.011V266.348L1169.75 273.103C1183.71 277.812 1194.39 273.619 1205.27 268.017C1225.54 261.876 1229.22 239.767 1214.48 218.887C1218.78 208.446 1218.17 198.006 1198.51 198.006C1201.38 190.636 1198.76 176.512 1180.09 178.968C1173.95 174.464 1162.77 168.159 1152.45 178.968C1143.03 177.126 1126.79 186.338 1127.28 205.99L1127.2 206.069C1114.92 218.141 1097.86 234.913 1127.28 261.876C1125.66 270.725 1152.45 279.685 1168.42 272.316V268.017V255.734V246.522V228.713Z" fill="#0A1B1B"/>
<path d="M1168.42 272.316C1168.42 282.142 1167.2 296.267 1165.97 303.637H1172.11L1169.75 273.103C1168.93 272.826 1169.27 272.657 1168.42 272.316Z" fill="#0A1B1B"/>
<path d="M1168.42 208.446C1168.42 207.827 1168.42 217.899 1168.42 228.713M1168.42 208.446C1168.42 208.795 1168.42 216.944 1168.42 228.713M1168.42 208.446V228.713M1168.42 208.446L1169.34 243.011M1168.42 246.522C1168.42 241.674 1168.42 235.065 1168.42 228.713M1168.42 246.522C1168.42 240.103 1168.42 234.037 1168.42 228.713M1168.42 246.522V228.713M1168.42 246.522C1168.42 251.488 1168.42 250.524 1168.42 255.734M1168.42 246.522V255.734M1168.42 246.522C1168.73 245.257 1168.78 244.152 1169.34 243.011M1186.84 228.713C1182.38 230.318 1173.16 235.285 1169.34 243.011M1168.42 228.713C1165.76 224.618 1157.86 216.921 1147.54 218.887M1168.42 255.734C1164.73 249.184 1155.65 239.153 1141.4 239.153M1168.42 255.734C1168.42 257.78 1168.42 265.972 1168.42 268.017M1168.42 255.734V268.017M1168.42 268.017C1168.42 271.078 1168.42 269.35 1168.42 272.316M1168.42 268.017V272.316M1168.42 268.017C1169.07 267.384 1168.51 267.07 1169.34 266.348M1200.35 253.892C1191.1 250.807 1176.55 260.055 1169.34 266.348M1127.28 205.99C1126.79 186.338 1143.03 177.126 1152.45 178.968C1162.77 168.159 1173.95 174.464 1180.09 178.968C1198.76 176.512 1201.38 190.636 1198.51 198.006C1218.17 198.006 1218.78 208.446 1214.48 218.887C1229.22 239.767 1225.54 261.876 1205.27 268.017C1194.39 273.619 1183.71 277.812 1169.75 273.103M1127.28 205.99L1127.2 206.069M1127.28 205.99C1127.25 206.016 1127.22 206.043 1127.2 206.069M1168.42 272.316C1152.45 279.685 1125.66 270.725 1127.28 261.876C1097.86 234.913 1114.92 218.141 1127.2 206.069M1168.42 272.316C1168.42 282.142 1167.2 296.267 1165.97 303.637H1172.11L1169.75 273.103M1168.42 272.316C1169.27 272.657 1168.93 272.826 1169.75 273.103M1168.42 272.316L1169.75 273.103M1169.75 273.103L1169.34 266.348M1169.34 243.011V266.348M1169.34 279.245V298.897" stroke="#1E4E4E" stroke-width="2.45652"/>
<path d="M1199.39 213.762C1197.9 213.578 1196.43 213.236 1195.04 214.062C1193.75 214.834 1192.76 216.152 1192.38 217.563C1191.84 219.556 1192.16 221.825 1193.59 223.421C1194.37 224.297 1195.68 225.23 1196.84 225.577C1199.84 226.469 1203.53 226.046 1205.41 223.386C1205.95 222.627 1206.49 221.597 1206.68 220.697C1207.23 218.176 1206.62 215.223 1203.88 214.138C1202.66 213.655 1201.36 213.921 1200.09 213.833C1199.85 213.816 1199.62 213.791 1199.39 213.762Z" fill="#F68561"/>
<path d="M1203.27 209.001C1204.26 208.974 1205.92 209.344 1206.6 209.935C1206.68 210.009 1206.84 210.113 1206.86 210.205C1206.9 210.355 1206.75 210.483 1206.65 210.592C1205.17 212.168 1202.14 212.986 1200.22 211.915C1199.96 211.765 1200.1 211.487 1200.15 211.258C1200.37 210.341 1201.22 209.5 1202.27 209.167C1202.6 209.063 1202.93 209.011 1203.27 209.001Z" fill="#A7FF77"/>
<path d="M1200.06 211.511C1200.05 211.477 1200.04 211.446 1200.02 211.424C1199.98 211.382 1199.91 211.341 1199.86 211.318C1199.8 211.281 1199.73 211.267 1199.66 211.267C1199.63 211.267 1199.61 211.268 1199.59 211.272C1199.49 211.288 1199.41 211.338 1199.36 211.447C1199.29 211.588 1199.3 211.748 1199.28 211.912C1199.26 212.146 1199.18 212.359 1199.14 212.588C1199.11 212.764 1199.08 212.943 1199.06 213.123C1199.04 213.255 1199.03 213.387 1199.02 213.52C1198.98 214.014 1198.92 214.507 1198.94 215.006C1198.94 215.075 1198.94 215.144 1198.94 215.212C1198.94 215.247 1198.95 215.281 1198.95 215.316C1198.95 215.361 1198.96 215.414 1198.96 215.466C1198.96 215.485 1198.96 215.504 1198.96 215.523C1198.97 215.604 1198.99 215.679 1199.05 215.721C1199.11 215.774 1199.19 215.799 1199.27 215.8C1199.29 215.8 1199.31 215.795 1199.34 215.792L1199.4 215.787C1199.43 215.774 1199.46 215.758 1199.49 215.746C1199.54 215.729 1199.59 215.692 1199.62 215.637C1199.65 215.587 1199.66 215.536 1199.65 215.477L1199.65 215.435C1199.65 215.383 1199.64 215.329 1199.64 215.275C1199.64 215.169 1199.64 215.06 1199.63 214.954C1199.63 214.714 1199.63 214.472 1199.65 214.233C1199.66 214.09 1199.66 213.945 1199.67 213.802C1199.68 213.603 1199.7 213.406 1199.72 213.208C1199.73 213.166 1199.73 213.126 1199.74 213.085C1199.77 212.832 1199.83 212.605 1199.9 212.366C1199.93 212.255 1199.94 212.138 1199.97 212.032C1200 211.922 1200.07 211.861 1200.07 211.729C1200.07 211.669 1200.07 211.581 1200.06 211.511Z" fill="#A7FF77"/>
<path d="M1196.58 214.874C1196.42 214.642 1195.99 214.619 1195.69 214.735C1195.31 214.878 1194.97 215.191 1194.73 215.543C1194.53 215.846 1194.23 216.481 1194.52 216.829C1194.67 216.998 1194.84 216.932 1195.01 216.84C1195.31 216.673 1195.5 216.31 1195.75 216.076C1196.02 215.836 1196.95 215.406 1196.58 214.874Z" fill="#DBE2F9"/>
<path d="M1199.13 216.24C1198.86 216.185 1198.59 216.094 1198.35 215.979C1198.22 215.919 1197.84 215.637 1197.8 215.933C1197.76 216.291 1198.28 216.6 1198.53 216.715C1198.98 216.914 1199.48 216.986 1199.96 216.894C1200.42 216.805 1200.81 216.589 1201.11 216.21C1201.15 216.161 1201.17 216.103 1201.19 216.048C1201.25 215.85 1201.03 215.848 1200.9 215.904C1200.8 215.949 1200.72 216.021 1200.62 216.066C1200.43 216.152 1200.23 216.222 1200.03 216.26C1199.73 216.314 1199.42 216.3 1199.13 216.24Z" fill="#1E4E4E"/>
<path d="M1131.39 233.762C1129.9 233.578 1128.43 233.236 1127.04 234.062C1125.75 234.834 1124.76 236.152 1124.38 237.563C1123.84 239.556 1124.16 241.825 1125.59 243.421C1126.37 244.297 1127.68 245.23 1128.84 245.577C1131.84 246.469 1135.53 246.046 1137.41 243.386C1137.95 242.627 1138.49 241.597 1138.68 240.697C1139.23 238.176 1138.62 235.223 1135.88 234.138C1134.66 233.655 1133.36 233.921 1132.09 233.833C1131.85 233.816 1131.62 233.791 1131.39 233.762Z" fill="#F68561"/>
<path d="M1135.27 229.001C1136.26 228.974 1137.92 229.344 1138.6 229.935C1138.68 230.009 1138.84 230.113 1138.86 230.205C1138.9 230.355 1138.75 230.483 1138.65 230.592C1137.17 232.168 1134.14 232.986 1132.22 231.915C1131.96 231.765 1132.1 231.487 1132.15 231.258C1132.37 230.341 1133.22 229.5 1134.27 229.167C1134.6 229.063 1134.93 229.011 1135.27 229.001Z" fill="#A7FF77"/>
<path d="M1132.06 231.511C1132.05 231.477 1132.04 231.446 1132.02 231.424C1131.98 231.382 1131.91 231.341 1131.86 231.318C1131.8 231.281 1131.73 231.267 1131.66 231.267C1131.63 231.267 1131.61 231.268 1131.59 231.272C1131.49 231.288 1131.41 231.338 1131.36 231.447C1131.29 231.588 1131.3 231.748 1131.28 231.912C1131.26 232.146 1131.18 232.359 1131.14 232.588C1131.11 232.764 1131.08 232.943 1131.06 233.123C1131.04 233.255 1131.03 233.387 1131.02 233.52C1130.98 234.014 1130.92 234.507 1130.94 235.006C1130.94 235.075 1130.94 235.144 1130.94 235.212C1130.94 235.247 1130.95 235.281 1130.95 235.316C1130.95 235.361 1130.96 235.414 1130.96 235.466C1130.96 235.485 1130.96 235.504 1130.96 235.523C1130.97 235.604 1130.99 235.679 1131.05 235.721C1131.11 235.774 1131.19 235.799 1131.27 235.8C1131.29 235.8 1131.31 235.795 1131.34 235.792L1131.4 235.787C1131.43 235.774 1131.46 235.758 1131.49 235.746C1131.54 235.729 1131.59 235.692 1131.62 235.637C1131.65 235.587 1131.66 235.536 1131.65 235.477L1131.65 235.435C1131.65 235.383 1131.64 235.329 1131.64 235.275C1131.64 235.169 1131.64 235.06 1131.63 234.954C1131.63 234.714 1131.63 234.472 1131.65 234.233C1131.66 234.09 1131.66 233.945 1131.67 233.802C1131.68 233.603 1131.7 233.406 1131.72 233.208C1131.73 233.166 1131.73 233.126 1131.74 233.085C1131.77 232.832 1131.83 232.605 1131.9 232.366C1131.93 232.255 1131.94 232.138 1131.97 232.032C1132 231.922 1132.07 231.861 1132.07 231.729C1132.07 231.669 1132.07 231.581 1132.06 231.511Z" fill="#A7FF77"/>
<path d="M1128.58 234.874C1128.42 234.642 1127.99 234.619 1127.69 234.735C1127.31 234.878 1126.97 235.191 1126.73 235.543C1126.53 235.846 1126.23 236.481 1126.52 236.829C1126.67 236.998 1126.84 236.932 1127.01 236.84C1127.31 236.673 1127.5 236.31 1127.75 236.076C1128.02 235.836 1128.95 235.406 1128.58 234.874Z" fill="#DBE2F9"/>
<path d="M1131.13 236.24C1130.86 236.185 1130.59 236.094 1130.35 235.979C1130.22 235.919 1129.84 235.637 1129.8 235.933C1129.76 236.291 1130.28 236.6 1130.53 236.715C1130.98 236.914 1131.48 236.986 1131.96 236.894C1132.42 236.805 1132.81 236.589 1133.11 236.21C1133.15 236.161 1133.17 236.103 1133.19 236.048C1133.25 235.85 1133.03 235.848 1132.9 235.904C1132.8 235.949 1132.72 236.021 1132.62 236.066C1132.43 236.152 1132.23 236.222 1132.03 236.26C1131.73 236.314 1131.42 236.3 1131.13 236.24Z" fill="#1E4E4E"/>
<path d="M1151.39 196.762C1149.9 196.578 1148.43 196.236 1147.04 197.062C1145.75 197.834 1144.76 199.152 1144.38 200.563C1143.84 202.556 1144.16 204.825 1145.59 206.421C1146.37 207.297 1147.68 208.23 1148.84 208.577C1151.84 209.469 1155.53 209.046 1157.41 206.386C1157.95 205.627 1158.49 204.597 1158.68 203.697C1159.23 201.176 1158.62 198.223 1155.88 197.138C1154.66 196.655 1153.36 196.921 1152.09 196.833C1151.85 196.816 1151.62 196.791 1151.39 196.762Z" fill="#F68561"/>
<path d="M1155.27 192.001C1156.26 191.974 1157.92 192.344 1158.6 192.935C1158.68 193.009 1158.84 193.113 1158.86 193.205C1158.9 193.355 1158.75 193.483 1158.65 193.592C1157.17 195.168 1154.14 195.986 1152.22 194.915C1151.96 194.765 1152.1 194.487 1152.15 194.258C1152.37 193.341 1153.22 192.5 1154.27 192.167C1154.6 192.063 1154.93 192.011 1155.27 192.001Z" fill="#A7FF77"/>
<path d="M1152.06 194.511C1152.05 194.477 1152.04 194.446 1152.02 194.424C1151.98 194.382 1151.91 194.341 1151.86 194.318C1151.8 194.281 1151.73 194.267 1151.66 194.267C1151.63 194.267 1151.61 194.268 1151.59 194.272C1151.49 194.288 1151.41 194.338 1151.36 194.447C1151.29 194.588 1151.3 194.748 1151.28 194.912C1151.26 195.146 1151.18 195.359 1151.14 195.588C1151.11 195.764 1151.08 195.943 1151.06 196.123C1151.04 196.255 1151.03 196.387 1151.02 196.52C1150.98 197.014 1150.92 197.507 1150.94 198.006C1150.94 198.075 1150.94 198.144 1150.94 198.212C1150.94 198.247 1150.95 198.281 1150.95 198.316C1150.95 198.361 1150.96 198.414 1150.96 198.466C1150.96 198.485 1150.96 198.504 1150.96 198.523C1150.97 198.604 1150.99 198.679 1151.05 198.721C1151.11 198.774 1151.19 198.799 1151.27 198.8C1151.29 198.8 1151.31 198.795 1151.34 198.792L1151.4 198.787C1151.43 198.774 1151.46 198.758 1151.49 198.746C1151.54 198.729 1151.59 198.692 1151.62 198.637C1151.65 198.587 1151.66 198.536 1151.65 198.477L1151.65 198.435C1151.65 198.383 1151.64 198.329 1151.64 198.275C1151.64 198.169 1151.64 198.06 1151.63 197.954C1151.63 197.714 1151.63 197.472 1151.65 197.233C1151.66 197.09 1151.66 196.945 1151.67 196.802C1151.68 196.603 1151.7 196.406 1151.72 196.208C1151.73 196.166 1151.73 196.126 1151.74 196.085C1151.77 195.832 1151.83 195.605 1151.9 195.366C1151.93 195.255 1151.94 195.138 1151.97 195.032C1152 194.922 1152.07 194.861 1152.07 194.729C1152.07 194.669 1152.07 194.581 1152.06 194.511Z" fill="#A7FF77"/>
<path d="M1148.58 197.874C1148.42 197.642 1147.99 197.619 1147.69 197.735C1147.31 197.878 1146.97 198.191 1146.73 198.543C1146.53 198.846 1146.23 199.481 1146.52 199.829C1146.67 199.998 1146.84 199.932 1147.01 199.84C1147.31 199.673 1147.5 199.31 1147.75 199.076C1148.02 198.836 1148.95 198.406 1148.58 197.874Z" fill="#DBE2F9"/>
<path d="M1151.13 199.24C1150.86 199.185 1150.59 199.094 1150.35 198.979C1150.22 198.919 1149.84 198.637 1149.8 198.933C1149.76 199.291 1150.28 199.6 1150.53 199.715C1150.98 199.914 1151.48 199.986 1151.96 199.894C1152.42 199.805 1152.81 199.589 1153.11 199.21C1153.15 199.161 1153.17 199.103 1153.19 199.048C1153.25 198.85 1153.03 198.848 1152.9 198.904C1152.8 198.949 1152.72 199.021 1152.62 199.066C1152.43 199.152 1152.23 199.222 1152.03 199.26C1151.73 199.314 1151.42 199.3 1151.13 199.24Z" fill="#1E4E4E"/>
<path d="M1157.13 300.407C1155.46 300.407 1151.91 300.407 1152.95 304.424H1182.18C1184.82 304.424 1182.87 300.407 1181.13 300.407C1179.46 297.194 1175.22 295.722 1173.83 296.391C1169.65 290.366 1167.04 295.387 1165.48 294.383C1162.97 292.776 1157.13 296.391 1157.13 300.407H1157.13Z" fill="#1E4E4E"/>
</g>
<g clip-path="url(#clip3_778_10066)">
<path d="M149.748 45.3589V28.8589L150.5 57V76L150.835 81.5C162.201 85.3339 170.89 81.9203 179.752 77.3589C196.252 72.3589 199.252 54.3589 187.252 37.3589C190.752 28.8589 190.252 20.3589 174.248 20.3589C176.581 14.3589 174.448 2.85897 159.248 4.85893C154.248 1.19227 145.148 -3.94107 136.748 4.85893C129.081 3.35892 115.852 10.8589 116.252 26.8589L116.186 26.9235C106.191 36.7521 92.304 50.4071 116.252 72.3589C114.939 79.5641 136.748 86.8589 149.748 80.8589V77.3589V67.3589V59.8589V45.3589Z" fill="#0A1B1B"/>
<path d="M149.748 80.8589C149.748 88.8589 148.752 100.359 147.752 106.359H152.752L150.835 81.5C150.167 81.2744 150.443 81.1367 149.748 80.8589Z" fill="#0A1B1B"/>
<path d="M149.748 28.8589C149.748 28.355 149.748 36.5547 149.748 45.3589M149.748 28.8589C149.748 29.1429 149.748 35.7775 149.748 45.3589M149.748 28.8589V45.3589M149.748 28.8589L150.5 57M149.748 59.8589C149.748 55.9116 149.748 50.531 149.748 45.3589M149.748 59.8589C149.748 54.6325 149.748 49.6941 149.748 45.3589M149.748 59.8589V45.3589M149.748 59.8589C149.748 63.9019 149.748 63.1172 149.748 67.3589M149.748 59.8589V67.3589M149.748 59.8589C150.005 58.8289 150.041 57.9295 150.5 57M164.748 45.3589C161.117 46.6658 153.609 50.7102 150.5 57M149.748 45.3589C147.581 42.0256 141.148 35.7589 132.748 37.3589M149.748 67.3589C146.748 62.0256 139.352 53.8589 127.752 53.8589M149.748 67.3589C149.748 69.0244 149.748 75.6941 149.748 77.3589M149.748 67.3589V77.3589M149.748 77.3589C149.748 79.851 149.748 78.4444 149.748 80.8589M149.748 77.3589V80.8589M149.748 77.3589C150.28 76.8439 149.826 76.5884 150.5 76M175.748 65.8589C168.213 63.3474 156.37 70.8765 150.5 76M116.252 26.8589C115.852 10.8589 129.081 3.35892 136.748 4.85893C145.148 -3.94107 154.248 1.19227 159.248 4.85893C174.448 2.85897 176.581 14.3589 174.248 20.3589C190.252 20.3589 190.752 28.8589 187.252 37.3589C199.252 54.3589 196.252 72.3589 179.752 77.3589C170.89 81.9203 162.201 85.3339 150.835 81.5M116.252 26.8589L116.186 26.9235M116.252 26.8589C116.23 26.8804 116.208 26.9019 116.186 26.9235M149.748 80.8589C136.748 86.8589 114.939 79.5641 116.252 72.3589C92.304 50.4071 106.191 36.7521 116.186 26.9235M149.748 80.8589C149.748 88.8589 148.752 100.359 147.752 106.359H152.752L150.835 81.5M149.748 80.8589C150.443 81.1367 150.167 81.2744 150.835 81.5M149.748 80.8589L150.835 81.5M150.835 81.5L150.5 76M150.5 57V76M150.5 86.5V102.5" stroke="#1E4E4E" stroke-width="2"/>
<path d="M173.391 42.7625C171.902 42.578 170.433 42.2364 169.045 43.0622C167.749 43.8342 166.756 45.152 166.377 46.5627C165.842 48.5557 166.16 50.8248 167.588 52.4213C168.373 53.2968 169.677 54.2298 170.843 54.5766C173.836 55.469 177.535 55.0464 179.412 52.386C179.949 51.627 180.486 50.5971 180.683 49.6968C181.233 47.1764 180.617 44.2229 177.882 43.1381C176.664 42.6552 175.362 42.9208 174.089 42.8332C173.855 42.8161 173.623 42.7913 173.391 42.7625Z" fill="#F68561"/>
<path d="M177.27 38.0014C178.262 37.974 179.925 38.3443 180.597 38.9352C180.68 39.0095 180.837 39.1135 180.86 39.2049C180.897 39.3546 180.755 39.4826 180.651 39.5924C179.172 41.1684 176.142 41.9856 174.224 40.9147C173.956 40.765 174.099 40.4873 174.154 40.2575C174.375 39.3409 175.223 38.4997 176.268 38.1671C176.595 38.0631 176.933 38.0106 177.27 38.0014Z" fill="#A7FF77"/>
<path d="M174.057 40.5115C174.051 40.4765 174.039 40.4456 174.021 40.4241C173.984 40.3824 173.908 40.3406 173.864 40.3178C173.799 40.2815 173.728 40.2667 173.66 40.2667C173.634 40.2667 173.609 40.268 173.585 40.272C173.493 40.2882 173.414 40.338 173.361 40.4469C173.291 40.5882 173.303 40.7482 173.284 40.9124C173.258 41.1464 173.183 41.359 173.141 41.5877C173.109 41.7639 173.083 41.9428 173.06 42.123C173.042 42.2549 173.027 42.3867 173.016 42.5199C172.977 43.0136 172.921 43.5073 172.936 44.0063C172.937 44.0749 172.939 44.1435 172.942 44.2121C172.943 44.2471 172.945 44.2807 172.949 44.3157C172.955 44.3615 172.956 44.4139 172.96 44.4664C172.962 44.4852 172.963 44.5041 172.965 44.5229C172.975 44.6036 172.994 44.6789 173.047 44.7206C173.112 44.7744 173.19 44.7987 173.268 44.8C173.292 44.8 173.315 44.7946 173.339 44.7919L173.4 44.7865C173.429 44.7744 173.459 44.7583 173.49 44.7462C173.539 44.7287 173.587 44.6924 173.621 44.6372C173.652 44.5875 173.655 44.5363 173.654 44.4771L173.651 44.4354C173.647 44.383 173.644 44.3292 173.643 44.2754C173.639 44.1691 173.636 44.0601 173.634 43.9539C173.629 43.7144 173.631 43.4723 173.646 43.2328C173.656 43.0902 173.661 42.945 173.669 42.8024C173.679 42.6033 173.699 42.4055 173.722 42.2078C173.728 42.1661 173.73 42.1257 173.736 42.0854C173.769 41.8325 173.831 41.6051 173.897 41.3657C173.928 41.2554 173.941 41.1384 173.969 41.0321C173.999 40.9218 174.066 40.8612 174.066 40.7294C174.066 40.6689 174.07 40.5814 174.057 40.5115Z" fill="#A7FF77"/>
<path d="M170.581 43.8744C170.424 43.6417 169.993 43.6187 169.685 43.7351C169.306 43.8784 168.968 44.1909 168.73 44.5426C168.526 44.8456 168.227 45.4813 168.523 45.8289C168.668 45.998 168.844 45.9317 169.011 45.8398C169.314 45.6734 169.497 45.3095 169.753 45.0755C170.016 44.8361 170.946 44.406 170.581 43.8744Z" fill="#DBE2F9"/>
<path d="M173.125 45.2399C172.855 45.1852 172.592 45.0943 172.345 44.9793C172.216 44.9191 171.842 44.6366 171.804 44.9333C171.755 45.2914 172.276 45.6002 172.534 45.7151C172.98 45.9144 173.478 45.9856 173.957 45.8936C174.418 45.8049 174.812 45.5892 175.107 45.2104C175.145 45.1611 175.171 45.103 175.189 45.0483C175.255 44.8501 175.026 44.8479 174.904 44.9038C174.805 44.9487 174.72 45.0209 174.621 45.0658C174.432 45.1523 174.234 45.2224 174.032 45.2596C173.73 45.3144 173.424 45.3001 173.125 45.2399Z" fill="#1E4E4E"/>
<path d="M124.391 52.7625C122.902 52.578 121.433 52.2364 120.045 53.0622C118.749 53.8342 117.756 55.152 117.377 56.5627C116.842 58.5557 117.16 60.8248 118.588 62.4213C119.373 63.2968 120.677 64.2298 121.843 64.5766C124.836 65.469 128.535 65.0464 130.412 62.386C130.949 61.627 131.486 60.5971 131.683 59.6968C132.233 57.1764 131.617 54.2229 128.882 53.1381C127.664 52.6552 126.362 52.9208 125.089 52.8332C124.855 52.8161 124.623 52.7913 124.391 52.7625Z" fill="#F68561"/>
<path d="M128.27 48.0014C129.262 47.974 130.925 48.3443 131.597 48.9352C131.68 49.0095 131.837 49.1135 131.86 49.2049C131.897 49.3546 131.755 49.4826 131.651 49.5924C130.172 51.1684 127.142 51.9856 125.224 50.9147C124.956 50.765 125.099 50.4873 125.154 50.2575C125.375 49.3409 126.223 48.4997 127.268 48.1671C127.595 48.0631 127.933 48.0106 128.27 48.0014Z" fill="#A7FF77"/>
<path d="M125.057 50.5115C125.051 50.4765 125.039 50.4456 125.021 50.4241C124.984 50.3824 124.908 50.3406 124.864 50.3178C124.799 50.2815 124.728 50.2667 124.66 50.2667C124.634 50.2667 124.609 50.268 124.585 50.272C124.493 50.2882 124.414 50.338 124.361 50.4469C124.291 50.5882 124.303 50.7482 124.284 50.9124C124.258 51.1464 124.183 51.359 124.141 51.5877C124.109 51.7639 124.083 51.9428 124.06 52.123C124.042 52.2549 124.027 52.3867 124.016 52.5199C123.977 53.0136 123.921 53.5073 123.936 54.0063C123.937 54.0749 123.939 54.1435 123.942 54.2121C123.943 54.2471 123.945 54.2807 123.949 54.3157C123.955 54.3615 123.956 54.4139 123.96 54.4664C123.962 54.4852 123.963 54.5041 123.965 54.5229C123.975 54.6036 123.994 54.6789 124.047 54.7206C124.112 54.7744 124.19 54.7987 124.268 54.8C124.292 54.8 124.315 54.7946 124.339 54.7919L124.4 54.7865C124.429 54.7744 124.459 54.7583 124.49 54.7462C124.539 54.7287 124.587 54.6924 124.621 54.6372C124.652 54.5875 124.655 54.5363 124.654 54.4771L124.651 54.4354C124.647 54.383 124.644 54.3292 124.643 54.2754C124.639 54.1691 124.636 54.0601 124.634 53.9539C124.629 53.7144 124.631 53.4723 124.646 53.2328C124.656 53.0902 124.661 52.945 124.669 52.8024C124.679 52.6033 124.699 52.4055 124.722 52.2078C124.728 52.1661 124.73 52.1257 124.736 52.0854C124.769 51.8325 124.831 51.6051 124.897 51.3657C124.928 51.2554 124.941 51.1384 124.969 51.0321C124.999 50.9218 125.066 50.8612 125.066 50.7294C125.066 50.6689 125.07 50.5814 125.057 50.5115Z" fill="#A7FF77"/>
<path d="M121.581 53.8744C121.424 53.6417 120.993 53.6187 120.685 53.7351C120.306 53.8784 119.968 54.1909 119.73 54.5426C119.526 54.8456 119.227 55.4813 119.523 55.8289C119.668 55.998 119.844 55.9317 120.011 55.8398C120.314 55.6734 120.497 55.3095 120.753 55.0755C121.016 54.8361 121.946 54.406 121.581 53.8744Z" fill="#DBE2F9"/>
<path d="M124.125 55.2399C123.855 55.1852 123.592 55.0943 123.345 54.9793C123.216 54.9191 122.842 54.6366 122.804 54.9333C122.755 55.2914 123.276 55.6002 123.534 55.7151C123.98 55.9144 124.478 55.9856 124.957 55.8936C125.418 55.8049 125.812 55.5892 126.107 55.2104C126.145 55.1611 126.171 55.103 126.189 55.0483C126.255 54.8501 126.026 54.8479 125.904 54.9038C125.805 54.9487 125.72 55.0209 125.621 55.0658C125.432 55.1523 125.234 55.2224 125.032 55.2596C124.73 55.3144 124.424 55.3001 124.125 55.2399Z" fill="#1E4E4E"/>
<path d="M140.391 16.7625C138.902 16.578 137.433 16.2364 136.045 17.0622C134.749 17.8342 133.756 19.152 133.377 20.5627C132.842 22.5557 133.16 24.8248 134.588 26.4213C135.373 27.2968 136.677 28.2298 137.843 28.5766C140.836 29.469 144.535 29.0464 146.412 26.386C146.949 25.627 147.486 24.5971 147.683 23.6968C148.233 21.1764 147.617 18.2229 144.882 17.1381C143.664 16.6552 142.362 16.9208 141.089 16.8332C140.855 16.8161 140.623 16.7913 140.391 16.7625Z" fill="#F68561"/>
<path d="M144.27 12.0014C145.262 11.974 146.925 12.3443 147.597 12.9352C147.68 13.0095 147.837 13.1135 147.86 13.2049C147.897 13.3546 147.755 13.4826 147.651 13.5924C146.172 15.1684 143.142 15.9856 141.224 14.9147C140.956 14.765 141.099 14.4873 141.154 14.2575C141.375 13.3409 142.223 12.4997 143.268 12.1671C143.595 12.0631 143.933 12.0106 144.27 12.0014Z" fill="#A7FF77"/>
<path d="M141.057 14.5115C141.051 14.4765 141.039 14.4456 141.021 14.4241C140.984 14.3824 140.908 14.3406 140.864 14.3178C140.799 14.2815 140.728 14.2667 140.66 14.2667C140.634 14.2667 140.609 14.268 140.585 14.272C140.493 14.2882 140.414 14.338 140.361 14.4469C140.291 14.5882 140.303 14.7482 140.284 14.9124C140.258 15.1464 140.183 15.359 140.141 15.5877C140.109 15.7639 140.083 15.9428 140.06 16.123C140.042 16.2549 140.027 16.3867 140.016 16.5199C139.977 17.0136 139.921 17.5073 139.936 18.0063C139.937 18.0749 139.939 18.1435 139.942 18.2121C139.943 18.2471 139.945 18.2807 139.949 18.3157C139.955 18.3615 139.956 18.4139 139.96 18.4664C139.962 18.4852 139.963 18.5041 139.965 18.5229C139.975 18.6036 139.994 18.6789 140.047 18.7206C140.112 18.7744 140.19 18.7987 140.268 18.8C140.292 18.8 140.315 18.7946 140.339 18.7919L140.4 18.7865C140.429 18.7744 140.459 18.7583 140.49 18.7462C140.539 18.7287 140.587 18.6924 140.621 18.6372C140.652 18.5875 140.655 18.5363 140.654 18.4771L140.651 18.4354C140.647 18.383 140.644 18.3292 140.643 18.2754C140.639 18.1691 140.636 18.0601 140.634 17.9539C140.629 17.7144 140.631 17.4723 140.646 17.2328C140.656 17.0902 140.661 16.945 140.669 16.8024C140.679 16.6033 140.699 16.4055 140.722 16.2078C140.728 16.1661 140.73 16.1257 140.736 16.0854C140.769 15.8325 140.831 15.6051 140.897 15.3657C140.928 15.2554 140.941 15.1384 140.969 15.0321C140.999 14.9218 141.066 14.8612 141.066 14.7294C141.066 14.6689 141.07 14.5814 141.057 14.5115Z" fill="#A7FF77"/>
<path d="M137.581 17.8744C137.424 17.6417 136.993 17.6187 136.685 17.7351C136.306 17.8784 135.968 18.1909 135.73 18.5426C135.526 18.8456 135.227 19.4813 135.523 19.8289C135.668 19.998 135.844 19.9317 136.011 19.8398C136.314 19.6734 136.497 19.3095 136.753 19.0755C137.016 18.8361 137.946 18.406 137.581 17.8744Z" fill="#DBE2F9"/>
<path d="M140.125 19.2399C139.855 19.1852 139.592 19.0943 139.345 18.9793C139.216 18.9191 138.842 18.6366 138.804 18.9333C138.755 19.2914 139.276 19.6002 139.534 19.7151C139.98 19.9144 140.478 19.9856 140.957 19.8936C141.418 19.8049 141.812 19.5892 142.107 19.2104C142.145 19.1611 142.171 19.103 142.189 19.0483C142.255 18.8501 142.026 18.8479 141.904 18.9038C141.805 18.9487 141.72 19.0209 141.621 19.0658C141.432 19.1523 141.234 19.2224 141.032 19.2596C140.73 19.3144 140.424 19.3001 140.125 19.2399Z" fill="#1E4E4E"/>
<path d="M140.553 103.73C139.193 103.73 136.303 103.73 137.154 107H160.947C163.097 107 161.514 103.73 160.098 103.73C158.738 101.114 155.282 99.915 154.149 100.46C150.75 95.555 148.625 99.6425 147.351 98.825C145.312 97.5168 140.553 100.46 140.553 103.73H140.553Z" fill="#1E4E4E"/>
</g>
<path d="M910.641 88.1882C910.641 93.9452 909.924 102.221 909.205 106.539H912.803L911.424 88.6495C910.942 88.4872 911.141 88.3881 910.641 88.1882Z" fill="#1E4E4E"/>
<path d="M910.641 62.6415V50.7676L911.182 71.0187V84.6916L911.424 88.6495C919.602 91.4085 925.855 88.952 932.233 85.6695C944.107 82.0714 946.265 69.1181 937.63 56.8845C940.149 50.7676 939.789 44.6508 928.272 44.6508C929.951 40.3331 928.416 32.0574 917.477 33.4966C913.879 30.858 907.331 27.1639 901.286 33.4966C895.769 32.4172 886.249 37.8143 886.536 49.3284L886.489 49.3749C879.296 56.4478 869.303 66.2743 886.536 82.0714C885.592 87.2564 901.286 92.5059 910.641 88.1882V85.6695V78.4732V73.076V62.6415Z" fill="#091717"/>
<path d="M910.641 50.7676C910.641 50.405 910.641 56.3057 910.641 62.6415M910.641 50.7676C910.641 50.972 910.641 55.7464 910.641 62.6415M910.641 50.7676V62.6415M910.641 50.7676L911.182 71.0187M910.641 73.076C910.641 70.2355 910.641 66.3634 910.641 62.6415M910.641 73.076C910.641 69.315 910.641 65.7612 910.641 62.6415M910.641 73.076V62.6415M910.641 73.076C910.641 75.9855 910.641 75.4208 910.641 78.4732M910.641 73.076V78.4732M910.641 73.076C910.826 72.3348 910.852 71.6876 911.182 71.0187M921.435 62.6415C918.823 63.5819 913.42 66.4924 911.182 71.0187M910.641 62.6415C909.082 60.2427 904.452 55.7331 898.407 56.8845M910.641 78.4732C908.482 74.6352 903.16 68.7583 894.812 68.7583M910.641 78.4732C910.641 79.6718 910.641 84.4714 910.641 85.6695M910.641 78.4732V85.6695M910.641 85.6695C910.641 87.4629 910.641 86.4506 910.641 88.1882M910.641 85.6695V88.1882M910.641 85.6695C911.024 85.2989 910.697 85.115 911.182 84.6916M929.351 77.3938C923.929 75.5864 915.406 81.0046 911.182 84.6916M886.536 49.3284C886.249 37.8143 895.769 32.4172 901.286 33.4966C907.331 27.1639 913.879 30.858 917.477 33.4966C928.416 32.0574 929.951 40.3331 928.272 44.6508C939.789 44.6508 940.149 50.7676 937.63 56.8845C946.265 69.1181 944.107 82.0714 932.233 85.6695C925.855 88.952 919.602 91.4085 911.424 88.6495M886.536 49.3284L886.489 49.3749M886.536 49.3284C886.521 49.3438 886.505 49.3593 886.489 49.3749M910.641 88.1882C901.286 92.5059 885.592 87.2564 886.536 82.0714C869.303 66.2743 879.296 56.4478 886.489 49.3749M910.641 88.1882C910.641 93.9452 909.924 102.221 909.205 106.539H912.803L911.424 88.6495M910.641 88.1882C911.141 88.3881 910.942 88.4872 911.424 88.6495M911.424 88.6495L911.182 84.6916M911.182 71.0187V84.6916" stroke="#1E4E4E" stroke-width="0.719626"/>
<path d="M904.022 104.647C903.043 104.647 900.963 104.647 901.576 107H918.698C920.245 107 919.106 104.647 918.086 104.647C917.108 102.764 914.621 101.901 913.806 102.294C911.36 98.7639 909.831 101.705 908.914 101.117C907.446 100.176 904.022 102.294 904.022 104.647H904.022Z" fill="#091717" stroke="#1E4E4E" stroke-width="0.719626"/>
<g clip-path="url(#clip4_778_10066)">
<path d="M929.938 65.8015C929.061 65.6929 928.197 65.492 927.381 65.9777C926.618 66.4319 926.034 67.2071 925.812 68.0369C925.497 69.2092 925.684 70.544 926.524 71.4831C926.985 71.9981 927.753 72.5469 928.439 72.7509C930.199 73.2759 932.375 73.0273 933.48 71.4623C933.795 71.0159 934.111 70.4101 934.227 69.8805C934.55 68.3979 934.188 66.6605 932.579 66.0224C931.863 65.7383 931.097 65.8946 930.348 65.843C930.21 65.833 930.074 65.8184 929.938 65.8015Z" fill="#F68561"/>
<path d="M932.217 63.0008C932.8 62.9847 933.778 63.2025 934.174 63.5501C934.222 63.5938 934.315 63.655 934.329 63.7088C934.35 63.7968 934.266 63.8721 934.205 63.9367C933.335 64.8638 931.553 65.3445 930.425 64.7145C930.267 64.6265 930.351 64.4631 930.384 64.328C930.513 63.7888 931.012 63.294 931.627 63.0983C931.819 63.0371 932.018 63.0062 932.217 63.0008Z" fill="#A7FF77"/>
<path d="M930.329 64.4774C930.325 64.4568 930.318 64.4386 930.308 64.4259C930.286 64.4014 930.241 64.3769 930.215 64.3634C930.177 64.342 930.136 64.3333 930.095 64.3333C930.08 64.3333 930.065 64.3341 930.051 64.3365C929.997 64.346 929.95 64.3753 929.919 64.4394C929.878 64.5225 929.885 64.6166 929.874 64.7132C929.859 64.8509 929.814 64.9759 929.79 65.1104C929.771 65.2141 929.756 65.3193 929.742 65.4253C929.732 65.5029 929.723 65.5804 929.717 65.6588C929.693 65.9492 929.661 66.2396 929.669 66.5331C929.67 66.5735 929.671 66.6139 929.673 66.6542C929.673 66.6748 929.675 66.6946 929.677 66.7151C929.68 66.742 929.681 66.7729 929.684 66.8038C929.685 66.8148 929.685 66.8259 929.686 66.837C929.692 66.8845 929.704 66.9288 929.735 66.9533C929.773 66.985 929.819 66.9992 929.864 67C929.879 67 929.892 66.9968 929.906 66.9953L929.942 66.9921C929.96 66.985 929.977 66.9755 929.995 66.9684C930.024 66.9581 930.052 66.9367 930.073 66.9043C930.09 66.875 930.093 66.8449 930.092 66.8101L930.09 66.7856C930.088 66.7547 930.086 66.7231 930.085 66.6914C930.083 66.6289 930.081 66.5648 930.08 66.5023C930.077 66.3614 930.078 66.219 930.087 66.0782C930.093 65.9943 930.096 65.9088 930.101 65.8249C930.107 65.7078 930.118 65.5915 930.132 65.4752C930.135 65.4507 930.137 65.4269 930.14 65.4032C930.159 65.2544 930.196 65.1207 930.235 64.9798C930.253 64.9149 930.26 64.8461 930.277 64.7836C930.295 64.7187 930.334 64.6831 930.334 64.6055C930.334 64.5699 930.337 64.5185 930.329 64.4774Z" fill="#A7FF77"/>
<path d="M928.284 66.4555C928.192 66.3187 927.938 66.3052 927.757 66.3736C927.534 66.4579 927.335 66.6417 927.195 66.8486C927.075 67.0268 926.899 67.4008 927.073 67.6053C927.158 67.7047 927.262 67.6657 927.36 67.6116C927.539 67.5138 927.646 67.2997 927.797 67.1621C927.952 67.0213 928.499 66.7682 928.284 66.4555Z" fill="#DBE2F9"/>
<path d="M929.779 67.2588C929.62 67.2266 929.465 67.1731 929.32 67.1055C929.244 67.0701 929.024 66.9039 929.002 67.0784C928.973 67.2891 929.279 67.4707 929.431 67.5383C929.693 67.6555 929.987 67.6974 930.268 67.6433C930.54 67.5911 930.771 67.4642 930.945 67.2414C930.967 67.2124 930.982 67.1783 930.993 67.1461C931.032 67.0295 930.897 67.0282 930.826 67.061C930.767 67.0875 930.717 67.13 930.659 67.1564C930.548 67.2073 930.431 67.2485 930.312 67.2704C930.135 67.3026 929.955 67.2942 929.779 67.2588Z" fill="#1E4E4E"/>
</g>
<g clip-path="url(#clip5_778_10066)">
<path d="M920.938 46.8015C920.061 46.6929 919.197 46.492 918.381 46.9777C917.618 47.4319 917.034 48.2071 916.812 49.0369C916.497 50.2092 916.684 51.544 917.524 52.4831C917.985 52.9981 918.753 53.5469 919.439 53.7509C921.199 54.2759 923.375 54.0273 924.48 52.4623C924.795 52.0159 925.111 51.4101 925.227 50.8805C925.55 49.3979 925.188 47.6605 923.579 47.0224C922.863 46.7383 922.097 46.8946 921.348 46.843C921.21 46.833 921.074 46.8184 920.938 46.8015Z" fill="#F68561"/>
<path d="M923.217 44.0008C923.8 43.9847 924.778 44.2025 925.174 44.5501C925.222 44.5938 925.315 44.655 925.329 44.7088C925.35 44.7968 925.266 44.8721 925.205 44.9367C924.335 45.8638 922.553 46.3445 921.425 45.7145C921.267 45.6265 921.351 45.4631 921.384 45.328C921.513 44.7888 922.012 44.294 922.627 44.0983C922.819 44.0371 923.018 44.0062 923.217 44.0008Z" fill="#A7FF77"/>
<path d="M921.329 45.4774C921.325 45.4568 921.318 45.4386 921.308 45.4259C921.286 45.4014 921.241 45.3769 921.215 45.3634C921.177 45.342 921.136 45.3333 921.095 45.3333C921.08 45.3333 921.065 45.3341 921.051 45.3365C920.997 45.346 920.95 45.3753 920.919 45.4394C920.878 45.5225 920.885 45.6166 920.874 45.7132C920.859 45.8509 920.814 45.9759 920.79 46.1104C920.771 46.2141 920.756 46.3193 920.742 46.4253C920.732 46.5029 920.723 46.5804 920.717 46.6588C920.693 46.9492 920.661 47.2396 920.669 47.5331C920.67 47.5735 920.671 47.6139 920.673 47.6542C920.673 47.6748 920.675 47.6946 920.677 47.7151C920.68 47.742 920.681 47.7729 920.684 47.8038C920.685 47.8148 920.685 47.8259 920.686 47.837C920.692 47.8845 920.704 47.9288 920.735 47.9533C920.773 47.985 920.819 47.9992 920.864 48C920.879 48 920.892 47.9968 920.906 47.9953L920.942 47.9921C920.96 47.985 920.977 47.9755 920.995 47.9684C921.024 47.9581 921.052 47.9367 921.073 47.9043C921.09 47.875 921.093 47.8449 921.092 47.8101L921.09 47.7856C921.088 47.7547 921.086 47.7231 921.085 47.6914C921.083 47.6289 921.081 47.5648 921.08 47.5023C921.077 47.3614 921.078 47.219 921.087 47.0782C921.093 46.9943 921.096 46.9088 921.101 46.8249C921.107 46.7078 921.118 46.5915 921.132 46.4752C921.135 46.4507 921.137 46.4269 921.14 46.4032C921.159 46.2544 921.196 46.1207 921.235 45.9798C921.253 45.9149 921.26 45.8461 921.277 45.7836C921.295 45.7187 921.334 45.6831 921.334 45.6055C921.334 45.5699 921.337 45.5185 921.329 45.4774Z" fill="#A7FF77"/>
<path d="M919.284 47.4555C919.192 47.3187 918.938 47.3052 918.757 47.3736C918.534 47.4579 918.335 47.6417 918.195 47.8486C918.075 48.0268 917.899 48.4008 918.073 48.6053C918.158 48.7047 918.262 48.6657 918.36 48.6116C918.539 48.5138 918.646 48.2997 918.797 48.1621C918.952 48.0213 919.499 47.7682 919.284 47.4555Z" fill="#DBE2F9"/>
<path d="M920.779 48.2588C920.62 48.2266 920.465 48.1731 920.32 48.1055C920.244 48.0701 920.024 47.9039 920.002 48.0784C919.973 48.2891 920.279 48.4707 920.431 48.5383C920.693 48.6555 920.987 48.6974 921.268 48.6433C921.54 48.5911 921.771 48.4642 921.945 48.2414C921.967 48.2124 921.982 48.1783 921.993 48.1461C922.032 48.0295 921.897 48.0282 921.826 48.061C921.767 48.0875 921.717 48.13 921.659 48.1564C921.548 48.2073 921.431 48.2485 921.312 48.2704C921.135 48.3026 920.955 48.2942 920.779 48.2588Z" fill="#1E4E4E"/>
</g>
<g clip-path="url(#clip6_778_10066)">
<path d="M900.938 42.8015C900.061 42.6929 899.197 42.492 898.381 42.9777C897.618 43.4319 897.034 44.2071 896.812 45.0369C896.497 46.2092 896.684 47.544 897.524 48.4831C897.985 48.9981 898.753 49.5469 899.439 49.7509C901.199 50.2759 903.375 50.0273 904.48 48.4623C904.795 48.0159 905.111 47.4101 905.227 46.8805C905.55 45.3979 905.188 43.6605 903.579 43.0224C902.863 42.7383 902.097 42.8946 901.348 42.843C901.21 42.833 901.074 42.8184 900.938 42.8015Z" fill="#F68561"/>
<path d="M903.217 40.0008C903.8 39.9847 904.778 40.2025 905.174 40.5501C905.222 40.5938 905.315 40.655 905.329 40.7088C905.35 40.7968 905.266 40.8721 905.205 40.9367C904.335 41.8638 902.553 42.3445 901.425 41.7145C901.267 41.6265 901.351 41.4631 901.384 41.328C901.513 40.7888 902.012 40.294 902.627 40.0983C902.819 40.0371 903.018 40.0062 903.217 40.0008Z" fill="#A7FF77"/>
<path d="M901.329 41.4774C901.325 41.4568 901.318 41.4386 901.308 41.4259C901.286 41.4014 901.241 41.3769 901.215 41.3634C901.177 41.342 901.136 41.3333 901.095 41.3333C901.08 41.3333 901.065 41.3341 901.051 41.3365C900.997 41.346 900.95 41.3753 900.919 41.4394C900.878 41.5225 900.885 41.6166 900.874 41.7132C900.859 41.8509 900.814 41.9759 900.79 42.1104C900.771 42.2141 900.756 42.3193 900.742 42.4253C900.732 42.5029 900.723 42.5804 900.717 42.6588C900.693 42.9492 900.661 43.2396 900.669 43.5331C900.67 43.5735 900.671 43.6139 900.673 43.6542C900.673 43.6748 900.675 43.6946 900.677 43.7151C900.68 43.742 900.681 43.7729 900.684 43.8038C900.685 43.8148 900.685 43.8259 900.686 43.837C900.692 43.8845 900.704 43.9288 900.735 43.9533C900.773 43.985 900.819 43.9992 900.864 44C900.879 44 900.892 43.9968 900.906 43.9953L900.942 43.9921C900.96 43.985 900.977 43.9755 900.995 43.9684C901.024 43.9581 901.052 43.9367 901.073 43.9043C901.09 43.875 901.093 43.8449 901.092 43.8101L901.09 43.7856C901.088 43.7547 901.086 43.7231 901.085 43.6914C901.083 43.6289 901.081 43.5648 901.08 43.5023C901.077 43.3614 901.078 43.219 901.087 43.0782C901.093 42.9943 901.096 42.9088 901.101 42.8249C901.107 42.7078 901.118 42.5915 901.132 42.4752C901.135 42.4507 901.137 42.4269 901.14 42.4032C901.159 42.2544 901.196 42.1207 901.235 41.9798C901.253 41.9149 901.26 41.8461 901.277 41.7836C901.295 41.7187 901.334 41.6831 901.334 41.6055C901.334 41.5699 901.337 41.5185 901.329 41.4774Z" fill="#A7FF77"/>
<path d="M899.284 43.4555C899.192 43.3187 898.938 43.3052 898.757 43.3736C898.534 43.4579 898.335 43.6417 898.195 43.8486C898.075 44.0268 897.899 44.4008 898.073 44.6053C898.158 44.7047 898.262 44.6657 898.36 44.6116C898.539 44.5138 898.646 44.2997 898.797 44.1621C898.952 44.0213 899.499 43.7682 899.284 43.4555Z" fill="#DBE2F9"/>
<path d="M900.779 44.2588C900.62 44.2266 900.465 44.1731 900.32 44.1055C900.244 44.0701 900.024 43.9039 900.002 44.0784C899.973 44.2891 900.279 44.4707 900.431 44.5383C900.693 44.6555 900.987 44.6974 901.268 44.6433C901.54 44.5911 901.771 44.4642 901.945 44.2414C901.967 44.2124 901.982 44.1783 901.993 44.1461C902.032 44.0295 901.897 44.0282 901.826 44.061C901.767 44.0875 901.717 44.13 901.659 44.1564C901.548 44.2073 901.431 44.2485 901.312 44.2704C901.135 44.3026 900.955 44.2942 900.779 44.2588Z" fill="#1E4E4E"/>
</g>
<g clip-path="url(#clip7_778_10066)">
<path d="M889.938 58.8015C889.061 58.6929 888.197 58.492 887.381 58.9777C886.618 59.4319 886.034 60.2071 885.812 61.0369C885.497 62.2092 885.684 63.544 886.524 64.4831C886.985 64.9981 887.753 65.5469 888.439 65.7509C890.199 66.2759 892.375 66.0273 893.48 64.4623C893.795 64.0159 894.111 63.4101 894.227 62.8805C894.55 61.3979 894.188 59.6605 892.579 59.0224C891.863 58.7383 891.097 58.8946 890.348 58.843C890.21 58.833 890.074 58.8184 889.938 58.8015Z" fill="#F68561"/>
<path d="M892.217 56.0008C892.8 55.9847 893.778 56.2025 894.174 56.5501C894.222 56.5938 894.315 56.655 894.329 56.7088C894.35 56.7968 894.266 56.8721 894.205 56.9367C893.335 57.8638 891.553 58.3445 890.425 57.7145C890.267 57.6265 890.351 57.4631 890.384 57.328C890.513 56.7888 891.012 56.294 891.627 56.0983C891.819 56.0371 892.018 56.0062 892.217 56.0008Z" fill="#A7FF77"/>
<path d="M890.329 57.4774C890.325 57.4568 890.318 57.4386 890.308 57.4259C890.286 57.4014 890.241 57.3769 890.215 57.3634C890.177 57.342 890.136 57.3333 890.095 57.3333C890.08 57.3333 890.065 57.3341 890.051 57.3365C889.997 57.346 889.95 57.3753 889.919 57.4394C889.878 57.5225 889.885 57.6166 889.874 57.7132C889.859 57.8509 889.814 57.9759 889.79 58.1104C889.771 58.2141 889.756 58.3193 889.742 58.4253C889.732 58.5029 889.723 58.5804 889.717 58.6588C889.693 58.9492 889.661 59.2396 889.669 59.5331C889.67 59.5735 889.671 59.6139 889.673 59.6542C889.673 59.6748 889.675 59.6946 889.677 59.7151C889.68 59.742 889.681 59.7729 889.684 59.8038C889.685 59.8148 889.685 59.8259 889.686 59.837C889.692 59.8845 889.704 59.9288 889.735 59.9533C889.773 59.985 889.819 59.9992 889.864 60C889.879 60 889.892 59.9968 889.906 59.9953L889.942 59.9921C889.96 59.985 889.977 59.9755 889.995 59.9684C890.024 59.9581 890.052 59.9367 890.073 59.9043C890.09 59.875 890.093 59.8449 890.092 59.8101L890.09 59.7856C890.088 59.7547 890.086 59.7231 890.085 59.6914C890.083 59.6289 890.081 59.5648 890.08 59.5023C890.077 59.3614 890.078 59.219 890.087 59.0782C890.093 58.9943 890.096 58.9088 890.101 58.8249C890.107 58.7078 890.118 58.5915 890.132 58.4752C890.135 58.4507 890.137 58.4269 890.14 58.4032C890.159 58.2544 890.196 58.1207 890.235 57.9798C890.253 57.9149 890.26 57.8461 890.277 57.7836C890.295 57.7187 890.334 57.6831 890.334 57.6055C890.334 57.5699 890.337 57.5185 890.329 57.4774Z" fill="#A7FF77"/>
<path d="M888.284 59.4555C888.192 59.3187 887.938 59.3052 887.757 59.3736C887.534 59.4579 887.335 59.6417 887.195 59.8486C887.075 60.0268 886.899 60.4008 887.073 60.6053C887.158 60.7047 887.262 60.6657 887.36 60.6116C887.539 60.5138 887.646 60.2997 887.797 60.1621C887.952 60.0213 888.499 59.7682 888.284 59.4555Z" fill="#DBE2F9"/>
<path d="M889.779 60.2588C889.62 60.2266 889.465 60.1731 889.32 60.1055C889.244 60.0701 889.024 59.9039 889.002 60.0784C888.973 60.2891 889.279 60.4707 889.431 60.5383C889.693 60.6555 889.987 60.6974 890.268 60.6433C890.54 60.5911 890.771 60.4642 890.945 60.2414C890.967 60.2124 890.982 60.1783 890.993 60.1461C891.032 60.0295 890.897 60.0282 890.826 60.061C890.767 60.0875 890.717 60.13 890.659 60.1564C890.548 60.2073 890.431 60.2485 890.312 60.2704C890.135 60.3026 889.955 60.2942 889.779 60.2588Z" fill="#1E4E4E"/>
</g>
<defs>
<clipPath id="clip0_778_10066">
<rect width="92" height="107" fill="white" transform="translate(0 101)"/>
</clipPath>
<clipPath id="clip1_778_10066">
<rect width="92" height="107" fill="white" transform="translate(728 63)"/>
</clipPath>
<clipPath id="clip2_778_10066">
<rect width="113" height="131.424" fill="white" transform="translate(1111 173)"/>
</clipPath>
<clipPath id="clip3_778_10066">
<rect width="92" height="107" fill="white" transform="translate(103)"/>
</clipPath>
<clipPath id="clip4_778_10066">
<rect width="10" height="10" fill="white" transform="translate(925 63)"/>
</clipPath>
<clipPath id="clip5_778_10066">
<rect width="10" height="10" fill="white" transform="translate(916 44)"/>
</clipPath>
<clipPath id="clip6_778_10066">
<rect width="10" height="10" fill="white" transform="translate(896 40)"/>
</clipPath>
<clipPath id="clip7_778_10066">
<rect width="10" height="10" fill="white" transform="translate(885 56)"/>
</clipPath>
</defs>
</svg>
