<svg width="1224" height="305" viewBox="0 0 1224 305" fill="none" xmlns="http://www.w3.org/2000/svg">
<g clip-path="url(#clip0_750_5207)">
<path d="M46.7477 146.359V129.859L47.5 158V177L47.8354 182.5C59.2007 186.334 67.8899 182.92 76.752 178.359C93.252 173.359 96.252 155.359 84.252 138.359C87.752 129.859 87.252 121.359 71.2479 121.359C73.5811 115.359 71.4477 103.859 56.2479 105.859C51.2479 102.192 42.1477 97.0589 33.7477 105.859C26.081 104.359 12.8519 111.859 13.2519 127.859L13.1862 127.924C3.19077 137.752 -10.696 151.407 13.2516 173.359C11.939 180.564 33.7477 187.859 46.7477 181.859V178.359V168.359V160.859V146.359Z" fill="#0A1B1B"/>
<path d="M46.7477 181.859C46.7477 189.859 45.752 201.359 44.752 207.359H49.752L47.8354 182.5C47.1666 182.274 47.4426 182.137 46.7477 181.859Z" fill="#0A1B1B"/>
<path d="M46.7477 129.859C46.7477 129.355 46.7477 137.555 46.7477 146.359M46.7477 129.859C46.7477 130.143 46.7477 136.778 46.7477 146.359M46.7477 129.859V146.359M46.7477 129.859L47.5 158M46.7477 160.859C46.7477 156.912 46.7477 151.531 46.7477 146.359M46.7477 160.859C46.7477 155.633 46.7477 150.694 46.7477 146.359M46.7477 160.859V146.359M46.7477 160.859C46.7477 164.902 46.7477 164.117 46.7477 168.359M46.7477 160.859V168.359M46.7477 160.859C47.0052 159.829 47.0405 158.929 47.5 158M61.7477 146.359C58.1174 147.666 50.6094 151.71 47.5 158M46.7477 146.359C44.581 143.026 38.1477 136.759 29.7477 138.359M46.7477 168.359C43.7477 163.026 36.352 154.859 24.752 154.859M46.7477 168.359C46.7477 170.024 46.7477 176.694 46.7477 178.359M46.7477 168.359V178.359M46.7477 178.359C46.7477 180.851 46.7477 179.444 46.7477 181.859M46.7477 178.359V181.859M46.7477 178.359C47.2799 177.844 46.8259 177.588 47.5 177M72.7477 166.859C65.2129 164.347 53.3698 171.877 47.5 177M13.2519 127.859C12.8519 111.859 26.081 104.359 33.7477 105.859C42.1477 97.0589 51.2479 102.192 56.2479 105.859C71.4477 103.859 73.5811 115.359 71.2479 121.359C87.252 121.359 87.752 129.859 84.252 138.359C96.252 155.359 93.252 173.359 76.752 178.359C67.8899 182.92 59.2007 186.334 47.8354 182.5M13.2519 127.859L13.1862 127.924M13.2519 127.859C13.23 127.88 13.2081 127.902 13.1862 127.924M46.7477 181.859C33.7477 187.859 11.939 180.564 13.2516 173.359C-10.696 151.407 3.19077 137.752 13.1862 127.924M46.7477 181.859C46.7477 189.859 45.752 201.359 44.752 207.359H49.752L47.8354 182.5M46.7477 181.859C47.4426 182.137 47.1666 182.274 47.8354 182.5M46.7477 181.859L47.8354 182.5M47.8354 182.5L47.5 177M47.5 158V177M47.5 187.5V203.5" stroke="#1E4E4E" stroke-width="2"/>
<path d="M37.553 204.73C36.1934 204.73 33.3032 204.73 34.154 208H57.9474C60.0971 208 58.5139 204.73 57.0976 204.73C55.738 202.114 52.2823 200.915 51.1492 201.46C47.7502 196.555 45.6255 200.642 44.3511 199.825C42.3119 198.517 37.553 201.46 37.553 204.73H37.553Z" fill="#1E4E4E"/>
</g>
<g clip-path="url(#clip1_750_5207)">
<path d="M774.748 108.359V91.8589L775.5 120V139L775.835 144.5C787.201 148.334 795.89 144.92 804.752 140.359C821.252 135.359 824.252 117.359 812.252 100.359C815.752 91.8589 815.252 83.3589 799.248 83.3589C801.581 77.3589 799.448 65.859 784.248 67.8589C779.248 64.1923 770.148 59.0589 761.748 67.8589C754.081 66.3589 740.852 73.8589 741.252 89.8589L741.186 89.9235C731.191 99.7521 717.304 113.407 741.252 135.359C739.939 142.564 761.748 149.859 774.748 143.859V140.359V130.359V122.859V108.359Z" fill="#0A1B1B"/>
<path d="M774.748 143.859C774.748 151.859 773.752 163.359 772.752 169.359H777.752L775.835 144.5C775.167 144.274 775.443 144.137 774.748 143.859Z" fill="#0A1B1B"/>
<path d="M774.748 91.8589C774.748 91.355 774.748 99.5547 774.748 108.359M774.748 91.8589C774.748 92.1429 774.748 98.7775 774.748 108.359M774.748 91.8589V108.359M774.748 91.8589L775.5 120M774.748 122.859C774.748 118.912 774.748 113.531 774.748 108.359M774.748 122.859C774.748 117.633 774.748 112.694 774.748 108.359M774.748 122.859V108.359M774.748 122.859C774.748 126.902 774.748 126.117 774.748 130.359M774.748 122.859V130.359M774.748 122.859C775.005 121.829 775.041 120.929 775.5 120M789.748 108.359C786.117 109.666 778.609 113.71 775.5 120M774.748 108.359C772.581 105.026 766.148 98.7589 757.748 100.359M774.748 130.359C771.748 125.026 764.352 116.859 752.752 116.859M774.748 130.359C774.748 132.024 774.748 138.694 774.748 140.359M774.748 130.359V140.359M774.748 140.359C774.748 142.851 774.748 141.444 774.748 143.859M774.748 140.359V143.859M774.748 140.359C775.28 139.844 774.826 139.588 775.5 139M800.748 128.859C793.213 126.347 781.37 133.877 775.5 139M741.252 89.8589C740.852 73.8589 754.081 66.3589 761.748 67.8589C770.148 59.0589 779.248 64.1923 784.248 67.8589C799.448 65.859 801.581 77.3589 799.248 83.3589C815.252 83.3589 815.752 91.8589 812.252 100.359C824.252 117.359 821.252 135.359 804.752 140.359C795.89 144.92 787.201 148.334 775.835 144.5M741.252 89.8589L741.186 89.9235M741.252 89.8589C741.23 89.8804 741.208 89.9019 741.186 89.9235M774.748 143.859C761.748 149.859 739.939 142.564 741.252 135.359C717.304 113.407 731.191 99.7521 741.186 89.9235M774.748 143.859C774.748 151.859 773.752 163.359 772.752 169.359H777.752L775.835 144.5M774.748 143.859C775.443 144.137 775.167 144.274 775.835 144.5M774.748 143.859L775.835 144.5M775.835 144.5L775.5 139M775.5 120V139M775.5 149.5V165.5" stroke="#1E4E4E" stroke-width="2"/>
<path d="M765.553 166.73C764.193 166.73 761.303 166.73 762.154 170H785.947C788.097 170 786.514 166.73 785.098 166.73C783.738 164.114 780.282 162.915 779.149 163.46C775.75 158.555 773.625 162.642 772.351 161.825C770.312 160.517 765.553 163.46 765.553 166.73H765.553Z" fill="#1E4E4E"/>
</g>
<g clip-path="url(#clip2_750_5207)">
<path d="M1168.42 228.713V208.446L1169.34 243.011V266.348L1169.75 273.103C1183.71 277.812 1194.39 273.619 1205.27 268.017C1225.54 261.876 1229.22 239.767 1214.48 218.887C1218.78 208.446 1218.17 198.006 1198.51 198.006C1201.38 190.636 1198.76 176.512 1180.09 178.968C1173.95 174.464 1162.77 168.159 1152.45 178.968C1143.03 177.126 1126.79 186.338 1127.28 205.99L1127.2 206.069C1114.92 218.141 1097.86 234.913 1127.28 261.876C1125.66 270.725 1152.45 279.685 1168.42 272.316V268.017V255.734V246.522V228.713Z" fill="#0A1B1B"/>
<path d="M1168.42 272.316C1168.42 282.142 1167.2 296.267 1165.97 303.637H1172.11L1169.75 273.103C1168.93 272.826 1169.27 272.657 1168.42 272.316Z" fill="#0A1B1B"/>
<path d="M1168.42 208.446C1168.42 207.827 1168.42 217.899 1168.42 228.713M1168.42 208.446C1168.42 208.795 1168.42 216.944 1168.42 228.713M1168.42 208.446V228.713M1168.42 208.446L1169.34 243.011M1168.42 246.522C1168.42 241.674 1168.42 235.065 1168.42 228.713M1168.42 246.522C1168.42 240.103 1168.42 234.037 1168.42 228.713M1168.42 246.522V228.713M1168.42 246.522C1168.42 251.488 1168.42 250.524 1168.42 255.734M1168.42 246.522V255.734M1168.42 246.522C1168.73 245.257 1168.78 244.152 1169.34 243.011M1186.84 228.713C1182.38 230.318 1173.16 235.285 1169.34 243.011M1168.42 228.713C1165.76 224.618 1157.86 216.921 1147.54 218.887M1168.42 255.734C1164.73 249.184 1155.65 239.153 1141.4 239.153M1168.42 255.734C1168.42 257.78 1168.42 265.972 1168.42 268.017M1168.42 255.734V268.017M1168.42 268.017C1168.42 271.078 1168.42 269.35 1168.42 272.316M1168.42 268.017V272.316M1168.42 268.017C1169.07 267.384 1168.51 267.07 1169.34 266.348M1200.35 253.892C1191.1 250.807 1176.55 260.055 1169.34 266.348M1127.28 205.99C1126.79 186.338 1143.03 177.126 1152.45 178.968C1162.77 168.159 1173.95 174.464 1180.09 178.968C1198.76 176.512 1201.38 190.636 1198.51 198.006C1218.17 198.006 1218.78 208.446 1214.48 218.887C1229.22 239.767 1225.54 261.876 1205.27 268.017C1194.39 273.619 1183.71 277.812 1169.75 273.103M1127.28 205.99L1127.2 206.069M1127.28 205.99C1127.25 206.016 1127.22 206.043 1127.2 206.069M1168.42 272.316C1152.45 279.685 1125.66 270.725 1127.28 261.876C1097.86 234.913 1114.92 218.141 1127.2 206.069M1168.42 272.316C1168.42 282.142 1167.2 296.267 1165.97 303.637H1172.11L1169.75 273.103M1168.42 272.316C1169.27 272.657 1168.93 272.826 1169.75 273.103M1168.42 272.316L1169.75 273.103M1169.75 273.103L1169.34 266.348M1169.34 243.011V266.348M1169.34 279.245V298.897" stroke="#1E4E4E" stroke-width="2.45652"/>
<path d="M1157.13 300.407C1155.46 300.407 1151.91 300.407 1152.95 304.424H1182.18C1184.82 304.424 1182.87 300.407 1181.13 300.407C1179.46 297.194 1175.22 295.722 1173.83 296.391C1169.65 290.366 1167.04 295.387 1165.48 294.383C1162.97 292.776 1157.13 296.391 1157.13 300.407H1157.13Z" fill="#1E4E4E"/>
</g>
<g clip-path="url(#clip3_750_5207)">
<path d="M149.748 45.3589V28.8589L150.5 57V76L150.835 81.5C162.201 85.3339 170.89 81.9203 179.752 77.3589C196.252 72.3589 199.252 54.3589 187.252 37.3589C190.752 28.8589 190.252 20.3589 174.248 20.3589C176.581 14.3589 174.448 2.85897 159.248 4.85893C154.248 1.19227 145.148 -3.94107 136.748 4.85893C129.081 3.35892 115.852 10.8589 116.252 26.8589L116.186 26.9235C106.191 36.7521 92.304 50.4071 116.252 72.3589C114.939 79.5641 136.748 86.8589 149.748 80.8589V77.3589V67.3589V59.8589V45.3589Z" fill="#0A1B1B"/>
<path d="M149.748 80.8589C149.748 88.8589 148.752 100.359 147.752 106.359H152.752L150.835 81.5C150.167 81.2744 150.443 81.1367 149.748 80.8589Z" fill="#0A1B1B"/>
<path d="M149.748 28.8589C149.748 28.355 149.748 36.5547 149.748 45.3589M149.748 28.8589C149.748 29.1429 149.748 35.7775 149.748 45.3589M149.748 28.8589V45.3589M149.748 28.8589L150.5 57M149.748 59.8589C149.748 55.9116 149.748 50.531 149.748 45.3589M149.748 59.8589C149.748 54.6325 149.748 49.6941 149.748 45.3589M149.748 59.8589V45.3589M149.748 59.8589C149.748 63.9019 149.748 63.1172 149.748 67.3589M149.748 59.8589V67.3589M149.748 59.8589C150.005 58.8289 150.041 57.9295 150.5 57M164.748 45.3589C161.117 46.6658 153.609 50.7102 150.5 57M149.748 45.3589C147.581 42.0256 141.148 35.7589 132.748 37.3589M149.748 67.3589C146.748 62.0256 139.352 53.8589 127.752 53.8589M149.748 67.3589C149.748 69.0244 149.748 75.6941 149.748 77.3589M149.748 67.3589V77.3589M149.748 77.3589C149.748 79.851 149.748 78.4444 149.748 80.8589M149.748 77.3589V80.8589M149.748 77.3589C150.28 76.8439 149.826 76.5884 150.5 76M175.748 65.8589C168.213 63.3474 156.37 70.8765 150.5 76M116.252 26.8589C115.852 10.8589 129.081 3.35892 136.748 4.85893C145.148 -3.94107 154.248 1.19227 159.248 4.85893C174.448 2.85897 176.581 14.3589 174.248 20.3589C190.252 20.3589 190.752 28.8589 187.252 37.3589C199.252 54.3589 196.252 72.3589 179.752 77.3589C170.89 81.9203 162.201 85.3339 150.835 81.5M116.252 26.8589L116.186 26.9235M116.252 26.8589C116.23 26.8804 116.208 26.9019 116.186 26.9235M149.748 80.8589C136.748 86.8589 114.939 79.5641 116.252 72.3589C92.304 50.4071 106.191 36.7521 116.186 26.9235M149.748 80.8589C149.748 88.8589 148.752 100.359 147.752 106.359H152.752L150.835 81.5M149.748 80.8589C150.443 81.1367 150.167 81.2744 150.835 81.5M149.748 80.8589L150.835 81.5M150.835 81.5L150.5 76M150.5 57V76M150.5 86.5V102.5" stroke="#1E4E4E" stroke-width="2"/>
<path d="M140.553 103.73C139.193 103.73 136.303 103.73 137.154 107H160.947C163.097 107 161.514 103.73 160.098 103.73C158.738 101.114 155.282 99.915 154.149 100.46C150.75 95.555 148.625 99.6425 147.351 98.825C145.312 97.5168 140.553 100.46 140.553 103.73H140.553Z" fill="#1E4E4E"/>
</g>
<path d="M910.641 88.1882C910.641 93.9452 909.924 102.221 909.205 106.539H912.803L911.424 88.6495C910.942 88.4872 911.141 88.3881 910.641 88.1882Z" fill="#1E4E4E"/>
<path d="M910.641 62.6415V50.7676L911.182 71.0187V84.6916L911.424 88.6495C919.602 91.4085 925.855 88.952 932.233 85.6695C944.107 82.0714 946.265 69.1181 937.63 56.8845C940.149 50.7676 939.789 44.6508 928.272 44.6508C929.951 40.3331 928.416 32.0574 917.477 33.4966C913.879 30.858 907.331 27.1639 901.286 33.4966C895.769 32.4172 886.249 37.8143 886.536 49.3284L886.489 49.3749C879.296 56.4478 869.303 66.2743 886.536 82.0714C885.592 87.2564 901.286 92.5059 910.641 88.1882V85.6695V78.4732V73.076V62.6415Z" fill="#091717"/>
<path d="M910.641 50.7676C910.641 50.405 910.641 56.3057 910.641 62.6415M910.641 50.7676C910.641 50.972 910.641 55.7464 910.641 62.6415M910.641 50.7676V62.6415M910.641 50.7676L911.182 71.0187M910.641 73.076C910.641 70.2355 910.641 66.3634 910.641 62.6415M910.641 73.076C910.641 69.315 910.641 65.7612 910.641 62.6415M910.641 73.076V62.6415M910.641 73.076C910.641 75.9855 910.641 75.4208 910.641 78.4732M910.641 73.076V78.4732M910.641 73.076C910.826 72.3348 910.852 71.6876 911.182 71.0187M921.435 62.6415C918.823 63.5819 913.42 66.4924 911.182 71.0187M910.641 62.6415C909.082 60.2427 904.452 55.7331 898.407 56.8845M910.641 78.4732C908.482 74.6352 903.16 68.7583 894.812 68.7583M910.641 78.4732C910.641 79.6718 910.641 84.4714 910.641 85.6695M910.641 78.4732V85.6695M910.641 85.6695C910.641 87.4629 910.641 86.4506 910.641 88.1882M910.641 85.6695V88.1882M910.641 85.6695C911.024 85.2989 910.697 85.115 911.182 84.6916M929.351 77.3938C923.929 75.5864 915.406 81.0046 911.182 84.6916M886.536 49.3284C886.249 37.8143 895.769 32.4172 901.286 33.4966C907.331 27.1639 913.879 30.858 917.477 33.4966C928.416 32.0574 929.951 40.3331 928.272 44.6508C939.789 44.6508 940.149 50.7676 937.63 56.8845C946.265 69.1181 944.107 82.0714 932.233 85.6695C925.855 88.952 919.602 91.4085 911.424 88.6495M886.536 49.3284L886.489 49.3749M886.536 49.3284C886.521 49.3438 886.505 49.3593 886.489 49.3749M910.641 88.1882C901.286 92.5059 885.592 87.2564 886.536 82.0714C869.303 66.2743 879.296 56.4478 886.489 49.3749M910.641 88.1882C910.641 93.9452 909.924 102.221 909.205 106.539H912.803L911.424 88.6495M910.641 88.1882C911.141 88.3881 910.942 88.4872 911.424 88.6495M911.424 88.6495L911.182 84.6916M911.182 71.0187V84.6916" stroke="#1E4E4E" stroke-width="0.719626"/>
<path d="M904.022 104.647C903.043 104.647 900.963 104.647 901.576 107H918.698C920.245 107 919.106 104.647 918.086 104.647C917.108 102.764 914.621 101.901 913.806 102.294C911.36 98.7639 909.831 101.705 908.914 101.117C907.446 100.176 904.022 102.294 904.022 104.647H904.022Z" fill="#091717" stroke="#1E4E4E" stroke-width="0.719626"/>
<defs>
<clipPath id="clip0_750_5207">
<rect width="92" height="107" fill="white" transform="translate(0 101)"/>
</clipPath>
<clipPath id="clip1_750_5207">
<rect width="92" height="107" fill="white" transform="translate(728 63)"/>
</clipPath>
<clipPath id="clip2_750_5207">
<rect width="113" height="131.424" fill="white" transform="translate(1111 173)"/>
</clipPath>
<clipPath id="clip3_750_5207">
<rect width="92" height="107" fill="white" transform="translate(103)"/>
</clipPath>
</defs>
</svg>
