<svg width="240" height="164" viewBox="0 0 240 164" fill="none" xmlns="http://www.w3.org/2000/svg">
<path d="M54.692 143.18C54.068 143.18 53.508 143.084 53.012 142.892C52.516 142.7 52.096 142.42 51.752 142.052C51.408 141.676 51.144 141.22 50.96 140.684C50.776 140.148 50.684 139.532 50.684 138.836C50.684 138.14 50.788 137.524 50.996 136.988C51.212 136.452 51.504 136 51.872 135.632C52.24 135.256 52.672 134.972 53.168 134.78C53.664 134.588 54.196 134.492 54.764 134.492C55.108 134.492 55.42 134.52 55.7 134.576C55.98 134.624 56.224 134.68 56.432 134.744C56.64 134.808 56.812 134.876 56.948 134.948C57.084 135.02 57.18 135.072 57.236 135.104L56.792 136.34C56.6 136.22 56.324 136.108 55.964 136.004C55.612 135.892 55.228 135.836 54.812 135.836C54.452 135.836 54.116 135.9 53.804 136.028C53.492 136.148 53.22 136.332 52.988 136.58C52.764 136.828 52.588 137.14 52.46 137.516C52.332 137.892 52.268 138.328 52.268 138.824C52.268 139.264 52.316 139.668 52.412 140.036C52.516 140.404 52.672 140.724 52.88 140.996C53.088 141.26 53.352 141.468 53.672 141.62C53.992 141.764 54.376 141.836 54.824 141.836C55.36 141.836 55.796 141.784 56.132 141.68C56.468 141.568 56.728 141.464 56.912 141.368L57.32 142.604C57.224 142.668 57.092 142.732 56.924 142.796C56.764 142.86 56.572 142.924 56.348 142.988C56.124 143.044 55.872 143.088 55.592 143.12C55.312 143.16 55.012 143.18 54.692 143.18ZM63.8003 134.96C63.7203 134.976 63.6323 134.992 63.5363 135.008C63.4483 135.024 63.3403 135.04 63.2123 135.056C63.0843 135.072 62.9323 135.092 62.7563 135.116C62.5883 135.132 62.3923 135.152 62.1683 135.176C61.8243 135.216 61.5163 135.284 61.2443 135.38C60.9723 135.468 60.7363 135.6 60.5363 135.776C60.3363 135.944 60.1723 136.16 60.0443 136.424C59.9163 136.688 59.8243 137.008 59.7683 137.384C60.0163 137.224 60.2843 137.1 60.5723 137.012C60.8683 136.924 61.1563 136.88 61.4363 136.88C62.2683 136.88 62.9283 137.144 63.4163 137.672C63.9043 138.2 64.1483 138.964 64.1483 139.964C64.1483 140.444 64.0803 140.88 63.9443 141.272C63.8083 141.664 63.6123 142 63.3563 142.28C63.1003 142.56 62.7923 142.78 62.4323 142.94C62.0723 143.092 61.6643 143.168 61.2083 143.168C60.6403 143.168 60.1643 143.076 59.7803 142.892C59.3963 142.7 59.0883 142.432 58.8563 142.088C58.6243 141.736 58.4563 141.316 58.3523 140.828C58.2483 140.34 58.1963 139.796 58.1963 139.196C58.1963 138.412 58.2603 137.72 58.3883 137.12C58.5243 136.512 58.7403 135.992 59.0363 135.56C59.3403 135.128 59.7323 134.78 60.2123 134.516C60.7003 134.244 61.2923 134.056 61.9883 133.952C62.3483 133.896 62.6483 133.852 62.8883 133.82C63.1363 133.788 63.3843 133.744 63.6323 133.688L63.8003 134.96ZM59.7203 138.656C59.7043 138.76 59.6963 138.888 59.6963 139.04C59.6963 139.184 59.6963 139.32 59.6963 139.448C59.6963 139.808 59.7203 140.14 59.7683 140.444C59.8163 140.748 59.9003 141.008 60.0203 141.224C60.1403 141.44 60.2963 141.608 60.4883 141.728C60.6803 141.848 60.9203 141.908 61.2083 141.908C61.4563 141.908 61.6723 141.86 61.8563 141.764C62.0403 141.668 62.1923 141.532 62.3123 141.356C62.4323 141.18 62.5203 140.976 62.5763 140.744C62.6403 140.504 62.6723 140.244 62.6723 139.964C62.6723 139.724 62.6443 139.496 62.5883 139.28C62.5403 139.056 62.4563 138.86 62.3363 138.692C62.2243 138.516 62.0723 138.376 61.8803 138.272C61.6883 138.168 61.4523 138.116 61.1723 138.116C60.9003 138.116 60.6283 138.164 60.3563 138.26C60.0923 138.356 59.8803 138.488 59.7203 138.656ZM71.3305 139.856C71.3305 140.352 71.2585 140.804 71.1145 141.212C70.9705 141.62 70.7665 141.968 70.5025 142.256C70.2385 142.544 69.9185 142.768 69.5425 142.928C69.1745 143.088 68.7665 143.168 68.3185 143.168C67.8705 143.168 67.4625 143.088 67.0945 142.928C66.7265 142.768 66.4105 142.544 66.1465 142.256C65.8825 141.968 65.6745 141.62 65.5225 141.212C65.3785 140.804 65.3065 140.352 65.3065 139.856C65.3065 139.36 65.3785 138.912 65.5225 138.512C65.6745 138.104 65.8825 137.756 66.1465 137.468C66.4185 137.18 66.7385 136.96 67.1065 136.808C67.4745 136.648 67.8785 136.568 68.3185 136.568C68.7585 136.568 69.1625 136.648 69.5305 136.808C69.9065 136.96 70.2265 137.18 70.4905 137.468C70.7545 137.756 70.9585 138.104 71.1025 138.512C71.2545 138.912 71.3305 139.36 71.3305 139.856ZM69.8425 139.856C69.8425 139.232 69.7065 138.74 69.4345 138.38C69.1705 138.012 68.7985 137.828 68.3185 137.828C67.8385 137.828 67.4625 138.012 67.1905 138.38C66.9265 138.74 66.7945 139.232 66.7945 139.856C66.7945 140.488 66.9265 140.988 67.1905 141.356C67.4625 141.724 67.8385 141.908 68.3185 141.908C68.7985 141.908 69.1705 141.724 69.4345 141.356C69.7065 140.988 69.8425 140.488 69.8425 139.856ZM78.3223 136.724V143H76.8823C76.8823 142.544 76.8823 142.092 76.8823 141.644C76.8903 141.196 76.8943 140.78 76.8943 140.396C76.9023 140.012 76.9063 139.68 76.9063 139.4C76.9143 139.112 76.9183 138.9 76.9183 138.764C76.6783 139.076 76.4303 139.42 76.1743 139.796C75.9183 140.172 75.6623 140.548 75.4063 140.924C75.1583 141.3 74.9223 141.668 74.6983 142.028C74.4743 142.388 74.2783 142.712 74.1103 143H72.8263V136.724H74.2543C74.2543 137.188 74.2503 137.632 74.2423 138.056C74.2423 138.472 74.2423 138.852 74.2423 139.196C74.2423 139.54 74.2383 139.84 74.2303 140.096C74.2303 140.352 74.2303 140.548 74.2303 140.684C74.4543 140.34 74.6863 139.988 74.9263 139.628C75.1663 139.26 75.4063 138.904 75.6463 138.56C75.8943 138.208 76.1383 137.876 76.3783 137.564C76.6183 137.252 76.8503 136.972 77.0743 136.724H78.3223ZM75.5863 135.788C75.3303 135.788 75.0903 135.752 74.8663 135.68C74.6503 135.608 74.4543 135.504 74.2783 135.368C74.1023 135.232 73.9583 135.068 73.8463 134.876C73.7343 134.676 73.6663 134.452 73.6423 134.204L74.6863 133.928C74.8223 134.496 75.1223 134.78 75.5863 134.78C76.0583 134.78 76.3583 134.5 76.4863 133.94L77.5183 134.216C77.4863 134.464 77.4143 134.688 77.3023 134.888C77.1983 135.08 77.0583 135.244 76.8823 135.38C76.7143 135.508 76.5183 135.608 76.2943 135.68C76.0703 135.752 75.8343 135.788 75.5863 135.788ZM85.4708 143.12C85.2388 143.12 85.0028 143.112 84.7628 143.096C84.5228 143.08 84.2908 143.06 84.0668 143.036C83.8508 143.012 83.6468 142.988 83.4548 142.964C83.2628 142.932 83.1028 142.9 82.9748 142.868V136.808C83.1028 136.776 83.2628 136.748 83.4548 136.724C83.6468 136.692 83.8508 136.668 84.0668 136.652C84.2908 136.628 84.5228 136.612 84.7628 136.604C85.0028 136.588 85.2388 136.58 85.4708 136.58C86.3188 136.58 86.9788 136.736 87.4508 137.048C87.9228 137.352 88.1588 137.78 88.1588 138.332C88.1588 138.62 88.0868 138.876 87.9428 139.1C87.7988 139.324 87.6108 139.492 87.3788 139.604C87.6668 139.716 87.9148 139.892 88.1228 140.132C88.3308 140.372 88.4348 140.712 88.4348 141.152C88.4348 141.784 88.1868 142.272 87.6908 142.616C87.1948 142.952 86.4548 143.12 85.4708 143.12ZM85.5068 139.244C85.8668 139.244 86.1628 139.192 86.3948 139.088C86.6348 138.984 86.7548 138.776 86.7548 138.464C86.7548 138.312 86.7148 138.188 86.6348 138.092C86.5628 137.996 86.4628 137.92 86.3348 137.864C86.2068 137.808 86.0588 137.772 85.8908 137.756C85.7228 137.732 85.5468 137.72 85.3628 137.72C85.2188 137.72 85.0508 137.724 84.8588 137.732C84.6748 137.74 84.5268 137.752 84.4148 137.768V139.244H85.5068ZM84.4148 141.92C84.5108 141.936 84.6668 141.952 84.8828 141.968C85.1068 141.976 85.3148 141.98 85.5068 141.98C85.9388 141.98 86.2948 141.92 86.5748 141.8C86.8628 141.68 87.0068 141.452 87.0068 141.116C87.0068 140.788 86.8748 140.564 86.6108 140.444C86.3548 140.316 86.0188 140.252 85.6028 140.252H84.4148V141.92ZM96.7716 139.892C96.7716 139.244 96.6236 138.74 96.3276 138.38C96.0396 138.02 95.5716 137.84 94.9236 137.84C94.7876 137.84 94.6436 137.848 94.4916 137.864C94.3476 137.872 94.2036 137.896 94.0596 137.936V141.524C94.1876 141.612 94.3556 141.696 94.5636 141.776C94.7796 141.848 95.0076 141.884 95.2476 141.884C95.7756 141.884 96.1596 141.704 96.3996 141.344C96.6476 140.984 96.7716 140.5 96.7716 139.892ZM98.2596 139.868C98.2596 140.348 98.1956 140.788 98.0676 141.188C97.9476 141.588 97.7716 141.932 97.5396 142.22C97.3076 142.508 97.0156 142.732 96.6636 142.892C96.3196 143.052 95.9276 143.132 95.4876 143.132C95.1916 143.132 94.9196 143.096 94.6716 143.024C94.4236 142.952 94.2196 142.872 94.0596 142.784V145.22H92.6076V136.928C92.9036 136.848 93.2676 136.772 93.6996 136.7C94.1316 136.628 94.5876 136.592 95.0676 136.592C95.5636 136.592 96.0076 136.668 96.3996 136.82C96.7916 136.972 97.1236 137.192 97.3956 137.48C97.6756 137.76 97.8876 138.104 98.0316 138.512C98.1836 138.912 98.2596 139.364 98.2596 139.868ZM101.964 141.98C102.412 141.98 102.752 141.956 102.984 141.908V140.3C102.904 140.276 102.788 140.252 102.636 140.228C102.484 140.204 102.316 140.192 102.132 140.192C101.972 140.192 101.808 140.204 101.64 140.228C101.48 140.252 101.332 140.296 101.196 140.36C101.068 140.424 100.964 140.516 100.884 140.636C100.804 140.748 100.764 140.892 100.764 141.068C100.764 141.412 100.872 141.652 101.088 141.788C101.304 141.916 101.596 141.98 101.964 141.98ZM101.844 136.568C102.324 136.568 102.728 136.628 103.056 136.748C103.384 136.868 103.644 137.036 103.836 137.252C104.036 137.468 104.176 137.732 104.256 138.044C104.344 138.348 104.388 138.684 104.388 139.052V142.856C104.164 142.904 103.824 142.96 103.368 143.024C102.92 143.096 102.412 143.132 101.844 143.132C101.468 143.132 101.124 143.096 100.812 143.024C100.5 142.952 100.232 142.836 100.008 142.676C99.792 142.516 99.62 142.308 99.492 142.052C99.372 141.796 99.312 141.48 99.312 141.104C99.312 140.744 99.38 140.44 99.516 140.192C99.66 139.944 99.852 139.744 100.092 139.592C100.332 139.432 100.608 139.32 100.92 139.256C101.24 139.184 101.572 139.148 101.916 139.148C102.076 139.148 102.244 139.16 102.42 139.184C102.596 139.2 102.784 139.232 102.984 139.28V139.04C102.984 138.872 102.964 138.712 102.924 138.56C102.884 138.408 102.812 138.276 102.708 138.164C102.612 138.044 102.48 137.952 102.312 137.888C102.152 137.824 101.948 137.792 101.7 137.792C101.364 137.792 101.056 137.816 100.776 137.864C100.496 137.912 100.268 137.968 100.092 138.032L99.912 136.856C100.096 136.792 100.364 136.728 100.716 136.664C101.068 136.6 101.444 136.568 101.844 136.568ZM111.554 134.96C111.474 134.976 111.386 134.992 111.29 135.008C111.202 135.024 111.094 135.04 110.966 135.056C110.838 135.072 110.686 135.092 110.51 135.116C110.342 135.132 110.146 135.152 109.922 135.176C109.578 135.216 109.27 135.284 108.998 135.38C108.726 135.468 108.49 135.6 108.29 135.776C108.09 135.944 107.926 136.16 107.798 136.424C107.67 136.688 107.578 137.008 107.522 137.384C107.77 137.224 108.038 137.1 108.326 137.012C108.622 136.924 108.91 136.88 109.19 136.88C110.022 136.88 110.682 137.144 111.17 137.672C111.658 138.2 111.902 138.964 111.902 139.964C111.902 140.444 111.834 140.88 111.698 141.272C111.562 141.664 111.366 142 111.11 142.28C110.854 142.56 110.546 142.78 110.186 142.94C109.826 143.092 109.418 143.168 108.962 143.168C108.394 143.168 107.918 143.076 107.534 142.892C107.15 142.7 106.842 142.432 106.61 142.088C106.378 141.736 106.21 141.316 106.106 140.828C106.002 140.34 105.95 139.796 105.95 139.196C105.95 138.412 106.014 137.72 106.142 137.12C106.278 136.512 106.494 135.992 106.79 135.56C107.094 135.128 107.486 134.78 107.966 134.516C108.454 134.244 109.046 134.056 109.742 133.952C110.102 133.896 110.402 133.852 110.642 133.82C110.89 133.788 111.138 133.744 111.386 133.688L111.554 134.96ZM107.474 138.656C107.458 138.76 107.45 138.888 107.45 139.04C107.45 139.184 107.45 139.32 107.45 139.448C107.45 139.808 107.474 140.14 107.522 140.444C107.57 140.748 107.654 141.008 107.774 141.224C107.894 141.44 108.05 141.608 108.242 141.728C108.434 141.848 108.674 141.908 108.962 141.908C109.21 141.908 109.426 141.86 109.61 141.764C109.794 141.668 109.946 141.532 110.066 141.356C110.186 141.18 110.274 140.976 110.33 140.744C110.394 140.504 110.426 140.244 110.426 139.964C110.426 139.724 110.398 139.496 110.342 139.28C110.294 139.056 110.21 138.86 110.09 138.692C109.978 138.516 109.826 138.376 109.634 138.272C109.442 138.168 109.206 138.116 108.926 138.116C108.654 138.116 108.382 138.164 108.11 138.26C107.846 138.356 107.634 138.488 107.474 138.656ZM119.084 139.856C119.084 140.352 119.012 140.804 118.868 141.212C118.724 141.62 118.52 141.968 118.256 142.256C117.992 142.544 117.672 142.768 117.296 142.928C116.928 143.088 116.52 143.168 116.072 143.168C115.624 143.168 115.216 143.088 114.848 142.928C114.48 142.768 114.164 142.544 113.9 142.256C113.636 141.968 113.428 141.62 113.276 141.212C113.132 140.804 113.06 140.352 113.06 139.856C113.06 139.36 113.132 138.912 113.276 138.512C113.428 138.104 113.636 137.756 113.9 137.468C114.172 137.18 114.492 136.96 114.86 136.808C115.228 136.648 115.632 136.568 116.072 136.568C116.512 136.568 116.916 136.648 117.284 136.808C117.66 136.96 117.98 137.18 118.244 137.468C118.508 137.756 118.712 138.104 118.856 138.512C119.008 138.912 119.084 139.36 119.084 139.856ZM117.596 139.856C117.596 139.232 117.46 138.74 117.188 138.38C116.924 138.012 116.552 137.828 116.072 137.828C115.592 137.828 115.216 138.012 114.944 138.38C114.68 138.74 114.548 139.232 114.548 139.856C114.548 140.488 114.68 140.988 114.944 141.356C115.216 141.724 115.592 141.908 116.072 141.908C116.552 141.908 116.924 141.724 117.188 141.356C117.46 140.988 117.596 140.488 117.596 139.856ZM125.308 137.936H123.28V143H121.828V137.936H119.812V136.724H125.308V137.936ZM126.045 139.892C126.045 139.34 126.125 138.856 126.285 138.44C126.453 138.024 126.673 137.68 126.945 137.408C127.217 137.128 127.529 136.92 127.881 136.784C128.233 136.64 128.593 136.568 128.961 136.568C129.825 136.568 130.497 136.836 130.977 137.372C131.465 137.908 131.709 138.708 131.709 139.772C131.709 139.852 131.705 139.944 131.697 140.048C131.697 140.144 131.693 140.232 131.685 140.312H127.545C127.585 140.816 127.761 141.208 128.073 141.488C128.393 141.76 128.853 141.896 129.453 141.896C129.805 141.896 130.125 141.864 130.413 141.8C130.709 141.736 130.941 141.668 131.109 141.596L131.301 142.784C131.221 142.824 131.109 142.868 130.965 142.916C130.829 142.956 130.669 142.992 130.485 143.024C130.309 143.064 130.117 143.096 129.909 143.12C129.701 143.144 129.489 143.156 129.273 143.156C128.721 143.156 128.241 143.076 127.833 142.916C127.425 142.748 127.089 142.52 126.825 142.232C126.561 141.936 126.365 141.592 126.237 141.2C126.109 140.8 126.045 140.364 126.045 139.892ZM130.257 139.244C130.257 139.044 130.229 138.856 130.173 138.68C130.117 138.496 130.033 138.34 129.921 138.212C129.817 138.076 129.685 137.972 129.525 137.9C129.373 137.82 129.189 137.78 128.973 137.78C128.749 137.78 128.553 137.824 128.385 137.912C128.217 137.992 128.073 138.1 127.953 138.236C127.841 138.372 127.753 138.528 127.689 138.704C127.625 138.88 127.581 139.06 127.557 139.244H130.257ZM135.701 139.868C135.701 139.404 135.773 138.972 135.917 138.572C136.061 138.164 136.265 137.812 136.529 137.516C136.801 137.22 137.129 136.988 137.513 136.82C137.897 136.652 138.329 136.568 138.809 136.568C139.401 136.568 139.961 136.676 140.489 136.892L140.177 138.08C140.009 138.008 139.817 137.948 139.601 137.9C139.393 137.852 139.169 137.828 138.929 137.828C138.361 137.828 137.929 138.008 137.633 138.368C137.337 138.72 137.189 139.22 137.189 139.868C137.189 140.492 137.329 140.988 137.609 141.356C137.889 141.716 138.361 141.896 139.025 141.896C139.273 141.896 139.517 141.872 139.757 141.824C139.997 141.776 140.205 141.716 140.381 141.644L140.585 142.844C140.425 142.924 140.181 142.996 139.853 143.06C139.533 143.124 139.201 143.156 138.857 143.156C138.321 143.156 137.853 143.076 137.453 142.916C137.061 142.748 136.733 142.52 136.469 142.232C136.213 141.936 136.021 141.588 135.893 141.188C135.765 140.78 135.701 140.34 135.701 139.868ZM147.205 136.724V143H145.765C145.765 142.544 145.765 142.092 145.765 141.644C145.773 141.196 145.777 140.78 145.777 140.396C145.785 140.012 145.789 139.68 145.789 139.4C145.797 139.112 145.801 138.9 145.801 138.764C145.561 139.076 145.313 139.42 145.057 139.796C144.801 140.172 144.545 140.548 144.289 140.924C144.041 141.3 143.805 141.668 143.581 142.028C143.357 142.388 143.161 142.712 142.993 143H141.709V136.724H143.137C143.137 137.188 143.133 137.632 143.125 138.056C143.125 138.472 143.125 138.852 143.125 139.196C143.125 139.54 143.121 139.84 143.113 140.096C143.113 140.352 143.113 140.548 143.113 140.684C143.337 140.34 143.569 139.988 143.809 139.628C144.049 139.26 144.289 138.904 144.529 138.56C144.777 138.208 145.021 137.876 145.261 137.564C145.501 137.252 145.733 136.972 145.957 136.724H147.205ZM148.709 139.868C148.709 139.404 148.781 138.972 148.925 138.572C149.069 138.164 149.273 137.812 149.537 137.516C149.809 137.22 150.137 136.988 150.521 136.82C150.905 136.652 151.337 136.568 151.817 136.568C152.409 136.568 152.969 136.676 153.497 136.892L153.185 138.08C153.017 138.008 152.825 137.948 152.609 137.9C152.401 137.852 152.177 137.828 151.937 137.828C151.369 137.828 150.937 138.008 150.641 138.368C150.345 138.72 150.197 139.22 150.197 139.868C150.197 140.492 150.337 140.988 150.617 141.356C150.897 141.716 151.369 141.896 152.033 141.896C152.281 141.896 152.525 141.872 152.765 141.824C153.005 141.776 153.213 141.716 153.389 141.644L153.593 142.844C153.433 142.924 153.189 142.996 152.861 143.06C152.541 143.124 152.209 143.156 151.865 143.156C151.329 143.156 150.861 143.076 150.461 142.916C150.069 142.748 149.741 142.52 149.477 142.232C149.221 141.936 149.029 141.588 148.901 141.188C148.773 140.78 148.709 140.34 148.709 139.868ZM159.597 137.936H157.569V143H156.117V137.936H154.101V136.724H159.597V137.936ZM160.334 139.892C160.334 139.34 160.414 138.856 160.574 138.44C160.742 138.024 160.962 137.68 161.234 137.408C161.506 137.128 161.818 136.92 162.17 136.784C162.522 136.64 162.882 136.568 163.25 136.568C164.114 136.568 164.786 136.836 165.266 137.372C165.754 137.908 165.998 138.708 165.998 139.772C165.998 139.852 165.994 139.944 165.986 140.048C165.986 140.144 165.982 140.232 165.974 140.312H161.834C161.874 140.816 162.05 141.208 162.362 141.488C162.682 141.76 163.142 141.896 163.742 141.896C164.094 141.896 164.414 141.864 164.702 141.8C164.998 141.736 165.23 141.668 165.398 141.596L165.59 142.784C165.51 142.824 165.398 142.868 165.254 142.916C165.118 142.956 164.958 142.992 164.774 143.024C164.598 143.064 164.406 143.096 164.198 143.12C163.99 143.144 163.778 143.156 163.562 143.156C163.01 143.156 162.53 143.076 162.122 142.916C161.714 142.748 161.378 142.52 161.114 142.232C160.85 141.936 160.654 141.592 160.526 141.2C160.398 140.8 160.334 140.364 160.334 139.892ZM164.546 139.244C164.546 139.044 164.518 138.856 164.462 138.68C164.406 138.496 164.322 138.34 164.21 138.212C164.106 138.076 163.974 137.972 163.814 137.9C163.662 137.82 163.478 137.78 163.262 137.78C163.038 137.78 162.842 137.824 162.674 137.912C162.506 137.992 162.362 138.1 162.242 138.236C162.13 138.372 162.042 138.528 161.978 138.704C161.914 138.88 161.87 139.06 161.846 139.244H164.546ZM169.001 138.884C168.977 139.22 168.953 139.572 168.929 139.94C168.905 140.3 168.885 140.66 168.869 141.02C168.853 141.38 168.837 141.728 168.821 142.064C168.805 142.4 168.793 142.712 168.785 143H167.381C167.397 142.536 167.421 142.036 167.453 141.5C167.485 140.956 167.521 140.408 167.561 139.856C167.609 139.296 167.657 138.748 167.705 138.212C167.753 137.676 167.805 137.18 167.861 136.724H169.121C169.425 137.212 169.733 137.788 170.045 138.452C170.357 139.108 170.705 139.856 171.089 140.696C171.489 139.84 171.853 139.068 172.181 138.38C172.509 137.684 172.801 137.132 173.057 136.724H174.329C174.385 137.18 174.437 137.676 174.485 138.212C174.541 138.748 174.589 139.296 174.629 139.856C174.669 140.408 174.705 140.956 174.737 141.5C174.769 142.036 174.793 142.536 174.809 143H173.369C173.353 142.344 173.325 141.668 173.285 140.972C173.253 140.268 173.213 139.572 173.165 138.884C173.045 139.124 172.913 139.392 172.769 139.688C172.633 139.984 172.497 140.284 172.361 140.588C172.225 140.892 172.093 141.188 171.965 141.476C171.837 141.756 171.725 142.004 171.629 142.22H170.549C170.453 142.004 170.337 141.752 170.201 141.464C170.073 141.176 169.941 140.88 169.805 140.576C169.669 140.272 169.529 139.976 169.385 139.688C169.249 139.392 169.121 139.124 169.001 138.884ZM184.146 143H182.694V136.724H184.146V143ZM177.954 139.04C178.074 139.008 178.246 138.98 178.47 138.956C178.702 138.932 178.926 138.92 179.142 138.92C179.486 138.92 179.81 138.96 180.114 139.04C180.426 139.12 180.694 139.248 180.918 139.424C181.15 139.592 181.33 139.812 181.458 140.084C181.594 140.348 181.662 140.664 181.662 141.032C181.662 141.408 181.598 141.728 181.47 141.992C181.342 142.256 181.162 142.472 180.93 142.64C180.698 142.808 180.418 142.932 180.09 143.012C179.77 143.092 179.414 143.132 179.022 143.132C178.566 143.132 178.134 143.108 177.726 143.06C177.326 143.012 176.918 142.94 176.502 142.844V136.724H177.954V139.04ZM178.986 141.992C179.362 141.992 179.658 141.916 179.874 141.764C180.098 141.604 180.21 141.352 180.21 141.008C180.21 140.832 180.174 140.684 180.102 140.564C180.03 140.444 179.93 140.348 179.802 140.276C179.682 140.196 179.542 140.14 179.382 140.108C179.23 140.076 179.07 140.06 178.902 140.06C178.75 140.06 178.582 140.068 178.398 140.084C178.222 140.092 178.074 140.112 177.954 140.144V141.932C178.058 141.948 178.21 141.964 178.41 141.98C178.61 141.988 178.802 141.992 178.986 141.992ZM187.686 136.916C187.686 137.58 187.662 138.188 187.614 138.74C187.566 139.292 187.506 139.848 187.434 140.408H186.402C186.322 139.848 186.258 139.292 186.21 138.74C186.162 138.18 186.138 137.572 186.138 136.916V134.684H187.686V136.916ZM187.866 142.208C187.866 142.488 187.774 142.716 187.59 142.892C187.406 143.068 187.178 143.156 186.906 143.156C186.642 143.156 186.414 143.068 186.222 142.892C186.038 142.716 185.946 142.488 185.946 142.208C185.946 141.928 186.038 141.7 186.222 141.524C186.414 141.34 186.642 141.248 186.906 141.248C187.178 141.248 187.406 141.34 187.59 141.524C187.774 141.7 187.866 141.928 187.866 142.208ZM191.354 136.916C191.354 137.58 191.33 138.188 191.282 138.74C191.234 139.292 191.174 139.848 191.102 140.408H190.07C189.99 139.848 189.926 139.292 189.878 138.74C189.83 138.18 189.806 137.572 189.806 136.916V134.684H191.354V136.916ZM191.534 142.208C191.534 142.488 191.442 142.716 191.258 142.892C191.074 143.068 190.846 143.156 190.574 143.156C190.31 143.156 190.082 143.068 189.89 142.892C189.706 142.716 189.614 142.488 189.614 142.208C189.614 141.928 189.706 141.7 189.89 141.524C190.082 141.34 190.31 141.248 190.574 141.248C190.846 141.248 191.074 141.34 191.258 141.524C191.442 141.7 191.534 141.928 191.534 142.208ZM195.022 136.916C195.022 137.58 194.998 138.188 194.95 138.74C194.902 139.292 194.842 139.848 194.77 140.408H193.738C193.658 139.848 193.594 139.292 193.546 138.74C193.498 138.18 193.474 137.572 193.474 136.916V134.684H195.022V136.916ZM195.202 142.208C195.202 142.488 195.11 142.716 194.926 142.892C194.742 143.068 194.514 143.156 194.242 143.156C193.978 143.156 193.75 143.068 193.558 142.892C193.374 142.716 193.282 142.488 193.282 142.208C193.282 141.928 193.374 141.7 193.558 141.524C193.75 141.34 193.978 141.248 194.242 141.248C194.514 141.248 194.742 141.34 194.926 141.524C195.11 141.7 195.202 141.928 195.202 142.208Z" fill="#DF1D11"/>
<path d="M123.08 64.58C123.08 67.9 122.96 70.94 122.72 73.7C122.48 76.46 122.18 79.24 121.82 82.04H116.66C116.26 79.24 115.94 76.46 115.7 73.7C115.46 70.9 115.34 67.86 115.34 64.58V53.42H123.08V64.58ZM123.98 91.04C123.98 92.44 123.52 93.58 122.6 94.46C121.68 95.34 120.54 95.78 119.18 95.78C117.86 95.78 116.72 95.34 115.76 94.46C114.84 93.58 114.38 92.44 114.38 91.04C114.38 89.64 114.84 88.5 115.76 87.62C116.72 86.7 117.86 86.24 119.18 86.24C120.54 86.24 121.68 86.7 122.6 87.62C123.52 88.5 123.98 89.64 123.98 91.04Z" fill="#DF1D11"/>
<path d="M124.117 9.99015L229.006 152.442C231.924 156.404 229.095 162 224.175 162H15.708C10.8046 162 7.97161 156.437 10.8552 152.472L114.433 10.0192C116.82 6.73604 121.711 6.72138 124.117 9.99015Z" stroke="#DF1D11" stroke-width="4"/>
</svg>
