<svg width="44" height="44" viewBox="0 0 44 44" fill="none" xmlns="http://www.w3.org/2000/svg">
<path d="M21.5629 13.332C22.9027 15.54 23.1967 18.0215 22.7729 20.3389C23.8051 20.5234 24.6527 21.2686 25.5004 22.2256C25.685 22.4375 25.8764 22.6631 26.0678 22.8955C26.7924 22.123 27.2777 20.9678 27.4486 19.6689C27.64 18.1787 27.4008 16.5654 26.765 15.3555C26.7445 15.3281 26.7172 15.2939 26.6967 15.2666C26.553 15.9311 26.296 16.5146 25.9703 16.9165C25.6445 17.3184 25.2704 17.5134 24.9125 17.4678C24.5053 17.4149 24.1505 17.0546 23.9262 16.4662C23.7018 15.8778 23.6263 15.1094 23.7162 14.3301C23.7474 14.0594 23.798 13.7926 23.8666 13.5371C23.3197 13.4072 22.684 13.3389 21.9457 13.332H21.5629ZM20.1615 13.4346C19.8061 13.4756 19.4779 13.5371 19.184 13.6123C19.2344 13.6992 19.2823 13.7882 19.3275 13.8789C19.4784 14.1836 19.5966 14.5029 19.6751 14.8187C19.7537 15.1345 19.7912 15.4405 19.7855 15.7192C19.7798 15.9979 19.731 16.2439 19.6418 16.443C19.5527 16.6422 19.425 16.7907 19.266 16.8799C18.9458 17.0591 18.5185 16.9877 18.0777 16.6815C17.637 16.3753 17.2187 15.8591 16.9144 15.2461C16.8627 15.1407 16.8147 15.0333 16.7709 14.9248C16.3402 15.3691 16.0258 15.8887 15.766 16.4766C17.2494 17.4746 18.0424 18.7939 18.3978 20.1611C18.5551 20.7422 18.6371 21.3301 18.685 21.9111C18.767 21.8086 18.8559 21.7129 18.9447 21.6172C19.6488 20.8584 20.435 20.4141 21.5287 20.3047C22.0072 17.9941 21.6859 15.5605 20.1615 13.4346ZM15.3217 17.6592C15.2123 17.9941 15.1098 18.3428 15.0004 18.6914C15.377 18.957 15.6783 19.2929 15.8394 19.6266C16.0005 19.9603 16.0085 20.2652 15.8617 20.4756C15.7441 20.6457 15.5325 20.7446 15.2574 20.7581C14.9823 20.7716 14.6578 20.699 14.3305 20.5508C14.2279 20.79 14.1117 21.0225 13.9818 21.2549C15.0209 21.7266 15.6566 22.5264 15.9711 23.4287C16.1283 23.8799 16.2309 24.3516 16.2924 24.8232C16.7572 24.29 17.1469 23.8115 17.4955 23.3809C17.4955 22.3691 17.4477 21.3711 17.2084 20.4756C16.9281 19.3955 16.4086 18.4521 15.3217 17.6592ZM37.6068 19.1699C36.6908 20.3389 36.3217 21.8496 36.1508 23.2373C36.1576 23.2441 36.1713 23.2441 36.185 23.251C36.5814 23.415 36.9711 23.5928 37.3334 23.7978C37.4975 22.3965 37.8187 20.8926 38.5775 19.9219L37.6068 19.1699ZM28.6723 19.7578C28.6723 19.7852 28.6654 19.8057 28.6654 19.833C28.4603 21.3779 27.8656 22.8682 26.8402 23.873C27.3871 24.5771 27.975 25.3564 28.6449 26.1699C28.7269 26.2725 28.9389 26.416 29.2396 26.5664C30.4838 25.4453 31.1195 24.2764 31.1674 23.0186C30.976 22.9297 30.7982 22.8271 30.6342 22.7109C30.417 22.9644 30.1753 23.152 29.9402 23.2494C29.705 23.3469 29.4872 23.3498 29.3148 23.2578C29.0856 23.1364 28.9525 22.8565 28.9448 22.4796C28.9372 22.1027 29.0555 21.6597 29.2738 21.248C29.285 21.2274 29.2964 21.2069 29.308 21.1865L29.185 20.9609C28.9936 20.5781 28.8227 20.1748 28.6723 19.7578ZM21.1186 21.5557C20.5785 21.6582 20.2436 21.9316 19.7582 22.458C19.6625 22.5605 19.56 22.6768 19.4574 22.7998C19.4619 22.809 19.4665 22.8181 19.4711 22.8271C19.6739 23.1343 19.9495 23.3534 20.2376 23.4366C20.5258 23.5199 20.8032 23.4605 21.0092 23.2715C21.1964 23.0977 21.3105 22.8284 21.3306 22.5131C21.3507 22.1978 21.2754 21.8578 21.1186 21.5557ZM23.2309 21.877C22.9762 22.1117 22.7895 22.4156 22.7062 22.7309C22.623 23.0461 22.6492 23.3505 22.7797 23.5859C22.8491 23.7121 22.9464 23.8151 23.0661 23.8889C23.1858 23.9627 23.3255 24.0059 23.4773 24.0161C23.629 24.0263 23.7898 24.0032 23.9504 23.9481C24.1111 23.8931 24.2684 23.8072 24.4135 23.6953C24.5409 23.5958 24.6566 23.4778 24.7553 23.3467C24.6664 23.2441 24.5775 23.1348 24.4887 23.0391C24.0307 22.5127 23.6137 22.1299 23.2309 21.877ZM13.2982 22.2734C13.2846 22.2871 13.2709 22.3076 13.2572 22.3213C13.4117 22.6985 13.4792 23.0784 13.448 23.3945C13.4168 23.7106 13.2887 23.9429 13.0863 24.0508C12.9125 24.142 12.6931 24.1374 12.4566 24.0374C12.22 23.9374 11.9774 23.7468 11.7602 23.4902C11.6781 23.5176 11.5893 23.5449 11.5004 23.5723C11.9242 24.3379 12.1019 25.1582 12.1361 25.9033C12.1498 26.3135 12.1293 26.71 12.0814 27.0723C12.5189 27.0107 12.9428 26.9287 13.3256 26.833C14.2826 26.5938 15.0346 26.2109 15.1576 26.0811C15.1645 26.0742 15.1644 26.0674 15.1713 26.0674C15.1029 25.2334 15.0209 24.4473 14.809 23.832C14.5492 23.0937 14.1869 22.5537 13.2982 22.2734ZM32.3705 23.3809C32.2269 24.7002 31.5775 25.9238 30.5248 27.0244C30.559 27.0312 30.5863 27.0381 30.6205 27.0449C31.434 27.2363 32.391 27.3662 33.3549 27.4141C34.059 26.252 34.4144 24.9736 34.2436 23.8594C34.1547 23.8389 34.059 23.8115 33.9701 23.7842C33.8817 24.0213 33.7659 24.214 33.6355 24.3407C33.5051 24.4675 33.3654 24.5233 33.2318 24.502C33.0857 24.4813 32.9532 24.3696 32.8519 24.1816C32.7506 23.9936 32.6852 23.7382 32.6644 23.4492C32.5619 23.4219 32.4662 23.4014 32.3705 23.3809ZM10.179 23.7432C9.86933 23.7568 9.5583 23.7568 9.25273 23.7568C9.26485 24.1291 9.19177 24.47 9.04458 24.7279C8.89739 24.9857 8.68414 25.1464 8.4372 25.1855C8.16884 25.2278 7.87743 25.124 7.61473 24.8924C7.35203 24.6609 7.13505 24.3167 7.00234 23.9209C6.78974 23.9824 6.61338 24.0645 6.48144 24.167C6.17246 24.4131 5.96054 24.7822 6.00634 25.7256C6.03232 26.2588 6.35088 26.5801 7.09052 26.8604C7.82949 27.1475 8.91914 27.2705 10.0539 27.25C10.3061 27.2432 10.5604 27.2295 10.8141 27.2158C10.8838 26.8262 10.9269 26.3955 10.9084 25.9512C10.8769 25.1992 10.6951 24.4404 10.179 23.7432ZM35.515 24.2764C35.5561 25.3428 35.2553 26.4228 34.7562 27.4209C35.7064 27.3867 36.5814 27.2637 37.1967 27.0654C37.5795 26.9355 37.8598 26.7783 37.9965 26.6484C38.14 26.5186 38.1537 26.4639 38.1469 26.3408C38.1264 26.0059 37.9281 25.6846 37.5111 25.3359C37.101 24.9941 36.4857 24.666 35.809 24.3926C35.7133 24.3516 35.6107 24.3174 35.515 24.2764ZM17.7689 24.8916C17.3588 25.3838 16.8939 25.9238 16.3334 26.5254C16.4134 26.636 16.5055 26.7373 16.6068 26.8262C16.7445 26.9491 16.8975 27.0469 17.0569 27.1141C17.2164 27.1813 17.3792 27.2166 17.536 27.2179C17.6929 27.2191 17.8407 27.1864 17.971 27.1215C18.1013 27.0567 18.2115 26.9609 18.2953 26.8398C18.4644 26.5958 18.5162 26.2635 18.4393 25.9161C18.3623 25.5687 18.163 25.2347 17.8852 24.9873C17.8476 24.9536 17.8088 24.9216 17.7689 24.8916ZM26.348 25.3633C26.1257 25.6388 25.9791 25.9815 25.9384 26.3209C25.8978 26.6603 25.966 26.9707 26.1293 27.1885C26.298 27.4103 26.5529 27.5166 26.8393 27.4846C27.1256 27.4527 27.4205 27.285 27.6605 27.0176C27.64 26.9971 27.6195 26.9697 27.599 26.9492C27.141 26.3887 26.7377 25.8691 26.348 25.3633ZM14.6107 27.7217C14.2826 27.8379 13.9203 27.9336 13.5307 28.0293C13.3187 28.084 13.0932 28.1318 12.8607 28.1728C12.9065 28.3383 12.9714 28.4981 13.0521 28.6445C13.139 28.8042 13.2432 28.9454 13.3586 29.0601C13.474 29.1747 13.5985 29.2605 13.7248 29.3126C13.8512 29.3647 13.977 29.382 14.095 29.3635C14.213 29.3451 14.3209 29.2912 14.4125 29.2051C14.5617 29.065 14.6614 28.8453 14.6971 28.5782C14.7328 28.3112 14.7025 28.011 14.6107 27.7217ZM7.5041 28.2822C7.50408 28.2868 7.50408 28.2913 7.5041 28.2959C7.50456 28.6751 7.60019 29.0385 7.77 29.3063C7.93981 29.5742 8.16994 29.7246 8.40986 29.7246C8.62937 29.7242 8.84131 29.5978 9.00627 29.369C9.17124 29.1401 9.27801 28.8244 9.30674 28.4805C8.68056 28.4668 8.0708 28.4053 7.5041 28.2822ZM37.2514 28.3027C36.684 28.4668 36.0414 28.5625 35.3578 28.6172C35.4165 28.7575 35.4904 28.8891 35.5766 29.0068C35.7848 29.2928 36.0533 29.4812 36.3235 29.5312C36.5937 29.5811 36.8436 29.4885 37.0189 29.2734C37.1121 29.1586 37.181 29.0128 37.2211 28.8455C37.2611 28.6783 37.2714 28.4933 37.2514 28.3027ZM30.6478 28.3301C30.6521 28.502 30.6799 28.6734 30.7299 28.8359C30.8399 29.1892 31.0484 29.4788 31.3098 29.6415C31.5711 29.8042 31.8641 29.8267 32.1244 29.7041C32.2981 29.6207 32.4491 29.4761 32.562 29.2852C32.6749 29.0942 32.7456 28.8637 32.767 28.6172C32.0355 28.5625 31.3109 28.4668 30.6478 28.3301Z" fill="#89E159"/>
</svg>
