<svg width="464" height="105" viewBox="0 0 464 105" fill="none" xmlns="http://www.w3.org/2000/svg">
<path d="M216.763 102.965H214.636V16.3367H216.763V102.965Z" fill="#DBE2F9"/>
<path d="M220.245 15.4091L218.773 13.9322L232.667 0L234.139 1.47697L220.245 15.4091Z" fill="#DBE2F9"/>
<path d="M220.245 25.2976L218.773 23.8207L232.667 9.8885L234.139 11.3565L220.245 25.2976Z" fill="#DBE2F9"/>
<path d="M220.245 34.6278L218.773 33.1508L232.667 19.2186L234.139 20.6956L220.245 34.6278Z" fill="#DBE2F9"/>
<path d="M210.992 15.4091L197.098 1.47697L198.57 0L212.455 13.9322L210.992 15.4091Z" fill="#DBE2F9"/>
<path d="M210.992 25.0184L197.098 11.0863L198.57 9.60931L212.455 23.5415L210.992 25.0184Z" fill="#DBE2F9"/>
<path d="M210.992 34.6278L197.098 20.6956L198.57 19.2186L212.455 33.1508L210.992 34.6278Z" fill="#DBE2F9"/>
<path d="M23.8295 41.04C29.2865 41.04 33.7472 42.7421 37.2206 46.1464C40.6851 49.5506 42.4174 53.9635 42.4174 59.3941C42.4174 64.8246 40.6492 69.4357 37.104 72.7949C33.5587 76.1541 28.8377 77.8292 22.9409 77.8292H12.8347V90.5636H0V41.04H23.8295ZM12.8347 66.7969H21.7562C24.018 66.7969 25.8579 66.1035 27.285 64.7256C28.712 63.3477 29.4211 61.5915 29.4211 59.4661C29.4211 57.3407 28.73 55.5846 27.3568 54.1707C25.9835 52.7657 24.1885 52.0633 21.9716 52.0633H12.8347V66.7969Z" fill="#DBE2F9"/>
<path d="M69.9267 91.4461C62.5041 91.4461 56.356 89.0145 51.4824 84.1514C46.6178 79.2882 44.1765 73.1821 44.1765 65.8333C44.1765 58.4845 46.5998 52.3605 51.4465 47.4793C56.2932 42.598 62.4503 40.1484 69.9267 40.1484C75.1862 40.1484 79.8983 41.4363 84.0538 43.994C88.2094 46.5606 91.1982 50.0189 93.0202 54.3598L81.8818 60.0605C80.8497 57.6469 79.2521 55.7107 77.089 54.2517C74.9259 52.7927 72.4667 52.0633 69.7113 52.0633C65.9776 52.0633 62.8631 53.3691 60.377 55.9898C57.8908 58.6106 56.6522 61.8887 56.6522 65.8333C56.6522 69.7779 57.9087 73.002 60.4129 75.6408C62.917 78.2795 66.0404 79.6034 69.7831 79.6034C72.5385 79.6034 75.0247 78.8649 77.2326 77.3879C79.4495 75.9109 81.0471 73.9116 82.0254 71.39L93.46 76.6494C91.638 81.1434 88.6133 84.7277 84.3859 87.4205C80.1586 90.1133 75.3388 91.4552 69.9267 91.4552V91.4461Z" fill="#DBE2F9"/>
<path d="M125.035 41.04H140.159L123.563 65.7613L139.943 90.5546H124.676L115.602 75.6768L105.72 90.5546H90.6687L107.336 65.4641L91.2521 41.04H106.519L115.593 55.8457L125.035 41.04Z" fill="#DBE2F9"/>
<path d="M154.905 59.0969H168.036C173.098 59.0969 177.146 60.5288 180.171 63.3927C183.195 66.2566 184.703 70.0301 184.703 74.7132C184.703 79.3962 183.15 83.2147 180.054 86.1507C176.957 89.0866 172.901 90.5546 167.883 90.5546H142.061V41.04H180.269V52.0723H154.896V59.1059L154.905 59.0969ZM165.523 80.4139C167.345 80.4139 168.844 79.8735 170.019 78.7838C171.204 77.7031 171.788 76.3162 171.788 74.6411C171.788 72.966 171.222 71.5971 170.091 70.5344C168.96 69.4717 167.533 68.9404 165.81 68.9404H154.896V80.4139H165.523Z" fill="#DBE2F9"/>
<path d="M248.267 91.0001V57.624H261.771C265.373 57.624 268.202 58.3528 270.26 59.8105C272.361 61.2253 273.411 63.326 273.411 66.1127C273.411 68.8566 272.404 70.9144 270.389 72.2863C268.374 73.6583 265.737 74.3442 262.479 74.3442L263.379 73.5725C267.28 73.5725 270.131 74.3013 271.932 75.759C273.733 77.2167 274.633 79.3388 274.633 82.1255C274.633 84.998 273.604 87.2059 271.546 88.7493C269.488 90.2499 266.337 91.0001 262.093 91.0001H248.267ZM250.389 89.1995H262.157C265.544 89.1995 268.116 88.6421 269.874 87.5275C271.632 86.3699 272.511 84.5478 272.511 82.0612C272.511 79.6175 271.739 77.8169 270.196 76.6593C268.652 75.5018 266.187 74.923 262.8 74.923H250.389V89.1995ZM250.389 73.1867H261.771C264.772 73.1867 267.109 72.6079 268.781 71.4503C270.453 70.2928 271.289 68.5779 271.289 66.3057C271.289 64.0334 270.453 62.3185 268.781 61.161C267.109 60.0034 264.772 59.4246 261.771 59.4246H250.389V73.1867Z" fill="#BFC6DC"/>
<path d="M287.47 91.0001V57.624H289.592V89.1352H313.193V57.624H315.315V91.0001H287.47ZM318.917 99.4888V90.55L319.624 91.0001H313.193V89.1352H320.974V99.4888H318.917Z" fill="#BFC6DC"/>
<path d="M323.148 91.0001V57.624H325.271V87.5918L350.351 57.624H352.216V91.0001H350.094V61.0324L324.949 91.0001H323.148Z" fill="#BFC6DC"/>
<path d="M375.994 91.2574C375.951 91.2574 375.887 91.2574 375.801 91.2574C375.759 91.2574 375.694 91.2574 375.609 91.2574C375.566 91.2574 375.523 91.2574 375.48 91.2574C369.135 91.2145 364.183 89.714 360.625 86.7558C357.109 83.7547 355.351 79.5961 355.351 74.2799C355.351 68.9637 357.131 64.8266 360.689 61.8684C364.29 58.8673 369.306 57.3668 375.737 57.3668C375.78 57.3668 375.823 57.3668 375.866 57.3668C375.909 57.3668 375.951 57.3668 375.994 57.3668C376.037 57.3668 376.059 57.3668 376.059 57.3668C382.532 57.4096 387.548 58.9102 391.107 61.8684C394.665 64.8266 396.444 68.9637 396.444 74.2799C396.444 79.639 394.644 83.819 391.043 86.8201C387.484 89.7783 382.468 91.2574 375.994 91.2574ZM375.994 89.3281C379.896 89.3281 383.218 88.7279 385.962 87.5275C388.706 86.327 390.785 84.6121 392.2 82.3828C393.658 80.1105 394.387 77.4096 394.387 74.2799C394.387 71.1074 393.658 68.4278 392.2 66.2413C390.785 64.012 388.706 62.3185 385.962 61.161C383.218 59.9605 379.896 59.3603 375.994 59.3603C375.951 59.3603 375.887 59.3603 375.801 59.3603C375.716 59.3603 375.651 59.3603 375.609 59.3603C371.75 59.3603 368.47 59.9605 365.769 61.161C363.068 62.3185 361.01 64.012 359.596 66.2413C358.181 68.4707 357.474 71.1502 357.474 74.2799C357.474 77.4096 358.181 80.0891 359.596 82.3185C361.053 84.5478 363.133 86.2627 365.834 87.4632C368.535 88.6636 371.814 89.2852 375.673 89.3281C375.716 89.3281 375.759 89.3281 375.801 89.3281C375.887 89.3281 375.951 89.3281 375.994 89.3281ZM374.837 103.476V43.2832H376.959V103.476H374.837Z" fill="#BFC6DC"/>
<path d="M416.245 91.193C413.244 91.193 410.543 90.5071 408.143 89.1352C405.742 87.7204 403.834 85.7483 402.419 83.2188C401.047 80.6465 400.361 77.6883 400.361 74.3442C400.361 70.9573 401.047 67.9991 402.419 65.4696C403.834 62.8973 405.742 60.9037 408.143 59.489C410.543 58.0742 413.244 57.3668 416.245 57.3668C419.332 57.3668 422.098 58.0956 424.541 59.5533C427.028 61.0109 428.979 63.0045 430.393 65.5339C431.851 68.0634 432.58 71.0002 432.58 74.3442C432.58 77.6454 431.851 80.5607 430.393 83.0902C428.979 85.6196 427.028 87.6132 424.541 89.0709C422.098 90.4857 419.332 91.193 416.245 91.193ZM399.782 103.476V57.624H401.84V69.3282L401.262 74.4085L401.905 79.4889V103.476H399.782ZM416.181 89.2638C418.882 89.2638 421.304 88.6421 423.448 87.3988C425.635 86.1555 427.349 84.3978 428.593 82.1255C429.836 79.8533 430.458 77.2595 430.458 74.3442C430.458 71.3432 429.836 68.7279 428.593 66.4986C427.349 64.2692 425.635 62.5329 423.448 61.2896C421.304 60.0034 418.882 59.3603 416.181 59.3603C413.437 59.3603 410.994 60.0034 408.85 61.2896C406.706 62.5329 405.013 64.2692 403.77 66.4986C402.526 68.7279 401.905 71.3432 401.905 74.3442C401.905 77.2595 402.526 79.8533 403.77 82.1255C405.013 84.3978 406.706 86.1555 408.85 87.3988C410.994 88.6421 413.437 89.2638 416.181 89.2638Z" fill="#BFC6DC"/>
<path d="M449.404 91.193C446.103 91.193 443.188 90.4857 440.658 89.0709C438.129 87.6132 436.135 85.5982 434.677 83.0259C433.22 80.4535 432.491 77.5382 432.491 74.2799C432.491 70.9787 433.155 68.0634 434.484 65.5339C435.856 63.0045 437.721 61.0109 440.079 59.5533C442.48 58.0956 445.181 57.3668 448.182 57.3668C451.14 57.3668 453.798 58.0742 456.156 59.489C458.557 60.9037 460.422 62.8759 461.751 65.4053C463.123 67.8919 463.809 70.7644 463.809 74.0227C463.809 74.1084 463.809 74.2156 463.809 74.3442C463.809 74.43 463.809 74.5157 463.809 74.6014H433.906V72.8651H462.652L461.816 73.8941C461.816 71.1074 461.215 68.6208 460.015 66.4343C458.857 64.2049 457.25 62.4686 455.192 61.2253C453.134 59.9391 450.797 59.296 448.182 59.296C445.567 59.296 443.23 59.9391 441.173 61.2253C439.115 62.4686 437.486 64.2049 436.285 66.4343C435.128 68.6208 434.549 71.1288 434.549 73.9584V74.3442C434.549 77.2595 435.192 79.8533 436.478 82.1255C437.764 84.3549 439.522 86.1127 441.751 87.3988C443.981 88.6421 446.532 89.2638 449.404 89.2638C451.591 89.2638 453.648 88.8565 455.578 88.0419C457.55 87.2274 459.179 85.9841 460.465 84.312L461.816 85.7268C460.315 87.5275 458.472 88.8994 456.285 89.8426C454.141 90.7429 451.848 91.193 449.404 91.193Z" fill="#BFC6DC"/>
</svg>
